<svg width="38" height="38" viewBox="0 0 38 38" fill="none" xmlns="http://www.w3.org/2000/svg">
<path d="M11.5842 8.17737C13.3869 8.17759 15.3137 8.76122 17.3463 9.92001C17.5031 10.0094 17.5815 10.0541 17.6127 10.1168C17.6398 10.1714 17.6442 10.2354 17.6246 10.2931C17.6021 10.3595 17.5281 10.4161 17.3801 10.5292C16.4603 11.2325 15.5337 12.0316 14.601 12.9207C14.535 12.9837 14.5019 13.0152 14.4647 13.0315C14.4308 13.0463 14.3969 13.0524 14.3601 13.0504C14.3195 13.0482 14.2763 13.0297 14.19 12.9928C13.26 12.5952 12.3944 12.4016 11.5842 12.4015C7.46752 12.4015 4.82008 15.5012 4.82003 18.941C4.82014 22.3807 7.46756 25.4804 11.5842 25.4804C12.3903 25.4803 13.2509 25.2875 14.1756 24.8932C14.2618 24.8564 14.3049 24.838 14.3455 24.8359C14.3823 24.8339 14.4162 24.84 14.45 24.8548C14.4872 24.8711 14.5202 24.9025 14.5862 24.9655C15.519 25.8547 16.4459 26.6541 17.3658 27.3581C17.5137 27.4713 17.5876 27.5279 17.6101 27.5943C17.6296 27.652 17.6253 27.716 17.5981 27.7706C17.5669 27.8333 17.4885 27.8779 17.3317 27.9672C15.3042 29.122 13.3828 29.7043 11.5842 29.7045C4.91265 29.7045 0.593793 24.5776 0.593689 18.941C0.593733 13.3043 4.9126 8.17737 11.5842 8.17737Z" fill="#2845C1"/>
<path d="M23.103 14.854C23.1871 14.8034 23.2292 14.7781 23.2756 14.7715C23.3156 14.7659 23.359 14.7714 23.3963 14.787C23.4395 14.805 23.4745 14.8408 23.5446 14.9124C23.9734 15.3507 24.4055 15.8102 24.8407 16.2908L25.3137 16.8188L25.3429 16.8525L25.3541 16.8693C26.3596 18.0611 26.3575 19.8143 25.3496 21.0047C25.345 21.0109 25.3416 21.019 25.3361 21.026C25.3302 21.0334 25.3215 21.0409 25.3142 21.049L25.3142 21.0502L25.3143 21.0514C24.7134 21.7338 24.1172 22.375 23.528 22.977C23.4578 23.0488 23.4227 23.0847 23.3795 23.1027C23.3422 23.1183 23.2988 23.1238 23.2588 23.1181C23.2124 23.1116 23.1702 23.0862 23.0858 23.0354C22.8983 22.9225 22.7057 22.8003 22.5084 22.6674C21.789 22.1826 21.0311 21.579 20.2298 20.8563C20.1318 20.7679 20.0828 20.7237 20.0631 20.6704C20.0459 20.6236 20.0444 20.5721 20.0588 20.5244C20.0753 20.47 20.1224 20.4221 20.2168 20.3263C20.5739 19.9636 20.9375 19.5826 21.3062 19.1824C21.3857 19.0961 21.4255 19.0529 21.4408 19.0029C21.4542 18.9593 21.4541 18.9115 21.4407 18.8679C21.4254 18.8179 21.3856 18.7748 21.306 18.6885C20.9424 18.2945 20.5841 17.919 20.2318 17.5615C20.1373 17.4655 20.09 17.4176 20.0736 17.3631C20.0592 17.3154 20.0607 17.2639 20.078 17.2171C20.0976 17.1637 20.1467 17.1195 20.2449 17.0311C21.0405 16.3146 21.7939 15.7157 22.5084 15.2336C22.7118 15.0965 22.91 14.9702 23.103 14.854Z" fill="#2845C1"/>
<path d="M26.4165 8.18677C33.0882 8.18677 37.4062 13.3135 37.4062 18.9502C37.4061 24.5868 33.0881 29.7136 26.4165 29.7136C22.3904 29.7134 17.7443 26.8051 12.6861 21.0714L12.6569 21.0379L12.6428 21.0184C11.6421 19.8293 11.6422 18.082 12.6428 16.8928C12.6489 16.8843 12.6562 16.8749 12.6645 16.8646C12.6705 16.8571 12.6776 16.8492 12.6851 16.8408L12.6916 16.8332L12.6937 16.83C17.7485 11.0911 22.3926 8.18689 26.4165 8.18677ZM26.4165 12.4109C25.0413 12.411 23.5053 12.965 21.7679 14.137C20.2082 15.189 18.5229 16.7157 16.6923 18.7061C16.6127 18.7927 16.5729 18.8359 16.5576 18.8859C16.5443 18.9295 16.5443 18.9772 16.5577 19.0208C16.5731 19.0708 16.6129 19.114 16.6926 19.2005C18.5233 21.1871 20.2079 22.7133 21.7679 23.7645C23.5053 24.935 25.0414 25.4893 26.4165 25.4894C30.5332 25.4894 33.1787 22.3899 33.1788 18.9502C33.1788 15.5104 30.5332 12.4109 26.4165 12.4109Z" fill="#C83F49"/>
</svg>
