<svg width="38" height="38" viewBox="0 0 38 38" fill="none" xmlns="http://www.w3.org/2000/svg">
<path d="M25.6862 34.237C27.073 33.8482 28.401 33.1386 29.2724 31.8847C30.1327 30.6569 30.3749 29.0993 30.3749 27.6005V5.64181C30.3749 5.25301 30.3538 4.86349 30.3069 4.47864C30.9956 4.74954 31.5265 5.19719 31.8994 5.82158C32.3394 6.53154 32.5593 7.46648 32.5593 8.62641V30.9301C32.5593 32.5 32.1744 33.6749 31.4044 34.4549C30.6345 35.2348 29.4745 35.6248 27.9246 35.6248H19.4998C19.6994 35.5899 19.8994 35.5539 20.0999 35.5169C21.858 35.2027 23.7159 34.7764 25.672 34.241L25.6862 34.237Z" fill="#C83F49"/>
<path fill-rule="evenodd" clip-rule="evenodd" d="M5.44116 30.4653V8.13165C5.44116 6.77173 5.80614 5.74179 6.5361 5.04183C7.27605 4.34187 8.25599 3.9569 9.47592 3.8869C11.2758 3.77691 12.9807 3.62692 14.5906 3.43693C16.2005 3.23694 17.7404 3.00695 19.2103 2.74697C20.6902 2.48698 22.1302 2.197 23.5301 1.87702C24.97 1.53704 26.0749 1.70703 26.8449 2.38699C27.6148 3.06695 27.9998 4.15188 27.9998 5.6418V27.6005C27.9998 28.9104 27.7748 29.8853 27.3249 30.5253C26.8749 31.1753 26.1149 31.6502 25.045 31.9502C23.1451 32.4702 21.3552 32.8802 19.6753 33.1801C17.9954 33.4901 16.3555 33.7251 14.7556 33.8851C13.1557 34.0451 11.5158 34.1701 9.8359 34.2601C8.44598 34.3401 7.36605 34.0501 6.59609 33.3901C5.82614 32.7402 5.44116 31.7652 5.44116 30.4653ZM10.9353 12.1866C13.1379 12.0464 15.1563 11.8311 16.9902 11.5405C17.4352 11.468 17.8795 11.3924 18.3221 11.314C18.7853 11.232 19.1202 10.8283 19.1202 10.359C19.1202 9.7512 18.5702 9.29348 17.9728 9.39537C17.6297 9.4539 17.2847 9.51079 16.9379 9.56604C15.1224 9.85534 13.1162 10.07 10.9193 10.2098C10.5903 10.231 10.3286 10.3335 10.1603 10.5378C10.0012 10.731 9.92328 10.9633 9.92328 11.2282C9.92328 11.4975 10.0141 11.7319 10.1955 11.9246L10.198 11.9272C10.3946 12.1237 10.6444 12.2088 10.9353 12.1866ZM10.9345 17.1665C13.1374 17.0263 15.156 16.811 16.9902 16.5203C18.8323 16.22 20.6549 15.8695 22.457 15.469C22.8227 15.3878 23.0967 15.2598 23.2337 15.061C23.3684 14.8699 23.435 14.6509 23.435 14.4082C23.435 14.1344 23.3307 13.8985 23.1278 13.7069C22.9093 13.5005 22.6038 13.4525 22.2423 13.5269L22.24 13.5274C20.5228 13.9168 18.7554 14.2563 16.9379 14.5459C15.1224 14.8352 13.1162 15.0498 10.9193 15.1896C10.5903 15.2108 10.3286 15.3133 10.1603 15.5176C10.002 15.7099 9.92328 15.9369 9.92328 16.1931C9.92328 16.4709 10.0131 16.7109 10.1954 16.9046L10.2006 16.9095C10.3966 17.0939 10.6437 17.1778 10.9315 17.1667L10.9345 17.1665ZM10.9351 22.1462C13.1378 21.996 15.1562 21.7757 16.9901 21.4851C18.8324 21.1947 20.6547 20.8493 22.457 20.4487C22.8236 20.3673 23.0978 20.2339 23.2346 20.0244C23.368 19.8347 23.435 19.6214 23.435 19.3879C23.435 19.1141 23.3307 18.8782 23.1278 18.6866C22.9093 18.4802 22.6038 18.4322 22.2424 18.5066L22.2407 18.507C20.5232 18.8864 18.7556 19.221 16.9379 19.5106C15.1222 19.7999 13.1159 20.0195 10.919 20.1693C10.5902 20.1906 10.3285 20.2931 10.1603 20.4973C10.002 20.6896 9.92328 20.9166 9.92328 21.1728C9.92328 21.4506 10.0131 21.6906 10.1954 21.8843L10.2006 21.8892C10.3966 22.0736 10.6437 22.1575 10.9315 22.1464L10.9351 22.1462ZM16.9902 26.4302C15.1563 26.7209 13.1379 26.9362 10.9353 27.0764C10.6444 27.0986 10.3946 27.0135 10.198 26.8169L10.1955 26.8143C10.0142 26.6216 9.92328 26.3873 9.92328 26.118C9.92328 25.8531 10.0012 25.6207 10.1603 25.4275C10.3286 25.2232 10.5904 25.1207 10.9194 25.0995C13.1163 24.9597 15.1224 24.7451 16.9379 24.4558C17.2847 24.4005 17.6297 24.3436 17.9728 24.2851C18.5702 24.1832 19.1202 24.6409 19.1202 25.2487C19.1202 25.7181 18.7853 26.1217 18.3221 26.2037C17.8795 26.2821 17.4352 26.3577 16.9902 26.4302Z" fill="#2845C1"/>
</svg>
