<svg width="38" height="38" viewBox="0 0 38 38" fill="none" xmlns="http://www.w3.org/2000/svg">
<path d="M32.8659 11.5499H9.99841C7.40107 11.5499 4.78922 13.5937 4.16469 16.1149L2.375 23.3395V9.32047C2.375 7.81131 2.72105 6.67466 3.41314 5.91053C4.11411 5.13684 5.0857 4.75 6.32792 4.75H10.0945C10.5559 4.75 10.9552 4.78343 11.2924 4.85029C11.6295 4.91715 11.9401 5.03177 12.224 5.19415C12.508 5.34698 12.8052 5.56189 13.1158 5.83889L13.8744 6.51228C14.2471 6.82749 14.5975 7.05195 14.9258 7.18567C15.2541 7.3194 15.6579 7.38626 16.137 7.38626H28.5148C29.9434 7.38626 31.0259 7.78265 31.7623 8.57544C32.4229 9.27808 32.7908 10.2696 32.8659 11.5499Z" fill="#C83F49"/>
<path d="M6.74088 32.0626C5.30346 32.0626 4.31843 31.6512 3.7858 30.8283C3.25071 30.0154 3.17962 28.8159 3.57254 27.2298L6.32589 16.115C6.66348 14.7522 8.07529 13.6475 9.47926 13.6475H34.9004C36.3043 13.6475 37.1688 14.7522 36.8312 16.115L34.0779 27.2298C33.685 28.8159 33.0329 30.0154 32.1217 30.8283C31.208 31.6512 30.1168 32.0626 28.8479 32.0626H6.74088Z" fill="#2845C1"/>
<rect x="11.875" y="26.125" width="14.25" height="10.6875" rx="5.34375" fill="#EEF1F4"/>
<rect x="11.875" y="26.125" width="14.25" height="10.6875" rx="5.34375" fill="url(#paint0_linear_7901_128)" fill-opacity="0.1"/>
<path d="M22.5508 34.7678C22.2817 34.8514 22.0419 34.8963 21.8313 34.8963C21.1293 34.8963 20.6555 34.331 20.4156 33.1938H20.3864C19.8073 34.4209 18.9942 35.0312 17.9704 35.0312C17.2041 35.0312 16.5899 34.7164 16.1278 34.0804C15.6656 33.4443 15.4375 32.6477 15.4375 31.684C15.4375 30.5597 15.7007 29.6602 16.2214 28.9599C16.742 28.2596 17.4498 27.9062 18.3448 27.9062C18.8245 27.9062 19.2574 28.054 19.6318 28.3431C20.0062 28.6387 20.2928 29.0498 20.4917 29.5831H20.5151L20.9304 28.0412H22.428L21.1761 31.4591C21.3165 32.2558 21.4627 32.8019 21.6265 33.091C21.7669 33.3801 21.9658 33.5279 22.2115 33.5279C22.3519 33.5279 22.4631 33.5022 22.5625 33.4572L22.5508 34.7678ZM20.0588 31.4013C19.936 30.6753 19.7371 30.1099 19.468 29.7244C19.2047 29.3325 18.883 29.1398 18.5145 29.1398C18.0348 29.1398 17.6487 29.3775 17.3621 29.8465C17.0754 30.3219 16.9467 30.9066 16.9467 31.594C16.9467 32.2237 17.0579 32.7441 17.3094 33.1681C17.5551 33.5921 17.8885 33.7977 18.3039 33.7977C18.6549 33.7977 18.9766 33.6114 19.2632 33.258C19.5557 32.8918 19.7956 32.3586 19.9886 31.6583L20.0588 31.4013Z" fill="#C83F49"/>
<defs>
<linearGradient id="paint0_linear_7901_128" x1="19" y1="26.125" x2="19" y2="36.8125" gradientUnits="userSpaceOnUse">
<stop stop-color="#C83F49"/>
<stop offset="1" stop-color="#EEF1F4"/>
</linearGradient>
</defs>
</svg>
