<svg width="38" height="38" viewBox="0 0 38 38" fill="none" xmlns="http://www.w3.org/2000/svg">
<path d="M12.1067 21.6849C12.1884 21.7306 12.2905 21.71 12.348 21.6409C13.519 20.322 15.011 19.6499 15.011 19.6499L15.0304 19.6395C15.0332 19.6435 15.0361 19.6476 15.039 19.6516C15.0427 19.6529 15.0466 19.6464 15.0466 19.6464L16.8751 18.6716C16.8774 18.6651 16.8796 18.6587 16.8818 18.6522L33.2996 9.89665C33.3113 9.89503 33.323 9.89341 33.3346 9.8918L34.9324 9.03814C34.9324 9.03814 35.0108 9.0009 35.1405 8.94144C35.1385 8.93991 35.1365 8.93838 35.1346 8.93684C35.8449 8.60921 38.0218 7.52382 37.6589 6.68022C37.2256 5.67447 35.3778 5.98168 35.3778 5.98168C35.3778 5.98168 26.0215 7.28741 20.6762 8.05156C15.965 8.71716 15.4384 11.5265 15.4384 11.5265C15.4384 11.5265 13.022 18.5333 12.0181 21.4567C11.988 21.5439 12.0257 21.6394 12.1067 21.6849Z" fill="#2845C1"/>
<path d="M25.5927 17.2206C25.511 17.1749 25.4089 17.1954 25.3514 17.2646C24.1803 18.5835 22.6884 19.2556 22.6884 19.2556L22.6682 19.2664C22.6652 19.2622 22.6622 19.2581 22.6592 19.2539C22.6555 19.2526 22.6516 19.2591 22.6516 19.2591L20.8231 20.2339C20.8208 20.2406 20.8185 20.2473 20.8162 20.2541L4.40016 29.0086C4.38793 29.0103 4.37574 29.012 4.36358 29.0137L2.76578 29.8673C2.76578 29.8673 2.68742 29.9046 2.55774 29.964C2.55986 29.9657 2.56197 29.9673 2.56408 29.969C1.85296 30.297 -0.322292 31.382 0.0404927 32.2253C0.473788 33.231 2.32159 32.9238 2.32159 32.9238C2.32159 32.9238 11.6779 31.6181 17.0232 30.8539C21.7344 30.1883 22.261 27.379 22.261 27.379C22.261 27.379 24.6774 20.3722 25.6813 17.4488C25.7114 17.3616 25.6737 17.2661 25.5927 17.2206Z" fill="#C83F49"/>
</svg>
