<svg width="38" height="38" viewBox="0 0 38 38" fill="none" xmlns="http://www.w3.org/2000/svg">
<path fill-rule="evenodd" clip-rule="evenodd" d="M4.61099 15.3805C4.61099 15.0614 4.86967 14.8027 5.18877 14.8027H9.1176C11.197 14.8027 12.8853 16.6599 12.8853 18.9472V22.4992C12.8853 22.8183 12.6266 23.077 12.3075 23.077H8.3433C6.2832 23.077 4.61099 21.2374 4.61099 18.9714V15.3805Z" fill="#C83F49"/>
<path fill-rule="evenodd" clip-rule="evenodd" d="M4.61099 25.4934C4.61099 25.1743 4.86967 24.9156 5.18877 24.9156H9.1176C11.197 24.9156 12.8853 26.7727 12.8853 29.06V32.6121C12.8853 32.9312 12.6266 33.1899 12.3075 33.1899H8.3433C6.2832 33.1899 4.61099 31.3503 4.61099 29.0845V25.4934Z" fill="#C83F49"/>
<path fill-rule="evenodd" clip-rule="evenodd" d="M34.0309 5.2676C34.0309 4.9485 33.7722 4.68982 33.4531 4.68982H29.5243C27.4449 4.68982 25.7566 6.5467 25.7566 8.83425V12.3863C25.7566 12.7054 26.0153 12.9641 26.3344 12.9641H30.2988C32.3587 12.9641 34.0309 11.1243 34.0309 8.85848V5.2676Z" fill="#2845C1"/>
<path fill-rule="evenodd" clip-rule="evenodd" d="M15.6435 5.2676C15.6435 4.9485 15.9022 4.68982 16.2213 4.68982H20.1501C22.2295 4.68982 23.9178 6.5467 23.9178 8.83425V12.3863C23.9178 12.7054 23.6591 12.9641 23.34 12.9641H19.3758C17.3157 12.9641 15.6435 11.1243 15.6435 8.85848V5.2676Z" fill="#2845C1"/>
<path fill-rule="evenodd" clip-rule="evenodd" d="M15.6435 15.3804C15.6435 15.0613 15.9022 14.8027 16.2213 14.8027H20.1501C22.2295 14.8027 23.9178 16.6598 23.9178 18.9471V22.4992C23.9178 22.8183 23.6591 23.0769 23.34 23.0769H19.3758C17.3157 23.0769 15.6435 21.2374 15.6435 18.9713V15.3804Z" fill="#2845C1"/>
<path fill-rule="evenodd" clip-rule="evenodd" d="M34.0309 15.3804C34.0309 15.0613 33.7722 14.8027 33.4531 14.8027H29.5243C27.4449 14.8027 25.7566 16.6598 25.7566 18.9471V22.4992C25.7566 22.8183 26.0153 23.0769 26.3344 23.0769H30.2988C32.3587 23.0769 34.0309 21.2374 34.0309 18.9713V15.3804Z" fill="#2845C1"/>
<path fill-rule="evenodd" clip-rule="evenodd" d="M15.6435 25.4933C15.6435 25.1742 15.9022 24.9155 16.2213 24.9155H20.1501C22.2295 24.9155 23.9178 26.7727 23.9178 29.06V32.612C23.9178 32.9311 23.6591 33.1898 23.34 33.1898H19.3758C17.3157 33.1898 15.6435 31.3502 15.6435 29.0844V25.4933Z" fill="#2845C1"/>
<path fill-rule="evenodd" clip-rule="evenodd" d="M34.0309 25.4933C34.0309 25.1742 33.7722 24.9155 33.4531 24.9155H29.5243C27.4449 24.9155 25.7566 26.7727 25.7566 29.06V32.612C25.7566 32.9311 26.0153 33.1898 26.3344 33.1898H30.2988C32.3587 33.1898 34.0309 31.3502 34.0309 29.0844V25.4933Z" fill="#2845C1"/>
</svg>
