<svg width="87" height="64" viewBox="0 0 87 64" fill="none" xmlns="http://www.w3.org/2000/svg">
<path fill-rule="evenodd" clip-rule="evenodd" d="M3.80933 61.3221L40.3301 32.0673C42.4921 30.3321 42.3891 28.4345 39.6831 26.4634L5.41252 1.62128C0.323761 -2.07031 0 1.3711 0 3.75426V59.8808C0 62.734 1.00027 63.5724 3.80933 61.3221Z" fill="#000091"/>
<path fill-rule="evenodd" clip-rule="evenodd" d="M82.9264 2.75491L27.3586 47.8357C25.7112 49.1593 25.8143 49.821 27.2997 50.7919L38.9489 58.4551C42.4492 60.7495 44.9349 59.9406 47.8768 57.5579L84.0739 28.2441C85.8385 26.8028 86.2359 26.1116 86.2064 23.6553L85.868 3.40198C85.8385 1.03398 85.1326 0.975114 82.9264 2.75491Z" fill="#E1000F"/>
<path fill-rule="evenodd" clip-rule="evenodd" d="M84.8541 32.922L67.7335 46.4829C65.6153 48.1597 65.3803 48.2775 67.5864 49.9837L84.2949 62.8681C85.9275 64.1332 86.2513 64.4418 86.2513 62.2357V33.5985C86.2513 32.0983 86.1188 31.9222 84.8541 32.922Z" fill="#E1000F"/>
</svg>
