<svg width="38" height="38" viewBox="0 0 38 38" fill="none" xmlns="http://www.w3.org/2000/svg">
<path d="M9.55397 15.6265C9.55397 16.3718 10.1581 16.9759 10.9034 16.9759C11.6487 16.9759 12.2528 16.3718 12.2528 15.6265V14.9518H17.6505V15.6265C17.6505 16.3718 18.2547 16.9759 19 16.9759C19.7452 16.9759 20.3494 16.3718 20.3494 15.6265V14.9518H25.7471V15.6265C25.7471 16.3718 26.3513 16.9759 27.0965 16.9759C27.8418 16.9759 28.446 16.3718 28.446 15.6265V14.9518H33.169C33.5412 14.9522 33.8437 15.2541 33.8437 15.6265V26.4694C33.8437 30.5482 30.6045 33.8433 26.688 33.8438H11.3119C7.39509 33.8437 4.15625 30.5489 4.15625 26.5484V15.6265C4.15625 15.2539 4.45833 14.9518 4.83096 14.9518H9.55397V15.6265ZM23.5767 21.7253C23.0564 21.6043 22.5216 21.9102 22.3485 22.4448C21.8783 23.9042 20.434 24.9138 19.0013 24.9144C17.5683 24.9142 16.123 23.9032 15.6528 22.4435C15.4683 21.8736 14.8727 21.5661 14.3218 21.7556C13.7711 21.9465 13.4742 22.563 13.6576 23.134C14.4294 25.5313 16.71 27.0965 19.0013 27.0966C21.2923 27.0961 23.5732 25.5311 24.345 23.134C24.5165 22.5989 24.2661 22.0237 23.781 21.7964L23.6808 21.7556L23.5767 21.7253Z" fill="#2845C1"/>
<path d="M27.0965 4.15625C30.8229 4.15625 33.8437 7.17705 33.8437 10.9034V11.5781C33.8437 11.9507 33.5416 12.2528 33.169 12.2528H28.446V11.5781C28.446 10.8328 27.8418 10.2287 27.0965 10.2287C26.3513 10.2287 25.7471 10.8328 25.7471 11.5781V12.2528H20.3494V11.5781C20.3494 10.8328 19.7452 10.2287 19 10.2287C18.2547 10.2287 17.6505 10.8328 17.6505 11.5781V12.2528H12.2528V11.5781C12.2528 10.8328 11.6487 10.2287 10.9034 10.2287C10.1581 10.2287 9.55397 10.8328 9.55397 11.5781V12.2528H4.83096C4.45833 12.2528 4.15625 11.9507 4.15625 11.5781V10.9034C4.15625 7.17705 7.17705 4.15625 10.9034 4.15625H27.0965Z" fill="#C83F49"/>
</svg>
