<svg width="38" height="38" viewBox="0 0 38 38" fill="none" xmlns="http://www.w3.org/2000/svg">
<path fill-rule="evenodd" clip-rule="evenodd" d="M23.008 27.7092L16.9289 34.4344C16.4055 35.0192 15.5478 35.1555 14.8724 34.7657L5.65292 29.4442C4.5067 28.7814 3.79999 27.5533 3.79999 26.2277V12.904C3.79999 11.5784 4.5067 10.3598 5.65292 9.69705L17.193 3.03041C18.3393 2.36763 19.7526 2.36763 20.8988 3.03041L32.4389 9.69705C33.5852 10.3598 34.2919 11.5784 34.2919 12.904V14.4242C34.2919 14.9311 34.1037 15.4186 33.7626 15.7987L25.2468 25.2237L21.7273 20.243C23.4603 19.4535 24.4466 17.9331 24.4466 15.8863C24.4466 12.7575 22.1601 10.8571 18.4534 10.8571H13.3021V27.7092H16.7204V20.8963H18.4777L22.9788 27.7092H23.008ZM18.6463 13.7031C20.0898 13.7031 20.9329 14.5607 20.9329 15.8375C20.9329 17.2118 20.0898 18.0599 18.6463 18.0599H16.7204V13.7031H18.6463Z" fill="#2845C1"/>
<path fill-rule="evenodd" clip-rule="evenodd" d="M21.5997 35.8863C21.551 35.3561 21.4396 34.7451 21.1882 34.4531C20.9684 34.2044 20.6577 34.0474 20.3674 33.9458C20.4483 33.8666 20.4969 33.8177 20.4969 33.8177L21.4639 32.7497C23.3844 31.7408 26.4142 30.1396 28.8017 28.8769L23.228 35.0224C22.5671 35.3729 22.0054 35.6687 21.5997 35.8863ZM31.3855 26.027C31.3951 25.0908 31.4125 23.4032 31.4282 21.7587L32.4967 20.5811C32.8175 20.8308 33.1988 21.0072 33.62 21.0854C33.8369 21.1308 34.0548 21.1453 34.2681 21.1352C34.2622 21.7018 34.2568 22.2929 34.2509 22.8657L31.3855 26.027ZM28.8017 28.8769L31.3855 26.027C31.3808 26.4827 31.3778 26.766 31.3778 26.766L31.3864 26.8956C31.3681 26.9323 30.9019 27.7651 29.8831 28.3028C29.5437 28.4841 29.1807 28.6775 28.8017 28.8769Z" fill="white"/>
<path fill-rule="evenodd" clip-rule="evenodd" d="M33.9734 18.4091C34.0025 18.3355 34.0806 18.2868 34.1593 18.3061C34.2373 18.3192 34.2939 18.3877 34.2931 18.4677C34.2708 20.993 34.2111 26.7947 34.2111 26.7947C34.2111 26.7947 34.5117 29.0585 31.21 30.8046C27.466 32.7926 20.9049 36.2482 20.9049 36.2482C20.9049 36.2482 19.6212 36.968 19.0563 36.3216C18.4919 35.6751 20.4969 33.8177 20.4969 33.8177L32.536 20.5377C32.536 20.5377 33.4313 19.6724 33.9734 18.4091Z" fill="#C83F49"/>
</svg>
