<svg width="38" height="38" viewBox="0 0 38 38" fill="none" xmlns="http://www.w3.org/2000/svg">
<path d="M1.33269 14.1776C1.1875 14.9226 1.1875 15.8401 1.1875 17.3768V21.0736C1.1875 22.9802 1.1875 23.9336 1.4648 24.787C1.71015 25.5421 2.11147 26.2372 2.64275 26.8273C3.24319 27.4941 4.0688 27.9708 5.72001 28.9241L8.92145 30.7725C10.3828 31.6162 11.1975 32.0866 11.9739 32.3129V20.9069C11.9739 20.3367 11.6625 19.8121 11.1619 19.5391L1.33269 14.1776Z" fill="#C83F49"/>
<path d="M28.0994 15.7547V21.7019C28.0994 22.5242 28.4567 23.3059 29.0785 23.844L33.3589 27.5483C33.6094 27.7602 33.8695 27.9336 34.1392 28.0684C34.4185 28.1937 34.6883 28.2563 34.9484 28.2563C35.5071 28.2563 35.955 28.0733 36.2921 27.7072C36.6389 27.3315 36.8123 26.8451 36.8123 26.2478V11.2206C36.8123 10.6233 36.6389 10.1417 36.2921 9.77564C35.955 9.39996 35.5071 9.21212 34.9484 9.21212C34.6883 9.21212 34.4185 9.27473 34.1392 9.39996C33.8695 9.52519 33.6094 9.69858 33.3589 9.92013L29.0819 13.6097C28.4581 14.1478 28.0994 14.9309 28.0994 15.7547Z" fill="#2845C1"/>
<path d="M2.76319 11.9555C2.64417 11.8906 2.51935 11.8466 2.39297 11.8223C2.47271 11.7205 2.55603 11.6213 2.64281 11.525C3.24325 10.8581 4.06886 10.3814 5.72007 9.4281L8.92151 7.57973C10.5727 6.6264 11.3983 6.14973 12.2761 5.96316C13.0527 5.79809 13.8553 5.79809 14.632 5.96316C15.5097 6.14973 16.3353 6.6264 17.9865 7.57973L21.1502 9.40629C21.1628 9.41354 21.1754 9.42081 21.1881 9.4281C22.8393 10.3814 23.6649 10.8581 24.2653 11.525C24.7966 12.115 25.1979 12.8101 25.4433 13.5652C25.7206 14.4187 25.7206 15.372 25.7206 17.2787V20.9754C25.7206 22.8821 25.7206 23.8354 25.4433 24.6888C25.1979 25.444 24.7966 26.1391 24.2653 26.7291C23.6649 27.396 22.8393 27.8726 21.1882 28.8259C21.174 28.8341 21.1597 28.8423 21.1456 28.8504L17.9865 30.6743C16.3353 31.6277 15.5097 32.1043 14.632 32.2909C14.5959 32.2986 14.5598 32.3059 14.5236 32.3128L14.5236 20.8087C14.5236 19.3055 13.7025 17.9224 12.3829 17.2027L2.76319 11.9555Z" fill="#2845C1"/>
<rect x="4.75" y="27.3125" width="28.5" height="10.6875" rx="5.34375" fill="#EEF1F4"/>
<rect x="4.75" y="27.3125" width="28.5" height="10.6875" rx="5.34375" fill="url(#paint0_linear_7901_41)" fill-opacity="0.1"/>
<path d="M9.90665 35.3118C9.84741 35.3118 9.8178 35.3118 9.79517 35.3003C9.77527 35.2902 9.75909 35.274 9.74895 35.2541C9.73743 35.2315 9.73743 35.2019 9.73743 35.1426V29.9755C9.73743 29.9163 9.73743 29.8866 9.74895 29.864C9.75909 29.8441 9.77527 29.8279 9.79517 29.8178C9.8178 29.8063 9.84741 29.8063 9.90665 29.8063H11.3576C12.5059 29.8063 13.2059 30.3726 13.2059 31.3006C13.2059 31.6446 13.0856 31.9515 12.8555 32.1894C12.7741 32.2735 12.7334 32.3156 12.7266 32.3432C12.7192 32.373 12.7208 32.3879 12.7344 32.4154C12.7469 32.441 12.794 32.4723 12.8882 32.535C13.2977 32.8077 13.5205 33.2143 13.5205 33.6916C13.5205 34.6984 12.7419 35.3118 11.4756 35.3118H9.90665ZM11.3812 30.7344H11.0235C10.9643 30.7344 10.9346 30.7344 10.912 30.7459C10.8921 30.756 10.8759 30.7722 10.8658 30.7921C10.8543 30.8147 10.8543 30.8443 10.8543 30.9036V31.8078C10.8543 31.8671 10.8543 31.8967 10.8658 31.9193C10.8759 31.9392 10.8921 31.9554 10.912 31.9655C10.9346 31.977 10.9643 31.977 11.0235 31.977H11.3812C11.8059 31.977 12.0576 31.749 12.0576 31.3478C12.0576 30.9624 11.8059 30.7344 11.3812 30.7344ZM11.5385 32.9051H11.0235C10.9643 32.9051 10.9346 32.9051 10.912 32.9166C10.8921 32.9268 10.8759 32.943 10.8658 32.9629C10.8543 32.9855 10.8543 33.0151 10.8543 33.0743V34.2145C10.8543 34.2738 10.8543 34.3034 10.8658 34.326C10.8759 34.3459 10.8921 34.3621 10.912 34.3722C10.9346 34.3838 10.9643 34.3838 11.0235 34.3838H11.5385C12.0576 34.3838 12.3722 34.1085 12.3722 33.6444C12.3722 33.1725 12.0576 32.9051 11.5385 32.9051Z" fill="#2845C1"/>
<path d="M14.7572 35.3118C14.698 35.3118 14.6683 35.3118 14.6457 35.3003C14.6258 35.2902 14.6096 35.274 14.5995 35.2541C14.588 35.2315 14.588 35.2019 14.588 35.1426V29.9755C14.588 29.9163 14.588 29.8866 14.5995 29.864C14.6096 29.8441 14.6258 29.8279 14.6457 29.8178C14.6683 29.8063 14.698 29.8063 14.7572 29.8063H17.6277C17.687 29.8063 17.7166 29.8063 17.7392 29.8178C17.7591 29.8279 17.7753 29.8441 17.7854 29.864C17.7969 29.8866 17.7969 29.9163 17.7969 29.9755V30.5651C17.7969 30.6244 17.7969 30.654 17.7854 30.6766C17.7753 30.6965 17.7591 30.7127 17.7392 30.7228C17.7166 30.7344 17.687 30.7344 17.6277 30.7344H15.874C15.8148 30.7344 15.7852 30.7344 15.7626 30.7459C15.7427 30.756 15.7265 30.7722 15.7163 30.7921C15.7048 30.8147 15.7048 30.8443 15.7048 30.9036V31.8707C15.7048 31.93 15.7048 31.9596 15.7163 31.9822C15.7265 32.0021 15.7427 32.0183 15.7626 32.0284C15.7852 32.04 15.8148 32.04 15.874 32.04H17.3131C17.3723 32.04 17.402 32.04 17.4246 32.0515C17.4445 32.0616 17.4607 32.0778 17.4708 32.0977C17.4823 32.1203 17.4823 32.1499 17.4823 32.2092V32.7988C17.4823 32.8581 17.4823 32.8877 17.4708 32.9103C17.4607 32.9302 17.4445 32.9464 17.4246 32.9565C17.402 32.968 17.3723 32.968 17.3131 32.968H15.874C15.8148 32.968 15.7852 32.968 15.7626 32.9796C15.7427 32.9897 15.7265 33.0059 15.7163 33.0258C15.7048 33.0484 15.7048 33.078 15.7048 33.1373V34.2145C15.7048 34.2738 15.7048 34.3034 15.7163 34.326C15.7265 34.3459 15.7427 34.3621 15.7626 34.3722C15.7852 34.3838 15.8148 34.3838 15.874 34.3838H17.6277C17.687 34.3838 17.7166 34.3838 17.7392 34.3953C17.7591 34.4054 17.7753 34.4216 17.7854 34.4415C17.7969 34.4641 17.7969 34.4937 17.7969 34.553V35.1426C17.7969 35.2019 17.7969 35.2315 17.7854 35.2541C17.7753 35.274 17.7591 35.2902 17.7392 35.3003C17.7166 35.3118 17.687 35.3118 17.6277 35.3118H14.7572Z" fill="#2845C1"/>
<path d="M18.7342 30.8209C18.675 30.8209 18.6454 30.8209 18.6228 30.8093C18.6029 30.7992 18.5867 30.783 18.5765 30.7631C18.565 30.7405 18.565 30.7109 18.565 30.6517V29.9755C18.565 29.9163 18.565 29.8866 18.5765 29.864C18.5867 29.8441 18.6029 29.8279 18.6228 29.8178C18.6454 29.8063 18.675 29.8063 18.7342 29.8063H22.9104C22.9696 29.8063 22.9992 29.8063 23.0218 29.8178C23.0417 29.8279 23.0579 29.8441 23.0681 29.864C23.0796 29.8866 23.0796 29.9163 23.0796 29.9755V30.6517C23.0796 30.7109 23.0796 30.7405 23.0681 30.7631C23.0579 30.783 23.0417 30.7992 23.0218 30.8093C22.9992 30.8209 22.9696 30.8209 22.9104 30.8209H21.5499C21.4907 30.8209 21.4611 30.8209 21.4385 30.8324C21.4186 30.8425 21.4024 30.8587 21.3922 30.8786C21.3807 30.9012 21.3807 30.9309 21.3807 30.9901V35.1426C21.3807 35.2019 21.3807 35.2315 21.3692 35.2541C21.359 35.274 21.3429 35.2902 21.323 35.3003C21.3003 35.3118 21.2707 35.3118 21.2115 35.3118H20.4331C20.3739 35.3118 20.3442 35.3118 20.3216 35.3003C20.3017 35.2902 20.2855 35.274 20.2754 35.2541C20.2639 35.2315 20.2639 35.2019 20.2639 35.1426V30.9901C20.2639 30.9309 20.2639 30.9012 20.2523 30.8786C20.2422 30.8587 20.226 30.8425 20.2061 30.8324C20.1835 30.8209 20.1539 30.8209 20.0947 30.8209H18.7342Z" fill="#2845C1"/>
<path d="M23.0048 35.3118C22.9225 35.3118 22.8813 35.3118 22.8549 35.2946C22.8318 35.2794 22.8156 35.2559 22.8096 35.2289C22.8028 35.1981 22.8174 35.1597 22.8465 35.0827L24.8026 29.9156C24.8175 29.8762 24.825 29.8565 24.8379 29.8419C24.8492 29.8291 24.8635 29.8192 24.8795 29.8132C24.8977 29.8063 24.9187 29.8063 24.9609 29.8063H26.19C26.2322 29.8063 26.2533 29.8063 26.2714 29.8132C26.2874 29.8192 26.3017 29.8291 26.3131 29.8419C26.3259 29.8565 26.3334 29.8762 26.3483 29.9156L28.3044 35.0827C28.3335 35.1597 28.3481 35.1981 28.3413 35.2289C28.3353 35.2559 28.3191 35.2794 28.296 35.2946C28.2696 35.3118 28.2284 35.3118 28.1462 35.3118H27.3216C27.279 35.3118 27.2578 35.3118 27.2395 35.3049C27.2234 35.2987 27.209 35.2887 27.1977 35.2757C27.1848 35.261 27.1775 35.241 27.1628 35.2011L26.7173 33.9912C26.7026 33.9512 26.6953 33.9313 26.6824 33.9166C26.6711 33.9036 26.6567 33.8935 26.6406 33.8874C26.6223 33.8804 26.6011 33.8804 26.5585 33.8804H24.5924C24.5498 33.8804 24.5286 33.8804 24.5103 33.8874C24.4942 33.8935 24.4798 33.9036 24.4685 33.9166C24.4556 33.9313 24.4483 33.9512 24.4336 33.9912L23.9882 35.2011C23.9735 35.241 23.9661 35.261 23.9533 35.2757C23.9419 35.2887 23.9275 35.2987 23.9114 35.3049C23.8932 35.3118 23.8719 35.3118 23.8294 35.3118H23.0048ZM24.9034 32.7015C24.8755 32.7779 24.8615 32.8161 24.8685 32.8467C24.8747 32.8734 24.891 32.8967 24.914 32.9116C24.9403 32.9287 24.9809 32.9287 25.0623 32.9287H26.0886C26.17 32.9287 26.2107 32.9287 26.2369 32.9116C26.2599 32.8967 26.2762 32.8734 26.2824 32.8467C26.2894 32.8161 26.2755 32.7779 26.2476 32.7015L25.7344 31.2957C25.6854 31.1614 25.6609 31.0943 25.6251 31.0752C25.594 31.0588 25.5569 31.0588 25.5258 31.0752C25.49 31.0943 25.4655 31.1614 25.4165 31.2957L24.9034 32.7015Z" fill="#2845C1"/>
<defs>
<linearGradient id="paint0_linear_7901_41" x1="19" y1="27.3125" x2="19" y2="38" gradientUnits="userSpaceOnUse">
<stop stop-color="#2845C1"/>
<stop offset="1" stop-color="#EEF1F4"/>
</linearGradient>
</defs>
</svg>
