<svg width="388" height="76" viewBox="0 0 388 76" fill="none" xmlns="http://www.w3.org/2000/svg">
<path d="M59.6626 26.1838H23.3925C19.2728 26.1838 15.1302 29.4255 14.1396 33.4243L11.301 44.8833V22.6477C11.301 20.254 11.8498 18.4511 12.9476 17.2391C14.0594 16.012 15.6004 15.3984 17.5707 15.3984H23.5449C24.2767 15.3984 24.91 15.4515 25.4448 15.5575C25.9796 15.6636 26.4721 15.8454 26.9225 16.1029C27.3729 16.3453 27.8443 16.6862 28.3369 17.1255L29.5402 18.1936C30.1312 18.6935 30.6872 19.0496 31.2079 19.2617C31.7286 19.4738 32.3689 19.5798 33.1289 19.5798H52.7614C55.0272 19.5798 56.7442 20.2085 57.9123 21.466C58.96 22.5804 59.5434 24.1531 59.6626 26.1838Z" fill="#C83F49"/>
<path d="M18.2257 58.7185C15.9458 58.7185 14.3835 58.0659 13.5387 56.7609C12.69 55.4715 12.5772 53.569 13.2004 51.0532L17.5675 33.424C18.103 31.2625 20.3422 29.5103 22.5691 29.5103H62.8895C65.1164 29.5103 66.4875 31.2625 65.9521 33.424L61.585 51.0532C60.9618 53.569 59.9275 55.4715 58.4823 56.7609C57.0331 58.0659 55.3023 58.7185 53.2897 58.7185H18.2257Z" fill="#2845C1"/>
<rect x="15.068" y="51.1846" width="45.2039" height="16.9515" rx="8.47573" fill="#EEF1F4"/>
<rect x="15.068" y="51.1846" width="45.2039" height="16.9515" rx="8.47573" fill="url(#paint0_linear_1965_2578)" fill-opacity="0.1"/>
<path d="M23.247 63.872C23.153 63.872 23.1061 63.872 23.0702 63.8538C23.0386 63.8377 23.0129 63.812 22.9969 63.7804C22.9786 63.7446 22.9786 63.6976 22.9786 63.6036V55.408C22.9786 55.3141 22.9786 55.2671 22.9969 55.2312C23.0129 55.1997 23.0386 55.174 23.0702 55.1579C23.1061 55.1396 23.153 55.1396 23.247 55.1396H25.5484C27.3697 55.1396 28.48 56.0378 28.48 57.5099C28.48 58.0554 28.2891 58.5421 27.9242 58.9195C27.7951 59.053 27.7306 59.1197 27.7197 59.1635C27.708 59.2108 27.7105 59.2344 27.732 59.278C27.752 59.3185 27.8266 59.3682 27.976 59.4677C28.6255 59.9002 28.979 60.5452 28.979 61.3022C28.979 62.899 27.744 63.872 25.7355 63.872H23.247ZM25.5858 56.6117H25.0184C24.9245 56.6117 24.8775 56.6117 24.8416 56.63C24.81 56.646 24.7844 56.6717 24.7683 56.7033C24.75 56.7392 24.75 56.7861 24.75 56.8801V58.3143C24.75 58.4083 24.75 58.4552 24.7683 58.4911C24.7844 58.5227 24.81 58.5483 24.8416 58.5644C24.8775 58.5827 24.9245 58.5827 25.0184 58.5827H25.5858C26.2595 58.5827 26.6587 58.2209 26.6587 57.5847C26.6587 56.9734 26.2595 56.6117 25.5858 56.6117ZM25.8353 60.0547H25.0184C24.9245 60.0547 24.8775 60.0547 24.8416 60.073C24.81 60.0891 24.7844 60.1148 24.7683 60.1463C24.75 60.1822 24.75 60.2292 24.75 60.3231V62.1316C24.75 62.2256 24.75 62.2725 24.7683 62.3084C24.7844 62.34 24.81 62.3656 24.8416 62.3817C24.8775 62.4 24.9245 62.4 25.0184 62.4H25.8353C26.6587 62.4 27.1576 61.9634 27.1576 61.2274C27.1576 60.4789 26.6587 60.0547 25.8353 60.0547Z" fill="#2845C1"/>
<path d="M30.9404 63.872C30.8465 63.872 30.7995 63.872 30.7636 63.8538C30.7321 63.8377 30.7064 63.812 30.6903 63.7804C30.672 63.7446 30.672 63.6976 30.672 63.6036V55.408C30.672 55.3141 30.672 55.2671 30.6903 55.2312C30.7064 55.1997 30.7321 55.174 30.7636 55.1579C30.7995 55.1396 30.8465 55.1396 30.9404 55.1396H35.4934C35.5873 55.1396 35.6343 55.1396 35.6702 55.1579C35.7017 55.174 35.7274 55.1997 35.7435 55.2312C35.7618 55.2671 35.7618 55.3141 35.7618 55.408V56.3433C35.7618 56.4372 35.7618 56.4842 35.7435 56.5201C35.7274 56.5517 35.7017 56.5773 35.6702 56.5934C35.6343 56.6117 35.5873 56.6117 35.4934 56.6117H32.7119C32.6179 56.6117 32.5709 56.6117 32.5351 56.63C32.5035 56.646 32.4778 56.6717 32.4618 56.7033C32.4435 56.7392 32.4435 56.7861 32.4435 56.8801V58.4141C32.4435 58.5081 32.4435 58.555 32.4618 58.5909C32.4778 58.6225 32.5035 58.6481 32.5351 58.6642C32.5709 58.6825 32.6179 58.6825 32.7119 58.6825H34.9944C35.0883 58.6825 35.1353 58.6825 35.1712 58.7008C35.2028 58.7169 35.2284 58.7425 35.2445 58.7741C35.2628 58.81 35.2628 58.857 35.2628 58.9509V59.8861C35.2628 59.9801 35.2628 60.0271 35.2445 60.0629C35.2284 60.0945 35.2028 60.1202 35.1712 60.1363C35.1353 60.1545 35.0883 60.1545 34.9944 60.1545H32.7119C32.6179 60.1545 32.5709 60.1545 32.5351 60.1728C32.5035 60.1889 32.4778 60.2146 32.4618 60.2461C32.4435 60.282 32.4435 60.329 32.4435 60.4229V62.1316C32.4435 62.2256 32.4435 62.2725 32.4618 62.3084C32.4778 62.34 32.5035 62.3656 32.5351 62.3817C32.5709 62.4 32.6179 62.4 32.7119 62.4H35.4934C35.5873 62.4 35.6343 62.4 35.6702 62.4183C35.7017 62.4344 35.7274 62.46 35.7435 62.4916C35.7618 62.5275 35.7618 62.5745 35.7618 62.6684V63.6036C35.7618 63.6976 35.7618 63.7446 35.7435 63.7804C35.7274 63.812 35.7017 63.8377 35.6702 63.8538C35.6343 63.872 35.5873 63.872 35.4934 63.872H30.9404Z" fill="#2845C1"/>
<path d="M37.2484 56.7489C37.1545 56.7489 37.1075 56.7489 37.0716 56.7306C37.0401 56.7145 37.0144 56.6889 36.9983 56.6573C36.98 56.6214 36.98 56.5745 36.98 56.4805V55.408C36.98 55.3141 36.98 55.2671 36.9983 55.2312C37.0144 55.1997 37.0401 55.174 37.0716 55.1579C37.1075 55.1396 37.1545 55.1396 37.2484 55.1396H43.8722C43.9661 55.1396 44.0131 55.1396 44.049 55.1579C44.0806 55.174 44.1062 55.1997 44.1223 55.2312C44.1406 55.2671 44.1406 55.3141 44.1406 55.408V56.4805C44.1406 56.5745 44.1406 56.6214 44.1223 56.6573C44.1062 56.6889 44.0806 56.7145 44.049 56.7306C44.0131 56.7489 43.9661 56.7489 43.8722 56.7489H41.7144C41.6205 56.7489 41.5735 56.7489 41.5376 56.7672C41.506 56.7833 41.4804 56.8089 41.4643 56.8405C41.446 56.8764 41.446 56.9234 41.446 57.0173V63.6036C41.446 63.6976 41.446 63.7446 41.4277 63.7804C41.4116 63.812 41.386 63.8377 41.3544 63.8538C41.3185 63.872 41.2716 63.872 41.1776 63.872H39.943C39.849 63.872 39.8021 63.872 39.7662 63.8538C39.7346 63.8377 39.709 63.812 39.6929 63.7804C39.6746 63.7446 39.6746 63.6976 39.6746 63.6036V57.0173C39.6746 56.9234 39.6746 56.8764 39.6563 56.8405C39.6402 56.8089 39.6146 56.7833 39.583 56.7672C39.5471 56.7489 39.5001 56.7489 39.4062 56.7489H37.2484Z" fill="#2845C1"/>
<path d="M44.0219 63.872C43.8914 63.872 43.8261 63.872 43.7843 63.8446C43.7476 63.8206 43.7219 63.7833 43.7124 63.7406C43.7016 63.6917 43.7247 63.6307 43.7709 63.5086L46.8735 55.313C46.8972 55.2505 46.909 55.2192 46.9294 55.1962C46.9474 55.1759 46.9701 55.1602 46.9955 55.1506C47.0242 55.1396 47.0577 55.1396 47.1245 55.1396H49.0741C49.1409 55.1396 49.1743 55.1396 49.2031 55.1506C49.2285 55.1602 49.2512 55.1759 49.2692 55.1962C49.2896 55.2192 49.3014 55.2505 49.3251 55.313L52.4277 63.5086C52.4739 63.6307 52.497 63.6917 52.4862 63.7406C52.4767 63.7833 52.4509 63.8206 52.4143 63.8446C52.3725 63.872 52.3072 63.872 52.1767 63.872H50.8688C50.8013 63.872 50.7676 63.872 50.7386 63.861C50.7131 63.8512 50.6903 63.8353 50.6723 63.8147C50.6519 63.7913 50.6402 63.7597 50.6169 63.6964L49.9104 61.7773C49.8871 61.714 49.8755 61.6823 49.8551 61.659C49.8371 61.6384 49.8143 61.6225 49.7887 61.6127C49.7598 61.6016 49.726 61.6016 49.6586 61.6016H46.54C46.4726 61.6016 46.4388 61.6016 46.4099 61.6127C46.3843 61.6225 46.3615 61.6384 46.3435 61.659C46.3231 61.6823 46.3114 61.714 46.2881 61.7773L45.5817 63.6964C45.5584 63.7597 45.5467 63.7913 45.5263 63.8147C45.5083 63.8353 45.4855 63.8512 45.4599 63.861C45.431 63.872 45.3973 63.872 45.3298 63.872H44.0219ZM47.0333 59.7317C46.989 59.853 46.9669 59.9136 46.978 59.962C46.9878 60.0044 47.0136 60.0414 47.0501 60.0651C47.0918 60.0922 47.1563 60.0922 47.2854 60.0922H48.9132C49.0423 60.0922 49.1068 60.0922 49.1485 60.0651C49.1849 60.0414 49.2108 60.0044 49.2205 59.962C49.2317 59.9136 49.2096 59.853 49.1653 59.7317L48.3514 57.502C48.2737 57.289 48.2348 57.1825 48.178 57.1524C48.1288 57.1262 48.0698 57.1262 48.0206 57.1524C47.9638 57.1825 47.9249 57.289 47.8472 57.502L47.0333 59.7317Z" fill="#2845C1"/>
<path fill-rule="evenodd" clip-rule="evenodd" d="M212.717 29.6499C218.423 29.6499 222.184 33.2953 222.644 38.4748C222.745 39.6196 222.804 40.8722 222.603 42.0022C222.538 42.3717 222.209 42.6302 221.834 42.6302H207.557C207.314 42.6303 207.125 42.8456 207.166 43.0856C207.814 46.8482 209.885 48.4217 213.196 48.4217C214.164 48.4215 215.153 48.077 215.864 47.7569C216.258 47.5796 216.457 47.4906 216.588 47.4613C216.865 47.3993 217.045 47.4105 217.313 47.5054C217.439 47.55 217.587 47.6394 217.882 47.8175L219.105 48.5557C219.9 49.0348 220.299 49.2739 220.462 49.5179C220.77 49.9786 220.76 50.5682 220.436 51.0181C220.265 51.2565 219.87 51.4769 219.081 51.916C218.489 52.2456 217.883 52.5454 217.251 52.7717C215.066 53.5534 212.733 53.5788 210.385 53.082C204.542 51.8461 201.435 47.0118 201.435 41.4973C201.435 35.0071 205.53 29.6502 212.717 29.6499ZM212.587 34.1799C209.919 34.18 208.101 35.5715 207.39 38.137C207.321 38.3847 207.515 38.6236 207.772 38.6236H216.959C217.188 38.6232 217.373 38.4306 217.344 38.2031C217.083 36.1298 215.484 34.1799 212.587 34.1799Z" fill="#2845C1"/>
<path d="M137.448 21.1941C141.592 21.1942 144.84 22.8782 147.357 25.4964C147.549 25.6968 147.646 25.7969 147.704 25.9224C147.806 26.1466 147.796 26.4368 147.678 26.6532C147.612 26.7746 147.5 26.8765 147.276 27.0792L144.51 29.5783C144.253 29.8109 144.123 29.9288 143.998 29.9823C143.755 30.0862 143.511 30.0726 143.28 29.9437C143.161 29.8774 143.035 29.7365 142.782 29.4553C141.205 27.6976 139.458 26.5889 137.49 26.5889C135.316 26.5893 133.881 27.9813 133.88 29.8078C133.88 32.1344 136.334 33.2047 139.174 34.4425C143.079 36.144 147.714 38.164 147.715 44.2075C147.628 49.9498 143.19 53.3867 137.579 53.3868C132.9 53.3868 129.63 51.8335 127.046 49.1213C126.856 48.9223 126.761 48.8219 126.704 48.6971C126.603 48.4751 126.613 48.1886 126.728 47.9736C126.793 47.8527 126.903 47.7504 127.123 47.5476L129.866 45.0191C130.125 44.7805 130.255 44.6605 130.377 44.606C130.619 44.4979 130.848 44.504 131.084 44.6262C131.203 44.6878 131.341 44.8308 131.616 45.1165C133.321 46.8845 135.411 47.9056 137.535 47.9057C139.97 47.9057 141.449 46.6008 141.449 44.426C141.449 42.0437 138.957 40.9468 136.088 39.6849C132.198 37.9743 127.617 35.9591 127.617 30.0264C127.617 25.1975 131.619 21.1941 137.448 21.1941Z" fill="#2845C1"/>
<path d="M155.559 30.5919C155.877 30.5919 156.037 30.5921 156.165 30.636C156.403 30.7176 156.592 30.9043 156.674 31.1428C156.717 31.2712 156.718 31.4317 156.718 31.7506V43.0342C156.718 46.2092 158.37 48.1662 161.415 48.1664C164.416 48.1664 166.069 46.2094 166.069 43.0342V31.7506C166.069 31.4317 166.07 31.2712 166.114 31.1428C166.195 30.9043 166.384 30.7176 166.622 30.636C166.751 30.5922 166.91 30.5919 167.228 30.5919H170.48C170.799 30.5919 170.959 30.592 171.088 30.636C171.326 30.7178 171.513 30.9046 171.595 31.1428C171.639 31.2712 171.639 31.4317 171.639 31.7506V42.7716C171.639 49.3403 167.81 53.3865 161.372 53.3868C154.934 53.3868 151.148 49.3405 151.148 42.7716V31.7506C151.148 31.4317 151.148 31.2712 151.192 31.1428C151.274 30.9046 151.461 30.7178 151.699 30.636C151.828 30.592 151.988 30.5919 152.307 30.5919H155.559Z" fill="#2845C1"/>
<path fill-rule="evenodd" clip-rule="evenodd" d="M112.347 29.7032C118.698 29.7032 121.961 33.4883 121.962 38.3169V51.3413C121.962 51.6595 121.961 51.8189 121.917 51.9472C121.836 52.1857 121.647 52.3742 121.409 52.4559C121.281 52.4995 121.121 52.4999 120.803 52.4999H117.595C117.276 52.4999 117.116 52.4998 116.987 52.4559C116.749 52.3741 116.562 52.1856 116.48 51.9472C116.437 51.8189 116.436 51.6596 116.436 51.3413V51.1136C116.436 50.9187 116.436 50.821 116.414 50.7794C116.371 50.6971 116.287 50.6611 116.198 50.6857C116.152 50.6987 116.076 50.7699 115.926 50.9116C114.462 52.2926 112.148 53.1516 109.868 53.1518C105.475 53.1518 102.472 50.6289 102.472 46.5836C102.472 43.2776 105.038 40.7968 109.736 40.0136L115.878 38.9761C116.2 38.9218 116.436 38.6434 116.436 38.3169C116.436 36.0115 114.696 34.5325 112.173 34.5325C110.472 34.5325 109.076 35.1702 107.984 36.2456C107.696 36.5299 107.55 36.6718 107.441 36.7286C107.214 36.8458 107.025 36.857 106.785 36.769C106.669 36.7264 106.537 36.6254 106.273 36.4238L104.066 34.7399C103.83 34.5598 103.712 34.469 103.634 34.3488C103.5 34.14 103.472 33.8253 103.566 33.596C103.621 33.4635 103.708 33.3677 103.882 33.1773C105.866 31.003 108.799 29.7032 112.347 29.7032ZM115.762 42.8671L111.216 43.6254C108.911 44.0169 107.953 44.9729 107.953 46.321C107.953 47.8001 109.129 48.7577 110.999 48.7577C113.207 48.7574 114.881 47.8584 115.994 46.4679C116.069 46.3734 116.108 46.3258 116.176 46.2108C116.279 46.0355 116.389 45.7218 116.418 45.5204C116.437 45.3887 116.436 45.2849 116.436 45.0779V43.4381C116.436 43.2535 116.435 43.1613 116.409 43.0911C116.359 42.9605 116.246 42.8636 116.109 42.8359C116.036 42.821 115.944 42.8367 115.762 42.8671Z" fill="#2845C1"/>
<path d="M192.227 25.1108C192.545 25.1108 192.706 25.1109 192.834 25.1548C193.072 25.2367 193.26 25.4235 193.341 25.6616C193.385 25.79 193.385 25.9493 193.385 26.2676V30.1916C193.385 30.3015 193.385 30.3566 193.4 30.4009C193.428 30.4834 193.494 30.5472 193.576 30.5754C193.621 30.5905 193.675 30.5919 193.785 30.5919H198.927C199.245 30.5919 199.405 30.592 199.533 30.636C199.771 30.7176 199.958 30.9045 200.04 31.1428C200.084 31.2712 200.084 31.4317 200.084 31.7506V34.3929C200.084 34.7114 200.084 34.8705 200.04 34.9989C199.958 35.2373 199.771 35.4258 199.533 35.5075C199.405 35.5514 199.245 35.5516 198.927 35.5516H193.785C193.676 35.5516 193.62 35.5512 193.576 35.5662C193.494 35.5944 193.428 35.6585 193.4 35.7407C193.385 35.7851 193.385 35.8416 193.385 35.9519V44.5123C193.385 46.9484 194.69 47.9056 196.865 47.9057C197.718 47.9057 198.407 47.8512 198.978 47.7496C199.371 47.6797 199.568 47.6453 199.671 47.6651C199.886 47.7068 200.012 47.8106 200.091 48.0159C200.129 48.1136 200.128 48.2841 200.128 48.6236V51.501C200.128 51.7063 200.127 51.8089 200.098 51.9142C200.05 52.0917 199.906 52.2869 199.751 52.3861C199.659 52.4449 199.58 52.4704 199.421 52.5201C198.477 52.8151 197.356 52.9516 195.908 52.9516C190.427 52.9516 187.816 49.8632 187.816 44.5123V35.9519C187.816 35.8416 187.816 35.7851 187.801 35.7407C187.773 35.6586 187.707 35.5944 187.625 35.5662C187.581 35.5513 187.525 35.5516 187.416 35.5516H184.885C184.567 35.5516 184.408 35.5512 184.279 35.5075C184.041 35.4258 183.852 35.2373 183.771 34.9989C183.727 34.8706 183.727 34.7111 183.727 34.3929V31.7506C183.727 31.4317 183.727 31.2712 183.771 31.1428C183.852 30.9043 184.041 30.7176 184.279 30.636C184.408 30.5922 184.567 30.5919 184.885 30.5919H187.416C187.525 30.5919 187.581 30.5904 187.625 30.5754C187.707 30.5472 187.773 30.4833 187.801 30.4009C187.816 30.3566 187.816 30.3015 187.816 30.1916V26.2676C187.816 25.9494 187.816 25.7899 187.86 25.6616C187.942 25.4231 188.13 25.2365 188.369 25.1548C188.497 25.111 188.656 25.1108 188.975 25.1108H192.227Z" fill="#2845C1"/>
<path d="M87.7636 22.182C88.1545 22.1502 88.5242 22.365 88.6909 22.72C88.7801 22.9099 88.7809 23.2077 88.7809 23.8015V46.5285C88.7809 46.6876 88.781 46.7673 88.803 46.8315C88.8439 46.9505 88.9372 47.0441 89.0564 47.0849C89.1205 47.1067 89.2002 47.1069 89.3593 47.1069H98.8838C99.2021 47.1069 99.3615 47.1071 99.4898 47.151C99.728 47.2325 99.9148 47.4197 99.9966 47.6578C100.041 47.7862 100.041 47.9467 100.041 48.2656V51.3872C100.041 51.7057 100.041 51.8648 99.9966 51.9931C99.9149 52.2316 99.7283 52.4201 99.4898 52.5018C99.3615 52.5456 99.202 52.5458 98.8838 52.5458H84.0324C83.7135 52.5458 83.5531 52.5457 83.4246 52.5018C83.1863 52.42 82.9995 52.2315 82.9178 51.9931C82.874 51.8648 82.8738 51.7055 82.8738 51.3872V26.4292C82.8738 25.9852 82.8741 25.762 82.9197 25.5588C83.004 25.1836 83.2015 24.8434 83.4852 24.5838C83.6389 24.4433 83.8311 24.3324 84.2161 24.1119L86.7813 22.6429C87.2967 22.3476 87.5545 22.199 87.7636 22.182Z" fill="#2845C1"/>
<path d="M180.381 30.5919C180.699 30.5919 180.859 30.5922 180.987 30.636C181.225 30.7176 181.414 30.9043 181.496 31.1428C181.54 31.2712 181.54 31.4317 181.54 31.7506V51.3596C181.54 51.6779 181.54 51.8373 181.496 51.9656C181.414 52.2041 181.225 52.3907 180.987 52.4724C180.859 52.5162 180.699 52.5164 180.381 52.5164H177.173C176.854 52.5164 176.694 52.5164 176.565 52.4724C176.327 52.3906 176.14 52.2038 176.059 51.9656C176.015 51.8373 176.014 51.6779 176.014 51.3596V31.7506C176.014 31.4317 176.015 31.2712 176.059 31.1428C176.14 30.9046 176.327 30.7177 176.565 30.636C176.694 30.592 176.854 30.5919 177.173 30.5919H180.381Z" fill="#2845C1"/>
<path d="M178.798 19.5415C180.756 19.5415 182.366 21.1957 182.366 23.1534C182.366 25.1106 180.756 26.7634 178.798 26.7634C176.841 26.7632 175.189 25.1105 175.188 23.1534C175.188 21.1958 176.841 19.5416 178.798 19.5415Z" fill="#2845C1"/>
<path d="M276.706 30.8016C278.68 30.8017 280.44 31.2017 281.985 32.0027C283.442 32.7177 284.653 33.6786 285.62 34.8838C285.749 35.0451 285.715 35.28 285.551 35.4049L282.436 37.7679C282.262 37.8998 282.013 37.856 281.881 37.6823C281.364 37.0021 280.697 36.4391 279.881 35.9941C278.966 35.4793 277.892 35.2216 276.662 35.2216C275.661 35.2217 274.732 35.4072 273.874 35.7789C273.044 36.1508 272.328 36.666 271.727 37.324C271.127 37.9819 270.654 38.7547 270.311 39.6415C269.968 40.4998 269.796 41.4443 269.796 42.4741C269.796 43.8473 270.097 45.0923 270.697 46.208C271.298 47.2952 272.114 48.1537 273.144 48.7831C274.174 49.4125 275.375 49.7267 276.749 49.7267C277.922 49.7267 278.966 49.4691 279.881 48.9542C280.697 48.5092 281.364 47.9476 281.881 47.2678C282.013 47.0941 282.262 47.0503 282.436 47.1822L285.547 49.5428C285.713 49.6687 285.746 49.9058 285.614 50.067C284.649 51.2463 283.439 52.2055 281.985 52.9456C280.44 53.7466 278.68 54.1484 276.706 54.1485C274.274 54.1485 272.171 53.6179 270.397 52.5593C268.624 51.4721 267.25 50.042 266.277 48.2681C265.333 46.4942 264.861 44.5627 264.861 42.4741C264.861 40.9009 265.132 39.4135 265.676 38.0119C266.219 36.6099 267.008 35.3652 268.038 34.278C269.067 33.191 270.311 32.346 271.77 31.7452C273.229 31.1158 274.875 30.8016 276.706 30.8016Z" fill="#2845C1"/>
<path fill-rule="evenodd" clip-rule="evenodd" d="M334.098 30.8016C335.585 30.8016 336.93 31.0438 338.132 31.53C339.333 32.0163 340.363 32.6896 341.222 33.5478C342.109 34.4061 342.782 35.4225 343.239 36.5956C343.697 37.7683 343.925 39.0411 343.925 40.4141C343.925 40.9291 343.898 41.4304 343.841 41.9168C343.799 42.269 343.75 42.5762 343.693 42.8383C343.658 43.0044 343.508 43.1179 343.338 43.1179H328.275C328.056 43.1179 327.883 43.3037 327.906 43.5212C328.026 44.6589 328.301 45.6403 328.734 46.4655C329.335 47.6098 330.178 48.4684 331.265 49.0406C332.352 49.6128 333.583 49.8996 334.957 49.8996C336.244 49.8995 337.403 49.642 338.433 49.1271C339.361 48.6755 340.124 48.0914 340.722 47.3757C340.86 47.2115 341.103 47.1781 341.271 47.3114L344.071 49.5436C344.23 49.6703 344.26 49.9007 344.133 50.0593C343.164 51.2699 341.935 52.2467 340.449 52.9897C338.847 53.762 337.03 54.1485 334.999 54.1485C332.481 54.1485 330.335 53.6179 328.561 52.5593C326.788 51.4721 325.429 50.0417 324.485 48.2681C323.541 46.4942 323.069 44.5628 323.069 42.4741C323.069 40.8435 323.311 39.3272 323.797 37.9254C324.312 36.5235 325.042 35.2925 325.986 34.2338C326.93 33.1468 328.09 32.3037 329.463 31.7029C330.836 31.1021 332.381 30.8016 334.098 30.8016ZM333.969 34.7066C332.71 34.7066 331.608 34.9933 330.664 35.5655C329.749 36.1377 329.048 36.9812 328.561 38.0965C328.404 38.4487 328.273 38.8285 328.168 39.2351C328.108 39.4662 328.287 39.6857 328.526 39.6857H338.896C339.109 39.6857 339.281 39.5094 339.258 39.2979C339.187 38.6192 338.984 37.976 338.647 37.3681C338.246 36.5672 337.66 35.9231 336.888 35.4368C336.116 34.9504 335.142 34.7066 333.969 34.7066Z" fill="#2845C1"/>
<path d="M370.681 30.8016C372.254 30.8016 373.714 31.145 375.058 31.8317C376.31 32.4574 377.312 33.2374 378.065 34.172C378.188 34.3254 378.161 34.5478 378.012 34.6757L375.367 36.9316C375.201 37.0739 374.949 37.0436 374.81 36.8735C374.322 36.2724 373.761 35.7646 373.127 35.3503C372.383 34.8641 371.567 34.6201 370.681 34.6201C370.052 34.6202 369.509 34.7354 369.051 34.9641C368.622 35.193 368.292 35.4934 368.063 35.8654C367.863 36.2373 367.763 36.6528 367.763 37.1106C367.764 37.7969 368.006 38.3691 368.492 38.8267C369.007 39.2559 369.666 39.6285 370.467 39.9432C371.268 40.2578 372.112 40.6014 372.998 40.9732C373.914 41.3166 374.772 41.7458 375.573 42.2608C376.374 42.7472 377.018 43.4047 377.505 44.2344C378.02 45.0353 378.277 46.0505 378.277 47.2804C378.277 48.7392 377.92 49.9844 377.205 51.0142C376.518 52.0154 375.603 52.7882 374.459 53.3318C373.314 53.8754 372.054 54.1485 370.681 54.1485C368.821 54.1484 367.205 53.8048 365.832 53.1185C364.567 52.4594 363.447 51.5927 362.473 50.5206C362.334 50.368 362.351 50.1323 362.506 49.9961L365.15 47.6699C365.311 47.5279 365.558 47.55 365.698 47.7129C366.32 48.4345 367.009 49.0353 367.763 49.5133C368.622 50.0567 369.58 50.3282 370.638 50.3282C371.64 50.3282 372.399 50.0706 372.914 49.5556C373.457 49.0122 373.728 48.3541 373.728 47.582C373.728 46.867 373.471 46.295 372.956 45.8659C372.47 45.4368 371.826 45.0641 371.025 44.7494C370.224 44.4347 369.365 44.105 368.45 43.7617C367.563 43.3898 366.718 42.9468 365.917 42.4318C365.116 41.917 364.458 41.259 363.943 40.4582C363.457 39.6285 363.213 38.5692 363.213 37.2817C363.213 36.08 363.529 34.9932 364.158 34.0205C364.788 33.0191 365.66 32.231 366.776 31.6588C367.92 31.0867 369.222 30.8017 370.681 30.8016Z" fill="#2845C1"/>
<path d="M252.39 27.2925C252.39 27.5006 252.222 27.6692 252.013 27.6692H241.093C240.884 27.6692 240.716 27.8379 240.716 28.0459V35.4022C240.716 35.6102 240.884 35.7789 241.093 35.7789H250.296C250.504 35.7789 250.672 35.9476 250.672 36.1556V39.824C250.672 40.032 250.504 40.2007 250.296 40.2007H241.093C240.884 40.2007 240.716 40.3694 240.716 40.5774V52.9128C240.716 53.1209 240.547 53.2895 240.339 53.2895H235.814C235.606 53.2895 235.437 53.1209 235.437 52.9128V23.6241C235.437 23.4161 235.606 23.2474 235.814 23.2474H252.013C252.222 23.2474 252.39 23.4161 252.39 23.6241V27.2925Z" fill="#2845C1"/>
<path d="M260.807 52.9128C260.807 53.1209 260.638 53.2895 260.43 53.2895H256.464C256.256 53.2895 256.087 53.1209 256.087 52.9128V32.0355C256.087 31.8274 256.256 31.6588 256.464 31.6588H260.43C260.638 31.6588 260.807 31.8274 260.807 32.0355V52.9128Z" fill="#2845C1"/>
<path d="M293.774 33.1601C293.774 33.3299 293.983 33.4152 294.106 33.2988C294.816 32.6294 295.635 32.0683 296.562 31.6165C297.678 31.0728 298.981 30.8016 300.469 30.8016C302.071 30.8017 303.501 31.1588 304.76 31.874C306.048 32.5892 307.064 33.6486 307.808 35.0505C308.552 36.4523 308.923 38.2126 308.923 40.3295V52.9128C308.923 53.1209 308.754 53.2895 308.546 53.2895H304.535C304.327 53.2895 304.159 53.1209 304.159 52.9128V40.5005C304.159 38.8411 303.73 37.5534 302.871 36.6379C302.013 35.6939 300.84 35.2216 299.352 35.2216C298.409 35.2216 297.579 35.4072 296.864 35.7789C296.149 36.1222 295.532 36.567 295.017 37.1106C294.566 37.6147 294.177 38.1437 293.849 38.697C293.799 38.7816 293.774 38.8784 293.774 38.9768V52.9128C293.774 53.1209 293.605 53.2895 293.397 53.2895H289.429C289.221 53.2895 289.052 53.1209 289.052 52.9128V21.4794C289.052 21.2714 289.221 21.1027 289.429 21.1027H293.397C293.605 21.1027 293.774 21.2714 293.774 21.4794V33.1601Z" fill="#2845C1"/>
<path d="M319.015 52.9128C319.015 53.1209 318.846 53.2895 318.638 53.2895H314.672C314.464 53.2895 314.295 53.1209 314.295 52.9128V32.0355C314.295 31.8274 314.464 31.6588 314.672 31.6588H318.638C318.846 31.6588 319.015 31.8274 319.015 32.0355V52.9128Z" fill="#2845C1"/>
<path d="M358.993 31.2302C359.365 31.2302 359.709 31.2594 360.023 31.3166C360.236 31.3552 360.435 31.3999 360.621 31.4512C360.777 31.4943 360.881 31.6394 360.881 31.8016V35.6827C360.881 35.9278 360.65 36.1077 360.41 36.0588C360.214 36.0189 360.013 35.9833 359.808 35.9518C359.465 35.8946 359.049 35.8654 358.563 35.8654C357.677 35.8654 356.876 36.008 356.161 36.2939C355.474 36.58 354.873 36.9665 354.358 37.4527C353.978 37.791 353.644 38.1608 353.357 38.5617C353.158 38.8393 353.071 39.1781 353.071 39.5196V52.9128C353.071 53.1209 352.902 53.2895 352.694 53.2895H348.726C348.518 53.2895 348.349 53.1209 348.349 52.9128V32.0355C348.349 31.8274 348.518 31.6588 348.726 31.6588H352.694C352.902 31.6588 353.071 31.8274 353.071 32.0355V33.5507C353.071 33.7223 353.283 33.806 353.404 33.6839C353.643 33.4411 353.889 33.2097 354.143 32.9904C354.773 32.4468 355.488 32.0176 356.29 31.7029C357.091 31.3882 357.992 31.2302 358.993 31.2302Z" fill="#2845C1"/>
<path d="M258.489 20.8452C259.061 20.8452 259.577 20.9879 260.035 21.2738C260.521 21.5599 260.894 21.9462 261.151 22.4326C261.437 22.8904 261.58 23.4054 261.58 23.9776C261.58 24.5497 261.437 25.0787 261.151 25.565C260.894 26.0514 260.521 26.4377 260.035 26.7238C259.577 26.9811 259.061 27.11 258.489 27.11C257.918 27.1099 257.388 26.9811 256.902 26.7238C256.416 26.4377 256.029 26.0512 255.743 25.565C255.457 25.0788 255.315 24.5496 255.315 23.9776C255.315 23.1193 255.615 22.3896 256.216 21.7888C256.845 21.1596 257.603 20.8454 258.489 20.8452Z" fill="#2845C1"/>
<path d="M316.698 20.8452C317.27 20.8452 317.785 20.9877 318.243 21.2738C318.729 21.5599 319.102 21.9462 319.359 22.4326C319.645 22.8903 319.788 23.4055 319.788 23.9776C319.788 24.5496 319.645 25.0788 319.359 25.565C319.102 26.0514 318.729 26.4377 318.243 26.7238C317.785 26.9812 317.27 27.11 316.698 27.11C316.125 27.11 315.596 26.9812 315.11 26.7238C314.624 26.4377 314.238 26.0514 313.951 25.565C313.665 25.0787 313.523 24.5497 313.523 23.9776C313.523 23.1193 313.823 22.3896 314.424 21.7888C315.053 21.1597 315.811 20.8453 316.698 20.8452Z" fill="#2845C1"/>
<defs>
<linearGradient id="paint0_linear_1965_2578" x1="37.6699" y1="51.1846" x2="37.6699" y2="68.136" gradientUnits="userSpaceOnUse">
<stop stop-color="#2845C1"/>
<stop offset="1" stop-color="#EEF1F4"/>
</linearGradient>
</defs>
</svg>
