<svg width="179" height="40" viewBox="0 0 179 40" fill="none" xmlns="http://www.w3.org/2000/svg">
<path d="M5.12227 15.939C5 16.5663 5 17.3389 5 18.6331V21.7461C5 23.3517 5 24.1545 5.23351 24.8732C5.44012 25.5091 5.77808 26.0944 6.22547 26.5913C6.73111 27.1529 7.42635 27.5543 8.81685 28.3571L11.5128 29.9136C12.7434 30.6241 13.4294 31.0202 14.0833 31.2108V21.6057C14.0833 21.1256 13.821 20.6838 13.3995 20.4539L5.12227 15.939Z" fill="#C83F49"/>
<path d="M27.6627 17.2673V22.2754C27.6627 22.9679 27.9636 23.6262 28.4872 24.0793L32.0917 27.1987C32.3026 27.3771 32.5217 27.5231 32.7488 27.6367C32.984 27.7422 33.2112 27.7949 33.4302 27.7949C33.9007 27.7949 34.2779 27.6408 34.5618 27.3325C34.8538 27.0161 34.9998 26.6065 34.9998 26.1036V13.449C34.9998 12.9461 34.8538 12.5405 34.5618 12.2322C34.2779 11.9159 33.9007 11.7577 33.4302 11.7577C33.2112 11.7577 32.984 11.8104 32.7488 11.9159C32.5217 12.0213 32.3026 12.1674 32.0917 12.3539L28.49 15.4609C27.9647 15.9141 27.6627 16.5735 27.6627 17.2673Z" fill="#2845C1"/>
<path d="M6.32689 14.0679C6.22667 14.0132 6.12156 13.9762 6.01514 13.9558C6.08228 13.87 6.15244 13.7865 6.22552 13.7054C6.73116 13.1438 7.42641 12.7424 8.8169 11.9396L11.5129 10.3831C12.9033 9.58025 13.5986 9.17885 14.3377 9.02174C14.9917 8.88273 15.6677 8.88273 16.3217 9.02174C17.0608 9.17885 17.7561 9.58025 19.1465 10.3831L21.8107 11.9212C21.8213 11.9273 21.8319 11.9334 21.8426 11.9396C23.2331 12.7424 23.9283 13.1438 24.4339 13.7054C24.8813 14.2022 25.2193 14.7876 25.4259 15.4235C25.6594 16.1422 25.6594 16.945 25.6594 18.5506V21.6636C25.6594 23.2692 25.6594 24.072 25.4259 24.7907C25.2193 25.4266 24.8813 26.012 24.4339 26.5089C23.9283 27.0704 23.2331 27.4718 21.8427 28.2746C21.8307 28.2815 21.8187 28.2884 21.8068 28.2952L19.1465 29.8312C17.7561 30.634 17.0608 31.0354 16.3217 31.1925C16.2913 31.1989 16.2609 31.2051 16.2304 31.2109L16.2304 21.5232C16.2304 20.2574 15.539 19.0927 14.4277 18.4866L6.32689 14.0679Z" fill="#2845C1"/>
<rect x="8" y="27" width="24" height="9" rx="4.5" fill="#EEF1F4"/>
<rect x="8" y="27" width="24" height="9" rx="4.5" fill="url(#paint0_linear_8188_2642)" fill-opacity="0.1"/>
<path d="M12.3425 33.7364C12.2926 33.7364 12.2676 33.7364 12.2486 33.7267C12.2318 33.7181 12.2182 33.7045 12.2097 33.6877C12.2 33.6687 12.2 33.6437 12.2 33.5939V29.2426C12.2 29.1927 12.2 29.1678 12.2097 29.1487C12.2182 29.132 12.2318 29.1183 12.2486 29.1098C12.2676 29.1001 12.2926 29.1001 12.3425 29.1001H13.5643C14.5313 29.1001 15.1208 29.577 15.1208 30.3585C15.1208 30.6481 15.0195 30.9066 14.8257 31.1069C14.7572 31.1778 14.7229 31.2132 14.7171 31.2365C14.7109 31.2616 14.7123 31.2741 14.7237 31.2973C14.7343 31.3188 14.7739 31.3452 14.8532 31.398C15.1981 31.6276 15.3857 31.9701 15.3857 32.372C15.3857 33.2198 14.73 33.7364 13.6637 33.7364H12.3425ZM13.5842 29.8816H13.283C13.2331 29.8816 13.2081 29.8816 13.1891 29.8913C13.1723 29.8999 13.1587 29.9135 13.1502 29.9303C13.1405 29.9493 13.1405 29.9743 13.1405 30.0241V30.7856C13.1405 30.8355 13.1405 30.8604 13.1502 30.8795C13.1587 30.8962 13.1723 30.9099 13.1891 30.9184C13.2081 30.9281 13.2331 30.9281 13.283 30.9281H13.5842C13.9419 30.9281 14.1538 30.736 14.1538 30.3983C14.1538 30.0737 13.9419 29.8816 13.5842 29.8816ZM13.7167 31.7097H13.283C13.2331 31.7097 13.2081 31.7097 13.1891 31.7194C13.1723 31.7279 13.1587 31.7415 13.1502 31.7583C13.1405 31.7773 13.1405 31.8023 13.1405 31.8522V32.8123C13.1405 32.8622 13.1405 32.8871 13.1502 32.9062C13.1587 32.923 13.1723 32.9366 13.1891 32.9451C13.2081 32.9548 13.2331 32.9548 13.283 32.9548H13.7167C14.1538 32.9548 14.4187 32.723 14.4187 32.3322C14.4187 31.9348 14.1538 31.7097 13.7167 31.7097Z" fill="#2845C1"/>
<path d="M16.4271 33.7364C16.3772 33.7364 16.3523 33.7364 16.3333 33.7267C16.3165 33.7181 16.3029 33.7045 16.2943 33.6877C16.2846 33.6687 16.2846 33.6437 16.2846 33.5939V29.2426C16.2846 29.1927 16.2846 29.1678 16.2943 29.1487C16.3029 29.132 16.3165 29.1183 16.3333 29.1098C16.3523 29.1001 16.3772 29.1001 16.4271 29.1001H18.8444C18.8943 29.1001 18.9192 29.1001 18.9383 29.1098C18.955 29.1183 18.9687 29.132 18.9772 29.1487C18.9869 29.1678 18.9869 29.1927 18.9869 29.2426V29.7391C18.9869 29.789 18.9869 29.814 18.9772 29.833C18.9687 29.8498 18.955 29.8634 18.9383 29.8719C18.9192 29.8816 18.8943 29.8816 18.8444 29.8816H17.3676C17.3177 29.8816 17.2928 29.8816 17.2738 29.8913C17.257 29.8999 17.2434 29.9135 17.2348 29.9303C17.2251 29.9493 17.2251 29.9743 17.2251 30.0241V30.8386C17.2251 30.8885 17.2251 30.9134 17.2348 30.9325C17.2434 30.9492 17.257 30.9629 17.2738 30.9714C17.2928 30.9811 17.3177 30.9811 17.3676 30.9811H18.5795C18.6294 30.9811 18.6543 30.9811 18.6733 30.9908C18.6901 30.9993 18.7037 31.013 18.7123 31.0297C18.722 31.0488 18.722 31.0737 18.722 31.1236V31.6201C18.722 31.67 18.722 31.695 18.7123 31.714C18.7037 31.7308 18.6901 31.7444 18.6733 31.7529C18.6543 31.7626 18.6294 31.7626 18.5795 31.7626H17.3676C17.3177 31.7626 17.2928 31.7626 17.2738 31.7723C17.257 31.7809 17.2434 31.7945 17.2348 31.8113C17.2251 31.8303 17.2251 31.8553 17.2251 31.9051V32.8123C17.2251 32.8622 17.2251 32.8871 17.2348 32.9062C17.2434 32.923 17.257 32.9366 17.2738 32.9451C17.2928 32.9548 17.3177 32.9548 17.3676 32.9548H18.8444C18.8943 32.9548 18.9192 32.9548 18.9383 32.9645C18.955 32.9731 18.9687 32.9867 18.9772 33.0035C18.9869 33.0225 18.9869 33.0474 18.9869 33.0973V33.5939C18.9869 33.6437 18.9869 33.6687 18.9772 33.6877C18.9687 33.7045 18.955 33.7181 18.9383 33.7267C18.9192 33.7364 18.8943 33.7364 18.8444 33.7364H16.4271Z" fill="#2845C1"/>
<path d="M19.7762 29.9545C19.7263 29.9545 19.7014 29.9545 19.6823 29.9448C19.6656 29.9362 19.652 29.9226 19.6434 29.9059C19.6337 29.8868 19.6337 29.8619 19.6337 29.812V29.2426C19.6337 29.1927 19.6337 29.1678 19.6434 29.1487C19.652 29.132 19.6656 29.1183 19.6823 29.1098C19.7014 29.1001 19.7263 29.1001 19.7762 29.1001H23.2929C23.3428 29.1001 23.3678 29.1001 23.3868 29.1098C23.4036 29.1183 23.4172 29.132 23.4257 29.1487C23.4354 29.1678 23.4354 29.1927 23.4354 29.2426V29.812C23.4354 29.8619 23.4354 29.8868 23.4257 29.9059C23.4172 29.9226 23.4036 29.9362 23.3868 29.9448C23.3678 29.9545 23.3428 29.9545 23.2929 29.9545H22.1473C22.0974 29.9545 22.0725 29.9545 22.0535 29.9642C22.0367 29.9727 22.0231 29.9864 22.0145 30.0031C22.0048 30.0222 22.0048 30.0471 22.0048 30.097V33.5939C22.0048 33.6437 22.0048 33.6687 21.9951 33.6877C21.9866 33.7045 21.973 33.7181 21.9562 33.7267C21.9371 33.7364 21.9122 33.7364 21.8623 33.7364H21.2068C21.1569 33.7364 21.132 33.7364 21.113 33.7267C21.0962 33.7181 21.0826 33.7045 21.074 33.6877C21.0643 33.6687 21.0643 33.6437 21.0643 33.5939V30.097C21.0643 30.0471 21.0643 30.0222 21.0546 30.0031C21.0461 29.9864 21.0325 29.9727 21.0157 29.9642C20.9966 29.9545 20.9717 29.9545 20.9218 29.9545H19.7762Z" fill="#2845C1"/>
<path d="M23.3724 33.7364C23.3031 33.7364 23.2685 33.7364 23.2463 33.7218C23.2268 33.7091 23.2131 33.6892 23.2081 33.6666C23.2024 33.6406 23.2146 33.6082 23.2392 33.5434L24.8864 29.1921C24.899 29.159 24.9053 29.1424 24.9161 29.1301C24.9257 29.1193 24.9377 29.111 24.9512 29.1059C24.9665 29.1001 24.9842 29.1001 25.0197 29.1001H26.0548C26.0903 29.1001 26.108 29.1001 26.1233 29.1059C26.1368 29.111 26.1488 29.1193 26.1584 29.1301C26.1692 29.1424 26.1755 29.159 26.188 29.1921L27.8353 33.5434C27.8598 33.6082 27.8721 33.6406 27.8664 33.6666C27.8613 33.6892 27.8476 33.7091 27.8282 33.7218C27.806 33.7364 27.7713 33.7364 27.702 33.7364H27.0076C26.9718 33.7364 26.9539 33.7364 26.9385 33.7305C26.925 33.7253 26.9129 33.7169 26.9033 33.7059C26.8925 33.6935 26.8863 33.6767 26.8739 33.6431L26.4988 32.6242C26.4865 32.5906 26.4803 32.5738 26.4694 32.5614C26.4599 32.5504 26.4478 32.542 26.4342 32.5368C26.4188 32.5309 26.4009 32.5309 26.3651 32.5309H24.7094C24.6736 32.5309 24.6556 32.5309 24.6403 32.5368C24.6267 32.542 24.6146 32.5504 24.605 32.5614C24.5942 32.5738 24.588 32.5906 24.5757 32.6242L24.2006 33.6431C24.1882 33.6767 24.182 33.6935 24.1712 33.7059C24.1616 33.7169 24.1495 33.7253 24.1359 33.7305C24.1206 33.7364 24.1027 33.7364 24.0668 33.7364H23.3724ZM24.9713 31.5382C24.9478 31.6025 24.936 31.6347 24.9419 31.6604C24.9471 31.6829 24.9608 31.7026 24.9802 31.7151C25.0023 31.7295 25.0366 31.7295 25.1051 31.7295H25.9694C26.0379 31.7295 26.0721 31.7295 26.0943 31.7151C26.1136 31.7026 26.1274 31.6829 26.1325 31.6604C26.1385 31.6347 26.1267 31.6025 26.1032 31.5382L25.6711 30.3543C25.6298 30.2413 25.6092 30.1847 25.579 30.1687C25.5529 30.1548 25.5216 30.1548 25.4955 30.1687C25.4653 30.1847 25.4447 30.2413 25.4034 30.3543L24.9713 31.5382Z" fill="#2845C1"/>
<path d="M122.014 12.7984C121.963 12.6674 122.06 12.5262 122.2 12.5262H124.734C124.816 12.5262 124.89 12.5767 124.92 12.6534L129.813 25.1621C129.846 25.2468 129.966 25.2468 129.999 25.1621L134.892 12.6534C134.922 12.5767 134.996 12.5262 135.078 12.5262H137.635C137.775 12.5262 137.872 12.6674 137.821 12.7985L131.801 28.3485C131.771 28.4255 131.697 28.4762 131.615 28.4762H128.22C128.138 28.4762 128.064 28.4255 128.034 28.3484L122.014 12.7984Z" fill="#2845C1"/>
<path d="M139.771 28.4762C139.661 28.4762 139.571 28.3867 139.571 28.2762V17.1922C139.571 17.0818 139.661 16.9922 139.771 16.9922H141.877C141.988 16.9922 142.077 17.0818 142.077 17.1922V28.2762C142.077 28.3867 141.988 28.4762 141.877 28.4762H139.771ZM140.847 14.577C140.543 14.577 140.262 14.5086 140.004 14.3719C139.746 14.22 139.541 14.0149 139.389 13.7567C139.237 13.4984 139.161 13.2174 139.161 12.9136C139.161 12.4579 139.32 12.0705 139.639 11.7515C139.974 11.4173 140.376 11.2502 140.847 11.2502C141.151 11.2502 141.424 11.3262 141.667 11.4781C141.925 11.63 142.123 11.8351 142.26 12.0933C142.412 12.3364 142.488 12.6098 142.488 12.9136C142.488 13.2174 142.412 13.4984 142.26 13.7567C142.123 14.0149 141.925 14.22 141.667 14.3719C141.424 14.5086 141.151 14.577 140.847 14.577Z" fill="#2845C1"/>
<path d="M146.807 19.6047C146.807 19.9692 146.936 20.2731 147.195 20.5161C147.468 20.744 147.817 20.9414 148.243 21.1085C148.668 21.2756 149.116 21.4579 149.587 21.6554C150.073 21.8377 150.529 22.0655 150.954 22.339C151.38 22.5972 151.721 22.9466 151.98 23.3871C152.253 23.8124 152.39 24.3517 152.39 25.0049C152.39 25.7796 152.2 26.4404 151.82 26.9872C151.455 27.5189 150.969 27.9291 150.362 28.2177C149.754 28.5063 149.086 28.6506 148.357 28.6506C147.369 28.6506 146.511 28.4683 145.782 28.1037C145.11 27.7538 144.516 27.2943 143.998 26.7251C143.925 26.6441 143.934 26.519 144.016 26.4467L145.419 25.2117C145.505 25.1363 145.636 25.1481 145.711 25.2345C146.041 25.6175 146.406 25.9359 146.807 26.1897C147.263 26.4784 147.772 26.6227 148.334 26.6227C148.866 26.6227 149.268 26.486 149.541 26.2125C149.83 25.9239 149.974 25.5745 149.974 25.1644C149.974 24.7846 149.838 24.4808 149.564 24.253C149.306 24.0251 148.964 23.8276 148.539 23.6605C148.114 23.4934 147.658 23.3187 147.172 23.1365C146.701 22.939 146.253 22.7035 145.827 22.4301C145.402 22.1567 145.053 21.8073 144.779 21.382C144.521 20.9414 144.392 20.3794 144.392 19.6958C144.392 19.0578 144.559 18.4806 144.893 17.9641C145.227 17.4324 145.691 17.0147 146.283 16.7109C146.891 16.4071 147.582 16.2552 148.357 16.2552C149.192 16.2552 149.967 16.4375 150.681 16.802C151.345 17.1343 151.877 17.5486 152.277 18.0449C152.343 18.1263 152.328 18.2444 152.249 18.3123L150.845 19.5102C150.756 19.5858 150.623 19.5697 150.549 19.4794C150.29 19.1601 149.992 18.8905 149.655 18.6705C149.26 18.4122 148.828 18.2831 148.357 18.2831C148.022 18.2831 147.734 18.3439 147.491 18.4654C147.263 18.5869 147.088 18.7464 146.967 18.9439C146.86 19.1414 146.807 19.3616 146.807 19.6047Z" fill="#2845C1"/>
<path d="M154.781 28.4762C154.671 28.4762 154.581 28.3867 154.581 28.2762V17.1922C154.581 17.0818 154.671 16.9922 154.781 16.9922H156.887C156.998 16.9922 157.087 17.0818 157.087 17.1922V28.2762C157.087 28.3867 156.998 28.4762 156.887 28.4762H154.781ZM155.857 14.577C155.553 14.577 155.272 14.5086 155.014 14.3719C154.756 14.22 154.551 14.0149 154.399 13.7567C154.247 13.4984 154.171 13.2174 154.171 12.9136C154.171 12.4579 154.33 12.0705 154.649 11.7515C154.984 11.4173 155.386 11.2502 155.857 11.2502C156.161 11.2502 156.434 11.3262 156.677 11.4781C156.936 11.63 157.133 11.8351 157.27 12.0933C157.422 12.3364 157.498 12.6098 157.498 12.9136C157.498 13.2174 157.422 13.4984 157.27 13.7567C157.133 14.0149 156.936 14.22 156.677 14.3719C156.434 14.5086 156.161 14.577 155.857 14.577Z" fill="#2845C1"/>
<path d="M165.528 26.364C166.045 26.364 166.523 26.2653 166.964 26.0678C167.404 25.8551 167.784 25.5741 168.103 25.2247C168.437 24.8753 168.695 24.4728 168.878 24.0171C169.06 23.5462 169.151 23.0449 169.151 22.5132C169.151 21.7841 168.992 21.1309 168.673 20.5536C168.354 19.9764 167.921 19.5207 167.374 19.1865C166.827 18.8371 166.212 18.6624 165.528 18.6624C164.996 18.6624 164.503 18.7612 164.047 18.9586C163.607 19.1561 163.219 19.4296 162.885 19.7789C162.566 20.1283 162.315 20.5385 162.133 21.0094C161.951 21.4803 161.86 21.9816 161.86 22.5132C161.86 23.2272 162.019 23.8804 162.338 24.4728C162.657 25.05 163.09 25.5133 163.637 25.8627C164.199 26.1969 164.829 26.364 165.528 26.364ZM165.505 16.3155C166.432 16.3155 167.275 16.475 168.035 16.794C168.809 17.113 169.47 17.5611 170.017 18.1384C170.579 18.7004 171.004 19.3612 171.293 20.1207C171.597 20.8651 171.749 21.6626 171.749 22.5132C171.749 23.3639 171.597 24.169 171.293 24.9285C171.004 25.6728 170.579 26.3336 170.017 26.9109C169.47 27.4729 168.809 27.9134 168.035 28.2324C167.275 28.5514 166.432 28.7109 165.505 28.7109C164.579 28.7109 163.728 28.5514 162.953 28.2324C162.194 27.9134 161.533 27.4729 160.971 26.9109C160.409 26.3336 159.976 25.6728 159.672 24.9285C159.384 24.169 159.239 23.3639 159.239 22.5132C159.239 21.6626 159.384 20.8651 159.672 20.1207C159.976 19.3612 160.409 18.7004 160.971 18.1384C161.533 17.5611 162.194 17.113 162.953 16.794C163.728 16.475 164.579 16.3155 165.505 16.3155Z" fill="#2845C1"/>
<path fill-rule="evenodd" clip-rule="evenodd" d="M111.937 16.0668C114.967 16.0668 116.964 18.0022 117.208 20.7522C117.262 21.36 117.293 22.025 117.186 22.625C117.151 22.8211 116.977 22.9584 116.778 22.9584H109.198C109.069 22.9584 108.968 23.0727 108.99 23.2002C109.334 25.1978 110.434 26.0332 112.192 26.0332C112.706 26.0332 113.231 25.8502 113.608 25.6803C113.818 25.5861 113.923 25.5389 113.992 25.5234C114.14 25.4904 114.235 25.4964 114.378 25.5468C114.445 25.5704 114.523 25.6179 114.68 25.7125L115.329 26.1044C115.751 26.3588 115.963 26.4857 116.05 26.6152C116.213 26.8599 116.208 27.1729 116.036 27.4117C115.945 27.5383 115.735 27.6553 115.316 27.8885C115.002 28.0635 114.68 28.2226 114.344 28.3428C113.184 28.7578 111.946 28.7713 110.699 28.5075C107.597 27.8514 105.948 25.2847 105.948 22.3569C105.948 18.9111 108.122 16.0669 111.937 16.0668ZM111.868 18.4719C110.452 18.4719 109.487 19.2107 109.109 20.5728C109.073 20.7043 109.175 20.8311 109.312 20.8311H114.189C114.311 20.831 114.409 20.7287 114.394 20.6079C114.255 19.5071 113.407 18.4719 111.868 18.4719Z" fill="#2845C1"/>
<path d="M71.9751 11.5774C74.1751 11.5774 75.8998 12.4715 77.2357 13.8616C77.3379 13.9679 77.3893 14.0211 77.4199 14.0877C77.4744 14.2068 77.469 14.3608 77.4063 14.4758C77.3711 14.5402 77.3118 14.5943 77.1928 14.7019L75.7246 16.0288C75.5879 16.1523 75.519 16.2148 75.4526 16.2433C75.3234 16.2984 75.1941 16.2912 75.0714 16.2228C75.0083 16.1876 74.9412 16.1127 74.8072 15.9635C73.9694 15.0303 73.042 14.4416 71.9975 14.4416C70.8431 14.4418 70.081 15.1809 70.0809 16.1506C70.0809 17.3859 71.3835 17.9541 72.8915 18.6113C74.9644 19.5147 77.4257 20.5871 77.4258 23.7958C77.3796 26.8446 75.0238 28.6693 72.0443 28.6694C69.5605 28.6694 67.8244 27.8447 66.4523 26.4047C66.3516 26.299 66.3012 26.2457 66.2709 26.1795C66.2173 26.0616 66.2224 25.9095 66.2836 25.7954C66.3181 25.7312 66.3765 25.6768 66.4932 25.5692L67.9497 24.2267C68.0871 24.1 68.1559 24.0363 68.2207 24.0074C68.3495 23.95 68.4709 23.9533 68.5961 24.0181C68.6592 24.0508 68.7326 24.1268 68.8788 24.2784C69.7837 25.2171 70.8937 25.7592 72.0209 25.7593C73.3142 25.7593 74.0993 25.0665 74.0994 23.9118C74.0994 22.647 72.7761 22.0646 71.2527 21.3946C69.1876 20.4864 66.7556 19.4165 66.7555 16.2666C66.7555 13.7029 68.8801 11.5774 71.9751 11.5774Z" fill="#2845C1"/>
<path d="M81.5906 16.5669C81.7596 16.5669 81.8441 16.567 81.9123 16.5903C82.0389 16.6337 82.139 16.7328 82.1823 16.8594C82.2057 16.9276 82.2057 17.0128 82.2057 17.1821V23.1729C82.2059 24.8586 83.0831 25.8976 84.6995 25.8977C86.2931 25.8977 87.1708 24.8587 87.1709 23.1729V17.1821C87.1709 17.0128 87.171 16.9276 87.1943 16.8594C87.2377 16.7328 87.3377 16.6337 87.4644 16.5903C87.5325 16.567 87.617 16.5669 87.7861 16.5669H89.5126C89.682 16.5669 89.7671 16.567 89.8353 16.5903C89.9617 16.6338 90.0611 16.733 90.1044 16.8594C90.1278 16.9276 90.1278 17.0128 90.1278 17.1821V23.0335C90.1278 26.521 88.0953 28.6692 84.6771 28.6694C81.2588 28.6694 79.2489 26.5211 79.2489 23.0335V17.1821C79.2489 17.0128 79.2489 16.9276 79.2723 16.8594C79.3156 16.733 79.415 16.6338 79.5413 16.5903C79.6095 16.567 79.6947 16.5669 79.864 16.5669H81.5906Z" fill="#2845C1"/>
<path fill-rule="evenodd" clip-rule="evenodd" d="M58.6482 16.0951C62.0202 16.0951 63.7527 18.1047 63.7528 20.6683V27.5833C63.7528 27.7523 63.7526 27.8369 63.7294 27.905C63.686 28.0317 63.5859 28.1317 63.4593 28.1751C63.3912 28.1983 63.3065 28.1985 63.1376 28.1985H61.4344C61.2651 28.1985 61.18 28.1984 61.1118 28.1751C60.9852 28.1317 60.886 28.0316 60.8427 27.905C60.8194 27.8369 60.8193 27.7523 60.8193 27.5833V27.4624C60.8193 27.359 60.8191 27.3071 60.8076 27.285C60.7844 27.2413 60.7403 27.2222 60.6925 27.2353C60.6685 27.2422 60.628 27.28 60.5483 27.3552C59.7709 28.0884 58.5426 28.5445 57.3321 28.5446C54.9994 28.5446 53.4053 27.2051 53.4051 25.0574C53.4051 23.3021 54.7676 21.985 57.2619 21.5691L60.5229 21.0183C60.6938 20.9895 60.8193 20.8417 60.8193 20.6683C60.8192 19.4443 59.8951 18.6591 58.5556 18.6591C57.6524 18.6591 56.9113 18.9977 56.3318 19.5686C56.1786 19.7196 56.1014 19.7949 56.0432 19.825C55.9228 19.8873 55.8225 19.8932 55.6952 19.8465C55.6337 19.8239 55.5634 19.7703 55.4232 19.6632L54.2514 18.7692C54.1261 18.6736 54.0634 18.6254 54.0223 18.5616C53.9511 18.4507 53.936 18.2836 53.9862 18.1619C54.0152 18.0915 54.0617 18.0407 54.1539 17.9396C55.2072 16.7852 56.7643 16.0951 58.6482 16.0951ZM60.4615 23.0841L58.0476 23.4868C56.8238 23.6946 56.3154 24.2022 56.3152 24.9179C56.3152 25.7032 56.9394 26.2116 57.9326 26.2116C59.1046 26.2115 59.9936 25.7342 60.5843 24.9959C60.6245 24.9457 60.6448 24.9205 60.6808 24.8594C60.7357 24.7664 60.7943 24.5998 60.8095 24.4929C60.8195 24.423 60.8193 24.3678 60.8193 24.2579V23.3873C60.8193 23.2893 60.8188 23.2404 60.8047 23.2031C60.7782 23.1338 60.7185 23.0823 60.6458 23.0676C60.6067 23.0597 60.5582 23.068 60.4615 23.0841Z" fill="#2845C1"/>
<path d="M101.058 13.6568C101.228 13.6568 101.313 13.6569 101.381 13.6802C101.507 13.7237 101.607 13.8229 101.65 13.9493C101.673 14.0174 101.674 14.102 101.674 14.271V16.3544C101.674 16.4127 101.673 16.442 101.681 16.4655C101.696 16.5093 101.731 16.5432 101.775 16.5581C101.799 16.5662 101.828 16.5669 101.886 16.5669H104.616C104.785 16.5669 104.869 16.567 104.938 16.5903C105.064 16.6337 105.163 16.7329 105.207 16.8594C105.23 16.9276 105.23 17.0128 105.23 17.1821V18.585C105.23 18.7541 105.23 18.8385 105.207 18.9067C105.163 19.0333 105.064 19.1334 104.938 19.1767C104.869 19.2 104.785 19.2001 104.616 19.2001H101.886C101.828 19.2001 101.799 19.1999 101.775 19.2079C101.731 19.2229 101.696 19.2569 101.681 19.3005C101.673 19.3241 101.674 19.3541 101.674 19.4127V23.9577C101.674 25.251 102.366 25.7592 103.521 25.7593C103.974 25.7593 104.34 25.7303 104.643 25.6764C104.852 25.6393 104.956 25.621 105.011 25.6316C105.125 25.6537 105.192 25.7088 105.234 25.8178C105.254 25.8696 105.253 25.9602 105.253 26.1405V27.6681C105.253 27.7771 105.253 27.8316 105.238 27.8875C105.212 27.9818 105.136 28.0854 105.054 28.1381C105.005 28.1693 104.963 28.1828 104.878 28.2092C104.377 28.3658 103.782 28.4383 103.013 28.4383C100.103 28.4383 98.7167 26.7986 98.7167 23.9577V19.4127C98.7167 19.3541 98.717 19.3241 98.7089 19.3005C98.6938 19.257 98.659 19.2229 98.6153 19.2079C98.5918 19.2 98.5624 19.2001 98.5042 19.2001H97.1608C96.9918 19.2001 96.9072 19.1999 96.839 19.1767C96.7124 19.1334 96.6123 19.0333 96.569 18.9067C96.5458 18.8386 96.5456 18.7539 96.5456 18.585V17.1821C96.5456 17.0128 96.5456 16.9276 96.569 16.8594C96.6123 16.7328 96.7124 16.6337 96.839 16.5903C96.9072 16.5671 96.9917 16.5669 97.1608 16.5669H98.5042C98.5625 16.5669 98.5918 16.5661 98.6153 16.5581C98.6591 16.5432 98.6939 16.5093 98.7089 16.4655C98.717 16.442 98.7167 16.4127 98.7167 16.3544V14.271C98.7167 14.1021 98.7168 14.0174 98.7401 13.9493C98.7835 13.8227 98.8835 13.7236 99.0101 13.6802C99.0783 13.657 99.1628 13.6568 99.3319 13.6568H101.058Z" fill="#2845C1"/>
<path d="M45.5962 12.1019C45.8037 12.085 46 12.199 46.0885 12.3875C46.1358 12.4883 46.1363 12.6464 46.1363 12.9617V25.0281C46.1363 25.1126 46.1363 25.1549 46.148 25.189C46.1697 25.2522 46.2193 25.3019 46.2825 25.3235C46.3166 25.3351 46.3589 25.3352 46.4434 25.3352H51.5002C51.6692 25.3352 51.7538 25.3353 51.8219 25.3586C51.9484 25.4019 52.0475 25.5013 52.091 25.6277C52.1143 25.6959 52.1144 25.7811 52.1144 25.9504V27.6077C52.1144 27.7768 52.1143 27.8613 52.091 27.9294C52.0476 28.056 51.9485 28.1561 51.8219 28.1995C51.7538 28.2227 51.6691 28.2229 51.5002 28.2229H43.6152C43.4459 28.2229 43.3607 28.2228 43.2925 28.1995C43.1659 28.1561 43.0667 28.056 43.0234 27.9294C43.0001 27.8613 43 27.7767 43 27.6077V14.3568C43 14.1211 43.0002 14.0026 43.0244 13.8947C43.0691 13.6955 43.174 13.5148 43.3246 13.377C43.4062 13.3024 43.5083 13.2436 43.7127 13.1265L45.0746 12.3466C45.3483 12.1898 45.4851 12.1109 45.5962 12.1019Z" fill="#2845C1"/>
<path d="M94.7693 16.5669C94.9384 16.5669 95.0229 16.5671 95.091 16.5903C95.2177 16.6337 95.3177 16.7328 95.3611 16.8594C95.3844 16.9276 95.3845 17.0128 95.3845 17.1821V27.5931C95.3845 27.762 95.3844 27.8467 95.3611 27.9148C95.3177 28.0414 95.2177 28.1405 95.091 28.1839C95.0229 28.2071 94.9384 28.2073 94.7693 28.2073H93.0662C92.8968 28.2073 92.8117 28.2072 92.7435 28.1839C92.617 28.1405 92.5177 28.0413 92.4744 27.9148C92.4511 27.8467 92.451 27.7621 92.451 27.5931V17.1821C92.451 17.0128 92.451 16.9276 92.4744 16.8594C92.5177 16.7329 92.617 16.6337 92.7435 16.5903C92.8117 16.567 92.8968 16.5669 93.0662 16.5669H94.7693Z" fill="#2845C1"/>
<path d="M93.929 10.7C94.9683 10.7 95.8232 11.5782 95.8232 12.6176C95.8229 13.6567 94.9682 14.5342 93.929 14.5342C92.8898 14.5342 92.0126 13.6567 92.0123 12.6176C92.0123 11.5783 92.8896 10.7 93.929 10.7Z" fill="#2845C1"/>
<defs>
<linearGradient id="paint0_linear_8188_2642" x1="20" y1="27" x2="20" y2="36" gradientUnits="userSpaceOnUse">
<stop stop-color="#2845C1"/>
<stop offset="1" stop-color="#EEF1F4"/>
</linearGradient>
</defs>
</svg>
