<svg width="137" height="33" viewBox="0 0 137 33" fill="none" xmlns="http://www.w3.org/2000/svg">
<path d="M1.12227 12.689C1 13.3163 1 14.0889 1 15.3831V18.4961C1 20.1017 1 20.9045 1.23351 21.6232C1.44012 22.2591 1.77808 22.8444 2.22547 23.3413C2.73111 23.9029 3.42635 24.3043 4.81685 25.1071L7.5128 26.6636C8.74337 27.3741 9.42943 27.7702 10.0833 27.9608V18.3557C10.0833 17.8756 9.82104 17.4338 9.39953 17.2039L1.12227 12.689Z" fill="#C9191E"/>
<path d="M23.6627 14.0171V19.0253C23.6627 19.7178 23.9636 20.3761 24.4872 20.8292L28.0917 23.9485C28.3026 24.127 28.5217 24.273 28.7488 24.3866C28.984 24.492 29.2112 24.5448 29.4302 24.5448C29.9007 24.5448 30.2779 24.3906 30.5618 24.0824C30.8538 23.766 30.9998 23.3564 30.9998 22.8534V10.1989C30.9998 9.69597 30.8538 9.29038 30.5618 8.98212C30.2779 8.66576 29.9007 8.50758 29.4302 8.50758C29.2112 8.50758 28.984 8.56031 28.7488 8.66576C28.5217 8.77122 28.3026 8.91723 28.0917 9.1038L24.49 12.2108C23.9647 12.664 23.6627 13.3234 23.6627 14.0171Z" fill="#000091"/>
<path d="M2.32689 10.8178C2.22667 10.7631 2.12156 10.7261 2.01514 10.7056C2.08228 10.6199 2.15244 10.5364 2.22552 10.4552C2.73116 9.89367 3.42641 9.49226 4.8169 8.68946L7.51285 7.13294C8.90335 6.33013 9.59859 5.92873 10.3377 5.77162C10.9917 5.63261 11.6677 5.63261 12.3217 5.77162C13.0608 5.92873 13.7561 6.33013 15.1465 7.13294L17.8107 8.6711C17.8213 8.6772 17.8319 8.68332 17.8426 8.68946C19.2331 9.49227 19.9283 9.89367 20.4339 10.4552C20.8813 10.9521 21.2193 11.5375 21.4259 12.1734C21.6594 12.8921 21.6594 13.6949 21.6594 15.3005V18.4135C21.6594 20.0191 21.6594 20.8219 21.4259 21.5406C21.2193 22.1765 20.8813 22.7619 20.4339 23.2587C19.9283 23.8203 19.2331 24.2217 17.8427 25.0245C17.8307 25.0313 17.8187 25.0383 17.8068 25.0451L15.1465 26.581C13.7561 27.3838 13.0608 27.7852 12.3217 27.9424C12.2913 27.9488 12.2609 27.955 12.2304 27.9608L12.2304 18.2731C12.2304 17.0073 11.539 15.8426 10.4277 15.2365L2.32689 10.8178Z" fill="#000091"/>
<path d="M36.33 9.35H39.652L44.206 21.384L48.76 9.35H52.082L46.252 24.75H42.16L36.33 9.35ZM55.4941 11.726C54.5041 11.726 53.6681 10.89 53.6681 9.9C53.6681 8.91 54.5041 8.074 55.4941 8.074C56.4841 8.074 57.2981 8.91 57.2981 9.9C57.2981 10.89 56.4841 11.726 55.4941 11.726ZM54.0861 24.75V13.662H56.8801V24.75H54.0861ZM59.1122 23.144L60.9602 21.472C61.6422 22.33 62.4562 22.946 63.5122 22.946C64.4142 22.946 64.8762 22.418 64.8762 21.758C64.8762 19.822 59.5742 20.548 59.5742 16.654C59.5742 14.696 61.2242 13.222 63.5342 13.222C65.2282 13.222 66.7682 14.036 67.5602 15.114L65.7122 16.742C65.1402 16.038 64.4142 15.466 63.5562 15.466C62.6762 15.466 62.2582 15.95 62.2582 16.522C62.2582 18.414 67.5602 17.754 67.5602 21.582C67.5162 23.914 65.6462 25.19 63.5562 25.19C61.5762 25.19 60.1682 24.398 59.1122 23.144ZM71.5429 11.726C70.5529 11.726 69.7169 10.89 69.7169 9.9C69.7169 8.91 70.5529 8.074 71.5429 8.074C72.5329 8.074 73.3469 8.91 73.3469 9.9C73.3469 10.89 72.5329 11.726 71.5429 11.726ZM70.1349 24.75V13.662H72.9289V24.75H70.1349ZM81.5594 13.222C85.1674 13.222 87.6314 15.884 87.6314 19.206C87.6314 22.528 85.1674 25.19 81.5594 25.19C77.9514 25.19 75.4874 22.528 75.4874 19.206C75.4874 15.884 77.9514 13.222 81.5594 13.222ZM81.6034 22.55C83.3854 22.55 84.7274 21.12 84.7274 19.206C84.7274 17.27 83.3854 15.862 81.6034 15.862C79.7554 15.862 78.3914 17.27 78.3914 19.206C78.3914 21.142 79.7554 22.55 81.6034 22.55Z" fill="#000091"/>
<rect x="97" y="8.75" width="40" height="16" rx="8" fill="#E3E3FD"/>
<path d="M104.133 20.75V13.05H106.399C108.005 13.05 108.984 13.842 108.984 15.14C108.984 15.767 108.698 16.306 108.159 16.658C108.973 17.021 109.424 17.681 109.424 18.484C109.424 19.892 108.335 20.75 106.564 20.75H104.133ZM106.432 14.348H105.695V16.086H106.432C107.026 16.086 107.378 15.767 107.378 15.206C107.378 14.667 107.026 14.348 106.432 14.348ZM106.652 17.384H105.695V19.452H106.652C107.378 19.452 107.818 19.067 107.818 18.418C107.818 17.758 107.378 17.384 106.652 17.384ZM110.917 20.75V13.05H115.405V14.348H112.479V16.174H114.965V17.472H112.479V19.452H115.405V20.75H110.917ZM116.479 14.469V13.05H122.793V14.469H120.417V20.75H118.855V14.469H116.479ZM122.346 20.75L125.261 13.05H127.307L130.222 20.75H128.561L127.824 18.748H124.744L124.007 20.75H122.346ZM125.228 17.417H127.34L126.284 14.524L125.228 17.417Z" fill="#6A6AF4"/>
</svg>
