<svg width="189" height="40" viewBox="0 0 189 40" fill="none" xmlns="http://www.w3.org/2000/svg">
<path fill-rule="evenodd" clip-rule="evenodd" d="M32.804 12.1662C32.9944 12.7529 32.9944 13.4082 32.9944 14.7187V22.5632C32.9944 23.8737 32.9944 24.5289 32.804 25.1156C32.6355 25.6347 32.3599 26.1126 31.9949 26.5185C31.5825 26.9772 31.0154 27.3053 29.8813 27.9617L21.5483 32.784L17.2372 35.2652C16.5979 35.6331 16.2783 35.8171 16.016 35.7893C15.7873 35.765 15.5796 35.6449 15.4445 35.4588C15.2895 35.2454 15.2895 34.8766 15.2895 34.139V31.9166C15.2895 31.5724 15.2895 31.4003 15.2396 31.2461C15.1954 31.1097 15.1231 30.984 15.0273 30.8773C14.9191 30.7567 14.7702 30.6702 14.4726 30.4973L10.1101 27.9634C8.97898 27.3063 8.41339 26.9778 8.00214 26.5194C7.63825 26.1138 7.36345 25.6363 7.19547 25.118C7.00562 24.5321 7.00562 23.878 7.00562 22.5699V14.7187C7.00562 13.4082 7.00562 12.7529 7.19606 12.1662C7.36457 11.6471 7.64021 11.1691 8.00514 10.7633C8.41757 10.3046 8.98472 9.97642 10.119 9.32007L16.8761 5.41006C18.014 4.7516 18.583 4.42236 19.188 4.29351C19.7233 4.17951 20.2767 4.17951 20.812 4.29351C21.417 4.42236 21.986 4.7516 23.1239 5.41006L29.881 9.32007C31.0153 9.97642 31.5824 10.3046 31.9949 10.7633C32.3598 11.1691 32.6355 11.6471 32.804 12.1662ZM28.1637 14.3413C28.2298 14.545 28.2298 14.7725 28.2298 15.2276V22.2445C28.2298 22.7028 28.2298 22.932 28.1628 23.1369C28.1036 23.3182 28.0067 23.4849 27.8786 23.6261C27.7337 23.7857 27.5347 23.8992 27.1365 24.1261L21.0724 27.5824C20.6815 27.8052 20.486 27.9166 20.2785 27.9603C20.0948 27.9989 19.9052 27.9989 19.7215 27.9603C19.514 27.9166 19.3185 27.8052 18.9276 27.5824L12.8635 24.1261C12.4654 23.8992 12.2663 23.7857 12.1214 23.6261C11.9933 23.4849 11.8964 23.3182 11.8372 23.1369C11.7702 22.932 11.7702 22.7028 11.7702 22.2445V15.2276C11.7702 14.7725 11.7702 14.545 11.8364 14.3413C11.8949 14.1611 11.9906 13.9951 12.1173 13.8542C12.2605 13.6949 12.4574 13.581 12.8513 13.3531L18.9153 9.84407C19.3104 9.61544 19.508 9.50112 19.7181 9.45638C19.9039 9.4168 20.0961 9.4168 20.282 9.45638C20.492 9.50112 20.6896 9.61544 21.0847 9.84407L27.1488 13.3531C27.5426 13.581 27.7395 13.6949 27.8827 13.8542C28.0095 13.9951 28.1052 14.1611 28.1637 14.3413Z" fill="#2845C1"/>
<path d="M15.325 18.2741C15.325 18.3334 15.325 18.3631 15.3365 18.3858C15.3467 18.4057 15.3629 18.4219 15.3828 18.4321C15.4055 18.4437 15.4352 18.4437 15.4946 18.4437H16.5736C16.6329 18.4437 16.6626 18.4437 16.6853 18.4321C16.7053 18.4219 16.7215 18.4057 16.7316 18.3858C16.7432 18.3631 16.7432 18.3334 16.7432 18.2741V16.5849C16.7432 16.5255 16.7432 16.4959 16.7547 16.4732C16.7649 16.4532 16.7811 16.437 16.8011 16.4269C16.8237 16.4153 16.8534 16.4153 16.9128 16.4153H19.157C19.2164 16.4153 19.2461 16.4153 19.2687 16.4269C19.2887 16.437 19.3049 16.4532 19.3151 16.4732C19.3266 16.4959 19.3266 16.5255 19.3266 16.5849V23.7894C19.3266 23.8487 19.3266 23.8784 19.3382 23.9011C19.3483 23.921 19.3645 23.9373 19.3845 23.9474C19.4072 23.959 19.4368 23.959 19.4962 23.959H20.5752C20.6346 23.959 20.6643 23.959 20.687 23.9474C20.7069 23.9373 20.7231 23.921 20.7333 23.9011C20.7448 23.8784 20.7448 23.8487 20.7448 23.7894V16.5849C20.7448 16.5255 20.7448 16.4959 20.7564 16.4732C20.7666 16.4532 20.7828 16.437 20.8027 16.4269C20.8254 16.4153 20.8551 16.4153 20.9145 16.4153H24.9158C24.9752 16.4153 25.0049 16.4153 25.0276 16.4037C25.0475 16.3936 25.0637 16.3774 25.0739 16.3574C25.0855 16.3347 25.0855 16.3051 25.0855 16.2457V15.1642C25.0855 15.1049 25.0855 15.0752 25.0739 15.0525C25.0637 15.0326 25.0475 15.0163 25.0276 15.0062C25.0049 14.9946 24.9752 14.9946 24.9158 14.9946H15.4946C15.4352 14.9946 15.4055 14.9946 15.3828 15.0062C15.3629 15.0163 15.3467 15.0326 15.3365 15.0525C15.325 15.0752 15.325 15.1049 15.325 15.1642V18.2741Z" fill="#C83F49"/>
<path fill-rule="evenodd" clip-rule="evenodd" d="M111.937 16.0668C114.967 16.0668 116.964 18.0022 117.208 20.7522C117.262 21.36 117.293 22.025 117.186 22.625C117.151 22.8211 116.977 22.9584 116.778 22.9584H109.198C109.069 22.9584 108.968 23.0727 108.99 23.2002C109.334 25.1978 110.434 26.0332 112.192 26.0332C112.706 26.0332 113.231 25.8502 113.608 25.6803C113.818 25.5861 113.923 25.5389 113.992 25.5234C114.14 25.4904 114.235 25.4964 114.378 25.5468C114.445 25.5704 114.523 25.6179 114.68 25.7125L115.329 26.1044C115.751 26.3588 115.963 26.4857 116.05 26.6152C116.213 26.8599 116.208 27.1729 116.036 27.4117C115.945 27.5383 115.735 27.6553 115.316 27.8885C115.002 28.0635 114.68 28.2226 114.344 28.3428C113.184 28.7578 111.946 28.7713 110.699 28.5075C107.597 27.8514 105.948 25.2847 105.948 22.3569C105.948 18.9111 108.122 16.0669 111.937 16.0668ZM111.868 18.4719C110.452 18.4719 109.487 19.2107 109.109 20.5728C109.073 20.7043 109.175 20.8311 109.312 20.8311H114.189C114.311 20.831 114.409 20.7287 114.394 20.6079C114.255 19.5071 113.407 18.4719 111.868 18.4719Z" fill="#2845C1"/>
<path d="M71.9751 11.5774C74.1751 11.5774 75.8998 12.4715 77.2357 13.8616C77.3379 13.9679 77.3893 14.0211 77.4199 14.0877C77.4744 14.2068 77.469 14.3608 77.4063 14.4758C77.3711 14.5402 77.3118 14.5943 77.1928 14.7019L75.7246 16.0288C75.5879 16.1523 75.519 16.2148 75.4526 16.2433C75.3234 16.2984 75.1941 16.2912 75.0714 16.2228C75.0083 16.1876 74.9412 16.1127 74.8072 15.9635C73.9694 15.0303 73.042 14.4416 71.9975 14.4416C70.8431 14.4418 70.081 15.1809 70.0809 16.1506C70.0809 17.3859 71.3835 17.9541 72.8915 18.6113C74.9644 19.5147 77.4257 20.5871 77.4258 23.7958C77.3796 26.8446 75.0238 28.6693 72.0443 28.6694C69.5605 28.6694 67.8244 27.8447 66.4523 26.4047C66.3516 26.299 66.3012 26.2457 66.2709 26.1795C66.2173 26.0616 66.2224 25.9095 66.2836 25.7954C66.3181 25.7312 66.3765 25.6768 66.4932 25.5692L67.9497 24.2267C68.0871 24.1 68.1559 24.0363 68.2207 24.0074C68.3495 23.95 68.4709 23.9533 68.5961 24.0181C68.6592 24.0508 68.7326 24.1268 68.8788 24.2784C69.7837 25.2171 70.8937 25.7592 72.0209 25.7593C73.3142 25.7593 74.0993 25.0665 74.0994 23.9118C74.0994 22.647 72.7761 22.0646 71.2527 21.3946C69.1876 20.4864 66.7556 19.4165 66.7555 16.2666C66.7555 13.7029 68.8801 11.5774 71.9751 11.5774Z" fill="#2845C1"/>
<path d="M81.5906 16.5669C81.7596 16.5669 81.8441 16.567 81.9123 16.5903C82.0389 16.6337 82.139 16.7328 82.1823 16.8594C82.2057 16.9276 82.2057 17.0128 82.2057 17.1821V23.1729C82.2059 24.8586 83.0831 25.8976 84.6995 25.8977C86.2931 25.8977 87.1708 24.8587 87.1709 23.1729V17.1821C87.1709 17.0128 87.171 16.9276 87.1943 16.8594C87.2377 16.7328 87.3377 16.6337 87.4644 16.5903C87.5325 16.567 87.617 16.5669 87.7861 16.5669H89.5126C89.682 16.5669 89.7671 16.567 89.8353 16.5903C89.9617 16.6338 90.0611 16.733 90.1044 16.8594C90.1278 16.9276 90.1278 17.0128 90.1278 17.1821V23.0335C90.1278 26.521 88.0953 28.6692 84.6771 28.6694C81.2588 28.6694 79.2489 26.5211 79.2489 23.0335V17.1821C79.2489 17.0128 79.2489 16.9276 79.2723 16.8594C79.3156 16.733 79.415 16.6338 79.5413 16.5903C79.6095 16.567 79.6947 16.5669 79.864 16.5669H81.5906Z" fill="#2845C1"/>
<path fill-rule="evenodd" clip-rule="evenodd" d="M58.6482 16.0951C62.0202 16.0951 63.7527 18.1047 63.7528 20.6683V27.5833C63.7528 27.7523 63.7526 27.8369 63.7294 27.905C63.686 28.0317 63.5859 28.1317 63.4593 28.1751C63.3912 28.1983 63.3065 28.1985 63.1376 28.1985H61.4344C61.2651 28.1985 61.18 28.1984 61.1118 28.1751C60.9852 28.1317 60.886 28.0316 60.8427 27.905C60.8194 27.8369 60.8193 27.7523 60.8193 27.5833V27.4624C60.8193 27.359 60.8191 27.3071 60.8076 27.285C60.7844 27.2413 60.7403 27.2222 60.6925 27.2353C60.6685 27.2422 60.628 27.28 60.5483 27.3552C59.7709 28.0884 58.5426 28.5445 57.3321 28.5446C54.9994 28.5446 53.4053 27.2051 53.4051 25.0574C53.4051 23.3021 54.7676 21.985 57.2619 21.5691L60.5229 21.0183C60.6938 20.9895 60.8193 20.8417 60.8193 20.6683C60.8192 19.4443 59.8951 18.6591 58.5556 18.6591C57.6524 18.6591 56.9113 18.9977 56.3318 19.5686C56.1786 19.7196 56.1014 19.7949 56.0432 19.825C55.9228 19.8873 55.8225 19.8932 55.6952 19.8465C55.6337 19.8239 55.5634 19.7703 55.4232 19.6632L54.2514 18.7692C54.1261 18.6736 54.0634 18.6254 54.0223 18.5616C53.9511 18.4507 53.936 18.2836 53.9862 18.1619C54.0152 18.0915 54.0617 18.0407 54.1539 17.9396C55.2072 16.7852 56.7643 16.0951 58.6482 16.0951ZM60.4615 23.0841L58.0476 23.4868C56.8238 23.6946 56.3154 24.2022 56.3152 24.9179C56.3152 25.7032 56.9394 26.2116 57.9326 26.2116C59.1046 26.2115 59.9936 25.7342 60.5843 24.9959C60.6245 24.9457 60.6448 24.9205 60.6808 24.8594C60.7357 24.7664 60.7943 24.5998 60.8095 24.4929C60.8195 24.423 60.8193 24.3678 60.8193 24.2579V23.3873C60.8193 23.2893 60.8188 23.2404 60.8047 23.2031C60.7782 23.1338 60.7185 23.0823 60.6458 23.0676C60.6067 23.0597 60.5582 23.068 60.4615 23.0841Z" fill="#2845C1"/>
<path d="M101.058 13.6568C101.228 13.6568 101.313 13.6569 101.381 13.6802C101.507 13.7237 101.607 13.8229 101.65 13.9493C101.673 14.0174 101.674 14.102 101.674 14.271V16.3544C101.674 16.4127 101.673 16.442 101.681 16.4655C101.696 16.5093 101.731 16.5432 101.775 16.5581C101.799 16.5662 101.828 16.5669 101.886 16.5669H104.616C104.785 16.5669 104.869 16.567 104.938 16.5903C105.064 16.6337 105.163 16.7329 105.207 16.8594C105.23 16.9276 105.23 17.0128 105.23 17.1821V18.585C105.23 18.7541 105.23 18.8385 105.207 18.9067C105.163 19.0333 105.064 19.1334 104.938 19.1767C104.869 19.2 104.785 19.2001 104.616 19.2001H101.886C101.828 19.2001 101.799 19.1999 101.775 19.2079C101.731 19.2229 101.696 19.2569 101.681 19.3005C101.673 19.3241 101.674 19.3541 101.674 19.4127V23.9577C101.674 25.251 102.366 25.7592 103.521 25.7593C103.974 25.7593 104.34 25.7303 104.643 25.6764C104.852 25.6393 104.956 25.621 105.011 25.6316C105.125 25.6537 105.192 25.7088 105.234 25.8178C105.254 25.8696 105.253 25.9602 105.253 26.1405V27.6681C105.253 27.7771 105.253 27.8316 105.238 27.8875C105.212 27.9818 105.136 28.0854 105.054 28.1381C105.005 28.1693 104.963 28.1828 104.878 28.2092C104.377 28.3658 103.782 28.4383 103.013 28.4383C100.103 28.4383 98.7167 26.7986 98.7167 23.9577V19.4127C98.7167 19.3541 98.717 19.3241 98.7089 19.3005C98.6938 19.257 98.659 19.2229 98.6153 19.2079C98.5918 19.2 98.5624 19.2001 98.5042 19.2001H97.1608C96.9918 19.2001 96.9072 19.1999 96.839 19.1767C96.7124 19.1334 96.6123 19.0333 96.569 18.9067C96.5458 18.8386 96.5456 18.7539 96.5456 18.585V17.1821C96.5456 17.0128 96.5456 16.9276 96.569 16.8594C96.6123 16.7328 96.7124 16.6337 96.839 16.5903C96.9072 16.5671 96.9917 16.5669 97.1608 16.5669H98.5042C98.5625 16.5669 98.5918 16.5661 98.6153 16.5581C98.6591 16.5432 98.6939 16.5093 98.7089 16.4655C98.717 16.442 98.7167 16.4127 98.7167 16.3544V14.271C98.7167 14.1021 98.7168 14.0174 98.7401 13.9493C98.7835 13.8227 98.8835 13.7236 99.0101 13.6802C99.0783 13.657 99.1628 13.6568 99.3319 13.6568H101.058Z" fill="#2845C1"/>
<path d="M45.5962 12.1019C45.8037 12.085 46 12.199 46.0885 12.3875C46.1358 12.4883 46.1363 12.6464 46.1363 12.9617V25.0281C46.1363 25.1126 46.1363 25.1549 46.148 25.189C46.1697 25.2522 46.2193 25.3019 46.2825 25.3235C46.3166 25.3351 46.3589 25.3352 46.4434 25.3352H51.5002C51.6692 25.3352 51.7538 25.3353 51.8219 25.3586C51.9484 25.4019 52.0475 25.5013 52.091 25.6277C52.1143 25.6959 52.1144 25.7811 52.1144 25.9504V27.6077C52.1144 27.7768 52.1143 27.8613 52.091 27.9294C52.0476 28.056 51.9485 28.1561 51.8219 28.1995C51.7538 28.2227 51.6691 28.2229 51.5002 28.2229H43.6152C43.4459 28.2229 43.3607 28.2228 43.2925 28.1995C43.1659 28.1561 43.0667 28.056 43.0234 27.9294C43.0001 27.8613 43 27.7767 43 27.6077V14.3568C43 14.1211 43.0002 14.0026 43.0244 13.8947C43.0691 13.6955 43.174 13.5148 43.3246 13.377C43.4062 13.3024 43.5083 13.2436 43.7127 13.1265L45.0746 12.3466C45.3483 12.1898 45.4851 12.1109 45.5962 12.1019Z" fill="#2845C1"/>
<path d="M94.7693 16.5669C94.9384 16.5669 95.0229 16.5671 95.091 16.5903C95.2177 16.6337 95.3177 16.7328 95.3611 16.8594C95.3844 16.9276 95.3845 17.0128 95.3845 17.1821V27.5931C95.3845 27.762 95.3844 27.8467 95.3611 27.9148C95.3177 28.0414 95.2177 28.1405 95.091 28.1839C95.0229 28.2071 94.9384 28.2073 94.7693 28.2073H93.0662C92.8968 28.2073 92.8117 28.2072 92.7435 28.1839C92.617 28.1405 92.5177 28.0413 92.4744 27.9148C92.4511 27.8467 92.451 27.7621 92.451 27.5931V17.1821C92.451 17.0128 92.451 16.9276 92.4744 16.8594C92.5177 16.7329 92.617 16.6337 92.7435 16.5903C92.8117 16.567 92.8968 16.5669 93.0662 16.5669H94.7693Z" fill="#2845C1"/>
<path d="M93.929 10.7C94.9683 10.7 95.8232 11.5782 95.8232 12.6176C95.8229 13.6567 94.9682 14.5342 93.929 14.5342C92.8898 14.5342 92.0126 13.6567 92.0123 12.6176C92.0123 11.5783 92.8896 10.7 93.929 10.7Z" fill="#2845C1"/>
<path fill-rule="evenodd" clip-rule="evenodd" d="M177.984 16.2796C179.199 16.2796 180.24 16.5678 181.105 17.1448C181.986 17.7068 182.663 18.459 183.134 19.4007C183.62 20.3272 183.863 21.3529 183.863 22.4769C183.863 23.3123 183.727 24.1027 183.453 24.847C183.18 25.5913 182.784 26.2522 182.268 26.8294C181.766 27.4065 181.151 27.8625 180.422 28.1966C179.708 28.5154 178.896 28.6751 177.984 28.6751C177.194 28.6751 176.495 28.5457 175.888 28.2874C175.28 28.0292 174.749 27.6572 174.293 27.1712C174.268 27.1448 174.225 27.1612 174.225 27.1974V33.6245C174.225 33.735 174.135 33.8245 174.025 33.8245H171.918C171.807 33.8245 171.718 33.735 171.718 33.6245V16.9347C171.718 16.8242 171.807 16.7347 171.918 16.7347H174.025C174.135 16.7347 174.225 16.8242 174.225 16.9347V17.7566C174.225 17.7925 174.268 17.8093 174.293 17.7835C174.749 17.2974 175.28 16.9246 175.888 16.6663C176.495 16.4081 177.194 16.2796 177.984 16.2796ZM177.665 18.6263C176.951 18.6263 176.298 18.7933 175.706 19.1273C175.219 19.4022 174.788 19.7754 174.414 20.2458C174.286 20.4071 174.225 20.6099 174.225 20.8159V24.137C174.225 24.3429 174.286 24.5457 174.414 24.7069C174.788 25.1778 175.218 25.5514 175.706 25.8265C176.298 26.1605 176.951 26.3274 177.665 26.3275C178.394 26.3275 179.025 26.1607 179.557 25.8265C180.088 25.4771 180.499 25.014 180.787 24.4368C181.091 23.8596 181.242 23.206 181.242 22.4769C181.242 21.748 181.091 21.095 180.787 20.5179C180.499 19.9407 180.088 19.4849 179.557 19.1507C179.025 18.8013 178.394 18.6263 177.665 18.6263Z" fill="#2845C1"/>
<path d="M139.583 16.2796C140.631 16.2796 141.566 16.492 142.386 16.9173C143.159 17.2969 143.802 17.807 144.315 18.447C144.384 18.5326 144.366 18.6573 144.279 18.7236L142.625 19.9782C142.533 20.0482 142.401 20.025 142.331 19.9327C142.056 19.5716 141.703 19.2727 141.27 19.0364C140.783 18.763 140.214 18.6263 139.561 18.6263C139.029 18.6263 138.535 18.7247 138.079 18.9222C137.639 19.1196 137.259 19.3933 136.94 19.7425C136.622 20.0918 136.371 20.5022 136.188 20.973C136.006 21.4286 135.915 21.9301 135.915 22.4769C135.915 23.206 136.075 23.8669 136.394 24.4593C136.713 25.0365 137.146 25.4923 137.692 25.8265C138.239 26.1606 138.877 26.3275 139.606 26.3275C140.229 26.3274 140.784 26.1907 141.27 25.9173C141.702 25.6811 142.056 25.3828 142.33 25.022C142.401 24.9297 142.532 24.9065 142.625 24.9765L144.277 26.2298C144.365 26.2967 144.382 26.4225 144.312 26.5081C143.8 27.1343 143.158 27.6435 142.386 28.0364C141.565 28.4618 140.631 28.6751 139.583 28.6751C138.292 28.6751 137.175 28.3934 136.233 27.8314C135.292 27.2542 134.563 26.4946 134.047 25.553C133.546 24.6112 133.295 23.5858 133.295 22.4769C133.295 21.6416 133.439 20.8519 133.728 20.1077C134.016 19.3635 134.434 18.7025 134.98 18.1253C135.527 17.5481 136.188 17.0996 136.963 16.7806C137.738 16.4464 138.611 16.2796 139.583 16.2796Z" fill="#2845C1"/>
<path fill-rule="evenodd" clip-rule="evenodd" d="M163.961 16.2796C165.009 16.2796 165.898 16.4692 166.627 16.8489C167.356 17.2287 167.903 17.7529 168.268 18.4212C168.647 19.0896 168.837 19.8416 168.837 20.6771V28.0191C168.837 28.1295 168.747 28.2191 168.637 28.2191H166.53C166.42 28.2191 166.33 28.1295 166.33 28.0191V27.2597C166.33 27.1653 166.208 27.1206 166.142 27.1883C166.04 27.2932 165.929 27.3937 165.807 27.4896C165.397 27.8237 164.918 28.0827 164.371 28.265C163.824 28.4624 163.269 28.5609 162.707 28.5609C161.583 28.5608 160.664 28.2573 159.95 27.6497C159.236 27.0421 158.88 26.229 158.88 25.2112C158.88 24.3455 159.206 23.6089 159.859 23.0013C160.513 22.3937 161.454 21.9908 162.685 21.7933L166.164 21.2024C166.26 21.1861 166.33 21.1028 166.33 21.0052V20.6771C166.33 19.9935 166.102 19.4621 165.646 19.0823C165.191 18.6874 164.598 18.4896 163.869 18.4896C163.277 18.4896 162.738 18.6191 162.252 18.8773C161.841 19.1029 161.487 19.4037 161.192 19.78C161.121 19.8695 160.992 19.8899 160.902 19.8208L159.376 18.6533C159.29 18.5876 159.271 18.4654 159.338 18.38C159.822 17.7551 160.436 17.26 161.181 16.8948C162.001 16.4847 162.928 16.2796 163.961 16.2796ZM163.322 23.4573C162.639 23.5637 162.146 23.7607 161.842 24.0491C161.538 24.3225 161.386 24.6719 161.386 25.097C161.386 25.5223 161.545 25.8724 161.864 26.1458C162.198 26.4192 162.647 26.556 163.209 26.556C163.908 26.5559 164.523 26.3964 165.055 26.0775C165.406 25.8666 165.714 25.6088 165.979 25.3047C166.23 25.0157 166.33 24.6315 166.33 24.2483V23.1942C166.33 23.0707 166.219 22.9767 166.097 22.9969L163.322 23.4573Z" fill="#2845C1"/>
<path d="M133.92 14.5982C133.92 14.7086 133.83 14.7982 133.72 14.7982H129.061C128.951 14.7982 128.861 14.8877 128.861 14.9982V28.0191C128.861 28.1295 128.772 28.2191 128.661 28.2191H126.259C126.148 28.2191 126.059 28.1295 126.059 28.0191V14.9982C126.059 14.8877 125.969 14.7982 125.859 14.7982H121.2C121.09 14.7982 121 14.7086 121 14.5982V12.4689C121 12.3584 121.09 12.2689 121.2 12.2689H133.72C133.83 12.2689 133.92 12.3584 133.92 12.4689V14.5982Z" fill="#2845C1"/>
<path d="M148.645 17.2838C148.645 17.4641 148.869 17.5571 149.006 17.4401C149.339 17.1567 149.712 16.914 150.126 16.7122C150.718 16.4236 151.409 16.2796 152.199 16.2796C153.05 16.2796 153.81 16.4692 154.479 16.8489C155.162 17.2287 155.701 17.7912 156.096 18.5355C156.491 19.2798 156.688 20.2142 156.688 21.3382V28.0191C156.688 28.1295 156.599 28.2191 156.488 28.2191H154.359C154.249 28.2191 154.159 28.1295 154.159 28.0191V21.429C154.159 20.548 153.931 19.8643 153.476 19.3782C153.02 18.877 152.397 18.6264 151.607 18.6263C151.106 18.6263 150.665 18.7247 150.285 18.9222C149.905 19.1045 149.579 19.3406 149.306 19.6292C149.06 19.9039 148.848 20.1922 148.671 20.4944C148.654 20.5244 148.645 20.5587 148.645 20.5935V28.0191C148.645 28.1295 148.555 28.2191 148.445 28.2191H146.339C146.228 28.2191 146.139 28.1295 146.139 28.0191V11.3302C146.139 11.2197 146.228 11.1302 146.339 11.1302H148.445C148.555 11.1302 148.645 11.2197 148.645 11.3302V17.2838Z" fill="#2845C1"/>
</svg>
