<svg width="175" height="33" viewBox="0 0 175 33" fill="none" xmlns="http://www.w3.org/2000/svg">
<path fill-rule="evenodd" clip-rule="evenodd" d="M12.9321 5.07095L18.1328 5.98796C18.2279 6.00474 18.2831 6.10543 18.2453 6.19433C18.0839 6.57329 17.9706 6.80005 17.8664 6.96275C17.7792 7.09909 17.7123 7.16937 17.642 7.22281C17.5682 7.27883 17.4293 7.3625 17.1488 7.44595C15.8254 7.83959 15.0717 9.23154 15.4653 10.5549C15.859 11.8784 17.2509 12.6321 18.5743 12.2384C20.2364 11.744 21.3251 10.8341 22.0778 9.65807C22.4114 9.13681 22.6545 8.60181 22.8454 8.15355C22.9253 7.966 22.9974 7.79074 23.065 7.62637L23.0665 7.62267C23.2384 7.20484 23.6796 6.96601 24.1245 7.04447C25.2135 7.23649 25.9796 7.65773 26.4227 8.30817C26.8729 8.95985 27.0013 9.83372 26.8081 10.9298L23.8154 27.9022C23.6209 29.0053 23.2013 29.7825 22.5566 30.2339C21.919 30.6865 21.0557 30.8168 19.9666 30.6248L8.77427 28.6513C7.68524 28.4593 6.91503 28.0409 6.46364 27.3963C6.01927 26.7529 5.89433 25.8796 6.08884 24.7765L9.08153 7.80411C9.2748 6.70806 9.69086 5.9302 10.3297 5.47054C10.9756 5.01212 11.8431 4.87892 12.9321 5.07095ZM14.0174 19.4392C14.4939 20.1198 15.1384 20.5317 15.9509 20.675C16.7634 20.8182 17.5099 20.6516 18.1905 20.175C18.8711 19.6985 19.283 19.054 19.4263 18.2415C19.5695 17.429 19.4029 16.6825 18.9263 16.0019C18.4498 15.3213 17.8052 14.9094 16.9928 14.7661C16.1803 14.6229 15.4338 14.7895 14.7532 15.2661C14.0726 15.7426 13.6607 16.3872 13.5174 17.1996C13.3741 18.0121 13.5408 18.7586 14.0174 19.4392ZM9.09136 25.0247C9.00505 25.5142 9.3319 25.981 9.82141 26.0673L19.8664 27.8385C20.3559 27.9248 20.8227 27.598 20.9091 27.1084L21.1174 25.9267C21.1912 25.5081 21.1514 25.1045 20.9978 24.7156C20.8442 24.3268 20.6052 24.0086 20.2808 23.761C19.5849 23.2448 18.8598 22.8218 18.1056 22.4921C17.3514 22.1624 16.568 21.9259 15.7556 21.7826C14.9431 21.6394 14.1261 21.5937 13.3046 21.6456C12.4832 21.6975 11.6571 21.8469 10.8266 22.094C10.4371 22.2157 10.1037 22.433 9.82637 22.7458C9.54908 23.0587 9.37354 23.4244 9.29974 23.8429L9.09136 25.0247Z" fill="#000091"/>
<path fill-rule="evenodd" clip-rule="evenodd" d="M25.5065 3.88339C25.5191 4.43554 25.0817 4.89337 24.5296 4.90599C24.2219 4.91303 23.6763 4.99795 23.1549 5.23172C22.6376 5.46364 22.2349 5.79861 22.0315 6.25464C21.9041 6.54023 21.7992 6.79533 21.6925 7.05474C21.624 7.22114 21.5549 7.38931 21.4786 7.56844C21.2967 7.99554 21.0924 8.43826 20.8276 8.85213C20.2637 9.73317 19.4676 10.4143 18.1598 10.8033C17.6305 10.9608 17.0737 10.6593 16.9162 10.1299C16.7588 9.60059 17.0603 9.04381 17.5896 8.88635C18.4251 8.63784 18.8309 8.26165 19.143 7.774C19.3161 7.50353 19.4684 7.18409 19.6385 6.78475C19.6949 6.65241 19.7567 6.50248 19.8225 6.34276C19.9398 6.05827 20.0699 5.7427 20.2049 5.44002C20.6733 4.38982 21.54 3.76397 22.3366 3.40676C23.1292 3.05141 23.9419 2.91891 24.4839 2.90652C25.036 2.89389 25.4938 3.33125 25.5065 3.88339Z" fill="#C9191E"/>
<path d="M13.8024 3.0145C13.2879 2.81379 13.0335 2.23399 13.2342 1.71946C13.4349 1.20494 14.0147 0.950538 14.5292 1.15125C15.0342 1.34824 15.7527 1.75073 16.3759 2.35572C16.8374 2.80379 17.2848 3.40191 17.5208 4.14453C17.5539 4.2487 17.4628 4.34682 17.3552 4.32784L15.3182 3.96866C15.1908 3.9462 15.0756 3.88087 14.9828 3.79076C14.5728 3.39276 14.0891 3.12635 13.8024 3.0145Z" fill="#C9191E"/>
<path d="M17.9523 10.8419C17.8895 10.8132 17.8287 10.7776 17.771 10.7348C17.4151 10.4708 17.1205 10.1964 16.8771 9.91118C16.8463 9.455 17.133 9.02217 17.5896 8.88635C17.8974 8.7948 18.1471 8.68583 18.3549 8.56059C18.5074 8.74952 18.7046 8.93714 18.9624 9.12841C19.3449 9.41212 19.4667 9.91688 19.282 10.3349C18.9556 10.5197 18.5845 10.677 18.1598 10.8033C18.0907 10.8239 18.0215 10.8365 17.9523 10.8419Z" fill="#C9191E"/>
<path d="M39.0785 24.75V9.35H42.2025V21.912H48.0545V24.75H39.0785ZM54.0694 25.08C51.8474 25.08 50.3294 23.804 50.3294 21.758C50.3294 20.086 51.6274 18.832 54.0034 18.436L57.3914 17.864V17.578C57.3914 16.412 56.5114 15.664 55.2354 15.664C54.1574 15.664 53.3214 16.17 52.7274 16.984L50.6814 15.422C51.6714 14.058 53.2994 13.222 55.3234 13.222C58.5354 13.222 60.1854 15.136 60.1854 17.578V24.75H57.3914V23.672C56.6874 24.53 55.3674 25.08 54.0694 25.08ZM53.1014 21.626C53.1014 22.374 53.6954 22.858 54.6414 22.858C55.9174 22.858 56.8414 22.264 57.3914 21.384V19.822L54.7514 20.262C53.5854 20.46 53.1014 20.944 53.1014 21.626ZM69.9086 24.75V9.35H74.6166C78.0046 9.35 80.0946 11.088 80.0946 13.948C80.0946 15.818 79.1926 17.204 77.6086 17.93L82.4266 24.75H78.7526L74.6386 18.524H73.0326V24.75H69.9086ZM74.7926 11.946H73.0326V15.928H74.7926C76.1126 15.928 76.8826 15.158 76.8826 13.904C76.8826 12.738 76.1126 11.946 74.7926 11.946ZM90.4344 11.902H87.7504L90.0384 8.25H93.0744L90.4344 11.902ZM94.1964 22.946C93.1624 24.332 91.4464 25.19 89.3564 25.19C85.4184 25.19 83.1964 22.44 83.1964 19.206C83.1964 15.928 85.2644 13.222 88.8944 13.222C91.9744 13.222 93.9984 15.312 93.9984 18.216C93.9984 18.832 93.9104 19.404 93.8224 19.778H86.0564C86.3204 21.846 87.5964 22.682 89.3344 22.682C90.5444 22.682 91.6004 22.154 92.1944 21.362L94.1964 22.946ZM88.8284 15.51C87.3984 15.51 86.4524 16.302 86.1444 17.754H91.2484C91.2044 16.632 90.3904 15.51 88.8284 15.51ZM95.5427 26.686C95.5427 25.586 96.0927 24.706 97.0827 23.98C96.6427 23.54 96.4007 22.946 96.4007 22.374C96.4007 21.494 96.7747 20.79 97.6107 20.174C96.6427 19.448 96.1147 18.348 96.1147 17.116C96.1147 14.96 97.7867 13.222 100.559 13.222C101.417 13.222 102.165 13.376 102.803 13.662H106.851V16.038H104.893C105.003 16.39 105.047 16.742 105.047 17.116C105.047 19.294 103.419 21.054 100.559 21.054C100.185 21.054 99.8327 21.032 99.5027 20.966C99.2607 21.186 99.1287 21.428 99.1287 21.67C99.1287 22.11 99.3707 22.33 99.8767 22.33H102.671C105.465 22.33 106.983 23.826 106.983 25.894C106.983 28.358 104.629 30.25 101.175 30.25C97.6327 30.25 95.5427 29.018 95.5427 26.686ZM100.603 18.942C101.769 18.942 102.517 18.216 102.517 17.116C102.517 16.016 101.769 15.312 100.603 15.312C99.3927 15.312 98.6667 16.038 98.6667 17.116C98.6667 18.216 99.3927 18.942 100.603 18.942ZM98.1827 26.29C98.1827 27.346 99.1947 28.006 101.153 28.006C103.177 28.006 104.211 27.258 104.211 26.158C104.211 25.322 103.705 24.728 102.363 24.728H98.9307C98.5127 25.124 98.1827 25.608 98.1827 26.29ZM110.275 11.726C109.285 11.726 108.449 10.89 108.449 9.9C108.449 8.91 109.285 8.074 110.275 8.074C111.265 8.074 112.079 8.91 112.079 9.9C112.079 10.89 111.265 11.726 110.275 11.726ZM108.867 24.75V13.662H111.661V24.75H108.867ZM125.22 22.946C124.186 24.332 122.47 25.19 120.38 25.19C116.442 25.19 114.22 22.44 114.22 19.206C114.22 15.928 116.288 13.222 119.918 13.222C122.998 13.222 125.022 15.312 125.022 18.216C125.022 18.832 124.934 19.404 124.846 19.778H117.08C117.344 21.846 118.62 22.682 120.358 22.682C121.568 22.682 122.624 22.154 123.218 21.362L125.22 22.946ZM119.852 15.51C118.422 15.51 117.476 16.302 117.168 17.754H122.272C122.228 16.632 121.414 15.51 119.852 15.51Z" fill="#000091"/>
<rect x="134.812" y="8.75" width="40" height="16" rx="8" fill="#E3E3FD"/>
<path d="M141.946 20.75V13.05H144.212C145.818 13.05 146.797 13.842 146.797 15.14C146.797 15.767 146.511 16.306 145.972 16.658C146.786 17.021 147.237 17.681 147.237 18.484C147.237 19.892 146.148 20.75 144.377 20.75H141.946ZM144.245 14.348H143.508V16.086H144.245C144.839 16.086 145.191 15.767 145.191 15.206C145.191 14.667 144.839 14.348 144.245 14.348ZM144.465 17.384H143.508V19.452H144.465C145.191 19.452 145.631 19.067 145.631 18.418C145.631 17.758 145.191 17.384 144.465 17.384ZM148.729 20.75V13.05H153.217V14.348H150.291V16.174H152.777V17.472H150.291V19.452H153.217V20.75H148.729ZM154.292 14.469V13.05H160.606V14.469H158.23V20.75H156.668V14.469H154.292ZM160.158 20.75L163.073 13.05H165.119L168.034 20.75H166.373L165.636 18.748H162.556L161.819 20.75H160.158ZM163.04 17.417H165.152L164.096 14.524L163.04 17.417Z" fill="#6A6AF4"/>
</svg>
