<svg width="157" height="40" viewBox="0 0 157 40" fill="none" xmlns="http://www.w3.org/2000/svg">
<path d="M7.7777 30.9328C7.5322 31.1576 7.1451 31.0744 7.07604 30.7488C7.02535 30.5097 7 30.2308 7 29.9121V18.9151C7 18.5698 7.02535 18.2743 7.07604 18.0286C7.14388 17.7409 7.4603 17.6719 7.6902 17.8577L14.7827 23.59C15.0662 23.819 15.0793 24.2466 14.8106 24.4927L7.7777 30.9328ZM10.0851 33C9.68682 33 9.33196 32.9601 9.02055 32.8805C9.00036 32.8752 8.9804 32.8698 8.96066 32.8642C8.58651 32.7596 8.53839 32.3066 8.82475 32.044L16.147 25.3298C16.3651 25.1298 16.6971 25.1203 16.9264 25.3075L18.113 26.2763C18.4317 26.5287 18.7576 26.7212 19.0907 26.854C19.4238 26.9802 19.7606 27.0433 20.101 27.0433C20.4413 27.0433 20.7781 26.9802 21.1112 26.854C21.4516 26.7212 21.7811 26.5287 22.0998 26.2763L23.2864 25.3075C23.5157 25.1203 23.8477 25.1298 24.0658 25.3298L31.388 32.044C31.6744 32.3066 31.6257 32.7585 31.2512 32.8619C31.2282 32.8682 31.205 32.8744 31.1814 32.8805C30.8772 32.9601 30.526 33 30.1277 33H10.0851ZM33.1259 30.7488C33.0582 31.0681 32.6785 31.1557 32.4378 30.9353L25.4022 24.4927C25.1334 24.2466 25.1466 23.819 25.43 23.59L32.5259 17.8551C32.75 17.674 33.0598 17.7482 33.1259 18.0286C33.1838 18.2743 33.2128 18.5698 33.2128 18.9151V29.9121C33.2128 30.2308 33.1838 30.5097 33.1259 30.7488Z" fill="#2727A0"/>
<path d="M11.766 18.9183L8.4963 16.2497C7.73691 15.6299 7.73691 14.4695 8.4963 13.8497L18.786 5.4515C19.5236 4.8495 20.583 4.8495 21.3206 5.45151L31.6103 13.8497C32.3697 14.4695 32.3697 15.6299 31.6103 16.2497L28.4468 18.8316V15.3446C28.4468 14.2377 27.5495 13.3404 26.4426 13.3404H13.7701C12.6633 13.3404 11.766 14.2377 11.766 15.3446V18.9183Z" fill="#D3343F"/>
<path d="M42.266 28V12.6H46.16L49.922 19.068L53.684 12.6H57.578V28H54.454V16.956L51.022 22.72H48.822L45.39 16.956V28H42.266ZM71.1197 26.196C70.0857 27.582 68.3697 28.44 66.2797 28.44C62.3417 28.44 60.1197 25.69 60.1197 22.456C60.1197 19.178 62.1877 16.472 65.8177 16.472C68.8977 16.472 70.9217 18.562 70.9217 21.466C70.9217 22.082 70.8337 22.654 70.7457 23.028H62.9797C63.2437 25.096 64.5197 25.932 66.2577 25.932C67.4677 25.932 68.5237 25.404 69.1177 24.612L71.1197 26.196ZM65.7517 18.76C64.3217 18.76 63.3757 19.552 63.0677 21.004H68.1717C68.1277 19.882 67.3137 18.76 65.7517 18.76ZM72.0935 26.394L73.9415 24.722C74.6235 25.58 75.4375 26.196 76.4935 26.196C77.3955 26.196 77.8575 25.668 77.8575 25.008C77.8575 23.072 72.5555 23.798 72.5555 19.904C72.5555 17.946 74.2055 16.472 76.5155 16.472C78.2095 16.472 79.7495 17.286 80.5415 18.364L78.6935 19.992C78.1215 19.288 77.3955 18.716 76.5375 18.716C75.6575 18.716 75.2395 19.2 75.2395 19.772C75.2395 21.664 80.5415 21.004 80.5415 24.832C80.4975 27.164 78.6275 28.44 76.5375 28.44C74.5575 28.44 73.1495 27.648 72.0935 26.394ZM81.5578 26.394L83.4058 24.722C84.0878 25.58 84.9018 26.196 85.9578 26.196C86.8598 26.196 87.3218 25.668 87.3218 25.008C87.3218 23.072 82.0198 23.798 82.0198 19.904C82.0198 17.946 83.6698 16.472 85.9798 16.472C87.6738 16.472 89.2138 17.286 90.0058 18.364L88.1578 19.992C87.5858 19.288 86.8598 18.716 86.0018 18.716C85.1218 18.716 84.7038 19.2 84.7038 19.772C84.7038 21.664 90.0058 21.004 90.0058 24.832C89.9618 27.164 88.0918 28.44 86.0018 28.44C84.0218 28.44 82.6138 27.648 81.5578 26.394ZM95.1786 28.33C92.9566 28.33 91.4386 27.054 91.4386 25.008C91.4386 23.336 92.7366 22.082 95.1126 21.686L98.5006 21.114V20.828C98.5006 19.662 97.6206 18.914 96.3446 18.914C95.2666 18.914 94.4306 19.42 93.8366 20.234L91.7906 18.672C92.7806 17.308 94.4086 16.472 96.4326 16.472C99.6446 16.472 101.295 18.386 101.295 20.828V28H98.5006V26.922C97.7966 27.78 96.4766 28.33 95.1786 28.33ZM94.2106 24.876C94.2106 25.624 94.8046 26.108 95.7506 26.108C97.0266 26.108 97.9506 25.514 98.5006 24.634V23.072L95.8606 23.512C94.6946 23.71 94.2106 24.194 94.2106 24.876ZM102.954 29.936C102.954 28.836 103.504 27.956 104.494 27.23C104.054 26.79 103.812 26.196 103.812 25.624C103.812 24.744 104.186 24.04 105.022 23.424C104.054 22.698 103.526 21.598 103.526 20.366C103.526 18.21 105.198 16.472 107.97 16.472C108.828 16.472 109.576 16.626 110.214 16.912H114.262V19.288H112.304C112.414 19.64 112.458 19.992 112.458 20.366C112.458 22.544 110.83 24.304 107.97 24.304C107.596 24.304 107.244 24.282 106.914 24.216C106.672 24.436 106.54 24.678 106.54 24.92C106.54 25.36 106.782 25.58 107.288 25.58H110.082C112.876 25.58 114.394 27.076 114.394 29.144C114.394 31.608 112.04 33.5 108.586 33.5C105.044 33.5 102.954 32.268 102.954 29.936ZM108.014 22.192C109.18 22.192 109.928 21.466 109.928 20.366C109.928 19.266 109.18 18.562 108.014 18.562C106.804 18.562 106.078 19.288 106.078 20.366C106.078 21.466 106.804 22.192 108.014 22.192ZM105.594 29.54C105.594 30.596 106.606 31.256 108.564 31.256C110.588 31.256 111.622 30.508 111.622 29.408C111.622 28.572 111.116 27.978 109.774 27.978H106.342C105.924 28.374 105.594 28.858 105.594 29.54ZM125.553 26.196C124.519 27.582 122.803 28.44 120.713 28.44C116.775 28.44 114.553 25.69 114.553 22.456C114.553 19.178 116.621 16.472 120.251 16.472C123.331 16.472 125.355 18.562 125.355 21.466C125.355 22.082 125.267 22.654 125.179 23.028H117.413C117.677 25.096 118.953 25.932 120.691 25.932C121.901 25.932 122.957 25.404 123.551 24.612L125.553 26.196ZM120.185 18.76C118.755 18.76 117.809 19.552 117.501 21.004H122.605C122.561 19.882 121.747 18.76 120.185 18.76ZM127.645 28V16.912H130.439V18.012C131.165 17.264 132.111 16.692 133.365 16.692C133.739 16.692 134.069 16.758 134.333 16.846V19.596C133.981 19.508 133.607 19.442 133.101 19.442C131.737 19.442 130.857 20.19 130.439 20.894V28H127.645ZM137.55 14.976C136.56 14.976 135.724 14.14 135.724 13.15C135.724 12.16 136.56 11.324 137.55 11.324C138.54 11.324 139.354 12.16 139.354 13.15C139.354 14.14 138.54 14.976 137.55 14.976ZM136.142 28V16.912H138.936V28H136.142ZM152.055 26.196C151.021 27.582 149.305 28.44 147.215 28.44C143.277 28.44 141.055 25.69 141.055 22.456C141.055 19.178 143.123 16.472 146.753 16.472C149.833 16.472 151.857 18.562 151.857 21.466C151.857 22.082 151.769 22.654 151.681 23.028H143.915C144.179 25.096 145.455 25.932 147.193 25.932C148.403 25.932 149.459 25.404 150.053 24.612L152.055 26.196ZM146.687 18.76C145.257 18.76 144.311 19.552 144.003 21.004H149.107C149.063 19.882 148.249 18.76 146.687 18.76Z" fill="#2727A0"/>
</svg>
