<svg width="54" height="58" viewBox="0 0 54 58" fill="none" xmlns="http://www.w3.org/2000/svg">
<path d="M24.6074 6.5H2.42627V14.5659H24.6074V6.5Z" fill="white"/>
<path fill-rule="evenodd" clip-rule="evenodd" d="M11.5963 13.6145C11.6829 13.5279 11.7703 13.4349 11.8571 13.3416C12.0124 13.157 12.1822 12.9836 12.3636 12.8228C12.4161 12.7752 12.4715 12.7309 12.5296 12.6903C12.5372 12.6827 12.541 12.6712 12.5448 12.6598C12.5486 12.6483 12.5524 12.6369 12.5601 12.6293C12.522 12.6445 12.4915 12.6674 12.461 12.6902C12.4305 12.7131 12.4 12.736 12.3619 12.7512C12.3467 12.7512 12.3314 12.736 12.3467 12.7208L12.5095 12.5986C12.5062 12.5988 12.5026 12.5988 12.4991 12.5988C12.4839 12.5988 12.4839 12.5836 12.4839 12.5683C12.2874 12.5381 12.1359 12.6727 11.9996 12.7938L11.9961 12.7969C11.9758 12.8071 11.9554 12.7969 11.9396 12.789C11.9318 12.7851 11.925 12.7817 11.9199 12.7817C11.8001 12.8217 11.697 12.8951 11.5932 12.9691C11.4988 13.0363 11.4038 13.104 11.2951 13.1475V13.117C11.2571 13.1297 11.2197 13.1466 11.1821 13.1635C11.1291 13.1875 11.0758 13.2115 11.0207 13.2237C10.9175 13.2466 10.823 13.2437 10.7306 13.2408C10.7002 13.2399 10.6698 13.239 10.6396 13.239C10.4532 13.2616 10.2682 13.2946 10.0854 13.3376L10.0774 13.3396L10.0738 13.3405L10.0695 13.3416C9.9706 13.3683 9.87526 13.4067 9.78549 13.456C9.78194 13.4579 9.77847 13.46 9.77508 13.4621C9.7675 13.4716 9.76004 13.4807 9.75302 13.4884C9.72427 13.5252 9.68878 13.5561 9.64849 13.5796C9.58223 13.6133 9.52448 13.6648 9.46713 13.7158C9.44346 13.7369 9.41986 13.758 9.39575 13.7777C9.38857 13.7827 9.38006 13.7854 9.37131 13.7854C9.34618 13.8095 9.32118 13.8337 9.29613 13.8579C9.23975 13.9124 9.18333 13.9671 9.12582 14.0204C9.1113 14.0271 9.09505 14.029 9.07932 14.0259C9.08352 14.0197 9.0865 14.0149 9.0894 14.0101C9.10223 13.9885 9.11526 13.9671 9.12844 13.9458C9.1432 13.9219 9.15825 13.8983 9.17365 13.875C9.19442 13.8435 9.2158 13.8123 9.23854 13.7822C9.24383 13.7765 9.24358 13.7676 9.23798 13.7622C9.23225 13.7567 9.22459 13.7539 9.21668 13.7542C9.29464 13.6813 9.38046 13.6172 9.47253 13.5633C9.46237 13.5642 9.44757 13.5561 9.45527 13.5453C9.46096 13.5374 9.46592 13.5292 9.47084 13.521C9.47435 13.5152 9.47782 13.5095 9.48157 13.5038C9.4833 13.4993 9.48487 13.4947 9.48645 13.4902C9.48407 13.4876 9.48169 13.4852 9.47931 13.4827L9.47491 13.4782C9.44983 13.4931 9.42587 13.5098 9.40329 13.5282C9.39224 13.5382 9.38191 13.5513 9.37135 13.5647C9.34707 13.5956 9.3215 13.6281 9.28295 13.6277C9.27512 13.6276 9.26734 13.6264 9.25984 13.6244C9.25419 13.6236 9.24875 13.6218 9.24383 13.6189L9.2458 13.6154L9.24806 13.6112L9.25028 13.6072L9.25754 13.5941L9.26145 13.587L9.2648 13.5809L9.27064 13.5704C9.27427 13.5639 9.27778 13.5576 9.28145 13.5511L9.28452 13.5457L9.28617 13.5429L9.28944 13.5373C9.29399 13.5294 9.29855 13.5216 9.30315 13.5138L9.30912 13.5036L9.31852 13.4875L9.32521 13.476L9.33001 13.4677L9.33473 13.4598C9.33787 13.4548 9.33836 13.4486 9.3361 13.4431C9.3338 13.4377 9.32904 13.4337 9.32327 13.4325C9.35163 13.3955 9.38712 13.3646 9.42765 13.3416H9.42305C9.46322 13.3213 9.50339 13.2981 9.54355 13.2749C9.56166 13.2644 9.57997 13.2538 9.59808 13.2436C9.60372 13.2388 9.60921 13.234 9.61474 13.2292L9.62328 13.2219C9.5375 13.2509 9.45592 13.2911 9.38066 13.3415C9.37163 13.3451 9.36304 13.3497 9.35513 13.3554C9.34082 13.3585 9.32602 13.3531 9.3171 13.3415C9.31464 13.3383 9.31335 13.3343 9.31343 13.3303C9.32235 13.3126 9.34158 13.2999 9.36211 13.2865C9.37683 13.2769 9.3922 13.2668 9.40494 13.2541C9.4201 13.2541 9.43535 13.2541 9.43535 13.2693C9.73802 13.0329 10.111 12.9784 10.4853 12.9237C10.7142 12.8903 10.9437 12.8568 11.1577 12.7816L11.2949 12.6902C11.3341 12.6745 11.3692 12.6467 11.4066 12.6172C11.4419 12.5893 11.479 12.5599 11.5234 12.5377C11.6466 12.4532 11.7379 12.3297 11.7826 12.1872C11.7809 12.1756 11.7756 12.1649 11.7674 12.1567C11.5758 12.3632 11.3487 12.5336 11.0967 12.6597C10.8659 12.7806 10.6193 12.7984 10.3739 12.8162C10.279 12.823 10.1843 12.8299 10.0907 12.8427C10.106 12.8123 10.1365 12.8123 10.167 12.8123C10.167 12.7761 10.186 12.759 10.2091 12.7383C10.2152 12.7329 10.2216 12.7272 10.2279 12.7208H10.2737C10.2813 12.7208 10.2851 12.7132 10.2889 12.7056C10.2927 12.6979 10.2965 12.6903 10.3041 12.6903C10.3346 12.6903 10.3804 12.6751 10.3651 12.6751C10.3419 12.6441 10.3069 12.6564 10.2681 12.67C10.2304 12.6831 10.1893 12.6976 10.1518 12.6751C10.1665 12.6603 10.1705 12.642 10.1742 12.6253C10.1781 12.6075 10.1817 12.5915 10.1975 12.5836H10.2584C10.2616 12.5605 10.2723 12.5391 10.2889 12.5227C10.4247 12.4412 10.5551 12.3704 10.6834 12.3009C10.7711 12.2533 10.8577 12.2064 10.9444 12.1568C10.9267 12.1568 10.9113 12.1637 10.8964 12.1703C10.8728 12.1809 10.8505 12.1908 10.8225 12.1721C10.8378 12.1721 10.8378 12.1607 10.8378 12.1493C10.8378 12.1378 10.8378 12.1263 10.853 12.1263C10.9489 12.1002 11.0349 12.0591 11.1223 12.0172C11.1876 11.986 11.2538 11.9543 11.3255 11.9283C11.3046 11.9283 11.2854 11.9337 11.2669 11.9389C11.2313 11.9489 11.1979 11.9583 11.1578 11.9283C11.1679 11.9232 11.1764 11.9164 11.1849 11.9096C11.2018 11.8961 11.2188 11.8825 11.2492 11.8825V11.8368C11.2492 11.8215 11.2645 11.8215 11.2798 11.8215C11.2682 11.8199 11.2575 11.8146 11.2492 11.8063C11.2571 11.7906 11.2732 11.787 11.291 11.7831C11.3077 11.7794 11.326 11.7753 11.3407 11.7606C11.3255 11.7606 11.295 11.7606 11.295 11.7454C11.3407 11.6844 11.4169 11.6691 11.4932 11.6539C11.4855 11.6386 11.4702 11.6386 11.4569 11.6386C11.4436 11.6386 11.4321 11.6386 11.4321 11.6234C11.4321 11.6082 11.4474 11.6082 11.4626 11.6082H11.4321C11.4085 11.5963 11.4124 11.5754 11.4153 11.5594C11.4161 11.5548 11.4169 11.5506 11.4169 11.5472C11.4779 11.4761 11.4982 11.3914 11.5185 11.3067C11.5286 11.2644 11.5388 11.222 11.5541 11.1814C11.5388 11.1814 11.5236 11.1814 11.5236 11.1661C11.3756 11.3289 11.1414 11.3911 10.9188 11.4503L10.8987 11.4556H10.8225C10.7381 11.4887 10.6433 11.4832 10.5634 11.4403C10.5265 11.4219 10.5007 11.3978 10.4727 11.3716C10.4544 11.3545 10.435 11.3365 10.411 11.3184C10.2918 11.2423 10.1639 11.1808 10.0299 11.1354C9.65147 11.0116 9.25431 10.9549 8.85634 10.9678C8.96588 10.908 9.08283 10.884 9.20116 10.8596C9.26395 10.8467 9.32715 10.8338 9.38982 10.8153C9.42769 10.8042 9.46527 10.7927 9.50262 10.7813C9.72088 10.7146 9.93285 10.6499 10.1671 10.6629C10.1361 10.6526 10.0981 10.6562 10.0626 10.6597C10.0457 10.6613 10.0294 10.6629 10.0147 10.6629C9.84304 10.6506 9.67136 10.6877 9.49165 10.7265C9.44801 10.7359 9.40389 10.7454 9.35917 10.7544C9.28303 10.7696 9.21072 10.7925 9.13836 10.8153C9.06593 10.8381 8.9935 10.861 8.9172 10.8763C8.88207 10.888 8.85368 10.9087 8.82597 10.9289C8.78161 10.9613 8.73902 10.9924 8.67329 10.9829V10.9372C8.82573 10.7542 9.00863 10.5714 9.2525 10.5562C9.48435 10.5176 9.70535 10.5443 9.93386 10.5719C9.97568 10.5769 10.0179 10.582 10.0603 10.5867C10.2557 10.6075 10.4492 10.6431 10.6392 10.6934C10.6811 10.6934 10.7046 10.7302 10.7273 10.7659C10.746 10.7952 10.7642 10.8237 10.7917 10.8306C10.8282 10.8427 10.8649 10.8452 10.9014 10.8476C10.9563 10.8513 11.0112 10.8549 11.066 10.8915C11.066 10.8813 11.0643 10.8712 11.0626 10.8611C11.0592 10.8407 11.0558 10.8204 11.066 10.8001C11.1004 10.7656 11.1397 10.775 11.1783 10.7841C11.2081 10.7912 11.2376 10.7981 11.2642 10.7848C11.3469 10.7331 11.2682 10.6534 11.1901 10.5741C11.1531 10.5365 11.1161 10.4991 11.0965 10.4647C11.0981 10.4532 11.1035 10.4425 11.1117 10.4342C11.1483 10.4662 11.1821 10.4996 11.2156 10.5327C11.2939 10.6099 11.3708 10.6857 11.4775 10.7391C11.5537 10.7695 11.7366 10.8153 11.7061 10.7239C11.6527 10.6063 11.5618 10.5038 11.4703 10.4005C11.4312 10.3564 11.392 10.3122 11.3556 10.2666V10.2059C11.3333 10.2059 11.3273 10.1977 11.3197 10.1874C11.317 10.1836 11.314 10.1794 11.3099 10.1754V10.1144C11.2715 10.0953 11.2634 10.0641 11.255 10.0322C11.25 10.0133 11.245 9.99426 11.2337 9.97728C11.2082 9.93481 11.2064 9.88291 11.2045 9.82943C11.203 9.78688 11.2015 9.74337 11.1879 9.70288C11.1604 9.61839 11.1401 9.53172 11.1269 9.4438C11.109 9.34213 11.0888 9.24518 11.069 9.15016C11.0383 9.00296 11.0085 8.8604 10.9898 8.71223C10.9663 8.48933 11.0784 8.30244 11.1938 8.10995C11.2283 8.05248 11.2631 7.99449 11.2947 7.93492C11.4013 7.75186 11.5232 7.56909 11.7214 7.44718C11.767 7.26464 11.8884 7.11268 12.0098 6.96072L12.0108 6.95947C12.1325 6.8107 12.3348 6.72008 12.4813 6.65458C12.6135 6.5959 12.7486 6.54428 12.8863 6.5H2.42627V14.5656H9.83404C10.0362 14.4201 10.2382 14.3278 10.4791 14.2177C10.584 14.1697 10.6962 14.1184 10.819 14.0579C10.8426 14.0463 10.8699 14.0331 10.9 14.0185L10.9006 14.0182C11.1146 13.9146 11.4665 13.7443 11.5963 13.6145ZM9.17627 12.5074C9.18696 12.4539 9.24262 12.438 9.29601 12.4226C9.31876 12.4162 9.34106 12.4098 9.35929 12.4007L9.36659 12.3969L9.37482 12.3925C9.40389 12.377 9.44035 12.3574 9.466 12.3702C9.48326 12.3961 9.5054 12.4024 9.5269 12.4086C9.54335 12.4133 9.55948 12.4179 9.57271 12.4312C9.51766 12.4861 9.45164 12.4915 9.38458 12.497C9.34005 12.5007 9.29504 12.5044 9.2525 12.5226C9.24508 12.5226 9.23588 12.5235 9.2264 12.5244C9.19688 12.5273 9.16474 12.5304 9.17627 12.5074ZM7.39299 11.3795C7.25611 11.6538 7.09274 11.9142 6.90529 12.1568C6.90686 12.1684 6.91222 12.1791 6.92053 12.1873C7.28636 11.7758 7.62166 11.4252 8.09396 11.1356C8.10565 11.1298 8.10166 11.1351 8.09573 11.1431C8.08621 11.1559 8.07161 11.1755 8.1092 11.1661C8.26761 11.1296 8.33835 10.9956 8.40707 10.8655C8.42429 10.8328 8.44139 10.8004 8.45974 10.7698C8.5306 10.6547 8.63235 10.5808 8.73503 10.5061C8.80908 10.4523 8.88364 10.3981 8.94749 10.3279C8.94954 10.3446 8.94394 10.3614 8.93224 10.3736C8.94442 10.3853 8.96124 10.3909 8.97797 10.3888C9.00455 10.3689 9.03395 10.3606 9.06247 10.3525C9.09957 10.3419 9.13518 10.3318 9.16103 10.2974C9.03464 10.2468 8.89465 10.2414 8.76471 10.2821C8.44462 10.4345 8.17034 10.6784 7.91118 10.9528C7.75563 11.1175 7.59113 11.2728 7.39299 11.3795ZM8.13981 11.2423C8.12783 11.2696 8.10609 11.2913 8.07887 11.3033C8.06363 11.3033 8.04838 11.3033 8.04838 11.2881C8.06205 11.2241 8.10835 11.172 8.17034 11.1509C8.18558 11.1508 8.18558 11.1661 8.18558 11.1814C8.17776 11.197 8.16949 11.2055 8.16143 11.2137C8.15384 11.2215 8.14642 11.2291 8.13981 11.2423ZM8.87594 13.533C8.88824 13.5217 8.87489 13.5133 8.85582 13.5094C8.87146 13.4975 8.88425 13.4823 8.89332 13.4649C8.90578 13.435 8.82521 13.4422 8.81267 13.4509C8.80036 13.4607 8.78935 13.4721 8.77992 13.4846C8.75999 13.5061 8.73882 13.5263 8.71656 13.5453C8.69982 13.5607 8.68357 13.5764 8.66732 13.5922C8.64647 13.6124 8.62562 13.6326 8.60388 13.6518C8.57823 13.6743 8.66203 13.6861 8.6801 13.6701C8.69958 13.6528 8.71833 13.6348 8.73697 13.6168C8.74487 13.6164 8.75274 13.6154 8.76044 13.6136C8.80424 13.5953 8.84364 13.5678 8.87594 13.533ZM8.61646 13.3416L8.59852 13.3543C8.54742 13.3904 8.49624 13.4264 8.44244 13.4577C8.39413 13.4857 8.34416 13.5088 8.29403 13.5319C8.27649 13.54 8.2589 13.5481 8.2414 13.5564C8.24092 13.5551 8.24023 13.5538 8.23942 13.5527C8.23362 13.5446 8.22273 13.5419 8.21389 13.5466C8.15784 13.5785 8.1063 13.6178 8.06064 13.6634C8.05355 13.6701 8.04645 13.677 8.03935 13.6839C8.02971 13.6934 8.02249 13.7006 8.01527 13.7078L8.01273 13.7104C8.01249 13.7106 8.01237 13.7109 8.01225 13.7111L8.0118 13.7118C8.00096 13.7225 7.99055 13.7334 7.97861 13.7474C7.97313 13.7556 7.96623 13.7628 7.95829 13.7687C7.94881 13.775 7.9226 13.7749 7.92502 13.7573V13.7543L7.92393 13.7549C7.9153 13.7594 7.90667 13.764 7.89795 13.7682C7.89005 13.7719 7.88299 13.776 7.87581 13.7803L7.87416 13.7812C7.87081 13.7799 7.86722 13.7794 7.86363 13.7797C7.85968 13.7797 7.85585 13.781 7.85266 13.7834C7.83403 13.798 7.8156 13.8135 7.79761 13.8298C7.76559 13.8587 7.73599 13.8901 7.70917 13.9238L7.70482 13.9295L7.70026 13.9354C7.69881 13.9374 7.69699 13.9396 7.69542 13.9417L7.69393 13.9435L7.69167 13.9468L7.68727 13.9532L7.6836 13.9587C7.67957 13.9629 7.67518 13.965 7.6705 13.9656L7.66796 13.9619C7.66671 13.9602 7.66546 13.9584 7.66437 13.9565L7.66183 13.9522L7.66009 13.9492C7.65545 13.9413 7.65114 13.9331 7.64707 13.9248L7.64662 13.9238L7.64489 13.9203L7.64303 13.9163C7.65953 13.8985 7.67546 13.8802 7.69086 13.8614L7.69393 13.8577C7.69929 13.8512 7.70453 13.8447 7.70978 13.8382L7.73531 13.8055C7.73716 13.803 7.73898 13.8007 7.74083 13.7984L7.74462 13.7935C7.76136 13.7716 7.77737 13.7504 7.79229 13.7291L7.79342 13.7275L7.79608 13.7235C7.79737 13.7217 7.79862 13.7198 7.79999 13.7179C7.80729 13.7071 7.81431 13.6962 7.82088 13.6851C7.82681 13.6752 7.83238 13.665 7.83754 13.6547L7.83879 13.6525L7.84036 13.6493C7.84081 13.6484 7.84121 13.6475 7.84157 13.6466C7.84202 13.6456 7.84242 13.6446 7.84286 13.6436C7.84823 13.6321 7.85307 13.6203 7.85734 13.6081L7.85871 13.6041L7.85956 13.6016C7.86045 13.5992 7.86134 13.5967 7.8621 13.5941C7.86384 13.5886 7.86541 13.583 7.8669 13.5773C7.86718 13.5761 7.86738 13.5748 7.86775 13.5736L7.86908 13.5683C7.87049 13.5627 7.8719 13.5571 7.87303 13.5513C7.87368 13.5477 7.87303 13.5441 7.87118 13.541C7.88836 13.5115 7.9086 13.484 7.93159 13.4587C7.9305 13.4594 7.92933 13.46 7.92816 13.4606C7.92695 13.4613 7.92574 13.462 7.92461 13.4627C7.91247 13.4705 7.90259 13.48 7.89271 13.4896C7.88489 13.4972 7.87702 13.5048 7.86803 13.5115C7.85141 13.5239 7.82084 13.5034 7.84048 13.4887C7.85266 13.479 7.86424 13.4685 7.87513 13.4573C7.90086 13.4272 7.92679 13.4013 7.95454 13.3774L7.96107 13.3727C7.97591 13.362 7.98906 13.3524 8.00136 13.3417C8.00289 13.3403 8.0043 13.3389 8.00584 13.3376L8.00801 13.3356C8.01842 13.322 8.02979 13.3092 8.04209 13.2973L8.04274 13.2966C8.04302 13.2963 8.0433 13.296 8.04366 13.2958C8.13283 13.2097 8.25926 13.1786 8.38804 13.1469C8.46991 13.1268 8.55274 13.1064 8.62751 13.0715C8.66994 13.0545 8.71712 13.0611 8.76379 13.0678C8.80085 13.073 8.83759 13.0782 8.8713 13.0715C8.91913 13.0668 8.96717 13.0775 9.0085 13.102C8.90288 13.1595 8.80335 13.2228 8.70603 13.2847C8.67728 13.303 8.64877 13.3211 8.62029 13.339L8.61646 13.3416ZM8.87138 12.2483H8.99334C8.98475 12.2655 8.96156 12.2681 8.94575 12.2699C8.93357 12.2713 8.92579 12.2722 8.9324 12.2788C8.97818 12.3244 9.0696 12.3092 9.13054 12.2788C9.17684 12.2527 9.23019 12.242 9.28295 12.2483C9.29819 12.2483 9.29819 12.2178 9.29819 12.2026C9.33751 12.2151 9.37885 12.2203 9.42007 12.2178C9.78589 12.1416 10.1365 12.0654 10.4718 11.8977C10.1334 11.6374 9.71725 11.5216 9.30872 11.4079C9.23878 11.3885 9.1691 11.3691 9.10001 11.349C9.11526 11.349 9.1305 11.3541 9.14574 11.3592C9.17623 11.3693 9.20672 11.3795 9.23721 11.349C9.19575 11.3158 9.14974 11.3098 9.10412 11.3037C9.06597 11.2987 9.02806 11.2937 8.99334 11.2728C8.99677 11.2728 9.00096 11.2736 9.0056 11.2744C9.02153 11.2774 9.0425 11.2812 9.05432 11.2576C8.97305 11.217 8.89179 11.2034 8.81053 11.1899C8.76987 11.1831 8.72918 11.1763 8.68849 11.1661C8.76153 11.153 8.81363 11.0879 8.81045 11.0137C8.81045 10.9985 8.77996 10.9985 8.76471 10.9985C8.58182 11.0899 8.45986 11.2576 8.38368 11.4557C8.45176 11.4946 8.526 11.4901 8.59856 11.4857C8.63973 11.4832 8.68038 11.4807 8.71902 11.4862C8.68506 11.52 8.63449 11.5288 8.58577 11.5373C8.56867 11.5403 8.55181 11.5432 8.53597 11.5472C8.48918 11.5588 8.4445 11.5929 8.45974 11.6234C8.46805 11.6349 8.48043 11.6428 8.49438 11.6454C8.45837 11.6549 8.42546 11.6736 8.3988 11.6996C8.44244 11.7322 8.48604 11.726 8.52959 11.7198C8.54702 11.7173 8.5644 11.7148 8.58182 11.7148C8.58182 11.7352 8.59537 11.7419 8.60896 11.7487C8.61574 11.7521 8.62251 11.7555 8.62759 11.7606C8.56097 11.7848 8.50632 11.834 8.47515 11.8977C8.45684 11.9435 8.42207 11.9727 8.38735 12.002C8.36416 12.0215 8.34101 12.041 8.32274 12.0654V12.1111C8.27092 12.1577 8.21736 12.199 8.16449 12.2398C8.06165 12.3192 7.96123 12.3967 7.88073 12.5074C7.89594 12.5074 7.89594 12.5226 7.89594 12.5378C7.88215 12.5586 7.8621 12.573 7.84286 12.5869C7.81963 12.6036 7.79762 12.6195 7.78923 12.6445C7.78923 12.6598 7.78923 12.675 7.80451 12.675C7.90037 12.6431 7.98365 12.5902 8.06532 12.5384C8.13953 12.4912 8.21244 12.445 8.29225 12.416C8.35743 12.3996 8.41385 12.3703 8.46857 12.3418C8.51624 12.3171 8.56262 12.2929 8.61231 12.2788C8.65038 12.2711 8.69232 12.2597 8.73422 12.2483C8.77617 12.2369 8.81807 12.2254 8.85618 12.2178C8.85618 12.233 8.85618 12.2483 8.87138 12.2483ZM9.57437 13.5918C9.57557 13.5909 9.57678 13.5899 9.57799 13.5889L9.5807 13.5868C9.60276 13.5712 9.62324 13.5513 9.64159 13.5275C9.64034 13.5271 9.63909 13.5266 9.63784 13.5261C9.63667 13.5257 9.63554 13.5251 9.63442 13.5245C9.61409 13.5453 9.59433 13.5677 9.57437 13.5918ZM12.5475 12.5916L12.5159 12.6153C12.5334 12.6145 12.5475 12.61 12.5475 12.5916Z" fill="#000091"/>
<path d="M24.6071 6.5H15.9308C15.9597 6.50948 15.9873 6.52234 16.0132 6.53831C16.0836 6.5761 16.1749 6.62486 16.2321 6.65482C16.349 6.70866 16.4494 6.79287 16.5227 6.89866C16.5532 6.94439 16.5989 7.03586 16.5684 7.09683C16.5379 7.17302 16.5227 7.29497 16.4465 7.32546C16.355 7.37115 16.2331 7.37115 16.1264 7.35591C16.0644 7.35325 16.0029 7.343 15.9433 7.32546C16.1719 7.41689 16.3853 7.5236 16.5378 7.73698C16.553 7.76747 16.6139 7.78268 16.675 7.78268C16.6902 7.78268 16.6902 7.81316 16.6902 7.82841C16.6597 7.85894 16.6292 7.87414 16.6444 7.91984H16.6902C16.7664 7.88935 16.7511 7.73682 16.8579 7.78268C16.9357 7.83063 16.9624 7.93101 16.9188 8.0113C16.8616 8.06655 16.8005 8.11749 16.7358 8.16371C16.7205 8.19762 16.7205 8.23646 16.7358 8.27042C16.7739 8.32531 16.7999 8.3877 16.812 8.45343C16.8577 8.5601 16.8729 8.68206 16.9187 8.78873C16.9796 9.01736 17.0406 9.24599 17.0253 9.47461C17.0253 9.59657 16.9644 9.70324 17.0101 9.8252C17.0406 9.94711 17.1168 10.0386 17.1778 10.1452C17.2387 10.2367 17.2997 10.2977 17.3454 10.3891C17.4368 10.5415 17.6045 10.6939 17.5285 10.8768C17.4828 10.9835 17.3151 10.9683 17.2084 11.0293C17.117 11.1055 17.1932 11.2274 17.2389 11.3036C17.3151 11.4408 17.1474 11.5322 17.0407 11.578C17.0712 11.6236 17.1322 11.6084 17.1474 11.6389C17.1627 11.7151 17.2389 11.7608 17.1932 11.837C17.1322 11.9285 16.9493 11.9742 17.0407 12.1114C17.1017 12.2181 17.062 12.3366 17.0255 12.4467C16.9798 12.5839 16.8579 12.6448 16.7512 12.6754C16.6573 12.7031 16.5581 12.7083 16.4617 12.6906C16.4339 12.6737 16.4027 12.6633 16.3703 12.6601C16.1112 12.6296 15.852 12.5534 15.593 12.5534C15.5195 12.5646 15.4478 12.5851 15.3796 12.6143C15.3132 12.663 15.2515 12.7176 15.195 12.7775L15.1933 12.7794C15.1818 12.7916 15.1708 12.804 15.16 12.8164C15.1534 12.8241 15.1469 12.832 15.1404 12.8398C15.136 12.845 15.1317 12.8502 15.1274 12.8555C15.0832 12.911 15.0431 12.9698 15.0074 13.0312C15.0052 13.035 15.0029 13.0389 15.0007 13.0428C14.9967 13.0499 14.9928 13.057 14.9889 13.0641C14.941 13.1531 14.9023 13.2468 14.8735 13.3438C14.7699 13.6928 14.8152 13.9923 14.8879 14.0649C14.9082 14.0852 15.391 14.2342 15.7273 14.3839C15.8514 14.436 15.9716 14.4968 16.087 14.5659H24.6071V6.5Z" fill="#E1000F"/>
<path d="M16.4465 9.44242C16.5076 9.45767 16.599 9.45767 16.599 9.48816C16.5685 9.61003 16.3855 9.64052 16.2941 9.76252H16.2485C16.2028 9.79301 16.218 9.86919 16.1723 9.86919C16.1262 9.85907 16.078 9.86443 16.0351 9.88443C16.0961 9.94537 16.1723 9.99119 16.2637 9.97586C16.29 9.98497 16.3081 10.0091 16.3095 10.0369C16.3212 10.0358 16.3321 10.0303 16.34 10.0216C16.3552 10.0216 16.3705 10.0216 16.3705 10.0369V10.0979C16.3247 10.1588 16.2485 10.1283 16.1875 10.1436C16.3023 10.1741 16.4232 10.1741 16.538 10.1436C16.6295 10.1131 16.538 9.96054 16.599 9.88443C16.5685 9.88443 16.599 9.8387 16.5685 9.8387C16.599 9.80825 16.6295 9.76252 16.66 9.74727C16.6962 9.74824 16.7305 9.7311 16.7514 9.70154C16.7514 9.67109 16.6905 9.65585 16.7057 9.62528C16.7971 9.56442 16.8733 9.47291 16.8429 9.38149C16.8276 9.33575 16.7057 9.33575 16.6295 9.30526C16.5532 9.27482 16.4618 9.30526 16.3704 9.32051C16.2941 9.32051 16.2179 9.36624 16.1417 9.38149C16.0379 9.41694 15.9403 9.46832 15.8523 9.53385C15.9614 9.49441 16.0736 9.46384 16.1876 9.44242C16.2789 9.44242 16.3566 9.41992 16.4465 9.44242Z" fill="#808080"/>
<path d="M2.4502 24.6482H3.59555V20.5991L4.85383 22.7124H5.66041L6.91869 20.5991V24.6482H8.06404V19.0021H6.63638L5.25712 21.3735L3.87785 19.0021H2.4502V24.6482ZM9.76082 24.6482H10.9062V19.0021H9.76082V24.6482ZM12.6053 24.6482H13.7507V20.5669L16.2753 24.6482H17.7433V19.0021H16.5979V23.0834L14.0733 19.0021H12.6053V24.6482ZM19.4433 24.6482H20.5887V19.0021H19.4433V24.6482ZM21.7797 23.8658C22.2798 24.4627 22.917 24.8095 23.8688 24.8095C24.9093 24.8095 25.732 24.1723 25.7481 23.1076C25.7481 21.1718 23.1832 21.4622 23.1832 20.4378C23.1832 20.0991 23.4493 19.841 23.8526 19.841C24.2801 19.841 24.6511 20.1233 24.9818 20.5508L25.8207 19.7926C25.3367 19.2199 24.6915 18.8408 23.8446 18.8408C22.7637 18.8408 22.0217 19.5828 22.0217 20.4782C22.0217 22.3898 24.5866 22.1075 24.5866 23.148C24.5866 23.5513 24.3124 23.7932 23.8607 23.7932C23.4009 23.7932 22.9492 23.5351 22.6105 23.0996L21.7797 23.8658ZM26.4499 20.0426H28.1921V24.6482H29.3375V20.0426H31.0797V19.0021H26.4499V20.0426ZM33.3439 18.5182H34.3925L33.4811 17.4293H32.3034L33.3439 18.5182ZM32.2066 24.6482H35.4977V23.6964H33.352V22.2446H35.175V21.2928H33.352V19.9539H35.4977V19.0021H32.2066V24.6482ZM36.9495 24.6482H38.0949V22.3656H38.6837L40.192 24.6482H41.539L39.7726 22.1478C40.3533 21.8816 40.684 21.3735 40.684 20.6879C40.684 19.6393 39.9178 19.0021 38.6756 19.0021H36.9495V24.6482ZM38.7402 19.9539C39.2241 19.9539 39.5064 20.2442 39.5064 20.6717C39.5064 21.1315 39.2241 21.4138 38.7402 21.4138H38.0949V19.9539H38.7402ZM42.3855 24.6482H45.6764V23.6964H43.5309V22.2446H45.3538V21.2928H43.5309V19.9539H45.6764V19.0021H42.3855V24.6482ZM2.4502 33.1174H4.66831C6.45893 33.1174 7.66881 31.8188 7.66881 30.2943C7.66881 28.7699 6.45893 27.4713 4.66831 27.4713H2.4502V33.1174ZM4.68444 28.5118C5.73301 28.5118 6.4912 29.2861 6.4912 30.2943C6.4912 31.2945 5.73301 32.0769 4.68444 32.0769H3.59555V28.5118H4.68444ZM8.89438 33.1174H12.1853V32.1656H10.0397V30.7138H11.8626V29.762H10.0397V28.423H12.1853V27.4713H8.89438V33.1174ZM13.129 32.335C13.6291 32.9319 14.2663 33.2787 15.2181 33.2787C16.2586 33.2787 17.0813 32.6415 17.0975 31.5768C17.0975 29.641 14.5325 29.9314 14.5325 28.907C14.5325 28.5682 14.7987 28.3101 15.202 28.3101C15.6295 28.3101 16.0005 28.5924 16.3312 29.0199L17.17 28.2617C16.6861 27.689 16.0408 27.31 15.1939 27.31C14.1131 27.31 13.371 28.052 13.371 28.9473C13.371 30.8589 15.936 30.5766 15.936 31.6171C15.936 32.0204 15.6617 32.2624 15.21 32.2624C14.7503 32.2624 14.2986 32.0043 13.9598 31.5687L13.129 32.335ZM19.9239 33.1174H21.1418L21.6823 31.6494H23.9407L24.4811 33.1174H25.6991L23.5616 27.4713H22.0614L19.9239 33.1174ZM22.0372 30.6734L22.8115 28.5521L23.5858 30.6734H22.0372ZM26.6919 33.1174H27.8373V30.8347H28.4261L29.9344 33.1174H31.2814L29.515 30.617C30.0957 30.3508 30.4264 29.8426 30.4264 29.157C30.4264 28.1085 29.6602 27.4713 28.418 27.4713H26.6919V33.1174ZM28.4826 28.423C28.9665 28.423 29.2488 28.7134 29.2488 29.1409C29.2488 29.6007 28.9665 29.883 28.4826 29.883H27.8373V28.423H28.4826ZM32.1279 33.1174H33.2732V29.0683L34.5315 31.1816H35.338L36.5963 29.0683V33.1174H37.7416V27.4713H36.3139L34.9347 29.8426L33.5555 27.4713H32.1279V33.1174ZM41.5923 26.9873L42.6408 25.8984H41.4632L40.5518 26.9873H41.5923ZM39.4387 33.1174H42.7295V32.1656H40.584V30.7138H42.4069V29.762H40.584V28.423H42.7295V27.4713H39.4387V33.1174ZM44.1814 33.1174H47.4723V32.1656H45.3268V30.7138H47.1496V29.762H45.3268V28.423H47.4723V27.4713H44.1814V33.1174ZM48.416 32.335C48.9161 32.9319 49.5533 33.2787 50.505 33.2787C51.5455 33.2787 52.3683 32.6415 52.3844 31.5768C52.3844 29.641 49.8194 29.9314 49.8194 28.907C49.8194 28.5682 50.0856 28.3101 50.4889 28.3101C50.9164 28.3101 51.2874 28.5924 51.6181 29.0199L52.457 28.2617C51.973 27.689 51.3278 27.31 50.4808 27.31C49.4 27.31 48.658 28.052 48.658 28.9473C48.658 30.8589 51.2229 30.5766 51.2229 31.6171C51.2229 32.0204 50.9487 32.2624 50.497 32.2624C50.0372 32.2624 49.5855 32.0043 49.2468 31.5687L48.416 32.335Z" fill="#1E1E1E"/>
<path fill-rule="evenodd" clip-rule="evenodd" d="M23.3814 47.5149L22.6313 48.2005H22.4377L22.8813 47.4181H23.3814V47.5149ZM22.841 50.1686H22.6797C22.478 50.4106 22.2522 50.6041 22.0344 50.6041C21.8086 50.6041 21.6956 50.467 21.6956 50.1686C21.6956 50.0476 21.7118 49.9185 21.736 49.8056L23.0507 49.3701C23.3088 48.7571 23.0023 48.4909 22.6393 48.4909C22.0183 48.4909 21.3085 49.5798 21.3085 50.4509C21.3085 50.8622 21.5021 51.0881 21.8086 51.0881C22.1635 51.08 22.5345 50.7332 22.841 50.1686ZM22.3893 48.8458C22.5668 48.8458 22.72 48.9829 22.6393 49.2975L21.8247 49.5152C21.9537 49.1281 22.1957 48.8458 22.3893 48.8458ZM19.8244 48.8619H20.2599L19.5662 50.7655C19.5017 50.9268 19.5904 51.0881 19.7598 51.0881C20.2518 51.0881 20.8407 50.6687 21.0665 50.0718H20.9455C20.7681 50.3218 20.3809 50.5961 20.0905 50.6445L20.7277 48.8619H21.3811L21.4617 48.5877H20.8245L21.0665 47.9021H20.8165L20.3648 48.5877L19.8244 48.6603V48.8619ZM19.2194 48.4989C19.3081 48.4989 19.4291 48.5957 19.3727 48.7732L18.5903 50.6687C18.7919 50.6364 19.0016 50.4428 19.1226 50.2654H19.2517C19.0662 50.7413 18.6467 51.0881 18.2838 51.0881C18.195 51.0881 18.066 50.9913 18.1305 50.8139L18.8565 48.9184C18.6548 48.9506 18.4451 49.1442 18.3241 49.3217H18.2031C18.3886 48.8377 18.8403 48.4989 19.2194 48.4989ZM19.4453 48.015C19.6066 48.015 19.7437 47.8859 19.7437 47.7166C19.7437 47.5552 19.6066 47.4181 19.4453 47.4181C19.2759 47.4181 19.1468 47.5552 19.1468 47.7166C19.1468 47.8779 19.2839 48.015 19.4453 48.015ZM15.9205 49.5878C16.0979 49.2007 16.0334 49.0232 15.9205 49.0232C15.8237 49.0232 15.7108 49.1281 15.5978 49.3217H15.4769C15.6624 48.9103 15.9043 48.4989 16.1705 48.4989C16.3964 48.4989 16.477 48.7248 16.477 48.9748V49.3297C16.5137 49.287 16.5494 49.245 16.5843 49.2043C16.925 48.8042 17.1852 48.4989 17.4853 48.4989C17.7192 48.4989 17.8402 48.6441 17.8402 48.8619C17.8402 48.991 17.7998 49.1523 17.7111 49.3217L17.0416 50.6687C17.2433 50.6364 17.453 50.4428 17.574 50.2654H17.695C17.5094 50.7493 17.0578 51.0881 16.6787 51.0881C16.5093 51.0881 16.4125 50.9106 16.4851 50.7655L17.2594 49.2733C17.3481 49.1039 17.3643 48.991 17.2271 48.991C17.0416 48.991 16.6061 49.2975 16.3722 49.5798L15.864 50.9187C15.8076 51.0558 15.7511 51.0881 15.622 51.0881C15.4123 51.0881 15.3075 50.951 15.4043 50.7332L15.9205 49.5878ZM15.3962 49.0716C15.4849 48.7651 15.4365 48.4909 15.2026 48.4909C14.9109 48.4909 14.8196 48.6837 14.5369 49.2797L14.517 49.3217V48.9668C14.517 48.7167 14.4364 48.4909 14.2105 48.4909C13.9443 48.4909 13.7024 48.9022 13.5168 49.3136H13.6378C13.7669 49.1281 13.8879 49.0152 13.9847 49.0152C14.0976 49.0152 14.1621 49.1926 13.9847 49.5798L13.4684 50.7251C13.3717 50.9429 13.4765 51.08 13.6862 51.08C13.8153 51.08 13.8717 51.0478 13.9282 50.9106L14.4364 49.5717C14.5815 49.3943 14.7106 49.241 14.8719 49.0716H15.3962ZM12.8474 49.2975C12.928 48.9829 12.7748 48.8458 12.5973 48.8458C12.4038 48.8458 12.1618 49.1281 12.0327 49.5152L12.8474 49.2975ZM13.049 50.1686H12.8877C12.6861 50.4106 12.4602 50.6041 12.2424 50.6041C12.0166 50.6041 11.9037 50.467 11.9037 50.1686C11.9037 50.0476 11.9198 49.9185 11.944 49.8056L13.2587 49.3701C13.5168 48.7571 13.2103 48.4909 12.8474 48.4909C12.2263 48.4909 11.5165 49.5798 11.5165 50.4509C11.5165 50.8622 11.7101 51.0881 12.0166 51.0881C12.3715 51.08 12.7425 50.7332 13.049 50.1686ZM10.4679 48.8619H10.0324V48.6603L10.5728 48.5877L11.0245 47.9021H11.2745L11.0326 48.5877H11.6698L11.5891 48.8619H10.9358L10.2986 50.6445C10.5889 50.5961 10.9761 50.3218 11.1535 50.0718H11.2745C11.0487 50.6687 10.4599 51.0881 9.96786 51.0881C9.79848 51.0881 9.70975 50.9268 9.77428 50.7655L10.4679 48.8619ZM7.72555 50.338C7.72555 49.7492 8.37888 48.9587 8.74185 48.9587C8.82251 48.9587 8.90316 48.9668 8.96769 48.991L8.58859 50.0073C8.37082 50.2734 8.03205 50.5961 7.87073 50.5961C7.78201 50.5961 7.72555 50.5154 7.72555 50.338ZM9.52424 48.3699L9.72588 48.386L9.02415 49.9992C8.85477 50.3864 8.92736 50.5638 9.02415 50.5638C9.12094 50.5638 9.24193 50.4509 9.37099 50.2654H9.49197C9.30646 50.6767 9.06448 51.0881 8.79831 51.0881C8.57246 51.0881 8.43534 50.8461 8.47567 50.4106L8.49181 50.2573L8.44789 50.3186C8.15897 50.7227 7.89751 51.0881 7.62876 51.0881C7.39485 51.0881 7.27386 50.9429 7.27386 50.7251C7.27386 49.7895 8.29822 48.5957 9.25806 48.5957H9.29839L9.52424 48.3699ZM7.67715 49.0716C7.76588 48.7651 7.71748 48.4909 7.48357 48.4909C7.19187 48.4909 7.10052 48.6837 6.81781 49.2797L6.79797 49.3217V48.9668C6.79797 48.7167 6.71731 48.4909 6.49147 48.4909C6.2253 48.4909 5.98332 48.9022 5.7978 49.3136H5.91879C6.04785 49.1281 6.16883 49.0152 6.25756 49.0152C6.37048 49.0152 6.43501 49.1926 6.25756 49.5798L5.74134 50.7332C5.64455 50.951 5.74941 51.0881 5.95912 51.0881C6.08818 51.0881 6.14464 51.0558 6.2011 50.9187L6.70925 49.5798C6.85443 49.4023 6.98349 49.2491 7.1448 49.0797H7.67715V49.0716ZM4.35401 50.8461L4.30562 50.9913H2.42627L2.47467 50.8381C3.05541 50.7332 3.1522 50.6848 3.39417 50.0315L3.91846 48.628C4.15237 47.9747 4.10397 47.9263 3.59582 47.8214L3.64422 47.6762H6.08818L5.94299 48.4586H5.76554C5.76554 47.9908 5.71714 47.8698 5.27352 47.8698H5.1606C4.72504 47.8698 4.66858 47.9343 4.54759 48.2731L4.20076 49.2168H4.70891C5.04768 49.2168 5.17673 49.0071 5.32998 48.7329H5.50743L5.08801 49.8782H4.91056C4.95089 49.5314 4.95089 49.3943 4.63632 49.3943H4.12817L3.89426 50.0395C3.64139 50.711 3.71366 50.7247 4.31574 50.8389C4.32828 50.8413 4.34103 50.8437 4.35401 50.8461Z" fill="black"/>
<path fill-rule="evenodd" clip-rule="evenodd" d="M5.95106 41.3446L5.20093 41.885V41.893H5.00735L5.45097 41.2478H5.95106V41.3446ZM11.1939 45.1275L12.3957 41.9334L12.3554 41.885L11.5246 41.9818V42.0786L11.6859 42.1995C11.8236 42.3068 11.7872 42.4064 11.6729 42.7194L11.6536 42.7722L10.7341 45.2242C10.6615 45.3694 10.7583 45.5469 10.9277 45.5469C11.3068 45.5469 11.7101 45.2 11.8956 44.7242H11.7746C11.6456 44.9016 11.3875 45.0952 11.1939 45.1275ZM16.7029 42.6674L17.453 41.9818V41.885H16.9529L16.5093 42.6674H16.7029ZM16.7513 44.6274H16.9126C16.6141 45.2 16.2431 45.5469 15.8882 45.5469C15.5817 45.5469 15.3881 45.321 15.3881 44.9097C15.3881 44.0386 16.0979 42.9497 16.719 42.9497C17.0739 42.9497 17.3885 43.2158 17.1304 43.8288L15.8075 44.2644C15.7834 44.3773 15.7672 44.5064 15.7672 44.6274C15.7672 44.9258 15.8801 45.0629 16.106 45.0629C16.3238 45.0629 16.5496 44.8693 16.7513 44.6274ZM16.7109 43.7563C16.7916 43.4498 16.6383 43.3126 16.4609 43.3126C16.2754 43.3126 16.0334 43.5949 15.8963 43.974L16.7109 43.7563ZM14.3396 43.3288H13.904V43.1271L14.4444 43.0545L14.8961 42.3689H15.1461L14.9042 43.0545H15.5414L15.4607 43.3288H14.8074L14.1702 45.1113C14.4605 45.0629 14.8477 44.7887 15.0252 44.5386H15.1461C14.9203 45.1355 14.3315 45.5549 13.8395 45.5549C13.6701 45.5549 13.5814 45.3936 13.6459 45.2323L14.3396 43.3288ZM13.4523 43.232C13.5007 43.0545 13.3878 42.9577 13.291 42.9577C12.9119 42.9577 12.4602 43.3046 12.2747 43.7805H12.3957C12.5167 43.603 12.7264 43.4094 12.928 43.3772L12.2021 45.2726C12.1376 45.4501 12.2666 45.5469 12.3554 45.5469C12.7183 45.5469 13.1377 45.2 13.3233 44.7242H13.2023C13.0813 44.9016 12.8716 45.0952 12.6699 45.1275L13.4523 43.232ZM13.8233 42.1834C13.8233 42.3447 13.6862 42.4818 13.5249 42.4818C13.3636 42.4818 13.2265 42.3447 13.2265 42.1834C13.2265 42.0221 13.3555 41.885 13.5249 41.885C13.6862 41.885 13.8233 42.0221 13.8233 42.1834ZM9.75008 43.4256C9.38712 43.4256 8.73378 44.216 8.73378 44.8048C8.73378 44.9823 8.79024 45.0629 8.88703 45.0629C9.04028 45.0629 9.37905 44.7403 9.59683 44.4741L9.97593 43.4578C9.90333 43.4336 9.83074 43.4256 9.75008 43.4256ZM10.7341 42.8529L10.5325 42.8367L10.3066 43.0626H10.2663C9.30646 43.0626 8.28209 44.2563 8.28209 45.192C8.28209 45.4098 8.40308 45.5549 8.63699 45.5549C8.90575 45.5549 9.1672 45.1896 9.45612 44.7855L9.50004 44.7242L9.48391 44.8774C9.44358 45.313 9.5807 45.5549 9.80654 45.5549C10.0727 45.5549 10.3147 45.1436 10.5002 44.7322H10.3792C10.2502 44.9177 10.1292 45.0307 10.0324 45.0307C9.9356 45.0307 9.863 44.8532 10.0324 44.4661L10.7341 42.8529ZM6.66892 45.4662C6.32209 45.6033 6.08011 45.7647 6.08011 46.0147C6.08011 46.2486 6.29789 46.3454 6.74958 46.3454C7.35452 46.3454 7.68522 46.168 7.68522 45.934C7.68522 45.8292 7.5481 45.7808 7.18513 45.6598C6.95122 45.5872 6.78184 45.5227 6.66892 45.4662ZM7.07221 44.4741C6.91089 44.4741 6.85443 44.337 6.85443 44.1918C6.85443 43.724 7.08028 43.1433 7.44324 43.1433C7.60456 43.1433 7.66102 43.2804 7.66102 43.4256C7.65295 43.9014 7.42711 44.4741 7.07221 44.4741ZM7.37871 45.2323C7.82234 45.3694 8.09658 45.4743 8.09658 45.7808C8.09658 46.176 7.37065 46.6438 6.49147 46.6358C5.98332 46.6358 5.54776 46.4987 5.54776 46.168C5.54776 45.8534 5.83813 45.5953 6.54793 45.3856C6.45114 45.321 6.41081 45.2404 6.41081 45.1275C6.41081 44.9339 6.58826 44.7806 6.89476 44.6354C6.59632 44.5951 6.40274 44.3693 6.40274 44.0386C6.40274 43.5304 6.82217 42.9497 7.48357 42.9497C7.62069 42.9497 7.74168 42.9819 7.83847 43.0465H8.5644L8.48374 43.3207H8.05625C8.08044 43.3933 8.09658 43.474 8.09658 43.5627C8.09658 44.0547 7.70135 44.6193 7.07221 44.6516C6.91089 44.7403 6.83024 44.8613 6.83024 44.9581C6.83024 45.0718 6.96219 45.1105 7.25377 45.1956C7.29253 45.2069 7.33423 45.219 7.37871 45.2323ZM4.82183 43.853C5.1364 43.853 5.14447 43.9902 5.09607 44.337H5.27352L5.69295 43.1916H5.5155C5.36225 43.4659 5.23319 43.6756 4.89443 43.6756H4.20076L4.53953 42.7319C4.66052 42.3931 4.71698 42.3286 5.15253 42.3286H5.45904C5.90266 42.3286 5.95106 42.4496 5.95106 42.9174H6.1285L6.27369 42.135H3.64422L3.59582 42.2802C4.10397 42.3851 4.15237 42.4335 3.91846 43.0868L3.39417 44.4983C3.1522 45.1517 3.05541 45.2 2.4666 45.3049L2.42627 45.4582H5.34611L5.8704 44.6274H5.66875C5.32998 44.9581 4.99122 45.2646 4.32981 45.2646C3.60231 45.2646 3.6153 45.2291 3.83356 44.6294C3.8476 44.5907 3.86252 44.5499 3.87813 44.5064L4.1201 43.8611H4.82183V43.853Z" fill="black"/>
<path fill-rule="evenodd" clip-rule="evenodd" d="M7.23353 36.9406C7.39485 36.9406 7.53197 36.8034 7.53197 36.6421C7.53197 36.4808 7.39485 36.3437 7.23353 36.3437C7.06415 36.3437 6.93509 36.4808 6.93509 36.6421C6.93509 36.8115 7.06415 36.9406 7.23353 36.9406ZM7.93526 40.0056C8.5644 40.0137 9.62103 38.8522 9.62103 37.9569C9.62103 37.5697 9.52424 37.4245 9.25 37.4245C8.91123 37.4245 8.59666 37.7875 8.28209 38.223L8.95963 36.4082L8.9193 36.3518L8.08851 36.4485V36.5453L8.24983 36.6663C8.39029 36.7756 8.34956 36.8848 8.22991 37.2059L8.21757 37.239L7.48357 39.1587C7.41904 39.32 7.34645 39.5136 7.34645 39.562C7.34645 39.7878 7.65295 40.0056 7.93526 40.0056ZM16.6141 37.1341L17.3643 36.4485V36.3518H16.8642L16.4206 37.1341H16.6141ZM16.6625 39.0942H16.8238C16.5173 39.6668 16.1463 40.0137 15.7914 40.0056C15.4849 40.0056 15.2913 39.7878 15.2913 39.3765C15.2913 38.5053 16.0011 37.4165 16.6222 37.4165C16.9771 37.4165 17.2917 37.6826 17.0336 38.2956L15.7188 38.7312C15.6946 38.8441 15.6785 38.9732 15.6785 39.0942C15.6785 39.3926 15.7914 39.5297 16.0173 39.5297C16.235 39.5297 16.4609 39.3361 16.6625 39.0942ZM16.6222 38.223C16.7029 37.9165 16.5496 37.7794 16.3722 37.7794C16.1786 37.7794 15.9366 38.0617 15.8075 38.4408L16.6222 38.223ZM14.2428 37.7955H13.8072V37.5939L14.3476 37.5213L14.7993 36.8357H15.0494L14.8074 37.5213H15.4446L15.3639 37.7955H14.7106L14.0734 39.5781C14.3638 39.5297 14.7509 39.2555 14.9284 39.0054H15.0494C14.8235 39.6023 14.2347 40.0217 13.7427 40.0217C13.5733 40.0217 13.4846 39.8604 13.5491 39.6991L14.2428 37.7955ZM13.5814 38.0053C13.6701 37.6988 13.6217 37.4245 13.3878 37.4245C13.0961 37.4245 13.0047 37.6172 12.722 38.2134L12.7022 38.2553V37.9004C12.7022 37.6504 12.6215 37.4245 12.3957 37.4245C12.1295 37.4245 11.8875 37.8359 11.702 38.2472H11.823C11.9521 38.0617 12.0731 37.9488 12.1618 37.9488C12.2747 37.9488 12.3392 38.1262 12.1618 38.5134L11.6456 39.6588C11.5488 39.8765 11.6536 40.0137 11.8633 40.0137C11.9924 40.0137 12.0489 39.9814 12.1053 39.8443L12.6135 38.5053C12.7586 38.3279 12.8877 38.1746 13.049 38.0053H13.5814ZM11.0245 38.223C11.1051 37.9165 10.9519 37.7794 10.7744 37.7794C10.5809 37.7794 10.347 38.0617 10.2098 38.4408L11.0245 38.223ZM11.2261 39.0942H11.0648C10.8632 39.3361 10.6373 39.5297 10.4195 39.5297C10.1937 39.5297 10.0808 39.3926 10.0808 39.0942C10.0808 38.9732 10.0969 38.8441 10.1211 38.7312L11.4358 38.2956C11.694 37.6826 11.3875 37.4165 11.0245 37.4165C10.4034 37.4165 9.69362 38.5053 9.69362 39.3765C9.69362 39.7878 9.8872 40.0056 10.1937 40.0056C10.5486 40.0137 10.9196 39.6668 11.2261 39.0942ZM7.83847 39.4007C7.83847 39.5055 8.02398 39.6265 8.15304 39.6265C8.67732 39.6265 9.16934 38.6828 9.16127 38.1585C9.16127 37.9811 9.07255 37.9085 8.95156 37.9085C8.75798 37.9085 8.40308 38.1988 8.17723 38.4731L7.96752 39.0377C7.89493 39.2232 7.83847 39.3684 7.83847 39.4007ZM6.99155 37.4245C7.08834 37.4245 7.20126 37.5213 7.15287 37.6988L6.37855 39.5942C6.58019 39.562 6.78991 39.3684 6.91089 39.1909H7.03188C6.84637 39.6668 6.42694 40.0137 6.06398 40.0137C5.96719 40.0137 5.83813 39.9169 5.90266 39.7394L6.62859 37.8439C6.42694 37.8762 6.21723 38.0698 6.09624 38.2472H5.97525C6.16077 37.7713 6.61246 37.4245 6.99155 37.4245ZM3.64422 36.5857H5.37838L5.32998 36.7389C4.74117 36.8438 4.64438 36.8922 4.40241 37.5455L3.88619 38.9651C3.63615 39.6426 3.70068 39.7233 4.1443 39.7233C4.69238 39.7233 5.05179 39.3248 5.36559 38.9772C5.3889 38.9514 5.41197 38.9256 5.43484 38.9006H5.63649L5.06381 39.9169H2.42627L2.47467 39.7717C3.05541 39.6668 3.1522 39.6184 3.39417 38.9651L3.91846 37.5374C4.15237 36.8841 4.10397 36.8357 3.59582 36.7309L3.64422 36.5857Z" fill="black"/>
</svg>
