<svg width="116" height="24" viewBox="0 0 116 24" fill="none" xmlns="http://www.w3.org/2000/svg">
<path d="M24.6669 10.9032V11.0819C24.6669 11.2249 24.643 11.4156 24.5954 11.6547C24.5469 11.893 24.4222 12.1305 24.2204 12.3688C24.0171 12.6079 23.7137 12.8128 23.3077 12.986C22.9026 13.1584 22.3426 13.2449 21.6277 13.2449C20.9136 13.2449 20.3536 13.1584 19.9477 12.986C19.5426 12.8128 19.2383 12.6079 19.0366 12.3688C18.834 12.1305 18.7085 11.8898 18.6608 11.6451C18.6132 11.4013 18.5894 11.2138 18.5894 11.0819V10.6355V2.62776V2.16307C18.5894 2.03201 18.6132 1.84454 18.6608 1.59988C18.7085 1.35602 18.834 1.11454 19.0366 0.87624C19.2383 0.637938 19.5426 0.432202 19.9477 0.25983C20.3536 0.0866642 20.9136 8.10623e-05 21.6277 8.10623e-05C22.3426 8.10623e-05 22.9026 0.0866642 23.3077 0.25983C23.7137 0.432202 24.0171 0.637938 24.2204 0.87624C24.4222 1.11454 24.5469 1.35602 24.5954 1.59988C24.643 1.84454 24.6669 2.03201 24.6669 2.16307V2.62776H23.1473V2.43077C23.1473 2.32432 23.129 2.20756 23.0941 2.08284C23.0583 1.95734 22.9837 1.84136 22.8701 1.73413C22.7573 1.62689 22.5992 1.53475 22.3966 1.4569C22.1941 1.37985 21.9208 1.34093 21.5745 1.34093C21.2528 1.34093 20.9938 1.37985 20.7968 1.4569C20.6006 1.53475 20.4481 1.63325 20.3409 1.7516C20.2344 1.87076 20.1653 1.99308 20.1359 2.11859C20.1058 2.2433 20.0915 2.36007 20.0915 2.46651V2.62776V10.6355V10.796C20.0915 10.9032 20.1058 11.0192 20.1359 11.1447C20.1653 11.2702 20.2344 11.3894 20.3409 11.5021C20.4481 11.6157 20.6006 11.7111 20.7968 11.7881C20.9938 11.8652 21.2528 11.9049 21.5745 11.9049C21.9208 11.9049 22.1941 11.8652 22.3966 11.7881C22.5992 11.7111 22.7573 11.6181 22.8701 11.5109C22.9837 11.4037 23.0583 11.2877 23.0941 11.163C23.129 11.0375 23.1473 10.927 23.1473 10.8317V10.6355V9.72362V8.1683C23.1473 7.96653 23.1354 7.8029 23.1115 7.67739C23.0877 7.55189 23.0258 7.4661 22.9241 7.41844C22.8224 7.37078 22.6707 7.36442 22.4681 7.40017C22.2656 7.43591 21.986 7.51296 21.6277 7.63291V6.13081C21.7826 6.07203 21.9351 6.01801 22.0845 5.97035C22.2322 5.92269 22.3728 5.87503 22.5039 5.82658C22.7898 5.73205 23.0996 5.72014 23.4333 5.79163C23.7677 5.86312 24.0409 6.01245 24.2554 6.23805C24.3626 6.34528 24.4437 6.45331 24.4969 6.55975C24.5509 6.66699 24.5914 6.78376 24.6224 6.90847C24.6518 7.03398 24.6669 7.18014 24.6669 7.34695V7.91887V9.02619V10.9032Z" fill="#184B92"/>
<path d="M31.0122 6.25617V6.09492C31.0122 5.98769 30.9972 5.87171 30.967 5.747C30.9376 5.6215 30.8693 5.50234 30.762 5.38875C30.6548 5.27596 30.5031 5.18143 30.3061 5.10279C30.1091 5.02574 29.8509 4.98682 29.5284 4.98682C29.1948 4.98682 28.9239 5.02574 28.715 5.10279C28.5061 5.18143 28.3456 5.27278 28.2328 5.38081C28.12 5.48725 28.0446 5.60323 28.0088 5.72873C27.9739 5.85424 27.9556 5.96465 27.9556 6.05997V6.25617V6.27365V6.41663V7.91873C27.9794 7.81149 28.0335 7.72491 28.1169 7.65898C28.1995 7.59384 28.2956 7.54301 28.4028 7.50726C28.5101 7.47152 28.6165 7.44769 28.7237 7.43577C28.831 7.42386 28.9152 7.4183 28.9748 7.4183H29.9931C30.2672 7.4183 30.5055 7.3198 30.7088 7.1228C30.9106 6.9266 31.0122 6.69147 31.0122 6.41663V6.27365V6.25617ZM29.4927 3.64676C30.2076 3.64676 30.7676 3.73334 31.1727 3.90572C31.5778 4.07809 31.882 4.28462 32.0846 4.52213C32.2872 4.76122 32.4127 5.00191 32.4603 5.24657C32.5072 5.49043 32.5318 5.67869 32.5318 5.80896V6.25617V6.27365V6.66764C32.5318 6.8702 32.4929 7.09579 32.4151 7.34681C32.3372 7.59623 32.1561 7.86472 31.8701 8.15068C31.7383 8.29366 31.5905 8.4009 31.4237 8.47239C31.2569 8.54388 31.1076 8.59789 30.9765 8.63284C30.8216 8.6805 30.6604 8.70513 30.4943 8.70513H29.136C28.8246 8.70513 28.5514 8.81872 28.3131 9.04431C28.0748 9.2707 27.9556 9.5511 27.9556 9.88473V10.6886C27.9556 10.9746 28.0088 11.2017 28.1169 11.3686C28.1645 11.452 28.2178 11.5235 28.2773 11.5822C28.3369 11.6426 28.4267 11.6958 28.5458 11.7435C28.6411 11.7911 28.7627 11.8332 28.912 11.8682C29.0605 11.9047 29.2544 11.923 29.4927 11.923C29.8033 11.923 30.0471 11.8896 30.2251 11.8237C30.4038 11.7586 30.5301 11.7022 30.6008 11.6545C30.7557 11.5346 30.8637 11.3924 30.9225 11.2248C30.9829 11.0588 31.0122 10.88 31.0122 10.6886H32.5318V11.1175C32.5318 11.4393 32.4627 11.7371 32.3261 12.0112C32.1887 12.286 31.9774 12.5235 31.6914 12.7261C31.4889 12.8699 31.2084 12.9946 30.8518 13.1018C30.4943 13.209 30.0408 13.2631 29.4927 13.2631C29.0876 13.2631 28.7357 13.2297 28.4378 13.1646C28.1399 13.0994 27.881 13.0152 27.6601 12.9143C27.4401 12.8127 27.2582 12.6967 27.1152 12.5656C26.973 12.4354 26.8531 12.3035 26.7585 12.1724C26.5433 11.8626 26.4424 11.5052 26.4543 11.1001V10.6886V9.88473V6.27365V6.25617V5.80896C26.4543 5.66598 26.4781 5.47534 26.5258 5.23783C26.5735 4.99953 26.6982 4.76122 26.9015 4.52213C27.1033 4.28462 27.4075 4.07809 27.8126 3.90572C28.2178 3.73334 28.7778 3.64676 29.4927 3.64676Z" fill="#184B92"/>
<path d="M40.0562 13.1199H38.5366V6.25603V6.09557C38.5366 5.98754 38.5215 5.87157 38.4921 5.74686C38.4619 5.62135 38.3936 5.50299 38.2864 5.3894C38.1791 5.2766 38.0274 5.18128 37.8304 5.10344C37.635 5.02559 37.3753 4.98667 37.0536 4.98667C36.7199 4.98667 36.4483 5.02559 36.2394 5.10344C36.0312 5.18128 35.8708 5.27343 35.7572 5.38066C35.6444 5.4879 35.5697 5.60387 35.534 5.72938C35.4982 5.85409 35.4808 5.96451 35.4808 6.05983V6.25603V13.1199H33.9612V6.13132V5.80881C33.9612 5.66583 33.985 5.47598 34.0327 5.23768C34.0803 4.99938 34.2082 4.76108 34.4171 4.52198C34.6253 4.28447 34.9319 4.07794 35.3378 3.90557C35.7429 3.7332 36.3029 3.64662 37.017 3.64662C37.7319 3.64662 38.2919 3.7332 38.697 3.90557C39.103 4.07794 39.4064 4.28447 39.6097 4.52198C39.8107 4.76108 39.937 5.00176 39.9847 5.24642C40.0323 5.49108 40.0562 5.67854 40.0562 5.80881V5.98754V13.1199Z" fill="#184B92"/>
<path d="M44.8457 11.9404C45.1436 11.9404 45.3907 11.907 45.5876 11.8419C45.7846 11.7767 45.9395 11.6902 46.0515 11.5821C46.1651 11.4757 46.2462 11.3565 46.2938 11.2247C46.3415 11.0944 46.3653 10.9697 46.3653 10.8497V7.06073V6.97176V4.75555C46.3415 4.88662 46.2851 4.98114 46.1953 5.04072C46.1064 5.1003 46.0134 5.1416 45.9189 5.16623C45.7394 5.2258 45.5463 5.29094 45.3374 5.36243C45.1285 5.43392 44.9355 5.49985 44.756 5.55943C44.5423 5.63092 44.3397 5.70161 44.1499 5.7739C44.0061 5.83347 43.8695 5.92244 43.7376 6.04159C43.6304 6.13691 43.5319 6.25924 43.4429 6.40778C43.354 6.55791 43.3087 6.74458 43.3087 6.97176V7.06073V10.7608C43.3206 10.9157 43.354 11.0642 43.4072 11.2072C43.4604 11.3502 43.5446 11.4757 43.6574 11.5821C43.7702 11.6902 43.9259 11.7767 44.1221 11.8419C44.3191 11.907 44.5606 11.9404 44.8457 11.9404ZM47.8841 11.1174C47.8722 11.737 47.622 12.2525 47.1342 12.664C46.6449 13.0747 45.8823 13.2812 44.8457 13.2812C44.3096 13.2812 43.8472 13.224 43.4604 13.1112C43.0736 12.9976 42.755 12.8427 42.5048 12.6465C42.2546 12.4495 42.0727 12.22 41.9591 11.9586C41.8455 11.6957 41.7899 11.4153 41.7899 11.1174L41.7899 10.6893C41.7903 9.42538 41.7895 8.14243 41.7899 7.06073V6.64926C41.7899 6.19649 41.9059 5.78581 42.1386 5.41565C42.3706 5.04708 42.7074 4.78494 43.1482 4.62925C43.3627 4.55855 43.6066 4.47515 43.8806 4.37983C44.1547 4.28451 44.4168 4.19157 44.6678 4.1026C44.9172 4.01284 45.1373 3.93261 45.3287 3.86033C45.5185 3.78963 45.6385 3.74753 45.6861 3.73641C45.7338 3.71258 45.7958 3.67922 45.8736 3.63791C45.9515 3.59581 46.0261 3.53385 46.0976 3.44965C46.1683 3.36704 46.2319 3.27093 46.2851 3.16369C46.3391 3.05646 46.3653 2.93174 46.3653 2.78876V2.44878V0.161079H47.8841V11.1174Z" fill="#184B92"/>
<path d="M54.2123 8.38275C54.1885 8.5019 54.1281 8.59166 54.0336 8.65124C53.9383 8.71081 53.8485 8.75291 53.7651 8.77595C53.5864 8.83632 53.3933 8.90463 53.1844 8.98168C52.9755 9.05953 52.7817 9.12784 52.603 9.18742C52.3885 9.25891 52.1859 9.3304 51.9953 9.40189C51.8531 9.46147 51.7157 9.54487 51.5846 9.65211C51.4774 9.74743 51.3781 9.86976 51.2899 10.0183C51.2002 10.1676 51.1549 10.3559 51.1549 10.5815C51.1549 11.0343 51.2629 11.3703 51.4774 11.5911C51.6919 11.8119 52.0906 11.9223 52.6745 11.9223C53.2702 11.9223 53.6761 11.8056 53.8898 11.5736C54.1043 11.3417 54.2123 11.0104 54.2123 10.5815V8.38275ZM52.6745 3.64688C53.723 3.64688 54.4919 3.85182 54.9804 4.26329C55.469 4.67397 55.7136 5.1895 55.7136 5.80908V6.66697V10.5815V11.1002C55.7136 11.3139 55.6747 11.5498 55.5968 11.8056C55.5206 12.0629 55.3673 12.2973 55.1409 12.5117C54.9153 12.7262 54.6055 12.9049 54.2123 13.0479C53.8191 13.1909 53.3068 13.2624 52.6745 13.2624C52.043 13.2624 51.5306 13.1909 51.1374 13.0479C50.7442 12.9049 50.4344 12.7262 50.2072 12.5117C49.9816 12.2973 49.8299 12.0629 49.7521 11.8056C49.675 11.5498 49.6361 11.3139 49.6361 11.1002V10.2598C49.6361 9.807 49.7521 9.39633 49.9848 9.02617C50.2168 8.65759 50.5472 8.39466 50.977 8.23977C51.1914 8.16828 51.4353 8.08567 51.7093 7.99034C51.9834 7.89423 52.2487 7.80288 52.5053 7.71312C52.761 7.62336 52.9843 7.54313 53.1749 7.47164C53.3655 7.40015 53.4847 7.35884 53.5331 7.34613C53.5808 7.3231 53.6428 7.28974 53.7198 7.24843C53.7969 7.20633 53.8723 7.14358 53.9438 7.06017C54.0153 6.97756 54.0781 6.88224 54.1313 6.77421C54.1853 6.66697 54.2123 6.54226 54.2123 6.39928V6.0593C54.2123 5.94094 54.1885 5.81782 54.1408 5.69311C54.0932 5.5676 54.0098 5.45163 53.8898 5.34439C53.7707 5.23716 53.6134 5.15137 53.4172 5.08544C53.2202 5.0203 52.9731 4.98694 52.6745 4.98694C52.0787 4.98694 51.6768 5.10927 51.4679 5.35392C51.2597 5.59779 51.1549 5.89249 51.1549 6.23803H49.6361V5.80908C49.6361 5.512 49.6925 5.2316 49.8061 4.96867C49.9189 4.70733 50.1008 4.47777 50.351 4.28077C50.602 4.08457 50.9166 3.92967 51.2987 3.81608C51.6799 3.70328 52.1383 3.64688 52.6745 3.64688Z" fill="#184B92"/>
<path d="M60.5034 3.66424C60.5034 3.66424 61.1434 3.66295 61.5043 3.68172L61.1651 4.98682C61.1651 4.98682 60.1376 4.95499 59.69 5.1306C59.493 5.21321 59.3413 5.31171 59.2341 5.4253C59.1276 5.53809 59.0585 5.65725 59.0284 5.78275C58.999 5.90746 58.9847 6.02423 58.9847 6.13067V6.29192V13.1201H57.4651V6.23791V5.82644C57.4651 5.69617 57.4889 5.50791 57.5366 5.26405C57.5834 5.02018 57.709 4.7787 57.9123 4.5404C58.1141 4.3021 58.4183 4.09636 58.8226 3.92399C59.2277 3.75082 59.7885 3.66424 60.5034 3.66424Z" fill="#184B92"/>
<path d="M73.2293 13.1199H71.7106V6.25603V6.09557C71.7106 5.98754 71.6955 5.87157 71.6653 5.74686C71.6351 5.62135 71.57 5.50299 71.4691 5.3894C71.3666 5.2766 71.2189 5.18128 71.0219 5.10344C70.8249 5.02559 70.5595 4.98667 70.2267 4.98667C69.8931 4.98667 69.6214 5.02559 69.4141 5.10344C69.2052 5.18128 69.0439 5.27343 68.9304 5.38066C68.8176 5.4879 68.7437 5.60387 68.7071 5.72938C68.6714 5.85409 68.6539 5.96451 68.6539 6.05983V6.25603V13.1199H67.1343V6.25603V6.09557C67.1343 5.98754 67.1193 5.87157 67.0899 5.74686C67.0605 5.62135 66.9945 5.50299 66.8929 5.3894C66.792 5.2766 66.6434 5.18128 66.4472 5.10344C66.2502 5.02559 65.9841 4.98667 65.6505 4.98667C65.3169 4.98667 65.0468 5.02559 64.8371 5.10344C64.629 5.18128 64.4685 5.27343 64.3549 5.38066C64.2414 5.4879 64.1675 5.60387 64.1317 5.72938C64.0968 5.85409 64.0785 5.96451 64.0785 6.05983V6.25603V13.1199H62.5764V6.13132V5.80881C62.5764 5.66583 62.601 5.47598 62.6479 5.23768C62.6956 4.99938 62.8211 4.76108 63.0228 4.52198C63.2262 4.28447 63.5296 4.07794 63.9347 3.90557C64.3399 3.7332 64.9007 3.64662 65.6156 3.64662C66.1867 3.64662 66.6546 3.70381 67.0184 3.8166C67.3814 3.9294 67.6769 4.07 67.9033 4.23602C68.1297 4.07 68.4244 3.9294 68.7882 3.8166C69.1512 3.70381 69.619 3.64662 70.1918 3.64662C70.9059 3.64662 71.4659 3.7332 71.8718 3.90557C72.2761 4.07794 72.5796 4.28447 72.7829 4.52198C72.9863 4.76108 73.111 5.00176 73.1586 5.24642C73.2055 5.49108 73.2293 5.67854 73.2293 5.80881V5.98754V13.1199Z" fill="#184B92"/>
<path d="M79.5565 6.25617V6.09492C79.5565 5.98769 79.5414 5.87171 79.512 5.747C79.4818 5.6215 79.4135 5.50234 79.3063 5.38875C79.1998 5.27596 79.0473 5.18143 78.8503 5.10279C78.6541 5.02574 78.3944 4.98682 78.0735 4.98682C77.7398 4.98682 77.4682 5.02574 77.2593 5.10279C77.0511 5.18143 76.8907 5.27278 76.7771 5.38081C76.6635 5.48725 76.5896 5.60323 76.5539 5.72873C76.5181 5.85424 76.4999 5.96465 76.4999 6.05997V6.25617V6.27365V6.41663V7.91873C76.5237 7.81149 76.5777 7.72491 76.6603 7.65898C76.7445 7.59384 76.839 7.54301 76.9471 7.50726C77.0543 7.47152 77.1615 7.44769 77.268 7.43577C77.376 7.42386 77.4586 7.4183 77.5198 7.4183H78.5381C78.8122 7.4183 79.0497 7.3198 79.253 7.1228C79.4548 6.9266 79.5565 6.69147 79.5565 6.41663V6.27365V6.25617ZM78.0369 3.64676C78.7526 3.64676 79.3126 3.73334 79.7177 3.90572C80.1221 4.07809 80.4263 4.28462 80.6288 4.52213C80.8314 4.76122 80.9569 5.00191 81.0038 5.24657C81.0514 5.49043 81.0761 5.67869 81.0761 5.80896V6.25617V6.27365V6.66764C81.0761 6.8702 81.0371 7.09579 80.9601 7.34681C80.8822 7.59623 80.7003 7.86472 80.4144 8.15068C80.2833 8.29366 80.1348 8.4009 79.9672 8.47239C79.8011 8.54388 79.6518 8.59789 79.5215 8.63284C79.3658 8.6805 79.2054 8.70513 79.0386 8.70513H77.6803C77.3697 8.70513 77.0956 8.81872 76.8581 9.04431C76.619 9.2707 76.4999 9.5511 76.4999 9.88473V10.6886C76.4999 10.9746 76.5539 11.2017 76.6603 11.3686C76.7088 11.452 76.762 11.5235 76.8216 11.5822C76.8811 11.6426 76.9709 11.6958 77.0901 11.7435C77.1854 11.7911 77.3077 11.8332 77.457 11.8682C77.6056 11.9047 77.7986 11.923 78.0369 11.923C78.3467 11.923 78.5914 11.8896 78.7701 11.8237C78.9488 11.7586 79.0743 11.7022 79.145 11.6545C79.2999 11.5346 79.4079 11.3924 79.4675 11.2248C79.5271 11.0588 79.5565 10.88 79.5565 10.6886H81.0761V11.1175C81.0761 11.4393 81.0078 11.7371 80.8711 12.0112C80.7329 12.286 80.5216 12.5235 80.2357 12.7261C80.0331 12.8699 79.7535 12.9946 79.3952 13.1018C79.0386 13.209 78.5858 13.2631 78.0369 13.2631C77.6326 13.2631 77.2799 13.2297 76.9828 13.1646C76.6849 13.0994 76.4252 13.0152 76.2052 12.9143C75.9843 12.8127 75.8032 12.6967 75.6602 12.5656C75.5173 12.4354 75.3981 12.3035 75.3028 12.1724C75.0883 11.8626 74.9866 11.5052 74.9994 11.1001V10.6886V9.88473V6.27365V6.25617V5.80896C74.9994 5.66598 75.0224 5.47534 75.07 5.23783C75.1177 4.99953 75.2432 4.76122 75.4458 4.52213C75.6483 4.28462 75.9526 4.07809 76.3577 3.90572C76.762 3.73334 77.3228 3.64676 78.0369 3.64676Z" fill="#184B92"/>
<path d="M85.5441 3.66424C85.7474 3.66424 85.923 3.66186 86.0715 3.65551C86.2209 3.64915 86.3782 3.65789 86.5458 3.68172L86.2058 4.98682C86.0628 4.98682 85.9436 4.99 85.8483 4.99556C85.7522 5.00191 85.6386 5.00509 85.5083 5.00509C85.1866 5.00509 84.9277 5.0464 84.7307 5.1306C84.5345 5.21321 84.382 5.31171 84.2755 5.4253C84.1675 5.53809 84.0992 5.65725 84.0698 5.78275C84.0396 5.90746 84.0245 6.02423 84.0245 6.13067V6.29192V13.1201H82.5057V6.23791V5.82644C82.5057 5.69617 82.5296 5.50791 82.5764 5.26405C82.6241 5.02018 82.7496 4.7787 82.953 4.5404C83.1555 4.3021 83.4589 4.09636 83.8641 3.92399C84.2692 3.75083 84.8292 3.66424 85.5441 3.66424Z" fill="#184B92"/>
<path d="M87.8317 3.78998H89.3338V13.1203H87.8317V3.78998ZM89.3338 1.98444H87.8317V0.179688H89.3338V1.98444Z" fill="#184B92"/>
<path d="M95.6608 6.25617V6.09492C95.6608 5.98769 95.6457 5.87171 95.6163 5.747C95.5869 5.6215 95.517 5.50234 95.4098 5.38875C95.3033 5.27596 95.1516 5.18143 94.9546 5.10279C94.7584 5.02574 94.4987 4.98682 94.177 4.98682C93.8433 4.98682 93.5725 5.02574 93.3636 5.10279C93.1547 5.18143 92.9942 5.27278 92.8814 5.38081C92.7678 5.48725 92.6931 5.60323 92.6574 5.72873C92.6216 5.85424 92.6042 5.96465 92.6042 6.05997V6.25617V6.27365V6.41663V7.91873C92.6288 7.81149 92.682 7.72491 92.7646 7.65898C92.8488 7.59384 92.9441 7.54301 93.0514 7.50726C93.1578 7.47152 93.2651 7.44769 93.3731 7.43577C93.4803 7.42386 93.5637 7.4183 93.6233 7.4183H94.6417C94.9165 7.4183 95.154 7.3198 95.3566 7.1228C95.5591 6.9266 95.6608 6.69147 95.6608 6.41663V6.27365V6.25617ZM94.1412 3.64676C94.8561 3.64676 95.4161 3.73334 95.822 3.90572C96.2264 4.07809 96.5306 4.28462 96.7332 4.52213C96.9357 4.76122 97.0604 5.00191 97.1081 5.24657C97.1557 5.49043 97.1796 5.67869 97.1796 5.80896V6.25617V6.27365V6.66764C97.1796 6.8702 97.1415 7.09579 97.0636 7.34681C96.9858 7.59623 96.8047 7.86472 96.5187 8.15068C96.3876 8.29366 96.2391 8.4009 96.0715 8.47239C95.9047 8.54388 95.7561 8.59789 95.6251 8.63284C95.4702 8.6805 95.3097 8.70513 95.1429 8.70513H93.7838C93.474 8.70513 93.1999 8.81872 92.9616 9.04431C92.7233 9.2707 92.6042 9.5511 92.6042 9.88473V10.6886C92.6042 10.9746 92.6574 11.2017 92.7646 11.3686C92.8131 11.452 92.8663 11.5235 92.9267 11.5822C92.9855 11.6426 93.0752 11.6958 93.1936 11.7435C93.2897 11.7911 93.4112 11.8332 93.5606 11.8682C93.7091 11.9047 93.9021 11.923 94.1412 11.923C94.451 11.923 94.6957 11.8896 94.8744 11.8237C95.0523 11.7586 95.1778 11.7022 95.2493 11.6545C95.4034 11.5346 95.5123 11.3924 95.571 11.2248C95.6306 11.0588 95.6608 10.88 95.6608 10.6886H97.1796V11.1175C97.1796 11.4393 97.1113 11.7371 96.9746 12.0112C96.8372 12.286 96.6259 12.5235 96.34 12.7261C96.1366 12.8699 95.857 12.9946 95.4995 13.1018C95.1429 13.209 94.6901 13.2631 94.1412 13.2631C93.7361 13.2631 93.3842 13.2297 93.0871 13.1646C92.7893 13.0994 92.5295 13.0152 92.3095 12.9143C92.0886 12.8127 91.9075 12.6967 91.7638 12.5656C91.6208 12.4354 91.5024 12.3035 91.4071 12.1724C91.1926 11.8626 91.091 11.5052 91.1029 11.1001V10.6886V9.88473V6.27365V6.25617V5.80896C91.1029 5.66598 91.1267 5.47534 91.1752 5.23783C91.2212 4.99953 91.3475 4.76122 91.5501 4.52213C91.7518 4.28462 92.0561 4.07809 92.4604 3.90572C92.8663 3.73334 93.4263 3.64676 94.1412 3.64676Z" fill="#184B92"/>
<path d="M22.2698 23.9129H21.3524V19.7688V19.6711C21.3524 19.6068 21.3436 19.5369 21.3254 19.4614C21.3079 19.3852 21.2666 19.3137 21.2015 19.2446C21.1363 19.1762 21.045 19.1191 20.9266 19.0722C20.8083 19.0253 20.651 19.0023 20.4564 19.0023C20.2546 19.0023 20.091 19.0253 19.9655 19.0722C19.84 19.1191 19.7423 19.1747 19.6747 19.2398C19.6056 19.3041 19.5611 19.3748 19.5397 19.4503C19.5182 19.5258 19.5071 19.5925 19.5071 19.6497V19.7688V23.9129H18.5889V19.6934V19.4987C18.5889 19.4122 18.604 19.2978 18.6326 19.1532C18.6619 19.0094 18.739 18.8657 18.8645 18.7219C18.9908 18.5773 19.1759 18.4534 19.4205 18.3485C19.6652 18.2445 20.0036 18.1928 20.4349 18.1928C20.867 18.1928 21.2046 18.2445 21.4493 18.3485C21.6947 18.4534 21.8774 18.5773 22.0006 18.7219C22.1229 18.8657 22.1984 19.011 22.227 19.1588C22.2548 19.3057 22.2698 19.4193 22.2698 19.4987V19.6068V23.9129Z" fill="#184B92"/>
<path d="M30.8621 21.0532C30.8471 21.1247 30.8113 21.1787 30.7541 21.2145C30.6961 21.251 30.6429 21.2756 30.5921 21.2899C30.484 21.3265 30.3673 21.3678 30.241 21.4146C30.1147 21.4615 29.9979 21.502 29.8899 21.5393C29.7612 21.5822 29.6389 21.6243 29.5237 21.668C29.4371 21.7046 29.3545 21.7546 29.2751 21.819C29.2107 21.8769 29.1511 21.95 29.0971 22.0406C29.0431 22.1303 29.0161 22.2439 29.0161 22.3798C29.0161 22.6538 29.0812 22.8572 29.2107 22.9898C29.3402 23.1233 29.5809 23.19 29.9336 23.19C30.2942 23.19 30.5381 23.1201 30.6675 22.9803C30.797 22.8389 30.8621 22.6403 30.8621 22.3798V21.0532ZM29.9336 18.1928C30.5667 18.1928 31.0305 18.3167 31.326 18.5653C31.6207 18.8132 31.7685 19.1245 31.7685 19.4987V20.0166V22.3798V22.6935C31.7685 22.8222 31.7447 22.9644 31.6978 23.1201C31.6517 23.2742 31.5596 23.4164 31.423 23.5459C31.2863 23.6761 31.0997 23.7834 30.8621 23.8699C30.6246 23.9557 30.3148 23.9994 29.9336 23.9994C29.5523 23.9994 29.2425 23.9557 29.005 23.8699C28.7675 23.7834 28.5808 23.6761 28.4442 23.5459C28.3075 23.4164 28.2162 23.2742 28.1693 23.1201C28.1225 22.9644 28.0986 22.8222 28.0986 22.6935V22.1859C28.0986 21.9127 28.1693 21.6648 28.3091 21.4408C28.4489 21.2184 28.6491 21.0604 28.9089 20.9666C29.0383 20.9229 29.1853 20.8729 29.3505 20.8157C29.5165 20.7577 29.6762 20.7021 29.8311 20.6489C29.9852 20.5941 30.1202 20.5456 30.2354 20.5027C30.3506 20.459 30.4237 20.4344 30.4515 20.4265C30.4801 20.4122 30.5182 20.3931 30.5651 20.3677C30.6119 20.3423 30.6564 20.3049 30.6993 20.2541C30.743 20.2041 30.7811 20.1461 30.8129 20.0817C30.8455 20.0166 30.8621 19.9411 30.8621 19.8545V19.6504C30.8621 19.5781 30.8471 19.5042 30.8193 19.428C30.7899 19.3525 30.7398 19.2826 30.6675 19.2175C30.5952 19.1531 30.5007 19.1015 30.3816 19.0618C30.2624 19.0221 30.1139 19.0022 29.9336 19.0022C29.5729 19.0022 29.3307 19.0753 29.2052 19.223C29.0789 19.3708 29.0161 19.5495 29.0161 19.7584H28.0986V19.4987C28.0986 19.3184 28.1328 19.15 28.2011 18.9911C28.2702 18.833 28.3798 18.694 28.5308 18.5757C28.6817 18.4573 28.8715 18.3636 29.1027 18.2945C29.3322 18.2269 29.6103 18.1928 29.9336 18.1928Z" fill="#184B92"/>
<path d="M40.5754 23.1036V23.913C40.1433 23.913 39.8049 23.8606 39.561 23.7565C39.3164 23.6525 39.1313 23.5278 39.0058 23.384C38.8795 23.2402 38.8016 23.0949 38.773 22.9471C38.7444 22.7994 38.7293 22.6866 38.7293 22.6071V22.4133V18.9587H38.0391V18.193H38.7293V16.7568H39.6476V18.193H40.5754V18.9587H39.6476V22.3267V22.4236C39.6476 22.4888 39.6563 22.5587 39.6746 22.6333C39.6929 22.7096 39.7334 22.7835 39.7985 22.8558C39.8629 22.9272 39.9542 22.9868 40.0734 23.0329C40.1925 23.0798 40.349 23.1036 40.5428 23.1036H40.5754Z" fill="#184B92"/>
<path d="M46.6737 18.2795H47.5808V23.913H46.6737V18.2795ZM47.5808 17.1889H46.6737V16.0991H47.5808V17.1889Z" fill="#184B92"/>
<path d="M56.6032 22.413V19.7798V19.6606C56.6032 19.5955 56.592 19.5264 56.5706 19.4501C56.5491 19.3755 56.5047 19.304 56.4364 19.2396C56.368 19.1745 56.2719 19.1197 56.1496 19.072C56.0281 19.0252 55.8628 19.0021 55.6539 19.0021C55.4593 19.0021 55.3036 19.0252 55.1845 19.072C55.0653 19.1197 54.974 19.1761 54.9088 19.2452C54.8437 19.3135 54.8024 19.3874 54.7849 19.466C54.7666 19.5455 54.7571 19.6138 54.7571 19.671V19.7798V22.413V22.5211C54.7571 22.5783 54.7666 22.6474 54.7849 22.726C54.8024 22.8046 54.8437 22.8785 54.9088 22.9468C54.974 23.0151 55.0653 23.0731 55.1845 23.12C55.3036 23.1669 55.4593 23.1899 55.6539 23.1899C55.8628 23.1899 56.0281 23.1669 56.1496 23.12C56.2719 23.0731 56.368 23.0175 56.4364 22.9524C56.5047 22.8872 56.5491 22.8173 56.5706 22.7419C56.592 22.6664 56.6032 22.5965 56.6032 22.5314V22.413ZM57.5214 22.5211V22.6934C57.5214 22.7792 57.5063 22.8952 57.4769 23.039C57.4491 23.1827 57.3729 23.3273 57.2513 23.4711C57.1282 23.6141 56.9455 23.738 56.7009 23.8428C56.4562 23.9469 56.1178 24.0001 55.6865 24.0001C55.2544 24.0001 54.916 23.9469 54.6713 23.8428C54.4267 23.738 54.2432 23.6141 54.1208 23.4711C53.9993 23.3273 53.9231 23.1812 53.8945 23.0334C53.8659 22.8865 53.8516 22.7729 53.8516 22.6934V22.5743V19.4986C53.8516 19.4192 53.8659 19.3056 53.8945 19.1586C53.9231 19.0109 53.9993 18.8655 54.1208 18.7217C54.2432 18.5779 54.4267 18.4532 54.6713 18.3484C54.916 18.2451 55.2544 18.1927 55.6865 18.1927C56.1178 18.1927 56.4562 18.2451 56.7009 18.3484C56.9455 18.4532 57.1282 18.5779 57.2513 18.7217C57.3729 18.8655 57.4491 19.0093 57.4769 19.153C57.5063 19.2976 57.5214 19.4128 57.5214 19.4986V22.5211Z" fill="#184B92"/>
<path d="M67.4725 23.9129H66.5542V19.7688V19.6711C66.5542 19.6068 66.5455 19.5369 66.528 19.4614C66.5097 19.3852 66.4684 19.3137 66.4033 19.2446C66.339 19.1762 66.2476 19.1191 66.1285 19.0722C66.0101 19.0253 65.8528 19.0023 65.659 19.0023C65.4572 19.0023 65.2936 19.0253 65.1681 19.0722C65.0418 19.1191 64.9449 19.1747 64.8766 19.2398C64.8083 19.3041 64.763 19.3748 64.7415 19.4503C64.7193 19.5258 64.709 19.5925 64.709 19.6497V19.7688V23.9129H63.7915V19.6934V19.4987C63.7915 19.4122 63.8058 19.2978 63.8352 19.1532C63.863 19.0094 63.9408 18.8657 64.0671 18.7219C64.1926 18.5773 64.3777 18.4534 64.6224 18.3485C64.8678 18.2445 65.2054 18.1928 65.6376 18.1928C66.0689 18.1928 66.4073 18.2445 66.6519 18.3485C66.8966 18.4534 67.0801 18.5773 67.2024 18.7219C67.3247 18.8657 67.401 19.011 67.4288 19.1588C67.4574 19.3057 67.4725 19.4193 67.4725 19.4987V19.6068V23.9129Z" fill="#184B92"/>
<path d="M76.5059 21.0532C76.4916 21.1247 76.4566 21.1787 76.3979 21.2145C76.3415 21.251 76.2874 21.2756 76.2366 21.2899C76.1286 21.3265 76.0118 21.3678 75.8855 21.4146C75.76 21.4615 75.6424 21.502 75.5352 21.5393C75.4057 21.5822 75.2834 21.6243 75.1674 21.668C75.0816 21.7046 74.999 21.7546 74.9196 21.819C74.8552 21.8769 74.7949 21.95 74.7417 22.0406C74.6876 22.1303 74.6606 22.2439 74.6606 22.3798C74.6606 22.6538 74.7258 22.8572 74.8552 22.9898C74.9855 23.1233 75.2262 23.19 75.5781 23.19C75.9379 23.19 76.1826 23.1201 76.3129 22.9803C76.4415 22.8389 76.5059 22.6403 76.5059 22.3798V21.0532ZM75.5781 18.1928C76.2112 18.1928 76.6759 18.3167 76.9714 18.5653C77.2653 18.8132 77.413 19.1245 77.413 19.4987V20.0166V22.3798V22.6935C77.413 22.8222 77.3892 22.9644 77.3431 23.1201C77.2963 23.2742 77.2049 23.4164 77.0683 23.5459C76.9309 23.6761 76.7442 23.7834 76.5059 23.8699C76.2692 23.9557 75.9602 23.9994 75.5781 23.9994C75.1968 23.9994 74.8878 23.9557 74.6503 23.8699C74.412 23.7834 74.2253 23.6761 74.0887 23.5459C73.9521 23.4164 73.8607 23.2742 73.8139 23.1201C73.767 22.9644 73.7432 22.8222 73.7432 22.6935V22.1859C73.7432 21.9127 73.8139 21.6648 73.9537 21.4408C74.0943 21.2184 74.2936 21.0604 74.5526 20.9666C74.6821 20.9229 74.8298 20.8729 74.995 20.8157C75.1611 20.7577 75.3215 20.7021 75.4756 20.6489C75.6305 20.5941 75.7648 20.5456 75.8807 20.5027C75.9951 20.459 76.0674 20.4344 76.096 20.4265C76.1246 20.4122 76.1627 20.3931 76.2096 20.3677C76.2565 20.3423 76.3017 20.3049 76.3446 20.2541C76.3875 20.2041 76.4257 20.1461 76.4574 20.0817C76.4908 20.0166 76.5059 19.9411 76.5059 19.8545V19.6504C76.5059 19.5781 76.4916 19.5042 76.463 19.428C76.4352 19.3525 76.3844 19.2826 76.3129 19.2175C76.2398 19.1531 76.1445 19.1015 76.0261 19.0618C75.907 19.0221 75.7576 19.0022 75.5781 19.0022C75.2183 19.0022 74.9752 19.0753 74.8497 19.223C74.7234 19.3708 74.6606 19.5495 74.6606 19.7584H73.7432V19.4987C73.7432 19.3184 73.7773 19.15 73.8456 18.9911C73.9147 18.833 74.0236 18.694 74.1753 18.5757C74.327 18.4573 74.5169 18.3636 74.7472 18.2945C74.9776 18.2269 75.2548 18.1928 75.5781 18.1928Z" fill="#184B92"/>
<path d="M83.9646 16.0879H84.8718V23.9129H83.9646V16.0879Z" fill="#184B92"/>
<path d="M93.9051 19.7688V19.6711C93.9051 19.6067 93.8963 19.5368 93.878 19.4613C93.8598 19.3851 93.8185 19.3136 93.7541 19.2453C93.689 19.1762 93.5976 19.119 93.4793 19.0721C93.3601 19.0253 93.2029 19.0022 93.0098 19.0022C92.8081 19.0022 92.6444 19.0253 92.5181 19.0721C92.3918 19.119 92.2949 19.1746 92.2266 19.2397C92.1583 19.3041 92.113 19.3748 92.0916 19.4502C92.0701 19.5257 92.0598 19.5924 92.0598 19.6504V19.7688V19.7799V19.8657V20.7728C92.0741 20.7077 92.1067 20.6552 92.1567 20.6155C92.2075 20.5766 92.2639 20.5456 92.3291 20.5242C92.3942 20.5027 92.4586 20.4876 92.5237 20.4805C92.588 20.4733 92.6389 20.4702 92.6754 20.4702H93.2902C93.4555 20.4702 93.5992 20.4106 93.7216 20.2922C93.8439 20.1731 93.9051 20.0309 93.9051 19.8657V19.7799V19.7688ZM92.9876 18.1928C93.4189 18.1928 93.7573 18.2444 94.002 18.3485C94.2466 18.4533 94.4301 18.5772 94.5524 18.7218C94.6748 18.8656 94.7502 19.011 94.7796 19.1587C94.8082 19.3057 94.8233 19.4192 94.8233 19.4987V19.7688V19.7799V20.0166C94.8233 20.1389 94.7995 20.2755 94.7526 20.4265C94.7065 20.5782 94.5961 20.7394 94.423 20.9126C94.3443 20.9984 94.2546 21.0635 94.1529 21.1072C94.0528 21.1501 93.963 21.1827 93.8836 21.2041C93.7891 21.2335 93.693 21.247 93.5929 21.247H92.7723C92.5849 21.247 92.4188 21.3161 92.2759 21.4528C92.1313 21.5886 92.0598 21.7586 92.0598 21.9596V22.4449C92.0598 22.6181 92.0916 22.7547 92.1567 22.8556C92.1861 22.9056 92.2179 22.9485 92.2536 22.985C92.2894 23.0208 92.3434 23.0534 92.4157 23.082C92.4737 23.1106 92.5467 23.136 92.6365 23.1574C92.727 23.1789 92.8438 23.19 92.9876 23.19C93.1751 23.19 93.322 23.1701 93.43 23.1312C93.5381 23.0915 93.6135 23.0565 93.6572 23.0279C93.751 22.9557 93.8153 22.8707 93.851 22.769C93.8876 22.6689 93.9051 22.5601 93.9051 22.4449H94.8233V22.7038C94.8233 22.8985 94.7812 23.078 94.6986 23.244C94.6152 23.4092 94.4873 23.553 94.3149 23.6753C94.1934 23.7619 94.0234 23.8374 93.8081 23.9017C93.5929 23.9669 93.3196 23.9994 92.9876 23.9994C92.7429 23.9994 92.5308 23.9796 92.3505 23.9398C92.171 23.9009 92.0145 23.8501 91.8811 23.7889C91.7476 23.7278 91.6388 23.6579 91.5522 23.5784C91.4656 23.499 91.3941 23.4203 91.3369 23.3409C91.2067 23.1534 91.1455 22.9382 91.1527 22.6935V22.4449V21.9596V19.7799V19.7688V19.4987C91.1527 19.4121 91.167 19.2977 91.1963 19.1531C91.2242 19.0094 91.3004 18.8656 91.4227 18.7218C91.5451 18.5772 91.7286 18.4533 91.9732 18.3485C92.2179 18.2444 92.5555 18.1928 92.9876 18.1928Z" fill="#184B92"/>
<path d="M12.2321 3.6538C12.719 10.8164 14.9487 13.2812 14.9487 13.2812H3.16227C3.16227 13.2812 0.703787 12.1151 0 3.6538H12.2321Z" fill="#184B92"/>
<path d="M113.116 3.65377C113.603 10.8163 115.831 13.2812 115.831 13.2812H104.046C104.046 13.2812 101.587 12.1151 100.884 3.65377H113.116Z" fill="#D91920"/>
</svg>
