<svg width="81" height="48" viewBox="0 0 81 48" fill="none" xmlns="http://www.w3.org/2000/svg">
<path d="M6.07753 5.3681C6.09291 5.35558 6.10718 5.34496 6.12272 5.33354L6.12842 5.33544C6.11428 5.34712 6.09879 5.35708 6.08229 5.36509C6.08089 5.36636 6.07928 5.36738 6.07753 5.3681ZM8.32222 4.61955C8.31651 4.62336 8.31176 4.62716 8.30589 4.63097C8.31461 4.63002 8.32222 4.62811 8.32222 4.61955ZM7.61264 5.40207C7.42942 5.53634 7.23151 5.64931 7.02274 5.7388C6.76344 5.8467 6.51344 5.9757 6.27526 6.12451H0.598022V0.000213623H8.59301C8.48869 0.0337075 8.38624 0.0727624 8.28609 0.117211C8.15093 0.166767 8.02864 0.246089 7.92828 0.349304C7.82956 0.455374 7.75465 0.581312 7.70855 0.718686C7.5709 0.813122 7.45938 0.940846 7.38435 1.08997C7.28067 1.28671 7.12912 1.4603 7.15305 1.67987C7.17525 1.86504 7.22217 2.03879 7.25673 2.23537C7.267 2.30203 7.28237 2.36781 7.30271 2.43211C7.32681 2.50108 7.30271 2.58272 7.33727 2.64027C7.36121 2.67467 7.34979 2.72175 7.39577 2.74474V2.79087C7.40829 2.80245 7.40829 2.81386 7.43033 2.81386V2.85999C7.53288 2.96467 7.62212 3.0816 7.69603 3.20813C7.72013 3.27725 7.58094 3.24269 7.52339 3.21875C7.42062 3.15504 7.32729 3.07723 7.24611 2.98761C7.23948 2.99363 7.23511 3.00175 7.23375 3.0106C7.28067 3.09209 7.45332 3.19577 7.36121 3.25332C7.31523 3.27725 7.25673 3.21876 7.2106 3.26568C7.19919 3.28867 7.2106 3.31166 7.2106 3.3348C7.14069 3.28867 7.07157 3.31166 7.00245 3.28867C6.95647 3.27725 6.94395 3.18419 6.88735 3.18419C6.74283 3.1463 6.59567 3.11933 6.44711 3.1035C6.24452 3.06721 6.03784 3.05947 5.83311 3.08051C5.7441 3.09636 5.65925 3.13014 5.58371 3.1798C5.50816 3.22945 5.4435 3.29395 5.39365 3.36936V3.40487C5.47435 3.41534 5.50986 3.34637 5.57882 3.32323C5.69391 3.30024 5.79855 3.25332 5.91459 3.23017C6.07652 3.1855 6.24362 3.16231 6.41159 3.16121C6.45038 3.15542 6.48981 3.15542 6.52859 3.16121C6.32628 3.16468 6.12618 3.20397 5.93758 3.27725C5.7986 3.30091 5.66259 3.33949 5.53189 3.39235C5.83408 3.38289 6.13562 3.42607 6.42301 3.51997C6.5249 3.55435 6.62222 3.60104 6.71281 3.659C6.74859 3.69319 6.78743 3.72403 6.82885 3.75111C6.85874 3.76745 6.89184 3.77704 6.92583 3.77921C6.95983 3.78137 6.99388 3.77606 7.02559 3.76363H7.08409C7.25951 3.73564 7.42363 3.65921 7.55795 3.54296C7.55795 3.55453 7.56936 3.55453 7.58094 3.55453C7.56369 3.65281 7.5286 3.7471 7.47741 3.83275C7.47741 3.84417 7.46489 3.86716 7.48883 3.87873H7.51197C7.49945 3.87873 7.48883 3.87873 7.48883 3.89014C7.48883 3.91329 7.52339 3.89014 7.53401 3.91329C7.47709 3.91701 7.42366 3.94203 7.38435 3.98336C7.38435 3.99478 7.40829 3.99477 7.41891 3.99477C7.39577 4.01792 7.36121 4.00635 7.34979 4.02934C7.3557 4.03546 7.36343 4.03952 7.37183 4.04091C7.36121 4.04091 7.34979 4.04091 7.34979 4.05232V4.08688C7.31523 4.08688 7.30271 4.10987 7.28067 4.12239C7.32681 4.15695 7.36121 4.12239 7.40829 4.12239C7.28067 4.16837 7.17525 4.23749 7.04953 4.27205C7.02559 4.27205 7.04953 4.30756 7.02559 4.30756C7.06015 4.3296 7.08409 4.29504 7.11865 4.29504C6.95647 4.3881 6.79429 4.46879 6.61975 4.57326C6.60766 4.58583 6.59994 4.60195 6.59771 4.61924H6.55063C6.52859 4.63081 6.53921 4.66632 6.51607 4.68836C6.57377 4.72387 6.64369 4.64238 6.67825 4.68836C6.68982 4.68836 6.65526 4.70088 6.63227 4.70088C6.61975 4.70088 6.61975 4.72387 6.60913 4.72387H6.57377C6.55063 4.74686 6.52859 4.75843 6.52859 4.79299C6.50465 4.79299 6.48167 4.79299 6.47009 4.81598C6.72533 4.78142 6.99087 4.8044 7.23375 4.67789C7.42502 4.58169 7.59753 4.45203 7.74311 4.29504C7.74925 4.30168 7.75323 4.31003 7.75453 4.31898C7.72052 4.42706 7.65132 4.52065 7.55795 4.58484C7.48883 4.61924 7.44285 4.67789 7.38435 4.70088C7.34979 4.72387 7.31523 4.74691 7.28067 4.77C6.852 4.92045 6.34247 4.85054 5.97214 5.14018C5.97214 5.12876 5.96057 5.12876 5.94915 5.12876C5.92617 5.15175 5.89065 5.16332 5.88019 5.18726C5.88012 5.18866 5.88033 5.19005 5.88082 5.19136C5.88131 5.19267 5.88207 5.19387 5.88304 5.19487C5.88634 5.19917 5.89078 5.20244 5.89586 5.20432C5.90094 5.2062 5.90644 5.20661 5.91174 5.20549C5.91771 5.20123 5.92414 5.19767 5.93092 5.19487C5.9881 5.15689 6.05004 5.12662 6.11514 5.10483C6.10828 5.1097 6.10186 5.11516 6.09595 5.12115C6.05093 5.14604 6.00765 5.17284 5.96358 5.19487H5.96643C5.93582 5.21236 5.90907 5.23587 5.8878 5.26399C5.88985 5.26468 5.89171 5.26581 5.89325 5.26732C5.8948 5.26883 5.89598 5.27066 5.89671 5.27269C5.89744 5.27472 5.89771 5.27689 5.89748 5.27903C5.89726 5.28118 5.89655 5.28325 5.89541 5.28508C5.8916 5.29189 5.8878 5.29855 5.884 5.30616C5.8811 5.31014 5.87851 5.31433 5.87623 5.31869C5.87147 5.32725 5.86672 5.33501 5.86101 5.34358C5.85895 5.34738 5.85704 5.35023 5.85514 5.3542C5.85229 5.35895 5.85039 5.36371 5.84753 5.36862C5.84632 5.3717 5.84466 5.37459 5.84262 5.37718C5.84104 5.38059 5.83913 5.38383 5.83691 5.38686C5.83554 5.39044 5.83396 5.39393 5.83216 5.39732C5.8312 5.39827 5.83025 5.39922 5.83025 5.40017C5.8293 5.40112 5.8293 5.40207 5.82819 5.40303C5.8274 5.40398 5.8274 5.40509 5.82645 5.40588C5.83048 5.40748 5.83461 5.4088 5.83881 5.40984C5.84447 5.41123 5.85028 5.41187 5.85609 5.41174C5.89826 5.4127 5.92046 5.36181 5.9482 5.33692C5.96545 5.32278 5.98373 5.30996 6.0029 5.29855C6.00575 5.30236 6.0086 5.30521 6.01051 5.30806C6.00971 5.31092 6.0086 5.31488 6.00765 5.31869C6.00099 5.32836 5.99529 5.33977 5.98752 5.34928C5.98181 5.358 5.99338 5.36466 6.00099 5.36181V5.36371C5.9306 5.40421 5.8652 5.45284 5.80616 5.50861C5.80899 5.50823 5.81188 5.50855 5.81456 5.50954C5.81724 5.51054 5.81963 5.51218 5.82153 5.51432C5.82264 5.51524 5.82355 5.51638 5.8242 5.51767C5.82485 5.51895 5.82523 5.52036 5.82532 5.5218C5.82541 5.52324 5.8252 5.52468 5.82472 5.52604C5.82423 5.5274 5.82347 5.52864 5.82248 5.52969C5.80616 5.55268 5.78888 5.57583 5.77271 5.59977C5.76208 5.618 5.75051 5.63528 5.7391 5.65351C5.72942 5.66968 5.71991 5.68617 5.70929 5.70249C5.70739 5.70614 5.70454 5.7101 5.70263 5.71391C5.70251 5.71391 5.70238 5.71393 5.70227 5.71398C5.70215 5.71402 5.70204 5.71409 5.70196 5.71418C5.70187 5.71427 5.7018 5.71438 5.70175 5.71449C5.7017 5.71461 5.70168 5.71474 5.70168 5.71486C5.71372 5.71726 5.72621 5.71559 5.73719 5.7101C5.80045 5.65161 5.86101 5.59105 5.92426 5.5316C5.93035 5.53159 5.93631 5.52995 5.94154 5.52684C6.00008 5.46983 6.06436 5.41904 6.13337 5.37528C6.16429 5.35825 6.19137 5.33505 6.21295 5.30711L6.23023 5.28698C6.23254 5.28506 6.2351 5.28346 6.23784 5.28222C6.30583 5.24479 6.37799 5.21548 6.45281 5.19487C6.45757 5.19392 6.46153 5.19297 6.46534 5.19202C6.60449 5.15918 6.74539 5.1342 6.88735 5.11719C6.98344 5.12466 7.08007 5.12078 7.17525 5.10562C7.24817 5.08929 7.31523 5.04712 7.38435 5.02508V5.04712C7.55795 4.97816 7.68557 4.82739 7.85821 4.77C7.87073 4.77 7.89277 4.79299 7.91671 4.78142C7.96134 4.72642 8.01784 4.68224 8.08198 4.65217C8.14611 4.62211 8.21622 4.60695 8.28704 4.60782C8.28704 4.61924 8.28704 4.63081 8.29861 4.63081H8.30622L8.18241 4.72387C8.171 4.73544 8.18241 4.74686 8.19493 4.74686C8.25153 4.72387 8.28704 4.67789 8.34459 4.6538C8.33302 4.66632 8.33302 4.68836 8.32255 4.70088C8.27789 4.73124 8.23555 4.76489 8.19589 4.80155C8.05778 4.92321 7.92861 5.05466 7.80938 5.19487H7.81112C7.74502 5.26589 7.67875 5.33692 7.61264 5.40207ZM5.83311 4.57326C5.91459 4.5387 6.00765 4.57326 6.07677 4.50414C6.05283 4.4802 6.01827 4.49178 5.99529 4.45722C5.97214 4.44564 5.93758 4.46879 5.91459 4.4802C5.86767 4.50414 5.78697 4.50414 5.77556 4.56169C5.76399 4.58484 5.81012 4.57326 5.83311 4.57326ZM4.06213 4.31898C4.31677 4.00843 4.6177 3.73893 4.95436 3.51997C4.97639 3.5084 4.91885 3.55453 4.96593 3.54296C5.11654 3.5084 5.16251 3.35779 5.23163 3.24269C5.32469 3.09209 5.48671 3.03359 5.60196 2.90692C5.60274 2.91318 5.6021 2.91953 5.6001 2.92551C5.5981 2.93149 5.59478 2.93695 5.59039 2.94148C5.59495 2.94582 5.60041 2.94909 5.60639 2.95107C5.61237 2.95304 5.61871 2.95367 5.62495 2.95289C5.67188 2.91849 5.72943 2.92991 5.76399 2.88393C5.66798 2.84536 5.56165 2.84094 5.46277 2.87141C5.21729 3.00016 4.99747 3.1728 4.81421 3.38078C4.70174 3.50959 4.56893 3.61911 4.42105 3.70498C4.31772 3.91339 4.19399 4.11104 4.05167 4.29504C4.0525 4.30393 4.05617 4.31233 4.06213 4.31898ZM5.02348 3.55453C5.02348 3.54296 5.02348 3.53138 5.01095 3.53138C4.98801 3.53962 4.96753 3.55353 4.95142 3.57183C4.93531 3.59013 4.9241 3.61221 4.91885 3.63601C4.91885 3.64759 4.93137 3.64759 4.94183 3.64759C4.96271 3.63859 4.97949 3.62214 4.98892 3.60145C4.99938 3.58037 5.01095 3.57752 5.02348 3.55453ZM5.56075 5.28888C5.57026 5.26589 5.50891 5.2716 5.49924 5.27842C5.48997 5.28604 5.48161 5.29471 5.47435 5.30426C5.45931 5.32027 5.44326 5.33531 5.42631 5.34928C5.39761 5.37623 5.37067 5.40509 5.34102 5.43093C5.32184 5.44726 5.38509 5.45677 5.39857 5.4444C5.41284 5.43093 5.42821 5.41745 5.44264 5.40398C5.45041 5.40398 5.45707 5.40207 5.45992 5.40207C5.4931 5.38812 5.52289 5.3672 5.54727 5.34072C5.55678 5.33216 5.54632 5.32534 5.53189 5.32249C5.54379 5.31346 5.55362 5.302 5.56075 5.28888ZM5.35338 5.19297C5.44835 5.13352 5.54426 5.06915 5.64889 5.01256C5.61725 4.9942 5.58068 4.98616 5.54426 4.98957C5.48671 5.00114 5.4168 4.96658 5.35925 4.98957C5.21245 5.05774 5.02633 5.05298 4.91599 5.16047C4.91504 5.16047 4.91504 5.16126 4.91409 5.16126C4.90479 5.16997 4.89645 5.17964 4.8892 5.19011C4.88745 5.19194 4.88548 5.19354 4.88333 5.19487C4.87287 5.20454 4.8613 5.21215 4.84782 5.22277C4.82661 5.24081 4.80675 5.26036 4.78837 5.28127C4.78837 5.28222 4.78837 5.28222 4.78742 5.28317C4.7787 5.29078 4.77109 5.2995 4.76142 5.30711C4.7462 5.31774 4.77014 5.33311 4.78171 5.32439C4.79788 5.31203 4.80851 5.2976 4.82483 5.28698L4.8307 5.28413C4.81324 5.30327 4.79778 5.32414 4.78457 5.34643C4.78586 5.3488 4.7862 5.35158 4.78552 5.3542C4.78457 5.3599 4.78267 5.36577 4.78171 5.37148C4.78177 5.37199 4.78171 5.37251 4.78155 5.37301C4.78138 5.3735 4.78111 5.37395 4.78076 5.37433C4.77984 5.3786 4.77856 5.38279 4.77696 5.38686C4.77672 5.38949 4.77602 5.39207 4.7749 5.39446C4.77454 5.39484 4.77426 5.39529 4.7741 5.39578C4.77393 5.39628 4.77388 5.3968 4.77395 5.39732C4.77104 5.40652 4.76754 5.41552 4.76348 5.42427C4.76253 5.42601 4.76253 5.42712 4.76142 5.42903C4.76063 5.42903 4.76063 5.42998 4.76063 5.43093L4.75857 5.43283C4.75485 5.4407 4.75072 5.44838 4.7462 5.45582C4.74145 5.46454 4.73558 5.47215 4.73083 5.48087C4.72947 5.48324 4.72787 5.48547 4.72607 5.48752C4.72512 5.48848 4.72512 5.48847 4.72512 5.48943C4.71354 5.50575 4.70118 5.52208 4.68865 5.53825C4.68675 5.54127 4.68374 5.54412 4.682 5.54697C4.67518 5.55569 4.66852 5.56425 4.66186 5.57186C4.65769 5.57675 4.65383 5.58188 4.65029 5.58724C4.64934 5.58724 4.64934 5.58819 4.64839 5.58914C4.63586 5.60452 4.62334 5.618 4.61097 5.63131C4.61193 5.63322 4.61272 5.63528 4.61383 5.63718V5.63813C4.61674 5.64452 4.62025 5.65062 4.62429 5.65636L4.62714 5.66207C4.62859 5.66447 4.63023 5.66675 4.63206 5.66889C4.6339 5.66878 4.6357 5.66829 4.63734 5.66744C4.63898 5.66659 4.64042 5.66541 4.64157 5.66397H4.64252C4.64538 5.66002 4.64797 5.65589 4.65029 5.65161L4.65124 5.65065C4.65219 5.64875 4.65314 5.64764 4.6541 5.64574L4.6579 5.64194C4.65885 5.64098 4.65885 5.63908 4.6598 5.63813C4.65993 5.63813 4.66005 5.63811 4.66017 5.63806C4.66029 5.63802 4.66039 5.63795 4.66048 5.63786C4.66057 5.63777 4.66064 5.63766 4.66069 5.63755C4.66073 5.63743 4.66076 5.63731 4.66075 5.63718C4.68125 5.61147 4.70407 5.58769 4.72892 5.56616C4.7424 5.55379 4.75682 5.54222 4.77109 5.53064C4.77204 5.52874 4.77585 5.52779 4.7787 5.52779C4.78133 5.52757 4.78398 5.52789 4.78647 5.52874C4.79218 5.52589 4.79899 5.52208 4.8047 5.51923C4.81118 5.51526 4.8179 5.51171 4.82483 5.50861V5.51051C4.82293 5.52399 4.84307 5.52399 4.85068 5.51923C4.85627 5.51459 4.86141 5.50944 4.86605 5.50385C4.87477 5.49228 4.88333 5.48467 4.89094 5.47595V5.475C4.89205 5.47405 4.893 5.47405 4.893 5.4731C4.89871 5.46739 4.90442 5.46248 4.91013 5.45677L4.91124 5.45582L4.91219 5.45487C4.91789 5.44916 4.92265 5.4444 4.92852 5.43949C4.96327 5.40495 5.00226 5.37496 5.04456 5.35023C5.04779 5.3485 5.05156 5.34804 5.05511 5.34895C5.05866 5.34986 5.06174 5.35207 5.06375 5.35515C5.0647 5.3561 5.06565 5.35705 5.06565 5.358C5.11749 5.33406 5.16917 5.31203 5.21816 5.28317C5.26413 5.25638 5.30741 5.22563 5.35053 5.19487C5.35148 5.19392 5.35259 5.19392 5.35338 5.19297ZM5.59039 4.3881C5.62495 4.42266 5.69391 4.41124 5.741 4.3881C5.77597 4.36846 5.81626 4.36041 5.85609 4.36511C5.86767 4.36511 5.86767 4.34196 5.86767 4.3296C5.89754 4.33969 5.92909 4.34388 5.96057 4.34196C6.23644 4.296 6.5051 4.21413 6.75973 4.09846C6.45757 3.86716 6.07677 3.78662 5.71801 3.68199C5.75241 3.68199 5.78697 3.71655 5.82153 3.68199C5.76399 3.63601 5.69391 3.659 5.63653 3.6246C5.64889 3.6246 5.67188 3.63601 5.68345 3.61208C5.59343 3.57921 5.50016 3.55603 5.40523 3.54296C5.43189 3.53814 5.45591 3.52383 5.47285 3.50267C5.48978 3.48151 5.49848 3.45494 5.49733 3.42786C5.49733 3.41534 5.47435 3.41534 5.46277 3.41534C5.32606 3.49112 5.22271 3.61539 5.17313 3.76363C5.25462 3.80866 5.34768 3.7741 5.42821 3.78662C5.39365 3.82118 5.33515 3.82118 5.29013 3.83275C5.25367 3.84131 5.22006 3.86716 5.23163 3.89014C5.23781 3.8989 5.24702 3.90505 5.25747 3.90742C5.23014 3.91434 5.20523 3.92866 5.1855 3.9488C5.23163 3.98336 5.27761 3.96021 5.32469 3.96021C5.32469 3.98336 5.34768 3.98336 5.35925 3.99477C5.3085 4.01284 5.26685 4.05006 5.2432 4.09846C5.22006 4.15695 5.16251 4.17994 5.12795 4.22608V4.26048C5.00515 4.34806 4.89253 4.44909 4.79218 4.56169C4.80375 4.56169 4.80375 4.57326 4.80375 4.58484C4.77981 4.61924 4.73368 4.63081 4.72211 4.66632C4.72211 4.6779 4.72211 4.68836 4.73368 4.68836C4.87287 4.64238 4.97639 4.5387 5.10401 4.49178C5.19707 4.46879 5.26619 4.41124 5.34768 4.3881C5.40523 4.37668 5.47435 4.35354 5.53189 4.34196C5.53189 4.35354 5.53189 4.36511 5.54426 4.36511H5.63653C5.62495 4.3881 5.57882 4.37668 5.59039 4.3881Z" fill="#000091"/>
<path d="M17.4928 0H10.9042C10.9263 0.00650882 10.9473 0.0162306 10.9665 0.0288529C11.0203 0.0575474 11.0894 0.0949613 11.1336 0.117949C11.222 0.158899 11.2981 0.22244 11.3541 0.302164C11.3771 0.337675 11.4118 0.406638 11.3887 0.452771C11.3657 0.511269 11.3541 0.603377 11.2956 0.626365C11.2186 0.657264 11.1344 0.6653 11.0529 0.649511C11.0061 0.647531 10.9597 0.639756 10.9148 0.626365C11.0926 0.684009 11.2494 0.792811 11.3657 0.939151C11.3771 0.962138 11.4232 0.973711 11.4703 0.973711C11.4808 0.973711 11.4808 0.996698 11.4808 1.00827C11.4578 1.03221 11.4356 1.04283 11.4462 1.07818H11.4808C11.5393 1.0552 11.5279 0.939151 11.6084 0.973711C11.6369 0.991198 11.6576 1.01898 11.6661 1.05131C11.6747 1.08363 11.6705 1.118 11.6544 1.1473C11.6112 1.18928 11.5651 1.22807 11.5163 1.26335C11.5107 1.27605 11.5077 1.2898 11.5077 1.3037C11.5077 1.3176 11.5107 1.33134 11.5163 1.34404C11.5451 1.38578 11.5647 1.43318 11.5739 1.48308C11.6084 1.56361 11.62 1.65667 11.6544 1.73832C11.71 1.90597 11.7376 2.08166 11.736 2.25831C11.736 2.35136 11.6889 2.4319 11.7245 2.52496C11.7551 2.6114 11.7977 2.6931 11.8511 2.76767C11.8976 2.82654 11.9402 2.88834 11.9787 2.95268C12.0477 3.06889 12.1753 3.18398 12.1168 3.32301C12.0832 3.40466 11.9567 3.39309 11.8751 3.43906C11.8052 3.49677 11.8635 3.58983 11.8981 3.64737C11.9567 3.75185 11.8289 3.82097 11.7474 3.85553C11.7704 3.89009 11.8166 3.87852 11.8289 3.9015C11.8396 3.96 11.8981 3.99456 11.8635 4.05211C11.8166 4.12218 11.6774 4.15674 11.7474 4.26026C11.7641 4.30111 11.7717 4.34507 11.7697 4.38913C11.7678 4.4332 11.7563 4.47631 11.736 4.5155C11.7185 4.55947 11.6903 4.59837 11.654 4.62868C11.6176 4.65899 11.5743 4.67976 11.5279 4.6891C11.4566 4.71019 11.3813 4.71415 11.3081 4.70067C11.2867 4.68798 11.2628 4.68008 11.2381 4.67752C11.0432 4.63911 10.8462 4.6119 10.6482 4.59604C10.5924 4.60452 10.5379 4.62002 10.486 4.64217C10.4356 4.67943 10.3887 4.72113 10.3459 4.76678L10.3451 4.76789C10.3358 4.77689 10.3271 4.78648 10.3191 4.79658C10.3143 4.80134 10.3094 4.80815 10.3046 4.81386C10.3008 4.81767 10.298 4.82163 10.2942 4.82528C10.2612 4.86788 10.2307 4.9124 10.203 4.9586C10.2011 4.96167 10.1995 4.96491 10.1981 4.96827C10.1952 4.97319 10.1924 4.97889 10.1895 4.98365C10.153 5.05148 10.1235 5.12281 10.1012 5.19656C10.0226 5.46147 10.0572 5.68881 10.1128 5.74429C10.1282 5.75983 10.4946 5.87286 10.7498 5.98606C10.8441 6.02555 10.9354 6.07175 11.0231 6.1243H17.4928V0Z" fill="#E1000F"/>
<path d="M11.2968 2.23435C11.3429 2.24592 11.4119 2.24592 11.4119 2.26891C11.3898 2.36196 11.2497 2.38495 11.1807 2.47706H11.1462C11.1116 2.50005 11.1221 2.55855 11.0877 2.55855C11.0528 2.55094 11.0163 2.55501 10.984 2.57012C11.0048 2.59498 11.0315 2.61431 11.0616 2.62637C11.0917 2.63843 11.1244 2.64285 11.1566 2.63924C11.1668 2.64236 11.1757 2.64854 11.1823 2.65694C11.1888 2.66534 11.1926 2.67554 11.1931 2.68617C11.1974 2.68563 11.2016 2.68425 11.2054 2.6821C11.2091 2.67995 11.2125 2.67708 11.2151 2.67364C11.2276 2.67364 11.2383 2.67364 11.2383 2.68617V2.7323C11.2037 2.77827 11.1462 2.75529 11.1 2.7667C11.1872 2.78971 11.2788 2.78971 11.3659 2.7667C11.4358 2.74371 11.3659 2.62767 11.4119 2.57012C11.3898 2.57012 11.4119 2.53461 11.3898 2.53461C11.4119 2.51257 11.4358 2.47706 11.4588 2.46549C11.4722 2.46578 11.4855 2.4628 11.4976 2.45681C11.5096 2.45081 11.52 2.44199 11.5279 2.43109C11.5279 2.40794 11.481 2.39637 11.4933 2.37338C11.5625 2.3274 11.621 2.25733 11.597 2.18821C11.5864 2.15381 11.4933 2.15381 11.4358 2.12971C11.3701 2.11658 11.302 2.12056 11.2383 2.14129C11.1793 2.15099 11.1214 2.16671 11.0656 2.18821C10.9865 2.21499 10.912 2.25387 10.8448 2.30347C10.9278 2.27351 11.0132 2.25039 11.1 2.23435C11.1653 2.22571 11.2315 2.22571 11.2968 2.23435Z" fill="#808080"/>
<path d="M15.5513 46.4127C15.6759 46.4127 15.7834 46.5078 15.7258 46.7475L15.1464 46.8818C15.2471 46.6123 15.4159 46.4127 15.5513 46.4127ZM15.8717 47.348H15.7566C15.6117 47.5197 15.4563 47.654 15.3019 47.654C15.1426 47.654 15.062 47.56 15.062 47.348C15.0624 47.262 15.0714 47.1762 15.0888 47.092L16.0232 46.784C16.2055 46.3523 15.9868 46.1633 15.7296 46.1633C15.2875 46.1633 14.7857 46.9019 14.7857 47.5505C14.7857 47.8401 14.9229 47.9985 15.1397 47.9985C15.3929 47.9985 15.6558 47.752 15.8717 47.348ZM15.6856 45.9916L16.3436 45.3776V45.3066H15.9896L15.5849 45.9916H15.6856ZM13.669 46.4233H13.9789L13.4858 47.7692C13.4734 47.7929 13.4672 47.8194 13.468 47.8461C13.4687 47.8729 13.4763 47.8989 13.4899 47.9219C13.5036 47.9449 13.5229 47.964 13.5461 47.9774C13.5692 47.9908 13.5954 47.9981 13.6221 47.9985C13.8136 47.9734 13.9957 47.9002 14.1513 47.7858C14.3069 47.6714 14.4311 47.5195 14.5123 47.3442H14.424C14.2694 47.5093 14.0722 47.6285 13.8542 47.6886L14.306 46.4233H14.7684L14.826 46.2313H14.377L14.5497 45.7449H14.3704L14.05 46.2313L13.669 46.2851V46.4233ZM13.2499 46.3591C13.2591 46.3392 13.2635 46.3173 13.2627 46.2954C13.2618 46.2734 13.2557 46.252 13.2449 46.2329C13.2342 46.2137 13.219 46.1974 13.2006 46.1853C13.1823 46.1733 13.1613 46.1657 13.1395 46.1633C12.8689 46.1633 12.5485 46.407 12.421 46.7475H12.5082C12.5949 46.6105 12.7276 46.5088 12.8824 46.4607L12.3662 47.8027C12.3559 47.8227 12.3508 47.8449 12.3513 47.8673C12.3518 47.8898 12.3579 47.9117 12.3691 47.9312C12.3803 47.9507 12.3961 47.967 12.4153 47.9788C12.4344 47.9905 12.4562 47.9973 12.4786 47.9985C12.7346 47.9985 13.0349 47.752 13.1625 47.4152H13.0753C12.9878 47.552 12.855 47.6535 12.7001 47.702L13.2499 46.3591ZM13.3448 45.6845C13.3888 45.6845 13.4318 45.6715 13.4684 45.647C13.505 45.6226 13.5335 45.5878 13.5503 45.5471C13.5671 45.5065 13.5715 45.4618 13.563 45.4186C13.5544 45.3755 13.5332 45.3358 13.5021 45.3047C13.471 45.2736 13.4313 45.2524 13.3882 45.2438C13.345 45.2352 13.3003 45.2396 13.2596 45.2565C13.219 45.2733 13.1842 45.3018 13.1598 45.3384C13.1353 45.3749 13.1223 45.418 13.1222 45.462C13.1222 45.4912 13.1279 45.5202 13.1391 45.5472C13.1502 45.5742 13.1666 45.5988 13.1873 45.6195C13.208 45.6401 13.2325 45.6565 13.2596 45.6677C13.2866 45.6789 13.3156 45.6846 13.3448 45.6845ZM10.3728 47.7491C10.3056 47.9007 10.3768 47.9985 10.5244 47.9985C10.5626 48.0037 10.6014 47.9941 10.6328 47.9716C10.6642 47.9491 10.6858 47.9154 10.6932 47.8775L11.0512 46.9298C11.216 46.7274 11.5575 46.5114 11.6919 46.5114C11.7898 46.5114 11.7763 46.5921 11.7119 46.7129L11.1623 47.7692C11.1495 47.7928 11.143 47.8193 11.1435 47.8461C11.144 47.8729 11.1514 47.8991 11.165 47.9222C11.1787 47.9453 11.1981 47.9645 11.2213 47.9778C11.2446 47.9912 11.2709 47.9983 11.2977 47.9985C11.5672 47.9985 11.8876 47.7558 12.0161 47.4152H11.9278C11.8406 47.5517 11.7082 47.6532 11.5537 47.702L12.0257 46.7475C12.0803 46.6467 12.1118 46.535 12.1179 46.4204C12.1215 46.3864 12.1176 46.3519 12.1064 46.3195C12.0951 46.2872 12.0769 46.2577 12.053 46.2331C12.0291 46.2086 12.0001 46.1896 11.968 46.1775C11.9359 46.1655 11.9016 46.1606 11.8674 46.1633C11.6354 46.1633 11.3993 46.4271 11.1192 46.7504V46.501C11.1192 46.3226 11.0616 46.1633 10.8994 46.1633C10.7988 46.1633 10.7 46.2516 10.6088 46.3762V46.4098C10.7843 46.3992 10.862 46.663 10.7374 46.9393L10.3728 47.7491ZM10.3661 46.5749C10.4303 46.3561 10.3969 46.1633 10.2281 46.1633C10.0294 46.1633 9.97852 46.3149 9.77607 46.7504V46.501C9.77607 46.3226 9.71853 46.1633 9.55746 46.1633C9.36737 46.1633 9.19568 46.4569 9.06426 46.7475H9.15161C9.24277 46.6151 9.32727 46.5374 9.39528 46.5374C9.47581 46.5374 9.52004 46.663 9.39528 46.9393L9.03065 47.7491C8.96264 47.9007 9.03366 47.9985 9.18221 47.9985C9.2205 48.0038 9.25936 47.9941 9.29079 47.9716C9.32222 47.9492 9.34384 47.9155 9.3512 47.8775L9.70901 46.9298C9.80968 46.8041 9.90084 46.6966 10.015 46.5749H10.3661ZM8.2949 46.4127C8.41966 46.4127 8.52715 46.5078 8.47055 46.7475L7.89016 46.8818C7.99178 46.6123 8.16062 46.4127 8.2949 46.4127ZM8.61529 47.348H8.5002C8.35625 47.5197 8.20089 47.654 8.04457 47.654C7.8862 47.654 7.80567 47.56 7.80567 47.348C7.80594 47.2619 7.81529 47.1761 7.83357 47.092L8.76685 46.784C8.94916 46.3523 8.72944 46.1633 8.47436 46.1633C8.03205 46.1633 7.52839 46.9019 7.52839 47.5505C7.52839 47.8401 7.66758 47.9985 7.88335 47.9985C8.13668 47.9985 8.40048 47.752 8.61529 47.348ZM6.41279 46.4233H6.72257L6.23048 47.7692C6.21789 47.7927 6.21155 47.8191 6.21207 47.8457C6.21258 47.8724 6.21992 47.8985 6.2334 47.9215C6.24687 47.9445 6.26603 47.9636 6.28903 47.9771C6.31203 47.9906 6.3381 47.998 6.36476 47.9985C6.55647 47.9735 6.73874 47.9004 6.89458 47.786C7.05043 47.6716 7.17477 47.5196 7.25603 47.3442H7.16773C7.0132 47.5089 6.81645 47.628 6.59891 47.6886L7.04978 46.4233H7.51206L7.56977 46.2313H7.12159L7.29249 45.7449H7.11494L6.79359 46.2313L6.41279 46.2851V46.4233ZM4.70903 47.4718C4.70903 47.0574 5.17148 46.4943 5.43131 46.4943C5.48476 46.4938 5.53804 46.5005 5.58969 46.5143L5.32018 47.2329C5.16371 47.4219 4.9248 47.6511 4.81351 47.6511C4.7493 47.6511 4.70903 47.5976 4.70903 47.4718ZM6.12886 46.0856L5.98776 46.076L5.82955 46.2313H5.79594C5.02658 46.2313 4.36169 47.0948 4.36169 47.7222C4.35847 47.7593 4.36345 47.7968 4.37626 47.8318C4.38907 47.8669 4.40941 47.8987 4.43584 47.925C4.46227 47.9514 4.49416 47.9716 4.52925 47.9843C4.56435 47.997 4.60179 48.0018 4.63896 47.9985C4.8376 47.9985 5.03324 47.7155 5.25185 47.4113L5.24234 47.5197C5.2146 47.8306 5.30956 47.9985 5.47174 47.9985C5.66071 47.9985 5.8324 47.7049 5.96383 47.4152H5.87647C5.78532 47.5467 5.70098 47.6243 5.63376 47.6243C5.56274 47.6243 5.51201 47.4958 5.63376 47.2223L6.12886 46.0856ZM4.48931 46.5749C4.55462 46.3561 4.52101 46.1633 4.35218 46.1633C4.15258 46.1633 4.10185 46.3149 3.89941 46.7504V46.501C3.89941 46.3226 3.84265 46.1633 3.68063 46.1633C3.49071 46.1633 3.31981 46.4569 3.18743 46.7475H3.27574C3.36594 46.6151 3.45044 46.5374 3.51845 46.5374C3.6001 46.5374 3.64322 46.663 3.51845 46.9393L3.15398 47.7491C3.08581 47.9007 3.15779 47.9985 3.30554 47.9985C3.34385 48.004 3.38281 47.9945 3.41427 47.9719C3.44573 47.9494 3.46727 47.9156 3.47438 47.8775L3.83219 46.9298C3.93286 46.8041 4.02401 46.6966 4.13911 46.5749H4.48931ZM1.90585 47.9313L1.93946 47.8268C1.49049 47.7423 1.4339 47.7423 1.61225 47.2531L1.79456 46.7504H2.29061C2.51319 46.7504 2.517 46.8415 2.48339 47.0842H2.61101L2.90731 46.2717H2.77984C2.66855 46.4636 2.58025 46.6055 2.33754 46.6055H1.8483L2.1083 45.8936C2.18883 45.6673 2.23687 45.6203 2.53998 45.6203H2.75575C3.06948 45.6203 3.1069 45.7048 3.1069 46.0222H3.23166L3.33614 45.4688H1.47416L1.44056 45.5732C1.80122 45.6471 1.83483 45.6807 1.66599 46.147L1.26125 47.2531C1.09242 47.7155 1.02234 47.752 0.606988 47.8268L0.576233 47.9313H1.90585Z" fill="black"/>
<path d="M11.0341 42.1968C11.1588 42.1968 11.2671 42.2908 11.2096 42.5306L10.6293 42.6659C10.7309 42.3954 10.8998 42.1968 11.0341 42.1968ZM11.3545 43.1312H11.2394C11.0945 43.303 10.94 43.4382 10.7845 43.4382C10.6263 43.4382 10.5458 43.3441 10.5458 43.1312C10.5455 43.0451 10.5541 42.9592 10.5716 42.875L11.507 42.5671C11.6883 42.1354 11.4686 41.9464 11.2135 41.9464C10.7712 41.9464 10.2685 42.686 10.2685 43.3336C10.2685 43.6234 10.4067 43.7826 10.6225 43.7826C10.8757 43.7826 11.1385 43.536 11.3545 43.1312ZM11.1693 41.7746L11.8274 41.1607V41.0897H11.4724L11.0677 41.7746H11.1693ZM9.15084 42.2064H9.46268L8.96964 43.5522C8.95713 43.5759 8.95088 43.6023 8.95147 43.6291C8.95207 43.6559 8.95949 43.682 8.97304 43.7051C8.98659 43.7282 9.00581 43.7474 9.02888 43.761C9.05196 43.7745 9.07811 43.782 9.10487 43.7826C9.2965 43.7573 9.47863 43.684 9.63431 43.5695C9.78998 43.4549 9.91413 43.3028 9.99519 43.1274H9.90784C9.75331 43.2926 9.55604 43.4117 9.33791 43.4717L9.78878 42.2064H10.2512L10.3088 42.0146H9.86075L10.0315 41.5282H9.85314L9.53275 42.0146L9.15084 42.0682V42.2064ZM8.73358 42.143C8.74292 42.123 8.74734 42.101 8.74647 42.0789C8.7456 42.0568 8.73947 42.0353 8.72858 42.0161C8.71769 41.9968 8.70236 41.9805 8.68388 41.9684C8.66539 41.9563 8.64427 41.9487 8.62229 41.9464C8.35183 41.9464 8.03144 42.1901 7.90382 42.5306H7.99101C8.07817 42.3936 8.21115 42.292 8.36626 42.2438L7.85008 43.5858C7.83971 43.6057 7.83446 43.6278 7.83479 43.6502C7.83512 43.6726 7.84103 43.6945 7.85199 43.7141C7.86294 43.7336 7.87859 43.7501 7.89753 43.762C7.91646 43.774 7.93807 43.7811 7.96042 43.7826C8.21756 43.7826 8.51782 43.536 8.64528 43.1984H8.55809C8.47105 43.3351 8.33855 43.4366 8.18395 43.4852L8.73358 42.143ZM8.82854 41.4677C8.88754 41.4677 8.94413 41.4442 8.98586 41.4025C9.0276 41.3608 9.05107 41.3042 9.05112 41.2452C9.05112 41.1861 9.02762 41.1293 8.98579 41.0875C8.94396 41.0457 8.88723 41.0222 8.82807 41.0222C8.76891 41.0222 8.71218 41.0457 8.67034 41.0875C8.62851 41.1293 8.60501 41.1861 8.60501 41.2452C8.60483 41.2746 8.61049 41.3037 8.62167 41.3308C8.63285 41.358 8.64933 41.3826 8.67014 41.4033C8.69095 41.424 8.71567 41.4404 8.74287 41.4514C8.77007 41.4625 8.79919 41.468 8.82854 41.4677ZM7.03268 43.4852L7.97468 41.0196L7.94409 40.9822L7.35307 41.0495V41.1205L7.46912 41.2077C7.5728 41.2893 7.53919 41.367 7.44423 41.6164L6.71038 43.5522C6.69738 43.5757 6.69071 43.6022 6.69101 43.6291C6.69132 43.656 6.69859 43.6823 6.71212 43.7055C6.72566 43.7287 6.74498 43.748 6.76822 43.7615C6.79145 43.775 6.81779 43.7823 6.84466 43.7826C7.11432 43.7826 7.40111 43.5389 7.52968 43.1984H7.44138C7.34134 43.3373 7.19733 43.4383 7.03268 43.4852ZM5.24553 43.2559C5.24553 42.8406 5.70798 42.2775 5.96686 42.2775C6.02064 42.2768 6.07425 42.2836 6.12619 42.2976L5.85668 43.0161C5.70116 43.205 5.4613 43.4343 5.35017 43.4343C5.2858 43.4343 5.24553 43.3805 5.24553 43.2559ZM6.66615 41.8688L6.52426 41.8591L6.3651 42.0146H6.33149C5.56213 42.0146 4.89819 42.8778 4.89819 43.5053C4.89486 43.5425 4.89971 43.5799 4.91241 43.615C4.92511 43.6501 4.94533 43.682 4.97167 43.7084C4.99801 43.7348 5.02982 43.7552 5.06487 43.768C5.09991 43.7808 5.13734 43.7858 5.17451 43.7826C5.3741 43.7826 5.56973 43.4985 5.78946 43.1955L5.77884 43.303C5.75205 43.6137 5.84606 43.7826 6.00824 43.7826C6.19626 43.7826 6.3689 43.488 6.50032 43.1984H6.41297C6.32087 43.3296 6.23653 43.4075 6.16931 43.4075C6.09924 43.4075 6.04851 43.2799 6.16931 43.0056L6.66615 41.8688ZM3.23185 44.1088C3.23185 43.9303 3.40354 43.819 3.65021 43.7212C3.76844 43.7754 3.89021 43.8216 4.01468 43.8593C4.27087 43.9438 4.36869 43.9782 4.36869 44.0551C4.36869 44.2211 4.08856 44.3457 3.70776 44.3457C3.38721 44.3457 3.23185 44.2775 3.23185 44.1088ZM3.93034 43.0199C3.81889 43.0199 3.77482 42.9249 3.77482 42.8176C3.77482 42.5172 3.937 42.075 4.19018 42.075C4.30147 42.075 4.34475 42.169 4.34475 42.2775C4.34475 42.5776 4.18352 43.0199 3.93034 43.0199ZM4.66229 43.9438C4.66229 43.7279 4.47031 43.6502 4.15578 43.5562C3.88611 43.4747 3.76436 43.4516 3.76436 43.3644C3.77136 43.3162 3.79103 43.2707 3.82136 43.2326C3.85169 43.1945 3.8916 43.1651 3.937 43.1475C4.13014 43.1335 4.31133 43.0487 4.44585 42.9094C4.58038 42.7701 4.6588 42.5861 4.6661 42.3925C4.6664 42.3286 4.65367 42.2653 4.62868 42.2064H5.00282L5.06037 42.0146H4.4665C4.39436 41.9702 4.31135 41.9466 4.22664 41.9464C4.02704 41.9489 3.83591 42.0275 3.69236 42.1662C3.54881 42.3049 3.4637 42.4932 3.45443 42.6927C3.44935 42.7979 3.48277 42.9015 3.54843 42.984C3.6141 43.0664 3.70753 43.1222 3.81128 43.1408C3.59267 43.2386 3.47171 43.3537 3.47171 43.488C3.47029 43.5235 3.47781 43.5588 3.49357 43.5907C3.50933 43.6225 3.53283 43.6499 3.56191 43.6703C3.05635 43.819 2.85787 43.9879 2.85787 44.2268C2.85787 44.4598 3.16383 44.5576 3.5283 44.5576C4.14611 44.5576 4.66229 44.2239 4.66229 43.9438ZM2.30427 42.5C2.52685 42.5 2.5297 42.591 2.49609 42.8337H2.62466L2.92112 42.0213H2.7935C2.68126 42.2131 2.59391 42.3551 2.35119 42.3551H1.86196L2.10848 41.6768C2.18917 41.4504 2.2361 41.4073 2.54032 41.4073H2.75514C3.06967 41.4073 3.10724 41.4918 3.10724 41.8053H3.23185L3.33648 41.2519H1.47435L1.43995 41.3564C1.80061 41.4304 1.83406 41.4648 1.66617 41.9301L1.26144 43.0362C1.0926 43.4985 1.02253 43.5361 0.607171 43.6099L0.576416 43.7144H2.64765L3.01894 43.1274H2.87705C2.75557 43.2588 2.60928 43.365 2.4466 43.4398C2.28393 43.5145 2.10808 43.5563 1.92918 43.5628C1.37939 43.5628 1.43028 43.5389 1.61259 43.0362L1.80822 42.5H2.30427ZM2.57377 41.0869L3.23185 40.635V40.564H2.83377L2.46914 41.0869H2.57377Z" fill="black"/>
<path d="M10.8153 37.9798C10.9399 37.9798 11.0474 38.0738 10.9898 38.3137L10.4104 38.4489C10.5111 38.1785 10.6799 37.9798 10.8153 37.9798ZM11.1357 38.9142H11.0206C10.8747 39.0861 10.7203 39.2213 10.5648 39.2213C10.4066 39.2213 10.3249 39.1264 10.3249 38.9142C10.3255 38.8282 10.3345 38.7424 10.3519 38.6582L11.2872 38.3511C11.4694 37.9185 11.2498 37.7305 10.9927 37.7305C10.5513 37.7305 10.0488 38.4691 10.0488 39.1167C10.0488 39.4063 10.1878 39.5656 10.4028 39.5656C10.656 39.5656 10.9188 39.3191 11.1357 38.9142ZM10.9496 37.5578L11.6076 36.9438V36.8738H11.2536L10.8487 37.5578H10.9496ZM9.01657 37.9905H9.26308L8.77084 39.3355C8.75836 39.3591 8.75213 39.3856 8.75275 39.4123C8.75337 39.4391 8.76081 39.4652 8.77437 39.4883C8.78794 39.5113 8.80717 39.5306 8.83025 39.5441C8.85332 39.5576 8.87948 39.5651 8.90623 39.5656C9.09755 39.5403 9.27938 39.467 9.43483 39.3527C9.59028 39.2383 9.71432 39.0865 9.79544 38.9114H9.7092C9.55376 39.0757 9.35636 39.1945 9.13832 39.2548L9.59014 37.9905H10.0526L10.1101 37.7977H9.66116L9.83285 37.3123H9.6545L9.33411 37.7977L9.01657 37.8513V37.9905ZM8.77369 38.142C8.83806 37.9223 8.80445 37.7305 8.63561 37.7305C8.43602 37.7305 8.38624 37.882 8.18379 38.3166V38.0672C8.18379 37.8888 8.12624 37.7305 7.96406 37.7305C7.77525 37.7305 7.6034 38.0241 7.47198 38.3137H7.55933C7.65033 38.1823 7.73482 38.1046 7.80188 38.1046C7.88353 38.1046 7.92665 38.2294 7.80188 38.5055L7.43742 39.3153C7.37036 39.4678 7.44138 39.5656 7.59008 39.5656C7.68108 39.5656 7.72151 39.5417 7.75781 39.4439L8.11562 38.496C8.2174 38.3713 8.30856 38.263 8.42365 38.142H8.77369ZM6.70261 37.9798C6.82833 37.9798 6.93582 38.0738 6.87716 38.3137L6.29772 38.4489C6.39855 38.1785 6.56739 37.9798 6.70261 37.9798ZM7.02301 38.9142H6.90887C6.76302 39.0861 6.60765 39.2213 6.45324 39.2213C6.29487 39.2213 6.21338 39.1264 6.21338 38.9142C6.21387 38.8282 6.22284 38.7425 6.24017 38.6582L7.17457 38.3511C7.35688 37.9185 7.13811 37.7305 6.88096 37.7305C6.43882 37.7305 5.93706 38.4691 5.93706 39.1167C5.93706 39.4063 6.07514 39.5656 6.29106 39.5656C6.54424 39.5656 6.80725 39.3191 7.02301 38.9142ZM4.73221 39.2923C4.64105 39.2923 4.51058 39.2078 4.51058 39.134C4.53431 39.0452 4.56446 38.9583 4.60078 38.874L4.75329 38.4721C4.91452 38.2801 5.16104 38.0738 5.29912 38.0738C5.38362 38.0738 5.44782 38.1285 5.44782 38.2533C5.44782 38.6206 5.10444 39.2923 4.73221 39.2923ZM5.79517 38.1046C5.79517 37.8311 5.69434 37.7305 5.50537 37.7305C5.26932 37.7305 5.04594 37.9798 4.82431 38.2831L5.38727 36.8029L5.35667 36.7655L4.76582 36.8325V36.9036L4.88091 36.9919C4.98633 37.0724 4.95272 37.1569 4.85792 37.3994L4.25058 38.9651C4.20963 39.0577 4.1769 39.1536 4.15277 39.2519C4.15277 39.4131 4.37138 39.5656 4.57098 39.5656C5.02961 39.5656 5.79517 38.7387 5.79517 38.1046ZM3.95999 37.9263C3.96941 37.9063 3.97389 37.8843 3.97304 37.8622C3.97219 37.8402 3.96604 37.8186 3.95511 37.7994C3.94419 37.7802 3.9288 37.7639 3.91025 37.7519C3.8917 37.7399 3.87053 37.7326 3.84854 37.7305C3.57904 37.7305 3.25864 37.9732 3.13007 38.3137H3.21837C3.30543 38.177 3.43792 38.0755 3.59251 38.0269L3.07538 39.37C3.06543 39.39 3.06058 39.4121 3.06124 39.4344C3.0619 39.4567 3.06805 39.4785 3.07915 39.4979C3.09026 39.5172 3.10597 39.5335 3.12489 39.5453C3.14381 39.5572 3.16536 39.5641 3.18762 39.5656C3.44381 39.5656 3.74502 39.3191 3.87264 38.9814H3.78529C3.69814 39.1184 3.56523 39.22 3.4102 39.2682L3.95999 37.9263ZM4.05495 37.2507C4.08411 37.2507 4.11298 37.2449 4.1399 37.2337C4.16683 37.2225 4.19128 37.2061 4.21186 37.1855C4.23245 37.1648 4.24876 37.1403 4.25986 37.1133C4.27097 37.0864 4.27665 37.0575 4.27658 37.0283C4.27658 36.9991 4.27083 36.9703 4.25967 36.9433C4.2485 36.9163 4.23214 36.8918 4.21151 36.8712C4.19087 36.8506 4.16638 36.8342 4.13942 36.8231C4.11247 36.8119 4.08357 36.8061 4.0544 36.8061C4.02522 36.8061 3.99633 36.8119 3.96937 36.8231C3.94241 36.8342 3.91792 36.8506 3.89729 36.8712C3.87666 36.8918 3.86029 36.9163 3.84913 36.9433C3.83796 36.9703 3.83221 36.9991 3.83221 37.0283C3.83194 37.0576 3.83751 37.0867 3.84861 37.1138C3.85971 37.141 3.87611 37.1656 3.89686 37.1863C3.9176 37.207 3.94227 37.2234 3.96941 37.2345C3.99656 37.2455 4.02564 37.2511 4.05495 37.2507ZM2.69553 37.035H1.46753L1.43392 37.1396C1.79474 37.2143 1.82835 37.2479 1.65952 37.7132L1.26144 38.8193C1.09244 39.2817 1.02253 39.3191 0.607171 39.393L0.576416 39.4976H2.44521L2.84994 38.7752H2.709C2.47866 39.0295 2.20915 39.3461 1.79474 39.3461C1.48005 39.3461 1.44359 39.2923 1.61243 38.8193L2.01067 37.7132C2.17554 37.2507 2.24942 37.2143 2.66493 37.1396L2.69553 37.035Z" fill="black"/>
<path d="M0.576965 9.19113H1.73717L2.8582 11.1185L3.97924 9.19113H5.13959V13.78H4.20868V10.4891L3.18595 12.2067H2.53045L1.50773 10.4891V13.78H0.576965V9.19113Z" fill="black"/>
<path d="M6.41779 9.19113H7.3487V13.78H6.41779V9.19113Z" fill="black"/>
<path d="M8.63354 9.19113H9.82657L11.8785 12.5083V9.19113H12.8094V13.78H11.6163L9.56431 10.4629V13.78H8.63354V9.19113Z" fill="black"/>
<path d="M14.0941 9.19113H15.025V13.78H14.0941V9.19113Z" fill="black"/>
<path d="M16.5722 12.5213C16.6875 12.6864 16.8389 12.823 17.015 12.9207C17.1911 13.0184 17.3871 13.0746 17.5882 13.0851C17.9553 13.0851 18.1782 12.8885 18.1782 12.5606C18.1782 11.7149 16.0936 11.9444 16.0936 10.3908C16.0936 9.66308 16.6966 9.05998 17.5751 9.05998C17.8839 9.0587 18.189 9.12767 18.4673 9.26169C18.7456 9.3957 18.9897 9.59125 19.1813 9.83353L18.4995 10.4498C18.2307 10.1023 17.9291 9.87285 17.5817 9.87285C17.5136 9.86627 17.4448 9.87384 17.3797 9.89511C17.3147 9.91638 17.2547 9.95087 17.2036 9.99643C17.1525 10.042 17.1113 10.0976 17.0828 10.1598C17.0542 10.2221 17.0388 10.2895 17.0375 10.358C17.0375 11.1905 19.1223 10.9546 19.1223 12.5279C19.1092 13.3932 18.4405 13.9111 17.5949 13.9111C17.2715 13.9259 16.9491 13.8642 16.654 13.7309C16.359 13.5976 16.0995 13.3965 15.8969 13.1441L16.5722 12.5213Z" fill="black"/>
<path d="M19.6268 9.19113H23.3898V10.0367H21.9737V13.78H21.043V10.0367H19.6268V9.19113Z" fill="black"/>
<path d="M24.2093 9.19114H26.8839V9.96469H25.1401V11.0529H26.6217V11.8264H25.1401V13.0065H26.8839V13.78H24.2093V9.19114ZM24.2879 7.91281H25.245L25.9858 8.79774H25.1335L24.2879 7.91281Z" fill="black"/>
<path d="M27.9655 9.19113H29.3683C30.3778 9.19113 31.0007 9.709 31.0007 10.5612C31.0121 10.8108 30.9474 11.0579 30.8151 11.2699C30.6828 11.4818 30.4891 11.6485 30.2599 11.7478L31.6955 13.78H30.6008L29.3749 11.9247H28.8962V13.78H27.9655V9.19113ZM28.8962 9.96468V11.1512H29.4207C29.8141 11.1512 30.0436 10.9218 30.0436 10.5481C30.0436 10.2007 29.8141 9.96468 29.4207 9.96468H28.8962Z" fill="black"/>
<path d="M32.2853 9.19113H34.9601V9.96468H33.2163V11.0529H34.6979V11.8264H33.2163V13.0065H34.9601V13.78H32.2853V9.19113Z" fill="black"/>
<path d="M0.576965 15.8495H2.37966C3.83495 15.8495 4.81835 16.9049 4.81835 18.1439C4.81835 19.3829 3.83495 20.4384 2.37966 20.4384H0.576965V15.8495ZM1.50773 16.6951V19.5927H2.39282C2.58472 19.5953 2.77522 19.5597 2.95326 19.4881C3.1313 19.4164 3.29334 19.3101 3.42996 19.1753C3.56657 19.0405 3.67505 18.88 3.74909 18.7029C3.82313 18.5258 3.86126 18.3358 3.86126 18.1439C3.86126 17.952 3.82313 17.762 3.74909 17.5849C3.67505 17.4079 3.56657 17.2473 3.42996 17.1125C3.29334 16.9777 3.1313 16.8714 2.95326 16.7998C2.77522 16.7281 2.58472 16.6925 2.39282 16.6951H1.50773Z" fill="black"/>
<path d="M5.71649 15.8495H8.39112V16.6231H6.64726V17.7113H8.12886V18.4848H6.64726V19.6648H8.39112V20.4384H5.71649V15.8495Z" fill="black"/>
<path d="M11.1771 15.8495H12.1078V19.5927H13.8517V20.4384H11.1771V15.8495Z" fill="black"/>
<path d="M14.1138 17.7375L14.7038 15.8495H15.6479L14.8874 17.7375H14.1138Z" fill="black"/>
<path d="M17.5357 15.8495H18.7551L20.4924 20.4384H19.5025L19.0633 19.2453H17.2276L16.7884 20.4384H15.7985L17.5357 15.8495ZM18.7747 18.4521L18.1454 16.728L17.5161 18.4521L18.7747 18.4521Z" fill="black"/>
<path d="M24.3796 19.2977V18.498H23.2127V17.7047H25.3105V19.632C25.074 19.934 24.7698 20.1762 24.4225 20.3391C24.0751 20.5019 23.6944 20.5809 23.311 20.5695C21.8229 20.5695 20.8068 19.4551 20.8068 18.1439C20.8119 17.6371 20.9741 17.1443 21.271 16.7335C21.5679 16.3227 21.9848 16.014 22.4644 15.8501C22.9441 15.6862 23.4627 15.675 23.9489 15.8181C24.4352 15.9613 24.8651 16.2517 25.1793 16.6493L24.4452 17.2196C24.3125 17.024 24.1336 16.8643 23.9243 16.7545C23.715 16.6447 23.4818 16.5883 23.2455 16.5903C22.3802 16.5903 21.7639 17.2655 21.7639 18.1439C21.7581 18.349 21.7941 18.5531 21.8697 18.7438C21.9453 18.9345 22.0589 19.1078 22.2036 19.2532C22.3484 19.3985 22.5212 19.5129 22.7116 19.5893C22.902 19.6657 23.1059 19.7026 23.311 19.6976C23.7054 19.7069 24.0881 19.5636 24.3796 19.2977Z" fill="black"/>
<path d="M26.3462 15.8495H27.7491C28.7587 15.8495 29.3814 16.3674 29.3814 17.2196C29.3929 17.4692 29.3282 17.7163 29.1959 17.9283C29.0635 18.1402 28.8699 18.3069 28.6406 18.4062L30.0764 20.4384H28.9815L27.7556 18.5831H27.2771V20.4384H26.3462V15.8495ZM27.2771 16.6231V17.8096H27.8015C28.1949 17.8096 28.4243 17.5801 28.4243 17.2065C28.4243 16.8591 28.1949 16.6231 27.8015 16.6231H27.2771Z" fill="black"/>
<path d="M30.6663 15.8495H31.5972V20.4384H30.6663V15.8495Z" fill="black"/>
<path d="M36.127 19.0683L36.8611 19.632C36.6367 19.931 36.3442 20.1721 36.0078 20.3352C35.6715 20.4982 35.301 20.5786 34.9273 20.5695C34.5169 20.5656 34.1143 20.4576 33.757 20.2556C33.3997 20.0537 33.0995 19.7644 32.8845 19.4148C32.6695 19.0653 32.5467 18.6669 32.5276 18.2569C32.5085 17.847 32.5937 17.4389 32.7752 17.0709C32.9568 16.7028 33.2288 16.3868 33.5657 16.1525C33.9026 15.9182 34.2935 15.7732 34.7017 15.7311C35.1099 15.689 35.5222 15.7511 35.8998 15.9117C36.2775 16.0723 36.6083 16.3261 36.8611 16.6493L36.127 17.2196C35.9943 17.024 35.8154 16.8642 35.6061 16.7545C35.3968 16.6447 35.1636 16.5883 34.9273 16.5903C34.0619 16.5903 33.4457 17.2655 33.4457 18.1439C33.4457 19.0224 34.0619 19.6976 34.9273 19.6976C35.1636 19.6996 35.3968 19.6432 35.6061 19.5334C35.8154 19.4236 35.9943 19.2638 36.127 19.0683Z" fill="black"/>
<path d="M40.3225 15.8495H41.2533V18.6422C41.2533 19.8484 40.5453 20.5695 39.3916 20.5695C38.2444 20.5695 37.5364 19.8484 37.5364 18.6422V15.8495H38.4672V18.7208C38.4672 19.3371 38.8148 19.6976 39.3981 19.6976C39.9685 19.6976 40.3225 19.3371 40.3225 18.7208V15.8495Z" fill="black"/>
<path d="M42.4069 15.8495H43.3378V19.5927H45.0816V20.4384H42.4069V15.8495Z" fill="black"/>
<path d="M45.429 15.8495H49.1919V16.6951H47.7759V20.4384H46.845V16.6951H45.429L45.429 15.8495Z" fill="black"/>
<path d="M52.6663 15.8495H53.597V18.6422C53.597 19.8484 52.8891 20.5695 51.7354 20.5695C50.5882 20.5695 49.8802 19.8484 49.8802 18.6422V15.8495H50.811V18.7208C50.811 19.3371 51.1585 19.6976 51.7419 19.6976C52.3122 19.6976 52.6663 19.3371 52.6663 18.7208V15.8495Z" fill="black"/>
<path d="M54.7507 15.8495H56.1537C57.1633 15.8495 57.7861 16.3674 57.7861 17.2196C57.7976 17.4692 57.7328 17.7163 57.6005 17.9283C57.4682 18.1402 57.2746 18.3069 57.0453 18.4062L58.4809 20.4384H57.3862L56.1602 18.5831H55.6817V20.4384H54.7507V15.8495ZM55.6817 16.6231V17.8096H56.2062C56.5994 17.8096 56.8288 17.5801 56.8288 17.2065C56.8288 16.8591 56.5994 16.6231 56.2062 16.6231H55.6817Z" fill="black"/>
<path d="M59.0708 15.8495H61.7456V16.6231H60.0017V17.7113H61.4833V18.4848H60.0017V19.6648H61.7456V20.4384H59.0708V15.8495Z" fill="black"/>
<path d="M0.576965 22.5078H3.25159V23.2814H1.50773V24.3696H2.98933V25.1432H1.50773V26.3231H3.25159V27.0967H0.576965V22.5078Z" fill="black"/>
<path d="M3.86115 22.5078H7.62414V23.3535H6.20803V27.0967H5.27726V23.3535H3.86115V22.5078Z" fill="black"/>
<path d="M10.1478 22.5078H11.9507C13.406 22.5078 14.3894 23.5632 14.3894 24.8023C14.3894 26.0413 13.406 27.0967 11.9507 27.0967H10.1478V22.5078ZM11.0787 23.3535V26.2511H11.9637C12.1556 26.2537 12.3461 26.2181 12.5241 26.1465C12.7022 26.0748 12.8642 25.9685 13.0008 25.8337C13.1374 25.6989 13.2459 25.5383 13.3199 25.3613C13.394 25.1842 13.4321 24.9942 13.4321 24.8023C13.4321 24.6104 13.394 24.4204 13.3199 24.2433C13.2459 24.0662 13.1374 23.9056 13.0008 23.7709C12.8642 23.6361 12.7022 23.5298 12.5241 23.4581C12.3461 23.3865 12.1556 23.3509 11.9637 23.3535H11.0787Z" fill="black"/>
<path d="M15.2873 22.5078H17.9619V23.2814H16.2181V24.3696H17.6997V25.1432H16.2181V26.3231H17.9619V27.0967H15.2873V22.5078Z" fill="black"/>
<path d="M20.7479 22.5078H21.6788V26.2511H23.4225V27.0967H20.7479L20.7479 22.5078Z" fill="black"/>
<path d="M25.4023 22.5078H26.6216L28.3589 27.0967H27.369L26.9297 25.9035H25.0942L24.655 27.0967H23.6651L25.4023 22.5078ZM26.6413 25.1104L26.012 23.3863L25.3826 25.1104L26.6413 25.1104Z" fill="black"/>
<path d="M31.0334 25.838C31.1486 26.0031 31.3001 26.1398 31.4762 26.2375C31.6523 26.3352 31.8483 26.3914 32.0494 26.4019C32.4165 26.4019 32.6394 26.2051 32.6394 25.8774C32.6394 25.0317 30.5548 25.2612 30.5548 23.7075C30.5548 22.9798 31.1578 22.3767 32.0363 22.3767C32.3451 22.3754 32.6502 22.4444 32.9284 22.5784C33.2067 22.7124 33.4508 22.908 33.6423 23.1502L32.9607 23.7665C32.6919 23.419 32.3903 23.1896 32.0429 23.1896C31.9748 23.183 31.906 23.1905 31.8409 23.2118C31.7758 23.2331 31.7158 23.2676 31.6647 23.3131C31.6136 23.3587 31.5725 23.4143 31.5439 23.4765C31.5154 23.5388 31.5 23.6062 31.4987 23.6747C31.4987 24.5072 33.5834 24.2713 33.5834 25.8445C33.5704 26.71 32.9017 27.2278 32.0559 27.2278C31.7325 27.2426 31.4102 27.1809 31.1152 27.0476C30.8201 26.9143 30.5607 26.7133 30.358 26.4609L31.0334 25.838Z" fill="black"/>
<path d="M39.0375 24.8023C39.0395 25.2845 38.8982 25.7565 38.6316 26.1583C38.3651 26.5602 37.9852 26.8738 37.5402 27.0596C37.0951 27.2453 36.605 27.2947 36.1318 27.2016C35.6587 27.1085 35.2238 26.877 34.8824 26.5364C34.541 26.1959 34.3083 25.7617 34.2139 25.2887C34.1195 24.8158 34.1677 24.3256 34.3522 23.88C34.5368 23.4345 34.8494 23.0538 35.2506 22.7862C35.6517 22.5186 36.1233 22.376 36.6055 22.3767C36.9261 22.3703 37.2447 22.4286 37.5423 22.5481C37.8398 22.6677 38.1102 22.846 38.3372 23.0724C38.5643 23.2989 38.7433 23.5688 38.8636 23.866C38.984 24.1632 39.0431 24.4817 39.0375 24.8023ZM38.0805 24.8023C38.0805 23.9238 37.4643 23.2486 36.6055 23.2486C35.7401 23.2486 35.1239 23.9238 35.1239 24.8023C35.1239 25.6807 35.7401 26.3559 36.6055 26.3559C37.4643 26.3559 38.0805 25.6807 38.0805 24.8023Z" fill="black"/>
<path d="M42.5841 22.5078H43.5149V25.3005C43.5149 26.5067 42.8069 27.2278 41.6532 27.2278C40.506 27.2278 39.798 26.5067 39.798 25.3005V22.5078H40.7288V25.3792C40.7288 25.9953 41.0764 26.3559 41.6597 26.3559C42.2301 26.3559 42.5841 25.9953 42.5841 25.3792V22.5078Z" fill="black"/>
<path d="M45.0816 22.5078L46.4386 26.0937L47.7956 22.5078H48.7855L47.0483 27.0967H45.8289L44.0917 22.5078H45.0816Z" fill="black"/>
<path d="M49.4933 22.5078H52.1681V23.2814H50.4242V24.3696H51.9058V25.1432H50.4242V26.3231H52.1681V27.0967H49.4933V22.5078Z" fill="black"/>
<path d="M53.2495 22.5078H54.6525C55.662 22.5078 56.2849 23.0257 56.2849 23.8779C56.2963 24.1275 56.2316 24.3746 56.0993 24.5866C55.967 24.7985 55.7733 24.9651 55.5441 25.0644L56.9797 27.0967H55.885L54.659 25.2415H54.1804V27.0967H53.2495V22.5078ZM54.1804 23.2814V24.4679H54.705C55.0982 24.4679 55.3276 24.2385 55.3276 23.8648C55.3276 23.5174 55.0982 23.2814 54.705 23.2814H54.1804Z" fill="black"/>
<path d="M58.7299 22.5078H59.9492L61.6864 27.0967H60.6965L60.2573 25.9035H58.4218L57.9826 27.0967H56.9927L58.7299 22.5078ZM59.9689 25.1104L59.3396 23.3863L58.7102 25.1104L59.9689 25.1104Z" fill="black"/>
<path d="M62.3943 22.5078H63.3252V27.0967H62.3943V22.5078Z" fill="black"/>
<path d="M64.61 22.5078H65.8032L67.8551 25.8249V22.5078H68.7859V27.0967H67.5929L65.5409 23.7796V27.0967H64.61L64.61 22.5078Z" fill="black"/>
<path d="M70.0707 22.5078H72.7455V23.2814H71.0017V24.3696H72.4833V25.1432H71.0017V26.3231H72.7455V27.0967H70.0707V22.5078Z" fill="black"/>
<path d="M73.355 22.5078H77.1179V23.3535H75.7019V27.0967H74.771V23.3535H73.355V22.5078Z" fill="black"/>
<path d="M77.9372 22.5078H80.612V23.2814H78.8681V24.3696H80.3497V25.1432H78.8681V26.3231H80.612V27.0967H77.9372V22.5078ZM78.8419 22.1145L79.5827 21.2295H80.5398L79.6876 22.1145H78.8419Z" fill="black"/>
<path d="M1.73721 29.1662H2.95655L4.69392 33.7551H3.70401L3.26479 32.5619H1.42912L0.989904 33.7551H0L1.73721 29.1662ZM2.97621 31.7688L2.34688 30.0446L1.71755 31.7688H2.97621Z" fill="black"/>
<path d="M5.40173 29.1662H6.3325V32.9095H8.07636V33.7551H5.40173V29.1662Z" fill="black"/>
<path d="M8.89581 29.1662H9.82658V33.7551H8.89581V29.1662Z" fill="black"/>
<path d="M11.1116 29.1662H12.2718L13.3928 31.0935L14.5138 29.1662H15.6742V33.7551H14.7433V30.4642L13.7206 32.1819H13.0651L12.0423 30.4642V33.7551H11.1116V29.1662Z" fill="black"/>
<path d="M16.9523 29.1662H19.627V29.9398H17.8833V31.028H19.3649V31.8016H17.8833V32.9815H19.627V33.7551H16.9523V29.1662Z" fill="black"/>
<path d="M20.7087 29.1662H21.9017L23.9537 32.4833V29.1662H24.8846V33.7551H23.6914L21.6394 30.438V33.7551H20.7087V29.1662Z" fill="black"/>
<path d="M25.6972 29.1662H29.4602V30.0119H28.0441V33.7551H27.1133V30.0119H25.6972V29.1662Z" fill="black"/>
<path d="M31.4398 29.1662H32.6592L34.3964 33.7551H33.4065L32.9673 32.5619H31.1318L30.6925 33.7551H29.7026L31.4398 29.1662ZM32.6789 31.7688L32.0495 30.0446L31.4202 31.7688H32.6789Z" fill="black"/>
<path d="M35.1042 29.1662H36.0352V33.7551H35.1042V29.1662Z" fill="black"/>
<path d="M37.3198 29.1662H38.7228C39.7323 29.1662 40.3552 29.6842 40.3552 30.5363C40.3666 30.7859 40.3019 31.033 40.1696 31.245C40.0373 31.4569 39.8436 31.6236 39.6144 31.7228L41.05 33.7551H39.9553L38.7293 31.8999H38.2507V33.7551H37.3198V29.1662ZM38.2507 29.9398V31.1263H38.7753C39.1685 31.1263 39.3979 30.8969 39.3979 30.5233C39.3979 30.1757 39.1685 29.9398 38.7753 29.9398H38.2507Z" fill="black"/>
<path d="M41.6399 29.1662H44.3147V29.9398H42.5708V31.028H44.0524V31.8016H42.5708V32.9815H44.3147V33.7551H41.6399V29.1662Z" fill="black"/>
</svg>
