<svg width="24" height="18" viewBox="0 0 24 18" fill="none" xmlns="http://www.w3.org/2000/svg">
<path d="M0.841702 5.99333C0.75 6.46386 0.75 7.0433 0.75 8.0139V10.3487C0.75 11.5529 0.75 12.155 0.925134 12.694C1.08009 13.1709 1.33356 13.6099 1.6691 13.9826C2.04833 14.4038 2.56977 14.7048 3.61264 15.3069L5.6346 16.4743C6.55753 17.0072 7.07208 17.3043 7.56247 17.4472V10.2434C7.56247 9.88329 7.36578 9.55194 7.04965 9.37951L0.841702 5.99333Z" fill="#F5F5FE"/>
<path d="M17.747 7.05139V10.8075C17.747 11.3269 17.9727 11.8206 18.3654 12.1604L21.0688 14.5C21.227 14.6338 21.3912 14.7433 21.5616 14.8285C21.738 14.9076 21.9084 14.9471 22.0726 14.9471C22.4255 14.9471 22.7084 14.8315 22.9213 14.6003C23.1404 14.3631 23.2499 14.0558 23.2499 13.6786V4.18772C23.2499 3.81052 23.1404 3.50633 22.9213 3.27514C22.7084 3.03786 22.4255 2.91923 22.0726 2.91923C21.9084 2.91923 21.738 2.95877 21.5616 3.03786C21.3912 3.11696 21.227 3.22647 21.0688 3.3664L18.3675 5.69665C17.9735 6.03652 17.747 6.53107 17.747 7.05139Z" fill="#F5F5FE"/>
<path d="M1.74517 4.65189C1.67 4.61088 1.59117 4.58311 1.51135 4.56778C1.56171 4.50349 1.61433 4.44084 1.66914 4.37997C2.04837 3.95879 2.56981 3.65774 3.61268 3.05564L5.63464 1.88825C6.67751 1.28614 7.19894 0.985091 7.7533 0.867257C8.2438 0.762998 8.75074 0.762998 9.24124 0.867257C9.7956 0.985091 10.317 1.28614 11.3599 1.88825L13.358 3.04187C13.366 3.04644 13.374 3.05104 13.3819 3.05564C14.4248 3.65774 14.9462 3.9588 15.3255 4.37997C15.661 4.75263 15.9145 5.19165 16.0694 5.66857C16.2446 6.20758 16.2446 6.80969 16.2446 8.0139V10.3487C16.2446 11.5529 16.2446 12.155 16.0694 12.694C15.9145 13.1709 15.661 13.6099 15.3255 13.9826C14.9462 14.4038 14.4248 14.7048 13.382 15.3069C13.373 15.3121 13.364 15.3172 13.3551 15.3224L11.3599 16.4743C10.317 17.0764 9.7956 17.3775 9.24124 17.4953C9.21846 17.5002 9.19564 17.5048 9.17279 17.5092L9.17278 10.2434C9.17278 9.29402 8.65422 8.42048 7.82079 7.96588L1.74517 4.65189Z" fill="#F5F5FE"/>
</svg>
