<svg width="102" height="40" viewBox="0 0 102 40" fill="none" xmlns="http://www.w3.org/2000/svg">
<path d="M101.085 31.2654C101.085 32.0874 101.085 32.4984 101.001 32.8749C100.845 33.5706 100.481 34.2022 99.9563 34.6848C99.6724 34.946 99.3165 35.1516 98.6047 35.5627L95.4963 37.3584C94.7839 37.7699 94.4278 37.9757 94.0594 38.0912C93.3787 38.3046 92.6489 38.3046 91.9682 38.0912C91.5998 37.9757 91.2437 37.7699 90.5313 37.3584L88.418 36.1376C87.5222 35.6201 87.0743 35.3614 86.8662 35.0618C86.4774 34.502 86.4778 33.7593 86.8671 33.1998C87.0755 32.9005 87.5236 32.6422 88.4199 32.1256L90.5383 30.9046C91.2513 30.4937 91.6077 30.2882 91.8921 30.027C92.4176 29.5443 92.7828 28.9123 92.9386 28.2159C93.0229 27.8391 93.0229 27.4277 93.0229 26.6048V24.1693C93.0229 23.1353 93.0229 22.6183 93.1781 22.2884C93.4683 21.6717 94.1113 21.3005 94.7904 21.3576C95.1537 21.3881 95.6014 21.6466 96.4969 22.1636L98.6037 23.3799C99.3157 23.791 99.6718 23.9966 99.9558 24.2578C100.481 24.7404 100.845 25.3721 101.001 26.068C101.085 26.4446 101.085 26.8557 101.085 27.6779V31.2654Z" fill="#C83F49"/>
<path fill-rule="evenodd" clip-rule="evenodd" d="M83.0706 16.0829C86.1003 16.0829 88.0967 18.0183 88.3409 20.7683C88.3949 21.376 88.426 22.0411 88.3194 22.641C88.2846 22.8372 88.1102 22.9745 87.911 22.9745H80.3311C80.2018 22.9745 80.1015 23.0888 80.1234 23.2162C80.4672 25.2139 81.5672 26.0493 83.325 26.0493C83.8388 26.0492 84.364 25.8663 84.7415 25.6964C84.9508 25.6022 85.0563 25.555 85.1257 25.5394C85.273 25.5065 85.3683 25.5125 85.5107 25.5628C85.5777 25.5865 85.6561 25.634 85.813 25.7286L86.4622 26.1205C86.8842 26.3749 87.0959 26.5018 87.1827 26.6313C87.3462 26.8759 87.3408 27.189 87.1691 27.4278C87.0779 27.5544 86.8686 27.6714 86.4496 27.9045C86.135 28.0796 85.8133 28.2387 85.4776 28.3589C84.3175 28.7739 83.0793 28.7873 81.8324 28.5236C78.7304 27.8675 77.0808 25.3007 77.0808 22.3729C77.0809 18.9271 79.2548 16.083 83.0706 16.0829ZM83.0013 18.488C81.585 18.488 80.62 19.2268 80.2424 20.5889C80.2059 20.7204 80.3087 20.8472 80.4451 20.8472H85.3226C85.4443 20.847 85.5425 20.7448 85.5273 20.624C85.3884 19.5232 84.5399 18.488 83.0013 18.488Z" fill="#2845C1"/>
<path d="M43.1083 11.5934C45.3083 11.5935 47.033 12.4875 48.3689 13.8776C48.4711 13.984 48.5225 14.0372 48.5531 14.1038C48.6076 14.2228 48.6022 14.3769 48.5395 14.4918C48.5043 14.5563 48.445 14.6104 48.326 14.718L46.8578 16.0448C46.7211 16.1683 46.6522 16.2309 46.5858 16.2593C46.4566 16.3145 46.3273 16.3073 46.2046 16.2389C46.1415 16.2037 46.0744 16.1288 45.9404 15.9795C45.1026 15.0463 44.1752 14.4577 43.1307 14.4577C41.9763 14.4579 41.2142 15.1969 41.2141 16.1667C41.2141 17.402 42.5167 17.9702 44.0247 18.6274C46.0976 19.5308 48.5589 20.6032 48.559 23.8119C48.5128 26.8607 46.157 28.6854 43.1775 28.6854C40.6937 28.6854 38.9576 27.8607 37.5855 26.4207C37.4848 26.3151 37.4344 26.2618 37.4041 26.1955C37.3505 26.0777 37.3556 25.9256 37.4168 25.8114C37.4513 25.7472 37.5097 25.6929 37.6264 25.5853L39.0829 24.2428C39.2203 24.1161 39.2891 24.0524 39.3539 24.0235C39.4827 23.9661 39.6041 23.9693 39.7293 24.0342C39.7924 24.0669 39.8658 24.1428 40.012 24.2945C40.9169 25.2332 42.0269 25.7753 43.1541 25.7754C44.4474 25.7754 45.2325 25.0826 45.2326 23.9279C45.2326 22.6631 43.9093 22.0807 42.3859 21.4107C40.3208 20.5025 37.8888 19.4326 37.8887 16.2827C37.8887 13.719 40.0133 11.5934 43.1083 11.5934Z" fill="#2845C1"/>
<path d="M52.7238 16.583C52.8928 16.583 52.9773 16.5831 53.0455 16.6064C53.1721 16.6497 53.2722 16.7488 53.3155 16.8755C53.3389 16.9437 53.3389 17.0288 53.3389 17.1982V23.1889C53.3391 24.8746 54.2163 25.9137 55.8327 25.9138C57.4263 25.9138 58.304 24.8748 58.3041 23.1889V17.1982C58.3041 17.0288 58.3042 16.9437 58.3275 16.8755C58.3709 16.7488 58.4709 16.6497 58.5976 16.6064C58.6657 16.5831 58.7502 16.583 58.9193 16.583H60.6458C60.8152 16.583 60.9003 16.583 60.9685 16.6064C61.0949 16.6498 61.1943 16.749 61.2376 16.8755C61.261 16.9437 61.261 17.0288 61.261 17.1982V23.0495C61.261 26.5371 59.2285 28.6853 55.8103 28.6854C52.392 28.6854 50.3821 26.5372 50.3821 23.0495V17.1982C50.3821 17.0288 50.3821 16.9437 50.4055 16.8755C50.4488 16.749 50.5482 16.6498 50.6745 16.6064C50.7427 16.583 50.8279 16.583 50.9972 16.583H52.7238Z" fill="#2845C1"/>
<path fill-rule="evenodd" clip-rule="evenodd" d="M29.7814 16.1111C33.1534 16.1112 34.8859 18.1208 34.886 20.6844V27.5994C34.886 27.7684 34.8858 27.853 34.8626 27.9211C34.8192 28.0477 34.7191 28.1478 34.5925 28.1912C34.5244 28.2144 34.4397 28.2146 34.2708 28.2146H32.5676C32.3983 28.2146 32.3131 28.2145 32.245 28.1912C32.1184 28.1478 32.0192 28.0477 31.9759 27.9211C31.9526 27.853 31.9525 27.7684 31.9525 27.5994V27.4785C31.9525 27.3751 31.9523 27.3232 31.9408 27.3011C31.9176 27.2574 31.8735 27.2383 31.8257 27.2514C31.8017 27.2583 31.7612 27.2961 31.6815 27.3713C30.9041 28.1045 29.6757 28.5605 28.4653 28.5607C26.1326 28.5607 24.5385 27.2212 24.5383 25.0734C24.5383 23.3182 25.9008 22.001 28.3951 21.5852L31.6561 21.0344C31.827 21.0055 31.9525 20.8578 31.9525 20.6844C31.9524 19.4604 31.0283 18.6751 29.6888 18.6751C28.7856 18.6752 28.0445 19.0138 27.465 19.5847C27.3118 19.7356 27.2346 19.811 27.1764 19.8411C27.056 19.9034 26.9557 19.9093 26.8284 19.8626C26.7669 19.8399 26.6966 19.7863 26.5564 19.6793L25.3846 18.7853C25.2593 18.6896 25.1966 18.6415 25.1555 18.5776C25.0843 18.4668 25.0691 18.2997 25.1194 18.1779C25.1484 18.1076 25.1949 18.0567 25.2871 17.9557C26.3404 16.8013 27.8975 16.1111 29.7814 16.1111ZM31.5947 23.1002L29.1808 23.5029C27.957 23.7107 27.4486 24.2182 27.4484 24.934C27.4484 25.7193 28.0726 26.2277 29.0658 26.2277C30.2378 26.2276 31.1268 25.7502 31.7175 25.012C31.7577 24.9618 31.778 24.9365 31.814 24.8755C31.8689 24.7824 31.9275 24.6159 31.9427 24.509C31.9527 24.439 31.9525 24.3839 31.9525 24.274V23.4034C31.9525 23.3054 31.952 23.2564 31.9379 23.2192C31.9114 23.1498 31.8517 23.0984 31.7789 23.0837C31.7399 23.0758 31.6914 23.0841 31.5947 23.1002Z" fill="#2845C1"/>
<path d="M72.1916 13.6729C72.3609 13.6729 72.4461 13.673 72.5143 13.6963C72.6407 13.7398 72.7401 13.8389 72.7834 13.9654C72.8067 14.0335 72.8068 14.1181 72.8068 14.2871V16.3705C72.8068 16.4288 72.8065 16.4581 72.8146 16.4816C72.8296 16.5254 72.8644 16.5592 72.9082 16.5742C72.9317 16.5822 72.9609 16.583 73.0193 16.583H75.749C75.9181 16.583 76.0026 16.5831 76.0708 16.6064C76.1973 16.6497 76.2964 16.749 76.3398 16.8755C76.3632 16.9437 76.3632 17.0288 76.3632 17.1982V18.601C76.3632 18.7701 76.3631 18.8546 76.3398 18.9228C76.2965 19.0494 76.1974 19.1495 76.0708 19.1928C76.0026 19.2161 75.918 19.2162 75.749 19.2162H73.0193C72.961 19.2162 72.9317 19.216 72.9082 19.224C72.8645 19.239 72.8296 19.273 72.8146 19.3166C72.8065 19.3402 72.8068 19.3702 72.8068 19.4287V23.9737C72.8068 25.2671 73.4995 25.7753 74.6542 25.7754C75.1071 25.7754 75.4731 25.7464 75.7763 25.6925C75.985 25.6554 76.0893 25.6371 76.1439 25.6476C76.2585 25.6698 76.3253 25.7249 76.3671 25.8339C76.387 25.8857 76.3866 25.9763 76.3866 26.1565V27.6842C76.3866 27.7932 76.3863 27.8477 76.371 27.9036C76.3453 27.9978 76.2691 28.1015 76.1868 28.1541C76.138 28.1853 76.0958 28.1989 76.0113 28.2253C75.5102 28.3819 74.9152 28.4544 74.1463 28.4544C71.2361 28.4544 69.8499 26.8147 69.8499 23.9737V19.4287C69.8499 19.3702 69.8502 19.3402 69.8421 19.3166C69.827 19.273 69.7922 19.239 69.7485 19.224C69.725 19.2161 69.6956 19.2162 69.6374 19.2162H68.294C68.125 19.2162 68.0403 19.216 67.9722 19.1928C67.8456 19.1495 67.7455 19.0494 67.7022 18.9228C67.679 18.8546 67.6788 18.77 67.6788 18.601V17.1982C67.6788 17.0288 67.6788 16.9437 67.7022 16.8755C67.7455 16.7488 67.8456 16.6497 67.9722 16.6064C68.0404 16.5831 68.1249 16.583 68.294 16.583H69.6374C69.6957 16.583 69.725 16.5822 69.7485 16.5742C69.7923 16.5592 69.8271 16.5254 69.8421 16.4816C69.8502 16.4581 69.8499 16.4288 69.8499 16.3705V14.2871C69.8499 14.1182 69.85 14.0335 69.8733 13.9654C69.9166 13.8388 70.0167 13.7397 70.1433 13.6963C70.2115 13.673 70.296 13.6729 70.4651 13.6729H72.1916Z" fill="#2845C1"/>
<path d="M16.7294 12.1179C16.9369 12.1011 17.1332 12.2151 17.2217 12.4036C17.269 12.5044 17.2695 12.6625 17.2695 12.9778V25.0442C17.2695 25.1286 17.2695 25.171 17.2812 25.205C17.3029 25.2682 17.3525 25.3179 17.4157 25.3396C17.4498 25.3512 17.4921 25.3513 17.5766 25.3513H22.6334C22.8024 25.3513 22.887 25.3514 22.9551 25.3747C23.0816 25.418 23.1807 25.5174 23.2242 25.6437C23.2475 25.7119 23.2476 25.7971 23.2476 25.9664V27.6238C23.2476 27.7929 23.2475 27.8773 23.2242 27.9455C23.1808 28.0721 23.0817 28.1722 22.9551 28.2155C22.887 28.2388 22.8023 28.2389 22.6334 28.2389H14.7484C14.579 28.2389 14.4939 28.2389 14.4257 28.2155C14.2991 28.1722 14.1999 28.0721 14.1566 27.9455C14.1333 27.8774 14.1332 27.7928 14.1332 27.6238V14.3729C14.1332 14.1372 14.1334 14.0187 14.1576 13.9108C14.2023 13.7116 14.3072 13.5309 14.4578 13.3931C14.5394 13.3185 14.6414 13.2597 14.8459 13.1426L16.2078 12.3626C16.4815 12.2058 16.6183 12.127 16.7294 12.1179Z" fill="#2845C1"/>
<path d="M65.9025 16.583C66.0716 16.583 66.1561 16.5831 66.2242 16.6064C66.3509 16.6497 66.4509 16.7488 66.4943 16.8755C66.5176 16.9437 66.5177 17.0288 66.5177 17.1982V27.6092C66.5177 27.7781 66.5176 27.8627 66.4943 27.9309C66.4509 28.0575 66.3509 28.1566 66.2242 28.1999C66.1561 28.2232 66.0716 28.2233 65.9025 28.2233H64.1994C64.03 28.2233 63.9449 28.2233 63.8767 28.1999C63.7502 28.1565 63.6509 28.0574 63.6076 27.9309C63.5843 27.8627 63.5842 27.7781 63.5842 27.6092V17.1982C63.5842 17.0288 63.5842 16.9437 63.6076 16.8755C63.6509 16.749 63.7502 16.6498 63.8767 16.6064C63.9449 16.583 64.03 16.583 64.1994 16.583H65.9025Z" fill="#2845C1"/>
<path d="M8.11122 1.8912C8.79182 1.67792 9.52181 1.67782 10.2024 1.8912C10.5706 2.00669 10.9264 2.21304 11.6384 2.62433L13.752 3.84491C14.6478 4.3624 15.096 4.62169 15.3041 4.9212C15.6927 5.48105 15.6924 6.22386 15.3031 6.78327C15.0947 7.08246 14.6461 7.34018 13.7501 7.85664L11.6316 9.07819C10.919 9.48891 10.5627 9.69453 10.2784 9.9556C9.75288 10.4383 9.38715 11.0706 9.23138 11.767C9.14717 12.1437 9.14754 12.5551 9.14754 13.3775V15.8138C9.14754 16.8474 9.14769 17.3646 8.99253 17.6944C8.7024 18.3109 8.05906 18.6823 7.38004 18.6254C7.01675 18.5949 6.56848 18.3362 5.67299 17.8192L3.56622 16.6025C2.85438 16.1915 2.49801 15.9862 2.21403 15.7251C1.6892 15.2424 1.32447 14.6105 1.16893 13.9147C1.08479 13.5382 1.08509 13.1271 1.08509 12.3051V8.71747C1.08509 7.89558 1.08483 7.48434 1.16893 7.10791C1.32441 6.41216 1.68935 5.78016 2.21403 5.29751C2.49786 5.03648 2.85383 4.83107 3.56524 4.4201L6.67421 2.62433C7.38643 2.2129 7.7429 2.00668 8.11122 1.8912Z" fill="#2845C1"/>
<path d="M65.0621 10.716C66.1015 10.716 66.9564 11.5943 66.9564 12.6337C66.9561 13.6728 66.1014 14.5503 65.0621 14.5503C64.023 14.5502 63.1458 13.6728 63.1455 12.6337C63.1455 11.5943 64.0228 10.7161 65.0621 10.716Z" fill="#2845C1"/>
</svg>
