<svg width="192" height="48" viewBox="0 0 192 48" fill="none" xmlns="http://www.w3.org/2000/svg">
<path d="M60.9858 21.4538L62.1418 20.3785C62.9748 21.4367 63.9608 21.9829 65.0828 21.9829C66.3748 21.9829 67.1228 21.1637 67.1228 20.0713C67.1228 17.511 61.4958 17.8183 61.4958 14.0121C61.4958 12.2711 62.9238 10.8032 64.9468 10.8032C66.6298 10.8032 67.8538 11.5713 68.7378 12.749L67.5478 13.7902C66.8508 12.7831 66.0008 12.237 64.9638 12.237C63.8588 12.237 63.1278 12.988 63.1278 13.9779C63.1278 16.5552 68.7548 16.2309 68.7548 20.0542C68.7548 22.0853 67.1738 23.4167 65.0998 23.4167C63.3318 23.4167 62.0228 22.751 60.9858 21.4538ZM71.8028 15.7189H70.4598L71.9048 11.1446H73.5538L71.8028 15.7189ZM76.6208 12.254C76.0608 12.254 75.6008 11.7932 75.6008 11.2299C75.6053 10.9613 75.7147 10.7052 75.9055 10.5168C76.0963 10.3284 76.3532 10.2229 76.6208 10.2229C77.1818 10.2229 77.6238 10.6837 77.6238 11.2299C77.6238 11.7932 77.1818 12.254 76.6208 12.254ZM75.8908 23.0924V14.49H77.3348V23.0924H75.8908ZM79.6578 18.7912C79.6578 16.2821 81.3748 14.1486 84.0608 14.1486C85.3018 14.1486 86.3218 14.6094 87.1038 15.4458V10.2912H88.5488V23.0924H87.1038V22.1365C86.3218 22.9729 85.3018 23.4337 84.0608 23.4337C81.3748 23.4337 79.6578 21.3002 79.6578 18.7912ZM81.1878 18.7912C81.1878 20.6175 82.4118 22.0683 84.2308 22.0683C85.4208 22.0683 86.4408 21.4879 87.1038 20.4639V17.1185C86.4238 16.0773 85.4038 15.5141 84.2308 15.5141C82.4118 15.5141 81.1878 16.9649 81.1878 18.7912ZM99.2108 21.6757C98.4118 22.751 97.1368 23.4337 95.5388 23.4337C92.6488 23.4337 90.8638 21.3002 90.8638 18.7912C90.8638 16.1797 92.5298 14.1486 95.1818 14.1486C97.5108 14.1486 99.0238 15.7359 99.0238 17.8865C99.0238 18.2279 98.9728 18.5693 98.9218 18.8082H92.3598V18.8424C92.3598 20.7369 93.6518 22.1195 95.5728 22.1195C96.6608 22.1195 97.5788 21.6074 98.1398 20.8394L99.2108 21.6757ZM95.1988 15.3946C93.8048 15.3946 92.8188 16.1797 92.4788 17.6647H97.5618C97.5108 16.4187 96.6098 15.3946 95.1988 15.3946ZM101.473 23.0924V14.49H102.918V15.4629C103.615 14.6948 104.499 14.1486 105.774 14.1486C107.695 14.1486 109.123 15.4458 109.123 17.8865V23.0924H107.661V17.9378C107.661 16.4016 106.811 15.5141 105.485 15.5141C104.244 15.5141 103.462 16.2309 102.918 17.1355V23.0924H101.473ZM112.525 20.2078V15.8213H110.91V14.49H112.525V12.3394H113.987V14.49H116.962V15.8213H113.987V20.2078C113.987 21.5562 114.667 21.9317 115.704 21.9317C116.265 21.9317 116.656 21.8634 116.979 21.7269V23.0241C116.571 23.1948 116.112 23.263 115.5 23.263C113.596 23.263 112.525 22.3072 112.525 20.2078ZM119.902 12.254C119.341 12.254 118.882 11.7932 118.882 11.2299C118.886 10.9613 118.996 10.7052 119.187 10.5168C119.377 10.3284 119.634 10.2229 119.902 10.2229C120.463 10.2229 120.905 10.6837 120.905 11.2299C120.905 11.7932 120.463 12.254 119.902 12.254ZM119.171 23.0924V14.49H120.616V23.0924H119.171ZM122.548 14.49H124.163V13.4317C124.163 11.5884 125.37 10.2912 127.206 10.2912C128.158 10.2912 128.906 10.6325 129.416 11.1275L128.515 12.1857C128.357 11.9979 128.158 11.8482 127.935 11.7477C127.711 11.6473 127.468 11.5986 127.223 11.6054C126.288 11.6054 125.625 12.2882 125.625 13.3976V14.49H128.6V15.8213H125.625V23.0924H124.163V15.8213H122.548V14.49ZM131.091 12.254C130.53 12.254 130.071 11.7932 130.071 11.2299C130.075 10.9613 130.185 10.7052 130.376 10.5168C130.566 10.3284 130.823 10.2229 131.091 10.2229C131.652 10.2229 132.094 10.6837 132.094 11.2299C132.094 11.7932 131.652 12.254 131.091 12.254ZM130.36 23.0924V14.49H131.805V23.0924H130.36ZM142.475 21.6757C141.676 22.751 140.401 23.4337 138.803 23.4337C135.913 23.4337 134.128 21.3002 134.128 18.7912C134.128 16.1797 135.794 14.1486 138.446 14.1486C140.775 14.1486 142.288 15.7359 142.288 17.8865C142.288 18.2279 142.237 18.5693 142.186 18.8082H135.624V18.8424C135.624 20.7369 136.916 22.1195 138.837 22.1195C139.925 22.1195 140.843 21.6074 141.404 20.8394L142.475 21.6757ZM138.463 15.3946C137.069 15.3946 136.083 16.1797 135.743 17.6647H140.826C140.775 16.4187 139.874 15.3946 138.463 15.3946ZM144.737 23.0924V14.49H146.182V15.5653C146.811 14.8143 147.593 14.3193 148.681 14.3193C148.953 14.3193 149.208 14.3534 149.412 14.4217V15.9237C149.135 15.8446 148.849 15.8043 148.562 15.8042C147.44 15.8042 146.709 16.3845 146.182 17.255V23.0924H144.737ZM158.422 23.4337C156.739 23.4337 155.6 22.4779 155.6 20.9759C155.6 19.6446 156.586 18.6888 158.422 18.3986L161.295 17.9207V17.3233C161.295 16.1285 160.445 15.4458 159.238 15.4458C158.235 15.4458 157.402 15.8896 156.909 16.6406L155.821 15.8042C156.569 14.7801 157.776 14.1486 159.272 14.1486C161.448 14.1486 162.74 15.4287 162.74 17.3233V23.0924H161.295V22C160.649 22.9046 159.578 23.4337 158.422 23.4337ZM157.045 20.9247C157.045 21.6586 157.674 22.2219 158.66 22.2219C159.799 22.2219 160.7 21.6245 161.295 20.6345V18.996L158.762 19.4398C157.572 19.6275 157.045 20.1737 157.045 20.9247ZM164.297 14.49H165.861L168.598 21.5733L171.335 14.49H172.899L169.55 23.0924H167.646L164.297 14.49ZM182.153 21.6757C181.354 22.751 180.079 23.4337 178.481 23.4337C175.591 23.4337 173.806 21.3002 173.806 18.7912C173.806 16.1797 175.472 14.1486 178.124 14.1486C180.453 14.1486 181.966 15.7359 181.966 17.8865C181.966 18.2279 181.915 18.5693 181.864 18.8082H175.302V18.8424C175.302 20.7369 176.594 22.1195 178.515 22.1195C179.603 22.1195 180.521 21.6074 181.082 20.8394L182.153 21.6757ZM178.141 15.3946C176.747 15.3946 175.761 16.1797 175.421 17.6647H180.504C180.453 16.4187 179.552 15.3946 178.141 15.3946ZM188.326 22.0683C189.38 22.0683 190.23 21.5562 190.757 20.7881L191.913 21.6757C191.114 22.751 189.873 23.4337 188.309 23.4337C185.47 23.4337 183.651 21.3002 183.651 18.7912C183.651 16.2821 185.47 14.1486 188.309 14.1486C189.856 14.1486 191.114 14.8484 191.913 15.9066L190.757 16.7942C190.485 16.395 190.12 16.0693 189.693 15.846C189.266 15.6227 188.79 15.5087 188.309 15.5141C186.473 15.5141 185.164 16.9649 185.164 18.7912C185.164 20.6345 186.473 22.0683 188.326 22.0683ZM61.8538 40.1606V27.51H66.0118C68.7838 27.51 70.4758 28.9377 70.4758 31.2871C70.4758 33.6185 68.7838 35.0462 66.0118 35.0462H64.4098V40.1606H61.8538ZM66.1198 29.6968H64.4098V32.8594H66.1198C67.1998 32.8594 67.8478 32.2811 67.8478 31.251C67.8478 30.2932 67.1998 29.6968 66.1198 29.6968ZM72.2488 40.1606V31.0522H74.5348V31.9558C75.1288 31.3414 75.9028 30.8715 76.9288 30.8715C77.2348 30.8715 77.5048 30.9257 77.7208 30.998V33.4016C77.3917 33.3159 77.0529 33.2734 76.7128 33.2751C75.5968 33.2751 74.8768 33.8895 74.5348 34.4498V40.1606H72.2488ZM83.6348 30.6908C86.5868 30.6908 88.6028 32.8775 88.6028 35.6064C88.6028 38.3353 86.5868 40.5221 83.6348 40.5221C80.6828 40.5221 78.6668 38.3353 78.6668 35.6064C78.6668 32.8775 80.6828 30.6908 83.6348 30.6908ZM83.6708 38.3534C85.1288 38.3534 86.2268 37.1787 86.2268 35.6064C86.2268 34.016 85.1288 32.8594 83.6708 32.8594C82.1588 32.8594 81.0428 34.016 81.0428 35.6064C81.0428 37.1968 82.1588 38.3534 83.6708 38.3534ZM96.8428 38.1185C98.2828 38.1185 99.4168 37.4136 100.137 36.3835L102.153 37.9377C101.001 39.51 99.1288 40.5221 96.8428 40.5221C92.8648 40.5221 90.1468 37.4498 90.1468 33.8353C90.1468 30.2209 92.8648 27.1486 96.8428 27.1486C99.1288 27.1486 101.001 28.1787 102.153 29.7148L100.137 31.2871C99.4168 30.257 98.2828 29.5522 96.8428 29.5522C94.4668 29.5522 92.7748 31.4136 92.7748 33.8353C92.7748 36.257 94.4668 38.1185 96.8428 38.1185ZM108.209 30.6908C111.161 30.6908 113.177 32.8775 113.177 35.6064C113.177 38.3353 111.161 40.5221 108.209 40.5221C105.257 40.5221 103.241 38.3353 103.241 35.6064C103.241 32.8775 105.257 30.6908 108.209 30.6908ZM108.245 38.3534C109.703 38.3534 110.801 37.1787 110.801 35.6064C110.801 34.016 109.703 32.8594 108.245 32.8594C106.733 32.8594 105.617 34.016 105.617 35.6064C105.617 37.1968 106.733 38.3534 108.245 38.3534ZM115.263 40.1606V31.0522H117.549V31.7751C118.179 31.1606 119.025 30.6908 120.231 30.6908C122.193 30.6908 123.759 32.0462 123.759 34.7389V40.1606H121.437V34.8293C121.437 33.6185 120.771 32.8594 119.655 32.8594C118.503 32.8594 117.891 33.6365 117.549 34.2148V40.1606H115.263ZM126.354 40.1606V31.0522H128.64V31.7751C129.27 31.1606 130.116 30.6908 131.322 30.6908C133.284 30.6908 134.85 32.0462 134.85 34.7389V40.1606H132.528V34.8293C132.528 33.6185 131.862 32.8594 130.746 32.8594C129.594 32.8594 128.982 33.6365 128.64 34.2148V40.1606H126.354ZM145.798 38.6787C144.952 39.8172 143.548 40.5221 141.838 40.5221C138.616 40.5221 136.798 38.263 136.798 35.6064C136.798 32.9136 138.49 30.6908 141.46 30.6908C143.98 30.6908 145.636 32.3895 145.636 34.7751C145.636 35.2811 145.564 35.7691 145.492 36.0763H139.138C139.282 37.5763 140.326 38.4618 141.874 38.4618C142.864 38.4618 143.674 38.0281 144.16 37.3775L145.798 38.6787ZM141.46 32.6064C140.344 32.6064 139.588 33.1486 139.282 34.3413H143.368C143.332 33.4377 142.666 32.6064 141.46 32.6064ZM152.156 38.3534C153.038 38.3534 153.74 37.9197 154.172 37.2871L155.99 38.6787C155.144 39.7992 153.812 40.5221 152.156 40.5221C149.024 40.5221 147.152 38.263 147.152 35.6064C147.152 32.9498 149.024 30.6908 152.156 30.6908C153.812 30.6908 155.144 31.4136 155.99 32.5341L154.172 33.9257C153.74 33.2932 153.056 32.8594 152.12 32.8594C150.626 32.8594 149.528 34.016 149.528 35.6064C149.528 37.2148 150.626 38.3534 152.156 38.3534ZM158.36 36.8353V33.1486H156.668V31.0522H158.36V28.7751H160.664V31.0522H163.436V33.1486H160.664V36.8353C160.664 37.8474 161.204 38.245 162.104 38.245C162.734 38.245 163.148 38.1727 163.454 38.0462V40.0522C163.004 40.251 162.464 40.3413 161.708 40.3413C159.44 40.3413 158.36 39.0582 158.36 36.8353Z" fill="white"/>
<path d="M37.9922 14.1545L22.9982 5.44165L8.00424 14.2368C7.91153 14.2899 7.83441 14.3665 7.78068 14.4591C7.72695 14.5516 7.69851 14.6568 7.69824 14.7639V31.78C7.7041 31.8857 7.7349 31.9886 7.7881 32.08C7.8413 32.1715 7.91538 32.249 8.00424 32.3061L22.9962 40.9406L37.9902 32.1997C38.0791 32.1426 38.1532 32.0651 38.2064 31.9736C38.2596 31.8822 38.2904 31.7793 38.2962 31.6736V14.6846C38.2969 14.5771 38.2691 14.4714 38.2157 14.3782C38.1623 14.2851 38.0852 14.2079 37.9922 14.1545Z" fill="#000091"/>
<path d="M17.6412 14.6565L12.6122 23.3191L8.05518 14.1073L13.4452 10.9818L17.9342 14.1545L17.6412 14.6565ZM38.2972 31.7047V14.6786C38.2972 14.5717 38.2688 14.4667 38.215 14.3744C38.1613 14.2821 38.084 14.2059 37.9912 14.1535L22.9982 5.44165" fill="#FCC63A"/>
<path d="M7.70024 31.7047L23.0002 5.44165V40.9456L8.00424 32.3061C7.91532 32.249 7.8412 32.1716 7.78799 32.0801C7.73478 31.9886 7.70402 31.8858 7.69824 31.78V14.7649L7.70024 31.7047ZM32.3692 10.8864L37.8272 14.0541L33.3382 23.2408L27.9512 13.9677L32.3692 10.8854V10.8864Z" fill="#0063CB"/>
<path d="M42.606 11.3483L23.416 0.28406C23.2868 0.21943 23.1444 0.185791 23 0.185791C22.8556 0.185791 22.7132 0.21943 22.584 0.28406L3.394 11.3483C3.27854 11.4256 3.18275 11.529 3.11432 11.6501C3.04589 11.7713 3.00674 11.9069 3 12.0461V34.1344C3.00581 34.2745 3.04453 34.4111 3.11301 34.5333C3.18148 34.6554 3.27777 34.7596 3.394 34.8372L22.583 45.9015C22.7122 45.9662 22.8546 45.9999 22.999 45.9999C23.1434 45.9999 23.2858 45.9662 23.415 45.9015L42.606 34.8372C42.7222 34.7595 42.8184 34.6554 42.8869 34.5332C42.9554 34.4111 42.9941 34.2745 43 34.1344V12.0461C42.9933 11.9069 42.9541 11.7713 42.8857 11.6501C42.8172 11.529 42.7215 11.4256 42.606 11.3483ZM13.789 29.1756H13.868C13.826 29.1756 13.789 29.1826 13.789 29.2258C13.789 29.3262 13.94 29.2258 13.989 29.3262C13.7514 29.3327 13.5257 29.4322 13.36 29.6033C13.36 29.6535 13.46 29.6535 13.511 29.6535C13.436 29.7539 13.285 29.7037 13.234 29.8061C13.261 29.8333 13.2961 29.8509 13.334 29.8563C13.284 29.8563 13.234 29.8563 13.234 29.9065V30.0591C13.108 30.0591 13.058 30.1595 12.957 30.2097C13.157 30.3623 13.284 30.2097 13.485 30.2097C12.957 30.4105 12.529 30.6907 12.001 30.8423C11.901 30.8423 12.001 30.9929 11.901 30.9929C12.052 31.0933 12.128 30.9427 12.278 30.9427C11.624 31.3222 10.945 31.6455 10.241 32.0802C10.1868 32.1344 10.1516 32.2049 10.141 32.281H9.941C9.841 32.3312 9.891 32.4577 9.79 32.5591C10.016 32.7097 10.29 32.3583 10.444 32.5591C10.494 32.5591 10.344 32.6093 10.244 32.6093C10.194 32.6093 10.194 32.7097 10.144 32.7097H9.99C9.89 32.785 9.79 32.8362 9.79 32.9868C9.74665 32.9789 9.70193 32.9843 9.66163 33.0022C9.62134 33.0201 9.58732 33.0497 9.564 33.0872C10.638 33.083 11.7027 32.8865 12.708 32.5069C13.4878 32.108 14.1939 31.5783 14.796 30.9407C14.8231 30.9678 14.8406 31.003 14.846 31.0411C14.699 31.4798 14.416 31.8603 14.04 32.1254C13.763 32.278 13.562 32.5049 13.34 32.6063C13.1917 32.6896 13.0487 32.7821 12.912 32.8834C12.28 33.0812 11.631 33.2198 10.973 33.2971L10.668 33.3413C10.443 33.3744 10.219 33.4105 9.997 33.4497L8.004 32.3071C7.93104 32.2611 7.86798 32.2008 7.81853 32.13C7.76907 32.0591 7.73421 31.979 7.716 31.8945C7.74935 31.8766 7.78083 31.8554 7.81 31.8312C7.77898 31.7982 7.74009 31.7737 7.697 31.7599V31.1073C8.74494 30.9203 9.7655 30.6026 10.735 30.1615C9.81772 29.5215 8.78681 29.0638 7.698 28.8131V27.2921C8.25307 27.3834 8.80083 27.515 9.337 27.6856C9.74976 27.8379 10.1458 28.0324 10.519 28.266C10.666 28.4065 10.826 28.534 10.997 28.6445C11.1177 28.7136 11.2525 28.7541 11.3912 28.7628C11.5299 28.7715 11.6687 28.7482 11.797 28.6947H12.127C12.8434 28.5758 13.5135 28.2614 14.064 27.786C14.064 27.8362 14.114 27.8362 14.164 27.8362C14.0857 28.2365 13.941 28.6207 13.736 28.9728C13.739 29.023 13.688 29.1254 13.789 29.1756ZM16.606 32.7599C16.857 32.6595 17.006 32.4828 17.235 32.3824C17.185 32.4326 17.185 32.533 17.135 32.5832C16.9474 32.701 16.7707 32.8354 16.607 32.9848C16.0413 33.4854 15.5116 34.0256 15.022 34.6013C14.77 34.9025 14.494 35.1816 14.222 35.4597C14.126 35.5501 14.022 35.6324 13.912 35.7057L11.385 34.2499C11.745 34.28 12.106 34.2629 12.461 34.1967C12.755 34.1133 13.041 34.0039 13.316 33.8684V33.9688C14.016 33.6907 14.548 33.0591 15.253 32.8322C15.278 32.8322 15.379 32.9326 15.479 32.8824C15.6601 32.6571 15.8904 32.4765 16.152 32.3546C16.4136 32.2328 16.6997 32.1729 16.988 32.1796C16.988 32.2298 16.988 32.28 17.038 32.28H17.063C16.912 32.4065 16.736 32.531 16.563 32.6585C16.506 32.7107 16.556 32.7599 16.606 32.7599ZM7.698 26.5722V26.3854C8.21615 26.2494 8.75054 26.1859 9.286 26.1967C9.44434 26.1714 9.60566 26.1714 9.764 26.1967C9.05843 26.196 8.35854 26.3232 7.698 26.5722ZM38.298 31.6806C38.2922 31.7864 38.2615 31.8893 38.2083 31.9807C38.155 32.0722 38.0809 32.1497 37.992 32.2067L27.913 38.0802C26.7558 37.748 25.6181 37.3511 24.505 36.8914C24.3437 36.5391 24.256 36.1573 24.2474 35.7696C24.2388 35.382 24.3095 34.9966 24.455 34.6374C24.535 34.3282 24.653 34.03 24.807 33.7509C24.832 33.7258 24.857 33.7007 24.857 33.6746C24.8636 33.6746 24.87 33.6719 24.8747 33.6672C24.8794 33.6625 24.882 33.6561 24.882 33.6495C24.9931 33.4542 25.1191 33.2679 25.259 33.0923L25.274 33.0772L25.294 33.0561L25.309 33.0411C25.309 33.016 25.334 32.9909 25.359 32.9647C25.384 32.9135 25.434 32.8884 25.459 32.8382C25.635 32.6515 25.829 32.4828 26.038 32.3362C26.251 32.2589 26.469 32.1997 26.692 32.1585C27.503 32.2188 28.309 32.3292 29.107 32.4878C29.205 32.5027 29.2992 32.5368 29.384 32.5882C29.685 32.6475 29.996 32.6294 30.289 32.538C30.4799 32.503 30.6587 32.4194 30.8084 32.2954C30.9581 32.1713 31.0736 32.0108 31.144 31.8292C31.2322 31.6672 31.2825 31.4873 31.2912 31.3029C31.2998 31.1185 31.2666 30.9345 31.194 30.7649C31.016 30.4888 31.181 30.3272 31.375 30.1726L31.443 30.1184C31.529 30.0571 31.607 29.9838 31.674 29.9015C31.8 29.6485 31.574 29.4999 31.523 29.269C31.473 29.1686 31.297 29.2188 31.196 29.0682C31.548 28.9166 32.051 28.6364 31.825 28.2077C31.674 27.9798 31.448 27.5752 31.725 27.3473C32.077 27.1465 32.58 27.1957 32.731 26.8654C32.7803 26.6741 32.7793 26.4732 32.7281 26.2825C32.6769 26.0917 32.5773 25.9175 32.439 25.777L32.364 25.6686C32.2894 25.5644 32.219 25.4572 32.153 25.3473C31.9941 25.0824 31.8177 24.8285 31.625 24.5872C31.4049 24.2743 31.2274 23.9332 31.097 23.5732C30.946 23.1947 31.147 22.8654 31.147 22.4858C31.1618 21.7548 31.0512 21.0266 30.82 20.3332C30.694 19.9788 30.644 19.5993 30.493 19.269C30.474 19.0573 30.3956 18.8554 30.267 18.6867C30.2422 18.6355 30.2294 18.5794 30.2294 18.5225C30.2294 18.4656 30.2422 18.4095 30.267 18.3583C30.472 18.2128 30.666 18.0521 30.846 17.8764C30.9015 17.7537 30.9118 17.6153 30.8752 17.4857C30.8386 17.3561 30.7574 17.2437 30.646 17.1686C30.319 17.017 30.346 17.4979 30.118 17.5993H29.967C29.917 17.4728 30.017 17.4216 30.118 17.3212C30.118 17.271 30.118 17.1696 30.068 17.1696C29.868 17.1696 29.691 17.1184 29.64 17.018C29.158 16.4149 28.5113 15.9662 27.779 15.7268C27.967 15.785 28.161 15.8182 28.358 15.8272C28.696 15.8985 29.048 15.8634 29.364 15.7268C29.591 15.6505 29.641 15.2449 29.741 15.018C29.7613 14.9076 29.7583 14.7943 29.7323 14.6852C29.7063 14.576 29.6578 14.4736 29.59 14.3844C29.3629 14.053 29.0495 13.7904 28.684 13.6254C28.4528 13.5169 28.2263 13.3986 28.005 13.271C27.928 13.2166 27.8434 13.174 27.754 13.1445C24.789 11.6535 18.685 12.9437 18.22 13.1445H18.211C17.7825 13.2693 17.3648 13.4288 16.962 13.6214C16.4074 13.8281 15.9066 14.1581 15.497 14.5867C15.0875 15.0153 14.7798 15.5314 14.597 16.0963C14.026 16.4729 13.5658 16.996 13.264 17.6114C12.836 18.4146 12.208 19.1264 12.308 20.035C12.408 20.8182 12.585 21.525 12.736 22.3332C12.779 22.6063 12.846 22.8754 12.936 23.1364C13.036 23.4136 12.936 23.768 13.087 23.9949C13.162 24.1455 13.112 24.3232 13.314 24.4246V24.6254C13.364 24.6756 13.364 24.7258 13.465 24.7258V24.9266C13.9 25.3513 14.272 25.8362 14.572 26.3664C14.672 26.6435 14.094 26.517 13.872 26.4166C13.4565 26.145 13.0762 25.8226 12.74 25.4567C12.7125 25.4837 12.6946 25.519 12.689 25.5571C12.889 25.9105 13.595 26.3403 13.217 26.5672C13.017 26.6676 12.789 26.4156 12.588 26.6174C12.538 26.6937 12.588 26.7951 12.588 26.8955C12.311 26.6947 12.01 26.7951 11.733 26.6947C11.533 26.6445 11.481 26.266 11.255 26.266C10.6585 26.1199 10.0537 26.0102 9.444 25.9376C8.86789 25.8506 8.28726 25.7969 7.705 25.777V14.766C7.70545 14.659 7.73397 14.5541 7.78769 14.4617C7.84141 14.3693 7.91844 14.2928 8.011 14.2399L22.998 5.44369L37.992 14.1555C38.0846 14.2084 38.1617 14.2849 38.2154 14.3773C38.2692 14.4697 38.2977 14.5747 38.298 14.6816V31.6806ZM30.344 23.3864C30.3138 23.4336 30.2719 23.4722 30.2225 23.4984C30.1731 23.5246 30.1178 23.5375 30.062 23.536C29.9618 23.6208 29.8676 23.7124 29.78 23.8101C29.88 23.8101 29.78 23.9597 29.88 23.9597C29.675 24.1836 29.957 24.6565 29.675 24.7559C29.305 24.8553 28.917 24.8553 28.548 24.7559C28.6029 24.7441 28.6589 24.7387 28.715 24.7399H28.8C28.8627 24.7475 28.9263 24.7393 28.9851 24.7162C29.0439 24.6931 29.0961 24.6557 29.137 24.6073V24.4065C29.137 24.3563 29.086 24.3563 29.037 24.3563C29.0108 24.3846 28.9753 24.4024 28.937 24.4065C28.9345 24.3613 28.9185 24.318 28.891 24.2821C28.8635 24.2463 28.8259 24.2196 28.783 24.2057C28.6501 24.2236 28.5148 24.2079 28.3894 24.1601C28.264 24.1122 28.1525 24.0337 28.065 23.9316C28.2006 23.8662 28.3542 23.8485 28.501 23.8814C28.629 23.8814 28.578 23.6575 28.732 23.5581H28.886C29.193 23.1846 29.757 23.0852 29.86 22.7117C29.86 22.6113 29.578 22.6113 29.373 22.5611C29.0989 22.5274 28.821 22.5445 28.553 22.6113C28.193 22.6615 27.841 22.7539 27.502 22.8864C27.782 22.6796 28.094 22.52 28.425 22.4136C28.657 22.3232 28.898 22.2559 29.143 22.2128L29.275 22.1866L29.408 22.1595C29.5894 22.1051 29.7826 22.1051 29.964 22.1595C30.195 22.2599 30.579 22.2599 30.63 22.4085C30.73 22.6826 30.476 22.9557 30.195 23.1555C30.138 23.2358 30.344 23.2911 30.344 23.3864Z" fill="white"/>
<path d="M55.56 0H30C28.8954 0 28 0.899026 28 2.00803V11.3474C28 12.4564 28.8954 13.3554 30 13.3554H55.56C56.6646 13.3554 57.56 12.4564 57.56 11.3474V2.00803C57.56 0.899026 56.6646 0 55.56 0Z" fill="#FCC63A"/>
<path d="M30.562 11.2129V2.32535H33.483C34.453 2.32535 35.215 2.5623 35.772 3.0362C36.337 3.51009 36.619 4.15768 36.619 4.97897C36.619 5.79222 36.337 6.43479 35.772 6.90868C35.215 7.38258 34.452 7.61952 33.483 7.61952H32.358V11.2129H30.562ZM33.559 3.8615H32.358V6.08338H33.558C33.938 6.08338 34.233 5.98599 34.444 5.79222C34.664 5.59644 34.773 5.31732 34.773 4.95286C34.773 4.61451 34.663 4.34844 34.444 4.15367C34.234 3.95889 33.938 3.8615 33.559 3.8615ZM38.23 11.2129V2.32535H40.937C41.907 2.32535 42.673 2.5623 43.238 3.0362C43.803 3.51009 44.085 4.15768 44.085 4.97897C44.085 5.51109 43.959 5.97796 43.706 6.37455C43.462 6.76511 43.116 7.06531 42.669 7.27716L45.451 11.2129H43.301L40.949 7.61952H40.026V11.2129H38.23ZM41.038 3.8615H40.026V6.08338H41.038C41.418 6.08338 41.712 5.98599 41.923 5.79222C42.133 5.59644 42.239 5.31732 42.239 4.95286C42.239 4.61451 42.134 4.34844 41.923 4.15367C41.713 3.95889 41.417 3.8615 41.038 3.8615ZM50.549 2.07134C51.239 2.07134 51.872 2.19784 52.445 2.45286C53.027 2.70588 53.525 3.04523 53.937 3.46792C54.351 3.89061 54.671 4.39061 54.899 4.96591C55.126 5.53318 55.24 6.13459 55.24 6.76912C55.24 7.40366 55.126 8.00908 54.899 8.58438C54.6795 9.13879 54.3526 9.64388 53.937 10.0703C53.524 10.493 53.027 10.8314 52.445 11.0854C51.8466 11.3446 51.2007 11.4746 50.549 11.4669C49.9179 11.4734 49.2918 11.3531 48.7076 11.1133C48.1234 10.8735 47.5928 10.5189 47.147 10.0703C46.7318 9.64381 46.4052 9.13872 46.186 8.58438C45.9578 8.00672 45.8417 7.39057 45.844 6.76912C45.844 6.13358 45.958 5.53318 46.186 4.96591C46.413 4.39061 46.734 3.89162 47.147 3.46792C47.56 3.04423 48.057 2.70588 48.639 2.45186C49.2426 2.19359 49.893 2.06401 50.549 2.07134ZM50.549 9.77816C50.9401 9.78249 51.3278 9.70451 51.687 9.54924C52.041 9.3886 52.34 9.17776 52.585 8.9147C52.837 8.64362 53.035 8.32635 53.179 7.96189C53.3238 7.58115 53.3967 7.17667 53.394 6.76912C53.3976 6.36542 53.3246 5.96472 53.179 5.5884C53.0468 5.23369 52.8444 4.90956 52.584 4.63559C52.3345 4.36118 52.0284 4.14465 51.687 4.00106C51.3299 3.83785 50.9414 3.75558 50.549 3.76009C50.136 3.76009 49.752 3.84041 49.398 4.00106C49.0539 4.14657 48.744 4.3627 48.488 4.63559C48.2345 4.91246 48.0369 5.23603 47.906 5.5884C47.7604 5.96472 47.6874 6.36542 47.691 6.76912C47.691 7.19181 47.762 7.58941 47.906 7.96189C48.049 8.32635 48.243 8.64362 48.487 8.9147C48.74 9.17675 49.044 9.3886 49.397 9.54924C49.752 9.70185 50.136 9.77816 50.549 9.77816Z" fill="#161616"/>
</svg>
