<svg width="301" height="300" viewBox="0 0 301 300" fill="none" xmlns="http://www.w3.org/2000/svg">
<g filter="url(#filter0_n_207_15251)">
<path fill-rule="evenodd" clip-rule="evenodd" d="M298.535 286.962C298.535 291.573 232.821 295.312 151.757 295.312C70.6951 295.312 4.98047 291.573 4.98047 286.962C4.98047 282.351 70.6951 278.613 151.757 278.613C232.821 278.613 298.535 282.351 298.535 286.962Z" fill="#626A80"/>
<path fill-rule="evenodd" clip-rule="evenodd" d="M298.535 286.962C298.535 291.573 232.821 295.312 151.757 295.312C70.6951 295.312 4.98047 291.573 4.98047 286.962C4.98047 282.351 70.6951 278.613 151.757 278.613C232.821 278.613 298.535 282.351 298.535 286.962Z" fill="#F6F8F9" fill-opacity="0.975"/>
<path fill-rule="evenodd" clip-rule="evenodd" d="M222.308 256.527L233.366 282.514H238.381L231.728 255.253L222.308 256.527Z" fill="#626A80"/>
<path fill-rule="evenodd" clip-rule="evenodd" d="M222.308 256.527L233.366 282.514H238.381L231.728 255.253L222.308 256.527Z" fill="#F6F8F9" fill-opacity="0.55"/>
<path fill-rule="evenodd" clip-rule="evenodd" d="M165.82 256.527L176.878 282.514H181.892L175.24 255.253L165.82 256.527Z" fill="#626A80"/>
<path fill-rule="evenodd" clip-rule="evenodd" d="M165.82 256.527L176.878 282.514H181.892L175.24 255.253L165.82 256.527Z" fill="#F6F8F9" fill-opacity="0.55"/>
<path fill-rule="evenodd" clip-rule="evenodd" d="M81.4453 282.514H86.4598L97.5173 256.527L88.0978 255.253L81.4453 282.514Z" fill="#626A80"/>
<path fill-rule="evenodd" clip-rule="evenodd" d="M81.4453 282.514H86.4598L97.5173 256.527L88.0978 255.253L81.4453 282.514Z" fill="#F6F8F9" fill-opacity="0.55"/>
<path fill-rule="evenodd" clip-rule="evenodd" d="M137.933 282.514H142.948L154.006 256.527L144.586 255.253L137.933 282.514Z" fill="#626A80"/>
<path fill-rule="evenodd" clip-rule="evenodd" d="M137.933 282.514H142.948L154.006 256.527L144.586 255.253L137.933 282.514Z" fill="#F6F8F9" fill-opacity="0.55"/>
<path fill-rule="evenodd" clip-rule="evenodd" d="M87.6115 195.709V258.633L153.006 258.773L163.76 196.528L87.6115 195.709ZM92.5919 200.744L157.856 201.446L148.813 253.784L92.5919 253.663V200.744Z" fill="#626A80"/>
<path fill-rule="evenodd" clip-rule="evenodd" d="M87.6115 195.709V258.633L153.006 258.773L163.76 196.528L87.6115 195.709ZM92.5919 200.744L157.856 201.446L148.813 253.784L92.5919 253.663V200.744Z" fill="#F6F8F9" fill-opacity="0.55"/>
<path fill-rule="evenodd" clip-rule="evenodd" d="M173.425 157.031L155.847 258.773H232.531L250.11 157.031H173.425Z" fill="#626A80"/>
<path fill-rule="evenodd" clip-rule="evenodd" d="M173.425 157.031L155.847 258.773H232.531L250.11 157.031H173.425Z" fill="#F6F8F9" fill-opacity="0.8"/>
<path fill-rule="evenodd" clip-rule="evenodd" d="M152.804 157.031L135.226 258.773H210.981L228.559 157.031H152.804Z" fill="#626A80"/>
<path fill-rule="evenodd" clip-rule="evenodd" d="M152.804 157.031L135.226 258.773H210.981L228.559 157.031H152.804Z" fill="#F6F8F9" fill-opacity="0.9"/>
<path fill-rule="evenodd" clip-rule="evenodd" d="M134.022 258.773H224.196C228.8 258.773 232.532 255.041 232.532 250.437V231.225C232.532 226.621 228.8 222.889 224.196 222.889H134.022C129.418 222.889 125.686 226.621 125.686 231.225V250.437C125.686 255.041 129.418 258.773 134.022 258.773Z" fill="#626A80"/>
<path fill-rule="evenodd" clip-rule="evenodd" d="M134.022 258.773H224.196C228.8 258.773 232.532 255.041 232.532 250.437V231.225C232.532 226.621 228.8 222.889 224.196 222.889H134.022C129.418 222.889 125.686 226.621 125.686 231.225V250.437C125.686 255.041 129.418 258.773 134.022 258.773Z" fill="#F6F8F9" fill-opacity="0.8"/>
<path fill-rule="evenodd" clip-rule="evenodd" d="M87.2727 258.773H167.137V222.889H87.2727V258.773Z" fill="#626A80"/>
<path fill-rule="evenodd" clip-rule="evenodd" d="M87.2727 258.773H167.137V222.889H87.2727V258.773Z" fill="#F6F8F9" fill-opacity="0.9"/>
<path fill-rule="evenodd" clip-rule="evenodd" d="M167.137 195.709V258.633L232.532 258.773L243.286 196.528L167.137 195.709ZM172.118 200.744L237.382 201.446L228.339 253.784L172.118 253.663V200.744Z" fill="#626A80"/>
<path fill-rule="evenodd" clip-rule="evenodd" d="M167.137 195.709V258.633L232.532 258.773L243.286 196.528L167.137 195.709ZM172.118 200.744L237.382 201.446L228.339 253.784L172.118 253.663V200.744Z" fill="#F6F8F9" fill-opacity="0.55"/>
<path d="M163.96 118.77C175.007 120.312 170.378 133.035 167.273 139.904C163.629 147.968 166.821 153.375 166.821 153.375L183.897 147.312C177.63 139.342 184.552 134.903 182.848 125.4C181.319 116.875 173.023 113.029 167.781 113.211C165.165 113.301 163.023 113.975 161.328 114.839C161.264 114.872 161.202 114.907 161.144 114.944C158.047 111.764 153.76 109.863 148.806 109.863C138.618 109.863 129.465 117.902 129.465 128.575C129.465 139.248 137.724 147.9 147.912 147.9C158.1 147.9 166.359 139.248 166.359 128.575C166.359 124.927 165.499 121.587 163.96 118.77Z" fill="#3A3A3A"/>
<path fill-rule="evenodd" clip-rule="evenodd" d="M146.11 148.41C146.11 148.41 149.898 148.522 151.513 147.641L146.311 150.906L146.11 148.41Z" fill="#CF3E83"/>
<path d="M131.987 134.132C132.555 138.528 134.029 144.722 137.667 147.141C139.598 148.424 143.114 148.582 146.111 148.409L146.796 156.92L156.575 152.895C156.575 152.895 155.635 143.502 155.227 139.902C157.193 138.12 160.542 137.294 160.548 134.268C160.548 133.219 159.936 131.406 157.674 131.4C154.639 131.397 155.073 135.035 155.073 135.035C154.696 135.181 154.319 135.173 153.943 135.039C150.938 134.914 142.579 133.656 136.895 123.944C136.232 127.213 134.853 131.288 131.987 134.132Z" fill="#AE7E61"/>
<path opacity="0.402786" fill-rule="evenodd" clip-rule="evenodd" d="M146.116 148.41C146.116 148.41 149.904 148.522 151.519 147.64L146.317 150.906L146.116 148.41Z" fill="#161616"/>
<path fill-rule="evenodd" clip-rule="evenodd" d="M161.338 196.199L163.363 196.169C163.363 196.169 163.36 196.137 163.357 196.07C162.66 196.119 161.986 196.16 161.338 196.199Z" fill="#C7404A"/>
<path d="M120.088 218.136L126.771 218.974L137.535 202.14L137.927 196.544L154.325 196.301L161.324 196.198H161.338C161.986 196.16 162.66 196.119 163.357 196.07C172.172 195.454 184.386 193.74 185.224 188.994C186.745 180.398 175.243 163.717 173.883 161.783C173.798 161.663 173.755 161.599 173.755 161.599C171.827 158.845 169.887 156.703 168.077 155.564C164.555 153.346 161.253 152.859 158.116 152.868L157.275 146.778L144.475 148.544L145.172 153.607C141.413 153.967 138.856 154.702 136.463 156.899C128.778 163.954 128.212 190.377 128.212 190.377L120.088 218.136Z" fill="#C7404A"/>
<path fill-rule="evenodd" clip-rule="evenodd" d="M154.325 196.301V196.418C154.325 196.418 157.26 196.424 161.324 196.198L154.325 196.301Z" fill="#C7404A"/>
<path opacity="0.201149" d="M138.163 196.476C137.223 184.54 130.718 182.016 135.405 168.629" stroke="#161616" stroke-width="0.878906"/>
<path opacity="0.200498" d="M163.674 170.996L169.844 181.213L154.503 187.283" stroke="#161616" stroke-width="0.878906"/>
<g clip-path="url(#clip0_207_15251)">
<rect width="24.8336" height="33.1115" rx="3.67906" transform="matrix(1 0 0.33501 0.942215 115.138 166.992)" fill="#3E5DE7"/>
<rect width="24.8336" height="33.1115" rx="3.67906" transform="matrix(1 0 0.33501 0.942215 115.138 166.992)" fill="#F6F8F9" fill-opacity="0.975"/>
<path fill-rule="evenodd" clip-rule="evenodd" d="M121.364 174.073C121.194 173.594 121.468 173.206 121.976 173.206H130.254C130.762 173.206 131.311 173.594 131.481 174.073C131.652 174.551 131.378 174.939 130.87 174.939H122.592C122.084 174.939 121.534 174.551 121.364 174.073Z" fill="#3E5DE7"/>
<path fill-rule="evenodd" clip-rule="evenodd" d="M121.364 174.073C121.194 173.594 121.468 173.206 121.976 173.206H130.254C130.762 173.206 131.311 173.594 131.481 174.073C131.652 174.551 131.378 174.939 130.87 174.939H122.592C122.084 174.939 121.534 174.551 121.364 174.073Z" fill="#F6F8F9" fill-opacity="0.45"/>
<path fill-rule="evenodd" clip-rule="evenodd" d="M122.406 177.004C122.235 176.525 122.509 176.137 123.017 176.137H138.595C139.103 176.137 139.653 176.525 139.823 177.004C139.993 177.483 139.719 177.871 139.211 177.871H123.634C123.126 177.871 122.576 177.483 122.406 177.004ZM123.33 179.604C123.16 179.125 123.434 178.737 123.942 178.737H139.519C140.027 178.737 140.577 179.125 140.747 179.604C140.917 180.082 140.644 180.47 140.136 180.47H124.558C124.05 180.47 123.5 180.082 123.33 179.604ZM124.254 182.204C124.084 181.725 124.358 181.337 124.866 181.337H140.444C140.952 181.337 141.501 181.725 141.672 182.204C141.842 182.682 141.568 183.07 141.06 183.07H125.482C124.974 183.07 124.425 182.682 124.254 182.204ZM125.179 184.803C125.009 184.325 125.282 183.937 125.79 183.937H141.368C141.876 183.937 142.426 184.325 142.596 184.803C142.766 185.282 142.492 185.67 141.984 185.67H126.407C125.899 185.67 125.349 185.282 125.179 184.803Z" fill="#3E5DE7"/>
<path fill-rule="evenodd" clip-rule="evenodd" d="M122.406 177.004C122.235 176.525 122.509 176.137 123.017 176.137H138.595C139.103 176.137 139.653 176.525 139.823 177.004C139.993 177.483 139.719 177.871 139.211 177.871H123.634C123.126 177.871 122.576 177.483 122.406 177.004ZM123.33 179.604C123.16 179.125 123.434 178.737 123.942 178.737H139.519C140.027 178.737 140.577 179.125 140.747 179.604C140.917 180.082 140.644 180.47 140.136 180.47H124.558C124.05 180.47 123.5 180.082 123.33 179.604ZM124.254 182.204C124.084 181.725 124.358 181.337 124.866 181.337H140.444C140.952 181.337 141.501 181.725 141.672 182.204C141.842 182.682 141.568 183.07 141.06 183.07H125.482C124.974 183.07 124.425 182.682 124.254 182.204ZM125.179 184.803C125.009 184.325 125.282 183.937 125.79 183.937H141.368C141.876 183.937 142.426 184.325 142.596 184.803C142.766 185.282 142.492 185.67 141.984 185.67H126.407C125.899 185.67 125.349 185.282 125.179 184.803Z" fill="#F6F8F9" fill-opacity="0.65"/>
<path fill-rule="evenodd" clip-rule="evenodd" d="M126.114 187.434C125.944 186.955 126.218 186.567 126.726 186.567H142.303C142.811 186.567 143.361 186.955 143.531 187.434C143.701 187.913 143.428 188.301 142.92 188.301H127.342C126.834 188.301 126.284 187.913 126.114 187.434ZM127.039 190.034C126.868 189.555 127.142 189.167 127.65 189.167H143.228C143.736 189.167 144.285 189.555 144.456 190.034C144.626 190.512 144.352 190.9 143.844 190.9H128.266C127.758 190.9 127.209 190.512 127.039 190.034ZM127.963 192.634C127.793 192.155 128.067 191.767 128.575 191.767H144.152C144.66 191.767 145.21 192.155 145.38 192.634C145.55 193.112 145.276 193.5 144.768 193.5H129.191C128.683 193.5 128.133 193.112 127.963 192.634ZM128.887 195.234C128.717 194.755 128.991 194.367 129.499 194.367H145.077C145.584 194.367 146.134 194.755 146.304 195.234C146.475 195.712 146.201 196.1 145.693 196.1H130.115C129.607 196.1 129.057 195.712 128.887 195.234Z" fill="#3E5DE7"/>
<path fill-rule="evenodd" clip-rule="evenodd" d="M126.114 187.434C125.944 186.955 126.218 186.567 126.726 186.567H142.303C142.811 186.567 143.361 186.955 143.531 187.434C143.701 187.913 143.428 188.301 142.92 188.301H127.342C126.834 188.301 126.284 187.913 126.114 187.434ZM127.039 190.034C126.868 189.555 127.142 189.167 127.65 189.167H143.228C143.736 189.167 144.285 189.555 144.456 190.034C144.626 190.512 144.352 190.9 143.844 190.9H128.266C127.758 190.9 127.209 190.512 127.039 190.034ZM127.963 192.634C127.793 192.155 128.067 191.767 128.575 191.767H144.152C144.66 191.767 145.21 192.155 145.38 192.634C145.55 193.112 145.276 193.5 144.768 193.5H129.191C128.683 193.5 128.133 193.112 127.963 192.634ZM128.887 195.234C128.717 194.755 128.991 194.367 129.499 194.367H145.077C145.584 194.367 146.134 194.755 146.304 195.234C146.475 195.712 146.201 196.1 145.693 196.1H130.115C129.607 196.1 129.057 195.712 128.887 195.234Z" fill="#F6F8F9" fill-opacity="0.65"/>
</g>
<rect x="0.745014" y="0.525812" width="23.7175" height="31.9954" rx="3.121" transform="matrix(1 0 0.33501 0.942215 114.962 167.023)" stroke="#3E5DE7" stroke-width="1.11612"/>
<rect x="0.745014" y="0.525812" width="23.7175" height="31.9954" rx="3.121" transform="matrix(1 0 0.33501 0.942215 114.962 167.023)" stroke="#F6F8F9" stroke-opacity="0.55" stroke-width="1.11612"/>
<g clip-path="url(#clip1_207_15251)">
<rect width="24.8336" height="33.1115" rx="3.67906" transform="matrix(1 0 0.33501 0.942215 114.552 167.578)" fill="#3E5DE7"/>
<rect width="24.8336" height="33.1115" rx="3.67906" transform="matrix(1 0 0.33501 0.942215 114.552 167.578)" fill="#F6F8F9" fill-opacity="0.975"/>
<path fill-rule="evenodd" clip-rule="evenodd" d="M120.778 174.659C120.608 174.18 120.882 173.792 121.39 173.792H129.668C130.176 173.792 130.725 174.18 130.896 174.659C131.066 175.137 130.792 175.525 130.284 175.525H122.006C121.498 175.525 120.948 175.137 120.778 174.659Z" fill="#3E5DE7"/>
<path fill-rule="evenodd" clip-rule="evenodd" d="M120.778 174.659C120.608 174.18 120.882 173.792 121.39 173.792H129.668C130.176 173.792 130.725 174.18 130.896 174.659C131.066 175.137 130.792 175.525 130.284 175.525H122.006C121.498 175.525 120.948 175.137 120.778 174.659Z" fill="#F6F8F9" fill-opacity="0.45"/>
<path fill-rule="evenodd" clip-rule="evenodd" d="M121.82 177.59C121.65 177.111 121.923 176.723 122.431 176.723H138.009C138.517 176.723 139.067 177.111 139.237 177.59C139.407 178.069 139.133 178.456 138.625 178.456H123.048C122.54 178.456 121.99 178.069 121.82 177.59ZM122.744 180.19C122.574 179.711 122.848 179.323 123.356 179.323H138.933C139.441 179.323 139.991 179.711 140.161 180.19C140.331 180.668 140.058 181.056 139.55 181.056H123.972C123.464 181.056 122.914 180.668 122.744 180.19ZM123.669 182.79C123.498 182.311 123.772 181.923 124.28 181.923H139.858C140.366 181.923 140.915 182.311 141.086 182.79C141.256 183.268 140.982 183.656 140.474 183.656H124.896C124.388 183.656 123.839 183.268 123.669 182.79ZM124.593 185.389C124.423 184.911 124.697 184.523 125.205 184.523H140.782C141.29 184.523 141.84 184.911 142.01 185.389C142.18 185.868 141.906 186.256 141.398 186.256H125.821C125.313 186.256 124.763 185.868 124.593 185.389Z" fill="#3E5DE7"/>
<path fill-rule="evenodd" clip-rule="evenodd" d="M121.82 177.59C121.65 177.111 121.923 176.723 122.431 176.723H138.009C138.517 176.723 139.067 177.111 139.237 177.59C139.407 178.069 139.133 178.456 138.625 178.456H123.048C122.54 178.456 121.99 178.069 121.82 177.59ZM122.744 180.19C122.574 179.711 122.848 179.323 123.356 179.323H138.933C139.441 179.323 139.991 179.711 140.161 180.19C140.331 180.668 140.058 181.056 139.55 181.056H123.972C123.464 181.056 122.914 180.668 122.744 180.19ZM123.669 182.79C123.498 182.311 123.772 181.923 124.28 181.923H139.858C140.366 181.923 140.915 182.311 141.086 182.79C141.256 183.268 140.982 183.656 140.474 183.656H124.896C124.388 183.656 123.839 183.268 123.669 182.79ZM124.593 185.389C124.423 184.911 124.697 184.523 125.205 184.523H140.782C141.29 184.523 141.84 184.911 142.01 185.389C142.18 185.868 141.906 186.256 141.398 186.256H125.821C125.313 186.256 124.763 185.868 124.593 185.389Z" fill="#F6F8F9" fill-opacity="0.65"/>
<path fill-rule="evenodd" clip-rule="evenodd" d="M125.528 188.02C125.358 187.541 125.632 187.153 126.14 187.153H141.717C142.225 187.153 142.775 187.541 142.945 188.02C143.115 188.499 142.842 188.887 142.334 188.887H126.756C126.248 188.887 125.698 188.499 125.528 188.02ZM126.453 190.62C126.282 190.141 126.556 189.753 127.064 189.753H142.642C143.15 189.753 143.7 190.141 143.87 190.62C144.04 191.098 143.766 191.486 143.258 191.486H127.68C127.172 191.486 126.623 191.098 126.453 190.62ZM127.377 193.22C127.207 192.741 127.481 192.353 127.989 192.353H143.566C144.074 192.353 144.624 192.741 144.794 193.22C144.964 193.698 144.69 194.086 144.182 194.086H128.605C128.097 194.086 127.547 193.698 127.377 193.22ZM128.301 195.819C128.131 195.341 128.405 194.953 128.913 194.953H144.491C144.999 194.953 145.548 195.341 145.718 195.819C145.889 196.298 145.615 196.686 145.107 196.686H129.529C129.021 196.686 128.472 196.298 128.301 195.819Z" fill="#3E5DE7"/>
<path fill-rule="evenodd" clip-rule="evenodd" d="M125.528 188.02C125.358 187.541 125.632 187.153 126.14 187.153H141.717C142.225 187.153 142.775 187.541 142.945 188.02C143.115 188.499 142.842 188.887 142.334 188.887H126.756C126.248 188.887 125.698 188.499 125.528 188.02ZM126.453 190.62C126.282 190.141 126.556 189.753 127.064 189.753H142.642C143.15 189.753 143.7 190.141 143.87 190.62C144.04 191.098 143.766 191.486 143.258 191.486H127.68C127.172 191.486 126.623 191.098 126.453 190.62ZM127.377 193.22C127.207 192.741 127.481 192.353 127.989 192.353H143.566C144.074 192.353 144.624 192.741 144.794 193.22C144.964 193.698 144.69 194.086 144.182 194.086H128.605C128.097 194.086 127.547 193.698 127.377 193.22ZM128.301 195.819C128.131 195.341 128.405 194.953 128.913 194.953H144.491C144.999 194.953 145.548 195.341 145.718 195.819C145.889 196.298 145.615 196.686 145.107 196.686H129.529C129.021 196.686 128.472 196.298 128.301 195.819Z" fill="#F6F8F9" fill-opacity="0.65"/>
</g>
<rect x="0.745014" y="0.525812" width="23.7175" height="31.9954" rx="3.121" transform="matrix(1 0 0.33501 0.942215 114.376 167.609)" stroke="#3E5DE7" stroke-width="1.11612"/>
<rect x="0.745014" y="0.525812" width="23.7175" height="31.9954" rx="3.121" transform="matrix(1 0 0.33501 0.942215 114.376 167.609)" stroke="#F6F8F9" stroke-opacity="0.65" stroke-width="1.11612"/>
<path d="M147.626 189.112C147.698 189.165 147.782 189.342 147.844 189.41C147.797 189.45 147.749 189.495 147.694 189.545C147.231 189.968 146.354 190.719 142.582 191.661C141.825 191.849 139.286 191.885 139.286 191.885C138.539 191.992 136.972 192.137 136.864 193.016C136.837 193.231 137.101 193.463 137.109 193.47C137.109 193.47 136.125 193.538 136.065 194.43C136.042 194.78 138.244 195.131 138.244 195.131C138.244 195.131 137.192 195.398 137.172 196.059C137.172 196.247 143.582 197.46 143.582 197.46L142.186 197.543L140.736 197.473C140.735 197.473 139.982 197.613 139.939 198.239C139.925 198.487 141.26 198.752 142.812 198.955C145.227 199.273 146.963 198.993 148.661 198.529C148.803 198.489 148.941 198.455 149.074 198.42C150.822 197.961 151.602 197.875 153.85 196.65C154.848 196.107 156.318 195.03 156.931 194.484L155.311 188.488L153.077 187.724C153.077 187.724 152.04 187.318 150.289 186.995C149.189 186.792 148.116 186.873 146.981 186.75L147.626 189.112Z" fill="#AE7E61"/>
<path d="M105.763 275.817L106.519 282.417C106.419 282.443 92.433 286.125 87.1627 291.59L113.388 291.636L112.407 272.733L105.763 275.817ZM72.5563 251.084C72.5563 251.084 58.735 246.384 51.2701 248.049L72.9586 262.443L82.8463 246.234L75.5768 245.139L72.5563 251.084Z" fill="#3F475A"/>
<path d="M105.756 277.163L105.816 282.642L112.939 282.38L112.725 274.394L105.756 277.163ZM71.8282 250.603L77.9376 254.327L82.1798 247.521L74.8116 245.982L71.8282 250.603Z" fill="#AE7E61"/>
<path d="M95.2254 239.678L98.8319 278.825H115.537L114.795 221.985L146.68 222.205C155.776 222.205 164.574 214.393 163.944 205.314L162.952 196.071L114.259 181.686C105.244 179.648 102.119 182.34 96.2748 192.744L70.4713 245.636L84.6463 255.109L95.2254 239.678Z" fill="#3F4759"/>
<path opacity="0.150484" fill-rule="evenodd" clip-rule="evenodd" d="M110.191 199.437L146.681 222.205L114.795 221.985L115.537 278.825H98.832L93.1051 216.662C91.6921 205.351 98.7708 199.437 110.191 199.437Z" fill="#18181C"/>
<g filter="url(#filter1_d_207_15251)">
<g clip-path="url(#clip2_207_15251)">
<rect x="76.4648" y="46.582" width="24.8135" height="24.8135" rx="12.4068" fill="white"/>
<rect x="76.4648" y="46.582" width="24.8135" height="24.8135" rx="12.4068" fill="#85AA45"/>
<rect x="76.4648" y="46.582" width="24.8135" height="24.8135" rx="12.4068" fill="white" fill-opacity="0.6"/>
<path d="M96.5914 59.9102C96.5931 59.9796 96.5941 60.0491 96.5942 60.1188C96.5943 60.169 96.5943 60.2179 96.5932 60.2681L96.5944 60.2681L96.597 61.8743L96.6151 73.677L80.1482 73.7007L80.1274 60.2918L80.1473 60.2918C80.1339 60.1083 80.1269 59.9231 80.1266 59.7365C80.1238 57.936 80.7428 56.2747 81.7882 54.9413C79.8829 54.4695 78.4735 52.8035 78.4705 50.8188C78.4668 48.4647 80.4429 46.5534 82.8843 46.5499C85.3256 46.5464 87.3077 48.4519 87.3114 50.806C87.3119 51.1722 87.2646 51.5277 87.1751 51.8669C87.5581 51.8137 87.9496 51.7859 88.3478 51.7853C92.895 51.7787 96.5867 55.328 96.5936 59.7128C96.5937 59.7788 96.5929 59.8446 96.5914 59.9102Z" fill="#3A3A3A"/>
<path d="M88.2924 59.7143C88.4281 59.7555 88.5682 59.7907 88.712 59.8195C88.8285 59.8435 88.947 59.8626 89.0686 59.877C89.2638 59.9021 89.465 59.914 89.6693 59.9136C90.9651 59.9118 92.0958 59.4075 92.7012 58.6589C92.733 58.7783 92.7696 58.8956 92.8108 59.0107C92.8331 59.0693 92.8556 59.1301 92.8814 59.1886C93.0436 59.5825 93.2598 59.9476 93.5204 60.2732C93.8837 60.7263 94.3342 61.1037 94.8456 61.379C94.6159 62.963 94.0528 65.0934 92.7283 65.9431C91.9994 66.4106 90.6741 66.4681 89.5454 66.4053L89.0686 70.4779C89.0686 70.4779 87.2162 71.2784 86.1671 70.7076C85.9859 70.6096 85.3871 69.8706 85.2667 69.7886C85.2866 69.6065 86.0113 67.2775 86.0688 66.7482V66.7461C86.1726 65.7929 86.3139 64.4969 86.4067 63.6428C85.7882 62.7386 84.104 62.5352 84.1018 61.2636C84.1018 60.8824 84.3326 60.2232 85.1852 60.2221C86.3294 60.22 86.1671 61.5427 86.1671 61.5427C86.8152 61.786 87.5873 60.8392 88.2924 59.7143Z" fill="#EAC7B2"/>
<path opacity="0.401344" fill-rule="evenodd" clip-rule="evenodd" d="M89.5452 66.4045C89.5452 66.4045 88.1172 66.4452 87.5084 66.1245L89.4693 67.3117L89.5452 66.4045Z" fill="#161616"/>
</g>
<rect x="77.1541" y="47.2713" width="23.435" height="23.435" rx="11.7175" stroke="#85AA45" stroke-width="1.37853"/>
</g>
<g filter="url(#filter2_d_207_15251)">
<g clip-path="url(#clip3_207_15251)">
<rect x="237.891" y="94.6289" width="24.8135" height="24.8135" rx="12.4068" fill="white"/>
<rect x="237.891" y="94.6289" width="24.8135" height="24.8135" rx="12.4068" fill="#63A0EE"/>
<rect x="237.891" y="94.6289" width="24.8135" height="24.8135" rx="12.4068" fill="white" fill-opacity="0.6"/>
<path d="M256.281 101.995C260.377 102.566 258.661 107.283 257.51 109.83C256.159 112.82 257.342 114.824 257.342 114.824L263.673 112.577C261.35 109.622 263.916 107.976 263.284 104.453C262.718 101.292 259.642 99.8664 257.698 99.9336C256.728 99.9672 255.934 100.217 255.306 100.537C255.282 100.549 255.259 100.562 255.237 100.576C254.089 99.3973 252.5 98.6926 250.663 98.6926C246.886 98.6926 243.493 101.673 243.493 105.63C243.493 109.587 246.555 112.795 250.332 112.795C254.109 112.795 257.171 109.587 257.171 105.63C257.171 104.277 256.852 103.039 256.281 101.995Z" fill="#3A3A3A"/>
<path fill-rule="evenodd" clip-rule="evenodd" d="M249.664 112.984C249.664 112.984 251.068 113.025 251.667 112.698L249.738 113.909L249.664 112.984Z" fill="#CF3E83"/>
<path d="M244.428 107.69C244.639 109.32 245.185 111.616 246.534 112.513C247.25 112.989 248.553 113.048 249.664 112.984L249.941 118.391L254.671 117.603C254.671 117.603 253.195 111.164 253.044 109.829C253.773 109.169 255.015 108.863 255.017 107.741C255.017 107.352 254.79 106.679 253.951 106.677C252.826 106.676 252.987 108.025 252.987 108.025C252.847 108.079 252.708 108.076 252.568 108.027C251.454 107.98 248.355 107.514 246.248 103.913C246.002 105.125 245.491 106.636 244.428 107.69Z" fill="#FDE39C"/>
<path opacity="0.402786" fill-rule="evenodd" clip-rule="evenodd" d="M249.666 112.984C249.666 112.984 251.071 113.025 251.669 112.698L249.741 113.909L249.666 112.984Z" fill="#161616"/>
</g>
<rect x="238.58" y="95.3182" width="23.435" height="23.435" rx="11.7175" stroke="#63A0EE" stroke-width="1.37853"/>
</g>
<g filter="url(#filter3_d_207_15251)">
<g clip-path="url(#clip4_207_15251)">
<rect x="196.875" y="46.582" width="24.8135" height="24.8135" rx="12.4068" fill="white"/>
<rect x="196.875" y="46.582" width="24.8135" height="24.8135" rx="12.4068" fill="#E779B8"/>
<rect x="196.875" y="46.582" width="24.8135" height="24.8135" rx="12.4068" fill="white" fill-opacity="0.6"/>
<path d="M207.939 70.139L208.031 66.9546C208.031 66.9546 204.162 67.2627 203.335 66.8327C203.335 66.8327 202.323 61.6204 203.53 58.7338L203.554 58.6214L211.719 57.6662L212.232 62.2872C212.507 61.4759 214.722 60.6207 215.315 61.7825C216.601 64.3 212.003 65.9951 212.003 65.9951L212.47 70.1773" fill="#E2A987"/>
<path opacity="0.397786" fill-rule="evenodd" clip-rule="evenodd" d="M208.031 66.9543L210.64 66.3948L208.044 68.149L208.031 66.9543Z" fill="#161616"/>
<path fill-rule="evenodd" clip-rule="evenodd" d="M211.891 62.6743C212.266 62.1918 212.683 61.8723 213.06 61.6613L212.971 59.8166L209.136 59.1478C209.45 61.2623 210.84 62.2353 211.891 62.6743Z" fill="#3A3A3A"/>
<path d="M215.867 59.2432C215.867 59.2432 217.174 54.5543 213.413 51.9667C208.758 48.7638 203.37 57.1786 203.37 57.1786" fill="#C9191E"/>
<path d="M203.742 56.1847C203.276 56.0891 202.814 56.367 202.68 56.8234L201.98 59.2023C201.825 59.7289 202.166 60.2721 202.708 60.3624L215.424 62.4855C215.919 62.568 216.388 62.2368 216.476 61.7433L216.826 59.7823C216.912 59.2942 216.594 58.8255 216.109 58.7257L203.742 56.1847ZM210.654 55.8829L216.084 57.173L213.93 54.215L210.654 55.8829ZM210.639 55.8907L210.654 55.8829L210.631 55.8771L210.639 55.8907ZM205.371 54.629L210.631 55.8771L208.748 53.0558L205.371 54.629ZM214.805 49.3224C213.746 49.1137 212.719 49.8027 212.51 50.8615C212.301 51.9204 212.99 52.9486 214.049 53.1573C215.108 53.366 216.135 52.6761 216.344 51.6173C216.553 50.5584 215.864 49.5312 214.805 49.3224Z" fill="#000091"/>
</g>
<rect x="197.564" y="47.2713" width="23.435" height="23.435" rx="11.7175" stroke="#C24B8E" stroke-width="1.37853"/>
</g>
<g filter="url(#filter4_d_207_15251)">
<g clip-path="url(#clip5_207_15251)">
<rect x="29.2969" y="156.152" width="24.8135" height="24.8135" rx="12.4068" fill="white"/>
<rect x="29.2969" y="156.152" width="24.8135" height="24.8135" rx="12.4068" fill="#C49711"/>
<rect x="29.2969" y="156.152" width="24.8135" height="24.8135" rx="12.4068" fill="white" fill-opacity="0.6"/>
<path d="M30.495 173.232C30.495 171.865 35.617 160.499 42.2678 160.701C51.4943 160.981 53.8607 175.283 53.4382 176.691C53.102 177.812 51.4813 178.219 44.3756 178.021C33.7033 177.722 30.495 174.456 30.495 173.232Z" fill="#161616"/>
<path fill-rule="evenodd" clip-rule="evenodd" d="M42.9185 175.766C42.9185 175.766 41.514 175.808 40.9154 175.481L42.8439 176.692L42.9185 175.766Z" fill="#CF3E83"/>
<path d="M42.6658 166.464C44.2847 167.282 46.8341 168.781 48.1307 170.651C47.9038 172.266 47.3492 174.431 46.0488 175.296C45.333 175.772 44.0296 175.83 42.9186 175.766L42.6982 179.914L38.9819 179.801C38.9819 179.801 39.496 174.059 39.647 172.722C38.9182 172.06 37.5681 171.645 37.5658 170.522C37.5658 170.135 37.7928 169.461 38.6314 169.46C39.7566 169.459 39.597 170.807 39.597 170.807C40.7344 171.25 41.8961 167.877 42.6658 166.464Z" fill="#EAC7B2"/>
<path opacity="0.398182" fill-rule="evenodd" clip-rule="evenodd" d="M42.916 175.766C42.916 175.766 41.5114 175.808 40.9128 175.481L42.8413 176.692L42.916 175.766Z" fill="#161616"/>
</g>
<rect x="29.9861" y="156.842" width="23.435" height="23.435" rx="11.7175" stroke="#C49711" stroke-width="1.37853"/>
</g>
<g filter="url(#filter5_d_207_15251)">
<rect x="137.988" y="28.7109" width="24.8135" height="24.8135" rx="12.4068" fill="white"/>
<rect x="137.988" y="28.7109" width="24.8135" height="24.8135" rx="12.4068" fill="#D28C81"/>
<rect x="137.988" y="28.7109" width="24.8135" height="24.8135" rx="12.4068" fill="white" fill-opacity="0.6"/>
<rect x="138.678" y="29.4002" width="23.435" height="23.435" rx="11.7175" stroke="#D28C81" stroke-width="1.37853"/>
<path d="M149.498 52.2896L149.596 48.9369C149.596 48.9369 145.496 49.2613 144.619 48.8085C144.619 48.8085 143.674 43.8702 144.851 40.1628L153.504 39.1571L154.119 44.101C154.411 43.2467 156.686 42.2679 157.314 43.4911C158.677 46.1418 153.805 47.9266 153.805 47.9266L154.3 52.33" fill="#845D48"/>
<path opacity="0.399344" fill-rule="evenodd" clip-rule="evenodd" d="M149.596 48.9368L152.361 48.3478L149.609 50.1947L149.596 48.9368Z" fill="#161616"/>
<path d="M155.754 43.0445C156.139 41.6248 157.529 36.3842 157.365 35.4896C157.176 34.4528 156.449 33.18 152.717 31.845C149.555 30.714 147.771 31.533 147.231 32.2299C146.409 33.2903 144.851 40.1631 144.851 40.1631C144.851 40.1631 146.14 41.0742 150.709 40.9171C150.709 40.9171 150.077 43.6504 152.67 43.4934C152.67 43.4934 152.392 44.4139 153.647 44.7034C154.335 43.6396 155.249 43.2096 155.754 43.0445Z" fill="#3A3A3A"/>
</g>
<g filter="url(#filter6_d_207_15251)">
<g clip-path="url(#clip6_207_15251)">
<rect x="37.5" y="94.6289" width="24.8135" height="24.8135" rx="12.4068" fill="white"/>
<rect x="37.5" y="94.6289" width="24.8135" height="24.8135" rx="12.4068" fill="#FF706E"/>
<rect x="37.5" y="94.6289" width="24.8135" height="24.8135" rx="12.4068" fill="white" fill-opacity="0.6"/>
<path d="M50.878 118.166L50.595 112.589C50.595 112.589 54.5186 112.901 55.3579 112.465C55.3579 112.465 56.3836 107.187 55.1602 104.263L55.1355 104.15L46.8557 103.182L46.3406 107.87C46.0617 107.049 43.8109 106.174 43.2091 107.351C41.9052 109.9 46.5675 111.617 46.5675 111.617L45.585 117.941" fill="#845D48"/>
<path opacity="0.400274" fill-rule="evenodd" clip-rule="evenodd" d="M50.5951 112.589L47.9495 112.022L50.5824 113.798L50.5951 112.589Z" fill="#161616"/>
<path fill-rule="evenodd" clip-rule="evenodd" d="M46.3908 107.92C45.7726 107.28 45.0997 107.009 44.6915 106.896L44.7694 105.28L48.6588 104.603C48.3907 106.405 47.3497 107.389 46.3908 107.92Z" fill="#EACB47"/>
<path fill-rule="evenodd" clip-rule="evenodd" d="M55.39 104.894C55.0396 104.561 52.7558 104.458 50.0105 104.669C49.3719 104.718 48.7597 104.78 48.1937 104.852C46.3223 105.086 44.9454 105.42 44.7213 105.714C44.4727 102.045 46.7227 99.8596 49.6685 99.6564C51.6012 99.5228 53.3538 100.276 54.4029 101.845C54.9398 102.65 55.293 103.669 55.39 104.894Z" fill="#393954"/>
<path fill-rule="evenodd" clip-rule="evenodd" d="M55.4341 104.966H55.4331C55.4293 104.941 55.4143 104.916 55.3898 104.894C55.0394 104.561 52.7556 104.458 50.0103 104.669C49.3716 104.718 48.7595 104.78 48.1935 104.852C48.9987 104.087 50.4717 102.879 52.2093 102.337C52.9524 102.106 53.7059 101.937 54.4027 101.845C56.0942 101.621 57.4514 101.851 57.5192 102.728C57.6068 103.869 55.726 104.825 55.4341 104.966Z" fill="#161629"/>
</g>
<rect x="38.1893" y="95.3182" width="23.435" height="23.435" rx="11.7175" stroke="#FF706E" stroke-width="1.37853"/>
</g>
</g>
<defs>
<filter id="filter0_n_207_15251" x="0" y="0" width="300.293" height="300" filterUnits="userSpaceOnUse" color-interpolation-filters="sRGB">
<feFlood flood-opacity="0" result="BackgroundImageFix"/>
<feBlend mode="normal" in="SourceGraphic" in2="BackgroundImageFix" result="shape"/>
<feTurbulence type="fractalNoise" baseFrequency="3.4133334159851074 3.4133334159851074" stitchTiles="stitch" numOctaves="3" result="noise" seed="1493" />
<feColorMatrix in="noise" type="luminanceToAlpha" result="alphaNoise" />
<feComponentTransfer in="alphaNoise" result="coloredNoise1">
<feFuncA type="discrete" tableValues="0 0 0 0 0 0 1 1 1 1 1 1 1 1 1 1 1 1 1 1 1 1 1 1 1 1 1 1 1 1 1 1 1 1 1 1 1 1 1 1 1 1 1 1 0 0 0 0 0 0 0 0 0 0 0 0 0 0 0 0 0 0 0 0 0 0 0 0 0 0 0 0 0 0 0 0 0 0 0 0 0 0 0 0 0 0 0 0 0 0 0 0 0 0 0 0 0 0 0 0 "/>
</feComponentTransfer>
<feComposite operator="in" in2="shape" in="coloredNoise1" result="noise1Clipped" />
<feFlood flood-color="rgba(131, 131, 131, 0.1)" result="color1Flood" />
<feComposite operator="in" in2="noise1Clipped" in="color1Flood" result="color1" />
<feMerge result="effect1_noise_207_15251">
<feMergeNode in="shape" />
<feMergeNode in="color1" />
</feMerge>
</filter>
<filter id="filter1_d_207_15251" x="66.827" y="36.9441" width="44.0893" height="44.0893" filterUnits="userSpaceOnUse" color-interpolation-filters="sRGB">
<feFlood flood-opacity="0" result="BackgroundImageFix"/>
<feColorMatrix in="SourceAlpha" type="matrix" values="0 0 0 0 0 0 0 0 0 0 0 0 0 0 0 0 0 0 127 0" result="hardAlpha"/>
<feMorphology radius="1.81562" operator="dilate" in="SourceAlpha" result="effect1_dropShadow_207_15251"/>
<feOffset/>
<feGaussianBlur stdDeviation="3.91113"/>
<feComposite in2="hardAlpha" operator="out"/>
<feColorMatrix type="matrix" values="0 0 0 0 0.521569 0 0 0 0 0.666667 0 0 0 0 0.270588 0 0 0 0.25 0"/>
<feBlend mode="normal" in2="BackgroundImageFix" result="effect1_dropShadow_207_15251"/>
<feBlend mode="normal" in="SourceGraphic" in2="effect1_dropShadow_207_15251" result="shape"/>
</filter>
<filter id="filter2_d_207_15251" x="228.253" y="84.991" width="44.0893" height="44.0893" filterUnits="userSpaceOnUse" color-interpolation-filters="sRGB">
<feFlood flood-opacity="0" result="BackgroundImageFix"/>
<feColorMatrix in="SourceAlpha" type="matrix" values="0 0 0 0 0 0 0 0 0 0 0 0 0 0 0 0 0 0 127 0" result="hardAlpha"/>
<feMorphology radius="1.81562" operator="dilate" in="SourceAlpha" result="effect1_dropShadow_207_15251"/>
<feOffset/>
<feGaussianBlur stdDeviation="3.91113"/>
<feComposite in2="hardAlpha" operator="out"/>
<feColorMatrix type="matrix" values="0 0 0 0 0.388235 0 0 0 0 0.627451 0 0 0 0 0.933333 0 0 0 0.25 0"/>
<feBlend mode="normal" in2="BackgroundImageFix" result="effect1_dropShadow_207_15251"/>
<feBlend mode="normal" in="SourceGraphic" in2="effect1_dropShadow_207_15251" result="shape"/>
</filter>
<filter id="filter3_d_207_15251" x="187.237" y="36.9441" width="44.0893" height="44.0893" filterUnits="userSpaceOnUse" color-interpolation-filters="sRGB">
<feFlood flood-opacity="0" result="BackgroundImageFix"/>
<feColorMatrix in="SourceAlpha" type="matrix" values="0 0 0 0 0 0 0 0 0 0 0 0 0 0 0 0 0 0 127 0" result="hardAlpha"/>
<feMorphology radius="1.81562" operator="dilate" in="SourceAlpha" result="effect1_dropShadow_207_15251"/>
<feOffset/>
<feGaussianBlur stdDeviation="3.91113"/>
<feComposite in2="hardAlpha" operator="out"/>
<feColorMatrix type="matrix" values="0 0 0 0 0.760784 0 0 0 0 0.294118 0 0 0 0 0.556863 0 0 0 0.25 0"/>
<feBlend mode="normal" in2="BackgroundImageFix" result="effect1_dropShadow_207_15251"/>
<feBlend mode="normal" in="SourceGraphic" in2="effect1_dropShadow_207_15251" result="shape"/>
</filter>
<filter id="filter4_d_207_15251" x="19.659" y="146.514" width="44.0893" height="44.0893" filterUnits="userSpaceOnUse" color-interpolation-filters="sRGB">
<feFlood flood-opacity="0" result="BackgroundImageFix"/>
<feColorMatrix in="SourceAlpha" type="matrix" values="0 0 0 0 0 0 0 0 0 0 0 0 0 0 0 0 0 0 127 0" result="hardAlpha"/>
<feMorphology radius="1.81562" operator="dilate" in="SourceAlpha" result="effect1_dropShadow_207_15251"/>
<feOffset/>
<feGaussianBlur stdDeviation="3.91113"/>
<feComposite in2="hardAlpha" operator="out"/>
<feColorMatrix type="matrix" values="0 0 0 0 0.768627 0 0 0 0 0.592157 0 0 0 0 0.0666667 0 0 0 0.25 0"/>
<feBlend mode="normal" in2="BackgroundImageFix" result="effect1_dropShadow_207_15251"/>
<feBlend mode="normal" in="SourceGraphic" in2="effect1_dropShadow_207_15251" result="shape"/>
</filter>
<filter id="filter5_d_207_15251" x="128.35" y="19.073" width="44.0893" height="44.0893" filterUnits="userSpaceOnUse" color-interpolation-filters="sRGB">
<feFlood flood-opacity="0" result="BackgroundImageFix"/>
<feColorMatrix in="SourceAlpha" type="matrix" values="0 0 0 0 0 0 0 0 0 0 0 0 0 0 0 0 0 0 127 0" result="hardAlpha"/>
<feMorphology radius="1.81562" operator="dilate" in="SourceAlpha" result="effect1_dropShadow_207_15251"/>
<feOffset/>
<feGaussianBlur stdDeviation="3.91113"/>
<feComposite in2="hardAlpha" operator="out"/>
<feColorMatrix type="matrix" values="0 0 0 0 0.823529 0 0 0 0 0.54902 0 0 0 0 0.505882 0 0 0 0.25 0"/>
<feBlend mode="normal" in2="BackgroundImageFix" result="effect1_dropShadow_207_15251"/>
<feBlend mode="normal" in="SourceGraphic" in2="effect1_dropShadow_207_15251" result="shape"/>
</filter>
<filter id="filter6_d_207_15251" x="27.8621" y="84.991" width="44.0893" height="44.0893" filterUnits="userSpaceOnUse" color-interpolation-filters="sRGB">
<feFlood flood-opacity="0" result="BackgroundImageFix"/>
<feColorMatrix in="SourceAlpha" type="matrix" values="0 0 0 0 0 0 0 0 0 0 0 0 0 0 0 0 0 0 127 0" result="hardAlpha"/>
<feMorphology radius="1.81562" operator="dilate" in="SourceAlpha" result="effect1_dropShadow_207_15251"/>
<feOffset/>
<feGaussianBlur stdDeviation="3.91113"/>
<feComposite in2="hardAlpha" operator="out"/>
<feColorMatrix type="matrix" values="0 0 0 0 1 0 0 0 0 0.439216 0 0 0 0 0.431373 0 0 0 0.25 0"/>
<feBlend mode="normal" in2="BackgroundImageFix" result="effect1_dropShadow_207_15251"/>
<feBlend mode="normal" in="SourceGraphic" in2="effect1_dropShadow_207_15251" result="shape"/>
</filter>
<clipPath id="clip0_207_15251">
<rect width="24.8336" height="33.1115" rx="3.67906" transform="matrix(1 0 0.33501 0.942215 115.138 166.992)" fill="white"/>
</clipPath>
<clipPath id="clip1_207_15251">
<rect width="24.8336" height="33.1115" rx="3.67906" transform="matrix(1 0 0.33501 0.942215 114.552 167.578)" fill="white"/>
</clipPath>
<clipPath id="clip2_207_15251">
<rect x="76.4648" y="46.582" width="24.8135" height="24.8135" rx="12.4068" fill="white"/>
</clipPath>
<clipPath id="clip3_207_15251">
<rect x="237.891" y="94.6289" width="24.8135" height="24.8135" rx="12.4068" fill="white"/>
</clipPath>
<clipPath id="clip4_207_15251">
<rect x="196.875" y="46.582" width="24.8135" height="24.8135" rx="12.4068" fill="white"/>
</clipPath>
<clipPath id="clip5_207_15251">
<rect x="29.2969" y="156.152" width="24.8135" height="24.8135" rx="12.4068" fill="white"/>
</clipPath>
<clipPath id="clip6_207_15251">
<rect x="37.5" y="94.6289" width="24.8135" height="24.8135" rx="12.4068" fill="white"/>
</clipPath>
</defs>
</svg>
