<svg width="300" height="300" viewBox="0 0 300 300" fill="none" xmlns="http://www.w3.org/2000/svg">
<g clip-path="url(#clip0_1977_3184)" filter="url(#filter0_n_1977_3184)">
<path fill-rule="evenodd" clip-rule="evenodd" d="M153.659 297.363C153.659 298.172 119.457 298.828 77.2681 298.828C35.0792 298.828 0.878052 298.172 0.878052 297.363C0.878052 296.554 35.0792 295.898 77.2681 295.898C119.457 295.898 153.659 296.554 153.659 297.363Z" fill="#DFE2EA"/>
<path fill-rule="evenodd" clip-rule="evenodd" d="M175.902 296.36H183.669V271.106H175.902V296.36Z" fill="#626A80"/>
<path fill-rule="evenodd" clip-rule="evenodd" d="M175.902 296.36H183.669V271.106H175.902V296.36Z" fill="#F6F8F9" fill-opacity="0.9"/>
<path fill-rule="evenodd" clip-rule="evenodd" d="M240.59 296.36H248.356V271.106H240.59V296.36Z" fill="#626A80"/>
<path fill-rule="evenodd" clip-rule="evenodd" d="M240.59 296.36H248.356V271.106H240.59V296.36Z" fill="#F6F8F9" fill-opacity="0.9"/>
<path fill-rule="evenodd" clip-rule="evenodd" d="M203.447 296.36H211.213V271.106H203.447V296.36Z" fill="#626A80"/>
<path fill-rule="evenodd" clip-rule="evenodd" d="M203.447 296.36H211.213V271.106H203.447V296.36Z" fill="#F6F8F9" fill-opacity="0.8"/>
<path fill-rule="evenodd" clip-rule="evenodd" d="M268.135 296.36H275.901V271.106H268.135V296.36Z" fill="#626A80"/>
<path fill-rule="evenodd" clip-rule="evenodd" d="M268.135 296.36H275.901V271.106H268.135V296.36Z" fill="#F6F8F9" fill-opacity="0.8"/>
<path fill-rule="evenodd" clip-rule="evenodd" d="M203.403 275.587H275.856V61.0579H203.403V275.587Z" fill="#626A80"/>
<path fill-rule="evenodd" clip-rule="evenodd" d="M203.403 275.587H275.856V61.0579H203.403V275.587Z" fill="#F6F8F9" fill-opacity="0.8"/>
<path fill-rule="evenodd" clip-rule="evenodd" d="M176.048 275.587H248.502V61.0579H176.048V275.587Z" fill="#626A80"/>
<path fill-rule="evenodd" clip-rule="evenodd" d="M176.048 275.587H248.502V61.0579H176.048V275.587Z" fill="#F6F8F9" fill-opacity="0.9"/>
<path fill-rule="evenodd" clip-rule="evenodd" d="M229.899 61.0541H237.285V32.8125H229.899V61.0541Z" fill="#626A80"/>
<path fill-rule="evenodd" clip-rule="evenodd" d="M229.899 61.0541H237.285V32.8125H229.899V61.0541Z" fill="#F6F8F9" fill-opacity="0.9"/>
<path fill-rule="evenodd" clip-rule="evenodd" d="M222.513 61.0541H229.899V32.8125H222.513V61.0541Z" fill="#626A80"/>
<path fill-rule="evenodd" clip-rule="evenodd" d="M222.513 61.0541H229.899V32.8125H222.513V61.0541Z" fill="#F6F8F9" fill-opacity="0.55"/>
<path fill-rule="evenodd" clip-rule="evenodd" d="M237.285 61.0541H244.671V32.8125H237.285V61.0541Z" fill="#626A80"/>
<path fill-rule="evenodd" clip-rule="evenodd" d="M237.285 61.0541H244.671V32.8125H237.285V61.0541Z" fill="#F6F8F9" fill-opacity="0.55"/>
<path fill-rule="evenodd" clip-rule="evenodd" d="M264.512 61.0541H244.671V32.8125H264.512C265.341 32.8125 266.013 33.4849 266.013 34.3148V59.5518C266.013 60.3814 265.341 61.0541 264.512 61.0541Z" fill="#626A80"/>
<path fill-rule="evenodd" clip-rule="evenodd" d="M264.512 61.0541H244.671V32.8125H264.512C265.341 32.8125 266.013 33.4849 266.013 34.3148V59.5518C266.013 60.3814 265.341 61.0541 264.512 61.0541Z" fill="#F6F8F9" fill-opacity="0.8"/>
<path fill-rule="evenodd" clip-rule="evenodd" d="M251.18 44.0373H259.504V41.2409H251.18V44.0373Z" fill="#626A80"/>
<path fill-rule="evenodd" clip-rule="evenodd" d="M251.18 44.0373H259.504V41.2409H251.18V44.0373Z" fill="#F6F8F9" fill-opacity="0.55"/>
<path fill-rule="evenodd" clip-rule="evenodd" d="M182.534 268.518H242.044V206.771H182.534V268.518Z" fill="#626A80"/>
<path fill-rule="evenodd" clip-rule="evenodd" d="M182.534 268.518H242.044V206.771H182.534V268.518Z" fill="#F6F8F9" fill-opacity="0.55"/>
<path fill-rule="evenodd" clip-rule="evenodd" d="M182.535 268.518H203.065V206.771H182.535V268.518Z" fill="#626A80"/>
<path fill-rule="evenodd" clip-rule="evenodd" d="M182.535 268.518H203.065V206.771H182.535V268.518Z" fill="#F6F8F9" fill-opacity="0.8"/>
<path fill-rule="evenodd" clip-rule="evenodd" d="M182.534 199.109H242.044V137.362H182.534V199.109Z" fill="#626A80"/>
<path fill-rule="evenodd" clip-rule="evenodd" d="M182.534 199.109H242.044V137.362H182.534V199.109Z" fill="#F6F8F9" fill-opacity="0.55"/>
<path fill-rule="evenodd" clip-rule="evenodd" d="M182.535 199.109H203.065V137.362H182.535V199.109Z" fill="#626A80"/>
<path fill-rule="evenodd" clip-rule="evenodd" d="M182.535 199.109H203.065V137.362H182.535V199.109Z" fill="#F6F8F9" fill-opacity="0.8"/>
<path fill-rule="evenodd" clip-rule="evenodd" d="M182.534 129.7H242.044V67.9535H182.534V129.7Z" fill="#626A80"/>
<path fill-rule="evenodd" clip-rule="evenodd" d="M182.534 129.7H242.044V67.9535H182.534V129.7Z" fill="#F6F8F9" fill-opacity="0.55"/>
<path fill-rule="evenodd" clip-rule="evenodd" d="M182.535 129.7H203.065V67.9535H182.535V129.7Z" fill="#626A80"/>
<path fill-rule="evenodd" clip-rule="evenodd" d="M182.535 129.7H203.065V67.9535H182.535V129.7Z" fill="#F6F8F9" fill-opacity="0.8"/>
<path fill-rule="evenodd" clip-rule="evenodd" d="M211.085 251.507H223.06V249.277H211.085V251.507Z" fill="#626A80"/>
<path fill-rule="evenodd" clip-rule="evenodd" d="M211.085 251.507H223.06V249.277H211.085V251.507Z" fill="#F6F8F9" fill-opacity="0.55"/>
<path fill-rule="evenodd" clip-rule="evenodd" d="M213.754 254.947H220.392V252.717H213.754V254.947Z" fill="#626A80"/>
<path fill-rule="evenodd" clip-rule="evenodd" d="M213.754 254.947H220.392V252.717H213.754V254.947Z" fill="#F6F8F9" fill-opacity="0.55"/>
<g filter="url(#filter1_d_1977_3184)">
<rect x="200.609" y="85.9486" width="21.5015" height="29.7498" rx="10.7507" fill="#F6F8F9" fill-opacity="0.975"/>
<rect x="200.609" y="85.9486" width="21.5015" height="29.7498" rx="10.7507" stroke="#6D778C" stroke-width="3.14714"/>
<rect x="200.609" y="85.9486" width="21.5015" height="29.7498" rx="10.7507" stroke="#F6F8F9" stroke-opacity="0.8" stroke-width="3.14714"/>
<path fill-rule="evenodd" clip-rule="evenodd" d="M202.23 88.4871C202.23 87.9824 202.639 87.5733 203.143 87.5733H219.576C220.08 87.5733 220.488 87.9824 220.488 88.4871C220.488 88.9918 220.08 89.4009 219.576 89.4009H203.143C202.639 89.4009 202.23 88.9918 202.23 88.4871Z" fill="#6D778C"/>
<path fill-rule="evenodd" clip-rule="evenodd" d="M202.23 88.4871C202.23 87.9824 202.639 87.5733 203.143 87.5733H219.576C220.08 87.5733 220.488 87.9824 220.488 88.4871C220.488 88.9918 220.08 89.4009 219.576 89.4009H203.143C202.639 89.4009 202.23 88.9918 202.23 88.4871Z" fill="#F6F8F9" fill-opacity="0.8"/>
<path fill-rule="evenodd" clip-rule="evenodd" d="M202.23 91.5712C202.23 91.0665 202.639 90.6574 203.143 90.6574H219.576C220.08 90.6574 220.488 91.0665 220.488 91.5712C220.488 92.0759 220.08 92.485 219.576 92.485H203.143C202.639 92.485 202.23 92.0759 202.23 91.5712Z" fill="#6D778C"/>
<path fill-rule="evenodd" clip-rule="evenodd" d="M202.23 91.5712C202.23 91.0665 202.639 90.6574 203.143 90.6574H219.576C220.08 90.6574 220.488 91.0665 220.488 91.5712C220.488 92.0759 220.08 92.485 219.576 92.485H203.143C202.639 92.485 202.23 92.0759 202.23 91.5712Z" fill="#F6F8F9" fill-opacity="0.8"/>
<path fill-rule="evenodd" clip-rule="evenodd" d="M202.23 94.6553C202.23 94.1506 202.639 93.7415 203.143 93.7415H219.576C220.08 93.7415 220.488 94.1506 220.488 94.6553C220.488 95.16 220.08 95.5691 219.576 95.5691H203.143C202.639 95.5691 202.23 95.16 202.23 94.6553Z" fill="#6D778C"/>
<path fill-rule="evenodd" clip-rule="evenodd" d="M202.23 94.6553C202.23 94.1506 202.639 93.7415 203.143 93.7415H219.576C220.08 93.7415 220.488 94.1506 220.488 94.6553C220.488 95.16 220.08 95.5691 219.576 95.5691H203.143C202.639 95.5691 202.23 95.16 202.23 94.6553Z" fill="#F6F8F9" fill-opacity="0.8"/>
<path fill-rule="evenodd" clip-rule="evenodd" d="M202.23 97.7394C202.23 97.2347 202.639 96.8256 203.143 96.8256H219.576C220.08 96.8256 220.488 97.2347 220.488 97.7394C220.488 98.244 220.08 98.6532 219.576 98.6532H203.143C202.639 98.6532 202.23 98.244 202.23 97.7394Z" fill="#6D778C"/>
<path fill-rule="evenodd" clip-rule="evenodd" d="M202.23 97.7394C202.23 97.2347 202.639 96.8256 203.143 96.8256H219.576C220.08 96.8256 220.488 97.2347 220.488 97.7394C220.488 98.244 220.08 98.6532 219.576 98.6532H203.143C202.639 98.6532 202.23 98.244 202.23 97.7394Z" fill="#F6F8F9" fill-opacity="0.8"/>
<path fill-rule="evenodd" clip-rule="evenodd" d="M202.23 100.823C202.23 100.319 202.639 99.9096 203.143 99.9096H219.576C220.08 99.9096 220.488 100.319 220.488 100.823C220.488 101.328 220.08 101.737 219.576 101.737H203.143C202.639 101.737 202.23 101.328 202.23 100.823Z" fill="#6D778C"/>
<path fill-rule="evenodd" clip-rule="evenodd" d="M202.23 100.823C202.23 100.319 202.639 99.9096 203.143 99.9096H219.576C220.08 99.9096 220.488 100.319 220.488 100.823C220.488 101.328 220.08 101.737 219.576 101.737H203.143C202.639 101.737 202.23 101.328 202.23 100.823Z" fill="#F6F8F9" fill-opacity="0.8"/>
<path fill-rule="evenodd" clip-rule="evenodd" d="M202.23 103.908C202.23 103.403 202.639 102.994 203.143 102.994H219.576C220.08 102.994 220.488 103.403 220.488 103.908C220.488 104.412 220.08 104.821 219.576 104.821H203.143C202.639 104.821 202.23 104.412 202.23 103.908Z" fill="#6D778C"/>
<path fill-rule="evenodd" clip-rule="evenodd" d="M202.23 103.908C202.23 103.403 202.639 102.994 203.143 102.994H219.576C220.08 102.994 220.488 103.403 220.488 103.908C220.488 104.412 220.08 104.821 219.576 104.821H203.143C202.639 104.821 202.23 104.412 202.23 103.908Z" fill="#F6F8F9" fill-opacity="0.8"/>
<path fill-rule="evenodd" clip-rule="evenodd" d="M202.23 106.992C202.23 106.487 202.639 106.078 203.143 106.078H219.576C220.08 106.078 220.488 106.487 220.488 106.992C220.488 107.496 220.08 107.905 219.576 107.905H203.143C202.639 107.905 202.23 107.496 202.23 106.992Z" fill="#6D778C"/>
<path fill-rule="evenodd" clip-rule="evenodd" d="M202.23 106.992C202.23 106.487 202.639 106.078 203.143 106.078H219.576C220.08 106.078 220.488 106.487 220.488 106.992C220.488 107.496 220.08 107.905 219.576 107.905H203.143C202.639 107.905 202.23 107.496 202.23 106.992Z" fill="#F6F8F9" fill-opacity="0.8"/>
<path fill-rule="evenodd" clip-rule="evenodd" d="M202.23 110.076C202.23 109.571 202.639 109.162 203.143 109.162H219.576C220.08 109.162 220.488 109.571 220.488 110.076C220.488 110.58 220.08 110.99 219.576 110.99H203.143C202.639 110.99 202.23 110.58 202.23 110.076Z" fill="#6D778C"/>
<path fill-rule="evenodd" clip-rule="evenodd" d="M202.23 110.076C202.23 109.571 202.639 109.162 203.143 109.162H219.576C220.08 109.162 220.488 109.571 220.488 110.076C220.488 110.58 220.08 110.99 219.576 110.99H203.143C202.639 110.99 202.23 110.58 202.23 110.076Z" fill="#F6F8F9" fill-opacity="0.8"/>
<path fill-rule="evenodd" clip-rule="evenodd" d="M202.23 113.16C202.23 112.655 202.639 112.246 203.143 112.246H219.576C220.08 112.246 220.488 112.655 220.488 113.16C220.488 113.664 220.08 114.074 219.576 114.074H203.143C202.639 114.074 202.23 113.664 202.23 113.16Z" fill="#6D778C"/>
<path fill-rule="evenodd" clip-rule="evenodd" d="M202.23 113.16C202.23 112.655 202.639 112.246 203.143 112.246H219.576C220.08 112.246 220.488 112.655 220.488 113.16C220.488 113.664 220.08 114.074 219.576 114.074H203.143C202.639 114.074 202.23 113.664 202.23 113.16Z" fill="#F6F8F9" fill-opacity="0.8"/>
</g>
<rect x="1.31226" y="1.36875" width="14.7812" height="20.6249" rx="7.39061" transform="matrix(0.999778 0.0210852 -0.021044 0.999779 48.3521 91.6395)" fill="#3E5DE7"/>
<rect x="1.31226" y="1.36875" width="14.7812" height="20.6249" rx="7.39061" transform="matrix(0.999778 0.0210852 -0.021044 0.999779 48.3521 91.6395)" fill="#F6F8F9" fill-opacity="0.975"/>
<rect x="1.31226" y="1.36875" width="14.7812" height="20.6249" rx="7.39061" transform="matrix(0.999778 0.0210852 -0.021044 0.999779 48.3521 91.6395)" stroke="#3E5DE7" stroke-width="2.68155"/>
<rect x="1.31226" y="1.36875" width="14.7812" height="20.6249" rx="7.39061" transform="matrix(0.999778 0.0210852 -0.021044 0.999779 48.3521 91.6395)" stroke="#F6F8F9" stroke-opacity="0.65" stroke-width="2.68155"/>
<path fill-rule="evenodd" clip-rule="evenodd" d="M50.8189 97.0102C50.8264 96.6527 51.122 96.369 51.4791 96.3765L57.2988 96.4993C57.6559 96.5068 57.9393 96.8027 57.9318 97.1602C57.9242 97.5176 57.6286 97.8013 57.2715 97.7938L51.4519 97.6711C51.0948 97.6635 50.8114 97.3676 50.8189 97.0102Z" fill="#3E5DE7"/>
<path fill-rule="evenodd" clip-rule="evenodd" d="M50.8189 97.0102C50.8264 96.6527 51.122 96.369 51.4791 96.3765L57.2988 96.4993C57.6559 96.5068 57.9393 96.8027 57.9318 97.1602C57.9242 97.5176 57.6286 97.8013 57.2715 97.7938L51.4519 97.6711C51.0948 97.6635 50.8114 97.3676 50.8189 97.0102Z" fill="#F6F8F9" fill-opacity="0.45"/>
<path fill-rule="evenodd" clip-rule="evenodd" d="M50.7726 99.1992C50.7802 98.8417 51.0758 98.558 51.4329 98.5656L62.3845 98.7965C62.7416 98.8041 63.025 99.1 63.0175 99.4574C63.0099 99.8149 62.7143 100.099 62.3572 100.091L51.4056 99.8601C51.0485 99.8526 50.7651 99.5567 50.7726 99.1992ZM50.7318 101.141C50.7393 100.783 51.0349 100.5 51.392 100.507L62.3436 100.738C62.7007 100.746 62.9841 101.042 62.9766 101.399C62.9691 101.757 62.6735 102.04 62.3163 102.033L51.3648 101.802C51.0076 101.794 50.7242 101.498 50.7318 101.141ZM50.6909 103.083C50.6984 102.725 50.994 102.442 51.3511 102.449L62.3027 102.68C62.6598 102.688 62.9432 102.984 62.9357 103.341C62.9282 103.698 62.6326 103.982 62.2755 103.975L51.3239 103.744C50.9668 103.736 50.6834 103.44 50.6909 103.083ZM50.65 105.025C50.6575 104.667 50.9531 104.383 51.3103 104.391L62.2618 104.622C62.619 104.629 62.9024 104.925 62.8948 105.283C62.8873 105.64 62.5917 105.924 62.2346 105.916L51.283 105.685C50.9259 105.678 50.6425 105.382 50.65 105.025Z" fill="#3E5DE7"/>
<path fill-rule="evenodd" clip-rule="evenodd" d="M50.7726 99.1992C50.7802 98.8417 51.0758 98.558 51.4329 98.5656L62.3845 98.7965C62.7416 98.8041 63.025 99.1 63.0175 99.4574C63.0099 99.8149 62.7143 100.099 62.3572 100.091L51.4056 99.8601C51.0485 99.8526 50.7651 99.5567 50.7726 99.1992ZM50.7318 101.141C50.7393 100.783 51.0349 100.5 51.392 100.507L62.3436 100.738C62.7007 100.746 62.9841 101.042 62.9766 101.399C62.9691 101.757 62.6735 102.04 62.3163 102.033L51.3648 101.802C51.0076 101.794 50.7242 101.498 50.7318 101.141ZM50.6909 103.083C50.6984 102.725 50.994 102.442 51.3511 102.449L62.3027 102.68C62.6598 102.688 62.9432 102.984 62.9357 103.341C62.9282 103.698 62.6326 103.982 62.2755 103.975L51.3239 103.744C50.9668 103.736 50.6834 103.44 50.6909 103.083ZM50.65 105.025C50.6575 104.667 50.9531 104.383 51.3103 104.391L62.2618 104.622C62.619 104.629 62.9024 104.925 62.8948 105.283C62.8873 105.64 62.5917 105.924 62.2346 105.916L51.283 105.685C50.9259 105.678 50.6425 105.382 50.65 105.025Z" fill="#F6F8F9" fill-opacity="0.65"/>
<path fill-rule="evenodd" clip-rule="evenodd" d="M50.6087 106.989C50.6162 106.632 50.9118 106.348 51.2689 106.356L62.2205 106.587C62.5776 106.594 62.861 106.89 62.8535 107.247C62.846 107.605 62.5504 107.889 62.1932 107.881L51.2417 107.65C50.8845 107.643 50.6011 107.347 50.6087 106.989ZM50.5678 108.931C50.5753 108.573 50.8709 108.29 51.228 108.297L62.1796 108.528C62.5367 108.536 62.8201 108.832 62.8126 109.189C62.8051 109.547 62.5095 109.83 62.1524 109.823L51.2008 109.592C50.8437 109.584 50.5603 109.288 50.5678 108.931ZM50.5269 110.873C50.5344 110.515 50.83 110.232 51.1872 110.239L62.1388 110.47C62.4959 110.478 62.7793 110.773 62.7718 111.131C62.7642 111.488 62.4686 111.772 62.1115 111.765L51.1599 111.534C50.8028 111.526 50.5194 111.23 50.5269 110.873ZM50.486 112.814C50.4936 112.457 50.7892 112.173 51.1463 112.181L62.0979 112.412C62.455 112.419 62.7384 112.715 62.7309 113.073C62.7234 113.43 62.4278 113.714 62.0706 113.706L51.119 113.475C50.7619 113.468 50.4785 113.172 50.486 112.814Z" fill="#3E5DE7"/>
<path fill-rule="evenodd" clip-rule="evenodd" d="M50.6087 106.989C50.6162 106.632 50.9118 106.348 51.2689 106.356L62.2205 106.587C62.5776 106.594 62.861 106.89 62.8535 107.247C62.846 107.605 62.5504 107.889 62.1932 107.881L51.2417 107.65C50.8845 107.643 50.6011 107.347 50.6087 106.989ZM50.5678 108.931C50.5753 108.573 50.8709 108.29 51.228 108.297L62.1796 108.528C62.5367 108.536 62.8201 108.832 62.8126 109.189C62.8051 109.547 62.5095 109.83 62.1524 109.823L51.2008 109.592C50.8437 109.584 50.5603 109.288 50.5678 108.931ZM50.5269 110.873C50.5344 110.515 50.83 110.232 51.1872 110.239L62.1388 110.47C62.4959 110.478 62.7793 110.773 62.7718 111.131C62.7642 111.488 62.4686 111.772 62.1115 111.765L51.1599 111.534C50.8028 111.526 50.5194 111.23 50.5269 110.873ZM50.486 112.814C50.4936 112.457 50.7892 112.173 51.1463 112.181L62.0979 112.412C62.455 112.419 62.7384 112.715 62.7309 113.073C62.7234 113.43 62.4278 113.714 62.0706 113.706L51.119 113.475C50.7619 113.468 50.4785 113.172 50.486 112.814Z" fill="#F6F8F9" fill-opacity="0.65"/>
<g filter="url(#filter2_d_1977_3184)">
<g clip-path="url(#clip1_1977_3184)">
<rect width="18.6597" height="24.8962" rx="9.32983" transform="matrix(0.917617 0.397466 -0.396813 0.917899 64.3041 96.8031)" fill="#F6F8F9" fill-opacity="0.975"/>
<path fill-rule="evenodd" clip-rule="evenodd" d="M65.2888 100.621C65.4404 100.27 65.8472 100.109 66.1974 100.261L77.6123 105.205C77.9626 105.357 78.1236 105.764 77.9721 106.115C77.8205 106.465 77.4137 106.627 77.0635 106.475L65.6486 101.531C65.2983 101.379 65.1373 100.972 65.2888 100.621Z" fill="#6D778C"/>
<path fill-rule="evenodd" clip-rule="evenodd" d="M65.2888 100.621C65.4404 100.27 65.8472 100.109 66.1974 100.261L77.6123 105.205C77.9626 105.357 78.1236 105.764 77.9721 106.115C77.8205 106.465 77.4137 106.627 77.0635 106.475L65.6486 101.531C65.2983 101.379 65.1373 100.972 65.2888 100.621Z" fill="#F6F8F9" fill-opacity="0.8"/>
<path fill-rule="evenodd" clip-rule="evenodd" d="M64.3626 102.763C64.5142 102.413 64.921 102.252 65.2712 102.403L76.6862 107.348C77.0364 107.499 77.1975 107.907 77.0459 108.257C76.8944 108.608 76.4876 108.769 76.1373 108.617L64.7224 103.673C64.3721 103.521 64.2111 103.114 64.3626 102.763Z" fill="#6D778C"/>
<path fill-rule="evenodd" clip-rule="evenodd" d="M64.3626 102.763C64.5142 102.413 64.921 102.252 65.2712 102.403L76.6862 107.348C77.0364 107.499 77.1975 107.907 77.0459 108.257C76.8944 108.608 76.4876 108.769 76.1373 108.617L64.7224 103.673C64.3721 103.521 64.2111 103.114 64.3626 102.763Z" fill="#F6F8F9" fill-opacity="0.8"/>
<path fill-rule="evenodd" clip-rule="evenodd" d="M63.4365 104.906C63.588 104.555 63.9948 104.394 64.3451 104.546L75.76 109.49C76.1102 109.642 76.2713 110.049 76.1197 110.4C75.9682 110.75 75.5614 110.911 75.2112 110.76L63.7962 105.815C63.446 105.664 63.2849 105.256 63.4365 104.906Z" fill="#6D778C"/>
<path fill-rule="evenodd" clip-rule="evenodd" d="M63.4365 104.906C63.588 104.555 63.9948 104.394 64.3451 104.546L75.76 109.49C76.1102 109.642 76.2713 110.049 76.1197 110.4C75.9682 110.75 75.5614 110.911 75.2112 110.76L63.7962 105.815C63.446 105.664 63.2849 105.256 63.4365 104.906Z" fill="#F6F8F9" fill-opacity="0.8"/>
<path fill-rule="evenodd" clip-rule="evenodd" d="M62.5103 107.048C62.6619 106.698 63.0687 106.536 63.4189 106.688L74.8338 111.633C75.1841 111.784 75.3451 112.191 75.1936 112.542C75.042 112.893 74.6352 113.054 74.285 112.902L62.87 107.958C62.5198 107.806 62.3587 107.399 62.5103 107.048Z" fill="#6D778C"/>
<path fill-rule="evenodd" clip-rule="evenodd" d="M62.5103 107.048C62.6619 106.698 63.0687 106.536 63.4189 106.688L74.8338 111.633C75.1841 111.784 75.3451 112.191 75.1936 112.542C75.042 112.893 74.6352 113.054 74.285 112.902L62.87 107.958C62.5198 107.806 62.3587 107.399 62.5103 107.048Z" fill="#F6F8F9" fill-opacity="0.8"/>
<path fill-rule="evenodd" clip-rule="evenodd" d="M61.5841 109.191C61.7357 108.84 62.1425 108.679 62.4927 108.831L73.9077 113.775C74.2579 113.927 74.419 114.334 74.2674 114.684C74.1159 115.035 73.7091 115.196 73.3588 115.044L61.9439 110.1C61.5936 109.948 61.4326 109.541 61.5841 109.191Z" fill="#6D778C"/>
<path fill-rule="evenodd" clip-rule="evenodd" d="M61.5841 109.191C61.7357 108.84 62.1425 108.679 62.4927 108.831L73.9077 113.775C74.2579 113.927 74.419 114.334 74.2674 114.684C74.1159 115.035 73.7091 115.196 73.3588 115.044L61.9439 110.1C61.5936 109.948 61.4326 109.541 61.5841 109.191Z" fill="#F6F8F9" fill-opacity="0.8"/>
<path fill-rule="evenodd" clip-rule="evenodd" d="M60.658 111.333C60.8095 110.982 61.2163 110.821 61.5666 110.973L72.9815 115.917C73.3317 116.069 73.4928 116.476 73.3412 116.827C73.1897 117.177 72.7829 117.339 72.4327 117.187L61.0177 112.242C60.6675 112.091 60.5064 111.684 60.658 111.333Z" fill="#6D778C"/>
<path fill-rule="evenodd" clip-rule="evenodd" d="M60.658 111.333C60.8095 110.982 61.2163 110.821 61.5666 110.973L72.9815 115.917C73.3317 116.069 73.4928 116.476 73.3412 116.827C73.1897 117.177 72.7829 117.339 72.4327 117.187L61.0177 112.242C60.6675 112.091 60.5064 111.684 60.658 111.333Z" fill="#F6F8F9" fill-opacity="0.8"/>
<path fill-rule="evenodd" clip-rule="evenodd" d="M59.7318 113.475C59.8834 113.125 60.2901 112.964 60.6404 113.115L72.0553 118.06C72.4056 118.211 72.5666 118.619 72.4151 118.969C72.2635 119.32 71.8567 119.481 71.5065 119.329L60.0915 114.385C59.7413 114.233 59.5802 113.826 59.7318 113.475Z" fill="#6D778C"/>
<path fill-rule="evenodd" clip-rule="evenodd" d="M59.7318 113.475C59.8834 113.125 60.2901 112.964 60.6404 113.115L72.0553 118.06C72.4056 118.211 72.5666 118.619 72.4151 118.969C72.2635 119.32 71.8567 119.481 71.5065 119.329L60.0915 114.385C59.7413 114.233 59.5802 113.826 59.7318 113.475Z" fill="#F6F8F9" fill-opacity="0.8"/>
<path fill-rule="evenodd" clip-rule="evenodd" d="M58.8056 115.618C58.9572 115.267 59.364 115.106 59.7142 115.258L71.1292 120.202C71.4794 120.354 71.6405 120.761 71.4889 121.112C71.3373 121.462 70.9306 121.623 70.5803 121.472L59.1654 116.527C58.8151 116.376 58.6541 115.968 58.8056 115.618Z" fill="#6D778C"/>
<path fill-rule="evenodd" clip-rule="evenodd" d="M58.8056 115.618C58.9572 115.267 59.364 115.106 59.7142 115.258L71.1292 120.202C71.4794 120.354 71.6405 120.761 71.4889 121.112C71.3373 121.462 70.9306 121.623 70.5803 121.472L59.1654 116.527C58.8151 116.376 58.6541 115.968 58.8056 115.618Z" fill="#F6F8F9" fill-opacity="0.8"/>
<path fill-rule="evenodd" clip-rule="evenodd" d="M57.8795 117.76C58.031 117.41 58.4378 117.248 58.788 117.4L70.203 122.344C70.5532 122.496 70.7143 122.903 70.5627 123.254C70.4112 123.605 70.0044 123.766 69.6542 123.614L58.2392 118.67C57.889 118.518 57.7279 118.111 57.8795 117.76Z" fill="#6D778C"/>
<path fill-rule="evenodd" clip-rule="evenodd" d="M57.8795 117.76C58.031 117.41 58.4378 117.248 58.788 117.4L70.203 122.344C70.5532 122.496 70.7143 122.903 70.5627 123.254C70.4112 123.605 70.0044 123.766 69.6542 123.614L58.2392 118.67C57.889 118.518 57.7279 118.111 57.8795 117.76Z" fill="#F6F8F9" fill-opacity="0.8"/>
</g>
<rect x="0.620303" y="1.56667" width="16.2776" height="22.5141" rx="8.13878" transform="matrix(0.917617 0.397466 -0.396813 0.917899 64.9769 96.6852)" stroke="#6D778C" stroke-width="2.3821"/>
<rect x="0.620303" y="1.56667" width="16.2776" height="22.5141" rx="8.13878" transform="matrix(0.917617 0.397466 -0.396813 0.917899 64.9769 96.6852)" stroke="#F6F8F9" stroke-opacity="0.8" stroke-width="2.3821"/>
</g>
<g filter="url(#filter3_d_1977_3184)">
<rect x="0.949172" y="1.55722" width="20.1422" height="15.9508" rx="7.97538" transform="matrix(0.971758 0.235977 -0.235543 0.971864 28.7681 107.943)" fill="#6D778C"/>
<rect x="0.949172" y="1.55722" width="20.1422" height="15.9508" rx="7.97538" transform="matrix(0.971758 0.235977 -0.235543 0.971864 28.7681 107.943)" fill="#F6F8F9" fill-opacity="0.975"/>
<rect x="0.949172" y="1.55722" width="20.1422" height="15.9508" rx="7.97538" transform="matrix(0.971758 0.235977 -0.235543 0.971864 28.7681 107.943)" stroke="#6D778C" stroke-width="2.57852"/>
<rect x="0.949172" y="1.55722" width="20.1422" height="15.9508" rx="7.97538" transform="matrix(0.971758 0.235977 -0.235543 0.971864 28.7681 107.943)" stroke="#F6F8F9" stroke-opacity="0.8" stroke-width="2.57852"/>
<path d="M33.7995 116.643C34.0796 116.909 34.4155 117.09 34.8073 117.185C35.199 117.28 35.5772 117.273 35.9419 117.163C36.3081 117.048 36.6271 116.851 36.8989 116.572C37.1707 116.293 37.3541 115.957 37.4491 115.565C37.5427 115.179 37.5325 114.8 37.4186 114.427C37.3047 114.055 37.1115 113.733 36.8389 113.462C36.5662 113.192 36.2341 113.009 35.8424 112.914C35.4506 112.819 35.0687 112.828 34.6965 112.942C34.3303 113.058 34.0113 113.255 33.7395 113.534C33.4677 113.813 33.285 114.145 33.1914 114.531C33.0964 114.923 33.1058 115.306 33.2197 115.678C33.3336 116.051 33.5269 116.372 33.7995 116.643Z" fill="#9B6F02"/>
<path d="M33.7995 116.643C34.0796 116.909 34.4155 117.09 34.8073 117.185C35.199 117.28 35.5772 117.273 35.9419 117.163C36.3081 117.048 36.6271 116.851 36.8989 116.572C37.1707 116.293 37.3541 115.957 37.4491 115.565C37.5427 115.179 37.5325 114.8 37.4186 114.427C37.3047 114.055 37.1115 113.733 36.8389 113.462C36.5662 113.192 36.2341 113.009 35.8424 112.914C35.4506 112.819 35.0687 112.828 34.6965 112.942C34.3303 113.058 34.0113 113.255 33.7395 113.534C33.4677 113.813 33.285 114.145 33.1914 114.531C33.0964 114.923 33.1058 115.306 33.2197 115.678C33.3336 116.051 33.5269 116.372 33.7995 116.643Z" fill="#F6F8F9" fill-opacity="0.15"/>
<path d="M31.1612 119.737C31.7314 119.239 32.0165 118.99 32.3029 118.946C32.5538 118.907 32.807 118.969 33.0123 119.118C33.2467 119.289 33.3862 119.641 33.665 120.345L34.6726 122.889C35.0673 123.886 35.2647 124.384 35.171 124.738C35.0894 125.046 34.8815 125.303 34.6045 125.438C34.2862 125.593 33.7842 125.471 32.7802 125.228L29.7125 124.483C28.7085 124.239 28.2065 124.117 27.9946 123.833C27.8101 123.586 27.7429 123.263 27.8115 122.951C27.8904 122.593 28.2939 122.241 29.1011 121.536L31.1612 119.737Z" fill="#5A8228"/>
<path d="M31.1612 119.737C31.7314 119.239 32.0165 118.99 32.3029 118.946C32.5538 118.907 32.807 118.969 33.0123 119.118C33.2467 119.289 33.3862 119.641 33.665 120.345L34.6726 122.889C35.0673 123.886 35.2647 124.384 35.171 124.738C35.0894 125.046 34.8815 125.303 34.6045 125.438C34.2862 125.593 33.7842 125.471 32.7802 125.228L29.7125 124.483C28.7085 124.239 28.2065 124.117 27.9946 123.833C27.8101 123.586 27.7429 123.263 27.8115 122.951C27.8904 122.593 28.2939 122.241 29.1011 121.536L31.1612 119.737Z" fill="#F6F8F9" fill-opacity="0.55"/>
<path d="M38.8034 117.697C39.4302 117.06 39.7436 116.741 40.0607 116.683C40.3377 116.633 40.621 116.702 40.8441 116.874C41.0995 117.071 41.2322 117.497 41.4977 118.351L43.6326 125.217C43.9232 126.152 44.0685 126.619 43.9597 126.949C43.8649 127.237 43.655 127.47 43.3837 127.59C43.0725 127.727 42.6083 127.614 41.6799 127.389L34.5041 125.646C33.5757 125.421 33.1115 125.308 32.8977 125.043C32.7113 124.813 32.6316 124.509 32.679 124.21C32.7333 123.867 33.0764 123.518 33.7626 122.821L38.8034 117.697Z" fill="#5A8228"/>
</g>
<path fill-rule="evenodd" clip-rule="evenodd" d="M55.4646 118.319L57.8931 120.952L66.4977 115.021L63.0653 111.3L55.4646 118.319Z" fill="#3E5DE7"/>
<path fill-rule="evenodd" clip-rule="evenodd" d="M55.4646 118.319L57.8931 120.952L66.4977 115.021L63.0653 111.3L55.4646 118.319Z" fill="#F6F8F9" fill-opacity="0.65"/>
<path fill-rule="evenodd" clip-rule="evenodd" d="M58.1323 118.893C57.6848 119.306 56.9874 119.278 56.5744 118.83C56.1613 118.383 56.1894 117.684 56.6366 117.271C57.0844 116.858 57.7817 116.886 58.1948 117.334C58.6079 117.781 58.5797 118.479 58.1323 118.893Z" fill="#EAF5F7"/>
<path fill-rule="evenodd" clip-rule="evenodd" d="M48.2079 128.989C48.0359 129.574 47.4232 129.908 46.8389 129.736C46.2548 129.564 45.9208 128.951 46.0926 128.366C46.2646 127.782 46.8776 127.448 47.4616 127.619C48.0457 127.792 48.38 128.405 48.2079 128.989Z" fill="#EAF5F7"/>
<path fill-rule="evenodd" clip-rule="evenodd" d="M55.7211 125.466L56.5789 128.945L66.9754 127.904L65.763 122.987L55.7211 125.466Z" fill="#3E5DE7"/>
<path fill-rule="evenodd" clip-rule="evenodd" d="M55.7211 125.466L56.5789 128.945L66.9754 127.904L65.763 122.987L55.7211 125.466Z" fill="#F6F8F9" fill-opacity="0.65"/>
<path fill-rule="evenodd" clip-rule="evenodd" d="M55.7211 125.466L56.5789 128.945L66.9754 127.904L65.763 122.987L55.7211 125.466Z" fill="#3E5DE7"/>
<path fill-rule="evenodd" clip-rule="evenodd" d="M55.7211 125.466L56.5789 128.945L66.9754 127.904L65.763 122.987L55.7211 125.466Z" fill="#F6F8F9" fill-opacity="0.65"/>
<path fill-rule="evenodd" clip-rule="evenodd" d="M55.7211 125.466L56.5789 128.945L66.9754 127.904L65.763 122.987L55.7211 125.466Z" stroke="#9696FA" stroke-width="8.58188"/>
<path fill-rule="evenodd" clip-rule="evenodd" d="M57.7818 127.256C57.1907 127.402 56.593 127.041 56.4474 126.449C56.3012 125.858 56.6623 125.26 57.2534 125.114C57.8446 124.968 58.4422 125.329 58.5881 125.921C58.734 126.512 58.3729 127.11 57.7818 127.256Z" fill="#EAF5F7"/>
<path fill-rule="evenodd" clip-rule="evenodd" d="M93.6897 282.964L93.6189 289.083C93.6189 289.083 107.268 291.243 111.895 296.482H84.7017L85.8407 278.99L93.6897 282.964Z" fill="#3F475A"/>
<path fill-rule="evenodd" clip-rule="evenodd" d="M59.6094 282.448L59.5389 289.321C59.5389 289.321 65.2878 290.075 67.6279 296.482H49.0155L50.8767 288.941L51.6052 282.067L59.6094 282.448Z" fill="#3F475A"/>
<path fill-rule="evenodd" clip-rule="evenodd" d="M101.757 89.4349C101.757 89.4349 108.933 98.7922 99.1903 101.276L101.757 89.4349Z" fill="#3F475A"/>
<path fill-rule="evenodd" clip-rule="evenodd" d="M85.8407 280.593L85.2081 288.702L93.6191 289.082L93.6897 282.964L85.8407 280.593Z" fill="#BB9F8E"/>
<path fill-rule="evenodd" clip-rule="evenodd" d="M51.7606 280.077L50.877 288.941L59.5391 289.32L59.6096 282.448L51.7606 280.077Z" fill="#BB9F8E"/>
<path fill-rule="evenodd" clip-rule="evenodd" d="M77.0554 101.61C76.3433 99.508 69.8608 96.8729 68.3047 101.589C66.298 107.669 77.864 110.865 77.864 110.865L77.3583 120.949L76.0733 120.951C76.0733 120.951 78.3815 125.94 85.3622 126.352C92.3429 126.763 89.9307 121.645 89.9307 121.645L88.7497 121.324L88.1483 113.351C88.1483 113.351 98.4178 114.149 100.561 113.035C100.561 113.035 102.19 103.01 100.641 95.9009L92.2088 88.282L78.6 89.2843L77.0554 101.61Z" fill="#E4C3AF"/>
<path fill-rule="evenodd" clip-rule="evenodd" d="M71.7324 98.9607C71.7324 98.9607 65.1256 96.2708 72.823 88.3014C80.5206 80.3319 87.3802 84.4674 87.3802 84.4674C87.3802 84.4674 89.3148 76.3474 94.67 76.3708C102.299 76.4037 103.477 88.1991 103.477 88.1991C103.477 88.1991 107.322 81.7843 109.508 82.7012C111.695 83.6183 111.755 104.925 81.4002 94.5413C81.4002 94.5413 84.0103 100.417 77.0557 101.61C77.0557 101.61 75.8429 99.1025 71.7324 98.9607Z" fill="#3F475A"/>
<path d="M74.6344 82.0065L75.5906 87.3286L73.5983 88.2824L69.917 84.5296" stroke="#3F475A" stroke-width="7.72369"/>
<path fill-rule="evenodd" clip-rule="evenodd" d="M88.1485 113.351L81.3928 111.902L88.1161 116.447L88.1485 113.351Z" fill="#BB9F8E"/>
<path fill-rule="evenodd" clip-rule="evenodd" d="M66.3818 111.928C66.2424 111.839 66.0804 111.801 65.9184 111.82C65.1593 111.91 62.8679 112.237 61.637 113.012C57.2214 115.794 47.9855 123.016 43.8146 124.272C39.5459 125.558 30.0848 126.153 26.7967 125.932C25.9321 125.873 25.7498 126.733 25.8548 127.288C26.4022 130.186 29.0454 133.428 29.0454 133.428L29.3583 137.897L17.1547 177.331C16.0164 181.263 16.4617 185.584 18.3661 189.09L23.5689 198.667C25.0459 201.386 27.2931 203.414 29.9195 204.399C29.9381 204.406 29.9567 204.412 29.9758 204.418L63.6554 214.555C63.785 214.594 63.9224 214.595 64.0524 214.557L92.1644 206.42C92.5032 206.323 92.7287 205.986 92.7026 205.617L87.0337 125.555C87.0161 125.306 86.8858 125.081 86.6834 124.951L66.3818 111.928Z" fill="#3E5DE7"/>
<path fill-rule="evenodd" clip-rule="evenodd" d="M66.3818 111.928C66.2424 111.839 66.0804 111.801 65.9184 111.82C65.1593 111.91 62.8679 112.237 61.637 113.012C57.2214 115.794 47.9855 123.016 43.8146 124.272C39.5459 125.558 30.0848 126.153 26.7967 125.932C25.9321 125.873 25.7498 126.733 25.8548 127.288C26.4022 130.186 29.0454 133.428 29.0454 133.428L29.3583 137.897L17.1547 177.331C16.0164 181.263 16.4617 185.584 18.3661 189.09L23.5689 198.667C25.0459 201.386 27.2931 203.414 29.9195 204.399C29.9381 204.406 29.9567 204.412 29.9758 204.418L63.6554 214.555C63.785 214.594 63.9224 214.595 64.0524 214.557L92.1644 206.42C92.5032 206.323 92.7287 205.986 92.7026 205.617L87.0337 125.555C87.0161 125.306 86.8858 125.081 86.6834 124.951L66.3818 111.928Z" fill="#F6F8F9" fill-opacity="0.65"/>
<path fill-rule="evenodd" clip-rule="evenodd" d="M65.8404 123.683L62.3381 127.254L56.2361 122.651L61.3397 118.119C61.3397 118.119 63.0081 111.295 64.1572 110.502C65.5395 109.547 67.4266 109.043 68.5662 109.028C69.7057 109.013 70.8631 110.473 70.7059 111.129C70.7059 111.129 72.9069 112.064 72.9401 114.133C72.9401 114.133 74.0545 115.301 73.5372 116.825C73.5372 116.825 74.3679 118.289 73.1528 119.363C71.9374 120.437 68.5232 122.268 65.8404 123.683Z" fill="#E4C3AF"/>
<path fill-rule="evenodd" clip-rule="evenodd" d="M146.18 116.289C145.372 117.246 142.861 118.849 140.887 120.827C139.355 122.362 138.604 123.817 136.465 125.541C135.561 126.272 134.755 126.654 133.986 127.059L121.34 149.07C119.058 152.664 115.716 153.696 113.179 152.518L90.8226 140.07C90.8226 140.07 91.0137 121.513 94.19 123.604C100.37 127.677 114.435 139.723 114.435 139.723L128.236 123.508L128.11 121.327C128.11 121.327 128.113 119.809 128.309 118.171C128.505 116.533 129.635 114.595 128.439 111.703C127.244 108.813 130.102 110.809 130.734 112.183C131.262 113.329 130.983 115.739 131.631 116.621C132.178 116.322 132.542 115.932 132.542 115.932L138.702 107.936C138.901 107.668 139.267 107.587 139.561 107.746L139.893 107.926C140.242 108.117 140.352 108.565 140.128 108.891C138.926 110.658 135.199 115.839 135.3 115.892L135.463 116.09L142.698 108.457C142.923 108.203 143.303 108.158 143.581 108.351L144.016 108.653C144.332 108.871 144.4 109.308 144.164 109.61C142.725 111.469 137.326 117.372 137.429 117.43L137.645 117.638L144.38 111.686C144.618 111.419 145.025 111.389 145.301 111.613L145.631 111.882C145.919 112.115 145.962 112.54 145.726 112.826L139.365 118.812L139.549 119.101L145.07 115.218C145.324 114.992 145.706 114.992 145.962 115.216L146.115 115.354C146.386 115.595 146.416 116.01 146.18 116.289Z" fill="#E4C3AF"/>
<path fill-rule="evenodd" clip-rule="evenodd" d="M53.3486 133.482C40.471 134.669 28.9297 133.428 28.9297 133.428L29.2423 137.898C29.2423 137.898 46.2401 139.357 53.3486 137.398C60.4571 135.44 53.3486 133.482 53.3486 133.482Z" fill="#3E5DE7"/>
<path fill-rule="evenodd" clip-rule="evenodd" d="M53.3486 133.482C40.471 134.669 28.9297 133.428 28.9297 133.428L29.2423 137.898C29.2423 137.898 46.2401 139.357 53.3486 137.398C60.4571 135.44 53.3486 133.482 53.3486 133.482Z" fill="#F6F8F9" fill-opacity="0.25"/>
<path fill-rule="evenodd" clip-rule="evenodd" d="M114.666 139.517C114.828 137.893 114.076 136.314 112.715 135.415C108.614 132.708 101.646 127.611 97.01 124.556C93.8355 122.465 90.8221 138.31 90.8221 138.31L106.331 151.606C107.578 152.468 109.288 152.983 110.446 151.421L114.666 139.517Z" fill="#C7404A"/>
<path fill-rule="evenodd" clip-rule="evenodd" d="M99.1527 165.439L97.987 286.029L83.2668 286.244L80.7655 164.677L99.1527 165.439Z" fill="#3F4759"/>
<path fill-rule="evenodd" clip-rule="evenodd" d="M87.4284 164.982L62.9713 286.496H48.8488L65.9801 163.854L87.4284 164.982Z" fill="#3F4759"/>
<path fill-rule="evenodd" clip-rule="evenodd" d="M55.8235 129.324L64.5883 140.472L61.6289 160.69C61.4029 162.391 62.6819 163.921 64.3957 164L100.447 165.496C102.296 165.58 103.861 164.144 103.938 162.294L99.7646 140.981C99.7646 140.981 104.414 137.977 101.309 129.899C99.1381 124.254 92.8819 122.461 92.4703 122.219C92.468 122.218 89.3771 121.4 87.7885 121.111C87.7885 121.111 76.4541 120.706 72.706 121.117C62.8981 122.193 55.8235 129.324 55.8235 129.324Z" fill="#C7404A"/>
<path fill-rule="evenodd" clip-rule="evenodd" d="M100.941 146.984L99.2668 140.33L103.786 149.423L100.941 146.984Z" fill="#9E363E"/>
<path fill-rule="evenodd" clip-rule="evenodd" d="M81.4393 194.305L84.6164 180.148L82.2261 223.069L81.4393 194.305Z" fill="#333948"/>
<path fill-rule="evenodd" clip-rule="evenodd" d="M70.185 121.533L41.0502 132.333C41.0502 132.333 36.7175 135.849 39.5802 141.749C41.3081 145.31 45.0512 145.718 47.0847 145.297C52.6338 144.148 68.5942 139.45 68.5942 139.45L70.185 121.533Z" fill="#C7404A"/>
<path fill-rule="evenodd" clip-rule="evenodd" d="M47.3732 143.474C44.7076 144.557 41.0567 144.557 39.3298 141.497C36.1058 135.786 41.0497 132.333 41.0497 132.333L61.3398 118.119L65.7009 123.825C65.7009 123.825 52.979 141.198 47.3732 143.474Z" fill="#E4C3AF"/>
<path fill-rule="evenodd" clip-rule="evenodd" d="M69.8589 121.346L66.738 140.281L77.2333 141.101L72.6911 119.654C72.6911 119.654 72.3087 119.289 71.2337 119.819C70.2596 120.299 69.8589 121.346 69.8589 121.346Z" fill="#3E5DE7"/>
<path fill-rule="evenodd" clip-rule="evenodd" d="M69.8589 121.346L66.738 140.281L77.2333 141.101L72.6911 119.654C72.6911 119.654 72.3087 119.289 71.2337 119.819C70.2596 120.299 69.8589 121.346 69.8589 121.346Z" fill="#F6F8F9" fill-opacity="0.65"/>
<path fill-rule="evenodd" clip-rule="evenodd" d="M69.8588 121.347L66.2357 142.543L71.4832 142.953V140.652L70.361 140.573L71.2336 119.82C71.2336 119.82 70.6945 120.085 70.4175 120.412C69.98 120.927 69.8588 121.347 69.8588 121.347Z" fill="#3E5DE7"/>
<path fill-rule="evenodd" clip-rule="evenodd" d="M69.8588 121.347L66.2357 142.543L71.4832 142.953V140.652L70.361 140.573L71.2336 119.82C71.2336 119.82 70.6945 120.085 70.4175 120.412C69.98 120.927 69.8588 121.347 69.8588 121.347Z" fill="#F6F8F9" fill-opacity="0.25"/>
<g clip-path="url(#clip2_1977_3184)">
<rect width="24.8119" height="33.1081" rx="12.406" transform="matrix(0.946184 -0.323628 0.323063 0.946377 126.038 100.494)" fill="#3E5DE7"/>
<rect width="24.8119" height="33.1081" rx="12.406" transform="matrix(0.946184 -0.323628 0.323063 0.946377 126.038 100.494)" fill="#F6F8F9" fill-opacity="0.975"/>
<path fill-rule="evenodd" clip-rule="evenodd" d="M131.972 106.406C131.808 105.925 132.064 105.403 132.544 105.238L140.37 102.562C140.85 102.397 141.372 102.654 141.536 103.135C141.7 103.615 141.444 104.138 140.964 104.302L133.138 106.979C132.658 107.143 132.136 106.887 131.972 106.406Z" fill="#3E5DE7"/>
<path fill-rule="evenodd" clip-rule="evenodd" d="M131.972 106.406C131.808 105.925 132.064 105.403 132.544 105.238L140.37 102.562C140.85 102.397 141.372 102.654 141.536 103.135C141.7 103.615 141.444 104.138 140.964 104.302L133.138 106.979C132.658 107.143 132.136 106.887 131.972 106.406Z" fill="#F6F8F9" fill-opacity="0.45"/>
<path fill-rule="evenodd" clip-rule="evenodd" d="M132.976 109.35C132.812 108.869 133.068 108.347 133.548 108.182L148.275 103.145C148.755 102.981 149.277 103.238 149.441 103.718C149.606 104.199 149.349 104.722 148.869 104.886L134.143 109.923C133.662 110.087 133.14 109.831 132.976 109.35ZM133.867 111.961C133.703 111.48 133.96 110.958 134.44 110.793L149.166 105.756C149.646 105.592 150.169 105.849 150.333 106.329C150.497 106.81 150.241 107.333 149.76 107.497L135.034 112.534C134.554 112.698 134.031 112.442 133.867 111.961ZM134.759 114.572C134.595 114.092 134.851 113.569 135.331 113.404L150.058 108.368C150.538 108.203 151.06 108.46 151.224 108.94C151.388 109.421 151.132 109.944 150.652 110.108L135.925 115.145C135.445 115.309 134.923 115.053 134.759 114.572ZM135.65 117.183C135.486 116.703 135.742 116.18 136.222 116.016L150.949 110.979C151.429 110.814 151.951 111.071 152.115 111.552C152.28 112.032 152.023 112.555 151.543 112.719L136.817 117.756C136.336 117.92 135.814 117.664 135.65 117.183Z" fill="#3E5DE7"/>
<path fill-rule="evenodd" clip-rule="evenodd" d="M132.976 109.35C132.812 108.869 133.068 108.347 133.548 108.182L148.275 103.145C148.755 102.981 149.277 103.238 149.441 103.718C149.606 104.199 149.349 104.722 148.869 104.886L134.143 109.923C133.662 110.087 133.14 109.831 132.976 109.35ZM133.867 111.961C133.703 111.48 133.96 110.958 134.44 110.793L149.166 105.756C149.646 105.592 150.169 105.849 150.333 106.329C150.497 106.81 150.241 107.333 149.76 107.497L135.034 112.534C134.554 112.698 134.031 112.442 133.867 111.961ZM134.759 114.572C134.595 114.092 134.851 113.569 135.331 113.404L150.058 108.368C150.538 108.203 151.06 108.46 151.224 108.94C151.388 109.421 151.132 109.944 150.652 110.108L135.925 115.145C135.445 115.309 134.923 115.053 134.759 114.572ZM135.65 117.183C135.486 116.703 135.742 116.18 136.222 116.016L150.949 110.979C151.429 110.814 151.951 111.071 152.115 111.552C152.28 112.032 152.023 112.555 151.543 112.719L136.817 117.756C136.336 117.92 135.814 117.664 135.65 117.183Z" fill="#F6F8F9" fill-opacity="0.65"/>
<path fill-rule="evenodd" clip-rule="evenodd" d="M136.552 119.825C136.388 119.344 136.644 118.822 137.124 118.657L151.851 113.62C152.331 113.456 152.853 113.713 153.017 114.193C153.181 114.674 152.925 115.197 152.445 115.361L137.719 120.398C137.238 120.562 136.716 120.306 136.552 119.825ZM137.443 122.436C137.279 121.956 137.535 121.433 138.016 121.268L152.742 116.231C153.222 116.067 153.745 116.324 153.909 116.804C154.073 117.285 153.816 117.808 153.336 117.972L138.61 123.009C138.13 123.173 137.607 122.917 137.443 122.436ZM138.335 125.047C138.17 124.567 138.427 124.044 138.907 123.88L153.633 118.843C154.114 118.678 154.636 118.935 154.8 119.416C154.964 119.896 154.708 120.419 154.228 120.583L139.501 125.62C139.021 125.784 138.499 125.528 138.335 125.047ZM139.226 127.658C139.062 127.178 139.318 126.655 139.798 126.491L154.525 121.454C155.005 121.289 155.527 121.546 155.691 122.027C155.855 122.507 155.599 123.03 155.119 123.194L140.393 128.231C139.912 128.396 139.39 128.139 139.226 127.658Z" fill="#3E5DE7"/>
<path fill-rule="evenodd" clip-rule="evenodd" d="M136.552 119.825C136.388 119.344 136.644 118.822 137.124 118.657L151.851 113.62C152.331 113.456 152.853 113.713 153.017 114.193C153.181 114.674 152.925 115.197 152.445 115.361L137.719 120.398C137.238 120.562 136.716 120.306 136.552 119.825ZM137.443 122.436C137.279 121.956 137.535 121.433 138.016 121.268L152.742 116.231C153.222 116.067 153.745 116.324 153.909 116.804C154.073 117.285 153.816 117.808 153.336 117.972L138.61 123.009C138.13 123.173 137.607 122.917 137.443 122.436ZM138.335 125.047C138.17 124.567 138.427 124.044 138.907 123.88L153.633 118.843C154.114 118.678 154.636 118.935 154.8 119.416C154.964 119.896 154.708 120.419 154.228 120.583L139.501 125.62C139.021 125.784 138.499 125.528 138.335 125.047ZM139.226 127.658C139.062 127.178 139.318 126.655 139.798 126.491L154.525 121.454C155.005 121.289 155.527 121.546 155.691 122.027C155.855 122.507 155.599 123.03 155.119 123.194L140.393 128.231C139.912 128.396 139.39 128.139 139.226 127.658Z" fill="#F6F8F9" fill-opacity="0.65"/>
</g>
<rect x="2.41772" y="1.18624" width="21.0023" height="29.2984" rx="10.5011" transform="matrix(0.946184 -0.323628 0.323063 0.946377 125.785 101.34)" stroke="#3E5DE7" stroke-width="3.80968"/>
<rect x="2.41772" y="1.18624" width="21.0023" height="29.2984" rx="10.5011" transform="matrix(0.946184 -0.323628 0.323063 0.946377 125.785 101.34)" stroke="#F6F8F9" stroke-opacity="0.65" stroke-width="3.80968"/>
<path fill-rule="evenodd" clip-rule="evenodd" d="M133.986 127.058C132.585 127.058 129.22 125.391 128.236 123.508L128.11 121.327C128.11 121.327 128.113 119.809 128.309 118.171C128.505 116.532 129.635 114.595 128.44 111.703C127.244 108.813 130.102 110.808 130.734 112.183C131.262 113.329 130.983 115.738 131.631 116.62C133.464 122.461 133.025 122.461 133.986 127.058Z" fill="#E4C3AF"/>
</g>
<defs>
<filter id="filter0_n_1977_3184" x="0" y="0" width="300" height="300" filterUnits="userSpaceOnUse" color-interpolation-filters="sRGB">
<feFlood flood-opacity="0" result="BackgroundImageFix"/>
<feBlend mode="normal" in="SourceGraphic" in2="BackgroundImageFix" result="shape"/>
<feTurbulence type="fractalNoise" baseFrequency="1 1" stitchTiles="stitch" numOctaves="3" result="noise" seed="1493" />
<feColorMatrix in="noise" type="luminanceToAlpha" result="alphaNoise" />
<feComponentTransfer in="alphaNoise" result="coloredNoise1">
<feFuncA type="discrete" tableValues="0 0 0 0 0 0 1 1 1 1 1 1 1 1 1 1 1 1 1 1 1 1 1 1 1 1 1 1 1 1 1 1 1 1 1 1 1 1 1 1 1 1 1 1 0 0 0 0 0 0 0 0 0 0 0 0 0 0 0 0 0 0 0 0 0 0 0 0 0 0 0 0 0 0 0 0 0 0 0 0 0 0 0 0 0 0 0 0 0 0 0 0 0 0 0 0 0 0 0 0 "/>
</feComponentTransfer>
<feComposite operator="in" in2="shape" in="coloredNoise1" result="noise1Clipped" />
<feFlood flood-color="rgba(131, 131, 131, 0.1)" result="color1Flood" />
<feComposite operator="in" in2="noise1Clipped" in="color1Flood" result="color1" />
<feMerge result="effect1_noise_1977_3184">
<feMergeNode in="shape" />
<feMergeNode in="color1" />
</feMerge>
</filter>
<filter id="filter1_d_1977_3184" x="176.943" y="75.3832" width="68.8322" height="68.8642" filterUnits="userSpaceOnUse" color-interpolation-filters="sRGB">
<feFlood flood-opacity="0" result="BackgroundImageFix"/>
<feColorMatrix in="SourceAlpha" type="matrix" values="0 0 0 0 0 0 0 0 0 0 0 0 0 0 0 0 0 0 127 0" result="hardAlpha"/>
<feOffset dy="8.99182"/>
<feGaussianBlur stdDeviation="8.99182"/>
<feComposite in2="hardAlpha" operator="out"/>
<feColorMatrix type="matrix" values="0 0 0 0 0.0941176 0 0 0 0 0.105882 0 0 0 0 0.141176 0 0 0 0.05 0"/>
<feBlend mode="normal" in2="BackgroundImageFix" result="effect1_dropShadow_1977_3184"/>
<feBlend mode="normal" in="SourceGraphic" in2="effect1_dropShadow_1977_3184" result="shape"/>
</filter>
<filter id="filter2_d_1977_3184" x="37.9592" y="88.761" width="59.9331" height="59.965" filterUnits="userSpaceOnUse" color-interpolation-filters="sRGB">
<feFlood flood-opacity="0" result="BackgroundImageFix"/>
<feColorMatrix in="SourceAlpha" type="matrix" values="0 0 0 0 0 0 0 0 0 0 0 0 0 0 0 0 0 0 127 0" result="hardAlpha"/>
<feOffset dy="6.806"/>
<feGaussianBlur stdDeviation="6.806"/>
<feComposite in2="hardAlpha" operator="out"/>
<feColorMatrix type="matrix" values="0 0 0 0 0.0941176 0 0 0 0 0.105882 0 0 0 0 0.141176 0 0 0 0.05 0"/>
<feBlend mode="normal" in2="BackgroundImageFix" result="effect1_dropShadow_1977_3184"/>
<feBlend mode="normal" in="SourceGraphic" in2="effect1_dropShadow_1977_3184" result="shape"/>
</filter>
<filter id="filter3_d_1977_3184" x="6.33862" y="95.7578" width="61.9849" height="62.0165" filterUnits="userSpaceOnUse" color-interpolation-filters="sRGB">
<feFlood flood-opacity="0" result="BackgroundImageFix"/>
<feColorMatrix in="SourceAlpha" type="matrix" values="0 0 0 0 0 0 0 0 0 0 0 0 0 0 0 0 0 0 127 0" result="hardAlpha"/>
<feOffset dy="7.36719"/>
<feGaussianBlur stdDeviation="7.36719"/>
<feComposite in2="hardAlpha" operator="out"/>
<feColorMatrix type="matrix" values="0 0 0 0 0.0941176 0 0 0 0 0.105882 0 0 0 0 0.141176 0 0 0 0.05 0"/>
<feBlend mode="normal" in2="BackgroundImageFix" result="effect1_dropShadow_1977_3184"/>
<feBlend mode="normal" in="SourceGraphic" in2="effect1_dropShadow_1977_3184" result="shape"/>
</filter>
<clipPath id="clip0_1977_3184">
<rect width="300" height="300" fill="white"/>
</clipPath>
<clipPath id="clip1_1977_3184">
<rect width="18.6597" height="24.8962" rx="9.32983" transform="matrix(0.917617 0.397466 -0.396813 0.917899 64.3041 96.8031)" fill="white"/>
</clipPath>
<clipPath id="clip2_1977_3184">
<rect width="24.8119" height="33.1081" rx="12.406" transform="matrix(0.946184 -0.323628 0.323063 0.946377 126.038 100.494)" fill="white"/>
</clipPath>
</defs>
</svg>
