<svg width="301" height="300" viewBox="0 0 301 300" fill="none" xmlns="http://www.w3.org/2000/svg">
<rect width="300.293" height="300" fill="white"/>
<path fill-rule="evenodd" clip-rule="evenodd" d="M153.808 297.363C153.808 298.172 119.574 298.828 77.3435 298.828C35.1133 298.828 0.878784 298.172 0.878784 297.363C0.878784 296.554 35.1133 295.898 77.3435 295.898C119.574 295.898 153.808 296.554 153.808 297.363Z" fill="#DFE2EA"/>
<path fill-rule="evenodd" clip-rule="evenodd" d="M176.074 296.36H183.848V271.106H176.074V296.36Z" fill="#626A80"/>
<path fill-rule="evenodd" clip-rule="evenodd" d="M176.074 296.36H183.848V271.106H176.074V296.36Z" fill="#F6F8F9" fill-opacity="0.9"/>
<path fill-rule="evenodd" clip-rule="evenodd" d="M240.825 296.36H248.599V271.106H240.825V296.36Z" fill="#626A80"/>
<path fill-rule="evenodd" clip-rule="evenodd" d="M240.825 296.36H248.599V271.106H240.825V296.36Z" fill="#F6F8F9" fill-opacity="0.9"/>
<path fill-rule="evenodd" clip-rule="evenodd" d="M203.646 296.36H211.42V271.106H203.646V296.36Z" fill="#626A80"/>
<path fill-rule="evenodd" clip-rule="evenodd" d="M203.646 296.36H211.42V271.106H203.646V296.36Z" fill="#F6F8F9" fill-opacity="0.8"/>
<path fill-rule="evenodd" clip-rule="evenodd" d="M268.397 296.36H276.171V271.106H268.397V296.36Z" fill="#626A80"/>
<path fill-rule="evenodd" clip-rule="evenodd" d="M268.397 296.36H276.171V271.106H268.397V296.36Z" fill="#F6F8F9" fill-opacity="0.8"/>
<path fill-rule="evenodd" clip-rule="evenodd" d="M203.601 275.586H276.125V61.0576H203.601V275.586Z" fill="#626A80"/>
<path fill-rule="evenodd" clip-rule="evenodd" d="M203.601 275.586H276.125V61.0576H203.601V275.586Z" fill="#F6F8F9" fill-opacity="0.8"/>
<path fill-rule="evenodd" clip-rule="evenodd" d="M176.22 275.586H248.745V61.0576H176.22V275.586Z" fill="#626A80"/>
<path fill-rule="evenodd" clip-rule="evenodd" d="M176.22 275.586H248.745V61.0576H176.22V275.586Z" fill="#F6F8F9" fill-opacity="0.9"/>
<path fill-rule="evenodd" clip-rule="evenodd" d="M230.124 61.054H237.517V32.8124H230.124V61.054Z" fill="#626A80"/>
<path fill-rule="evenodd" clip-rule="evenodd" d="M230.124 61.054H237.517V32.8124H230.124V61.054Z" fill="#F6F8F9" fill-opacity="0.9"/>
<path fill-rule="evenodd" clip-rule="evenodd" d="M222.73 61.054H230.123V32.8124H222.73V61.054Z" fill="#626A80"/>
<path fill-rule="evenodd" clip-rule="evenodd" d="M222.73 61.054H230.123V32.8124H222.73V61.054Z" fill="#F6F8F9" fill-opacity="0.55"/>
<path fill-rule="evenodd" clip-rule="evenodd" d="M237.517 61.054H244.91V32.8124H237.517V61.054Z" fill="#626A80"/>
<path fill-rule="evenodd" clip-rule="evenodd" d="M237.517 61.054H244.91V32.8124H237.517V61.054Z" fill="#F6F8F9" fill-opacity="0.55"/>
<path fill-rule="evenodd" clip-rule="evenodd" d="M264.77 61.054H244.91V32.8124H264.77C265.6 32.8124 266.272 33.4848 266.272 34.3148V59.5517C266.272 60.3814 265.6 61.054 264.77 61.054Z" fill="#626A80"/>
<path fill-rule="evenodd" clip-rule="evenodd" d="M264.77 61.054H244.91V32.8124H264.77C265.6 32.8124 266.272 33.4848 266.272 34.3148V59.5517C266.272 60.3814 265.6 61.054 264.77 61.054Z" fill="#F6F8F9" fill-opacity="0.8"/>
<path fill-rule="evenodd" clip-rule="evenodd" d="M251.425 44.0374H259.757V41.241H251.425V44.0374Z" fill="#626A80"/>
<path fill-rule="evenodd" clip-rule="evenodd" d="M251.425 44.0374H259.757V41.241H251.425V44.0374Z" fill="#F6F8F9" fill-opacity="0.55"/>
<path fill-rule="evenodd" clip-rule="evenodd" d="M182.713 268.518H242.281V206.771H182.713V268.518Z" fill="#626A80"/>
<path fill-rule="evenodd" clip-rule="evenodd" d="M182.713 268.518H242.281V206.771H182.713V268.518Z" fill="#F6F8F9" fill-opacity="0.55"/>
<path fill-rule="evenodd" clip-rule="evenodd" d="M182.713 268.518H203.264V206.771H182.713V268.518Z" fill="#626A80"/>
<path fill-rule="evenodd" clip-rule="evenodd" d="M182.713 268.518H203.264V206.771H182.713V268.518Z" fill="#F6F8F9" fill-opacity="0.8"/>
<path fill-rule="evenodd" clip-rule="evenodd" d="M182.713 199.108H242.281V137.362H182.713V199.108Z" fill="#626A80"/>
<path fill-rule="evenodd" clip-rule="evenodd" d="M182.713 199.108H242.281V137.362H182.713V199.108Z" fill="#F6F8F9" fill-opacity="0.55"/>
<path fill-rule="evenodd" clip-rule="evenodd" d="M182.713 199.108H203.264V137.362H182.713V199.108Z" fill="#626A80"/>
<path fill-rule="evenodd" clip-rule="evenodd" d="M182.713 199.108H203.264V137.362H182.713V199.108Z" fill="#F6F8F9" fill-opacity="0.8"/>
<path fill-rule="evenodd" clip-rule="evenodd" d="M182.713 129.699H242.281V67.9533H182.713V129.699Z" fill="#626A80"/>
<path fill-rule="evenodd" clip-rule="evenodd" d="M182.713 129.699H242.281V67.9533H182.713V129.699Z" fill="#F6F8F9" fill-opacity="0.55"/>
<path fill-rule="evenodd" clip-rule="evenodd" d="M182.713 129.699H203.264V67.9533H182.713V129.699Z" fill="#626A80"/>
<path fill-rule="evenodd" clip-rule="evenodd" d="M182.713 129.699H203.264V67.9533H182.713V129.699Z" fill="#F6F8F9" fill-opacity="0.8"/>
<path fill-rule="evenodd" clip-rule="evenodd" d="M211.292 251.507H223.278V249.277H211.292V251.507Z" fill="#626A80"/>
<path fill-rule="evenodd" clip-rule="evenodd" d="M211.292 251.507H223.278V249.277H211.292V251.507Z" fill="#F6F8F9" fill-opacity="0.55"/>
<path fill-rule="evenodd" clip-rule="evenodd" d="M213.963 254.947H220.607V252.717H213.963V254.947Z" fill="#626A80"/>
<path fill-rule="evenodd" clip-rule="evenodd" d="M213.963 254.947H220.607V252.717H213.963V254.947Z" fill="#F6F8F9" fill-opacity="0.55"/>
<g opacity="0.71" filter="url(#filter0_d_2178_9625)">
<rect x="215.804" y="90.1094" width="23.7507" height="31.9749" rx="4.22223" fill="#F6F8F9" fill-opacity="0.975"/>
<rect x="215.804" y="90.1094" width="23.7507" height="31.9749" rx="4.22223" stroke="#3677CC" stroke-width="0.922013"/>
<rect x="215.804" y="90.1094" width="23.7507" height="31.9749" rx="4.22223" stroke="#F6F8F9" stroke-opacity="0.8" stroke-width="0.922013"/>
<path fill-rule="evenodd" clip-rule="evenodd" d="M219.027 97.1143C219.027 96.6096 219.436 96.2005 219.941 96.2005H228.165C228.669 96.2005 229.079 96.6096 229.079 97.1143C229.079 97.619 228.669 98.0281 228.165 98.0281H219.941C219.436 98.0281 219.027 97.619 219.027 97.1143Z" fill="#3677CC"/>
<path fill-rule="evenodd" clip-rule="evenodd" d="M219.027 97.1143C219.027 96.6096 219.436 96.2005 219.941 96.2005H228.165C228.669 96.2005 229.079 96.6096 229.079 97.1143C229.079 97.619 228.669 98.0281 228.165 98.0281H219.941C219.436 98.0281 219.027 97.619 219.027 97.1143Z" fill="#F6F8F9" fill-opacity="0.15"/>
<path fill-rule="evenodd" clip-rule="evenodd" d="M219.027 100.205C219.027 99.7001 219.436 99.291 219.941 99.291H235.417C235.922 99.291 236.331 99.7001 236.331 100.205C236.331 100.709 235.922 101.119 235.417 101.119H219.941C219.436 101.119 219.027 100.709 219.027 100.205ZM219.027 102.946C219.027 102.441 219.436 102.032 219.941 102.032H235.417C235.922 102.032 236.331 102.441 236.331 102.946C236.331 103.451 235.922 103.86 235.417 103.86H219.941C219.436 103.86 219.027 103.451 219.027 102.946ZM219.027 105.688C219.027 105.183 219.436 104.774 219.941 104.774H235.417C235.922 104.774 236.331 105.183 236.331 105.688C236.331 106.192 235.922 106.601 235.417 106.601H219.941C219.436 106.601 219.027 106.192 219.027 105.688ZM219.027 108.429C219.027 107.924 219.436 107.515 219.941 107.515H235.417C235.922 107.515 236.331 107.924 236.331 108.429C236.331 108.934 235.922 109.343 235.417 109.343H219.941C219.436 109.343 219.027 108.934 219.027 108.429Z" fill="#3677CC"/>
<path fill-rule="evenodd" clip-rule="evenodd" d="M219.027 100.205C219.027 99.7001 219.436 99.291 219.941 99.291H235.417C235.922 99.291 236.331 99.7001 236.331 100.205C236.331 100.709 235.922 101.119 235.417 101.119H219.941C219.436 101.119 219.027 100.709 219.027 100.205ZM219.027 102.946C219.027 102.441 219.436 102.032 219.941 102.032H235.417C235.922 102.032 236.331 102.441 236.331 102.946C236.331 103.451 235.922 103.86 235.417 103.86H219.941C219.436 103.86 219.027 103.451 219.027 102.946ZM219.027 105.688C219.027 105.183 219.436 104.774 219.941 104.774H235.417C235.922 104.774 236.331 105.183 236.331 105.688C236.331 106.192 235.922 106.601 235.417 106.601H219.941C219.436 106.601 219.027 106.192 219.027 105.688ZM219.027 108.429C219.027 107.924 219.436 107.515 219.941 107.515H235.417C235.922 107.515 236.331 107.924 236.331 108.429C236.331 108.934 235.922 109.343 235.417 109.343H219.941C219.436 109.343 219.027 108.934 219.027 108.429Z" fill="#F6F8F9" fill-opacity="0.8"/>
<path fill-rule="evenodd" clip-rule="evenodd" d="M219.027 111.203C219.027 110.698 219.436 110.289 219.941 110.289H235.417C235.922 110.289 236.331 110.698 236.331 111.203C236.331 111.707 235.922 112.117 235.417 112.117H219.941C219.436 112.117 219.027 111.707 219.027 111.203ZM219.027 113.944C219.027 113.439 219.436 113.03 219.941 113.03H235.417C235.922 113.03 236.331 113.439 236.331 113.944C236.331 114.449 235.922 114.858 235.417 114.858H219.941C219.436 114.858 219.027 114.449 219.027 113.944ZM219.027 116.686C219.027 116.181 219.436 115.772 219.941 115.772H235.417C235.922 115.772 236.331 116.181 236.331 116.686C236.331 117.19 235.922 117.599 235.417 117.599H219.941C219.436 117.599 219.027 117.19 219.027 116.686ZM219.027 119.427C219.027 118.922 219.436 118.513 219.941 118.513H235.417C235.922 118.513 236.331 118.922 236.331 119.427C236.331 119.932 235.922 120.341 235.417 120.341H219.941C219.436 120.341 219.027 119.932 219.027 119.427Z" fill="#3677CC"/>
<path fill-rule="evenodd" clip-rule="evenodd" d="M219.027 111.203C219.027 110.698 219.436 110.289 219.941 110.289H235.417C235.922 110.289 236.331 110.698 236.331 111.203C236.331 111.707 235.922 112.117 235.417 112.117H219.941C219.436 112.117 219.027 111.707 219.027 111.203ZM219.027 113.944C219.027 113.439 219.436 113.03 219.941 113.03H235.417C235.922 113.03 236.331 113.439 236.331 113.944C236.331 114.449 235.922 114.858 235.417 114.858H219.941C219.436 114.858 219.027 114.449 219.027 113.944ZM219.027 116.686C219.027 116.181 219.436 115.772 219.941 115.772H235.417C235.922 115.772 236.331 116.181 236.331 116.686C236.331 117.19 235.922 117.599 235.417 117.599H219.941C219.436 117.599 219.027 117.19 219.027 116.686ZM219.027 119.427C219.027 118.922 219.436 118.513 219.941 118.513H235.417C235.922 118.513 236.331 118.922 236.331 119.427C236.331 119.932 235.922 120.341 235.417 120.341H219.941C219.436 120.341 219.027 119.932 219.027 119.427Z" fill="#F6F8F9" fill-opacity="0.8"/>
</g>
<g filter="url(#filter1_d_2178_9625)">
<rect x="199.69" y="84.836" width="23.7507" height="31.9749" rx="4.22223" fill="#F6F8F9" fill-opacity="0.975"/>
<rect x="199.69" y="84.836" width="23.7507" height="31.9749" rx="4.22223" stroke="#6D778C" stroke-width="0.922013"/>
<rect x="199.69" y="84.836" width="23.7507" height="31.9749" rx="4.22223" stroke="#F6F8F9" stroke-opacity="0.8" stroke-width="0.922013"/>
<path fill-rule="evenodd" clip-rule="evenodd" d="M202.427 88.4871C202.427 87.9824 202.837 87.5733 203.341 87.5733H219.79C220.294 87.5733 220.704 87.9824 220.704 88.4871C220.704 88.9918 220.294 89.4009 219.79 89.4009H203.341C202.837 89.4009 202.427 88.9918 202.427 88.4871Z" fill="#6D778C"/>
<path fill-rule="evenodd" clip-rule="evenodd" d="M202.427 88.4871C202.427 87.9824 202.837 87.5733 203.341 87.5733H219.79C220.294 87.5733 220.704 87.9824 220.704 88.4871C220.704 88.9918 220.294 89.4009 219.79 89.4009H203.341C202.837 89.4009 202.427 88.9918 202.427 88.4871Z" fill="#F6F8F9" fill-opacity="0.8"/>
<path fill-rule="evenodd" clip-rule="evenodd" d="M202.427 91.5712C202.427 91.0665 202.837 90.6574 203.341 90.6574H219.79C220.294 90.6574 220.704 91.0665 220.704 91.5712C220.704 92.0759 220.294 92.485 219.79 92.485H203.341C202.837 92.485 202.427 92.0759 202.427 91.5712Z" fill="#6D778C"/>
<path fill-rule="evenodd" clip-rule="evenodd" d="M202.427 91.5712C202.427 91.0665 202.837 90.6574 203.341 90.6574H219.79C220.294 90.6574 220.704 91.0665 220.704 91.5712C220.704 92.0759 220.294 92.485 219.79 92.485H203.341C202.837 92.485 202.427 92.0759 202.427 91.5712Z" fill="#F6F8F9" fill-opacity="0.8"/>
<path fill-rule="evenodd" clip-rule="evenodd" d="M202.427 94.6553C202.427 94.1506 202.837 93.7415 203.341 93.7415H219.79C220.294 93.7415 220.704 94.1506 220.704 94.6553C220.704 95.16 220.294 95.5691 219.79 95.5691H203.341C202.837 95.5691 202.427 95.16 202.427 94.6553Z" fill="#6D778C"/>
<path fill-rule="evenodd" clip-rule="evenodd" d="M202.427 94.6553C202.427 94.1506 202.837 93.7415 203.341 93.7415H219.79C220.294 93.7415 220.704 94.1506 220.704 94.6553C220.704 95.16 220.294 95.5691 219.79 95.5691H203.341C202.837 95.5691 202.427 95.16 202.427 94.6553Z" fill="#F6F8F9" fill-opacity="0.8"/>
<path fill-rule="evenodd" clip-rule="evenodd" d="M202.427 97.7394C202.427 97.2347 202.837 96.8256 203.341 96.8256H219.79C220.294 96.8256 220.704 97.2347 220.704 97.7394C220.704 98.244 220.294 98.6532 219.79 98.6532H203.341C202.837 98.6532 202.427 98.244 202.427 97.7394Z" fill="#6D778C"/>
<path fill-rule="evenodd" clip-rule="evenodd" d="M202.427 97.7394C202.427 97.2347 202.837 96.8256 203.341 96.8256H219.79C220.294 96.8256 220.704 97.2347 220.704 97.7394C220.704 98.244 220.294 98.6532 219.79 98.6532H203.341C202.837 98.6532 202.427 98.244 202.427 97.7394Z" fill="#F6F8F9" fill-opacity="0.8"/>
<path fill-rule="evenodd" clip-rule="evenodd" d="M202.427 100.823C202.427 100.319 202.837 99.9096 203.341 99.9096H219.79C220.294 99.9096 220.704 100.319 220.704 100.823C220.704 101.328 220.294 101.737 219.79 101.737H203.341C202.837 101.737 202.427 101.328 202.427 100.823Z" fill="#6D778C"/>
<path fill-rule="evenodd" clip-rule="evenodd" d="M202.427 100.823C202.427 100.319 202.837 99.9096 203.341 99.9096H219.79C220.294 99.9096 220.704 100.319 220.704 100.823C220.704 101.328 220.294 101.737 219.79 101.737H203.341C202.837 101.737 202.427 101.328 202.427 100.823Z" fill="#F6F8F9" fill-opacity="0.8"/>
<path fill-rule="evenodd" clip-rule="evenodd" d="M202.427 103.908C202.427 103.403 202.837 102.994 203.341 102.994H219.79C220.294 102.994 220.704 103.403 220.704 103.908C220.704 104.412 220.294 104.821 219.79 104.821H203.341C202.837 104.821 202.427 104.412 202.427 103.908Z" fill="#6D778C"/>
<path fill-rule="evenodd" clip-rule="evenodd" d="M202.427 103.908C202.427 103.403 202.837 102.994 203.341 102.994H219.79C220.294 102.994 220.704 103.403 220.704 103.908C220.704 104.412 220.294 104.821 219.79 104.821H203.341C202.837 104.821 202.427 104.412 202.427 103.908Z" fill="#F6F8F9" fill-opacity="0.8"/>
<path fill-rule="evenodd" clip-rule="evenodd" d="M202.427 106.992C202.427 106.487 202.837 106.078 203.341 106.078H219.79C220.294 106.078 220.704 106.487 220.704 106.992C220.704 107.496 220.294 107.905 219.79 107.905H203.341C202.837 107.905 202.427 107.496 202.427 106.992Z" fill="#6D778C"/>
<path fill-rule="evenodd" clip-rule="evenodd" d="M202.427 106.992C202.427 106.487 202.837 106.078 203.341 106.078H219.79C220.294 106.078 220.704 106.487 220.704 106.992C220.704 107.496 220.294 107.905 219.79 107.905H203.341C202.837 107.905 202.427 107.496 202.427 106.992Z" fill="#F6F8F9" fill-opacity="0.8"/>
<path fill-rule="evenodd" clip-rule="evenodd" d="M202.427 110.076C202.427 109.571 202.837 109.162 203.341 109.162H219.79C220.294 109.162 220.704 109.571 220.704 110.076C220.704 110.58 220.294 110.99 219.79 110.99H203.341C202.837 110.99 202.427 110.58 202.427 110.076Z" fill="#6D778C"/>
<path fill-rule="evenodd" clip-rule="evenodd" d="M202.427 110.076C202.427 109.571 202.837 109.162 203.341 109.162H219.79C220.294 109.162 220.704 109.571 220.704 110.076C220.704 110.58 220.294 110.99 219.79 110.99H203.341C202.837 110.99 202.427 110.58 202.427 110.076Z" fill="#F6F8F9" fill-opacity="0.8"/>
<path fill-rule="evenodd" clip-rule="evenodd" d="M202.427 113.16C202.427 112.655 202.837 112.246 203.341 112.246H219.79C220.294 112.246 220.704 112.655 220.704 113.16C220.704 113.664 220.294 114.074 219.79 114.074H203.341C202.837 114.074 202.427 113.664 202.427 113.16Z" fill="#6D778C"/>
<path fill-rule="evenodd" clip-rule="evenodd" d="M202.427 113.16C202.427 112.655 202.837 112.246 203.341 112.246H219.79C220.294 112.246 220.704 112.655 220.704 113.16C220.704 113.664 220.294 114.074 219.79 114.074H203.341C202.837 114.074 202.427 113.664 202.427 113.16Z" fill="#F6F8F9" fill-opacity="0.8"/>
</g>
<g filter="url(#filter2_d_2178_9625)">
<rect x="187.913" y="102.021" width="29.3947" height="23.7642" rx="4.94565" fill="#6D778C"/>
<rect x="187.913" y="102.021" width="29.3947" height="23.7642" rx="4.94565" fill="#F6F8F9" fill-opacity="0.975"/>
<rect x="187.913" y="102.021" width="29.3947" height="23.7642" rx="4.94565" stroke="#6D778C" stroke-width="1.00997"/>
<rect x="187.913" y="102.021" width="29.3947" height="23.7642" rx="4.94565" stroke="#F6F8F9" stroke-opacity="0.8" stroke-width="1.00997"/>
<path d="M199.555 117.018V110.784C199.555 110.51 199.628 110.304 199.774 110.167C199.919 110.03 200.093 109.962 200.296 109.962C200.473 109.962 200.647 110.01 200.819 110.107L206.003 113.132C206.2 113.246 206.347 113.362 206.444 113.479C206.541 113.593 206.589 113.735 206.589 113.903C206.589 114.066 206.541 114.207 206.444 114.327C206.347 114.444 206.2 114.558 206.003 114.67L200.819 117.694C200.647 117.794 200.473 117.844 200.296 117.844C200.093 117.844 199.919 117.774 199.774 117.634C199.628 117.497 199.555 117.292 199.555 117.018Z" fill="#3A7EA0"/>
<path d="M199.555 117.018V110.784C199.555 110.51 199.628 110.304 199.774 110.167C199.919 110.03 200.093 109.962 200.296 109.962C200.473 109.962 200.647 110.01 200.819 110.107L206.003 113.132C206.2 113.246 206.347 113.362 206.444 113.479C206.541 113.593 206.589 113.735 206.589 113.903C206.589 114.066 206.541 114.207 206.444 114.327C206.347 114.444 206.2 114.558 206.003 114.67L200.819 117.694C200.647 117.794 200.473 117.844 200.296 117.844C200.093 117.844 199.919 117.774 199.774 117.634C199.628 117.497 199.555 117.292 199.555 117.018Z" fill="#F6F8F9" fill-opacity="0.15"/>
<path fill-rule="evenodd" clip-rule="evenodd" d="M190.224 105.311C190.224 104.77 190.662 104.331 191.203 104.331H193.277C193.818 104.331 194.257 104.77 194.257 105.311C194.257 105.852 193.818 106.29 193.277 106.29H191.203C190.662 106.29 190.224 105.852 190.224 105.311Z" fill="#3A7EA0"/>
<path fill-rule="evenodd" clip-rule="evenodd" d="M190.224 105.311C190.224 104.77 190.662 104.331 191.203 104.331H193.277C193.818 104.331 194.257 104.77 194.257 105.311C194.257 105.852 193.818 106.29 193.277 106.29H191.203C190.662 106.29 190.224 105.852 190.224 105.311Z" fill="#F6F8F9" fill-opacity="0.65"/>
<path fill-rule="evenodd" clip-rule="evenodd" d="M195.409 105.311C195.409 104.77 195.847 104.331 196.388 104.331H198.462C199.003 104.331 199.442 104.77 199.442 105.311C199.442 105.852 199.003 106.29 198.462 106.29H196.388C195.847 106.29 195.409 105.852 195.409 105.311Z" fill="#3A7EA0"/>
<path fill-rule="evenodd" clip-rule="evenodd" d="M195.409 105.311C195.409 104.77 195.847 104.331 196.388 104.331H198.462C199.003 104.331 199.442 104.77 199.442 105.311C199.442 105.852 199.003 106.29 198.462 106.29H196.388C195.847 106.29 195.409 105.852 195.409 105.311Z" fill="#F6F8F9" fill-opacity="0.65"/>
<path fill-rule="evenodd" clip-rule="evenodd" d="M200.594 105.311C200.594 104.77 201.033 104.331 201.574 104.331H203.648C204.189 104.331 204.628 104.77 204.628 105.311C204.628 105.852 204.189 106.29 203.648 106.29H201.574C201.033 106.29 200.594 105.852 200.594 105.311Z" fill="#3A7EA0"/>
<path fill-rule="evenodd" clip-rule="evenodd" d="M200.594 105.311C200.594 104.77 201.033 104.331 201.574 104.331H203.648C204.189 104.331 204.628 104.77 204.628 105.311C204.628 105.852 204.189 106.29 203.648 106.29H201.574C201.033 106.29 200.594 105.852 200.594 105.311Z" fill="#F6F8F9" fill-opacity="0.65"/>
<path fill-rule="evenodd" clip-rule="evenodd" d="M205.78 105.311C205.78 104.77 206.218 104.331 206.759 104.331H208.833C209.374 104.331 209.813 104.77 209.813 105.311C209.813 105.852 209.374 106.29 208.833 106.29H206.759C206.218 106.29 205.78 105.852 205.78 105.311Z" fill="#3A7EA0"/>
<path fill-rule="evenodd" clip-rule="evenodd" d="M205.78 105.311C205.78 104.77 206.218 104.331 206.759 104.331H208.833C209.374 104.331 209.813 104.77 209.813 105.311C209.813 105.852 209.374 106.29 208.833 106.29H206.759C206.218 106.29 205.78 105.852 205.78 105.311Z" fill="#F6F8F9" fill-opacity="0.65"/>
<path fill-rule="evenodd" clip-rule="evenodd" d="M210.965 105.311C210.965 104.77 211.403 104.331 211.944 104.331H214.018C214.559 104.331 214.998 104.77 214.998 105.311C214.998 105.852 214.559 106.29 214.018 106.29H211.944C211.403 106.29 210.965 105.852 210.965 105.311Z" fill="#3A7EA0"/>
<path fill-rule="evenodd" clip-rule="evenodd" d="M210.965 105.311C210.965 104.77 211.403 104.331 211.944 104.331H214.018C214.559 104.331 214.998 104.77 214.998 105.311C214.998 105.852 214.559 106.29 214.018 106.29H211.944C211.403 106.29 210.965 105.852 210.965 105.311Z" fill="#F6F8F9" fill-opacity="0.65"/>
<path fill-rule="evenodd" clip-rule="evenodd" d="M190.224 122.495C190.224 121.954 190.662 121.515 191.203 121.515H193.277C193.818 121.515 194.257 121.954 194.257 122.495C194.257 123.036 193.818 123.474 193.277 123.474H191.203C190.662 123.474 190.224 123.036 190.224 122.495Z" fill="#3A7EA0"/>
<path fill-rule="evenodd" clip-rule="evenodd" d="M190.224 122.495C190.224 121.954 190.662 121.515 191.203 121.515H193.277C193.818 121.515 194.257 121.954 194.257 122.495C194.257 123.036 193.818 123.474 193.277 123.474H191.203C190.662 123.474 190.224 123.036 190.224 122.495Z" fill="#F6F8F9" fill-opacity="0.65"/>
<path fill-rule="evenodd" clip-rule="evenodd" d="M195.409 122.495C195.409 121.954 195.847 121.515 196.388 121.515H198.462C199.003 121.515 199.442 121.954 199.442 122.495C199.442 123.036 199.003 123.474 198.462 123.474H196.388C195.847 123.474 195.409 123.036 195.409 122.495Z" fill="#3A7EA0"/>
<path fill-rule="evenodd" clip-rule="evenodd" d="M195.409 122.495C195.409 121.954 195.847 121.515 196.388 121.515H198.462C199.003 121.515 199.442 121.954 199.442 122.495C199.442 123.036 199.003 123.474 198.462 123.474H196.388C195.847 123.474 195.409 123.036 195.409 122.495Z" fill="#F6F8F9" fill-opacity="0.65"/>
<path fill-rule="evenodd" clip-rule="evenodd" d="M200.594 122.495C200.594 121.954 201.033 121.515 201.574 121.515H203.648C204.189 121.515 204.628 121.954 204.628 122.495C204.628 123.036 204.189 123.474 203.648 123.474H201.574C201.033 123.474 200.594 123.036 200.594 122.495Z" fill="#3A7EA0"/>
<path fill-rule="evenodd" clip-rule="evenodd" d="M200.594 122.495C200.594 121.954 201.033 121.515 201.574 121.515H203.648C204.189 121.515 204.628 121.954 204.628 122.495C204.628 123.036 204.189 123.474 203.648 123.474H201.574C201.033 123.474 200.594 123.036 200.594 122.495Z" fill="#F6F8F9" fill-opacity="0.65"/>
<path fill-rule="evenodd" clip-rule="evenodd" d="M205.78 122.495C205.78 121.954 206.218 121.515 206.759 121.515H208.833C209.374 121.515 209.813 121.954 209.813 122.495C209.813 123.036 209.374 123.474 208.833 123.474H206.759C206.218 123.474 205.78 123.036 205.78 122.495Z" fill="#3A7EA0"/>
<path fill-rule="evenodd" clip-rule="evenodd" d="M205.78 122.495C205.78 121.954 206.218 121.515 206.759 121.515H208.833C209.374 121.515 209.813 121.954 209.813 122.495C209.813 123.036 209.374 123.474 208.833 123.474H206.759C206.218 123.474 205.78 123.036 205.78 122.495Z" fill="#F6F8F9" fill-opacity="0.65"/>
<path fill-rule="evenodd" clip-rule="evenodd" d="M210.965 122.495C210.965 121.954 211.403 121.515 211.944 121.515H214.018C214.559 121.515 214.998 121.954 214.998 122.495C214.998 123.036 214.559 123.474 214.018 123.474H211.944C211.403 123.474 210.965 123.036 210.965 122.495Z" fill="#3A7EA0"/>
<path fill-rule="evenodd" clip-rule="evenodd" d="M210.965 122.495C210.965 121.954 211.403 121.515 211.944 121.515H214.018C214.559 121.515 214.998 121.954 214.998 122.495C214.998 123.036 214.559 123.474 214.018 123.474H211.944C211.403 123.474 210.965 123.036 210.965 122.495Z" fill="#F6F8F9" fill-opacity="0.65"/>
</g>
<g opacity="0.82" filter="url(#filter3_d_2178_9625)">
<g clip-path="url(#clip0_2178_9625)">
<mask id="mask0_2178_9625" style="mask-type:alpha" maskUnits="userSpaceOnUse" x="214" y="158" width="26" height="34">
<path d="M215.155 160.494C214.757 161.277 214.757 162.302 214.757 164.352V185.537C214.757 187.587 214.757 188.612 215.155 189.395C215.506 190.083 216.066 190.643 216.755 190.994C217.538 191.393 218.563 191.393 220.612 191.393H233.574C235.623 191.393 236.648 191.393 237.431 190.994C238.12 190.643 238.68 190.083 239.03 189.395C239.429 188.612 239.429 187.587 239.429 185.537V168.311C239.429 167.345 239.429 166.861 239.32 166.407C239.223 166.003 239.064 165.618 238.847 165.264C238.603 164.866 238.261 164.524 237.577 163.841L234.085 160.348C233.401 159.664 233.06 159.323 232.661 159.078C232.307 158.862 231.922 158.702 231.519 158.605C231.064 158.496 230.581 158.496 229.614 158.496H220.612C218.563 158.496 217.538 158.496 216.755 158.895C216.066 159.246 215.506 159.806 215.155 160.494Z" fill="#D9D9D9"/>
</mask>
<g mask="url(#mask0_2178_9625)">
<path d="M215.155 160.494C214.757 161.277 214.757 162.302 214.757 164.352V185.537C214.757 187.587 214.757 188.612 215.155 189.395C215.506 190.083 216.066 190.643 216.755 190.994C217.538 191.393 218.563 191.393 220.612 191.393H233.574C235.623 191.393 236.648 191.393 237.431 190.994C238.12 190.643 238.68 190.083 239.03 189.395C239.429 188.612 239.429 187.587 239.429 185.537V168.311C239.429 167.345 239.429 166.861 239.32 166.407C239.223 166.003 239.064 165.618 238.847 165.264C238.603 164.866 238.261 164.524 237.577 163.841L234.085 160.348C233.401 159.664 233.06 159.323 232.661 159.078C232.307 158.862 231.922 158.702 231.519 158.605C231.064 158.496 230.581 158.496 229.614 158.496H220.612C218.563 158.496 217.538 158.496 216.755 158.895C216.066 159.246 215.506 159.806 215.155 160.494Z" fill="white"/>
<g filter="url(#filter4_d_2178_9625)">
<mask id="path-41-inside-1_2178_9625" fill="white">
<path d="M231.304 162.031V158.496H239.528V166.72H235.993C233.404 166.72 231.304 164.621 231.304 162.031Z"/>
</mask>
<path d="M231.304 162.031V158.496H239.528V166.72H235.993C233.404 166.72 231.304 164.621 231.304 162.031Z" fill="#6D778C"/>
<path d="M231.304 162.031V158.496H239.528V166.72H235.993C233.404 166.72 231.304 164.621 231.304 162.031Z" fill="#F6F8F9" fill-opacity="0.9"/>
<path d="M231.304 158.496V157.574H230.382V158.496H231.304ZM239.528 166.72V167.642H240.45V166.72H239.528ZM239.528 158.496H240.45V157.574H239.528V158.496ZM231.304 158.496H230.382V162.031H231.304H232.226V158.496H231.304ZM235.993 166.72V167.642H239.528V166.72V165.798H235.993V166.72ZM231.304 158.496V159.418H239.528V158.496V157.574H231.304V158.496ZM239.528 158.496H238.606V166.72H239.528H240.45V158.496H239.528ZM231.304 162.031H230.382C230.382 165.13 232.894 167.642 235.993 167.642V166.72V165.798C233.913 165.798 232.226 164.112 232.226 162.031H231.304Z" fill="#6D778C" mask="url(#path-41-inside-1_2178_9625)"/>
<path d="M231.304 158.496V157.574H230.382V158.496H231.304ZM239.528 166.72V167.642H240.45V166.72H239.528ZM239.528 158.496H240.45V157.574H239.528V158.496ZM231.304 158.496H230.382V162.031H231.304H232.226V158.496H231.304ZM235.993 166.72V167.642H239.528V166.72V165.798H235.993V166.72ZM231.304 158.496V159.418H239.528V158.496V157.574H231.304V158.496ZM239.528 158.496H238.606V166.72H239.528H240.45V158.496H239.528ZM231.304 162.031H230.382C230.382 165.13 232.894 167.642 235.993 167.642V166.72V165.798C233.913 165.798 232.226 164.112 232.226 162.031H231.304Z" fill="#F6F8F9" fill-opacity="0.8" mask="url(#path-41-inside-1_2178_9625)"/>
</g>
<path d="M220.612 158.957H229.614C230.602 158.957 231.022 158.96 231.411 159.054C231.767 159.139 232.107 159.28 232.42 159.472C232.761 159.681 233.06 159.975 233.759 160.674L237.252 164.166C237.95 164.865 238.245 165.164 238.454 165.505C238.597 165.739 238.713 165.989 238.798 166.25L238.872 166.515C238.965 166.904 238.969 167.323 238.969 168.312V185.537C238.969 186.569 238.968 187.316 238.92 187.903C238.872 188.485 238.781 188.87 238.62 189.186C238.313 189.787 237.823 190.276 237.221 190.583C236.906 190.744 236.522 190.836 235.94 190.884C235.353 190.932 234.606 190.932 233.574 190.932H220.612C219.58 190.932 218.833 190.932 218.246 190.884C217.664 190.836 217.28 190.744 216.965 190.583C216.363 190.276 215.873 189.787 215.566 189.186C215.405 188.87 215.314 188.485 215.266 187.903C215.218 187.316 215.218 186.569 215.218 185.537V164.352C215.218 163.319 215.218 162.572 215.266 161.985C215.314 161.404 215.405 161.02 215.566 160.704C215.873 160.102 216.363 159.612 216.965 159.306C217.28 159.145 217.664 159.053 218.246 159.006C218.833 158.958 219.58 158.957 220.612 158.957Z" stroke="#6D778C" stroke-width="0.922013"/>
<path d="M220.612 158.957H229.614C230.602 158.957 231.022 158.96 231.411 159.054C231.767 159.139 232.107 159.28 232.42 159.472C232.761 159.681 233.06 159.975 233.759 160.674L237.252 164.166C237.95 164.865 238.245 165.164 238.454 165.505C238.597 165.739 238.713 165.989 238.798 166.25L238.872 166.515C238.965 166.904 238.969 167.323 238.969 168.312V185.537C238.969 186.569 238.968 187.316 238.92 187.903C238.872 188.485 238.781 188.87 238.62 189.186C238.313 189.787 237.823 190.276 237.221 190.583C236.906 190.744 236.522 190.836 235.94 190.884C235.353 190.932 234.606 190.932 233.574 190.932H220.612C219.58 190.932 218.833 190.932 218.246 190.884C217.664 190.836 217.28 190.744 216.965 190.583C216.363 190.276 215.873 189.787 215.566 189.186C215.405 188.87 215.314 188.485 215.266 187.903C215.218 187.316 215.218 186.569 215.218 185.537V164.352C215.218 163.319 215.218 162.572 215.266 161.985C215.314 161.404 215.405 161.02 215.566 160.704C215.873 160.102 216.363 159.612 216.965 159.306C217.28 159.145 217.664 159.053 218.246 159.006C218.833 158.958 219.58 158.957 220.612 158.957Z" stroke="#F6F8F9" stroke-opacity="0.8" stroke-width="0.922013"/>
</g>
</g>
</g>
<g filter="url(#filter5_d_2178_9625)">
<rect x="188.106" y="168.56" width="31.3065" height="25.3098" rx="5.26731" fill="#F6F8F9" fill-opacity="0.975"/>
<rect x="188.106" y="168.56" width="31.3065" height="25.3098" rx="5.26731" stroke="#AE6257" stroke-width="1.07566"/>
<rect x="188.106" y="168.56" width="31.3065" height="25.3098" rx="5.26731" stroke="#F6F8F9" stroke-opacity="0.8" stroke-width="1.07566"/>
<path fill-rule="evenodd" clip-rule="evenodd" d="M192.433 174.019C192.433 173.393 192.94 172.886 193.565 172.886H203.16C203.786 172.886 204.293 173.393 204.293 174.019C204.293 174.644 203.786 175.152 203.16 175.152H193.565C192.94 175.152 192.433 174.644 192.433 174.019Z" fill="#AE6257"/>
<path fill-rule="evenodd" clip-rule="evenodd" d="M192.433 174.019C192.433 173.393 192.94 172.886 193.565 172.886H203.16C203.786 172.886 204.293 173.393 204.293 174.019C204.293 174.644 203.786 175.152 203.16 175.152H193.565C192.94 175.152 192.433 174.644 192.433 174.019Z" fill="#F6F8F9" fill-opacity="0.15"/>
<path fill-rule="evenodd" clip-rule="evenodd" d="M192.433 178.816C192.433 178.191 192.94 177.683 193.565 177.683H213.954C214.58 177.683 215.087 178.191 215.087 178.816C215.087 179.442 214.58 179.949 213.954 179.949H193.565C192.94 179.949 192.433 179.442 192.433 178.816Z" fill="#AE6257"/>
<path fill-rule="evenodd" clip-rule="evenodd" d="M192.433 178.816C192.433 178.191 192.94 177.683 193.565 177.683H213.954C214.58 177.683 215.087 178.191 215.087 178.816C215.087 179.442 214.58 179.949 213.954 179.949H193.565C192.94 179.949 192.433 179.442 192.433 178.816Z" fill="#F6F8F9" fill-opacity="0.8"/>
</g>
<g opacity="0.75" filter="url(#filter6_d_2178_9625)">
<rect x="215.875" y="224.222" width="24.7787" height="27.8628" rx="4.51494" fill="#F6F8F9" fill-opacity="0.975"/>
<rect x="215.875" y="224.222" width="24.7787" height="27.8628" rx="4.51494" stroke="#5A8228" stroke-width="0.922013"/>
<rect x="215.875" y="224.222" width="24.7787" height="27.8628" rx="4.51494" stroke="#F6F8F9" stroke-opacity="0.8" stroke-width="0.922013"/>
<path fill-rule="evenodd" clip-rule="evenodd" d="M218.556 227.874C218.556 227.337 218.99 226.903 219.527 226.903H222.611C223.147 226.903 223.582 227.337 223.582 227.874C223.582 228.41 223.147 228.844 222.611 228.844H219.527C218.99 228.844 218.556 228.41 218.556 227.874Z" fill="#5A8228"/>
<path fill-rule="evenodd" clip-rule="evenodd" d="M218.556 227.874C218.556 227.337 218.99 226.903 219.527 226.903H222.611C223.147 226.903 223.582 227.337 223.582 227.874C223.582 228.41 223.147 228.844 222.611 228.844H219.527C218.99 228.844 218.556 228.41 218.556 227.874Z" fill="#F6F8F9" fill-opacity="0.15"/>
<path fill-rule="evenodd" clip-rule="evenodd" d="M218.556 231.986C218.556 231.449 218.99 231.015 219.527 231.015H222.611C223.147 231.015 223.582 231.449 223.582 231.986C223.582 232.522 223.147 232.957 222.611 232.957H219.527C218.99 232.957 218.556 232.522 218.556 231.986Z" fill="#5A8228"/>
<path fill-rule="evenodd" clip-rule="evenodd" d="M218.556 231.986C218.556 231.449 218.99 231.015 219.527 231.015H222.611C223.147 231.015 223.582 231.449 223.582 231.986C223.582 232.522 223.147 232.957 222.611 232.957H219.527C218.99 232.957 218.556 232.522 218.556 231.986Z" fill="#F6F8F9" fill-opacity="0.8"/>
<path fill-rule="evenodd" clip-rule="evenodd" d="M218.556 236.098C218.556 235.562 218.99 235.127 219.527 235.127H222.611C223.147 235.127 223.582 235.562 223.582 236.098C223.582 236.634 223.147 237.069 222.611 237.069H219.527C218.99 237.069 218.556 236.634 218.556 236.098Z" fill="#5A8228"/>
<path fill-rule="evenodd" clip-rule="evenodd" d="M218.556 236.098C218.556 235.562 218.99 235.127 219.527 235.127H222.611C223.147 235.127 223.582 235.562 223.582 236.098C223.582 236.634 223.147 237.069 222.611 237.069H219.527C218.99 237.069 218.556 236.634 218.556 236.098Z" fill="#F6F8F9" fill-opacity="0.8"/>
<path fill-rule="evenodd" clip-rule="evenodd" d="M218.556 240.21C218.556 239.674 218.99 239.239 219.527 239.239H222.611C223.147 239.239 223.582 239.674 223.582 240.21C223.582 240.746 223.147 241.181 222.611 241.181H219.527C218.99 241.181 218.556 240.746 218.556 240.21Z" fill="#5A8228"/>
<path fill-rule="evenodd" clip-rule="evenodd" d="M218.556 240.21C218.556 239.674 218.99 239.239 219.527 239.239H222.611C223.147 239.239 223.582 239.674 223.582 240.21C223.582 240.746 223.147 241.181 222.611 241.181H219.527C218.99 241.181 218.556 240.746 218.556 240.21Z" fill="#F6F8F9" fill-opacity="0.8"/>
<path fill-rule="evenodd" clip-rule="evenodd" d="M218.556 244.322C218.556 243.786 218.99 243.351 219.527 243.351H222.611C223.147 243.351 223.582 243.786 223.582 244.322C223.582 244.858 223.147 245.293 222.611 245.293H219.527C218.99 245.293 218.556 244.858 218.556 244.322Z" fill="#5A8228"/>
<path fill-rule="evenodd" clip-rule="evenodd" d="M218.556 244.322C218.556 243.786 218.99 243.351 219.527 243.351H222.611C223.147 243.351 223.582 243.786 223.582 244.322C223.582 244.858 223.147 245.293 222.611 245.293H219.527C218.99 245.293 218.556 244.858 218.556 244.322Z" fill="#F6F8F9" fill-opacity="0.8"/>
<path fill-rule="evenodd" clip-rule="evenodd" d="M218.556 248.434C218.556 247.898 218.99 247.463 219.527 247.463H222.611C223.147 247.463 223.582 247.898 223.582 248.434C223.582 248.97 223.147 249.405 222.611 249.405H219.527C218.99 249.405 218.556 248.97 218.556 248.434Z" fill="#5A8228"/>
<path fill-rule="evenodd" clip-rule="evenodd" d="M218.556 248.434C218.556 247.898 218.99 247.463 219.527 247.463H222.611C223.147 247.463 223.582 247.898 223.582 248.434C223.582 248.97 223.147 249.405 222.611 249.405H219.527C218.99 249.405 218.556 248.97 218.556 248.434Z" fill="#F6F8F9" fill-opacity="0.8"/>
<path fill-rule="evenodd" clip-rule="evenodd" d="M225.637 227.874C225.637 227.337 226.072 226.903 226.608 226.903H229.692C230.229 226.903 230.663 227.337 230.663 227.874C230.663 228.41 230.229 228.844 229.692 228.844H226.608C226.072 228.844 225.637 228.41 225.637 227.874Z" fill="#5A8228"/>
<path fill-rule="evenodd" clip-rule="evenodd" d="M225.637 227.874C225.637 227.337 226.072 226.903 226.608 226.903H229.692C230.229 226.903 230.663 227.337 230.663 227.874C230.663 228.41 230.229 228.844 229.692 228.844H226.608C226.072 228.844 225.637 228.41 225.637 227.874Z" fill="#F6F8F9" fill-opacity="0.15"/>
<path fill-rule="evenodd" clip-rule="evenodd" d="M225.637 231.986C225.637 231.449 226.072 231.015 226.608 231.015H229.692C230.229 231.015 230.663 231.449 230.663 231.986C230.663 232.522 230.229 232.957 229.692 232.957H226.608C226.072 232.957 225.637 232.522 225.637 231.986Z" fill="#5A8228"/>
<path fill-rule="evenodd" clip-rule="evenodd" d="M225.637 231.986C225.637 231.449 226.072 231.015 226.608 231.015H229.692C230.229 231.015 230.663 231.449 230.663 231.986C230.663 232.522 230.229 232.957 229.692 232.957H226.608C226.072 232.957 225.637 232.522 225.637 231.986Z" fill="#F6F8F9" fill-opacity="0.8"/>
<path fill-rule="evenodd" clip-rule="evenodd" d="M225.637 236.098C225.637 235.562 226.072 235.127 226.608 235.127H229.692C230.229 235.127 230.663 235.562 230.663 236.098C230.663 236.634 230.229 237.069 229.692 237.069H226.608C226.072 237.069 225.637 236.634 225.637 236.098Z" fill="#5A8228"/>
<path fill-rule="evenodd" clip-rule="evenodd" d="M225.637 236.098C225.637 235.562 226.072 235.127 226.608 235.127H229.692C230.229 235.127 230.663 235.562 230.663 236.098C230.663 236.634 230.229 237.069 229.692 237.069H226.608C226.072 237.069 225.637 236.634 225.637 236.098Z" fill="#F6F8F9" fill-opacity="0.8"/>
<path fill-rule="evenodd" clip-rule="evenodd" d="M225.637 240.21C225.637 239.674 226.072 239.239 226.608 239.239H229.692C230.229 239.239 230.663 239.674 230.663 240.21C230.663 240.746 230.229 241.181 229.692 241.181H226.608C226.072 241.181 225.637 240.746 225.637 240.21Z" fill="#5A8228"/>
<path fill-rule="evenodd" clip-rule="evenodd" d="M225.637 240.21C225.637 239.674 226.072 239.239 226.608 239.239H229.692C230.229 239.239 230.663 239.674 230.663 240.21C230.663 240.746 230.229 241.181 229.692 241.181H226.608C226.072 241.181 225.637 240.746 225.637 240.21Z" fill="#F6F8F9" fill-opacity="0.8"/>
<path fill-rule="evenodd" clip-rule="evenodd" d="M225.637 244.322C225.637 243.786 226.072 243.351 226.608 243.351H229.692C230.229 243.351 230.663 243.786 230.663 244.322C230.663 244.858 230.229 245.293 229.692 245.293H226.608C226.072 245.293 225.637 244.858 225.637 244.322Z" fill="#5A8228"/>
<path fill-rule="evenodd" clip-rule="evenodd" d="M225.637 244.322C225.637 243.786 226.072 243.351 226.608 243.351H229.692C230.229 243.351 230.663 243.786 230.663 244.322C230.663 244.858 230.229 245.293 229.692 245.293H226.608C226.072 245.293 225.637 244.858 225.637 244.322Z" fill="#F6F8F9" fill-opacity="0.8"/>
<path fill-rule="evenodd" clip-rule="evenodd" d="M225.637 248.434C225.637 247.898 226.072 247.463 226.608 247.463H229.692C230.229 247.463 230.663 247.898 230.663 248.434C230.663 248.97 230.229 249.405 229.692 249.405H226.608C226.072 249.405 225.637 248.97 225.637 248.434Z" fill="#5A8228"/>
<path fill-rule="evenodd" clip-rule="evenodd" d="M225.637 248.434C225.637 247.898 226.072 247.463 226.608 247.463H229.692C230.229 247.463 230.663 247.898 230.663 248.434C230.663 248.97 230.229 249.405 229.692 249.405H226.608C226.072 249.405 225.637 248.97 225.637 248.434Z" fill="#F6F8F9" fill-opacity="0.8"/>
<path fill-rule="evenodd" clip-rule="evenodd" d="M232.719 227.874C232.719 227.337 233.154 226.903 233.69 226.903H236.774C237.31 226.903 237.745 227.337 237.745 227.874C237.745 228.41 237.31 228.844 236.774 228.844H233.69C233.154 228.844 232.719 228.41 232.719 227.874Z" fill="#5A8228"/>
<path fill-rule="evenodd" clip-rule="evenodd" d="M232.719 227.874C232.719 227.337 233.154 226.903 233.69 226.903H236.774C237.31 226.903 237.745 227.337 237.745 227.874C237.745 228.41 237.31 228.844 236.774 228.844H233.69C233.154 228.844 232.719 228.41 232.719 227.874Z" fill="#F6F8F9" fill-opacity="0.15"/>
<path fill-rule="evenodd" clip-rule="evenodd" d="M232.719 231.986C232.719 231.449 233.154 231.015 233.69 231.015H236.774C237.31 231.015 237.745 231.449 237.745 231.986C237.745 232.522 237.31 232.957 236.774 232.957H233.69C233.154 232.957 232.719 232.522 232.719 231.986Z" fill="#5A8228"/>
<path fill-rule="evenodd" clip-rule="evenodd" d="M232.719 231.986C232.719 231.449 233.154 231.015 233.69 231.015H236.774C237.31 231.015 237.745 231.449 237.745 231.986C237.745 232.522 237.31 232.957 236.774 232.957H233.69C233.154 232.957 232.719 232.522 232.719 231.986Z" fill="#F6F8F9" fill-opacity="0.8"/>
<path fill-rule="evenodd" clip-rule="evenodd" d="M232.719 236.098C232.719 235.562 233.154 235.127 233.69 235.127H236.774C237.31 235.127 237.745 235.562 237.745 236.098C237.745 236.634 237.31 237.069 236.774 237.069H233.69C233.154 237.069 232.719 236.634 232.719 236.098Z" fill="#5A8228"/>
<path fill-rule="evenodd" clip-rule="evenodd" d="M232.719 236.098C232.719 235.562 233.154 235.127 233.69 235.127H236.774C237.31 235.127 237.745 235.562 237.745 236.098C237.745 236.634 237.31 237.069 236.774 237.069H233.69C233.154 237.069 232.719 236.634 232.719 236.098Z" fill="#F6F8F9" fill-opacity="0.8"/>
<path fill-rule="evenodd" clip-rule="evenodd" d="M232.719 240.21C232.719 239.674 233.154 239.239 233.69 239.239H236.774C237.31 239.239 237.745 239.674 237.745 240.21C237.745 240.746 237.31 241.181 236.774 241.181H233.69C233.154 241.181 232.719 240.746 232.719 240.21Z" fill="#5A8228"/>
<path fill-rule="evenodd" clip-rule="evenodd" d="M232.719 240.21C232.719 239.674 233.154 239.239 233.69 239.239H236.774C237.31 239.239 237.745 239.674 237.745 240.21C237.745 240.746 237.31 241.181 236.774 241.181H233.69C233.154 241.181 232.719 240.746 232.719 240.21Z" fill="#F6F8F9" fill-opacity="0.8"/>
<path fill-rule="evenodd" clip-rule="evenodd" d="M232.719 244.322C232.719 243.786 233.154 243.351 233.69 243.351H236.774C237.31 243.351 237.745 243.786 237.745 244.322C237.745 244.858 237.31 245.293 236.774 245.293H233.69C233.154 245.293 232.719 244.858 232.719 244.322Z" fill="#5A8228"/>
<path fill-rule="evenodd" clip-rule="evenodd" d="M232.719 244.322C232.719 243.786 233.154 243.351 233.69 243.351H236.774C237.31 243.351 237.745 243.786 237.745 244.322C237.745 244.858 237.31 245.293 236.774 245.293H233.69C233.154 245.293 232.719 244.858 232.719 244.322Z" fill="#F6F8F9" fill-opacity="0.8"/>
<path fill-rule="evenodd" clip-rule="evenodd" d="M232.719 248.434C232.719 247.898 233.154 247.463 233.69 247.463H236.774C237.31 247.463 237.745 247.898 237.745 248.434C237.745 248.97 237.31 249.405 236.774 249.405H233.69C233.154 249.405 232.719 248.97 232.719 248.434Z" fill="#5A8228"/>
<path fill-rule="evenodd" clip-rule="evenodd" d="M232.719 248.434C232.719 247.898 233.154 247.463 233.69 247.463H236.774C237.31 247.463 237.745 247.898 237.745 248.434C237.745 248.97 237.31 249.405 236.774 249.405H233.69C233.154 249.405 232.719 248.97 232.719 248.434Z" fill="#F6F8F9" fill-opacity="0.8"/>
</g>
<g filter="url(#filter7_d_2178_9625)">
<rect x="190.12" y="230.099" width="21.2125" height="28.5578" rx="3.77101" fill="#F6F8F9" fill-opacity="0.975"/>
<rect x="190.12" y="230.099" width="21.2125" height="28.5578" rx="3.77101" stroke="#3677CC" stroke-width="0.82348"/>
<rect x="190.12" y="230.099" width="21.2125" height="28.5578" rx="3.77101" stroke="#F6F8F9" stroke-opacity="0.8" stroke-width="0.82348"/>
<path fill-rule="evenodd" clip-rule="evenodd" d="M192.973 234.992C192.973 234.542 193.339 234.176 193.789 234.176H207.612C208.063 234.176 208.428 234.542 208.428 234.992C208.428 235.443 208.063 235.809 207.612 235.809H193.789C193.339 235.809 192.973 235.443 192.973 234.992ZM192.973 237.441C192.973 236.99 193.339 236.625 193.789 236.625H207.612C208.063 236.625 208.428 236.99 208.428 237.441C208.428 237.892 208.063 238.257 207.612 238.257H193.789C193.339 238.257 192.973 237.892 192.973 237.441ZM192.973 239.889C192.973 239.439 193.339 239.073 193.789 239.073H207.612C208.063 239.073 208.428 239.439 208.428 239.889C208.428 240.34 208.063 240.706 207.612 240.706H193.789C193.339 240.706 192.973 240.34 192.973 239.889ZM192.973 242.338C192.973 241.887 193.339 241.522 193.789 241.522H200.267C200.717 241.522 201.083 241.887 201.083 242.338C201.083 242.789 200.717 243.154 200.267 243.154H193.789C193.339 243.154 192.973 242.789 192.973 242.338Z" fill="#6A6AF4"/>
<path fill-rule="evenodd" clip-rule="evenodd" d="M192.973 234.992C192.973 234.542 193.339 234.176 193.789 234.176H207.612C208.063 234.176 208.428 234.542 208.428 234.992C208.428 235.443 208.063 235.809 207.612 235.809H193.789C193.339 235.809 192.973 235.443 192.973 234.992ZM192.973 237.441C192.973 236.99 193.339 236.625 193.789 236.625H207.612C208.063 236.625 208.428 236.99 208.428 237.441C208.428 237.892 208.063 238.257 207.612 238.257H193.789C193.339 238.257 192.973 237.892 192.973 237.441ZM192.973 239.889C192.973 239.439 193.339 239.073 193.789 239.073H207.612C208.063 239.073 208.428 239.439 208.428 239.889C208.428 240.34 208.063 240.706 207.612 240.706H193.789C193.339 240.706 192.973 240.34 192.973 239.889ZM192.973 242.338C192.973 241.887 193.339 241.522 193.789 241.522H200.267C200.717 241.522 201.083 241.887 201.083 242.338C201.083 242.789 200.717 243.154 200.267 243.154H193.789C193.339 243.154 192.973 242.789 192.973 242.338Z" fill="white" fill-opacity="0.65"/>
<path fill-rule="evenodd" clip-rule="evenodd" d="M192.973 234.992C192.973 234.542 193.339 234.176 193.789 234.176H207.612C208.063 234.176 208.428 234.542 208.428 234.992C208.428 235.443 208.063 235.809 207.612 235.809H193.789C193.339 235.809 192.973 235.443 192.973 234.992ZM192.973 237.441C192.973 236.99 193.339 236.625 193.789 236.625H207.612C208.063 236.625 208.428 236.99 208.428 237.441C208.428 237.892 208.063 238.257 207.612 238.257H193.789C193.339 238.257 192.973 237.892 192.973 237.441ZM192.973 239.889C192.973 239.439 193.339 239.073 193.789 239.073H207.612C208.063 239.073 208.428 239.439 208.428 239.889C208.428 240.34 208.063 240.706 207.612 240.706H193.789C193.339 240.706 192.973 240.34 192.973 239.889ZM192.973 242.338C192.973 241.887 193.339 241.522 193.789 241.522H200.267C200.717 241.522 201.083 241.887 201.083 242.338C201.083 242.789 200.717 243.154 200.267 243.154H193.789C193.339 243.154 192.973 242.789 192.973 242.338Z" fill="#3677CC"/>
<path fill-rule="evenodd" clip-rule="evenodd" d="M192.973 234.992C192.973 234.542 193.339 234.176 193.789 234.176H207.612C208.063 234.176 208.428 234.542 208.428 234.992C208.428 235.443 208.063 235.809 207.612 235.809H193.789C193.339 235.809 192.973 235.443 192.973 234.992ZM192.973 237.441C192.973 236.99 193.339 236.625 193.789 236.625H207.612C208.063 236.625 208.428 236.99 208.428 237.441C208.428 237.892 208.063 238.257 207.612 238.257H193.789C193.339 238.257 192.973 237.892 192.973 237.441ZM192.973 239.889C192.973 239.439 193.339 239.073 193.789 239.073H207.612C208.063 239.073 208.428 239.439 208.428 239.889C208.428 240.34 208.063 240.706 207.612 240.706H193.789C193.339 240.706 192.973 240.34 192.973 239.889ZM192.973 242.338C192.973 241.887 193.339 241.522 193.789 241.522H200.267C200.717 241.522 201.083 241.887 201.083 242.338C201.083 242.789 200.717 243.154 200.267 243.154H193.789C193.339 243.154 192.973 242.789 192.973 242.338Z" fill="#F6F8F9" fill-opacity="0.8"/>
</g>
<g filter="url(#filter8_d_2178_9625)">
<rect x="202.84" y="240.546" width="29.4636" height="23.8199" rx="4.95723" fill="#6D778C"/>
<rect x="202.84" y="240.546" width="29.4636" height="23.8199" rx="4.95723" fill="#F6F8F9" fill-opacity="0.975"/>
<rect x="202.84" y="240.546" width="29.4636" height="23.8199" rx="4.95723" stroke="#6D778C" stroke-width="1.01234"/>
<rect x="202.84" y="240.546" width="29.4636" height="23.8199" rx="4.95723" stroke="#F6F8F9" stroke-opacity="0.8" stroke-width="1.01234"/>
<path fill-rule="evenodd" clip-rule="evenodd" d="M214.004 244.542C214.529 244.542 214.955 244.969 214.955 245.493V259.395C214.954 259.919 214.529 260.345 214.004 260.345C213.48 260.345 213.053 259.92 213.053 259.395V245.493C213.053 244.968 213.479 244.542 214.004 244.542ZM221.014 246.681C221.539 246.681 221.964 247.107 221.964 247.632V257.256C221.964 257.781 221.539 258.206 221.014 258.206C220.489 258.206 220.064 257.781 220.064 257.256V247.632C220.064 247.107 220.489 246.681 221.014 246.681ZM217.509 248.82C218.034 248.82 218.459 249.246 218.459 249.771V255.117C218.459 255.642 218.034 256.068 217.509 256.068C216.984 256.068 216.558 255.642 216.558 255.117V249.771C216.558 249.246 216.984 248.82 217.509 248.82ZM210.499 249.889C211.023 249.889 211.45 250.315 211.45 250.84V254.048C211.449 254.573 211.023 254.998 210.499 254.998C209.974 254.998 209.549 254.573 209.548 254.048V250.84C209.548 250.315 209.974 249.889 210.499 249.889ZM224.519 250.958C225.044 250.958 225.47 251.384 225.47 251.909V252.979C225.47 253.504 225.044 253.929 224.519 253.929C223.994 253.929 223.569 253.503 223.569 252.979V251.909C223.569 251.385 223.994 250.958 224.519 250.958Z" fill="#E32C39"/>
<path fill-rule="evenodd" clip-rule="evenodd" d="M214.004 244.542C214.529 244.542 214.955 244.969 214.955 245.493V259.395C214.954 259.919 214.529 260.345 214.004 260.345C213.48 260.345 213.053 259.92 213.053 259.395V245.493C213.053 244.968 213.479 244.542 214.004 244.542ZM221.014 246.681C221.539 246.681 221.964 247.107 221.964 247.632V257.256C221.964 257.781 221.539 258.206 221.014 258.206C220.489 258.206 220.064 257.781 220.064 257.256V247.632C220.064 247.107 220.489 246.681 221.014 246.681ZM217.509 248.82C218.034 248.82 218.459 249.246 218.459 249.771V255.117C218.459 255.642 218.034 256.068 217.509 256.068C216.984 256.068 216.558 255.642 216.558 255.117V249.771C216.558 249.246 216.984 248.82 217.509 248.82ZM210.499 249.889C211.023 249.889 211.45 250.315 211.45 250.84V254.048C211.449 254.573 211.023 254.998 210.499 254.998C209.974 254.998 209.549 254.573 209.548 254.048V250.84C209.548 250.315 209.974 249.889 210.499 249.889ZM224.519 250.958C225.044 250.958 225.47 251.384 225.47 251.909V252.979C225.47 253.504 225.044 253.929 224.519 253.929C223.994 253.929 223.569 253.503 223.569 252.979V251.909C223.569 251.385 223.994 250.958 224.519 250.958Z" fill="#F6F8F9" fill-opacity="0.45"/>
</g>
<rect x="48.7546" y="92.0676" width="16.6942" height="22.5208" rx="2.1968" transform="rotate(1.207 48.7546 92.0676)" fill="#3E5DE7"/>
<rect x="48.7546" y="92.0676" width="16.6942" height="22.5208" rx="2.1968" transform="rotate(1.207 48.7546 92.0676)" fill="#F6F8F9" fill-opacity="0.975"/>
<rect x="48.7546" y="92.0676" width="16.6942" height="22.5208" rx="2.1968" transform="rotate(1.207 48.7546 92.0676)" stroke="#3E5DE7" stroke-width="0.785609"/>
<rect x="48.7546" y="92.0676" width="16.6942" height="22.5208" rx="2.1968" transform="rotate(1.207 48.7546 92.0676)" stroke="#F6F8F9" stroke-opacity="0.65" stroke-width="0.785609"/>
<path fill-rule="evenodd" clip-rule="evenodd" d="M50.8684 97.0099C50.876 96.6525 51.1719 96.3688 51.5293 96.3763L57.3546 96.499C57.7121 96.5066 57.9958 96.8025 57.9883 97.1599C57.9807 97.5174 57.6848 97.8011 57.3274 97.7936L51.5021 97.6708C51.1446 97.6633 50.8609 97.3674 50.8684 97.0099Z" fill="#3E5DE7"/>
<path fill-rule="evenodd" clip-rule="evenodd" d="M50.8684 97.0099C50.876 96.6525 51.1719 96.3688 51.5293 96.3763L57.3546 96.499C57.7121 96.5066 57.9958 96.8025 57.9883 97.1599C57.9807 97.5174 57.6848 97.8011 57.3274 97.7936L51.5021 97.6708C51.1446 97.6633 50.8609 97.3674 50.8684 97.0099Z" fill="#F6F8F9" fill-opacity="0.45"/>
<path fill-rule="evenodd" clip-rule="evenodd" d="M50.8221 99.1991C50.8296 98.8417 51.1255 98.558 51.4829 98.5655L62.4452 98.7965C62.8027 98.804 63.0864 99.0999 63.0788 99.4574C63.0713 99.8148 62.7754 100.099 62.418 100.091L51.4557 99.86C51.0982 99.8525 50.8145 99.5566 50.8221 99.1991ZM50.7811 101.141C50.7887 100.783 51.0846 100.5 51.442 100.507L62.4043 100.738C62.7618 100.746 63.0455 101.042 63.0379 101.399C63.0304 101.757 62.7345 102.04 62.377 102.033L51.4148 101.802C51.0573 101.794 50.7736 101.498 50.7811 101.141ZM50.7402 103.083C50.7478 102.725 51.0437 102.442 51.4011 102.449L62.3634 102.68C62.7209 102.688 63.0046 102.983 62.997 103.341C62.9895 103.698 62.6936 103.982 62.3361 103.975L51.3739 103.744C51.0164 103.736 50.7327 103.44 50.7402 103.083ZM50.6993 105.024C50.7069 104.667 51.0027 104.383 51.3602 104.391L62.3225 104.622C62.68 104.629 62.9636 104.925 62.9561 105.283C62.9486 105.64 62.6527 105.924 62.2952 105.916L51.3329 105.685C50.9755 105.678 50.6918 105.382 50.6993 105.024Z" fill="#3E5DE7"/>
<path fill-rule="evenodd" clip-rule="evenodd" d="M50.8221 99.1991C50.8296 98.8417 51.1255 98.558 51.4829 98.5655L62.4452 98.7965C62.8027 98.804 63.0864 99.0999 63.0788 99.4574C63.0713 99.8148 62.7754 100.099 62.418 100.091L51.4557 99.86C51.0982 99.8525 50.8145 99.5566 50.8221 99.1991ZM50.7811 101.141C50.7887 100.783 51.0846 100.5 51.442 100.507L62.4043 100.738C62.7618 100.746 63.0455 101.042 63.0379 101.399C63.0304 101.757 62.7345 102.04 62.377 102.033L51.4148 101.802C51.0573 101.794 50.7736 101.498 50.7811 101.141ZM50.7402 103.083C50.7478 102.725 51.0437 102.442 51.4011 102.449L62.3634 102.68C62.7209 102.688 63.0046 102.983 62.997 103.341C62.9895 103.698 62.6936 103.982 62.3361 103.975L51.3739 103.744C51.0164 103.736 50.7327 103.44 50.7402 103.083ZM50.6993 105.024C50.7069 104.667 51.0027 104.383 51.3602 104.391L62.3225 104.622C62.68 104.629 62.9636 104.925 62.9561 105.283C62.9486 105.64 62.6527 105.924 62.2952 105.916L51.3329 105.685C50.9755 105.678 50.6918 105.382 50.6993 105.024Z" fill="#F6F8F9" fill-opacity="0.65"/>
<path fill-rule="evenodd" clip-rule="evenodd" d="M50.6579 106.989C50.6655 106.632 50.9614 106.348 51.3188 106.355L62.2811 106.586C62.6386 106.594 62.9222 106.89 62.9147 107.247C62.9072 107.605 62.6113 107.888 62.2538 107.881L51.2915 107.65C50.9341 107.642 50.6504 107.347 50.6579 106.989ZM50.617 108.931C50.6245 108.573 50.9204 108.29 51.2779 108.297L62.2402 108.528C62.5977 108.536 62.8813 108.832 62.8738 109.189C62.8663 109.547 62.5704 109.83 62.2129 109.823L51.2506 109.592C50.8932 109.584 50.6095 109.288 50.617 108.931ZM50.5761 110.873C50.5836 110.515 50.8795 110.231 51.237 110.239L62.1993 110.47C62.5567 110.478 62.8404 110.773 62.8329 111.131C62.8254 111.488 62.5295 111.772 62.172 111.765L51.2097 111.534C50.8523 111.526 50.5686 111.23 50.5761 110.873ZM50.5352 112.814C50.5427 112.457 50.8386 112.173 51.1961 112.181L62.1584 112.412C62.5158 112.419 62.7995 112.715 62.792 113.073C62.7845 113.43 62.4886 113.714 62.1311 113.706L51.1688 113.475C50.8113 113.468 50.5277 113.172 50.5352 112.814Z" fill="#3E5DE7"/>
<path fill-rule="evenodd" clip-rule="evenodd" d="M50.6579 106.989C50.6655 106.632 50.9614 106.348 51.3188 106.355L62.2811 106.586C62.6386 106.594 62.9222 106.89 62.9147 107.247C62.9072 107.605 62.6113 107.888 62.2538 107.881L51.2915 107.65C50.9341 107.642 50.6504 107.347 50.6579 106.989ZM50.617 108.931C50.6245 108.573 50.9204 108.29 51.2779 108.297L62.2402 108.528C62.5977 108.536 62.8813 108.832 62.8738 109.189C62.8663 109.547 62.5704 109.83 62.2129 109.823L51.2506 109.592C50.8932 109.584 50.6095 109.288 50.617 108.931ZM50.5761 110.873C50.5836 110.515 50.8795 110.231 51.237 110.239L62.1993 110.47C62.5567 110.478 62.8404 110.773 62.8329 111.131C62.8254 111.488 62.5295 111.772 62.172 111.765L51.2097 111.534C50.8523 111.526 50.5686 111.23 50.5761 110.873ZM50.5352 112.814C50.5427 112.457 50.8386 112.173 51.1961 112.181L62.1584 112.412C62.5158 112.419 62.7995 112.715 62.792 113.073C62.7845 113.43 62.4886 113.714 62.1311 113.706L51.1688 113.475C50.8113 113.468 50.5277 113.172 50.5352 112.814Z" fill="#F6F8F9" fill-opacity="0.65"/>
<g filter="url(#filter9_d_2178_9625)">
<g clip-path="url(#clip1_2178_9625)">
<rect x="64.3669" y="96.8028" width="18.675" height="24.9" rx="3.54479" transform="rotate(23.3995 64.3669 96.8028)" fill="#F6F8F9" fill-opacity="0.975"/>
<path fill-rule="evenodd" clip-rule="evenodd" d="M65.3526 100.621C65.5043 100.27 65.9115 100.109 66.2621 100.261L77.6882 105.205C78.0388 105.357 78.2 105.764 78.0483 106.115C77.8966 106.465 77.4894 106.626 77.1388 106.475L65.7127 101.53C65.3621 101.379 65.2009 100.971 65.3526 100.621Z" fill="#6D778C"/>
<path fill-rule="evenodd" clip-rule="evenodd" d="M65.3526 100.621C65.5043 100.27 65.9115 100.109 66.2621 100.261L77.6882 105.205C78.0388 105.357 78.2 105.764 78.0483 106.115C77.8966 106.465 77.4894 106.626 77.1388 106.475L65.7127 101.53C65.3621 101.379 65.2009 100.971 65.3526 100.621Z" fill="#F6F8F9" fill-opacity="0.8"/>
<path fill-rule="evenodd" clip-rule="evenodd" d="M64.4256 102.763C64.5773 102.413 64.9844 102.251 65.335 102.403L76.7611 107.347C77.1117 107.499 77.2729 107.906 77.1212 108.257C76.9695 108.607 76.5623 108.769 76.2117 108.617L64.7857 103.673C64.4351 103.521 64.2739 103.114 64.4256 102.763Z" fill="#6D778C"/>
<path fill-rule="evenodd" clip-rule="evenodd" d="M64.4256 102.763C64.5773 102.413 64.9844 102.251 65.335 102.403L76.7611 107.347C77.1117 107.499 77.2729 107.906 77.1212 108.257C76.9695 108.607 76.5623 108.769 76.2117 108.617L64.7857 103.673C64.4351 103.521 64.2739 103.114 64.4256 102.763Z" fill="#F6F8F9" fill-opacity="0.8"/>
<path fill-rule="evenodd" clip-rule="evenodd" d="M63.4985 104.906C63.6502 104.555 64.0574 104.394 64.408 104.545L75.834 109.49C76.1846 109.642 76.3459 110.049 76.1941 110.399C76.0424 110.75 75.6353 110.911 75.2847 110.759L63.8586 105.815C63.508 105.663 63.3468 105.256 63.4985 104.906Z" fill="#6D778C"/>
<path fill-rule="evenodd" clip-rule="evenodd" d="M63.4985 104.906C63.6502 104.555 64.0574 104.394 64.408 104.545L75.834 109.49C76.1846 109.642 76.3459 110.049 76.1941 110.399C76.0424 110.75 75.6353 110.911 75.2847 110.759L63.8586 105.815C63.508 105.663 63.3468 105.256 63.4985 104.906Z" fill="#F6F8F9" fill-opacity="0.8"/>
<path fill-rule="evenodd" clip-rule="evenodd" d="M62.5714 107.048C62.7231 106.697 63.1303 106.536 63.4809 106.688L74.907 111.632C75.2576 111.784 75.4188 112.191 75.2671 112.542C75.1154 112.892 74.7082 113.053 74.3576 112.902L62.9315 107.957C62.5809 107.806 62.4197 107.399 62.5714 107.048Z" fill="#6D778C"/>
<path fill-rule="evenodd" clip-rule="evenodd" d="M62.5714 107.048C62.7231 106.697 63.1303 106.536 63.4809 106.688L74.907 111.632C75.2576 111.784 75.4188 112.191 75.2671 112.542C75.1154 112.892 74.7082 113.053 74.3576 112.902L62.9315 107.957C62.5809 107.806 62.4197 107.399 62.5714 107.048Z" fill="#F6F8F9" fill-opacity="0.8"/>
<path fill-rule="evenodd" clip-rule="evenodd" d="M61.6443 109.19C61.796 108.84 62.2032 108.679 62.5538 108.83L73.9799 113.775C74.3305 113.926 74.4917 114.334 74.34 114.684C74.1883 115.035 73.7811 115.196 73.4305 115.044L62.0044 110.1C61.6539 109.948 61.4926 109.541 61.6443 109.19Z" fill="#6D778C"/>
<path fill-rule="evenodd" clip-rule="evenodd" d="M61.6443 109.19C61.796 108.84 62.2032 108.679 62.5538 108.83L73.9799 113.775C74.3305 113.926 74.4917 114.334 74.34 114.684C74.1883 115.035 73.7811 115.196 73.4305 115.044L62.0044 110.1C61.6539 109.948 61.4926 109.541 61.6443 109.19Z" fill="#F6F8F9" fill-opacity="0.8"/>
<path fill-rule="evenodd" clip-rule="evenodd" d="M60.7173 111.333C60.869 110.982 61.2762 110.821 61.6267 110.973L73.0528 115.917C73.4034 116.069 73.5646 116.476 73.4129 116.826C73.2612 117.177 72.854 117.338 72.5035 117.187L61.0774 112.242C60.7268 112.09 60.5656 111.683 60.7173 111.333Z" fill="#6D778C"/>
<path fill-rule="evenodd" clip-rule="evenodd" d="M60.7173 111.333C60.869 110.982 61.2762 110.821 61.6267 110.973L73.0528 115.917C73.4034 116.069 73.5646 116.476 73.4129 116.826C73.2612 117.177 72.854 117.338 72.5035 117.187L61.0774 112.242C60.7268 112.09 60.5656 111.683 60.7173 111.333Z" fill="#F6F8F9" fill-opacity="0.8"/>
<path fill-rule="evenodd" clip-rule="evenodd" d="M59.7902 113.475C59.9419 113.125 60.3491 112.963 60.6997 113.115L72.1258 118.059C72.4763 118.211 72.6376 118.618 72.4858 118.969C72.3341 119.319 71.927 119.481 71.5764 119.329L60.1503 114.385C59.7997 114.233 59.6385 113.826 59.7902 113.475Z" fill="#6D778C"/>
<path fill-rule="evenodd" clip-rule="evenodd" d="M59.7902 113.475C59.9419 113.125 60.3491 112.963 60.6997 113.115L72.1258 118.059C72.4763 118.211 72.6376 118.618 72.4858 118.969C72.3341 119.319 71.927 119.481 71.5764 119.329L60.1503 114.385C59.7997 114.233 59.6385 113.826 59.7902 113.475Z" fill="#F6F8F9" fill-opacity="0.8"/>
<path fill-rule="evenodd" clip-rule="evenodd" d="M58.8631 115.617C59.0148 115.267 59.422 115.106 59.7726 115.257L71.1987 120.202C71.5493 120.353 71.7105 120.761 71.5588 121.111C71.4071 121.462 70.9999 121.623 70.6493 121.471L59.2232 116.527C58.8726 116.375 58.7114 115.968 58.8631 115.617Z" fill="#6D778C"/>
<path fill-rule="evenodd" clip-rule="evenodd" d="M58.8631 115.617C59.0148 115.267 59.422 115.106 59.7726 115.257L71.1987 120.202C71.5493 120.353 71.7105 120.761 71.5588 121.111C71.4071 121.462 70.9999 121.623 70.6493 121.471L59.2232 116.527C58.8726 116.375 58.7114 115.968 58.8631 115.617Z" fill="#F6F8F9" fill-opacity="0.8"/>
<path fill-rule="evenodd" clip-rule="evenodd" d="M57.936 117.76C58.0878 117.409 58.4949 117.248 58.8455 117.4L70.2716 122.344C70.6222 122.496 70.7834 122.903 70.6317 123.254C70.48 123.604 70.0728 123.765 69.7222 123.614L58.2961 118.669C57.9456 118.518 57.7843 118.11 57.936 117.76Z" fill="#6D778C"/>
<path fill-rule="evenodd" clip-rule="evenodd" d="M57.936 117.76C58.0878 117.409 58.4949 117.248 58.8455 117.4L70.2716 122.344C70.6222 122.496 70.7834 122.903 70.6317 123.254C70.48 123.604 70.0728 123.765 69.7222 123.614L58.2961 118.669C57.9456 118.518 57.7843 118.11 57.936 117.76Z" fill="#F6F8F9" fill-opacity="0.8"/>
</g>
<rect x="64.5486" y="97.2616" width="17.9771" height="24.2021" rx="3.19585" transform="rotate(23.3995 64.5486 97.2616)" stroke="#6D778C" stroke-width="0.697881"/>
<rect x="64.5486" y="97.2616" width="17.9771" height="24.2021" rx="3.19585" transform="rotate(23.3995 64.5486 97.2616)" stroke="#F6F8F9" stroke-opacity="0.8" stroke-width="0.697881"/>
</g>
<g filter="url(#filter10_d_2178_9625)">
<g clip-path="url(#clip2_2178_9625)">
<rect x="27.5979" y="101.815" width="21.0094" height="17.1188" rx="3.76634" transform="rotate(-24.1276 27.5979 101.815)" fill="#F6F8F9" fill-opacity="0.975"/>
<path fill-rule="evenodd" clip-rule="evenodd" d="M32.0683 104.076C31.9024 103.706 32.0682 103.271 32.4386 103.105L38.1198 100.56C38.4902 100.394 38.925 100.56 39.0909 100.931C39.2568 101.301 39.091 101.736 38.7206 101.902L33.0394 104.446C32.669 104.612 32.2343 104.447 32.0683 104.076Z" fill="#AE6257"/>
<path fill-rule="evenodd" clip-rule="evenodd" d="M32.0683 104.076C31.9024 103.706 32.0682 103.271 32.4386 103.105L38.1198 100.56C38.4902 100.394 38.925 100.56 39.0909 100.931C39.2568 101.301 39.091 101.736 38.7206 101.902L33.0394 104.446C32.669 104.612 32.2343 104.447 32.0683 104.076Z" fill="#F6F8F9" fill-opacity="0.15"/>
<path fill-rule="evenodd" clip-rule="evenodd" d="M33.3406 106.917C33.1747 106.546 33.3404 106.111 33.7109 105.946L45.7833 100.538C46.1537 100.372 46.5885 100.538 46.7544 100.909C46.9203 101.279 46.7546 101.714 46.3841 101.88L34.3117 107.287C33.9412 107.453 33.5065 107.287 33.3406 106.917Z" fill="#AE6257"/>
<path fill-rule="evenodd" clip-rule="evenodd" d="M33.3406 106.917C33.1747 106.546 33.3404 106.111 33.7109 105.946L45.7833 100.538C46.1537 100.372 46.5885 100.538 46.7544 100.909C46.9203 101.279 46.7546 101.714 46.3841 101.88L34.3117 107.287C33.9412 107.453 33.5065 107.287 33.3406 106.917Z" fill="#F6F8F9" fill-opacity="0.8"/>
</g>
<rect x="28.059" y="101.991" width="20.3115" height="16.4209" rx="3.4174" transform="rotate(-24.1276 28.059 101.991)" stroke="#AE6257" stroke-width="0.697881"/>
<rect x="28.059" y="101.991" width="20.3115" height="16.4209" rx="3.4174" transform="rotate(-24.1276 28.059 101.991)" stroke="#F6F8F9" stroke-opacity="0.8" stroke-width="0.697881"/>
</g>
<g filter="url(#filter11_d_2178_9625)">
<rect x="37.6493" y="103.98" width="17.9771" height="24.2021" rx="3.19585" transform="rotate(-12.6566 37.6493 103.98)" fill="#F6F8F9" fill-opacity="0.975"/>
<rect x="37.6493" y="103.98" width="17.9771" height="24.2021" rx="3.19585" transform="rotate(-12.6566 37.6493 103.98)" stroke="#3677CC" stroke-width="0.697881"/>
<rect x="37.6493" y="103.98" width="17.9771" height="24.2021" rx="3.19585" transform="rotate(-12.6566 37.6493 103.98)" stroke="#F6F8F9" stroke-opacity="0.8" stroke-width="0.697881"/>
<path fill-rule="evenodd" clip-rule="evenodd" d="M40.9175 107.496C40.8338 107.123 41.0681 106.753 41.4409 106.669L52.8706 104.103C53.2433 104.019 53.6133 104.253 53.697 104.626C53.7807 104.999 53.5464 105.369 53.1737 105.452L41.744 108.019C41.3712 108.103 41.0012 107.869 40.9175 107.496ZM41.3722 109.52C41.2885 109.148 41.5228 108.778 41.8955 108.694L53.3253 106.127C53.698 106.044 54.068 106.278 54.1517 106.651C54.2354 107.023 54.0011 107.393 53.6284 107.477L42.1986 110.044C41.8259 110.127 41.4559 109.893 41.3722 109.52ZM41.8268 111.545C41.7431 111.172 41.9774 110.802 42.3501 110.719L53.7799 108.152C54.1526 108.068 54.5226 108.302 54.6063 108.675C54.69 109.048 54.4557 109.418 54.083 109.502L42.6532 112.068C42.2805 112.152 41.9105 111.918 41.8268 111.545ZM42.2815 113.57C42.1978 113.197 42.4321 112.827 42.8048 112.743L48.1608 111.54C48.5336 111.457 48.9035 111.691 48.9872 112.064C49.0709 112.436 48.8367 112.806 48.4639 112.89L43.1079 114.093C42.7352 114.177 42.3652 113.942 42.2815 113.57Z" fill="#6A6AF4"/>
<path fill-rule="evenodd" clip-rule="evenodd" d="M40.9175 107.496C40.8338 107.123 41.0681 106.753 41.4409 106.669L52.8706 104.103C53.2433 104.019 53.6133 104.253 53.697 104.626C53.7807 104.999 53.5464 105.369 53.1737 105.452L41.744 108.019C41.3712 108.103 41.0012 107.869 40.9175 107.496ZM41.3722 109.52C41.2885 109.148 41.5228 108.778 41.8955 108.694L53.3253 106.127C53.698 106.044 54.068 106.278 54.1517 106.651C54.2354 107.023 54.0011 107.393 53.6284 107.477L42.1986 110.044C41.8259 110.127 41.4559 109.893 41.3722 109.52ZM41.8268 111.545C41.7431 111.172 41.9774 110.802 42.3501 110.719L53.7799 108.152C54.1526 108.068 54.5226 108.302 54.6063 108.675C54.69 109.048 54.4557 109.418 54.083 109.502L42.6532 112.068C42.2805 112.152 41.9105 111.918 41.8268 111.545ZM42.2815 113.57C42.1978 113.197 42.4321 112.827 42.8048 112.743L48.1608 111.54C48.5336 111.457 48.9035 111.691 48.9872 112.064C49.0709 112.436 48.8367 112.806 48.4639 112.89L43.1079 114.093C42.7352 114.177 42.3652 113.942 42.2815 113.57Z" fill="white" fill-opacity="0.65"/>
<path fill-rule="evenodd" clip-rule="evenodd" d="M40.9175 107.496C40.8338 107.123 41.0681 106.753 41.4409 106.669L52.8706 104.103C53.2433 104.019 53.6133 104.253 53.697 104.626C53.7807 104.999 53.5464 105.369 53.1737 105.452L41.744 108.019C41.3712 108.103 41.0012 107.869 40.9175 107.496ZM41.3722 109.52C41.2885 109.148 41.5228 108.778 41.8955 108.694L53.3253 106.127C53.698 106.044 54.068 106.278 54.1517 106.651C54.2354 107.023 54.0011 107.393 53.6284 107.477L42.1986 110.044C41.8259 110.127 41.4559 109.893 41.3722 109.52ZM41.8268 111.545C41.7431 111.172 41.9774 110.802 42.3501 110.719L53.7799 108.152C54.1526 108.068 54.5226 108.302 54.6063 108.675C54.69 109.048 54.4557 109.418 54.083 109.502L42.6532 112.068C42.2805 112.152 41.9105 111.918 41.8268 111.545ZM42.2815 113.57C42.1978 113.197 42.4321 112.827 42.8048 112.743L48.1608 111.54C48.5336 111.457 48.9035 111.691 48.9872 112.064C49.0709 112.436 48.8367 112.806 48.4639 112.89L43.1079 114.093C42.7352 114.177 42.3652 113.942 42.2815 113.57Z" fill="#3677CC"/>
<path fill-rule="evenodd" clip-rule="evenodd" d="M40.9175 107.496C40.8338 107.123 41.0681 106.753 41.4409 106.669L52.8706 104.103C53.2433 104.019 53.6133 104.253 53.697 104.626C53.7807 104.999 53.5464 105.369 53.1737 105.452L41.744 108.019C41.3712 108.103 41.0012 107.869 40.9175 107.496ZM41.3722 109.52C41.2885 109.148 41.5228 108.778 41.8955 108.694L53.3253 106.127C53.698 106.044 54.068 106.278 54.1517 106.651C54.2354 107.023 54.0011 107.393 53.6284 107.477L42.1986 110.044C41.8259 110.127 41.4559 109.893 41.3722 109.52ZM41.8268 111.545C41.7431 111.172 41.9774 110.802 42.3501 110.719L53.7799 108.152C54.1526 108.068 54.5226 108.302 54.6063 108.675C54.69 109.048 54.4557 109.418 54.083 109.502L42.6532 112.068C42.2805 112.152 41.9105 111.918 41.8268 111.545ZM42.2815 113.57C42.1978 113.197 42.4321 112.827 42.8048 112.743L48.1608 111.54C48.5336 111.457 48.9035 111.691 48.9872 112.064C49.0709 112.436 48.8367 112.806 48.4639 112.89L43.1079 114.093C42.7352 114.177 42.3652 113.942 42.2815 113.57Z" fill="#F6F8F9" fill-opacity="0.8"/>
</g>
<g filter="url(#filter12_d_2178_9625)">
<rect x="28.6802" y="108.579" width="21.9863" height="17.7748" rx="3.69918" transform="rotate(13.6364 28.6802 108.579)" fill="#6D778C"/>
<rect x="28.6802" y="108.579" width="21.9863" height="17.7748" rx="3.69918" transform="rotate(13.6364 28.6802 108.579)" fill="#F6F8F9" fill-opacity="0.975"/>
<rect x="28.6802" y="108.579" width="21.9863" height="17.7748" rx="3.69918" transform="rotate(13.6364 28.6802 108.579)" stroke="#6D778C" stroke-width="0.755424"/>
<rect x="28.6802" y="108.579" width="21.9863" height="17.7748" rx="3.69918" transform="rotate(13.6364 28.6802 108.579)" stroke="#F6F8F9" stroke-opacity="0.8" stroke-width="0.755424"/>
<path d="M33.8326 116.643C34.1129 116.909 34.4492 117.09 34.8413 117.185C35.2334 117.28 35.612 117.273 35.9771 117.163C36.3436 117.048 36.6629 116.851 36.935 116.572C37.207 116.293 37.3906 115.957 37.4857 115.565C37.5794 115.179 37.5692 114.8 37.4552 114.427C37.3412 114.055 37.1478 113.733 36.8749 113.462C36.602 113.192 36.2695 113.009 35.8774 112.914C35.4853 112.819 35.103 112.828 34.7304 112.942C34.3638 113.058 34.0445 113.255 33.7725 113.534C33.5004 113.813 33.3175 114.145 33.2239 114.531C33.1288 114.923 33.1382 115.306 33.2522 115.678C33.3662 116.051 33.5597 116.372 33.8326 116.643Z" fill="#9B6F02"/>
<path d="M33.8326 116.643C34.1129 116.909 34.4492 117.09 34.8413 117.185C35.2334 117.28 35.612 117.273 35.9771 117.163C36.3436 117.048 36.6629 116.851 36.935 116.572C37.207 116.293 37.3906 115.957 37.4857 115.565C37.5794 115.179 37.5692 114.8 37.4552 114.427C37.3412 114.055 37.1478 113.733 36.8749 113.462C36.602 113.192 36.2695 113.009 35.8774 112.914C35.4853 112.819 35.103 112.828 34.7304 112.942C34.3638 113.058 34.0445 113.255 33.7725 113.534C33.5004 113.813 33.3175 114.145 33.2239 114.531C33.1288 114.923 33.1382 115.306 33.2522 115.678C33.3662 116.051 33.5597 116.372 33.8326 116.643Z" fill="#F6F8F9" fill-opacity="0.15"/>
<path d="M31.1916 119.737C31.7624 119.239 32.0477 118.99 32.3345 118.946C32.5856 118.907 32.8391 118.969 33.0446 119.118C33.2792 119.289 33.4188 119.641 33.6979 120.345L34.7064 122.889C35.1015 123.886 35.2991 124.384 35.2053 124.738C35.1237 125.046 34.9156 125.303 34.6383 125.438C34.3197 125.593 33.8172 125.471 32.8122 125.228L29.7415 124.483C28.7366 124.239 28.2341 124.117 28.0219 123.833C27.8373 123.586 27.77 123.262 27.8387 122.951C27.9176 122.593 28.3216 122.241 29.1295 121.536L31.1916 119.737Z" fill="#5A8228"/>
<path d="M31.1916 119.737C31.7624 119.239 32.0477 118.99 32.3345 118.946C32.5856 118.907 32.8391 118.969 33.0446 119.118C33.2792 119.289 33.4188 119.641 33.6979 120.345L34.7064 122.889C35.1015 123.886 35.2991 124.384 35.2053 124.738C35.1237 125.046 34.9156 125.303 34.6383 125.438C34.3197 125.593 33.8172 125.471 32.8122 125.228L29.7415 124.483C28.7366 124.239 28.2341 124.117 28.0219 123.833C27.8373 123.586 27.77 123.262 27.8387 122.951C27.9176 122.593 28.3216 122.241 29.1295 121.536L31.1916 119.737Z" fill="#F6F8F9" fill-opacity="0.55"/>
<path d="M38.8412 117.697C39.4686 117.06 39.7823 116.741 40.0998 116.683C40.377 116.633 40.6606 116.701 40.8839 116.873C41.1395 117.07 41.2724 117.497 41.5381 118.351L43.6751 125.217C43.966 126.152 44.1115 126.619 44.0026 126.949C43.9077 127.237 43.6976 127.47 43.426 127.59C43.1145 127.727 42.6499 127.614 41.7205 127.389L34.5378 125.646C33.6085 125.421 33.1438 125.308 32.9298 125.043C32.7432 124.813 32.6634 124.509 32.7108 124.21C32.7652 123.867 33.1086 123.518 33.7955 122.82L38.8412 117.697Z" fill="#5A8228"/>
</g>
<path fill-rule="evenodd" clip-rule="evenodd" d="M55.5187 118.319L57.9496 120.952L66.5626 115.021L63.1268 111.299L55.5187 118.319Z" fill="#3E5DE7"/>
<path fill-rule="evenodd" clip-rule="evenodd" d="M55.5187 118.319L57.9496 120.952L66.5626 115.021L63.1268 111.299L55.5187 118.319Z" fill="#F6F8F9" fill-opacity="0.65"/>
<path fill-rule="evenodd" clip-rule="evenodd" d="M58.189 118.893C57.7411 119.306 57.0431 119.278 56.6296 118.83C56.2161 118.382 56.2442 117.684 56.6919 117.271C57.1401 116.858 57.8381 116.886 58.2516 117.334C58.6651 117.781 58.6369 118.479 58.189 118.893Z" fill="#EAF5F7"/>
<path fill-rule="evenodd" clip-rule="evenodd" d="M48.2553 128.989C48.0832 129.574 47.4698 129.908 46.8849 129.736C46.3003 129.564 45.966 128.951 46.1379 128.366C46.3101 127.782 46.9237 127.447 47.5083 127.619C48.093 127.791 48.4275 128.405 48.2553 128.989Z" fill="#EAF5F7"/>
<path fill-rule="evenodd" clip-rule="evenodd" d="M55.7756 125.466L56.6343 128.945L67.041 127.903L65.8274 122.987L55.7756 125.466Z" fill="#3E5DE7"/>
<path fill-rule="evenodd" clip-rule="evenodd" d="M55.7756 125.466L56.6343 128.945L67.041 127.903L65.8274 122.987L55.7756 125.466Z" fill="#F6F8F9" fill-opacity="0.65"/>
<path fill-rule="evenodd" clip-rule="evenodd" d="M55.7756 125.466L56.6343 128.945L67.041 127.903L65.8274 122.987L55.7756 125.466Z" fill="#3E5DE7"/>
<path fill-rule="evenodd" clip-rule="evenodd" d="M55.7756 125.466L56.6343 128.945L67.041 127.903L65.8274 122.987L55.7756 125.466Z" fill="#F6F8F9" fill-opacity="0.65"/>
<path fill-rule="evenodd" clip-rule="evenodd" d="M55.7756 125.466L56.6343 128.945L67.041 127.903L65.8274 122.987L55.7756 125.466Z" stroke="#9696FA" stroke-width="2.51422"/>
<path fill-rule="evenodd" clip-rule="evenodd" d="M57.8385 127.256C57.2468 127.401 56.6486 127.04 56.5028 126.449C56.3565 125.857 56.718 125.259 57.3097 125.113C57.9014 124.967 58.4996 125.329 58.6457 125.92C58.7917 126.512 58.4302 127.11 57.8385 127.256Z" fill="#EAF5F7"/>
<path fill-rule="evenodd" clip-rule="evenodd" d="M93.7815 282.963L93.7106 289.082C93.7106 289.082 107.373 291.243 112.005 296.482H84.7847L85.9248 278.989L93.7815 282.963Z" fill="#3F475A"/>
<path fill-rule="evenodd" clip-rule="evenodd" d="M59.6679 282.448L59.5972 289.321C59.5972 289.321 65.3518 290.075 67.6942 296.482H49.0636L50.9267 288.941L51.6558 282.066L59.6679 282.448Z" fill="#3F475A"/>
<path fill-rule="evenodd" clip-rule="evenodd" d="M101.857 89.4349C101.857 89.4349 109.04 98.7922 99.2874 101.276L101.857 89.4349Z" fill="#3F475A"/>
<path fill-rule="evenodd" clip-rule="evenodd" d="M85.9248 280.593L85.2916 288.702L93.7108 289.082L93.7815 282.964L85.9248 280.593Z" fill="#BB9F8E"/>
<path fill-rule="evenodd" clip-rule="evenodd" d="M51.8113 280.077L50.9268 288.94L59.5973 289.32L59.668 282.448L51.8113 280.077Z" fill="#BB9F8E"/>
<path fill-rule="evenodd" clip-rule="evenodd" d="M77.131 101.61C76.4181 99.508 69.9293 96.8729 68.3717 101.589C66.3631 107.669 77.9403 110.865 77.9403 110.865L77.4341 120.949L76.1479 120.951C76.1479 120.951 78.4584 125.94 85.4459 126.352C92.4334 126.763 90.0188 121.645 90.0188 121.645L88.8367 121.324L88.2347 113.351C88.2347 113.351 98.5142 114.149 100.66 113.035C100.66 113.035 102.29 103.01 100.74 95.9009L92.2991 88.282L78.6771 89.2843L77.131 101.61Z" fill="#E4C3AF"/>
<path fill-rule="evenodd" clip-rule="evenodd" d="M71.8025 98.9604C71.8025 98.9604 65.1893 96.2705 72.8941 88.3011C80.5992 80.3316 87.4656 84.4671 87.4656 84.4671C87.4656 84.4671 89.402 76.3471 94.7625 76.3705C102.399 76.4034 103.578 88.1988 103.578 88.1988C103.578 88.1988 107.426 81.784 109.615 82.7009C111.804 83.618 111.864 104.924 81.4797 94.541C81.4797 94.541 84.0923 100.417 77.131 101.61C77.131 101.61 75.917 99.1022 71.8025 98.9604Z" fill="#3F475A"/>
<path d="M74.7072 82.0067L75.6644 87.3287L73.6701 88.2825L69.9852 84.5297" stroke="#3F475A" stroke-width="2.2628"/>
<path fill-rule="evenodd" clip-rule="evenodd" d="M88.2349 113.351L81.4727 111.901L88.2025 116.447L88.2349 113.351Z" fill="#BB9F8E"/>
<path fill-rule="evenodd" clip-rule="evenodd" d="M66.4469 111.928C66.3074 111.839 66.1453 111.801 65.9832 111.82C65.2233 111.91 62.9297 112.237 61.6975 113.012C57.2776 115.795 48.0327 123.016 43.8577 124.272C39.5849 125.558 30.1145 126.153 26.8232 125.932C25.9578 125.873 25.7753 126.733 25.8803 127.288C26.4283 130.186 29.0741 133.428 29.0741 133.428L29.3873 137.897L17.1718 177.331C16.0324 181.263 16.4781 185.584 18.3844 189.09L23.5922 198.667C25.0707 201.386 27.3201 203.414 29.9491 204.399C29.9677 204.406 29.9863 204.412 30.0054 204.418L63.7179 214.555C63.8476 214.594 63.9851 214.595 64.1153 214.557L92.2548 206.42C92.5938 206.323 92.8196 205.986 92.7934 205.617L87.119 125.555C87.1014 125.306 86.971 125.081 86.7684 124.952L66.4469 111.928Z" fill="#3E5DE7"/>
<path fill-rule="evenodd" clip-rule="evenodd" d="M66.4469 111.928C66.3074 111.839 66.1453 111.801 65.9832 111.82C65.2233 111.91 62.9297 112.237 61.6975 113.012C57.2776 115.795 48.0327 123.016 43.8577 124.272C39.5849 125.558 30.1145 126.153 26.8232 125.932C25.9578 125.873 25.7753 126.733 25.8803 127.288C26.4283 130.186 29.0741 133.428 29.0741 133.428L29.3873 137.897L17.1718 177.331C16.0324 181.263 16.4781 185.584 18.3844 189.09L23.5922 198.667C25.0707 201.386 27.3201 203.414 29.9491 204.399C29.9677 204.406 29.9863 204.412 30.0054 204.418L63.7179 214.555C63.8476 214.594 63.9851 214.595 64.1153 214.557L92.2548 206.42C92.5938 206.323 92.8196 205.986 92.7934 205.617L87.119 125.555C87.1014 125.306 86.971 125.081 86.7684 124.952L66.4469 111.928Z" fill="#F6F8F9" fill-opacity="0.65"/>
<path fill-rule="evenodd" clip-rule="evenodd" d="M65.9048 123.683L62.3991 127.254L56.2911 122.651L61.3997 118.119C61.3997 118.119 63.0697 111.295 64.22 110.501C65.6037 109.547 67.4926 109.042 68.6333 109.027C69.7739 109.013 70.9324 110.473 70.7751 111.129C70.7751 111.129 72.9782 112.064 73.0114 114.133C73.0114 114.133 74.1269 115.3 73.6092 116.825C73.6092 116.825 74.4406 118.288 73.2243 119.363C72.0078 120.437 68.5903 122.268 65.9048 123.683Z" fill="#E4C3AF"/>
<path fill-rule="evenodd" clip-rule="evenodd" d="M146.323 116.289C145.514 117.246 143 118.849 141.025 120.827C139.491 122.362 138.74 123.817 136.598 125.541C135.693 126.272 134.886 126.654 134.117 127.059L121.459 149.07C119.174 152.664 115.829 153.696 113.29 152.518L90.9113 140.07C90.9113 140.07 91.1025 121.513 94.282 123.603C100.468 127.677 114.546 139.723 114.546 139.723L128.361 123.508L128.235 121.327C128.235 121.327 128.238 119.809 128.434 118.171C128.63 116.533 129.761 114.595 128.565 111.703C127.368 108.813 130.229 110.809 130.862 112.183C131.39 113.329 131.111 115.739 131.76 116.621C132.307 116.322 132.672 115.932 132.672 115.932L138.838 107.936C139.036 107.668 139.403 107.587 139.697 107.745L140.029 107.926C140.379 108.117 140.489 108.565 140.265 108.891C139.061 110.658 135.331 115.839 135.432 115.892L135.595 116.09L142.837 108.457C143.063 108.203 143.442 108.158 143.721 108.351L144.157 108.653C144.473 108.871 144.541 109.308 144.305 109.61C142.864 111.469 137.46 117.372 137.563 117.43L137.78 117.638L144.521 111.685C144.76 111.419 145.167 111.389 145.443 111.613L145.773 111.881C146.062 112.115 146.105 112.54 145.868 112.826L139.501 118.812L139.685 119.101L145.212 115.218C145.466 114.992 145.848 114.992 146.105 115.216L146.258 115.354C146.529 115.595 146.559 116.01 146.323 116.289Z" fill="#E4C3AF"/>
<path fill-rule="evenodd" clip-rule="evenodd" d="M53.4007 133.482C40.5106 134.669 28.958 133.428 28.958 133.428L29.2709 137.898C29.2709 137.898 46.2853 139.357 53.4007 137.399C60.5162 135.44 53.4007 133.482 53.4007 133.482Z" fill="#3E5DE7"/>
<path fill-rule="evenodd" clip-rule="evenodd" d="M53.4007 133.482C40.5106 134.669 28.958 133.428 28.958 133.428L29.2709 137.898C29.2709 137.898 46.2853 139.357 53.4007 137.399C60.5162 135.44 53.4007 133.482 53.4007 133.482Z" fill="#F6F8F9" fill-opacity="0.25"/>
<path fill-rule="evenodd" clip-rule="evenodd" d="M114.778 139.517C114.94 137.893 114.188 136.314 112.825 135.415C108.72 132.708 101.745 127.61 97.1046 124.556C93.9269 122.465 90.9106 138.309 90.9106 138.309L106.435 151.606C107.683 152.468 109.395 152.982 110.554 151.421L114.778 139.517Z" fill="#C7404A"/>
<path fill-rule="evenodd" clip-rule="evenodd" d="M99.2496 165.439L98.0828 286.029L83.3483 286.244L80.8445 164.678L99.2496 165.439Z" fill="#3F4759"/>
<path fill-rule="evenodd" clip-rule="evenodd" d="M87.5138 164.982L63.0328 286.496H48.8965L66.0446 163.854L87.5138 164.982Z" fill="#3F4759"/>
<path fill-rule="evenodd" clip-rule="evenodd" d="M55.8779 129.323L64.6513 140.472L61.6891 160.689C61.4628 162.391 62.743 163.921 64.4585 163.999L100.545 165.496C102.396 165.58 103.963 164.144 104.039 162.293L99.8619 140.98C99.8619 140.98 104.516 137.977 101.408 129.899C99.2348 124.254 92.9725 122.461 92.5605 122.218C92.5582 122.217 89.4643 121.399 87.8742 121.11C87.8742 121.11 76.5287 120.705 72.7769 121.116C62.9594 122.193 55.8779 129.323 55.8779 129.323Z" fill="#C7404A"/>
<path fill-rule="evenodd" clip-rule="evenodd" d="M101.039 146.983L99.3639 140.33L103.887 149.423L101.039 146.983Z" fill="#9E363E"/>
<path fill-rule="evenodd" clip-rule="evenodd" d="M81.519 194.305L84.6992 180.148L82.3065 223.069L81.519 194.305Z" fill="#333948"/>
<path fill-rule="evenodd" clip-rule="evenodd" d="M70.2534 121.533L41.0902 132.333C41.0902 132.333 36.7533 135.848 39.6188 141.749C41.3484 145.31 45.0951 145.718 47.1306 145.297C52.6851 144.148 68.6611 139.45 68.6611 139.45L70.2534 121.533Z" fill="#C7404A"/>
<path fill-rule="evenodd" clip-rule="evenodd" d="M47.4192 143.474C44.7511 144.557 41.0966 144.557 39.368 141.497C36.1408 135.786 41.0895 132.333 41.0895 132.333L61.3995 118.119L65.7648 123.825C65.7648 123.825 53.0305 141.198 47.4192 143.474Z" fill="#E4C3AF"/>
<path fill-rule="evenodd" clip-rule="evenodd" d="M69.927 121.347L66.8031 140.281L77.3086 141.101L72.762 119.654C72.762 119.654 72.3792 119.289 71.3031 119.819C70.3281 120.299 69.927 121.347 69.927 121.347Z" fill="#3E5DE7"/>
<path fill-rule="evenodd" clip-rule="evenodd" d="M69.927 121.347L66.8031 140.281L77.3086 141.101L72.762 119.654C72.762 119.654 72.3792 119.289 71.3031 119.819C70.3281 120.299 69.927 121.347 69.927 121.347Z" fill="#F6F8F9" fill-opacity="0.65"/>
<path fill-rule="evenodd" clip-rule="evenodd" d="M69.9272 121.347L66.3007 142.543L71.5533 142.953V140.652L70.43 140.573L71.3034 119.82C71.3034 119.82 70.7638 120.085 70.4865 120.412C70.0486 120.927 69.9272 121.347 69.9272 121.347Z" fill="#3E5DE7"/>
<path fill-rule="evenodd" clip-rule="evenodd" d="M69.9272 121.347L66.3007 142.543L71.5533 142.953V140.652L70.43 140.573L71.3034 119.82C71.3034 119.82 70.7638 120.085 70.4865 120.412C70.0486 120.927 69.9272 121.347 69.9272 121.347Z" fill="#F6F8F9" fill-opacity="0.25"/>
<g clip-path="url(#clip3_2178_9625)">
<rect x="126.161" y="100.495" width="24.8336" height="33.1115" rx="3.67906" transform="rotate(-18.8654 126.161 100.495)" fill="#3E5DE7"/>
<rect x="126.161" y="100.495" width="24.8336" height="33.1115" rx="3.67906" transform="rotate(-18.8654 126.161 100.495)" fill="#F6F8F9" fill-opacity="0.975"/>
<path fill-rule="evenodd" clip-rule="evenodd" d="M132.101 106.406C131.936 105.925 132.193 105.402 132.674 105.238L140.507 102.562C140.987 102.397 141.51 102.654 141.675 103.135C141.839 103.615 141.582 104.138 141.102 104.302L133.268 106.979C132.788 107.143 132.265 106.887 132.101 106.406Z" fill="#3E5DE7"/>
<path fill-rule="evenodd" clip-rule="evenodd" d="M132.101 106.406C131.936 105.925 132.193 105.402 132.674 105.238L140.507 102.562C140.987 102.397 141.51 102.654 141.675 103.135C141.839 103.615 141.582 104.138 141.102 104.302L133.268 106.979C132.788 107.143 132.265 106.887 132.101 106.406Z" fill="#F6F8F9" fill-opacity="0.45"/>
<path fill-rule="evenodd" clip-rule="evenodd" d="M133.106 109.35C132.942 108.869 133.198 108.347 133.679 108.182L148.42 103.145C148.9 102.981 149.423 103.238 149.587 103.718C149.752 104.199 149.495 104.722 149.015 104.886L134.274 109.923C133.793 110.087 133.27 109.831 133.106 109.35ZM133.998 111.961C133.834 111.48 134.09 110.958 134.571 110.793L149.312 105.756C149.793 105.592 150.315 105.849 150.48 106.329C150.644 106.81 150.387 107.333 149.907 107.497L135.166 112.534C134.685 112.698 134.162 112.442 133.998 111.961ZM134.89 114.572C134.726 114.091 134.983 113.569 135.463 113.404L150.204 108.367C150.685 108.203 151.208 108.46 151.372 108.94C151.536 109.421 151.28 109.944 150.799 110.108L136.058 115.145C135.577 115.309 135.055 115.053 134.89 114.572ZM135.783 117.183C135.618 116.703 135.875 116.18 136.356 116.015L151.096 110.979C151.577 110.814 152.1 111.071 152.264 111.551C152.428 112.032 152.172 112.555 151.691 112.719L136.95 117.756C136.47 117.92 135.947 117.664 135.783 117.183Z" fill="#3E5DE7"/>
<path fill-rule="evenodd" clip-rule="evenodd" d="M133.106 109.35C132.942 108.869 133.198 108.347 133.679 108.182L148.42 103.145C148.9 102.981 149.423 103.238 149.587 103.718C149.752 104.199 149.495 104.722 149.015 104.886L134.274 109.923C133.793 110.087 133.27 109.831 133.106 109.35ZM133.998 111.961C133.834 111.48 134.09 110.958 134.571 110.793L149.312 105.756C149.793 105.592 150.315 105.849 150.48 106.329C150.644 106.81 150.387 107.333 149.907 107.497L135.166 112.534C134.685 112.698 134.162 112.442 133.998 111.961ZM134.89 114.572C134.726 114.091 134.983 113.569 135.463 113.404L150.204 108.367C150.685 108.203 151.208 108.46 151.372 108.94C151.536 109.421 151.28 109.944 150.799 110.108L136.058 115.145C135.577 115.309 135.055 115.053 134.89 114.572ZM135.783 117.183C135.618 116.703 135.875 116.18 136.356 116.015L151.096 110.979C151.577 110.814 152.1 111.071 152.264 111.551C152.428 112.032 152.172 112.555 151.691 112.719L136.95 117.756C136.47 117.92 135.947 117.664 135.783 117.183Z" fill="#F6F8F9" fill-opacity="0.65"/>
<path fill-rule="evenodd" clip-rule="evenodd" d="M136.685 119.825C136.521 119.344 136.778 118.822 137.258 118.657L151.999 113.62C152.48 113.456 153.003 113.713 153.167 114.193C153.331 114.674 153.075 115.197 152.594 115.361L137.853 120.398C137.372 120.562 136.85 120.306 136.685 119.825ZM137.578 122.436C137.413 121.955 137.67 121.433 138.15 121.268L152.891 116.231C153.372 116.067 153.895 116.324 154.059 116.804C154.223 117.285 153.967 117.808 153.486 117.972L138.745 123.009C138.265 123.173 137.742 122.917 137.578 122.436ZM138.47 125.047C138.305 124.567 138.562 124.044 139.043 123.879L153.783 118.842C154.264 118.678 154.787 118.935 154.951 119.415C155.115 119.896 154.859 120.419 154.378 120.583L139.637 125.62C139.157 125.784 138.634 125.528 138.47 125.047ZM139.362 127.658C139.198 127.178 139.454 126.655 139.935 126.491L154.676 121.454C155.156 121.289 155.679 121.546 155.843 122.027C156.008 122.507 155.751 123.03 155.27 123.194L140.53 128.231C140.049 128.395 139.526 128.139 139.362 127.658Z" fill="#3E5DE7"/>
<path fill-rule="evenodd" clip-rule="evenodd" d="M136.685 119.825C136.521 119.344 136.778 118.822 137.258 118.657L151.999 113.62C152.48 113.456 153.003 113.713 153.167 114.193C153.331 114.674 153.075 115.197 152.594 115.361L137.853 120.398C137.372 120.562 136.85 120.306 136.685 119.825ZM137.578 122.436C137.413 121.955 137.67 121.433 138.15 121.268L152.891 116.231C153.372 116.067 153.895 116.324 154.059 116.804C154.223 117.285 153.967 117.808 153.486 117.972L138.745 123.009C138.265 123.173 137.742 122.917 137.578 122.436ZM138.47 125.047C138.305 124.567 138.562 124.044 139.043 123.879L153.783 118.842C154.264 118.678 154.787 118.935 154.951 119.415C155.115 119.896 154.859 120.419 154.378 120.583L139.637 125.62C139.157 125.784 138.634 125.528 138.47 125.047ZM139.362 127.658C139.198 127.178 139.454 126.655 139.935 126.491L154.676 121.454C155.156 121.289 155.679 121.546 155.843 122.027C156.008 122.507 155.751 123.03 155.27 123.194L140.53 128.231C140.049 128.395 139.526 128.139 139.362 127.658Z" fill="#F6F8F9" fill-opacity="0.65"/>
</g>
<rect x="126.87" y="100.842" width="23.7175" height="31.9954" rx="3.121" transform="rotate(-18.8654 126.87 100.842)" stroke="#3E5DE7" stroke-width="1.11612"/>
<rect x="126.87" y="100.842" width="23.7175" height="31.9954" rx="3.121" transform="rotate(-18.8654 126.87 100.842)" stroke="#F6F8F9" stroke-opacity="0.65" stroke-width="1.11612"/>
<path fill-rule="evenodd" clip-rule="evenodd" d="M134.117 127.059C132.715 127.059 129.346 125.391 128.361 123.508L128.235 121.327C128.235 121.327 128.238 119.809 128.434 118.171C128.63 116.533 129.761 114.595 128.565 111.703C127.369 108.813 130.229 110.809 130.862 112.183C131.39 113.329 131.111 115.739 131.76 116.621C133.594 122.461 133.154 122.461 134.117 127.059Z" fill="#E4C3AF"/>
<defs>
<filter id="filter0_d_2178_9625" x="205.962" y="87.0141" width="43.4343" height="43.4342" filterUnits="userSpaceOnUse" color-interpolation-filters="sRGB">
<feFlood flood-opacity="0" result="BackgroundImageFix"/>
<feColorMatrix in="SourceAlpha" type="matrix" values="0 0 0 0 0 0 0 0 0 0 0 0 0 0 0 0 0 0 127 0" result="hardAlpha"/>
<feOffset dy="2.63432"/>
<feGaussianBlur stdDeviation="2.63432"/>
<feComposite in2="hardAlpha" operator="out"/>
<feColorMatrix type="matrix" values="0 0 0 0 0.0941176 0 0 0 0 0.105882 0 0 0 0 0.141176 0 0 0 0.05 0"/>
<feBlend mode="normal" in2="BackgroundImageFix" result="effect1_dropShadow_2178_9625"/>
<feBlend mode="normal" in="SourceGraphic" in2="effect1_dropShadow_2178_9625" result="shape"/>
</filter>
<filter id="filter1_d_2178_9625" x="189.848" y="81.7407" width="43.4341" height="43.4342" filterUnits="userSpaceOnUse" color-interpolation-filters="sRGB">
<feFlood flood-opacity="0" result="BackgroundImageFix"/>
<feColorMatrix in="SourceAlpha" type="matrix" values="0 0 0 0 0 0 0 0 0 0 0 0 0 0 0 0 0 0 127 0" result="hardAlpha"/>
<feOffset dy="2.63432"/>
<feGaussianBlur stdDeviation="2.63432"/>
<feComposite in2="hardAlpha" operator="out"/>
<feColorMatrix type="matrix" values="0 0 0 0 0.0941176 0 0 0 0 0.105882 0 0 0 0 0.141176 0 0 0 0.05 0"/>
<feBlend mode="normal" in2="BackgroundImageFix" result="effect1_dropShadow_2178_9625"/>
<feBlend mode="normal" in="SourceGraphic" in2="effect1_dropShadow_2178_9625" result="shape"/>
</filter>
<filter id="filter2_d_2178_9625" x="179.385" y="92.9998" width="47.5777" height="47.5777" filterUnits="userSpaceOnUse" color-interpolation-filters="sRGB">
<feFlood flood-opacity="0" result="BackgroundImageFix"/>
<feColorMatrix in="SourceAlpha" type="matrix" values="0 0 0 0 0 0 0 0 0 0 0 0 0 0 0 0 0 0 127 0" result="hardAlpha"/>
<feOffset dy="2.88563"/>
<feGaussianBlur stdDeviation="2.88563"/>
<feComposite in2="hardAlpha" operator="out"/>
<feColorMatrix type="matrix" values="0 0 0 0 0.0941176 0 0 0 0 0.105882 0 0 0 0 0.141176 0 0 0 0.05 0"/>
<feBlend mode="normal" in2="BackgroundImageFix" result="effect1_dropShadow_2178_9625"/>
<feBlend mode="normal" in="SourceGraphic" in2="effect1_dropShadow_2178_9625" result="shape"/>
</filter>
<filter id="filter3_d_2178_9625" x="205.376" y="155.862" width="43.4343" height="43.4342" filterUnits="userSpaceOnUse" color-interpolation-filters="sRGB">
<feFlood flood-opacity="0" result="BackgroundImageFix"/>
<feColorMatrix in="SourceAlpha" type="matrix" values="0 0 0 0 0 0 0 0 0 0 0 0 0 0 0 0 0 0 127 0" result="hardAlpha"/>
<feOffset dy="2.63432"/>
<feGaussianBlur stdDeviation="2.63432"/>
<feComposite in2="hardAlpha" operator="out"/>
<feColorMatrix type="matrix" values="0 0 0 0 0.0941176 0 0 0 0 0.105882 0 0 0 0 0.141176 0 0 0 0.05 0"/>
<feBlend mode="normal" in2="BackgroundImageFix" result="effect1_dropShadow_2178_9625"/>
<feBlend mode="normal" in="SourceGraphic" in2="effect1_dropShadow_2178_9625" result="shape"/>
</filter>
<filter id="filter4_d_2178_9625" x="228.67" y="155.862" width="13.4929" height="13.4929" filterUnits="userSpaceOnUse" color-interpolation-filters="sRGB">
<feFlood flood-opacity="0" result="BackgroundImageFix"/>
<feColorMatrix in="SourceAlpha" type="matrix" values="0 0 0 0 0 0 0 0 0 0 0 0 0 0 0 0 0 0 127 0" result="hardAlpha"/>
<feOffset/>
<feGaussianBlur stdDeviation="1.31716"/>
<feComposite in2="hardAlpha" operator="out"/>
<feColorMatrix type="matrix" values="0 0 0 0 0 0 0 0 0 0 0 0 0 0 0 0 0 0 0.1 0"/>
<feBlend mode="normal" in2="BackgroundImageFix" result="effect1_dropShadow_2178_9625"/>
<feBlend mode="normal" in="SourceGraphic" in2="effect1_dropShadow_2178_9625" result="shape"/>
</filter>
<filter id="filter5_d_2178_9625" x="178.424" y="158.352" width="50.6721" height="50.6721" filterUnits="userSpaceOnUse" color-interpolation-filters="sRGB">
<feFlood flood-opacity="0" result="BackgroundImageFix"/>
<feColorMatrix in="SourceAlpha" type="matrix" values="0 0 0 0 0 0 0 0 0 0 0 0 0 0 0 0 0 0 127 0" result="hardAlpha"/>
<feOffset dy="3.07331"/>
<feGaussianBlur stdDeviation="3.07331"/>
<feComposite in2="hardAlpha" operator="out"/>
<feColorMatrix type="matrix" values="0 0 0 0 0.0941176 0 0 0 0 0.105882 0 0 0 0 0.141176 0 0 0 0.05 0"/>
<feBlend mode="normal" in2="BackgroundImageFix" result="effect1_dropShadow_2178_9625"/>
<feBlend mode="normal" in="SourceGraphic" in2="effect1_dropShadow_2178_9625" result="shape"/>
</filter>
<filter id="filter6_d_2178_9625" x="206.548" y="218.557" width="43.4341" height="43.4342" filterUnits="userSpaceOnUse" color-interpolation-filters="sRGB">
<feFlood flood-opacity="0" result="BackgroundImageFix"/>
<feColorMatrix in="SourceAlpha" type="matrix" values="0 0 0 0 0 0 0 0 0 0 0 0 0 0 0 0 0 0 127 0" result="hardAlpha"/>
<feOffset dy="2.63432"/>
<feGaussianBlur stdDeviation="2.63432"/>
<feComposite in2="hardAlpha" operator="out"/>
<feColorMatrix type="matrix" values="0 0 0 0 0.0941176 0 0 0 0 0.105882 0 0 0 0 0.141176 0 0 0 0.05 0"/>
<feBlend mode="normal" in2="BackgroundImageFix" result="effect1_dropShadow_2178_9625"/>
<feBlend mode="normal" in="SourceGraphic" in2="effect1_dropShadow_2178_9625" result="shape"/>
</filter>
<filter id="filter7_d_2178_9625" x="181.33" y="227.335" width="38.7925" height="38.7925" filterUnits="userSpaceOnUse" color-interpolation-filters="sRGB">
<feFlood flood-opacity="0" result="BackgroundImageFix"/>
<feColorMatrix in="SourceAlpha" type="matrix" values="0 0 0 0 0 0 0 0 0 0 0 0 0 0 0 0 0 0 127 0" result="hardAlpha"/>
<feOffset dy="2.3528"/>
<feGaussianBlur stdDeviation="2.3528"/>
<feComposite in2="hardAlpha" operator="out"/>
<feColorMatrix type="matrix" values="0 0 0 0 0.0941176 0 0 0 0 0.105882 0 0 0 0 0.141176 0 0 0 0.05 0"/>
<feBlend mode="normal" in2="BackgroundImageFix" result="effect1_dropShadow_2178_9625"/>
<feBlend mode="normal" in="SourceGraphic" in2="effect1_dropShadow_2178_9625" result="shape"/>
</filter>
<filter id="filter8_d_2178_9625" x="193.727" y="232.069" width="47.6891" height="47.6891" filterUnits="userSpaceOnUse" color-interpolation-filters="sRGB">
<feFlood flood-opacity="0" result="BackgroundImageFix"/>
<feColorMatrix in="SourceAlpha" type="matrix" values="0 0 0 0 0 0 0 0 0 0 0 0 0 0 0 0 0 0 127 0" result="hardAlpha"/>
<feOffset dy="2.89239"/>
<feGaussianBlur stdDeviation="2.89239"/>
<feComposite in2="hardAlpha" operator="out"/>
<feColorMatrix type="matrix" values="0 0 0 0 0.0941176 0 0 0 0 0.105882 0 0 0 0 0.141176 0 0 0 0.05 0"/>
<feBlend mode="normal" in2="BackgroundImageFix" result="effect1_dropShadow_2178_9625"/>
<feBlend mode="normal" in="SourceGraphic" in2="effect1_dropShadow_2178_9625" result="shape"/>
</filter>
<filter id="filter9_d_2178_9625" x="47.6337" y="93.5728" width="40.7168" height="40.7168" filterUnits="userSpaceOnUse" color-interpolation-filters="sRGB">
<feFlood flood-opacity="0" result="BackgroundImageFix"/>
<feColorMatrix in="SourceAlpha" type="matrix" values="0 0 0 0 0 0 0 0 0 0 0 0 0 0 0 0 0 0 127 0" result="hardAlpha"/>
<feOffset dy="1.99395"/>
<feGaussianBlur stdDeviation="1.99395"/>
<feComposite in2="hardAlpha" operator="out"/>
<feColorMatrix type="matrix" values="0 0 0 0 0.0941176 0 0 0 0 0.105882 0 0 0 0 0.141176 0 0 0 0.05 0"/>
<feBlend mode="normal" in2="BackgroundImageFix" result="effect1_dropShadow_2178_9625"/>
<feBlend mode="normal" in="SourceGraphic" in2="effect1_dropShadow_2178_9625" result="shape"/>
</filter>
<filter id="filter10_d_2178_9625" x="20.0852" y="86.5324" width="40.8789" height="40.8789" filterUnits="userSpaceOnUse" color-interpolation-filters="sRGB">
<feFlood flood-opacity="0" result="BackgroundImageFix"/>
<feColorMatrix in="SourceAlpha" type="matrix" values="0 0 0 0 0 0 0 0 0 0 0 0 0 0 0 0 0 0 127 0" result="hardAlpha"/>
<feOffset dy="1.99395"/>
<feGaussianBlur stdDeviation="1.99395"/>
<feComposite in2="hardAlpha" operator="out"/>
<feColorMatrix type="matrix" values="0 0 0 0 0.0941176 0 0 0 0 0.105882 0 0 0 0 0.141176 0 0 0 0.05 0"/>
<feBlend mode="normal" in2="BackgroundImageFix" result="effect1_dropShadow_2178_9625"/>
<feBlend mode="normal" in="SourceGraphic" in2="effect1_dropShadow_2178_9625" result="shape"/>
</filter>
<filter id="filter11_d_2178_9625" x="30.2077" y="96.9478" width="37.7265" height="37.7266" filterUnits="userSpaceOnUse" color-interpolation-filters="sRGB">
<feFlood flood-opacity="0" result="BackgroundImageFix"/>
<feColorMatrix in="SourceAlpha" type="matrix" values="0 0 0 0 0 0 0 0 0 0 0 0 0 0 0 0 0 0 127 0" result="hardAlpha"/>
<feOffset dy="1.99395"/>
<feGaussianBlur stdDeviation="1.99395"/>
<feComposite in2="hardAlpha" operator="out"/>
<feColorMatrix type="matrix" values="0 0 0 0 0.0941176 0 0 0 0 0.105882 0 0 0 0 0.141176 0 0 0 0.05 0"/>
<feBlend mode="normal" in2="BackgroundImageFix" result="effect1_dropShadow_2178_9625"/>
<feBlend mode="normal" in="SourceGraphic" in2="effect1_dropShadow_2178_9625" result="shape"/>
</filter>
<filter id="filter12_d_2178_9625" x="16.7768" y="100.967" width="41.1813" height="41.1812" filterUnits="userSpaceOnUse" color-interpolation-filters="sRGB">
<feFlood flood-opacity="0" result="BackgroundImageFix"/>
<feColorMatrix in="SourceAlpha" type="matrix" values="0 0 0 0 0 0 0 0 0 0 0 0 0 0 0 0 0 0 127 0" result="hardAlpha"/>
<feOffset dy="2.15836"/>
<feGaussianBlur stdDeviation="2.15836"/>
<feComposite in2="hardAlpha" operator="out"/>
<feColorMatrix type="matrix" values="0 0 0 0 0.0941176 0 0 0 0 0.105882 0 0 0 0 0.141176 0 0 0 0.05 0"/>
<feBlend mode="normal" in2="BackgroundImageFix" result="effect1_dropShadow_2178_9625"/>
<feBlend mode="normal" in="SourceGraphic" in2="effect1_dropShadow_2178_9625" result="shape"/>
</filter>
<clipPath id="clip0_2178_9625">
<rect x="214.757" y="158.496" width="24.6727" height="32.8969" rx="4.68324" fill="white"/>
</clipPath>
<clipPath id="clip1_2178_9625">
<rect x="64.3669" y="96.8028" width="18.675" height="24.9" rx="3.54479" transform="rotate(23.3995 64.3669 96.8028)" fill="white"/>
</clipPath>
<clipPath id="clip2_2178_9625">
<rect x="27.5979" y="101.815" width="21.0094" height="17.1188" rx="3.76634" transform="rotate(-24.1276 27.5979 101.815)" fill="white"/>
</clipPath>
<clipPath id="clip3_2178_9625">
<rect x="126.161" y="100.495" width="24.8336" height="33.1115" rx="3.67906" transform="rotate(-18.8654 126.161 100.495)" fill="white"/>
</clipPath>
</defs>
</svg>
