<svg width="1360" height="1360" viewBox="0 0 1360 1360" fill="none" xmlns="http://www.w3.org/2000/svg">
<g clip-path="url(#clip0_2178_3006)">
<rect width="1360" height="1360" fill="white"/>
<path fill-rule="evenodd" clip-rule="evenodd" d="M913.972 214.967C740.915 117.905 533.962 80.3252 351.18 157.388C189.721 225.461 127.737 405.049 70.4198 570.617C19.5792 717.478 -14.4119 874.332 54.7975 1013.53C126.898 1158.54 266.786 1261.97 426.745 1287.28C583.238 1312.05 722.277 1291.5 857.5 1209C1053.26 1089.57 1340.58 949.516 1355.48 720.671C1370.77 485.8 1119.31 330.137 913.972 214.967Z" fill="#F9F9FE"/>
<path fill-rule="evenodd" clip-rule="evenodd" d="M1120.79 1046H72.4753C148.375 1173.88 278.998 1263.9 426.745 1287.28C583.239 1312.05 722.277 1291.5 857.5 1209C880.608 1194.9 904.993 1180.51 930.055 1165.73C992.517 1128.88 1059.19 1089.55 1120.79 1046Z" fill="#ECECFD"/>
<path fill-rule="evenodd" clip-rule="evenodd" d="M260.274 490.814L211.551 499.81L196.563 418.537L245.285 409.542L260.274 490.814Z" fill="#D4D4FC"/>
<path d="M204.347 421.711L227.581 445.681" stroke="#6969F5" stroke-width="2.47793" stroke-linecap="round"/>
<path d="M230.845 463.374L217.691 494.068" stroke="#6969F5" stroke-width="2.47793" stroke-linecap="round"/>
<path d="M254.08 487.349L223.324 455.614L240.736 414.993" stroke="#6969F5" stroke-width="2.47793" stroke-linecap="round"/>
<path fill-rule="evenodd" clip-rule="evenodd" d="M268.765 530.371L241.986 488.682L311.513 444.015L338.292 485.704L268.765 530.371Z" fill="#D4D4FC"/>
<path fill-rule="evenodd" clip-rule="evenodd" d="M311.67 469.717L312.718 469.511C315.815 468.901 318.822 470.919 319.431 474.017L319.637 475.065C320.247 478.163 318.23 481.168 315.133 481.778L314.085 481.984C310.987 482.594 307.981 480.576 307.372 477.477L307.165 476.43C306.556 473.332 308.573 470.327 311.67 469.717Z" stroke="#9696FA" stroke-width="2.47793" stroke-linecap="round"/>
<path fill-rule="evenodd" clip-rule="evenodd" d="M228.062 502.129L237.052 511.866L268.904 489.932L256.198 476.17L228.062 502.129Z" fill="#9696FA"/>
<path fill-rule="evenodd" clip-rule="evenodd" d="M237.937 504.25C236.28 505.778 233.699 505.674 232.17 504.018C230.641 502.363 230.745 499.782 232.4 498.253C234.058 496.726 236.639 496.829 238.168 498.485C239.697 500.141 239.593 502.721 237.937 504.25Z" fill="#EAF5F7"/>
<path fill-rule="evenodd" clip-rule="evenodd" d="M201.2 541.588C200.564 543.75 198.295 544.987 196.132 544.35C193.97 543.715 192.734 541.446 193.37 539.285C194.007 537.123 196.276 535.887 198.438 536.522C200.6 537.159 201.837 539.427 201.2 541.588Z" fill="#EAF5F7"/>
<path fill-rule="evenodd" clip-rule="evenodd" d="M229.012 528.56L232.188 541.425L270.673 537.573L266.185 519.391L229.012 528.56Z" fill="#9696FA"/>
<path fill-rule="evenodd" clip-rule="evenodd" d="M229.012 528.56L232.188 541.425L270.673 537.573L266.185 519.391L229.012 528.56Z" stroke="#9696FA" stroke-width="9.29782"/>
<path fill-rule="evenodd" clip-rule="evenodd" d="M236.64 535.178C234.451 535.718 232.239 534.383 231.7 532.195C231.159 530.007 232.496 527.796 234.684 527.256C236.872 526.717 239.084 528.053 239.624 530.24C240.164 532.428 238.828 534.638 236.64 535.178Z" fill="#EAF5F7"/>
<path fill-rule="evenodd" clip-rule="evenodd" d="M369.561 1111L369.299 1133.63C369.299 1133.63 419.825 1141.62 436.953 1160.99H336.29L340.506 1096.3L369.561 1111Z" fill="#3A3A3A"/>
<path fill-rule="evenodd" clip-rule="evenodd" d="M243.405 1109.09L243.144 1134.51C243.144 1134.51 264.424 1137.3 273.087 1160.99H204.189L211.079 1133.1L213.776 1107.68L243.405 1109.09Z" fill="#3A3A3A"/>
<path fill-rule="evenodd" clip-rule="evenodd" d="M399.423 395.312C399.423 395.312 425.986 429.917 389.922 439.102L399.423 395.312Z" fill="#3A3A3A"/>
<path fill-rule="evenodd" clip-rule="evenodd" d="M220.229 558.204C172.56 562.592 129.838 558.004 129.838 558.004L130.995 574.532C130.995 574.532 193.916 579.929 220.229 572.686C246.543 565.443 220.229 558.204 220.229 558.204Z" fill="#6969F5"/>
<path fill-rule="evenodd" clip-rule="evenodd" d="M340.505 1102.23L338.164 1132.22L369.299 1133.63L369.56 1111L340.505 1102.23Z" fill="#584134"/>
<path fill-rule="evenodd" clip-rule="evenodd" d="M214.351 1100.32L211.08 1133.1L243.144 1134.51L243.406 1109.09L214.351 1100.32Z" fill="#584134"/>
<path fill-rule="evenodd" clip-rule="evenodd" d="M307.986 440.338C305.35 432.564 281.353 422.819 275.593 440.258C268.165 462.745 310.979 474.562 310.979 474.562L309.107 511.856L304.35 511.86C304.35 511.86 312.895 530.311 338.735 531.833C364.575 533.356 355.646 514.427 355.646 514.427L351.274 513.239L349.048 483.755C349.048 483.755 387.063 486.709 394.996 482.588C394.996 482.588 401.026 445.513 395.293 419.224L364.079 391.049L313.703 394.756L307.986 440.338Z" fill="#845D48"/>
<path fill-rule="evenodd" clip-rule="evenodd" d="M288.282 430.54C288.282 430.54 263.825 420.592 292.319 391.121C320.813 361.649 346.205 376.942 346.205 376.942C346.205 376.942 353.366 346.914 373.19 347C401.43 347.122 405.79 390.742 405.79 390.742C405.79 390.742 420.022 367.02 428.115 370.411C436.21 373.802 436.432 452.594 324.069 414.196C324.069 414.196 333.731 435.926 307.987 440.339C307.987 440.339 303.497 431.064 288.282 430.54Z" fill="#3A3A3A"/>
<path d="M299.024 367.842L302.563 387.523L295.188 391.051L281.561 377.172" stroke="#3A3A3A" stroke-width="8.36804"/>
<path fill-rule="evenodd" clip-rule="evenodd" d="M349.048 483.757L324.041 478.396L348.928 495.205L349.048 483.757Z" fill="#584134"/>
<path fill-rule="evenodd" clip-rule="evenodd" d="M266.47 521.965L253.506 535.17L230.918 518.148L249.81 501.389C249.81 501.389 255.986 476.153 260.239 473.219C265.356 469.689 272.342 467.824 276.56 467.768C280.778 467.713 285.063 473.115 284.481 475.539C284.481 475.539 292.628 478.998 292.751 486.647C292.751 486.647 296.876 490.966 294.961 496.603C294.961 496.603 298.036 502.016 293.538 505.99C289.039 509.962 276.401 516.732 266.47 521.965Z" fill="#845D48"/>
<path fill-rule="evenodd" clip-rule="evenodd" d="M236.869 488.635L282.745 472.764L269.409 434.215L223.533 450.086L236.869 488.635Z" fill="#CACAFB"/>
<path fill-rule="evenodd" clip-rule="evenodd" d="M236.869 488.635L282.745 472.764L269.409 434.215L223.533 450.086L236.869 488.635Z" stroke="#CACAFB" stroke-width="1.9378"/>
<path fill-rule="evenodd" clip-rule="evenodd" d="M234.189 489.619L280.065 473.749L266.729 435.2L220.853 451.071L234.189 489.619Z" fill="white"/>
<path fill-rule="evenodd" clip-rule="evenodd" d="M234.189 489.619L280.065 473.749L266.729 435.2L220.853 451.071L234.189 489.619Z" stroke="#CACAFB" stroke-width="1.9378"/>
<path fill-rule="evenodd" clip-rule="evenodd" d="M239.247 478.953L268.842 468.715L260.981 445.991L231.385 456.229L239.247 478.953Z" fill="#CACAFB"/>
<path fill-rule="evenodd" clip-rule="evenodd" d="M156.802 479.225L221.375 518.549L254.725 463.787L190.152 424.463L156.802 479.225Z" fill="#CACAFB"/>
<path fill-rule="evenodd" clip-rule="evenodd" d="M156.802 479.225L221.375 518.549L254.725 463.787L190.152 424.463L156.802 479.225Z" stroke="#CACAFB" stroke-width="1.9378"/>
<path fill-rule="evenodd" clip-rule="evenodd" d="M152.96 476.986L217.533 516.31L250.882 461.547L186.31 422.224L152.96 476.986Z" fill="white"/>
<path fill-rule="evenodd" clip-rule="evenodd" d="M152.96 476.986L217.533 516.31L250.882 461.547L186.31 422.224L152.96 476.986Z" stroke="#CACAFB" stroke-width="1.9378"/>
<path fill-rule="evenodd" clip-rule="evenodd" d="M170.848 472.37L212.505 497.738L232.164 465.456L190.508 440.088L170.848 472.37Z" fill="#CACAFB"/>
<path fill-rule="evenodd" clip-rule="evenodd" d="M118.664 521.547L167.535 545.485L195.06 489.291L146.188 465.354L118.664 521.547Z" fill="#CACAFB"/>
<path fill-rule="evenodd" clip-rule="evenodd" d="M118.664 521.547L167.535 545.485L195.06 489.291L146.188 465.354L118.664 521.547Z" stroke="#CACAFB" stroke-width="3.48804"/>
<path fill-rule="evenodd" clip-rule="evenodd" d="M116.812 520.64L165.684 544.578L193.208 488.385L144.336 464.447L116.812 520.64Z" fill="white"/>
<path fill-rule="evenodd" clip-rule="evenodd" d="M116.812 520.64L165.684 544.578L193.208 488.385L144.336 464.447L116.812 520.64Z" stroke="#CACAFB" stroke-width="3.48804"/>
<path fill-rule="evenodd" clip-rule="evenodd" d="M132.889 513.918L160.442 527.414L176.434 494.765L148.881 481.269L132.889 513.918Z" fill="#CACAFB"/>
<path fill-rule="evenodd" clip-rule="evenodd" d="M235.018 462.076L228.98 511.255L146.957 501.18L152.996 452L235.018 462.076Z" fill="#ECECFC"/>
<path fill-rule="evenodd" clip-rule="evenodd" d="M202.624 489.715L216.776 537.198L137.58 560.816L123.428 513.334L202.624 489.715Z" fill="#DFDFFC"/>
<path fill-rule="evenodd" clip-rule="evenodd" d="M165.373 482.017L205.852 453.441L253.506 520.957L213.027 549.533L165.373 482.017Z" fill="#D4D4FC"/>
<path d="M220.777 528.893L203.424 504.306" stroke="#6969F5" stroke-width="2.47793" stroke-linecap="square"/>
<path d="M226.362 524.952L209.008 500.365" stroke="#6969F5" stroke-width="2.47793" stroke-linecap="square"/>
<path d="M228.5 517.146L217.078 500.964" stroke="#6969F5" stroke-width="2.47793" stroke-linecap="square"/>
<path fill-rule="evenodd" clip-rule="evenodd" d="M181.861 476.664L188.429 485.969L178.214 493.179L171.646 483.874L181.861 476.664Z" fill="white"/>
<path fill-rule="evenodd" clip-rule="evenodd" d="M193.67 483.998L194.286 484.871C196.105 487.45 195.49 491.017 192.91 492.838L192.038 493.454C189.459 495.275 185.891 494.66 184.071 492.081L183.455 491.209C181.635 488.629 182.251 485.062 184.83 483.24L185.702 482.625C188.282 480.804 191.849 481.419 193.67 483.998Z" stroke="#6969F5" stroke-width="2.47793" stroke-linecap="square"/>
<path fill-rule="evenodd" clip-rule="evenodd" d="M268.474 478.495C267.958 478.165 267.359 478.023 266.759 478.094C263.949 478.427 255.467 479.635 250.91 482.503C234.565 492.793 200.377 519.498 184.937 524.144C169.136 528.898 134.113 531.1 121.942 530.281C118.742 530.065 118.067 533.242 118.455 535.298C120.482 546.013 130.266 558.002 130.266 558.002L131.424 574.531L86.2503 720.36C82.0367 734.901 83.6848 750.881 90.7344 763.846L109.994 799.263C115.461 809.316 123.78 816.817 133.502 820.46C133.57 820.486 133.639 820.509 133.71 820.53L258.382 858.018C258.862 858.163 259.37 858.165 259.852 858.025L363.914 827.935C365.168 827.574 366.002 826.329 365.906 824.965L344.921 528.886C344.856 527.966 344.374 527.136 343.625 526.656L268.474 478.495Z" fill="#9696FA"/>
<path fill-rule="evenodd" clip-rule="evenodd" d="M563.865 494.621C560.871 498.161 551.576 504.09 544.271 511.403C538.6 517.081 535.82 522.461 527.901 528.836C524.555 531.54 521.57 532.952 518.726 534.448L471.914 615.85C463.465 629.138 451.093 632.957 441.704 628.599L358.947 582.564C358.947 582.564 359.654 513.94 371.412 521.671C394.288 536.734 446.352 581.282 446.352 581.282L497.439 521.318L496.975 513.252C496.975 513.252 496.985 507.64 497.709 501.581C498.434 495.522 502.617 488.358 498.193 477.662C493.769 466.976 504.347 474.354 506.688 479.437C508.641 483.675 507.609 492.586 510.008 495.848C512.033 494.742 513.381 493.302 513.381 493.302L536.184 463.733C536.918 462.739 538.275 462.441 539.363 463.027L540.59 463.696C541.882 464.402 542.29 466.056 541.463 467.264C537.01 473.797 523.217 492.958 523.588 493.153L524.192 493.887L550.973 465.657C551.808 464.718 553.212 464.551 554.244 465.266L555.853 466.381C557.024 467.19 557.274 468.807 556.401 469.922C551.074 476.798 531.089 498.626 531.47 498.84L532.27 499.611L557.2 477.597C558.083 476.612 559.589 476.501 560.611 477.328L561.83 478.322C562.899 479.186 563.057 480.757 562.182 481.816L538.637 503.951L539.316 505.019L559.756 490.662C560.696 489.826 562.108 489.826 563.057 490.653L563.623 491.164C564.627 492.056 564.738 493.59 563.865 494.621Z" fill="#845D48"/>
<path fill-rule="evenodd" clip-rule="evenodd" d="M447.21 580.52C447.806 574.516 445.025 568.675 439.986 565.352C424.804 555.339 399.012 536.489 381.851 525.193C370.1 517.46 358.945 576.055 358.945 576.055L416.355 625.227C420.971 628.414 427.301 630.318 431.587 624.541L447.21 580.52Z" fill="#F95C5E"/>
<path fill-rule="evenodd" clip-rule="evenodd" d="M389.783 676.384L385.468 1122.33L330.979 1123.13L321.719 673.566L389.783 676.384Z" fill="#2B2B3B"/>
<path fill-rule="evenodd" clip-rule="evenodd" d="M346.382 674.692L255.849 1124.06H203.572L266.987 670.521L346.382 674.692Z" fill="#2B2B3B"/>
<path fill-rule="evenodd" clip-rule="evenodd" d="M229.391 542.824L261.836 584.054L250.881 658.819C250.045 665.112 254.779 670.77 261.123 671.06L394.574 676.593C401.419 676.906 407.214 671.595 407.497 664.751L392.048 585.934C392.048 585.934 409.259 574.826 397.767 544.952C389.729 524.077 366.57 517.448 365.047 516.55C365.038 516.546 353.597 513.522 347.716 512.452C347.716 512.452 305.76 510.954 291.885 512.474C255.579 516.455 229.391 542.824 229.391 542.824Z" fill="#F95C5E"/>
<path fill-rule="evenodd" clip-rule="evenodd" d="M396.401 608.133L390.206 583.527L406.934 617.154L396.401 608.133Z" fill="#C9191E"/>
<path fill-rule="evenodd" clip-rule="evenodd" d="M324.214 783.133L335.974 730.777L327.126 889.504L324.214 783.133Z" fill="#121216"/>
<path fill-rule="evenodd" clip-rule="evenodd" d="M282.553 514.014L174.704 553.952C174.704 553.952 158.666 566.954 169.263 588.774C175.659 601.945 189.515 603.453 197.042 601.897C217.583 597.646 276.664 580.274 276.664 580.274L282.553 514.014Z" fill="#F95C5E"/>
<path fill-rule="evenodd" clip-rule="evenodd" d="M198.11 595.155C188.243 599.158 174.728 599.158 168.336 587.842C156.401 566.723 174.702 553.954 174.702 553.954L249.81 501.389L265.953 522.49C265.953 522.49 218.861 586.737 198.11 595.155Z" fill="#845D48"/>
<path fill-rule="evenodd" clip-rule="evenodd" d="M281.346 513.324L269.794 583.347L308.644 586.377L291.83 507.067C291.83 507.067 290.415 505.717 286.435 507.675C282.83 509.449 281.346 513.324 281.346 513.324Z" fill="#9696FA"/>
<path fill-rule="evenodd" clip-rule="evenodd" d="M281.346 513.327L267.934 591.713L287.359 593.227V584.719L283.205 584.426L286.435 507.678C286.435 507.678 284.439 508.661 283.414 509.867C281.795 511.773 281.346 513.327 281.346 513.327Z" fill="#6969F5"/>
<g clip-path="url(#clip1_2178_3006)">
<rect x="648" y="102" width="508" height="565" rx="18" fill="white"/>
<path d="M685.588 517.822V496.637H744.26V517.822C744.26 520.492 743.614 522.49 742.323 523.816C741.031 525.16 739.231 525.831 736.923 525.831H693.7C690.996 525.831 688.964 525.16 687.603 523.816C686.26 522.49 685.588 520.492 685.588 517.822ZM685.588 493.253V486.329C685.588 483.728 686.208 481.782 687.448 480.49C688.688 479.198 690.445 478.552 692.719 478.552H700.082C700.926 478.552 701.658 478.613 702.278 478.733C702.915 478.854 703.492 479.052 704.009 479.327C704.543 479.603 705.094 479.982 705.662 480.464L707.238 481.756C707.893 482.307 708.521 482.703 709.124 482.944C709.727 483.168 710.468 483.28 711.346 483.28H736.148C738.835 483.28 740.859 483.952 742.219 485.295C743.58 486.639 744.26 488.637 744.26 491.289V493.253H685.588Z" fill="#9696FA" fill-opacity="0.98"/>
<rect x="767" y="513" width="272" height="10" rx="4" fill="#CACAFB"/>
<rect x="767" y="488" width="249" height="14" rx="4" fill="#9696FA" fill-opacity="0.82"/>
<g clip-path="url(#clip2_2178_3006)">
<rect x="1062" y="485" width="53.9846" height="37.884" rx="18.942" fill="#00A95F" fill-opacity="0.2"/>
<path fill-rule="evenodd" clip-rule="evenodd" d="M1078.34 502.631C1078.34 505.347 1080.09 507.548 1082.24 507.548C1084.39 507.548 1086.14 505.347 1086.14 502.631C1086.14 499.916 1084.39 497.714 1082.24 497.714C1080.09 497.714 1078.34 499.916 1078.34 502.631Z" fill="#E49C34"/>
<path d="M1087.57 522.109L1087.73 516.462C1087.73 516.462 1080.89 517.008 1079.42 516.246C1079.42 516.246 1077.63 507.002 1079.77 501.883L1079.81 501.683L1094.26 499.989L1095.07 508.299C1095.55 506.861 1099.57 505.229 1100.62 507.289C1102.9 511.754 1094.76 514.76 1094.76 514.76L1095.59 522.177" fill="#EAC7B2"/>
<path opacity="0.398926" fill-rule="evenodd" clip-rule="evenodd" d="M1087.73 516.462L1092.35 515.469L1087.75 518.58L1087.73 516.462Z" fill="#161616"/>
<path d="M1093.99 509.718C1095.36 507.368 1097.35 506.651 1098.24 506.441C1098.59 505.413 1098.86 504.221 1099.05 502.953C1099.56 499.559 1097.1 496.464 1095.11 495.575C1093.1 494.675 1089.63 493.428 1084.55 495.12C1081.13 496.259 1078.95 493.533 1076.94 494.697C1073.51 496.687 1076.7 505.399 1085.41 503.186C1091.64 501.603 1091.8 502 1091.85 503.151C1092.02 506.87 1092.6 509.059 1093.99 509.718Z" fill="#F6B852"/>
<path fill-rule="evenodd" clip-rule="evenodd" d="M1084.5 508.391C1084.5 509.615 1085.49 510.607 1086.71 510.607C1087.94 510.607 1088.93 509.615 1088.93 508.391C1088.93 507.167 1087.94 506.175 1086.71 506.175C1085.49 506.175 1084.5 507.167 1084.5 508.391Z" stroke="#252535" stroke-width="0.757679"/>
<path fill-rule="evenodd" clip-rule="evenodd" d="M1078.94 508.391C1078.94 509.615 1079.93 510.607 1081.15 510.607C1082.37 510.607 1083.36 509.615 1083.36 508.391C1083.36 507.167 1082.37 506.175 1081.15 506.175C1079.93 506.175 1078.94 507.167 1078.94 508.391Z" stroke="#252535" stroke-width="0.757679"/>
<path d="M1083.54 508.494H1084.49" stroke="#252535" stroke-width="0.757679"/>
<path d="M1088.93 508.391H1094.39" stroke="#252535" stroke-width="0.757679"/>
</g>
<rect x="1063.5" y="486.5" width="50.9846" height="34.884" rx="17.442" stroke="#00A95F" stroke-width="3"/>
<path d="M685.588 205.822V184.637H744.26V205.822C744.26 208.492 743.614 210.49 742.323 211.816C741.031 213.16 739.231 213.831 736.923 213.831H693.7C690.996 213.831 688.964 213.16 687.603 211.816C686.26 210.49 685.588 208.492 685.588 205.822ZM685.588 181.253V174.329C685.588 171.728 686.208 169.782 687.448 168.49C688.688 167.198 690.445 166.552 692.719 166.552H700.082C700.926 166.552 701.658 166.613 702.278 166.733C702.915 166.854 703.492 167.052 704.009 167.327C704.543 167.603 705.094 167.982 705.662 168.464L707.238 169.756C707.893 170.307 708.521 170.703 709.124 170.944C709.727 171.168 710.468 171.28 711.346 171.28H736.148C738.835 171.28 740.859 171.952 742.219 173.295C743.58 174.639 744.26 176.637 744.26 179.289V181.253H685.588Z" fill="#9696FA" fill-opacity="0.98"/>
<rect x="767" y="201" width="177" height="10" rx="4" fill="#CACAFB"/>
<rect x="767" y="176" width="152" height="14" rx="4" fill="#9696FA" fill-opacity="0.82"/>
<g clip-path="url(#clip3_2178_3006)">
<rect x="1062" y="172" width="53.9846" height="37.884" rx="18.942" fill="#FDDBFA"/>
<path d="M1074.87 194.625C1074.86 194.748 1074.86 194.872 1074.86 194.996C1074.86 195.085 1074.86 195.172 1074.86 195.261L1074.86 195.261L1074.86 198.118L1074.83 219.111L1103.07 219.153L1103.1 195.303L1103.07 195.303C1103.09 194.977 1103.1 194.648 1103.11 194.316C1103.11 191.113 1102.05 188.158 1100.26 185.787C1103.52 184.948 1105.94 181.984 1105.95 178.454C1105.95 174.267 1102.56 170.868 1098.38 170.861C1094.19 170.855 1090.79 174.244 1090.78 178.431C1090.78 179.083 1090.86 179.715 1091.02 180.318C1090.36 180.224 1089.69 180.174 1089 180.173C1081.21 180.162 1074.87 186.475 1074.86 194.274C1074.86 194.391 1074.86 194.508 1074.87 194.625Z" fill="#3A3A3A"/>
<path d="M1089.1 194.275C1088.87 194.348 1088.63 194.41 1088.38 194.462C1088.18 194.504 1087.98 194.538 1087.77 194.564C1087.43 194.609 1087.09 194.63 1086.74 194.629C1084.51 194.626 1082.58 193.729 1081.54 192.397C1081.48 192.61 1081.42 192.818 1081.35 193.023C1081.31 193.127 1081.27 193.235 1081.23 193.339C1080.95 194.04 1080.58 194.689 1080.13 195.269C1079.51 196.075 1078.74 196.746 1077.86 197.235C1078.25 200.053 1079.22 203.842 1081.49 205.353C1082.74 206.185 1085.01 206.287 1086.95 206.175L1087.39 211.676C1087.39 211.676 1090.54 210.305 1092.34 209.289C1092.65 209.115 1092.92 208.95 1093.12 208.805C1093.09 208.481 1093.01 207.727 1092.91 206.785V206.782C1092.73 205.086 1092.49 202.781 1092.33 201.262C1093.39 199.654 1096.28 199.292 1096.29 197.03C1096.29 196.352 1095.89 195.18 1094.43 195.178C1092.47 195.174 1092.74 197.527 1092.74 197.527C1091.63 197.959 1090.31 196.275 1089.1 194.275Z" fill="#EAC7B2"/>
<path opacity="0.401344" fill-rule="evenodd" clip-rule="evenodd" d="M1086.95 206.176C1086.95 206.176 1089.4 206.248 1090.44 205.678L1087.08 207.789L1086.95 206.176Z" fill="#161616"/>
</g>
<rect x="1063.5" y="173.5" width="50.9846" height="34.884" rx="17.442" stroke="#A558A0" stroke-width="3"/>
<path d="M753.004 309.134C753.307 309.134 753.56 309.235 753.763 309.438C753.965 309.64 754.066 309.893 754.066 310.197C754.066 310.5 753.965 310.759 753.763 310.972C753.56 311.175 753.307 311.276 753.004 311.276H740.659C740.344 311.276 740.08 311.175 739.866 310.972C739.664 310.759 739.563 310.5 739.563 310.197C739.563 309.893 739.664 309.64 739.866 309.438C740.08 309.235 740.344 309.134 740.659 309.134H753.004ZM753.004 314.784C753.307 314.784 753.56 314.891 753.763 315.104C753.965 315.318 754.066 315.576 754.066 315.88C754.066 316.172 753.965 316.42 753.763 316.622C753.56 316.824 753.307 316.926 753.004 316.926H740.659C740.344 316.926 740.08 316.824 739.866 316.622C739.664 316.42 739.563 316.172 739.563 315.88C739.563 315.576 739.664 315.318 739.866 315.104C740.08 314.891 740.344 314.784 740.659 314.784H753.004ZM738.011 325.088C736.201 325.088 734.835 324.622 733.913 323.688C732.991 322.755 732.53 321.378 732.53 319.557V294.108C732.53 292.297 732.991 290.926 733.913 289.993C734.835 289.048 736.201 288.576 738.011 288.576H746.14C746.848 288.576 747.467 288.626 747.995 288.728C748.523 288.818 749.013 288.992 749.462 289.25C749.912 289.498 750.373 289.863 750.845 290.347L759.682 299.336C760.177 299.83 760.548 300.308 760.795 300.769C761.054 301.219 761.228 301.719 761.318 302.27C761.408 302.81 761.453 303.473 761.453 304.26V319.557C761.453 321.367 760.992 322.738 760.07 323.672C759.148 324.616 757.782 325.088 755.972 325.088H738.011ZM738.281 321.766H755.702C756.523 321.766 757.136 321.558 757.541 321.142C757.945 320.726 758.148 320.13 758.148 319.354V304.716H749.058C747.854 304.716 746.955 304.418 746.359 303.822C745.774 303.226 745.482 302.326 745.482 301.123V291.881H738.298C737.477 291.881 736.864 292.095 736.459 292.522C736.055 292.949 735.852 293.551 735.852 294.327V319.354C735.852 320.13 736.055 320.726 736.459 321.142C736.864 321.558 737.471 321.766 738.281 321.766ZM749.378 301.798H757.692L748.4 292.337V300.803C748.4 301.151 748.473 301.404 748.619 301.562C748.776 301.719 749.029 301.798 749.378 301.798Z" fill="#9696FA"/>
<rect x="786" y="303.125" width="152" height="10" rx="4" fill="#CACAFB"/>
<path d="M753.004 570.134C753.307 570.134 753.56 570.235 753.763 570.438C753.965 570.64 754.066 570.893 754.066 571.197C754.066 571.5 753.965 571.759 753.763 571.972C753.56 572.175 753.307 572.276 753.004 572.276H740.659C740.344 572.276 740.08 572.175 739.866 571.972C739.664 571.759 739.563 571.5 739.563 571.197C739.563 570.893 739.664 570.64 739.866 570.438C740.08 570.235 740.344 570.134 740.659 570.134H753.004ZM753.004 575.784C753.307 575.784 753.56 575.891 753.763 576.104C753.965 576.318 754.066 576.576 754.066 576.88C754.066 577.172 753.965 577.42 753.763 577.622C753.56 577.824 753.307 577.926 753.004 577.926H740.659C740.344 577.926 740.08 577.824 739.866 577.622C739.664 577.42 739.563 577.172 739.563 576.88C739.563 576.576 739.664 576.318 739.866 576.104C740.08 575.891 740.344 575.784 740.659 575.784H753.004ZM738.011 586.088C736.201 586.088 734.835 585.622 733.913 584.688C732.991 583.755 732.53 582.378 732.53 580.557V555.108C732.53 553.297 732.991 551.926 733.913 550.993C734.835 550.048 736.201 549.576 738.011 549.576H746.14C746.848 549.576 747.467 549.626 747.995 549.728C748.523 549.818 749.013 549.992 749.462 550.25C749.912 550.498 750.373 550.863 750.845 551.347L759.682 560.336C760.177 560.83 760.548 561.308 760.795 561.769C761.054 562.219 761.228 562.719 761.318 563.27C761.408 563.81 761.453 564.473 761.453 565.26V580.557C761.453 582.367 760.992 583.738 760.07 584.672C759.148 585.616 757.782 586.088 755.972 586.088H738.011ZM738.281 582.766H755.702C756.523 582.766 757.136 582.558 757.541 582.142C757.945 581.726 758.148 581.13 758.148 580.354V565.716H749.058C747.854 565.716 746.955 565.418 746.359 564.822C745.774 564.226 745.482 563.326 745.482 562.123V552.881H738.298C737.477 552.881 736.864 553.095 736.459 553.522C736.055 553.949 735.852 554.551 735.852 555.327V580.354C735.852 581.13 736.055 581.726 736.459 582.142C736.864 582.558 737.471 582.766 738.281 582.766ZM749.378 562.798H757.692L748.4 553.337V561.803C748.4 562.151 748.473 562.404 748.619 562.562C748.776 562.719 749.029 562.798 749.378 562.798Z" fill="#9696FA"/>
<rect x="786" y="564" width="98" height="10" rx="4" fill="#CACAFB"/>
<path d="M731.872 633.648C730.062 633.648 728.685 633.181 727.74 632.248C726.807 631.315 726.341 629.954 726.341 628.167V609.514C726.341 607.715 726.79 606.355 727.69 605.433C728.589 604.5 729.843 604.033 731.451 604.033H762.094C763.915 604.033 765.293 604.5 766.226 605.433C767.17 606.355 767.643 607.715 767.643 609.514V628.167C767.643 629.954 767.193 631.315 766.293 632.248C765.394 633.181 764.14 633.648 762.532 633.648H731.872ZM731.872 630.528H762.094C762.87 630.528 763.471 630.32 763.899 629.904C764.326 629.488 764.539 628.881 764.539 628.082V609.599C764.539 608.8 764.326 608.193 763.899 607.777C763.471 607.361 762.87 607.153 762.094 607.153H731.872C731.096 607.153 730.495 607.361 730.068 607.777C729.652 608.193 729.444 608.795 729.444 609.582V628.066C729.444 628.875 729.652 629.488 730.068 629.904C730.495 630.32 731.096 630.528 731.872 630.528ZM756.208 615.619C755.826 615.619 755.505 615.496 755.247 615.248C755 614.99 754.876 614.669 754.876 614.287V611.1C754.876 610.729 755 610.419 755.247 610.172C755.505 609.913 755.826 609.784 756.208 609.784H760.559C760.953 609.784 761.273 609.913 761.521 610.172C761.768 610.419 761.892 610.729 761.892 611.1V614.287C761.892 614.669 761.768 614.99 761.521 615.248C761.273 615.496 760.953 615.619 760.559 615.619H756.208ZM740.693 621.741C740.4 621.741 740.142 621.634 739.917 621.421C739.703 621.207 739.596 620.949 739.596 620.645C739.596 620.341 739.703 620.083 739.917 619.869C740.142 619.656 740.4 619.549 740.693 619.549H753.274C753.589 619.549 753.853 619.656 754.066 619.869C754.28 620.083 754.387 620.341 754.387 620.645C754.387 620.949 754.28 621.207 754.066 621.421C753.853 621.634 753.589 621.741 753.274 621.741H740.693ZM740.693 626.143C740.4 626.143 740.142 626.036 739.917 625.823C739.703 625.598 739.596 625.333 739.596 625.03C739.596 624.726 739.703 624.473 739.917 624.271C740.142 624.057 740.4 623.951 740.693 623.951H750.137C750.452 623.951 750.71 624.057 750.913 624.271C751.126 624.473 751.233 624.726 751.233 625.03C751.233 625.333 751.126 625.598 750.913 625.823C750.71 626.036 750.452 626.143 750.137 626.143H740.693Z" fill="#9696FA"/>
<rect x="786" y="615" width="200" height="10" rx="4" fill="#CACAFB"/>
<path d="M731.872 270.648C730.062 270.648 728.685 270.181 727.74 269.248C726.807 268.315 726.341 266.954 726.341 265.167V246.514C726.341 244.715 726.79 243.355 727.69 242.433C728.589 241.5 729.843 241.033 731.451 241.033H762.094C763.915 241.033 765.293 241.5 766.226 242.433C767.17 243.355 767.643 244.715 767.643 246.514V265.167C767.643 266.954 767.193 268.315 766.293 269.248C765.394 270.181 764.14 270.648 762.532 270.648H731.872ZM731.872 267.528H762.094C762.87 267.528 763.471 267.32 763.899 266.904C764.326 266.488 764.539 265.881 764.539 265.082V246.599C764.539 245.8 764.326 245.193 763.899 244.777C763.471 244.361 762.87 244.153 762.094 244.153H731.872C731.096 244.153 730.495 244.361 730.068 244.777C729.652 245.193 729.444 245.795 729.444 246.582V265.066C729.444 265.875 729.652 266.488 730.068 266.904C730.495 267.32 731.096 267.528 731.872 267.528ZM756.208 252.619C755.826 252.619 755.505 252.496 755.247 252.248C755 251.99 754.876 251.669 754.876 251.287V248.1C754.876 247.729 755 247.419 755.247 247.172C755.505 246.913 755.826 246.784 756.208 246.784H760.559C760.953 246.784 761.273 246.913 761.521 247.172C761.768 247.419 761.892 247.729 761.892 248.1V251.287C761.892 251.669 761.768 251.99 761.521 252.248C761.273 252.496 760.953 252.619 760.559 252.619H756.208ZM740.693 258.741C740.4 258.741 740.142 258.634 739.917 258.421C739.703 258.207 739.596 257.949 739.596 257.645C739.596 257.341 739.703 257.083 739.917 256.869C740.142 256.656 740.4 256.549 740.693 256.549H753.274C753.589 256.549 753.853 256.656 754.066 256.869C754.28 257.083 754.387 257.341 754.387 257.645C754.387 257.949 754.28 258.207 754.066 258.421C753.853 258.634 753.589 258.741 753.274 258.741H740.693ZM740.693 263.143C740.4 263.143 740.142 263.036 739.917 262.823C739.703 262.598 739.596 262.333 739.596 262.03C739.596 261.726 739.703 261.473 739.917 261.271C740.142 261.057 740.4 260.951 740.693 260.951H750.137C750.452 260.951 750.71 261.057 750.913 261.271C751.126 261.473 751.233 261.726 751.233 262.03C751.233 262.333 751.126 262.598 750.913 262.823C750.71 263.036 750.452 263.143 750.137 263.143H740.693Z" fill="#9696FA"/>
<rect x="786" y="252" width="184" height="10" rx="4" fill="#CACAFB"/>
<path d="M733.047 424.575C731.225 424.575 729.848 424.114 728.915 423.192C727.982 422.27 727.515 420.91 727.515 419.111V398.57C727.515 396.771 727.982 395.41 728.915 394.489C729.848 393.555 731.225 393.089 733.047 393.089H761.919C763.752 393.089 765.135 393.555 766.068 394.489C767.001 395.41 767.468 396.771 767.468 398.57V419.111C767.468 420.91 767.001 422.27 766.068 423.192C765.135 424.114 763.752 424.575 761.919 424.575H733.047ZM733.249 421.27H761.734C762.51 421.27 763.106 421.067 763.522 420.663C763.938 420.247 764.146 419.634 764.146 418.824V398.857C764.146 398.047 763.938 397.44 763.522 397.035C763.106 396.619 762.51 396.411 761.734 396.411H733.249C732.462 396.411 731.861 396.619 731.445 397.035C731.04 397.44 730.838 398.047 730.838 398.857V418.824C730.838 419.634 731.04 420.247 731.445 420.663C731.861 421.067 732.462 421.27 733.249 421.27ZM744.532 415.435C744.228 415.615 743.925 415.693 743.621 415.671C743.329 415.637 743.081 415.525 742.879 415.333C742.677 415.131 742.575 414.867 742.575 414.541V403.123C742.575 402.797 742.677 402.539 742.879 402.348C743.081 402.156 743.334 402.05 743.638 402.027C743.953 401.993 744.251 402.061 744.532 402.229L753.909 407.778C754.178 407.935 754.358 408.155 754.448 408.436C754.538 408.706 754.538 408.981 754.448 409.262C754.37 409.532 754.19 409.751 753.909 409.92L744.532 415.435Z" fill="#9696FA"/>
<rect x="786" y="405" width="127" height="10" rx="4" fill="#CACAFB"/>
<path d="M765.714 367.15C765.781 368.78 765.399 370.022 764.567 370.877C763.735 371.731 762.47 372.159 760.773 372.159H733.452C732.046 372.159 730.984 371.76 730.264 370.961C729.545 370.163 729.162 368.982 729.117 367.42L735.475 361.719C735.824 361.393 736.172 361.157 736.521 361.011C736.881 360.854 737.257 360.775 737.651 360.775C738.044 360.775 738.432 360.859 738.815 361.028C739.208 361.185 739.579 361.421 739.928 361.736L743.048 364.553L750.654 357.739C751.047 357.402 751.452 357.149 751.868 356.98C752.284 356.812 752.722 356.727 753.183 356.727C753.633 356.727 754.072 356.817 754.499 356.997C754.937 357.166 755.342 357.424 755.713 357.773L765.714 367.15ZM740.585 358.144C739.843 358.144 739.163 357.964 738.545 357.604C737.938 357.245 737.449 356.756 737.078 356.137C736.718 355.519 736.538 354.839 736.538 354.096C736.538 353.366 736.718 352.691 737.078 352.073C737.449 351.454 737.938 350.965 738.545 350.605C739.163 350.234 739.843 350.049 740.585 350.049C741.327 350.049 742.002 350.234 742.609 350.605C743.216 350.965 743.7 351.454 744.06 352.073C744.431 352.691 744.616 353.366 744.616 354.096C744.616 354.839 744.431 355.519 744.06 356.137C743.7 356.756 743.216 357.245 742.609 357.604C742.002 357.964 741.327 358.144 740.585 358.144ZM733.047 373.575C731.225 373.575 729.848 373.114 728.915 372.192C727.982 371.27 727.515 369.91 727.515 368.111V347.57C727.515 345.771 727.982 344.41 728.915 343.489C729.848 342.555 731.225 342.089 733.047 342.089H761.919C763.752 342.089 765.135 342.555 766.068 343.489C767.001 344.41 767.468 345.771 767.468 347.57V368.111C767.468 369.91 767.001 371.27 766.068 372.192C765.135 373.114 763.752 373.575 761.919 373.575H733.047ZM733.249 370.27H761.734C762.51 370.27 763.106 370.067 763.522 369.663C763.938 369.247 764.146 368.634 764.146 367.824V347.857C764.146 347.047 763.938 346.44 763.522 346.035C763.106 345.619 762.51 345.411 761.734 345.411H733.249C732.462 345.411 731.861 345.619 731.445 346.035C731.04 346.44 730.838 347.047 730.838 347.857V367.824C730.838 368.634 731.04 369.247 731.445 369.663C731.861 370.067 732.462 370.27 733.249 370.27Z" fill="#9696FA"/>
<rect x="786" y="354" width="163" height="10" rx="4" fill="#CACAFB"/>
<path d="M649 544H1157V667H649V544Z" fill="url(#paint0_linear_2178_3006)"/>
</g>
<rect x="649.447" y="103.447" width="505.106" height="562.106" rx="16.5532" stroke="#D5D5FC" stroke-width="2.89362"/>
<rect x="649.447" y="103.447" width="505.106" height="562.106" rx="16.5532" stroke="url(#paint1_linear_2178_3006)" stroke-width="2.89362"/>
<mask id="path-97-outside-1_2178_3006" maskUnits="userSpaceOnUse" x="835" y="48" width="123" height="82" fill="black">
<rect fill="white" x="835" y="48" width="123" height="82"/>
<path d="M931.518 126.885C936.27 126.885 940.334 125.984 943.71 124.181C947.052 122.346 949.625 119.888 951.428 116.807C953.23 113.727 954.131 110.285 954.131 106.484C954.131 102.912 953.361 99.7326 951.821 96.947C950.281 94.1285 948.199 91.7689 945.578 89.8681C942.956 87.9345 940.023 86.5416 936.778 85.6895C936.385 80.8392 935.205 76.3329 933.239 72.1708C931.24 68.0086 928.65 64.3709 925.472 61.2575C922.26 58.1113 918.606 55.6533 914.509 53.8836C910.412 52.1139 906.037 51.229 901.384 51.229C893.551 51.229 886.849 53.1954 881.277 57.1281C875.706 61.0608 871.315 66.37 868.103 73.0556C863.875 73.0229 859.959 73.6783 856.354 75.022C852.749 76.3329 849.603 78.201 846.915 80.6261C844.228 83.0513 842.13 85.9026 840.623 89.1798C839.115 92.4243 838.362 95.9474 838.362 99.749C838.362 103.551 839.083 107.09 840.525 110.367C841.967 113.645 843.982 116.529 846.571 119.019C849.127 121.477 852.126 123.411 855.567 124.82C859.008 126.197 862.728 126.885 866.726 126.885H931.518Z"/>
</mask>
<path d="M931.518 126.885C936.27 126.885 940.334 125.984 943.71 124.181C947.052 122.346 949.625 119.888 951.428 116.807C953.23 113.727 954.131 110.285 954.131 106.484C954.131 102.912 953.361 99.7326 951.821 96.947C950.281 94.1285 948.199 91.7689 945.578 89.8681C942.956 87.9345 940.023 86.5416 936.778 85.6895C936.385 80.8392 935.205 76.3329 933.239 72.1708C931.24 68.0086 928.65 64.3709 925.472 61.2575C922.26 58.1113 918.606 55.6533 914.509 53.8836C910.412 52.1139 906.037 51.229 901.384 51.229C893.551 51.229 886.849 53.1954 881.277 57.1281C875.706 61.0608 871.315 66.37 868.103 73.0556C863.875 73.0229 859.959 73.6783 856.354 75.022C852.749 76.3329 849.603 78.201 846.915 80.6261C844.228 83.0513 842.13 85.9026 840.623 89.1798C839.115 92.4243 838.362 95.9474 838.362 99.749C838.362 103.551 839.083 107.09 840.525 110.367C841.967 113.645 843.982 116.529 846.571 119.019C849.127 121.477 852.126 123.411 855.567 124.82C859.008 126.197 862.728 126.885 866.726 126.885H931.518Z" fill="url(#paint2_linear_2178_3006)"/>
<path d="M943.71 124.181L945.153 126.811L945.138 126.819L945.123 126.827L943.71 124.181ZM951.821 96.947L949.195 98.3986L949.192 98.3922L949.188 98.3857L951.821 96.947ZM945.578 89.8681L943.817 92.2969L943.807 92.2897L943.797 92.2825L945.578 89.8681ZM936.778 85.6895L936.016 88.5911L933.96 88.0511L933.788 85.932L936.778 85.6895ZM933.239 72.1708L935.943 70.8719L935.947 70.8806L935.951 70.8893L933.239 72.1708ZM925.472 61.2575L923.372 63.4008L923.372 63.4005L925.472 61.2575ZM868.103 73.0556L870.807 74.3547L869.983 76.0703L868.08 76.0555L868.103 73.0556ZM856.354 75.022L857.402 77.8331L857.39 77.8373L857.379 77.8414L856.354 75.022ZM840.623 89.1798L843.348 90.4336L843.344 90.444L840.623 89.1798ZM846.571 119.019L844.492 121.182L844.491 121.181L846.571 119.019ZM855.567 124.82L854.453 127.606L854.442 127.601L854.43 127.596L855.567 124.82ZM931.518 123.885C935.894 123.885 939.449 123.055 942.296 121.535L945.123 126.827C941.219 128.912 936.646 129.885 931.518 129.885V123.885ZM942.266 121.551C945.167 119.959 947.329 117.872 948.838 115.292L954.017 118.322C951.922 121.903 948.938 124.733 945.153 126.811L942.266 121.551ZM948.838 115.292C950.354 112.701 951.131 109.789 951.131 106.484H957.131C957.131 110.782 956.106 114.752 954.017 118.322L948.838 115.292ZM951.131 106.484C951.131 103.356 950.461 100.688 949.195 98.3986L954.446 95.4953C956.261 98.7775 957.131 102.467 957.131 106.484H951.131ZM949.188 98.3857C947.863 95.9612 946.081 93.9386 943.817 92.2969L947.339 87.4392C950.318 89.5991 952.698 92.2959 954.453 95.5083L949.188 98.3857ZM943.797 92.2825C941.49 90.581 938.904 89.3497 936.016 88.5911L937.54 82.7879C941.141 83.7336 944.422 85.2879 947.358 87.4536L943.797 92.2825ZM933.788 85.932C933.422 81.4211 932.329 77.2693 930.526 73.4523L935.951 70.8893C938.081 75.3966 939.348 80.2573 939.768 85.4471L933.788 85.932ZM930.534 73.4697C928.681 69.61 926.293 66.2609 923.372 63.4008L927.571 59.1142C931.008 62.4809 933.798 66.4072 935.943 70.8719L930.534 73.4697ZM923.372 63.4005C920.422 60.5101 917.075 58.2601 913.319 56.6376L915.699 51.1296C920.136 53.0465 924.098 55.7124 927.571 59.1144L923.372 63.4005ZM913.319 56.6376C909.614 55.0371 905.646 54.229 901.384 54.229V48.229C906.429 48.229 911.21 49.1906 915.699 51.1296L913.319 56.6376ZM901.384 54.229C894.075 54.229 888 56.0548 883.008 59.579L879.547 54.6772C885.698 50.3359 893.027 48.229 901.384 48.229V54.229ZM883.008 59.579C877.89 63.1916 873.817 68.0882 870.807 74.3547L865.399 71.7566C868.812 64.6518 873.523 58.9301 879.547 54.6772L883.008 59.579ZM868.08 76.0555C864.181 76.0253 860.632 76.6291 857.402 77.8331L855.306 72.2109C859.286 70.7275 863.569 70.0204 868.126 70.0557L868.08 76.0555ZM857.379 77.8414C854.115 79.0282 851.309 80.7024 848.925 82.8533L844.905 78.399C847.897 75.6996 851.382 73.6377 855.329 72.2026L857.379 77.8414ZM848.925 82.8533C846.539 85.0069 844.685 87.5272 843.348 90.4335L837.897 87.9261C839.576 84.2779 841.917 81.0958 844.905 78.399L848.925 82.8533ZM843.344 90.444C842.031 93.2679 841.362 96.3562 841.362 99.749H835.362C835.362 95.5386 836.199 91.5808 837.902 87.9157L843.344 90.444ZM841.362 99.749C841.362 103.161 842.006 106.286 843.271 109.159L837.779 111.576C836.159 107.894 835.362 103.941 835.362 99.749H841.362ZM843.271 109.159C844.554 112.077 846.343 114.637 848.651 116.857L844.491 121.181C841.621 118.42 839.379 115.212 837.779 111.576L843.271 109.159ZM848.65 116.857C850.921 119.04 853.596 120.771 856.704 122.044L854.43 127.596C850.656 126.051 847.334 123.915 844.492 121.182L848.65 116.857ZM856.681 122.035C859.741 123.259 863.079 123.885 866.726 123.885V129.885C862.377 129.885 858.276 129.135 854.453 127.606L856.681 122.035ZM866.726 123.885H931.518V129.885H866.726V123.885Z" fill="#D5D5FC" mask="url(#path-97-outside-1_2178_3006)"/>
<path d="M846.668 854.686L803.329 762.827" stroke="#CACAFB" stroke-width="11.327"/>
<path d="M894.773 710.532L803.329 762.828" stroke="#CACAFB" stroke-width="11.327"/>
<path d="M893.709 711.66H931.01" stroke="#CACAFB" stroke-width="11.327"/>
<path fill-rule="evenodd" clip-rule="evenodd" d="M818.782 863.041H900.11C900.11 855.644 894.113 849.647 886.716 849.647H832.176C824.779 849.647 818.782 855.644 818.782 863.041Z" fill="#E3E3FD"/>
<path fill-rule="evenodd" clip-rule="evenodd" d="M965.277 742.291C965.277 723.366 949.935 708.025 931.011 708.025C912.085 708.025 896.744 723.366 896.744 742.291" fill="#E3E3FD"/>
<path fill-rule="evenodd" clip-rule="evenodd" d="M724.509 1200.13H732.189L779.385 885.702H752.826L724.509 1200.13Z" fill="#8585F6" fill-opacity="0.61"/>
<path fill-rule="evenodd" clip-rule="evenodd" d="M858.965 1200.13H866.645L913.841 885.702H887.282L858.965 1200.13Z" fill="#8585F6" fill-opacity="0.61"/>
<path fill-rule="evenodd" clip-rule="evenodd" d="M1047.36 766.78H1162.18L1135.24 855.598H1020.42L1047.36 766.78Z" fill="#E3E3FD"/>
<path fill-rule="evenodd" clip-rule="evenodd" d="M1154.1 772.493L1131.1 848.33H1028.35L1051.35 772.493H1154.1Z" fill="white"/>
<path fill-rule="evenodd" clip-rule="evenodd" d="M1135.35 795.835L1134.25 799.46H1049.91L1051 795.835H1135.35Z" fill="#8585F6" fill-opacity="0.61"/>
<path fill-rule="evenodd" clip-rule="evenodd" d="M1129.96 803.222L1128.87 806.847H1047.29L1048.38 803.222H1129.96Z" fill="#8585F6" fill-opacity="0.61"/>
<path fill-rule="evenodd" clip-rule="evenodd" d="M1104.41 810.607L1103.31 814.234H1044.74L1045.83 810.607H1104.41Z" fill="#8585F6" fill-opacity="0.61"/>
<path fill-rule="evenodd" clip-rule="evenodd" d="M936.466 862.902H1051.28V855.598H936.466V862.902Z" fill="#E3E3FD"/>
<path fill-rule="evenodd" clip-rule="evenodd" d="M1051.28 862.902H1135.2V855.598H1051.28V862.902Z" fill="#ECECFE"/>
<path fill-rule="evenodd" clip-rule="evenodd" d="M1162.09 766.78H1169.14L1142.2 855.598H1135.15L1162.09 766.78Z" fill="#ECECFE"/>
<path fill-rule="evenodd" clip-rule="evenodd" d="M693.466 885.703H1127.2V862.904H693.466V885.703Z" fill="#8585F6" fill-opacity="0.61"/>
<path fill-rule="evenodd" clip-rule="evenodd" d="M1095.83 885.703H1265.04V862.904H1095.83V885.703Z" fill="#E3E3FD"/>
<path fill-rule="evenodd" clip-rule="evenodd" d="M1243.57 1200.13H1251.25L1222.93 885.702H1196.37L1243.57 1200.13Z" fill="#E3E3FD"/>
<path fill-rule="evenodd" clip-rule="evenodd" d="M1108.59 1200.13H1116.27L1087.96 885.702H1061.4L1108.59 1200.13Z" fill="#E3E3FD"/>
<path fill-rule="evenodd" clip-rule="evenodd" d="M1139.56 781.506L1138.46 785.133H1054.12L1055.21 781.506H1139.56Z" fill="#8585F6" fill-opacity="0.61"/>
<path fill-rule="evenodd" clip-rule="evenodd" d="M1128.33 788.893L1127.24 792.52H1052.1L1053.19 788.893H1128.33Z" fill="#8585F6" fill-opacity="0.61"/>
<path fill-rule="evenodd" clip-rule="evenodd" d="M1110.78 771.541L1096.43 773.279L1095.28 771.474L1096.04 769.828L1094.94 768.517L1108.35 766.78L1110.37 767.989L1108.68 769.683L1110.78 771.541Z" fill="#8585F6" fill-opacity="0.61"/>
<rect x="491" y="441.63" width="88" height="116" rx="4" transform="rotate(-23.1742 491 441.63)" fill="#D4D4FC"/>
<path d="M510.167 450.83L564.406 427.612" stroke="#6969F5" stroke-width="4"/>
<path d="M513.708 459.104L567.948 435.886" stroke="#6969F5" stroke-width="3"/>
<path d="M517.25 467.378L571.49 444.159" stroke="#6969F5" stroke-width="3"/>
<path d="M520.792 475.652L575.031 452.433" stroke="#6969F5" stroke-width="3"/>
<path d="M524.334 483.925L578.573 460.707" stroke="#6969F5" stroke-width="3"/>
<path d="M527.876 492.199L582.115 468.981" stroke="#6969F5" stroke-width="3"/>
<path d="M531.417 500.473L573.706 482.371" stroke="#6969F5" stroke-width="3"/>
</g>
<defs>
<linearGradient id="paint0_linear_2178_3006" x1="903" y1="544" x2="903" y2="667" gradientUnits="userSpaceOnUse">
<stop stop-color="#F8F8FE" stop-opacity="0"/>
<stop offset="1" stop-color="#F8F8FE"/>
</linearGradient>
<linearGradient id="paint1_linear_2178_3006" x1="901.851" y1="384.301" x2="902.343" y2="666.999" gradientUnits="userSpaceOnUse">
<stop stop-color="#F8F8FE" stop-opacity="0"/>
<stop offset="1" stop-color="#F8F8FE"/>
</linearGradient>
<linearGradient id="paint2_linear_2178_3006" x1="901.5" y1="30" x2="916.5" y2="234" gradientUnits="userSpaceOnUse">
<stop stop-color="white"/>
<stop offset="1" stop-color="#CACAFB"/>
</linearGradient>
<clipPath id="clip0_2178_3006">
<rect width="1360" height="1360" fill="white"/>
</clipPath>
<clipPath id="clip1_2178_3006">
<rect x="648" y="102" width="508" height="565" rx="18" fill="white"/>
</clipPath>
<clipPath id="clip2_2178_3006">
<rect x="1062" y="485" width="53.9846" height="37.884" rx="18.942" fill="white"/>
</clipPath>
<clipPath id="clip3_2178_3006">
<rect x="1062" y="172" width="53.9846" height="37.884" rx="18.942" fill="white"/>
</clipPath>
</defs>
</svg>
