<svg width="1360" height="1360" viewBox="0 0 1360 1360" fill="none" xmlns="http://www.w3.org/2000/svg">
<g clip-path="url(#clip0_2178_2425)">
<rect width="1360" height="1360" fill="white"/>
<path fill-rule="evenodd" clip-rule="evenodd" d="M1098.59 120.093C924.676 3.40655 713.167 126.656 515.039 185.686C341.784 237.306 143.763 263.445 56.7407 430.505C-33.2284 603.222 10.0044 816.254 95.1949 991.675C175.673 1157.39 318.18 1276.41 488.954 1320.5C659.606 1364.57 832.548 1320.24 980.792 1220.35C1152.31 1104.77 1322.9 957.226 1345.83 743.086C1371.04 507.555 1287.48 246.823 1098.59 120.093Z" fill="#F9F9FE"/>
<path fill-rule="evenodd" clip-rule="evenodd" d="M188.067 1132.82C267.746 1224.61 371.685 1290.22 488.954 1320.5C659.606 1364.57 832.548 1320.24 980.792 1220.35C1021.23 1193.1 1061.61 1164.07 1100.03 1132.82H188.067Z" fill="#ECECFD"/>
<rect x="66.4468" y="52.4468" width="594.106" height="526.106" rx="16.5532" fill="white"/>
<rect x="66.4468" y="52.4468" width="594.106" height="526.106" rx="16.5532" stroke="#E3E3FD" stroke-width="2.89362"/>
<rect x="66.4468" y="52.4468" width="594.106" height="526.106" rx="16.5532" stroke="url(#paint0_linear_2178_2425)" stroke-width="2.89362"/>
<rect x="505.001" y="104" width="26" height="26" rx="4" fill="#CACAFB"/>
<rect x="469" y="104" width="26" height="26" rx="4" fill="#CACAFB"/>
<rect x="541.002" y="104" width="26" height="26" rx="4" fill="#CACAFB"/>
<rect x="576.999" y="104" width="26" height="26" rx="4" fill="#CACAFB"/>
<rect x="134" y="195" width="469" height="10" rx="4" fill="#CACAFB"/>
<rect x="134" y="250" width="469" height="10" rx="4" fill="#CACAFB"/>
<rect x="134" y="353" width="469" height="10" rx="4" fill="#CACAFB"/>
<rect x="134" y="163" width="249" height="14" rx="4" fill="#CACAFB"/>
<rect x="195" y="111" width="153" height="14" rx="4" fill="#F6DCD5"/>
<rect x="134" y="283" width="469" height="9" rx="4" fill="#CACAFB"/>
<rect x="134" y="267" width="469" height="9" rx="4" fill="#CACAFB"/>
<rect x="134" y="370" width="469" height="9" rx="4" fill="#CACAFB"/>
<rect x="134" y="299" width="469" height="9" rx="4" fill="#CACAFB"/>
<rect x="134" y="386" width="469" height="10" rx="4" fill="#CACAFB"/>
<rect x="134" y="212" width="469" height="10" rx="4" fill="#CACAFB"/>
<rect x="134" y="315" width="469" height="10" rx="4" fill="#CACAFB"/>
<rect x="134" y="403" width="469" height="10" rx="4" fill="#CACAFB"/>
<rect x="134" y="420" width="391" height="9" rx="4" fill="#CACAFB"/>
<rect x="134" y="452" width="469" height="9" rx="4" fill="#CACAFB"/>
<rect x="134" y="436" width="469" height="9" rx="4" fill="#CACAFB"/>
<rect x="134" y="468" width="469" height="9" rx="4" fill="#CACAFB"/>
<rect x="134" y="505" width="262" height="10" rx="4" fill="#CACAFB"/>
<g clip-path="url(#clip1_2178_2425)">
<rect x="134" y="92" width="51" height="51" rx="25.5" fill="#E18B76" fill-opacity="0.3"/>
<path d="M173.483 110.289C173.703 110.586 173.816 110.901 173.801 111.236C174.23 112.662 174.461 114.17 174.464 115.731C174.464 115.931 174.461 116.13 174.454 116.328L174.478 133.597L141.709 133.649L141.684 115.806L141.695 115.806C141.695 115.797 141.695 115.788 141.695 115.779C141.682 106.943 149.006 99.77 158.055 99.7567C165.147 99.7464 171.193 104.137 173.483 110.289Z" fill="#3A3A3A"/>
<path fill-rule="evenodd" clip-rule="evenodd" d="M160.707 131.887C160.707 131.887 157.633 131.977 156.323 131.262L160.544 133.912L160.707 131.887Z" fill="#CF3E83"/>
<path d="M154.102 121.101C155.859 120.96 166.682 119.835 172.632 113.172L172.661 113.18C172.661 113.18 172.806 127.846 167.559 130.858C165.926 131.794 163.137 132.027 160.708 131.887L160.5 141.5L151 139C151 139 152.977 127.91 153.307 124.986C151.712 123.538 148.997 122.867 148.992 120.409C148.99 119.561 149.487 118.087 151.322 118.084C153.787 118.082 153.436 121.032 153.436 121.032C153.657 121.119 153.88 121.139 154.102 121.101Z" fill="#845D48"/>
<path opacity="0.395159" fill-rule="evenodd" clip-rule="evenodd" d="M160.702 131.886C160.702 131.886 157.628 131.977 156.318 131.262L160.538 133.912L160.702 131.886Z" fill="#161616"/>
</g>
<rect x="135.417" y="93.4167" width="48.1667" height="48.1667" rx="24.0833" stroke="#E18B76" stroke-width="2.83333"/>
<path d="M65 445H662V580H65V445Z" fill="url(#paint1_linear_2178_2425)"/>
<g clip-path="url(#clip2_2178_2425)">
<rect x="713" y="260" width="597" height="249" rx="18" fill="white"/>
<rect x="1153" y="313" width="26" height="26" rx="4" fill="#CACAFB"/>
<rect x="1117" y="313" width="26" height="26" rx="4" fill="#CACAFB"/>
<rect x="1189" y="313" width="26" height="26" rx="4" fill="#CACAFB"/>
<rect x="1225" y="313" width="26" height="26" rx="4" fill="#CACAFB"/>
<rect x="782" y="404" width="469" height="10" rx="4" fill="#CACAFB"/>
<rect x="782" y="372" width="249" height="14" rx="4" fill="#CACAFB"/>
<rect x="843" y="320" width="153" height="14" rx="4" fill="#EDE0BF"/>
<rect x="782" y="421" width="469" height="10" rx="4" fill="#CACAFB"/>
<rect x="782" y="438" width="168" height="10" rx="4" fill="#CACAFB"/>
<g clip-path="url(#clip3_2178_2425)">
<rect x="782" y="301" width="51" height="51" rx="25.5" fill="#C3992A" fill-opacity="0.3"/>
<path d="M823.319 328.392C823.322 328.534 823.324 328.677 823.324 328.82C823.325 328.923 823.325 329.024 823.322 329.127L823.325 329.127L823.33 332.428L823.367 356.687L789.522 356.735L789.48 329.176L789.521 329.176C789.493 328.799 789.479 328.418 789.478 328.034C789.472 324.334 790.745 320.919 792.893 318.179C788.977 317.209 786.081 313.785 786.074 309.706C786.067 304.867 790.128 300.939 795.146 300.932C800.164 300.924 804.238 304.841 804.245 309.679C804.246 310.432 804.149 311.163 803.965 311.86C804.752 311.751 805.557 311.693 806.375 311.692C815.721 311.679 823.309 318.974 823.323 327.986C823.323 328.121 823.322 328.257 823.319 328.392Z" fill="#3A3A3A"/>
<path d="M806.261 327.988C806.54 328.072 806.828 328.145 807.124 328.204C807.363 328.253 807.607 328.292 807.857 328.322C808.258 328.374 808.672 328.398 809.092 328.397C811.755 328.393 814.079 327.357 815.323 325.818C815.388 326.064 815.464 326.305 815.548 326.541C815.594 326.662 815.64 326.787 815.693 326.907C816.027 327.717 816.471 328.467 817.007 329.136C817.753 330.068 818.679 330.843 819.73 331.409C819.258 334.665 818.101 339.043 815.379 340.79C813.881 341.751 811.157 341.869 808.837 341.74L807.857 350.11C807.857 350.11 804.05 351.756 801.893 350.582C801.521 350.381 800.29 348.862 800.043 348.693C800.084 348.319 801.573 343.532 801.691 342.444V342.44C801.905 340.481 802.195 337.817 802.386 336.062C801.115 334.203 797.653 333.785 797.648 331.172C797.648 330.388 798.123 329.033 799.875 329.031C802.227 329.027 801.893 331.745 801.893 331.745C803.225 332.246 804.812 330.299 806.261 327.988Z" fill="#EAC7B2"/>
<path opacity="0.401344" fill-rule="evenodd" clip-rule="evenodd" d="M808.836 341.74C808.836 341.74 805.901 341.823 804.65 341.164L808.68 343.604L808.836 341.74Z" fill="#161616"/>
</g>
<rect x="783.417" y="302.417" width="48.1667" height="48.1667" rx="24.0833" stroke="#C3992A" stroke-width="2.83333"/>
<path d="M713 375H1310V510H713V375Z" fill="url(#paint2_linear_2178_2425)"/>
</g>
<rect x="714.447" y="261.447" width="594.106" height="246.106" rx="16.5532" stroke="#E3E3FD" stroke-width="2.89362"/>
<rect x="714.447" y="261.447" width="594.106" height="246.106" rx="16.5532" stroke="url(#paint3_linear_2178_2425)" stroke-width="2.89362"/>
<rect x="798.114" y="863" width="90" height="6" fill="#CACAFB"/>
<rect x="888.114" y="863" width="49" height="6" fill="#6A6AF4"/>
<path d="M879.614 813H943.614L929.114 863H865.114L879.614 813Z" fill="#CACAFB"/>
<path d="M943.615 813H954.115L937.614 869H927.114L943.615 813Z" fill="#6A6AF4"/>
<path d="M1123.87 560.74L1060.46 807.741C1059.67 810.836 1056.88 813 1053.68 813H1027.61L1094.11 552H1117.09C1121.66 552 1125.01 556.312 1123.87 560.74Z" fill="#6A6AF4"/>
<path fill-rule="evenodd" clip-rule="evenodd" d="M725.666 768L717.319 800.514C715.695 806.84 720.473 813 727.005 813H1043.36C1047.92 813 1051.91 809.908 1053.04 805.486L1062.67 768H725.666Z" fill="#ECECFE"/>
<path d="M885.069 785.962C885.384 785.809 885.722 785.809 885.956 785.962L888.471 787.61C888.704 787.763 888.798 788.046 888.716 788.352L887.837 791.648C887.756 791.954 887.511 792.237 887.196 792.39L883.802 794.038C883.487 794.192 883.149 794.192 882.915 794.038L880.4 792.39C880.167 792.237 880.073 791.954 880.155 791.648L881.034 788.352C881.115 788.046 881.36 787.763 881.675 787.61L885.069 785.962Z" fill="#6A6AF4"/>
<path d="M882.691 778.247C883.006 778.094 883.344 778.094 883.578 778.247L886.093 779.895C886.326 780.049 886.42 780.332 886.338 780.638L885.459 783.934C885.378 784.24 885.133 784.523 884.818 784.676L881.424 786.324C881.109 786.477 880.771 786.477 880.537 786.324L878.022 784.676C877.789 784.523 877.695 784.24 877.777 783.934L878.656 780.638C878.737 780.332 878.982 780.049 879.297 779.895L882.691 778.247Z" fill="#6A6AF4"/>
<path d="M891.562 778.247C891.877 778.094 892.215 778.094 892.449 778.247L894.964 779.895C895.197 780.049 895.291 780.332 895.209 780.638L894.33 783.934C894.249 784.24 894.004 784.523 893.689 784.676L890.295 786.324C889.98 786.477 889.642 786.477 889.408 786.324L886.893 784.676C886.66 784.523 886.566 784.24 886.648 783.934L887.527 780.638C887.608 780.332 887.853 780.049 888.168 779.895L891.562 778.247Z" fill="#6A6AF4"/>
<path d="M878.577 793.676C878.892 793.523 879.23 793.523 879.464 793.676L881.979 795.324C882.212 795.477 882.306 795.76 882.224 796.066L881.345 799.362C881.264 799.668 881.019 799.951 880.704 800.104L877.31 801.752C876.995 801.906 876.657 801.906 876.423 801.752L873.908 800.104C873.675 799.951 873.581 799.668 873.663 799.362L874.542 796.066C874.623 795.76 874.868 795.477 875.183 795.324L878.577 793.676Z" fill="#6A6AF4"/>
<path d="M876.198 785.962C876.513 785.809 876.851 785.809 877.085 785.962L879.6 787.61C879.833 787.763 879.927 788.046 879.845 788.352L878.966 791.648C878.885 791.954 878.64 792.237 878.325 792.39L874.931 794.038C874.616 794.192 874.278 794.192 874.044 794.038L871.529 792.39C871.296 792.237 871.202 791.954 871.284 791.648L872.163 788.352C872.244 788.046 872.489 787.763 872.804 787.61L876.198 785.962Z" fill="#6A6AF4"/>
<path d="M887.448 793.676C887.763 793.523 888.101 793.523 888.335 793.676L890.849 795.324C891.083 795.477 891.177 795.76 891.095 796.066L890.216 799.362C890.134 799.668 889.89 799.951 889.575 800.104L886.181 801.752C885.866 801.906 885.528 801.906 885.294 801.752L882.779 800.104C882.546 799.951 882.452 799.668 882.534 799.362L883.413 796.066C883.494 795.76 883.739 795.477 884.054 795.324L887.448 793.676Z" fill="#6A6AF4"/>
<path d="M893.94 785.962C894.255 785.809 894.593 785.809 894.827 785.962L897.342 787.61C897.575 787.763 897.669 788.046 897.587 788.352L896.708 791.648C896.627 791.954 896.382 792.237 896.067 792.39L892.673 794.038C892.358 794.192 892.02 794.192 891.786 794.038L889.271 792.39C889.038 792.237 888.944 791.954 889.026 791.648L889.905 788.352C889.986 788.046 890.231 787.763 890.546 787.61L893.94 785.962Z" fill="#6A6AF4"/>
<path fill-rule="evenodd" clip-rule="evenodd" d="M788.871 552C784.306 552 780.321 555.092 779.186 559.514L725.666 768H1062.67L1115.23 563.238C1116.69 557.544 1112.39 552 1106.51 552H788.871Z" fill="#CACAFB"/>
<path d="M793.114 563H1104.11L1050.11 768H739.114L793.114 563Z" fill="white"/>
<path fill-rule="evenodd" clip-rule="evenodd" d="M987.867 612.398L985.389 620.596H794.687L797.162 612.398H987.867Z" fill="#CACAFB"/>
<path fill-rule="evenodd" clip-rule="evenodd" d="M977.7 629.099L975.222 637.297H790.763L793.238 629.099H977.7Z" fill="#CACAFB"/>
<path fill-rule="evenodd" clip-rule="evenodd" d="M921.912 645.8L919.436 654H787L789.476 645.8H921.912Z" fill="#CACAFB"/>
<path fill-rule="evenodd" clip-rule="evenodd" d="M995.389 580L992.913 588.2H802.209L804.685 580H995.389Z" fill="#CACAFB"/>
<path fill-rule="evenodd" clip-rule="evenodd" d="M971.012 596.701L968.536 604.901H798.641L801.119 596.701H971.012Z" fill="#CACAFB"/>
<path fill-rule="evenodd" clip-rule="evenodd" d="M643.556 1261.15H661.921V893.458H643.556V1261.15Z" fill="#ECECFE"/>
<path fill-rule="evenodd" clip-rule="evenodd" d="M625.19 1261.15H643.555V893.458H625.19V1261.15Z" fill="#CACAFB"/>
<path fill-rule="evenodd" clip-rule="evenodd" d="M787.799 1261.15H806.164V893.458H787.799V1261.15Z" fill="#ECECFE"/>
<path fill-rule="evenodd" clip-rule="evenodd" d="M769.433 1261.15H787.798V893.458H769.433V1261.15Z" fill="#CACAFB"/>
<path fill-rule="evenodd" clip-rule="evenodd" d="M643.556 1047.94H787.799V893.458H643.556V1047.94Z" fill="#ECECFE"/>
<path fill-rule="evenodd" clip-rule="evenodd" d="M576 893.458H1058.05V869.001H576V893.458Z" fill="#CACAFB"/>
<path fill-rule="evenodd" clip-rule="evenodd" d="M1022.07 893.458H1216.18V869.001H1022.07V893.458Z" fill="#ECECFE"/>
<path fill-rule="evenodd" clip-rule="evenodd" d="M1148.23 1261.15H1167.87V893.458H1148.23V1261.15Z" fill="#ECECFE"/>
<path fill-rule="evenodd" clip-rule="evenodd" d="M1128.59 1261.15H1148.23V893.458H1128.59V1261.15Z" fill="#CACAFB"/>
<path fill-rule="evenodd" clip-rule="evenodd" d="M993.399 1261.15H1013.04V893.458H993.399V1261.15Z" fill="#ECECFE"/>
<path fill-rule="evenodd" clip-rule="evenodd" d="M993.399 1080.15H1148.23V893.564H993.399V1080.15Z" fill="#ECECFE"/>
<path fill-rule="evenodd" clip-rule="evenodd" d="M845.448 1080.06H973.76V893.476H845.448V1080.06Z" fill="#CACAFB"/>
<path fill-rule="evenodd" clip-rule="evenodd" d="M973.76 1261.15H993.399V893.458H973.76V1261.15Z" fill="#CACAFB"/>
<path fill-rule="evenodd" clip-rule="evenodd" d="M973.76 926.151H1167.87V893.458H973.76V926.151Z" fill="#CACAFB"/>
<path fill-rule="evenodd" clip-rule="evenodd" d="M625.19 926.151H806.165V893.458H625.19V926.151Z" fill="#CACAFB"/>
<path fill-rule="evenodd" clip-rule="evenodd" d="M866.176 975.91H953.033V911.245H866.176V975.91Z" fill="#ECECFE"/>
<path fill-rule="evenodd" clip-rule="evenodd" d="M866.176 1057.87H953.033V993.21H866.176V1057.87Z" fill="#ECECFE"/>
<path fill-rule="evenodd" clip-rule="evenodd" d="M923.209 943.577C923.209 951.236 917.118 957.446 909.605 957.446C902.091 957.446 896.001 951.236 896.001 943.577C896.001 935.918 902.091 929.709 909.605 929.709C917.118 929.709 923.209 935.918 923.209 943.577Z" fill="#CACAFB"/>
<path fill-rule="evenodd" clip-rule="evenodd" d="M923.209 1025.54C923.209 1033.2 917.118 1039.41 909.605 1039.41C902.091 1039.41 896.001 1033.2 896.001 1025.54C896.001 1017.88 902.091 1011.67 909.605 1011.67C917.118 1011.67 923.209 1017.88 923.209 1025.54Z" fill="#CACAFB"/>
<path fill-rule="evenodd" clip-rule="evenodd" d="M467.749 448.076C467.749 462.412 458.531 474.033 447.16 474.033C435.791 474.033 426.573 462.412 426.573 448.076C426.573 433.74 435.791 422.118 447.16 422.118C458.531 422.118 467.749 433.74 467.749 448.076Z" fill="#3A3A3A"/>
<path d="M419.028 550.906L418.167 521.092C418.167 521.092 454.314 523.977 462.047 519.951C462.047 519.951 471.498 471.149 460.226 444.124L459.998 443.072L383.716 434.129L379.44 478C376.87 470.404 355.664 461.791 350.121 472.668C338.107 496.238 381.061 512.109 381.061 512.109L376.699 551.263" fill="#EAC7B2"/>
<path opacity="0.398926" fill-rule="evenodd" clip-rule="evenodd" d="M418.167 521.092L393.792 515.854L418.05 532.277L418.167 521.092Z" fill="#161616"/>
<path d="M385.104 485.488C377.872 473.082 367.407 469.298 362.71 468.189C360.837 462.762 359.409 456.468 358.406 449.775C355.715 431.861 368.711 415.516 379.208 410.823C389.834 406.073 408.156 399.491 434.975 408.426C453.005 414.437 464.53 400.046 475.14 406.192C493.27 416.697 476.407 462.69 430.435 451.006C397.551 442.648 396.706 444.745 396.424 450.82C395.512 470.457 392.457 482.01 385.104 485.488Z" fill="#2F2F3D"/>
<path fill-rule="evenodd" clip-rule="evenodd" d="M435.206 478.484C435.206 484.945 429.979 490.182 423.532 490.182C417.085 490.182 411.858 484.945 411.858 478.484C411.858 472.023 417.085 466.785 423.532 466.785C429.979 466.785 435.206 472.023 435.206 478.484Z" stroke="#252535" stroke-width="4"/>
<path fill-rule="evenodd" clip-rule="evenodd" d="M464.6 478.484C464.6 484.945 459.373 490.182 452.927 490.182C446.479 490.182 441.252 484.945 441.252 478.484C441.252 472.023 446.479 466.785 452.927 466.785C459.373 466.785 464.6 472.023 464.6 478.484Z" stroke="#252535" stroke-width="4"/>
<path d="M440.301 479.026H435.254" stroke="#252535" stroke-width="4"/>
<path d="M411.858 478.484H383.021" stroke="#252535" stroke-width="4"/>
<path fill-rule="evenodd" clip-rule="evenodd" d="M449.048 1220.97L449.331 1196.52L417.828 1180.64L413.256 1250.53H522.402C503.831 1229.6 449.048 1220.97 449.048 1220.97ZM309.237 1221.92L309.521 1194.46L288.983 1211.19L272.455 1220.4L267.001 1250.53H341.703C332.311 1224.93 309.237 1221.92 309.237 1221.92Z" fill="#2F2F3D"/>
<path fill-rule="evenodd" clip-rule="evenodd" d="M309.521 1194.46L278.018 1184.98L272.454 1220.4L309.237 1221.92L309.521 1194.46ZM449.331 1196.52L417.828 1187.04L415.288 1219.45L449.048 1220.97L449.331 1196.52Z" fill="#EAC7B2"/>
<path d="M453.846 1188.5L453.119 1211.19H411.565L412.293 1188.43C407.638 1186.56 404.312 1182.07 404.198 1176.76L397.509 836.867L325.235 1180.02C324.217 1184.84 320.639 1188.59 316.095 1189.97L313.378 1211.19H269.808L273.558 1187.77C269.929 1184.95 267.827 1180.32 268.55 1175.38L335.09 720.577L395.221 720.577L395.218 720.403H468.047L463.682 1176.12C463.621 1182.12 459.455 1187.13 453.846 1188.5Z" fill="#2F2F3D"/>
<path opacity="0.197824" fill-rule="evenodd" clip-rule="evenodd" d="M397.14 842.253L409.892 785.682L400.298 957.189L397.14 842.253Z" fill="#161616"/>
<path d="M350.647 721.006L357.627 722.145L281.516 1185.62L274.516 1184.45L350.647 721.006Z" fill="#EFEFEF"/>
<path fill-rule="evenodd" clip-rule="evenodd" d="M498.164 741.415C498.164 741.415 484.694 743.051 482.131 748.88C474.797 765.551 489.993 795.355 489.993 795.355C489.993 795.355 483.555 791.557 482.274 794.879C481.702 796.356 480.41 808.163 504.531 808.959C507.093 809.043 513.254 804.007 513.254 804.007C513.254 804.007 508.762 812.298 515.64 813.927C515.64 813.927 526.725 797.872 526.895 794.299C527.064 790.726 523.506 772.641 521.582 768.988C519.659 765.336 498.164 741.415 498.164 741.415ZM311.44 761.989L307.067 753.688L282.423 750.945C280.644 753.679 277.288 760.091 275.747 764.334C272.764 772.553 272.439 776.003 271.936 781.336C271.81 782.678 271.672 784.138 271.478 785.823C270.68 792.764 270.625 799.742 273.339 809.03C275.084 814.997 276.946 820.071 277.916 819.858C280.359 819.32 280.452 816.278 280.452 816.278L279.3 810.627L278.778 805.11C278.778 805.11 287.456 829.538 288.191 829.403C290.791 828.927 291.206 824.645 291.206 824.645C291.206 824.645 293.923 833.077 295.293 832.772C298.774 831.994 298.444 828.089 298.444 828.089C298.444 828.089 299.543 829.022 300.387 828.786C303.542 827.903 303.446 822.488 303.39 819.315C303.386 819.061 303.382 818.822 303.379 818.6C303.379 818.6 301.984 808.613 302.269 805.535C303.722 789.85 306.227 786.12 307.599 784.076C307.729 783.883 307.849 783.705 307.956 783.533C310.111 784.955 310.909 787.39 311.756 789.976C312.372 791.855 313.014 793.815 314.222 795.521C317.901 800.715 328.159 805.621 322.424 793.723C319.24 787.115 318.448 783.051 317.713 779.277C317.282 777.065 316.871 774.952 316.007 772.485C313.671 765.813 311.44 761.989 311.44 761.989Z" fill="#EAC7B2"/>
<path opacity="0.145089" d="M494.918 762.952C494.918 762.952 498.303 775.312 509.92 779.165C513.981 780.512 512.967 796.41 522.923 794.508" stroke="#161616" stroke-width="3"/>
<path d="M370.829 551.951L372.025 532.819L427.574 536.247L426.489 553.604C457.663 565.54 460.355 577.197 467.82 592.521C475.994 609.305 484.469 660.849 484.469 660.849L519.969 749.824L476.449 773.902L465.747 753.296L466.015 725.799L333.03 725.795L332.1 691.935L320.77 759.855L271.03 762.191C271.03 762.191 270.045 691.456 279.516 650.536C285.545 624.471 315.005 576.038 342.901 559.383C349.713 555.316 359.938 553.087 370.829 551.951Z" fill="#F95C5E"/>
<path opacity="0.203544" d="M332.31 699.584L341.464 652.067L364.106 613.933" stroke="#161616" stroke-width="5"/>
<path opacity="0.1988" d="M464.015 725.998L468.34 656.759" stroke="#161616" stroke-width="5"/>
</g>
<defs>
<linearGradient id="paint0_linear_2178_2425" x1="363.325" y1="315.314" x2="363.692" y2="580" gradientUnits="userSpaceOnUse">
<stop stop-color="#F8F8FE" stop-opacity="0"/>
<stop offset="1" stop-color="#F8F8FE"/>
</linearGradient>
<linearGradient id="paint1_linear_2178_2425" x1="363.5" y1="445" x2="363.5" y2="580" gradientUnits="userSpaceOnUse">
<stop stop-color="#F8F8FE" stop-opacity="0"/>
<stop offset="1" stop-color="#F8F8FE"/>
</linearGradient>
<linearGradient id="paint2_linear_2178_2425" x1="1011.5" y1="375" x2="1011.5" y2="510" gradientUnits="userSpaceOnUse">
<stop stop-color="#F8F8FE" stop-opacity="0"/>
<stop offset="1" stop-color="#F8F8FE"/>
</linearGradient>
<linearGradient id="paint3_linear_2178_2425" x1="1011.32" y1="384.412" x2="1011.41" y2="509" gradientUnits="userSpaceOnUse">
<stop stop-color="#F8F8FE" stop-opacity="0"/>
<stop offset="1" stop-color="#F8F8FE"/>
</linearGradient>
<clipPath id="clip0_2178_2425">
<rect width="1360" height="1360" fill="white"/>
</clipPath>
<clipPath id="clip1_2178_2425">
<rect x="134" y="92" width="51" height="51" rx="25.5" fill="white"/>
</clipPath>
<clipPath id="clip2_2178_2425">
<rect x="713" y="260" width="597" height="249" rx="18" fill="white"/>
</clipPath>
<clipPath id="clip3_2178_2425">
<rect x="782" y="301" width="51" height="51" rx="25.5" fill="white"/>
</clipPath>
</defs>
</svg>
