<svg width="1360" height="1360" viewBox="0 0 1360 1360" fill="none" xmlns="http://www.w3.org/2000/svg">
<g clip-path="url(#clip0_2178_3160)">
<rect width="1360" height="1360" fill="white"/>
<path fill-rule="evenodd" clip-rule="evenodd" d="M968.548 68.5459C1238.31 197.619 1320.67 532.353 1261.33 825.712C1207.87 1089.97 983.853 1279.55 716.605 1314.04C464.772 1346.54 225.281 1203.43 117.979 973.282C18.2324 759.342 -7.26654 570.069 154.5 398.001C345.337 195.011 717.437 -51.6038 968.548 68.5459Z" fill="#F9F9FE"/>
<circle cx="680" cy="721" r="485" fill="#F4F4FD"/>
<circle cx="680" cy="721" r="343" fill="#EDEDFD"/>
<circle cx="680" cy="721" r="235" fill="#E4E4FC"/>
<path fill-rule="evenodd" clip-rule="evenodd" d="M1165.22 1049C1063.73 1193.26 900.39 1290.32 716.605 1314.04C493.695 1342.81 280.455 1233.99 159.999 1049H1165.22Z" fill="#ECECFD"/>
<g filter="url(#filter0_d_2178_3160)">
<g clip-path="url(#clip1_2178_3160)">
<rect x="487" y="200" width="110.168" height="110.168" rx="55.084" fill="white"/>
<rect x="487" y="200" width="110.168" height="110.168" rx="55.084" fill="#68A532" fill-opacity="0.3"/>
<path d="M576.359 259.173C576.367 259.481 576.371 259.79 576.371 260.1C576.372 260.322 576.372 260.539 576.367 260.762L576.372 260.762L576.384 267.894L576.464 320.296L503.354 320.401L503.262 260.867L503.35 260.867C503.29 260.053 503.259 259.231 503.258 258.402C503.246 250.408 505.994 243.032 510.635 237.112C502.176 235.018 495.919 227.621 495.905 218.809C495.889 208.357 504.663 199.871 515.502 199.856C526.341 199.84 535.141 208.3 535.157 218.752C535.16 220.378 534.95 221.956 534.552 223.463C536.253 223.226 537.991 223.103 539.759 223.1C559.948 223.071 576.338 238.829 576.369 258.297C576.369 258.59 576.366 258.882 576.359 259.173Z" fill="#3A3A3A"/>
<path d="M539.512 258.303C540.114 258.485 540.736 258.642 541.375 258.77C541.892 258.876 542.419 258.961 542.958 259.025C543.825 259.136 544.718 259.189 545.625 259.188C551.378 259.179 556.399 256.94 559.086 253.617C559.228 254.147 559.39 254.668 559.573 255.179C559.672 255.439 559.772 255.709 559.886 255.968C560.607 257.717 561.566 259.338 562.723 260.784C564.336 262.796 566.336 264.471 568.607 265.694C567.587 272.726 565.087 282.185 559.207 285.957C555.971 288.033 550.087 288.288 545.075 288.009L542.958 306.091C542.958 306.091 534.734 309.645 530.076 307.111C529.272 306.676 526.613 303.395 526.079 303.031C526.167 302.222 529.384 291.882 529.639 289.532V289.522C530.1 285.291 530.728 279.536 531.14 275.744C528.394 271.73 520.916 270.827 520.906 265.181C520.906 263.489 521.931 260.562 525.717 260.557C530.797 260.548 530.076 266.42 530.076 266.42C532.953 267.501 536.381 263.297 539.512 258.303Z" fill="#EAC7B2"/>
<path opacity="0.401344" fill-rule="evenodd" clip-rule="evenodd" d="M545.075 288.007C545.075 288.007 538.735 288.188 536.032 286.764L544.738 292.035L545.075 288.007Z" fill="#161616"/>
</g>
<rect x="490.06" y="203.06" width="104.048" height="104.048" rx="52.0238" stroke="#68A532" stroke-width="6.12044"/>
</g>
<g filter="url(#filter1_d_2178_3160)">
<g clip-path="url(#clip2_2178_3160)">
<rect x="854" y="231" width="110.168" height="110.168" rx="55.084" fill="white"/>
<rect x="854" y="231" width="110.168" height="110.168" rx="55.084" fill="#417DC4" fill-opacity="0.3"/>
<path d="M935.651 263.703C953.835 266.239 946.217 287.183 941.106 298.49C935.107 311.764 940.362 320.663 940.362 320.663L968.47 310.684C958.154 297.564 969.547 290.258 966.742 274.615C964.226 260.583 950.57 254.252 941.942 254.551C937.635 254.7 934.11 255.809 931.32 257.231C931.214 257.285 931.113 257.343 931.016 257.404C925.919 252.17 918.863 249.041 910.709 249.041C893.939 249.041 878.871 262.273 878.871 279.841C878.871 297.41 892.466 311.652 909.236 311.652C926.006 311.652 939.601 297.41 939.601 279.841C939.601 273.837 938.185 268.339 935.651 263.703Z" fill="#3A3A3A"/>
<path fill-rule="evenodd" clip-rule="evenodd" d="M906.27 312.492C906.27 312.492 912.506 312.676 915.163 311.224L906.601 316.6L906.27 312.492Z" fill="#CF3E83"/>
<path d="M883.023 288.99C883.958 296.225 886.384 306.42 892.373 310.403C895.551 312.515 901.338 312.775 906.271 312.491L907.499 336.5L928.499 333C928.499 333 921.949 304.413 921.278 298.486C924.514 295.554 930.026 294.194 930.036 289.213C930.036 287.486 929.028 284.501 925.305 284.492C920.309 284.487 921.023 290.476 921.023 290.476C920.404 290.717 919.783 290.703 919.164 290.482C914.217 290.276 900.457 288.205 891.102 272.219C890.01 277.6 887.741 284.307 883.023 288.99Z" fill="#FDE39C"/>
<path opacity="0.402786" fill-rule="evenodd" clip-rule="evenodd" d="M906.28 312.492C906.28 312.492 912.516 312.676 915.174 311.224L906.612 316.6L906.28 312.492Z" fill="#161616"/>
</g>
<rect x="857.06" y="234.06" width="104.048" height="104.048" rx="52.0238" stroke="#417DC4" stroke-width="6.12044"/>
</g>
<g filter="url(#filter2_d_2178_3160)">
<g clip-path="url(#clip3_2178_3160)">
<rect x="207" y="414" width="110.168" height="110.168" rx="55.084" fill="white"/>
<rect x="207" y="414" width="110.168" height="110.168" rx="55.084" fill="#A558A0" fill-opacity="0.3"/>
<path d="M269.541 518.588L269.131 504.45C269.131 504.45 286.31 505.818 289.984 503.909C289.984 503.909 294.475 480.767 289.119 467.951L289.011 467.452L252.759 463.211L250.482 483.727C249.261 480.125 239.428 476.328 236.794 481.487C231.085 492.664 251.497 500.19 251.497 500.19L249.425 518.758" fill="#E2A987"/>
<path opacity="0.397786" fill-rule="evenodd" clip-rule="evenodd" d="M269.133 504.449L257.549 501.965L269.077 509.753L269.133 504.449Z" fill="#161616"/>
<path fill-rule="evenodd" clip-rule="evenodd" d="M251.992 485.447C250.329 483.305 248.478 481.887 246.804 480.95L247.199 472.76L264.227 469.79C262.833 479.178 256.662 483.498 251.992 485.447Z" fill="#3A3A3A"/>
<path d="M234.342 470.213C234.342 470.213 228.54 449.396 245.237 437.907C265.905 423.687 289.827 461.047 289.827 461.047" fill="#C9191E"/>
<path fill-rule="evenodd" clip-rule="evenodd" d="M249.248 433C250.175 437.701 247.115 442.264 242.414 443.191C237.712 444.118 233.149 441.059 232.222 436.357C231.295 431.655 234.354 427.093 239.056 426.166C243.757 425.239 248.321 428.298 249.248 433ZM230.087 472.607C229.701 470.439 231.112 468.358 233.269 467.915L288.176 456.634C290.245 456.209 292.295 457.44 292.891 459.466L295.998 470.029C296.686 472.368 295.174 474.781 292.769 475.183L236.306 484.605C234.111 484.972 232.029 483.503 231.639 481.311L230.087 472.607ZM242.942 447.888L233.377 461.024L257.491 455.298L257.551 455.329L257.586 455.275L280.944 449.729L265.951 442.743L257.586 455.275L257.491 455.298L242.942 447.888Z" fill="#000091"/>
</g>
<rect x="210.06" y="417.06" width="104.048" height="104.048" rx="52.0238" stroke="#A558A0" stroke-width="6.12044"/>
</g>
<g filter="url(#filter3_d_2178_3160)">
<g clip-path="url(#clip4_2178_3160)">
<rect x="148" y="755" width="110.168" height="110.168" rx="55.084" fill="white"/>
<rect x="148" y="755" width="110.168" height="110.168" rx="55.084" fill="#C3992A" fill-opacity="0.3"/>
<path d="M153.32 830.832C153.32 824.765 176.061 774.298 205.59 775.195C246.554 776.439 257.06 839.938 255.185 846.188C253.692 851.165 246.496 852.975 214.948 852.093C167.565 850.768 153.32 836.266 153.32 830.832Z" fill="#161616"/>
<path fill-rule="evenodd" clip-rule="evenodd" d="M208.479 842.085C208.479 842.085 202.243 842.27 199.586 840.818L208.148 846.194L208.479 842.085Z" fill="#CF3E83"/>
<path d="M207.357 800.785C214.544 804.415 225.863 811.071 231.62 819.375C230.613 826.544 228.15 836.158 222.377 839.997C219.199 842.109 213.412 842.37 208.479 842.085L207.501 860.5L191.001 860C191.001 860 193.284 834.504 193.954 828.568C190.718 825.631 184.724 823.789 184.714 818.802C184.714 817.081 185.722 814.091 189.445 814.086C194.441 814.081 193.732 820.066 193.732 820.066C198.782 822.032 203.939 807.055 207.357 800.785Z" fill="#EAC7B2"/>
<path opacity="0.398182" fill-rule="evenodd" clip-rule="evenodd" d="M208.469 842.085C208.469 842.085 202.233 842.27 199.575 840.818L208.138 846.194L208.469 842.085Z" fill="#161616"/>
</g>
<rect x="151.06" y="758.06" width="104.048" height="104.048" rx="52.0238" stroke="#C3992A" stroke-width="6.12044"/>
</g>
<g filter="url(#filter4_d_2178_3160)">
<rect x="1069" y="478" width="110.168" height="110.168" rx="55.084" fill="white"/>
<rect x="1069" y="478" width="110.168" height="110.168" rx="55.084" fill="#E4794A" fill-opacity="0.3"/>
<rect x="1072.06" y="481.06" width="104.048" height="104.048" rx="52.0238" stroke="#E4794A" stroke-width="6.12044"/>
<path d="M1120.1 582.686L1120.54 567.801C1120.54 567.801 1102.33 569.241 1098.44 567.231C1098.44 567.231 1094.24 545.306 1099.47 528.845L1137.89 524.38L1140.62 546.33C1141.91 542.538 1152.01 538.192 1154.81 543.623C1160.85 555.391 1139.22 563.315 1139.22 563.315L1141.42 582.866" fill="#845D48"/>
<path opacity="0.399344" fill-rule="evenodd" clip-rule="evenodd" d="M1120.54 567.8L1132.81 565.185L1120.6 573.385L1120.54 567.8Z" fill="#161616"/>
<path d="M1147.88 541.639C1149.59 535.335 1155.76 512.068 1155.03 508.096C1154.19 503.493 1150.96 497.842 1134.39 491.915C1120.35 486.893 1112.43 490.53 1110.04 493.624C1106.39 498.332 1099.47 528.846 1099.47 528.846C1099.47 528.846 1105.19 532.891 1125.48 532.193C1125.48 532.193 1122.67 544.329 1134.18 543.632C1134.18 543.632 1132.95 547.718 1138.52 549.004C1141.58 544.281 1145.63 542.372 1147.88 541.639Z" fill="#3A3A3A"/>
</g>
<g filter="url(#filter5_d_2178_3160)">
<rect x="1093" y="816" width="110.168" height="110.168" rx="55.084" fill="white"/>
<rect x="1093" y="816" width="110.168" height="110.168" rx="55.084" fill="#00A95F" fill-opacity="0.3"/>
<rect x="1096.06" y="819.06" width="104.048" height="104.048" rx="52.0238" stroke="#00A95F" stroke-width="6.12044"/>
<path d="M1143.5 920.501L1144.76 895.739C1144.76 895.739 1127.34 897.124 1123.61 895.19C1123.61 895.19 1119.06 871.755 1124.49 858.776L1124.6 858.271L1161.36 853.976L1163.65 874.789C1164.89 871.142 1174.88 867.26 1177.55 872.484C1183.34 883.803 1162.64 891.424 1162.64 891.424L1167 919.501" fill="#845D48"/>
<path opacity="0.400274" fill-rule="evenodd" clip-rule="evenodd" d="M1144.76 895.739L1156.5 893.224L1144.81 901.111L1144.76 895.739Z" fill="#161616"/>
<path fill-rule="evenodd" clip-rule="evenodd" d="M1163.42 875.012C1166.17 872.169 1169.16 870.965 1170.97 870.465L1170.62 863.292L1153.36 860.284C1154.55 868.287 1159.17 872.653 1163.42 875.012Z" fill="#EACB47"/>
<path fill-rule="evenodd" clip-rule="evenodd" d="M1123.47 861.576C1125.03 860.097 1135.16 859.64 1147.35 860.577C1150.19 860.795 1152.91 861.07 1155.42 861.388C1163.73 862.43 1169.84 863.913 1170.84 865.217C1171.94 848.926 1161.95 839.224 1148.87 838.322C1140.29 837.729 1132.51 841.073 1127.85 848.041C1125.47 851.612 1123.9 856.138 1123.47 861.576Z" fill="#393954"/>
<path fill-rule="evenodd" clip-rule="evenodd" d="M1123.27 861.898H1123.28C1123.29 861.785 1123.36 861.676 1123.47 861.575C1125.02 860.097 1135.16 859.639 1147.35 860.577C1150.19 860.795 1152.91 861.069 1155.42 861.388C1151.84 857.995 1145.3 852.632 1137.59 850.225C1134.29 849.196 1130.95 848.446 1127.85 848.041C1120.34 847.046 1114.32 848.067 1114.01 851.961C1113.63 857.027 1121.98 861.27 1123.27 861.898Z" fill="#161629"/>
</g>
<path fill-rule="evenodd" clip-rule="evenodd" d="M814.707 1049.42H834.537V374H814.707V1049.42Z" fill="#CACAFD"/>
<path fill-rule="evenodd" clip-rule="evenodd" d="M834.537 1049.42H854.367V374H834.537V1049.42Z" fill="#9696FA"/>
<path fill-rule="evenodd" clip-rule="evenodd" d="M632.812 998.392L639.338 1017.9L700.516 996.774L638.077 1049.42H617.4L602.711 994.729L632.812 998.392Z" fill="#0F0F3E"/>
<path fill-rule="evenodd" clip-rule="evenodd" d="M604.385 999.763L611.269 1026.23L639.241 1017.84L632.716 998.338L604.385 999.763Z" fill="#958073"/>
<path fill-rule="evenodd" clip-rule="evenodd" d="M644.609 1049.31H661.944V393.732H644.609V1049.31Z" fill="#CACAFD"/>
<path fill-rule="evenodd" clip-rule="evenodd" d="M661.943 1049.42H814.706V393.84H661.943V1049.42Z" fill="#9696FA"/>
<path fill-rule="evenodd" clip-rule="evenodd" d="M639.368 613.819L637.658 604.9C637.658 604.9 635.788 602.009 636.553 597.999C637.319 593.988 640.087 588.196 639.213 581.217C638.604 576.354 643.168 578.427 644.686 581.227C646.205 584.026 644.147 591.393 647.651 590.923C651.156 590.452 658.501 585.335 660.377 576.034C660.629 574.785 665.924 573.364 669.263 585.15C670.909 590.958 669.706 600.824 666.784 603.77C666.784 603.77 656.481 611.328 651.935 612.451C647.123 613.641 647.087 611.947 639.368 613.819Z" fill="#EAC7B2"/>
<path fill-rule="evenodd" clip-rule="evenodd" d="M790.328 483.696H687.213C682.916 483.696 679.432 480.211 679.432 475.912V454.63C679.432 450.331 682.916 446.846 687.213 446.846H790.328C794.626 446.846 798.109 450.331 798.109 454.63V475.912C798.109 480.211 794.626 483.696 790.328 483.696Z" fill="white"/>
<path fill-rule="evenodd" clip-rule="evenodd" d="M790.328 563.805H687.213C682.916 563.805 679.432 560.319 679.432 556.019V534.739C679.432 530.439 682.916 526.953 687.213 526.953H790.328C794.626 526.953 798.109 530.439 798.109 534.739V556.019C798.109 560.319 794.626 563.805 790.328 563.805Z" fill="white"/>
<path fill-rule="evenodd" clip-rule="evenodd" d="M780.395 638.333H698.548C688.377 638.333 680.133 630.084 680.133 619.907C680.133 609.732 688.377 601.482 698.548 601.482H780.395C790.565 601.482 798.81 609.732 798.81 619.907C798.81 630.084 790.565 638.333 780.395 638.333Z" fill="white"/>
<path d="M679.432 507.024H731.771" stroke="#EDEDF5" stroke-width="9.1"/>
<path d="M719.26 619.909H759.681" stroke="#6969F5" stroke-width="9.8"/>
<path d="M690.334 465.27H757.114" stroke="#5D5D6C" stroke-width="10.5"/>
<path d="M679.432 426.858H731.771" stroke="#EDEDF5" stroke-width="9.1"/>
<path fill-rule="evenodd" clip-rule="evenodd" d="M696.435 545.379C696.435 548.949 694.504 551.844 692.124 551.844C689.742 551.844 687.812 548.949 687.812 545.379C687.812 541.808 689.742 538.914 692.124 538.914C694.504 538.914 696.435 541.808 696.435 545.379Z" fill="#5D5D6C"/>
<path fill-rule="evenodd" clip-rule="evenodd" d="M710.781 545.379C710.781 548.949 708.85 551.844 706.47 551.844C704.088 551.844 702.158 548.949 702.158 545.379C702.158 541.808 704.088 538.914 706.47 538.914C708.85 538.914 710.781 541.808 710.781 545.379Z" fill="#5D5D6C"/>
<path fill-rule="evenodd" clip-rule="evenodd" d="M725.127 545.379C725.127 548.949 723.196 551.844 720.815 551.844C718.434 551.844 716.504 548.949 716.504 545.379C716.504 541.808 718.434 538.914 720.815 538.914C723.196 538.914 725.127 541.808 725.127 545.379Z" fill="#5D5D6C"/>
<path fill-rule="evenodd" clip-rule="evenodd" d="M739.47 545.379C739.47 548.949 737.54 551.844 735.159 551.844C732.778 551.844 730.848 548.949 730.848 545.379C730.848 541.808 732.778 538.914 735.159 538.914C737.54 538.914 739.47 541.808 739.47 545.379Z" fill="#5D5D6C"/>
<path fill-rule="evenodd" clip-rule="evenodd" d="M753.816 545.379C753.816 548.949 751.885 551.844 749.505 551.844C747.123 551.844 745.193 548.949 745.193 545.379C745.193 541.808 747.123 538.914 749.505 538.914C751.885 538.914 753.816 541.808 753.816 545.379Z" fill="#5D5D6C"/>
<path fill-rule="evenodd" clip-rule="evenodd" d="M768.162 545.379C768.162 548.949 766.231 551.844 763.85 551.844C761.469 551.844 759.539 548.949 759.539 545.379C759.539 541.808 761.469 538.914 763.85 538.914C766.231 538.914 768.162 541.808 768.162 545.379Z" fill="#5D5D6C"/>
<path fill-rule="evenodd" clip-rule="evenodd" d="M650.893 697.649H655.659V674.072H650.893V697.649Z" fill="#6969F5"/>
<path d="M704.828 686.532H732.183" stroke="#DADEE6" stroke-width="7" stroke-linecap="round"/>
<path fill-rule="evenodd" clip-rule="evenodd" d="M699.303 686.561C699.303 692.863 695.083 697.972 689.876 697.972C684.669 697.972 680.447 692.863 680.447 686.561C680.447 680.259 684.669 675.15 689.876 675.15C695.083 675.15 699.303 680.259 699.303 686.561Z" fill="#DADEE6"/>
<path fill-rule="evenodd" clip-rule="evenodd" d="M644.609 397.064H661.944V393.84H644.609V397.064Z" fill="#9696FA"/>
<path d="M691.275 686.532H703.896" stroke="white" stroke-width="7" stroke-linecap="round"/>
<path fill-rule="evenodd" clip-rule="evenodd" d="M606.955 623.234L612.501 629.214L611.933 619.035L606.955 623.234Z" fill="#958073"/>
<path fill-rule="evenodd" clip-rule="evenodd" d="M582.777 1049.42H602.215V374H582.777V1049.42Z" fill="#CACAFD"/>
<path fill-rule="evenodd" clip-rule="evenodd" d="M602.215 1049.42H621.652V393.84H602.215V1049.42Z" fill="#9696FA"/>
<path fill-rule="evenodd" clip-rule="evenodd" d="M602.215 393.841H814.708V374H602.215V393.841Z" fill="#CACAFD"/>
<path fill-rule="evenodd" clip-rule="evenodd" d="M483.756 606.483C482.074 613.618 476.95 659.458 485.33 686.504C493.344 712.366 514.259 767.726 514.259 767.726L535.113 773.577L510.077 679.044L498.452 585.787L483.756 606.483Z" fill="#EAC7B2"/>
<path fill-rule="evenodd" clip-rule="evenodd" d="M478.559 615.089L486.041 579.786L518.059 579.686L509.394 628.946L478.559 615.089Z" fill="#CB4E4F"/>
<path fill-rule="evenodd" clip-rule="evenodd" d="M633.812 998.187L640.338 1017.69L633.812 1026L639.077 1049.21H618.4L603.711 994.523L633.812 998.187Z" fill="#0F0F3E"/>
<path fill-rule="evenodd" clip-rule="evenodd" d="M605.385 999.558L612.269 1026.02L640.241 1017.64L633.716 998.133L605.385 999.558Z" fill="#EAC7B2"/>
<path fill-rule="evenodd" clip-rule="evenodd" d="M467.283 995.883L456.538 1011.52L465.066 1028.99L502.488 1049.21L455.689 1049.29L419 1015.86L447.673 971.65L467.283 995.883Z" fill="#0F0F3E"/>
<path fill-rule="evenodd" clip-rule="evenodd" d="M446.307 972.281L432.035 995.548L456.539 1011.52L467.283 995.884L446.307 972.281Z" fill="#EAC7B2"/>
<path fill-rule="evenodd" clip-rule="evenodd" d="M644.424 1004.44L597.111 1018.06L550.785 818.021L532.578 741.14L501.428 683.211H575.614L581.053 683.589L644.424 1004.44Z" fill="#2B2B3B"/>
<path fill-rule="evenodd" clip-rule="evenodd" d="M564.085 762.382L550.085 818.021L541.433 852.389L467.954 1008.08L427.564 980.504L489.78 839.705L493.798 745.489C493.798 745.489 490.291 719.617 496.829 683.211H502.044L564.085 762.382Z" fill="#2B2B3B"/>
<path fill-rule="evenodd" clip-rule="evenodd" d="M550.355 816.583L528.24 751.582L544.066 841.565L550.355 816.583Z" fill="#121216"/>
<path fill-rule="evenodd" clip-rule="evenodd" d="M640.368 613.614L638.658 604.695C638.658 604.695 636.788 601.804 637.553 597.794C638.319 593.783 641.087 587.991 640.213 581.012C639.604 576.149 644.168 578.222 645.686 581.022C647.205 583.821 645.147 591.188 648.651 590.718C652.156 590.247 659.501 585.13 661.377 575.829C661.629 574.58 666.924 573.159 670.263 584.945C671.909 590.753 670.706 600.618 667.784 603.565C667.784 603.565 657.481 611.123 652.935 612.246C648.123 613.436 648.087 611.742 640.368 613.614Z" fill="#EAC7B2"/>
<path fill-rule="evenodd" clip-rule="evenodd" d="M496.488 697.985C496.488 697.985 492.918 675.311 489.831 650.092C486.488 622.78 482.515 608.246 486.04 588.87C493.727 546.627 563.739 539.607 599.213 605.98L575.91 632.1L583.799 697.484" fill="#F95C5E"/>
<path fill-rule="evenodd" clip-rule="evenodd" d="M545.384 558.838C545.384 558.838 532.458 567.509 514.047 568.453C501.447 569.1 506.086 561.683 506.086 561.683C506.086 561.683 513.25 557.84 525.732 556.991C536.232 556.277 545.384 558.838 545.384 558.838Z" fill="#EAC7B2"/>
<path fill-rule="evenodd" clip-rule="evenodd" d="M569.972 480.365C569.972 480.365 592.559 504.432 565.336 513.59L569.972 480.365Z" fill="#3A3A3A"/>
<path fill-rule="evenodd" clip-rule="evenodd" d="M506.046 519.059C503.538 513.438 507.615 544.76 507.615 544.76L507.389 561.885L537.97 559.671L536.582 549.472C536.582 549.472 566.051 549.229 571.911 545.651C571.911 545.651 574.283 517.65 568.255 498.439L542.479 479.459L503.895 485.456L506.046 519.059Z" fill="#EAC7B2"/>
<path d="M533.588 535.95C533.588 535.95 520.664 534.303 514.863 524.537" stroke="#958073" stroke-width="2.1"/>
<path fill-rule="evenodd" clip-rule="evenodd" d="M505.622 535.301C496.528 536.688 478.186 507.961 489.761 488.14C505.386 461.383 527.842 470.101 527.842 470.101C527.842 470.101 531.518 447.276 546.796 446.067C568.561 444.344 574.594 476.552 574.594 476.552C574.594 476.552 578.412 459.043 585.016 460.437C594.589 462.457 598.12 514.503 547.49 498.374C547.49 498.374 550.695 514.37 539.019 515.627C533.986 516.168 531.23 509.569 531.23 509.569C531.23 509.569 525.945 529.951 518.548 535.68C518.548 535.68 509.826 534.658 505.622 535.301Z" fill="#3A3A3A"/>
<path d="M495.075 462.602L501.283 478.581L496.593 481.29L485.244 471.828" stroke="#3A3A3A" stroke-width="6.3"/>
<path fill-rule="evenodd" clip-rule="evenodd" d="M514.73 523.155C519.596 533.909 536.154 535.487 536.154 535.487L535.19 529.905L531.676 509.527C529.443 503.977 515.063 500.345 513.52 514.672C513.159 517.995 513.665 520.794 514.73 523.155Z" fill="#EAC7B2"/>
<path d="M529.657 526.343C529.657 526.343 525.93 526.214 526.158 522.387C526.38 518.682 529.355 518.282 529.355 518.282C529.355 518.282 527.635 508.943 520.588 511.023" stroke="#958073" stroke-width="2.1"/>
<path d="M573.668 633.84L567.595 639.965L547.145 620.064" stroke="#CB4E4F" stroke-width="4.2"/>
<path fill-rule="evenodd" clip-rule="evenodd" d="M536.582 549.473L521.664 548.633L537.725 557.869L536.582 549.473Z" fill="#958073"/>
<path fill-rule="evenodd" clip-rule="evenodd" d="M577.243 643.854C577.243 643.854 580.896 687.363 531.174 679.988L536.231 670.39C562.202 676.257 571.22 655.067 575.911 632.102L577.243 643.854Z" fill="#CACAFD"/>
<path fill-rule="evenodd" clip-rule="evenodd" d="M513.539 599.344C513.539 599.344 516.939 567.157 549.96 559.668L558.641 564.016C539.135 567.477 527.768 581.181 521.327 593.244L513.539 599.344Z" fill="#CACAFD"/>
<path fill-rule="evenodd" clip-rule="evenodd" d="M480.661 596.998C480.661 596.998 475.056 586.206 496.641 567.119L503.093 563.662C495.198 571.541 486.35 582.537 488.026 596.162L480.661 596.998Z" fill="#CACAFD"/>
<path fill-rule="evenodd" clip-rule="evenodd" d="M521.968 710.555H466.751C456.549 710.555 448.201 702.203 448.201 691.995V612.433C448.201 593.244 463.894 577.543 483.073 577.543H505C524.179 577.543 539.871 593.244 539.871 612.433V692.641C539.871 702.495 531.815 710.555 521.968 710.555Z" fill="#CACAFD"/>
<path d="M491.582 577.543C511.484 577.543 527.768 594.958 527.768 616.243V651.841" stroke="#6969F5" stroke-width="2.1"/>
<path fill-rule="evenodd" clip-rule="evenodd" d="M500.651 710.555H465.136C455.822 710.555 448.201 702.931 448.201 693.612V610.682C448.201 592.456 463.106 577.543 481.322 577.543H483.819C502.035 577.543 516.939 592.456 516.939 610.682V694.258C516.939 703.222 509.609 710.555 500.651 710.555Z" fill="#9696FA"/>
<path d="M479.064 614.031C479.334 613.85 479.666 613.85 479.936 614.031L482.841 615.975C483.111 616.156 483.277 616.49 483.277 616.851V620.739C483.277 621.1 483.111 621.434 482.841 621.615L479.936 623.559C479.666 623.74 479.334 623.74 479.064 623.559L476.159 621.615C475.889 621.434 475.723 621.1 475.723 620.739V616.851C475.723 616.49 475.889 616.156 476.159 615.975L479.064 614.031Z" fill="#CACAFD"/>
<path d="M474.702 604.93C474.972 604.75 475.305 604.75 475.575 604.93L478.48 606.875C478.749 607.055 478.916 607.389 478.916 607.75V611.638C478.916 612 478.749 612.334 478.48 612.514L475.575 614.458C475.305 614.639 474.972 614.639 474.702 614.458L471.798 612.514C471.528 612.334 471.361 612 471.361 611.638V607.75C471.361 607.389 471.528 607.055 471.798 606.875L474.702 604.93Z" fill="#CACAFD"/>
<path d="M483.425 604.93C483.695 604.75 484.028 604.75 484.298 604.93L487.202 606.875C487.472 607.055 487.639 607.389 487.639 607.75V611.638C487.639 612 487.472 612.334 487.202 612.514L484.298 614.458C484.028 614.639 483.695 614.639 483.425 614.458L480.52 612.514C480.251 612.334 480.084 612 480.084 611.638V607.75C480.084 607.389 480.251 607.055 480.52 606.875L483.425 604.93Z" fill="#CACAFD"/>
<path d="M474.702 623.132C474.972 622.951 475.305 622.951 475.575 623.132L478.48 625.076C478.749 625.256 478.916 625.59 478.916 625.951V629.84C478.916 630.201 478.749 630.535 478.48 630.715L475.575 632.659C475.305 632.84 474.972 632.84 474.702 632.659L471.798 630.715C471.528 630.535 471.361 630.201 471.361 629.84V625.951C471.361 625.59 471.528 625.256 471.798 625.076L474.702 623.132Z" fill="#CACAFD"/>
<path d="M470.341 614.031C470.611 613.85 470.943 613.85 471.213 614.031L474.118 615.975C474.388 616.156 474.554 616.49 474.554 616.851V620.739C474.554 621.1 474.388 621.434 474.118 621.615L471.213 623.559C470.943 623.74 470.611 623.74 470.341 623.559L467.436 621.615C467.166 621.434 467 621.1 467 620.739V616.851C467 616.49 467.166 616.156 467.436 615.975L470.341 614.031Z" fill="#CACAFD"/>
<path d="M483.425 623.132C483.695 622.951 484.028 622.951 484.298 623.132L487.202 625.076C487.472 625.256 487.639 625.59 487.639 625.951V629.84C487.639 630.201 487.472 630.535 487.202 630.715L484.298 632.659C484.028 632.84 483.695 632.84 483.425 632.659L480.52 630.715C480.251 630.535 480.084 630.201 480.084 629.84V625.951C480.084 625.59 480.251 625.256 480.52 625.076L483.425 623.132Z" fill="#CACAFD"/>
<path d="M487.787 614.031C488.057 613.85 488.389 613.85 488.659 614.031L491.564 615.975C491.834 616.156 492 616.49 492 616.851V620.739C492 621.1 491.834 621.434 491.564 621.615L488.659 623.559C488.389 623.74 488.057 623.74 487.787 623.559L484.882 621.615C484.612 621.434 484.446 621.1 484.446 620.739V616.851C484.446 616.49 484.612 616.156 484.882 615.975L487.787 614.031Z" fill="#CACAFD"/>
<path fill-rule="evenodd" clip-rule="evenodd" d="M495.431 696.757H450.125C446.041 696.757 442.73 693.445 442.73 689.358V661.448C442.73 657.361 446.041 654.049 450.125 654.049H495.431C499.514 654.049 502.825 657.361 502.825 661.448V689.358C502.825 693.445 499.514 696.757 495.431 696.757Z" fill="#CACAFD"/>
<path fill-rule="evenodd" clip-rule="evenodd" d="M484.155 696.757H450.125C446.041 696.757 442.73 693.445 442.73 689.358V661.448C442.73 657.361 446.041 654.049 450.125 654.049H484.155C488.239 654.049 491.55 657.361 491.55 661.448V689.358C491.55 693.445 488.239 696.757 484.155 696.757Z" fill="#9696FA"/>
<path fill-rule="evenodd" clip-rule="evenodd" d="M448.203 616.241V614.299C448.203 594.085 463.668 577.545 482.568 577.545C482.866 577.545 483.157 577.553 483.454 577.56C463.98 578.089 448.203 595.288 448.203 616.241Z" fill="#9696FA"/>
<path fill-rule="evenodd" clip-rule="evenodd" d="M475.846 691.178H486.388V684.365H475.846V691.178Z" fill="#CACAFD"/>
<path d="M442.73 665.044H502.825" stroke="#6969F5" stroke-width="2.1"/>
<path fill-rule="evenodd" clip-rule="evenodd" d="M657.45 604.859L642.004 594.314L607.955 623.03L596.314 609.181L574.947 633.105C574.947 633.105 591.212 653.491 607.686 652.152C619.317 651.207 657.45 604.859 657.45 604.859Z" fill="#EAC7B2"/>
<path fill-rule="evenodd" clip-rule="evenodd" d="M607.955 623.029L613.501 629.009L612.933 618.83L607.955 623.029Z" fill="#958073"/>
</g>
<defs>
<filter id="filter0_d_2178_3160" x="478.939" y="191.939" width="126.29" height="126.29" filterUnits="userSpaceOnUse" color-interpolation-filters="sRGB">
<feFlood flood-opacity="0" result="BackgroundImageFix"/>
<feColorMatrix in="SourceAlpha" type="matrix" values="0 0 0 0 0 0 0 0 0 0 0 0 0 0 0 0 0 0 127 0" result="hardAlpha"/>
<feMorphology radius="8.06107" operator="dilate" in="SourceAlpha" result="effect1_dropShadow_2178_3160"/>
<feOffset/>
<feComposite in2="hardAlpha" operator="out"/>
<feColorMatrix type="matrix" values="0 0 0 0 1 0 0 0 0 1 0 0 0 0 1 0 0 0 1 0"/>
<feBlend mode="normal" in2="BackgroundImageFix" result="effect1_dropShadow_2178_3160"/>
<feBlend mode="normal" in="SourceGraphic" in2="effect1_dropShadow_2178_3160" result="shape"/>
</filter>
<filter id="filter1_d_2178_3160" x="845.939" y="222.939" width="126.29" height="126.29" filterUnits="userSpaceOnUse" color-interpolation-filters="sRGB">
<feFlood flood-opacity="0" result="BackgroundImageFix"/>
<feColorMatrix in="SourceAlpha" type="matrix" values="0 0 0 0 0 0 0 0 0 0 0 0 0 0 0 0 0 0 127 0" result="hardAlpha"/>
<feMorphology radius="8.06107" operator="dilate" in="SourceAlpha" result="effect1_dropShadow_2178_3160"/>
<feOffset/>
<feComposite in2="hardAlpha" operator="out"/>
<feColorMatrix type="matrix" values="0 0 0 0 1 0 0 0 0 1 0 0 0 0 1 0 0 0 1 0"/>
<feBlend mode="normal" in2="BackgroundImageFix" result="effect1_dropShadow_2178_3160"/>
<feBlend mode="normal" in="SourceGraphic" in2="effect1_dropShadow_2178_3160" result="shape"/>
</filter>
<filter id="filter2_d_2178_3160" x="198.939" y="405.939" width="126.29" height="126.29" filterUnits="userSpaceOnUse" color-interpolation-filters="sRGB">
<feFlood flood-opacity="0" result="BackgroundImageFix"/>
<feColorMatrix in="SourceAlpha" type="matrix" values="0 0 0 0 0 0 0 0 0 0 0 0 0 0 0 0 0 0 127 0" result="hardAlpha"/>
<feMorphology radius="8.06107" operator="dilate" in="SourceAlpha" result="effect1_dropShadow_2178_3160"/>
<feOffset/>
<feComposite in2="hardAlpha" operator="out"/>
<feColorMatrix type="matrix" values="0 0 0 0 1 0 0 0 0 1 0 0 0 0 1 0 0 0 1 0"/>
<feBlend mode="normal" in2="BackgroundImageFix" result="effect1_dropShadow_2178_3160"/>
<feBlend mode="normal" in="SourceGraphic" in2="effect1_dropShadow_2178_3160" result="shape"/>
</filter>
<filter id="filter3_d_2178_3160" x="139.939" y="746.939" width="126.29" height="126.29" filterUnits="userSpaceOnUse" color-interpolation-filters="sRGB">
<feFlood flood-opacity="0" result="BackgroundImageFix"/>
<feColorMatrix in="SourceAlpha" type="matrix" values="0 0 0 0 0 0 0 0 0 0 0 0 0 0 0 0 0 0 127 0" result="hardAlpha"/>
<feMorphology radius="8.06107" operator="dilate" in="SourceAlpha" result="effect1_dropShadow_2178_3160"/>
<feOffset/>
<feComposite in2="hardAlpha" operator="out"/>
<feColorMatrix type="matrix" values="0 0 0 0 1 0 0 0 0 1 0 0 0 0 1 0 0 0 1 0"/>
<feBlend mode="normal" in2="BackgroundImageFix" result="effect1_dropShadow_2178_3160"/>
<feBlend mode="normal" in="SourceGraphic" in2="effect1_dropShadow_2178_3160" result="shape"/>
</filter>
<filter id="filter4_d_2178_3160" x="1060.94" y="469.939" width="126.29" height="126.29" filterUnits="userSpaceOnUse" color-interpolation-filters="sRGB">
<feFlood flood-opacity="0" result="BackgroundImageFix"/>
<feColorMatrix in="SourceAlpha" type="matrix" values="0 0 0 0 0 0 0 0 0 0 0 0 0 0 0 0 0 0 127 0" result="hardAlpha"/>
<feMorphology radius="8.06107" operator="dilate" in="SourceAlpha" result="effect1_dropShadow_2178_3160"/>
<feOffset/>
<feComposite in2="hardAlpha" operator="out"/>
<feColorMatrix type="matrix" values="0 0 0 0 1 0 0 0 0 1 0 0 0 0 1 0 0 0 1 0"/>
<feBlend mode="normal" in2="BackgroundImageFix" result="effect1_dropShadow_2178_3160"/>
<feBlend mode="normal" in="SourceGraphic" in2="effect1_dropShadow_2178_3160" result="shape"/>
</filter>
<filter id="filter5_d_2178_3160" x="1084.94" y="807.939" width="126.29" height="126.29" filterUnits="userSpaceOnUse" color-interpolation-filters="sRGB">
<feFlood flood-opacity="0" result="BackgroundImageFix"/>
<feColorMatrix in="SourceAlpha" type="matrix" values="0 0 0 0 0 0 0 0 0 0 0 0 0 0 0 0 0 0 127 0" result="hardAlpha"/>
<feMorphology radius="8.06107" operator="dilate" in="SourceAlpha" result="effect1_dropShadow_2178_3160"/>
<feOffset/>
<feComposite in2="hardAlpha" operator="out"/>
<feColorMatrix type="matrix" values="0 0 0 0 1 0 0 0 0 1 0 0 0 0 1 0 0 0 1 0"/>
<feBlend mode="normal" in2="BackgroundImageFix" result="effect1_dropShadow_2178_3160"/>
<feBlend mode="normal" in="SourceGraphic" in2="effect1_dropShadow_2178_3160" result="shape"/>
</filter>
<clipPath id="clip0_2178_3160">
<rect width="1360" height="1360" fill="white"/>
</clipPath>
<clipPath id="clip1_2178_3160">
<rect x="487" y="200" width="110.168" height="110.168" rx="55.084" fill="white"/>
</clipPath>
<clipPath id="clip2_2178_3160">
<rect x="854" y="231" width="110.168" height="110.168" rx="55.084" fill="white"/>
</clipPath>
<clipPath id="clip3_2178_3160">
<rect x="207" y="414" width="110.168" height="110.168" rx="55.084" fill="white"/>
</clipPath>
<clipPath id="clip4_2178_3160">
<rect x="148" y="755" width="110.168" height="110.168" rx="55.084" fill="white"/>
</clipPath>
</defs>
</svg>
