<svg width="331" height="330" viewBox="0 0 331 330" fill="none" xmlns="http://www.w3.org/2000/svg">
<g filter="url(#filter0_n_2764_10013)">
<path d="M269.431 102.154C271.356 102.154 272.917 103.715 272.917 105.64V122.311C273.387 125.069 274.861 127.752 278.309 128.759C278.846 128.916 278.812 129.682 278.253 129.672C276.085 129.635 273.493 129.565 272.738 129.443C271.928 129.311 271.19 129.091 270.523 128.792C270.179 128.905 269.813 128.967 269.431 128.967H130.458C128.532 128.967 126.971 127.407 126.971 125.482V105.64C126.971 103.715 128.532 102.154 130.458 102.154H269.431Z" fill="#626A80"/>
<path d="M269.431 102.154C271.356 102.154 272.917 103.715 272.917 105.64V122.311C273.387 125.069 274.861 127.752 278.309 128.759C278.846 128.916 278.812 129.682 278.253 129.672C276.085 129.635 273.493 129.565 272.738 129.443C271.928 129.311 271.19 129.091 270.523 128.792C270.179 128.905 269.813 128.967 269.431 128.967H130.458C128.532 128.967 126.971 127.407 126.971 125.482V105.64C126.971 103.715 128.532 102.154 130.458 102.154H269.431Z" fill="#F6F8F9" fill-opacity="0.9"/>
<path d="M269.431 102.154L269.431 101.78H269.431V102.154ZM272.917 122.311H272.544V122.343L272.549 122.374L272.917 122.311ZM278.309 128.759L278.414 128.401V128.401L278.309 128.759ZM278.253 129.672L278.247 130.046L278.247 130.046L278.253 129.672ZM272.738 129.443L272.678 129.812L272.678 129.812L272.738 129.443ZM270.523 128.792L270.676 128.451L270.544 128.391L270.406 128.437L270.523 128.792ZM269.431 128.967V129.341H269.431L269.431 128.967ZM126.971 125.482H126.598V125.482L126.971 125.482ZM269.431 102.154L269.431 102.527C271.15 102.528 272.544 103.921 272.544 105.64H272.917H273.291C273.291 103.509 271.563 101.781 269.431 101.78L269.431 102.154ZM272.917 105.64H272.544V122.311H272.917H273.291V105.64H272.917ZM272.917 122.311L272.549 122.374C273.034 125.221 274.576 128.058 278.204 129.118L278.309 128.759L278.414 128.401C275.147 127.446 273.74 124.916 273.286 122.248L272.917 122.311ZM278.309 128.759L278.204 129.118C278.255 129.133 278.282 129.158 278.296 129.179C278.313 129.204 278.32 129.233 278.319 129.258C278.319 129.27 278.316 129.279 278.314 129.284C278.313 129.287 278.312 129.289 278.311 129.289C278.311 129.29 278.31 129.291 278.31 129.291C278.31 129.291 278.31 129.291 278.31 129.291C278.309 129.292 278.308 129.292 278.305 129.293C278.3 129.295 278.286 129.299 278.26 129.299L278.253 129.672L278.247 130.046C278.478 130.05 278.685 129.972 278.837 129.821C278.984 129.674 279.055 129.483 279.065 129.298C279.085 128.928 278.861 128.531 278.414 128.401L278.309 128.759ZM278.253 129.672L278.26 129.299C277.177 129.28 275.99 129.254 274.98 129.216C273.959 129.179 273.148 129.131 272.798 129.074L272.738 129.443L272.678 129.812C273.083 129.877 273.946 129.926 274.952 129.963C275.969 130 277.162 130.027 278.247 130.046L278.253 129.672ZM272.738 129.443L272.798 129.074C272.017 128.948 271.311 128.736 270.676 128.451L270.523 128.792L270.37 129.132C271.068 129.446 271.838 129.675 272.678 129.812L272.738 129.443ZM270.523 128.792L270.406 128.437C270.099 128.538 269.772 128.594 269.431 128.594L269.431 128.967L269.431 129.341C269.854 129.341 270.26 129.272 270.64 129.146L270.523 128.792ZM269.431 128.967V128.594H130.458V128.967V129.341H269.431V128.967ZM130.458 128.967V128.594C128.738 128.594 127.345 127.201 127.345 125.482L126.971 125.482L126.598 125.482C126.598 127.614 128.326 129.341 130.458 129.341V128.967ZM126.971 125.482H127.345V105.64H126.971H126.598V125.482H126.971ZM126.971 105.64H127.345C127.345 103.921 128.738 102.527 130.458 102.527V102.154V101.78C128.326 101.78 126.598 103.509 126.598 105.64H126.971ZM130.458 102.154V102.527H269.431V102.154V101.78H130.458V102.154Z" fill="#626A80"/>
<path d="M269.431 102.154L269.431 101.78H269.431V102.154ZM272.917 122.311H272.544V122.343L272.549 122.374L272.917 122.311ZM278.309 128.759L278.414 128.401V128.401L278.309 128.759ZM278.253 129.672L278.247 130.046L278.247 130.046L278.253 129.672ZM272.738 129.443L272.678 129.812L272.678 129.812L272.738 129.443ZM270.523 128.792L270.676 128.451L270.544 128.391L270.406 128.437L270.523 128.792ZM269.431 128.967V129.341H269.431L269.431 128.967ZM126.971 125.482H126.598V125.482L126.971 125.482ZM269.431 102.154L269.431 102.527C271.15 102.528 272.544 103.921 272.544 105.64H272.917H273.291C273.291 103.509 271.563 101.781 269.431 101.78L269.431 102.154ZM272.917 105.64H272.544V122.311H272.917H273.291V105.64H272.917ZM272.917 122.311L272.549 122.374C273.034 125.221 274.576 128.058 278.204 129.118L278.309 128.759L278.414 128.401C275.147 127.446 273.74 124.916 273.286 122.248L272.917 122.311ZM278.309 128.759L278.204 129.118C278.255 129.133 278.282 129.158 278.296 129.179C278.313 129.204 278.32 129.233 278.319 129.258C278.319 129.27 278.316 129.279 278.314 129.284C278.313 129.287 278.312 129.289 278.311 129.289C278.311 129.29 278.31 129.291 278.31 129.291C278.31 129.291 278.31 129.291 278.31 129.291C278.309 129.292 278.308 129.292 278.305 129.293C278.3 129.295 278.286 129.299 278.26 129.299L278.253 129.672L278.247 130.046C278.478 130.05 278.685 129.972 278.837 129.821C278.984 129.674 279.055 129.483 279.065 129.298C279.085 128.928 278.861 128.531 278.414 128.401L278.309 128.759ZM278.253 129.672L278.26 129.299C277.177 129.28 275.99 129.254 274.98 129.216C273.959 129.179 273.148 129.131 272.798 129.074L272.738 129.443L272.678 129.812C273.083 129.877 273.946 129.926 274.952 129.963C275.969 130 277.162 130.027 278.247 130.046L278.253 129.672ZM272.738 129.443L272.798 129.074C272.017 128.948 271.311 128.736 270.676 128.451L270.523 128.792L270.37 129.132C271.068 129.446 271.838 129.675 272.678 129.812L272.738 129.443ZM270.523 128.792L270.406 128.437C270.099 128.538 269.772 128.594 269.431 128.594L269.431 128.967L269.431 129.341C269.854 129.341 270.26 129.272 270.64 129.146L270.523 128.792ZM269.431 128.967V128.594H130.458V128.967V129.341H269.431V128.967ZM130.458 128.967V128.594C128.738 128.594 127.345 127.201 127.345 125.482L126.971 125.482L126.598 125.482C126.598 127.614 128.326 129.341 130.458 129.341V128.967ZM126.971 125.482H127.345V105.64H126.971H126.598V125.482H126.971ZM126.971 105.64H127.345C127.345 103.921 128.738 102.527 130.458 102.527V102.154V101.78C128.326 101.78 126.598 103.509 126.598 105.64H126.971ZM130.458 102.154V102.527H269.431V102.154V101.78H130.458V102.154Z" fill="#F6F8F9" fill-opacity="0.9"/>
<path d="M231.388 120.333C231.938 120.333 232.384 120.78 232.385 121.33V122.073C232.384 122.623 231.938 123.069 231.388 123.069H137.722C137.172 123.069 136.726 122.623 136.726 122.073V121.33C136.726 120.78 137.172 120.333 137.722 120.333H231.388ZM262.167 114.194C262.717 114.194 263.163 114.64 263.163 115.19V115.932C263.163 116.482 262.717 116.928 262.167 116.928H137.722C137.172 116.928 136.726 116.482 136.726 115.932V115.19C136.726 114.64 137.172 114.194 137.722 114.194H262.167ZM262.167 108.053C262.717 108.053 263.163 108.499 263.163 109.049V109.792C263.163 110.342 262.717 110.789 262.167 110.789H137.722C137.172 110.789 136.727 110.342 136.726 109.792V109.049C136.726 108.499 137.172 108.053 137.722 108.053H262.167Z" fill="#626A80"/>
<path d="M231.388 120.333C231.938 120.333 232.384 120.78 232.385 121.33V122.073C232.384 122.623 231.938 123.069 231.388 123.069H137.722C137.172 123.069 136.726 122.623 136.726 122.073V121.33C136.726 120.78 137.172 120.333 137.722 120.333H231.388ZM262.167 114.194C262.717 114.194 263.163 114.64 263.163 115.19V115.932C263.163 116.482 262.717 116.928 262.167 116.928H137.722C137.172 116.928 136.726 116.482 136.726 115.932V115.19C136.726 114.64 137.172 114.194 137.722 114.194H262.167ZM262.167 108.053C262.717 108.053 263.163 108.499 263.163 109.049V109.792C263.163 110.342 262.717 110.789 262.167 110.789H137.722C137.172 110.789 136.727 110.342 136.726 109.792V109.049C136.726 108.499 137.172 108.053 137.722 108.053H262.167Z" fill="#F6F8F9" fill-opacity="0.65"/>
<path fill-rule="evenodd" clip-rule="evenodd" d="M328.389 315.658C328.389 320.73 256.103 324.844 166.933 324.844C77.7646 324.844 5.47852 320.73 5.47852 315.658C5.47852 310.586 77.7646 306.475 166.933 306.475C256.103 306.475 328.389 310.586 328.389 315.658Z" fill="#626A80"/>
<path fill-rule="evenodd" clip-rule="evenodd" d="M328.389 315.658C328.389 320.73 256.103 324.844 166.933 324.844C77.7646 324.844 5.47852 320.73 5.47852 315.658C5.47852 310.586 77.7646 306.475 166.933 306.475C256.103 306.475 328.389 310.586 328.389 315.658Z" fill="#F6F8F9" fill-opacity="0.975"/>
<path fill-rule="evenodd" clip-rule="evenodd" d="M244.54 282.179L256.703 310.765H262.219L254.901 280.778L244.54 282.179Z" fill="#626A80"/>
<path fill-rule="evenodd" clip-rule="evenodd" d="M244.54 282.179L256.703 310.765H262.219L254.901 280.778L244.54 282.179Z" fill="#F6F8F9" fill-opacity="0.55"/>
<path fill-rule="evenodd" clip-rule="evenodd" d="M182.402 282.179L194.566 310.765H200.082L192.764 280.778L182.402 282.179Z" fill="#626A80"/>
<path fill-rule="evenodd" clip-rule="evenodd" d="M182.402 282.179L194.566 310.765H200.082L192.764 280.778L182.402 282.179Z" fill="#F6F8F9" fill-opacity="0.55"/>
<path fill-rule="evenodd" clip-rule="evenodd" d="M89.5898 310.765H95.1057L107.269 282.179L96.9075 280.778L89.5898 310.765Z" fill="#626A80"/>
<path fill-rule="evenodd" clip-rule="evenodd" d="M89.5898 310.765H95.1057L107.269 282.179L96.9075 280.778L89.5898 310.765Z" fill="#F6F8F9" fill-opacity="0.55"/>
<path fill-rule="evenodd" clip-rule="evenodd" d="M151.727 310.765H157.243L169.407 282.179L159.045 280.778L151.727 310.765Z" fill="#626A80"/>
<path fill-rule="evenodd" clip-rule="evenodd" d="M151.727 310.765H157.243L169.407 282.179L159.045 280.778L151.727 310.765Z" fill="#F6F8F9" fill-opacity="0.55"/>
<path fill-rule="evenodd" clip-rule="evenodd" d="M96.3726 215.28V284.496L168.306 284.65L180.136 216.181L96.3726 215.28ZM101.851 220.818L173.642 221.59L163.694 279.162L101.851 279.03V220.818Z" fill="#626A80"/>
<path fill-rule="evenodd" clip-rule="evenodd" d="M96.3726 215.28V284.496L168.306 284.65L180.136 216.181L96.3726 215.28ZM101.851 220.818L173.642 221.59L163.694 279.162L101.851 279.03V220.818Z" fill="#F6F8F9" fill-opacity="0.55"/>
<path fill-rule="evenodd" clip-rule="evenodd" d="M190.768 172.734L171.432 284.65H255.785L275.121 172.734H190.768Z" fill="#626A80"/>
<path fill-rule="evenodd" clip-rule="evenodd" d="M190.768 172.734L171.432 284.65H255.785L275.121 172.734H190.768Z" fill="#F6F8F9" fill-opacity="0.8"/>
<path fill-rule="evenodd" clip-rule="evenodd" d="M168.085 172.734L148.749 284.65H232.079L251.415 172.734H168.085Z" fill="#626A80"/>
<path fill-rule="evenodd" clip-rule="evenodd" d="M168.085 172.734L148.749 284.65H232.079L251.415 172.734H168.085Z" fill="#F6F8F9" fill-opacity="0.9"/>
<path fill-rule="evenodd" clip-rule="evenodd" d="M147.424 284.65H246.616C251.68 284.65 255.785 280.545 255.785 275.48V254.347C255.785 249.283 251.68 245.178 246.616 245.178H147.424C142.36 245.178 138.254 249.283 138.254 254.347V275.48C138.254 280.545 142.36 284.65 147.424 284.65Z" fill="#626A80"/>
<path fill-rule="evenodd" clip-rule="evenodd" d="M147.424 284.65H246.616C251.68 284.65 255.785 280.545 255.785 275.48V254.347C255.785 249.283 251.68 245.178 246.616 245.178H147.424C142.36 245.178 138.254 249.283 138.254 254.347V275.48C138.254 280.545 142.36 284.65 147.424 284.65Z" fill="#F6F8F9" fill-opacity="0.8"/>
<path fill-rule="evenodd" clip-rule="evenodd" d="M96 284.65H183.851V245.178H96V284.65Z" fill="#626A80"/>
<path fill-rule="evenodd" clip-rule="evenodd" d="M96 284.65H183.851V245.178H96V284.65Z" fill="#F6F8F9" fill-opacity="0.9"/>
<path fill-rule="evenodd" clip-rule="evenodd" d="M183.851 215.28V284.496L255.785 284.65L267.614 216.181L183.851 215.28ZM189.329 220.818L261.12 221.59L251.173 279.162L189.329 279.03V220.818Z" fill="#626A80"/>
<path fill-rule="evenodd" clip-rule="evenodd" d="M183.851 215.28V284.496L255.785 284.65L267.614 216.181L183.851 215.28ZM189.329 220.818L261.12 221.59L251.173 279.162L189.329 279.03V220.818Z" fill="#F6F8F9" fill-opacity="0.55"/>
<path d="M180.356 130.647C192.507 132.343 187.416 146.338 184.001 153.895C179.992 162.765 183.504 168.712 183.504 168.712L202.287 162.043C195.393 153.276 203.007 148.393 201.132 137.94C199.451 128.563 190.325 124.332 184.559 124.532C181.681 124.631 179.326 125.372 177.461 126.323C177.39 126.359 177.322 126.398 177.258 126.438C173.852 122.94 169.137 120.85 163.687 120.85C152.48 120.85 142.411 129.692 142.411 141.432C142.411 153.173 151.496 162.69 162.703 162.69C173.91 162.69 182.995 153.173 182.995 141.432C182.995 137.42 182.049 133.746 180.356 130.647Z" fill="#3A3A3A"/>
<path fill-rule="evenodd" clip-rule="evenodd" d="M160.721 163.251C160.721 163.251 164.888 163.375 166.664 162.405L160.942 165.997L160.721 163.251Z" fill="#CF3E83"/>
<path d="M145.186 147.545C145.811 152.381 147.432 159.194 151.434 161.855C153.558 163.266 157.425 163.44 160.722 163.25L161.476 172.612L172.233 168.184C172.233 168.184 171.199 157.852 170.75 153.892C172.913 151.932 176.597 151.024 176.603 147.695C176.603 146.541 175.929 144.546 173.442 144.54C170.103 144.536 170.58 148.539 170.58 148.539C170.166 148.699 169.751 148.69 169.338 148.543C166.032 148.405 156.837 147.021 150.585 136.338C149.855 139.934 148.339 144.416 145.186 147.545Z" fill="#F6DE9A"/>
<path opacity="0.402786" fill-rule="evenodd" clip-rule="evenodd" d="M160.728 163.251C160.728 163.251 164.895 163.375 166.671 162.404L160.949 165.996L160.728 163.251Z" fill="#161616"/>
<path fill-rule="evenodd" clip-rule="evenodd" d="M177.472 215.818L179.699 215.786C179.699 215.786 179.696 215.751 179.693 215.676C178.926 215.731 178.184 215.776 177.472 215.818Z" fill="#C7404A"/>
<path d="M132.097 239.95L139.448 240.871L151.288 222.353L151.72 216.199L169.757 215.931L177.456 215.818H177.472C178.184 215.776 178.926 215.731 179.693 215.676C189.39 215 202.825 213.114 203.746 207.893C205.419 198.438 192.767 180.089 191.272 177.962C191.178 177.83 191.13 177.759 191.13 177.759C189.01 174.729 186.876 172.374 184.884 171.12C181.011 168.68 177.379 168.145 173.927 168.155L173.003 161.455L158.923 163.398L159.69 168.967C155.555 169.364 152.742 170.172 150.109 172.589C141.656 180.35 141.034 209.415 141.034 209.415L132.097 239.95Z" fill="#C7404A"/>
<path fill-rule="evenodd" clip-rule="evenodd" d="M169.757 215.931V216.06C169.757 216.06 172.986 216.066 177.456 215.818L169.757 215.931Z" fill="#C7404A"/>
<path opacity="0.201149" d="M151.979 216.124C150.945 202.994 143.789 200.218 148.945 185.492" stroke="#161616" stroke-width="0.966797"/>
<path opacity="0.200498" d="M180.041 188.096L186.828 199.334L169.953 206.011" stroke="#161616" stroke-width="0.966797"/>
<g clip-path="url(#clip0_2764_10013)">
<rect width="27.317" height="36.4227" rx="4.04696" transform="matrix(1 0 0.33501 0.942215 126.652 183.692)" fill="#3E5DE7"/>
<rect width="27.317" height="36.4227" rx="4.04696" transform="matrix(1 0 0.33501 0.942215 126.652 183.692)" fill="#F6F8F9" fill-opacity="0.975"/>
<path fill-rule="evenodd" clip-rule="evenodd" d="M133.5 191.48C133.313 190.954 133.614 190.527 134.173 190.527H143.279C143.838 190.527 144.442 190.954 144.629 191.48C144.817 192.006 144.515 192.433 143.957 192.433H134.851C134.292 192.433 133.688 192.006 133.5 191.48Z" fill="#3E5DE7"/>
<path fill-rule="evenodd" clip-rule="evenodd" d="M133.5 191.48C133.313 190.954 133.614 190.527 134.173 190.527H143.279C143.838 190.527 144.442 190.954 144.629 191.48C144.817 192.006 144.515 192.433 143.957 192.433H134.851C134.292 192.433 133.688 192.006 133.5 191.48Z" fill="#F6F8F9" fill-opacity="0.45"/>
<path fill-rule="evenodd" clip-rule="evenodd" d="M134.646 194.704C134.459 194.178 134.76 193.751 135.319 193.751H152.454C153.013 193.751 153.618 194.178 153.805 194.704C153.992 195.231 153.691 195.658 153.132 195.658H135.997C135.438 195.658 134.834 195.231 134.646 194.704ZM135.663 197.564C135.476 197.038 135.777 196.611 136.336 196.611H153.471C154.03 196.611 154.635 197.038 154.822 197.564C155.009 198.091 154.708 198.517 154.149 198.517H137.014C136.455 198.517 135.85 198.091 135.663 197.564ZM136.68 200.424C136.493 199.897 136.794 199.471 137.353 199.471H154.488C155.047 199.471 155.652 199.897 155.839 200.424C156.026 200.95 155.725 201.377 155.166 201.377H138.031C137.472 201.377 136.867 200.95 136.68 200.424ZM137.697 203.284C137.51 202.757 137.811 202.33 138.37 202.33H155.505C156.064 202.33 156.668 202.757 156.856 203.284C157.043 203.81 156.742 204.237 156.183 204.237H139.047C138.489 204.237 137.884 203.81 137.697 203.284Z" fill="#3E5DE7"/>
<path fill-rule="evenodd" clip-rule="evenodd" d="M134.646 194.704C134.459 194.178 134.76 193.751 135.319 193.751H152.454C153.013 193.751 153.618 194.178 153.805 194.704C153.992 195.231 153.691 195.658 153.132 195.658H135.997C135.438 195.658 134.834 195.231 134.646 194.704ZM135.663 197.564C135.476 197.038 135.777 196.611 136.336 196.611H153.471C154.03 196.611 154.635 197.038 154.822 197.564C155.009 198.091 154.708 198.517 154.149 198.517H137.014C136.455 198.517 135.85 198.091 135.663 197.564ZM136.68 200.424C136.493 199.897 136.794 199.471 137.353 199.471H154.488C155.047 199.471 155.652 199.897 155.839 200.424C156.026 200.95 155.725 201.377 155.166 201.377H138.031C137.472 201.377 136.867 200.95 136.68 200.424ZM137.697 203.284C137.51 202.757 137.811 202.33 138.37 202.33H155.505C156.064 202.33 156.668 202.757 156.856 203.284C157.043 203.81 156.742 204.237 156.183 204.237H139.047C138.489 204.237 137.884 203.81 137.697 203.284Z" fill="#F6F8F9" fill-opacity="0.65"/>
<path fill-rule="evenodd" clip-rule="evenodd" d="M138.726 206.177C138.538 205.651 138.84 205.224 139.398 205.224H156.534C157.093 205.224 157.697 205.651 157.884 206.177C158.072 206.704 157.77 207.131 157.212 207.131H140.076C139.518 207.131 138.913 206.704 138.726 206.177ZM139.742 209.037C139.555 208.511 139.856 208.084 140.415 208.084H157.551C158.109 208.084 158.714 208.511 158.901 209.037C159.088 209.564 158.787 209.99 158.228 209.99H141.093C140.534 209.99 139.93 209.564 139.742 209.037ZM140.759 211.897C140.572 211.37 140.873 210.944 141.432 210.944H158.567C159.126 210.944 159.731 211.37 159.918 211.897C160.105 212.423 159.804 212.85 159.245 212.85H142.11C141.551 212.85 140.946 212.423 140.759 211.897ZM141.776 214.757C141.589 214.23 141.89 213.803 142.449 213.803H159.584C160.143 213.803 160.748 214.23 160.935 214.757C161.122 215.283 160.821 215.71 160.262 215.71H143.127C142.568 215.71 141.963 215.283 141.776 214.757Z" fill="#3E5DE7"/>
<path fill-rule="evenodd" clip-rule="evenodd" d="M138.726 206.177C138.538 205.651 138.84 205.224 139.398 205.224H156.534C157.093 205.224 157.697 205.651 157.884 206.177C158.072 206.704 157.77 207.131 157.212 207.131H140.076C139.518 207.131 138.913 206.704 138.726 206.177ZM139.742 209.037C139.555 208.511 139.856 208.084 140.415 208.084H157.551C158.109 208.084 158.714 208.511 158.901 209.037C159.088 209.564 158.787 209.99 158.228 209.99H141.093C140.534 209.99 139.93 209.564 139.742 209.037ZM140.759 211.897C140.572 211.37 140.873 210.944 141.432 210.944H158.567C159.126 210.944 159.731 211.37 159.918 211.897C160.105 212.423 159.804 212.85 159.245 212.85H142.11C141.551 212.85 140.946 212.423 140.759 211.897ZM141.776 214.757C141.589 214.23 141.89 213.803 142.449 213.803H159.584C160.143 213.803 160.748 214.23 160.935 214.757C161.122 215.283 160.821 215.71 160.262 215.71H143.127C142.568 215.71 141.963 215.283 141.776 214.757Z" fill="#F6F8F9" fill-opacity="0.65"/>
</g>
<rect x="0.819516" y="0.578393" width="26.0893" height="35.1949" rx="3.4331" transform="matrix(1 0 0.33501 0.942215 126.458 183.725)" stroke="#3E5DE7" stroke-width="1.22773"/>
<rect x="0.819516" y="0.578393" width="26.0893" height="35.1949" rx="3.4331" transform="matrix(1 0 0.33501 0.942215 126.458 183.725)" stroke="#F6F8F9" stroke-opacity="0.55" stroke-width="1.22773"/>
<rect x="0.819516" y="0.578393" width="26.0893" height="35.1949" rx="3.4331" transform="matrix(1 0 0.33501 0.942215 125.814 184.37)" fill="#3E5DE7"/>
<rect x="0.819516" y="0.578393" width="26.0893" height="35.1949" rx="3.4331" transform="matrix(1 0 0.33501 0.942215 125.814 184.37)" fill="#F6F8F9" fill-opacity="0.975"/>
<rect x="0.819516" y="0.578393" width="26.0893" height="35.1949" rx="3.4331" transform="matrix(1 0 0.33501 0.942215 125.814 184.37)" stroke="#3E5DE7" stroke-width="1.22773"/>
<rect x="0.819516" y="0.578393" width="26.0893" height="35.1949" rx="3.4331" transform="matrix(1 0 0.33501 0.942215 125.814 184.37)" stroke="#F6F8F9" stroke-opacity="0.65" stroke-width="1.22773"/>
<path d="M162.389 208.023C162.469 208.081 162.561 208.276 162.63 208.351C162.577 208.394 162.524 208.445 162.464 208.5C161.954 208.966 160.989 209.791 156.841 210.827C156.008 211.034 153.215 211.073 153.215 211.073C152.393 211.191 150.669 211.351 150.551 212.318C150.52 212.558 150.82 212.817 150.82 212.817C150.802 212.819 149.737 212.9 149.672 213.872C149.644 214.255 152.039 214.639 152.068 214.643C152.048 214.649 150.911 214.945 150.889 215.666C150.895 215.873 157.94 217.206 157.94 217.206L156.405 217.297L154.81 217.22C154.81 217.22 153.981 217.374 153.933 218.062C153.917 218.335 155.386 218.627 157.094 218.851C159.75 219.2 161.659 218.892 163.527 218.383C163.684 218.339 163.836 218.3 163.982 218.262C165.905 217.757 166.762 217.663 169.236 216.315C170.333 215.718 171.95 214.533 172.625 213.933L170.843 207.337L168.385 206.497C168.379 206.495 167.239 206.049 165.318 205.694C164.109 205.471 162.928 205.56 161.68 205.425L162.389 208.023Z" fill="#AE7E61"/>
<path d="M116.339 303.399L117.171 310.659C117.171 310.659 101.696 314.716 95.8784 320.749L124.727 320.799L123.647 300.006L116.339 303.399ZM79.812 276.192C79.812 276.192 64.6083 271.022 56.397 272.854L80.2544 288.687L91.1313 270.858L83.1343 269.653L79.812 276.192Z" fill="#3F475A"/>
<path d="M116.332 304.879L116.397 310.906L124.232 310.618L123.997 301.833L116.332 304.879ZM79.0117 275.663L85.7314 279.759L90.3975 272.273L82.293 270.58L79.0117 275.663Z" fill="#AE7E61"/>
<path d="M104.748 263.645L108.715 306.708H127.09L126.275 244.184L161.348 244.425C171.354 244.425 181.032 235.832 180.338 225.846L179.247 215.678L125.684 199.854C115.769 197.612 112.331 200.574 105.902 212.018L77.5183 270.2L93.1108 280.619L104.748 263.645Z" fill="#3F4759"/>
<path opacity="0.150484" fill-rule="evenodd" clip-rule="evenodd" d="M121.21 219.38L161.348 244.425L126.275 244.184L127.09 306.708H108.715L102.415 238.328C100.861 225.886 108.648 219.38 121.21 219.38Z" fill="#18181C"/>
<g filter="url(#filter1_d_2764_10013)">
<g clip-path="url(#clip1_2764_10013)">
<rect x="281.264" y="104.092" width="27.2949" height="27.2949" rx="13.6474" fill="white"/>
<rect x="281.264" y="104.092" width="27.2949" height="27.2949" rx="13.6474" fill="#63A0EE"/>
<rect x="281.264" y="104.092" width="27.2949" height="27.2949" rx="13.6474" fill="white" fill-opacity="0.6"/>
<path d="M301.494 112.194C305.999 112.823 304.112 118.012 302.846 120.813C301.359 124.102 302.661 126.307 302.661 126.307L309.625 123.834C307.069 120.584 309.892 118.774 309.197 114.898C308.574 111.422 305.19 109.853 303.053 109.927C301.986 109.964 301.112 110.239 300.421 110.591C300.395 110.604 300.37 110.619 300.346 110.634C299.083 109.337 297.335 108.562 295.314 108.562C291.16 108.562 287.427 111.84 287.427 116.193C287.427 120.546 290.795 124.074 294.95 124.074C299.105 124.074 302.473 120.546 302.473 116.193C302.473 114.705 302.122 113.343 301.494 112.194Z" fill="#3A3A3A"/>
<path fill-rule="evenodd" clip-rule="evenodd" d="M294.214 124.282C294.214 124.282 295.759 124.328 296.418 123.968L294.296 125.3L294.214 124.282Z" fill="#CF3E83"/>
<path d="M288.455 118.459C288.687 120.252 289.288 122.778 290.772 123.765C291.559 124.288 292.993 124.352 294.215 124.282L294.519 130.231L299.722 129.363C299.722 129.363 298.099 122.281 297.933 120.812C298.735 120.086 300.101 119.749 300.103 118.515C300.103 118.087 299.853 117.347 298.931 117.345C297.693 117.344 297.87 118.828 297.87 118.828C297.717 118.887 297.563 118.884 297.409 118.829C296.184 118.778 292.775 118.265 290.457 114.304C290.186 115.638 289.624 117.299 288.455 118.459Z" fill="#FDE39C"/>
<path opacity="0.402786" fill-rule="evenodd" clip-rule="evenodd" d="M294.217 124.282C294.217 124.282 295.762 124.328 296.421 123.968L294.3 125.3L294.217 124.282Z" fill="#161616"/>
</g>
<rect x="282.022" y="104.85" width="25.7785" height="25.7785" rx="12.8893" stroke="#63A0EE" stroke-width="1.51638"/>
</g>
<g filter="url(#filter2_d_2764_10013)">
<g clip-path="url(#clip2_2764_10013)">
<rect x="55.9771" y="145.905" width="27.2949" height="27.2949" rx="13.6474" fill="white"/>
<rect x="55.9771" y="145.905" width="27.2949" height="27.2949" rx="13.6474" fill="#C49711"/>
<rect x="55.9771" y="145.905" width="27.2949" height="27.2949" rx="13.6474" fill="white" fill-opacity="0.6"/>
<path d="M57.2947 164.693C57.2947 163.189 62.9288 150.686 70.2448 150.908C80.3939 151.216 82.9969 166.949 82.5322 168.497C82.1623 169.73 80.3796 170.179 72.5634 169.96C60.8239 169.632 57.2947 166.039 57.2947 164.693Z" fill="#161616"/>
<path fill-rule="evenodd" clip-rule="evenodd" d="M70.9608 167.481C70.9608 167.481 69.4158 167.526 68.7573 167.167L70.8787 168.498L70.9608 167.481Z" fill="#CF3E83"/>
<path d="M70.6825 157.248C72.4633 158.147 75.2676 159.796 76.6939 161.854C76.4443 163.63 75.8343 166.012 74.4038 166.963C73.6165 167.486 72.1827 167.551 70.9606 167.48L70.7182 172.043L66.6302 171.919C66.6302 171.919 67.1958 165.602 67.3618 164.131C66.5601 163.404 65.075 162.947 65.0725 161.712C65.0725 161.285 65.3222 160.545 66.2447 160.543C67.4824 160.542 67.3069 162.025 67.3069 162.025C68.558 162.512 69.8358 158.802 70.6825 157.248Z" fill="#EAC7B2"/>
<path opacity="0.398182" fill-rule="evenodd" clip-rule="evenodd" d="M70.9578 167.481C70.9578 167.481 69.4128 167.526 68.7544 167.167L70.8757 168.498L70.9578 167.481Z" fill="#161616"/>
</g>
<rect x="56.7352" y="146.663" width="25.7785" height="25.7785" rx="12.8893" stroke="#C49711" stroke-width="1.51638"/>
</g>
<g filter="url(#filter3_d_2764_10013)">
<rect x="158.642" y="51.1666" width="27.2949" height="27.2949" rx="13.6474" fill="white"/>
<rect x="158.642" y="51.1666" width="27.2949" height="27.2949" rx="13.6474" fill="#D28C81"/>
<rect x="158.642" y="51.1666" width="27.2949" height="27.2949" rx="13.6474" fill="white" fill-opacity="0.6"/>
<rect x="159.4" y="51.9248" width="25.7785" height="25.7785" rx="12.8893" stroke="#D28C81" stroke-width="1.51638"/>
<path d="M171.303 77.1029L171.41 73.4148C171.41 73.4148 166.9 73.7717 165.935 73.2736C165.935 73.2736 164.895 67.8415 166.191 63.7633L175.709 62.6571L176.386 68.0954C176.706 67.1557 179.209 66.0789 179.901 67.4245C181.399 70.3403 176.04 72.3035 176.04 72.3035L176.584 77.1472" fill="#845D48"/>
<path opacity="0.399344" fill-rule="evenodd" clip-rule="evenodd" d="M171.41 73.415L174.451 72.767L171.425 74.7987L171.41 73.415Z" fill="#161616"/>
<path d="M178.185 66.9335C178.607 65.3718 180.137 59.6072 179.957 58.6231C179.748 57.4826 178.949 56.0825 174.843 54.614C171.365 53.3699 169.403 54.2708 168.809 55.0374C167.904 56.2038 166.191 63.7639 166.191 63.7639C166.191 63.7639 167.609 64.7661 172.635 64.5933C172.635 64.5933 171.939 67.6 174.791 67.4272C174.791 67.4272 174.486 68.4398 175.866 68.7583C176.623 67.588 177.628 67.1151 178.185 66.9335Z" fill="#3A3A3A"/>
</g>
<g filter="url(#filter4_d_2764_10013)">
<g clip-path="url(#clip3_2764_10013)">
<rect x="28.5588" y="117.507" width="27.2949" height="27.2949" rx="13.6474" fill="white"/>
<rect x="28.5588" y="117.507" width="27.2949" height="27.2949" rx="13.6474" fill="#FF706E"/>
<rect x="28.5588" y="117.507" width="27.2949" height="27.2949" rx="13.6474" fill="white" fill-opacity="0.6"/>
<path d="M43.2746 143.398L42.9633 137.263C42.9633 137.263 47.2792 137.606 48.2025 137.127C48.2025 137.127 49.3308 131.321 47.9851 128.105L47.9578 127.98L38.8501 126.916L38.2834 132.073C37.9766 131.169 35.5008 130.207 34.8388 131.502C33.4045 134.306 38.533 136.194 38.533 136.194L37.4523 143.151" fill="#845D48"/>
<path opacity="0.400274" fill-rule="evenodd" clip-rule="evenodd" d="M42.9634 137.263L40.0532 136.64L42.9494 138.594L42.9634 137.263Z" fill="#161616"/>
<path fill-rule="evenodd" clip-rule="evenodd" d="M38.3387 132.128C37.6586 131.424 36.9184 131.125 36.4695 131.001L36.5551 129.224L40.8334 128.479C40.5386 130.462 39.3935 131.543 38.3387 132.128Z" fill="#EACB47"/>
<path fill-rule="evenodd" clip-rule="evenodd" d="M48.2377 128.799C47.8523 128.433 45.3401 128.319 42.3202 128.552C41.6178 128.606 40.9444 128.674 40.3217 128.753C38.2632 129.011 36.7486 129.378 36.5021 129.701C36.2286 125.665 38.7036 123.261 41.9441 123.038C44.07 122.891 45.9979 123.719 47.1519 125.446C47.7425 126.33 48.131 127.452 48.2377 128.799Z" fill="#393954"/>
<path fill-rule="evenodd" clip-rule="evenodd" d="M48.2864 128.879H48.2853C48.2812 128.851 48.2647 128.824 48.2377 128.799C47.8523 128.433 45.3401 128.319 42.3202 128.551C41.6177 128.605 40.9444 128.673 40.3218 128.752C41.2075 127.912 42.8278 126.583 44.7392 125.987C45.5566 125.732 46.3854 125.546 47.152 125.445C49.0126 125.199 50.5055 125.452 50.5801 126.417C50.6764 127.672 48.6076 128.723 48.2864 128.879Z" fill="#161629"/>
</g>
<rect x="29.317" y="118.266" width="25.7785" height="25.7785" rx="12.8893" stroke="#FF706E" stroke-width="1.51638"/>
</g>
<mask id="path-58-inside-1_2764_10013" fill="white">
<path d="M145.618 9.7923C147.543 9.79245 149.104 11.3533 149.104 13.2786V58.3372C149.573 61.0946 151.048 63.7779 154.496 64.7855C155.032 64.9424 154.999 65.7076 154.44 65.6985C152.272 65.6613 149.68 65.5915 148.924 65.4691C148.114 65.3375 147.376 65.1173 146.709 64.8177C146.366 64.931 145.999 64.9944 145.618 64.9944H6.64404C4.71875 64.9944 3.15787 63.4334 3.15771 61.5081V13.2786C3.15771 11.3532 4.71866 9.7923 6.64404 9.7923H145.618Z"/>
</mask>
<path d="M145.618 9.7923C147.543 9.79245 149.104 11.3533 149.104 13.2786V58.3372C149.573 61.0946 151.048 63.7779 154.496 64.7855C155.032 64.9424 154.999 65.7076 154.44 65.6985C152.272 65.6613 149.68 65.5915 148.924 65.4691C148.114 65.3375 147.376 65.1173 146.709 64.8177C146.366 64.931 145.999 64.9944 145.618 64.9944H6.64404C4.71875 64.9944 3.15787 63.4334 3.15771 61.5081V13.2786C3.15771 11.3532 4.71866 9.7923 6.64404 9.7923H145.618Z" fill="#626A80"/>
<path d="M145.618 9.7923C147.543 9.79245 149.104 11.3533 149.104 13.2786V58.3372C149.573 61.0946 151.048 63.7779 154.496 64.7855C155.032 64.9424 154.999 65.7076 154.44 65.6985C152.272 65.6613 149.68 65.5915 148.924 65.4691C148.114 65.3375 147.376 65.1173 146.709 64.8177C146.366 64.931 145.999 64.9944 145.618 64.9944H6.64404C4.71875 64.9944 3.15787 63.4334 3.15771 61.5081V13.2786C3.15771 11.3532 4.71866 9.7923 6.64404 9.7923H145.618Z" fill="#F6F8F9" fill-opacity="0.9"/>
<path d="M145.618 9.7923L145.618 9.04525H145.618V9.7923ZM149.104 58.3372H148.357V58.4003L148.368 58.4626L149.104 58.3372ZM154.496 64.7855L154.705 64.0684L154.705 64.0684L154.496 64.7855ZM154.44 65.6985L154.427 66.4455L154.428 66.4455L154.44 65.6985ZM148.924 65.4691L148.805 66.2064L148.805 66.2065L148.924 65.4691ZM146.709 64.8177L147.016 64.1363L146.751 64.0174L146.476 64.1082L146.709 64.8177ZM145.618 64.9944V65.7415H145.618L145.618 64.9944ZM3.15771 61.5081H2.41067V61.5082L3.15771 61.5081ZM145.618 9.7923L145.618 10.5393C147.13 10.5395 148.357 11.766 148.357 13.2786H149.104H149.851C149.851 10.9407 147.955 9.04543 145.618 9.04525L145.618 9.7923ZM149.104 13.2786H148.357V58.3372H149.104H149.851V13.2786H149.104ZM149.104 58.3372L148.368 58.4626C148.867 61.3996 150.477 64.3894 154.286 65.5025L154.496 64.7855L154.705 64.0684C151.619 63.1665 150.279 60.7896 149.84 58.2119L149.104 58.3372ZM154.496 64.7855L154.286 65.5025C154.197 65.4766 154.127 65.375 154.133 65.2646C154.136 65.2097 154.158 65.1263 154.233 65.052C154.317 64.969 154.411 64.9509 154.452 64.9516L154.44 65.6985L154.428 66.4455C154.749 66.4507 155.056 66.3404 155.287 66.1116C155.508 65.8914 155.611 65.6086 155.625 65.3439C155.653 64.8139 155.331 64.2513 154.705 64.0684L154.496 64.7855ZM154.44 65.6985L154.453 64.9516C153.371 64.933 152.186 64.9063 151.18 64.8692C150.152 64.8313 149.366 64.7839 149.044 64.7316L148.924 65.4691L148.805 66.2065C149.238 66.2767 150.126 66.3254 151.125 66.3623C152.146 66.4 153.341 66.4268 154.427 66.4455L154.44 65.6985ZM148.924 65.4691L149.044 64.7317C148.294 64.6098 147.619 64.4073 147.016 64.1363L146.709 64.8177L146.403 65.4991C147.134 65.8273 147.935 66.0652 148.805 66.2064L148.924 65.4691ZM146.709 64.8177L146.476 64.1082C146.204 64.1979 145.916 64.2474 145.618 64.2474L145.618 64.9944L145.618 65.7415C146.083 65.7415 146.528 65.6641 146.943 65.5272L146.709 64.8177ZM145.618 64.9944V64.2474H6.64404V64.9944V65.7415H145.618V64.9944ZM6.64404 64.9944V64.2474C5.13139 64.2474 3.90488 63.0208 3.90476 61.5081L3.15771 61.5081L2.41067 61.5082C2.41085 63.8459 4.30611 65.7415 6.64404 65.7415V64.9944ZM3.15771 61.5081H3.90476V13.2786H3.15771H2.41067V61.5081H3.15771ZM3.15771 13.2786H3.90476C3.90476 11.7658 5.13124 10.5393 6.64404 10.5393V9.7923V9.04525C4.30607 9.04525 2.41067 10.9407 2.41067 13.2786H3.15771ZM6.64404 9.7923V10.5393H145.618V9.7923V9.04525H6.64404V9.7923Z" fill="#626A80" mask="url(#path-58-inside-1_2764_10013)"/>
<path d="M145.618 9.7923L145.618 9.04525H145.618V9.7923ZM149.104 58.3372H148.357V58.4003L148.368 58.4626L149.104 58.3372ZM154.496 64.7855L154.705 64.0684L154.705 64.0684L154.496 64.7855ZM154.44 65.6985L154.427 66.4455L154.428 66.4455L154.44 65.6985ZM148.924 65.4691L148.805 66.2064L148.805 66.2065L148.924 65.4691ZM146.709 64.8177L147.016 64.1363L146.751 64.0174L146.476 64.1082L146.709 64.8177ZM145.618 64.9944V65.7415H145.618L145.618 64.9944ZM3.15771 61.5081H2.41067V61.5082L3.15771 61.5081ZM145.618 9.7923L145.618 10.5393C147.13 10.5395 148.357 11.766 148.357 13.2786H149.104H149.851C149.851 10.9407 147.955 9.04543 145.618 9.04525L145.618 9.7923ZM149.104 13.2786H148.357V58.3372H149.104H149.851V13.2786H149.104ZM149.104 58.3372L148.368 58.4626C148.867 61.3996 150.477 64.3894 154.286 65.5025L154.496 64.7855L154.705 64.0684C151.619 63.1665 150.279 60.7896 149.84 58.2119L149.104 58.3372ZM154.496 64.7855L154.286 65.5025C154.197 65.4766 154.127 65.375 154.133 65.2646C154.136 65.2097 154.158 65.1263 154.233 65.052C154.317 64.969 154.411 64.9509 154.452 64.9516L154.44 65.6985L154.428 66.4455C154.749 66.4507 155.056 66.3404 155.287 66.1116C155.508 65.8914 155.611 65.6086 155.625 65.3439C155.653 64.8139 155.331 64.2513 154.705 64.0684L154.496 64.7855ZM154.44 65.6985L154.453 64.9516C153.371 64.933 152.186 64.9063 151.18 64.8692C150.152 64.8313 149.366 64.7839 149.044 64.7316L148.924 65.4691L148.805 66.2065C149.238 66.2767 150.126 66.3254 151.125 66.3623C152.146 66.4 153.341 66.4268 154.427 66.4455L154.44 65.6985ZM148.924 65.4691L149.044 64.7317C148.294 64.6098 147.619 64.4073 147.016 64.1363L146.709 64.8177L146.403 65.4991C147.134 65.8273 147.935 66.0652 148.805 66.2064L148.924 65.4691ZM146.709 64.8177L146.476 64.1082C146.204 64.1979 145.916 64.2474 145.618 64.2474L145.618 64.9944L145.618 65.7415C146.083 65.7415 146.528 65.6641 146.943 65.5272L146.709 64.8177ZM145.618 64.9944V64.2474H6.64404V64.9944V65.7415H145.618V64.9944ZM6.64404 64.9944V64.2474C5.13139 64.2474 3.90488 63.0208 3.90476 61.5081L3.15771 61.5081L2.41067 61.5082C2.41085 63.8459 4.30611 65.7415 6.64404 65.7415V64.9944ZM3.15771 61.5081H3.90476V13.2786H3.15771H2.41067V61.5081H3.15771ZM3.15771 13.2786H3.90476C3.90476 11.7658 5.13124 10.5393 6.64404 10.5393V9.7923V9.04525C4.30607 9.04525 2.41067 10.9407 2.41067 13.2786H3.15771ZM6.64404 9.7923V10.5393H145.618V9.7923V9.04525H6.64404V9.7923Z" fill="#F6F8F9" fill-opacity="0.9" mask="url(#path-58-inside-1_2764_10013)"/>
<path d="M131.693 56.3583C132.243 56.3583 132.689 56.8043 132.689 57.3544V58.1015C132.689 58.6515 132.243 59.0976 131.693 59.0976H13.9087C13.3586 59.0976 12.9127 58.6515 12.9126 58.1015V57.3544C12.9126 56.8043 13.3586 56.3583 13.9087 56.3583H131.693ZM138.353 50.2197C138.903 50.2197 139.349 50.6656 139.349 51.2158V51.9589C139.349 52.5088 138.903 52.955 138.353 52.955H13.9087C13.3587 52.955 12.9128 52.5088 12.9126 51.9589V51.2158C12.9126 50.6656 13.3586 50.2197 13.9087 50.2197H138.353Z" fill="#626A80"/>
<path d="M131.693 56.3583C132.243 56.3583 132.689 56.8043 132.689 57.3544V58.1015C132.689 58.6515 132.243 59.0976 131.693 59.0976H13.9087C13.3586 59.0976 12.9127 58.6515 12.9126 58.1015V57.3544C12.9126 56.8043 13.3586 56.3583 13.9087 56.3583H131.693ZM138.353 50.2197C138.903 50.2197 139.349 50.6656 139.349 51.2158V51.9589C139.349 52.5088 138.903 52.955 138.353 52.955H13.9087C13.3587 52.955 12.9128 52.5088 12.9126 51.9589V51.2158C12.9126 50.6656 13.3586 50.2197 13.9087 50.2197H138.353Z" fill="#F6F8F9" fill-opacity="0.65"/>
<path fill-rule="evenodd" clip-rule="evenodd" d="M12.9126 45.2351C12.9126 45.7852 13.3586 46.2311 13.9087 46.2311H138.353C138.903 46.2311 139.349 45.7852 139.349 45.2351V44.4923C139.349 43.9422 138.903 43.4962 138.353 43.4962H13.9087C13.3585 43.4962 12.9126 43.9422 12.9126 44.4923V45.2351Z" fill="#626A80"/>
<path fill-rule="evenodd" clip-rule="evenodd" d="M12.9126 45.2351C12.9126 45.7852 13.3586 46.2311 13.9087 46.2311H138.353C138.903 46.2311 139.349 45.7852 139.349 45.2351V44.4923C139.349 43.9422 138.903 43.4962 138.353 43.4962H13.9087C13.3585 43.4962 12.9126 43.9422 12.9126 44.4923V45.2351Z" fill="#F6F8F9" fill-opacity="0.65"/>
<path fill-rule="evenodd" clip-rule="evenodd" d="M12.9126 38.5116C12.9126 39.0617 13.3586 39.5077 13.9087 39.5077H138.353C138.903 39.5077 139.349 39.0617 139.349 38.5116V37.7688C139.349 37.2187 138.903 36.7728 138.353 36.7728H13.9087C13.3585 36.7728 12.9126 37.2187 12.9126 37.7688V38.5116Z" fill="#626A80"/>
<path fill-rule="evenodd" clip-rule="evenodd" d="M12.9126 38.5116C12.9126 39.0617 13.3586 39.5077 13.9087 39.5077H138.353C138.903 39.5077 139.349 39.0617 139.349 38.5116V37.7688C139.349 37.2187 138.903 36.7728 138.353 36.7728H13.9087C13.3585 36.7728 12.9126 37.2187 12.9126 37.7688V38.5116Z" fill="#F6F8F9" fill-opacity="0.65"/>
<path fill-rule="evenodd" clip-rule="evenodd" d="M12.9126 25.0648C12.9126 25.6149 13.3586 26.0608 13.9087 26.0608H138.353C138.903 26.0608 139.349 25.6149 139.349 25.0648V24.322C139.349 23.7719 138.903 23.3259 138.353 23.3259H13.9087C13.3585 23.3259 12.9126 23.7719 12.9126 24.322V25.0648Z" fill="#626A80"/>
<path fill-rule="evenodd" clip-rule="evenodd" d="M12.9126 25.0648C12.9126 25.6149 13.3586 26.0608 13.9087 26.0608H138.353C138.903 26.0608 139.349 25.6149 139.349 25.0648V24.322C139.349 23.7719 138.903 23.3259 138.353 23.3259H13.9087C13.3585 23.3259 12.9126 23.7719 12.9126 24.322V25.0648Z" fill="#F6F8F9" fill-opacity="0.65"/>
<path fill-rule="evenodd" clip-rule="evenodd" d="M12.9126 18.3414C12.9126 18.8915 13.3586 19.3374 13.9087 19.3374H138.353C138.903 19.3374 139.349 18.8915 139.349 18.3414V17.5986C139.349 17.0485 138.903 16.6025 138.353 16.6025H13.9087C13.3585 16.6025 12.9126 17.0485 12.9126 17.5986V18.3414Z" fill="#626A80"/>
<path fill-rule="evenodd" clip-rule="evenodd" d="M12.9126 18.3414C12.9126 18.8915 13.3586 19.3374 13.9087 19.3374H138.353C138.903 19.3374 139.349 18.8915 139.349 18.3414V17.5986C139.349 17.0485 138.903 16.6025 138.353 16.6025H13.9087C13.3585 16.6025 12.9126 17.0485 12.9126 17.5986V18.3414Z" fill="#F6F8F9" fill-opacity="0.65"/>
<path fill-rule="evenodd" clip-rule="evenodd" d="M12.8694 31.7057C12.8694 32.2558 13.3153 32.7018 13.8654 32.7018H72.8821C73.4323 32.7018 73.8782 32.2558 73.8782 31.7057V30.9586C73.8782 30.4085 73.4323 29.9626 72.8821 29.9626H13.8654C13.3153 29.9626 12.8694 30.4085 12.8694 30.9586V31.7057Z" fill="#626A80"/>
<path fill-rule="evenodd" clip-rule="evenodd" d="M12.8694 31.7057C12.8694 32.2558 13.3153 32.7018 13.8654 32.7018H72.8821C73.4323 32.7018 73.8782 32.2558 73.8782 31.7057V30.9586C73.8782 30.4085 73.4323 29.9626 72.8821 29.9626H13.8654C13.3153 29.9626 12.8694 30.4085 12.8694 30.9586V31.7057Z" fill="#F6F8F9" fill-opacity="0.65"/>
<path d="M83.8936 148.756L97.8492 145.583L94.676 131.627L80.7204 134.801L83.8936 148.756Z" fill="black"/>
<path d="M16.0496 119.05L29.9649 122.395L33.3103 108.48L19.395 105.134L16.0496 119.05Z" fill="black"/>
</g>
<defs>
<filter id="filter0_n_2764_10013" x="0" y="0" width="330.322" height="330" filterUnits="userSpaceOnUse" color-interpolation-filters="sRGB">
<feFlood flood-opacity="0" result="BackgroundImageFix"/>
<feBlend mode="normal" in="SourceGraphic" in2="BackgroundImageFix" result="shape"/>
<feTurbulence type="fractalNoise" baseFrequency="3.1030302047729492 3.1030302047729492" stitchTiles="stitch" numOctaves="3" result="noise" seed="1493" />
<feColorMatrix in="noise" type="luminanceToAlpha" result="alphaNoise" />
<feComponentTransfer in="alphaNoise" result="coloredNoise1">
<feFuncA type="discrete" tableValues="0 0 0 0 0 0 1 1 1 1 1 1 1 1 1 1 1 1 1 1 1 1 1 1 1 1 1 1 1 1 1 1 1 1 1 1 1 1 1 1 1 1 1 1 0 0 0 0 0 0 0 0 0 0 0 0 0 0 0 0 0 0 0 0 0 0 0 0 0 0 0 0 0 0 0 0 0 0 0 0 0 0 0 0 0 0 0 0 0 0 0 0 0 0 0 0 0 0 0 0 "/>
</feComponentTransfer>
<feComposite operator="in" in2="shape" in="coloredNoise1" result="noise1Clipped" />
<feFlood flood-color="rgba(131, 131, 131, 0.1)" result="color1Flood" />
<feComposite operator="in" in2="noise1Clipped" in="color1Flood" result="color1" />
<feMerge result="effect1_noise_2764_10013">
<feMergeNode in="shape" />
<feMergeNode in="color1" />
</feMerge>
</filter>
<filter id="filter1_d_2764_10013" x="270.662" y="93.4901" width="48.4983" height="48.4983" filterUnits="userSpaceOnUse" color-interpolation-filters="sRGB">
<feFlood flood-opacity="0" result="BackgroundImageFix"/>
<feColorMatrix in="SourceAlpha" type="matrix" values="0 0 0 0 0 0 0 0 0 0 0 0 0 0 0 0 0 0 127 0" result="hardAlpha"/>
<feMorphology radius="1.99719" operator="dilate" in="SourceAlpha" result="effect1_dropShadow_2764_10013"/>
<feOffset/>
<feGaussianBlur stdDeviation="4.30225"/>
<feComposite in2="hardAlpha" operator="out"/>
<feColorMatrix type="matrix" values="0 0 0 0 0.388235 0 0 0 0 0.627451 0 0 0 0 0.933333 0 0 0 0.25 0"/>
<feBlend mode="normal" in2="BackgroundImageFix" result="effect1_dropShadow_2764_10013"/>
<feBlend mode="normal" in="SourceGraphic" in2="effect1_dropShadow_2764_10013" result="shape"/>
</filter>
<filter id="filter2_d_2764_10013" x="45.3754" y="135.303" width="48.4983" height="48.4983" filterUnits="userSpaceOnUse" color-interpolation-filters="sRGB">
<feFlood flood-opacity="0" result="BackgroundImageFix"/>
<feColorMatrix in="SourceAlpha" type="matrix" values="0 0 0 0 0 0 0 0 0 0 0 0 0 0 0 0 0 0 127 0" result="hardAlpha"/>
<feMorphology radius="1.99719" operator="dilate" in="SourceAlpha" result="effect1_dropShadow_2764_10013"/>
<feOffset/>
<feGaussianBlur stdDeviation="4.30225"/>
<feComposite in2="hardAlpha" operator="out"/>
<feColorMatrix type="matrix" values="0 0 0 0 0.768627 0 0 0 0 0.592157 0 0 0 0 0.0666667 0 0 0 0.25 0"/>
<feBlend mode="normal" in2="BackgroundImageFix" result="effect1_dropShadow_2764_10013"/>
<feBlend mode="normal" in="SourceGraphic" in2="effect1_dropShadow_2764_10013" result="shape"/>
</filter>
<filter id="filter3_d_2764_10013" x="148.04" y="40.5649" width="48.4983" height="48.4983" filterUnits="userSpaceOnUse" color-interpolation-filters="sRGB">
<feFlood flood-opacity="0" result="BackgroundImageFix"/>
<feColorMatrix in="SourceAlpha" type="matrix" values="0 0 0 0 0 0 0 0 0 0 0 0 0 0 0 0 0 0 127 0" result="hardAlpha"/>
<feMorphology radius="1.99719" operator="dilate" in="SourceAlpha" result="effect1_dropShadow_2764_10013"/>
<feOffset/>
<feGaussianBlur stdDeviation="4.30225"/>
<feComposite in2="hardAlpha" operator="out"/>
<feColorMatrix type="matrix" values="0 0 0 0 0.823529 0 0 0 0 0.54902 0 0 0 0 0.505882 0 0 0 0.25 0"/>
<feBlend mode="normal" in2="BackgroundImageFix" result="effect1_dropShadow_2764_10013"/>
<feBlend mode="normal" in="SourceGraphic" in2="effect1_dropShadow_2764_10013" result="shape"/>
</filter>
<filter id="filter4_d_2764_10013" x="17.9572" y="106.906" width="48.4983" height="48.4983" filterUnits="userSpaceOnUse" color-interpolation-filters="sRGB">
<feFlood flood-opacity="0" result="BackgroundImageFix"/>
<feColorMatrix in="SourceAlpha" type="matrix" values="0 0 0 0 0 0 0 0 0 0 0 0 0 0 0 0 0 0 127 0" result="hardAlpha"/>
<feMorphology radius="1.99719" operator="dilate" in="SourceAlpha" result="effect1_dropShadow_2764_10013"/>
<feOffset/>
<feGaussianBlur stdDeviation="4.30225"/>
<feComposite in2="hardAlpha" operator="out"/>
<feColorMatrix type="matrix" values="0 0 0 0 1 0 0 0 0 0.439216 0 0 0 0 0.431373 0 0 0 0.25 0"/>
<feBlend mode="normal" in2="BackgroundImageFix" result="effect1_dropShadow_2764_10013"/>
<feBlend mode="normal" in="SourceGraphic" in2="effect1_dropShadow_2764_10013" result="shape"/>
</filter>
<clipPath id="clip0_2764_10013">
<rect width="27.317" height="36.4227" rx="4.04696" transform="matrix(1 0 0.33501 0.942215 126.652 183.692)" fill="white"/>
</clipPath>
<clipPath id="clip1_2764_10013">
<rect x="281.264" y="104.092" width="27.2949" height="27.2949" rx="13.6474" fill="white"/>
</clipPath>
<clipPath id="clip2_2764_10013">
<rect x="55.9771" y="145.905" width="27.2949" height="27.2949" rx="13.6474" fill="white"/>
</clipPath>
<clipPath id="clip3_2764_10013">
<rect x="28.5588" y="117.507" width="27.2949" height="27.2949" rx="13.6474" fill="white"/>
</clipPath>
</defs>
</svg>
