<svg width="1360" height="1360" viewBox="0 0 1360 1360" fill="none" xmlns="http://www.w3.org/2000/svg">
<g clip-path="url(#clip0_2178_3288)">
<rect width="1360" height="1360" fill="white"/>
<mask id="mask0_2178_3288" style="mask-type:alpha" maskUnits="userSpaceOnUse" x="4" y="131" width="827" height="1091">
<path fill-rule="evenodd" clip-rule="evenodd" d="M830.784 147.047L393.527 1221.02C157.914 1198.32 7.93095 1180.24 4.26477 934.789C-1.28025 563.551 150.683 275.154 469.001 168C586.595 128.415 713.429 121.467 830.784 147.047Z" fill="#F9F9FE"/>
</mask>
<g mask="url(#mask0_2178_3288)">
<path fill-rule="evenodd" clip-rule="evenodd" d="M613.29 1246.74C254.765 1190.29 8.97122 1249.86 4.26518 934.789C-1.27987 563.551 150.684 275.153 469.001 168C741.891 76.1382 1064.54 160.035 1203.02 418.335C1323.63 643.299 1388.84 941.176 1227.07 1168.42C1075.54 1381.27 831.836 1281.15 613.29 1246.74Z" fill="#F9F9FE"/>
<path fill-rule="evenodd" clip-rule="evenodd" d="M330.666 1052.57H337.591L380.145 769.074H356.198L330.666 1052.57Z" fill="#8585F6" fill-opacity="0.6"/>
<path fill-rule="evenodd" clip-rule="evenodd" d="M451.898 1052.57H458.823L501.376 769.074H477.43L451.898 1052.57Z" fill="#8585F6" fill-opacity="0.6"/>
<path fill-rule="evenodd" clip-rule="evenodd" d="M437.762 661.85H541.287L516.996 741.932H413.472L437.762 661.85Z" fill="#E3E3FD"/>
<path fill-rule="evenodd" clip-rule="evenodd" d="M533.999 667.001L513.262 735.378H420.621L441.358 667.001H533.999Z" fill="white"/>
<path fill-rule="evenodd" clip-rule="evenodd" d="M517.09 688.047L516.102 691.316H440.058L441.045 688.047H517.09Z" fill="#8585F6" fill-opacity="0.6"/>
<path fill-rule="evenodd" clip-rule="evenodd" d="M512.238 694.708L511.25 697.977H437.695L438.682 694.708H512.238Z" fill="#8585F6" fill-opacity="0.6"/>
<path fill-rule="evenodd" clip-rule="evenodd" d="M489.195 701.366L488.208 704.636H435.398L436.385 701.366H489.195Z" fill="#8585F6" fill-opacity="0.6"/>
<path fill-rule="evenodd" clip-rule="evenodd" d="M337.773 748.518H441.296V741.932H337.773V748.518Z" fill="#E3E3FD"/>
<path fill-rule="evenodd" clip-rule="evenodd" d="M441.296 748.518H516.958V741.932H441.296V748.518Z" fill="#ECECFE"/>
<path fill-rule="evenodd" clip-rule="evenodd" d="M541.2 661.85H547.562L523.271 741.932H516.91L541.2 661.85Z" fill="#ECECFE"/>
<path fill-rule="evenodd" clip-rule="evenodd" d="M302.679 769.075H693.743V748.519H302.679V769.075Z" fill="#8585F6" fill-opacity="0.6"/>
<path fill-rule="evenodd" clip-rule="evenodd" d="M665.462 769.075H818.032V748.519H665.462V769.075Z" fill="#E3E3FD"/>
<path fill-rule="evenodd" clip-rule="evenodd" d="M798.67 1052.57H805.595L780.063 769.074H756.117L798.67 1052.57Z" fill="#E3E3FD"/>
<path fill-rule="evenodd" clip-rule="evenodd" d="M676.971 1052.57H683.896L658.364 769.074H634.418L676.971 1052.57Z" fill="#E3E3FD"/>
<path fill-rule="evenodd" clip-rule="evenodd" d="M520.887 675.128L519.9 678.397H443.855L444.842 675.128H520.887Z" fill="#8585F6" fill-opacity="0.6"/>
<path fill-rule="evenodd" clip-rule="evenodd" d="M510.767 681.79L509.78 685.059H442.033L443.021 681.79H510.767Z" fill="#8585F6" fill-opacity="0.6"/>
<path fill-rule="evenodd" clip-rule="evenodd" d="M494.941 666.143L482.002 667.71L480.966 666.082L481.648 664.598L480.664 663.417L492.751 661.85L494.577 662.94L493.048 664.468L494.941 666.143Z" fill="#8585F6" fill-opacity="0.6"/>
</g>
<path fill-rule="evenodd" clip-rule="evenodd" d="M432 1176.97C435.58 1177.32 439.179 1177.66 442.798 1178.01C506.74 1184.16 576.785 1190.89 651.761 1202.69C689.078 1208.57 727.129 1216.36 765.329 1224.18C950.846 1262.17 1139.89 1300.88 1265.54 1124.37C1427.31 897.128 1362.1 599.251 1241.49 374.287C1162.69 227.295 1024.24 136.782 869.257 103L432 1176.97Z" fill="#F9F9FE"/>
<path fill-rule="evenodd" clip-rule="evenodd" d="M432 1176.97C435.58 1177.32 439.179 1177.66 442.799 1178.01C506.74 1184.15 576.786 1190.89 651.761 1202.69C689.078 1208.57 727.128 1216.36 765.328 1224.18L765.329 1224.18C950.846 1262.17 1139.89 1300.88 1265.54 1124.37C1304.11 1070.19 1329.78 1012 1344.87 951.74H523.7L432 1176.97Z" fill="#E3E3FD"/>
<path fill-rule="evenodd" clip-rule="evenodd" d="M485.228 995.789L393.528 1221.02C179.151 1200.37 35.6638 1183.54 8.77734 995.789H485.228Z" fill="#E3E3FD"/>
<path d="M276.588 452.948C276.475 453.473 276.356 453.997 276.23 454.522C276.14 454.9 276.051 455.268 275.952 455.644L275.961 455.646L273.069 467.735L251.816 556.57L132.301 527.977L156.446 427.053L156.591 427.087C156.826 425.684 157.111 424.278 157.447 422.873C160.689 409.322 168.19 397.904 178.19 389.698C165.222 382.819 158.015 367.822 161.589 352.884C165.828 335.165 183.628 324.237 201.348 328.477C219.066 332.716 229.994 350.516 225.755 368.234C225.096 370.991 224.108 373.583 222.844 375.979C225.719 376.247 228.61 376.722 231.5 377.413C264.503 385.309 284.856 418.464 276.961 451.466C276.842 451.963 276.718 452.457 276.588 452.948Z" fill="#3A3A3A"/>
<path d="M216.732 436.969C217.642 437.516 218.595 438.025 219.586 438.493C220.388 438.877 221.213 439.228 222.069 439.549C223.439 440.079 224.878 440.519 226.361 440.874C235.766 443.124 244.883 441.305 250.631 436.731C250.646 437.684 250.699 438.631 250.789 439.569C250.845 440.049 250.897 440.546 250.979 441.031C251.442 444.278 252.349 447.402 253.65 450.308C255.464 454.352 258.049 457.978 261.261 460.943C256.724 472.46 248.779 487.505 237.63 491.584C231.494 493.828 221.775 491.945 213.7 489.5L206.213 512.316C206.213 512.316 194.317 503.313 187.739 497.185C186.603 496.132 185.633 495.161 184.908 494.333C185.382 492.998 186.479 489.888 187.854 486.006L187.858 485.99C190.338 479 193.712 469.496 195.933 463.231C193.084 455.348 181.233 450.875 183.521 441.304C184.212 438.435 187.081 433.879 193.269 435.36C201.574 437.343 198 447.012 198 447.012C202.261 449.975 209.578 444.2 216.732 436.969Z" fill="#EAC7B2"/>
<path opacity="0.401344" fill-rule="evenodd" clip-rule="evenodd" d="M213.699 489.498C213.699 489.498 203.265 487.309 199.429 483.833L211.505 496.192L213.699 489.498Z" fill="#161616"/>
<path fill-rule="evenodd" clip-rule="evenodd" d="M215.676 497.398C214.293 496.176 213.394 495.541 213.394 495.541L183.058 493.974C183.058 493.974 185.641 500.737 188.377 509.3C193.784 526.228 206.611 530.033 217.789 530.014C228.228 529.997 231.776 520.097 224.99 508.621C221.857 503.319 218.052 499.495 215.676 497.398ZM120.451 672.054L124.883 690.527C124.883 690.527 125.224 694.73 125.004 699.604C124.994 699.822 124.984 700.037 124.975 700.248L124.974 700.255C124.767 704.756 124.627 707.773 126.746 715.124C128.292 720.488 120.906 717.843 119.196 714.718C118.565 713.565 118.261 711.287 117.944 708.919C117.377 704.672 116.772 700.136 114.17 701.284C110.119 703.072 107.086 714.81 106.087 726.177C105.929 727.963 104.388 729.208 103.371 729.574C101.723 730.169 100.636 722.878 100.636 722.878C100.636 722.878 99.4447 725.203 97.1955 723.819C96.4001 723.328 94.6199 718.211 94.6199 718.211C94.6199 718.211 93.0259 715.581 92.4103 712.821C91.3248 707.946 91.2119 699.185 91.971 696.73C93.6981 691.145 97.009 681.915 100.256 676.646C100.126 661.979 99.8857 604.331 103.99 593.693C108.7 581.483 117.224 565.114 117.224 565.114L142.508 582.019L128.947 603.979L120.451 672.054ZM239.969 619.126C238.277 605.684 239.795 588.327 239.795 588.327L261.409 575.462L266.876 607.456L289.155 677.378C293.529 682.52 299.019 689.102 299.804 690.642C301.133 693.256 303.594 706.193 303.477 708.749C303.36 711.305 295.694 722.79 295.694 722.79C290.937 721.625 294.044 715.693 294.044 715.693C294.044 715.693 289.783 719.297 288.012 719.236C271.33 718.667 272.225 710.221 272.618 709.163C273.504 706.788 277.958 709.505 277.958 709.505C277.958 709.505 269.235 691.809 271.518 679.643C264.426 668.104 241.32 629.857 239.969 619.126Z" fill="#EAC7B2"/>
<path opacity="0.146833" d="M281.364 686.324C281.364 686.324 283.705 695.166 291.738 697.922C294.548 698.885 293.845 710.259 300.731 708.898" stroke="#161616" stroke-width="2.47254"/>
<path fill-rule="evenodd" clip-rule="evenodd" d="M188.38 509.299C185.841 501.352 183.433 494.956 183.1 494.076C174.444 494.038 165.322 495.401 155.603 501.656C142.42 510.137 122.648 536.79 108.472 562.638L151.77 588.162L158.733 577.58C158.733 577.58 165.751 586.984 167.696 599.586C169.188 609.22 168.44 617.05 168.44 617.05H237.777L243.627 590.882L269.983 581.371C268.08 558.03 257.132 518.989 242.659 505.415C235.056 498.284 226.848 496.629 213.666 495.738C214.956 496.711 220.626 501.231 224.993 508.619C231.778 520.095 228.231 529.996 217.792 530.013C206.614 530.032 193.787 526.227 188.38 509.299ZM187.194 494.187L188.614 494.26C188.142 494.234 187.669 494.209 187.194 494.187Z" fill="#68A532"/>
<path opacity="0.204148" d="M238.107 617.577C240.751 583.998 258.228 576.073 245.041 538.414" stroke="#161616" stroke-width="3.29672"/>
<path opacity="0.195638" d="M216.527 495.943C216.536 495.95 216.544 495.957 216.552 495.964C218.603 497.815 221.24 500.516 223.154 502.991C224.332 504.516 225.423 506.113 226.409 507.782C233.724 520.152 229.777 531.643 217.792 531.662C202.826 531.688 191.743 525.254 186.807 509.801C185.616 506.074 184.368 502.415 183.139 498.981C182.709 497.779 182.313 496.692 181.959 495.738C181.835 495.405 181.725 495.112 181.631 494.863C181.575 494.714 181.474 494.127 181.455 494.077H183.097C183.546 494.077 184.741 493.899 184.9 494.21C185.377 495.144 185.809 496.656 186.243 497.87C187.484 501.338 188.744 505.032 189.947 508.798C194.398 522.733 204.141 528.389 217.787 528.365C226.826 528.351 229.735 519.884 223.571 509.459C222.656 507.911 221.642 506.426 220.545 505.007C218.759 502.696 216.844 500.668 214.932 498.942C214.266 498.341 213.649 497.821 213.098 497.386C212.81 497.158 211.442 495.888 211.073 495.562L216.527 495.943Z" fill="#161616"/>
<path opacity="0.204148" d="M176.509 555.722L160.448 580.056" stroke="#161616" stroke-width="3.29672"/>
<path fill-rule="evenodd" clip-rule="evenodd" d="M243.983 1045.81L245.962 1028.54L228.577 1020.46L226.774 1069.94L294.646 1069.82C280.804 1055.46 243.983 1045.81 243.983 1045.81ZM142.932 1023.82L123.696 1024.23L123.891 1046.22C123.891 1046.22 105.331 1049.44 98.9009 1069.94H147.153L145.062 1045.24L142.932 1023.82Z" fill="#467021"/>
<path fill-rule="evenodd" clip-rule="evenodd" d="M145.022 1025.04L126.258 1018.45L123.745 1045.24L144.916 1046.22L145.022 1025.04ZM246.415 1031.47L228.178 1024.22L227.618 1045.13L246.259 1045.81L246.415 1031.47Z" fill="#EAC7B2"/>
<path d="M119.563 1028.62C120.423 1001.83 125.978 832.574 131.686 731.876C135.641 662.08 165.242 623.653 170.797 617.013H241.324C241.453 617.905 250.946 685.105 252.683 825.717C254.243 951.642 252.635 1020.47 252.434 1028.57L252.434 1028.57L254.686 1028.57L254.701 1039.41L218.18 1039.47L218.165 1028.63L219.425 1028.63L219.424 1028.62L200.879 808.264L195.324 742.311L153.159 1028.57L153.158 1028.57L154.982 1028.57L154.345 1039.41L116.534 1039.47L117.171 1028.63L119.563 1028.62L119.563 1028.62Z" fill="#2F2F3D"/>
<path opacity="0.398065" fill-rule="evenodd" clip-rule="evenodd" d="M195.324 742.312L202.912 677.795L200.877 808.262L195.324 742.312Z" fill="#0A0A0F"/>
<path fill-rule="evenodd" clip-rule="evenodd" d="M957.084 1095.78H605C605 1095.78 638.169 1047.41 665.438 1046.65C697.982 1045.75 712.636 1081.53 743.888 1081.53C775.147 1081.53 796.075 994.001 853.932 994.001C915.695 994.001 957.084 1095.78 957.084 1095.78Z" fill="#F5F5FE"/>
<mask id="path-37-outside-1_2178_3288" maskUnits="userSpaceOnUse" x="353.083" y="76.4265" width="602" height="233" fill="black">
<rect fill="white" x="353.083" y="76.4265" width="602" height="233"/>
<path fill-rule="evenodd" clip-rule="evenodd" d="M361.597 99.0322C358.083 105.93 358.083 114.959 358.083 133.017V219.808V223.301V296.912C358.083 303.679 368.357 307.173 373.199 302.444C386.211 289.735 407.278 274.991 435.052 274.892H898.98C917.039 274.892 926.068 274.892 932.966 271.378C939.033 268.286 943.965 263.354 947.057 257.286C950.571 250.389 950.571 241.36 950.571 223.301V133.017C950.571 114.959 950.571 105.93 947.057 99.0322C943.965 92.965 939.033 88.0323 932.966 84.9409C926.068 81.4265 917.039 81.4265 898.98 81.4265H409.673C391.615 81.4265 382.586 81.4265 375.688 84.9409C369.621 88.0323 364.688 92.965 361.597 99.0322Z"/>
</mask>
<path fill-rule="evenodd" clip-rule="evenodd" d="M361.597 99.0322C358.083 105.93 358.083 114.959 358.083 133.017V219.808V223.301V296.912C358.083 303.679 368.357 307.173 373.199 302.444C386.211 289.735 407.278 274.991 435.052 274.892H898.98C917.039 274.892 926.068 274.892 932.966 271.378C939.033 268.286 943.965 263.354 947.057 257.286C950.571 250.389 950.571 241.36 950.571 223.301V133.017C950.571 114.959 950.571 105.93 947.057 99.0322C943.965 92.965 939.033 88.0323 932.966 84.9409C926.068 81.4265 917.039 81.4265 898.98 81.4265H409.673C391.615 81.4265 382.586 81.4265 375.688 84.9409C369.621 88.0323 364.688 92.965 361.597 99.0322Z" fill="white"/>
<path d="M361.597 99.0322L365.188 100.862L361.597 99.0322ZM373.199 302.444L376.015 305.327L376.015 305.327L373.199 302.444ZM435.052 274.892V270.862H435.045L435.038 270.862L435.052 274.892ZM932.966 271.378L931.136 267.787L932.966 271.378ZM947.057 257.286L950.648 259.116L947.057 257.286ZM947.057 99.0322L950.648 97.2023V97.2023L947.057 99.0322ZM932.966 84.9409L931.136 88.5321V88.5321L932.966 84.9409ZM375.688 84.9409L377.518 88.5321L375.688 84.9409ZM362.113 133.017C362.113 123.922 362.116 117.342 362.539 112.168C362.958 107.04 363.769 103.648 365.188 100.862L358.006 97.2023C355.911 101.314 354.964 105.885 354.505 111.511C354.049 117.09 354.052 124.055 354.052 133.017H362.113ZM362.113 219.808V133.017H354.052V219.808H362.113ZM362.113 223.301V219.808H354.052V223.301H362.113ZM362.113 296.912V223.301H354.052V296.912H362.113ZM370.383 299.56C369.385 300.534 367.38 300.975 365.175 300.191C362.968 299.407 362.113 297.998 362.113 296.912H354.052C354.052 302.593 358.334 306.315 362.475 307.787C366.618 309.259 372.171 309.082 376.015 305.327L370.383 299.56ZM435.038 270.862C405.785 270.966 383.765 286.491 370.383 299.56L376.015 305.327C388.657 292.98 408.772 279.017 435.067 278.923L435.038 270.862ZM898.98 270.862H435.052V278.923H898.98V270.862ZM931.136 267.787C928.35 269.206 924.958 270.017 919.83 270.436C914.656 270.858 908.076 270.862 898.98 270.862V278.923C907.943 278.923 914.908 278.926 920.487 278.47C926.113 278.01 930.684 277.064 934.795 274.969L931.136 267.787ZM943.466 255.457C940.761 260.765 936.445 265.082 931.136 267.787L934.795 274.969C941.621 271.491 947.17 265.942 950.648 259.116L943.466 255.457ZM946.541 223.301C946.541 232.397 946.538 238.977 946.115 244.151C945.696 249.279 944.885 252.671 943.466 255.457L950.648 259.116C952.743 255.005 953.689 250.434 954.149 244.808C954.605 239.229 954.602 232.264 954.602 223.301H946.541ZM946.541 133.017V223.301H954.602V133.017H946.541ZM943.466 100.862C944.885 103.648 945.696 107.04 946.115 112.168C946.538 117.342 946.541 123.922 946.541 133.017H954.602C954.602 124.055 954.605 117.09 954.149 111.511C953.689 105.885 952.743 101.314 950.648 97.2023L943.466 100.862ZM931.136 88.5321C936.445 91.2371 940.761 95.5532 943.466 100.862L950.648 97.2023C947.17 90.3768 941.621 84.8275 934.795 81.3497L931.136 88.5321ZM898.98 85.457C908.076 85.457 914.656 85.4602 919.83 85.8829C924.958 86.3019 928.35 87.1127 931.136 88.5321L934.795 81.3497C930.684 79.2547 926.113 78.3083 920.487 77.8486C914.908 77.3928 907.943 77.3959 898.98 77.3959V85.457ZM409.673 85.457H898.98V77.3959H409.673V85.457ZM377.518 88.5321C380.304 87.1127 383.696 86.3019 388.824 85.8829C393.998 85.4602 400.578 85.457 409.673 85.457V77.3959C400.711 77.3959 393.746 77.3928 388.167 77.8486C382.541 78.3083 377.97 79.2547 373.858 81.3497L377.518 88.5321ZM365.188 100.862C367.893 95.5532 372.209 91.2371 377.518 88.5321L373.858 81.3497C367.033 84.8275 361.483 90.3768 358.006 97.2023L365.188 100.862Z" fill="#E3E3FD" mask="url(#path-37-outside-1_2178_3288)"/>
<rect x="417.198" y="149.946" width="472.916" height="13.4351" rx="5.37405" fill="#CACAFB"/>
<rect x="417.198" y="201" width="472.916" height="12.0916" rx="5.37405" fill="#CACAFB"/>
<rect x="417.198" y="119.045" width="420.519" height="18.8092" rx="5.37405" fill="#CACAFB"/>
<rect x="417.198" y="175.473" width="472.916" height="13.4351" rx="5.37405" fill="#CACAFB"/>
<rect x="417.198" y="225.184" width="356.031" height="13.4351" rx="5.37405" fill="#CACAFB"/>
<g filter="url(#filter0_d_2178_3288)">
<g clip-path="url(#clip1_2178_3288)">
<rect x="303" y="25" width="110.168" height="110.168" rx="55.084" fill="white"/>
<rect x="303" y="25" width="110.168" height="110.168" rx="55.084" fill="#68A532" fill-opacity="0.3"/>
<path d="M392.359 84.1734C392.367 84.4812 392.371 84.79 392.372 85.0996C392.372 85.3223 392.372 85.5393 392.367 85.7625L392.372 85.7625L392.384 92.8937L392.465 145.296L319.354 145.401L319.262 85.8674L319.35 85.8673C319.291 85.0528 319.26 84.2307 319.258 83.4019C319.246 75.4082 321.994 68.032 326.635 62.112C318.176 60.0175 311.919 52.6209 311.905 43.8089C311.889 33.3571 320.663 24.8712 331.502 24.8556C342.341 24.84 351.141 33.3003 351.157 43.7522C351.16 45.378 350.95 46.9563 350.552 48.4625C352.253 48.2262 353.991 48.1027 355.759 48.1001C375.948 48.0708 392.338 63.8292 392.369 83.2969C392.369 83.5899 392.366 83.8821 392.359 84.1734Z" fill="#3A3A3A"/>
<path d="M355.512 83.3027C356.114 83.4854 356.736 83.6417 357.375 83.7695C357.892 83.8759 358.419 83.961 358.958 84.0248C359.825 84.1364 360.718 84.1889 361.625 84.1875C367.378 84.1793 372.399 81.9401 375.086 78.6169C375.228 79.1466 375.39 79.6675 375.573 80.1786C375.672 80.4387 375.772 80.7087 375.886 80.9683C376.607 82.7172 377.566 84.3381 378.723 85.784C380.336 87.7957 382.336 89.4711 384.607 90.6936C383.587 97.7263 381.087 107.185 375.207 110.957C371.971 113.033 366.087 113.288 361.075 113.009L358.958 131.091C358.958 131.091 350.734 134.645 346.076 132.111C345.272 131.676 342.613 128.395 342.079 128.031C342.167 127.222 345.384 116.882 345.639 114.532V114.522C346.1 110.291 346.728 104.536 347.14 100.744C344.394 96.7299 336.916 95.8268 336.906 90.1813C336.906 88.4886 337.931 85.5618 341.717 85.557C346.797 85.5476 346.076 91.4201 346.076 91.4201C348.953 92.5006 352.381 88.2967 355.512 83.3027Z" fill="#EAC7B2"/>
<path opacity="0.401344" fill-rule="evenodd" clip-rule="evenodd" d="M361.075 113.007C361.075 113.007 354.735 113.188 352.032 111.764L360.738 117.035L361.075 113.007Z" fill="#161616"/>
</g>
<rect x="306.06" y="28.0602" width="104.048" height="104.048" rx="52.0238" stroke="#68A532" stroke-width="6.12044"/>
</g>
<path fill-rule="evenodd" clip-rule="evenodd" d="M1021.18 771.652C1021.18 861.58 962.459 901.938 890.309 901.938C818.166 901.938 759.444 861.58 759.444 771.652C759.444 604.136 830.864 447.699 890.309 447.699C949.761 447.699 1021.18 604.136 1021.18 771.652Z" fill="#ECECFE"/>
<path d="M890.312 626.054V976.579" stroke="#CACAFB" stroke-width="6.34921" stroke-linecap="square"/>
<path d="M892.693 842.92L941.293 794.319" stroke="#CACAFB" stroke-width="6.34921" stroke-linecap="square"/>
<path d="M891.9 686.558L922.1 656.358" stroke="#CACAFB" stroke-width="6.34921" stroke-linecap="square"/>
<path d="M888.724 771.948L843.918 727.142" stroke="#CACAFB" stroke-width="6.34921" stroke-linecap="square"/>
<path d="M1135.85 552.672L1136.54 528.958C1136.54 528.958 1107.54 531.252 1101.34 528.05C1101.34 528.05 1094.65 493.12 1102.98 466.897L1164.18 459.784L1168.53 494.753C1170.6 488.711 1186.69 481.787 1191.13 490.439C1200.77 509.188 1166.31 521.812 1166.31 521.812L1169.81 552.957" fill="#845D48"/>
<path opacity="0.399344" fill-rule="evenodd" clip-rule="evenodd" d="M1136.54 528.959L1156.1 524.792L1136.63 537.856L1136.54 528.959Z" fill="#161616"/>
<path d="M1180.1 487.281C1182.82 477.239 1192.65 440.172 1191.49 433.844C1190.15 426.51 1185.02 417.508 1158.62 408.065C1136.25 400.065 1123.63 405.858 1119.81 410.787C1114 418.288 1102.98 466.9 1102.98 466.9C1102.98 466.9 1112.1 473.344 1144.41 472.233C1144.41 472.233 1139.94 491.566 1158.28 490.455C1158.28 490.455 1156.32 496.966 1165.19 499.014C1170.06 491.489 1176.52 488.448 1180.1 487.281Z" fill="#3A3A3A"/>
<path fill-rule="evenodd" clip-rule="evenodd" d="M1122.33 1092.7L1122.1 1073.04L1147.45 1060.27L1151.13 1116.48H1063.31C1078.25 1099.65 1122.33 1092.7 1122.33 1092.7ZM1224.28 1093.47L1224.05 1071.39L1248.35 1088.38L1252.25 1092.25L1258.26 1116.48H1198.15C1205.71 1095.9 1224.28 1093.47 1224.28 1093.47Z" fill="#A44F29"/>
<path fill-rule="evenodd" clip-rule="evenodd" d="M1221.61 1071.38L1246.96 1063.77L1252.25 1092.25L1224.27 1093.47L1221.61 1071.38ZM1122.1 1073.04L1147.44 1065.42L1149.49 1091.48L1122.32 1092.7L1122.1 1073.04Z" fill="#EAC7B2"/>
<path d="M1197.2 1062.12H1193.22L1195.65 1084.83H1262.67L1260.24 1062.12H1255.81L1205.91 690.29L1174.55 690.289L1098.3 690.289L1104.63 1062.52H1101.21V1084.43H1168.23V1062.52H1164.44L1168.23 922.923L1197.2 1062.12Z" fill="#2F2F3D"/>
<path opacity="0.200358" fill-rule="evenodd" clip-rule="evenodd" d="M1169.35 935.828L1141.43 755.812L1166.82 987.824L1169.35 935.828Z" fill="#161616"/>
<path fill-rule="evenodd" clip-rule="evenodd" d="M1173.54 548.372C1171.68 551.632 1163.5 563.684 1144.1 564.824C1125.37 565.916 1126.76 556 1127.74 552.684C1128.18 552.564 1128.62 552.443 1129.06 552.32C1133.18 551.18 1137.56 549.967 1143.56 549.345C1159.95 547.647 1161.24 547.523 1173.54 548.372ZM1025.09 600.947C1034 618.45 1065.29 675.903 1087.6 666.739C1104.3 659.878 1124.29 602.991 1124.29 602.991L1091.79 583.649L1077.19 622.742L1047.37 590.346C1048.38 583.927 1049.19 575.535 1047.17 572.577C1043.74 567.542 1026.35 552.029 1026.35 552.029L1023.18 578.313L1022.63 576.097C1022.63 575.974 1022.6 575.84 1022.54 575.696L1022.53 575.684L1022.52 575.654L1021.24 570.525C1021.78 570.254 1022 569.868 1021.77 569.333C1021.58 568.898 1021.17 568.423 1020.59 567.922L1016.22 550.411C1016.22 550.411 1014.79 551.049 1012.68 552.004C1009.3 551.307 997.056 559.633 996.87 559.759L996.868 559.761C994.374 561.371 1000.31 587.992 1005.12 592.937C1008.55 596.456 1019.22 599.489 1025.09 600.947ZM1224.2 719.652L1222.21 723.431C1222.21 723.431 1220.41 726.519 1218.52 731.909C1217.82 733.901 1217.49 735.608 1217.14 737.395C1216.55 740.442 1215.91 743.725 1213.34 749.061C1208.71 758.671 1216.99 754.708 1219.96 750.514C1220.94 749.135 1221.46 747.553 1221.95 746.034C1222.64 743.946 1223.28 741.98 1225.02 740.831C1225.11 740.97 1225.21 741.114 1225.31 741.271C1226.42 742.923 1228.44 745.935 1229.62 758.602C1229.85 761.088 1228.72 769.154 1228.72 769.154C1228.72 769.334 1228.71 769.528 1228.71 769.734L1228.71 769.735C1228.67 772.298 1228.59 776.668 1231.14 777.38C1231.82 777.571 1232.71 776.817 1232.71 776.817C1232.71 776.817 1232.44 779.971 1235.25 780.599C1236.36 780.846 1238.55 774.036 1238.55 774.036C1238.55 774.036 1238.89 777.494 1240.99 777.879C1241.58 777.987 1248.59 758.258 1248.59 758.258L1248.17 762.714L1247.24 767.278C1247.24 767.278 1247.31 769.735 1249.28 770.169C1250.07 770.342 1251.57 766.245 1252.98 761.424C1255.17 753.923 1255.13 748.286 1254.48 742.681C1254.33 741.322 1254.22 740.143 1254.11 739.061C1253.71 734.751 1253.45 731.965 1251.04 725.326C1250.68 724.333 1250.19 723.192 1249.65 722.019C1251.31 707.739 1255.97 665.94 1255.4 653.107C1254.7 637.543 1238.21 602.991 1238.21 602.991L1204.73 621.707L1223.19 655.331L1224.2 719.652Z" fill="#845D48"/>
<path fill-rule="evenodd" clip-rule="evenodd" d="M1205.74 690.883H1098.33L1094.4 624.584L1075.54 613.597L1088.75 583.231L1088.87 583.254C1089.42 582.15 1090.02 581.004 1090.68 579.815C1098.88 565.049 1112.9 556.723 1127.74 552.684C1127.98 552.618 1128.08 552.572 1128.09 552.587C1128.11 552.626 1127.6 553.06 1127.45 554.574C1127.25 556.691 1127.92 559.563 1128.62 560.437C1130.28 562.496 1132.78 563.665 1133.79 563.94C1134.8 564.215 1135.6 564.375 1136.49 564.553C1137.11 564.677 1140.67 564.94 1141.28 564.908C1146.34 564.644 1148.82 564.41 1152 563.654C1153.13 563.386 1154.3 563.081 1155.68 562.499C1155.94 562.39 1156.22 562.273 1156.53 562.148C1158.02 561.533 1160.01 560.715 1162.04 559.585C1164.17 558.391 1166.35 556.815 1167.93 555.205C1168.08 555.05 1168.23 554.899 1168.38 554.752C1170.03 553.065 1171.16 551.914 1171.94 550.759C1172.47 549.978 1172.67 549.718 1172.79 549.566C1172.86 549.473 1172.9 549.421 1172.97 549.315C1173.14 549.034 1173.29 548.787 1173.33 548.621C1173.38 548.442 1173.22 548.366 1173.22 548.348C1173.23 548.337 1173.3 548.349 1173.54 548.372C1181.1 549.119 1189.23 551.07 1198.09 555.205C1225.49 567.988 1241.51 600.105 1241.51 600.105L1207.54 625.501L1205.74 690.883Z" fill="#E4794A"/>
<path opacity="0.200521" d="M1207.55 625.498L1198.93 631.328L1178.22 607.282" stroke="#161616" stroke-width="4.0383"/>
<path d="M1010.86 582.993L1012.36 590.334H1036.66L1025.2 531.889H1000.9C1001.52 535.101 1003.01 542.665 1005.35 554.583L1010.12 552.374L1011.61 551.963L1012.78 552.028L1013.29 552.374V553.794L1008.1 561.244L1012.07 562.971L1018.19 566.169L1019.95 567.389L1020.64 568.021L1021.2 568.52L1021.55 568.949L1021.77 569.332L1021.86 569.83L1021.77 570.051L1021.66 570.22L1021.5 570.373L1019.5 571.079L1014.93 569.83H1010.41L1016.44 571.079L1020.42 573.45L1021.77 574.719L1022.53 575.652V576.505L1021.2 577.104L1012.78 576.141L1015.57 577.652L1017.42 578.793L1019.11 579.663L1020.42 581.347V582.178L1019.95 582.666L1018.78 583.288H1016.99H1013.38L1010.86 582.993Z" fill="#E4794A"/>
<path fill-rule="evenodd" clip-rule="evenodd" d="M1036.66 590.334H1040.68L1029.22 531.889H1025.2L1036.66 590.334Z" fill="#020101"/>
<path fill-rule="evenodd" clip-rule="evenodd" d="M1021.02 538.675C1021.35 540.382 1022.35 541.625 1023.24 541.451C1024.13 541.278 1024.58 539.753 1024.25 538.046C1023.91 536.338 1022.92 535.095 1022.02 535.269C1021.13 535.443 1020.68 536.968 1021.02 538.675Z" fill="#020101"/>
<mask id="path-67-outside-2_2178_3288" maskUnits="userSpaceOnUse" x="352.489" y="361.161" width="602" height="211" fill="black">
<rect fill="white" x="352.489" y="361.161" width="602" height="211"/>
<path fill-rule="evenodd" clip-rule="evenodd" d="M945.974 383.767C949.489 390.664 949.489 399.693 949.489 417.752L949.489 483.046V560.15C949.489 566.917 939.214 570.411 934.372 565.682C921.367 552.98 900.315 538.245 872.562 538.13H408.591C390.532 538.13 381.503 538.13 374.606 534.616C368.539 531.525 363.606 526.592 360.514 520.525C357 513.627 357 504.598 357 486.54V417.752C357 399.693 357 390.664 360.514 383.767C363.606 377.699 368.539 372.767 374.606 369.675C381.503 366.161 390.532 366.161 408.591 366.161H897.898C915.956 366.161 924.986 366.161 931.883 369.675C937.95 372.767 942.883 377.699 945.974 383.767Z"/>
</mask>
<path fill-rule="evenodd" clip-rule="evenodd" d="M945.974 383.767C949.489 390.664 949.489 399.693 949.489 417.752L949.489 483.046V560.15C949.489 566.917 939.214 570.411 934.372 565.682C921.367 552.98 900.315 538.245 872.562 538.13H408.591C390.532 538.13 381.503 538.13 374.606 534.616C368.539 531.525 363.606 526.592 360.514 520.525C357 513.627 357 504.598 357 486.54V417.752C357 399.693 357 390.664 360.514 383.767C363.606 377.699 368.539 372.767 374.606 369.675C381.503 366.161 390.532 366.161 408.591 366.161H897.898C915.956 366.161 924.986 366.161 931.883 369.675C937.95 372.767 942.883 377.699 945.974 383.767Z" fill="white"/>
<path d="M949.489 417.752H945.458H949.489ZM945.974 383.767L942.383 385.596L945.974 383.767ZM949.489 483.046H953.519H949.489ZM934.372 565.682L931.556 568.565L931.556 568.565L934.372 565.682ZM872.562 538.13V534.1H872.571L872.579 534.1L872.562 538.13ZM374.606 534.616L376.436 531.025L374.606 534.616ZM360.514 520.525L356.923 522.355L360.514 520.525ZM360.514 383.767L356.923 381.937V381.937L360.514 383.767ZM374.606 369.675L376.436 373.267L376.436 373.267L374.606 369.675ZM931.883 369.675L930.053 373.267L931.883 369.675ZM945.458 417.752C945.458 408.656 945.455 402.077 945.032 396.902C944.613 391.774 943.803 388.382 942.383 385.596L949.566 381.937C951.661 386.048 952.607 390.619 953.067 396.246C953.522 401.825 953.519 408.789 953.519 417.752H945.458ZM945.458 483.046L945.458 417.752H953.519L953.519 483.046H945.458ZM945.458 560.15V483.046H953.519V560.15H945.458ZM937.189 562.798C938.186 563.772 940.191 564.213 942.396 563.429C944.603 562.645 945.458 561.236 945.458 560.15H953.519C953.519 565.831 949.237 569.553 945.096 571.025C940.954 572.497 935.4 572.32 931.556 568.565L937.189 562.798ZM872.579 534.1C901.81 534.22 923.814 549.735 937.189 562.798L931.556 568.565C918.921 556.224 898.82 542.269 872.546 542.161L872.579 534.1ZM408.591 534.1H872.562V542.161H408.591V534.1ZM376.436 531.025C379.221 532.444 382.614 533.255 387.741 533.674C392.916 534.097 399.495 534.1 408.591 534.1V542.161C399.628 542.161 392.664 542.164 387.085 541.708C381.459 541.249 376.888 540.302 372.776 538.207L376.436 531.025ZM364.106 518.695C366.811 524.004 371.127 528.32 376.436 531.025L372.776 538.207C365.95 534.729 360.401 529.18 356.923 522.355L364.106 518.695ZM361.031 486.54C361.031 495.635 361.034 502.215 361.456 507.389C361.875 512.517 362.686 515.909 364.106 518.695L356.923 522.355C354.828 518.243 353.882 513.672 353.422 508.046C352.966 502.467 352.97 495.502 352.97 486.54H361.031ZM361.031 417.752V486.54H352.97V417.752H361.031ZM364.106 385.596C362.686 388.382 361.875 391.774 361.456 396.902C361.034 402.077 361.031 408.656 361.031 417.752H352.97C352.97 408.789 352.966 401.825 353.422 396.246C353.882 390.619 354.828 386.048 356.923 381.937L364.106 385.596ZM376.436 373.267C371.127 375.971 366.811 380.288 364.106 385.596L356.923 381.937C360.401 375.111 365.95 369.562 372.776 366.084L376.436 373.267ZM408.591 370.191C399.495 370.191 392.916 370.195 387.741 370.617C382.614 371.036 379.221 371.847 376.436 373.267L372.776 366.084C376.888 363.989 381.459 363.043 387.085 362.583C392.664 362.127 399.628 362.13 408.591 362.13V370.191ZM897.898 370.191H408.591V362.13H897.898V370.191ZM930.053 373.267C927.267 371.847 923.875 371.036 918.748 370.617C913.573 370.195 906.994 370.191 897.898 370.191V362.13C906.861 362.13 913.825 362.127 919.404 362.583C925.03 363.043 929.601 363.989 933.713 366.084L930.053 373.267ZM942.383 385.596C939.678 380.288 935.362 375.971 930.053 373.267L933.713 366.084C940.538 369.562 946.088 375.111 949.566 381.937L942.383 385.596Z" fill="#E3E3FD" mask="url(#path-67-outside-2_2178_3288)"/>
<rect x="409.395" y="438.709" width="483.664" height="13.4351" rx="5.37405" fill="#CACAFB"/>
<rect x="409.395" y="489.763" width="279.45" height="12.0916" rx="5.37405" fill="#CACAFB"/>
<rect x="409.395" y="407.808" width="337.221" height="18.8092" rx="5.37405" fill="#CACAFB"/>
<rect x="409.395" y="464.236" width="483.664" height="13.4351" rx="5.37405" fill="#CACAFB"/>
<g filter="url(#filter1_d_2178_3288)">
<rect x="895.748" y="311.076" width="110.168" height="110.168" rx="55.084" fill="white"/>
<rect x="895.748" y="311.076" width="110.168" height="110.168" rx="55.084" fill="#E4794A" fill-opacity="0.3"/>
<rect x="898.808" y="314.136" width="104.048" height="104.048" rx="52.0238" stroke="#E4794A" stroke-width="6.12044"/>
<path d="M946.851 415.763L947.285 400.877C947.285 400.877 929.082 402.317 925.187 400.307C925.187 400.307 920.99 378.382 926.219 361.921L964.634 357.456L967.367 379.406C968.661 375.614 978.761 371.268 981.553 376.699C987.602 388.467 965.971 396.391 965.971 396.391L968.168 415.942" fill="#845D48"/>
<path opacity="0.399344" fill-rule="evenodd" clip-rule="evenodd" d="M947.284 400.877L959.559 398.261L947.343 406.461L947.284 400.877Z" fill="#161616"/>
<path d="M974.627 374.715C976.333 368.412 982.506 345.145 981.779 341.173C980.937 336.569 977.712 330.918 961.141 324.991C947.102 319.969 939.182 323.606 936.783 326.7C933.133 331.408 926.219 361.922 926.219 361.922C926.219 361.922 931.94 365.967 952.227 365.269C952.227 365.269 949.418 377.405 960.93 376.708C960.93 376.708 959.697 380.795 965.268 382.08C968.325 377.357 972.381 375.448 974.627 374.715Z" fill="#3A3A3A"/>
</g>
</g>
<defs>
<filter id="filter0_d_2178_3288" x="294.939" y="16.9389" width="126.29" height="126.29" filterUnits="userSpaceOnUse" color-interpolation-filters="sRGB">
<feFlood flood-opacity="0" result="BackgroundImageFix"/>
<feColorMatrix in="SourceAlpha" type="matrix" values="0 0 0 0 0 0 0 0 0 0 0 0 0 0 0 0 0 0 127 0" result="hardAlpha"/>
<feMorphology radius="8.06107" operator="dilate" in="SourceAlpha" result="effect1_dropShadow_2178_3288"/>
<feOffset/>
<feComposite in2="hardAlpha" operator="out"/>
<feColorMatrix type="matrix" values="0 0 0 0 1 0 0 0 0 1 0 0 0 0 1 0 0 0 1 0"/>
<feBlend mode="normal" in2="BackgroundImageFix" result="effect1_dropShadow_2178_3288"/>
<feBlend mode="normal" in="SourceGraphic" in2="effect1_dropShadow_2178_3288" result="shape"/>
</filter>
<filter id="filter1_d_2178_3288" x="887.686" y="303.015" width="126.29" height="126.29" filterUnits="userSpaceOnUse" color-interpolation-filters="sRGB">
<feFlood flood-opacity="0" result="BackgroundImageFix"/>
<feColorMatrix in="SourceAlpha" type="matrix" values="0 0 0 0 0 0 0 0 0 0 0 0 0 0 0 0 0 0 127 0" result="hardAlpha"/>
<feMorphology radius="8.06107" operator="dilate" in="SourceAlpha" result="effect1_dropShadow_2178_3288"/>
<feOffset/>
<feComposite in2="hardAlpha" operator="out"/>
<feColorMatrix type="matrix" values="0 0 0 0 1 0 0 0 0 1 0 0 0 0 1 0 0 0 1 0"/>
<feBlend mode="normal" in2="BackgroundImageFix" result="effect1_dropShadow_2178_3288"/>
<feBlend mode="normal" in="SourceGraphic" in2="effect1_dropShadow_2178_3288" result="shape"/>
</filter>
<clipPath id="clip0_2178_3288">
<rect width="1360" height="1360" fill="white"/>
</clipPath>
<clipPath id="clip1_2178_3288">
<rect x="303" y="25" width="110.168" height="110.168" rx="55.084" fill="white"/>
</clipPath>
</defs>
</svg>
