<svg width="330" height="330" viewBox="0 0 330 330" fill="none" xmlns="http://www.w3.org/2000/svg">
<rect width="330" height="330" fill="white"/>
<path fill-rule="evenodd" clip-rule="evenodd" d="M325.87 204.259C325.87 204.259 303.969 252.597 301.354 305.153C301.354 305.153 313.612 251.894 325.87 204.259" fill="#626A80"/>
<path fill-rule="evenodd" clip-rule="evenodd" d="M325.87 204.259C325.87 204.259 303.969 252.597 301.354 305.153C301.354 305.153 313.612 251.894 325.87 204.259" fill="#F6F8F9" fill-opacity="0.65"/>
<path fill-rule="evenodd" clip-rule="evenodd" d="M286.685 241.406C286.685 241.406 302.448 241.816 304.848 294.372C304.848 294.372 298.121 254.706 286.685 241.406" fill="#626A80"/>
<path fill-rule="evenodd" clip-rule="evenodd" d="M286.685 241.406C286.685 241.406 302.448 241.816 304.848 294.372C304.848 294.372 298.121 254.706 286.685 241.406" fill="#F6F8F9" fill-opacity="0.65"/>
<path fill-rule="evenodd" clip-rule="evenodd" d="M302.782 188.507C302.782 188.507 311.983 244.112 302.926 300.693C302.926 300.693 303.464 241.598 302.782 188.507" fill="#626A80"/>
<path fill-rule="evenodd" clip-rule="evenodd" d="M302.782 188.507C302.782 188.507 311.983 244.112 302.926 300.693C302.926 300.693 303.464 241.598 302.782 188.507" fill="#F6F8F9" fill-opacity="0.65"/>
<path fill-rule="evenodd" clip-rule="evenodd" d="M315.194 315.573H292.436C292.265 315.573 292.095 315.57 291.925 315.564C281.548 315.176 275.775 302.05 281.652 292.58L286.866 284.18H320.765L325.978 292.58C331.856 302.05 326.082 315.176 315.705 315.564C315.535 315.57 315.365 315.573 315.194 315.573" fill="#626A80"/>
<path fill-rule="evenodd" clip-rule="evenodd" d="M315.194 315.573H292.436C292.265 315.573 292.095 315.57 291.925 315.564C281.548 315.176 275.775 302.05 281.652 292.58L286.866 284.18H320.765L325.978 292.58C331.856 302.05 326.082 315.176 315.705 315.564C315.535 315.57 315.365 315.573 315.194 315.573" fill="#F6F8F9" fill-opacity="0.8"/>
<path d="M279.3 303.499H328.331" stroke="#626A80" stroke-width="3.03339"/>
<path d="M279.3 303.499H328.331" stroke="#F6F8F9" stroke-opacity="0.65" stroke-width="3.03339"/>
<path d="M280.438 295.381H327.35" stroke="#626A80" stroke-width="3.03339"/>
<path d="M280.438 295.381H327.35" stroke="#F6F8F9" stroke-opacity="0.65" stroke-width="3.03339"/>
<mask id="path-7-outside-1_3788_11619" maskUnits="userSpaceOnUse" x="143.07" y="45.2783" width="123" height="47" fill="black">
<rect fill="white" x="143.07" y="45.2783" width="123" height="47"/>
<path fill-rule="evenodd" clip-rule="evenodd" d="M146.255 53.2122C145.07 55.5369 145.07 58.5802 145.07 64.6667V68.6877C145.07 71.3014 145.07 73.3539 145.164 75.0293H145.07V87.2622C145.07 89.5432 148.72 90.8579 150.563 89.5137C153.102 87.6617 156.471 86.0758 160.562 86.0758H161.492C161.805 86.076 162.127 86.076 162.459 86.076H246.5C252.586 86.076 255.63 86.076 257.954 84.8915C259.999 83.8496 261.662 82.187 262.704 80.1422C263.888 77.8174 263.888 74.7742 263.888 68.6877V64.6667C263.888 58.5802 263.888 55.5369 262.704 53.2122C261.662 51.1673 259.999 49.5048 257.954 48.4628C255.63 47.2783 252.586 47.2783 246.5 47.2783H162.459C156.372 47.2783 153.329 47.2783 151.004 48.4628C148.959 49.5048 147.297 51.1673 146.255 53.2122Z"/>
</mask>
<path fill-rule="evenodd" clip-rule="evenodd" d="M146.255 53.2122C145.07 55.5369 145.07 58.5802 145.07 64.6667V68.6877C145.07 71.3014 145.07 73.3539 145.164 75.0293H145.07V87.2622C145.07 89.5432 148.72 90.8579 150.563 89.5137C153.102 87.6617 156.471 86.0758 160.562 86.0758H161.492C161.805 86.076 162.127 86.076 162.459 86.076H246.5C252.586 86.076 255.63 86.076 257.954 84.8915C259.999 83.8496 261.662 82.187 262.704 80.1422C263.888 77.8174 263.888 74.7742 263.888 68.6877V64.6667C263.888 58.5802 263.888 55.5369 262.704 53.2122C261.662 51.1673 259.999 49.5048 257.954 48.4628C255.63 47.2783 252.586 47.2783 246.5 47.2783H162.459C156.372 47.2783 153.329 47.2783 151.004 48.4628C148.959 49.5048 147.297 51.1673 146.255 53.2122Z" fill="#6D778C"/>
<path fill-rule="evenodd" clip-rule="evenodd" d="M146.255 53.2122C145.07 55.5369 145.07 58.5802 145.07 64.6667V68.6877C145.07 71.3014 145.07 73.3539 145.164 75.0293H145.07V87.2622C145.07 89.5432 148.72 90.8579 150.563 89.5137C153.102 87.6617 156.471 86.0758 160.562 86.0758H161.492C161.805 86.076 162.127 86.076 162.459 86.076H246.5C252.586 86.076 255.63 86.076 257.954 84.8915C259.999 83.8496 261.662 82.187 262.704 80.1422C263.888 77.8174 263.888 74.7742 263.888 68.6877V64.6667C263.888 58.5802 263.888 55.5369 262.704 53.2122C261.662 51.1673 259.999 49.5048 257.954 48.4628C255.63 47.2783 252.586 47.2783 246.5 47.2783H162.459C156.372 47.2783 153.329 47.2783 151.004 48.4628C148.959 49.5048 147.297 51.1673 146.255 53.2122Z" fill="#F6F8F9" fill-opacity="0.975"/>
<path d="M146.255 53.2122L147.465 53.8289L146.255 53.2122ZM145.164 75.0293V76.3877H146.601L146.52 74.9533L145.164 75.0293ZM145.07 75.0293V73.6708H143.712V75.0293H145.07ZM150.563 89.5137L151.363 90.6112H151.363L150.563 89.5137ZM161.492 86.0758L161.493 84.7174H161.492V86.0758ZM257.954 84.8915L258.571 86.1019V86.1019L257.954 84.8915ZM262.704 80.1422L261.493 79.5254V79.5254L262.704 80.1422ZM262.704 53.2122L261.493 53.8289V53.8289L262.704 53.2122ZM257.954 48.4628L258.571 47.2524V47.2524L257.954 48.4628ZM151.004 48.4628L151.621 49.6732L151.004 48.4628ZM145.07 64.6667H146.429C146.429 61.601 146.43 59.3835 146.572 57.6394C146.713 55.9112 146.987 54.7679 147.465 53.8289L146.255 53.2122L145.044 52.5955C144.338 53.9813 144.019 55.5219 143.864 57.4182C143.711 59.2985 143.712 61.6458 143.712 64.6667H145.07ZM145.07 68.6877H146.429V64.6667H145.07H143.712V68.6877H145.07ZM145.164 75.0293L146.52 74.9533C146.429 73.3245 146.429 71.3156 146.429 68.6877H145.07H143.712C143.712 71.2871 143.711 73.3833 143.808 75.1052L145.164 75.0293ZM145.07 75.0293V76.3877H145.164V75.0293V73.6708H145.07V75.0293ZM145.07 87.2622H146.429V75.0293H145.07H143.712V87.2622H145.07ZM150.563 89.5137L149.762 88.4161C149.338 88.7259 148.493 88.8227 147.619 88.4818C146.73 88.1351 146.429 87.6025 146.429 87.2622H145.07H143.712C143.712 89.2028 145.235 90.4681 146.632 91.013C148.044 91.5636 149.945 91.6456 151.363 90.6112L150.563 89.5137ZM160.562 86.0758V84.7174C156.104 84.7174 152.461 86.4477 149.762 88.4161L150.563 89.5137L151.363 90.6112C153.743 88.8756 156.837 87.4343 160.562 87.4343V86.0758ZM161.492 86.0758V84.7174H160.562V86.0758V87.4343H161.492V86.0758ZM162.459 86.076V84.7176C162.127 84.7176 161.806 84.7176 161.493 84.7174L161.492 86.0758L161.491 87.4343C161.805 87.4345 162.127 87.4345 162.459 87.4345V86.076ZM246.5 86.076V84.7176H162.459V86.076V87.4345H246.5V86.076ZM257.954 84.8915L257.338 83.6811C256.399 84.1595 255.255 84.4328 253.527 84.574C251.783 84.7165 249.566 84.7176 246.5 84.7176V86.076V87.4345C249.521 87.4345 251.868 87.4356 253.748 87.2819C255.645 87.127 257.185 86.808 258.571 86.1019L257.954 84.8915ZM262.704 80.1422L261.493 79.5254C260.582 81.3147 259.127 82.7694 257.338 83.6811L257.954 84.8915L258.571 86.1019C260.872 84.9298 262.742 83.0594 263.914 80.7589L262.704 80.1422ZM263.888 68.6877H262.53C262.53 71.7533 262.529 73.9709 262.386 75.715C262.245 77.4432 261.972 78.5865 261.493 79.5254L262.704 80.1422L263.914 80.7589C264.62 79.3731 264.939 77.8324 265.094 75.9362C265.248 74.0558 265.247 71.7085 265.247 68.6877H263.888ZM263.888 64.6667H262.53V68.6877H263.888H265.247V64.6667H263.888ZM262.704 53.2122L261.493 53.8289C261.972 54.7679 262.245 55.9112 262.386 57.6394C262.529 59.3835 262.53 61.601 262.53 64.6667H263.888H265.247C265.247 61.6458 265.248 59.2985 265.094 57.4182C264.939 55.5219 264.62 53.9813 263.914 52.5955L262.704 53.2122ZM257.954 48.4628L257.338 49.6732C259.127 50.5849 260.582 52.0396 261.493 53.8289L262.704 53.2122L263.914 52.5955C262.742 50.295 260.872 48.4246 258.571 47.2524L257.954 48.4628ZM246.5 47.2783V48.6368C249.566 48.6368 251.783 48.6378 253.527 48.7803C255.255 48.9215 256.399 49.1948 257.338 49.6732L257.954 48.4628L258.571 47.2524C257.185 46.5463 255.645 46.2274 253.748 46.0724C251.868 45.9188 249.521 45.9199 246.5 45.9199V47.2783ZM162.459 47.2783V48.6368H246.5V47.2783V45.9199H162.459V47.2783ZM151.004 48.4628L151.621 49.6732C152.56 49.1948 153.703 48.9215 155.431 48.7803C157.175 48.6378 159.393 48.6368 162.459 48.6368V47.2783V45.9199C159.438 45.9199 157.09 45.9188 155.21 46.0724C153.314 46.2274 151.773 46.5463 150.387 47.2524L151.004 48.4628ZM146.255 53.2122L147.465 53.8289C148.377 52.0396 149.832 50.5849 151.621 49.6732L151.004 48.4628L150.387 47.2524C148.087 48.4246 146.216 50.295 145.044 52.5955L146.255 53.2122Z" fill="#6D778C" mask="url(#path-7-outside-1_3788_11619)"/>
<path d="M146.255 53.2122L147.465 53.8289L146.255 53.2122ZM145.164 75.0293V76.3877H146.601L146.52 74.9533L145.164 75.0293ZM145.07 75.0293V73.6708H143.712V75.0293H145.07ZM150.563 89.5137L151.363 90.6112H151.363L150.563 89.5137ZM161.492 86.0758L161.493 84.7174H161.492V86.0758ZM257.954 84.8915L258.571 86.1019V86.1019L257.954 84.8915ZM262.704 80.1422L261.493 79.5254V79.5254L262.704 80.1422ZM262.704 53.2122L261.493 53.8289V53.8289L262.704 53.2122ZM257.954 48.4628L258.571 47.2524V47.2524L257.954 48.4628ZM151.004 48.4628L151.621 49.6732L151.004 48.4628ZM145.07 64.6667H146.429C146.429 61.601 146.43 59.3835 146.572 57.6394C146.713 55.9112 146.987 54.7679 147.465 53.8289L146.255 53.2122L145.044 52.5955C144.338 53.9813 144.019 55.5219 143.864 57.4182C143.711 59.2985 143.712 61.6458 143.712 64.6667H145.07ZM145.07 68.6877H146.429V64.6667H145.07H143.712V68.6877H145.07ZM145.164 75.0293L146.52 74.9533C146.429 73.3245 146.429 71.3156 146.429 68.6877H145.07H143.712C143.712 71.2871 143.711 73.3833 143.808 75.1052L145.164 75.0293ZM145.07 75.0293V76.3877H145.164V75.0293V73.6708H145.07V75.0293ZM145.07 87.2622H146.429V75.0293H145.07H143.712V87.2622H145.07ZM150.563 89.5137L149.762 88.4161C149.338 88.7259 148.493 88.8227 147.619 88.4818C146.73 88.1351 146.429 87.6025 146.429 87.2622H145.07H143.712C143.712 89.2028 145.235 90.4681 146.632 91.013C148.044 91.5636 149.945 91.6456 151.363 90.6112L150.563 89.5137ZM160.562 86.0758V84.7174C156.104 84.7174 152.461 86.4477 149.762 88.4161L150.563 89.5137L151.363 90.6112C153.743 88.8756 156.837 87.4343 160.562 87.4343V86.0758ZM161.492 86.0758V84.7174H160.562V86.0758V87.4343H161.492V86.0758ZM162.459 86.076V84.7176C162.127 84.7176 161.806 84.7176 161.493 84.7174L161.492 86.0758L161.491 87.4343C161.805 87.4345 162.127 87.4345 162.459 87.4345V86.076ZM246.5 86.076V84.7176H162.459V86.076V87.4345H246.5V86.076ZM257.954 84.8915L257.338 83.6811C256.399 84.1595 255.255 84.4328 253.527 84.574C251.783 84.7165 249.566 84.7176 246.5 84.7176V86.076V87.4345C249.521 87.4345 251.868 87.4356 253.748 87.2819C255.645 87.127 257.185 86.808 258.571 86.1019L257.954 84.8915ZM262.704 80.1422L261.493 79.5254C260.582 81.3147 259.127 82.7694 257.338 83.6811L257.954 84.8915L258.571 86.1019C260.872 84.9298 262.742 83.0594 263.914 80.7589L262.704 80.1422ZM263.888 68.6877H262.53C262.53 71.7533 262.529 73.9709 262.386 75.715C262.245 77.4432 261.972 78.5865 261.493 79.5254L262.704 80.1422L263.914 80.7589C264.62 79.3731 264.939 77.8324 265.094 75.9362C265.248 74.0558 265.247 71.7085 265.247 68.6877H263.888ZM263.888 64.6667H262.53V68.6877H263.888H265.247V64.6667H263.888ZM262.704 53.2122L261.493 53.8289C261.972 54.7679 262.245 55.9112 262.386 57.6394C262.529 59.3835 262.53 61.601 262.53 64.6667H263.888H265.247C265.247 61.6458 265.248 59.2985 265.094 57.4182C264.939 55.5219 264.62 53.9813 263.914 52.5955L262.704 53.2122ZM257.954 48.4628L257.338 49.6732C259.127 50.5849 260.582 52.0396 261.493 53.8289L262.704 53.2122L263.914 52.5955C262.742 50.295 260.872 48.4246 258.571 47.2524L257.954 48.4628ZM246.5 47.2783V48.6368C249.566 48.6368 251.783 48.6378 253.527 48.7803C255.255 48.9215 256.399 49.1948 257.338 49.6732L257.954 48.4628L258.571 47.2524C257.185 46.5463 255.645 46.2274 253.748 46.0724C251.868 45.9188 249.521 45.9199 246.5 45.9199V47.2783ZM162.459 47.2783V48.6368H246.5V47.2783V45.9199H162.459V47.2783ZM151.004 48.4628L151.621 49.6732C152.56 49.1948 153.703 48.9215 155.431 48.7803C157.175 48.6378 159.393 48.6368 162.459 48.6368V47.2783V45.9199C159.438 45.9199 157.09 45.9188 155.21 46.0724C153.314 46.2274 151.773 46.5463 150.387 47.2524L151.004 48.4628ZM146.255 53.2122L147.465 53.8289C148.377 52.0396 149.832 50.5849 151.621 49.6732L151.004 48.4628L150.387 47.2524C148.087 48.4246 146.216 50.295 145.044 52.5955L146.255 53.2122Z" fill="#F6F8F9" fill-opacity="0.8" mask="url(#path-7-outside-1_3788_11619)"/>
<rect x="156.925" y="61.019" width="94.8389" height="2.69429" rx="1.34714" fill="#626A80"/>
<rect x="156.925" y="61.019" width="94.8389" height="2.69429" rx="1.34714" fill="#F6F8F9" fill-opacity="0.65"/>
<rect x="156.925" y="71.2573" width="94.8389" height="2.42486" rx="1.21243" fill="#626A80"/>
<rect x="156.925" y="71.2573" width="94.8389" height="2.42486" rx="1.21243" fill="#F6F8F9" fill-opacity="0.65"/>
<rect x="156.034" y="54.8301" width="37.4118" height="3.70748" rx="1.81129" fill="#626A80"/>
<rect x="156.034" y="54.8301" width="37.4118" height="3.70748" rx="1.81129" fill="#F6F8F9" fill-opacity="0.45"/>
<rect x="156.925" y="66.1387" width="94.8389" height="2.69429" rx="1.34714" fill="#626A80"/>
<rect x="156.925" y="66.1387" width="94.8389" height="2.69429" rx="1.34714" fill="#F6F8F9" fill-opacity="0.65"/>
<rect x="156.925" y="76.1074" width="71.3986" height="2.69429" rx="1.34714" fill="#626A80"/>
<rect x="156.925" y="76.1074" width="71.3986" height="2.69429" rx="1.34714" fill="#F6F8F9" fill-opacity="0.65"/>
<g filter="url(#filter0_d_3788_11619)">
<g clip-path="url(#clip0_3788_11619)">
<rect x="134.024" y="35.9624" width="22.2449" height="22.2449" rx="11.1224" fill="#B57D61"/>
<rect x="134.024" y="35.9624" width="22.2449" height="22.2449" rx="11.1224" fill="#85AA45"/>
<rect x="134.024" y="35.9624" width="22.2449" height="22.2449" rx="11.1224" fill="white" fill-opacity="0.6"/>
<path d="M150.507 52.3973C149.698 52.8182 145.826 52.5167 145.826 52.5167L145.917 56.8533L141.493 56.8917L141.948 51.5778C141.948 51.5778 137.588 50.3715 138.344 48.0761C138.618 47.2449 139.298 47.0189 139.972 47.0946C139.955 47.0829 139.938 47.0722 139.922 47.0605C139.874 46.4446 139.804 44.5264 141.095 43.0302C143.076 40.7348 147.242 40.6112 149.265 42.7489C150.253 43.7943 150.475 45.1306 150.52 45.9149L150.536 45.9288C151.12 48.6121 150.507 52.3973 150.507 52.3973Z" fill="#B57D61"/>
<path d="M141.493 56.8917L141.948 51.5778C141.948 51.5778 137.588 50.3715 138.344 48.0761C138.618 47.2449 139.248 46.9848 139.922 47.0605C139.874 46.4446 139.804 44.5264 141.095 43.0302C143.076 40.7348 147.242 40.6112 149.265 42.7489C150.567 44.1278 150.744 46.4851 150.784 48.2903C150.814 49.6564 150.725 51.0471 150.507 52.3973C149.698 52.8182 145.826 52.5167 145.826 52.5167L145.917 56.8533M139.922 47.0605C139.905 47.0488 139.938 47.0722 139.922 47.0605Z" stroke="#3B4252" stroke-opacity="0.4" stroke-width="0.337043"/>
<path d="M141.643 48.0851C141.501 47.6642 140.722 47.1516 139.957 47.061" stroke="#3B4252" stroke-opacity="0.4" stroke-width="0.337043"/>
<path opacity="0.4" fill-rule="evenodd" clip-rule="evenodd" d="M145.826 52.517L143.279 51.9692L145.813 53.6849L145.825 52.517H145.826Z" fill="#3B4252"/>
<path d="M151.307 52.7262C151.264 51.8258 151.22 50.9253 151.176 50.0248C151.168 49.8383 151.031 49.6827 150.847 49.6497C149.989 49.4941 148.782 49.4088 147.429 49.7573C147.045 49.8575 146.695 49.979 146.383 50.1111C146.249 50.1665 146.106 50.1953 145.962 50.1974C145.312 50.2081 144.346 50.0546 143.561 49.4163C143.064 49.0135 143 48.7428 142.695 48.3986C142.566 48.2526 142.442 48.1471 142.282 48.0214C142.018 47.8136 141.625 47.5695 141.073 47.4097C141.19 47.4789 141.349 47.5919 141.494 47.7677C141.494 47.7677 141.61 47.9095 141.695 48.0832C141.964 48.6416 142.011 50.1793 142.14 51.1618C142.16 51.3078 142.161 51.6393 142.401 51.9099C142.543 52.0698 142.688 52.2158 142.834 52.3511C145.015 54.3599 148.145 54.3833 150.083 54.1649C150.807 54.0828 151.343 53.4551 151.308 52.7273L151.307 52.7262ZM149.097 51.5977C148.295 51.6286 147.493 51.0659 147.551 50.7622C147.621 50.3892 148.992 50.3935 149.089 50.3946C149.299 50.3967 150.422 50.4063 150.494 50.7452C150.556 51.0372 149.837 51.5689 149.097 51.5977Z" fill="#3B4252"/>
</g>
<rect x="134.817" y="36.7554" width="20.6589" height="20.6589" rx="10.3295" stroke="#85AA45" stroke-width="1.58592"/>
</g>
<mask id="path-21-outside-2_3788_11619" maskUnits="userSpaceOnUse" x="143.979" y="151.719" width="123" height="42" fill="black">
<rect fill="white" x="143.979" y="151.719" width="123" height="42"/>
<path fill-rule="evenodd" clip-rule="evenodd" d="M147.112 159.755C145.979 162.038 145.979 165.013 145.979 170.963C145.979 173.516 145.979 175.521 146.068 177.159H145.979V189.392C145.979 191.673 149.629 192.988 151.472 191.643C154.011 189.791 157.379 188.206 161.471 188.206H161.927C162.343 188.206 162.774 188.206 163.222 188.206H247.553C253.503 188.206 256.478 188.206 258.761 187.073C260.887 186.018 262.608 184.296 263.664 182.171C264.797 179.887 264.797 176.912 264.797 170.963C264.797 165.013 264.797 162.038 263.664 159.755C262.608 157.629 260.887 155.908 258.761 154.853C256.478 153.719 253.503 153.719 247.553 153.719H163.222C157.273 153.719 154.298 153.719 152.014 154.853C149.889 155.908 148.167 157.629 147.112 159.755Z"/>
</mask>
<path fill-rule="evenodd" clip-rule="evenodd" d="M147.112 159.755C145.979 162.038 145.979 165.013 145.979 170.963C145.979 173.516 145.979 175.521 146.068 177.159H145.979V189.392C145.979 191.673 149.629 192.988 151.472 191.643C154.011 189.791 157.379 188.206 161.471 188.206H161.927C162.343 188.206 162.774 188.206 163.222 188.206H247.553C253.503 188.206 256.478 188.206 258.761 187.073C260.887 186.018 262.608 184.296 263.664 182.171C264.797 179.887 264.797 176.912 264.797 170.963C264.797 165.013 264.797 162.038 263.664 159.755C262.608 157.629 260.887 155.908 258.761 154.853C256.478 153.719 253.503 153.719 247.553 153.719H163.222C157.273 153.719 154.298 153.719 152.014 154.853C149.889 155.908 148.167 157.629 147.112 159.755Z" fill="#6D778C"/>
<path fill-rule="evenodd" clip-rule="evenodd" d="M147.112 159.755C145.979 162.038 145.979 165.013 145.979 170.963C145.979 173.516 145.979 175.521 146.068 177.159H145.979V189.392C145.979 191.673 149.629 192.988 151.472 191.643C154.011 189.791 157.379 188.206 161.471 188.206H161.927C162.343 188.206 162.774 188.206 163.222 188.206H247.553C253.503 188.206 256.478 188.206 258.761 187.073C260.887 186.018 262.608 184.296 263.664 182.171C264.797 179.887 264.797 176.912 264.797 170.963C264.797 165.013 264.797 162.038 263.664 159.755C262.608 157.629 260.887 155.908 258.761 154.853C256.478 153.719 253.503 153.719 247.553 153.719H163.222C157.273 153.719 154.298 153.719 152.014 154.853C149.889 155.908 148.167 157.629 147.112 159.755Z" fill="#F6F8F9" fill-opacity="0.975"/>
<path d="M147.112 159.755L145.895 159.151H145.895L147.112 159.755ZM146.068 177.159V178.518H147.503L147.425 177.085L146.068 177.159ZM145.979 177.159V175.801H144.62V177.159H145.979ZM151.472 191.643L150.671 190.546H150.671L151.472 191.643ZM161.927 188.206L161.929 186.847H161.927V188.206ZM258.761 187.073L258.157 185.856V185.856L258.761 187.073ZM263.664 182.171L262.447 181.567V181.567L263.664 182.171ZM263.664 159.755L262.447 160.359V160.359L263.664 159.755ZM258.761 154.853L258.157 156.069V156.069L258.761 154.853ZM152.014 154.853L151.41 153.636V153.636L152.014 154.853ZM145.979 170.963H147.337C147.337 167.966 147.338 165.798 147.475 164.092C147.61 162.401 147.871 161.281 148.329 160.359L147.112 159.755L145.895 159.151C145.22 160.512 144.915 162.021 144.766 163.876C144.619 165.715 144.62 168.01 144.62 170.963H145.979ZM146.068 177.159L147.425 177.085C147.338 175.492 147.337 173.53 147.337 170.963H145.979H144.62C144.62 173.502 144.62 175.55 144.712 177.233L146.068 177.159ZM145.979 177.159V178.518H146.068V177.159V175.801H145.979V177.159ZM145.979 189.392H147.337V177.159H145.979H144.62V189.392H145.979ZM151.472 191.643L150.671 190.546C150.246 190.856 149.402 190.952 148.528 190.612C147.639 190.265 147.337 189.732 147.337 189.392H145.979H144.62C144.62 191.333 146.144 192.598 147.54 193.143C148.952 193.693 150.854 193.775 152.272 192.741L151.472 191.643ZM161.471 188.206V186.847C157.013 186.847 153.37 188.578 150.671 190.546L151.472 191.643L152.272 192.741C154.652 191.005 157.746 189.564 161.471 189.564V188.206ZM161.927 188.206V186.847H161.471V188.206V189.564H161.927V188.206ZM163.222 188.206V186.848C162.774 186.848 162.343 186.848 161.929 186.847L161.927 188.206L161.926 189.564C162.342 189.565 162.774 189.565 163.222 189.565V188.206ZM247.553 188.206V186.848H163.222V188.206V189.565H247.553V188.206ZM258.761 187.073L258.157 185.856C257.235 186.314 256.115 186.575 254.424 186.71C252.718 186.847 250.55 186.848 247.553 186.848V188.206V189.565C250.506 189.565 252.801 189.566 254.641 189.419C256.495 189.27 258.004 188.965 259.365 188.29L258.761 187.073ZM263.664 182.171L262.447 181.567C261.524 183.426 260.017 184.933 258.157 185.856L258.761 187.073L259.365 188.29C261.756 187.103 263.693 185.166 264.88 182.775L263.664 182.171ZM264.797 170.963H263.438C263.438 173.959 263.437 176.127 263.301 177.833C263.166 179.524 262.904 180.645 262.447 181.567L263.664 182.171L264.88 182.775C265.556 181.413 265.861 179.905 266.009 178.05C266.156 176.21 266.155 173.916 266.155 170.963H264.797ZM263.664 159.755L262.447 160.359C262.904 161.281 263.166 162.401 263.301 164.092C263.437 165.798 263.438 167.966 263.438 170.963H264.797H266.155C266.155 168.01 266.156 165.715 266.009 163.876C265.861 162.021 265.556 160.512 264.88 159.151L263.664 159.755ZM258.761 154.853L258.157 156.069C260.017 156.993 261.524 158.499 262.447 160.359L263.664 159.755L264.88 159.151C263.693 156.76 261.756 154.823 259.365 153.636L258.761 154.853ZM247.553 153.719V155.078C250.55 155.078 252.718 155.079 254.424 155.215C256.115 155.35 257.235 155.612 258.157 156.069L258.761 154.853L259.365 153.636C258.004 152.96 256.495 152.655 254.641 152.507C252.801 152.36 250.506 152.361 247.553 152.361V153.719ZM163.222 153.719V155.078H247.553V153.719V152.361H163.222V153.719ZM152.014 154.853L152.618 156.069C153.54 155.612 154.661 155.35 156.352 155.215C158.058 155.079 160.226 155.078 163.222 155.078V153.719V152.361C160.269 152.361 157.975 152.36 156.135 152.507C154.28 152.655 152.772 152.96 151.41 153.636L152.014 154.853ZM147.112 159.755L148.329 160.359C149.252 158.499 150.759 156.993 152.618 156.069L152.014 154.853L151.41 153.636C149.019 154.823 147.082 156.76 145.895 159.151L147.112 159.755Z" fill="#6D778C" mask="url(#path-21-outside-2_3788_11619)"/>
<path d="M147.112 159.755L145.895 159.151H145.895L147.112 159.755ZM146.068 177.159V178.518H147.503L147.425 177.085L146.068 177.159ZM145.979 177.159V175.801H144.62V177.159H145.979ZM151.472 191.643L150.671 190.546H150.671L151.472 191.643ZM161.927 188.206L161.929 186.847H161.927V188.206ZM258.761 187.073L258.157 185.856V185.856L258.761 187.073ZM263.664 182.171L262.447 181.567V181.567L263.664 182.171ZM263.664 159.755L262.447 160.359V160.359L263.664 159.755ZM258.761 154.853L258.157 156.069V156.069L258.761 154.853ZM152.014 154.853L151.41 153.636V153.636L152.014 154.853ZM145.979 170.963H147.337C147.337 167.966 147.338 165.798 147.475 164.092C147.61 162.401 147.871 161.281 148.329 160.359L147.112 159.755L145.895 159.151C145.22 160.512 144.915 162.021 144.766 163.876C144.619 165.715 144.62 168.01 144.62 170.963H145.979ZM146.068 177.159L147.425 177.085C147.338 175.492 147.337 173.53 147.337 170.963H145.979H144.62C144.62 173.502 144.62 175.55 144.712 177.233L146.068 177.159ZM145.979 177.159V178.518H146.068V177.159V175.801H145.979V177.159ZM145.979 189.392H147.337V177.159H145.979H144.62V189.392H145.979ZM151.472 191.643L150.671 190.546C150.246 190.856 149.402 190.952 148.528 190.612C147.639 190.265 147.337 189.732 147.337 189.392H145.979H144.62C144.62 191.333 146.144 192.598 147.54 193.143C148.952 193.693 150.854 193.775 152.272 192.741L151.472 191.643ZM161.471 188.206V186.847C157.013 186.847 153.37 188.578 150.671 190.546L151.472 191.643L152.272 192.741C154.652 191.005 157.746 189.564 161.471 189.564V188.206ZM161.927 188.206V186.847H161.471V188.206V189.564H161.927V188.206ZM163.222 188.206V186.848C162.774 186.848 162.343 186.848 161.929 186.847L161.927 188.206L161.926 189.564C162.342 189.565 162.774 189.565 163.222 189.565V188.206ZM247.553 188.206V186.848H163.222V188.206V189.565H247.553V188.206ZM258.761 187.073L258.157 185.856C257.235 186.314 256.115 186.575 254.424 186.71C252.718 186.847 250.55 186.848 247.553 186.848V188.206V189.565C250.506 189.565 252.801 189.566 254.641 189.419C256.495 189.27 258.004 188.965 259.365 188.29L258.761 187.073ZM263.664 182.171L262.447 181.567C261.524 183.426 260.017 184.933 258.157 185.856L258.761 187.073L259.365 188.29C261.756 187.103 263.693 185.166 264.88 182.775L263.664 182.171ZM264.797 170.963H263.438C263.438 173.959 263.437 176.127 263.301 177.833C263.166 179.524 262.904 180.645 262.447 181.567L263.664 182.171L264.88 182.775C265.556 181.413 265.861 179.905 266.009 178.05C266.156 176.21 266.155 173.916 266.155 170.963H264.797ZM263.664 159.755L262.447 160.359C262.904 161.281 263.166 162.401 263.301 164.092C263.437 165.798 263.438 167.966 263.438 170.963H264.797H266.155C266.155 168.01 266.156 165.715 266.009 163.876C265.861 162.021 265.556 160.512 264.88 159.151L263.664 159.755ZM258.761 154.853L258.157 156.069C260.017 156.993 261.524 158.499 262.447 160.359L263.664 159.755L264.88 159.151C263.693 156.76 261.756 154.823 259.365 153.636L258.761 154.853ZM247.553 153.719V155.078C250.55 155.078 252.718 155.079 254.424 155.215C256.115 155.35 257.235 155.612 258.157 156.069L258.761 154.853L259.365 153.636C258.004 152.96 256.495 152.655 254.641 152.507C252.801 152.36 250.506 152.361 247.553 152.361V153.719ZM163.222 153.719V155.078H247.553V153.719V152.361H163.222V153.719ZM152.014 154.853L152.618 156.069C153.54 155.612 154.661 155.35 156.352 155.215C158.058 155.079 160.226 155.078 163.222 155.078V153.719V152.361C160.269 152.361 157.975 152.36 156.135 152.507C154.28 152.655 152.772 152.96 151.41 153.636L152.014 154.853ZM147.112 159.755L148.329 160.359C149.252 158.499 150.759 156.993 152.618 156.069L152.014 154.853L151.41 153.636C149.019 154.823 147.082 156.76 145.895 159.151L147.112 159.755Z" fill="#F6F8F9" fill-opacity="0.8" mask="url(#path-21-outside-2_3788_11619)"/>
<rect width="96.9943" height="2.69429" rx="1.34714" transform="matrix(-1 0 0 1 254.29 168.268)" fill="#626A80"/>
<rect width="96.9943" height="2.69429" rx="1.34714" transform="matrix(-1 0 0 1 254.29 168.268)" fill="#F6F8F9" fill-opacity="0.65"/>
<rect width="56.0411" height="2.42486" rx="1.21243" transform="matrix(-1 0 0 1 254.29 178.507)" fill="#626A80"/>
<rect width="56.0411" height="2.42486" rx="1.21243" transform="matrix(-1 0 0 1 254.29 178.507)" fill="#F6F8F9" fill-opacity="0.65"/>
<rect width="29.9969" height="3.70748" rx="1.81129" transform="matrix(-1 0 0 1 254.29 162.142)" fill="#626A80"/>
<rect width="29.9969" height="3.70748" rx="1.81129" transform="matrix(-1 0 0 1 254.29 162.142)" fill="#F6F8F9" fill-opacity="0.45"/>
<rect width="96.9943" height="2.69429" rx="1.34714" transform="matrix(-1 0 0 1 254.29 173.388)" fill="#626A80"/>
<rect width="96.9943" height="2.69429" rx="1.34714" transform="matrix(-1 0 0 1 254.29 173.388)" fill="#F6F8F9" fill-opacity="0.65"/>
<g filter="url(#filter1_d_3788_11619)">
<g clip-path="url(#clip1_3788_11619)">
<rect width="21.2337" height="21.2337" rx="10.6169" transform="matrix(-1 0 0 1 155.976 142.6)" fill="#735043"/>
<rect width="21.2337" height="21.2337" rx="10.6169" transform="matrix(-1 0 0 1 155.976 142.6)" fill="#D28C81"/>
<rect width="21.2337" height="21.2337" rx="10.6169" transform="matrix(-1 0 0 1 155.976 142.6)" fill="white" fill-opacity="0.6"/>
<path d="M146.126 162.777L146.042 159.908C146.042 159.908 149.551 160.186 150.301 159.798C150.301 159.798 151.11 155.572 150.102 152.4L142.698 151.539L142.171 155.77C141.922 155.039 139.975 154.201 139.437 155.248C138.271 157.516 142.44 159.043 142.44 159.043L142.017 162.811" fill="#735043"/>
<path d="M146.126 162.777L146.042 159.908C146.042 159.908 149.551 160.186 150.301 159.798C150.301 159.798 151.11 155.572 150.102 152.4L142.698 151.539L142.171 155.77C141.922 155.039 139.975 154.201 139.437 155.248C138.271 157.516 142.44 159.043 142.44 159.043L142.017 162.811" stroke="#3B4252" stroke-opacity="0.4" stroke-width="0.337043"/>
<path opacity="0.399344" fill-rule="evenodd" clip-rule="evenodd" d="M146.042 159.908L143.677 159.404L146.031 160.984L146.042 159.908Z" fill="#3C4457"/>
<path d="M140.773 154.865C140.444 153.65 139.254 149.166 139.394 148.4C139.556 147.513 140.178 146.424 143.372 145.282C146.078 144.314 147.604 145.014 148.067 145.611C148.77 146.518 150.103 152.4 150.103 152.4C150.103 152.4 149 153.179 145.09 153.045C145.09 153.045 145.631 155.384 143.412 155.249C143.412 155.249 143.65 156.037 142.576 156.285C141.987 155.374 141.205 155.007 140.773 154.865V154.865Z" fill="#3C4457"/>
</g>
<rect x="-0.792959" y="0.792959" width="19.6478" height="19.6478" rx="9.82391" transform="matrix(-1 0 0 1 154.39 142.6)" stroke="#D28C81" stroke-width="1.58592"/>
</g>
<path fill-rule="evenodd" clip-rule="evenodd" d="M273.845 112.703C274.13 113.923 274.13 115.398 274.13 118.348C274.13 119.566 274.13 120.532 274.11 121.332C274.11 121.338 274.114 121.343 274.12 121.343C274.125 121.343 274.13 121.347 274.13 121.353V132.552C274.13 134.905 270.084 136.262 268.159 134.909C266.146 133.495 263.658 132.412 260.746 132.39C260.535 132.39 260.316 132.39 260.088 132.39H184.813C181.863 132.39 180.388 132.39 179.169 132.105C175.141 131.165 171.997 128.02 171.057 123.993C170.772 122.774 170.772 121.299 170.772 118.348C170.772 115.398 170.772 113.923 171.057 112.703C171.997 108.676 175.141 105.532 179.169 104.591C180.388 104.307 181.863 104.307 184.813 104.307H260.088C263.039 104.307 264.514 104.307 265.733 104.591C269.76 105.532 272.905 108.676 273.845 112.703Z" fill="#3E5DE7"/>
<path fill-rule="evenodd" clip-rule="evenodd" d="M273.845 112.703C274.13 113.923 274.13 115.398 274.13 118.348C274.13 119.566 274.13 120.532 274.11 121.332C274.11 121.338 274.114 121.343 274.12 121.343C274.125 121.343 274.13 121.347 274.13 121.353V132.552C274.13 134.905 270.084 136.262 268.159 134.909C266.146 133.495 263.658 132.412 260.746 132.39C260.535 132.39 260.316 132.39 260.088 132.39H184.813C181.863 132.39 180.388 132.39 179.169 132.105C175.141 131.165 171.997 128.02 171.057 123.993C170.772 122.774 170.772 121.299 170.772 118.348C170.772 115.398 170.772 113.923 171.057 112.703C171.997 108.676 175.141 105.532 179.169 104.591C180.388 104.307 181.863 104.307 184.813 104.307H260.088C263.039 104.307 264.514 104.307 265.733 104.591C269.76 105.532 272.905 108.676 273.845 112.703Z" fill="#F6F8F9" fill-opacity="0.45"/>
<rect x="178.889" y="122.834" width="48.5343" height="2.69635" rx="1.34817" fill="#626A80"/>
<rect x="178.889" y="122.834" width="48.5343" height="2.69635" rx="1.34817" fill="#C8D3FF"/>
<rect x="178.889" y="111.375" width="25.9523" height="3.70748" rx="1.81129" fill="#DAE2FF"/>
<rect x="178.889" y="111.375" width="25.9523" height="3.70748" rx="1.81129" fill="#F6F8F9" fill-opacity="0.45"/>
<rect x="178.889" y="117.779" width="83.9238" height="2.69635" rx="1.34817" fill="#626A80"/>
<rect x="178.889" y="117.779" width="83.9238" height="2.69635" rx="1.34817" fill="#C8D3FF"/>
<g filter="url(#filter2_d_3788_11619)">
<g clip-path="url(#clip2_3788_11619)">
<rect width="22.2449" height="22.2449" rx="11.1224" transform="matrix(-1 0 0 1 285.704 93.2598)" fill="#FFF1EB"/>
<rect width="22.2449" height="22.2449" rx="11.1224" transform="matrix(-1 0 0 1 285.704 93.2598)" fill="#C49711"/>
<rect width="22.2449" height="22.2449" rx="11.1224" transform="matrix(-1 0 0 1 285.704 93.2598)" fill="white" fill-opacity="0.6"/>
<path d="M284.63 108.572C284.63 107.347 280.038 97.1568 274.075 97.3378C265.804 97.589 263.683 110.411 264.061 111.673C264.363 112.678 265.816 113.043 272.186 112.865C281.753 112.597 284.63 109.669 284.63 108.572Z" fill="#3C4457"/>
<path fill-rule="evenodd" clip-rule="evenodd" d="M273.492 110.844C273.492 110.844 274.751 110.881 275.288 110.588L273.559 111.673L273.492 110.844Z" fill="#CF3E83"/>
<path d="M273.719 102.504C272.268 103.237 269.982 104.581 268.82 106.258C269.023 107.706 269.52 109.647 270.686 110.422C271.328 110.848 272.496 110.901 273.492 110.844L273.69 114.562L277.021 114.461C277.021 114.461 276.56 109.313 276.425 108.114C277.078 107.521 278.289 107.149 278.291 106.142C278.291 105.795 278.087 105.191 277.336 105.19C276.327 105.189 276.47 106.397 276.47 106.397C275.45 106.795 274.409 103.77 273.719 102.504Z" fill="#FFF1EB" stroke="#3B4252" stroke-opacity="0.4" stroke-width="0.337043"/>
<path opacity="0.398182" fill-rule="evenodd" clip-rule="evenodd" d="M273.494 110.844C273.494 110.844 274.753 110.881 275.29 110.588L273.561 111.673L273.494 110.844Z" fill="#3C4457"/>
</g>
<rect x="-0.792959" y="0.792959" width="20.6589" height="20.6589" rx="10.3295" transform="matrix(-1 0 0 1 284.118 93.2598)" stroke="#C49711" stroke-width="1.58592"/>
</g>
<path fill-rule="evenodd" clip-rule="evenodd" d="M154.132 318.449C154.132 320.962 120.029 323 77.9602 323C35.8919 323 1.78857 320.962 1.78857 318.449C1.78857 315.937 35.8919 313.9 77.9602 313.9C120.029 313.9 154.132 315.937 154.132 318.449" fill="#626A80"/>
<path fill-rule="evenodd" clip-rule="evenodd" d="M154.132 318.449C154.132 320.962 120.029 323 77.9602 323C35.8919 323 1.78857 320.962 1.78857 318.449C1.78857 315.937 35.8919 313.9 77.9602 313.9C120.029 313.9 154.132 315.937 154.132 318.449" fill="#F6F8F9" fill-opacity="0.975"/>
<g filter="url(#filter3_d_3788_11619)">
<path d="M269.179 22.1436C270.052 22.1436 270.867 22.3317 271.624 22.708C272.382 23.0844 272.992 23.6466 273.454 24.3936C273.923 25.1344 274.157 26.0578 274.157 27.1631V29.2891C274.66 29.3531 275.058 29.5253 275.351 29.8066C275.729 30.1711 275.919 30.7184 275.919 31.4473V37.8018C275.919 38.5366 275.729 39.0867 275.351 39.4512C274.972 39.8215 274.416 40.0068 273.685 40.0068H264.672C263.94 40.0068 263.385 39.8214 263.006 39.4512C262.627 39.0867 262.438 38.5365 262.438 37.8018V31.4473C262.438 30.7183 262.627 30.1711 263.006 29.8066C263.298 29.5253 263.696 29.3531 264.199 29.2891V27.1631C264.199 26.0579 264.431 25.1344 264.893 24.3936C265.361 23.6467 265.975 23.0844 266.732 22.708C267.49 22.3317 268.306 22.1436 269.179 22.1436ZM269.178 32.5918C268.62 32.5922 268.167 33.0446 268.167 33.6025C268.167 34.0287 268.432 34.3922 268.805 34.541L268.303 36.7207H270.054L269.55 34.541C269.924 34.3927 270.189 34.0294 270.189 33.6025C270.189 33.0443 269.736 32.5918 269.178 32.5918ZM269.179 23.748C268.607 23.748 268.08 23.8731 267.599 24.124C267.117 24.375 266.732 24.7427 266.443 25.2266C266.155 25.7045 266.01 26.2932 266.01 26.9922V29.2598H272.355V26.9922C272.355 26.2932 272.208 25.7045 271.913 25.2266C271.624 24.7427 271.238 24.3749 270.757 24.124C270.276 23.8734 269.75 23.7481 269.179 23.748Z" fill="#3E5DE7"/>
<path d="M269.179 22.1436C270.052 22.1436 270.867 22.3317 271.624 22.708C272.382 23.0844 272.992 23.6466 273.454 24.3936C273.923 25.1344 274.157 26.0578 274.157 27.1631V29.2891C274.66 29.3531 275.058 29.5253 275.351 29.8066C275.729 30.1711 275.919 30.7184 275.919 31.4473V37.8018C275.919 38.5366 275.729 39.0867 275.351 39.4512C274.972 39.8215 274.416 40.0068 273.685 40.0068H264.672C263.94 40.0068 263.385 39.8214 263.006 39.4512C262.627 39.0867 262.438 38.5365 262.438 37.8018V31.4473C262.438 30.7183 262.627 30.1711 263.006 29.8066C263.298 29.5253 263.696 29.3531 264.199 29.2891V27.1631C264.199 26.0579 264.431 25.1344 264.893 24.3936C265.361 23.6467 265.975 23.0844 266.732 22.708C267.49 22.3317 268.306 22.1436 269.179 22.1436ZM269.178 32.5918C268.62 32.5922 268.167 33.0446 268.167 33.6025C268.167 34.0287 268.432 34.3922 268.805 34.541L268.303 36.7207H270.054L269.55 34.541C269.924 34.3927 270.189 34.0294 270.189 33.6025C270.189 33.0443 269.736 32.5918 269.178 32.5918ZM269.179 23.748C268.607 23.748 268.08 23.8731 267.599 24.124C267.117 24.375 266.732 24.7427 266.443 25.2266C266.155 25.7045 266.01 26.2932 266.01 26.9922V29.2598H272.355V26.9922C272.355 26.2932 272.208 25.7045 271.913 25.2266C271.624 24.7427 271.238 24.3749 270.757 24.124C270.276 23.8734 269.75 23.7481 269.179 23.748Z" fill="#F6F8F9" fill-opacity="0.8"/>
</g>
<g filter="url(#filter4_d_3788_11619)">
<path d="M242.119 22.4805C242.762 22.4805 243.362 22.6186 243.919 22.8955C244.476 23.1725 244.926 23.5861 245.266 24.1357C245.611 24.6809 245.783 25.3605 245.783 26.1738V27.7393C246.153 27.7864 246.446 27.9122 246.661 28.1191C246.94 28.3873 247.079 28.79 247.079 29.3262V34.002C247.079 34.5427 246.94 34.9476 246.661 35.2158C246.383 35.4883 245.974 35.625 245.436 35.625H238.803C238.265 35.6249 237.856 35.4884 237.577 35.2158C237.299 34.9476 237.159 34.5427 237.159 34.002V29.3262C237.159 28.79 237.299 28.3873 237.577 28.1191C237.793 27.9121 238.086 27.7864 238.456 27.7393V26.1738C238.456 25.3605 238.626 24.6809 238.966 24.1357C239.311 23.5862 239.762 23.1725 240.319 22.8955C240.877 22.6186 241.477 22.4805 242.119 22.4805ZM242.119 30.1689C241.709 30.1691 241.375 30.5024 241.375 30.9131C241.375 31.2268 241.57 31.4941 241.845 31.6035L241.475 33.207H242.764L242.393 31.6025C242.668 31.4933 242.863 31.227 242.863 30.9131C242.863 30.5024 242.53 30.169 242.119 30.1689ZM242.119 23.6611C241.699 23.6611 241.311 23.7529 240.957 23.9375C240.603 24.1222 240.319 24.3929 240.107 24.749C239.894 25.1008 239.788 25.5344 239.788 26.0488V27.7168H244.457V26.0488C244.457 25.5345 244.349 25.1007 244.132 24.749C243.919 24.393 243.636 24.1221 243.281 23.9375C242.927 23.7529 242.54 23.6611 242.119 23.6611Z" fill="#3E5DE7"/>
<path d="M242.119 22.4805C242.762 22.4805 243.362 22.6186 243.919 22.8955C244.476 23.1725 244.926 23.5861 245.266 24.1357C245.611 24.6809 245.783 25.3605 245.783 26.1738V27.7393C246.153 27.7864 246.446 27.9122 246.661 28.1191C246.94 28.3873 247.079 28.79 247.079 29.3262V34.002C247.079 34.5427 246.94 34.9476 246.661 35.2158C246.383 35.4883 245.974 35.625 245.436 35.625H238.803C238.265 35.6249 237.856 35.4884 237.577 35.2158C237.299 34.9476 237.159 34.5427 237.159 34.002V29.3262C237.159 28.79 237.299 28.3873 237.577 28.1191C237.793 27.9121 238.086 27.7864 238.456 27.7393V26.1738C238.456 25.3605 238.626 24.6809 238.966 24.1357C239.311 23.5862 239.762 23.1725 240.319 22.8955C240.877 22.6186 241.477 22.4805 242.119 22.4805ZM242.119 30.1689C241.709 30.1691 241.375 30.5024 241.375 30.9131C241.375 31.2268 241.57 31.4941 241.845 31.6035L241.475 33.207H242.764L242.393 31.6025C242.668 31.4933 242.863 31.227 242.863 30.9131C242.863 30.5024 242.53 30.169 242.119 30.1689ZM242.119 23.6611C241.699 23.6611 241.311 23.7529 240.957 23.9375C240.603 24.1222 240.319 24.3929 240.107 24.749C239.894 25.1008 239.788 25.5344 239.788 26.0488V27.7168H244.457V26.0488C244.457 25.5345 244.349 25.1007 244.132 24.749C243.919 24.393 243.636 24.1221 243.281 23.9375C242.927 23.7529 242.54 23.6611 242.119 23.6611Z" fill="#F6F8F9" fill-opacity="0.8"/>
</g>
<g filter="url(#filter5_d_3788_11619)">
<path d="M294.708 124.605C295.351 124.605 295.951 124.743 296.508 125.02C297.065 125.297 297.515 125.711 297.855 126.26C298.2 126.805 298.372 127.485 298.372 128.298V129.864C298.742 129.911 299.035 130.037 299.25 130.244C299.529 130.512 299.668 130.914 299.668 131.451V136.126C299.668 136.667 299.529 137.072 299.25 137.34C298.972 137.613 298.563 137.749 298.025 137.75H291.392C290.854 137.749 290.445 137.613 290.166 137.34C289.888 137.072 289.748 136.667 289.748 136.126V131.451C289.748 130.914 289.888 130.512 290.166 130.244C290.382 130.037 290.675 129.911 291.045 129.864V128.298C291.045 127.485 291.215 126.805 291.555 126.26C291.9 125.711 292.351 125.297 292.908 125.02C293.466 124.743 294.066 124.605 294.708 124.605ZM294.708 132.293C294.297 132.294 293.964 132.627 293.964 133.038C293.964 133.351 294.159 133.619 294.434 133.728L294.064 135.332H295.353L294.982 133.727C295.257 133.618 295.452 133.352 295.452 133.038C295.452 132.627 295.119 132.294 294.708 132.293ZM294.708 125.786C294.288 125.786 293.9 125.877 293.546 126.062C293.192 126.247 292.908 126.517 292.696 126.874C292.483 127.225 292.377 127.659 292.377 128.173V129.841H297.046V128.173C297.046 127.659 296.938 127.225 296.721 126.874C296.508 126.517 296.225 126.247 295.87 126.062C295.516 125.877 295.129 125.786 294.708 125.786Z" fill="#3E5DE7"/>
<path d="M294.708 124.605C295.351 124.605 295.951 124.743 296.508 125.02C297.065 125.297 297.515 125.711 297.855 126.26C298.2 126.805 298.372 127.485 298.372 128.298V129.864C298.742 129.911 299.035 130.037 299.25 130.244C299.529 130.512 299.668 130.914 299.668 131.451V136.126C299.668 136.667 299.529 137.072 299.25 137.34C298.972 137.613 298.563 137.749 298.025 137.75H291.392C290.854 137.749 290.445 137.613 290.166 137.34C289.888 137.072 289.748 136.667 289.748 136.126V131.451C289.748 130.914 289.888 130.512 290.166 130.244C290.382 130.037 290.675 129.911 291.045 129.864V128.298C291.045 127.485 291.215 126.805 291.555 126.26C291.9 125.711 292.351 125.297 292.908 125.02C293.466 124.743 294.066 124.605 294.708 124.605ZM294.708 132.293C294.297 132.294 293.964 132.627 293.964 133.038C293.964 133.351 294.159 133.619 294.434 133.728L294.064 135.332H295.353L294.982 133.727C295.257 133.618 295.452 133.352 295.452 133.038C295.452 132.627 295.119 132.294 294.708 132.293ZM294.708 125.786C294.288 125.786 293.9 125.877 293.546 126.062C293.192 126.247 292.908 126.517 292.696 126.874C292.483 127.225 292.377 127.659 292.377 128.173V129.841H297.046V128.173C297.046 127.659 296.938 127.225 296.721 126.874C296.508 126.517 296.225 126.247 295.87 126.062C295.516 125.877 295.129 125.786 294.708 125.786Z" fill="#F6F8F9" fill-opacity="0.8"/>
</g>
<g filter="url(#filter6_d_3788_11619)">
<path d="M279.993 139.771C280.389 139.772 280.758 139.857 281.101 140.027C281.444 140.198 281.72 140.452 281.929 140.79C282.141 141.126 282.247 141.544 282.247 142.045V143.008C282.475 143.037 282.656 143.115 282.788 143.242C282.96 143.407 283.045 143.655 283.045 143.984V146.862C283.045 147.195 282.96 147.444 282.788 147.609C282.617 147.777 282.365 147.86 282.033 147.86H277.952C277.621 147.86 277.369 147.777 277.198 147.609C277.026 147.444 276.941 147.195 276.941 146.862V143.984C276.941 143.655 277.026 143.407 277.198 143.242C277.33 143.115 277.511 143.037 277.739 143.008V142.045C277.739 141.544 277.844 141.126 278.053 140.79C278.265 140.452 278.542 140.198 278.885 140.027C279.228 139.857 279.598 139.771 279.993 139.771ZM279.993 144.503C279.741 144.503 279.535 144.708 279.535 144.961C279.535 145.154 279.655 145.318 279.824 145.386L279.597 146.373H280.39L280.161 145.385C280.331 145.318 280.451 145.154 280.451 144.961C280.451 144.708 280.246 144.503 279.993 144.503ZM279.993 140.498C279.735 140.498 279.496 140.555 279.278 140.669C279.06 140.783 278.885 140.949 278.754 141.168C278.623 141.384 278.559 141.651 278.559 141.968V142.994H281.432V141.968C281.432 141.651 281.365 141.384 281.232 141.168C281.101 140.949 280.926 140.783 280.708 140.669C280.49 140.555 280.252 140.498 279.993 140.498Z" fill="#3E5DE7"/>
<path d="M279.993 139.771C280.389 139.772 280.758 139.857 281.101 140.027C281.444 140.198 281.72 140.452 281.929 140.79C282.141 141.126 282.247 141.544 282.247 142.045V143.008C282.475 143.037 282.656 143.115 282.788 143.242C282.96 143.407 283.045 143.655 283.045 143.984V146.862C283.045 147.195 282.96 147.444 282.788 147.609C282.617 147.777 282.365 147.86 282.033 147.86H277.952C277.621 147.86 277.369 147.777 277.198 147.609C277.026 147.444 276.941 147.195 276.941 146.862V143.984C276.941 143.655 277.026 143.407 277.198 143.242C277.33 143.115 277.511 143.037 277.739 143.008V142.045C277.739 141.544 277.844 141.126 278.053 140.79C278.265 140.452 278.542 140.198 278.885 140.027C279.228 139.857 279.598 139.771 279.993 139.771ZM279.993 144.503C279.741 144.503 279.535 144.708 279.535 144.961C279.535 145.154 279.655 145.318 279.824 145.386L279.597 146.373H280.39L280.161 145.385C280.331 145.318 280.451 145.154 280.451 144.961C280.451 144.708 280.246 144.503 279.993 144.503ZM279.993 140.498C279.735 140.498 279.496 140.555 279.278 140.669C279.06 140.783 278.885 140.949 278.754 141.168C278.623 141.384 278.559 141.651 278.559 141.968V142.994H281.432V141.968C281.432 141.651 281.365 141.384 281.232 141.168C281.101 140.949 280.926 140.783 280.708 140.669C280.49 140.555 280.252 140.498 279.993 140.498Z" fill="#F6F8F9" fill-opacity="0.8"/>
</g>
<g filter="url(#filter7_d_3788_11619)">
<path d="M246.616 9.33594C247.011 9.33598 247.38 9.42141 247.723 9.5918C248.066 9.76222 248.342 10.0165 248.551 10.3545C248.764 10.69 248.87 11.1088 248.87 11.6094V12.5723C249.098 12.6013 249.278 12.6783 249.411 12.8057C249.582 12.9707 249.668 13.2188 249.668 13.5488V16.4268C249.668 16.7592 249.582 17.0079 249.411 17.1729C249.239 17.3406 248.987 17.4248 248.656 17.4248H244.575C244.243 17.4248 243.991 17.3406 243.82 17.1729C243.649 17.0079 243.563 16.7591 243.563 16.4268V13.5488C243.563 13.2188 243.648 12.9707 243.82 12.8057C243.952 12.6782 244.133 12.6013 244.361 12.5723V11.6094C244.361 11.1088 244.466 10.69 244.675 10.3545C244.888 10.0166 245.165 9.76221 245.507 9.5918C245.85 9.42133 246.22 9.33594 246.616 9.33594ZM246.616 14.0674C246.363 14.0674 246.158 14.2725 246.158 14.5254C246.158 14.7185 246.278 14.883 246.447 14.9502L246.219 15.9375H247.012L246.784 14.9492C246.953 14.882 247.074 14.7185 247.074 14.5254C247.074 14.2726 246.869 14.0675 246.616 14.0674ZM246.616 10.0625C246.357 10.0625 246.118 10.1188 245.9 10.2324C245.682 10.3461 245.507 10.5133 245.377 10.7324C245.246 10.9487 245.181 11.2151 245.181 11.5312V12.5586H248.054V11.5312C248.054 11.2151 247.988 10.9487 247.854 10.7324C247.723 10.5133 247.549 10.346 247.331 10.2324C247.113 10.1189 246.874 10.0625 246.616 10.0625Z" fill="#3E5DE7"/>
<path d="M246.616 9.33594C247.011 9.33598 247.38 9.42141 247.723 9.5918C248.066 9.76222 248.342 10.0165 248.551 10.3545C248.764 10.69 248.87 11.1088 248.87 11.6094V12.5723C249.098 12.6013 249.278 12.6783 249.411 12.8057C249.582 12.9707 249.668 13.2188 249.668 13.5488V16.4268C249.668 16.7592 249.582 17.0079 249.411 17.1729C249.239 17.3406 248.987 17.4248 248.656 17.4248H244.575C244.243 17.4248 243.991 17.3406 243.82 17.1729C243.649 17.0079 243.563 16.7591 243.563 16.4268V13.5488C243.563 13.2188 243.648 12.9707 243.82 12.8057C243.952 12.6782 244.133 12.6013 244.361 12.5723V11.6094C244.361 11.1088 244.466 10.69 244.675 10.3545C244.888 10.0166 245.165 9.76221 245.507 9.5918C245.85 9.42133 246.22 9.33594 246.616 9.33594ZM246.616 14.0674C246.363 14.0674 246.158 14.2725 246.158 14.5254C246.158 14.7185 246.278 14.883 246.447 14.9502L246.219 15.9375H247.012L246.784 14.9492C246.953 14.882 247.074 14.7185 247.074 14.5254C247.074 14.2726 246.869 14.0675 246.616 14.0674ZM246.616 10.0625C246.357 10.0625 246.118 10.1188 245.9 10.2324C245.682 10.3461 245.507 10.5133 245.377 10.7324C245.246 10.9487 245.181 11.2151 245.181 11.5312V12.5586H248.054V11.5312C248.054 11.2151 247.988 10.9487 247.854 10.7324C247.723 10.5133 247.549 10.346 247.331 10.2324C247.113 10.1189 246.874 10.0625 246.616 10.0625Z" fill="#F6F8F9" fill-opacity="0.8"/>
</g>
<path d="M112.556 309.164C112.556 309.164 123.69 303.961 129.844 305.918L110.561 318.936L107.79 311.38L112.556 309.164ZM27.6332 289.436L20.9448 295.335C20.9448 295.335 21.3024 298.799 21.0815 302.771C20.7625 308.509 19.6199 314.076 19.6157 314.097L12.6782 293.505L25.8461 282.932L27.6332 289.436Z" fill="#404859"/>
<path d="M66.055 184.716L71.8695 182.176H74.1551L75.1271 185.393L81.2518 185.851C81.217 184.989 80.8606 189.96 79.0897 198.496L94.1222 248.206L112.556 309.164L107.791 311.38C107.791 311.38 92.0048 277.6 78.7783 248.206C75.6493 241.248 72.6637 234.538 70.064 228.579C65.9833 238.862 60.4285 250.081 52.873 261.143C37.8492 283.139 20.945 295.335 20.945 295.335L18.3428 289.08C18.3428 289.08 53.3915 260.379 60.5731 184.306L66.055 184.716Z" fill="#F5CDB2" stroke="#3B4252" stroke-opacity="0.4" stroke-width="0.247362"/>
<path d="M99.1806 248.206H40.6723C40.6723 248.206 44.6595 218.946 51.8009 199.548C56.5378 186.68 60.8026 183.071 62.215 182.176H82.6521C83.0949 183.192 87.3421 193.163 91.9427 212.89C97.7634 237.837 99.1806 248.206 99.1806 248.206" fill="#404859"/>
<path d="M53.3635 171.75L50.1653 178.577L49.5588 199.245L51.4104 203.98C51.4155 204.002 51.6931 205.212 51.8489 206.639C52.0058 208.08 52.0658 208.957 53.0198 211.119C53.6847 212.625 51.5333 212.175 50.9231 211.333C50.2941 210.465 49.9753 206.908 48.9397 207.612C47.9041 208.316 47.5918 211.897 47.8235 215.278C47.8598 215.809 47.4914 216.243 47.2278 216.396C46.8001 216.643 46.176 214.55 46.176 214.55C46.176 214.55 45.9515 215.286 45.2707 214.979C45.0309 214.871 44.3186 213.462 44.3108 213.447C44.3108 213.447 43.7547 212.745 43.4621 211.961C42.9458 210.578 42.524 208.012 42.6233 207.257C42.858 205.48 43.3869 202.479 44.0813 200.817C43.6713 196.546 42.0991 179.397 42.966 176.139C43.9583 172.412 45.9026 167.361 45.9026 167.361L53.3635 171.75ZM108.417 154.879C108.417 154.879 109.627 155.238 110.797 155.85C111.841 156.396 112.832 157.183 113.265 157.491C113.884 157.933 112.082 164.713 110.797 165.934C109.915 166.772 107.313 167.422 105.769 167.747C102.82 172.509 94.9618 184.405 90.6203 183.424C86.1099 182.405 81.925 166.638 81.925 166.638L89.5324 162.933L92.8449 173.142L101.254 164.692C101.091 163.092 101.027 161.178 101.535 160.493C102.468 159.235 107.08 155.431 107.08 155.431L107.325 158.605L108.417 154.879ZM75.344 146.006C75.37 146.025 77.3461 147.431 78.8244 149.932C80.8607 153.376 79.7955 156.348 76.6623 156.353C73.3079 156.359 69.4581 155.216 67.8352 150.135C67.0142 147.565 66.2385 145.567 66.2385 145.567L75.344 146.006Z" fill="#F5CDB2"/>
<path d="M53.3635 171.75L53.4755 171.802L53.5233 171.7L53.4262 171.643L53.3635 171.75ZM50.1653 178.577L50.0533 178.524L50.0424 178.547L50.0416 178.573L50.1653 178.577ZM49.5588 199.245L49.4352 199.241L49.4344 199.266L49.4436 199.29L49.5588 199.245ZM51.4104 203.98L51.5309 203.952L51.5289 203.943L51.5256 203.935L51.4104 203.98ZM51.8489 206.639L51.9718 206.626L51.9718 206.626L51.8489 206.639ZM53.0198 211.119L52.9066 211.169L52.9066 211.169L53.0198 211.119ZM50.9231 211.333L50.8229 211.406L50.8229 211.406L50.9231 211.333ZM48.9397 207.612L48.8701 207.51L48.8701 207.51L48.9397 207.612ZM47.8235 215.278L47.9469 215.269L47.9469 215.269L47.8235 215.278ZM47.2278 216.396L47.2896 216.503L47.2898 216.503L47.2278 216.396ZM46.176 214.55L46.2945 214.515L46.1774 214.122L46.0577 214.514L46.176 214.55ZM45.2707 214.979L45.2199 215.092L45.2199 215.092L45.2707 214.979ZM44.3108 213.447L44.4212 213.391L44.4155 213.38L44.4077 213.37L44.3108 213.447ZM43.4621 211.961L43.3463 212.005L43.3463 212.005L43.4621 211.961ZM42.6233 207.257L42.5007 207.241L42.5006 207.241L42.6233 207.257ZM44.0813 200.817L44.1954 200.865L44.2074 200.836L44.2044 200.805L44.0813 200.817ZM42.966 176.139L42.8465 176.107L42.8465 176.107L42.966 176.139ZM45.9026 167.361L45.9653 167.254L45.8395 167.18L45.7871 167.316L45.9026 167.361ZM108.417 154.879L108.452 154.761L108.333 154.726L108.299 154.845L108.417 154.879ZM110.797 155.85L110.854 155.741L110.854 155.741L110.797 155.85ZM113.265 157.491L113.337 157.39L113.337 157.39L113.265 157.491ZM110.797 165.934L110.882 166.024L110.882 166.024L110.797 165.934ZM105.769 167.747L105.743 167.626L105.691 167.636L105.664 167.681L105.769 167.747ZM90.6203 183.424L90.5931 183.545L90.5931 183.545L90.6203 183.424ZM81.925 166.638L81.8709 166.527L81.7794 166.572L81.8055 166.67L81.925 166.638ZM89.5324 162.933L89.6501 162.895L89.6062 162.76L89.4783 162.822L89.5324 162.933ZM92.8449 173.142L92.7273 173.18L92.7898 173.373L92.9326 173.229L92.8449 173.142ZM101.254 164.692L101.342 164.779L101.383 164.738L101.377 164.679L101.254 164.692ZM101.535 160.493L101.635 160.566L101.635 160.566L101.535 160.493ZM107.08 155.431L107.204 155.422L107.185 155.184L107.002 155.336L107.08 155.431ZM107.325 158.605L107.202 158.615L107.444 158.64L107.325 158.605ZM75.344 146.006L75.4155 145.905L75.386 145.885L75.3499 145.883L75.344 146.006ZM78.8244 149.932L78.718 149.995L78.718 149.995L78.8244 149.932ZM76.6623 156.353L76.6621 156.229H76.6621L76.6623 156.353ZM67.8352 150.135L67.953 150.098V150.098L67.8352 150.135ZM66.2385 145.567L66.2445 145.443L66.0543 145.434L66.1232 145.612L66.2385 145.567ZM53.3635 171.75L53.2515 171.697L50.0533 178.524L50.1653 178.577L50.2773 178.629L53.4755 171.802L53.3635 171.75ZM50.1653 178.577L50.0416 178.573L49.4352 199.241L49.5588 199.245L49.6824 199.248L50.2889 178.58L50.1653 178.577ZM49.5588 199.245L49.4436 199.29L51.2952 204.025L51.4104 203.98L51.5256 203.935L49.674 199.2L49.5588 199.245ZM51.4104 203.98L51.2898 204.008C51.2945 204.028 51.5709 205.232 51.7259 206.653L51.8489 206.639L51.9718 206.626C51.8153 205.191 51.5365 203.976 51.5309 203.952L51.4104 203.98ZM51.8489 206.639L51.7259 206.653C51.8041 207.37 51.8591 207.958 52.0149 208.636C52.171 209.316 52.4275 210.083 52.9066 211.169L53.0198 211.119L53.1329 211.069C52.6581 209.993 52.4076 209.241 52.256 208.581C52.1041 207.92 52.0506 207.349 51.9718 206.626L51.8489 206.639ZM53.0198 211.119L52.9066 211.169C53.067 211.532 53.0361 211.73 52.9596 211.832C52.8799 211.938 52.7088 211.997 52.4564 211.983C52.2107 211.97 51.9217 211.887 51.6564 211.756C51.3904 211.624 51.1602 211.45 51.0232 211.261L50.9231 211.333L50.8229 211.406C50.9911 211.638 51.2586 211.835 51.5468 211.978C51.8358 212.121 52.1574 212.214 52.4427 212.23C52.7214 212.246 53.0016 212.187 53.1573 211.98C53.3163 211.769 53.3049 211.458 53.1329 211.069L53.0198 211.119ZM50.9231 211.333L51.0232 211.261C50.8802 211.063 50.7474 210.699 50.6118 210.251C50.4805 209.817 50.3448 209.298 50.2018 208.846C50.0582 208.392 49.8965 207.967 49.6971 207.7C49.597 207.566 49.4769 207.458 49.3309 207.415C49.1784 207.371 49.0224 207.406 48.8701 207.51L48.9397 207.612L49.0092 207.714C49.1159 207.642 49.1964 207.634 49.262 207.653C49.3342 207.674 49.4138 207.734 49.499 207.848C49.6703 208.078 49.8218 208.464 49.966 208.92C50.1107 209.378 50.2374 209.867 50.3751 210.322C50.5086 210.764 50.6515 211.169 50.8229 211.406L50.9231 211.333ZM48.9397 207.612L48.8701 207.51C48.5774 207.709 48.3527 208.096 48.1791 208.59C48.0039 209.089 47.8735 209.718 47.7837 210.425C47.6038 211.841 47.5839 213.59 47.7001 215.286L47.8235 215.278L47.9469 215.269C47.8314 213.585 47.8518 211.852 48.0291 210.457C48.1177 209.758 48.2452 209.149 48.4125 208.672C48.5815 208.191 48.7842 207.867 49.0092 207.714L48.9397 207.612ZM47.8235 215.278L47.7001 215.286C47.7161 215.52 47.6431 215.736 47.533 215.914C47.4222 216.092 47.2784 216.224 47.1657 216.289L47.2278 216.396L47.2898 216.503C47.4408 216.415 47.613 216.254 47.7432 216.044C47.8741 215.833 47.9672 215.566 47.9469 215.269L47.8235 215.278ZM47.2278 216.396L47.1659 216.289C47.1605 216.292 47.1522 216.298 47.1218 216.281C47.0856 216.26 47.0383 216.214 46.9826 216.139C46.8728 215.989 46.7592 215.762 46.6553 215.517C46.5522 215.275 46.462 215.024 46.3973 214.834C46.3651 214.739 46.3393 214.659 46.3216 214.603C46.3128 214.575 46.306 214.552 46.3014 214.538C46.2991 214.53 46.2974 214.524 46.2962 214.521C46.2956 214.519 46.2952 214.517 46.2949 214.516C46.2948 214.516 46.2947 214.515 46.2946 214.515C46.2946 214.515 46.2946 214.515 46.2945 214.515C46.2945 214.515 46.2945 214.515 46.2945 214.515C46.2945 214.515 46.2945 214.515 46.176 214.55C46.0575 214.586 46.0575 214.586 46.0575 214.586C46.0575 214.586 46.0575 214.586 46.0575 214.586C46.0575 214.586 46.0576 214.586 46.0576 214.586C46.0577 214.586 46.0578 214.587 46.058 214.587C46.0583 214.588 46.0588 214.59 46.0594 214.592C46.0606 214.596 46.0625 214.602 46.0649 214.61C46.0696 214.626 46.0766 214.648 46.0857 214.677C46.1038 214.734 46.1301 214.816 46.1631 214.913C46.2288 215.107 46.3213 215.364 46.4277 215.614C46.5332 215.862 46.6558 216.112 46.7833 216.285C46.8463 216.371 46.9179 216.448 46.9978 216.495C47.0833 216.544 47.1881 216.562 47.2896 216.503L47.2278 216.396ZM46.176 214.55C46.0577 214.514 46.0577 214.514 46.0577 214.514C46.0577 214.514 46.0578 214.514 46.0578 214.514C46.0578 214.514 46.0578 214.514 46.0578 214.514C46.0578 214.514 46.0578 214.514 46.0578 214.514C46.0578 214.514 46.0577 214.514 46.0576 214.514C46.0574 214.515 46.0569 214.517 46.0562 214.519C46.0549 214.523 46.0527 214.529 46.0495 214.537C46.0432 214.554 46.0333 214.578 46.0194 214.606C45.9913 214.663 45.9487 214.733 45.8899 214.794C45.8316 214.854 45.7602 214.901 45.6727 214.921C45.5862 214.94 45.4717 214.934 45.3215 214.866L45.2707 214.979L45.2199 215.092C45.4101 215.177 45.579 215.195 45.7261 215.162C45.8722 215.13 45.9845 215.051 46.0674 214.966C46.1499 214.881 46.206 214.787 46.2412 214.715C46.259 214.679 46.2719 214.648 46.2805 214.626C46.2849 214.614 46.2881 214.605 46.2904 214.598C46.2915 214.595 46.2924 214.592 46.2931 214.59C46.2934 214.589 46.2936 214.588 46.2939 214.588C46.294 214.588 46.294 214.587 46.2941 214.587C46.2942 214.587 46.2942 214.587 46.2942 214.587C46.2942 214.587 46.2943 214.587 46.2943 214.587C46.2943 214.586 46.2943 214.586 46.176 214.55ZM45.2707 214.979L45.3215 214.866C45.3225 214.867 45.3163 214.864 45.3024 214.851C45.2894 214.84 45.2733 214.824 45.2544 214.802C45.2163 214.758 45.1719 214.698 45.1228 214.626C45.025 214.483 44.9152 214.3 44.8113 214.117C44.6037 213.752 44.4248 213.398 44.4212 213.391L44.3108 213.447L44.2004 213.503C44.2046 213.511 44.3857 213.869 44.5962 214.239C44.7014 214.424 44.8151 214.614 44.9185 214.766C44.9701 214.842 45.0207 214.91 45.0676 214.964C45.1106 215.013 45.1632 215.066 45.2199 215.092L45.2707 214.979ZM44.3108 213.447C44.4077 213.37 44.4077 213.37 44.4077 213.37C44.4077 213.37 44.4077 213.37 44.4077 213.37C44.4077 213.37 44.4077 213.37 44.4077 213.37C44.4077 213.37 44.4076 213.37 44.4075 213.37C44.4073 213.369 44.4069 213.369 44.4065 213.368C44.4055 213.367 44.4041 213.365 44.4021 213.363C44.3982 213.358 44.3923 213.35 44.3847 213.34C44.3694 213.32 44.3471 213.29 44.3194 213.252C44.2638 213.176 44.1865 213.065 44.1002 212.931C43.9271 212.661 43.72 212.298 43.578 211.918L43.4621 211.961L43.3463 212.005C43.4968 212.408 43.714 212.787 43.8921 213.065C43.9814 213.204 44.0614 213.318 44.1192 213.398C44.1482 213.437 44.1716 213.469 44.1879 213.49C44.196 213.501 44.2024 213.509 44.2068 213.515C44.209 213.517 44.2107 213.52 44.2119 213.521C44.2125 213.522 44.2129 213.522 44.2132 213.523C44.2134 213.523 44.2135 213.523 44.2136 213.523C44.2137 213.523 44.2137 213.523 44.2138 213.523C44.2138 213.524 44.2138 213.524 44.2138 213.524C44.2138 213.524 44.2138 213.524 44.3108 213.447ZM43.4621 211.961L43.578 211.918C43.3237 211.237 43.0907 210.258 42.9337 209.353C42.8554 208.901 42.7963 208.469 42.763 208.105C42.7295 207.738 42.723 207.448 42.7459 207.273L42.6233 207.257L42.5006 207.241C42.4739 207.444 42.4829 207.758 42.5167 208.128C42.5507 208.5 42.6108 208.938 42.69 209.395C42.8482 210.307 43.0843 211.303 43.3463 212.005L43.4621 211.961ZM42.6233 207.257L42.7459 207.274C42.9807 205.496 43.508 202.51 44.1954 200.865L44.0813 200.817L43.9672 200.769C43.2657 202.448 42.7354 205.464 42.5007 207.241L42.6233 207.257ZM44.0813 200.817L44.2044 200.805C43.9994 198.67 43.504 193.316 43.1682 188.09C43.0003 185.477 42.8724 182.896 42.8406 180.767C42.8246 179.702 42.8328 178.751 42.8718 177.966C42.9109 177.178 42.9807 176.565 43.0856 176.171L42.966 176.139L42.8465 176.107C42.7346 176.528 42.6639 177.163 42.6247 177.953C42.5853 178.746 42.5773 179.703 42.5932 180.771C42.6252 182.906 42.7534 185.491 42.9214 188.106C43.2574 193.336 43.7531 198.693 43.9582 200.829L44.0813 200.817ZM42.966 176.139L43.0856 176.171C43.5804 174.312 44.3132 172.121 44.923 170.393C45.2278 169.53 45.5016 168.783 45.6992 168.251C45.798 167.986 45.8777 167.774 45.9327 167.629C45.9602 167.556 45.9816 167.5 45.996 167.463C46.0032 167.444 46.0087 167.429 46.0124 167.42C46.0143 167.415 46.0157 167.411 46.0166 167.409C46.0171 167.408 46.0174 167.407 46.0176 167.406C46.0178 167.406 46.0179 167.406 46.0179 167.405C46.0179 167.405 46.018 167.405 46.018 167.405C46.018 167.405 46.018 167.405 45.9026 167.361C45.7871 167.316 45.7871 167.316 45.7871 167.316C45.7871 167.317 45.7871 167.317 45.787 167.317C45.787 167.317 45.7869 167.317 45.7868 167.317C45.7865 167.318 45.7862 167.319 45.7857 167.32C45.7848 167.323 45.7833 167.326 45.7815 167.331C45.7778 167.341 45.7722 167.355 45.765 167.374C45.7504 167.412 45.729 167.469 45.7014 167.541C45.6462 167.687 45.5663 167.899 45.4673 168.165C45.2694 168.697 44.9951 169.446 44.6898 170.311C44.0794 172.041 43.3439 174.239 42.8465 176.107L42.966 176.139ZM45.9026 167.361L45.8399 167.467L53.3008 171.856L53.3635 171.75L53.4262 171.643L45.9653 167.254L45.9026 167.361ZM108.417 154.879C108.382 154.998 108.382 154.998 108.382 154.998C108.382 154.998 108.382 154.998 108.382 154.998C108.382 154.998 108.382 154.998 108.382 154.998C108.382 154.998 108.383 154.998 108.383 154.998C108.383 154.998 108.384 154.999 108.385 154.999C108.387 155 108.391 155.001 108.395 155.002C108.404 155.005 108.417 155.009 108.435 155.014C108.47 155.025 108.521 155.041 108.586 155.062C108.716 155.105 108.903 155.169 109.125 155.251C109.571 155.416 110.161 155.657 110.74 155.96L110.797 155.85L110.854 155.741C110.263 155.431 109.663 155.186 109.211 155.019C108.985 154.935 108.796 154.871 108.663 154.827C108.597 154.806 108.544 154.789 108.508 154.778C108.49 154.772 108.476 154.768 108.467 154.765C108.462 154.764 108.459 154.763 108.456 154.762C108.455 154.762 108.454 154.761 108.453 154.761C108.453 154.761 108.453 154.761 108.453 154.761C108.453 154.761 108.452 154.761 108.452 154.761C108.452 154.761 108.452 154.761 108.452 154.761C108.452 154.761 108.452 154.761 108.417 154.879ZM110.797 155.85L110.74 155.96C111.774 156.501 112.753 157.279 113.193 157.592L113.265 157.491L113.337 157.39C112.911 157.088 111.908 156.292 110.854 155.741L110.797 155.85ZM113.265 157.491L113.193 157.591C113.197 157.594 113.216 157.613 113.234 157.678C113.251 157.739 113.262 157.824 113.266 157.935C113.273 158.154 113.249 158.452 113.199 158.808C113.098 159.517 112.892 160.439 112.626 161.387C112.36 162.335 112.035 163.306 111.698 164.114C111.529 164.519 111.358 164.881 111.19 165.178C111.021 165.477 110.859 165.704 110.712 165.844L110.797 165.934L110.882 166.024C111.056 165.859 111.232 165.607 111.405 165.3C111.579 164.991 111.755 164.62 111.926 164.21C112.268 163.39 112.596 162.409 112.864 161.454C113.132 160.499 113.341 159.567 113.444 158.842C113.495 158.481 113.521 158.167 113.513 157.926C113.509 157.807 113.497 157.7 113.473 157.612C113.449 157.528 113.41 157.442 113.337 157.39L113.265 157.491ZM110.797 165.934L110.712 165.844C110.505 166.04 110.191 166.231 109.804 166.413C109.418 166.594 108.967 166.762 108.493 166.915C107.545 167.221 106.513 167.464 105.743 167.626L105.769 167.747L105.794 167.868C106.568 167.705 107.609 167.46 108.569 167.15C109.049 166.996 109.51 166.824 109.909 166.637C110.306 166.451 110.648 166.247 110.882 166.024L110.797 165.934ZM105.769 167.747L105.664 167.681C104.19 170.061 101.492 174.22 98.6218 177.66C97.1863 179.38 95.7119 180.916 94.3296 181.96C92.9403 183.008 91.6753 183.536 90.6476 183.304L90.6203 183.424L90.5931 183.545C91.7361 183.803 93.0814 183.212 94.4787 182.157C95.883 181.097 97.3714 179.545 98.8118 177.818C101.693 174.365 104.399 170.194 105.874 167.812L105.769 167.747ZM90.6203 183.424L90.6476 183.304C90.1144 183.183 89.5752 182.842 89.0378 182.321C88.5012 181.802 87.9737 181.111 87.4634 180.305C86.4428 178.693 85.5002 176.635 84.6963 174.603C83.8928 172.573 83.2298 170.573 82.7675 169.081C82.5365 168.335 82.3556 167.716 82.2326 167.284C82.1711 167.068 82.1241 166.898 82.0924 166.783C82.0766 166.725 82.0646 166.681 82.0566 166.651C82.0526 166.636 82.0496 166.625 82.0476 166.618C82.0466 166.614 82.0458 166.611 82.0453 166.609C82.0451 166.608 82.0449 166.608 82.0447 166.607C82.0447 166.607 82.0446 166.607 82.0446 166.607C82.0446 166.606 82.0446 166.606 81.925 166.638C81.8055 166.67 81.8055 166.67 81.8055 166.67C81.8056 166.67 81.8056 166.67 81.8057 166.671C81.8058 166.671 81.806 166.672 81.8063 166.673C81.8068 166.675 81.8076 166.678 81.8086 166.682C81.8106 166.689 81.8137 166.701 81.8178 166.716C81.8259 166.746 81.8379 166.79 81.8539 166.848C81.8857 166.964 81.933 167.135 81.9947 167.351C82.1182 167.785 82.2995 168.406 82.5313 169.154C82.9946 170.65 83.6597 172.656 84.4663 174.694C85.2724 176.732 86.2217 178.806 87.2544 180.437C87.7707 181.253 88.3101 181.961 88.8657 182.499C89.4205 183.036 89.9987 183.411 90.5931 183.545L90.6203 183.424ZM81.925 166.638L81.9792 166.749L89.5866 163.044L89.5324 162.933L89.4783 162.822L81.8709 166.527L81.925 166.638ZM89.5324 162.933L89.4148 162.971L92.7273 173.18L92.8449 173.142L92.9626 173.104L89.6501 162.895L89.5324 162.933ZM92.8449 173.142L92.9326 173.229L101.342 164.779L101.254 164.692L101.166 164.605L92.7573 173.055L92.8449 173.142ZM101.254 164.692L101.377 164.679C101.296 163.882 101.24 163.01 101.266 162.254C101.28 161.876 101.314 161.53 101.375 161.238C101.436 160.945 101.523 160.717 101.635 160.566L101.535 160.493L101.436 160.419C101.293 160.611 101.197 160.88 101.133 161.188C101.068 161.498 101.033 161.859 101.019 162.245C100.992 163.017 101.049 163.902 101.131 164.704L101.254 164.692ZM101.535 160.493L101.635 160.566C101.861 160.262 102.316 159.795 102.88 159.261C103.442 158.729 104.105 158.137 104.739 157.583C105.373 157.03 105.978 156.516 106.425 156.14C106.648 155.952 106.832 155.798 106.959 155.692C107.023 155.639 107.073 155.598 107.107 155.569C107.124 155.555 107.137 155.545 107.146 155.537C107.15 155.534 107.153 155.531 107.156 155.529C107.157 155.528 107.158 155.528 107.158 155.527C107.158 155.527 107.159 155.527 107.159 155.527C107.159 155.527 107.159 155.527 107.159 155.527C107.159 155.527 107.159 155.527 107.08 155.431C107.002 155.336 107.002 155.336 107.002 155.336C107.002 155.336 107.001 155.336 107.001 155.336C107.001 155.336 107.001 155.336 107.001 155.336C107 155.337 106.999 155.338 106.998 155.339C106.996 155.34 106.993 155.343 106.988 155.347C106.979 155.354 106.966 155.365 106.949 155.379C106.915 155.407 106.865 155.449 106.801 155.502C106.673 155.609 106.489 155.762 106.265 155.95C105.818 156.327 105.212 156.842 104.576 157.397C103.941 157.952 103.276 158.546 102.71 159.081C102.147 159.614 101.677 160.095 101.436 160.419L101.535 160.493ZM107.08 155.431L106.957 155.441L107.202 158.615L107.325 158.605L107.449 158.595L107.204 155.422L107.08 155.431ZM107.325 158.605L107.444 158.64L108.536 154.914L108.417 154.879L108.299 154.845L107.207 158.57L107.325 158.605ZM75.344 146.006L75.2724 146.107C75.2925 146.121 77.2525 147.516 78.718 149.995L78.8244 149.932L78.9309 149.869C77.4398 147.346 75.4475 145.928 75.4155 145.905L75.344 146.006ZM78.8244 149.932L78.718 149.995C79.7253 151.699 79.9524 153.264 79.565 154.392C79.1813 155.509 78.1845 156.227 76.6621 156.229L76.6623 156.353L76.6625 156.477C78.2734 156.474 79.3757 155.704 79.7989 154.472C80.2182 153.252 79.9598 151.609 78.9309 149.869L78.8244 149.932ZM76.6623 156.353L76.6621 156.229C74.9977 156.232 73.2207 155.95 71.6615 155.045C70.1055 154.141 68.7559 152.611 67.953 150.098L67.8352 150.135L67.7174 150.173C68.5374 152.74 69.9241 154.322 71.5373 155.258C73.1475 156.193 74.9726 156.48 76.6625 156.477L76.6623 156.353ZM67.8352 150.135L67.953 150.098C67.5419 148.811 67.1422 147.667 66.8453 146.845C66.6968 146.434 66.574 146.104 66.4883 145.876C66.4454 145.762 66.4119 145.673 66.389 145.614C66.3775 145.584 66.3687 145.561 66.3628 145.545C66.3599 145.538 66.3576 145.532 66.3561 145.528C66.3554 145.526 66.3548 145.525 66.3544 145.524C66.3542 145.523 66.3541 145.523 66.354 145.523C66.3539 145.522 66.3539 145.522 66.3538 145.522C66.3538 145.522 66.3538 145.522 66.3538 145.522C66.3538 145.522 66.3538 145.522 66.2385 145.567C66.1232 145.612 66.1232 145.612 66.1232 145.612C66.1232 145.612 66.1232 145.612 66.1232 145.612C66.1233 145.612 66.1233 145.612 66.1233 145.612C66.1234 145.612 66.1236 145.613 66.1237 145.613C66.1241 145.614 66.1247 145.615 66.1254 145.617C66.1269 145.621 66.1291 145.627 66.132 145.634C66.1379 145.65 66.1465 145.672 66.1579 145.702C66.1807 145.761 66.2141 145.849 66.2568 145.963C66.3422 146.19 66.4646 146.52 66.6127 146.929C66.9088 147.749 67.3075 148.89 67.7174 150.173L67.8352 150.135ZM66.2385 145.567L66.2325 145.69L75.338 146.13L75.344 146.006L75.3499 145.883L66.2445 145.443L66.2385 145.567Z" fill="#3B4252" fill-opacity="0.4"/>
<path d="M47.0616 135.522C47.0616 132.41 58.7262 106.524 73.8726 106.984C94.8848 107.622 100.274 140.193 99.3118 143.399C98.546 145.952 94.8551 146.88 78.6729 146.428C54.3682 145.748 47.0616 138.309 47.0616 135.522Z" fill="#3B4252"/>
<path d="M74.7783 120.11C78.4652 121.972 84.2712 125.386 87.2239 129.645C86.7072 133.322 85.4443 138.254 82.4828 140.223C80.8527 141.307 77.8843 141.44 75.3541 141.294L74.7752 148.478L66.7657 145.823C66.7657 145.823 67.5597 137.406 67.9035 134.361C66.2437 132.854 63.169 131.909 63.1638 129.352C63.1638 128.469 63.6808 126.935 65.5907 126.932C68.1531 126.93 67.7897 130 67.7897 130C70.3799 131.008 73.0254 123.326 74.7783 120.11L74.7783 120.11Z" fill="#F5CDB2"/>
<path opacity="0.398182" fill-rule="evenodd" clip-rule="evenodd" d="M75.3494 141.295C75.3494 141.295 72.1507 141.389 70.7875 140.645L75.1794 143.402L75.3494 141.295Z" fill="#3B4252"/>
<path fill-rule="evenodd" clip-rule="evenodd" d="M110.94 155.946C110.253 155.553 109.599 155.258 109.279 155.332C108.718 155.463 109.744 156.934 110.492 157.902L110.484 157.939C109.276 158.425 107.693 159.145 107.438 159.673C107.261 160.042 107.955 160.162 108.815 160.178C108.023 160.558 107.333 160.968 107.172 161.301C106.966 161.728 107.93 161.822 108.966 161.807C108.051 162.224 107.193 162.699 107.012 163.075C106.781 163.555 108.029 163.614 109.195 163.571L108.896 164.881C108.804 165.283 108.438 165.562 108.026 165.544L103.548 165.348C103.015 165.325 102.634 164.825 102.753 164.305L105.925 150.438C106.017 150.036 106.383 149.757 106.795 149.775L111.273 149.971C111.806 149.994 112.187 150.495 112.068 151.015L110.94 155.946V155.946Z" fill="#1B1C1E"/>
<path d="M111.853 156.509C110.903 155.889 109.742 155.224 109.279 155.332C108.713 155.464 109.762 156.96 110.512 157.927C109.301 158.413 107.695 159.141 107.438 159.673C107.261 160.041 107.955 160.162 108.815 160.178C108.024 160.558 107.333 160.968 107.172 161.301C106.966 161.728 107.93 161.822 108.966 161.807C108.051 162.224 107.194 162.699 107.012 163.075C106.706 163.711 108.993 163.608 110.252 163.506L109.927 164.926C109.835 165.328 109.469 165.607 109.057 165.589L104.579 165.394C104.046 165.37 103.665 164.87 103.784 164.35L106.957 150.483C107.049 150.081 107.414 149.802 107.826 149.82L112.304 150.016C112.837 150.039 113.218 150.54 113.1 151.06L111.853 156.509Z" fill="#C6C6C6"/>
<path fill-rule="evenodd" clip-rule="evenodd" d="M108.111 151.657C108.007 152.112 107.739 152.435 107.513 152.378C107.286 152.321 107.187 151.907 107.292 151.453C107.396 150.998 107.664 150.675 107.89 150.732C108.117 150.789 108.216 151.203 108.111 151.657" fill="#1B1C1E"/>
<path fill-rule="evenodd" clip-rule="evenodd" d="M107.587 154.008C107.483 154.463 107.215 154.786 106.989 154.729C106.763 154.672 106.664 154.258 106.768 153.804C106.872 153.349 107.14 153.026 107.367 153.083C107.593 153.14 107.692 153.554 107.587 154.008" fill="#1B1C1E"/>
<path d="M69.2397 145.712L66.2389 145.567C66.2389 145.567 67.0144 147.566 67.8354 150.136C69.4583 155.217 73.3083 156.358 76.6628 156.353C79.7961 156.348 80.8607 153.376 78.8242 149.932C77.5135 147.714 75.8117 146.358 75.4245 146.066C79.381 146.333 81.8447 146.83 84.1261 148.97C88.4701 153.044 91.9875 160.555 93.4339 167.976L85.4958 171.518L82.6684 182.443L61.8937 182.127C61.8937 182.127 62.0756 180.125 61.6276 177.234C61.0441 173.452 58.9375 170.629 58.9375 170.629L56.8481 173.805L43.8529 166.145C48.1073 158.387 54.0415 150.387 57.998 147.842C60.7932 146.043 63.3524 145.592 65.853 145.567C66.9902 145.556 68.1319 145.633 69.2397 145.712Z" fill="#C7404A"/>
<path opacity="0.202962" d="M82.7611 182.633C83.5546 172.555 88.8 170.177 84.8422 158.874" stroke="#1B1C1E" stroke-width="0.742086"/>
<path opacity="0.202055" d="M75.3437 146.006C75.3437 146.006 77.336 147.414 78.8241 149.932C80.8606 153.376 79.796 156.348 76.6627 156.353C73.3082 156.358 69.4582 155.216 67.8353 150.136C67.0143 147.566 66.2388 145.567 66.2388 145.567" stroke="#1B1C1E" stroke-width="0.742086"/>
<path opacity="0.202962" d="M64.2732 163.574L59.4528 170.877" stroke="#1B1C1E" stroke-width="0.742086"/>
<path d="M272.295 204.028L288.589 200.323L284.884 184.029L268.59 187.734L272.295 204.028Z" fill="black"/>
<path d="M136.236 114.279L152.482 118.185L156.388 101.938L140.141 98.0323L136.236 114.279Z" fill="black"/>
<g clip-path="url(#clip3_3788_11619)">
<rect width="14.1387" height="18.8661" rx="2.09645" transform="matrix(0.970575 0.2408 -0.24138 0.970431 288.779 65.4609)" fill="#3E5DE7"/>
<rect width="14.1387" height="18.8661" rx="2.09645" transform="matrix(0.970575 0.2408 -0.24138 0.970431 288.779 65.4609)" fill="#F6F8F9" fill-opacity="0.975"/>
<path fill-rule="evenodd" clip-rule="evenodd" d="M289.795 70.1238C289.865 69.8429 290.149 69.6717 290.43 69.7413L295.004 70.8762C295.285 70.9458 295.455 71.23 295.386 71.5109C295.316 71.7917 295.032 71.963 294.751 71.8933L290.177 70.7585C289.896 70.6888 289.725 70.4047 289.795 70.1238Z" fill="#3E5DE7"/>
<path fill-rule="evenodd" clip-rule="evenodd" d="M289.795 70.1238C289.865 69.8429 290.149 69.6717 290.43 69.7413L295.004 70.8762C295.285 70.9458 295.455 71.23 295.386 71.5109C295.316 71.7917 295.032 71.963 294.751 71.8933L290.177 70.7585C289.896 70.6888 289.725 70.4047 289.795 70.1238Z" fill="#F6F8F9" fill-opacity="0.45"/>
<path fill-rule="evenodd" clip-rule="evenodd" d="M289.367 71.8435C289.437 71.5627 289.721 71.3914 290.002 71.4611L298.609 73.5967C298.89 73.6663 299.061 73.9505 298.991 74.2313C298.921 74.5122 298.637 74.6835 298.356 74.6138L289.749 72.4782C289.468 72.4085 289.297 72.1244 289.367 71.8435ZM288.987 73.3692C289.057 73.0883 289.341 72.9171 289.622 72.9867L298.23 75.1224C298.511 75.192 298.682 75.4762 298.612 75.757C298.542 76.0379 298.258 76.2091 297.977 76.1395L289.369 74.0039C289.088 73.9342 288.917 73.6501 288.987 73.3692ZM288.608 74.8949C288.678 74.614 288.962 74.4428 289.243 74.5124L297.85 76.6481C298.131 76.7177 298.302 77.0019 298.232 77.2827C298.162 77.5636 297.878 77.7348 297.597 77.6652L288.99 75.5296C288.709 75.4599 288.538 75.1758 288.608 74.8949ZM288.228 76.4206C288.298 76.1397 288.582 75.9685 288.863 76.0381L297.471 78.1738C297.752 78.2434 297.923 78.5275 297.853 78.8084C297.783 79.0893 297.499 79.2605 297.218 79.1909L288.61 77.0552C288.329 76.9856 288.158 76.7015 288.228 76.4206Z" fill="#3E5DE7"/>
<path fill-rule="evenodd" clip-rule="evenodd" d="M289.367 71.8435C289.437 71.5627 289.721 71.3914 290.002 71.4611L298.609 73.5967C298.89 73.6663 299.061 73.9505 298.991 74.2313C298.921 74.5122 298.637 74.6835 298.356 74.6138L289.749 72.4782C289.468 72.4085 289.297 72.1244 289.367 71.8435ZM288.987 73.3692C289.057 73.0883 289.341 72.9171 289.622 72.9867L298.23 75.1224C298.511 75.192 298.682 75.4762 298.612 75.757C298.542 76.0379 298.258 76.2091 297.977 76.1395L289.369 74.0039C289.088 73.9342 288.917 73.6501 288.987 73.3692ZM288.608 74.8949C288.678 74.614 288.962 74.4428 289.243 74.5124L297.85 76.6481C298.131 76.7177 298.302 77.0019 298.232 77.2827C298.162 77.5636 297.878 77.7348 297.597 77.6652L288.99 75.5296C288.709 75.4599 288.538 75.1758 288.608 74.8949ZM288.228 76.4206C288.298 76.1397 288.582 75.9685 288.863 76.0381L297.471 78.1738C297.752 78.2434 297.923 78.5275 297.853 78.8084C297.783 79.0893 297.499 79.2605 297.218 79.1909L288.61 77.0552C288.329 76.9856 288.158 76.7015 288.228 76.4206Z" fill="#F6F8F9" fill-opacity="0.65"/>
<path fill-rule="evenodd" clip-rule="evenodd" d="M287.844 77.9643C287.914 77.6834 288.198 77.5122 288.479 77.5818L297.087 79.7174C297.368 79.7871 297.539 80.0712 297.469 80.3521C297.399 80.633 297.115 80.8042 296.834 80.7346L288.226 78.5989C287.945 78.5293 287.774 78.2451 287.844 77.9643ZM287.465 79.49C287.535 79.2091 287.819 79.0378 288.1 79.1075L296.708 81.2431C296.988 81.3128 297.159 81.5969 297.089 81.8778C297.019 82.1586 296.735 82.3299 296.455 82.2602L287.847 80.1246C287.566 80.055 287.395 79.7708 287.465 79.49ZM287.085 81.0156C287.155 80.7348 287.439 80.5635 287.72 80.6332L296.328 82.7688C296.609 82.8384 296.78 83.1226 296.71 83.4035C296.64 83.6843 296.356 83.8556 296.075 83.7859L287.467 81.6503C287.186 81.5807 287.016 81.2965 287.085 81.0156ZM286.706 82.5413C286.776 82.2605 287.06 82.0892 287.341 82.1589L295.949 84.2945C296.229 84.3641 296.4 84.6483 296.33 84.9291C296.26 85.21 295.976 85.3813 295.696 85.3116L287.088 83.176C286.807 83.1063 286.636 82.8222 286.706 82.5413Z" fill="#3E5DE7"/>
<path fill-rule="evenodd" clip-rule="evenodd" d="M287.844 77.9643C287.914 77.6834 288.198 77.5122 288.479 77.5818L297.087 79.7174C297.368 79.7871 297.539 80.0712 297.469 80.3521C297.399 80.633 297.115 80.8042 296.834 80.7346L288.226 78.5989C287.945 78.5293 287.774 78.2451 287.844 77.9643ZM287.465 79.49C287.535 79.2091 287.819 79.0378 288.1 79.1075L296.708 81.2431C296.988 81.3128 297.159 81.5969 297.089 81.8778C297.019 82.1586 296.735 82.3299 296.455 82.2602L287.847 80.1246C287.566 80.055 287.395 79.7708 287.465 79.49ZM287.085 81.0156C287.155 80.7348 287.439 80.5635 287.72 80.6332L296.328 82.7688C296.609 82.8384 296.78 83.1226 296.71 83.4035C296.64 83.6843 296.356 83.8556 296.075 83.7859L287.467 81.6503C287.186 81.5807 287.016 81.2965 287.085 81.0156ZM286.706 82.5413C286.776 82.2605 287.06 82.0892 287.341 82.1589L295.949 84.2945C296.229 84.3641 296.4 84.6483 296.33 84.9291C296.26 85.21 295.976 85.3813 295.696 85.3116L287.088 83.176C286.807 83.1063 286.636 82.8222 286.706 82.5413Z" fill="#F6F8F9" fill-opacity="0.65"/>
</g>
<rect x="0.231884" y="0.385172" width="13.5027" height="18.2301" rx="1.77845" transform="matrix(0.970575 0.2408 -0.24138 0.970431 288.879 65.4165)" stroke="#3E5DE7" stroke-width="0.636002"/>
<rect x="0.231884" y="0.385172" width="13.5027" height="18.2301" rx="1.77845" transform="matrix(0.970575 0.2408 -0.24138 0.970431 288.879 65.4165)" stroke="#F6F8F9" stroke-opacity="0.65" stroke-width="0.636002"/>
<defs>
<filter id="filter0_d_3788_11619" x="122.936" y="24.8746" width="44.4205" height="44.4203" filterUnits="userSpaceOnUse" color-interpolation-filters="sRGB">
<feFlood flood-opacity="0" result="BackgroundImageFix"/>
<feColorMatrix in="SourceAlpha" type="matrix" values="0 0 0 0 0 0 0 0 0 0 0 0 0 0 0 0 0 0 127 0" result="hardAlpha"/>
<feMorphology radius="2.08877" operator="dilate" in="SourceAlpha" result="effect1_dropShadow_3788_11619"/>
<feOffset/>
<feGaussianBlur stdDeviation="4.49953"/>
<feComposite in2="hardAlpha" operator="out"/>
<feColorMatrix type="matrix" values="0 0 0 0 0.521569 0 0 0 0 0.666667 0 0 0 0 0.270588 0 0 0 0.25 0"/>
<feBlend mode="normal" in2="BackgroundImageFix" result="effect1_dropShadow_3788_11619"/>
<feBlend mode="normal" in="SourceGraphic" in2="effect1_dropShadow_3788_11619" result="shape"/>
</filter>
<filter id="filter1_d_3788_11619" x="123.654" y="131.512" width="43.4094" height="43.4095" filterUnits="userSpaceOnUse" color-interpolation-filters="sRGB">
<feFlood flood-opacity="0" result="BackgroundImageFix"/>
<feColorMatrix in="SourceAlpha" type="matrix" values="0 0 0 0 0 0 0 0 0 0 0 0 0 0 0 0 0 0 127 0" result="hardAlpha"/>
<feMorphology radius="2.08877" operator="dilate" in="SourceAlpha" result="effect1_dropShadow_3788_11619"/>
<feOffset/>
<feGaussianBlur stdDeviation="4.49953"/>
<feComposite in2="hardAlpha" operator="out"/>
<feColorMatrix type="matrix" values="0 0 0 0 0.823529 0 0 0 0 0.54902 0 0 0 0 0.505882 0 0 0 0.25 0"/>
<feBlend mode="normal" in2="BackgroundImageFix" result="effect1_dropShadow_3788_11619"/>
<feBlend mode="normal" in="SourceGraphic" in2="effect1_dropShadow_3788_11619" result="shape"/>
</filter>
<filter id="filter2_d_3788_11619" x="252.371" y="82.1719" width="44.4205" height="44.4203" filterUnits="userSpaceOnUse" color-interpolation-filters="sRGB">
<feFlood flood-opacity="0" result="BackgroundImageFix"/>
<feColorMatrix in="SourceAlpha" type="matrix" values="0 0 0 0 0 0 0 0 0 0 0 0 0 0 0 0 0 0 127 0" result="hardAlpha"/>
<feMorphology radius="2.08877" operator="dilate" in="SourceAlpha" result="effect1_dropShadow_3788_11619"/>
<feOffset/>
<feGaussianBlur stdDeviation="4.49953"/>
<feComposite in2="hardAlpha" operator="out"/>
<feColorMatrix type="matrix" values="0 0 0 0 0.768627 0 0 0 0 0.592157 0 0 0 0 0.0666667 0 0 0 0.25 0"/>
<feBlend mode="normal" in2="BackgroundImageFix" result="effect1_dropShadow_3788_11619"/>
<feBlend mode="normal" in="SourceGraphic" in2="effect1_dropShadow_3788_11619" result="shape"/>
</filter>
<filter id="filter3_d_3788_11619" x="260.02" y="19.7259" width="18.3168" height="22.6986" filterUnits="userSpaceOnUse" color-interpolation-filters="sRGB">
<feFlood flood-opacity="0" result="BackgroundImageFix"/>
<feColorMatrix in="SourceAlpha" type="matrix" values="0 0 0 0 0 0 0 0 0 0 0 0 0 0 0 0 0 0 127 0" result="hardAlpha"/>
<feOffset/>
<feGaussianBlur stdDeviation="1.20883"/>
<feComposite in2="hardAlpha" operator="out"/>
<feColorMatrix type="matrix" values="0 0 0 0 1 0 0 0 0 1 0 0 0 0 1 0 0 0 0.3 0"/>
<feBlend mode="normal" in2="BackgroundImageFix" result="effect1_dropShadow_3788_11619"/>
<feBlend mode="normal" in="SourceGraphic" in2="effect1_dropShadow_3788_11619" result="shape"/>
</filter>
<filter id="filter4_d_3788_11619" x="234.742" y="20.0628" width="14.7553" height="17.9799" filterUnits="userSpaceOnUse" color-interpolation-filters="sRGB">
<feFlood flood-opacity="0" result="BackgroundImageFix"/>
<feColorMatrix in="SourceAlpha" type="matrix" values="0 0 0 0 0 0 0 0 0 0 0 0 0 0 0 0 0 0 127 0" result="hardAlpha"/>
<feOffset/>
<feGaussianBlur stdDeviation="1.20883"/>
<feComposite in2="hardAlpha" operator="out"/>
<feColorMatrix type="matrix" values="0 0 0 0 1 0 0 0 0 1 0 0 0 0 1 0 0 0 0.3 0"/>
<feBlend mode="normal" in2="BackgroundImageFix" result="effect1_dropShadow_3788_11619"/>
<feBlend mode="normal" in="SourceGraphic" in2="effect1_dropShadow_3788_11619" result="shape"/>
</filter>
<filter id="filter5_d_3788_11619" x="287.331" y="122.187" width="14.7553" height="17.9799" filterUnits="userSpaceOnUse" color-interpolation-filters="sRGB">
<feFlood flood-opacity="0" result="BackgroundImageFix"/>
<feColorMatrix in="SourceAlpha" type="matrix" values="0 0 0 0 0 0 0 0 0 0 0 0 0 0 0 0 0 0 127 0" result="hardAlpha"/>
<feOffset/>
<feGaussianBlur stdDeviation="1.20883"/>
<feComposite in2="hardAlpha" operator="out"/>
<feColorMatrix type="matrix" values="0 0 0 0 1 0 0 0 0 1 0 0 0 0 1 0 0 0 0.3 0"/>
<feBlend mode="normal" in2="BackgroundImageFix" result="effect1_dropShadow_3788_11619"/>
<feBlend mode="normal" in="SourceGraphic" in2="effect1_dropShadow_3788_11619" result="shape"/>
</filter>
<filter id="filter6_d_3788_11619" x="274.523" y="137.354" width="10.9398" height="12.9242" filterUnits="userSpaceOnUse" color-interpolation-filters="sRGB">
<feFlood flood-opacity="0" result="BackgroundImageFix"/>
<feColorMatrix in="SourceAlpha" type="matrix" values="0 0 0 0 0 0 0 0 0 0 0 0 0 0 0 0 0 0 127 0" result="hardAlpha"/>
<feOffset/>
<feGaussianBlur stdDeviation="1.20883"/>
<feComposite in2="hardAlpha" operator="out"/>
<feColorMatrix type="matrix" values="0 0 0 0 1 0 0 0 0 1 0 0 0 0 1 0 0 0 0.3 0"/>
<feBlend mode="normal" in2="BackgroundImageFix" result="effect1_dropShadow_3788_11619"/>
<feBlend mode="normal" in="SourceGraphic" in2="effect1_dropShadow_3788_11619" result="shape"/>
</filter>
<filter id="filter7_d_3788_11619" x="241.145" y="6.91827" width="10.9398" height="12.9242" filterUnits="userSpaceOnUse" color-interpolation-filters="sRGB">
<feFlood flood-opacity="0" result="BackgroundImageFix"/>
<feColorMatrix in="SourceAlpha" type="matrix" values="0 0 0 0 0 0 0 0 0 0 0 0 0 0 0 0 0 0 127 0" result="hardAlpha"/>
<feOffset/>
<feGaussianBlur stdDeviation="1.20883"/>
<feComposite in2="hardAlpha" operator="out"/>
<feColorMatrix type="matrix" values="0 0 0 0 1 0 0 0 0 1 0 0 0 0 1 0 0 0 0.3 0"/>
<feBlend mode="normal" in2="BackgroundImageFix" result="effect1_dropShadow_3788_11619"/>
<feBlend mode="normal" in="SourceGraphic" in2="effect1_dropShadow_3788_11619" result="shape"/>
</filter>
<clipPath id="clip0_3788_11619">
<rect x="134.024" y="35.9624" width="22.2449" height="22.2449" rx="11.1224" fill="white"/>
</clipPath>
<clipPath id="clip1_3788_11619">
<rect width="21.2337" height="21.2337" rx="10.6169" transform="matrix(-1 0 0 1 155.976 142.6)" fill="white"/>
</clipPath>
<clipPath id="clip2_3788_11619">
<rect width="22.2449" height="22.2449" rx="11.1224" transform="matrix(-1 0 0 1 285.704 93.2598)" fill="white"/>
</clipPath>
<clipPath id="clip3_3788_11619">
<rect width="14.1387" height="18.8661" rx="2.09645" transform="matrix(0.970575 0.2408 -0.24138 0.970431 288.779 65.4609)" fill="white"/>
</clipPath>
</defs>
</svg>
