<svg width="300" height="300" viewBox="0 0 300 300" fill="none" xmlns="http://www.w3.org/2000/svg">
<g clip-path="url(#clip0_452_3256)" filter="url(#filter0_n_452_3256)">
<path fill-rule="evenodd" clip-rule="evenodd" d="M295.61 295.605C295.61 296.414 261.409 297.07 219.219 297.07C177.031 297.07 142.829 296.414 142.829 295.605C142.829 294.796 177.031 294.141 219.219 294.141C261.409 294.141 295.61 294.796 295.61 295.605Z" fill="#DFE2EA"/>
<g opacity="0.36" filter="url(#filter1_g_452_3256)">
<rect x="122.222" y="82.8989" width="63.7217" height="44.3714" rx="3.56556" fill="#A04BE8"/>
<rect x="122.321" y="82.998" width="63.5236" height="44.1734" rx="3.46652" stroke="#A04BE8" stroke-width="0.198087"/>
<rect x="122.321" y="82.998" width="63.5236" height="44.1734" rx="3.46652" stroke="#F6F8F9" stroke-opacity="0.55" stroke-width="0.198087"/>
</g>
<g clip-path="url(#clip1_452_3256)">
<rect x="121.041" y="81.6982" width="63.74" height="44.7735" rx="3.58188" fill="#A04BE8"/>
<rect x="121.041" y="81.6982" width="63.74" height="44.7735" rx="3.58188" fill="#F6F8F9" fill-opacity="0.975"/>
<ellipse cx="152.884" cy="104.28" rx="29.0903" ry="29.1188" fill="#A04BE8"/>
<ellipse cx="152.884" cy="104.28" rx="29.0903" ry="29.1188" fill="#F6F8F9" fill-opacity="0.9"/>
<ellipse cx="152.883" cy="104.28" rx="19.7894" ry="19.8087" fill="#A04BE8"/>
<ellipse cx="152.883" cy="104.28" rx="19.7894" ry="19.8087" fill="#F6F8F9" fill-opacity="0.8"/>
<path d="M152.281 116.109C152.327 116.377 152.351 116.652 152.351 116.932C152.351 116.94 152.351 116.947 152.351 116.954C154.775 119.561 156.054 123.199 155.522 126.979C154.585 133.626 148.385 138.298 141.744 137.36L130.102 135.716C123.461 134.778 118.793 128.572 119.731 121.925C120.391 117.242 123.663 113.539 127.862 112.088C126.719 110.366 126.175 108.238 126.485 106.043C127.052 102.019 130.313 99.0062 134.181 98.5768C133.865 97.5335 133.764 96.4085 133.926 95.2629H133.926C134.522 91.0365 138.464 88.0662 142.686 88.6626C143.759 88.8142 144.752 89.1823 145.625 89.7165C148.068 88.3083 150.965 87.4929 154.072 87.4929C162.794 87.4929 169.864 93.9193 169.864 101.847C169.864 109.774 162.794 116.2 154.072 116.2C153.467 116.2 152.869 116.169 152.281 116.109Z" fill="#89300D"/>
<path fill-rule="evenodd" clip-rule="evenodd" d="M156.477 119.036C156.477 119.036 153.585 119.122 152.352 118.448L156.323 120.943L156.477 119.036Z" fill="#CF3E83"/>
<path d="M149.535 112.45C148.026 111.131 145.546 110.484 145.542 108.204C145.541 107.404 146.009 106.017 147.736 106.015C149.924 106.011 149.751 108.49 149.725 108.766L149.723 108.78L149.724 108.78C149.723 108.787 149.723 108.791 149.723 108.791C149.972 108.887 150.221 108.896 150.47 108.829C152.244 108.849 156.752 108.311 159.266 102.696C159.795 103.253 160.392 103.743 161.04 104.156C162.91 105.343 165.214 105.894 167.571 105.62C167.426 108.456 166.596 115.654 163.009 118.042C161.535 119.023 158.851 119.144 156.564 119.012L155.884 126.541C155.884 126.541 149.798 127.654 147.736 126.267C147.736 126.267 148.876 121.952 148.766 121.635C150.875 121.1 152.436 119.187 152.436 116.91C152.436 114.919 151.244 113.207 149.535 112.45Z" fill="#E0AB8C"/>
<path opacity="0.401762" fill-rule="evenodd" clip-rule="evenodd" d="M156.472 119.036C156.472 119.036 153.58 119.121 152.348 118.447L156.319 120.942L156.472 119.036Z" fill="#161616"/>
</g>
<rect x="121.436" y="82.0938" width="62.949" height="43.9825" rx="3.18637" stroke="#A04BE8" stroke-width="0.791016"/>
<rect x="121.436" y="82.0938" width="62.949" height="43.9825" rx="3.18637" stroke="#F6F8F9" stroke-opacity="0.65" stroke-width="0.791016"/>
<g opacity="0.36" filter="url(#filter2_g_452_3256)">
<rect x="7.97266" y="30.4459" width="76.0881" height="52.9825" rx="4.25753" fill="#4C6CEF"/>
<rect x="8.09092" y="30.5642" width="75.8516" height="52.746" rx="4.13926" stroke="#4C6CEF" stroke-width="0.236529"/>
<rect x="8.09092" y="30.5642" width="75.8516" height="52.746" rx="4.13926" stroke="#F6F8F9" stroke-opacity="0.55" stroke-width="0.236529"/>
</g>
<g clip-path="url(#clip2_452_3256)">
<rect x="6.54028" y="28.5391" width="76.1099" height="53.4626" rx="4.27701" fill="#4C6CEF"/>
<rect x="6.54028" y="28.5391" width="76.1099" height="53.4626" rx="4.27701" fill="#F6F8F9" fill-opacity="0.975"/>
<ellipse cx="44.5843" cy="55.5036" rx="34.7359" ry="34.7698" fill="#4C6CEF"/>
<ellipse cx="44.5843" cy="55.5036" rx="34.7359" ry="34.7698" fill="#F6F8F9" fill-opacity="0.9"/>
<ellipse cx="44.5844" cy="55.5034" rx="23.6298" ry="23.6529" fill="#4C6CEF"/>
<ellipse cx="44.5844" cy="55.5034" rx="23.6298" ry="23.6529" fill="#F6F8F9" fill-opacity="0.8"/>
<path d="M47.8146 81.9608L47.5861 74.1119C47.5861 74.1119 57.175 74.8713 59.2263 73.8114C59.2263 73.8114 61.4375 62.2508 58.6827 53.5717L38.4474 51.2174L37.0077 62.7911C36.326 60.7913 31.0057 58.4997 29.535 61.3634C26.3485 67.5687 37.7429 71.7469 37.7429 71.7469L36.5859 82.0552" fill="#845D48"/>
<path opacity="0.399344" fill-rule="evenodd" clip-rule="evenodd" d="M47.5864 74.1118L41.1206 72.7328L47.5554 77.0565L47.5864 74.1118Z" fill="#161616"/>
<path d="M33.1835 60.3176C32.2849 56.994 29.0332 44.7258 29.4162 42.6315C29.8597 40.2043 31.5584 37.2247 40.2871 34.0995C47.6826 31.4516 51.8543 33.369 53.1181 35.0004C55.0408 37.4828 58.6828 53.5721 58.6828 53.5721C58.6828 53.5721 55.6693 55.7051 44.983 55.3372C44.983 55.3372 46.4624 61.736 40.3982 61.3684C40.3982 61.3684 41.048 63.5233 38.1134 64.2011C36.5032 61.7106 34.3663 60.7041 33.1835 60.3176Z" fill="#3A3A3A"/>
</g>
<rect x="6.93579" y="28.9346" width="75.3189" height="52.6716" rx="3.8815" stroke="#4C6CEF" stroke-width="0.791016"/>
<rect x="6.93579" y="28.9346" width="75.3189" height="52.6716" rx="3.8815" stroke="#F6F8F9" stroke-opacity="0.65" stroke-width="0.791016"/>
<g opacity="0.36" filter="url(#filter3_g_452_3256)">
<rect x="98.5122" y="17.7824" width="74.1604" height="51.6402" rx="4.14966" fill="#BD987A"/>
<rect x="98.6275" y="17.8977" width="73.9299" height="51.4097" rx="4.03439" stroke="#996D57" stroke-width="0.230537"/>
<rect x="98.6275" y="17.8977" width="73.9299" height="51.4097" rx="4.03439" stroke="#F6F8F9" stroke-opacity="0.55" stroke-width="0.230537"/>
</g>
<g clip-path="url(#clip3_452_3256)">
<rect x="97.1162" y="15.9239" width="74.1817" height="52.1082" rx="4.16865" fill="#996D57"/>
<rect x="97.1162" y="15.9239" width="74.1817" height="52.1082" rx="4.16865" fill="#F6F8F9" fill-opacity="0.975"/>
<ellipse cx="134.196" cy="42.2049" rx="33.8558" ry="33.8889" fill="#996D57"/>
<ellipse cx="134.196" cy="42.2049" rx="33.8558" ry="33.8889" fill="#F6F8F9" fill-opacity="0.9"/>
<ellipse cx="134.196" cy="42.2052" rx="23.0312" ry="23.0537" fill="#996D57"/>
<ellipse cx="134.196" cy="42.2052" rx="23.0312" ry="23.0537" fill="#F6F8F9" fill-opacity="0.8"/>
<path d="M152.02 47.9682C152.024 48.1378 152.027 48.308 152.027 48.4786C152.027 48.6013 152.027 48.7209 152.025 48.8438L152.027 48.8438L152.033 52.7733L152.076 81.6483L113.267 81.7061L113.218 48.9017L113.265 48.9016C113.233 48.4528 113.217 47.9998 113.216 47.5431C113.21 43.1383 114.668 39.0739 117.132 35.8118C112.642 34.6577 109.32 30.5819 109.313 25.7263C109.304 19.967 113.962 15.2911 119.716 15.2825C125.469 15.2739 130.141 19.9357 130.149 25.695C130.151 26.5909 130.039 27.4606 129.828 28.2905C130.731 28.1603 131.653 28.0922 132.592 28.0908C143.309 28.0747 152.009 36.758 152.025 47.4852C152.026 47.6467 152.024 47.8077 152.02 47.9682Z" fill="#3A3A3A"/>
<path d="M132.461 47.487C132.781 47.5877 133.111 47.6738 133.45 47.7442C133.725 47.8029 134.004 47.8498 134.291 47.8849C134.751 47.9464 135.225 47.9753 135.706 47.9746C138.76 47.97 141.425 46.7362 142.852 44.905C142.927 45.1969 143.013 45.4839 143.11 45.7656C143.163 45.9089 143.216 46.0576 143.277 46.2007C143.659 47.1644 144.168 48.0575 144.783 48.8543C145.639 49.9628 146.701 50.886 147.906 51.5596C147.365 55.4348 146.037 60.6467 142.916 62.7255C141.198 63.8692 138.075 64.0099 135.414 63.8562L134.803 71.4223C134.803 71.4223 130.485 69.536 128.012 68.1395C127.585 67.8998 127.215 67.6731 126.932 67.4725C126.979 67.027 127.085 65.99 127.221 64.6951V64.6899C127.465 62.3581 127.799 59.1873 128.017 57.0978C126.56 54.8858 122.59 54.3882 122.585 51.2773C122.585 50.3446 123.129 48.7318 125.138 48.7292C127.835 48.724 127.452 51.9599 127.452 51.9599C128.98 52.5553 130.8 50.2388 132.461 47.487Z" fill="#EAC7B2"/>
<path opacity="0.401344" fill-rule="evenodd" clip-rule="evenodd" d="M135.414 63.8559C135.414 63.8559 132.048 63.9554 130.614 63.1709L135.235 66.0754L135.414 63.8559Z" fill="#161616"/>
</g>
<rect x="97.5117" y="16.3194" width="73.3906" height="51.3171" rx="3.77314" stroke="#996D57" stroke-width="0.791016"/>
<rect x="97.5117" y="16.3194" width="73.3906" height="51.3171" rx="3.77314" stroke="#F6F8F9" stroke-opacity="0.65" stroke-width="0.791016"/>
<g opacity="0.36" filter="url(#filter4_g_452_3256)">
<rect x="28.8" y="98.8004" width="80.0884" height="55.7681" rx="4.48136" fill="#85AA45"/>
<rect x="28.9245" y="98.9249" width="79.8394" height="55.5191" rx="4.35688" stroke="#85AA45" stroke-width="0.248965"/>
<rect x="28.9245" y="98.9249" width="79.8394" height="55.5191" rx="4.35688" stroke="#F6F8F9" stroke-opacity="0.55" stroke-width="0.248965"/>
</g>
<g clip-path="url(#clip4_452_3256)">
<rect x="27.541" y="97.2914" width="80.1114" height="56.2734" rx="4.50187" fill="#85AA45"/>
<rect x="27.541" y="97.2914" width="80.1114" height="56.2734" rx="4.50187" fill="#F6F8F9" fill-opacity="0.975"/>
<ellipse cx="67.5855" cy="125.673" rx="36.5621" ry="36.5978" fill="#85AA45"/>
<ellipse cx="67.5855" cy="125.673" rx="36.5621" ry="36.5978" fill="#F6F8F9" fill-opacity="0.9"/>
<ellipse cx="67.5856" cy="125.674" rx="24.8722" ry="24.8965" fill="#85AA45"/>
<ellipse cx="67.5856" cy="125.674" rx="24.8722" ry="24.8965" fill="#F6F8F9" fill-opacity="0.8"/>
<path fill-rule="evenodd" clip-rule="evenodd" d="M80.77 123.978C80.77 128.012 78.1789 131.281 74.9827 131.281C71.7867 131.281 69.1956 128.012 69.1956 123.978C69.1956 119.944 71.7867 116.674 74.9827 116.674C78.1789 116.674 80.77 119.944 80.77 123.978Z" fill="#E49C34"/>
<path d="M67.0739 152.911L66.8317 144.523C66.8317 144.523 76.9925 145.334 79.1662 144.201C79.1662 144.201 81.8228 130.47 78.6543 122.866L78.5901 122.57L57.148 120.054L55.9459 132.398C55.2236 130.261 49.2625 127.837 47.7044 130.898C44.3276 137.529 56.4015 141.995 56.4015 141.995L55.1755 153.012" fill="#996D57"/>
<path opacity="0.398926" fill-rule="evenodd" clip-rule="evenodd" d="M66.8322 144.522L59.9805 143.049L66.7993 147.67L66.8322 144.522Z" fill="#161616"/>
<path d="M57.5382 134.505C55.5052 131.014 52.5638 129.949 51.2435 129.637C50.7169 128.11 50.3155 126.34 50.0334 124.456C49.277 119.416 52.9302 114.817 55.8809 113.496C58.8678 112.16 64.018 110.308 71.5565 112.822C76.6247 114.513 79.8642 110.464 82.8465 112.193C87.9427 115.149 83.2026 128.09 70.2803 124.803C61.0369 122.451 60.7993 123.041 60.7201 124.75C60.4638 130.276 59.605 133.526 57.5382 134.505Z" fill="#F6B852"/>
</g>
<rect x="27.9365" y="97.6869" width="79.3203" height="55.4824" rx="4.10636" stroke="#85AA45" stroke-width="0.791016"/>
<rect x="27.9365" y="97.6869" width="79.3203" height="55.4824" rx="4.10636" stroke="#F6F8F9" stroke-opacity="0.65" stroke-width="0.791016"/>
<g filter="url(#filter5_d_452_3256)">
<path fill-rule="evenodd" clip-rule="evenodd" d="M208.259 99.7708C207.396 106.527 203.464 110.282 202.586 116.582C201.457 124.684 206.194 124.224 205.267 130.873C204.787 134.319 234.876 145.323 244.491 135.186C250.662 128.68 245.211 127.334 246.525 117.902C247.826 108.565 241.201 106.576 241.887 101.654C242.799 95.1028 238.27 85.8805 229.688 84.6805C219.234 83.2192 209.564 89.5592 208.259 99.7708Z" fill="#3C4457"/>
<path fill-rule="evenodd" clip-rule="evenodd" d="M222.592 117.041C222.592 117.041 225.658 117.562 227.07 117.028L222.472 119.094L222.592 117.041Z" fill="#CF3E83"/>
<path d="M230.161 111.868C228.979 113.279 229.091 115.371 229.476 116.639C229.605 117.074 230.337 120.672 230.492 120.852C231.094 121.55 222.185 124.041 222.185 124.041L222.592 117.041C220.137 116.842 217.298 116.314 215.874 115.05C211.633 111.284 212.861 100.454 213.013 99.9246L217.546 96.082C217.546 96.082 223.84 94.1752 224.578 95.4621C225.927 97.8189 228.452 107.874 231.392 107.177C231.392 107.177 231.452 104.17 233.919 104.518C235.757 104.777 236.049 106.323 235.929 107.175C235.524 110.053 231.75 109.967 230.161 111.868Z" fill="#EAC7B2"/>
<path fill-rule="evenodd" clip-rule="evenodd" d="M217.403 88.9199C217.218 88.6737 217.021 88.4371 216.811 88.2111C216.262 88.6061 215.737 89.0329 215.242 89.4922C212.577 91.9581 210.722 95.3013 210.18 99.1467C210.166 99.2441 210.153 99.3391 210.142 99.4366L210.139 99.4364L209.7 102.552C209.821 102.564 209.94 102.572 210.062 102.577C212.443 102.675 214.677 101.814 216.33 100.311C216.943 99.7524 217.477 99.1049 217.91 98.3862C217.978 98.28 218.039 98.1681 218.1 98.0611C218.408 97.4895 218.654 96.8769 218.826 96.2317C225.948 108.387 231.392 107.177 231.392 107.177L231.138 101.118L237.59 95.2665C237.59 95.2665 221.371 86.5332 217.403 88.9199Z" fill="#3C4457"/>
<path fill-rule="evenodd" clip-rule="evenodd" d="M217.403 88.9199C217.218 88.6737 217.021 88.4371 216.811 88.2111C216.262 88.6061 215.737 89.0329 215.242 89.4922C212.577 91.9581 210.722 95.3013 210.18 99.1467C210.166 99.2441 210.153 99.3391 210.142 99.4366L210.139 99.4364L209.7 102.552C209.821 102.564 209.94 102.572 210.062 102.577C212.443 102.675 214.677 101.814 216.33 100.311C216.943 99.7524 217.477 99.1049 217.91 98.3862C217.978 98.28 218.039 98.1681 218.1 98.0611C218.408 97.4895 218.654 96.8769 218.826 96.2317C225.948 108.387 231.392 107.177 231.392 107.177L231.138 101.118L237.59 95.2665C237.59 95.2665 221.371 86.5332 217.403 88.9199Z" fill="#3C4457"/>
<path opacity="0.396996" fill-rule="evenodd" clip-rule="evenodd" d="M222.597 117.042C222.597 117.042 225.663 117.563 227.075 117.029L222.477 119.095L222.597 117.042Z" fill="#161616"/>
<path d="M203.131 287.593C203.131 287.593 192.121 290.482 187.982 294.779L207.796 294.815L207.257 287.467L203.131 287.593ZM230.117 294.71H244.065C241.012 288.7 236.592 287.612 236.592 287.612L230.742 287.318L230.117 294.71Z" fill="#3C4457"/>
<path d="M230.931 288.587L232.305 288.335C233.502 289.591 235.809 291.409 239.18 291.476C242.248 291.537 236.64 287.684 235.665 287.03L241.491 222.037L226.184 214.939L230.931 288.587ZM208.312 223.855C208.312 223.855 206.932 238.302 205.347 254.086C203.579 271.679 201.663 284.774 201.21 287.784L193.318 291.213C198.155 291.743 203.011 289.72 205.517 288.441H207.08L221.479 224.47L208.312 223.855Z" fill="#EAC7B2"/>
<path d="M235.877 156.092C235.877 156.092 239.957 158.045 243.508 168.645C248.259 182.832 249.652 225.803 249.652 225.803H203.897L215.688 156.4L235.877 156.092Z" fill="#3C4457"/>
<path fill-rule="evenodd" clip-rule="evenodd" d="M205.584 175.922C205.584 175.922 214.919 160.988 215.385 157.284C215.878 153.36 215.435 148.292 215.435 148.292L209.131 144.536L207.536 153.877L200.734 175.247" fill="#EAC7B2"/>
<path fill-rule="evenodd" clip-rule="evenodd" d="M255.645 175.069C255.645 175.069 255.94 153.423 254.567 149.859C253.193 146.294 250.706 141.515 250.706 141.515L243.331 146.45L247.287 152.862L250.013 174.73" fill="#EAC7B2"/>
<path fill-rule="evenodd" clip-rule="evenodd" d="M222.025 125.017L220.922 156.568L226.042 156.491L225.6 125.135L225.778 125.005L225.593 125.017C225.593 125.017 228.492 122.009 229.617 120.878C228.877 120.929 228.146 120.984 227.427 121.023C225.47 121.124 223.802 121.191 222.342 121.302C222.16 121.55 221.754 122.226 221.802 123.309C221.843 124.192 221.908 124.62 221.956 124.827C221.989 124.971 222.016 125.007 222.023 125.015L222.025 125.017Z" fill="#C83F49"/>
<path d="M234.617 138.051L239.301 145.155" stroke="#FF9929" stroke-width="0.721885"/>
<path d="M248.306 177.842C248.302 177.869 248.124 179.075 248.092 180.484C248.06 181.908 248.077 182.772 247.28 184.97C246.724 186.502 248.924 185.877 249.484 185.001C250.061 184.097 250.068 180.586 251.211 181.187C252.355 181.788 253.007 185.267 253.074 188.597C253.084 189.12 253.509 189.513 253.797 189.64C254.261 189.843 254.716 187.783 254.724 187.745C254.73 187.759 255.033 188.441 255.708 188.085C255.947 187.96 256.558 186.527 256.568 186.503C256.568 186.503 257.084 185.768 257.317 184.976C257.729 183.578 257.934 181.029 257.761 180.298C257.541 179.366 256.947 177.661 256.435 176.258L248.986 175.667L248.306 177.842ZM201.632 177.321C200.75 178.383 199.971 179.356 199.816 179.66C199.428 180.423 198.71 184.201 198.745 184.947C198.78 185.693 201.015 189.046 201.015 189.046C202.392 188.708 201.509 186.998 201.497 186.974C201.519 186.993 202.744 188.026 203.255 188.008C208.119 187.842 207.861 185.378 207.746 185.068C207.488 184.378 206.201 185.158 206.188 185.166C206.203 185.135 207.447 182.599 207.959 179.868L201.632 177.321ZM203.179 175.485L208.176 177.594C208.163 176.828 208.045 176.098 207.774 175.46C207.257 174.243 204.54 173.901 204.54 173.901C204.532 173.91 203.942 174.59 203.179 175.485ZM231.501 120.655C230.007 120.638 228.565 120.815 227.168 120.897C224.362 121.06 222.223 121.134 220.464 121.451C220.348 121.873 219.474 126.415 224.73 125.923C228.94 125.528 230.817 122.002 231.501 120.655Z" fill="#EAC7B2"/>
<path opacity="0.146601" d="M205.194 178.4C205.194 178.4 204.511 180.981 202.168 181.786C201.348 182.067 201.553 185.388 199.545 184.99" stroke="#161616" stroke-width="0.721885"/>
<path d="M199.668 176.53L210.64 180.948L211.273 178.902L200.487 174.35L199.668 176.53ZM244.616 175.321L256.747 176.283L256.784 174.081L244.616 173.025V175.321ZM218.974 156.688H229.884V123H218.974V156.688Z" fill="#3E5DE7"/>
<path d="M230.455 118.554C230.458 118.567 230.752 119.746 229.722 120.775C229.691 120.808 229.654 120.842 229.618 120.878C228.498 122.004 225.618 124.992 225.594 125.017L225.779 125.005L225.602 125.135L226.044 156.491L226.659 200.298L251.871 199.537L249.944 183.426C249.812 184.077 249.682 184.692 249.484 185.001C248.925 185.877 246.724 186.502 247.279 184.971C248.077 182.772 248.06 181.909 248.092 180.485C248.124 179.06 248.306 177.842 248.306 177.842L248.985 175.668L244.616 175.322V173.026L256.784 174.081V174.084L257.754 174.163C257.754 174.163 257.449 155.129 253.8 144.763C250.607 135.699 244.783 125.855 240.234 122.989C239.962 122.818 239.69 122.657 239.421 122.51L240.318 121.29L230.455 118.554ZM214.473 123.373L214.88 123.588H214.879C214.682 123.742 214.487 123.908 214.295 124.086C207.99 129.878 207.067 151.017 207.066 151.036L199.689 174.012L211.834 179.137L209.581 200.298H219.394L220.923 156.569L222.026 125.017L222.024 125.015C222.017 125.008 221.991 124.971 221.957 124.827C221.909 124.62 221.844 124.192 221.803 123.309C221.755 122.226 222.161 121.55 222.344 121.302C222.393 121.237 222.425 121.201 222.43 121.197L222.252 119.517L214.473 123.373Z" fill="#C83F49"/>
<path fill-rule="evenodd" clip-rule="evenodd" d="M222.024 125.014L221.956 124.827C221.99 124.971 222.017 125.007 222.024 125.014Z" fill="#C83F49"/>
<path opacity="0.20459" d="M240.317 121.289C240.317 121.289 237.07 125.456 233.36 126.197C229.85 126.898 225.593 125.016 225.593 125.016" stroke="#161616" stroke-width="0.721885"/>
<path opacity="0.20459" d="M214.472 123.375C214.472 123.375 214.758 125.443 216.107 125.962C218.472 126.869 221.553 124.86 221.553 124.86" stroke="#161616" stroke-width="0.721885"/>
<path opacity="0.201265" d="M211.827 179.18L214.569 139.844" stroke="#161616" stroke-width="0.721885"/>
<path opacity="0.201265" fill-rule="evenodd" clip-rule="evenodd" d="M217.579 141.64C217.604 142.468 218.178 143.122 218.861 143.101C219.544 143.08 220.077 142.393 220.052 141.566C220.027 140.738 219.454 140.084 218.771 140.105C218.088 140.125 217.554 140.813 217.579 141.64Z" fill="#161616"/>
<path opacity="0.201265" fill-rule="evenodd" clip-rule="evenodd" d="M218.195 130.605C218.22 131.432 218.794 132.087 219.477 132.066C220.16 132.045 220.693 131.358 220.668 130.531C220.643 129.703 220.07 129.049 219.387 129.07C218.704 129.09 218.17 129.778 218.195 130.605Z" fill="#161616"/>
<path opacity="0.201265" fill-rule="evenodd" clip-rule="evenodd" d="M216.963 152.675C216.988 153.503 217.562 154.157 218.245 154.136C218.928 154.115 219.461 153.428 219.436 152.601C219.411 151.773 218.838 151.119 218.155 151.14C217.472 151.161 216.938 151.848 216.963 152.675Z" fill="#161616"/>
<path opacity="0.196568" d="M234.616 136.548L239.3 150.579L241.385 172.668L244.615 173.026" stroke="#161616" stroke-width="0.721885"/>
<path opacity="0.201265" d="M241.046 169.061L254.947 170.286" stroke="#161616" stroke-width="0.721885"/>
<path opacity="0.201265" d="M211.827 175.922L202.972 171.915" stroke="#161616" stroke-width="0.721885"/>
</g>
</g>
<defs>
<filter id="filter0_n_452_3256" x="0" y="0" width="300" height="300" filterUnits="userSpaceOnUse" color-interpolation-filters="sRGB">
<feFlood flood-opacity="0" result="BackgroundImageFix"/>
<feBlend mode="normal" in="SourceGraphic" in2="BackgroundImageFix" result="shape"/>
<feTurbulence type="fractalNoise" baseFrequency="3.4133334159851074 3.4133334159851074" stitchTiles="stitch" numOctaves="3" result="noise" seed="1493" />
<feColorMatrix in="noise" type="luminanceToAlpha" result="alphaNoise" />
<feComponentTransfer in="alphaNoise" result="coloredNoise1">
<feFuncA type="discrete" tableValues="0 0 0 0 0 0 1 1 1 1 1 1 1 1 1 1 1 1 1 1 1 1 1 1 1 1 1 1 1 1 1 1 1 1 1 1 1 1 1 1 1 1 1 1 0 0 0 0 0 0 0 0 0 0 0 0 0 0 0 0 0 0 0 0 0 0 0 0 0 0 0 0 0 0 0 0 0 0 0 0 0 0 0 0 0 0 0 0 0 0 0 0 0 0 0 0 0 0 0 0 "/>
</feComponentTransfer>
<feComposite operator="in" in2="shape" in="coloredNoise1" result="noise1Clipped" />
<feFlood flood-color="rgba(131, 131, 131, 0.1)" result="color1Flood" />
<feComposite operator="in" in2="noise1Clipped" in="color1Flood" result="color1" />
<feMerge result="effect1_noise_452_3256">
<feMergeNode in="shape" />
<feMergeNode in="color1" />
</feMerge>
</filter>
<filter id="filter1_g_452_3256" x="119.216" y="79.8925" width="69.7345" height="50.3842" filterUnits="userSpaceOnUse" color-interpolation-filters="sRGB">
<feFlood flood-opacity="0" result="BackgroundImageFix"/>
<feBlend mode="normal" in="SourceGraphic" in2="BackgroundImageFix" result="shape"/>
<feTurbulence type="fractalNoise" baseFrequency="9.5130701065063477 9.5130701065063477" numOctaves="3" seed="4561" />
<feDisplacementMap in="shape" scale="6.0127806663513184" xChannelSelector="R" yChannelSelector="G" result="displacedImage" width="100%" height="100%" />
<feMerge result="effect1_texture_452_3256">
<feMergeNode in="displacedImage"/>
</feMerge>
</filter>
<filter id="filter2_g_452_3256" x="4.38282" y="26.8561" width="83.2678" height="60.1622" filterUnits="userSpaceOnUse" color-interpolation-filters="sRGB">
<feFlood flood-opacity="0" result="BackgroundImageFix"/>
<feBlend mode="normal" in="SourceGraphic" in2="BackgroundImageFix" result="shape"/>
<feTurbulence type="fractalNoise" baseFrequency="7.9669370651245117 7.9669370651245117" numOctaves="3" seed="4561" />
<feDisplacementMap in="shape" scale="7.1796727180480957" xChannelSelector="R" yChannelSelector="G" result="displacedImage" width="100%" height="100%" />
<feMerge result="effect1_texture_452_3256">
<feMergeNode in="displacedImage"/>
</feMerge>
</filter>
<filter id="filter3_g_452_3256" x="95.0133" y="14.2835" width="81.1582" height="58.638" filterUnits="userSpaceOnUse" color-interpolation-filters="sRGB">
<feFlood flood-opacity="0" result="BackgroundImageFix"/>
<feBlend mode="normal" in="SourceGraphic" in2="BackgroundImageFix" result="shape"/>
<feTurbulence type="fractalNoise" baseFrequency="8.1740264892578125 8.1740264892578125" numOctaves="3" seed="4561" />
<feDisplacementMap in="shape" scale="6.9977755546569824" xChannelSelector="R" yChannelSelector="G" result="displacedImage" width="100%" height="100%" />
<feMerge result="effect1_texture_452_3256">
<feMergeNode in="displacedImage"/>
</feMerge>
</filter>
<filter id="filter4_g_452_3256" x="25.0215" y="95.0218" width="87.6455" height="63.3252" filterUnits="userSpaceOnUse" color-interpolation-filters="sRGB">
<feFlood flood-opacity="0" result="BackgroundImageFix"/>
<feBlend mode="normal" in="SourceGraphic" in2="BackgroundImageFix" result="shape"/>
<feTurbulence type="fractalNoise" baseFrequency="7.5689997673034668 7.5689997673034668" numOctaves="3" seed="4561" />
<feDisplacementMap in="shape" scale="7.5571408271789551" xChannelSelector="R" yChannelSelector="G" result="displacedImage" width="100%" height="100%" />
<feMerge result="effect1_texture_452_3256">
<feMergeNode in="displacedImage"/>
</feMerge>
</filter>
<filter id="filter5_d_452_3256" x="144.358" y="69.9883" width="141.268" height="233.577" filterUnits="userSpaceOnUse" color-interpolation-filters="sRGB">
<feFlood flood-opacity="0" result="BackgroundImageFix"/>
<feColorMatrix in="SourceAlpha" type="matrix" values="0 0 0 0 0 0 0 0 0 0 0 0 0 0 0 0 0 0 127 0" result="hardAlpha"/>
<feOffset dx="0.878906" dy="1.17188"/>
<feComposite in2="hardAlpha" operator="out"/>
<feColorMatrix type="matrix" values="0 0 0 0 0.964706 0 0 0 0 0.972549 0 0 0 0 0.976471 0 0 0 0.55 0"/>
<feBlend mode="normal" in2="BackgroundImageFix" result="effect1_dropShadow_452_3256"/>
<feBlend mode="normal" in="SourceGraphic" in2="effect1_dropShadow_452_3256" result="shape"/>
</filter>
<clipPath id="clip0_452_3256">
<rect width="300" height="300" fill="white"/>
</clipPath>
<clipPath id="clip1_452_3256">
<rect x="121.041" y="81.6982" width="63.74" height="44.7735" rx="3.58188" fill="white"/>
</clipPath>
<clipPath id="clip2_452_3256">
<rect x="6.54028" y="28.5391" width="76.1099" height="53.4626" rx="4.27701" fill="white"/>
</clipPath>
<clipPath id="clip3_452_3256">
<rect x="97.1162" y="15.9239" width="74.1817" height="52.1082" rx="4.16865" fill="white"/>
</clipPath>
<clipPath id="clip4_452_3256">
<rect x="27.541" y="97.2914" width="80.1114" height="56.2734" rx="4.50187" fill="white"/>
</clipPath>
</defs>
</svg>
