<svg width="1360" height="1360" viewBox="0 0 1360 1360" fill="none" xmlns="http://www.w3.org/2000/svg">
<rect width="1360" height="1360" fill="white"/>
<path fill-rule="evenodd" clip-rule="evenodd" d="M1337.74 777.341C1314.34 1040.88 1069.7 1191.72 819.785 1255.41C551.215 1323.85 230.628 1339.1 81.0178 1097.62C-74.4867 846.621 41.0065 528.547 235.492 312.31C408.596 119.845 677.935 68.3709 916.288 168.93C1163.91 273.399 1361.92 505.148 1337.74 777.341Z" fill="#F9F9FE"/>
<path fill-rule="evenodd" clip-rule="evenodd" d="M1337.74 777.341C1314.34 1040.88 1069.7 1191.72 819.785 1255.41C551.215 1323.85 230.628 1339.1 81.0178 1097.62C-74.4867 846.621 41.0065 528.547 235.492 312.31C408.596 119.845 677.935 68.3709 916.288 168.93C1163.91 273.399 1361.92 505.148 1337.74 777.341Z" fill="url(#paint0_linear_2178_2257)" fill-opacity="0.2"/>
<path fill-rule="evenodd" clip-rule="evenodd" d="M1164.09 1091C1068.71 1169.79 944.911 1223.52 819.784 1255.41C551.213 1323.85 230.626 1339.1 81.0164 1097.62C79.6529 1095.42 78.3102 1093.21 76.9883 1091L1164.09 1091Z" fill="#ECECFD"/>
<path fill-rule="evenodd" clip-rule="evenodd" d="M704.734 1198.89H711.659L754.213 915.393H730.266L704.734 1198.89Z" fill="#A0A0F7"/>
<path fill-rule="evenodd" clip-rule="evenodd" d="M825.965 1198.89H832.89L875.443 915.393H851.497L825.965 1198.89Z" fill="#A0A0F7"/>
<path fill-rule="evenodd" clip-rule="evenodd" d="M995.83 808.169H1099.35L1075.06 888.251H971.54L995.83 808.169Z" fill="#E3E3FD"/>
<path fill-rule="evenodd" clip-rule="evenodd" d="M1092.07 813.32L1071.33 881.697H978.688L999.425 813.32H1092.07Z" fill="white"/>
<path fill-rule="evenodd" clip-rule="evenodd" d="M1075.16 834.366L1074.17 837.635H998.126L999.113 834.366H1075.16Z" fill="#A0A0F7"/>
<path fill-rule="evenodd" clip-rule="evenodd" d="M1070.3 841.026L1069.32 844.295H995.762L996.749 841.026H1070.3Z" fill="#A0A0F7"/>
<path fill-rule="evenodd" clip-rule="evenodd" d="M1047.26 847.685L1046.28 850.955H993.465L994.452 847.685H1047.26Z" fill="#A0A0F7"/>
<path fill-rule="evenodd" clip-rule="evenodd" d="M895.842 894.836H999.365V888.25H895.842V894.836Z" fill="#E3E3FD"/>
<path fill-rule="evenodd" clip-rule="evenodd" d="M999.362 894.836H1075.02V888.25H999.362V894.836Z" fill="#ECECFE"/>
<path fill-rule="evenodd" clip-rule="evenodd" d="M1099.27 808.169H1105.63L1081.34 888.251H1074.98L1099.27 808.169Z" fill="#ECECFE"/>
<path fill-rule="evenodd" clip-rule="evenodd" d="M676.746 915.394H1067.81V894.838H676.746V915.394Z" fill="#A0A0F7"/>
<path fill-rule="evenodd" clip-rule="evenodd" d="M1039.53 915.394H1192.1V894.838H1039.53V915.394Z" fill="#E3E3FD"/>
<path fill-rule="evenodd" clip-rule="evenodd" d="M1172.74 1198.89H1179.66L1154.13 915.393H1130.18L1172.74 1198.89Z" fill="#E3E3FD"/>
<path fill-rule="evenodd" clip-rule="evenodd" d="M1051.04 1198.89H1057.96L1032.43 915.393H1008.48L1051.04 1198.89Z" fill="#E3E3FD"/>
<path fill-rule="evenodd" clip-rule="evenodd" d="M1078.95 821.447L1077.97 824.717H1001.92L1002.91 821.447H1078.95Z" fill="#A0A0F7"/>
<path fill-rule="evenodd" clip-rule="evenodd" d="M1068.84 828.107L1067.85 831.377H1000.1L1001.09 828.107H1068.84Z" fill="#A0A0F7"/>
<path fill-rule="evenodd" clip-rule="evenodd" d="M1053.01 812.462L1040.07 814.028L1039.03 812.401L1039.72 810.917L1038.73 809.736L1050.82 808.169L1052.64 809.259L1051.12 810.787L1053.01 812.462Z" fill="#A0A0F7"/>
<path fill-rule="evenodd" clip-rule="evenodd" d="M961.268 1215.35C961.268 1223.54 967.911 1230.19 976.107 1230.19C984.302 1230.19 990.945 1223.54 990.945 1215.35C990.945 1207.15 984.302 1200.51 976.107 1200.51C967.911 1200.51 961.268 1207.15 961.268 1215.35Z" fill="#A0A0F7"/>
<path fill-rule="evenodd" clip-rule="evenodd" d="M850.268 1215.35C850.268 1223.54 856.912 1230.19 865.108 1230.19C873.303 1230.19 879.946 1223.54 879.946 1215.35C879.946 1207.15 873.303 1200.51 865.108 1200.51C856.912 1200.51 850.268 1207.15 850.268 1215.35Z" fill="#A0A0F7"/>
<path fill-rule="evenodd" clip-rule="evenodd" d="M994.35 1033.74H846.352V1017.65H994.35V1033.74Z" fill="#E3E3FD"/>
<path fill-rule="evenodd" clip-rule="evenodd" d="M826.833 1033.74H895.757L908.522 951.185V887.486C908.522 856.464 883.375 831.316 852.352 831.316C821.33 831.316 796.182 856.464 796.182 887.486V951.185L789.389 990.734C786.232 1013.46 803.887 1033.74 826.833 1033.74Z" fill="#E3E3FD"/>
<path fill-rule="evenodd" clip-rule="evenodd" d="M896.436 1028.63H939.849C917.04 1028.63 899.449 1008.59 902.35 986.028L896.436 1028.63Z" fill="#E3E3FD"/>
<path fill-rule="evenodd" clip-rule="evenodd" d="M874.415 886.579C874.415 897.915 865.223 907.106 853.887 907.106C853.326 907.106 852.764 907.081 852.219 907.038C851.784 907.004 851.359 906.953 850.933 906.885C841.001 905.464 833.368 896.911 833.368 886.579C833.368 876.255 841.001 867.702 850.933 866.281C851.359 866.213 851.784 866.162 852.219 866.128C852.764 866.085 853.326 866.06 853.887 866.06C865.223 866.06 874.415 875.251 874.415 886.579Z" fill="#A0A0F7"/>
<path fill-rule="evenodd" clip-rule="evenodd" d="M868.482 886.579C868.482 896.902 860.857 905.447 850.933 906.885C841.002 905.464 833.368 896.91 833.368 886.579C833.368 876.255 841.002 867.702 850.933 866.281C860.857 867.719 868.482 876.264 868.482 886.579Z" fill="white"/>
<path fill-rule="evenodd" clip-rule="evenodd" d="M825.861 1218.32H972.506C978.122 1218.32 982.719 1213.73 982.719 1208.11C982.719 1202.49 978.122 1197.9 972.506 1197.9H825.861C820.243 1197.9 815.648 1202.49 815.648 1208.11C815.648 1213.73 820.243 1218.32 825.861 1218.32Z" fill="#CACAFB"/>
<path fill-rule="evenodd" clip-rule="evenodd" d="M903.831 1213.47H894.535V1033.74H903.831V1213.47Z" fill="#CACAFB"/>
<path fill-rule="evenodd" clip-rule="evenodd" d="M847.617 1033.74L899.183 1057.22L950.749 1033.74H847.617Z" fill="#CACAFB"/>
<path fill-rule="evenodd" clip-rule="evenodd" d="M905.447 1218.32H924.475C930.093 1218.32 934.688 1213.73 934.688 1208.11C934.688 1202.49 930.093 1197.9 924.475 1197.9H905.447C899.829 1197.9 895.234 1202.49 895.234 1208.11C895.234 1213.73 899.829 1218.32 905.447 1218.32Z" fill="#A0A0F7"/>
<path fill-rule="evenodd" clip-rule="evenodd" d="M917.928 1215.35C917.928 1223.54 924.572 1230.19 932.768 1230.19C940.963 1230.19 947.606 1223.54 947.606 1215.35C947.606 1207.15 940.963 1200.51 932.768 1200.51C924.572 1200.51 917.928 1207.15 917.928 1215.35Z" fill="#A0A0F7"/>
<path fill-rule="evenodd" clip-rule="evenodd" d="M806.439 1215.35C806.439 1223.54 813.083 1230.19 821.279 1230.19C829.474 1230.19 836.117 1223.54 836.117 1215.35C836.117 1207.15 829.474 1200.51 821.279 1200.51C813.083 1200.51 806.439 1207.15 806.439 1215.35Z" fill="#A0A0F7"/>
<path fill-rule="evenodd" clip-rule="evenodd" d="M869.37 1020.12H988.042C995.671 1020.12 1001.86 1013.94 1001.86 1006.31V1006.31C1001.86 998.68 995.671 992.496 988.042 992.496H869.37C861.741 992.496 855.557 998.68 855.557 1006.31V1006.31C855.557 1013.94 861.741 1020.12 869.37 1020.12Z" fill="#CACAFB"/>
<path fill-rule="evenodd" clip-rule="evenodd" d="M821.674 1020.12H892.284C899.913 1020.12 906.097 1013.94 906.097 1006.31V1006.31C906.097 998.68 899.913 992.496 892.284 992.496H821.674C814.045 992.496 807.86 998.68 807.86 1006.31V1006.31C807.86 1013.94 814.045 1020.12 821.674 1020.12Z" fill="#A0A0F7"/>
<path fill-rule="evenodd" clip-rule="evenodd" d="M363.672 533.325C370.844 555.44 386.421 565.546 393.353 586.119C402.268 612.581 386.075 614.039 393.391 635.754C397.183 647.007 303.121 702.97 264.424 675.054C239.592 657.141 257.042 649.175 246.663 618.368C236.388 587.872 257.376 577.009 251.959 560.931C244.751 539.536 254.124 505.735 282.181 496.276C316.355 484.756 352.833 499.899 363.672 533.325Z" fill="#3A3A3A"/>
<path fill-rule="evenodd" clip-rule="evenodd" d="M326.474 600.327C326.474 600.327 316.51 604.017 311.43 603.119L328.173 607.138L326.474 600.327Z" fill="#CF3E83"/>
<path d="M297.788 587.769C302.651 591.753 303.598 598.842 303.107 603.336C302.948 604.877 302.766 617.41 302.36 618.111C300.78 620.834 332.269 623.548 332.269 623.548L326.475 600.328C334.589 598.105 343.789 594.536 347.77 589.395C359.627 574.08 348.653 538.529 347.808 536.85L330.158 526.832C330.158 526.832 307.821 524.421 306.158 529.205C303.118 537.964 301.002 573.29 290.69 572.815C290.69 572.815 288.584 562.764 280.521 565.494C274.515 567.528 274.512 572.898 275.454 575.681C278.636 585.076 291.251 582.398 297.788 587.769Z" fill="#EAC7B2"/>
<path fill-rule="evenodd" clip-rule="evenodd" d="M326.108 502.718C326.572 501.775 327.086 500.856 327.648 499.965C329.74 500.943 331.772 502.042 333.726 503.269C344.233 509.853 352.575 519.892 356.827 532.448C356.935 532.765 357.04 533.076 357.14 533.396L357.148 533.393L360.593 543.566C360.195 543.684 359.799 543.784 359.393 543.88C351.462 545.714 343.417 544.24 336.916 540.245C334.505 538.761 332.303 536.927 330.393 534.791C330.098 534.478 329.821 534.141 329.548 533.821C328.153 532.099 326.941 530.199 325.954 528.144C309.73 573.427 290.689 572.814 290.689 572.814L287.709 552.329L262.344 536.787C262.344 536.787 311.277 497.224 326.108 502.718Z" fill="#3A3A3A"/>
<path fill-rule="evenodd" clip-rule="evenodd" d="M326.108 502.718C326.572 501.775 327.086 500.856 327.648 499.965C329.74 500.943 331.772 502.042 333.726 503.269C344.233 509.853 352.575 519.892 356.827 532.448C356.935 532.765 357.04 533.076 357.14 533.396L357.148 533.393L360.593 543.566C360.195 543.684 359.799 543.784 359.393 543.88C351.462 545.714 343.417 544.24 336.916 540.245C334.505 538.761 332.303 536.927 330.393 534.791C330.098 534.478 329.821 534.141 329.548 533.821C328.153 532.099 326.941 530.199 325.954 528.144C309.73 573.427 290.689 572.814 290.689 572.814L287.709 552.329L262.344 536.787C262.344 536.787 311.277 497.224 326.108 502.718Z" fill="#3A3A3A"/>
<path opacity="0.396996" fill-rule="evenodd" clip-rule="evenodd" d="M326.458 600.332C326.458 600.332 316.494 604.021 311.414 603.124L328.158 607.143L326.458 600.332Z" fill="#161616"/>
<path fill-rule="evenodd" clip-rule="evenodd" d="M301.258 1187.69L281.271 1188.69C281.271 1188.69 266.171 1192.41 255.74 1212.92H303.395L301.258 1187.69ZM447.358 1213.16C433.216 1198.49 395.597 1188.63 395.597 1188.63L381.499 1188.2L379.657 1213.28L447.358 1213.16Z" fill="#3A3A3A"/>
<path fill-rule="evenodd" clip-rule="evenodd" d="M272.43 1201.88C283.947 1201.66 291.831 1195.45 295.921 1191.16L300.615 1192.02L316.834 940.636L264.533 964.867L284.438 1186.7C281.109 1188.94 261.947 1202.09 272.43 1201.88ZM429.125 1200.99L402.16 1189.28C400.613 1179.01 394.067 1134.31 388.028 1074.26C382.611 1020.38 377.895 971.071 377.895 971.071L332.91 973.171L382.104 1191.52H387.446C396.006 1195.89 412.6 1202.8 429.125 1200.99Z" fill="#EAC7B2"/>
<path d="M283.715 739.773C283.715 739.773 269.775 746.439 257.644 782.619C241.409 831.044 236.652 977.721 236.652 977.721H392.98L352.694 740.824L283.715 739.773Z" fill="#6A6AF4"/>
<path fill-rule="evenodd" clip-rule="evenodd" d="M387.219 807.458C387.219 807.458 355.323 756.485 353.731 743.842C352.045 730.447 353.559 713.149 353.559 713.149L375.097 700.328L380.547 732.211L403.788 805.156" fill="#EAC7B2"/>
<path fill-rule="evenodd" clip-rule="evenodd" d="M216.175 804.547C216.175 804.547 215.166 730.664 219.86 718.496C224.554 706.329 233.05 690.016 233.05 690.016L258.246 706.862L244.732 728.747L235.417 803.39" fill="#EAC7B2"/>
<path fill-rule="evenodd" clip-rule="evenodd" d="M331.042 633.703L334.812 741.398L317.317 741.135L318.828 634.106L318.221 633.662L318.853 633.703C318.853 633.703 308.948 623.437 305.104 619.576C307.633 619.749 310.13 619.938 312.586 620.069C319.272 620.414 324.972 620.644 329.958 621.022C330.582 621.868 331.97 624.176 331.806 627.872C331.666 630.886 331.444 632.348 331.28 633.055C331.165 633.547 331.074 633.671 331.05 633.695L331.042 633.703Z" fill="#E43E42"/>
<path d="M288.021 678.192L272.016 702.442" stroke="#FF9929" stroke-width="2.46403"/>
<path fill-rule="evenodd" clip-rule="evenodd" d="M321.8 636.798C307.416 635.448 301.005 623.413 298.665 618.814C302.152 618.775 305.554 619.044 308.88 619.308C310.426 619.431 311.956 619.552 313.471 619.64C315.054 619.732 316.576 619.816 318.04 619.896L318.04 619.896C325.439 620.303 331.361 620.629 336.376 621.531C336.776 622.972 339.758 638.476 321.8 636.798ZM378.361 813.166L395.435 805.967C392.813 802.894 390.785 800.56 390.785 800.56C390.785 800.56 381.502 801.727 379.736 805.882C378.81 808.059 378.405 810.549 378.361 813.166ZM406.924 820.218C406.396 819.182 403.733 815.859 400.718 812.232L379.099 820.928C380.862 830.311 385.153 839.015 385.153 839.015C385.153 839.015 380.715 836.308 379.832 838.675C379.44 839.729 378.548 848.146 395.173 848.713C396.938 848.773 401.184 845.183 401.184 845.183C401.184 845.183 398.088 851.094 402.828 852.256C402.828 852.256 410.468 840.809 410.585 838.262C410.702 835.715 408.25 822.823 406.924 820.218ZM241.25 814.012L238.929 806.59L213.477 808.607C211.727 813.394 209.697 819.211 208.944 822.395C208.354 824.887 209.056 833.591 210.464 838.365C211.261 841.068 213.023 843.575 213.023 843.575C213.023 843.575 215.138 848.544 215.961 848.977C218.291 850.203 219.32 847.812 219.32 847.812C219.32 847.812 220.89 854.987 222.489 854.285C223.476 853.852 224.925 852.511 224.96 850.724C225.188 839.356 227.415 827.479 231.322 825.429C233.831 824.112 234.739 828.581 235.589 832.766C236.063 835.099 236.519 837.344 237.224 838.448C239.135 841.44 246.656 843.572 244.757 838.342C242.155 831.176 242.091 828.166 241.996 823.676C241.991 823.464 241.987 823.249 241.982 823.03C241.872 818.169 241.25 814.012 241.25 814.012Z" fill="#EAC7B2"/>
<path opacity="0.146601" d="M388.551 815.916C388.551 815.916 390.884 824.728 398.89 827.474C401.689 828.434 400.99 839.769 407.852 838.413" stroke="#161616" stroke-width="2.46403"/>
<path fill-rule="evenodd" clip-rule="evenodd" d="M304.191 741.807V626.819H341.468V741.807H304.191ZM367.778 817.632L404.633 802.092L407.429 809.535L369.942 824.614L367.778 817.632ZM253.858 797.573L212.284 801.174L212.412 808.693L253.858 805.408V797.573Z" fill="#FCBDA4"/>
<path fill-rule="evenodd" clip-rule="evenodd" d="M238.929 806.592L253.856 805.409V797.574L212.282 801.175L212.282 801.185L208.97 801.455C208.97 801.455 210.014 736.487 222.481 701.103C233.389 670.163 253.289 636.562 268.829 626.78C269.758 626.197 270.686 625.647 271.606 625.146L268.543 620.981L302.242 611.643C302.242 611.643 301.208 615.692 304.747 619.224C304.816 619.298 304.891 619.372 304.969 619.448C305.012 619.49 305.056 619.533 305.1 619.577C308.945 623.437 318.85 633.704 318.85 633.704L318.218 633.663L318.825 634.106L317.313 741.136L315.211 890.661L229.069 888.066L235.652 833.074C236.104 835.295 236.55 837.394 237.225 838.45C239.135 841.442 246.656 843.574 244.757 838.344C242.156 831.178 242.092 828.168 241.996 823.678C241.992 823.466 241.987 823.251 241.982 823.032C241.872 818.17 241.25 814.014 241.25 814.014L238.929 806.592ZM365.864 818.432L373.56 890.661H340.033L334.808 741.399L351.466 741.642L334.808 741.399L331.039 633.704L331.046 633.696C331.072 633.671 331.162 633.548 331.277 633.055C331.442 632.349 331.662 630.887 331.803 627.872C331.966 624.176 330.579 621.868 329.955 621.022C329.774 620.784 329.659 620.661 329.659 620.661L330.267 614.928L356.846 628.094L355.458 628.825L350.546 631.432L355.458 628.825C356.131 629.351 356.796 629.918 357.453 630.526C379.005 650.303 382.152 722.516 382.152 722.516L407.358 800.938L365.864 818.432ZM349.052 660.546L357.1 736.127L349.052 660.546L343.722 632.423L349.857 631.799L343.722 632.423L349.052 660.546Z" fill="#E43E42"/>
<path fill-rule="evenodd" clip-rule="evenodd" d="M331.048 633.694L331.278 633.054C331.163 633.546 331.072 633.67 331.048 633.694Z" fill="#E43E42"/>
<path opacity="0.20459" d="M268.545 620.978C268.545 620.978 279.641 635.203 292.315 637.73C304.308 640.122 318.854 633.701 318.854 633.701" stroke="#161616" stroke-width="2.46403"/>
<path opacity="0.20459" d="M356.848 628.098C356.848 628.098 355.873 635.158 351.263 636.927C343.184 640.026 332.657 633.167 332.657 633.167" stroke="#161616" stroke-width="2.46403"/>
<path opacity="0.201265" d="M365.886 818.58L356.519 684.312" stroke="#161616" stroke-width="2.46403"/>
<path opacity="0.201265" fill-rule="evenodd" clip-rule="evenodd" d="M346.233 690.444C346.147 693.268 344.187 695.5 341.854 695.43C339.521 695.36 337.698 693.013 337.784 690.189C337.869 687.365 339.829 685.133 342.162 685.204C344.495 685.273 346.318 687.62 346.233 690.444Z" fill="#161616"/>
<path opacity="0.201265" fill-rule="evenodd" clip-rule="evenodd" d="M344.128 652.778C344.043 655.601 342.083 657.834 339.75 657.764C337.417 657.693 335.594 655.347 335.68 652.523C335.764 649.699 337.725 647.467 340.058 647.537C342.392 647.607 344.213 649.954 344.128 652.778Z" fill="#161616"/>
<path opacity="0.201265" fill-rule="evenodd" clip-rule="evenodd" d="M348.337 728.11C348.252 730.934 346.292 733.166 343.958 733.097C341.626 733.026 339.803 730.679 339.889 727.856C339.973 725.032 341.934 722.799 344.266 722.87C346.6 722.94 348.422 725.286 348.337 728.11Z" fill="#161616"/>
<path opacity="0.196568" d="M288.024 673.062L272.018 720.956L264.896 796.351L253.859 797.572" stroke="#161616" stroke-width="2.46403"/>
<path opacity="0.201265" d="M266.057 784.041L218.562 788.222" stroke="#161616" stroke-width="2.46403"/>
<path opacity="0.201265" d="M365.887 807.458L396.142 793.783" stroke="#161616" stroke-width="2.46403"/>
<rect x="502" y="403" width="322" height="224" rx="18" fill="#BD987A"/>
<g clip-path="url(#clip0_2178_2257)">
<rect x="497" y="396" width="322.092" height="226.03" rx="18.0824" fill="white"/>
<rect x="497" y="396" width="322.092" height="226.03" rx="18.0824" fill="#BE9A7F" fill-opacity="0.2"/>
<rect x="497" y="396" width="322.092" height="227.16" fill="#CACAFB" fill-opacity="0.15"/>
<circle cx="658" cy="510" r="147" fill="#E7DEDD"/>
<circle cx="658" cy="510" r="100" fill="#E3D7D3"/>
<path d="M573.761 534.998C573.743 535.734 573.733 536.472 573.732 537.212C573.731 537.744 573.731 538.263 573.742 538.797L573.73 538.797L573.704 555.842L573.518 681.092L742.025 681.343L742.238 539.047L742.034 539.047C742.172 537.1 742.243 535.135 742.246 533.154C742.274 514.048 735.94 496.417 725.243 482.267C744.74 477.261 759.162 459.582 759.193 438.519C759.231 413.537 739.009 393.255 714.026 393.217C689.044 393.18 668.761 413.402 668.724 438.384C668.718 442.27 669.202 446.042 670.119 449.642C666.199 449.078 662.192 448.782 658.118 448.776C611.586 448.706 573.809 486.372 573.739 532.903C573.737 533.604 573.745 534.302 573.761 534.998Z" fill="#3A3A3A"/>
<path d="M658.683 532.913C657.294 533.349 655.861 533.723 654.389 534.028C653.197 534.283 651.984 534.486 650.74 534.639C648.743 534.905 646.683 535.031 644.593 535.027C631.333 535.008 619.762 529.656 613.567 521.713C613.242 522.979 612.867 524.224 612.446 525.446C612.217 526.067 611.988 526.712 611.723 527.333C610.063 531.513 607.851 535.387 605.184 538.843C601.467 543.652 596.857 547.656 591.624 550.578C593.974 567.388 599.736 589.995 613.29 599.013C620.749 603.974 634.31 604.584 645.86 603.917L648.516 636.737C648.516 636.737 667.265 628.555 678.002 622.497C679.855 621.457 681.46 620.474 682.692 619.604C682.489 617.671 682.025 613.173 681.437 607.556V607.534C680.375 597.419 678.929 583.665 677.979 574.601C684.308 565.006 701.543 562.848 701.565 549.354C701.565 545.308 699.203 538.312 690.479 538.301C678.77 538.278 680.432 552.315 680.432 552.315C673.799 554.897 665.898 544.849 658.683 532.913Z" fill="#EAC7B2"/>
<path opacity="0.401344" fill-rule="evenodd" clip-rule="evenodd" d="M645.865 603.915C645.865 603.915 660.478 604.347 666.707 600.944L646.641 613.543L645.865 603.915Z" fill="#161616"/>
</g>
<rect x="498.5" y="397.5" width="319.092" height="223.03" rx="16.5824" stroke="#BD987A" stroke-width="3"/>
<rect x="909" y="365" width="322" height="224" rx="18" fill="#00A95F"/>
<g clip-path="url(#clip1_2178_2257)">
<rect x="905" y="360" width="322.092" height="226.03" rx="18.0824" fill="white"/>
<rect x="905" y="360" width="322.092" height="226.03" rx="18.0824" fill="#00A95F" fill-opacity="0.2"/>
<rect x="905" y="360" width="322.092" height="227.16" fill="#CACAFB" fill-opacity="0.15"/>
<circle cx="1066" cy="474" r="147" fill="#B8E3D6"/>
<circle cx="1066" cy="474" r="100" fill="#A6DDCA"/>
<path fill-rule="evenodd" clip-rule="evenodd" d="M1002.48 467.19C1002.48 483.392 1012.89 496.526 1025.74 496.526C1038.59 496.526 1049.01 483.392 1049.01 467.19C1049.01 450.988 1038.59 437.855 1025.74 437.855C1012.89 437.855 1002.48 450.988 1002.48 467.19Z" fill="#E49C34"/>
<path d="M1057.54 583.403L1058.51 549.709C1058.51 549.709 1017.66 552.969 1008.92 548.419C1008.92 548.419 998.24 493.266 1010.98 462.724L1011.24 461.535L1097.45 451.428L1102.28 501.009C1105.18 492.424 1129.15 482.69 1135.42 494.983C1148.99 521.621 1100.45 539.557 1100.45 539.557L1105.38 583.807" fill="#845D48"/>
<path opacity="0.398926" fill-rule="evenodd" clip-rule="evenodd" d="M1058.51 549.708L1086.06 543.789L1058.64 562.349L1058.51 549.708Z" fill="#161616"/>
<path d="M1095.88 509.471C1104.05 495.45 1115.88 491.174 1121.19 489.92C1123.3 483.788 1124.92 476.675 1126.05 469.11C1129.09 448.864 1114.41 430.393 1102.54 425.088C1090.53 419.721 1069.83 412.282 1039.52 422.379C1019.14 429.172 1006.12 412.909 994.125 419.855C973.635 431.728 992.693 483.706 1044.65 470.502C1081.81 461.056 1082.77 463.425 1083.09 470.291C1084.12 492.484 1087.57 505.541 1095.88 509.471Z" fill="#F6B852"/>
</g>
<rect x="906.5" y="361.5" width="319.092" height="223.03" rx="16.5824" stroke="#00A95F" stroke-width="3"/>
<rect x="862" y="61" width="322" height="224" rx="18" fill="#A558A0"/>
<g clip-path="url(#clip2_2178_2257)">
<rect x="857.092" y="56" width="322.092" height="226.03" rx="18.0824" fill="white"/>
<rect x="857.092" y="56" width="322.092" height="226.03" rx="18.0824" fill="#A558A0" fill-opacity="0.2"/>
<rect x="857.092" y="55.9997" width="322.092" height="227.16" fill="#CACAFB" fill-opacity="0.15"/>
<circle cx="1018" cy="170" r="147" fill="#E1CEE6"/>
<circle cx="1018" cy="170" r="100" fill="#DBC2DF"/>
<path d="M1012.27 229.718C1012.04 231.069 1011.92 232.458 1011.92 233.875C1011.92 233.911 1011.92 233.947 1011.92 233.983C999.672 247.145 993.206 265.509 995.898 284.592C1000.63 318.151 1031.96 341.735 1065.52 337.001L1124.35 328.701C1157.91 323.967 1181.49 292.637 1176.76 259.078C1173.42 235.435 1156.89 216.743 1135.67 209.417C1141.44 200.725 1144.19 189.984 1142.63 178.903C1139.76 158.588 1123.28 143.378 1103.74 141.21C1105.34 135.943 1105.84 130.264 1105.03 124.48H1105.03C1102.02 103.144 1082.1 88.1495 1060.76 91.1602C1055.34 91.9255 1050.32 93.7839 1045.91 96.481C1033.56 89.3719 1018.92 85.2554 1003.22 85.2554C959.149 85.2554 923.42 117.697 923.42 157.717C923.42 197.737 959.149 230.179 1003.22 230.179C1006.28 230.179 1009.3 230.023 1012.27 229.718Z" fill="#89300D"/>
<path fill-rule="evenodd" clip-rule="evenodd" d="M991.07 244.494C991.07 244.494 1005.68 244.926 1011.91 241.524L991.846 254.122L991.07 244.494Z" fill="#CF3E83"/>
<path d="M1026.15 211.245C1033.78 204.585 1046.31 201.321 1046.32 189.813C1046.33 185.77 1043.97 178.77 1035.24 178.758C1024.18 178.741 1025.05 191.253 1025.19 192.646L1025.2 192.717L1025.19 192.718C1025.2 192.753 1025.2 192.772 1025.2 192.772C1023.94 193.261 1022.68 193.302 1021.42 192.967C1012.46 193.069 989.677 190.35 976.975 162.004C974.3 164.819 971.284 167.291 968.009 169.375C958.563 175.37 946.918 178.151 935.005 176.767C935.738 191.083 939.937 227.422 958.058 239.475C965.508 244.43 979.072 245.04 990.629 244.373L994.066 282.383C994.066 282.383 1024.82 288 1035.24 281C1035.24 281 1029.48 259.214 1030.03 257.614C1019.37 254.913 1011.49 245.257 1011.49 233.76C1011.49 223.709 1017.51 215.066 1026.15 211.245Z" fill="#E0AB8C"/>
<path opacity="0.401762" fill-rule="evenodd" clip-rule="evenodd" d="M991.094 244.493C991.094 244.493 1005.71 244.925 1011.94 241.522L991.871 254.12L991.094 244.493Z" fill="#161616"/>
</g>
<rect x="858.592" y="57.5" width="319.092" height="223.03" rx="16.5824" stroke="#A558A0" stroke-width="3"/>
<rect x="465" y="100" width="322" height="224" rx="18" fill="#E4794A"/>
<g clip-path="url(#clip3_2178_2257)">
<rect x="460" y="93" width="322.092" height="226.03" rx="18.0824" fill="white"/>
<rect x="460" y="93" width="322.092" height="226.03" rx="18.0824" fill="#E4794A" fill-opacity="0.2"/>
<rect x="460" y="92.9997" width="322.092" height="227.16" fill="#CACAFB" fill-opacity="0.15"/>
<circle cx="621" cy="207" r="147" fill="#F1D6D1"/>
<circle cx="621" cy="207" r="100" fill="#F0CDC3"/>
<path d="M618.722 318.855L619.689 285.671C619.689 285.671 579.11 288.882 570.428 284.401C570.428 284.401 561.071 235.525 572.729 198.831L658.364 188.878L664.456 237.809C667.341 229.354 689.856 219.666 696.08 231.773C709.565 258.008 661.345 275.672 661.345 275.672L666.241 319.254" fill="#845D48"/>
<path opacity="0.399344" fill-rule="evenodd" clip-rule="evenodd" d="M619.689 285.671L647.052 279.841L619.82 298.121L619.689 285.671Z" fill="#161616"/>
<path d="M680.642 227.351C684.444 213.3 698.206 161.432 696.585 152.578C694.708 142.316 687.519 129.719 650.58 116.506C619.283 105.312 601.628 113.418 596.28 120.315C588.143 130.81 572.73 198.833 572.73 198.833C572.73 198.833 585.483 207.85 630.707 206.295C630.707 206.295 624.447 233.348 650.11 231.794C650.11 231.794 647.36 240.904 659.779 243.77C666.593 233.241 675.636 228.985 680.642 227.351Z" fill="#3A3A3A"/>
</g>
<rect x="461.5" y="94.5" width="319.092" height="223.03" rx="16.5824" stroke="#E4794A" stroke-width="3"/>
<rect x="775" y="690" width="277" height="60" rx="21" fill="#A0A0F7"/>
<rect x="770" y="685" width="275.756" height="58.7677" rx="18.0824" fill="white"/>
<rect x="771.5" y="686.5" width="272.756" height="55.7677" rx="16.5824" stroke="#9D9DF7" stroke-opacity="0.64" stroke-width="3"/>
<rect x="784.692" y="699.692" width="29.3839" height="29.3839" rx="4.52059" fill="#CACAFB"/>
<rect x="825.377" y="699.692" width="29.3839" height="29.3839" rx="4.52059" fill="#CACAFB"/>
<rect x="866.062" y="699.692" width="29.3839" height="29.3839" rx="4.52059" fill="#CACAFB"/>
<rect x="906.748" y="699.692" width="29.3839" height="29.3839" rx="4.52059" fill="#CACAFB"/>
<rect x="947.434" y="699.692" width="29.3839" height="29.3839" rx="4.52059" fill="#CACAFB"/>
<rect x="988.119" y="699.692" width="42.9456" height="29.3839" rx="4.52059" fill="#F78686"/>
<defs>
<linearGradient id="paint0_linear_2178_2257" x1="336" y1="1089.5" x2="967.5" y2="260" gradientUnits="userSpaceOnUse">
<stop stop-color="#ECECFD" stop-opacity="0"/>
<stop offset="1" stop-color="#ECECFD"/>
</linearGradient>
<clipPath id="clip0_2178_2257">
<rect x="497" y="396" width="322.092" height="226.03" rx="18.0824" fill="white"/>
</clipPath>
<clipPath id="clip1_2178_2257">
<rect x="905" y="360" width="322.092" height="226.03" rx="18.0824" fill="white"/>
</clipPath>
<clipPath id="clip2_2178_2257">
<rect x="857.092" y="56" width="322.092" height="226.03" rx="18.0824" fill="white"/>
</clipPath>
<clipPath id="clip3_2178_2257">
<rect x="460" y="93" width="322.092" height="226.03" rx="18.0824" fill="white"/>
</clipPath>
</defs>
</svg>
