<svg width="358" height="150" viewBox="0 0 358 150" fill="none" xmlns="http://www.w3.org/2000/svg">
<path d="M350.053 0.0429688H0.0527344V112.064H350.053V0.0429688Z" fill="#000091"/>
<path d="M118.168 52.7933C119.398 54.2956 120.901 55.1162 123.041 55.1162C125.499 55.1162 127.41 53.5667 127.455 51.1084C127.455 46.4651 121.038 47.1935 121.038 44.3711C121.038 43.324 121.811 42.5973 122.994 42.5973C124.132 42.5973 125.088 43.233 125.862 44.3711L127.547 42.8685C126.454 41.5028 124.952 40.5923 122.994 40.5923C120.49 40.5923 118.762 42.3237 118.762 44.4178C118.762 49.0156 125.135 48.3327 125.135 51.1551C125.135 52.2932 124.36 53.0667 122.994 53.0667C121.811 53.0667 120.719 52.4288 119.809 51.2907L118.168 52.7933Z" fill="white"/>
<path d="M130.821 41.0024L128.68 46.4195H131.003L132.686 41.0024H130.821Z" fill="white"/>
<path d="M137.283 41.0024H135.051V54.7039H137.283V41.0024Z" fill="white"/>
<path d="M141.11 54.7039H146.436C150.76 54.7039 153.675 51.5628 153.675 47.8754C153.675 44.1425 150.76 41.0024 146.436 41.0024H141.11V54.7039ZM146.482 43.0497C149.305 43.0497 151.353 45.1895 151.353 47.8754C151.353 50.5158 149.305 52.6567 146.482 52.6567H143.386V43.0497H146.482Z" fill="white"/>
<path d="M156.364 54.7039H163.966V52.7923H158.595V48.6489H163.192V46.784H158.595V42.9141H163.966V41.0024H156.364V54.7039Z" fill="white"/>
<path d="M167.149 54.7039H169.378V43.8699L176.436 54.7039H179.348V41.0024H177.072V51.8365L170.063 41.0024H167.149V54.7039Z" fill="white"/>
<path d="M181.672 43.0497H186.089V54.7039H188.365V43.0497H192.735V41.0024H181.672V43.0497Z" fill="white"/>
<path d="M197.377 41.0024H195.145V54.7039H197.377V41.0024Z" fill="white"/>
<path d="M201.2 54.7039H203.429V48.6489H208.073V46.784H203.429V42.9141H208.848V41.0024H201.2V54.7039Z" fill="white"/>
<path d="M213.447 41.0024H211.215V54.7039H213.447V41.0024Z" fill="white"/>
<path d="M217.317 54.7039H224.919V52.7923H219.546V48.6489H224.145V46.784H219.546V42.9141H224.919V41.0024H217.317V54.7039Z" fill="white"/>
<path d="M228.106 54.7039H230.335V48.9223H232.247L236.073 54.7039H238.711L234.388 48.4667C235.799 47.8749 236.617 46.6001 236.617 44.9613C236.617 42.5485 234.842 41.0024 231.974 41.0024H228.106V54.7039ZM232.111 42.9141C233.477 42.9141 234.297 43.6877 234.297 44.9168C234.297 46.237 233.477 47.0107 232.111 47.0107H230.335V42.9141H232.111Z" fill="white"/>
<path d="M243.719 54.7039H246.087L247.545 50.8807H253.506L254.965 54.7039H257.376L252.006 41.0024H249.045L243.719 54.7039ZM248.272 48.969L250.548 43.0497L252.779 48.969H248.272Z" fill="white"/>
<path d="M256.422 41.0024L261.795 54.7039H264.754L270.079 41.0024H267.668L263.251 52.3366L258.836 41.0024H256.422Z" fill="white"/>
<path d="M272.266 54.7039H279.868V52.7923H274.498V48.6489H279.095V46.784H274.498V42.9141H279.868V41.0024H272.266V54.7039Z" fill="white"/>
<path d="M288.785 52.9756C285.917 52.9756 283.87 50.7444 283.87 47.8765C283.87 45.0085 285.917 42.7329 288.785 42.7329C290.469 42.7329 291.881 43.5532 292.746 44.7823L294.522 43.4153C293.247 41.7309 291.243 40.5923 288.785 40.5923C284.46 40.5923 281.547 43.9159 281.547 47.8765C281.547 51.7915 284.46 55.1162 288.785 55.1162C291.243 55.1162 293.247 53.9776 294.522 52.2932L292.746 50.9262C291.881 52.1553 290.469 52.9756 288.785 52.9756Z" fill="white"/>
<path d="M119.079 72.7784H122.584V67.5881H123.995C127.182 67.5881 129.186 66.0395 129.186 63.3536C129.186 60.6678 127.182 59.0747 123.995 59.0747H119.079V72.7784ZM124.178 61.9444C125.088 61.9444 125.589 62.5353 125.589 63.3092C125.589 64.1741 125.088 64.7207 124.178 64.7207H122.584V61.9444H124.178Z" fill="white"/>
<path d="M131.004 72.7784H134.51V67.5881H135.328L138.789 72.7784H142.841L138.651 66.9968C140.017 66.2685 140.791 65.038 140.791 63.3536C140.791 60.6678 138.833 59.0747 135.601 59.0747H131.004V72.7784ZM135.83 61.9444C136.695 61.9444 137.239 62.5353 137.239 63.3092C137.239 64.1741 136.695 64.7207 135.83 64.7207H134.51V61.9444H135.83Z" fill="white"/>
<path d="M150.079 58.7095C145.754 58.7095 142.75 62.0342 142.75 65.9492C142.75 69.8642 145.754 73.1867 150.079 73.1867C154.449 73.1867 157.408 69.8642 157.408 65.9492C157.408 62.0342 154.449 58.7095 150.079 58.7095ZM150.079 69.9103C147.894 69.9103 146.345 68.2254 146.345 65.9492C146.345 63.6275 147.894 61.9437 150.079 61.9437C152.264 61.9437 153.858 63.6275 153.858 65.9492C153.858 68.2254 152.264 69.9103 150.079 69.9103Z" fill="white"/>
<path d="M171.618 69.9103C169.433 69.9103 167.839 68.2254 167.839 65.9492C167.839 63.6275 169.433 61.9437 171.618 61.9437C172.984 61.9437 174.03 62.6259 174.668 63.5819L177.4 61.4413C176.17 59.8025 174.122 58.7095 171.618 58.7095C167.248 58.7095 164.243 62.0342 164.243 65.9492C164.243 69.8642 167.248 73.1867 171.618 73.1867C174.122 73.1867 176.17 72.0948 177.4 70.4104L174.668 68.3165C174.03 69.227 172.938 69.9103 171.618 69.9103Z" fill="white"/>
<path d="M185.458 58.7095C181.088 58.7095 178.083 62.0342 178.083 65.9492C178.083 69.8642 181.088 73.1867 185.458 73.1867C189.783 73.1867 192.786 69.8642 192.786 65.9492C192.786 62.0342 189.783 58.7095 185.458 58.7095ZM185.458 69.9103C183.273 69.9103 181.679 68.2254 181.679 65.9492C181.679 63.6275 183.273 61.9437 185.458 61.9437C187.597 61.9437 189.19 63.6275 189.19 65.9492C189.19 68.2254 187.597 69.9103 185.458 69.9103Z" fill="white"/>
<path d="M195.016 72.7784H198.475V64.2205L203.392 72.7784H207.808V59.0747H204.348V67.6348L199.431 59.0747H195.016V72.7784Z" fill="white"/>
<path d="M211.223 72.7784H214.729V64.2205L219.645 72.7784H224.06V59.0747H220.555V67.6348L215.638 59.0747H211.223V72.7784Z" fill="white"/>
<path d="M227.434 72.7784H235.901V69.911H230.939V67.2702H235.127V64.3561H230.939V61.9444H235.901V59.0747H227.434V72.7784Z" fill="white"/>
<path d="M244.638 69.9103C242.453 69.9103 240.859 68.2254 240.859 65.9492C240.859 63.6275 242.453 61.9437 244.638 61.9437C246.003 61.9437 247.05 62.6259 247.687 63.5819L250.464 61.4413C249.189 59.8025 247.142 58.7095 244.638 58.7095C240.267 58.7095 237.309 62.0342 237.309 65.9492C237.309 69.8642 240.267 73.1867 244.638 73.1867C247.142 73.1867 249.189 72.0948 250.464 70.4104L247.687 68.3165C247.05 69.227 246.003 69.9103 244.638 69.9103Z" fill="white"/>
<path d="M251.149 62.2622H255.154V72.7784H258.66V62.2622H262.621V59.0747H251.149V62.2622Z" fill="white"/>
<path fill-rule="evenodd" clip-rule="evenodd" d="M65.7707 22.2679C68.3064 20.8163 71.4149 20.8163 73.9444 22.2679C81.9126 26.8408 89.8809 31.4386 97.8243 36.0614C100.347 37.5254 101.905 40.2169 101.911 43.1325C101.936 52.3219 101.936 61.5237 101.911 70.7131C101.905 73.6287 100.347 76.3263 97.8243 77.7903C89.8809 82.4068 81.9126 87.0045 73.9444 91.5774C71.4149 93.029 68.3064 93.029 65.7707 91.5774C57.8025 87.0045 49.8342 82.4068 41.8908 77.7903C39.3676 76.3263 37.8101 73.6287 37.8038 70.7131C37.7789 61.5237 37.7789 52.3219 37.8038 43.1325C37.8101 40.2169 39.3676 37.5254 41.8908 36.0614C49.8342 31.4386 57.8025 26.8408 65.7707 22.2679Z" stroke="white" stroke-width="3.9997" stroke-miterlimit="1.5" stroke-linecap="round" stroke-linejoin="round"/>
<path fill-rule="evenodd" clip-rule="evenodd" d="M45.5125 61.4446C45.5078 56.3187 45.5126 51.1928 45.5268 46.0669C45.5315 44.0903 46.586 42.265 48.2978 41.272C54.5491 37.6404 60.8147 34.023 67.0897 30.4244C68.8015 29.4409 70.9103 29.4409 72.6221 30.4244C78.8971 34.023 85.1673 37.6404 91.4186 41.272C93.1257 42.265 94.1802 44.0903 94.185 46.0669C94.2086 53.2971 94.2086 60.5367 94.185 67.7669C94.1802 69.7435 93.1257 71.5686 91.4186 72.5616C86.6237 75.3468 81.8195 78.1273 77.0104 80.8936C76.8213 80.8037 76.6131 80.7092 76.3861 80.6052C74.7122 79.8628 72.3053 79.1155 72.206 79.0162C71.8419 78.6568 71.6149 77.1627 72.1303 75.4226C72.2674 74.9639 72.4567 74.4958 72.7073 74.0324C72.7262 73.9945 72.7452 73.9612 72.7641 73.9234C72.7783 73.9045 72.7877 73.8857 72.7971 73.8668C72.9768 73.5642 73.1754 73.271 73.3977 72.992C73.4166 72.9683 73.4403 72.9399 73.4639 72.9162C73.4923 72.8737 73.5253 72.8358 73.5584 72.798C73.6104 72.7365 73.6672 72.6752 73.7239 72.6138C73.7286 72.609 73.7287 72.609 73.7334 72.6043C74.0029 72.3159 74.3103 72.0415 74.6507 71.7909C74.9581 71.6395 75.3364 71.5638 75.7147 71.4882C77.0056 71.4882 78.2965 71.8665 79.5874 72.0178C79.7388 72.0178 79.8901 72.0934 80.0414 72.1691C80.5001 72.2495 81.0298 72.2496 81.4838 72.0936C82.0181 71.9422 82.6232 71.6397 82.8502 70.9587C83.0346 70.4055 83.2333 69.8191 82.9259 69.2848C82.472 68.6038 83.3845 68.3768 83.6872 67.9181C83.9142 67.5398 83.5359 67.3128 83.4602 66.9345C83.3845 66.7785 83.082 66.8589 82.9259 66.6272C83.4603 66.4002 84.2924 65.9462 83.9141 65.2605C83.6872 64.8822 83.309 64.2769 83.7629 63.8939C84.2925 63.5913 85.1296 63.6671 85.3565 63.1375C85.7348 62.2249 84.9025 61.4682 84.4438 60.7069C84.2168 60.2529 83.9143 59.9504 83.6117 59.4917C83.309 58.9621 82.926 58.5034 82.7747 57.8981C82.5477 57.2928 82.8502 56.7585 82.8502 56.1532C82.9258 55.0136 82.6234 53.874 82.3208 52.7344C82.0938 52.2048 82.0179 51.5947 81.7862 51.0651C81.7153 50.7624 81.6397 50.4599 81.408 50.1526C81.3324 50.0013 81.3324 49.7742 81.408 49.6229C81.7154 49.3959 82.0181 49.1689 82.3208 48.8663C82.5477 48.4832 82.3963 47.9536 82.0181 47.7266C81.4837 47.4949 81.5594 48.2562 81.1811 48.4075H80.9541C80.8784 48.1805 81.0297 48.1049 81.1811 47.9536C81.1811 47.8779 81.181 47.7266 81.1053 47.7266C80.8027 47.7266 80.5001 47.651 80.4244 47.495C79.6631 46.4358 78.5993 45.9014 77.4644 45.4474C77.767 45.5231 78.0696 45.5987 78.3722 45.5987C78.9066 45.6743 79.5119 45.6744 79.9659 45.4474C80.3489 45.2961 80.4246 44.6908 80.5759 44.3078C80.7272 44.0051 80.5002 43.5511 80.3489 43.3242C79.999 42.7614 79.4551 42.3974 78.8971 42.109C78.6133 41.9577 78.1595 41.7165 77.8096 41.5274C77.7197 41.4801 77.6488 41.4421 77.5921 41.4138C77.5873 41.409 77.5779 41.4045 77.5731 41.4045C76.9395 41.0499 73.2179 40.0283 69.5579 40.0236C65.9026 40.0236 61.784 41.4849 61.784 41.4849H61.7888C61.4105 41.6173 60.8288 41.8347 60.2188 42.109C59.4905 42.4353 58.4786 42.8845 57.8733 43.6269C57.2681 44.3834 56.6582 45.1447 56.4312 46.0526C55.4429 46.6626 54.8375 47.5706 54.3079 48.4832C53.6222 49.7741 52.6388 50.9137 52.7854 52.356C52.9414 53.5712 53.2439 54.7108 53.4709 56.0018C53.5466 56.4557 53.6223 56.834 53.7736 57.2927C53.9249 57.7466 53.7736 58.2763 54.0006 58.6593C54.1566 58.8863 54.081 59.1889 54.3836 59.3402V59.6429C54.4593 59.7186 54.4593 59.7942 54.6106 59.7942V60.1015C55.2159 60.8581 55.9772 61.5438 56.3555 62.376C56.5068 62.8347 55.5988 62.6031 55.2158 62.4517C54.4592 62.0734 54.0007 61.4682 53.3954 60.9339C53.3954 60.9339 53.3197 61.0094 53.3197 61.0851C53.6223 61.6194 54.7619 62.3005 54.1567 62.6836C53.8493 62.8349 53.4708 62.4517 53.1682 62.7591C53.0926 62.9104 53.1682 63.0617 53.1682 63.213C52.7143 62.9104 52.2557 63.0618 51.8018 62.9105C51.4992 62.8349 51.4233 62.2248 51.0403 62.2248C50.0567 61.9978 49.1443 61.7708 48.156 61.6951C47.2575 61.5958 46.392 61.4588 45.5125 61.4446ZM55.717 76.8647C54.5916 76.2122 53.4662 75.5644 52.3455 74.9118C52.5394 74.8977 52.7332 74.8739 52.9412 74.8266C53.4094 74.7226 53.8492 74.4483 54.3079 74.297V74.4484C55.4428 73.9945 56.2798 73.0061 57.4194 72.6279C57.4951 72.6279 57.6463 72.7792 57.7976 72.7036C58.4833 72.0936 59.2399 71.4126 60.2282 71.5639C60.2282 71.6396 60.2283 71.7151 60.304 71.7151C60.3229 71.7151 60.3417 71.7151 60.3559 71.7151C60.0864 71.9185 59.817 72.1219 59.5427 72.3205C59.4718 72.4009 59.5427 72.4766 59.6231 72.4766C60.0013 72.3206 60.2284 72.0179 60.6067 71.8666C60.531 71.9423 60.5309 72.0934 60.4552 72.1691C60.1904 72.3535 59.9162 72.5759 59.6325 72.8313C58.6962 73.6304 57.9064 74.5052 57.0978 75.4131H57.1072C56.6769 75.8812 56.2372 76.3446 55.8069 76.7749C55.7785 76.8033 55.7501 76.8316 55.717 76.8647ZM50.6432 73.9282C50.0379 73.5736 49.4327 73.2236 48.8274 72.8689C50.3359 72.7223 51.8916 72.7697 53.3197 72.0178C54.535 71.4126 55.6746 70.5756 56.6582 69.5163C56.6582 69.5163 56.7337 69.5919 56.7337 69.6676C56.5067 70.4242 56.0527 70.9587 55.4427 71.4127C54.9888 71.6396 54.6862 72.0178 54.3079 72.1691C54.0809 72.3204 53.8494 72.4765 53.6224 72.6279C52.6057 72.9825 51.5558 73.4648 50.6432 73.9282ZM48.6667 72.7791C48.5438 72.7082 48.4207 72.6325 48.2978 72.5616C46.586 71.5686 45.5315 69.7435 45.5268 67.7669C45.5221 66.4523 45.5221 65.133 45.5173 63.8184C46.3591 63.9602 47.1865 64.1683 48.0045 64.4284C48.6902 64.6554 49.2956 64.958 49.9008 65.3363C50.2082 65.568 50.3595 65.795 50.6621 65.9463C51.0404 66.1733 51.5747 66.1731 51.953 66.0218H52.3315C53.4711 65.7192 54.6861 65.4166 55.4427 64.5796C55.4427 64.6553 55.5232 64.6554 55.5988 64.6554C55.3671 65.2606 55.3673 65.9461 54.9133 66.4757C54.9133 66.5514 54.8375 66.7028 54.9888 66.7784H55.1403C55.0646 66.7784 54.9888 66.7784 54.9888 66.8588C54.9888 67.0101 55.2158 66.8589 55.2915 67.0102C54.9132 67.0859 54.5349 67.1615 54.3079 67.4642C54.3079 67.5398 54.4592 67.5397 54.5349 67.5397C54.3835 67.691 54.1566 67.6156 54.0809 67.7669C54.0809 67.7669 54.1565 67.8424 54.2322 67.8424C54.1565 67.8424 54.0809 67.8425 54.0809 67.9181V68.1497C53.8492 68.1497 53.7737 68.301 53.6224 68.3767C53.925 68.6036 54.1567 68.3767 54.4594 68.3767C53.6224 68.6793 52.9412 69.1333 52.1043 69.3603C51.9529 69.3603 52.1043 69.5921 51.953 69.5921C52.18 69.7434 52.3314 69.5163 52.5584 69.5163C51.4992 70.1216 50.4351 70.6513 49.2954 71.3369C49.2954 71.3369 49.1442 71.4883 49.1442 71.6396H48.8415C48.6902 71.7153 48.7659 71.9422 48.6145 72.0936C48.9928 72.3205 49.4469 71.7909 49.6739 72.0936C49.7495 72.0936 49.5225 72.1691 49.3712 72.1691C49.2955 72.1691 49.2956 72.3205 49.2199 72.3205H48.993C48.8417 72.4766 48.6903 72.5521 48.6903 72.7791C48.6808 72.7791 48.6762 72.7791 48.6667 72.7791ZM45.5173 62.6219C45.5173 62.5321 45.5173 62.4422 45.5173 62.3476C46.3401 62.1726 47.1346 62.0168 47.929 62.0735C48.156 62.0735 48.4633 61.9979 48.6903 62.0735C47.5696 62.0121 46.5577 62.3051 45.5173 62.6219ZM80.0746 56.7016C79.6254 56.5881 79.2377 56.7016 78.7837 56.7016C78.1737 56.8529 77.644 56.9286 77.1143 57.1555C77.5683 56.8529 78.0224 56.5504 78.5567 56.3991C78.935 56.3235 79.3132 56.0964 79.6962 56.0964C80.1501 56.0208 80.6042 55.8647 80.9825 56.0207C81.3655 56.172 81.9708 56.1722 82.0465 56.3991C82.1978 56.8531 81.8195 57.3117 81.3655 57.6143C81.2899 57.7656 81.5925 57.8412 81.5925 57.9925C81.5169 58.1438 81.2898 58.2195 81.1337 58.2195C80.9824 58.2951 80.8311 58.5222 80.6798 58.6783C80.8311 58.6783 80.6797 58.9052 80.831 58.9052C80.5284 59.2835 80.9825 60.0401 80.5286 60.1961C79.9989 60.3475 79.389 60.3475 78.7837 60.1961C79.0863 60.1205 79.4645 60.2719 79.6962 59.9646V59.6619C79.6962 59.5862 79.6158 59.5861 79.5401 59.5861C79.4644 59.6618 79.3889 59.6619 79.3889 59.6619C79.3889 59.5105 79.2376 59.3592 79.1619 59.3592C78.708 59.4348 78.3249 59.2079 78.0222 58.9052C78.2492 58.8296 78.4763 58.7538 78.708 58.8295C78.9349 58.8295 78.8592 58.4465 79.0862 58.2952H79.3131C79.7671 57.6899 80.6797 57.5386 80.831 56.9286C80.831 56.7772 80.3773 56.7773 80.0746 56.7016Z" fill="white"/>
<path fill-rule="evenodd" clip-rule="evenodd" d="M312.137 117.116L311.007 118.139L309.797 121.478L312.469 123.494L318.671 129.878L325.083 134.866L329.812 137.962L334.188 139.361L338.352 138.678L343.773 136.373L347.974 133.066L350.028 127.956L351.323 122.516L350.853 116.196L346.55 106.073L344.837 103.323L343.282 102.681L341.23 103.118L339.61 105.11L339.251 106.567L339.511 108.303L337.928 103.327L336.218 101.989L334.601 101.916L332.395 102.963L331.458 104.339L331.661 106.859L330.402 103.158L328.897 101.406L326.882 101.395L324.664 102.338L322.973 103.6L319.247 93.991L317.284 92.1089L314.981 92.1096L312.413 94.0712L313.037 97.6091L322.857 120.708L321.757 120.524L318.752 118.542L314.822 116.301L312.137 117.116Z" fill="white"/>
<path d="M334.05 111.951L330.41 103.387C329.664 101.634 327.638 100.817 325.885 101.562C324.13 102.308 323.313 104.334 324.058 106.087L325.825 110.242" stroke="#000091" stroke-width="1.49972" stroke-miterlimit="2" stroke-linecap="round" stroke-linejoin="round"/>
<path d="M340.329 109.084L338.097 103.833C337.352 102.08 335.325 101.263 333.572 102.008C331.818 102.754 331.001 104.779 331.747 106.533L332.867 109.169" stroke="#000091" stroke-width="1.49972" stroke-miterlimit="2" stroke-linecap="round" stroke-linejoin="round"/>
<path d="M341.211 111.158L339.668 107.528C338.922 105.775 339.74 103.749 341.493 103.003C343.246 102.258 345.272 103.075 346.018 104.829L349.289 112.524C351.581 117.914 351.232 123.761 349.454 129.659C348.603 132.484 346.641 134.855 344.006 136.185C343.354 136.514 342.631 136.854 341.842 137.189C337.978 138.832 336.416 139.077 335.186 139.237C329.332 139.998 321.997 132.815 311.077 123.368C309.66 122.142 309.368 120.053 310.304 118.43C311.23 116.828 313.233 115.828 314.908 116.614C317.201 117.689 320.268 119.851 323.02 121.282L312.555 96.6649C311.809 94.9113 312.627 92.8853 314.38 92.1399C316.134 91.3942 318.159 92.2117 318.905 93.9654L326.669 112.229" stroke="#000091" stroke-width="1.49972" stroke-miterlimit="2" stroke-linecap="round" stroke-linejoin="round"/>
<path fill-rule="evenodd" clip-rule="evenodd" d="M336.372 86.5019C335.924 85.4489 334.629 84.9325 333.517 85.4052L325.734 88.7141C324.61 89.1918 324.095 90.4777 324.543 91.5306C325.054 92.734 326.337 93.255 327.461 92.7772L335.244 89.4683C336.356 88.9956 336.883 87.7053 336.372 86.5019Z" fill="white"/>
<path fill-rule="evenodd" clip-rule="evenodd" d="M306.111 99.3663C305.663 98.3133 304.368 97.7969 303.256 98.2696L295.472 101.578C294.349 102.056 293.834 103.342 294.282 104.395C294.793 105.598 296.076 106.119 297.2 105.642L304.983 102.333C306.095 101.86 306.622 100.57 306.111 99.3663Z" fill="white"/>
<path fill-rule="evenodd" clip-rule="evenodd" d="M336.372 86.5019C336.883 87.7053 336.356 88.9956 335.244 89.4683L327.461 92.7772C326.337 93.255 325.054 92.734 324.543 91.5306C324.095 90.4777 324.61 89.1918 325.734 88.7141L333.517 85.4052C334.629 84.9325 335.924 85.4489 336.372 86.5019ZM335.331 86.9444C335.075 86.3427 334.446 86.0788 333.902 86.3101L326.118 89.619C325.574 89.8503 325.316 90.4914 325.572 91.0931C325.828 91.6948 326.468 91.9538 327.013 91.7225L334.796 88.4136C335.34 88.1823 335.587 87.5461 335.331 86.9444Z" fill="#000091"/>
<path fill-rule="evenodd" clip-rule="evenodd" d="M306.111 99.3663C306.622 100.57 306.095 101.86 304.983 102.333L297.2 105.642C296.076 106.119 294.793 105.598 294.282 104.395C293.834 103.342 294.349 102.056 295.472 101.578L303.256 98.2696C304.368 97.7969 305.663 98.3133 306.111 99.3663ZM305.07 99.8088C304.814 99.2071 304.185 98.9431 303.641 99.1745L295.857 102.483C295.313 102.715 295.055 103.356 295.311 103.958C295.566 104.559 296.207 104.818 296.751 104.587L304.535 101.278C305.079 101.047 305.325 100.41 305.07 99.8088Z" fill="#000091"/>
<path fill-rule="evenodd" clip-rule="evenodd" d="M311.378 85.3153C312.431 84.8677 312.948 83.5726 312.475 82.4606L309.166 74.6771C308.688 73.5534 307.402 73.0386 306.349 73.4862C305.146 73.9978 304.625 75.2807 305.103 76.4045L308.412 84.1879C308.884 85.2999 310.175 85.8269 311.378 85.3153Z" fill="white"/>
<path fill-rule="evenodd" clip-rule="evenodd" d="M319.242 85.1403C320.303 85.5683 321.584 85.0177 322.036 83.8972L325.2 76.0537C325.657 74.9213 325.112 73.648 324.051 73.22C322.838 72.7308 321.563 73.2696 321.106 74.402L317.942 82.2455C317.49 83.366 318.03 84.6511 319.242 85.1403Z" fill="white"/>
<path fill-rule="evenodd" clip-rule="evenodd" d="M305.04 90.521C305.179 89.3853 304.315 88.2905 303.116 88.1439L294.721 87.1177C293.509 86.9696 292.42 87.8258 292.281 88.9615C292.122 90.2594 292.973 91.352 294.185 91.5002L302.58 92.5264C303.78 92.673 304.881 91.819 305.04 90.521Z" fill="white"/>
<path fill-rule="evenodd" clip-rule="evenodd" d="M311.378 85.3153C310.175 85.8269 308.884 85.2999 308.412 84.1879L305.103 76.4045C304.625 75.2807 305.146 73.9978 306.349 73.4862C307.402 73.0386 308.688 73.5534 309.166 74.6771L312.475 82.4606C312.948 83.5726 312.431 84.8677 311.378 85.3153ZM310.936 84.2743C311.537 84.0185 311.801 83.3894 311.57 82.8453L308.261 75.0618C308.03 74.5177 307.389 74.2596 306.787 74.5153C306.185 74.7711 305.926 75.4119 306.158 75.9561L309.466 83.7396C309.698 84.2837 310.334 84.5301 310.936 84.2743Z" fill="#000091"/>
<path fill-rule="evenodd" clip-rule="evenodd" d="M319.242 85.1403C318.03 84.6511 317.49 83.366 317.942 82.2455L321.106 74.402C321.563 73.2696 322.838 72.7308 324.051 73.22C325.112 73.648 325.657 74.9213 325.2 76.0537L322.036 83.8972C321.584 85.0177 320.303 85.5683 319.242 85.1403ZM319.665 84.0913C320.272 84.3359 320.903 84.0777 321.124 83.5294L324.288 75.6859C324.51 75.1375 324.239 74.5016 323.632 74.2571C323.026 74.0125 322.39 74.2824 322.169 74.8308L319.005 82.6743C318.783 83.2226 319.059 83.8467 319.665 84.0913Z" fill="#000091"/>
<path fill-rule="evenodd" clip-rule="evenodd" d="M305.04 90.521C304.881 91.819 303.78 92.673 302.58 92.5264L294.185 91.5002C292.973 91.352 292.122 90.2594 292.281 88.9615C292.42 87.8258 293.509 86.9696 294.721 87.1177L303.116 88.1439C304.315 88.2905 305.179 89.3853 305.04 90.521ZM303.917 90.3838C303.996 89.7348 303.584 89.1916 302.997 89.1199L294.601 88.0937C294.015 88.022 293.47 88.4482 293.391 89.0972C293.312 89.7461 293.737 90.2909 294.324 90.3626L302.719 91.3888C303.306 91.4605 303.838 91.0327 303.917 90.3838Z" fill="#000091"/>
</svg>
