<?xml version="1.0" encoding="UTF-8" standalone="no"?>
<!DOCTYPE svg PUBLIC "-//W3C//DTD SVG 1.1//EN" "http://www.w3.org/Graphics/SVG/1.1/DTD/svg11.dtd">
<svg width="100%" height="100%" viewBox="0 0 1072 869" version="1.1" xmlns="http://www.w3.org/2000/svg" xmlns:xlink="http://www.w3.org/1999/xlink" xml:space="preserve" xmlns:serif="http://www.serif.com/" style="fill-rule:evenodd;clip-rule:evenodd;stroke-linecap:round;stroke-linejoin:round;stroke-miterlimit:1.5;">
    <g transform="matrix(1,0,0,1,-1351,0)">
        <g id="schéma-Desktop" serif:id="schéma Desktop" transform="matrix(0.40508,0,0,0.358266,803.516,41.8418)">
            <rect x="1351.55" y="-116.79" width="2646.3" height="2425.19" style="fill:none;"/>
            <g transform="matrix(4.07421,0,0,8.78053,1108.77,-20158)">
                <path d="M380.564,2440.97C376.124,2442.78 373.526,2445.56 373.526,2448.51L373.526,2534.77C373.526,2543.7 359.699,2550.96 342.667,2550.96L105.616,2550.96C88.585,2550.96 74.758,2543.7 74.758,2534.77L74.758,2344.68C74.758,2335.75 88.585,2328.49 105.616,2328.49L342.667,2328.49C359.699,2328.49 373.526,2335.75 373.526,2344.68L373.526,2415.03C373.526,2417.31 375.534,2419.46 378.966,2420.85C384.325,2423.03 392.507,2426.36 398.151,2428.66C399.666,2429.27 400.553,2430.22 400.554,2431.22C400.555,2432.23 399.67,2433.18 398.157,2433.8C393.049,2435.88 385.858,2438.81 380.564,2440.97Z" style="fill:none;stroke:rgb(87,94,181);stroke-width:0.83px;"/>
            </g>
            <g transform="matrix(8.44367,0,0,0.93868,782.118,-2234.82)">
                <path d="M373.526,2439.73C373.526,2501.12 368.626,2550.96 362.59,2550.96L85.694,2550.96C79.658,2550.96 74.758,2501.12 74.758,2439.73C74.758,2378.34 79.658,2328.49 85.694,2328.49L362.59,2328.49C368.626,2328.49 373.526,2378.34 373.526,2439.73Z" style="fill:rgb(87,94,181);"/>
            </g>
            <g transform="matrix(1.63433,0,0,1.87904,-46102,-51258.1)">
                <g transform="matrix(51.8576,0,0,51.8576,29496.8,27325.7)">
                </g>
                <text x="29223px" y="27325.7px" style="font-family:'Marianne-Bold', 'Marianne';font-weight:700;font-size:51.858px;fill:white;">M<tspan x="29268.2px 29305.3px 29338.3px 29367.3px 29379.7px 29409.3px 29438.7px 29465.7px " y="27325.7px 27325.7px 27325.7px 27325.7px 27325.7px 27325.7px 27325.7px 27325.7px ">ARS 2024</tspan></text>
            </g>
            <g transform="matrix(2.20805,0,0,2.53866,-62867.8,-68849.8)">
                <text x="29223px" y="27315.6px" style="font-family:'Marianne-Bold', 'Marianne';font-weight:700;font-size:38.383px;fill:rgb(67,75,172);">O<tspan x="29253.7px 29275.9px 29295.3px 29316.4px 29332.1px 29347.3px 29369.2px 29382.9px 29403.9px 29413.2px 29437.2px " y="27315.6px 27315.6px 27315.6px 27315.6px 27315.6px 27315.6px 27315.6px 27315.6px 27315.6px 27315.6px 27315.6px ">uverture du</tspan></text>
                <g transform="matrix(38.3834,0,0,38.3834,29395,27360.4)">
                </g>
                <text x="29223px" y="27360.4px" style="font-family:'Marianne-ExtraBold', 'Marianne';font-weight:800;font-size:38.383px;fill:rgb(67,75,172);">t<tspan x="29238.1px 29259.1px 29292.5px 29315.6px 29332.4px 29341.6px 29368.1px 29377.3px " y="27360.4px 27360.4px 27360.4px 27360.4px 27360.4px 27360.4px 27360.4px 27360.4px ">emps # 1</tspan></text>
            </g>
            <g transform="matrix(3.44725,0,0,3.89769,1523.13,8.53074)">
                <path d="M16,13L13,13C12.45,13 12,13.45 12,14L12,17C12,17.55 12.45,18 13,18L16,18C16.55,18 17,17.55 17,17L17,14C17,13.45 16.55,13 16,13ZM16,3L16,4L8,4L8,3C8,2.45 7.55,2 7,2C6.45,2 6,2.45 6,3L6,4L5,4C3.89,4 3.01,4.9 3.01,6L3,20C3,21.1 3.89,22 5,22L19,22C20.1,22 21,21.1 21,20L21,6C21,4.9 20.1,4 19,4L18,4L18,3C18,2.45 17.55,2 17,2C16.45,2 16,2.45 16,3ZM18,20L6,20C5.45,20 5,19.55 5,19L5,9L19,9L19,19C19,19.55 18.55,20 18,20Z" style="fill:white;fill-rule:nonzero;"/>
            </g>
            <g transform="matrix(1.42598,0,0,1.63949,-40013.3,-44013.7)">
                <text x="29223px" y="27320.2px" style="font-family:'Marianne-Regular', 'Marianne';font-size:44.576px;fill:rgb(67,75,172);">T<tspan x="29246.3px 29270.7px 29289.3px 29306.2px 29330.8px 29347.2px 29357.9px 29368.3px 29392.9px 29403.6px 29431.7px 29446.7px 29473.7px 29497.2px 29512.5px 29536.2px 29577px 29617.8px " y="27320.2px 27320.2px 27320.2px 27320.2px 27320.2px 27320.2px 27320.2px 27320.2px 27320.2px 27320.2px 27320.2px 27320.2px 27320.2px 27320.2px 27320.2px 27320.2px 27320.2px 27320.2px ">ester le programme</tspan></text>
                <g transform="matrix(44.5759,0,0,44.5759,29795.5,27384.6)">
                </g>
                <text x="29223px" y="27384.6px" style="font-family:'Marianne-Regular', 'Marianne';font-size:44.576px;fill:rgb(67,75,172);">a<tspan x="29246.5px 29268.6px 29293.1px 29316.7px 29327.4px 29353px 29379.3px 29403.9px 29414.6px 29442.9px 29470.1px 29480.6px 29504px 29530.4px 29554.8px 29579.4px 29590.1px 29618.1px 29642.7px 29653.4px 29681.5px 29696.5px 29723.4px 29733.9px 29758.3px 29775.7px " y="27384.6px 27384.6px 27384.6px 27384.6px 27384.6px 27384.6px 27384.6px 27384.6px 27384.6px 27384.6px 27384.6px 27384.6px 27384.6px 27384.6px 27384.6px 27384.6px 27384.6px 27384.6px 27384.6px 27384.6px 27384.6px 27384.6px 27384.6px 27384.6px 27384.6px 27384.6px ">vec une poignée de projets</tspan></text>
            </g>
            <g transform="matrix(4.82042,0,0,5.54216,1509.37,403.71)">
                <path d="M11,6L9,6L9,4L11,4L11,6ZM15,4L13,4L13,6L15,6L15,4ZM9,14L11,14L11,12L9,12L9,14ZM19,10L19,8L17,8L17,10L19,10ZM19,14L19,12L17,12L17,14L19,14ZM13,14L15,14L15,12L13,12L13,14ZM19,4L17,4L17,6L19,6L19,4ZM13,8L13,6L11,6L11,8L13,8ZM7,10L7,8L9,8L9,6L7,6L7,5C7,4.45 6.55,4 6,4C5.45,4 5,4.45 5,5L5,17.066C5,17.616 5.45,18.066 6,18.066C6.55,18.066 7,17.616 7,17.066L7,12L9,12L9,10L7,10ZM15,12L17,12L17,10L15,10L15,12ZM11,10L11,12L13,12L13,10L11,10ZM9,8L9,10L11,10L11,8L9,8ZM13,10L15,10L15,8L13,8L13,10ZM15,6L15,8L17,8L17,6L15,6Z" style="fill:rgb(67,75,172);fill-rule:nonzero;"/>
            </g>
            <g transform="matrix(3.72109,0,0,5.25664,1190.42,-11251.3)">
                <path d="M373.526,2351.47L373.526,2527.98C373.526,2540.66 360.662,2550.96 344.818,2550.96L103.466,2550.96C87.621,2550.96 74.758,2540.66 74.758,2527.98L74.758,2351.47C74.758,2338.79 87.621,2328.49 103.466,2328.49L344.818,2328.49C360.662,2328.49 373.526,2338.79 373.526,2351.47Z" style="fill:rgb(241,246,251);"/>
            </g>
            <g transform="matrix(8.73161e-17,-1.61231,1.45002,1.0039e-16,-37114.3,48855.3)">
                <g transform="matrix(34.6701,0,0,34.6701,29374.3,27312.8)">
                </g>
                <text x="29223px" y="27312.8px" style="font-family:'Marianne-Regular', 'Marianne';font-size:34.67px;fill:rgb(225,0,15);">P<tspan x="29241.7px 29253.3px 29274.3px 29282.4px 29301.4px 29315px 29323.3px 29331.6px 29353.5px " y="27312.8px 27312.8px 27312.8px 27312.8px 27312.8px 27312.8px 27312.8px 27312.8px 27312.8px ">rojet  #2</tspan></text>
            </g>
            <g transform="matrix(3.44725,0,0,1.25282,1483.66,862.232)">
                <g transform="matrix(0.716122,-0,-0,2.22794,-38.3243,-781.452)">
                    <path d="M467.608,483.328L450.941,483.328" style="fill:none;stroke:rgb(226,7,22);stroke-width:4.17px;stroke-linejoin:miter;stroke-miterlimit:10;"/>
                    <path d="M459.274,483.328L459.274,561.991" style="fill:none;stroke:rgb(226,7,22);stroke-width:4.17px;"/>
                </g>
            </g>
            <g transform="matrix(3.44725,0,0,1.16079,1483.66,1460.28)">
                <g transform="matrix(0.716122,-0,-0,2.40459,-38.3243,-1358.62)">
                    <path d="M465.524,751.537L459.274,757.787L453.024,751.537" style="fill:none;stroke:rgb(225,0,15);stroke-width:4.17px;stroke-linejoin:miter;stroke-miterlimit:10;"/>
                    <path d="M459.274,685.919L459.274,757.787" style="fill:none;stroke:rgb(225,0,15);stroke-width:4.17px;"/>
                </g>
            </g>
            <g transform="matrix(8.73161e-17,-1.61231,1.45002,1.0039e-16,-37255.1,48855.3)">
                <g transform="matrix(34.6701,0,0,34.6701,29369.5,27312.8)">
                </g>
                <text x="29223px" y="27312.8px" style="font-family:'Marianne-Regular', 'Marianne';font-size:34.67px;fill:rgb(67,75,172);">P<tspan x="29241.7px 29253.3px 29274.3px 29282.4px 29301.4px 29315px 29323.3px 29331.6px 29353.5px " y="27312.8px 27312.8px 27312.8px 27312.8px 27312.8px 27312.8px 27312.8px 27312.8px 27312.8px ">rojet  #1</tspan></text>
            </g>
            <g transform="matrix(3.44725,0,0,1.25282,1342.83,862.232)">
                <g transform="matrix(0.716122,-0,-0,2.22794,2.52987,-781.452)">
                    <path d="M410.558,483.328L393.892,483.328" style="fill:none;stroke:rgb(67,75,172);stroke-width:4.17px;stroke-linejoin:miter;stroke-miterlimit:10;"/>
                    <path d="M402.225,483.328L402.225,561.991" style="fill:none;stroke:rgb(67,75,172);stroke-width:4.17px;"/>
                </g>
            </g>
            <g transform="matrix(3.44725,0,0,1.16079,1342.83,1460.28)">
                <g transform="matrix(0.716122,-0,-0,2.40459,2.52987,-1358.62)">
                    <path d="M408.475,751.537L402.225,757.787L395.975,751.537" style="fill:none;stroke:rgb(87,94,181);stroke-width:4.17px;stroke-linejoin:miter;stroke-miterlimit:10;"/>
                    <path d="M402.225,685.919L402.225,757.787" style="fill:none;stroke:rgb(87,94,181);stroke-width:4.17px;"/>
                </g>
            </g>
            <g transform="matrix(5.45154,0,0,6.16387,2279.08,1077.72)">
                <path d="M12,12C14.21,12 16,10.21 16,8C16,5.79 14.21,4 12,4C9.79,4 8,5.79 8,8C8,10.21 9.79,12 12,12ZM12,14C9.33,14 4,15.34 4,18L4,19C4,19.55 4.45,20 5,20L19,20C19.55,20 20,19.55 20,19L20,18C20,15.34 14.67,14 12,14Z" style="fill:rgb(67,75,172);fill-rule:nonzero;"/>
            </g>
            <g transform="matrix(5.45154,0,0,6.16387,2419.91,1077.72)">
                <path d="M12,12C14.21,12 16,10.21 16,8C16,5.79 14.21,4 12,4C9.79,4 8,5.79 8,8C8,10.21 9.79,12 12,12ZM12,14C9.33,14 4,15.34 4,18L4,19C4,19.55 4.45,20 5,20L19,20C19.55,20 20,19.55 20,19L20,18C20,15.34 14.67,14 12,14Z" style="fill:rgb(226,7,22);fill-rule:nonzero;"/>
            </g>
            <g transform="matrix(1.42598,0,0,1.63949,-40013.3,-43328.5)">
                <text x="29223px" y="27320.2px" style="font-family:'Marianne-Regular', 'Marianne';font-size:44.576px;fill:rgb(67,75,172);">S<tspan x="29247.6px 29274.8px 29300.6px 29318px 29328.4px 29353px 29379.3px 29390px 29418.1px 29442.6px 29453.3px 29494.1px 29504.4px 29522.6px " y="27320.2px 27320.2px 27320.2px 27320.2px 27320.2px 27320.2px 27320.2px 27320.2px 27320.2px 27320.2px 27320.2px 27320.2px 27320.2px 27320.2px ">outien de mise</tspan></text>
                <text x="29223px" y="27384.6px" style="font-family:'Marianne-Regular', 'Marianne';font-size:44.576px;fill:rgb(67,75,172);">e<tspan x="29247.6px 29273.9px 29284.6px 29299.6px 29324px 29342.2px 29366.5px 29390.3px 29415.8px 29426.5px 29454.6px " y="27384.6px 27384.6px 27384.6px 27384.6px 27384.6px 27384.6px 27384.6px 27384.6px 27384.6px 27384.6px 27384.6px ">n réseau de</tspan></text>
                <text x="29223px" y="27449px" style="font-family:'Marianne-Regular', 'Marianne';font-size:44.576px;fill:rgb(67,75,172);">l<tspan x="29233.7px 29242.6px 29266.3px 29294.3px 29335.1px 29345.6px 29371.9px 29382.2px 29400.8px 29418.2px 29433.6px 29457.3px 29474.7px 29485.2px 29512.4px " y="27449px 27449px 27449px 27449px 27449px 27449px 27449px 27449px 27449px 27449px 27449px 27449px 27449px 27449px 27449px ">‘administration</tspan></text>
                <text x="29223px" y="27513.4px" style="font-family:'Marianne-Regular', 'Marianne';font-size:44.576px;fill:rgb(67,75,172);">f<tspan x="29238.3px 29253.6px 29277.3px 29303.7px 29327px 29350.7px 29361px 29379.2px 29403.5px " y="27513.4px 27513.4px 27513.4px 27513.4px 27513.4px 27513.4px 27513.4px 27513.4px 27513.4px ">rançaise,</tspan></text>
                <text x="29223px" y="27577.8px" style="font-family:'Marianne-Regular', 'Marianne';font-size:44.576px;fill:rgb(67,75,172);">r<tspan x="29238px 29262.4px 29280.6px 29298.8px 29326px 29351.6px 29366.6px 29389.3px 29413.7px " y="27577.8px 27577.8px 27577.8px 27577.8px 27577.8px 27577.8px 27577.8px 27577.8px 27577.8px ">essources</tspan></text>
                <g transform="matrix(44.5759,0,0,44.5759,29424,27642.2)">
                </g>
                <text x="29223px" y="27642.2px" style="font-family:'Marianne-Regular', 'Marianne';font-size:44.576px;fill:rgb(67,75,172);">p<tspan x="29250.7px 29274.4px 29291.8px 29309.2px 29332.9px 29355.4px 29379.8px 29404.2px " y="27642.2px 27642.2px 27642.2px 27642.2px 27642.2px 27642.2px 27642.2px 27642.2px ">artagées</tspan></text>
            </g>
            <g transform="matrix(0.515664,0,4.02378e-33,0.583044,1045.34,180.054)">
                <path d="M1252.52,1802.19C1252.52,1840.06 1278.18,1868.71 1312.57,1868.71C1314.12,1868.71 1315.65,1868.65 1317.15,1868.53L1317.15,1824.96C1306.24,1823.01 1298.61,1813.88 1298.61,1802.19C1298.61,1790.5 1306.24,1781.36 1317.15,1779.41L1317.15,1735.85C1315.65,1735.72 1314.12,1735.66 1312.57,1735.66C1278.18,1735.66 1252.52,1764.32 1252.52,1802.19Z" style="fill:rgb(0,0,145);fill-rule:nonzero;"/>
            </g>
            <g transform="matrix(0.515664,0,4.0657e-33,0.589119,333.247,170.463)">
                <rect x="2980.24" y="1738.65" width="44.85" height="127.07" style="fill:rgb(225,0,15);fill-rule:nonzero;"/>
            </g>
            <g transform="matrix(0.515664,0,4.21314e-33,0.610483,194.53,130.604)">
                <rect x="2980.24" y="1738.65" width="44.85" height="127.07" style="fill:rgb(0,0,145);fill-rule:nonzero;"/>
            </g>
            <g transform="matrix(0.515664,0,3.46625e-33,0.502258,-148.901,330.777)">
                <path d="M3551.17,1686.33L3551.29,1865.72L3506.44,1865.72L3506.44,1686.33L3551.17,1686.33Z" style="fill:rgb(0,0,145);"/>
            </g>
            <g transform="matrix(1.09768,0,8.56528e-33,1.24111,-879.426,2477.68)">
                <g transform="matrix(0.469777,0,0,0.469777,1348.14,-1968.69)">
                    <path d="M2300.44,2015.46C2312.15,2015.46 2321.86,2019.7 2332.08,2025.43L2351.27,1998.02C2338.81,1989.8 2322.36,1981.83 2298.69,1981.83C2294.93,1981.83 2291.26,1982.04 2287.71,1982.46L2287.71,2019.75C2288.81,2016.67 2294.21,2015.46 2300.44,2015.46Z" style="fill:rgb(225,0,15);"/>
                </g>
                <g transform="matrix(0.469777,0,0,0.469777,1348.14,-1968.69)">
                    <path d="M2301.41,2084.32C2301.42,2084.32 2308.72,2081.95 2309.08,2076.76C2309.32,2073.31 2307.03,2071.08 2303.48,2069.59C2300.23,2068.22 2295.51,2067.19 2289.86,2066.04C2288.88,2065.84 2287.87,2065.63 2286.85,2065.42L2286.85,2025.78C2287.99,2029.47 2294.98,2031.11 2304.55,2032.93C2323.99,2036.67 2352.39,2042.9 2352.39,2074.29C2352.39,2103.44 2327.23,2118.64 2294.84,2118.64C2292.08,2118.64 2289.43,2118.52 2286.85,2118.31L2286.85,2084.61C2288.88,2084.84 2290.94,2085.01 2293.09,2085.01C2296.4,2085.01 2299.06,2084.89 2301.41,2084.32Z" style="fill:rgb(225,0,15);"/>
                </g>
            </g>
            <g transform="matrix(1.09768,0,8.56528e-33,1.24111,-933.645,2489.14)">
                <g transform="matrix(0.469777,0,0,0.469777,1614.44,-1859.36)">
                    <path d="M2265.3,1828.4C2256.45,1828.4 2249.32,1824.98 2244.63,1819.01L2244.63,1863.89C2250.77,1865.4 2257.25,1866.27 2264.05,1866.27C2286.72,1866.27 2306.66,1857.55 2320.36,1843.35L2290.96,1817.44C2286.23,1822.42 2277.01,1828.4 2265.3,1828.4Z" style="fill:rgb(225,0,15);"/>
                </g>
                <g transform="matrix(0.469777,0,0,0.469777,1614.44,-1859.36)">
                    <path d="M2260.81,1735.66C2255.19,1735.66 2249.8,1736.32 2244.63,1737.45L2244.63,1781.46C2248.53,1776.46 2253.92,1773.53 2260.31,1773.53C2269.28,1773.53 2277.01,1779.26 2280.25,1789.23L2244.63,1789.23L2244.63,1814.89L2327.09,1814.89C2327.84,1811.66 2328.09,1806.67 2328.09,1803.18C2328.09,1764.07 2299.18,1735.66 2260.81,1735.66Z" style="fill:rgb(225,0,15);"/>
                </g>
            </g>
            <g transform="matrix(0.515664,0,4.0657e-33,0.589119,370.746,170.463)">
                <rect x="2980.24" y="1738.65" width="44.85" height="127.07" style="fill:rgb(225,0,15);fill-rule:nonzero;"/>
            </g>
            <g transform="matrix(0.515664,0,1.41553e-33,0.20511,370.746,795.074)">
                <rect x="2980.24" y="1738.65" width="44.85" height="127.07" style="fill:rgb(225,0,15);fill-rule:nonzero;"/>
            </g>
            <g transform="matrix(0.515664,0,4.02378e-33,0.583044,639.138,37.9463)">
                <path d="M2575.64,1954.92L2530.79,1954.92L2530.79,1984.82L2530.53,1984.82L2530.53,2025.68L2530.79,2025.68L2530.79,2066.29C2530.79,2093.95 2545.24,2114.88 2579.63,2114.88C2589.6,2114.88 2597.57,2113.13 2605.29,2109.14L2605.29,2067.29C2600.8,2069.53 2595.33,2071.52 2589.34,2071.52C2579.88,2071.52 2575.64,2066.29 2575.64,2058.81L2575.64,2025.68L2605.29,2025.68L2605.29,1984.82L2575.64,1984.82L2575.64,1954.92Z" style="fill:rgb(225,0,15);fill-rule:nonzero;"/>
            </g>
            <g transform="matrix(0.515664,0,4.02378e-33,0.583044,420.448,36.5261)">
                <path d="M2786.43,2071.52C2776.47,2071.52 2769.74,2064.79 2769.74,2054.58L2769.74,1984.82L2724.89,1984.82L2724.89,2060.81C2724.89,2093.45 2749.31,2114.88 2786.43,2114.88C2790.8,2114.88 2794.98,2114.55 2798.98,2113.98L2798.98,2066.3C2796.04,2069.59 2791.71,2071.52 2786.43,2071.52Z" style="fill:rgb(225,0,15);fill-rule:nonzero;"/>
            </g>
            <g transform="matrix(3.44725,0,0,3.89769,1523.85,750.709)">
                <path d="M5,13L16.17,13L11.29,17.88C10.9,18.27 10.9,18.91 11.29,19.3C11.68,19.69 12.31,19.69 12.7,19.3L19.29,12.71C19.68,12.32 19.68,11.69 19.29,11.3L12.71,4.7C12.32,4.31 11.69,4.31 11.3,4.7C10.91,5.09 10.91,5.72 11.3,6.11L16.17,11L5,11C4.45,11 4,11.45 4,12C4,12.55 4.45,13 5,13Z" style="fill:rgb(87,94,181);fill-rule:nonzero;"/>
            </g>
            <g transform="matrix(3.83235,0,0,4.33311,1518.51,1399.86)">
                <path d="M16.48,10.41C16.09,10.8 15.44,10.8 15.05,10.41L10.58,5.95L3.53,12.99L2.87,12.36C1.7,11.19 1.7,9.29 2.87,8.12L7.11,3.88C8.28,2.71 10.18,2.71 11.35,3.88L16.48,9C16.87,9.39 16.87,10.02 16.48,10.41ZM17.18,8.29C17.96,9.07 17.96,10.34 17.18,11.12C15.91,12.39 14.57,11.34 14.35,11.12L10.59,7.36L5.02,12.93C4.63,13.32 4.63,13.95 5.02,14.34C5.41,14.73 6.04,14.73 6.44,14.34L11.06,9.72L11.77,10.43L7.15,15.05C6.76,15.44 6.76,16.07 7.15,16.46C7.54,16.85 8.17,16.85 8.57,16.46L13.19,11.84L13.9,12.55L9.28,17.17C8.89,17.56 8.89,18.19 9.28,18.58C9.67,18.97 10.3,18.97 10.69,18.58L15.31,13.96L16.02,14.67L11.4,19.29C11.01,19.68 11.01,20.31 11.4,20.7C11.79,21.09 12.42,21.09 12.81,20.7L21.13,12.36C22.3,11.19 22.3,9.29 21.13,8.12L16.89,3.88C15.74,2.73 13.88,2.71 12.71,3.82L17.18,8.29Z" style="fill:rgb(67,75,172);fill-rule:nonzero;"/>
            </g>
            <g transform="matrix(4.07421,0,0,8.7035,2414.23,-19978.7)">
                <path d="M77.59,2420.16C75.788,2419.23 74.771,2417.96 74.771,2416.63C74.758,2404.06 74.758,2344.83 74.758,2344.83C74.758,2335.81 88.585,2328.49 105.616,2328.49L342.667,2328.49C359.699,2328.49 373.526,2335.81 373.526,2344.83L373.526,2534.62C373.526,2543.64 359.699,2550.96 342.667,2550.96L105.616,2550.96C88.585,2550.96 74.758,2543.64 74.758,2534.62L74.758,2446.79C74.757,2445.42 75.955,2444.12 78.004,2443.28C78.004,2443.28 78.004,2443.28 78.004,2443.28L99.539,2434.43C101.052,2433.8 101.937,2432.85 101.936,2431.83C101.935,2430.82 101.048,2429.86 99.533,2429.24C99.533,2429.24 84.099,2422.88 77.59,2420.16Z" style="fill:none;stroke:rgb(87,94,181);stroke-width:0.84px;"/>
            </g>
            <g transform="matrix(1.63433,0,0,1.87904,-44796.5,-51256.7)">
                <g transform="matrix(51.8576,0,0,51.8576,29638.8,27325.7)">
                </g>
                <text x="29223px" y="27325.7px" style="font-family:'Marianne-Bold', 'Marianne';font-weight:700;font-size:51.858px;fill:white;">S<tspan x="29251.9px 29280.6px 29310.6px 29342.1px 29370.8px 29416px 29447.4px 29480.6px 29509.3px 29521.7px 29551.3px 29580.7px 29607.7px " y="27325.7px 27325.7px 27325.7px 27325.7px 27325.7px 27325.7px 27325.7px 27325.7px 27325.7px 27325.7px 27325.7px 27325.7px 27325.7px ">EPTEMBRE 2024</tspan></text>
            </g>
            <g transform="matrix(2.20805,0,0,2.53866,-61562.3,-68859.3)">
                <text x="29223px" y="27315.6px" style="font-family:'Marianne-Bold', 'Marianne';font-weight:700;font-size:38.383px;fill:rgb(67,75,172);">T</text>
                <g transform="matrix(38.3834,0,0,38.3834,29408.5,27315.6)">
                </g>
                <text x="29246.3px" y="27315.6px" style="font-family:'Marianne-ExtraBold', 'Marianne';font-weight:800;font-size:38.383px;fill:rgb(67,75,172);">e<tspan x="29267.3px 29300.7px 29323.8px 29340.6px 29349.8px 29376.3px 29385.5px " y="27315.6px 27315.6px 27315.6px 27315.6px 27315.6px 27315.6px 27315.6px ">mps # 2</tspan></text>
            </g>
            <g transform="matrix(1.42598,0,0,1.63949,-38707.9,-44140.1)">
                <text x="29223px" y="27320.2px" style="font-family:'Marianne-Regular', 'Marianne';font-size:44.576px;fill:rgb(67,75,172);">P<tspan x="29246.4px 29270.1px 29288.3px 29306.5px 29331px 29347.4px 29358.1px 29381.8px 29392.5px 29403.1px 29412.5px 29437px 29460.6px 29486.9px 29511.5px 29522px 29532.5px 29557px 29567.7px 29592.1px " y="27320.2px 27320.2px 27320.2px 27320.2px 27320.2px 27320.2px 27320.2px 27320.2px 27320.2px 27320.2px 27320.2px 27320.2px 27320.2px 27320.2px 27320.2px 27320.2px 27320.2px 27320.2px 27320.2px 27320.2px ">asser à l&apos;échelle et</tspan></text>
                <g transform="matrix(44.5759,0,0,44.5759,29776.1,27384.6)">
                </g>
                <text x="29223px" y="27384.6px" style="font-family:'Marianne-Regular', 'Marianne';font-size:44.576px;fill:rgb(67,75,172);">e<tspan x="29247.6px 29288.4px 29316.5px 29340.2px 29355.2px 29383.3px 29408.9px 29433.5px 29449.8px 29460.5px 29488.7px 29498.6px 29522.3px 29548.1px 29565.5px 29580.5px 29604.9px 29623.3px 29634px 29662.1px 29677.1px 29704px 29714.5px 29738.9px 29756.3px " y="27384.6px 27384.6px 27384.6px 27384.6px 27384.6px 27384.6px 27384.6px 27384.6px 27384.6px 27384.6px 27384.6px 27384.6px 27384.6px 27384.6px 27384.6px 27384.6px 27384.6px 27384.6px 27384.6px 27384.6px 27384.6px 27384.6px 27384.6px 27384.6px 27384.6px ">mbarquer d&apos;autres projets</tspan></text>
            </g>
            <g transform="matrix(3.72109,0,0,5.52455,2495.88,-11962.6)">
                <path d="M79.389,2363.59C76.477,2361.95 74.758,2359.36 74.758,2356.61L74.758,2350.97C74.758,2338.28 88.277,2328.49 104.929,2328.49L343.355,2328.49C360.007,2328.49 373.526,2338.79 373.526,2351.47L373.526,2527.98C373.526,2540.66 360.007,2550.96 343.355,2550.96L104.929,2550.96C88.277,2550.96 74.758,2540.66 74.758,2527.98L74.758,2403.5C74.758,2400.55 76.623,2397.78 79.77,2396.06C85.436,2392.97 94.723,2387.89 101.278,2384.3C103.045,2383.33 104.098,2381.78 104.112,2380.13C104.126,2378.47 103.098,2376.91 101.348,2375.93C94.64,2372.16 85.032,2366.76 79.389,2363.59Z" style="fill:rgb(241,246,251);"/>
            </g>
            <g transform="matrix(8.73161e-17,-1.61231,1.45002,1.0039e-16,-35808.8,48684.1)">
                <g transform="matrix(34.6701,0,0,34.6701,29374.3,27312.8)">
                </g>
                <text x="29223px" y="27312.8px" style="font-family:'Marianne-Regular', 'Marianne';font-size:34.67px;fill:rgb(225,0,15);">P<tspan x="29241.7px 29253.3px 29274.3px 29282.4px 29301.4px 29315px 29323.3px 29331.6px 29353.5px " y="27312.8px 27312.8px 27312.8px 27312.8px 27312.8px 27312.8px 27312.8px 27312.8px 27312.8px ">rojet  #2</tspan></text>
            </g>
            <g transform="matrix(3.44725,0,0,0.647139,2789.12,950.911)">
                <g transform="matrix(0.716122,-0,-0,4.31316,-417.02,-1649.88)">
                    <path d="M996.422,452.011L979.755,452.011" style="fill:none;stroke:rgb(226,7,22);stroke-width:4.17px;stroke-linejoin:miter;stroke-miterlimit:10;"/>
                    <path d="M988.089,452.011L988.089,491.636" style="fill:none;stroke:rgb(226,7,22);stroke-width:4.17px;"/>
                </g>
            </g>
            <g transform="matrix(3.44725,0,0,2.08658,2789.12,1011.5)">
                <g transform="matrix(0.716122,-0,-0,1.3377,-417.02,-540.737)">
                    <path d="M994.339,746.854L988.089,753.104L981.839,746.854" style="fill:none;stroke:rgb(225,0,15);stroke-width:4.17px;stroke-linejoin:miter;stroke-miterlimit:10;"/>
                    <path d="M988.089,621.568L988.089,753.104" style="fill:none;stroke:rgb(225,0,15);stroke-width:4.17px;stroke-dasharray:8.33,8.33,0,0,0,0;"/>
                </g>
            </g>
            <g transform="matrix(8.73161e-17,-1.61231,1.45002,1.0039e-16,-35949.7,48684.1)">
                <g transform="matrix(34.6701,0,0,34.6701,29369.5,27312.8)">
                </g>
                <text x="29223px" y="27312.8px" style="font-family:'Marianne-Regular', 'Marianne';font-size:34.67px;fill:rgb(67,75,172);">P<tspan x="29241.7px 29253.3px 29274.3px 29282.4px 29301.4px 29315px 29323.3px 29331.6px 29353.5px " y="27312.8px 27312.8px 27312.8px 27312.8px 27312.8px 27312.8px 27312.8px 27312.8px 27312.8px ">rojet  #1</tspan></text>
            </g>
            <g transform="matrix(8.73161e-17,-1.61231,1.45002,1.0039e-16,-36094.1,48899.2)">
                <g transform="matrix(34.6701,0,0,34.6701,29507.5,27312.8)">
                </g>
                <text x="29223px" y="27312.8px" style="font-family:'Marianne-Regular', 'Marianne';font-size:34.67px;fill:rgb(186,188,190);">N<tspan x="29250.8px 29271.9px 29292px 29309.2px 29328.1px 29346.6px 29366.2px 29383.5px 29391.9px 29400.2px 29418.8px 29430.5px 29451.5px 29459.6px 29478.6px 29492.1px " y="27312.8px 27312.8px 27312.8px 27312.8px 27312.8px 27312.8px 27312.8px 27312.8px 27312.8px 27312.8px 27312.8px 27312.8px 27312.8px 27312.8px 27312.8px 27312.8px ">ouveaux  Projets</tspan></text>
            </g>
            <g transform="matrix(3.44725,0,0,0.647139,2648.28,950.911)">
                <g transform="matrix(0.716122,-0,-0,4.31316,-376.166,-1649.88)">
                    <path d="M939.373,452.011L922.706,452.011" style="fill:none;stroke:rgb(67,75,172);stroke-width:4.17px;stroke-linejoin:miter;stroke-miterlimit:10;"/>
                    <path d="M931.039,452.011L931.039,491.636" style="fill:none;stroke:rgb(67,75,172);stroke-width:4.17px;"/>
                </g>
            </g>
            <g transform="matrix(3.44725,0,0,2.08658,2648.28,1011.5)">
                <g transform="matrix(0.716122,-0,-0,1.3377,-376.166,-540.737)">
                    <path d="M937.289,746.854L931.039,753.104L924.789,746.854" style="fill:none;stroke:rgb(87,94,181);stroke-width:4.17px;stroke-linejoin:miter;stroke-miterlimit:10;"/>
                    <path d="M931.039,621.568L931.039,753.104" style="fill:none;stroke:rgb(87,94,181);stroke-width:4.17px;stroke-dasharray:8.33,8.33,0,0,0,0;"/>
                </g>
            </g>
            <g transform="matrix(5.45154,0,0,6.16387,3584.54,991.218)">
                <path d="M12,12C14.21,12 16,10.21 16,8C16,5.79 14.21,4 12,4C9.79,4 8,5.79 8,8C8,10.21 9.79,12 12,12ZM12,14C9.33,14 4,15.34 4,18L4,19C4,19.55 4.45,20 5,20L19,20C19.55,20 20,19.55 20,19L20,18C20,15.34 14.67,14 12,14Z" style="fill:rgb(67,75,172);fill-rule:nonzero;"/>
            </g>
            <g transform="matrix(5.45154,0,0,6.16387,3722.72,991.218)">
                <path d="M12,12C14.21,12 16,10.21 16,8C16,5.79 14.21,4 12,4C9.79,4 8,5.79 8,8C8,10.21 9.79,12 12,12ZM12,14C9.33,14 4,15.34 4,18L4,19C4,19.55 4.45,20 5,20L19,20C19.55,20 20,19.55 20,19L20,18C20,15.34 14.67,14 12,14Z" style="fill:rgb(226,7,22);fill-rule:nonzero;"/>
            </g>
            <g transform="matrix(3.44725,0,0,3.89769,2828.59,6.9037)">
                <path d="M16,13L13,13C12.45,13 12,13.45 12,14L12,17C12,17.55 12.45,18 13,18L16,18C16.55,18 17,17.55 17,17L17,14C17,13.45 16.55,13 16,13ZM16,3L16,4L8,4L8,3C8,2.45 7.55,2 7,2C6.45,2 6,2.45 6,3L6,4L5,4C3.89,4 3.01,4.9 3.01,6L3,20C3,21.1 3.89,22 5,22L19,22C20.1,22 21,21.1 21,20L21,6C21,4.9 20.1,4 19,4L18,4L18,3C18,2.45 17.55,2 17,2C16.45,2 16,2.45 16,3ZM18,20L6,20C5.45,20 5,19.55 5,19L5,9L19,9L19,19C19,19.55 18.55,20 18,20Z" style="fill:white;fill-rule:nonzero;"/>
            </g>
            <g transform="matrix(4.82042,0,0,5.54216,2814.83,394.25)">
                <path d="M11,6L9,6L9,4L11,4L11,6ZM15,4L13,4L13,6L15,6L15,4ZM9,14L11,14L11,12L9,12L9,14ZM19,10L19,8L17,8L17,10L19,10ZM19,14L19,12L17,12L17,14L19,14ZM13,14L15,14L15,12L13,12L13,14ZM19,4L17,4L17,6L19,6L19,4ZM13,8L13,6L11,6L11,8L13,8ZM7,10L7,8L9,8L9,6L7,6L7,5C7,4.45 6.55,4 6,4C5.45,4 5,4.45 5,5L5,17.066C5,17.616 5.45,18.066 6,18.066C6.55,18.066 7,17.616 7,17.066L7,12L9,12L9,10L7,10ZM15,12L17,12L17,10L15,10L15,12ZM11,10L11,12L13,12L13,10L11,10ZM9,8L9,10L11,10L11,8L9,8ZM13,10L15,10L15,8L13,8L13,10ZM15,6L15,8L17,8L17,6L15,6Z" style="fill:rgb(67,75,172);fill-rule:nonzero;"/>
            </g>
            <g transform="matrix(3.44725,0,0,0.647139,2501.56,950.911)">
                <g transform="matrix(0.716122,-0,-0,4.31316,-333.603,-1649.88)">
                    <path d="M879.938,452.011L863.271,452.011" style="fill:none;stroke:rgb(186,188,190);stroke-width:4.17px;stroke-linejoin:miter;stroke-miterlimit:10;"/>
                    <path d="M871.604,452.011L871.604,491.636" style="fill:none;stroke:rgb(186,188,190);stroke-width:4.17px;"/>
                </g>
            </g>
            <g transform="matrix(3.44725,0,0,1.05444,2501.56,1497.26)">
                <g transform="matrix(0.716122,-0,-0,2.64712,-333.603,-1530.73)">
                    <path d="M877.854,746.854L871.604,753.104L865.354,746.854" style="fill:none;stroke:rgb(186,188,190);stroke-width:4.17px;stroke-linejoin:miter;stroke-miterlimit:10;"/>
                    <path d="M871.604,688.091L871.604,753.104" style="fill:none;stroke:rgb(186,188,190);stroke-width:4.17px;stroke-dasharray:8.33,8.33,0,0,0,0;"/>
                </g>
            </g>
            <g transform="matrix(1.42598,0,0,1.63949,-38707.9,-43416)">
                <text x="29223px" y="27320.2px" style="font-family:'Marianne-Regular', 'Marianne';font-size:44.576px;fill:rgb(67,75,172);">P<tspan x="29247px 29262px 29289px 29312.5px 29327.9px 29351.6px 29392.4px 29433.1px " y="27320.2px 27320.2px 27320.2px 27320.2px 27320.2px 27320.2px 27320.2px 27320.2px ">rogramme</tspan></text>
                <text x="29223px" y="27384.6px" style="font-family:'Marianne-Regular', 'Marianne';font-size:44.576px;fill:rgb(67,75,172);">s<tspan x="29241.4px 29267px 29283.4px 29294.1px 29334.9px 29359.2px 29377.6px 29403.2px 29418.3px 29442.5px " y="27384.6px 27384.6px 27384.6px 27384.6px 27384.6px 27384.6px 27384.6px 27384.6px 27384.6px 27384.6px ">ur mesure,</tspan></text>
                <text x="29223px" y="27449px" style="font-family:'Marianne-Regular', 'Marianne';font-size:44.576px;fill:rgb(67,75,172);">b<tspan x="29251.1px 29274.9px 29293px 29317.6px 29327.8px 29346.2px 29371.8px 29388.2px 29398.9px 29409.3px 29433.7px " y="27449px 27449px 27449px 27449px 27449px 27449px 27449px 27449px 27449px 27449px 27449px ">asé sur les</tspan></text>
                <text x="29223px" y="27513.4px" style="font-family:'Marianne-Regular', 'Marianne';font-size:44.576px;fill:rgb(67,75,172);">e<tspan x="29247.6px 29273.9px 29292.1px 29316.6px 29327.1px 29350.5px 29376.9px 29401.4px 29442.2px 29466.8px 29493.1px 29510.5px " y="27513.4px 27513.4px 27513.4px 27513.4px 27513.4px 27513.4px 27513.4px 27513.4px 27513.4px 27513.4px 27513.4px 27513.4px ">nseignements</tspan></text>
                <g transform="matrix(44.5759,0,0,44.5759,29481.3,27577.8)">
                </g>
                <text x="29223px" y="27577.8px" style="font-family:'Marianne-Regular', 'Marianne';font-size:44.576px;fill:rgb(67,75,172);">d<tspan x="29251px 29276.6px 29287.3px 29310.6px 29335.2px 29376px 29403.5px 29421.9px 29432.6px 29460.7px " y="27577.8px 27577.8px 27577.8px 27577.8px 27577.8px 27577.8px 27577.8px 27577.8px 27577.8px 27577.8px ">u Temps #1</tspan></text>
            </g>
            <g transform="matrix(0.515664,0,4.02378e-33,0.583044,2350.79,92.6403)">
                <path d="M1252.52,1802.19C1252.52,1840.06 1278.18,1868.71 1312.57,1868.71C1314.12,1868.71 1315.65,1868.65 1317.15,1868.53L1317.15,1824.96C1306.24,1823.01 1298.61,1813.88 1298.61,1802.19C1298.61,1790.5 1306.24,1781.36 1317.15,1779.41L1317.15,1735.85C1315.65,1735.72 1314.12,1735.66 1312.57,1735.66C1278.18,1735.66 1252.52,1764.32 1252.52,1802.19Z" style="fill:rgb(0,0,145);fill-rule:nonzero;"/>
            </g>
            <g transform="matrix(0.515664,0,4.0657e-33,0.589119,1638.7,83.049)">
                <rect x="2980.24" y="1738.65" width="44.85" height="127.07" style="fill:rgb(225,0,15);fill-rule:nonzero;"/>
            </g>
            <g transform="matrix(0.515664,0,4.21314e-33,0.610483,1499.99,43.1903)">
                <rect x="2980.24" y="1738.65" width="44.85" height="127.07" style="fill:rgb(0,0,145);fill-rule:nonzero;"/>
            </g>
            <g transform="matrix(0.515664,0,3.46625e-33,0.502258,1156.56,243.364)">
                <path d="M3551.17,1686.33L3551.29,1865.72L3506.44,1865.72L3506.44,1686.33L3551.17,1686.33Z" style="fill:rgb(0,0,145);"/>
            </g>
            <g transform="matrix(1.09768,0,8.56528e-33,1.24111,426.031,2390.27)">
                <g transform="matrix(0.469777,0,0,0.469777,1348.14,-1968.69)">
                    <path d="M2300.44,2015.46C2312.15,2015.46 2321.86,2019.7 2332.08,2025.43L2351.27,1998.02C2338.81,1989.8 2322.36,1981.83 2298.69,1981.83C2294.93,1981.83 2291.26,1982.04 2287.71,1982.46L2287.71,2019.75C2288.81,2016.67 2294.21,2015.46 2300.44,2015.46Z" style="fill:rgb(225,0,15);"/>
                </g>
                <g transform="matrix(0.469777,0,0,0.469777,1348.14,-1968.69)">
                    <path d="M2301.41,2084.32C2301.42,2084.32 2308.72,2081.95 2309.08,2076.76C2309.32,2073.31 2307.03,2071.08 2303.48,2069.59C2300.23,2068.22 2295.51,2067.19 2289.86,2066.04C2288.88,2065.84 2287.87,2065.63 2286.85,2065.42L2286.85,2025.78C2287.99,2029.47 2294.98,2031.11 2304.55,2032.93C2323.99,2036.67 2352.39,2042.9 2352.39,2074.29C2352.39,2103.44 2327.23,2118.64 2294.84,2118.64C2292.08,2118.64 2289.43,2118.52 2286.85,2118.31L2286.85,2084.61C2288.88,2084.84 2290.94,2085.01 2293.09,2085.01C2296.4,2085.01 2299.06,2084.89 2301.41,2084.32Z" style="fill:rgb(225,0,15);"/>
                </g>
            </g>
            <g transform="matrix(1.09768,0,8.56528e-33,1.24111,371.811,2401.73)">
                <g transform="matrix(0.469777,0,0,0.469777,1614.44,-1859.36)">
                    <path d="M2265.3,1828.4C2256.45,1828.4 2249.32,1824.98 2244.63,1819.01L2244.63,1863.89C2250.77,1865.4 2257.25,1866.27 2264.05,1866.27C2286.72,1866.27 2306.66,1857.55 2320.36,1843.35L2290.96,1817.44C2286.23,1822.42 2277.01,1828.4 2265.3,1828.4Z" style="fill:rgb(225,0,15);"/>
                </g>
                <g transform="matrix(0.469777,0,0,0.469777,1614.44,-1859.36)">
                    <path d="M2260.81,1735.66C2255.19,1735.66 2249.8,1736.32 2244.63,1737.45L2244.63,1781.46C2248.53,1776.46 2253.92,1773.53 2260.31,1773.53C2269.28,1773.53 2277.01,1779.26 2280.25,1789.23L2244.63,1789.23L2244.63,1814.89L2327.09,1814.89C2327.84,1811.66 2328.09,1806.67 2328.09,1803.18C2328.09,1764.07 2299.18,1735.66 2260.81,1735.66Z" style="fill:rgb(225,0,15);"/>
                </g>
            </g>
            <g transform="matrix(0.515664,0,4.0657e-33,0.589119,1676.2,83.049)">
                <rect x="2980.24" y="1738.65" width="44.85" height="127.07" style="fill:rgb(225,0,15);fill-rule:nonzero;"/>
            </g>
            <g transform="matrix(0.515664,0,1.41553e-33,0.20511,1676.2,707.66)">
                <rect x="2980.24" y="1738.65" width="44.85" height="127.07" style="fill:rgb(225,0,15);fill-rule:nonzero;"/>
            </g>
            <g transform="matrix(0.515664,0,4.02378e-33,0.583044,1944.6,-49.4673)">
                <path d="M2575.64,1954.92L2530.79,1954.92L2530.79,1984.82L2530.53,1984.82L2530.53,2025.68L2530.79,2025.68L2530.79,2066.29C2530.79,2093.95 2545.24,2114.88 2579.63,2114.88C2589.6,2114.88 2597.57,2113.13 2605.29,2109.14L2605.29,2067.29C2600.8,2069.53 2595.33,2071.52 2589.34,2071.52C2579.88,2071.52 2575.64,2066.29 2575.64,2058.81L2575.64,2025.68L2605.29,2025.68L2605.29,1984.82L2575.64,1984.82L2575.64,1954.92Z" style="fill:rgb(225,0,15);fill-rule:nonzero;"/>
            </g>
            <g transform="matrix(0.515664,0,4.02378e-33,0.583044,1725.9,-50.8876)">
                <path d="M2786.43,2071.52C2776.47,2071.52 2769.74,2064.79 2769.74,2054.58L2769.74,1984.82L2724.89,1984.82L2724.89,2060.81C2724.89,2093.45 2749.31,2114.88 2786.43,2114.88C2790.8,2114.88 2794.98,2114.55 2798.98,2113.98L2798.98,2066.3C2796.04,2069.59 2791.71,2071.52 2786.43,2071.52Z" style="fill:rgb(225,0,15);fill-rule:nonzero;"/>
            </g>
            <g transform="matrix(3.44725,0,0,3.89769,2829.31,624.318)">
                <path d="M5,13L16.17,13L11.29,17.88C10.9,18.27 10.9,18.91 11.29,19.3C11.68,19.69 12.31,19.69 12.7,19.3L19.29,12.71C19.68,12.32 19.68,11.69 19.29,11.3L12.71,4.7C12.32,4.31 11.69,4.31 11.3,4.7C10.91,5.09 10.91,5.72 11.3,6.11L16.17,11L5,11C4.45,11 4,11.45 4,12C4,12.55 4.45,13 5,13Z" style="fill-rule:nonzero;stroke:rgb(87,94,181);stroke-width:0.72px;stroke-linecap:butt;stroke-miterlimit:2;"/>
            </g>
            <g transform="matrix(3.83235,0,0,4.33311,2823.97,1312.45)">
                <path d="M16.48,10.41C16.09,10.8 15.44,10.8 15.05,10.41L10.58,5.95L3.53,12.99L2.87,12.36C1.7,11.19 1.7,9.29 2.87,8.12L7.11,3.88C8.28,2.71 10.18,2.71 11.35,3.88L16.48,9C16.87,9.39 16.87,10.02 16.48,10.41ZM17.18,8.29C17.96,9.07 17.96,10.34 17.18,11.12C15.91,12.39 14.57,11.34 14.35,11.12L10.59,7.36L5.02,12.93C4.63,13.32 4.63,13.95 5.02,14.34C5.41,14.73 6.04,14.73 6.44,14.34L11.06,9.72L11.77,10.43L7.15,15.05C6.76,15.44 6.76,16.07 7.15,16.46C7.54,16.85 8.17,16.85 8.57,16.46L13.19,11.84L13.9,12.55L9.28,17.17C8.89,17.56 8.89,18.19 9.28,18.58C9.67,18.97 10.3,18.97 10.69,18.58L15.31,13.96L16.02,14.67L11.4,19.29C11.01,19.68 11.01,20.31 11.4,20.7C11.79,21.09 12.42,21.09 12.81,20.7L21.13,12.36C22.3,11.19 22.3,9.29 21.13,8.12L16.89,3.88C15.74,2.73 13.88,2.71 12.71,3.82L17.18,8.29Z" style="fill:rgb(67,75,172);fill-rule:nonzero;"/>
            </g>
        </g>
    </g>
</svg>
