<svg width="64" height="64" viewBox="0 0 64 64" fill="none" xmlns="http://www.w3.org/2000/svg">
<path d="M55.3531 19.4525H16.8394C12.465 19.4525 8.06606 22.8947 7.01421 27.1408L4 39.3087V15.6976C4 13.1559 4.58282 11.2415 5.74845 9.95457C6.92902 8.65152 8.56539 8 10.6575 8H17.0013C17.7783 8 18.4508 8.0563 19.0187 8.16891C19.5866 8.28152 20.1096 8.47457 20.5878 8.74805C21.066 9.00544 21.5666 9.3674 22.0897 9.83392L23.3674 10.9681C23.995 11.4989 24.5853 11.877 25.1383 12.1022C25.6912 12.3274 26.3711 12.44 27.1781 12.44H48.025C50.4309 12.44 52.2541 13.1076 53.4945 14.4428C54.607 15.6262 55.2265 17.2961 55.3531 19.4525Z" fill="#C83F49"/>
<path d="M11.3531 54C8.93219 54 7.27319 53.3071 6.37613 51.9213C5.47493 50.5522 5.3552 48.532 6.01696 45.8606L10.6542 27.1409C11.2228 24.8457 13.6005 22.9851 15.9651 22.9851H58.7796C61.1442 22.9851 62.6002 24.8457 62.0316 27.1409L57.3944 45.8606C56.7326 48.532 55.6344 50.5522 54.0997 51.9213C52.5609 53.3071 50.723 54 48.586 54H11.3531Z" fill="#2845C1"/>
</svg>
