<svg
  width="109"
  height="60"
  viewBox="0 0 109 60"
  fill="none"
  xmlns="http://www.w3.org/2000/svg"
>
  <rect width="33" height="12" fill="url(#paint0_linear_5795_13250)" />
  <g clip-path="url(#clip0_5795_13250)">
    <g clip-path="url(#clip1_5795_13250)">
      <path
        d="M8.475 6.8999C7.8 7.3499 7.2 7.8749 6.75 8.4749V8.3999C7.05 8.0249 7.275 7.6499 7.5 7.2749C7.8 7.1249 8.025 6.8999 8.25 6.6749C8.625 6.2999 9 5.9249 9.525 5.6999C9.75 5.6249 9.9 5.6249 10.125 5.6999C10.05 5.7749 9.975 5.7749 9.825 5.8499H9.75V5.7749C9.525 5.9999 9.225 6.1499 9 6.4499C8.925 6.5999 8.85 6.8999 8.475 6.8999C8.55 6.8999 8.475 6.9749 8.475 6.8999ZM9.675 10.3499C9.675 10.2749 9.6 10.3499 9.525 10.3499L9.45 10.4249L9.375 10.4999L9.225 10.6499C9.225 10.6499 9.3 10.7249 9.375 10.6499L9.45 10.5749C9.525 10.5749 9.6 10.4999 9.6 10.4249C9.675 10.4249 9.675 10.4249 9.675 10.3499ZM8.475 7.1249C8.55 7.1249 8.625 7.1249 8.625 7.0499C8.625 6.9749 8.7 6.9749 8.7 6.9749V6.8999C8.55 6.9749 8.475 7.0499 8.475 7.1249ZM10.275 8.5499C10.35 8.4749 10.425 8.4749 10.5 8.4749C11.025 8.3999 11.55 8.2499 12.075 8.0249C11.475 7.6499 10.8 7.3499 10.125 7.2749H10.2C10.125 7.1999 9.975 7.1999 9.825 7.1249H9.9C9.75 7.0499 9.525 7.0499 9.375 6.9749C9.45 6.9749 9.525 6.8249 9.525 6.7499H9.45C9.15 6.8999 9 7.1249 8.85 7.4249C9 7.4999 9.225 7.4249 9.375 7.4999H9.15C9.075 7.4999 9 7.5749 9 7.6499H9.075C9 7.6499 9 7.7249 8.925 7.7249C9 7.7999 9.075 7.7249 9.225 7.7249C9.225 7.7999 9.3 7.7999 9.3 7.7999C9.225 7.7999 9.15 7.8749 9.075 8.0249C9 8.1749 8.925 8.1749 8.85 8.2499V8.3249C8.625 8.4749 8.4 8.6999 8.175 8.9249V8.9999C8.1 9.0749 8.025 9.0749 8.025 9.1499V9.2249C8.325 9.1499 8.475 8.9249 8.775 8.8499L9.225 8.6249C9.375 8.6249 9.45 8.5499 9.6 8.5499V8.6249H9.75C9.75 8.6999 9.6 8.6249 9.675 8.6999C9.75 8.7749 9.9 8.7749 9.975 8.6999C10.125 8.5499 10.2 8.5499 10.275 8.5499ZM9.3 9.7499C9 9.8999 8.625 9.8999 8.4 10.0499C8.4 10.0499 8.4 10.1249 8.325 10.1249C8.325 10.1249 8.25 10.1249 8.25 10.1999C8.175 10.1999 8.175 10.2749 8.1 10.3499L8.025 10.4249C8.025 10.4249 8.025 10.4999 8.1 10.4249L8.175 10.3499C8.175 10.3499 8.1 10.4249 8.1 10.4999V10.7249L8.025 10.7999C8.025 10.7999 8.025 10.8749 7.95 10.8749L7.875 10.9499L8.025 10.7999L8.1 10.7249H8.25C8.25 10.7249 8.25 10.6499 8.325 10.6499C8.4 10.5749 8.475 10.4999 8.55 10.4999H8.625C8.7 10.4249 8.85 10.4249 8.925 10.3499C9 10.2749 9.075 10.1999 9.15 10.1999C9.3 10.0499 9.525 9.9749 9.75 9.8249C9.675 9.8249 9.6 9.7499 9.525 9.7499C9.525 9.8249 9.375 9.7499 9.3 9.7499ZM22.5 6.5249C22.425 6.6749 22.2 6.6749 22.05 6.7499C21.9 6.8999 22.05 7.0499 22.125 7.1249C22.2 7.3499 21.975 7.4999 21.825 7.4999C21.9 7.5749 21.975 7.5749 21.975 7.5749C21.975 7.7249 22.125 7.7249 22.05 7.8749C21.975 8.0249 21.675 8.0999 21.825 8.2499C21.9 8.3999 21.9 8.6249 21.825 8.7749C21.75 8.9249 21.6 9.0749 21.45 9.1499C21.3 9.2249 21.15 9.2249 21 9.1499C20.925 9.1499 20.925 9.0749 20.85 9.0749C20.475 8.9999 20.1 8.9249 19.725 8.9249C19.65 8.9249 19.5 8.9999 19.425 8.9999C19.35 9.0749 19.2 9.1499 19.125 9.2249L19.05 9.2999C18.975 9.3749 18.9 9.4499 18.9 9.5249C18.825 9.6749 18.75 9.8249 18.75 9.9749C18.6 10.3499 18.6 10.7249 18.75 11.0249C18.75 11.0249 19.5 11.2499 20.025 11.4749C20.175 11.5499 20.4 11.6249 20.55 11.7749L21.825 12.5249H9.9L11.1 11.7749C11.55 11.4749 12.075 11.2499 12.6 11.0249C12.975 10.8749 13.425 10.6499 13.725 10.3499C13.875 10.1999 13.95 10.0499 14.1 9.9749C14.325 9.6749 14.55 9.4499 14.85 9.2249L15.075 8.9999C15.075 8.9999 15.075 8.9249 15.15 8.9249C15 8.9999 15 9.0749 14.85 9.0749C14.85 9.0749 14.775 9.0749 14.85 8.9999C14.925 8.9249 15 8.8499 15.075 8.8499V8.7749C14.775 8.7749 14.55 8.9249 14.325 9.1499H14.175C13.8 9.2999 13.575 9.5249 13.275 9.6749V9.5999C13.125 9.6749 12.975 9.7499 12.9 9.7499C12.75 9.7499 12.525 9.8249 12.3 9.7499C12 9.7499 11.775 9.8249 11.475 9.8999C11.325 9.9749 11.175 9.9749 11.025 10.0499V10.1249L10.875 10.2749C10.725 10.3499 10.65 10.4249 10.5 10.5749L10.125 10.9499H10.05L10.125 10.8749L10.2 10.7999C10.2 10.7249 10.275 10.7249 10.275 10.6499C10.425 10.5749 10.5 10.4249 10.65 10.3499C10.65 10.3499 10.65 10.2749 10.725 10.2749L10.65 10.3499C10.575 10.4249 10.575 10.4999 10.5 10.4999V10.4249V10.3499L10.65 10.1999C10.725 10.1249 10.8 10.1249 10.875 10.0499H10.95C10.8 10.1249 10.725 10.1249 10.575 10.1999H10.5H10.425C10.425 10.1249 10.5 10.1249 10.575 10.0499H10.65C11.4 9.4499 12.375 9.5999 13.2 9.2999C13.275 9.2249 13.35 9.2249 13.425 9.1499C13.5 9.0749 13.65 8.9999 13.8 8.9249C13.95 8.7749 14.1 8.6249 14.175 8.3999V8.3249C13.875 8.6249 13.575 8.8499 13.2 9.0749C12.75 9.2249 12.225 9.3749 11.7 9.3749C11.7 9.2999 11.775 9.2999 11.775 9.2999C11.775 9.2249 11.85 9.2249 11.85 9.1499H11.925C11.925 9.1499 11.925 9.0749 12 9.0749H12.075C12 8.9999 11.85 9.1499 11.775 9.0749C11.85 8.9999 11.775 8.9249 11.85 8.9249H11.925C11.925 8.9249 11.925 8.8499 12 8.8499C12.375 8.6249 12.675 8.4749 12.975 8.3249C12.9 8.3249 12.9 8.3999 12.825 8.3249C12.9 8.3249 12.825 8.2499 12.9 8.2499C13.125 8.1749 13.35 8.0249 13.575 7.9499C13.5 7.9499 13.425 8.0249 13.35 7.9499C13.425 7.9499 13.425 7.8749 13.5 7.8749V7.7999C13.5 7.7249 13.575 7.7999 13.65 7.7249H13.575C13.65 7.6499 13.725 7.5749 13.875 7.5749C13.875 7.4999 13.8 7.5749 13.8 7.4999H13.875H13.5C13.425 7.4999 13.5 7.4249 13.5 7.4249C13.575 7.2749 13.65 7.0499 13.725 6.8999H13.65C13.425 7.1249 13.05 7.2749 12.75 7.3499H12.6C12.45 7.4249 12.3 7.4249 12.225 7.3499C12.15 7.2749 12.075 7.1999 12 7.1999C11.85 7.1249 11.625 6.9749 11.4 6.8999C10.875 6.7499 10.275 6.5999 9.675 6.6749C9.9 6.5999 10.2 6.5249 10.5 6.4499C10.875 6.2999 11.25 6.2249 11.625 6.2249H11.4C11.1 6.2249 10.725 6.2999 10.425 6.3749C10.2 6.4499 9.975 6.5249 9.75 6.5249C9.6 6.5999 9.525 6.6749 9.375 6.6749V6.5999C9.6 6.2999 9.9 6.0749 10.2 5.9999C10.575 5.9249 11.025 5.9999 11.4 6.0749C11.7 6.0749 12 6.1499 12.225 6.2249C12.3 6.2249 12.375 6.3749 12.45 6.4499C12.6 6.5249 12.75 6.4499 12.825 6.5249V6.3749C12.9 6.2999 13.05 6.3749 13.125 6.3749C13.275 6.2249 12.975 6.0749 12.9 5.9249V5.8499C13.05 5.9999 13.275 6.1499 13.425 6.2999C13.5 6.3749 13.8 6.4499 13.8 6.2999C13.65 6.0749 13.5 5.8499 13.275 5.6249V5.4749C13.2 5.4749 13.2 5.4749 13.2 5.3999C13.125 5.3249 13.125 5.2499 13.125 5.1749C13.05 5.0249 13.125 4.8749 13.05 4.7999C12.975 4.6499 12.975 4.5749 12.975 4.4249C12.9 4.0499 12.825 3.6749 12.75 3.3749C12.675 2.9249 12.975 2.6249 13.2 2.2499C13.35 1.9499 13.575 1.7249 13.8 1.4999C13.875 1.1999 14.025 0.974902 14.25 0.749902C14.475 0.524902 14.7 0.374902 14.925 0.299902C15.15 0.224902 15.3 0.149902 15.525 0.0749024L17.4 -0.225098H18.75L20.1 -9.76473e-05C20.175 -9.76473e-05 20.25 -9.76324e-05 20.25 0.0749024C20.325 0.149902 20.475 0.224902 20.55 0.224902C20.7 0.299902 20.85 0.449902 21 0.599902C21.075 0.674902 21.15 0.824902 21.075 0.899902C21 0.974902 21 1.1999 20.925 1.1999C20.775 1.2749 20.625 1.2749 20.475 1.2749C20.4 1.2749 20.325 1.2749 20.175 1.1999C20.55 1.3499 20.85 1.4999 21.075 1.7999C21.075 1.8749 21.225 1.8749 21.3 1.8749V1.9499C21.225 2.0249 21.225 2.0249 21.225 2.0999H21.3C21.375 2.0249 21.375 1.7999 21.525 1.8749C21.675 1.9499 21.675 2.0999 21.6 2.1749C21.525 2.2499 21.45 2.3249 21.3 2.3999V2.5499C21.375 2.6249 21.375 2.6999 21.45 2.8499C21.525 2.9999 21.525 3.2249 21.6 3.3749C21.675 3.7499 21.75 4.0499 21.75 4.4249C21.75 4.5749 21.675 4.7999 21.75 4.9499L21.975 5.3999C22.05 5.5499 22.125 5.6249 22.2 5.7749C22.35 5.9999 22.65 6.2249 22.5 6.5249ZM10.8 10.4249C10.725 10.4249 10.725 10.4999 10.725 10.4999C10.725 10.4999 10.8 10.4999 10.8 10.4249ZM10.125 8.9249C10.125 8.9999 10.2 8.9249 10.2 8.9249C10.35 8.8499 10.575 8.9249 10.65 8.7749C10.575 8.6999 10.5 8.7749 10.5 8.6999C10.425 8.6999 10.35 8.6999 10.35 8.7749C10.275 8.8499 10.125 8.8499 10.125 8.9249Z"
        fill="white"
      />
      <path
        d="M20.925 4.3501C21 4.3501 21.15 4.3501 21.15 4.4251C21.075 4.5751 20.85 4.6501 20.7 4.8001H20.625C20.55 4.8751 20.55 4.9501 20.55 4.9501H20.325C20.4 5.0251 20.55 5.1001 20.7 5.1001L20.775 5.1751H20.925V5.2501C20.85 5.3251 20.775 5.3251 20.625 5.3251C20.775 5.4001 21 5.4001 21.15 5.3251C21.3 5.2501 21.15 5.0251 21.225 4.9501C21.15 4.9501 21.225 4.8751 21.15 4.8751C21.225 4.8001 21.225 4.7251 21.3 4.7251C21.375 4.7251 21.375 4.7251 21.45 4.6501C21.45 4.5751 21.375 4.5751 21.375 4.5001C21.525 4.4251 21.6 4.2751 21.6 4.1251C21.6 4.0501 21.375 4.0501 21.3 3.9751H20.925C20.775 3.9751 20.7 4.0501 20.55 4.0501L20.1 4.2751C20.25 4.2001 20.4 4.2001 20.625 4.1251C20.625 4.3501 20.775 4.3501 20.925 4.3501Z"
        fill="#7C7C7C"
      />
    </g>
  </g>
  <path
    d="M5.355 25.5762C6.1866 25.5762 6.9048 25.2864 7.4088 24.8076V23.2704H5.166V21.7458H9.198V25.4502C8.379 26.5464 7.0056 27.252 5.355 27.252C2.4948 27.252 0.5418 25.11 0.5418 22.59C0.5418 20.07 2.4444 17.928 5.229 17.928C6.8292 17.928 8.1396 18.6462 8.946 19.7172L7.5348 20.8134C7.0308 20.0952 6.237 19.6038 5.229 19.6038C3.5658 19.6038 2.3814 20.9016 2.3814 22.59C2.3814 24.2784 3.6288 25.5762 5.355 25.5762ZM15.2175 17.928C17.9895 17.928 19.8921 20.07 19.8921 22.59C19.8921 25.11 17.9895 27.252 15.2175 27.252C12.4329 27.252 10.5303 25.11 10.5303 22.59C10.5303 20.07 12.4329 17.928 15.2175 17.928ZM15.2175 25.5762C16.8681 25.5762 18.0525 24.2784 18.0525 22.59C18.0525 20.9016 16.8681 19.6038 15.2175 19.6038C13.5543 19.6038 12.3699 20.9016 12.3699 22.59C12.3699 24.2784 13.5543 25.5762 15.2175 25.5762ZM26.8084 23.6988V18.18H28.5976V23.5476C28.5976 25.866 27.2368 27.252 25.0192 27.252C22.8142 27.252 21.4534 25.866 21.4534 23.5476V18.18H23.2426V23.6988C23.2426 24.8832 23.9104 25.5762 25.0318 25.5762C26.128 25.5762 26.8084 24.8832 26.8084 23.6988ZM29.7114 18.18H31.614L34.2222 25.0722L36.8304 18.18H38.733L35.394 27H33.0504L29.7114 18.18ZM40.095 27V18.18H45.2358V19.6668H41.8842V21.7584H44.7318V23.2452H41.8842V25.5132H45.2358V27H40.095ZM47.3149 27V18.18H50.0113C51.9517 18.18 53.1487 19.1754 53.1487 20.8134C53.1487 21.8844 52.6321 22.6782 51.7249 23.094L54.4843 27H52.3801L50.0239 23.4342H49.1041V27H47.3149ZM50.1121 19.6668H49.1041V21.9474H50.1121C50.8681 21.9474 51.3091 21.5064 51.3091 20.7882C51.3091 20.1204 50.8681 19.6668 50.1121 19.6668ZM55.6176 27V18.18H57.9108L61.8546 24.5556V18.18H63.6438V27H61.3506L57.4068 20.6244V27H55.6176ZM66.1105 27V18.18H71.2513V19.6668H67.8997V21.7584H70.7473V23.2452H67.8997V25.5132H71.2513V27H66.1105ZM73.3304 27V18.18H75.5606L77.7152 21.8844L79.8698 18.18H82.1V27H80.3108V20.6748L78.3452 23.976H77.0852L75.1196 20.6748V27H73.3304ZM84.5617 27V18.18H89.7025V19.6668H86.3509V21.7584H89.1985V23.2452H86.3509V25.5132H89.7025V27H84.5617ZM91.7816 27V18.18H94.0748L98.0186 24.5556V18.18H99.8078V27H97.5146L93.5708 20.6244V27H91.7816ZM101.367 19.8054V18.18H108.6V19.8054H105.878V27H104.089V19.8054H101.367Z"
    fill="#161616"
  />
  <g clip-path="url(#clip2_5795_13250)">
    <g clip-path="url(#clip3_5795_13250)">
      <g clip-path="url(#clip4_5795_13250)">
        <g clip-path="url(#clip5_5795_13250)">
          <g clip-path="url(#clip6_5795_13250)">
            <path
              d="M30.775 56.45C31.15 55.5 30.7 55.125 30.15 55.125C29.225 55.125 28.175 56.75 28.175 58.05C28.175 58.675 28.475 59 28.925 59C29.45 59 30 58.5 30.475 57.625H30.225C29.925 58 29.575 58.275 29.25 58.275C28.925 58.275 28.75 58.075 28.75 57.625C28.7558 57.4396 28.781 57.2552 28.825 57.075L30.775 56.45ZM29.775 55.675C30.05 55.675 30.275 55.875 30.15 56.325L28.95 56.65C29.15 56.1 29.5 55.65 29.8 55.65L29.775 55.675Z"
              fill="#161616"
            />
          </g>
          <path
            d="M30.15 54.6999L31.275 53.6749V53.5249H30.525L29.85 54.6999H30.175H30.15Z"
            fill="#161616"
          />
        </g>
        <g clip-path="url(#clip7_5795_13250)">
          <path
            d="M25.975 55.675H26.625L25.575 58.525C25.5421 58.576 25.5242 58.6352 25.5232 58.6959C25.5222 58.7565 25.5382 58.8163 25.5694 58.8683C25.6007 58.9204 25.6458 58.9626 25.6998 58.9903C25.7538 59.018 25.8145 59.03 25.875 59.025C26.625 59.025 27.475 58.375 27.825 57.475H27.65C27.3359 57.9021 26.8865 58.2105 26.375 58.35L27.3 55.675H28.3L28.425 55.275H27.475L27.8 54.25H27.45L26.775 55.275L25.975 55.375V55.675Z"
            fill="#161616"
          />
        </g>
        <g clip-path="url(#clip8_5795_13250)">
          <path
            d="M25.3 55.5249C25.375 55.2749 25.2 55.1249 25.05 55.1249C24.5 55.1249 23.8 55.6499 23.55 56.3749H23.725C23.9026 56.0881 24.1778 55.875 24.5 55.7749L23.425 58.5999C23.4034 58.6422 23.3932 58.6894 23.3952 58.7368C23.3973 58.7843 23.4116 58.8304 23.4368 58.8707C23.4619 58.911 23.4971 58.9441 23.5389 58.9667C23.5806 58.9893 23.6275 59.0008 23.675 58.9999C24.225 58.9999 24.85 58.4999 25.125 57.7499H24.9C24.7378 58.0509 24.471 58.2821 24.15 58.3999L25.3 55.5249ZM25.4 54.4499C25.4591 54.4499 25.5176 54.4383 25.5722 54.4156C25.6268 54.393 25.6764 54.3599 25.7182 54.3181C25.76 54.2763 25.7932 54.2267 25.8158 54.1721C25.8384 54.1175 25.85 54.059 25.85 53.9999C25.8534 53.9387 25.8443 53.8775 25.8232 53.82C25.8021 53.7625 25.7695 53.7099 25.7274 53.6654C25.6853 53.6209 25.6345 53.5855 25.5782 53.5614C25.5219 53.5372 25.4613 53.5248 25.4 53.5249C25.2807 53.5249 25.1662 53.5723 25.0818 53.6567C24.9974 53.7411 24.95 53.8556 24.95 53.9749C24.95 54.0943 24.9974 54.2087 25.0818 54.2931C25.1662 54.3775 25.2807 54.4249 25.4 54.4249"
            fill="#161616"
          />
        </g>
        <g clip-path="url(#clip9_5795_13250)">
          <path
            d="M20.125 55.8999C20.3 55.8999 20.375 56.1499 20.125 56.7499L19.375 58.4499C19.2 58.7749 19.375 58.9999 19.675 58.9999C19.7577 59.0148 19.843 58.997 19.9129 58.9504C19.9828 58.9038 20.0319 58.8319 20.05 58.7499L20.8 56.7499C21.15 56.3249 21.8 55.8749 22.05 55.8749C22.3 55.8749 22.25 56.0249 22.125 56.2749L20.975 58.5249C20.9497 58.5734 20.9371 58.6276 20.9383 58.6823C20.9395 58.737 20.9545 58.7906 20.9819 58.838C21.0094 58.8854 21.0483 58.925 21.0952 58.9533C21.142 58.9816 21.1953 58.9976 21.25 58.9999C21.825 58.9999 22.5 58.4999 22.75 57.7499H22.6C22.4209 58.051 22.1355 58.274 21.8 58.3749L22.8 56.3749C22.9222 56.1611 22.9908 55.9209 23 55.6749C23.0079 55.6007 22.9991 55.5257 22.9742 55.4554C22.9494 55.3851 22.9091 55.3212 22.8564 55.2685C22.8036 55.2158 22.7398 55.1755 22.6695 55.1507C22.5991 55.1258 22.5242 55.117 22.45 55.1249C21.95 55.1249 21.55 55.6749 20.95 56.3749V55.8249C20.95 55.4749 20.825 55.1249 20.5 55.1249C20.1 55.1249 19.75 55.7499 19.475 56.3499H19.65C19.825 56.0749 19.975 55.8999 20.15 55.8999"
            fill="#161616"
          />
        </g>
        <g clip-path="url(#clip10_5795_13250)">
          <path
            d="M19.375 56C19.5 55.525 19.425 55.125 19.075 55.125C18.625 55.125 18.5 55.425 18.075 56.375V55.825C18.05 55.45 17.925 55.125 17.575 55.125C17.2 55.125 16.85 55.75 16.55 56.375H16.75C16.925 56.05 17.125 55.875 17.25 55.875C17.425 55.875 17.5 56.125 17.25 56.725L16.5 58.425C16.325 58.75 16.5 58.95 16.8 58.95C16.8827 58.9649 16.968 58.9472 17.0379 58.9006C17.1078 58.8539 17.1569 58.7821 17.175 58.7L17.925 56.7C18.1317 56.4415 18.3486 56.1913 18.575 55.95H19.375V56Z"
            fill="#161616"
          />
        </g>
        <g clip-path="url(#clip11_5795_13250)">
          <path
            d="M16.175 56.45C16.55 55.5 16.1 55.125 15.55 55.125C14.625 55.125 13.575 56.75 13.575 58.05C13.575 58.675 13.875 59 14.325 59C14.85 59 15.4 58.5 15.875 57.625H15.625C15.325 58 14.975 58.275 14.65 58.275C14.325 58.275 14.15 58.075 14.15 57.625C14.1559 57.4396 14.181 57.2552 14.225 57.075L16.175 56.45ZM15.175 55.675C15.45 55.675 15.675 55.875 15.55 56.325L14.35 56.65C14.55 56.1 14.9 55.65 15.2 55.65L15.175 55.675Z"
            fill="#161616"
          />
        </g>
        <g clip-path="url(#clip12_5795_13250)">
          <path
            d="M11.35 55.675H12L10.95 58.525C10.9171 58.576 10.8992 58.6352 10.8982 58.6959C10.8972 58.7565 10.9132 58.8163 10.9444 58.8683C10.9757 58.9204 11.0208 58.9626 11.0748 58.9903C11.1288 59.018 11.1895 59.03 11.25 59.025C12 59.025 12.85 58.375 13.2 57.475H13.025C12.7109 57.9021 12.2615 58.2105 11.75 58.35L12.675 55.675H13.675L13.8 55.275H12.85L13.175 54.25H12.825L12.15 55.275L11.35 55.375V55.675Z"
            fill="#161616"
          />
        </g>
        <g clip-path="url(#clip13_5795_13250)">
          <path
            d="M9.84996 58.2252C9.69996 58.2252 9.59996 57.9752 9.84996 57.3752L10.875 54.9752L10.575 54.9502L10.25 55.2752H10.175C8.74996 55.2752 7.22496 57.1002 7.22496 58.5002C7.22137 58.5701 7.23249 58.64 7.25761 58.7053C7.28272 58.7706 7.32126 58.8299 7.37075 58.8794C7.42024 58.9289 7.47956 58.9674 7.54488 58.9926C7.6102 59.0177 7.68007 59.0288 7.74996 59.0252C8.17496 59.0252 8.57496 58.4252 9.04996 57.7752L9.02496 58.0252C8.94996 58.6752 9.17496 59.0252 9.52496 59.0252C9.89996 59.0252 10.275 58.4252 10.525 57.8002H10.35C10.175 58.0752 9.97496 58.2502 9.84996 58.2502V58.2252ZM9.19996 57.4002C8.87496 57.8002 8.34996 58.2752 8.12496 58.2752C7.99996 58.2752 7.89996 58.1502 7.89996 57.8752C7.89996 57.0002 8.89996 55.8252 9.39996 55.8252C9.51862 55.822 9.63696 55.8389 9.74996 55.8752L9.19996 57.4002Z"
            fill="#161616"
          />
        </g>
        <g clip-path="url(#clip14_5795_13250)">
          <path
            d="M7.85004 56C7.97504 55.525 7.90004 55.125 7.55004 55.125C7.10004 55.125 6.97504 55.425 6.55004 56.375V55.825C6.52504 55.45 6.40004 55.125 6.05004 55.125C5.67504 55.125 5.32504 55.75 5.02504 56.375H5.22504C5.40004 56.05 5.60004 55.875 5.72504 55.875C5.90004 55.875 5.97504 56.125 5.72504 56.725L4.97504 58.425C4.80004 58.75 4.97504 58.95 5.27504 58.95C5.35775 58.9649 5.443 58.9472 5.51292 58.9006C5.58284 58.8539 5.63198 58.7821 5.65004 58.7L6.40004 56.7C6.60676 56.4415 6.82359 56.1913 7.05004 55.95H7.85004V56Z"
            fill="#161616"
          />
        </g>
        <g clip-path="url(#clip15_5795_13250)">
          <path
            d="M2.79998 58.8499L2.87498 58.6249C1.92498 58.4499 1.79998 58.4499 2.19998 57.4249L2.54998 56.4499H3.29998C3.77498 56.4499 3.77498 56.6749 3.69998 57.1999H3.94998L4.59998 55.4749H4.34998C4.09998 55.8749 3.89998 56.1999 3.39998 56.1999H2.64998L3.14998 54.7999C3.34998 54.2999 3.42498 54.1999 4.07498 54.1999H4.24998C4.89998 54.1999 4.99998 54.3749 4.99998 55.0749H5.24998L5.47498 53.8999H1.82498L1.74998 54.1249C2.49998 54.2749 2.57498 54.3499 2.24998 55.3249L1.42498 57.3999C1.04998 58.3749 0.924976 58.4499 0.0499756 58.5999L-0.0250244 58.8249L2.79998 58.8499Z"
            fill="#161616"
          />
        </g>
        <g clip-path="url(#clip16_5795_13250)">
          <g clip-path="url(#clip17_5795_13250)">
            <path
              d="M21.925 48.2C22.3 47.25 21.85 46.875 21.3 46.875C20.375 46.875 19.325 48.5 19.325 49.8C19.325 50.425 19.625 50.75 20.075 50.75C20.6 50.75 21.15 50.25 21.625 49.375H21.375C21.075 49.75 20.725 50.025 20.4 50.025C20.075 50.025 19.9 49.825 19.9 49.375C19.9059 49.1896 19.931 49.0052 19.975 48.825L21.925 48.2ZM20.925 47.425C21.2 47.425 21.425 47.625 21.3 48.075L20.1 48.4C20.3 47.85 20.65 47.4 20.95 47.4L20.925 47.425Z"
              fill="#161616"
            />
          </g>
          <path
            d="M21.3 46.4499L22.425 45.4249V45.2749H21.675L21 46.4499H21.325H21.3Z"
            fill="#161616"
          />
        </g>
        <g clip-path="url(#clip18_5795_13250)">
          <path
            d="M17.125 47.425H17.775L16.725 50.275C16.6921 50.326 16.6742 50.3852 16.6732 50.4459C16.6722 50.5065 16.6882 50.5663 16.7195 50.6183C16.7507 50.6704 16.7959 50.7126 16.8499 50.7403C16.9039 50.768 16.9645 50.78 17.025 50.775C17.775 50.775 18.625 50.125 18.975 49.225H18.8C18.4859 49.6521 18.0365 49.9605 17.525 50.1L18.45 47.425H19.45L19.575 47.025H18.625L18.95 46H18.6L17.925 47.025L17.125 47.125V47.425Z"
            fill="#161616"
          />
        </g>
        <g clip-path="url(#clip19_5795_13250)">
          <path
            d="M16.45 47.25C16.525 47 16.35 46.85 16.2 46.85C15.65 46.85 14.95 47.375 14.7 48.1H14.875C15.0526 47.8132 15.3278 47.6001 15.65 47.5L14.575 50.325C14.5534 50.3673 14.5431 50.4145 14.5452 50.4619C14.5472 50.5094 14.5615 50.5555 14.5867 50.5958C14.6119 50.6361 14.6471 50.6692 14.6888 50.6918C14.7306 50.7144 14.7775 50.7259 14.825 50.725C15.375 50.725 16 50.225 16.275 49.475H16.05C15.8878 49.776 15.621 50.0072 15.3 50.125L16.45 47.25ZM16.55 46.175C16.6091 46.175 16.6676 46.1634 16.7222 46.1407C16.7768 46.1181 16.8264 46.085 16.8682 46.0432C16.91 46.0014 16.9431 45.9518 16.9657 45.8972C16.9884 45.8426 17 45.7841 17 45.725C17.0034 45.6638 16.9943 45.6026 16.9732 45.5451C16.9521 45.4876 16.9195 45.435 16.8774 45.3905C16.8352 45.346 16.7845 45.3106 16.7282 45.2865C16.6719 45.2623 16.6113 45.2499 16.55 45.25C16.4306 45.25 16.3162 45.2974 16.2318 45.3818C16.1474 45.4662 16.1 45.5807 16.1 45.7C16.1 45.8193 16.1474 45.9338 16.2318 46.0182C16.3162 46.1026 16.4306 46.15 16.55 46.15"
            fill="#161616"
          />
        </g>
        <g clip-path="url(#clip20_5795_13250)">
          <path
            d="M13.075 50.1249L14.875 45.3499L14.8 45.2749L13.55 45.4249V45.5749L13.8 45.7499C14.025 45.9249 13.95 46.0749 13.75 46.5999L12.4 50.2499C12.3685 50.2991 12.3509 50.3559 12.349 50.4142C12.3471 50.4726 12.3609 50.5304 12.389 50.5815C12.4172 50.6327 12.4586 50.6753 12.5089 50.705C12.5592 50.7346 12.6166 50.7501 12.675 50.7499C13.25 50.7499 13.85 50.2249 14.125 49.4999H13.95C13.7377 49.8015 13.4291 50.0219 13.075 50.1249Z"
            fill="#161616"
          />
        </g>
        <g clip-path="url(#clip21_5795_13250)">
          <path
            d="M11.35 49.9752C11.2 49.9752 11.1 49.7252 11.35 49.1252L12.375 46.7252L12.075 46.7002L11.75 47.0252H11.675C10.25 47.0252 8.72496 48.8502 8.72496 50.2502C8.72137 50.3201 8.73249 50.39 8.75761 50.4553C8.78272 50.5206 8.82126 50.5799 8.87075 50.6294C8.92024 50.6789 8.97956 50.7174 9.04488 50.7426C9.1102 50.7677 9.18007 50.7788 9.24996 50.7752C9.67496 50.7752 10.075 50.1752 10.55 49.5252L10.525 49.7752C10.45 50.4252 10.675 50.7752 11.025 50.7752C11.4 50.7752 11.775 50.1752 12.025 49.5502H11.85C11.675 49.8252 11.475 50.0002 11.35 50.0002V49.9752ZM10.7 49.1502C10.375 49.5502 9.84996 50.0252 9.62496 50.0252C9.49996 50.0252 9.39996 49.9002 9.39996 49.6252C9.39996 48.7502 10.4 47.5752 10.9 47.5752C11.0186 47.572 11.137 47.5889 11.25 47.6252L10.7 49.1502Z"
            fill="#161616"
          />
        </g>
        <g clip-path="url(#clip22_5795_13250)">
          <path
            d="M9.15 47.0002H8.075C7.91845 46.8999 7.73591 46.8477 7.55 46.8502C7.11669 46.8501 6.70075 47.0205 6.39202 47.3246C6.0833 47.6286 5.90657 48.0419 5.9 48.4752C5.88969 48.5836 5.90095 48.693 5.93314 48.797C5.96532 48.9011 6.01779 48.9977 6.08751 49.0814C6.15724 49.1651 6.24284 49.2341 6.33938 49.2845C6.43592 49.335 6.54149 49.3658 6.65 49.3752C6.175 49.5752 5.9 49.8252 5.9 50.1002C5.9 50.1772 5.92093 50.2528 5.96057 50.3188C6.0002 50.3849 6.05703 50.4389 6.125 50.4752C5.05 50.8002 4.625 51.1752 4.625 51.6502C4.625 52.1502 5.275 52.3502 6.025 52.3502C7.35 52.3502 8.425 51.6752 8.425 51.0752C8.425 50.6252 8.025 50.4502 7.35 50.2502C6.8 50.0752 6.55 50.0502 6.55 49.8502C6.56644 49.752 6.60704 49.6595 6.66814 49.581C6.72924 49.5024 6.80892 49.4403 6.9 49.4002C7.31131 49.369 7.69601 49.1848 7.97828 48.884C8.26056 48.5832 8.41993 48.1876 8.425 47.7752C8.42962 47.6483 8.41272 47.5215 8.375 47.4002H9L9.15 47.0002ZM7.1 50.9002C7.625 51.0752 7.85 51.1502 7.85 51.3002C7.85 51.6502 7.35 51.9252 6.45 51.9252C5.775 51.9252 5.45 51.7752 5.45 51.4252C5.45 51.0502 5.8 50.8002 6.325 50.6002C6.56712 50.7189 6.81783 50.8191 7.075 50.9002H7.1ZM6.9 49.1002C6.65 49.1002 6.575 48.9002 6.575 48.6752C6.575 47.9752 6.925 47.1252 7.45 47.1252C7.7 47.1252 7.775 47.3252 7.775 47.5252C7.775 48.2502 7.425 49.1002 6.9 49.1002Z"
            fill="#161616"
          />
        </g>
        <g clip-path="url(#clip23_5795_13250)">
          <path
            d="M3.575 48.2252C4.05 48.2252 4.075 48.4252 3.975 48.9252H4.25L4.875 47.2252H4.625C4.375 47.6252 4.2 47.9502 3.675 47.9502H2.65L3.15 46.5502C3.325 46.0502 3.4 45.9502 4.075 45.9502H4.5C5.15 45.9502 5.25 46.1252 5.25 46.8252H5.5L5.725 45.6502H1.825L1.75 45.8752C2.5 46.0252 2.575 46.1002 2.25 47.0752L1.45 49.1752C1.075 50.1502 0.95 50.2252 0.05 50.3752L0 50.6252H4.35L5.15 49.3752H4.85C4.35 49.8752 3.85 50.3252 2.85 50.3252C1.675 50.3252 1.775 50.2502 2.175 49.1752L2.525 48.2252H3.575ZM4.15 45.2752L5.25 44.4752V44.3252H4.5L3.85 45.3002H4.15V45.2752Z"
            fill="#161616"
          />
        </g>
        <g clip-path="url(#clip24_5795_13250)">
          <g clip-path="url(#clip25_5795_13250)">
            <path
              d="M21.8 39.95C22.175 39 21.725 38.625 21.175 38.625C20.25 38.625 19.2 40.25 19.2 41.55C19.2 42.175 19.5 42.5 19.95 42.5C20.475 42.5 21.025 42 21.5 41.125H21.25C20.95 41.5 20.6 41.775 20.275 41.775C19.95 41.775 19.775 41.575 19.775 41.125C19.7809 40.9396 19.806 40.7552 19.85 40.575L21.8 39.95ZM20.8 39.175C21.075 39.175 21.3 39.375 21.175 39.825L19.975 40.15C20.175 39.6 20.525 39.15 20.825 39.15L20.8 39.175Z"
              fill="#161616"
            />
          </g>
          <path
            d="M21.175 38.1999L22.3 37.1749V37.0249H21.55L20.875 38.1999H21.2H21.175Z"
            fill="#161616"
          />
        </g>
        <g clip-path="url(#clip26_5795_13250)">
          <path
            d="M16.975 39.1501H17.625L16.575 42.0001C16.5421 42.0511 16.5242 42.1103 16.5232 42.171C16.5222 42.2316 16.5382 42.2914 16.5694 42.3434C16.6007 42.3955 16.6458 42.4377 16.6998 42.4654C16.7538 42.4931 16.8145 42.5051 16.875 42.5001C17.625 42.5001 18.475 41.8501 18.825 40.9501H18.65C18.3359 41.3772 17.8865 41.6856 17.375 41.8251L18.3 39.1501H19.3L19.425 38.7501H18.475L18.8 37.7251H18.45L17.775 38.7501L16.975 38.8501V39.1501Z"
            fill="#161616"
          />
        </g>
        <g clip-path="url(#clip27_5795_13250)">
          <path
            d="M16.65 39.5C16.775 39.025 16.7 38.625 16.35 38.625C15.9 38.625 15.775 38.925 15.35 39.875V39.325C15.325 38.95 15.2 38.625 14.85 38.625C14.475 38.625 14.125 39.25 13.825 39.875H14.025C14.2 39.55 14.4 39.375 14.525 39.375C14.7 39.375 14.775 39.625 14.525 40.225L13.775 41.925C13.6 42.25 13.775 42.45 14.075 42.45C14.1577 42.4649 14.243 42.4472 14.3129 42.4006C14.3828 42.3539 14.432 42.2821 14.45 42.2L15.2 40.2C15.4067 39.9415 15.6236 39.6913 15.85 39.45H16.65V39.5Z"
            fill="#161616"
          />
        </g>
        <g clip-path="url(#clip28_5795_13250)">
          <path
            d="M13.45 39.9251C13.825 38.9751 13.375 38.6001 12.825 38.6001C11.9 38.6001 10.85 40.2251 10.85 41.5251C10.85 42.1501 11.15 42.4751 11.6 42.4751C12.125 42.4751 12.675 41.9751 13.15 41.1001H12.9C12.6 41.4751 12.25 41.7501 11.925 41.7501C11.6 41.7501 11.425 41.5501 11.425 41.1001C11.4308 40.9147 11.456 40.7303 11.5 40.5501L13.45 39.9251ZM12.45 39.1501C12.725 39.1501 12.95 39.3501 12.825 39.8001L11.625 40.1251C11.825 39.5751 12.175 39.1251 12.475 39.1251L12.45 39.1501Z"
            fill="#161616"
          />
        </g>
        <g clip-path="url(#clip29_5795_13250)">
          <path
            d="M10.2 38.6249C9.69998 38.6249 9.19998 39.1749 8.74998 39.8249L9.74998 37.0999L9.69998 37.0249L8.44998 37.1749V37.2749L8.69998 37.4749C8.92498 37.6499 8.84998 37.7999 8.64998 38.3249L7.54998 41.2249C7.46796 41.4023 7.40106 41.5863 7.34998 41.7749C7.34998 42.1249 7.79998 42.4499 8.22498 42.4499C9.17498 42.4499 10.725 40.7249 10.725 39.3999C10.725 38.8249 10.6 38.5999 10.2 38.5999V38.6249ZM8.54998 41.8999C8.34998 41.8999 8.07498 41.7249 8.07498 41.5749C8.12768 41.3868 8.19454 41.2029 8.27498 41.0249L8.59998 40.1999C8.92498 39.7749 9.44998 39.3499 9.74998 39.3499C9.92498 39.3499 10.05 39.4499 10.05 39.7249C10.05 40.4999 9.32498 41.8999 8.54998 41.8999Z"
            fill="#161616"
          />
        </g>
        <g clip-path="url(#clip30_5795_13250)">
          <path
            d="M7.05003 39C7.12503 38.75 6.95003 38.6 6.80003 38.6C6.25003 38.6 5.55003 39.125 5.30003 39.85H5.47503C5.65263 39.5632 5.92784 39.3501 6.25003 39.25L5.17503 42.075C5.15343 42.1173 5.14316 42.1645 5.14522 42.2119C5.14727 42.2594 5.16158 42.3055 5.18676 42.3458C5.21193 42.3861 5.24711 42.4192 5.28887 42.4418C5.33063 42.4644 5.37754 42.4759 5.42503 42.475C5.97503 42.475 6.60003 41.975 6.87503 41.225H6.65003C6.4878 41.526 6.22102 41.7572 5.90003 41.875L7.05003 39ZM7.15003 37.925C7.20913 37.925 7.26764 37.9134 7.32224 37.8907C7.37684 37.8681 7.42645 37.835 7.46823 37.7932C7.51002 37.7514 7.54316 37.7018 7.56578 37.6472C7.58839 37.5926 7.60003 37.5341 7.60003 37.475C7.60344 37.4138 7.59432 37.3526 7.57323 37.2951C7.55214 37.2376 7.51954 37.185 7.47741 37.1405C7.43528 37.096 7.38451 37.0606 7.32822 37.0365C7.27193 37.0123 7.21129 36.9999 7.15003 37C7.03069 37 6.91623 37.0474 6.83184 37.1318C6.74744 37.2162 6.70003 37.3307 6.70003 37.45C6.70003 37.5693 6.74744 37.6838 6.83184 37.7682C6.91623 37.8526 7.03069 37.9 7.15003 37.9"
            fill="#161616"
          />
        </g>
        <g clip-path="url(#clip31_5795_13250)">
          <path
            d="M4.4 37.3501H1.825L1.75 37.5751C2.5 37.7251 2.575 37.8001 2.25 38.7751L1.45 40.9001C1.075 41.8751 0.95 41.9501 0.075 42.1001L0 42.3501H3.925L4.8 40.8501H4.5C4 41.3501 3.45 42.0501 2.575 42.0501C1.9 42.0501 1.825 41.9251 2.175 40.9251L2.95 38.8001C3.3 37.8251 3.45 37.7501 4.325 37.6001L4.4 37.3501Z"
            fill="#161616"
          />
        </g>
      </g>
    </g>
  </g>
  <defs>
    <linearGradient
      id="paint0_linear_5795_13250"
      x1="0"
      y1="6"
      x2="33"
      y2="6"
      gradientUnits="userSpaceOnUse"
    >
      <stop stop-color="#000091" />
      <stop offset="0.5" stop-color="#000091" />
      <stop offset="0.5" stop-color="#E1000F" />
      <stop offset="1" stop-color="#E1000F" />
    </linearGradient>
    <clipPath id="clip0_5795_13250">
      <rect width="33" height="12" fill="white" />
    </clipPath>
    <clipPath id="clip1_5795_13250">
      <rect
        width="33"
        height="13.5"
        fill="white"
        transform="translate(0 -0.75)"
      />
    </clipPath>
    <clipPath id="clip2_5795_13250">
      <rect
        width="108.88"
        height="26.5"
        fill="white"
        transform="translate(0 33)"
      />
    </clipPath>
    <clipPath id="clip3_5795_13250">
      <rect width="63" height="45" fill="white" transform="translate(0 37)" />
    </clipPath>
    <clipPath id="clip4_5795_13250">
      <rect
        width="31.5"
        height="22.5"
        fill="white"
        transform="translate(0 37)"
      />
    </clipPath>
    <clipPath id="clip5_5795_13250">
      <rect
        width="3.1"
        height="5.45"
        fill="white"
        transform="translate(28.175 53.5249)"
      />
    </clipPath>
    <clipPath id="clip6_5795_13250">
      <rect
        width="2.75"
        height="3.875"
        fill="white"
        transform="translate(28.175 55.125)"
      />
    </clipPath>
    <clipPath id="clip7_5795_13250">
      <rect
        width="2.875"
        height="4.75"
        fill="white"
        transform="translate(25.55 54.25)"
      />
    </clipPath>
    <clipPath id="clip8_5795_13250">
      <rect
        width="2.45"
        height="5.475"
        fill="white"
        transform="translate(23.4 53.5249)"
      />
    </clipPath>
    <clipPath id="clip9_5795_13250">
      <rect
        width="3.7"
        height="3.875"
        fill="white"
        transform="translate(19.3 55.125)"
      />
    </clipPath>
    <clipPath id="clip10_5795_13250">
      <rect
        width="3"
        height="3.875"
        fill="white"
        transform="translate(16.425 55.125)"
      />
    </clipPath>
    <clipPath id="clip11_5795_13250">
      <rect
        width="2.75"
        height="3.875"
        fill="white"
        transform="translate(13.575 55.125)"
      />
    </clipPath>
    <clipPath id="clip12_5795_13250">
      <rect
        width="2.875"
        height="4.75"
        fill="white"
        transform="translate(10.925 54.25)"
      />
    </clipPath>
    <clipPath id="clip13_5795_13250">
      <rect
        width="3.675"
        height="4.05"
        fill="white"
        transform="translate(7.22498 54.9502)"
      />
    </clipPath>
    <clipPath id="clip14_5795_13250">
      <rect
        width="3"
        height="3.875"
        fill="white"
        transform="translate(4.90002 55.125)"
      />
    </clipPath>
    <clipPath id="clip15_5795_13250">
      <rect
        width="5.475"
        height="4.95"
        fill="white"
        transform="translate(0 53.8999)"
      />
    </clipPath>
    <clipPath id="clip16_5795_13250">
      <rect
        width="3.1"
        height="5.45"
        fill="white"
        transform="translate(19.325 45.2749)"
      />
    </clipPath>
    <clipPath id="clip17_5795_13250">
      <rect
        width="2.75"
        height="3.875"
        fill="white"
        transform="translate(19.325 46.875)"
      />
    </clipPath>
    <clipPath id="clip18_5795_13250">
      <rect
        width="2.875"
        height="4.75"
        fill="white"
        transform="translate(16.7 46)"
      />
    </clipPath>
    <clipPath id="clip19_5795_13250">
      <rect
        width="2.45"
        height="5.475"
        fill="white"
        transform="translate(14.55 45.25)"
      />
    </clipPath>
    <clipPath id="clip20_5795_13250">
      <rect
        width="2.525"
        height="5.475"
        fill="white"
        transform="translate(12.35 45.2749)"
      />
    </clipPath>
    <clipPath id="clip21_5795_13250">
      <rect
        width="3.675"
        height="4.05"
        fill="white"
        transform="translate(8.72498 46.7002)"
      />
    </clipPath>
    <clipPath id="clip22_5795_13250">
      <rect
        width="4.5"
        height="5.5"
        fill="white"
        transform="translate(4.65002 46.8501)"
      />
    </clipPath>
    <clipPath id="clip23_5795_13250">
      <rect
        width="5.75"
        height="6.275"
        fill="white"
        transform="translate(0 44.3252)"
      />
    </clipPath>
    <clipPath id="clip24_5795_13250">
      <rect
        width="3.1"
        height="5.45"
        fill="white"
        transform="translate(19.2 37.0249)"
      />
    </clipPath>
    <clipPath id="clip25_5795_13250">
      <rect
        width="2.75"
        height="3.875"
        fill="white"
        transform="translate(19.2 38.625)"
      />
    </clipPath>
    <clipPath id="clip26_5795_13250">
      <rect
        width="2.875"
        height="4.75"
        fill="white"
        transform="translate(16.55 37.7251)"
      />
    </clipPath>
    <clipPath id="clip27_5795_13250">
      <rect
        width="3"
        height="3.875"
        fill="white"
        transform="translate(13.7 38.625)"
      />
    </clipPath>
    <clipPath id="clip28_5795_13250">
      <rect
        width="2.75"
        height="3.875"
        fill="white"
        transform="translate(10.85 38.6001)"
      />
    </clipPath>
    <clipPath id="clip29_5795_13250">
      <rect
        width="3.4"
        height="5.45"
        fill="white"
        transform="translate(7.34998 37.0249)"
      />
    </clipPath>
    <clipPath id="clip30_5795_13250">
      <rect
        width="2.45"
        height="5.475"
        fill="white"
        transform="translate(5.15002 37)"
      />
    </clipPath>
    <clipPath id="clip31_5795_13250">
      <rect
        width="4.8"
        height="4.975"
        fill="white"
        transform="translate(0 37.3501)"
      />
    </clipPath>
  </defs>
</svg>
