<svg width="100" height="107" viewBox="0 0 100 107" fill="none" xmlns="http://www.w3.org/2000/svg">
<g filter="url(#filter0_d_1469_10329)">
<path d="M81.2542 71.8237C81.2542 74.6049 81.2542 75.9954 80.9695 77.2692C80.4435 79.6232 79.2101 81.76 77.4349 83.393C76.4744 84.2766 75.2703 84.9722 72.8621 86.3633L62.345 92.4388C59.9349 93.8311 58.7298 94.5272 57.4835 94.918C55.1803 95.6401 52.7113 95.6401 50.4081 94.918C49.1618 94.5272 47.9568 93.8311 45.5466 92.4388L38.3963 88.3083C35.3655 86.5574 33.85 85.682 33.1463 84.6686C31.8307 82.7743 31.8319 80.2616 33.1493 78.3686C33.8541 77.3559 35.3704 76.482 38.403 74.7341L45.5703 70.603C47.9825 69.2127 49.1885 68.5176 50.1507 67.6339C51.9288 66.0007 53.1644 63.8624 53.6914 61.5063C53.9766 60.2314 53.9766 58.8393 53.9766 56.0552V47.8149C53.9766 44.3164 53.9766 42.5671 54.5018 41.451C55.4836 39.3647 57.659 38.1087 59.9566 38.3017C61.1858 38.4049 62.7007 39.2795 65.7305 41.0288L72.8585 45.1441C75.2677 46.5351 76.4723 47.2306 77.4333 48.1142C79.2092 49.7472 80.4431 51.8844 80.9694 54.2389C81.2542 55.513 81.2542 56.9039 81.2542 59.6858V71.8237Z" fill="#C83F49"/>
<path d="M54.9543 41.6641C55.8471 39.7668 57.8258 38.6243 59.9153 38.7998C60.434 38.8435 61.0514 39.0538 61.9465 39.4961C62.8397 39.9374 63.9599 40.5839 65.4807 41.4619L72.6086 45.5771C75.0379 46.9797 76.1843 47.645 77.095 48.4824C78.7956 50.0463 79.9776 52.0929 80.4817 54.3477C80.7516 55.555 80.7542 56.8806 80.7542 59.6855V71.8232C80.7542 74.6277 80.7514 75.9531 80.4817 77.1602C79.9779 79.4146 78.7961 81.4614 77.0959 83.0254C76.1857 83.8626 75.0395 84.5281 72.6116 85.9307L62.095 92.0059C59.6649 93.4096 58.5152 94.0701 57.3342 94.4404C55.1284 95.132 52.7637 95.132 50.5579 94.4404C49.3769 94.0701 48.2272 93.4097 45.7971 92.0059L38.6467 87.875C37.1254 86.9962 36.0051 86.3492 35.176 85.7959C34.345 85.2413 33.854 84.8114 33.5569 84.3838C32.3605 82.6611 32.3617 80.3758 33.5598 78.6543C33.8573 78.2269 34.3482 77.7971 35.1799 77.2432C36.0095 76.6907 37.1304 76.0444 38.6526 75.167L45.8196 71.0361C48.2114 69.6575 49.4761 68.9318 50.4885 68.002C52.3418 66.2997 53.6296 64.071 54.179 61.6152C54.479 60.2737 54.4768 58.8161 54.4768 56.0557V47.8145C54.4768 46.0586 54.4769 44.7656 54.5413 43.7715C54.6058 42.7749 54.7327 42.1351 54.9543 41.6641Z" stroke="url(#paint0_linear_1469_10329)" stroke-opacity="0.25"/>
</g>
<g filter="url(#filter1_d_1469_10329)">
<path d="M18.7542 28.1764C18.7542 25.3952 18.7542 24.0047 19.0388 22.7309C19.5648 20.3769 20.7982 18.2401 22.5734 16.6071C23.5339 15.7235 24.738 15.0279 27.1462 13.6368L37.6633 7.56131C40.0734 6.16902 41.2785 5.47288 42.5248 5.08213C44.828 4.35999 47.297 4.35999 49.6002 5.08213C50.8465 5.47288 52.0515 6.16902 54.4617 7.5613L61.612 11.6918C64.6428 13.4427 66.1583 14.3181 66.862 15.3315C68.1777 17.2258 68.1764 19.7385 66.859 21.6315C66.1542 22.6441 64.6379 23.5181 61.6053 25.266L54.438 29.3971C52.0258 30.7874 50.8198 31.4825 49.8576 32.3662C48.0795 33.9994 46.8439 36.1377 46.3169 38.4938C46.0317 39.7687 46.0317 41.1608 46.0317 43.9449V52.1852C46.0317 55.6837 46.0317 57.433 45.5065 58.5491C44.5247 60.6354 42.3493 61.8914 40.0517 61.6984C38.8225 61.5952 37.3076 60.7206 34.2778 58.9713L27.1498 54.856C24.7406 53.465 23.536 52.7695 22.575 51.8859C20.7991 50.2528 19.5652 48.1157 19.0389 45.7612C18.7542 44.4871 18.7542 43.0962 18.7542 40.3143V28.1764Z" fill="#2845C1"/>
<path d="M42.6741 5.55908C44.8798 4.8675 47.2447 4.86755 49.4504 5.55908C50.6315 5.92938 51.781 6.59075 54.2112 7.99463L61.3616 12.1245C62.8829 13.0034 64.0032 13.6513 64.8323 14.2046C65.6634 14.7593 66.1544 15.189 66.4514 15.6167C67.6478 17.3394 67.6466 19.6247 66.4485 21.3462C66.151 21.7735 65.66 22.2035 64.8284 22.7573C63.9988 23.3098 62.8778 23.9552 61.3557 24.8325L54.1887 28.9644C51.7971 30.3428 50.5322 31.0678 49.5198 31.9976C47.6666 33.6997 46.3787 35.9287 45.8293 38.3843C45.5292 39.7259 45.5315 41.1841 45.5315 43.9448V52.1851C45.5315 53.941 45.5314 55.2339 45.467 56.228C45.4025 57.2249 45.2756 57.8653 45.054 58.3364C44.1611 60.2336 42.1824 61.3752 40.093 61.1997C39.5743 61.156 38.957 60.9458 38.0618 60.5034C37.1686 60.0621 36.0484 59.4166 34.5276 58.5386L27.3997 54.4233C24.9703 53.0208 23.824 52.3555 22.9133 51.5181C21.2125 49.9541 20.0307 47.9068 19.5266 45.6519C19.2568 44.4446 19.2542 43.1189 19.2542 40.314V28.1763C19.2542 25.3722 19.2569 24.0473 19.5266 22.8403C20.0304 20.5859 21.2122 18.539 22.9124 16.9751C23.8226 16.1378 24.9686 15.4725 27.3967 14.0698L37.9133 7.99463C40.3435 6.59078 41.4931 5.9294 42.6741 5.55908Z" stroke="url(#paint1_linear_1469_10329)" stroke-opacity="0.25"/>
</g>
<defs>
<filter id="filter0_d_1469_10329" x="24.8604" y="34.9822" width="63.6937" height="71.7772" filterUnits="userSpaceOnUse" color-interpolation-filters="sRGB">
<feFlood flood-opacity="0" result="BackgroundImageFix"/>
<feColorMatrix in="SourceAlpha" type="matrix" values="0 0 0 0 0 0 0 0 0 0 0 0 0 0 0 0 0 0 127 0" result="hardAlpha"/>
<feOffset dy="4"/>
<feGaussianBlur stdDeviation="3.65"/>
<feComposite in2="hardAlpha" operator="out"/>
<feColorMatrix type="matrix" values="0 0 0 0 0.785757 0 0 0 0 0.248987 0 0 0 0 0.287328 0 0 0 0.2 0"/>
<feBlend mode="normal" in2="BackgroundImageFix" result="effect1_dropShadow_1469_10329"/>
<feBlend mode="normal" in="SourceGraphic" in2="effect1_dropShadow_1469_10329" result="shape"/>
</filter>
<filter id="filter1_d_1469_10329" x="11.4542" y="1.24053" width="63.6937" height="71.7772" filterUnits="userSpaceOnUse" color-interpolation-filters="sRGB">
<feFlood flood-opacity="0" result="BackgroundImageFix"/>
<feColorMatrix in="SourceAlpha" type="matrix" values="0 0 0 0 0 0 0 0 0 0 0 0 0 0 0 0 0 0 127 0" result="hardAlpha"/>
<feOffset dy="4"/>
<feGaussianBlur stdDeviation="3.65"/>
<feComposite in2="hardAlpha" operator="out"/>
<feColorMatrix type="matrix" values="0 0 0 0 0.243137 0 0 0 0 0.364706 0 0 0 0 0.905882 0 0 0 0.2 0"/>
<feBlend mode="normal" in2="BackgroundImageFix" result="effect1_dropShadow_1469_10329"/>
<feBlend mode="normal" in="SourceGraphic" in2="effect1_dropShadow_1469_10329" result="shape"/>
</filter>
<linearGradient id="paint0_linear_1469_10329" x1="19.3205" y1="66.8709" x2="81.2542" y2="66.8709" gradientUnits="userSpaceOnUse">
<stop stop-color="white"/>
<stop offset="0.490385" stop-color="white" stop-opacity="0"/>
<stop offset="1" stop-color="white"/>
</linearGradient>
<linearGradient id="paint1_linear_1469_10329" x1="18.7542" y1="33.1292" x2="81.7794" y2="33.1292" gradientUnits="userSpaceOnUse">
<stop stop-color="white"/>
<stop offset="0.490385" stop-color="white" stop-opacity="0"/>
<stop offset="1" stop-color="white"/>
</linearGradient>
</defs>
</svg>
