<svg width="95" height="67" viewBox="0 0 95 67" fill="none" xmlns="http://www.w3.org/2000/svg">
<g clip-path="url(#clip0_9001_21373)">
<path d="M33 0.0390625H0V12.0391H33V0.0390625Z" fill="white"/>
<path d="M10.6562 10.5889C10.6603 10.5889 10.6642 10.583 10.6642 10.583C10.696 10.5594 10.7279 10.53 10.7558 10.4947C10.7518 10.4947 10.7478 10.4947 10.7438 10.4889C10.7159 10.5183 10.6841 10.5536 10.6562 10.5889Z" fill="#000091"/>
<path d="M15.0695 9.10193L14.9998 9.16193C15.0397 9.15193 15.0695 9.14193 15.0695 9.10193Z" fill="#000091"/>
<path fill-rule="evenodd" clip-rule="evenodd" d="M13.6426 10.6208C13.7704 10.4923 13.8983 10.3559 14.0261 10.2156H14.0222C14.2624 9.94288 14.4948 9.68184 14.7737 9.44418C14.8589 9.36626 14.9402 9.30003 15.0177 9.24548C15.0291 9.23404 15.0349 9.21699 15.0406 9.20028C15.0465 9.18286 15.0523 9.16582 15.0642 9.15587C15.009 9.17694 14.965 9.21025 14.9207 9.24377C14.8749 9.27842 14.8289 9.3133 14.7698 9.33509C14.7466 9.33509 14.7233 9.31172 14.7466 9.28834C14.8279 9.2299 14.9092 9.16756 14.9867 9.10522H14.9712C14.948 9.10522 14.948 9.08185 14.948 9.05847C14.6596 9.01267 14.4381 9.20988 14.2399 9.38641L14.2275 9.39743C14.1966 9.41295 14.1675 9.39755 14.1446 9.38546C14.133 9.37933 14.123 9.37405 14.1152 9.37405C13.9398 9.43287 13.7885 9.54129 13.6362 9.65043C13.4959 9.75096 13.3548 9.85209 13.1933 9.91561V9.86885C13.1384 9.88777 13.0842 9.91244 13.0298 9.93716C12.9498 9.97353 12.8696 10.01 12.7865 10.0286C12.6349 10.0638 12.4943 10.0593 12.358 10.0549C12.3133 10.0534 12.2689 10.052 12.2249 10.052C11.9768 10.0766 11.7319 10.1297 11.4872 10.1828L11.4076 10.2001C11.4037 10.202 11.3998 10.203 11.3959 10.204C11.3921 10.2049 11.3882 10.2059 11.3843 10.2079C11.2371 10.2468 11.1016 10.3014 10.966 10.3793L10.9505 10.3871C10.9452 10.3942 10.9398 10.4005 10.9349 10.4064C10.929 10.4134 10.9237 10.4197 10.9195 10.426C10.873 10.4806 10.8304 10.5273 10.7646 10.5624C10.6673 10.6113 10.5832 10.6867 10.5005 10.761C10.4647 10.7931 10.429 10.8252 10.3927 10.8546C10.385 10.8624 10.3695 10.8663 10.3578 10.8663C10.2378 10.9832 10.1177 11.1001 9.99373 11.213C9.98598 11.2208 9.95112 11.2247 9.924 11.2208C9.924 11.2208 9.92788 11.2208 9.92788 11.2169L9.9395 11.1936L9.9976 11.1001C10.0092 11.0825 10.0199 11.065 10.0305 11.0475C10.0412 11.0299 10.0518 11.0124 10.0635 10.9949C10.0944 10.9481 10.1255 10.9013 10.1603 10.8585C10.168 10.8468 10.168 10.8351 10.1603 10.8273C10.1525 10.8195 10.1409 10.8156 10.1293 10.8156C10.2416 10.7066 10.3733 10.613 10.5089 10.5312V10.5273C10.4934 10.5312 10.4702 10.5195 10.4818 10.504C10.4932 10.4897 10.5024 10.4733 10.5112 10.4579L10.5205 10.4416C10.5225 10.4377 10.5234 10.4348 10.5244 10.4319C10.5254 10.429 10.5263 10.426 10.5283 10.4221C10.5263 10.4182 10.5234 10.4153 10.5205 10.4124C10.5176 10.4095 10.5147 10.4066 10.5128 10.4027L10.4893 10.4182C10.4612 10.4365 10.4324 10.4554 10.4082 10.4767C10.3911 10.4914 10.3751 10.5116 10.3588 10.5323C10.3232 10.5773 10.2857 10.6247 10.23 10.6247C10.2261 10.6247 10.2068 10.6247 10.1952 10.6208C10.1835 10.6208 10.1758 10.6169 10.1719 10.613L10.1724 10.6096C10.1724 10.6096 10.1738 10.6091 10.1758 10.6091C10.1758 10.6091 10.1797 10.6053 10.1797 10.6014C10.1797 10.6014 10.1797 10.5975 10.1835 10.5975C10.1855 10.5936 10.1874 10.5906 10.1893 10.5877C10.1913 10.5848 10.1932 10.5819 10.1952 10.578C10.1971 10.5741 10.199 10.5712 10.201 10.5682C10.2029 10.5653 10.2048 10.5624 10.2068 10.5585C10.2087 10.5566 10.2097 10.5536 10.2106 10.5507C10.2116 10.5478 10.2126 10.5449 10.2145 10.5429L10.2189 10.5349C10.2227 10.528 10.2273 10.5199 10.23 10.5117C10.2319 10.5079 10.2339 10.5049 10.2358 10.502C10.2378 10.4991 10.2397 10.4962 10.2416 10.4923C10.2474 10.4845 10.2523 10.4757 10.2571 10.4669C10.262 10.4582 10.2668 10.4494 10.2726 10.4416C10.2765 10.4338 10.2804 10.426 10.2881 10.4182C10.292 10.4104 10.2959 10.4036 10.2997 10.3968C10.3036 10.39 10.3075 10.3832 10.3114 10.3754C10.323 10.3559 10.3114 10.3403 10.2959 10.3364C10.3385 10.2819 10.3888 10.2351 10.4508 10.2001H10.4431C10.4965 10.1732 10.5515 10.1417 10.6062 10.1104C10.6384 10.0919 10.671 10.0732 10.7026 10.0559C10.7142 10.0442 10.7258 10.0325 10.7413 10.0247C10.6135 10.0676 10.4973 10.126 10.385 10.204C10.385 10.204 10.354 10.2156 10.3462 10.2234C10.3462 10.2234 10.323 10.2312 10.292 10.204C10.2881 10.2001 10.2881 10.1962 10.2881 10.1884C10.3016 10.1613 10.3293 10.1434 10.3594 10.124C10.3812 10.1099 10.4041 10.0951 10.4237 10.0754C10.4469 10.0754 10.4663 10.0754 10.4663 10.0988C10.9124 9.74892 11.4625 9.668 12.0144 9.58679C12.3539 9.53685 12.6941 9.48681 13.0112 9.37405C13.0441 9.35068 13.078 9.32827 13.1119 9.30587C13.1458 9.28347 13.1797 9.26107 13.2126 9.23769C13.2691 9.21418 13.3198 9.17391 13.3734 9.13126C13.4263 9.08911 13.4822 9.04464 13.5496 9.01172C13.7278 8.87536 13.8634 8.71951 13.9331 8.48964C13.9331 8.46627 13.9099 8.44289 13.9099 8.44289C13.6155 8.75847 13.2785 9.00782 12.9182 9.19094C12.5747 9.37218 12.2067 9.39904 11.8423 9.42563C11.7054 9.43562 11.569 9.44557 11.4347 9.46366C11.4579 9.41691 11.5044 9.41691 11.547 9.41691C11.547 9.36159 11.5735 9.33779 11.6075 9.30725C11.6166 9.29908 11.6263 9.29041 11.6361 9.28055H11.702C11.7136 9.28055 11.7194 9.26886 11.7252 9.25717C11.731 9.24548 11.7368 9.23379 11.7484 9.23379C11.7949 9.23379 11.8608 9.21042 11.8375 9.21042C11.802 9.16475 11.7504 9.18283 11.6934 9.20278C11.6386 9.22197 11.5789 9.2429 11.5238 9.21042C11.5443 9.18794 11.5504 9.16097 11.556 9.13642C11.5621 9.10989 11.5675 9.0862 11.5896 9.07406H11.6787C11.6787 9.0273 11.7252 8.98445 11.7252 8.98445C11.9272 8.86299 12.1223 8.75695 12.3137 8.65287C12.4416 8.58336 12.568 8.51465 12.6936 8.44289C12.6682 8.44289 12.6456 8.45334 12.6238 8.46348C12.589 8.47961 12.5558 8.49498 12.5154 8.46627C12.5386 8.46627 12.5386 8.44971 12.5386 8.43315C12.5386 8.41659 12.5386 8.40003 12.5619 8.40003C12.7072 8.36121 12.8365 8.29829 12.9686 8.23403C13.0619 8.18866 13.1565 8.14263 13.2591 8.10393C13.2287 8.10393 13.2005 8.11213 13.173 8.12011C13.1201 8.13549 13.0699 8.15009 13.0112 8.10393C13.0266 8.09619 13.039 8.08631 13.0513 8.07657C13.076 8.05687 13.1002 8.0377 13.1468 8.0377V7.97147C13.1468 7.94809 13.17 7.94809 13.1933 7.94809C13.17 7.94809 13.1468 7.92471 13.1468 7.92471C13.1591 7.89996 13.1833 7.89487 13.2103 7.88919C13.2343 7.88415 13.2605 7.87865 13.2824 7.85848C13.2591 7.85848 13.2165 7.85848 13.2165 7.8351C13.2824 7.74549 13.3947 7.72212 13.507 7.69874C13.4954 7.67536 13.4731 7.67536 13.4538 7.67536C13.4344 7.67536 13.4179 7.67536 13.4179 7.65199C13.4179 7.62861 13.4412 7.62861 13.4644 7.62861H13.4179C13.3815 7.61027 13.3879 7.57753 13.3924 7.55487C13.3936 7.54865 13.3947 7.5432 13.3947 7.539C13.4857 7.43179 13.5156 7.30526 13.5454 7.17946C13.5599 7.11783 13.5745 7.05638 13.5961 6.99745C13.5729 6.99745 13.5496 6.99745 13.5496 6.97407C13.3318 7.2158 12.9866 7.30741 12.6587 7.39442L12.6277 7.40264H12.5154C12.4031 7.44939 12.2443 7.44939 12.1319 7.37926C12.0785 7.35123 12.0404 7.3162 11.9993 7.27836C11.9718 7.25309 11.9429 7.22657 11.9073 7.20004C11.7252 7.08706 11.547 6.99745 11.3456 6.92732C10.7839 6.7481 10.199 6.65459 9.61412 6.67797C9.77746 6.58813 9.95088 6.5524 10.1266 6.5162C10.2176 6.49745 10.3093 6.47858 10.4004 6.452C10.458 6.43505 10.515 6.41758 10.5716 6.4002C10.8929 6.30171 11.2046 6.20616 11.547 6.22603C11.5022 6.21011 11.4448 6.21586 11.392 6.22116C11.3672 6.22364 11.3434 6.22603 11.3224 6.22603C11.0634 6.20673 10.8019 6.26439 10.529 6.32454C10.4712 6.33728 10.4129 6.35013 10.354 6.36239C10.2471 6.38463 10.1455 6.41657 10.0437 6.44857C9.93151 6.48382 9.81915 6.51914 9.69934 6.54161C9.64737 6.55953 9.60565 6.59004 9.56501 6.61977C9.49962 6.66759 9.43704 6.71336 9.3391 6.70135V6.63122C9.56376 6.35849 9.83491 6.08966 10.1952 6.06629C10.5434 6.00958 10.8717 6.04997 11.2142 6.09211C11.2718 6.09919 11.3297 6.10631 11.3882 6.11304C11.669 6.13563 11.9317 6.19826 12.2148 6.26575L12.2443 6.27278C12.3062 6.27278 12.3411 6.32733 12.3748 6.38017C12.4023 6.4231 12.429 6.4649 12.4689 6.47537C12.5241 6.49439 12.5792 6.49794 12.6344 6.50148C12.7148 6.50665 12.7952 6.51183 12.8756 6.56498C12.8756 6.54925 12.873 6.53396 12.8704 6.51882C12.8653 6.48895 12.8602 6.45964 12.8756 6.42862C12.9256 6.37835 12.9829 6.39184 13.0393 6.40512C13.0834 6.41551 13.127 6.42577 13.1662 6.40524C13.289 6.32901 13.1738 6.21199 13.0585 6.09486C13.0029 6.03838 12.9472 5.98189 12.9182 5.92992C12.9182 5.90655 12.9415 5.88317 12.9415 5.88317C12.9924 5.92877 13.0398 5.97596 13.0867 6.02275C13.2043 6.13984 13.3194 6.25438 13.4799 6.33512C13.5922 6.38187 13.8634 6.4481 13.8169 6.31174C13.7373 6.13513 13.6014 5.98197 13.4642 5.82736C13.4077 5.76368 13.351 5.69974 13.2979 5.63382V5.54421C13.2625 5.54421 13.2541 5.53072 13.2435 5.514C13.2402 5.5087 13.2367 5.50308 13.232 5.49746V5.40785C13.1752 5.37805 13.1625 5.33084 13.1497 5.28337C13.1424 5.25636 13.1351 5.22927 13.1197 5.20525C13.0808 5.14233 13.0781 5.06492 13.0752 4.98511C13.0729 4.92161 13.0705 4.85659 13.0499 4.79617C13.0035 4.6598 12.9841 4.54682 12.9609 4.41046C12.9356 4.27095 12.9079 4.13756 12.8807 4.00697C12.8328 3.7765 12.7866 3.55472 12.7594 3.32345C12.7236 2.99288 12.8905 2.71331 13.0612 2.42752C13.1118 2.3428 13.1627 2.25752 13.2088 2.17021C13.3676 1.89749 13.5458 1.62866 13.8401 1.44554C13.9044 1.17955 14.0791 0.958027 14.253 0.737602L14.2662 0.720876C14.4379 0.506967 14.7245 0.376199 14.9357 0.279823L14.9596 0.26893C15.2734 0.128672 15.5561 0.0390625 15.56 0.0390625H0V12.0351H11.0396C11.3348 11.8211 11.6283 11.686 11.9775 11.5253C12.1369 11.452 12.3079 11.3733 12.496 11.2793C12.5359 11.2592 12.5832 11.2359 12.6357 11.2101C12.951 11.055 13.4534 10.8078 13.6426 10.6208ZM10.1396 9.00235C10.0958 9.00675 10.0494 9.01141 10.0669 8.97622C10.0832 8.89737 10.1639 8.87373 10.2428 8.85064C10.2765 8.84076 10.31 8.83097 10.3378 8.817L10.3505 8.81042L10.3598 8.80549C10.4035 8.78229 10.457 8.75389 10.4965 8.7704C10.5231 8.80825 10.5561 8.81801 10.5881 8.82751C10.612 8.83458 10.6353 8.84149 10.6551 8.85972C10.5714 8.94373 10.4737 8.95202 10.3747 8.96042C10.3089 8.966 10.2425 8.97163 10.1791 8.99953C10.1678 8.99953 10.1538 9.00093 10.1396 9.00235ZM6.71263 8.45447C6.71263 8.47785 6.73587 8.50122 6.73587 8.50122C7.27817 7.88954 7.77011 7.36747 8.46735 6.935C8.48601 6.92718 8.47907 6.93695 8.46984 6.94993C8.45609 6.96927 8.43727 6.99575 8.49059 6.98176C8.72141 6.92913 8.82508 6.73139 8.92594 6.53901C8.95202 6.48927 8.97791 6.43988 9.00577 6.39345C9.11155 6.22141 9.26178 6.11119 9.41317 6.00012C9.52234 5.92002 9.63212 5.83949 9.72625 5.73501C9.72625 5.75839 9.72625 5.78177 9.703 5.80514C9.72625 5.82852 9.74949 5.82852 9.77273 5.82852C9.81359 5.79769 9.8582 5.78493 9.90095 5.7727C9.95547 5.75711 10.007 5.74238 10.0439 5.69216C9.86569 5.62203 9.63715 5.59865 9.45897 5.66878C8.9864 5.89475 8.58355 6.25709 8.20007 6.66617C7.96766 6.91163 7.7275 7.1415 7.43311 7.30123C7.23169 7.70643 7.00702 8.06876 6.71263 8.45447ZM8.60369 7.00546C8.59155 7.02983 8.57942 7.04251 8.56783 7.05462C8.55726 7.06567 8.54714 7.07626 8.5379 7.09479C8.51469 7.14139 8.49147 7.1608 8.4489 7.18411C8.42568 7.18411 8.40246 7.18411 8.40246 7.1608C8.42568 7.07148 8.49147 6.98216 8.58047 6.95886C8.60369 6.96275 8.60369 6.98605 8.60369 7.00546ZM9.59422 10.4655C9.61357 10.446 9.63679 10.4226 9.6484 10.3992C9.66775 10.3525 9.54778 10.3642 9.52843 10.3759C9.51088 10.39 9.49969 10.4041 9.4862 10.4212L9.48199 10.4265C9.46585 10.4451 9.44696 10.4623 9.42778 10.4797C9.41477 10.4916 9.40163 10.5035 9.38912 10.5161C9.33494 10.5707 9.28076 10.6252 9.22271 10.6759C9.18401 10.7109 9.30785 10.7265 9.33494 10.7031C9.3659 10.6798 9.39299 10.6525 9.42008 10.6252C9.4304 10.6252 9.44072 10.6235 9.4476 10.6223L9.45233 10.6216L9.45491 10.6213C9.51906 10.5998 9.5668 10.5551 9.61324 10.5117L9.62518 10.5005C9.64066 10.485 9.62131 10.4694 9.59422 10.4655ZM9.24401 10.2121L9.24304 10.2125L9.24256 10.2159C9.2188 10.2322 9.19535 10.2488 9.17194 10.2654C9.11139 10.3082 9.05116 10.3508 8.98691 10.3874C8.92546 10.422 8.86246 10.4519 8.79889 10.482C8.76226 10.4994 8.72545 10.5169 8.68864 10.5354C8.68864 10.5354 8.68864 10.5315 8.68477 10.5315C8.67702 10.5198 8.66153 10.5159 8.64604 10.5237C8.56082 10.5705 8.48722 10.6328 8.42137 10.699C8.40975 10.7068 8.39813 10.7185 8.39038 10.7302L8.35552 10.7653V10.7692C8.34003 10.7848 8.32453 10.8003 8.30516 10.8237C8.30114 10.8278 8.29804 10.8318 8.29507 10.8357C8.28947 10.843 8.2843 10.8498 8.27418 10.8549C8.25868 10.8627 8.21995 10.8627 8.22382 10.8393V10.8354C8.2122 10.8432 8.19671 10.851 8.18508 10.8549C8.17927 10.8588 8.17346 10.8617 8.16765 10.8646C8.16184 10.8675 8.15603 10.8705 8.15022 10.8744C8.14635 10.8705 8.1386 10.8705 8.13473 10.8705C8.13086 10.8705 8.12311 10.8705 8.11923 10.8744C8.1102 10.8822 8.10116 10.8895 8.09212 10.8969C8.07404 10.9116 8.05597 10.9263 8.03789 10.9445C7.99141 10.9874 7.9488 11.0341 7.90619 11.0848C7.90619 11.0848 7.90619 11.0886 7.90232 11.0886C7.90232 11.0906 7.90038 11.0925 7.90038 11.0925L7.89844 11.0964L7.8907 11.1042C7.88922 11.1057 7.88752 11.1085 7.88752 11.1085C7.88626 11.1105 7.88534 11.112 7.88295 11.112L7.87907 11.1159C7.8752 11.1237 7.87133 11.1315 7.86358 11.1393C7.85971 11.1432 7.85196 11.1471 7.84421 11.1471C7.84034 11.1432 7.83647 11.1393 7.83647 11.1354C7.83453 11.1335 7.83356 11.1315 7.83259 11.1296C7.83162 11.1276 7.83066 11.1257 7.82872 11.1237C7.82485 11.1179 7.82194 11.112 7.81904 11.1062C7.81613 11.1003 7.81322 11.0945 7.80935 11.0886V11.0848C7.80935 11.0828 7.80838 11.0809 7.80741 11.0789C7.80645 11.077 7.80548 11.0731 7.80548 11.0731L7.8752 10.9912L7.87907 10.9874C7.88295 10.9835 7.88682 10.9786 7.89069 10.9737C7.89456 10.9689 7.89844 10.964 7.90232 10.9601C7.90813 10.9523 7.9149 10.9445 7.92168 10.9367C7.92846 10.9289 7.93524 10.9211 7.94105 10.9133C7.94299 10.9094 7.94493 10.9065 7.94686 10.9036C7.9488 10.9007 7.95074 10.8977 7.95267 10.8938C7.97591 10.8627 7.99915 10.8315 8.0224 10.7964V10.7925C8.02627 10.7887 8.03014 10.7848 8.03014 10.777C8.04176 10.7614 8.05339 10.7458 8.06113 10.7302L8.08437 10.6835V10.6796L8.08825 10.6757C8.08825 10.6737 8.09018 10.6718 8.09018 10.6718L8.09212 10.6679C8.09599 10.6581 8.09986 10.6494 8.10373 10.6406C8.1076 10.6319 8.11149 10.6231 8.11536 10.6133V10.6094L8.11923 10.5938C8.12117 10.59 8.12214 10.5861 8.12311 10.5822C8.12408 10.5783 8.12505 10.5744 8.12698 10.5705V10.5666C8.12892 10.5607 8.12989 10.5549 8.13086 10.549C8.13182 10.5432 8.13279 10.5374 8.13473 10.5315C8.13473 10.5276 8.13473 10.5198 8.13086 10.5159C8.1541 10.4731 8.18508 10.4341 8.21995 10.3951C8.21995 10.3951 8.21607 10.3961 8.21414 10.3971L8.2108 10.3986L8.20833 10.399C8.19109 10.4099 8.17624 10.4243 8.16113 10.4391C8.14908 10.4508 8.13686 10.4627 8.12311 10.4731C8.09987 10.4926 8.05338 10.4614 8.08437 10.438C8.10374 10.4224 8.11923 10.4068 8.13472 10.3913C8.13472 10.3913 8.13473 10.3874 8.1386 10.3874C8.15404 10.3734 8.16887 10.3575 8.18381 10.3416C8.20635 10.3175 8.22919 10.2931 8.25481 10.2744C8.28192 10.2549 8.30129 10.2393 8.32453 10.2198C8.3284 10.2159 8.33228 10.212 8.33615 10.212C8.35165 10.1926 8.36714 10.1731 8.38651 10.1536C8.38651 10.1536 8.39038 10.1536 8.39038 10.1497C8.5234 10.0206 8.71032 9.97514 8.90111 9.92869C9.02144 9.89939 9.14332 9.86972 9.25418 9.81849C9.3168 9.79243 9.38663 9.80268 9.45564 9.81282C9.51044 9.82087 9.5647 9.82883 9.61442 9.81849C9.68027 9.81849 9.74999 9.81849 9.81584 9.86524C9.66268 9.9468 9.5165 10.0401 9.37189 10.1324C9.33002 10.1591 9.28817 10.1858 9.24643 10.212L9.24401 10.2121ZM9.72805 8.62414C9.70992 8.62622 9.69817 8.62757 9.70824 8.6377C9.77409 8.70394 9.90967 8.68056 10.0026 8.62991C10.0685 8.58316 10.1382 8.58316 10.2273 8.58316C10.2505 8.58316 10.2505 8.5403 10.2505 8.51693C10.3164 8.5403 10.3629 8.5403 10.4287 8.5403C10.9671 8.42732 11.4862 8.31433 11.982 8.06498C11.4803 7.67735 10.8618 7.50467 10.256 7.33555C10.1555 7.30749 10.0554 7.27953 9.95615 7.2507C9.97796 7.2507 9.99976 7.25797 10.0217 7.26528C10.066 7.28004 10.1109 7.295 10.1576 7.2507C10.0961 7.20167 10.0277 7.1923 9.95993 7.18301C9.90384 7.17533 9.8482 7.16771 9.79733 7.13771C9.80264 7.13771 9.80895 7.13893 9.81582 7.14026C9.83902 7.14473 9.86849 7.15042 9.88642 7.11434C9.76876 7.05516 9.6511 7.03507 9.53232 7.01478C9.47123 7.00434 9.40984 6.99386 9.348 6.97798C9.46034 6.9546 9.53006 6.86499 9.53006 6.752C9.53006 6.72863 9.48358 6.72863 9.46034 6.72863C9.19306 6.86499 9.01101 7.11434 8.89867 7.40654C8.99995 7.46617 9.10909 7.45926 9.21607 7.45248C9.27686 7.44863 9.33694 7.44483 9.39449 7.4533C9.34369 7.50154 9.27029 7.51465 9.19974 7.52724C9.17344 7.53194 9.14753 7.53656 9.12334 7.54291C9.05361 7.55849 8.98776 7.60914 9.01101 7.65589C9.0265 7.67537 9.04199 7.68317 9.06136 7.68706C9.01101 7.70265 8.96452 7.72602 8.92191 7.76888C8.98568 7.81908 9.05144 7.80939 9.11634 7.79983C9.14211 7.79603 9.16774 7.79226 9.19306 7.79226C9.19306 7.82055 9.21164 7.83016 9.23095 7.84016C9.24088 7.8453 9.25102 7.85055 9.25891 7.85849C9.14658 7.90135 9.05749 7.99485 9.03425 8.06108C9.00648 8.12857 8.95522 8.17243 8.9044 8.21591C8.87015 8.24522 8.8361 8.27435 8.80958 8.31043V8.38056C8.73475 8.4469 8.65784 8.50614 8.58199 8.56456C8.42617 8.68457 8.27479 8.80117 8.15495 8.96887C8.17819 8.96887 8.17819 8.99225 8.17819 9.01562C8.15676 9.04796 8.12627 9.07035 8.09735 9.09159C8.06355 9.11642 8.0319 9.13967 8.01938 9.17536C8.01938 9.19874 8.01938 9.22211 8.04262 9.22211C8.18476 9.17514 8.30774 9.09604 8.42831 9.0185C8.53773 8.94813 8.64515 8.87904 8.7631 8.8364C8.85949 8.81322 8.94341 8.76951 9.02529 8.72687C9.09477 8.69069 9.16277 8.65527 9.23567 8.63381C9.29184 8.62212 9.35381 8.60556 9.41579 8.589C9.47777 8.57244 9.53974 8.55589 9.59591 8.5442C9.59591 8.56757 9.59591 8.59095 9.61915 8.59095H9.79733C9.78636 8.61744 9.75176 8.62142 9.72805 8.62414Z" fill="#000091"/>
<path d="M32.9999 0.0390625H20.0965C20.0965 0.0390625 20.1199 0.0429637 20.2175 0.0936789C20.3228 0.148295 20.4593 0.222417 20.5412 0.26533C20.7089 0.351157 20.8689 0.460388 20.9742 0.628139C21.021 0.694459 21.0873 0.831001 21.0444 0.920727C20.9976 1.03386 20.9742 1.21721 20.8611 1.26013C20.7246 1.33035 20.5451 1.33035 20.3852 1.30694C20.2955 1.30694 20.2058 1.28353 20.1121 1.26013C20.4515 1.39667 20.7714 1.55662 20.9976 1.87261C21.021 1.91942 21.1107 1.93893 21.2004 1.93893C21.2238 1.93893 21.2238 1.98574 21.2238 2.00525C21.177 2.05206 21.1341 2.07547 21.1575 2.14179H21.2238C21.337 2.09498 21.3135 1.86871 21.4735 1.93893C21.5866 2.00525 21.6334 2.1652 21.5632 2.27833C21.4735 2.36806 21.3838 2.43828 21.2901 2.5046C21.2667 2.55141 21.2667 2.61773 21.2901 2.66455C21.3565 2.75427 21.3799 2.844 21.4033 2.93763C21.4735 3.09758 21.493 3.27703 21.5632 3.43698C21.6529 3.77638 21.7426 4.11578 21.7231 4.45909C21.7231 4.63854 21.6334 4.79849 21.6997 4.98184C21.7465 5.1613 21.8596 5.29784 21.9494 5.45779C22.0391 5.59433 22.1288 5.68405 22.199 5.82059C22.3355 6.04686 22.5852 6.27313 22.472 6.54621C22.4057 6.70616 22.1561 6.68275 21.9962 6.77248C21.8596 6.88561 21.9728 7.06897 22.043 7.1821C22.1561 7.38496 21.9065 7.52151 21.7465 7.59173C21.7933 7.66195 21.883 7.63854 21.9065 7.68145C21.9299 7.79459 22.043 7.86091 21.9728 7.97794C21.883 8.11448 21.61 8.1808 21.7465 8.38757C21.8362 8.54751 21.7777 8.72307 21.7231 8.88691C21.6568 9.08978 21.4735 9.1795 21.3135 9.22632C21.177 9.27313 21.0171 9.27313 20.8845 9.24972C20.8377 9.22632 20.7948 9.20291 20.748 9.20291C20.3618 9.15609 19.9756 9.04686 19.5934 9.04686C19.4802 9.07027 19.3671 9.08978 19.2774 9.13659C19.176 9.21071 19.0824 9.29264 19.0044 9.37846C19.0044 9.37846 19.0044 9.37846 19.0005 9.38236C18.9849 9.40187 18.9654 9.41747 18.9497 9.43698C18.9419 9.44868 18.9302 9.46039 18.9224 9.47209C18.9146 9.47989 18.9107 9.48769 18.9029 9.4955C18.8366 9.57742 18.7781 9.66715 18.7235 9.75688C18.7196 9.76468 18.7157 9.76858 18.7118 9.77248C18.7079 9.78418 18.7001 9.79199 18.6923 9.80369C18.6182 9.94023 18.5636 10.0807 18.5207 10.2212C18.3646 10.74 18.4349 11.1847 18.5441 11.294C18.5753 11.3252 19.293 11.5476 19.7923 11.7699C20.0263 11.8753 20.1902 11.9533 20.3267 12.0391H32.996V0.0390625H32.9999Z" fill="#E1000F"/>
<path d="M20.8631 4.41386C20.9526 4.43723 21.0888 4.43723 21.0888 4.48399C21.0421 4.66321 20.7736 4.70996 20.6375 4.89307H20.5674C20.5013 4.93983 20.5208 5.05281 20.4546 5.05281C20.3885 5.02944 20.3185 5.05281 20.2523 5.07619C20.3418 5.1658 20.4546 5.23593 20.5908 5.21255C20.6141 5.21255 20.6569 5.2593 20.6569 5.30216C20.6569 5.30216 20.6803 5.30216 20.7036 5.27878C20.727 5.27878 20.7503 5.27878 20.7503 5.30216V5.39177C20.6842 5.48138 20.5674 5.43852 20.478 5.458C20.6608 5.50476 20.8398 5.50476 20.9993 5.458C21.1355 5.41125 20.9993 5.18528 21.0888 5.07229C21.0421 5.07229 21.0888 5.00216 21.0421 5.00216C21.0888 4.95541 21.1316 4.88918 21.1782 4.8658C21.2249 4.8658 21.2911 4.84242 21.3144 4.79567C21.3144 4.74892 21.2249 4.72944 21.2444 4.68269C21.3806 4.59308 21.4934 4.45671 21.4467 4.32035C21.4233 4.25022 21.2444 4.25022 21.1316 4.20736C21.0187 4.16451 20.8826 4.20736 20.7464 4.23074C20.6336 4.23074 20.5208 4.30087 20.4079 4.32035C20.2484 4.3671 20.1123 4.45671 19.98 4.54632C20.1395 4.48009 20.2951 4.45671 20.478 4.40996C20.6141 4.41386 20.727 4.38269 20.8631 4.41386Z" fill="#808080"/>
<path d="M1.23596 27.0391V18.6391H3.35996L5.41196 22.1671L7.46396 18.6391H9.58796V27.0391H7.88396V21.0151L6.01196 24.1591H4.81196L2.93996 21.0151V27.0391H1.23596ZM12.1124 27.0391V18.6391H13.8164V27.0391H12.1124ZM16.3443 27.0391V18.6391H18.5283L22.2843 24.7111V18.6391H23.9883V27.0391H21.8043L18.0483 20.9671V27.0391H16.3443ZM26.5176 27.0391V18.6391H28.2216V27.0391H26.5176ZM29.9934 25.8751L31.2294 24.7351C31.7334 25.3831 32.4054 25.7671 33.0894 25.7671C33.7614 25.7671 34.1694 25.4071 34.1694 24.8071C34.1694 23.2591 30.3534 23.6791 30.3534 20.8351C30.3534 19.5031 31.4574 18.3991 33.0654 18.3991C34.3254 18.3991 35.2854 18.9631 36.0054 19.8151L34.7574 20.9431C34.2654 20.3071 33.7134 19.8871 33.0774 19.8871C32.4774 19.8871 32.0814 20.2711 32.0814 20.7751C32.0814 22.2991 35.8974 21.8671 35.8974 24.7471C35.8734 26.3311 34.6494 27.2791 33.1014 27.2791C31.6854 27.2791 30.7374 26.7631 29.9934 25.8751ZM36.9415 20.1871V18.6391H43.8295V20.1871H41.2375V27.0391H39.5335V20.1871H36.9415ZM47.1982 17.9191L45.6502 16.2991H47.4022L48.7582 17.9191H47.1982ZM45.5062 27.0391V18.6391H50.4022V20.0551H47.2102V22.0471H49.9222V23.4631H47.2102V25.6231H50.4022V27.0391H45.5062ZM52.5622 27.0391V18.6391H55.1302C56.9782 18.6391 58.1182 19.5871 58.1182 21.1471C58.1182 22.1671 57.6262 22.9231 56.7622 23.3191L59.3902 27.0391H57.3862L55.1422 23.6431H54.2662V27.0391H52.5622ZM55.2262 20.0551H54.2662V22.2271H55.2262C55.9462 22.2271 56.3662 21.8071 56.3662 21.1231C56.3662 20.4871 55.9462 20.0551 55.2262 20.0551ZM60.6496 27.0391V18.6391H65.5456V20.0551H62.3536V22.0471H65.0656V23.4631H62.3536V25.6231H65.5456V27.0391H60.6496ZM1.23596 39.0391V30.6391H4.53596C7.19996 30.6391 8.99996 32.5711 8.99996 34.8391C8.99996 37.1071 7.19996 39.0391 4.53596 39.0391H1.23596ZM4.55996 32.1871H2.93996V37.4911H4.55996C6.11996 37.4911 7.24796 36.3271 7.24796 34.8391C7.24796 33.3391 6.11996 32.1871 4.55996 32.1871ZM10.8233 39.0391V30.6391H15.7193V32.0551H12.5273V34.0471H15.2393V35.4631H12.5273V37.6231H15.7193V39.0391H10.8233ZM21.1738 39.0391V30.6391H22.8778V37.4911H26.0698V39.0391H21.1738ZM27.3017 34.0951H25.8857L26.9657 30.6391H28.6937L27.3017 34.0951ZM30.2001 39.0391V30.6391H31.9041V39.0391H30.2001ZM34.4319 39.0391V30.6391H36.6159L40.3719 36.7111V30.6391H42.0759V39.0391H39.8919L36.1359 32.9671V39.0391H34.4319ZM43.7412 32.1871V30.6391H50.6292V32.1871H48.0372V39.0391H46.3332V32.1871H43.7412ZM55.5098 29.9191H53.9618L55.3178 28.2991H57.0698L55.5098 29.9191ZM52.3058 39.0391V30.6391H57.2018V32.0551H54.0098V34.0471H56.7218V35.4631H54.0098V37.6231H57.2018V39.0391H52.3058ZM59.3619 39.0391V30.6391H61.9299C63.7779 30.6391 64.9179 31.5871 64.9179 33.1471C64.9179 34.1671 64.4259 34.9231 63.5619 35.3191L66.1899 39.0391H64.1859L61.9419 35.6431H61.0659V39.0391H59.3619ZM62.0259 32.0551H61.0659V34.2271H62.0259C62.7459 34.2271 63.1659 33.8071 63.1659 33.1231C63.1659 32.4871 62.7459 32.0551 62.0259 32.0551ZM67.4493 39.0391V30.6391H69.1533V39.0391H67.4493ZM71.6812 39.0391V30.6391H76.5772V32.0551H73.3852V34.0471H76.0972V35.4631H73.3852V37.6231H76.5772V39.0391H71.6812ZM83.6441 35.8951V30.6391H85.3481V35.7511C85.3481 37.9591 84.0521 39.2791 81.9401 39.2791C79.8401 39.2791 78.5441 37.9591 78.5441 35.7511V30.6391H80.2481V35.8951C80.2481 37.0231 80.8841 37.6831 81.9521 37.6831C82.9961 37.6831 83.6441 37.0231 83.6441 35.8951ZM87.6449 39.0391V30.6391H90.2129C92.0609 30.6391 93.2009 31.5871 93.2009 33.1471C93.2009 34.1671 92.7089 34.9231 91.8449 35.3191L94.4729 39.0391H92.4689L90.2249 35.6431H89.3489V39.0391H87.6449ZM90.3089 32.0551H89.3489V34.2271H90.3089C91.0289 34.2271 91.4489 33.8071 91.4489 33.1231C91.4489 32.4871 91.0289 32.0551 90.3089 32.0551Z" fill="black"/>
<path fill-rule="evenodd" clip-rule="evenodd" d="M31.18 60.653L30.0638 61.6729H29.7758L30.4359 60.509H31.18V60.653ZM30.3759 64.6004H30.1359C29.8358 64.9603 29.4998 65.2483 29.1757 65.2483C28.8397 65.2483 28.6717 65.0443 28.6717 64.6004C28.6717 64.4204 28.6957 64.2284 28.7317 64.0604L30.688 63.4124C31.072 62.5005 30.6159 62.1045 30.0759 62.1045C29.1517 62.1045 28.0956 63.7244 28.0956 65.0203C28.0956 65.6323 28.3836 65.9683 28.8397 65.9683C29.3678 65.9563 29.9198 65.4403 30.3759 64.6004ZM29.7046 62.6328C29.9686 62.6328 30.1966 62.8368 30.0766 63.3047L28.8644 63.6287C29.0565 63.0528 29.4165 62.6328 29.7046 62.6328ZM25.8886 62.6565H26.5367L25.5045 65.4883C25.4085 65.7283 25.5405 65.9683 25.7925 65.9683C26.5247 65.9683 27.4008 65.3443 27.7368 64.4564H27.5568C27.2928 64.8284 26.7167 65.2363 26.2846 65.3083L27.2328 62.6565H28.2049L28.3249 62.2485H27.3768L27.7368 61.2286H27.3648L26.6927 62.2485L25.8886 62.3565V62.6565ZM24.9878 62.1172C25.1198 62.1172 25.2998 62.2612 25.2158 62.5252L24.0516 65.345C24.3517 65.297 24.6637 65.009 24.8438 64.745H25.0358C24.7597 65.453 24.1356 65.969 23.5956 65.969C23.4636 65.969 23.2715 65.825 23.3675 65.561L24.4477 62.7412C24.1477 62.7892 23.8356 63.0771 23.6556 63.3411H23.4756C23.7516 62.6212 24.4237 62.1172 24.9878 62.1172ZM25.3246 61.3969C25.5647 61.3969 25.7687 61.2049 25.7687 60.9529C25.7687 60.713 25.5647 60.509 25.3246 60.509C25.0726 60.509 24.8806 60.713 24.8806 60.9529C24.8806 61.1929 25.0846 61.3969 25.3246 61.3969ZM20.0797 63.7371C20.3437 63.1611 20.2477 62.8971 20.0797 62.8971C19.9357 62.8971 19.7676 63.0531 19.5996 63.3411H19.4196C19.6956 62.7292 20.0557 62.1172 20.4517 62.1172C20.7878 62.1172 20.9078 62.4532 20.9078 62.8252V63.3531C20.9618 63.2903 21.0144 63.2286 21.0658 63.1683L21.0667 63.1672L21.0675 63.1663C21.5745 62.5714 21.9617 62.1172 22.408 62.1172C22.7561 62.1172 22.9361 62.3332 22.9361 62.6572C22.9361 62.8492 22.8761 63.0891 22.7441 63.3411L21.7479 65.345C22.048 65.297 22.36 65.009 22.54 64.745H22.7201C22.444 65.465 21.7719 65.969 21.2079 65.969C20.9558 65.969 20.8118 65.705 20.9198 65.489L22.072 63.2691C22.204 63.0171 22.228 62.8492 22.024 62.8492C21.7479 62.8492 21.0998 63.3051 20.7518 63.7251L19.9957 65.717C19.9117 65.921 19.8277 65.969 19.6356 65.969C19.3236 65.969 19.1676 65.765 19.3116 65.441L20.0797 63.7371ZM19.2987 62.9684C19.4307 62.5125 19.3587 62.1045 19.0106 62.1045C18.5766 62.1045 18.4407 62.3911 18.02 63.2781L17.9905 63.3404V62.8125C17.9905 62.4405 17.8705 62.1045 17.5344 62.1045C17.1384 62.1045 16.7783 62.7165 16.5023 63.3284H16.6823C16.8743 63.0524 17.0544 62.8845 17.1984 62.8845C17.3664 62.8845 17.4624 63.1484 17.1984 63.7244L16.4303 65.4283C16.2863 65.7523 16.4423 65.9563 16.7543 65.9563C16.9464 65.9563 17.0304 65.9083 17.1144 65.7043L17.8705 63.7124C18.0865 63.4484 18.2785 63.2204 18.5186 62.9684H19.2987ZM15.5064 63.3047C15.6264 62.8368 15.3984 62.6328 15.1344 62.6328C14.8463 62.6328 14.4863 63.0528 14.2942 63.6287L15.5064 63.3047ZM15.8057 64.6004H15.5657C15.2656 64.9603 14.9296 65.2483 14.6055 65.2483C14.2695 65.2483 14.1015 65.0443 14.1015 64.6004C14.1015 64.4204 14.1255 64.2284 14.1615 64.0604L16.1178 63.4124C16.5018 62.5005 16.0458 62.1045 15.5057 62.1045C14.5815 62.1045 13.5254 63.7244 13.5254 65.0203C13.5254 65.6323 13.8134 65.9683 14.2695 65.9683C14.7976 65.9563 15.3497 65.4403 15.8057 64.6004ZM11.9665 62.6565H11.3184V62.3565L12.1225 62.2485L12.7946 61.2286H13.1666L12.8066 62.2485H13.7547L13.6347 62.6565H12.6626L11.7144 65.3083C12.1465 65.2363 12.7226 64.8284 12.9866 64.4564H13.1666C12.8306 65.3443 11.9545 65.9683 11.2224 65.9683C10.9703 65.9683 10.8383 65.7283 10.9343 65.4883L11.9665 62.6565ZM7.88648 64.8526C7.88648 63.9767 8.85862 62.8007 9.3987 62.8007C9.51871 62.8007 9.63873 62.8127 9.73475 62.8487L9.17066 64.3607C8.84662 64.7566 8.34254 65.2366 8.10251 65.2366C7.97049 65.2366 7.88648 65.1166 7.88648 64.8526ZM10.5632 61.9248L10.8632 61.9488L9.81906 64.3487C9.56702 64.9246 9.67504 65.1886 9.81906 65.1886C9.96308 65.1886 10.1431 65.0206 10.3351 64.7447H10.5152C10.2391 65.3566 9.87907 65.9686 9.48301 65.9686C9.14696 65.9686 8.94293 65.6086 9.00294 64.9606L9.02694 64.7327L8.96158 64.8239C8.53167 65.4248 8.14265 65.9686 7.74276 65.9686C7.39471 65.9686 7.21468 65.7526 7.21468 65.4286C7.21468 64.0367 8.7389 62.2608 10.1671 62.2608H10.2271L10.5632 61.9248ZM7.81402 62.9684C7.94604 62.5125 7.87403 62.1045 7.52598 62.1045C7.09192 62.1045 6.956 62.3911 6.53537 63.2781L6.50583 63.3404V62.8125C6.50583 62.4405 6.38581 62.1045 6.04976 62.1045C5.65371 62.1045 5.29365 62.7165 5.01761 63.3284H5.19764C5.38967 63.0524 5.56969 62.8845 5.70171 62.8845C5.86974 62.8845 5.96575 63.1484 5.70171 63.7244L4.9336 65.4403C4.78958 65.7643 4.9456 65.9683 5.25765 65.9683C5.44968 65.9683 5.53369 65.9203 5.6177 65.7163L6.37381 63.7244C6.58984 63.4604 6.78187 63.2324 7.0219 62.9804H7.81402V62.9684ZM2.86842 65.6076L2.79641 65.8236H0L0.0720104 65.5956C0.936136 65.4396 1.08016 65.3676 1.44021 64.3956L2.22032 62.3078C2.56837 61.3358 2.49636 61.2638 1.74025 61.1078L1.81226 60.8918H5.44879L5.23276 62.0558H4.96872C4.96872 61.3598 4.89671 61.1798 4.23661 61.1798H4.06859C3.4205 61.1798 3.33648 61.2758 3.15646 61.7798L2.64038 63.1837H3.39649C3.90056 63.1837 4.09259 62.8717 4.32063 62.4637H4.58466L3.96057 64.1676H3.69654C3.75654 63.6517 3.75654 63.4477 3.28848 63.4477H2.53237L2.18432 64.4076C1.80809 65.4068 1.9156 65.4272 2.81149 65.5968C2.83013 65.6003 2.8491 65.6039 2.86842 65.6076Z" fill="black"/>
<path fill-rule="evenodd" clip-rule="evenodd" d="M5.24476 51.4732L4.12857 52.2776V52.2896H3.84052L4.50063 51.3291H5.24476V51.4732ZM13.0472 57.1039L14.8355 52.3496L14.7755 52.2775L13.5393 52.4216V52.5657L13.7793 52.7457C13.9843 52.9052 13.93 53.0538 13.76 53.5196L13.7313 53.5982L12.3631 57.248C12.2551 57.4641 12.3991 57.7282 12.6511 57.7282C13.2152 57.7282 13.8153 57.2119 14.0914 56.5036H13.9114C13.7193 56.7677 13.3353 57.0559 13.0472 57.1039ZM21.2438 53.4421L22.36 52.4216V52.2775H21.6159L20.9558 53.4421H21.2438ZM21.315 56.3595H21.5551C21.111 57.2119 20.5589 57.7282 20.0308 57.7282C19.5747 57.7282 19.2867 57.392 19.2867 56.7797C19.2867 55.4831 20.3429 53.8623 21.267 53.8623C21.7951 53.8623 22.2632 54.2585 21.8791 55.1709L19.9108 55.8192C19.8748 55.9873 19.8508 56.1794 19.8508 56.3595C19.8508 56.8037 20.0188 57.0078 20.3549 57.0078C20.6789 57.0078 21.015 56.7197 21.315 56.3595ZM21.2544 55.0629C21.3745 54.6067 21.1464 54.4026 20.8824 54.4026C20.6063 54.4026 20.2463 54.8228 20.0422 55.3871L21.2544 55.0629ZM17.7258 54.4263H17.0777V54.1262L17.8818 54.0181L18.554 52.9976H18.926L18.566 54.0181H19.5141L19.3941 54.4263H18.4219L17.4738 57.0796C17.9058 57.0076 18.4819 56.5994 18.746 56.2272H18.926C18.59 57.1156 17.7138 57.7399 16.9817 57.7399C16.7296 57.7399 16.5976 57.4998 16.6936 57.2597L17.7258 54.4263ZM16.4055 54.2822C16.4775 54.0181 16.3095 53.874 16.1655 53.874C15.6014 53.874 14.9292 54.3903 14.6532 55.0986H14.8332C15.0133 54.8345 15.3253 54.5463 15.6254 54.4983L14.5452 57.3197C14.4492 57.5838 14.6412 57.7279 14.7732 57.7279C15.3133 57.7279 15.9374 57.2117 16.2135 56.5033H16.0334C15.8534 56.7674 15.5413 57.0556 15.2413 57.1036L16.4055 54.2822ZM16.9585 52.7217C16.9585 52.9619 16.7544 53.166 16.5144 53.166C16.2744 53.166 16.0703 52.9619 16.0703 52.7217C16.0703 52.4816 16.2624 52.2775 16.5144 52.2775C16.7544 52.2775 16.9585 52.4816 16.9585 52.7217ZM10.8987 54.5706C10.3586 54.5706 9.38641 55.7472 9.38641 56.6237C9.38641 56.8878 9.47043 57.0078 9.61445 57.0078C9.84249 57.0078 10.3466 56.5276 10.6706 56.1314L11.2347 54.6187C11.1267 54.5826 11.0187 54.5706 10.8987 54.5706ZM12.3632 53.7182L12.0632 53.6942L11.7271 54.0304H11.6671C10.2389 54.0304 8.71459 55.8073 8.71459 57.2C8.71459 57.5241 8.89463 57.7402 9.24269 57.7402C9.64259 57.7402 10.0316 57.1962 10.4616 56.5949L10.5269 56.5036L10.5029 56.7317C10.4429 57.38 10.6469 57.7402 10.983 57.7402C11.3791 57.7402 11.7391 57.1279 12.0152 56.5156H11.8351C11.6431 56.7918 11.4631 56.9598 11.3191 56.9598C11.175 56.9598 11.067 56.6957 11.3191 56.1194L12.3632 53.7182ZM6.3135 57.6083C5.79741 57.8124 5.43734 58.0525 5.43734 58.4247C5.43734 58.7728 5.7614 58.9169 6.43352 58.9169C7.33368 58.9169 7.82576 58.6528 7.82576 58.3046C7.82576 58.1485 7.62173 58.0765 7.08163 57.8964C6.73357 57.7884 6.48153 57.6923 6.3135 57.6083ZM6.91282 56.1315C6.67277 56.1315 6.58876 55.9274 6.58876 55.7113C6.58876 55.0149 6.92482 54.1505 7.46491 54.1505C7.70495 54.1505 7.78897 54.3546 7.78897 54.5707C7.77697 55.2791 7.44091 56.1315 6.91282 56.1315ZM7.3701 57.26C8.03022 57.4641 8.43829 57.6201 8.43829 58.0764C8.43829 58.6646 7.3581 59.361 6.04987 59.349C5.29374 59.349 4.64563 59.1449 4.64563 58.6526C4.64563 58.1844 5.0777 57.8002 6.13389 57.4881C5.98986 57.392 5.92985 57.272 5.92985 57.1039C5.92985 56.8157 6.1939 56.5876 6.64998 56.3715C6.2059 56.3115 5.91785 55.9753 5.91785 55.4831C5.91785 54.7267 6.54196 53.8623 7.52613 53.8623C7.73017 53.8623 7.9102 53.9103 8.05422 54.0064H9.13441L9.01439 54.4146H8.37828C8.41429 54.5226 8.43829 54.6427 8.43829 54.7747C8.43829 55.5071 7.85019 56.3475 6.91402 56.3955C6.67398 56.5276 6.55396 56.7077 6.55396 56.8518C6.55396 57.0213 6.75029 57.0786 7.1842 57.2053C7.24193 57.2221 7.30387 57.2402 7.3701 57.26ZM3.56462 55.207C4.03271 55.207 4.04471 55.4111 3.9727 55.9274H4.23674L4.86085 54.2225H4.59681C4.36877 54.6307 4.17673 54.9429 3.67264 54.9429H2.64046L3.14455 53.5382C3.32458 53.034 3.4086 52.9379 4.05671 52.9379H4.51279C5.17291 52.9379 5.24492 53.118 5.24492 53.8143H5.50896L5.725 52.6498H1.81232L1.7403 52.8659C2.49644 53.022 2.56845 53.094 2.22039 54.0665L1.44025 56.1675C1.08019 57.14 0.936164 57.212 0.0600105 57.3681L0 57.5962H4.34476L5.1249 56.3596H4.82484C4.32076 56.8518 3.81667 57.3081 2.8325 57.3081C1.74998 57.3081 1.76926 57.2551 2.09407 56.3625C2.11497 56.3051 2.13715 56.2441 2.16038 56.1795L2.52044 55.219H3.56462V55.207Z" fill="black"/>
<path fill-rule="evenodd" clip-rule="evenodd" d="M7.14964 44.9267C7.3896 44.9267 7.59356 44.7228 7.59356 44.4829C7.59356 44.243 7.3896 44.0391 7.14964 44.0391C6.89769 44.0391 6.70573 44.243 6.70573 44.4829C6.70573 44.7348 6.89769 44.9267 7.14964 44.9267ZM10.7022 46.4377C10.7022 45.862 10.5583 45.6461 10.1503 45.6461C9.64644 45.6461 9.17853 46.1858 8.71062 46.8335L9.71843 44.1347L9.65844 44.0508L8.42268 44.1947V44.3387L8.66263 44.5186C8.87155 44.681 8.81099 44.8435 8.63302 45.3209L8.61464 45.3702L7.52285 48.2249C7.42687 48.4648 7.31889 48.7527 7.31889 48.8247C7.31889 49.1605 7.7748 49.4844 8.19472 49.4844C9.13054 49.4964 10.7022 47.7691 10.7022 46.4377ZM21.1042 45.2143L22.22 44.1947V44.0508H21.4761L20.8163 45.2143H21.1042ZM21.1765 48.129H21.4164C20.9605 48.9806 20.4086 49.4964 19.8807 49.4844C19.4248 49.4844 19.1369 49.1605 19.1369 48.5488C19.1369 47.2534 20.1927 45.6341 21.1165 45.6341C21.6444 45.6341 22.1123 46.0299 21.7284 46.9415L19.7727 47.5892C19.7368 47.7572 19.7128 47.9491 19.7128 48.129C19.7128 48.5728 19.8807 48.7767 20.2167 48.7767C20.5406 48.7767 20.8765 48.4888 21.1765 48.129ZM21.1153 46.8336C21.2353 46.3778 21.0073 46.1739 20.7434 46.1739C20.4555 46.1739 20.0955 46.5937 19.9036 47.1575L21.1153 46.8336ZM17.5747 46.1986H16.9268V45.8987L17.7306 45.7907L18.4025 44.7712H18.7744L18.4145 45.7907H19.3623L19.2423 46.1986H18.2705L17.3227 48.8494C17.7546 48.7774 18.3305 48.3696 18.5945 47.9978H18.7744C18.4385 48.8854 17.5627 49.5091 16.8308 49.5091C16.5789 49.5091 16.4469 49.2692 16.5429 49.0293L17.5747 46.1986ZM16.5931 46.5104C16.7251 46.0546 16.6531 45.6468 16.3052 45.6468C15.8713 45.6468 15.7354 45.9333 15.3149 46.82L15.2854 46.8822V46.3545C15.2854 45.9826 15.1654 45.6468 14.8295 45.6468C14.4336 45.6468 14.0736 46.2585 13.7977 46.8702H13.9776C14.1696 46.5944 14.3496 46.4264 14.4815 46.4264C14.6495 46.4264 14.7455 46.6903 14.4815 47.2661L13.7137 48.9693C13.5697 49.2932 13.7257 49.4971 14.0376 49.4971C14.2296 49.4971 14.3136 49.4491 14.3976 49.2452L15.1534 47.2541C15.3694 46.9902 15.5613 46.7623 15.8013 46.5104H16.5931ZM12.7902 46.8336C12.9101 46.3778 12.6822 46.1739 12.4182 46.1739C12.1303 46.1739 11.7823 46.5937 11.5784 47.1575L12.7902 46.8336ZM13.0893 48.129H12.8494C12.5495 48.4888 12.2135 48.7767 11.8896 48.7767C11.5536 48.7767 11.3857 48.5728 11.3857 48.129C11.3857 47.9491 11.4097 47.7572 11.4457 47.5892L13.4013 46.9415C13.7852 46.0299 13.3293 45.6341 12.7894 45.6341C11.8656 45.6341 10.8098 47.2534 10.8098 48.5488C10.8098 49.1605 11.0977 49.4844 11.5536 49.4844C12.0815 49.4964 12.6334 48.9806 13.0893 48.129ZM8.05122 48.5852C8.05122 48.7411 8.32717 48.9211 8.51913 48.9211C9.29898 48.9211 10.0308 47.5177 10.0188 46.738C10.0188 46.4741 9.88686 46.3662 9.7069 46.3662C9.41896 46.3662 8.89106 46.798 8.55512 47.2058L8.24318 48.0455C8.1352 48.3213 8.05122 48.5372 8.05122 48.5852ZM6.79168 45.6468C6.93565 45.6468 7.10362 45.7907 7.03163 46.0546L5.87986 48.8734C6.1798 48.8254 6.49174 48.5375 6.6717 48.2736H6.85167C6.57572 48.9813 5.95184 49.4971 5.41195 49.4971C5.26798 49.4971 5.07601 49.3531 5.172 49.0893L6.25179 46.2705C5.95184 46.3185 5.63991 46.6064 5.45994 46.8702H5.27998C5.55592 46.1626 6.22779 45.6468 6.79168 45.6468ZM1.81165 44.3993H4.39115L4.31916 44.6272C3.44333 44.7831 3.29936 44.8551 2.93943 45.8267L2.17158 47.9377C1.79965 48.9453 1.89563 49.0652 2.5555 49.0652C3.37077 49.0652 3.90535 48.4728 4.37213 47.9555C4.40681 47.9171 4.44111 47.8791 4.47513 47.8418H4.77507L3.92324 49.3531H0L0.071986 49.1372C0.935818 48.9813 1.07979 48.9093 1.43972 47.9377L2.21957 45.8147C2.5675 44.8431 2.49552 44.7711 1.73966 44.6152L1.81165 44.3993Z" fill="black"/>
</g>
<defs>
<clipPath id="clip0_9001_21373">
<rect width="95" height="66" fill="white" transform="translate(0 0.0390625)"/>
</clipPath>
</defs>
</svg>
