<svg width="206" height="60" viewBox="0 0 206 60" fill="none" xmlns="http://www.w3.org/2000/svg">
<path fill-rule="evenodd" clip-rule="evenodd" d="M23.3754 39.334L18.2561 44.9974C17.8154 45.4899 17.0931 45.6046 16.5243 45.2763L8.76056 40.7951C7.79532 40.2369 7.2002 39.2027 7.2002 38.0865V26.8665C7.2002 25.7502 7.79532 24.724 8.76056 24.1659L18.4786 18.5519C19.4438 17.9938 20.634 17.9938 21.5992 18.5519L31.3172 24.1659C32.2824 24.724 32.8776 25.7502 32.8776 26.8665V28.1467C32.8776 28.5735 32.7191 28.984 32.4318 29.3041L25.2607 37.241L22.2969 33.0467C23.7562 32.3819 24.5868 31.1015 24.5868 29.3779C24.5868 26.7432 22.6613 25.1428 19.5399 25.1428H15.202V39.334H18.0805V33.5969H19.5604L23.3507 39.334H23.3754ZM19.7024 27.5395C20.9179 27.5395 21.6279 28.2616 21.6279 29.3368C21.6279 30.4941 20.9179 31.2083 19.7024 31.2083H18.0805V27.5395H19.7024Z" fill="#2845C1"/>
<path fill-rule="evenodd" clip-rule="evenodd" d="M22.1891 46.22C22.148 45.7735 22.0543 45.2591 21.8426 45.0131C21.6575 44.8037 21.3958 44.6715 21.1514 44.5859C21.2195 44.5192 21.2604 44.4781 21.2604 44.4781L22.0747 43.5787C23.692 42.7291 26.2433 41.3807 28.2539 40.3174L23.5603 45.4926C23.0037 45.7877 22.5307 46.0368 22.1891 46.22ZM30.4297 37.9174C30.4378 37.1291 30.4525 35.7079 30.4657 34.3231L31.3655 33.3314C31.6356 33.5417 31.9568 33.6902 32.3114 33.7561C32.4941 33.7943 32.6776 33.8066 32.8572 33.798C32.8523 34.2752 32.8476 34.773 32.8427 35.2553L30.4297 37.9174ZM28.2539 40.3174L30.4297 37.9174C30.4257 38.3012 30.4233 38.5398 30.4233 38.5398L30.4305 38.6489C30.4151 38.6799 30.0225 39.3811 29.1646 39.834C28.8787 39.9866 28.5731 40.1495 28.2539 40.3174Z" fill="white"/>
<path fill-rule="evenodd" clip-rule="evenodd" d="M32.609 31.5024C32.6335 31.4404 32.6993 31.3994 32.7655 31.4157C32.8313 31.4267 32.879 31.4844 32.8783 31.5518C32.8595 33.6783 32.8092 38.564 32.8092 38.564C32.8092 38.564 33.0623 40.4703 30.282 41.9407C27.1291 43.6148 21.604 46.5248 21.604 46.5248C21.604 46.5248 20.523 47.1309 20.0472 46.5866C19.572 46.0422 21.2604 44.4781 21.2604 44.4781L31.3986 33.2949C31.3986 33.2949 32.1525 32.5662 32.609 31.5024Z" fill="#C83F49"/>
<path fill-rule="evenodd" clip-rule="evenodd" d="M59.7656 28.6116C60.5428 28.6116 61.2396 28.7364 61.8555 28.9856C62.4861 29.235 63.0219 29.5876 63.4619 30.0423C63.9165 30.4822 64.2615 31.0104 64.4961 31.6263C64.7453 32.2274 64.8701 32.8873 64.8701 33.6058C64.8701 33.8991 64.8477 34.1855 64.8037 34.4642C64.7865 34.6275 64.7665 34.7736 64.7441 34.9017C64.7301 34.982 64.7229 35.0227 64.6992 35.0579C64.6794 35.0871 64.6474 35.1138 64.6152 35.1282C64.5764 35.1456 64.5317 35.1458 64.4434 35.1458H57.2832C57.1602 35.1458 57.0982 35.1463 57.0518 35.1731C57.0128 35.1959 56.9792 35.2353 56.9639 35.2776C56.9456 35.328 56.9561 35.3853 56.9766 35.4993C57.0454 35.8839 57.1534 36.2212 57.3018 36.5101C57.5804 37.0526 57.9692 37.4482 58.4678 37.6976C58.9664 37.9469 59.5461 38.0716 60.2061 38.0716C60.822 38.0716 61.3793 37.9547 61.8779 37.72C62.2654 37.5377 62.591 37.3017 62.8545 37.013C62.9424 36.9167 62.9868 36.8689 63.0293 36.8519C63.0696 36.8358 63.1041 36.8327 63.1465 36.8421C63.1912 36.852 63.2374 36.8887 63.3291 36.9612L64.8232 38.1438C64.9084 38.2112 64.9517 38.2446 64.9717 38.2894C64.9885 38.3271 64.9933 38.374 64.9844 38.4144C64.9737 38.4622 64.94 38.5011 64.874 38.5794C64.3885 39.1557 63.7788 39.6247 63.0439 39.9856C62.2226 40.3816 61.2835 40.5804 60.2275 40.5804C58.9078 40.5803 57.7862 40.3084 56.8623 39.7659C55.953 39.2086 55.2555 38.4751 54.7715 37.5657C54.3023 36.6565 54.0674 35.6665 54.0674 34.596C54.0674 33.7749 54.1922 33.0049 54.4414 32.2864C54.7053 31.5533 55.0797 30.9149 55.5635 30.3724C56.0475 29.815 56.6417 29.3815 57.3457 29.0735C58.0496 28.7656 58.8564 28.6116 59.7656 28.6116ZM59.7002 30.8997C59.0989 30.8997 58.5855 31.0322 58.1602 31.2962C57.7495 31.5601 57.4339 31.9558 57.2139 32.4837C57.176 32.5722 57.1416 32.6646 57.1104 32.7601C57.0717 32.878 57.052 32.9371 57.0664 32.9935C57.0784 33.0401 57.1127 33.0868 57.1533 33.1126C57.2024 33.1437 57.2698 33.1438 57.4043 33.1438H61.8076C61.9212 33.1438 61.9779 33.1434 62.0244 33.1165C62.0617 33.0949 62.0976 33.0526 62.1123 33.012C62.1306 32.9615 62.1221 32.9119 62.1045 32.8138C62.0607 32.57 61.9777 32.3353 61.8555 32.1097C61.6795 31.7579 61.4084 31.4721 61.042 31.2522C60.6901 31.0176 60.2427 30.8998 59.7002 30.8997Z" fill="#2845C1"/>
<path d="M70.6621 28.6116C71.4981 28.6116 72.2755 28.7957 72.9941 29.1624C73.6218 29.4637 74.1262 29.8347 74.5068 30.2757C74.5683 30.3469 74.5988 30.3827 74.6104 30.429C74.6199 30.4674 74.6172 30.5143 74.6025 30.5511C74.5848 30.5954 74.5465 30.6299 74.4697 30.6976L73.0928 31.9095C73.0049 31.9869 72.9607 32.0253 72.915 32.0374C72.8728 32.0485 72.8338 32.047 72.793 32.0315C72.7489 32.0148 72.7061 31.9685 72.6211 31.8763C72.3961 31.6322 72.1463 31.4163 71.8721 31.2298C71.5056 30.9806 71.1097 30.8558 70.6846 30.8558C70.3912 30.8558 70.1487 30.9074 69.958 31.0101C69.7675 31.098 69.6212 31.2228 69.5186 31.3841C69.4306 31.5454 69.3857 31.7217 69.3857 31.9124C69.3859 32.2348 69.5106 32.4992 69.7598 32.7044C70.0237 32.895 70.3541 33.0704 70.75 33.2317C71.1607 33.3784 71.5864 33.5401 72.0264 33.7161C72.4809 33.8921 72.9059 34.1124 73.3018 34.3763C73.7124 34.6256 74.0427 34.9627 74.292 35.388C74.556 35.7987 74.6885 36.3266 74.6885 36.972C74.6738 37.7492 74.475 38.4088 74.0938 38.9515C73.7271 39.4794 73.2438 39.8837 72.6426 40.1624C72.0414 40.441 71.3884 40.5803 70.6846 40.5804C69.6872 40.5804 68.829 40.3963 68.1104 40.0296C67.4819 39.7089 66.926 39.2875 66.4434 38.7649C66.3736 38.6894 66.3391 38.6514 66.3262 38.6048C66.3151 38.5651 66.3175 38.5193 66.332 38.4808C66.3491 38.4356 66.3888 38.3988 66.4688 38.3265L67.835 37.0911C67.9231 37.0114 67.9671 36.9708 68.0137 36.9583C68.0561 36.947 68.0967 36.9493 68.1377 36.9651C68.1825 36.9826 68.2243 37.0293 68.3076 37.1224C68.5856 37.433 68.8865 37.6988 69.21 37.9183C69.6353 38.1969 70.1126 38.3362 70.6406 38.3362C71.0951 38.3362 71.4324 38.2261 71.6523 38.0062C71.887 37.7715 72.0039 37.4851 72.0039 37.1478C72.0039 36.8253 71.8722 36.5688 71.6084 36.3782C71.3591 36.1729 71.0288 35.9966 70.6182 35.8499C70.2222 35.6886 69.7965 35.52 69.3418 35.344C68.902 35.1681 68.4769 34.9478 68.0664 34.6839C67.6704 34.4199 67.3402 34.075 67.0762 33.6497C66.8269 33.2245 66.7022 32.6893 66.7021 32.0442C66.7021 31.3842 66.8707 30.7968 67.208 30.2835C67.56 29.7703 68.0296 29.3668 68.6162 29.0735C69.2175 28.7656 69.8996 28.6116 70.6621 28.6116Z" fill="#2845C1"/>
<path fill-rule="evenodd" clip-rule="evenodd" d="M124.569 28.6116C125.331 28.6117 126.013 28.7364 126.615 28.9857C127.231 29.2203 127.751 29.5653 128.176 30.0198C128.616 30.4598 128.953 30.9733 129.188 31.5599C129.423 32.1317 129.54 32.7623 129.54 33.4515C129.54 33.6567 129.526 33.8625 129.497 34.0677C129.489 34.1774 129.477 34.281 129.46 34.3782C129.448 34.4542 129.441 34.493 129.417 34.5286C129.398 34.5576 129.364 34.5857 129.332 34.5999C129.294 34.6172 129.25 34.6175 129.164 34.6175H121.224C121.11 34.6175 121.053 34.6172 121.009 34.6409C120.972 34.6611 120.939 34.6967 120.921 34.7357C120.901 34.7814 120.905 34.8358 120.913 34.9437C120.962 35.6613 121.131 36.2936 121.422 36.8402C121.774 37.5001 122.258 38.0058 122.874 38.3577C123.505 38.7097 124.224 38.8861 125.031 38.8861C125.749 38.886 126.394 38.7389 126.966 38.4456C127.449 38.1923 127.857 37.8748 128.191 37.4925C128.273 37.3989 128.313 37.3513 128.356 37.3333C128.395 37.3168 128.432 37.3138 128.474 37.3226C128.519 37.3321 128.565 37.3674 128.656 37.4378L129.536 38.1214C129.622 38.1884 129.665 38.2222 129.685 38.2669C129.702 38.3048 129.708 38.3522 129.699 38.3929C129.688 38.4409 129.655 38.4808 129.588 38.5599C129.105 39.1354 128.502 39.6036 127.781 39.9642C126.974 40.3748 126.057 40.5803 125.031 40.5804C123.784 40.5804 122.706 40.3086 121.796 39.7659C120.902 39.2086 120.205 38.4751 119.706 37.5657C119.223 36.6565 118.98 35.6666 118.98 34.596C118.98 33.7601 119.105 32.9826 119.354 32.264C119.618 31.5307 119.992 30.8926 120.476 30.3499C120.975 29.7926 121.569 29.3669 122.258 29.0735C122.948 28.7656 123.718 28.6116 124.569 28.6116ZM124.524 30.1741C123.806 30.1742 123.168 30.3498 122.611 30.7015C122.068 31.0388 121.642 31.5308 121.334 32.1761C121.243 32.3733 121.166 32.5844 121.103 32.8089C121.069 32.9287 121.053 32.9888 121.069 33.0433C121.082 33.0889 121.115 33.1325 121.156 33.1575C121.204 33.1873 121.27 33.1878 121.403 33.1878H127.337C127.451 33.1878 127.509 33.1877 127.554 33.1624C127.592 33.1415 127.626 33.1027 127.642 33.0628C127.662 33.0146 127.655 32.9624 127.642 32.8587C127.593 32.4683 127.479 32.1014 127.296 31.7581C127.047 31.2741 126.688 30.8923 126.218 30.6136C125.764 30.3204 125.198 30.1741 124.524 30.1741Z" fill="#2845C1"/>
<path fill-rule="evenodd" clip-rule="evenodd" d="M168.649 24.2407C169.939 24.2407 171.01 24.6002 171.86 25.3188C172.711 26.0375 173.349 27.0127 173.775 28.2446C174.2 29.4766 174.413 30.8551 174.413 32.3804C174.413 33.5242 174.288 34.595 174.039 35.5923C173.804 36.5749 173.452 37.4332 172.983 38.1665C172.513 38.8997 171.92 39.4795 171.201 39.9048C170.483 40.3154 169.631 40.521 168.649 40.521C167.387 40.5209 166.324 40.1613 165.459 39.4429C164.608 38.7242 163.97 37.7481 163.545 36.5161C163.12 35.2842 162.907 33.9055 162.907 32.3804C162.907 31.2366 163.024 30.1734 163.259 29.1909C163.508 28.1936 163.868 27.3276 164.337 26.5942C164.821 25.8611 165.422 25.289 166.141 24.8784C166.859 24.4531 167.695 24.2408 168.649 24.2407ZM168.671 26.0884C168.055 26.0884 167.512 26.2501 167.043 26.5727C166.574 26.8807 166.185 27.3203 165.877 27.8921C165.569 28.4494 165.334 29.1177 165.173 29.895C165.026 30.6575 164.953 31.4859 164.953 32.3804C164.953 33.583 165.085 34.6614 165.349 35.6147C165.627 36.5533 166.045 37.3016 166.603 37.8589C167.16 38.4015 167.85 38.6724 168.671 38.6724C169.287 38.6723 169.822 38.5183 170.276 38.2104C170.746 37.8878 171.134 37.4475 171.442 36.8901C171.75 36.3182 171.978 35.6508 172.125 34.8882C172.286 34.111 172.367 33.2749 172.367 32.3804C172.367 31.1778 172.228 30.1071 171.949 29.1685C171.685 28.2151 171.274 27.467 170.717 26.9243C170.174 26.3671 169.492 26.0884 168.671 26.0884Z" fill="#2845C1"/>
<path fill-rule="evenodd" clip-rule="evenodd" d="M81.335 28.6116C82.4055 28.6116 83.2999 28.8027 84.0186 29.1839C84.7372 29.5652 85.2798 30.0864 85.6465 30.7464C86.013 31.4063 86.1972 32.1391 86.1973 32.9456V39.8196C86.1973 39.9314 86.1974 39.9878 86.1758 40.0306C86.1566 40.0682 86.1255 40.0993 86.0879 40.1185C86.0451 40.1401 85.9887 40.1399 85.877 40.1399H83.6934C83.6096 40.1399 83.5677 40.1396 83.5342 40.1272C83.4793 40.107 83.4363 40.0639 83.416 40.0091C83.4037 39.9756 83.4033 39.9337 83.4033 39.8499V39.6702C83.4033 39.5789 83.4031 39.5331 83.4014 39.5198C83.3804 39.3626 83.2395 39.2934 83.1025 39.3733C83.0911 39.38 83.0483 39.4134 82.9629 39.4798C82.5816 39.7878 82.1344 40.0303 81.6211 40.2063C81.1225 40.3823 80.609 40.47 80.0811 40.47C78.9811 40.47 78.079 40.1767 77.375 39.5901C76.6857 38.9888 76.3408 38.1744 76.3408 37.1478C76.3409 36.3118 76.6565 35.6006 77.2871 35.014C77.9177 34.4274 78.8268 34.0308 80.0146 33.8255L83.1367 33.2981C83.2314 33.2822 83.2789 33.274 83.3145 33.2503C83.3456 33.2295 83.3704 33.2005 83.3857 33.1663C83.4032 33.1273 83.4033 33.0788 83.4033 32.9827V32.9456C83.4032 32.3739 83.1975 31.9196 82.7871 31.5823C82.3911 31.2303 81.8777 31.054 81.2471 31.054C80.7045 31.054 80.2202 31.1709 79.7949 31.4056C79.4752 31.5882 79.1909 31.825 78.9424 32.1145C78.8611 32.2093 78.8206 32.2573 78.7783 32.2757C78.7387 32.2928 78.7014 32.2959 78.6592 32.2874C78.6139 32.2783 78.5679 32.2439 78.4766 32.1741L76.9414 31.0013C76.8551 30.9354 76.8119 30.902 76.791 30.8577C76.7734 30.8201 76.7679 30.7724 76.7764 30.7317C76.7865 30.6838 76.8188 30.6439 76.8838 30.5647C77.3527 29.9935 77.9344 29.5408 78.6289 29.2063C79.4356 28.8103 80.3376 28.6116 81.335 28.6116ZM83.2725 35.2493C83.2223 35.2309 83.1579 35.2419 83.0293 35.264L80.7627 35.6517C80.1762 35.7396 79.7513 35.9015 79.4873 36.136C79.238 36.3707 79.1133 36.6717 79.1133 37.0384C79.1134 37.3902 79.2527 37.6837 79.5312 37.9183C79.8099 38.1527 80.1842 38.2698 80.6533 38.2698C81.2838 38.2698 81.8267 38.1305 82.2812 37.8519C82.5993 37.6531 82.8764 37.4169 83.1133 37.1438C83.1904 37.0549 83.2297 37.0097 83.2812 36.9153C83.3185 36.8469 83.3643 36.7246 83.3809 36.6487C83.4037 36.5437 83.4033 36.4557 83.4033 36.2806V35.5794C83.4033 35.4492 83.4034 35.3835 83.377 35.3372C83.3536 35.2966 83.3164 35.2655 83.2725 35.2493Z" fill="#2845C1"/>
<path fill-rule="evenodd" clip-rule="evenodd" d="M106.912 28.6116C107.983 28.6116 108.878 28.8025 109.597 29.1839C110.315 29.5652 110.858 30.0864 111.225 30.7464C111.591 31.4062 111.774 32.1392 111.774 32.9456V39.8196C111.774 39.9314 111.775 39.9878 111.753 40.0306C111.734 40.0682 111.703 40.0993 111.665 40.1185C111.622 40.1401 111.566 40.1399 111.454 40.1399H109.271C109.187 40.1399 109.145 40.1396 109.111 40.1272C109.056 40.107 109.013 40.0639 108.993 40.0091C108.981 39.9756 108.98 39.9337 108.98 39.8499V39.6702C108.98 39.579 108.98 39.5331 108.979 39.5198C108.958 39.3626 108.817 39.2934 108.68 39.3733C108.668 39.38 108.625 39.4133 108.54 39.4798C108.159 39.7877 107.711 40.0304 107.198 40.2063C106.7 40.3823 106.186 40.47 105.658 40.47C104.558 40.47 103.656 40.1767 102.952 39.5901C102.263 38.9888 101.919 38.1744 101.919 37.1478C101.919 36.3119 102.234 35.6006 102.864 35.014C103.495 34.4273 104.405 34.0308 105.593 33.8255L108.714 33.2981C108.809 33.2821 108.856 33.274 108.892 33.2503C108.923 33.2295 108.948 33.2005 108.963 33.1663C108.98 33.1273 108.98 33.0788 108.98 32.9827V32.9456C108.98 32.3738 108.775 31.9196 108.364 31.5823C107.968 31.2303 107.455 31.054 106.824 31.054C106.282 31.054 105.797 31.1709 105.372 31.4056C105.052 31.5882 104.768 31.825 104.52 32.1145C104.438 32.2093 104.398 32.2573 104.355 32.2757C104.316 32.2928 104.279 32.2959 104.236 32.2874C104.191 32.2783 104.145 32.2439 104.054 32.1741L102.519 31.0013C102.432 30.9354 102.389 30.902 102.368 30.8577C102.351 30.8201 102.345 30.7724 102.354 30.7317C102.364 30.6838 102.396 30.6439 102.461 30.5647C102.93 29.9935 103.512 29.5408 104.206 29.2063C105.013 28.8104 105.915 28.6117 106.912 28.6116ZM108.85 35.2493C108.799 35.2309 108.735 35.2419 108.606 35.264L106.341 35.6517C105.754 35.7397 105.328 35.9014 105.064 36.136C104.815 36.3707 104.69 36.6718 104.69 37.0384C104.691 37.3902 104.83 37.6837 105.108 37.9183C105.387 38.1529 105.761 38.2698 106.23 38.2698C106.861 38.2698 107.404 38.1305 107.858 37.8519C108.176 37.6532 108.454 37.4176 108.69 37.1448C108.767 37.0562 108.806 37.0114 108.857 36.9173C108.895 36.849 108.941 36.7258 108.958 36.6497C108.981 36.5446 108.98 36.4568 108.98 36.2815V35.5794C108.98 35.4492 108.981 35.3835 108.954 35.3372C108.931 35.2966 108.894 35.2655 108.85 35.2493Z" fill="#2845C1"/>
<path fill-rule="evenodd" clip-rule="evenodd" d="M45.708 24.7395C47.4093 24.7395 48.7439 25.1507 49.7119 25.972C50.6946 26.7786 51.1855 27.9008 51.1855 29.3382C51.1855 30.2766 50.9662 31.0904 50.5264 31.7796C50.1604 32.3407 49.6614 32.7988 49.0312 33.1565C48.9107 33.2249 48.8502 33.2595 48.8232 33.303C48.7986 33.3429 48.7896 33.3844 48.7949 33.431C48.8008 33.4818 48.8385 33.5352 48.9141 33.6419L53.1602 39.6351C53.2755 39.7979 53.3335 39.8796 53.3311 39.9476C53.3287 40.0067 53.2997 40.0618 53.2529 40.0979C53.199 40.1395 53.0985 40.1399 52.8984 40.1399H50.0156C49.9529 40.1399 49.9211 40.1398 49.8926 40.1312C49.8675 40.1235 49.8444 40.1107 49.8242 40.094C49.8013 40.075 49.7836 40.0488 49.749 39.9964L45.749 33.9358C45.74 33.9221 45.7245 33.9144 45.708 33.9144H44.4443C44.3326 33.9144 44.2761 33.9142 44.2334 33.9358C44.1958 33.955 44.1647 33.9861 44.1455 34.0237C44.1238 34.0665 44.124 34.1229 44.124 34.2347V39.8196C44.124 39.9314 44.1242 39.9878 44.1025 40.0306C44.0834 40.0682 44.0523 40.0993 44.0146 40.1185C43.9719 40.1401 43.9155 40.1399 43.8037 40.1399H41.3203C41.2085 40.1399 41.1521 40.1401 41.1094 40.1185C41.0717 40.0993 41.0407 40.0682 41.0215 40.0306C40.9998 39.9878 41 39.9314 41 39.8196V25.0599C41 24.9481 40.9998 24.8917 41.0215 24.8489C41.0407 24.8113 41.0717 24.7802 41.1094 24.761C41.1521 24.7394 41.2085 24.7395 41.3203 24.7395H45.708ZM44.4443 27.3362C44.3326 27.3362 44.2761 27.336 44.2334 27.3577C44.1958 27.3769 44.1647 27.408 44.1455 27.4456C44.1238 27.4884 44.124 27.5448 44.124 27.6565V30.9974C44.124 31.1091 44.1238 31.1655 44.1455 31.2083C44.1647 31.2459 44.1958 31.277 44.2334 31.2962C44.2761 31.3179 44.3326 31.3177 44.4443 31.3177H45.8838C46.5438 31.3177 47.0572 31.1345 47.4238 30.7679C47.7904 30.4013 47.9736 29.9101 47.9736 29.2942C47.9736 28.7076 47.7905 28.238 47.4238 27.886C47.0572 27.5194 46.5438 27.3362 45.8838 27.3362H44.4443Z" fill="#2845C1"/>
<path d="M95.248 28.6116C96.0547 28.6116 96.7814 28.7957 97.4268 29.1624C98.0719 29.5291 98.5856 30.0787 98.9668 30.8118C99.3481 31.5305 99.5381 32.4404 99.5381 33.5403V39.8196C99.5381 39.9314 99.5383 39.9878 99.5166 40.0306C99.4974 40.0682 99.4663 40.0993 99.4287 40.1185C99.386 40.1401 99.3296 40.1399 99.2178 40.1399H97.0645C96.9527 40.1399 96.8963 40.1401 96.8535 40.1185C96.8159 40.0993 96.7848 40.0682 96.7656 40.0306C96.744 39.9878 96.7441 39.9314 96.7441 39.8196V33.6497C96.7441 32.9018 96.5463 32.3152 96.1504 31.8899C95.7691 31.4499 95.2333 31.2298 94.5439 31.2298C94.0748 31.2298 93.6712 31.3175 93.334 31.4935C93.0115 31.6694 92.7404 31.8897 92.5205 32.1536C92.3226 32.378 92.1542 32.603 92.0156 32.8274C91.9998 32.853 91.9916 32.8658 91.9854 32.8812C91.98 32.8943 91.976 32.9101 91.9736 32.9241C91.971 32.9403 91.9707 32.9565 91.9707 32.9886V39.8196C91.9707 39.9314 91.9709 39.9878 91.9492 40.0306C91.93 40.0682 91.899 40.0993 91.8613 40.1185C91.8186 40.1401 91.7622 40.1399 91.6504 40.1399H89.4971C89.3853 40.1399 89.3289 40.1401 89.2861 40.1185C89.2485 40.0993 89.2174 40.0682 89.1982 40.0306C89.1766 39.9878 89.1768 39.9314 89.1768 39.8196V29.3724C89.1768 29.2606 89.1766 29.2042 89.1982 29.1614C89.2174 29.1238 89.2485 29.0927 89.2861 29.0735C89.3289 29.0519 89.3853 29.052 89.4971 29.052H91.6504C91.7622 29.052 91.8186 29.0519 91.8613 29.0735C91.899 29.0927 91.93 29.1238 91.9492 29.1614C91.9709 29.2042 91.9707 29.2606 91.9707 29.3724V29.5315C91.9707 29.6547 91.9709 29.7169 91.9932 29.7444C92.0132 29.7691 92.0405 29.782 92.0723 29.7815C92.1077 29.7809 92.157 29.7397 92.2549 29.6575C92.5337 29.4233 92.8423 29.2212 93.1807 29.052C93.7525 28.7588 94.4416 28.6117 95.248 28.6116Z" fill="#2845C1"/>
<path d="M138.055 28.6116C138.891 28.6116 139.632 28.7957 140.278 29.1624C140.938 29.5144 141.451 30.0494 141.818 30.7679C142.199 31.4865 142.389 32.374 142.389 33.43V39.8196C142.389 39.9314 142.389 39.9878 142.368 40.0306C142.348 40.0682 142.317 40.0993 142.28 40.1185C142.237 40.1401 142.181 40.14 142.069 40.14H140.84C140.728 40.14 140.672 40.1401 140.629 40.1185C140.592 40.0993 140.561 40.0682 140.541 40.0306C140.52 39.9878 140.52 39.9314 140.52 39.8196V33.4964C140.52 32.4991 140.263 31.7285 139.749 31.1859C139.236 30.6433 138.546 30.3724 137.681 30.3724C137.139 30.3724 136.662 30.4669 136.251 30.6575C135.841 30.8482 135.481 31.1054 135.173 31.428C134.97 31.6313 134.783 31.8509 134.612 32.0862C134.534 32.1926 134.496 32.2458 134.455 32.3314C134.424 32.3979 134.391 32.4973 134.377 32.5696C134.36 32.6626 134.36 32.7472 134.36 32.9153V39.8196C134.36 39.9314 134.36 39.9878 134.338 40.0306C134.319 40.0682 134.288 40.0993 134.25 40.1185C134.208 40.1401 134.151 40.14 134.039 40.14H132.81C132.698 40.14 132.642 40.1401 132.599 40.1185C132.561 40.0993 132.53 40.0682 132.511 40.0306C132.489 39.9878 132.49 39.9314 132.49 39.8196V29.3724C132.49 29.2606 132.489 29.2042 132.511 29.1614C132.53 29.1238 132.561 29.0927 132.599 29.0735C132.642 29.0519 132.698 29.0521 132.81 29.0521H134.039C134.151 29.0521 134.208 29.0519 134.25 29.0735C134.288 29.0927 134.319 29.1238 134.338 29.1614C134.36 29.2042 134.36 29.2606 134.36 29.3724V29.9398C134.36 30.0444 134.36 30.097 134.375 30.1214C134.399 30.1584 134.441 30.1758 134.484 30.1653C134.512 30.1584 134.549 30.1195 134.623 30.0423C135.049 29.6024 135.54 29.2574 136.097 29.0081C136.669 28.7442 137.322 28.6117 138.055 28.6116Z" fill="#2845C1"/>
<path d="M155.854 24.2407C156.719 24.2407 157.496 24.4171 158.186 24.769C158.889 25.1063 159.447 25.5897 159.858 26.2202C160.268 26.8508 160.474 27.5845 160.474 28.4204C160.474 29.1097 160.334 29.7625 160.056 30.3784C159.777 30.9797 159.395 31.574 158.911 32.1606C158.427 32.7472 157.878 33.3631 157.262 34.0083L153.297 38.0259C153.213 38.1113 153.171 38.1543 153.168 38.1909C153.166 38.2227 153.179 38.2542 153.203 38.2749C153.231 38.2984 153.292 38.2983 153.411 38.2983H160.593C160.705 38.2983 160.761 38.2982 160.804 38.3198C160.841 38.339 160.873 38.3701 160.892 38.4077C160.913 38.4505 160.913 38.5069 160.913 38.6186V39.7602C160.913 39.872 160.913 39.9284 160.892 39.9712C160.873 40.0088 160.841 40.0399 160.804 40.0591C160.761 40.0807 160.705 40.0806 160.593 40.0806H150.916C150.804 40.0806 150.748 40.0807 150.705 40.0591C150.668 40.0399 150.636 40.0088 150.617 39.9712C150.596 39.9284 150.596 39.872 150.596 39.7602V38.4282C150.596 38.3803 150.595 38.3561 150.601 38.3335C150.605 38.3135 150.614 38.2945 150.624 38.2768C150.636 38.2569 150.653 38.24 150.687 38.2056L155.81 32.9302C156.264 32.4463 156.653 32.0282 156.976 31.6763C157.298 31.3097 157.569 30.9647 157.789 30.6421C158.009 30.3195 158.171 29.9969 158.274 29.6743C158.376 29.337 158.428 28.9628 158.428 28.5522C158.428 28.0098 158.31 27.5555 158.075 27.189C157.841 26.8076 157.518 26.5212 157.108 26.3306C156.697 26.1252 156.227 26.0229 155.699 26.0229C154.893 26.023 154.204 26.2208 153.632 26.6167C153.144 26.9635 152.695 27.4452 152.285 28.062C152.221 28.1591 152.188 28.2075 152.148 28.231C152.111 28.2521 152.072 28.2609 152.03 28.2573C151.984 28.2533 151.936 28.2247 151.84 28.1665L150.766 27.5122C150.668 27.4529 150.619 27.4233 150.594 27.3804C150.572 27.3435 150.562 27.2979 150.567 27.2554C150.573 27.2058 150.604 27.1604 150.667 27.0698C151.258 26.2177 151.946 25.5455 152.73 25.0542C153.61 24.5116 154.651 24.2407 155.854 24.2407Z" fill="#2845C1"/>
<path d="M181.667 24.2407C182.532 24.2407 183.31 24.417 183.999 24.769C184.703 25.1063 185.26 25.5897 185.671 26.2202C186.082 26.8508 186.287 27.5845 186.287 28.4204C186.287 29.1097 186.148 29.7624 185.869 30.3784C185.591 30.9797 185.21 31.574 184.726 32.1606C184.242 32.7473 183.691 33.363 183.075 34.0083L179.11 38.0259C179.026 38.1113 178.984 38.1543 178.982 38.1909C178.979 38.2227 178.992 38.2542 179.017 38.2749C179.045 38.2984 179.105 38.2983 179.225 38.2983H186.407C186.519 38.2983 186.576 38.2982 186.618 38.3198C186.656 38.339 186.687 38.3701 186.706 38.4077C186.728 38.4505 186.728 38.5069 186.728 38.6186V39.7602C186.728 39.872 186.728 39.9284 186.706 39.9712C186.687 40.0088 186.656 40.0399 186.618 40.0591C186.576 40.0807 186.519 40.0806 186.407 40.0806H176.73C176.618 40.0806 176.561 40.0807 176.519 40.0591C176.481 40.0399 176.45 40.0088 176.431 39.9712C176.409 39.9284 176.409 39.872 176.409 39.7602V38.4282C176.409 38.3803 176.409 38.3561 176.414 38.3335C176.419 38.3135 176.427 38.2945 176.438 38.2768C176.45 38.2569 176.467 38.24 176.5 38.2056L181.623 32.9302C182.078 32.4462 182.467 32.0282 182.789 31.6763C183.112 31.3096 183.384 30.9647 183.604 30.6421C183.823 30.3196 183.984 29.9968 184.087 29.6743C184.19 29.337 184.241 28.9629 184.241 28.5522C184.241 28.0099 184.124 27.5555 183.89 27.189C183.655 26.8076 183.332 26.5212 182.921 26.3306C182.51 26.1254 182.041 26.023 181.514 26.0229C180.707 26.0229 180.017 26.2207 179.445 26.6167C178.957 26.9635 178.509 27.4453 178.1 28.062C178.035 28.1591 178.002 28.2075 177.962 28.231C177.926 28.2521 177.887 28.2609 177.845 28.2573C177.798 28.2533 177.75 28.2247 177.654 28.1665L176.579 27.5122C176.482 27.4529 176.433 27.4233 176.407 27.3804C176.386 27.3435 176.376 27.2979 176.381 27.2554C176.387 27.2058 176.418 27.1603 176.481 27.0698C177.072 26.2177 177.76 25.5456 178.543 25.0542C179.423 24.5116 180.465 24.2408 181.667 24.2407Z" fill="#2845C1"/>
<path d="M199.259 24.6802C199.371 24.6802 199.427 24.68 199.47 24.7017C199.507 24.7208 199.539 24.7519 199.558 24.7895C199.579 24.8323 199.579 24.8887 199.579 25.0005V26.3755C199.579 26.4078 199.579 26.4242 199.576 26.4399C199.574 26.4538 199.571 26.4678 199.566 26.481C199.56 26.4957 199.552 26.5099 199.535 26.5376L191.686 39.9224C191.652 39.98 191.635 40.0088 191.611 40.0298C191.591 40.0482 191.566 40.0622 191.54 40.0708C191.51 40.0805 191.476 40.0806 191.409 40.0806H189.869C189.685 40.0806 189.592 40.0802 189.539 40.0415C189.493 40.0077 189.463 39.9557 189.458 39.8989C189.452 39.8338 189.499 39.7543 189.594 39.5962L197.303 26.7046C197.35 26.6255 197.373 26.5858 197.37 26.5532C197.368 26.5248 197.353 26.4988 197.33 26.4819C197.304 26.4626 197.257 26.4624 197.165 26.4624H189.186C189.074 26.4624 189.017 26.4626 188.975 26.4409C188.937 26.4217 188.906 26.3907 188.887 26.353C188.865 26.3103 188.865 26.2539 188.865 26.1421V25.0005C188.865 24.8887 188.865 24.8323 188.887 24.7895C188.906 24.7519 188.937 24.7208 188.975 24.7017C189.017 24.68 189.074 24.6802 189.186 24.6802H199.259Z" fill="#2845C1"/>
</svg>
