<svg width="51" height="51" viewBox="0 0 51 51" fill="none" xmlns="http://www.w3.org/2000/svg">
<path d="M42.5 23.375C43.6736 23.375 44.625 24.3264 44.625 25.5V42.5C44.625 44.1907 43.9529 45.8118 42.7573 47.0073C41.5618 48.2029 39.9408 48.875 38.25 48.875H12.75C11.0592 48.875 9.43822 48.2029 8.24268 47.0073C7.04713 45.8118 6.375 44.1907 6.375 42.5V25.5C6.375 24.3264 7.32639 23.375 8.5 23.375C9.6736 23.375 10.625 24.3264 10.625 25.5V42.5C10.625 43.0636 10.849 43.6039 11.2476 44.0024C11.6461 44.4009 12.1864 44.625 12.75 44.625H38.25C38.8136 44.625 39.3539 44.4009 39.7524 44.0024C40.1509 43.6039 40.375 43.0636 40.375 42.5V25.5C40.375 24.3264 41.3264 23.375 42.5 23.375Z" fill="#555E74"/>
<path d="M25.5436 2.12708C25.581 2.12782 25.6183 2.12852 25.6556 2.13123C25.7604 2.13881 25.8628 2.15466 25.9628 2.17688C25.9823 2.1812 26.0015 2.18653 26.0209 2.19141C26.1675 2.2284 26.3073 2.28134 26.4401 2.34705C26.5086 2.38089 26.5761 2.41741 26.6414 2.45911C26.7142 2.50565 26.7845 2.55576 26.8509 2.6106C26.9029 2.65355 26.9538 2.69889 27.0024 2.74756L35.5024 11.2476C36.3323 12.0774 36.3323 13.4226 35.5024 14.2524C34.6726 15.0823 33.3274 15.0823 32.4976 14.2524L27.625 9.37988V31.875C27.625 33.0486 26.6736 34 25.5 34C24.3264 34 23.375 33.0486 23.375 31.875V9.37988L18.5024 14.2524C17.6726 15.0823 16.3274 15.0823 15.4976 14.2524C14.6677 13.4226 14.6677 12.0774 15.4976 11.2476L23.9976 2.74756C24.1289 2.61624 24.2777 2.50278 24.4396 2.4093C24.4702 2.3916 24.5016 2.37554 24.533 2.3595C24.6654 2.2916 24.8054 2.23671 24.9521 2.19763C24.9874 2.18825 25.0224 2.1782 25.058 2.17065C25.0813 2.16572 25.105 2.16236 25.1285 2.1582C25.1658 2.15161 25.2031 2.1462 25.2406 2.1416C25.2784 2.137 25.3164 2.13382 25.3547 2.13123C25.3886 2.1289 25.4225 2.12778 25.4564 2.12708C25.4709 2.12678 25.4854 2.125 25.5 2.125C25.5146 2.125 25.5291 2.12678 25.5436 2.12708Z" fill="#555E74"/>
</svg>
