<svg width="187" height="80" viewBox="0 0 187 80" fill="none" xmlns="http://www.w3.org/2000/svg">
<g clip-path="url(#clip0_1541_890)">
<path d="M15.6626 34.2446C15.6626 43.8115 22.1449 51.0492 30.8327 51.0492C31.2243 51.0492 31.6108 51.0341 31.9897 51.0038V39.9969C29.2336 39.5043 27.3061 37.1978 27.3061 34.2446C27.3061 31.2914 29.2336 28.9825 31.9897 28.4898V17.4855C31.6108 17.4526 31.2243 17.4375 30.8327 17.4375C22.1449 17.4375 15.6626 24.6777 15.6626 34.2446Z" fill="#000091"/>
<path d="M114.604 18.613H103.274V51.0485H114.604V18.613Z" fill="#E1000F"/>
<path d="M46.6466 17.4976H35.3164V51.1092H46.6466V17.4976Z" fill="#000091"/>
<path fill-rule="evenodd" clip-rule="evenodd" d="M11.2999 11.2285L11.3302 50.2677H0V11.2285H11.2999Z" fill="#000091"/>
<path fill-rule="evenodd" clip-rule="evenodd" d="M62.4161 25.0319C65.3743 25.0319 67.8274 26.103 70.4092 27.5506L75.257 20.6261C72.1093 18.5496 67.9536 16.5361 61.974 16.5361C61.0241 16.5361 60.097 16.5892 59.2002 16.6953V26.1157C59.4781 25.3376 60.8422 25.0319 62.4161 25.0319Z" fill="#E1000F"/>
<path fill-rule="evenodd" clip-rule="evenodd" d="M62.6611 42.4258C62.6636 42.4258 64.5078 41.8271 64.5987 40.516C64.6594 39.6444 64.0808 39.0811 63.184 38.7047C62.363 38.3586 61.1706 38.0984 59.7433 37.8079C59.4957 37.7573 59.2406 37.7043 58.9829 37.6512V27.6372C59.2709 28.5694 61.0367 28.9837 63.4544 29.4435C68.3654 30.3883 75.5399 31.9621 75.5399 39.892C75.5399 47.256 69.1839 51.0959 61.0014 51.0959C60.3041 51.0959 59.6347 51.0656 58.9829 51.0125V42.4991C59.4957 42.5572 60.0161 42.6001 60.5593 42.6001C61.3955 42.6001 62.0674 42.5698 62.6611 42.4258Z" fill="#E1000F"/>
<path fill-rule="evenodd" clip-rule="evenodd" d="M170.184 41.5483C167.948 41.5483 166.147 40.6843 164.962 39.1762V50.514C166.513 50.8954 168.15 51.1152 169.868 51.1152C175.595 51.1152 180.632 48.9123 184.093 45.325L176.666 38.7795C175.471 40.0376 173.142 41.5483 170.184 41.5483Z" fill="#E1000F"/>
<path fill-rule="evenodd" clip-rule="evenodd" d="M169.049 18.1226C167.63 18.1226 166.268 18.2893 164.962 18.5747V29.6927C165.947 28.4296 167.309 27.6894 168.923 27.6894C171.189 27.6894 173.142 29.137 173.96 31.6556H164.962V38.138H185.793C185.983 37.322 186.046 36.0614 186.046 35.1798C186.046 25.2996 178.743 18.1226 169.049 18.1226Z" fill="#E1000F"/>
<path d="M132.975 18.613H121.645V51.0485H132.975V18.613Z" fill="#E1000F"/>
<path d="M132.975 -0.0576172H121.645V11.2352H132.975V-0.0576172Z" fill="#E1000F"/>
<path d="M150.919 11.2285H139.589V18.782H139.523V29.1043H139.589V39.3634C139.589 46.351 143.239 51.6384 151.927 51.6384C154.445 51.6384 156.459 51.1963 158.409 50.1883V39.616C157.275 40.1819 155.893 40.6846 154.38 40.6846C151.99 40.6846 150.919 39.3634 150.919 37.4737V29.1043H158.409V18.782H150.919V11.2285Z" fill="#E1000F"/>
<path d="M97.0329 40.0926C94.5167 40.0926 92.8166 38.3924 92.8166 35.8131V18.1899H81.4863V37.3869C81.4863 45.6326 87.6554 51.0463 97.0329 51.0463C98.1368 51.0463 99.1928 50.963 100.203 50.819V38.7739C99.4606 39.605 98.3667 40.0926 97.0329 40.0926Z" fill="#E1000F"/>
<path d="M30.1722 76.3743L26.5016 73.4508C25.7479 74.409 24.3723 75.0267 22.8001 75.0267C20.8332 75.0267 19.391 74.4417 18.9005 72.2003H29.5826C29.7467 71.6156 29.9107 70.5602 29.9107 69.4557C29.9107 64.9568 26.8296 61.8545 22.1439 61.8545C16.5406 61.8545 13.5591 65.9796 13.5591 70.7709C13.5591 75.5784 16.7696 79.6715 22.8326 79.6715C26.0111 79.6715 28.6 78.437 30.1722 76.3743ZM22.0124 66.045C23.9467 66.045 24.7978 67.4256 24.8644 68.5301H18.933C19.326 66.8734 20.3411 66.045 22.0124 66.045Z" fill="#000091"/>
<path d="M3.2513 72.6052C3.2513 76.6657 5.11908 79.3455 9.60827 79.3455C11.1496 79.3455 12.1647 79.151 13.0499 78.7612V74.2618C12.5578 74.4729 11.7717 74.6355 10.5584 74.6355C9.18275 74.6355 8.49409 73.9046 8.49409 72.6052C8.49409 72.6052 8.49409 69.5519 8.49409 68.0252C8.49409 67.538 8.88066 67.1643 9.35816 67.1643C10.6705 67.1643 13.0174 67.1643 13.0174 67.1643V62.5031C13.0174 62.5031 10.6705 62.5031 9.35816 62.5031C8.88066 62.5031 8.49409 62.1131 8.49409 61.6421C8.49409 60.4402 8.49409 58.3779 8.49409 58.3779H3.2513V61.6421C3.2513 62.1131 2.86637 62.5031 2.38886 62.5031C1.47771 62.5031 0.171875 62.5031 0.171875 62.5031V67.1643H2.38886C2.86637 67.1643 3.2513 67.538 3.2513 68.0252C3.2513 69.5519 3.2513 72.6052 3.2513 72.6052Z" fill="#000091"/>
<path d="M32.1387 79.0217H37.3474V69.7963C37.3474 69.1466 37.6673 68.5137 38.2049 68.1239C38.8205 67.7016 39.7089 67.3277 40.8215 67.3277C41.6741 67.3277 42.2962 67.4255 42.8533 67.5554V62.4063C42.4602 62.2764 41.9356 62.1792 41.3461 62.1792C40.162 62.1792 39.1843 62.52 38.3576 63.056C38.1611 63.1859 37.9077 63.2027 37.6998 63.089C37.4919 62.9753 37.362 62.7642 37.362 62.5205C37.3474 62.5043 37.3474 62.504 37.3474 62.504H32.1387V79.0217Z" fill="#000091"/>
<path d="M44.3281 79.0217H49.5368V70.0399C49.5368 69.1141 50.0484 68.2699 50.8654 67.8314C51.4355 67.5553 52.1582 67.3277 53.0109 67.3277C53.8636 67.3277 54.4857 67.4255 55.0428 67.5554V62.4063C54.6497 62.2764 54.1251 62.1792 53.5355 62.1792C52.3077 62.1792 51.3007 62.5529 50.4545 63.1213C50.2775 63.235 50.0468 63.2511 49.8568 63.1537C49.6668 63.0562 49.5482 62.8615 49.5482 62.6341C49.5368 62.5529 49.5368 62.504 49.5368 62.504H44.3281V79.0217Z" fill="#000091"/>
<path d="M59.1714 60.7029C60.9076 60.7029 62.4148 59.1602 62.4148 57.3898C62.4148 55.6357 60.9076 54.125 59.1714 54.125C57.3686 54.125 55.8613 55.6357 55.8613 57.3898C55.8613 59.1602 57.3686 60.7029 59.1714 60.7029ZM56.5175 79.0236H61.7278V62.506H56.5175V79.0236Z" fill="#000091"/>
<path d="M65.8226 72.6052C65.8226 76.6657 67.6904 79.3455 72.1796 79.3455C73.7209 79.3455 74.736 79.151 75.6212 78.7612V74.2618C75.129 74.4729 74.343 74.6355 73.1297 74.6355C71.754 74.6355 71.0654 73.9046 71.0654 72.6052C71.0654 72.6052 71.0654 69.5519 71.0654 68.0252C71.0654 67.538 71.4519 67.1643 71.9294 67.1643C73.2418 67.1643 75.5887 67.1643 75.5887 67.1643V62.5031C75.5887 62.5031 73.2418 62.5031 71.9294 62.5031C71.4519 62.5031 71.0654 62.1131 71.0654 61.6421C71.0654 60.4402 71.0654 58.3779 71.0654 58.3779H65.8226V61.6421C65.8226 62.1131 65.4377 62.5031 64.9602 62.5031C64.049 62.5031 62.7432 62.5031 62.7432 62.5031V67.1643H64.9602C65.4377 67.1643 65.8226 67.538 65.8226 68.0252C65.8226 69.5519 65.8226 72.6052 65.8226 72.6052Z" fill="#000091"/>
<path d="M85.4178 61.8545C79.9785 61.8545 76.2754 65.7198 76.2754 70.7709C76.2754 75.8058 79.9785 79.6715 85.4178 79.6715C90.8246 79.6715 94.5278 75.8058 94.5278 70.7709C94.5278 65.7198 90.8246 61.8545 85.4178 61.8545ZM85.4503 74.799C83.2885 74.799 81.6822 73.2234 81.6822 70.7709C81.6822 68.3022 83.2885 66.727 85.4503 66.727C87.5471 66.727 89.1534 68.2697 89.1534 70.7709C89.1534 73.1909 87.5471 74.799 85.4503 74.799Z" fill="#000091"/>
<path d="M96.4932 79.0217H101.703V69.0007C102.032 68.4322 103.277 67.3277 105.178 67.3277C106.029 67.3277 106.652 67.4255 107.209 67.5554V62.4063C106.816 62.2764 106.292 62.1792 105.702 62.1792C104.523 62.1792 103.549 62.52 102.723 63.056C102.524 63.1859 102.269 63.1862 102.059 63.0725C101.848 62.9588 101.718 62.7477 101.718 62.504C101.703 62.504 101.703 62.504 101.703 62.504H96.4932V79.0217Z" fill="#000091"/>
<path d="M111.338 60.7029C113.074 60.7029 114.581 59.1602 114.581 57.3898C114.581 55.6357 113.074 54.125 111.338 54.125C109.535 54.125 108.028 55.6357 108.028 57.3898C108.028 59.1602 109.535 60.7029 111.338 60.7029ZM108.682 79.0236H113.893V62.506H108.682V79.0236Z" fill="#000091"/>
<path d="M121.627 79.5091C123.363 79.5091 125.231 78.7945 126.149 77.7713V79.0218H131.325V68.5948C131.325 65.0054 128.902 61.8545 123.657 61.8545C120.578 61.8545 118.055 63.0891 116.548 65.2005L120.349 68.0752C121.102 67.0032 122.117 66.3374 123.495 66.3374C125.034 66.3374 126.116 67.2957 126.149 68.5301L121.495 69.3257C117.891 69.9104 115.957 71.8434 115.957 74.3771C115.957 77.5767 118.284 79.5091 121.627 79.5091ZM121.102 74.1005C121.102 73.3533 121.56 72.8661 122.904 72.6387L126.149 72.0702V73.7109C125.493 74.7016 124.445 75.481 122.774 75.481C121.757 75.481 121.102 74.9613 121.102 74.1005Z" fill="#000091"/>
<path d="M139.32 54.4502H134.11V79.0265H139.32V54.4502Z" fill="#000091"/>
<path d="M157.9 76.3743L154.231 73.4508C153.477 74.409 152.1 75.0267 150.527 75.0267C148.562 75.0267 147.12 74.4417 146.628 72.2003H157.31C157.474 71.6156 157.638 70.5602 157.638 69.4557C157.638 64.9568 154.559 61.8545 149.871 61.8545C144.27 61.8545 141.288 65.9796 141.288 70.7709C141.288 75.5784 144.499 79.6715 150.56 79.6715C153.738 79.6715 156.327 78.437 157.9 76.3743ZM149.741 66.045C151.674 66.045 152.527 67.4256 152.592 68.5301H146.66C147.053 66.8734 148.07 66.045 149.741 66.045Z" fill="#000091"/>
</g>
<defs>
<clipPath id="clip0_1541_890">
<rect width="186.462" height="80" fill="white"/>
</clipPath>
</defs>
</svg>
