<svg width="480" height="169" viewBox="0 0 480 169" fill="none" xmlns="http://www.w3.org/2000/svg">
<path d="M41.6279 84.5078C41.6279 108.09 57.607 125.931 79.0224 125.931C79.9876 125.931 80.9404 125.894 81.8745 125.819V98.6872C75.0806 97.4729 70.3292 91.7874 70.3292 84.5078C70.3292 77.2281 75.0806 71.5365 81.8745 70.3222V43.1964C80.9404 43.1155 79.9876 43.0781 79.0224 43.0781C57.607 43.0781 41.6279 60.9253 41.6279 84.5078Z" fill="#000091"/>
<path d="M296.15 45.9783H268.221V125.108H296.15V45.9783Z" fill="#C9191E"/>
<path d="M119.531 43.0781H91.6016V125.107H119.531V43.0781Z" fill="#000091"/>
<path fill-rule="evenodd" clip-rule="evenodd" d="M27.8544 12.3591L27.9292 124.069H0V12.3591H27.8544Z" fill="#000091"/>
<path fill-rule="evenodd" clip-rule="evenodd" d="M164.459 61.6758C171.751 61.6758 177.798 64.3162 184.162 67.8844L196.112 50.8155C188.353 45.6968 178.109 40.7336 163.369 40.7336C161.028 40.7336 158.742 40.8644 156.532 41.126V64.3473C157.217 62.4293 160.579 61.6758 164.459 61.6758Z" fill="#C9191E"/>
<path fill-rule="evenodd" clip-rule="evenodd" d="M167.019 72.5548C161.059 71.4214 156.706 70.4001 155.997 68.1023V92.7869C156.632 92.9177 157.261 93.0485 157.871 93.1731C164.696 94.568 169.348 95.6577 169.348 98.6032C169.348 99.0329 169.217 99.4126 169.03 99.7738C169.223 100.135 169.348 100.515 169.348 100.951C169.348 103.585 165.624 104.986 159.882 104.986C158.544 104.986 157.261 104.88 155.997 104.737V125.723C157.603 125.854 159.253 125.928 160.972 125.928C181.142 125.928 196.81 116.463 196.81 98.3105C196.81 78.7633 179.124 74.8837 167.019 72.5548Z" fill="#C9191E"/>
<path fill-rule="evenodd" clip-rule="evenodd" d="M157.871 93.173C157.261 93.0485 156.632 92.9176 155.997 92.7869V95.1283C156.632 95.2653 157.261 95.3962 157.871 95.5207C163.693 96.7101 167.909 97.6877 169.03 99.7738C169.217 99.4126 169.348 99.0328 169.348 98.6031C169.348 95.6577 164.696 94.5679 157.871 93.173Z" fill="#C9191E"/>
<path fill-rule="evenodd" clip-rule="evenodd" d="M440.715 102.34C435.203 102.34 430.763 100.21 427.843 96.4926V124.44C431.666 125.381 435.702 125.922 439.936 125.922C454.053 125.922 466.47 120.492 475.002 111.65L456.694 95.5149C453.748 98.616 448.007 102.34 440.715 102.34Z" fill="#C9191E"/>
<path fill-rule="evenodd" clip-rule="evenodd" d="M437.919 44.5889C434.419 44.5889 431.062 44.9998 427.843 45.7035V73.1095C430.271 69.9959 433.628 68.1713 437.607 68.1713C443.193 68.1713 448.007 71.7395 450.024 77.948H427.843V93.9271H479.193C479.66 91.9157 479.815 88.8083 479.815 86.635C479.815 62.2804 461.812 44.5889 437.919 44.5889Z" fill="#C9191E"/>
<path d="M342.946 45.9783H315.017V125.108H342.946V45.9783Z" fill="#C9191E"/>
<path d="M342.946 0H315.017V27.8369H342.946V0Z" fill="#C9191E"/>
<path d="M390.218 27.8362H362.289V46.4555H362.127V71.9H362.289V97.1887C362.289 114.413 371.288 127.447 392.703 127.447C398.912 127.447 403.875 126.357 408.682 123.872V97.8115C405.886 99.2064 402.48 100.446 398.75 100.446C392.859 100.446 390.218 97.1888 390.218 92.5308V71.9H408.682V46.4555H390.218V27.8362Z" fill="#C9191E"/>
<path d="M251.305 98.9288C245.102 98.9288 240.912 94.7379 240.912 88.3799V44.9387H212.982V92.2594C212.982 112.585 228.189 125.93 251.305 125.93C254.026 125.93 256.629 125.724 259.12 125.37V95.6782C257.289 97.7269 254.593 98.9288 251.305 98.9288Z" fill="#C9191E"/>
<path d="M158.904 160.532C160.447 160.532 161.789 159.257 161.789 157.68C161.789 156.137 160.447 154.828 158.904 154.828C157.293 154.828 156.001 156.137 156.001 157.68C156.001 159.257 157.293 160.532 158.904 160.532Z" fill="#080605"/>
<path d="M167.443 160.147H171.604V149.342C172.224 148.285 173.348 146.876 175.446 146.876C177.492 146.876 178.734 148.251 178.734 150.449V160.147H182.945V150.298C182.945 145.399 180.076 142.933 176.503 142.933C174.305 142.933 172.761 143.789 171.604 144.913V143.587H167.443V160.147Z" fill="#080605"/>
<path d="M200.209 152.983C200.209 155.382 198.967 156.859 196.702 156.859C194.404 156.859 193.145 155.382 193.145 152.983V143.588H188.951V152.781C188.951 157.747 191.803 160.801 196.669 160.801C201.534 160.801 204.42 157.747 204.42 152.781V143.588H200.209V152.983Z" fill="#080605"/>
<path d="M210.694 160.147H214.855V149.342C215.476 148.285 216.466 146.876 218.378 146.876C220.24 146.876 221.331 148.134 221.331 150.13V160.147H225.525V149.962C225.525 149.694 225.525 149.476 225.508 149.241C226.163 148.134 227.136 146.876 228.948 146.876C230.827 146.876 231.901 148.134 231.901 150.13V160.147H236.111V149.962C236.111 145.298 233.41 142.933 230.005 142.933C227.203 142.933 225.626 144.191 224.451 145.634C223.361 143.855 221.532 142.933 219.418 142.933C217.388 142.933 215.979 143.755 214.855 144.846V143.587H210.694V160.147Z" fill="#080605"/>
<path d="M257.754 157.445L254.768 155.08C253.878 156.271 252.301 157.059 250.489 157.059C247.906 157.059 245.993 155.817 245.607 152.73H257.2C257.318 152.16 257.452 151.305 257.452 150.382C257.452 146.053 254.432 142.933 249.835 142.933C244.416 142.933 241.329 146.976 241.329 151.875C241.329 156.69 244.651 160.8 250.523 160.8C253.643 160.8 256.21 159.525 257.754 157.445ZM249.734 146.355C252.066 146.355 253.291 148.034 253.358 149.694H245.725C246.194 147.53 247.604 146.355 249.734 146.355Z" fill="#080605"/>
<path d="M263.173 160.147H267.334V149.543C267.971 148.487 269.28 147.363 271.31 147.363C272.065 147.363 272.618 147.464 273.155 147.598V143.504C272.753 143.369 272.266 143.269 271.713 143.269C269.833 143.269 268.424 144.125 267.334 145.232V143.588H263.173V160.147Z" fill="#080605"/>
<path d="M280.252 140.702C281.728 140.702 282.936 139.461 282.936 137.984C282.936 136.508 281.728 135.249 280.252 135.249C278.775 135.249 277.517 136.508 277.517 137.984C277.517 139.461 278.775 140.702 280.252 140.702ZM278.138 160.147H282.315V143.588H278.138V160.147Z" fill="#080605"/>
<path d="M287.768 151.875C287.768 156.69 290.922 160.8 296.173 160.8C298.404 160.8 300.015 160.079 301.29 158.804V168.216H305.501V143.587H301.29V144.946C300.015 143.655 298.404 142.933 296.173 142.933C290.922 142.933 287.768 147.043 287.768 151.875ZM292.096 151.875C292.096 148.973 293.908 146.876 296.726 146.876C298.605 146.876 300.183 147.698 301.29 149.241V154.492C300.283 156.002 298.673 156.858 296.726 156.858C293.908 156.858 292.096 154.761 292.096 151.875Z" fill="#080605"/>
<path d="M323.033 152.983C323.033 155.382 321.792 156.859 319.527 156.859C317.228 156.859 315.987 155.382 315.987 152.983V143.588H311.776V152.781C311.776 157.747 314.628 160.801 319.493 160.801C324.359 160.801 327.244 157.747 327.244 152.781V143.588H323.033V152.983Z" fill="#080605"/>
<path d="M348.752 157.445L345.766 155.08C344.877 156.271 343.3 157.059 341.488 157.059C338.904 157.059 336.992 155.817 336.606 152.73H348.199C348.333 152.16 348.45 151.305 348.45 150.382C348.45 146.053 345.43 142.933 340.833 142.933C335.415 142.933 332.328 146.976 332.328 151.875C332.328 156.69 335.649 160.8 341.521 160.8C344.642 160.8 347.209 159.525 348.752 157.445ZM340.733 146.355C343.065 146.355 344.29 148.034 344.357 149.694H336.74C337.193 147.53 338.602 146.355 340.733 146.355Z" fill="#080605"/>
<path d="M356.084 160.532C357.628 160.532 358.97 159.257 358.97 157.68C358.97 156.137 357.628 154.828 356.084 154.828C354.473 154.828 353.182 156.137 353.182 157.68C353.182 159.257 354.473 160.532 356.084 160.532Z" fill="#080605"/>
<path d="M362.812 163.032C362.812 166.521 365.932 168.35 371.217 168.35C376.367 168.35 379.891 165.532 379.891 161.858C379.891 158.771 377.626 156.539 373.448 156.539H369.287C368.532 156.539 368.164 156.204 368.164 155.549C368.164 155.18 368.365 154.828 368.717 154.493C369.22 154.593 369.741 154.627 370.294 154.627C374.572 154.627 376.988 151.993 376.988 148.755C376.988 148.184 376.938 147.664 376.77 147.144H379.689V143.587H373.65C372.693 143.168 371.569 142.933 370.294 142.933C366.15 142.933 363.667 145.534 363.667 148.755C363.667 150.584 364.456 152.227 365.899 153.318C364.657 154.241 364.087 155.281 364.087 156.606C364.087 157.445 364.456 158.335 365.11 158.989C363.634 160.08 362.812 161.388 362.812 163.032ZM370.361 151.472C368.549 151.472 367.476 150.382 367.476 148.755C367.476 147.144 368.549 146.053 370.361 146.053C372.106 146.053 373.213 147.111 373.213 148.755C373.213 150.382 372.106 151.472 370.361 151.472ZM366.754 162.444C366.754 161.421 367.241 160.7 367.861 160.113H372.995C374.992 160.113 375.747 161.002 375.747 162.244C375.747 163.888 374.203 165.012 371.183 165.012C368.264 165.012 366.754 164.021 366.754 162.444Z" fill="#080605"/>
<path d="M391.517 142.933C386.131 142.933 382.44 146.909 382.44 151.875C382.44 156.824 386.131 160.8 391.517 160.8C396.902 160.8 400.576 156.824 400.576 151.875C400.576 146.909 396.902 142.933 391.517 142.933ZM391.584 156.858C388.816 156.858 386.786 154.761 386.786 151.875C386.786 148.973 388.816 146.876 391.584 146.876C394.235 146.876 396.248 148.973 396.248 151.875C396.248 154.727 394.235 156.858 391.584 156.858Z" fill="#080605"/>
<path d="M416.934 152.983C416.934 155.382 415.693 156.859 413.411 156.859C411.113 156.859 409.871 155.382 409.871 152.983V143.588H405.66V152.781C405.66 157.747 408.529 160.801 413.378 160.801C418.243 160.801 421.129 157.747 421.129 152.781V143.588H416.934V152.983Z" fill="#080605"/>
<path d="M425.306 143.588L431.312 160.147H436.799L442.838 143.588H438.342L434.081 155.415L429.769 143.588H425.306Z" fill="#080605"/>
<path d="M447.116 160.532C448.66 160.532 450.002 159.257 450.002 157.68C450.002 156.137 448.66 154.828 447.116 154.828C445.505 154.828 444.23 156.137 444.23 157.68C444.23 159.257 445.505 160.532 447.116 160.532Z" fill="#080605"/>
<path d="M455.387 143.588L454.901 146.121H457.954L454.079 168.217H456.897L460.773 146.121H466.326L466.745 143.588H461.209L461.595 141.356C461.997 139.091 463.373 138.051 464.984 138.051C465.923 138.051 466.695 138.37 467.282 138.84L468.792 136.625C467.936 136.038 466.695 135.518 464.95 135.518C461.796 135.518 459.464 137.414 458.81 141.356L458.407 143.588H455.387Z" fill="#080605"/>
<path d="M468.037 160.147H470.822L472.802 149.041C474.11 147.346 475.687 145.987 477.852 145.987C478.439 145.987 478.875 146.087 479.328 146.188L479.814 143.454C479.395 143.336 478.875 143.269 478.305 143.269C476.14 143.269 474.697 144.242 473.355 145.802L473.741 143.588H470.956L468.037 160.147Z" fill="#080605"/>
</svg>
