<svg width="34" height="40" viewBox="0 0 34 40" fill="none" xmlns="http://www.w3.org/2000/svg">
<path opacity="0.75" d="M2.58008 36.8301L4.38086 36.9404V39.4287H1.70215C0.801998 39.3703 0 38.45 0 37.5479V35.0479H2.58008V36.8301ZM33.1406 37.5479C33.1406 38.4501 32.3378 39.3704 31.4375 39.4287H28.7598V36.9404L30.5605 36.8301V35.0479H33.1406V37.5479ZM11.6318 20.6377C14.0578 20.6377 16.0361 21.6922 17.249 23.3271L15.1123 24.9629C14.3741 23.9345 13.1612 23.1953 11.6318 23.1953C9.07392 23.1954 7.22852 25.1998 7.22852 27.8105C7.2286 30.4472 9.07404 32.4248 11.6582 32.4248C13.1612 32.4248 14.3741 31.6864 15.1123 30.6582L17.249 32.293C16.0361 33.9277 14.084 34.9824 11.6318 34.9824C7.17567 34.9823 4.37997 31.6864 4.37988 27.8105C4.37988 23.9343 7.1756 20.6378 11.6318 20.6377ZM24.1172 21.4932H28.7598V23.8877H24.1172V29.9629C24.1172 31.7131 25.044 32.2793 26.4854 32.2793C27.3608 32.2793 28.2965 32.1764 28.7598 31.9961V34.3389C28.142 34.5961 27.0779 34.7256 26.0742 34.7256C23.0363 34.7256 21.4395 33.1292 21.4395 29.9629V23.8877H18.5596V21.4932H21.4395V18.249H24.1172V21.4932ZM10.0693 4.38086C13.5703 4.38086 15.502 6.4404 15.502 9.29785V17.8701H12.8506V16.4033C11.9238 17.5358 10.3011 18.2568 8.70508 18.2568C6.13082 18.2567 4.37994 16.7891 4.37988 14.498C4.37988 12.5415 5.89912 11.1257 8.65332 10.6621L12.8506 9.9668V9.29785C12.8506 7.70182 11.6655 6.72363 9.99219 6.72363C8.57629 6.72372 7.46913 7.36746 6.72266 8.42285L4.74121 6.90332C5.89959 5.35918 7.75279 4.38098 10.0693 4.38086ZM23.7148 4.38086C26.5721 4.38104 28.7598 6.3119 28.7598 10.0703V17.8701H26.083V10.1729C26.0829 8.11347 24.9499 6.87798 23.0967 6.87793C21.3206 6.87793 20.2652 7.9846 19.5957 9.11719V17.8701H16.9434V4.89551H19.5957V6.15723C20.5739 5.12746 21.8613 4.38086 23.7148 4.38086ZM9.34863 12.4385C7.7271 12.7217 7.05781 13.4167 7.05762 14.3945C7.05762 15.3986 7.85577 16.0946 9.19434 16.0947C10.816 16.0947 12.0781 15.3217 12.8506 14.0859V11.8467L9.34863 12.4385ZM4.38086 2.48828L2.58008 2.59863V4.38086H0V1.88086C0 0.978676 0.802007 0.0587541 1.70215 0H4.38086V2.48828ZM31.4375 0C32.3378 0.0585566 33.1406 0.978569 33.1406 1.88086V4.38086H30.5605V2.59863L28.7598 2.48828V0H31.4375Z" fill="#555E74"/>
</svg>
