<svg width="40" height="40" viewBox="0 0 40 40" fill="none" xmlns="http://www.w3.org/2000/svg">
<path d="M9.54382 9.78833C10.0957 9.78833 10.6297 10.0418 11.1454 10.5484L15.7727 15.1627C16.062 15.4431 16.2072 15.7644 16.2072 16.1262C16.2071 16.4877 16.0713 16.8039 15.8003 17.0751C15.5199 17.3646 15.2026 17.5057 14.8498 17.4967C14.4971 17.4785 14.1757 17.3293 13.8863 17.0491L12.7876 15.9635L10.8736 13.8232V28.0273C10.8737 28.6873 11.042 29.1795 11.3765 29.5051C11.7112 29.8308 12.195 29.995 12.8283 29.995H23.2629C23.7058 29.995 24.0546 30.1118 24.3078 30.3466C24.5611 30.5909 24.6926 30.9217 24.7017 31.3378C24.7017 31.7449 24.5702 32.0661 24.3078 32.3014C24.0545 32.5454 23.706 32.6676 23.2629 32.6676H12.6656C11.2 32.6676 10.0913 32.2921 9.34037 31.5413C8.58959 30.7994 8.21407 29.7041 8.21407 28.2568V13.8232L6.30001 15.9635L5.18835 17.0491C4.91699 17.3294 4.59962 17.4786 4.23783 17.4967C3.88519 17.5056 3.56927 17.3644 3.28894 17.0751C3.00865 16.8039 2.87154 16.4878 2.88041 16.1262C2.88945 15.7645 3.03483 15.443 3.31498 15.1627L7.95691 10.5484C8.4634 10.042 8.99212 9.78841 9.54382 9.78833Z" fill="#3E5DE7"/>
<path d="M27.3612 7.33228C28.8177 7.33228 29.9225 7.70372 30.6734 8.44556C31.4239 9.18739 31.7997 10.2869 31.7997 11.7431V26.1604L33.7121 24.0234L34.8124 22.9377C35.0926 22.6667 35.4088 22.527 35.7613 22.5178C36.1139 22.4997 36.4355 22.63 36.7248 22.9101C36.9961 23.1904 37.1276 23.512 37.1187 23.8736C37.1187 24.2263 36.979 24.5438 36.6988 24.8241L32.0715 29.4384C31.556 29.9449 31.0216 30.1983 30.4699 30.1985C29.9182 30.2075 29.3839 29.9539 28.8684 29.4384L24.2411 24.8241C23.9516 24.5437 23.8025 24.2264 23.7935 23.8736C23.7936 23.512 23.9291 23.1904 24.2004 22.9101C24.4898 22.63 24.8113 22.4997 25.1639 22.5178C25.5255 22.527 25.8416 22.6667 26.1128 22.9377L27.2261 24.0234L29.1402 26.1604V11.9596C29.1402 11.3084 28.9718 10.8204 28.6372 10.4947C28.3025 10.169 27.8187 10.0048 27.1854 10.0048H16.7639C16.3115 10.0048 15.9576 9.88846 15.7043 9.65324C15.451 9.40899 15.3211 9.07813 15.3121 8.66203C15.3121 8.25496 15.438 7.9337 15.6913 7.69849C15.9536 7.45422 16.3115 7.33228 16.7639 7.33228H27.3612Z" fill="#3E5DE7"/>
</svg>
