<svg width="40" height="40" viewBox="0 0 40 40" fill="none" xmlns="http://www.w3.org/2000/svg">
<path d="M35.0409 33.0442C35.4153 33.0444 35.7379 33.1807 36.0094 33.4522C36.2906 33.7239 36.4313 34.0518 36.4313 34.436C36.4313 34.8108 36.2906 35.1342 36.0094 35.4059C35.7379 35.6772 35.4153 35.8137 35.0409 35.8139H4.94523C4.57085 35.8137 4.24819 35.6772 3.97668 35.4059C3.70494 35.1342 3.56874 34.8108 3.56873 34.436C3.56873 34.0518 3.70493 33.7239 3.97668 33.4522C4.24822 33.1807 4.57079 33.0444 4.94523 33.0442H35.0409Z" fill="#3E5DE7"/>
<path d="M11.0465 15.6007C11.3556 15.6007 11.5998 15.6891 11.7778 15.8671C11.9557 16.0451 12.0441 16.2938 12.0442 16.6122V16.8093C12.0442 17.1278 11.9557 17.3719 11.7778 17.5405C11.5998 17.7092 11.3556 17.7931 11.0465 17.7931H10.3569V29.7834H11.0465C11.3556 29.7834 11.5998 29.8718 11.7778 30.0498C11.9558 30.2184 12.0442 30.458 12.0442 30.7672V30.9781C12.0442 31.2872 11.9557 31.5313 11.7778 31.7093C11.5998 31.8873 11.3556 31.9757 11.0465 31.9758H7.16677C6.85754 31.9758 6.61355 31.8874 6.43551 31.7093C6.25747 31.5313 6.16909 31.2873 6.16909 30.9781V30.7672C6.16911 30.458 6.25748 30.2184 6.43551 30.0498C6.61354 29.8718 6.85762 29.7834 7.16677 29.7834H7.85502V17.7931H7.16677C6.85754 17.7931 6.61355 17.7092 6.43551 17.5405C6.25752 17.3719 6.16909 17.1278 6.16909 16.8093V16.6122C6.16917 16.2938 6.25754 16.0451 6.43551 15.8671C6.61354 15.6891 6.85761 15.6007 7.16677 15.6007H11.0465Z" fill="#3E5DE7"/>
<path d="M18.355 15.6007C18.664 15.6007 18.9083 15.6893 19.0863 15.8671C19.2642 16.0451 19.354 16.2938 19.3541 16.6122V16.8093C19.3541 17.1279 19.2643 17.3719 19.0863 17.5405C18.9082 17.7091 18.6641 17.7931 18.355 17.7931H17.6667V29.7834H18.355C18.664 29.7834 18.9083 29.872 19.0863 30.0498C19.2643 30.2184 19.3541 30.458 19.3541 30.7672V30.9781C19.3541 31.2873 19.2643 31.5313 19.0863 31.7093C18.9082 31.8872 18.6641 31.9758 18.355 31.9758H14.4767C14.1676 31.9758 13.9234 31.8872 13.7454 31.7093C13.5767 31.5313 13.4915 31.2873 13.4915 30.9781V30.7672C13.4915 30.458 13.5767 30.2184 13.7454 30.0498C13.9234 29.872 14.1677 29.7834 14.4767 29.7834H15.1649V17.7931H14.4767C14.1676 17.7931 13.9234 17.7091 13.7454 17.5405C13.5767 17.3719 13.4915 17.1279 13.4915 16.8093V16.6122C13.4915 16.2938 13.5768 16.0451 13.7454 15.8671C13.9234 15.6894 14.1677 15.6007 14.4767 15.6007H18.355Z" fill="#3E5DE7"/>
<path d="M25.651 15.6007C25.9694 15.6007 26.2182 15.6891 26.3961 15.8671C26.5741 16.0451 26.6625 16.2938 26.6626 16.6122V16.8093C26.6626 17.1278 26.5741 17.3719 26.3961 17.5405C26.2182 17.7092 25.9695 17.793 25.651 17.7931H24.9766V29.7834H25.651C25.9694 29.7834 26.2182 29.8718 26.3961 30.0498C26.5742 30.2184 26.6625 30.458 26.6626 30.7672V30.9781C26.6626 31.2873 26.5741 31.5313 26.3961 31.7093C26.2182 31.8873 25.9695 31.9757 25.651 31.9758H21.7851C21.1199 31.9757 20.7875 31.6434 20.7875 30.9781V30.7672C20.7875 30.458 20.8759 30.2184 21.0539 30.0498C21.2319 29.8718 21.476 29.7834 21.7851 29.7834H22.4734V17.7931H21.7851C21.4759 17.7931 21.2319 17.7092 21.0539 17.5405C20.8759 17.3719 20.7875 17.1278 20.7875 16.8093V16.6122C20.7875 16.2938 20.8759 16.0451 21.0539 15.8671C21.2319 15.6891 21.476 15.6007 21.7851 15.6007H25.651Z" fill="#3E5DE7"/>
<path d="M32.9595 15.6007C33.2779 15.6007 33.5221 15.6893 33.6908 15.8671C33.8687 16.0451 33.9585 16.2938 33.9586 16.6122V16.8093C33.9586 17.1279 33.8688 17.3719 33.6908 17.5405C33.5221 17.7091 33.278 17.7931 32.9595 17.7931H32.2851V29.7834H32.9595C33.2779 29.7834 33.5221 29.872 33.6908 30.0498C33.8688 30.2184 33.9586 30.458 33.9586 30.7672V30.9781C33.9586 31.2873 33.8688 31.5313 33.6908 31.7093C33.5221 31.8873 33.278 31.9758 32.9595 31.9758H29.095C28.4297 31.9758 28.096 31.6434 28.096 30.9781V30.7672C28.096 30.458 28.1857 30.2184 28.3638 30.0498C28.5418 29.872 28.786 29.7834 29.095 29.7834H29.7833V17.7931H29.095C28.7859 17.7931 28.5418 17.7091 28.3638 17.5405C28.1857 17.3719 28.096 17.1279 28.096 16.8093V16.6122C28.096 16.2938 28.1813 16.0451 28.3499 15.8671C28.5279 15.6894 28.7767 15.6007 29.095 15.6007H32.9595Z" fill="#3E5DE7"/>
<path fill-rule="evenodd" clip-rule="evenodd" d="M20.0701 4.18628C20.7073 4.18628 21.336 4.36442 21.9544 4.72051L34.2958 11.8472C34.8952 12.1938 35.1947 12.6299 35.1949 13.1543C35.1949 13.5011 35.0632 13.8199 34.8008 14.1104C34.5385 14.3915 34.1776 14.5322 33.7185 14.5322H6.43551C5.96713 14.5322 5.60162 14.3915 5.3393 14.1104C5.07705 13.82 4.94523 13.501 4.94523 13.1543C4.94541 12.6204 5.24623 12.1845 5.84578 11.8472L18.1871 4.72051C18.796 4.36465 19.4238 4.18633 20.0701 4.18628ZM20.0701 7.13909C19.9202 7.13915 19.7703 7.18559 19.6205 7.27924L11.324 11.9319H28.8161L20.5197 7.27924C20.3512 7.18569 20.2012 7.13909 20.0701 7.13909Z" fill="#3E5DE7"/>
</svg>
