<svg width="80" height="80" viewBox="0 0 80 80" fill="none" xmlns="http://www.w3.org/2000/svg">
<g filter="url(#filter0_d_1782_2153)">
<path d="M30.2881 5.45898C31.1454 5.45898 31.8723 5.56061 32.4658 5.75846C33.2124 6.00021 33.772 6.37316 34.1455 6.87826C34.5412 7.36189 34.7412 7.95539 34.7412 8.65885C34.7412 10.0877 34.1127 11.0114 32.8597 11.429C32.6623 11.4948 32.4433 11.5512 32.2021 11.5951C31.9824 11.617 31.7399 11.6382 31.4762 11.6602C28.839 11.8579 26.9806 12.5928 25.9033 13.8672C24.8263 15.1421 24.2889 17.2427 24.2887 20.166V30.3548C24.2887 33.1907 23.5164 35.4135 21.9775 37.0182C20.4611 38.6219 18.3519 39.5676 15.6494 39.8535C15.5181 39.8535 15.4515 39.9074 15.4508 40.0163C15.4728 40.1042 15.5395 40.1603 15.6494 40.1823C18.3521 40.4462 20.4611 41.3812 21.9775 42.985C23.5161 44.5896 24.2885 46.81 24.2887 49.6452V59.8372C24.2889 62.7598 24.8266 64.858 25.9033 66.1328C26.9805 67.4078 28.8383 68.1558 31.4762 68.3756C31.6956 68.3757 31.8931 68.3863 32.0687 68.4082C32.2661 68.4521 32.453 68.4978 32.6286 68.5417C34.0355 68.9154 34.7412 69.839 34.7412 71.3118C34.741 72.0149 34.541 72.6196 34.1455 73.125C33.772 73.6298 33.2015 74.0137 32.4333 74.2773C31.8617 74.4532 31.2438 74.541 30.5843 74.541C25.8585 74.5408 22.3634 73.4205 20.0993 71.1784C17.8572 68.9581 16.7367 65.474 16.7367 60.7259V52.3177C16.7367 49.7238 16.2837 47.8342 15.3825 46.6471C14.4812 45.4601 12.9883 44.6877 10.9001 44.3359C9.66982 44.0723 8.72422 43.5689 8.06478 42.8223C7.40528 42.0748 7.0752 41.1163 7.0752 39.9512C7.07533 38.8303 7.40542 37.8957 8.06478 37.1484C8.72424 36.3795 9.66948 35.8838 10.9001 35.6641C12.9879 35.2903 14.4813 34.5209 15.3825 33.3561C16.2838 32.1691 16.7366 30.2794 16.7367 27.6855V19.2773C16.7367 14.5731 17.8466 11.0997 20.0667 8.85742C22.2869 6.59324 25.6939 5.45908 30.2881 5.45898Z" fill="#304DDF"/>
<path d="M30.2881 5.45898C31.1454 5.45898 31.8723 5.56061 32.4658 5.75846C33.2124 6.00021 33.772 6.37316 34.1455 6.87826C34.5412 7.36189 34.7412 7.95539 34.7412 8.65885C34.7412 10.0877 34.1127 11.0114 32.8597 11.429C32.6623 11.4948 32.4433 11.5512 32.2021 11.5951C31.9824 11.617 31.7399 11.6382 31.4762 11.6602C28.839 11.8579 26.9806 12.5928 25.9033 13.8672C24.8263 15.1421 24.2889 17.2427 24.2887 20.166V30.3548C24.2887 33.1907 23.5164 35.4135 21.9775 37.0182C20.4611 38.6219 18.3519 39.5676 15.6494 39.8535C15.5181 39.8535 15.4515 39.9074 15.4508 40.0163C15.4728 40.1042 15.5395 40.1603 15.6494 40.1823C18.3521 40.4462 20.4611 41.3812 21.9775 42.985C23.5161 44.5896 24.2885 46.81 24.2887 49.6452V59.8372C24.2889 62.7598 24.8266 64.858 25.9033 66.1328C26.9805 67.4078 28.8383 68.1558 31.4762 68.3756C31.6956 68.3757 31.8931 68.3863 32.0687 68.4082C32.2661 68.4521 32.453 68.4978 32.6286 68.5417C34.0355 68.9154 34.7412 69.839 34.7412 71.3118C34.741 72.0149 34.541 72.6196 34.1455 73.125C33.772 73.6298 33.2015 74.0137 32.4333 74.2773C31.8617 74.4532 31.2438 74.541 30.5843 74.541C25.8585 74.5408 22.3634 73.4205 20.0993 71.1784C17.8572 68.9581 16.7367 65.474 16.7367 60.7259V52.3177C16.7367 49.7238 16.2837 47.8342 15.3825 46.6471C14.4812 45.4601 12.9883 44.6877 10.9001 44.3359C9.66982 44.0723 8.72422 43.5689 8.06478 42.8223C7.40528 42.0748 7.0752 41.1163 7.0752 39.9512C7.07533 38.8303 7.40542 37.8957 8.06478 37.1484C8.72424 36.3795 9.66948 35.8838 10.9001 35.6641C12.9879 35.2903 14.4813 34.5209 15.3825 33.3561C16.2838 32.1691 16.7366 30.2794 16.7367 27.6855V19.2773C16.7367 14.5731 17.8466 11.0997 20.0667 8.85742C22.2869 6.59324 25.6939 5.45908 30.2881 5.45898Z" fill="#304DDF"/>
<path d="M30.2881 5.45898C31.1454 5.45898 31.8723 5.56061 32.4658 5.75846C33.2124 6.00021 33.772 6.37316 34.1455 6.87826C34.5412 7.36189 34.7412 7.95539 34.7412 8.65885C34.7412 10.0877 34.1127 11.0114 32.8597 11.429C32.6623 11.4948 32.4433 11.5512 32.2021 11.5951C31.9824 11.617 31.7399 11.6382 31.4762 11.6602C28.839 11.8579 26.9806 12.5928 25.9033 13.8672C24.8263 15.1421 24.2889 17.2427 24.2887 20.166V30.3548C24.2887 33.1907 23.5164 35.4135 21.9775 37.0182C20.4611 38.6219 18.3519 39.5676 15.6494 39.8535C15.5181 39.8535 15.4515 39.9074 15.4508 40.0163C15.4728 40.1042 15.5395 40.1603 15.6494 40.1823C18.3521 40.4462 20.4611 41.3812 21.9775 42.985C23.5161 44.5896 24.2885 46.81 24.2887 49.6452V59.8372C24.2889 62.7598 24.8266 64.858 25.9033 66.1328C26.9805 67.4078 28.8383 68.1558 31.4762 68.3756C31.6956 68.3757 31.8931 68.3863 32.0687 68.4082C32.2661 68.4521 32.453 68.4978 32.6286 68.5417C34.0355 68.9154 34.7412 69.839 34.7412 71.3118C34.741 72.0149 34.541 72.6196 34.1455 73.125C33.772 73.6298 33.2015 74.0137 32.4333 74.2773C31.8617 74.4532 31.2438 74.541 30.5843 74.541C25.8585 74.5408 22.3634 73.4205 20.0993 71.1784C17.8572 68.9581 16.7367 65.474 16.7367 60.7259V52.3177C16.7367 49.7238 16.2837 47.8342 15.3825 46.6471C14.4812 45.4601 12.9883 44.6877 10.9001 44.3359C9.66982 44.0723 8.72422 43.5689 8.06478 42.8223C7.40528 42.0748 7.0752 41.1163 7.0752 39.9512C7.07533 38.8303 7.40542 37.8957 8.06478 37.1484C8.72424 36.3795 9.66948 35.8838 10.9001 35.6641C12.9879 35.2903 14.4813 34.5209 15.3825 33.3561C16.2838 32.1691 16.7366 30.2794 16.7367 27.6855V19.2773C16.7367 14.5731 17.8466 11.0997 20.0667 8.85742C22.2869 6.59324 25.6939 5.45908 30.2881 5.45898Z" fill="url(#paint0_linear_1782_2153)"/>
<path d="M30.2881 5.45898C31.1454 5.45898 31.8723 5.56061 32.4658 5.75846C33.2124 6.00021 33.772 6.37316 34.1455 6.87826C34.5412 7.36189 34.7412 7.95539 34.7412 8.65885C34.7412 10.0877 34.1127 11.0114 32.8597 11.429C32.6623 11.4948 32.4433 11.5512 32.2021 11.5951C31.9824 11.617 31.7399 11.6382 31.4762 11.6602C28.839 11.8579 26.9806 12.5928 25.9033 13.8672C24.8263 15.1421 24.2889 17.2427 24.2887 20.166V30.3548C24.2887 33.1907 23.5164 35.4135 21.9775 37.0182C20.4611 38.6219 18.3519 39.5676 15.6494 39.8535C15.5181 39.8535 15.4515 39.9074 15.4508 40.0163C15.4728 40.1042 15.5395 40.1603 15.6494 40.1823C18.3521 40.4462 20.4611 41.3812 21.9775 42.985C23.5161 44.5896 24.2885 46.81 24.2887 49.6452V59.8372C24.2889 62.7598 24.8266 64.858 25.9033 66.1328C26.9805 67.4078 28.8383 68.1558 31.4762 68.3756C31.6956 68.3757 31.8931 68.3863 32.0687 68.4082C32.2661 68.4521 32.453 68.4978 32.6286 68.5417C34.0355 68.9154 34.7412 69.839 34.7412 71.3118C34.741 72.0149 34.541 72.6196 34.1455 73.125C33.772 73.6298 33.2015 74.0137 32.4333 74.2773C31.8617 74.4532 31.2438 74.541 30.5843 74.541C25.8585 74.5408 22.3634 73.4205 20.0993 71.1784C17.8572 68.9581 16.7367 65.474 16.7367 60.7259V52.3177C16.7367 49.7238 16.2837 47.8342 15.3825 46.6471C14.4812 45.4601 12.9883 44.6877 10.9001 44.3359C9.66982 44.0723 8.72422 43.5689 8.06478 42.8223C7.40528 42.0748 7.0752 41.1163 7.0752 39.9512C7.07533 38.8303 7.40542 37.8957 8.06478 37.1484C8.72424 36.3795 9.66948 35.8838 10.9001 35.6641C12.9879 35.2903 14.4813 34.5209 15.3825 33.3561C16.2838 32.1691 16.7366 30.2794 16.7367 27.6855V19.2773C16.7367 14.5731 17.8466 11.0997 20.0667 8.85742C22.2869 6.59324 25.6939 5.45908 30.2881 5.45898Z" fill="url(#paint1_linear_1782_2153)" fill-opacity="0.39"/>
<path d="M30.2881 5.45898C31.1454 5.45898 31.8723 5.56061 32.4658 5.75846C33.2124 6.00021 33.772 6.37316 34.1455 6.87826C34.5412 7.36189 34.7412 7.95539 34.7412 8.65885C34.7412 10.0877 34.1127 11.0114 32.8597 11.429C32.6623 11.4948 32.4433 11.5512 32.2021 11.5951C31.9824 11.617 31.7399 11.6382 31.4762 11.6602C28.839 11.8579 26.9806 12.5928 25.9033 13.8672C24.8263 15.1421 24.2889 17.2427 24.2887 20.166V30.3548C24.2887 33.1907 23.5164 35.4135 21.9775 37.0182C20.4611 38.6219 18.3519 39.5676 15.6494 39.8535C15.5181 39.8535 15.4515 39.9074 15.4508 40.0163C15.4728 40.1042 15.5395 40.1603 15.6494 40.1823C18.3521 40.4462 20.4611 41.3812 21.9775 42.985C23.5161 44.5896 24.2885 46.81 24.2887 49.6452V59.8372C24.2889 62.7598 24.8266 64.858 25.9033 66.1328C26.9805 67.4078 28.8383 68.1558 31.4762 68.3756C31.6956 68.3757 31.8931 68.3863 32.0687 68.4082C32.2661 68.4521 32.453 68.4978 32.6286 68.5417C34.0355 68.9154 34.7412 69.839 34.7412 71.3118C34.741 72.0149 34.541 72.6196 34.1455 73.125C33.772 73.6298 33.2015 74.0137 32.4333 74.2773C31.8617 74.4532 31.2438 74.541 30.5843 74.541C25.8585 74.5408 22.3634 73.4205 20.0993 71.1784C17.8572 68.9581 16.7367 65.474 16.7367 60.7259V52.3177C16.7367 49.7238 16.2837 47.8342 15.3825 46.6471C14.4812 45.4601 12.9883 44.6877 10.9001 44.3359C9.66982 44.0723 8.72422 43.5689 8.06478 42.8223C7.40528 42.0748 7.0752 41.1163 7.0752 39.9512C7.07533 38.8303 7.40542 37.8957 8.06478 37.1484C8.72424 36.3795 9.66948 35.8838 10.9001 35.6641C12.9879 35.2903 14.4813 34.5209 15.3825 33.3561C16.2838 32.1691 16.7366 30.2794 16.7367 27.6855V19.2773C16.7367 14.5731 17.8466 11.0997 20.0667 8.85742C22.2869 6.59324 25.6939 5.45908 30.2881 5.45898Z" fill="#3E5DE7" fill-opacity="0.65"/>
<path d="M49.6794 5.45898C54.2731 5.45924 57.6807 6.5934 59.9007 8.85742C62.1205 11.0997 63.2308 14.5735 63.2308 19.2773V27.6855C63.2308 30.279 63.6807 32.1585 64.5817 33.3236C65.483 34.4887 66.979 35.2684 69.0674 35.6641C70.32 35.8839 71.2758 36.3794 71.9352 37.1484C72.5946 37.8957 72.9247 38.8303 72.9248 39.9512C72.9248 41.1163 72.5947 42.0748 71.9352 42.8223C71.2759 43.5689 70.3194 44.0722 69.0674 44.3359C66.957 44.6877 65.4505 45.46 64.5492 46.6471C63.6703 47.8343 63.2308 49.7245 63.2308 52.3177V60.7259C63.2308 65.4737 62.1099 68.958 59.8682 71.1784C57.6259 73.4207 54.1283 74.541 49.3799 74.541C48.7428 74.5409 48.1274 74.4531 47.5342 74.2773C46.7651 74.0575 46.1817 73.685 45.7861 73.1575C45.4127 72.6522 45.2264 72.0368 45.2262 71.3118C45.2262 70.5424 45.4018 69.9245 45.7536 69.4629C46.1051 69.0239 46.6439 68.7175 47.3682 68.5417C47.5218 68.4978 47.6875 68.4521 47.863 68.4082C48.0608 68.3862 48.2714 68.3756 48.4912 68.3756C51.1289 68.1558 52.987 67.4078 54.0641 66.1328C55.1406 64.8579 55.6785 62.7595 55.6787 59.8372V49.6452C55.6789 46.8105 56.4487 44.5472 57.9867 42.8548C59.5254 41.1403 61.6364 40.2484 64.318 40.1823C64.4279 40.1603 64.484 40.1042 64.484 40.0163C64.4835 39.9074 64.4274 39.8535 64.318 39.8535C61.6364 39.7874 59.5254 38.8955 57.9867 37.181C56.4484 35.4664 55.6787 33.1901 55.6787 30.3548V20.166C55.6786 17.2427 55.1412 15.1315 54.0641 13.8346C52.987 12.5379 51.1287 11.8141 48.4912 11.6602C48.2276 11.6382 47.9744 11.617 47.7327 11.5951C47.5129 11.5511 47.3023 11.495 47.1045 11.429C45.8522 10.9673 45.2263 10.0434 45.2262 8.65885C45.2262 7.95559 45.4126 7.36181 45.7861 6.87826C46.1597 6.37279 46.7431 6.00029 47.5342 5.75846C48.1277 5.56061 48.844 5.45898 49.6794 5.45898Z" fill="#304DDF"/>
<path d="M49.6794 5.45898C54.2731 5.45924 57.6807 6.5934 59.9007 8.85742C62.1205 11.0997 63.2308 14.5735 63.2308 19.2773V27.6855C63.2308 30.279 63.6807 32.1585 64.5817 33.3236C65.483 34.4887 66.979 35.2684 69.0674 35.6641C70.32 35.8839 71.2758 36.3794 71.9352 37.1484C72.5946 37.8957 72.9247 38.8303 72.9248 39.9512C72.9248 41.1163 72.5947 42.0748 71.9352 42.8223C71.2759 43.5689 70.3194 44.0722 69.0674 44.3359C66.957 44.6877 65.4505 45.46 64.5492 46.6471C63.6703 47.8343 63.2308 49.7245 63.2308 52.3177V60.7259C63.2308 65.4737 62.1099 68.958 59.8682 71.1784C57.6259 73.4207 54.1283 74.541 49.3799 74.541C48.7428 74.5409 48.1274 74.4531 47.5342 74.2773C46.7651 74.0575 46.1817 73.685 45.7861 73.1575C45.4127 72.6522 45.2264 72.0368 45.2262 71.3118C45.2262 70.5424 45.4018 69.9245 45.7536 69.4629C46.1051 69.0239 46.6439 68.7175 47.3682 68.5417C47.5218 68.4978 47.6875 68.4521 47.863 68.4082C48.0608 68.3862 48.2714 68.3756 48.4912 68.3756C51.1289 68.1558 52.987 67.4078 54.0641 66.1328C55.1406 64.8579 55.6785 62.7595 55.6787 59.8372V49.6452C55.6789 46.8105 56.4487 44.5472 57.9867 42.8548C59.5254 41.1403 61.6364 40.2484 64.318 40.1823C64.4279 40.1603 64.484 40.1042 64.484 40.0163C64.4835 39.9074 64.4274 39.8535 64.318 39.8535C61.6364 39.7874 59.5254 38.8955 57.9867 37.181C56.4484 35.4664 55.6787 33.1901 55.6787 30.3548V20.166C55.6786 17.2427 55.1412 15.1315 54.0641 13.8346C52.987 12.5379 51.1287 11.8141 48.4912 11.6602C48.2276 11.6382 47.9744 11.617 47.7327 11.5951C47.5129 11.5511 47.3023 11.495 47.1045 11.429C45.8522 10.9673 45.2263 10.0434 45.2262 8.65885C45.2262 7.95559 45.4126 7.36181 45.7861 6.87826C46.1597 6.37279 46.7431 6.00029 47.5342 5.75846C48.1277 5.56061 48.844 5.45898 49.6794 5.45898Z" fill="#304DDF"/>
<path d="M49.6794 5.45898C54.2731 5.45924 57.6807 6.5934 59.9007 8.85742C62.1205 11.0997 63.2308 14.5735 63.2308 19.2773V27.6855C63.2308 30.279 63.6807 32.1585 64.5817 33.3236C65.483 34.4887 66.979 35.2684 69.0674 35.6641C70.32 35.8839 71.2758 36.3794 71.9352 37.1484C72.5946 37.8957 72.9247 38.8303 72.9248 39.9512C72.9248 41.1163 72.5947 42.0748 71.9352 42.8223C71.2759 43.5689 70.3194 44.0722 69.0674 44.3359C66.957 44.6877 65.4505 45.46 64.5492 46.6471C63.6703 47.8343 63.2308 49.7245 63.2308 52.3177V60.7259C63.2308 65.4737 62.1099 68.958 59.8682 71.1784C57.6259 73.4207 54.1283 74.541 49.3799 74.541C48.7428 74.5409 48.1274 74.4531 47.5342 74.2773C46.7651 74.0575 46.1817 73.685 45.7861 73.1575C45.4127 72.6522 45.2264 72.0368 45.2262 71.3118C45.2262 70.5424 45.4018 69.9245 45.7536 69.4629C46.1051 69.0239 46.6439 68.7175 47.3682 68.5417C47.5218 68.4978 47.6875 68.4521 47.863 68.4082C48.0608 68.3862 48.2714 68.3756 48.4912 68.3756C51.1289 68.1558 52.987 67.4078 54.0641 66.1328C55.1406 64.8579 55.6785 62.7595 55.6787 59.8372V49.6452C55.6789 46.8105 56.4487 44.5472 57.9867 42.8548C59.5254 41.1403 61.6364 40.2484 64.318 40.1823C64.4279 40.1603 64.484 40.1042 64.484 40.0163C64.4835 39.9074 64.4274 39.8535 64.318 39.8535C61.6364 39.7874 59.5254 38.8955 57.9867 37.181C56.4484 35.4664 55.6787 33.1901 55.6787 30.3548V20.166C55.6786 17.2427 55.1412 15.1315 54.0641 13.8346C52.987 12.5379 51.1287 11.8141 48.4912 11.6602C48.2276 11.6382 47.9744 11.617 47.7327 11.5951C47.5129 11.5511 47.3023 11.495 47.1045 11.429C45.8522 10.9673 45.2263 10.0434 45.2262 8.65885C45.2262 7.95559 45.4126 7.36181 45.7861 6.87826C46.1597 6.37279 46.7431 6.00029 47.5342 5.75846C48.1277 5.56061 48.844 5.45898 49.6794 5.45898Z" fill="url(#paint2_linear_1782_2153)"/>
<path d="M49.6794 5.45898C54.2731 5.45924 57.6807 6.5934 59.9007 8.85742C62.1205 11.0997 63.2308 14.5735 63.2308 19.2773V27.6855C63.2308 30.279 63.6807 32.1585 64.5817 33.3236C65.483 34.4887 66.979 35.2684 69.0674 35.6641C70.32 35.8839 71.2758 36.3794 71.9352 37.1484C72.5946 37.8957 72.9247 38.8303 72.9248 39.9512C72.9248 41.1163 72.5947 42.0748 71.9352 42.8223C71.2759 43.5689 70.3194 44.0722 69.0674 44.3359C66.957 44.6877 65.4505 45.46 64.5492 46.6471C63.6703 47.8343 63.2308 49.7245 63.2308 52.3177V60.7259C63.2308 65.4737 62.1099 68.958 59.8682 71.1784C57.6259 73.4207 54.1283 74.541 49.3799 74.541C48.7428 74.5409 48.1274 74.4531 47.5342 74.2773C46.7651 74.0575 46.1817 73.685 45.7861 73.1575C45.4127 72.6522 45.2264 72.0368 45.2262 71.3118C45.2262 70.5424 45.4018 69.9245 45.7536 69.4629C46.1051 69.0239 46.6439 68.7175 47.3682 68.5417C47.5218 68.4978 47.6875 68.4521 47.863 68.4082C48.0608 68.3862 48.2714 68.3756 48.4912 68.3756C51.1289 68.1558 52.987 67.4078 54.0641 66.1328C55.1406 64.8579 55.6785 62.7595 55.6787 59.8372V49.6452C55.6789 46.8105 56.4487 44.5472 57.9867 42.8548C59.5254 41.1403 61.6364 40.2484 64.318 40.1823C64.4279 40.1603 64.484 40.1042 64.484 40.0163C64.4835 39.9074 64.4274 39.8535 64.318 39.8535C61.6364 39.7874 59.5254 38.8955 57.9867 37.181C56.4484 35.4664 55.6787 33.1901 55.6787 30.3548V20.166C55.6786 17.2427 55.1412 15.1315 54.0641 13.8346C52.987 12.5379 51.1287 11.8141 48.4912 11.6602C48.2276 11.6382 47.9744 11.617 47.7327 11.5951C47.5129 11.5511 47.3023 11.495 47.1045 11.429C45.8522 10.9673 45.2263 10.0434 45.2262 8.65885C45.2262 7.95559 45.4126 7.36181 45.7861 6.87826C46.1597 6.37279 46.7431 6.00029 47.5342 5.75846C48.1277 5.56061 48.844 5.45898 49.6794 5.45898Z" fill="url(#paint3_linear_1782_2153)" fill-opacity="0.39"/>
<path d="M49.6794 5.45898C54.2731 5.45924 57.6807 6.5934 59.9007 8.85742C62.1205 11.0997 63.2308 14.5735 63.2308 19.2773V27.6855C63.2308 30.279 63.6807 32.1585 64.5817 33.3236C65.483 34.4887 66.979 35.2684 69.0674 35.6641C70.32 35.8839 71.2758 36.3794 71.9352 37.1484C72.5946 37.8957 72.9247 38.8303 72.9248 39.9512C72.9248 41.1163 72.5947 42.0748 71.9352 42.8223C71.2759 43.5689 70.3194 44.0722 69.0674 44.3359C66.957 44.6877 65.4505 45.46 64.5492 46.6471C63.6703 47.8343 63.2308 49.7245 63.2308 52.3177V60.7259C63.2308 65.4737 62.1099 68.958 59.8682 71.1784C57.6259 73.4207 54.1283 74.541 49.3799 74.541C48.7428 74.5409 48.1274 74.4531 47.5342 74.2773C46.7651 74.0575 46.1817 73.685 45.7861 73.1575C45.4127 72.6522 45.2264 72.0368 45.2262 71.3118C45.2262 70.5424 45.4018 69.9245 45.7536 69.4629C46.1051 69.0239 46.6439 68.7175 47.3682 68.5417C47.5218 68.4978 47.6875 68.4521 47.863 68.4082C48.0608 68.3862 48.2714 68.3756 48.4912 68.3756C51.1289 68.1558 52.987 67.4078 54.0641 66.1328C55.1406 64.8579 55.6785 62.7595 55.6787 59.8372V49.6452C55.6789 46.8105 56.4487 44.5472 57.9867 42.8548C59.5254 41.1403 61.6364 40.2484 64.318 40.1823C64.4279 40.1603 64.484 40.1042 64.484 40.0163C64.4835 39.9074 64.4274 39.8535 64.318 39.8535C61.6364 39.7874 59.5254 38.8955 57.9867 37.181C56.4484 35.4664 55.6787 33.1901 55.6787 30.3548V20.166C55.6786 17.2427 55.1412 15.1315 54.0641 13.8346C52.987 12.5379 51.1287 11.8141 48.4912 11.6602C48.2276 11.6382 47.9744 11.617 47.7327 11.5951C47.5129 11.5511 47.3023 11.495 47.1045 11.429C45.8522 10.9673 45.2263 10.0434 45.2262 8.65885C45.2262 7.95559 45.4126 7.36181 45.7861 6.87826C46.1597 6.37279 46.7431 6.00029 47.5342 5.75846C48.1277 5.56061 48.844 5.45898 49.6794 5.45898Z" fill="#3E5DE7" fill-opacity="0.65"/>
<path d="M30.6064 5.35156C31.3361 5.37393 31.9688 5.47406 32.501 5.65137H32.5C33.261 5.89778 33.8418 6.28085 34.2324 6.80664C34.6465 7.3127 34.8535 7.93293 34.8535 8.65918C34.8535 9.38976 34.6928 10.0014 34.3633 10.4863C34.0333 10.972 33.5409 11.321 32.8955 11.5361C32.6928 11.6036 32.4686 11.6613 32.2227 11.7061L32.2139 11.707L32.2021 11.5947L32.2129 11.707C31.9924 11.7291 31.749 11.7505 31.4854 11.7725H31.4844C28.8604 11.9693 27.0383 12.6988 25.9893 13.9395C24.9382 15.1835 24.4015 17.2512 24.4014 20.166V30.3545C24.4014 33.2107 23.6222 35.4638 22.0586 37.0947C20.5197 38.7221 18.3839 39.6778 15.6611 39.9658L15.6494 39.9668V39.9658C15.5964 39.9658 15.577 39.9776 15.5723 39.9814C15.5713 39.9822 15.5672 39.9863 15.5654 40.0049C15.5773 40.0331 15.6037 40.0568 15.668 40.0703C18.3873 40.3372 20.5209 41.2813 22.0586 42.9072L22.3428 43.2197C23.7169 44.8212 24.4012 46.9679 24.4014 49.6455V59.8369C24.4016 62.751 24.9385 64.8165 25.9893 66.0605L26.1953 66.2871C27.2683 67.3914 29.0204 68.0567 31.4766 68.2627L31.7949 68.2715L32.083 68.2969L32.0928 68.2979V68.2988C32.2917 68.343 32.4803 68.3887 32.6562 68.4326H32.6572C33.3785 68.6242 33.9308 68.9602 34.3018 69.4463C34.6725 69.9323 34.8535 70.5572 34.8535 71.3115C34.8533 72.0363 34.6465 72.665 34.2354 73.1914C33.8448 73.7193 33.2532 74.1149 32.4697 74.3838L32.4668 74.3848C31.8834 74.5643 31.2535 74.6533 30.584 74.6533C25.8432 74.6531 22.3139 73.5297 20.0205 71.2588C17.7484 69.0087 16.624 65.4887 16.624 60.7256V52.3174C16.624 49.7321 16.1719 47.8725 15.293 46.7148C14.4151 45.5588 12.9532 44.7963 10.8818 44.4473L10.877 44.4463C9.62958 44.179 8.65968 43.6655 7.98047 42.8965C7.29987 42.1251 6.96289 41.1387 6.96289 39.9512L6.9668 39.7383C7.00658 38.6869 7.34332 37.7964 7.98047 37.0742C8.66031 36.2821 9.63062 35.7769 10.8799 35.5537C12.9522 35.1828 14.416 34.4219 15.2939 33.2871C16.1723 32.1294 16.624 30.2701 16.624 27.6855V19.2773C16.624 14.5581 17.7372 11.0501 19.9863 8.77832L20.2012 8.56738C22.4523 6.4152 25.8213 5.34677 30.2881 5.34668L30.6064 5.35156ZM49.6797 5.34668C54.2899 5.34699 57.7324 6.48471 59.9814 8.77832H59.9805C62.2294 11.0501 63.3438 14.5582 63.3438 19.2773V27.6855L63.3486 28.1621C63.4013 30.4995 63.8479 32.1907 64.6709 33.2549C65.5492 34.3901 67.015 35.1609 69.0879 35.5537H69.0869C70.3579 35.7768 71.3393 36.2815 72.0195 37.0742L72.1426 37.2207C72.7399 37.9654 73.037 38.878 73.0371 39.9512L73.0332 40.1719C72.9936 41.2614 72.6575 42.1734 72.0195 42.8965C71.3401 43.6659 70.3595 44.1791 69.0908 44.4463L69.0859 44.4473C66.9925 44.7962 65.5165 45.5577 64.6387 46.7129L64.6396 46.7139C63.7825 47.8717 63.3438 49.7322 63.3438 52.3174V60.7256C63.3438 65.4884 62.219 69.0087 59.9473 71.2588L59.9463 71.2578C57.8164 73.3873 54.5797 74.5088 50.2588 74.6406L49.3799 74.6533C48.7325 74.6532 48.1066 74.5636 47.5029 74.3848C46.7158 74.1597 46.1095 73.7756 45.6963 73.2246H45.6953C45.3054 72.697 45.1135 72.0566 45.1133 71.3115C45.1133 70.5258 45.2932 69.8813 45.6641 69.3945L45.666 69.3926C46.0368 68.9296 46.5989 68.6135 47.3369 68.4336L47.8359 68.2988L47.8428 68.2969H47.8506C48.0531 68.2744 48.2678 68.2627 48.4912 68.2627C51.1109 68.0429 52.9306 67.3009 53.9785 66.0605C55.029 64.8164 55.5662 62.7506 55.5664 59.8369V49.6455C55.5666 46.7899 56.3424 44.497 57.9033 42.7793L58.2031 42.4629C59.7336 40.9314 61.7707 40.1342 64.3027 40.0693C64.3389 40.0612 64.3557 40.0514 64.3623 40.0449C64.3664 40.0408 64.371 40.0342 64.3711 40.0166L64.3672 39.9814C64.3653 39.976 64.3633 39.9747 64.3633 39.9746C64.3631 39.9744 64.3613 39.9726 64.3555 39.9707C64.3487 39.9685 64.3366 39.9658 64.3184 39.9658H64.3154C61.6083 39.8991 59.4661 38.9973 57.9033 37.2559C56.3425 35.5162 55.5664 33.2108 55.5664 30.3545V20.166C55.5663 17.2515 55.0293 15.1726 53.9775 13.9062C52.9292 12.6444 51.108 11.9256 48.4844 11.7725H48.4814C48.2181 11.7505 47.9646 11.729 47.7227 11.707L47.7109 11.7061V11.7051C47.4868 11.6603 47.2716 11.6035 47.0693 11.5361L47.0654 11.5342C46.4218 11.2968 45.9311 10.9378 45.6025 10.4531C45.2742 9.96875 45.1133 9.36833 45.1133 8.65918C45.1133 7.93604 45.3054 7.31732 45.6953 6.81152L45.8525 6.61914C46.2423 6.18714 46.7952 5.86615 47.501 5.65039C48.1084 5.44831 48.8369 5.34668 49.6797 5.34668Z" stroke="url(#paint4_linear_1782_2153)" stroke-opacity="0.25" stroke-width="0.225"/>
</g>
<defs>
<filter id="filter0_d_1782_2153" x="-2.19" y="-0.99" width="84.38" height="84.38" filterUnits="userSpaceOnUse" color-interpolation-filters="sRGB">
<feFlood flood-opacity="0" result="BackgroundImageFix"/>
<feColorMatrix in="SourceAlpha" type="matrix" values="0 0 0 0 0 0 0 0 0 0 0 0 0 0 0 0 0 0 127 0" result="hardAlpha"/>
<feOffset dy="1.2"/>
<feGaussianBlur stdDeviation="1.095"/>
<feComposite in2="hardAlpha" operator="out"/>
<feColorMatrix type="matrix" values="0 0 0 0 0.243137 0 0 0 0 0.364706 0 0 0 0 0.905882 0 0 0 0.15 0"/>
<feBlend mode="normal" in2="BackgroundImageFix" result="effect1_dropShadow_1782_2153"/>
<feBlend mode="normal" in="SourceGraphic" in2="effect1_dropShadow_1782_2153" result="shape"/>
</filter>
<linearGradient id="paint0_linear_1782_2153" x1="21.8044" y1="-11.1065" x2="52.3011" y2="69.9106" gradientUnits="userSpaceOnUse">
<stop offset="0.670868" stop-color="#000091"/>
<stop offset="1" stop-color="#000091" stop-opacity="0"/>
</linearGradient>
<linearGradient id="paint1_linear_1782_2153" x1="56.6236" y1="5.45898" x2="51.3997" y2="41.3131" gradientUnits="userSpaceOnUse">
<stop stop-color="#F4C858"/>
<stop offset="1" stop-color="#F4C858" stop-opacity="0"/>
</linearGradient>
<linearGradient id="paint2_linear_1782_2153" x1="21.8044" y1="-11.1065" x2="52.3011" y2="69.9106" gradientUnits="userSpaceOnUse">
<stop offset="0.670868" stop-color="#000091"/>
<stop offset="1" stop-color="#000091" stop-opacity="0"/>
</linearGradient>
<linearGradient id="paint3_linear_1782_2153" x1="56.6236" y1="5.45898" x2="51.3997" y2="41.3131" gradientUnits="userSpaceOnUse">
<stop stop-color="#F4C858"/>
<stop offset="1" stop-color="#F4C858" stop-opacity="0"/>
</linearGradient>
<linearGradient id="paint4_linear_1782_2153" x1="40" y1="5.45898" x2="40" y2="74.541" gradientUnits="userSpaceOnUse">
<stop stop-color="white"/>
<stop offset="0.519231" stop-color="white" stop-opacity="0"/>
<stop offset="1" stop-color="white"/>
</linearGradient>
</defs>
</svg>
