<svg width="24" height="24" viewBox="0 0 24 24" fill="none" xmlns="http://www.w3.org/2000/svg">
<path d="M9.08643 1.6377C9.34363 1.6377 9.56168 1.66818 9.73975 1.72754C9.96372 1.80006 10.1316 1.91195 10.2437 2.06348C10.3624 2.20857 10.4224 2.38662 10.4224 2.59766C10.4224 3.02631 10.2338 3.30341 9.85791 3.42871C9.79869 3.44843 9.73299 3.46535 9.66064 3.47852C9.59473 3.48511 9.52196 3.49146 9.44287 3.49805C8.6517 3.55738 8.09419 3.77785 7.771 4.16016C7.44788 4.54262 7.28666 5.17282 7.28662 6.0498V9.10645C7.28662 9.9572 7.05491 10.624 6.59326 11.1055C6.13832 11.5866 5.50556 11.8703 4.69482 11.9561C4.65544 11.9561 4.63544 11.9722 4.63525 12.0049C4.64185 12.0313 4.66185 12.0481 4.69482 12.0547C5.50562 12.1339 6.13832 12.4143 6.59326 12.8955C7.05484 13.3769 7.28655 14.043 7.28662 14.8936V17.9512C7.28668 18.828 7.44798 19.4574 7.771 19.8398C8.09415 20.2224 8.65148 20.4467 9.44287 20.5127C9.50867 20.5127 9.56794 20.5159 9.62061 20.5225C9.67984 20.5356 9.73591 20.5493 9.78857 20.5625C10.2107 20.6746 10.4224 20.9517 10.4224 21.3936C10.4223 21.6045 10.3623 21.7859 10.2437 21.9375C10.1316 22.089 9.96044 22.2041 9.72998 22.2832C9.55851 22.336 9.37314 22.3623 9.17529 22.3623C7.75754 22.3623 6.70901 22.0261 6.02979 21.3535C5.35717 20.6874 5.021 19.6422 5.021 18.2178V15.6953C5.021 14.9171 4.88512 14.3503 4.61475 13.9941C4.34437 13.638 3.89649 13.4063 3.27002 13.3008C2.90094 13.2217 2.61726 13.0707 2.41943 12.8467C2.22158 12.6225 2.12256 12.3349 2.12256 11.9854C2.1226 11.6491 2.22162 11.3687 2.41943 11.1445C2.61727 10.9139 2.90084 10.7651 3.27002 10.6992C3.89637 10.5871 4.34438 10.3563 4.61475 10.0068C4.88513 9.65072 5.02098 9.08382 5.021 8.30566V5.7832C5.021 4.37194 5.35398 3.32992 6.02002 2.65723C6.68608 1.97797 7.70816 1.63772 9.08643 1.6377Z" fill="#3E5DE7"/>
<path d="M14.9038 1.6377C16.2819 1.63777 17.3042 1.97802 17.9702 2.65723C18.6362 3.32992 18.9692 4.37204 18.9692 5.7832V8.30566C18.9692 9.08369 19.1042 9.64754 19.3745 9.99707C19.6449 10.3466 20.0937 10.5805 20.7202 10.6992C21.096 10.7652 21.3827 10.9138 21.5806 11.1445C21.7784 11.3687 21.8774 11.6491 21.8774 11.9854C21.8774 12.3349 21.7784 12.6225 21.5806 12.8467C21.3828 13.0707 21.0958 13.2217 20.7202 13.3008C20.0871 13.4063 19.6351 13.638 19.3647 13.9941C19.1011 14.3503 18.9692 14.9173 18.9692 15.6953V18.2178C18.9692 19.6421 18.633 20.6874 17.9604 21.3535C17.2878 22.0262 16.2385 22.3623 14.814 22.3623C14.6228 22.3623 14.4382 22.3359 14.2603 22.2832C14.0295 22.2172 13.8545 22.1055 13.7358 21.9473C13.6238 21.7957 13.5679 21.611 13.5679 21.3936C13.5679 21.1627 13.6206 20.9774 13.7261 20.8389C13.8315 20.7072 13.9932 20.6152 14.2104 20.5625C14.2565 20.5493 14.3062 20.5356 14.3589 20.5225C14.4182 20.5159 14.4814 20.5127 14.5474 20.5127C15.3387 20.4467 15.8961 20.2223 16.2192 19.8398C16.5422 19.4574 16.7036 18.8278 16.7036 17.9512V14.8936C16.7037 14.0432 16.9346 13.3641 17.396 12.8564C17.8576 12.3421 18.4909 12.0745 19.2954 12.0547C19.3284 12.0481 19.3452 12.0313 19.3452 12.0049C19.3451 11.9722 19.3282 11.9561 19.2954 11.9561C18.4909 11.9362 17.8576 11.6687 17.396 11.1543C16.9345 10.6399 16.7036 9.95704 16.7036 9.10645V6.0498C16.7036 5.17282 16.5424 4.53945 16.2192 4.15039C15.8961 3.76138 15.3386 3.54423 14.5474 3.49805C14.4683 3.49146 14.3923 3.48511 14.3198 3.47852C14.2539 3.46533 14.1907 3.4485 14.1313 3.42871C13.7556 3.29018 13.5679 3.01301 13.5679 2.59766C13.5679 2.38668 13.6238 2.20854 13.7358 2.06348C13.8479 1.91184 14.0229 1.80009 14.2603 1.72754C14.4383 1.66818 14.6532 1.6377 14.9038 1.6377Z" fill="#3E5DE7"/>
</svg>
