<svg width="134" height="66" viewBox="0 0 134 66" fill="none" xmlns="http://www.w3.org/2000/svg">
<g opacity="0.75">
<path d="M41.5951 48.7039C41.5951 48.654 42.0396 47.2778 42.1554 46.9694L42.188 46.8826L42.1052 46.8133C42.0599 46.7754 41.7355 46.5272 41.3851 46.2621C41.0346 45.9969 40.7503 45.7773 40.7533 45.7739C40.76 45.7672 41.1585 45.7546 41.6469 45.7386C42.4009 45.714 42.5367 45.706 42.5466 45.688C42.5533 45.6767 42.6573 45.3637 42.7785 44.9932C42.8997 44.6228 43.0383 44.2217 43.0864 44.102L43.174 43.8843L43.198 43.9315C43.2492 44.0325 43.8353 45.6429 43.8353 45.6823C43.8353 45.6823 43.9518 45.689 44.0941 45.689C44.3144 45.689 44.7035 45.707 45.54 45.7572L45.7062 45.7671L45.0579 46.2379C44.7014 46.4969 44.3568 46.7457 44.2924 46.791L44.1752 46.8731L44.1839 46.9297C44.1905 46.961 44.2405 47.1428 44.2987 47.3338C44.5685 48.2187 44.6859 48.631 44.6859 48.6939C44.6859 48.7152 44.6487 48.6931 44.3881 48.5204C44.2369 48.4199 43.4339 47.8429 43.2171 47.679L43.1732 47.6458L42.6143 48.0378C42.1001 48.3986 41.7054 48.6662 41.6266 48.7075C41.6013 48.7208 41.5946 48.7202 41.5946 48.7075L41.5951 48.7039Z" fill="#555E74" stroke="#FAEA27" stroke-width="0.0141795"/>
<path d="M43.4267 42.2874C43.4373 42.2514 43.5664 41.8495 43.7128 41.3948C43.8593 40.9402 43.9792 40.5628 43.9792 40.5562C43.9792 40.5409 43.3953 40.0839 42.9314 39.7356C42.7373 39.5899 42.5778 39.4579 42.5769 39.4423C42.5769 39.3938 42.8315 39.3764 43.5844 39.3739C44.3069 39.3739 44.31 39.3739 44.3427 39.3073C44.3607 39.2721 44.4511 39.0266 44.5434 38.7615C44.8087 38 44.9449 37.6288 44.9674 37.6061C44.9893 37.5834 45.1026 37.909 45.3837 38.804L45.5574 39.357L46.2642 39.3783C46.6529 39.3903 47.0582 39.4096 47.1647 39.4209L47.3584 39.4422L47.108 39.6263C46.9703 39.7275 46.6383 39.973 46.3704 40.1717L45.8832 40.5332L46.1084 41.2071C46.3602 41.9605 46.455 42.2805 46.44 42.3256C46.4333 42.3422 46.1009 42.1101 45.6991 41.8095L44.9683 41.2628L44.8495 41.3473C44.7842 41.3939 44.469 41.6203 44.1493 41.8507C43.8295 42.0811 43.5317 42.2884 43.4874 42.3114C43.4088 42.352 43.4073 42.3513 43.4267 42.2874Z" fill="#555E74" stroke="#FAEA27" stroke-width="0.0283589"/>
<path d="M50.615 37.3531C50.1705 37.0268 49.5157 36.5646 49.4979 36.5646C49.4913 36.5646 49.2645 36.72 48.994 36.9099C48.4435 37.2963 48.0001 37.5891 47.9862 37.5752C47.9596 37.5486 48.3651 36.2141 48.5011 35.8803C48.5158 35.845 48.4083 35.7483 48.0451 35.4691C47.784 35.2684 47.4555 35.0094 47.3152 34.8937C47.0975 34.7142 47.068 34.68 47.1147 34.6617C47.1447 34.6497 47.5459 34.639 48.0061 34.6377C48.4662 34.6377 48.8567 34.6257 48.8738 34.6144C48.8911 34.6031 48.9896 34.3305 49.0931 34.009C49.2848 33.4137 49.4695 32.9346 49.5074 32.9346C49.5433 32.9346 49.593 33.0657 49.8525 33.8401C49.9907 34.2524 50.1199 34.6 50.1396 34.6125C50.1596 34.6251 50.5672 34.6351 51.0459 34.6358C51.5331 34.636 51.9232 34.6478 51.9321 34.6617C51.9408 34.6757 51.8298 34.7821 51.6856 34.8979C51.4177 35.113 50.7236 35.6511 50.5736 35.76L50.4904 35.8206L50.5397 36.0012C50.567 36.1005 50.6853 36.4979 50.8028 36.8842C50.9202 37.2704 51.0121 37.5972 51.007 37.6103C51.0003 37.6236 50.8254 37.5077 50.6149 37.3531H50.615Z" fill="#555E74" stroke="#FAEA27" stroke-width="0.0283589"/>
<path d="M43.4117 55.1634C43.4117 55.1455 43.5404 54.7428 43.6977 54.2688C43.9345 53.5552 43.9776 53.3996 43.9479 53.3638C43.9279 53.3399 43.6814 53.147 43.3996 52.9347C42.7897 52.4755 42.5554 52.2789 42.5769 52.2442C42.5856 52.2302 42.9711 52.2182 43.4489 52.2182C43.9198 52.2182 44.3205 52.2082 44.3392 52.1962C44.3579 52.1843 44.4259 52.0026 44.4899 51.7925C44.6394 51.3028 44.9771 50.4493 45.0031 50.496C45.0137 50.5153 45.1278 50.876 45.2561 51.2972C45.3844 51.7183 45.5072 52.0979 45.5289 52.1409L45.5682 52.2188H46.445C46.9364 52.2188 47.3287 52.2301 47.3375 52.2441C47.3462 52.2581 47.028 52.5154 46.6302 52.8157C46.2325 53.116 45.9071 53.3804 45.9071 53.4033C45.9071 53.426 45.996 53.7047 46.1045 54.0221C46.3156 54.639 46.4599 55.1349 46.4355 55.1593C46.4162 55.1786 46.0056 54.8912 45.4398 54.4615C45.1906 54.2722 44.9718 54.1231 44.9536 54.1301C44.9356 54.1374 44.6671 54.3264 44.3574 54.5508C43.7655 54.9798 43.4535 55.1962 43.4272 55.1962C43.4185 55.1962 43.4113 55.1815 43.4113 55.1636L43.4117 55.1634Z" fill="#555E74" stroke="#FAEA27" stroke-width="0.0283589"/>
<path d="M54.4371 35.9519C54.4371 35.9099 54.7556 34.8506 54.9222 34.3384L54.9774 34.1683L54.9129 34.117C54.8776 34.089 54.7589 33.9922 54.6497 33.9021C54.5406 33.812 54.2534 33.5903 54.0117 33.4094C53.4084 32.958 53.4292 32.9759 53.4761 32.9457C53.498 32.9317 53.9206 32.9157 54.4158 32.9104L55.3162 32.9004L55.4317 32.5273C55.6384 31.86 55.7933 31.3912 55.8502 31.2609L55.9061 31.1333L55.9908 31.3176C56.0758 31.5029 56.2336 31.9191 56.4585 32.5513L56.5795 32.8916L57.4789 32.9075C57.9735 32.9162 58.3868 32.9322 58.3971 32.9428C58.4237 32.9694 58.2541 33.1161 57.5655 33.6626C57.2351 33.925 56.964 34.1587 56.9631 34.1821C56.9618 34.2054 57.0642 34.5245 57.1896 34.8911C57.422 35.57 57.5355 35.9404 57.5113 35.9404C57.464 35.9404 57.24 35.7991 56.9864 35.6097C56.4837 35.2341 55.9646 34.8903 55.9304 34.9104C55.9124 34.921 55.5851 35.1613 55.2029 35.4446C54.3974 36.0418 54.4373 36.0154 54.4373 35.9515L54.4371 35.9519Z" fill="#555E74" stroke="#FAEA27" stroke-width="0.0283589"/>
<path d="M63.5464 37.4458C63.3707 37.3367 63.0122 37.1008 62.7496 36.9216L62.2722 36.5958L61.7357 36.9842C61.1364 37.418 60.8229 37.6278 60.8033 37.6082C60.7959 37.6009 60.9193 37.1967 61.0771 36.7098C61.2349 36.2229 61.3592 35.821 61.3534 35.8167C61.3467 35.8101 61.0662 35.6087 60.7281 35.3639C60.0045 34.8399 59.8256 34.7011 59.8256 34.6635C59.8256 34.6462 60.1701 34.6356 60.7579 34.6356C61.4697 34.6356 61.697 34.6269 61.7188 34.6003C61.7348 34.581 61.8269 34.2905 61.9243 33.9551C62.1205 33.2794 62.2579 32.8774 62.2926 32.8774C62.3266 32.8774 62.4957 33.2956 62.7404 33.9835C62.8597 34.3188 62.9705 34.6025 62.9866 34.614C63.0026 34.6253 63.3924 34.636 63.8525 34.6373C64.3126 34.6373 64.713 34.6493 64.7423 34.6606C64.7876 34.6786 64.761 34.7105 64.5722 34.8668C64.4493 34.9687 64.2148 35.1527 64.051 35.2755C63.8873 35.3983 63.6891 35.5507 63.6106 35.6143C63.5321 35.6775 63.4388 35.7502 63.4032 35.7751L63.3387 35.8204L63.4136 36.1001C63.4549 36.254 63.5774 36.6526 63.686 36.9859C63.7945 37.3192 63.8795 37.6037 63.8747 37.618C63.8681 37.6326 63.7223 37.5548 63.5466 37.4457L63.5464 37.4458Z" fill="#555E74" stroke="#FAEA27" stroke-width="0.0283589"/>
<path d="M65.5592 42.1439C65.5912 42.0308 65.7235 41.6129 65.8537 41.2151C66.0378 40.653 66.0829 40.4847 66.0561 40.4595C66.0375 40.4415 65.7035 40.1896 65.3146 39.8994L64.6074 39.3718H65.5434H66.4795L66.7751 38.4655C66.9376 37.9671 67.079 37.5683 67.0893 37.5793C67.0993 37.59 67.2388 37.9982 67.3987 38.4856L67.6895 39.3718H68.5833H69.4769L68.7561 39.9122C68.3596 40.2094 68.0257 40.462 68.0141 40.4736C68.0028 40.4849 68.076 40.7428 68.1777 41.0462C68.4205 41.7712 68.5655 42.2576 68.5546 42.3105C68.5446 42.3584 68.2901 42.1905 67.4949 41.611C67.0636 41.2968 67.0135 41.2676 66.9609 41.3004C66.9289 41.3204 66.6536 41.5238 66.3488 41.7525C65.7957 42.1676 65.5418 42.3495 65.5155 42.3495C65.5075 42.3495 65.5274 42.257 65.5594 42.1439H65.5592Z" fill="#555E74" stroke="#FAEA27" stroke-width="0.0283589"/>
<path d="M67.266 48.6877C67.2966 48.6073 67.5078 47.925 67.6644 47.3993L67.82 46.8766L67.7554 46.8181C67.7201 46.7855 67.383 46.5425 67.0067 46.2774C66.6304 46.0123 66.3315 45.7877 66.3425 45.7784C66.3677 45.7571 67.5173 45.6953 67.8867 45.6957C68.0388 45.6957 68.1632 45.689 68.1632 45.6837C68.1632 45.6571 68.5686 44.3658 68.6516 44.1279C68.6995 43.9905 68.7482 43.8884 68.76 43.9009C68.7873 43.9296 69.0403 44.5795 69.2554 45.1716C69.346 45.4212 69.4325 45.6413 69.4475 45.6608C69.4654 45.6841 69.5538 45.6961 69.7052 45.6961C70.0355 45.6953 71.1516 45.758 71.1738 45.7786C71.1838 45.7879 70.8871 46.0254 70.5139 46.3062C70.1282 46.5962 69.829 46.8411 69.8208 46.8733C69.8128 46.9046 69.9201 47.2746 70.0591 47.6958C70.1982 48.1169 70.321 48.504 70.3322 48.5561C70.3515 48.6469 70.3502 48.6494 70.2903 48.6173C70.1629 48.5492 69.8908 48.3668 69.4018 48.0218C69.1255 47.8268 68.8774 47.6526 68.8505 47.6345C68.8085 47.6066 68.692 47.6831 68.0648 48.1515C67.6597 48.4538 67.3105 48.7081 67.2889 48.7163C67.2629 48.7263 67.255 48.7163 67.2663 48.6884L67.266 48.6877Z" fill="#555E74" stroke="#FAEA27" stroke-width="0.0283589"/>
<path d="M65.5392 55.1061C65.5498 55.0542 65.6783 54.6484 65.8247 54.2047C65.9711 53.7611 66.0881 53.3967 66.0846 53.3951C66.0846 53.3951 66.0146 53.3405 65.9366 53.2777C65.8586 53.2145 65.5245 52.9586 65.1942 52.7086L64.5936 52.2541L64.7659 52.2361C64.8606 52.2261 65.2875 52.2182 65.7145 52.2182H66.4908L66.5188 52.1542C66.5341 52.119 66.6294 51.8131 66.7308 51.4741C66.8321 51.1352 66.9494 50.7719 66.9915 50.6669L67.0678 50.4761L67.1337 50.6168C67.1697 50.6942 67.2576 50.9426 67.3287 51.1688C67.3997 51.3949 67.503 51.7236 67.5582 51.899L67.6585 52.218H68.5325C69.0131 52.218 69.426 52.2253 69.4502 52.2347C69.4802 52.246 69.2824 52.4131 68.8196 52.7664C68.4486 53.0496 68.1115 53.3081 68.0706 53.3408L67.9962 53.4007L68.2222 54.0927C68.4513 54.7939 68.5621 55.1728 68.5439 55.1925C68.5372 55.1991 68.1934 54.9766 67.7774 54.6995L67.021 54.1957L66.9328 54.2476C66.8841 54.2762 66.6274 54.4532 66.3622 54.6414C65.8631 54.9954 65.7007 55.1052 65.5868 55.1657C65.5216 55.2003 65.5205 55.1987 65.5392 55.1061Z" fill="#555E74" stroke="#FAEA27" stroke-width="0.0283589"/>
<path d="M60.7897 59.8739C60.7897 59.8413 60.9195 59.4199 61.078 58.9374C61.2366 58.4548 61.361 58.056 61.3546 58.0511C61.3479 58.0445 61.0662 57.8419 60.7281 57.5971C60.0045 57.0731 59.8256 56.9343 59.8256 56.8968C59.8256 56.8794 60.1709 56.8688 60.7604 56.8688C61.6221 56.8688 61.6973 56.8621 61.7207 56.8189C61.7347 56.7916 61.826 56.5141 61.9235 56.2021C62.1326 55.533 62.2621 55.167 62.2897 55.167C62.317 55.167 62.5013 55.6123 62.7473 56.273C62.8605 56.5772 62.9673 56.8354 62.9845 56.8468C63.0018 56.8581 63.3924 56.8688 63.8525 56.8701C64.3126 56.8701 64.7134 56.8821 64.743 56.8934C64.7889 56.9114 64.7603 56.9447 64.5578 57.1112C64.4263 57.2193 64.0988 57.4737 63.83 57.6765L63.3414 58.0452L63.3554 58.1444C63.3633 58.199 63.4466 58.4989 63.541 58.8108C63.728 59.4297 63.8574 59.907 63.8423 59.9222C63.8243 59.9402 63.3977 59.6479 62.8418 59.2359C62.477 58.9655 62.2748 58.8324 62.2538 58.849C62.0857 58.9813 60.9273 59.8455 60.8676 59.8832C60.7917 59.9311 60.7896 59.9304 60.7896 59.8732L60.7897 59.8739Z" fill="#555E74" stroke="#FAEA27" stroke-width="0.0283589"/>
<path d="M54.4658 61.4088C54.4658 61.3942 54.595 61.0092 54.7529 60.5532C54.9945 59.8553 55.0335 59.7192 54.9992 59.6935C54.8384 59.573 53.6984 58.6482 53.6862 58.6284C53.6496 58.5698 53.7884 58.5565 54.5922 58.543L55.4418 58.529L55.5064 58.3588C55.5417 58.2652 55.6811 57.876 55.8156 57.4939C55.9501 57.1118 56.07 56.7884 56.0822 56.7753C56.1041 56.752 56.2494 57.1717 56.5344 58.0791L56.6781 58.5367L57.4365 58.5567C57.8536 58.5673 58.2572 58.5853 58.3333 58.5953L58.4717 58.6139L57.7449 59.1514C57.3451 59.447 57.018 59.7003 57.018 59.7143C57.018 59.7283 57.1068 60.0288 57.2151 60.382C57.4393 61.1126 57.5153 61.4015 57.49 61.4269C57.4674 61.4495 57.1824 61.2596 56.5565 60.8043C56.2755 60.5998 56.0352 60.4441 56.0135 60.4525C55.9922 60.4605 55.7968 60.5889 55.5794 60.7375C55.0881 61.0735 54.5231 61.4356 54.4904 61.4356C54.4771 61.4356 54.4658 61.4236 54.4658 61.409V61.4088Z" fill="#555E74" stroke="#FAEA27" stroke-width="0.0283589"/>
<path d="M48.1832 59.7974C48.1939 59.7389 48.3216 59.3367 48.4668 58.9035L48.731 58.1159L48.6135 58.0225C48.549 57.9713 48.2983 57.7777 48.0566 57.5926C47.51 57.174 47.2072 56.9185 47.2243 56.8907C47.2318 56.8787 47.6432 56.8694 48.139 56.8694H49.0405L49.0864 56.763C49.1117 56.7044 49.2361 56.3763 49.3629 56.0334C49.6144 55.3537 49.716 55.128 49.74 55.1962C49.7479 55.2195 49.7819 55.3409 49.8154 55.4656C49.8487 55.5904 49.9536 55.9573 50.0486 56.2809L50.2213 56.8694H51.1028C51.5876 56.8694 52.0089 56.8807 52.0388 56.8927C52.0854 56.9107 52.0541 56.9479 51.8261 57.1469C51.6792 57.275 51.3525 57.5421 51.1002 57.7404C50.8478 57.9387 50.6405 58.1201 50.6394 58.1436C50.6394 58.1669 50.7249 58.4477 50.8318 58.7674C51.0475 59.4125 51.166 59.8363 51.1384 59.8639C51.1131 59.8892 50.8962 59.7409 50.2769 59.2751C49.9838 59.0547 49.7289 58.8685 49.7105 58.8612C49.6919 58.8539 49.4049 59.0443 49.0724 59.2843C48.3845 59.781 48.2105 59.9017 48.1831 59.9017C48.1725 59.9017 48.1725 59.8538 48.1831 59.7954L48.1832 59.7974Z" fill="#555E74" stroke="#FAEA27" stroke-width="0.0283589"/>
<path d="M0.164701 23.0677C0.195324 22.3563 0.227266 21.7662 0.235257 21.7563C0.243198 21.7463 2.44945 21.5017 5.13798 21.2126C10.4073 20.646 29.6653 18.5624 34.4504 18.0411C40.5262 17.3793 42.5524 17.077 44.9719 16.4716C48.6627 15.5481 51.4271 14.2803 54.5882 12.0616C58.0595 9.62517 61.3463 6.1054 64.8005 1.12554L65.4921 0.128418V0.661826V1.19517L64.6358 2.42088C62.7739 5.08592 61.8346 6.31609 60.4843 7.85767C57.7794 10.9459 55.61 12.9528 53.4204 14.3928C50.6106 16.2405 47.5346 17.5166 43.6561 18.4435C41.6059 18.9335 41.7263 18.9164 23.6219 21.288C17.7325 22.0594 10.1164 23.053 6.69739 23.4958C3.2784 23.9386 0.397222 24.3145 0.294776 24.3311L0.108521 24.361L0.164701 23.0677Z" fill="#555E74" stroke="#555E74" stroke-width="0.0802111"/>
<path d="M0.0401611 26.5847C0.0401611 25.8579 0.0674565 25.2632 0.100743 25.2632C0.165983 25.2632 13.091 24.0297 16.4834 23.6998C23.5541 23.012 33.9735 22.0575 37.0777 21.813C38.2136 21.7236 39.4318 21.6168 39.7848 21.5756C40.1377 21.5344 40.7874 21.4613 41.2286 21.4128C44.2251 21.0835 47.8321 20.1539 50.3644 19.0583C53.9109 17.5237 57.2515 15.0565 60.328 11.6997C62.0922 9.77478 63.3442 8.27747 64.815 6.33343L65.4523 5.49121L65.4769 5.87644C65.5002 6.2415 65.4702 6.3044 64.9204 7.07958C63.9344 8.46726 62.008 10.9868 61.3205 11.7878C59.7053 13.6697 57.5092 15.8342 55.9047 17.1253C54.9737 17.8746 53.4065 18.8805 52.1774 19.5176C49.3496 20.9834 46.7602 21.8617 43.5146 22.4561C39.9839 23.1026 39.5846 23.1569 30.8011 24.1845C20.5988 25.3781 0.857084 27.758 0.26071 27.8662L0.0401611 27.9062V26.5847Z" fill="#555E74" stroke="#555E74" stroke-width="0.0802111"/>
<path d="M0.120361 30.003C0.120361 28.8092 0.130987 28.7121 0.266015 28.7121C0.346087 28.7121 4.091 28.4063 8.58792 28.0324C13.0848 27.6586 20.2834 27.0618 24.5847 26.7062C37.5776 25.6322 39.8883 25.4323 41.2687 25.2625C48.4396 24.3804 53.1895 22.5338 57.8631 18.811C60.2611 16.901 62.6367 14.4742 64.6914 11.8359L65.3721 10.9619L65.3968 11.3339C65.4207 11.696 65.3967 11.7363 64.5545 12.8494C61.0154 17.5191 56.7338 21.409 52.9727 23.3715C49.1942 25.3433 45.5568 26.2921 38.5016 27.1467L36.1755 27.4284L31.7037 27.4285L27.2319 27.4288V27.9025V28.3763L26.8509 28.4255C26.6414 28.4528 20.7128 29.0869 13.6762 29.8347C6.63973 30.5826 0.711087 31.2168 0.501533 31.2442L0.120565 31.2941L0.120361 30.003Z" fill="#555E74" stroke="#555E74" stroke-width="0.0802111"/>
<path d="M0.138747 33.3869L0.160713 32.1258L13.3956 31.1458C20.6748 30.6068 26.7658 30.1636 26.9312 30.161L27.232 30.1543V31.1169C27.232 31.9161 27.2114 32.0794 27.1125 32.0794C27.0056 32.0794 20.1549 32.7377 5.39321 34.1666C2.66832 34.4303 0.366335 34.6462 0.277733 34.6462C0.122239 34.6462 0.117307 34.6022 0.138669 33.3851L0.138747 33.3869Z" fill="#555E74" stroke="#555E74" stroke-width="0.0802111"/>
<path d="M0.280762 36.9743V35.6909H0.517022C0.770582 35.6909 15.6037 34.6701 19.1304 34.41C20.2994 34.3237 22.411 34.1803 23.8227 34.0911C25.2344 34.002 26.579 33.913 26.8105 33.8934L27.2317 33.8574V34.8126C27.2317 35.7391 27.225 35.7689 27.0512 35.8036C26.9519 35.8236 25.7518 35.9339 24.3842 36.0494C23.0166 36.165 20.7787 36.3656 19.4111 36.4953C16.0851 36.8108 0.435338 38.2574 0.349004 38.2574C0.311722 38.2574 0.280762 37.6799 0.280762 36.9741V36.9743Z" fill="#555E74" stroke="#555E74" stroke-width="0.0802111"/>
<path d="M0.120361 40.3884V39.1501L0.461252 39.1081C0.92037 39.0515 14.4726 38.3443 22.0581 37.9805C24.3522 37.8705 26.4546 37.7629 26.7304 37.7414L27.2317 37.7021V38.6216C27.2317 39.1272 27.2223 39.5438 27.2117 39.5472C27.2004 39.5539 24.268 39.7832 20.6946 40.064C7.33524 41.1136 0.674609 41.6265 0.401671 41.6265H0.120424L0.120361 40.3884Z" fill="#555E74" stroke="#555E74" stroke-width="0.0802111"/>
<path d="M0.0401611 43.87V42.604L0.782134 42.5548C1.56151 42.5028 8.00699 42.2225 14.7188 41.9489C16.9025 41.8599 20.452 41.7149 22.6066 41.6267C24.7612 41.5385 26.6832 41.4663 26.8779 41.4663H27.2317V42.383V43.2996L26.8106 43.3436C26.579 43.3676 20.6143 43.767 13.5557 44.2304C6.49717 44.6938 0.568521 45.0873 0.38106 45.1046L0.0401611 45.1359V43.87Z" fill="#555E74" stroke="#555E74" stroke-width="0.0802111"/>
<path d="M0.120361 47.1763V45.9079L3.95041 45.81C6.05694 45.7561 9.0258 45.6778 10.5478 45.6356C15.3804 45.5019 19.1523 45.4021 22.5795 45.3172C24.4103 45.272 26.206 45.2237 26.57 45.2099L27.2317 45.1846V46.0926C27.2317 46.8065 27.2084 47.0007 27.1222 47.0007C27.0616 47.0007 21.0251 47.3255 13.7069 47.7225C6.38871 48.1195 0.337907 48.4443 0.260692 48.4444C0.132951 48.4445 0.120361 48.3306 0.120361 47.176V47.1763Z" fill="#555E74" stroke="#555E74" stroke-width="0.0802111"/>
<path d="M0.120361 50.69V49.4066L1.38369 49.4058C2.07851 49.4058 4.36153 49.3705 6.45701 49.3276C8.55256 49.285 13.4254 49.1959 17.2855 49.1299C21.1457 49.064 24.9627 48.9904 25.7678 48.9666L27.2317 48.9233V49.8395V50.7556L26.57 50.8035C26.0128 50.8442 0.516643 51.9765 0.220614 51.974C0.14459 51.9732 0.120361 51.6626 0.120361 50.6898V50.69Z" fill="#555E74" stroke="#555E74" stroke-width="0.0802111"/>
<path d="M0.200562 54.2329V52.9627L5.07339 52.9094C7.7534 52.8801 13.8354 52.8321 18.589 52.8028L27.2317 52.7495V53.6761V54.6026L25.9683 54.6545C25.2736 54.6831 22.3228 54.7778 19.4111 54.8648C13.2083 55.0502 8.12745 55.2188 3.76993 55.3841C2.04942 55.4493 0.542452 55.5028 0.421102 55.5028H0.200562V54.2329Z" fill="#555E74" stroke="#555E74" stroke-width="0.0802111"/>
<path d="M0.280762 57.6281V56.3848H13.7562H27.2317V57.2603V58.1357L26.6502 58.1803C26.3303 58.2049 24.1375 58.264 21.7774 58.3122C19.4171 58.3601 13.9127 58.5059 9.54514 58.6356C5.17763 58.7653 1.30644 58.8715 0.942454 58.8715H0.280762V57.6281Z" fill="#555E74" stroke="#555E74" stroke-width="0.0802111"/>
<path d="M0.200562 61.1216V59.835H0.701896C0.977613 59.835 3.83809 59.8889 7.05858 59.9546C19.7811 60.2141 25.152 60.3156 26.1689 60.3158H27.2317V61.2258V62.1357L23.6823 62.1883C21.7302 62.2169 16.0543 62.2592 11.0691 62.2821C6.08403 62.3047 1.59923 62.3426 1.10289 62.3659L0.200562 62.4078V61.1216Z" fill="#555E74" stroke="#555E74" stroke-width="0.0802111"/>
<path d="M0.120361 64.6066V63.3633L0.50133 63.3646C0.710884 63.3646 6.49509 63.5089 13.3552 63.685C20.2152 63.8611 26.1438 64.0053 26.5299 64.0055L27.2317 64.0068V64.9292V65.8516H13.676H0.120361V64.6066Z" fill="#555E74" stroke="#555E74" stroke-width="0.0802111"/>
<path d="M59.272 27.0678C60.5678 26.4066 62.4109 24.9907 64.3698 23.1516L65.6131 21.9844L65.6397 22.3604L65.6663 22.7364L64.2325 24.1401C63.4439 24.9122 62.3084 25.9679 61.7091 26.4863L60.6195 27.4288H59.5922H58.5648L59.272 27.0678Z" fill="#555E74" stroke="#555E74" stroke-width="0.0802111"/>
<path d="M50.5117 27.1834C52.7109 26.5182 55.06 25.3376 57.1252 23.8598C59.5032 22.158 61.798 20.148 63.8103 18.004C64.39 17.3864 65.0056 16.7372 65.1783 16.5614L65.4923 16.2417V16.6633V17.0848L64.2729 18.4267C62.7097 20.147 61.3407 21.5163 60.2786 22.4218C58.2548 24.1472 55.9187 25.8254 54.1023 26.8585L53.0997 27.4287L51.4153 27.4221L49.7308 27.4154L50.5117 27.1792V27.1834Z" fill="#555E74" stroke="#555E74" stroke-width="0.0802111"/>
<path d="M132.347 33.5906C126.243 32.2431 117.686 30.3366 116.91 30.1514C111.765 28.9233 109.606 27.6488 107.202 24.4215C106.325 23.2442 102.076 17.1483 96.2239 8.67009L93.3239 4.469L93.3333 3.37616C93.3387 2.77505 93.3656 1.80682 93.3935 1.22442L93.4442 0.165527L99.3597 9.64657C102.613 14.8612 105.844 20.0388 106.539 21.1525C108.171 23.7691 108.569 24.3089 109.686 25.4255C111.399 27.1387 113.37 28.265 116.431 29.2797C118.027 29.8085 119.161 30.0861 123.965 31.1239C129.19 32.2526 132.944 33.0936 132.998 33.1471C133.02 33.1698 133.028 33.3109 133.014 33.4604L132.988 33.7322L132.347 33.5906Z" fill="#555E74" stroke="#555E74" stroke-width="0.0802111"/>
<path d="M127.253 35.1344C116.213 32.905 114.377 32.4394 111.857 31.2306C109.581 30.1385 108.259 29.0137 106.413 26.5988C105.801 25.7979 102.605 21.6124 99.3108 17.2976L93.3209 9.45253L93.3424 7.49385L93.3638 5.53516L94.8837 7.75899C105.618 23.4648 107.357 25.9519 108.599 27.3702C110.803 29.8892 114.107 31.6468 118.979 32.8921C120.006 33.1546 129.521 35.0914 132.166 35.5764L132.948 35.7199V35.9859C132.948 36.1474 132.909 36.2503 132.848 36.2479C132.793 36.2479 130.275 35.7446 127.253 35.1344Z" fill="#555E74" stroke="#555E74" stroke-width="0.0802111"/>
<path d="M131.103 38.5728C130.243 38.4038 127.861 37.9554 125.809 37.5764C119.505 36.4115 118.274 36.1751 116.986 35.8816C112.015 34.7485 109.313 33.3583 107.063 30.776C105.683 29.1924 104.374 27.6534 98.8726 21.148L93.3239 14.586V12.7298C93.3239 11.7089 93.3544 10.9079 93.3916 10.9498C93.4288 10.9917 96.5202 15.0687 100.261 20.0097C104.003 24.9507 107.228 29.1918 107.43 29.4345C110.119 32.6717 113.458 34.5165 118.884 35.7633C120.092 36.0408 127.377 37.4247 130.542 37.978C131.711 38.1823 132.749 38.3657 132.848 38.3854C132.987 38.4127 133.028 38.4764 133.028 38.6603C133.028 38.9605 133.091 38.9632 131.103 38.5728Z" fill="#555E74" stroke="#555E74" stroke-width="0.0802111"/>
<path d="M132.587 41.7044C132.411 41.6691 128.747 41.0045 124.446 40.2281C120.145 39.4518 116.12 38.6936 115.502 38.5432C112.508 37.8139 110.338 36.7581 108.272 35.0243C107.261 34.1757 103.609 30.3993 95.2656 21.5735L93.4078 19.6083L93.4091 17.8838L93.4104 16.1592L93.7485 16.5581C93.9345 16.7775 95.2941 18.3837 96.7699 20.1275C107.059 32.2847 108.811 34.2317 110.653 35.5537C112.677 37.0067 115.301 37.9304 120.152 38.8974C123.87 39.6388 132.597 41.2251 132.957 41.2251C133.078 41.2251 133.109 41.2837 133.109 41.5059C133.109 41.8075 133.106 41.8088 132.588 41.7044H132.587Z" fill="#555E74" stroke="#555E74" stroke-width="0.0802111"/>
<path d="M126.612 43.4701C117.178 41.9106 115.799 41.6613 113.978 41.1865C111.464 40.531 109.919 39.8537 108.259 38.6797C107.432 38.0944 105.544 36.351 95.9106 27.2779L93.4041 24.917L93.4061 23.2652L93.4081 21.6133L94.1495 22.3753C95.0093 23.2592 104.805 33.573 106.402 35.2767C108.888 37.9277 110.922 39.2119 114.465 40.3681C117.137 41.2399 119.772 41.7657 129.84 43.4358L133.109 43.978V44.2458C133.109 44.4503 133.075 44.5117 132.968 44.5057C132.891 44.4991 130.031 44.0354 126.612 43.4701Z" fill="#555E74" stroke="#555E74" stroke-width="0.0802111"/>
<path d="M124.245 45.7989C119.613 45.06 115.426 44.3762 114.941 44.2794C112.112 43.7145 109.913 42.8893 108.21 41.7528C107.853 41.5148 106.911 40.7859 106.117 40.133C105.323 39.4801 102.562 37.2141 99.9812 35.0974C97.4004 32.9807 94.8473 30.8859 94.3076 30.442L93.3263 29.6351L93.334 28.9133C93.3381 28.5162 93.3647 27.8487 93.3928 27.4299L93.444 26.6685L95.2892 28.3924C99.4459 32.2762 105.198 37.5759 107.04 39.2192C109.971 41.8345 112.309 42.9017 117.307 43.9071C120.081 44.4651 126.944 45.6451 131.264 46.3067L132.988 46.5709L133.013 46.8661C133.035 47.1304 133.018 47.1603 132.853 47.1518C132.751 47.1452 128.877 46.5378 124.245 45.7989Z" fill="#555E74" stroke="#555E74" stroke-width="0.0802111"/>
<path d="M128.697 52.4083C118.877 51.3018 117.157 51.0791 115.033 50.6377C111.798 49.9659 109.562 49.1218 106.519 47.4236C102.985 45.4522 93.7711 40.0678 93.5462 39.8429C93.4228 39.7195 93.4041 39.5423 93.4041 38.4976C93.4041 37.8358 93.4198 37.2944 93.4389 37.2944C93.4581 37.2944 95.2366 38.4612 97.3911 39.8874C104.041 44.2888 106.348 45.7699 108.189 46.8177C111.911 48.9359 114.739 49.7998 120.454 50.5647C122.369 50.821 131.466 51.9862 132.427 52.0983C133.087 52.1753 133.109 52.1895 133.109 52.5399C133.109 52.8526 133.106 52.8553 132.808 52.8465C132.642 52.8398 130.792 52.6444 128.697 52.4083Z" fill="#555E74" stroke="#555E74" stroke-width="0.0802111"/>
<path d="M127.97 49.445C125.386 49.08 122.119 48.6326 120.71 48.451C115.591 47.7909 114.257 47.5609 112.552 47.044C109.519 46.1247 108.488 45.4849 96.8732 37.3178L93.4041 34.8784V33.4699C93.4041 32.3549 93.4249 32.0776 93.5043 32.1395C93.5594 32.1821 95.6079 33.8041 98.0563 35.7431C107.751 43.4206 107.996 43.6105 108.966 44.1938C110.303 44.997 112.458 45.8623 114.555 46.4378C116.98 47.1036 118.991 47.4437 128.777 48.8434C130.961 49.1557 132.829 49.429 132.928 49.4505C133.078 49.4832 133.109 49.5431 133.109 49.8092C133.109 50.1064 133.093 50.1278 132.888 50.1186C132.767 50.112 130.553 49.8101 127.97 49.445Z" fill="#555E74" stroke="#555E74" stroke-width="0.0802111"/>
<path d="M130.823 55.2142C128.737 54.9831 124.356 54.5406 120.957 54.2178C115.738 53.722 114.058 53.4927 112.208 53.0235C109.836 52.4217 108.142 51.7034 98.8584 47.3616C96.7188 46.361 94.6162 45.3778 94.1861 45.1768L93.4041 44.8113V43.6598C93.4041 43.0265 93.4232 42.5083 93.4465 42.5083C93.4699 42.5083 94.4715 43.045 95.6724 43.7011C103.141 47.7813 107.366 49.9898 109.166 50.7537C111.451 51.724 113.886 52.4157 116.705 52.8958C118.356 53.1769 119.902 53.3641 128.176 54.285L132.988 54.8207L133.013 55.1215C133.043 55.4851 133.205 55.4782 130.823 55.2142Z" fill="#555E74" stroke="#555E74" stroke-width="0.0802111"/>
<path d="M131.264 58.1015C130.58 58.041 128.306 57.8458 126.21 57.6678C116.903 56.8773 114.493 56.625 112.334 56.2151C111.265 56.0122 109.591 55.594 108.404 55.2334C107.695 55.0181 94.874 50.6695 93.5845 50.2069L93.3239 50.1135L93.3344 49.4996C93.3404 49.1621 93.3672 48.6272 93.3945 48.3111L93.4442 47.7363L97.2542 49.3396C107.651 53.7144 109.012 54.2397 111.732 54.9284C114.788 55.702 117.198 56.027 129.372 57.307C131.265 57.5061 132.862 57.669 132.921 57.669C132.99 57.669 133.028 57.769 133.028 57.9498C133.028 58.2803 133.157 58.2693 131.264 58.1015Z" fill="#555E74" stroke="#555E74" stroke-width="0.0802111"/>
<path d="M128.135 60.6324C125.775 60.465 122.743 60.251 121.398 60.1566C113.69 59.616 109.996 59.1905 106.759 58.4701C105.502 58.1904 99.224 56.712 96.9333 56.1564C96.0289 55.937 94.8858 55.6617 94.3929 55.5445L93.4969 55.3313L93.4446 54.7553C93.4159 54.4385 93.404 53.9415 93.4183 53.6509L93.4442 53.1226L97.0136 54.1942C101.815 55.6358 106.446 56.9608 108.203 57.3961C111.351 58.176 115.067 58.829 118.63 59.2286C119.643 59.3422 132.569 60.3956 132.95 60.3956C133.078 60.3956 133.109 60.4502 133.109 60.6763C133.109 61.02 133.673 61.025 128.135 60.6324Z" fill="#555E74" stroke="#555E74" stroke-width="0.0802111"/>
<path d="M126.331 63.2784C118.149 62.8332 107.723 62.162 105.809 61.9573C103.536 61.7142 97.3023 60.9889 94.9294 60.6914L93.5271 60.5156L93.4702 60.1947C93.4389 60.0182 93.4112 59.5581 93.4087 59.172C93.4047 58.5873 93.425 58.4702 93.5293 58.4702C93.5982 58.4702 96.7656 58.9924 100.568 59.6308C110.013 61.2165 111.866 61.4762 117.147 61.9551C119.062 62.1288 125.291 62.542 131.143 62.8836C133.162 63.0014 133.109 62.9894 133.109 63.3266V63.6037L132.527 63.5937C132.207 63.5871 129.419 63.4464 126.331 63.2784Z" fill="#555E74" stroke="#555E74" stroke-width="0.0802111"/>
<path d="M93.4042 64.8874V63.8447L93.9055 63.846C94.1812 63.846 95.8145 63.8993 97.5351 63.9637C99.2556 64.0283 102.486 64.1364 104.714 64.2042C110.822 64.3898 130.356 65.1333 132.287 65.2536L133.109 65.3048V65.618V65.9311H113.256H93.4042V64.8874Z" fill="#555E74" stroke="#555E74" stroke-width="0.0802111"/>
</g>
</svg>
