<svg width="40" height="40" viewBox="0 0 40 40" fill="none" xmlns="http://www.w3.org/2000/svg">
<g opacity="0.75">
<path d="M19.5327 30.1641C13.9257 30.1641 9.25373 25.5726 9.25373 19.84C9.25373 14.1358 13.9257 9.45956 19.5327 9.45956C25.2238 9.45956 29.8678 14.1358 29.8678 19.84C29.8678 25.5726 25.2238 30.1641 19.5327 30.1641ZM35.546 19.819L35.4662 18.2126C36.7028 17.6793 37.9214 17.0473 39.1218 16.3179C39.0233 15.5613 38.7804 14.8315 38.6035 14.0905C37.1901 13.8969 35.7594 13.8332 34.3963 13.8715C34.2151 13.368 33.9499 12.8999 33.7282 12.4109C33.4881 11.9327 33.1863 11.4889 32.9167 11.0252C33.7799 9.9631 34.5508 8.84164 35.2778 7.63006C34.8441 7.00489 34.291 6.47893 33.7925 5.9077C32.4549 6.39965 31.159 7.01358 29.9702 7.68508C29.5741 7.32598 29.1263 7.03023 28.7052 6.70082C28.2685 6.39566 27.8013 6.1354 27.3492 5.85268C27.6227 4.51186 27.7927 3.15438 27.8782 1.74189C27.2029 1.39113 26.4687 1.18191 25.7629 0.907516C24.8041 1.9696 23.9391 3.12219 23.1966 4.27296C22.6827 4.13432 22.1465 4.09339 21.6243 3.99999C21.0964 3.91529 20.5616 3.92941 20.0308 3.88995C19.6535 2.54225 19.1773 1.29377 18.6048 0C17.8494 0.0155971 17.0997 0.134287 16.3515 0.254474C15.9867 1.61593 15.752 3.0512 15.6284 4.43148C15.1062 4.54443 14.6081 4.73557 14.1082 4.92344C13.6001 5.08743 13.1271 5.33647 12.647 5.56814C11.6936 4.56144 10.6772 3.64527 9.58076 2.79133C8.92095 3.16852 8.30353 3.60689 7.7066 4.0764C8.0171 5.45667 8.46777 6.82536 8.99822 8.10935C8.59104 8.45723 8.23598 8.85722 7.88092 9.25759C7.50608 9.64057 7.20417 10.0833 6.88253 10.5119C5.57439 10.0634 4.25765 9.72855 2.89021 9.48094C2.47764 10.1217 2.13623 10.8015 1.81925 11.4958C2.72597 12.5734 3.76204 13.5801 4.82042 14.4667C4.61845 14.9644 4.4905 15.4864 4.36149 16.0065C4.20839 16.5213 4.13976 17.056 4.06105 17.5863C2.7008 17.8053 1.3585 18.1249 0.0489197 18.5478C-0.00176305 19.3072 -0.0240154 20.0663 0.0363878 20.8258C1.35747 21.3532 2.68396 21.7633 4.06109 22.0518C4.1398 22.5818 4.20843 23.115 4.36153 23.6312C4.49054 24.1514 4.61849 24.6734 4.82046 25.1711C3.74807 25.987 2.6588 26.9203 1.7068 27.9031C2.03815 28.5887 2.34002 29.2917 2.75403 29.9306C4.18041 29.7709 5.5295 29.5204 6.88257 29.1262C7.20421 29.553 7.50608 29.9987 7.88092 30.3802C8.23598 30.7806 8.59108 31.1806 8.99826 31.5284C8.42289 32.7545 7.89206 34.0852 7.49747 35.4014C8.1041 35.8582 8.69636 36.3335 9.35619 36.7096C10.5439 35.9064 11.6292 35.0495 12.647 34.0682C13.1271 34.3013 13.6001 34.5489 14.1082 34.7143C14.6081 34.9025 15.1063 35.0933 15.6284 35.2077C15.6863 36.5598 15.8308 37.9907 16.0931 39.341C16.8414 39.447 17.5871 39.611 18.3421 39.6226C19.0203 38.3357 19.5831 37.094 20.0309 35.7478C20.5617 35.7084 21.0964 35.7224 21.6243 35.6377C22.1465 35.5429 22.6827 35.5034 23.1966 35.3634C23.8733 36.5398 24.6467 37.6924 25.5143 38.8121C26.2276 38.5605 26.9489 38.3172 27.6411 38.0092C27.6511 36.554 27.5598 35.1556 27.3493 33.7869C27.8014 33.5024 28.2685 33.241 28.7052 32.9355C29.1264 32.6075 29.5742 32.3118 29.9702 31.9541C31.1112 32.6767 32.3285 33.3344 33.6118 33.9198C34.1254 33.3641 34.6533 32.8138 35.1194 32.2173C34.4567 30.9217 33.7379 29.7311 32.9168 28.6115C33.1863 28.1489 33.4882 27.7036 33.7283 27.2258C33.95 26.7378 34.2152 26.2698 34.3963 25.7648C35.7411 25.8723 37.1226 25.885 38.5292 25.8003C38.7301 25.0665 38.9364 24.3284 39.0808 23.5816C37.8974 22.7472 36.6917 22.0276 35.4662 21.4266L35.546 19.819Z" fill="#555E74"/>
<path d="M23.4843 22.3516C22.0932 22.3516 20.9615 21.2131 20.9615 19.8104C20.9615 18.4062 22.0932 17.271 23.4843 17.271C24.8769 17.271 26.0043 18.4062 26.0043 19.8104C26.0043 21.2131 24.8769 22.3516 23.4843 22.3516ZM15.6398 22.3516C14.2472 22.3516 13.1169 21.2131 13.1169 19.8104C13.1169 18.4062 14.2472 17.271 15.6398 17.271C17.0295 17.271 18.1623 18.4062 18.1623 19.8104C18.1623 21.2131 17.0295 22.3516 15.6398 22.3516Z" fill="#555E74"/>
</g>
</svg>
