<svg width="40" height="40" viewBox="0 0 40 40" fill="none" xmlns="http://www.w3.org/2000/svg">
<path d="M13.9079 24.5898C14.3082 24.5898 14.6523 24.7338 14.9398 25.0211C15.2271 25.3084 15.3709 25.6468 15.3711 26.0367C15.3711 26.4371 15.2273 26.7811 14.9398 27.0686C14.6523 27.3458 14.3083 27.4853 13.9079 27.4853C13.5077 27.4851 13.1633 27.3457 12.876 27.0686C12.5992 26.7813 12.4609 26.4368 12.4609 26.0367C12.4611 25.647 12.5992 25.3083 12.876 25.0211C13.1633 24.7337 13.5077 24.5899 13.9079 24.5898Z" fill="#3E5DE7"/>
<path d="M26.0758 24.5898C26.4763 24.5898 26.8159 24.7336 27.0931 25.0211C27.3802 25.3083 27.5242 25.647 27.5244 26.0367C27.5244 26.4368 27.3802 26.7812 27.0931 27.0686C26.8159 27.3458 26.4763 27.4853 26.0758 27.4853C25.6857 27.4852 25.3477 27.3458 25.0602 27.0686C24.7727 26.7811 24.6289 26.4371 24.6289 26.0367C24.6291 25.6468 24.7729 25.3084 25.0602 25.0211C25.3476 24.7338 25.6859 24.5898 26.0758 24.5898Z" fill="#3E5DE7"/>
<path d="M13.8167 13.0696C14.0117 13.0389 14.2165 13.0952 14.432 13.2389L21.5169 18.1054C21.6915 18.2081 21.8665 18.3267 22.041 18.4602C22.2154 18.5936 22.3491 18.7064 22.4414 18.7987C22.9649 19.3224 23.2259 19.9289 23.2259 20.6168C23.2257 21.3044 22.9649 21.9053 22.4414 22.4185C21.9178 22.9421 21.3113 23.203 20.6234 23.203C19.9459 23.2029 19.3451 22.942 18.8216 22.4185C18.7293 22.3262 18.6164 22.1925 18.4831 22.0181C18.3599 21.8333 18.2412 21.6583 18.1283 21.4941L13.2764 14.3945C13.1223 14.1891 13.0556 13.9873 13.0762 13.7922C13.107 13.5977 13.1845 13.4339 13.3073 13.3007C13.4613 13.1672 13.6319 13.0901 13.8167 13.0696Z" fill="#3E5DE7"/>
<path d="M11.3525 18.553C11.7629 18.5531 12.1074 18.6954 12.3844 18.9827C12.6719 19.2702 12.8157 19.6098 12.8158 19.9999C12.8158 20.3901 12.6719 20.7297 12.3844 21.0172C12.1074 21.3045 11.7629 21.4483 11.3525 21.4485C10.9625 21.4485 10.6227 21.3045 10.3353 21.0172C10.0478 20.7297 9.90397 20.3901 9.90397 19.9999C9.90398 19.6098 10.0478 19.2702 10.3353 18.9827C10.6227 18.6954 10.9625 18.553 11.3525 18.553Z" fill="#3E5DE7"/>
<path d="M28.6328 18.553C29.0226 18.553 29.3611 18.6957 29.6484 18.9827C29.9359 19.2702 30.0797 19.6098 30.0798 19.9999C30.0798 20.3901 29.9359 20.7297 29.6484 21.0172C29.3611 21.3041 29.0226 21.4485 28.6328 21.4485C28.2326 21.4485 27.8883 21.3044 27.6009 21.0172C27.3237 20.7297 27.1842 20.3901 27.1842 19.9999C27.1843 19.6098 27.3237 19.2702 27.6009 18.9827C27.8883 18.6955 28.2326 18.553 28.6328 18.553Z" fill="#3E5DE7"/>
<path d="M26.0758 12.5146C26.4763 12.5146 26.8159 12.6584 27.0931 12.9459C27.3804 13.2231 27.5244 13.5628 27.5244 13.9631C27.5242 14.3528 27.3802 14.6915 27.0931 14.9788C26.8159 15.2663 26.4763 15.4101 26.0758 15.4101C25.6859 15.41 25.3476 15.266 25.0602 14.9788C24.7729 14.6914 24.6291 14.353 24.6289 13.9631C24.6289 13.5627 24.7727 13.2231 25.0602 12.9459C25.3476 12.6587 25.6859 12.5146 26.0758 12.5146Z" fill="#3E5DE7"/>
<path d="M19.9772 9.8811C20.3775 9.88118 20.7217 10.025 21.0091 10.3124C21.2963 10.5997 21.4403 10.9383 21.4404 11.328C21.4404 11.7283 21.2963 12.0725 21.0091 12.3599C20.7217 12.6371 20.3775 12.7765 19.9772 12.7766C19.587 12.7766 19.2475 12.6372 18.96 12.3599C18.6728 12.0726 18.5286 11.7282 18.5286 11.328C18.5288 10.9383 18.6728 10.5997 18.96 10.3124C19.2475 10.0249 19.587 9.8811 19.9772 9.8811Z" fill="#3E5DE7"/>
<path fill-rule="evenodd" clip-rule="evenodd" d="M19.9919 4.09009C22.1892 4.09009 24.2485 4.50075 26.1686 5.32218C28.0989 6.14361 29.7936 7.2838 31.2516 8.74178C32.7092 10.1995 33.8483 11.8934 34.6696 13.8232C35.5013 15.7432 35.918 17.8026 35.918 19.9999C35.918 22.1972 35.5013 24.261 34.6696 26.1913C33.8482 28.1113 32.7095 29.7957 31.2516 31.2434C29.7936 32.7014 28.099 33.8416 26.1686 34.663C24.2485 35.4947 22.1892 35.9097 19.9919 35.9097C17.795 35.9097 15.7365 35.4945 13.8167 34.663C11.8966 33.8416 10.2064 32.7014 8.74837 31.2434C7.29045 29.7957 6.14578 28.1113 5.31413 26.1913C4.49276 24.261 4.08203 22.1972 4.08203 19.9999C4.08204 17.8026 4.4927 15.7432 5.31413 13.8232C6.1457 11.8933 7.29073 10.1996 8.74837 8.74178C10.2064 7.28374 11.8966 6.14361 13.8167 5.32218C15.7366 4.50093 17.7949 4.09014 19.9919 4.09009ZM19.9919 7.23136C18.2362 7.23142 16.5829 7.56498 15.0326 8.23234C13.4924 8.88948 12.1373 9.80434 10.9668 10.9749C9.79636 12.1351 8.87701 13.4903 8.20964 15.0406C7.55253 16.5807 7.22494 18.2339 7.22493 19.9999C7.22493 21.7659 7.55255 23.4191 8.20964 24.9592C8.877 26.4993 9.79637 27.8545 10.9668 29.025C12.1373 30.1955 13.4924 31.1104 15.0326 31.7675C16.5829 32.4349 18.2362 32.7684 19.9919 32.7685C21.7577 32.7685 23.4112 32.4347 24.9512 31.7675C26.4914 31.1104 27.848 30.1955 29.0186 29.025C30.199 27.8546 31.1171 26.4991 31.7741 24.9592C32.4312 23.419 32.7604 21.766 32.7604 19.9999C32.7604 18.2339 32.4312 16.5808 31.7741 15.0406C31.1171 13.4905 30.199 12.135 29.0186 10.9749C27.848 9.80432 26.4914 8.88948 24.9512 8.23234C23.4112 7.56512 21.7577 7.23136 19.9919 7.23136Z" fill="#3E5DE7"/>
</svg>
