<svg width="40" height="40" viewBox="0 0 40 40" fill="none" xmlns="http://www.w3.org/2000/svg">
<path opacity="0.75" d="M38.8754 18.0465L21.5757 0.748029C21.3389 0.510897 21.0576 0.322773 20.748 0.19442C20.4385 0.0660661 20.1066 0 19.7715 0C19.4364 0 19.1045 0.0660661 18.795 0.19442C18.4854 0.322773 18.2042 0.510897 17.9674 0.748029L14.3746 4.3408L18.9307 8.89687C19.4663 8.71496 20.0422 8.68656 20.5931 8.81488C21.1441 8.94321 21.6481 9.22314 22.0483 9.62301C22.4505 10.0259 22.7315 10.5336 22.859 11.0885C22.9866 11.6433 22.9556 12.2228 22.7697 12.7609L27.1606 17.1522C27.6986 16.9653 28.2783 16.9337 28.8334 17.0612C29.3885 17.1888 29.8964 17.4702 30.2989 17.8732C30.5808 18.1551 30.8045 18.4898 30.9571 18.8581C31.1096 19.2264 31.1882 19.6212 31.1882 20.0199C31.1882 20.4186 31.1096 20.8134 30.9571 21.1817C30.8045 21.5501 30.5808 21.8848 30.2989 22.1667C29.7292 22.7361 28.9567 23.0559 28.1513 23.0559C27.3458 23.0559 26.5733 22.7361 26.0037 22.1667C25.5796 21.7429 25.2906 21.203 25.173 20.6152C25.0555 20.0274 25.1146 19.4179 25.3431 18.8637L21.2467 14.7685V25.5473C21.679 25.7609 22.0543 26.0744 22.3414 26.4619C22.6284 26.8494 22.8191 27.2997 22.8975 27.7755C22.9759 28.2513 22.9398 28.739 22.7922 29.1981C22.6446 29.6572 22.3897 30.0745 22.0487 30.4155C21.7668 30.6975 21.4321 30.9211 21.0638 31.0737C20.6954 31.2263 20.3006 31.3049 19.902 31.3049C19.5033 31.3049 19.1085 31.2263 18.7401 31.0737C18.3718 30.9211 18.0371 30.6975 17.7552 30.4155C17.4732 30.1336 17.2495 29.7989 17.0969 29.4305C16.9442 29.0622 16.8657 28.6673 16.8657 28.2686C16.8657 27.8698 16.9442 27.475 17.0969 27.1066C17.2495 26.7382 17.4732 26.4035 17.7552 26.1216C18.0396 25.8366 18.3779 25.611 18.7504 25.458V14.5801C18.3779 14.428 18.0395 14.203 17.7552 13.9182C17.3294 13.4919 17.04 12.9486 16.9236 12.3575C16.8072 11.7663 16.8691 11.1539 17.1015 10.598L12.6093 6.1057L0.747782 17.9655C0.510712 18.2024 0.322653 18.4838 0.194346 18.7935C0.0660395 19.1031 0 19.4351 0 19.7703C0 20.1055 0.0660395 20.4374 0.194346 20.747C0.322653 21.0567 0.510712 21.3381 0.747782 21.575L18.048 38.8757C18.5267 39.3539 19.1756 39.6225 19.8521 39.6225C20.5287 39.6225 21.1776 39.3539 21.6563 38.8757L38.8754 21.6561C39.3535 21.1771 39.622 20.528 39.622 19.8513C39.622 19.1746 39.3535 18.5255 38.8754 18.0465Z" fill="#555E74"/>
</svg>
