<svg width="80" height="80" viewBox="0 0 80 80" fill="none" xmlns="http://www.w3.org/2000/svg">
<g filter="url(#filter0_d_1782_6706)">
<mask id="path-1-outside-1_1782_6706" maskUnits="userSpaceOnUse" x="4.92126" y="4.9375" width="70" height="70" fill="black">
<rect fill="white" x="4.92126" y="4.9375" width="70" height="70"/>
<path fill-rule="evenodd" clip-rule="evenodd" d="M39.9838 5.9375C44.6882 5.9375 49.0956 6.81882 53.2064 8.57747C57.3389 10.336 60.9672 12.7739 64.0886 15.8952C67.2101 19.0167 69.6509 22.6446 71.4095 26.7773C73.1901 30.8879 74.0787 35.2959 74.0788 40C74.0788 44.7038 73.1897 49.1228 71.4095 53.2552C69.6509 57.366 67.2101 60.9727 64.0886 64.0723C60.967 67.1939 57.3393 69.6346 53.2064 71.3932C49.0957 73.1738 44.688 74.0625 39.9838 74.0625C35.2795 74.0625 30.8719 73.1738 26.7611 71.3932C22.6502 69.6346 19.0331 67.1939 15.9115 64.0723C12.7901 60.9727 10.3385 57.3659 8.55798 53.2552C6.79979 49.1228 5.92126 44.7038 5.92126 40C5.92137 35.2959 6.79944 30.8879 8.55798 26.7773C10.3386 22.6446 12.7899 19.0167 15.9115 15.8952C19.033 12.7738 22.6505 10.3361 26.7611 8.57747C30.8719 6.81883 35.2794 5.93751 39.9838 5.9375ZM26.5756 14.5443C24.0183 15.9037 21.7051 17.6057 19.6387 19.6549C17.0008 22.2929 14.9324 25.3483 13.4375 28.8216C11.9648 32.2947 11.2306 36.0214 11.2305 40C11.2305 43.9784 11.9651 47.7054 13.4375 51.1784C14.9323 54.6515 17.001 57.7072 19.6387 60.3451C22.2987 62.9611 25.3646 65.0188 28.8379 66.5137C32.3112 68.0305 36.0268 68.7891 39.9838 68.7891C43.9625 68.7891 47.6889 68.0304 51.1622 66.5137C54.6355 65.0188 57.6908 62.9611 60.3288 60.3451C62.9666 57.7072 65.0352 54.6516 66.53 51.1784C67.289 49.4146 67.8492 47.5843 68.2227 45.6901C67.4385 45.1094 66.7715 44.3914 66.2305 43.5286C65.4174 42.2319 64.7812 40.8898 64.3197 39.5052C63.8582 38.0986 63.4612 36.9111 63.1316 35.944C62.802 34.9557 62.4397 34.4599 62.0443 34.4596C61.8025 34.4596 61.6057 34.5719 61.4519 34.7917C61.32 34.9895 61.1411 35.1968 60.9213 35.4167C60.7235 35.6142 60.4172 35.7128 60 35.7129C59.4946 35.7129 58.9112 35.4842 58.252 35.0228C57.6145 34.5392 56.9543 33.9879 56.2728 33.3724C55.6139 32.7355 54.9877 32.1866 54.3946 31.7253C53.823 31.2416 53.349 30.9993 52.9753 30.9993C52.58 30.9995 52.2175 31.1966 51.8881 31.5918C51.5586 31.9872 51.3935 32.427 51.3933 32.9102C51.3933 33.3278 51.7339 33.7913 52.4154 34.2969C53.0967 34.7803 53.8769 35.3076 54.7559 35.8789C55.6348 36.4502 56.4152 37.0549 57.0964 37.6921C57.7779 38.3296 58.1185 38.9897 58.1185 39.6712C58.1185 40.6165 57.834 41.519 57.2624 42.3763C56.6912 43.2111 56.1075 43.9568 55.5144 44.6159C54.9428 45.2754 54.6582 45.7949 54.6582 46.1686C54.6583 46.9818 54.7112 48.0153 54.821 49.2676C54.9527 50.5204 54.6015 51.8274 53.7663 53.1901C53.4366 53.7397 52.8886 54.6421 52.1192 55.8952C51.35 57.1259 50.4047 58.4226 49.2839 59.7852C48.1847 61.1481 46.9416 62.314 45.5567 63.2812C44.1937 64.2485 42.7644 64.7331 41.2696 64.7331C39.5332 64.733 38.2158 64.28 37.3145 63.3789C36.4133 62.4777 35.7847 61.3359 35.433 59.9512C35.1033 58.5664 34.9171 57.1262 34.8731 55.6315C34.8511 54.115 34.8405 52.7518 34.8405 51.543C34.8405 50.0041 34.2999 48.7399 33.2227 47.7506C32.1456 46.7396 30.7722 46.2337 29.1016 46.2337C26.3323 46.2336 24.1787 45.4853 22.64 43.9909C21.1012 42.474 20.3321 40.3634 20.3321 37.6595C20.3321 35.5933 20.9363 33.7035 22.1452 31.9889C23.3763 30.2742 25.0129 28.8978 27.0573 27.8646C29.1017 26.8095 31.3458 26.2826 33.7858 26.2826C34.8846 26.2827 35.9846 26.4266 37.0834 26.7122C38.1816 26.9978 39.1701 27.2722 40.0489 27.5358C40.9278 27.7995 41.599 27.9328 42.0606 27.9329C42.5003 27.9329 42.8409 27.7118 43.0827 27.2721C43.3243 26.8109 43.4471 26.2512 43.4473 25.5924C43.4473 25.1528 43.2262 24.6333 42.7865 24.0397C42.3689 23.4466 41.831 22.9402 41.1719 22.5228C40.5128 22.0834 39.8307 21.8655 39.1276 21.8652C38.9305 21.8652 38.7752 21.9188 38.6654 22.028C38.5557 22.1377 38.4783 22.3037 38.4343 22.5228C38.3903 23.0063 38.2251 23.4032 37.9395 23.7109C37.6757 23.9967 37.2895 24.1406 36.7839 24.1406C35.9711 24.1404 35.2783 23.9648 34.7071 23.6133C34.1357 23.2617 33.6191 22.9102 33.1576 22.5586C32.6963 22.1852 32.2354 21.9957 31.7741 21.9954C31.3125 21.9954 30.9052 22.206 30.5534 22.6237C30.224 23.019 29.8721 23.4908 29.4987 24.0397C29.147 24.5673 28.6942 25.0307 28.1446 25.4264C27.5953 25.8215 26.8598 26.0187 25.9375 26.0189C25.0362 26.0189 24.32 25.7766 23.7924 25.293C23.2876 24.8096 23.0341 24.162 23.0339 23.3496C23.0339 22.6687 23.2101 22.0744 23.5612 21.569C23.913 21.0414 24.3203 20.5008 24.7819 19.9512C25.2432 19.38 25.6511 18.722 26.0026 17.9753C26.3544 17.2278 26.53 16.2904 26.53 15.1693C26.5301 14.9594 26.5483 14.7515 26.5756 14.5443ZM49.4792 16.8197C48.1169 16.8198 47.0518 17.041 46.2826 17.4805C45.5353 17.9201 45.1595 18.5348 45.1595 19.3262C45.1597 19.875 45.3359 20.315 45.6869 20.6445C46.0606 20.9743 46.5135 21.1393 47.0411 21.1393C47.5902 21.1392 48.0298 21.0408 48.3594 20.8431C48.7109 20.6454 49.1612 20.547 49.7103 20.5469C50.0398 20.5469 50.3811 20.6668 50.7325 20.9082C51.0842 21.128 51.5582 21.237 52.1517 21.237C52.5471 21.2369 52.8776 21.0853 53.1413 20.778C53.405 20.4483 53.5351 20.0513 53.5352 19.5898C53.5352 18.8205 53.1415 18.1708 52.3503 17.6432C51.5809 17.0936 50.6223 16.8197 49.4792 16.8197Z"/>
</mask>
<path fill-rule="evenodd" clip-rule="evenodd" d="M39.9838 5.9375C44.6882 5.9375 49.0956 6.81882 53.2064 8.57747C57.3389 10.336 60.9672 12.7739 64.0886 15.8952C67.2101 19.0167 69.6509 22.6446 71.4095 26.7773C73.1901 30.8879 74.0787 35.2959 74.0788 40C74.0788 44.7038 73.1897 49.1228 71.4095 53.2552C69.6509 57.366 67.2101 60.9727 64.0886 64.0723C60.967 67.1939 57.3393 69.6346 53.2064 71.3932C49.0957 73.1738 44.688 74.0625 39.9838 74.0625C35.2795 74.0625 30.8719 73.1738 26.7611 71.3932C22.6502 69.6346 19.0331 67.1939 15.9115 64.0723C12.7901 60.9727 10.3385 57.3659 8.55798 53.2552C6.79979 49.1228 5.92126 44.7038 5.92126 40C5.92137 35.2959 6.79944 30.8879 8.55798 26.7773C10.3386 22.6446 12.7899 19.0167 15.9115 15.8952C19.033 12.7738 22.6505 10.3361 26.7611 8.57747C30.8719 6.81883 35.2794 5.93751 39.9838 5.9375ZM26.5756 14.5443C24.0183 15.9037 21.7051 17.6057 19.6387 19.6549C17.0008 22.2929 14.9324 25.3483 13.4375 28.8216C11.9648 32.2947 11.2306 36.0214 11.2305 40C11.2305 43.9784 11.9651 47.7054 13.4375 51.1784C14.9323 54.6515 17.001 57.7072 19.6387 60.3451C22.2987 62.9611 25.3646 65.0188 28.8379 66.5137C32.3112 68.0305 36.0268 68.7891 39.9838 68.7891C43.9625 68.7891 47.6889 68.0304 51.1622 66.5137C54.6355 65.0188 57.6908 62.9611 60.3288 60.3451C62.9666 57.7072 65.0352 54.6516 66.53 51.1784C67.289 49.4146 67.8492 47.5843 68.2227 45.6901C67.4385 45.1094 66.7715 44.3914 66.2305 43.5286C65.4174 42.2319 64.7812 40.8898 64.3197 39.5052C63.8582 38.0986 63.4612 36.9111 63.1316 35.944C62.802 34.9557 62.4397 34.4599 62.0443 34.4596C61.8025 34.4596 61.6057 34.5719 61.4519 34.7917C61.32 34.9895 61.1411 35.1968 60.9213 35.4167C60.7235 35.6142 60.4172 35.7128 60 35.7129C59.4946 35.7129 58.9112 35.4842 58.252 35.0228C57.6145 34.5392 56.9543 33.9879 56.2728 33.3724C55.6139 32.7355 54.9877 32.1866 54.3946 31.7253C53.823 31.2416 53.349 30.9993 52.9753 30.9993C52.58 30.9995 52.2175 31.1966 51.8881 31.5918C51.5586 31.9872 51.3935 32.427 51.3933 32.9102C51.3933 33.3278 51.7339 33.7913 52.4154 34.2969C53.0967 34.7803 53.8769 35.3076 54.7559 35.8789C55.6348 36.4502 56.4152 37.0549 57.0964 37.6921C57.7779 38.3296 58.1185 38.9897 58.1185 39.6712C58.1185 40.6165 57.834 41.519 57.2624 42.3763C56.6912 43.2111 56.1075 43.9568 55.5144 44.6159C54.9428 45.2754 54.6582 45.7949 54.6582 46.1686C54.6583 46.9818 54.7112 48.0153 54.821 49.2676C54.9527 50.5204 54.6015 51.8274 53.7663 53.1901C53.4366 53.7397 52.8886 54.6421 52.1192 55.8952C51.35 57.1259 50.4047 58.4226 49.2839 59.7852C48.1847 61.1481 46.9416 62.314 45.5567 63.2812C44.1937 64.2485 42.7644 64.7331 41.2696 64.7331C39.5332 64.733 38.2158 64.28 37.3145 63.3789C36.4133 62.4777 35.7847 61.3359 35.433 59.9512C35.1033 58.5664 34.9171 57.1262 34.8731 55.6315C34.8511 54.115 34.8405 52.7518 34.8405 51.543C34.8405 50.0041 34.2999 48.7399 33.2227 47.7506C32.1456 46.7396 30.7722 46.2337 29.1016 46.2337C26.3323 46.2336 24.1787 45.4853 22.64 43.9909C21.1012 42.474 20.3321 40.3634 20.3321 37.6595C20.3321 35.5933 20.9363 33.7035 22.1452 31.9889C23.3763 30.2742 25.0129 28.8978 27.0573 27.8646C29.1017 26.8095 31.3458 26.2826 33.7858 26.2826C34.8846 26.2827 35.9846 26.4266 37.0834 26.7122C38.1816 26.9978 39.1701 27.2722 40.0489 27.5358C40.9278 27.7995 41.599 27.9328 42.0606 27.9329C42.5003 27.9329 42.8409 27.7118 43.0827 27.2721C43.3243 26.8109 43.4471 26.2512 43.4473 25.5924C43.4473 25.1528 43.2262 24.6333 42.7865 24.0397C42.3689 23.4466 41.831 22.9402 41.1719 22.5228C40.5128 22.0834 39.8307 21.8655 39.1276 21.8652C38.9305 21.8652 38.7752 21.9188 38.6654 22.028C38.5557 22.1377 38.4783 22.3037 38.4343 22.5228C38.3903 23.0063 38.2251 23.4032 37.9395 23.7109C37.6757 23.9967 37.2895 24.1406 36.7839 24.1406C35.9711 24.1404 35.2783 23.9648 34.7071 23.6133C34.1357 23.2617 33.6191 22.9102 33.1576 22.5586C32.6963 22.1852 32.2354 21.9957 31.7741 21.9954C31.3125 21.9954 30.9052 22.206 30.5534 22.6237C30.224 23.019 29.8721 23.4908 29.4987 24.0397C29.147 24.5673 28.6942 25.0307 28.1446 25.4264C27.5953 25.8215 26.8598 26.0187 25.9375 26.0189C25.0362 26.0189 24.32 25.7766 23.7924 25.293C23.2876 24.8096 23.0341 24.162 23.0339 23.3496C23.0339 22.6687 23.2101 22.0744 23.5612 21.569C23.913 21.0414 24.3203 20.5008 24.7819 19.9512C25.2432 19.38 25.6511 18.722 26.0026 17.9753C26.3544 17.2278 26.53 16.2904 26.53 15.1693C26.5301 14.9594 26.5483 14.7515 26.5756 14.5443ZM49.4792 16.8197C48.1169 16.8198 47.0518 17.041 46.2826 17.4805C45.5353 17.9201 45.1595 18.5348 45.1595 19.3262C45.1597 19.875 45.3359 20.315 45.6869 20.6445C46.0606 20.9743 46.5135 21.1393 47.0411 21.1393C47.5902 21.1392 48.0298 21.0408 48.3594 20.8431C48.7109 20.6454 49.1612 20.547 49.7103 20.5469C50.0398 20.5469 50.3811 20.6668 50.7325 20.9082C51.0842 21.128 51.5582 21.237 52.1517 21.237C52.5471 21.2369 52.8776 21.0853 53.1413 20.778C53.405 20.4483 53.5351 20.0513 53.5352 19.5898C53.5352 18.8205 53.1415 18.1708 52.3503 17.6432C51.5809 17.0936 50.6223 16.8197 49.4792 16.8197Z" fill="#304DDF"/>
<path fill-rule="evenodd" clip-rule="evenodd" d="M39.9838 5.9375C44.6882 5.9375 49.0956 6.81882 53.2064 8.57747C57.3389 10.336 60.9672 12.7739 64.0886 15.8952C67.2101 19.0167 69.6509 22.6446 71.4095 26.7773C73.1901 30.8879 74.0787 35.2959 74.0788 40C74.0788 44.7038 73.1897 49.1228 71.4095 53.2552C69.6509 57.366 67.2101 60.9727 64.0886 64.0723C60.967 67.1939 57.3393 69.6346 53.2064 71.3932C49.0957 73.1738 44.688 74.0625 39.9838 74.0625C35.2795 74.0625 30.8719 73.1738 26.7611 71.3932C22.6502 69.6346 19.0331 67.1939 15.9115 64.0723C12.7901 60.9727 10.3385 57.3659 8.55798 53.2552C6.79979 49.1228 5.92126 44.7038 5.92126 40C5.92137 35.2959 6.79944 30.8879 8.55798 26.7773C10.3386 22.6446 12.7899 19.0167 15.9115 15.8952C19.033 12.7738 22.6505 10.3361 26.7611 8.57747C30.8719 6.81883 35.2794 5.93751 39.9838 5.9375ZM26.5756 14.5443C24.0183 15.9037 21.7051 17.6057 19.6387 19.6549C17.0008 22.2929 14.9324 25.3483 13.4375 28.8216C11.9648 32.2947 11.2306 36.0214 11.2305 40C11.2305 43.9784 11.9651 47.7054 13.4375 51.1784C14.9323 54.6515 17.001 57.7072 19.6387 60.3451C22.2987 62.9611 25.3646 65.0188 28.8379 66.5137C32.3112 68.0305 36.0268 68.7891 39.9838 68.7891C43.9625 68.7891 47.6889 68.0304 51.1622 66.5137C54.6355 65.0188 57.6908 62.9611 60.3288 60.3451C62.9666 57.7072 65.0352 54.6516 66.53 51.1784C67.289 49.4146 67.8492 47.5843 68.2227 45.6901C67.4385 45.1094 66.7715 44.3914 66.2305 43.5286C65.4174 42.2319 64.7812 40.8898 64.3197 39.5052C63.8582 38.0986 63.4612 36.9111 63.1316 35.944C62.802 34.9557 62.4397 34.4599 62.0443 34.4596C61.8025 34.4596 61.6057 34.5719 61.4519 34.7917C61.32 34.9895 61.1411 35.1968 60.9213 35.4167C60.7235 35.6142 60.4172 35.7128 60 35.7129C59.4946 35.7129 58.9112 35.4842 58.252 35.0228C57.6145 34.5392 56.9543 33.9879 56.2728 33.3724C55.6139 32.7355 54.9877 32.1866 54.3946 31.7253C53.823 31.2416 53.349 30.9993 52.9753 30.9993C52.58 30.9995 52.2175 31.1966 51.8881 31.5918C51.5586 31.9872 51.3935 32.427 51.3933 32.9102C51.3933 33.3278 51.7339 33.7913 52.4154 34.2969C53.0967 34.7803 53.8769 35.3076 54.7559 35.8789C55.6348 36.4502 56.4152 37.0549 57.0964 37.6921C57.7779 38.3296 58.1185 38.9897 58.1185 39.6712C58.1185 40.6165 57.834 41.519 57.2624 42.3763C56.6912 43.2111 56.1075 43.9568 55.5144 44.6159C54.9428 45.2754 54.6582 45.7949 54.6582 46.1686C54.6583 46.9818 54.7112 48.0153 54.821 49.2676C54.9527 50.5204 54.6015 51.8274 53.7663 53.1901C53.4366 53.7397 52.8886 54.6421 52.1192 55.8952C51.35 57.1259 50.4047 58.4226 49.2839 59.7852C48.1847 61.1481 46.9416 62.314 45.5567 63.2812C44.1937 64.2485 42.7644 64.7331 41.2696 64.7331C39.5332 64.733 38.2158 64.28 37.3145 63.3789C36.4133 62.4777 35.7847 61.3359 35.433 59.9512C35.1033 58.5664 34.9171 57.1262 34.8731 55.6315C34.8511 54.115 34.8405 52.7518 34.8405 51.543C34.8405 50.0041 34.2999 48.7399 33.2227 47.7506C32.1456 46.7396 30.7722 46.2337 29.1016 46.2337C26.3323 46.2336 24.1787 45.4853 22.64 43.9909C21.1012 42.474 20.3321 40.3634 20.3321 37.6595C20.3321 35.5933 20.9363 33.7035 22.1452 31.9889C23.3763 30.2742 25.0129 28.8978 27.0573 27.8646C29.1017 26.8095 31.3458 26.2826 33.7858 26.2826C34.8846 26.2827 35.9846 26.4266 37.0834 26.7122C38.1816 26.9978 39.1701 27.2722 40.0489 27.5358C40.9278 27.7995 41.599 27.9328 42.0606 27.9329C42.5003 27.9329 42.8409 27.7118 43.0827 27.2721C43.3243 26.8109 43.4471 26.2512 43.4473 25.5924C43.4473 25.1528 43.2262 24.6333 42.7865 24.0397C42.3689 23.4466 41.831 22.9402 41.1719 22.5228C40.5128 22.0834 39.8307 21.8655 39.1276 21.8652C38.9305 21.8652 38.7752 21.9188 38.6654 22.028C38.5557 22.1377 38.4783 22.3037 38.4343 22.5228C38.3903 23.0063 38.2251 23.4032 37.9395 23.7109C37.6757 23.9967 37.2895 24.1406 36.7839 24.1406C35.9711 24.1404 35.2783 23.9648 34.7071 23.6133C34.1357 23.2617 33.6191 22.9102 33.1576 22.5586C32.6963 22.1852 32.2354 21.9957 31.7741 21.9954C31.3125 21.9954 30.9052 22.206 30.5534 22.6237C30.224 23.019 29.8721 23.4908 29.4987 24.0397C29.147 24.5673 28.6942 25.0307 28.1446 25.4264C27.5953 25.8215 26.8598 26.0187 25.9375 26.0189C25.0362 26.0189 24.32 25.7766 23.7924 25.293C23.2876 24.8096 23.0341 24.162 23.0339 23.3496C23.0339 22.6687 23.2101 22.0744 23.5612 21.569C23.913 21.0414 24.3203 20.5008 24.7819 19.9512C25.2432 19.38 25.6511 18.722 26.0026 17.9753C26.3544 17.2278 26.53 16.2904 26.53 15.1693C26.5301 14.9594 26.5483 14.7515 26.5756 14.5443ZM49.4792 16.8197C48.1169 16.8198 47.0518 17.041 46.2826 17.4805C45.5353 17.9201 45.1595 18.5348 45.1595 19.3262C45.1597 19.875 45.3359 20.315 45.6869 20.6445C46.0606 20.9743 46.5135 21.1393 47.0411 21.1393C47.5902 21.1392 48.0298 21.0408 48.3594 20.8431C48.7109 20.6454 49.1612 20.547 49.7103 20.5469C50.0398 20.5469 50.3811 20.6668 50.7325 20.9082C51.0842 21.128 51.5582 21.237 52.1517 21.237C52.5471 21.2369 52.8776 21.0853 53.1413 20.778C53.405 20.4483 53.5351 20.0513 53.5352 19.5898C53.5352 18.8205 53.1415 18.1708 52.3503 17.6432C51.5809 17.0936 50.6223 16.8197 49.4792 16.8197Z" fill="#304DDF"/>
<path fill-rule="evenodd" clip-rule="evenodd" d="M39.9838 5.9375C44.6882 5.9375 49.0956 6.81882 53.2064 8.57747C57.3389 10.336 60.9672 12.7739 64.0886 15.8952C67.2101 19.0167 69.6509 22.6446 71.4095 26.7773C73.1901 30.8879 74.0787 35.2959 74.0788 40C74.0788 44.7038 73.1897 49.1228 71.4095 53.2552C69.6509 57.366 67.2101 60.9727 64.0886 64.0723C60.967 67.1939 57.3393 69.6346 53.2064 71.3932C49.0957 73.1738 44.688 74.0625 39.9838 74.0625C35.2795 74.0625 30.8719 73.1738 26.7611 71.3932C22.6502 69.6346 19.0331 67.1939 15.9115 64.0723C12.7901 60.9727 10.3385 57.3659 8.55798 53.2552C6.79979 49.1228 5.92126 44.7038 5.92126 40C5.92137 35.2959 6.79944 30.8879 8.55798 26.7773C10.3386 22.6446 12.7899 19.0167 15.9115 15.8952C19.033 12.7738 22.6505 10.3361 26.7611 8.57747C30.8719 6.81883 35.2794 5.93751 39.9838 5.9375ZM26.5756 14.5443C24.0183 15.9037 21.7051 17.6057 19.6387 19.6549C17.0008 22.2929 14.9324 25.3483 13.4375 28.8216C11.9648 32.2947 11.2306 36.0214 11.2305 40C11.2305 43.9784 11.9651 47.7054 13.4375 51.1784C14.9323 54.6515 17.001 57.7072 19.6387 60.3451C22.2987 62.9611 25.3646 65.0188 28.8379 66.5137C32.3112 68.0305 36.0268 68.7891 39.9838 68.7891C43.9625 68.7891 47.6889 68.0304 51.1622 66.5137C54.6355 65.0188 57.6908 62.9611 60.3288 60.3451C62.9666 57.7072 65.0352 54.6516 66.53 51.1784C67.289 49.4146 67.8492 47.5843 68.2227 45.6901C67.4385 45.1094 66.7715 44.3914 66.2305 43.5286C65.4174 42.2319 64.7812 40.8898 64.3197 39.5052C63.8582 38.0986 63.4612 36.9111 63.1316 35.944C62.802 34.9557 62.4397 34.4599 62.0443 34.4596C61.8025 34.4596 61.6057 34.5719 61.4519 34.7917C61.32 34.9895 61.1411 35.1968 60.9213 35.4167C60.7235 35.6142 60.4172 35.7128 60 35.7129C59.4946 35.7129 58.9112 35.4842 58.252 35.0228C57.6145 34.5392 56.9543 33.9879 56.2728 33.3724C55.6139 32.7355 54.9877 32.1866 54.3946 31.7253C53.823 31.2416 53.349 30.9993 52.9753 30.9993C52.58 30.9995 52.2175 31.1966 51.8881 31.5918C51.5586 31.9872 51.3935 32.427 51.3933 32.9102C51.3933 33.3278 51.7339 33.7913 52.4154 34.2969C53.0967 34.7803 53.8769 35.3076 54.7559 35.8789C55.6348 36.4502 56.4152 37.0549 57.0964 37.6921C57.7779 38.3296 58.1185 38.9897 58.1185 39.6712C58.1185 40.6165 57.834 41.519 57.2624 42.3763C56.6912 43.2111 56.1075 43.9568 55.5144 44.6159C54.9428 45.2754 54.6582 45.7949 54.6582 46.1686C54.6583 46.9818 54.7112 48.0153 54.821 49.2676C54.9527 50.5204 54.6015 51.8274 53.7663 53.1901C53.4366 53.7397 52.8886 54.6421 52.1192 55.8952C51.35 57.1259 50.4047 58.4226 49.2839 59.7852C48.1847 61.1481 46.9416 62.314 45.5567 63.2812C44.1937 64.2485 42.7644 64.7331 41.2696 64.7331C39.5332 64.733 38.2158 64.28 37.3145 63.3789C36.4133 62.4777 35.7847 61.3359 35.433 59.9512C35.1033 58.5664 34.9171 57.1262 34.8731 55.6315C34.8511 54.115 34.8405 52.7518 34.8405 51.543C34.8405 50.0041 34.2999 48.7399 33.2227 47.7506C32.1456 46.7396 30.7722 46.2337 29.1016 46.2337C26.3323 46.2336 24.1787 45.4853 22.64 43.9909C21.1012 42.474 20.3321 40.3634 20.3321 37.6595C20.3321 35.5933 20.9363 33.7035 22.1452 31.9889C23.3763 30.2742 25.0129 28.8978 27.0573 27.8646C29.1017 26.8095 31.3458 26.2826 33.7858 26.2826C34.8846 26.2827 35.9846 26.4266 37.0834 26.7122C38.1816 26.9978 39.1701 27.2722 40.0489 27.5358C40.9278 27.7995 41.599 27.9328 42.0606 27.9329C42.5003 27.9329 42.8409 27.7118 43.0827 27.2721C43.3243 26.8109 43.4471 26.2512 43.4473 25.5924C43.4473 25.1528 43.2262 24.6333 42.7865 24.0397C42.3689 23.4466 41.831 22.9402 41.1719 22.5228C40.5128 22.0834 39.8307 21.8655 39.1276 21.8652C38.9305 21.8652 38.7752 21.9188 38.6654 22.028C38.5557 22.1377 38.4783 22.3037 38.4343 22.5228C38.3903 23.0063 38.2251 23.4032 37.9395 23.7109C37.6757 23.9967 37.2895 24.1406 36.7839 24.1406C35.9711 24.1404 35.2783 23.9648 34.7071 23.6133C34.1357 23.2617 33.6191 22.9102 33.1576 22.5586C32.6963 22.1852 32.2354 21.9957 31.7741 21.9954C31.3125 21.9954 30.9052 22.206 30.5534 22.6237C30.224 23.019 29.8721 23.4908 29.4987 24.0397C29.147 24.5673 28.6942 25.0307 28.1446 25.4264C27.5953 25.8215 26.8598 26.0187 25.9375 26.0189C25.0362 26.0189 24.32 25.7766 23.7924 25.293C23.2876 24.8096 23.0341 24.162 23.0339 23.3496C23.0339 22.6687 23.2101 22.0744 23.5612 21.569C23.913 21.0414 24.3203 20.5008 24.7819 19.9512C25.2432 19.38 25.6511 18.722 26.0026 17.9753C26.3544 17.2278 26.53 16.2904 26.53 15.1693C26.5301 14.9594 26.5483 14.7515 26.5756 14.5443ZM49.4792 16.8197C48.1169 16.8198 47.0518 17.041 46.2826 17.4805C45.5353 17.9201 45.1595 18.5348 45.1595 19.3262C45.1597 19.875 45.3359 20.315 45.6869 20.6445C46.0606 20.9743 46.5135 21.1393 47.0411 21.1393C47.5902 21.1392 48.0298 21.0408 48.3594 20.8431C48.7109 20.6454 49.1612 20.547 49.7103 20.5469C50.0398 20.5469 50.3811 20.6668 50.7325 20.9082C51.0842 21.128 51.5582 21.237 52.1517 21.237C52.5471 21.2369 52.8776 21.0853 53.1413 20.778C53.405 20.4483 53.5351 20.0513 53.5352 19.5898C53.5352 18.8205 53.1415 18.1708 52.3503 17.6432C51.5809 17.0936 50.6223 16.8197 49.4792 16.8197Z" fill="url(#paint0_linear_1782_6706)"/>
<path fill-rule="evenodd" clip-rule="evenodd" d="M39.9838 5.9375C44.6882 5.9375 49.0956 6.81882 53.2064 8.57747C57.3389 10.336 60.9672 12.7739 64.0886 15.8952C67.2101 19.0167 69.6509 22.6446 71.4095 26.7773C73.1901 30.8879 74.0787 35.2959 74.0788 40C74.0788 44.7038 73.1897 49.1228 71.4095 53.2552C69.6509 57.366 67.2101 60.9727 64.0886 64.0723C60.967 67.1939 57.3393 69.6346 53.2064 71.3932C49.0957 73.1738 44.688 74.0625 39.9838 74.0625C35.2795 74.0625 30.8719 73.1738 26.7611 71.3932C22.6502 69.6346 19.0331 67.1939 15.9115 64.0723C12.7901 60.9727 10.3385 57.3659 8.55798 53.2552C6.79979 49.1228 5.92126 44.7038 5.92126 40C5.92137 35.2959 6.79944 30.8879 8.55798 26.7773C10.3386 22.6446 12.7899 19.0167 15.9115 15.8952C19.033 12.7738 22.6505 10.3361 26.7611 8.57747C30.8719 6.81883 35.2794 5.93751 39.9838 5.9375ZM26.5756 14.5443C24.0183 15.9037 21.7051 17.6057 19.6387 19.6549C17.0008 22.2929 14.9324 25.3483 13.4375 28.8216C11.9648 32.2947 11.2306 36.0214 11.2305 40C11.2305 43.9784 11.9651 47.7054 13.4375 51.1784C14.9323 54.6515 17.001 57.7072 19.6387 60.3451C22.2987 62.9611 25.3646 65.0188 28.8379 66.5137C32.3112 68.0305 36.0268 68.7891 39.9838 68.7891C43.9625 68.7891 47.6889 68.0304 51.1622 66.5137C54.6355 65.0188 57.6908 62.9611 60.3288 60.3451C62.9666 57.7072 65.0352 54.6516 66.53 51.1784C67.289 49.4146 67.8492 47.5843 68.2227 45.6901C67.4385 45.1094 66.7715 44.3914 66.2305 43.5286C65.4174 42.2319 64.7812 40.8898 64.3197 39.5052C63.8582 38.0986 63.4612 36.9111 63.1316 35.944C62.802 34.9557 62.4397 34.4599 62.0443 34.4596C61.8025 34.4596 61.6057 34.5719 61.4519 34.7917C61.32 34.9895 61.1411 35.1968 60.9213 35.4167C60.7235 35.6142 60.4172 35.7128 60 35.7129C59.4946 35.7129 58.9112 35.4842 58.252 35.0228C57.6145 34.5392 56.9543 33.9879 56.2728 33.3724C55.6139 32.7355 54.9877 32.1866 54.3946 31.7253C53.823 31.2416 53.349 30.9993 52.9753 30.9993C52.58 30.9995 52.2175 31.1966 51.8881 31.5918C51.5586 31.9872 51.3935 32.427 51.3933 32.9102C51.3933 33.3278 51.7339 33.7913 52.4154 34.2969C53.0967 34.7803 53.8769 35.3076 54.7559 35.8789C55.6348 36.4502 56.4152 37.0549 57.0964 37.6921C57.7779 38.3296 58.1185 38.9897 58.1185 39.6712C58.1185 40.6165 57.834 41.519 57.2624 42.3763C56.6912 43.2111 56.1075 43.9568 55.5144 44.6159C54.9428 45.2754 54.6582 45.7949 54.6582 46.1686C54.6583 46.9818 54.7112 48.0153 54.821 49.2676C54.9527 50.5204 54.6015 51.8274 53.7663 53.1901C53.4366 53.7397 52.8886 54.6421 52.1192 55.8952C51.35 57.1259 50.4047 58.4226 49.2839 59.7852C48.1847 61.1481 46.9416 62.314 45.5567 63.2812C44.1937 64.2485 42.7644 64.7331 41.2696 64.7331C39.5332 64.733 38.2158 64.28 37.3145 63.3789C36.4133 62.4777 35.7847 61.3359 35.433 59.9512C35.1033 58.5664 34.9171 57.1262 34.8731 55.6315C34.8511 54.115 34.8405 52.7518 34.8405 51.543C34.8405 50.0041 34.2999 48.7399 33.2227 47.7506C32.1456 46.7396 30.7722 46.2337 29.1016 46.2337C26.3323 46.2336 24.1787 45.4853 22.64 43.9909C21.1012 42.474 20.3321 40.3634 20.3321 37.6595C20.3321 35.5933 20.9363 33.7035 22.1452 31.9889C23.3763 30.2742 25.0129 28.8978 27.0573 27.8646C29.1017 26.8095 31.3458 26.2826 33.7858 26.2826C34.8846 26.2827 35.9846 26.4266 37.0834 26.7122C38.1816 26.9978 39.1701 27.2722 40.0489 27.5358C40.9278 27.7995 41.599 27.9328 42.0606 27.9329C42.5003 27.9329 42.8409 27.7118 43.0827 27.2721C43.3243 26.8109 43.4471 26.2512 43.4473 25.5924C43.4473 25.1528 43.2262 24.6333 42.7865 24.0397C42.3689 23.4466 41.831 22.9402 41.1719 22.5228C40.5128 22.0834 39.8307 21.8655 39.1276 21.8652C38.9305 21.8652 38.7752 21.9188 38.6654 22.028C38.5557 22.1377 38.4783 22.3037 38.4343 22.5228C38.3903 23.0063 38.2251 23.4032 37.9395 23.7109C37.6757 23.9967 37.2895 24.1406 36.7839 24.1406C35.9711 24.1404 35.2783 23.9648 34.7071 23.6133C34.1357 23.2617 33.6191 22.9102 33.1576 22.5586C32.6963 22.1852 32.2354 21.9957 31.7741 21.9954C31.3125 21.9954 30.9052 22.206 30.5534 22.6237C30.224 23.019 29.8721 23.4908 29.4987 24.0397C29.147 24.5673 28.6942 25.0307 28.1446 25.4264C27.5953 25.8215 26.8598 26.0187 25.9375 26.0189C25.0362 26.0189 24.32 25.7766 23.7924 25.293C23.2876 24.8096 23.0341 24.162 23.0339 23.3496C23.0339 22.6687 23.2101 22.0744 23.5612 21.569C23.913 21.0414 24.3203 20.5008 24.7819 19.9512C25.2432 19.38 25.6511 18.722 26.0026 17.9753C26.3544 17.2278 26.53 16.2904 26.53 15.1693C26.5301 14.9594 26.5483 14.7515 26.5756 14.5443ZM49.4792 16.8197C48.1169 16.8198 47.0518 17.041 46.2826 17.4805C45.5353 17.9201 45.1595 18.5348 45.1595 19.3262C45.1597 19.875 45.3359 20.315 45.6869 20.6445C46.0606 20.9743 46.5135 21.1393 47.0411 21.1393C47.5902 21.1392 48.0298 21.0408 48.3594 20.8431C48.7109 20.6454 49.1612 20.547 49.7103 20.5469C50.0398 20.5469 50.3811 20.6668 50.7325 20.9082C51.0842 21.128 51.5582 21.237 52.1517 21.237C52.5471 21.2369 52.8776 21.0853 53.1413 20.778C53.405 20.4483 53.5351 20.0513 53.5352 19.5898C53.5352 18.8205 53.1415 18.1708 52.3503 17.6432C51.5809 17.0936 50.6223 16.8197 49.4792 16.8197Z" fill="url(#paint1_linear_1782_6706)" fill-opacity="0.39"/>
<path fill-rule="evenodd" clip-rule="evenodd" d="M39.9838 5.9375C44.6882 5.9375 49.0956 6.81882 53.2064 8.57747C57.3389 10.336 60.9672 12.7739 64.0886 15.8952C67.2101 19.0167 69.6509 22.6446 71.4095 26.7773C73.1901 30.8879 74.0787 35.2959 74.0788 40C74.0788 44.7038 73.1897 49.1228 71.4095 53.2552C69.6509 57.366 67.2101 60.9727 64.0886 64.0723C60.967 67.1939 57.3393 69.6346 53.2064 71.3932C49.0957 73.1738 44.688 74.0625 39.9838 74.0625C35.2795 74.0625 30.8719 73.1738 26.7611 71.3932C22.6502 69.6346 19.0331 67.1939 15.9115 64.0723C12.7901 60.9727 10.3385 57.3659 8.55798 53.2552C6.79979 49.1228 5.92126 44.7038 5.92126 40C5.92137 35.2959 6.79944 30.8879 8.55798 26.7773C10.3386 22.6446 12.7899 19.0167 15.9115 15.8952C19.033 12.7738 22.6505 10.3361 26.7611 8.57747C30.8719 6.81883 35.2794 5.93751 39.9838 5.9375ZM26.5756 14.5443C24.0183 15.9037 21.7051 17.6057 19.6387 19.6549C17.0008 22.2929 14.9324 25.3483 13.4375 28.8216C11.9648 32.2947 11.2306 36.0214 11.2305 40C11.2305 43.9784 11.9651 47.7054 13.4375 51.1784C14.9323 54.6515 17.001 57.7072 19.6387 60.3451C22.2987 62.9611 25.3646 65.0188 28.8379 66.5137C32.3112 68.0305 36.0268 68.7891 39.9838 68.7891C43.9625 68.7891 47.6889 68.0304 51.1622 66.5137C54.6355 65.0188 57.6908 62.9611 60.3288 60.3451C62.9666 57.7072 65.0352 54.6516 66.53 51.1784C67.289 49.4146 67.8492 47.5843 68.2227 45.6901C67.4385 45.1094 66.7715 44.3914 66.2305 43.5286C65.4174 42.2319 64.7812 40.8898 64.3197 39.5052C63.8582 38.0986 63.4612 36.9111 63.1316 35.944C62.802 34.9557 62.4397 34.4599 62.0443 34.4596C61.8025 34.4596 61.6057 34.5719 61.4519 34.7917C61.32 34.9895 61.1411 35.1968 60.9213 35.4167C60.7235 35.6142 60.4172 35.7128 60 35.7129C59.4946 35.7129 58.9112 35.4842 58.252 35.0228C57.6145 34.5392 56.9543 33.9879 56.2728 33.3724C55.6139 32.7355 54.9877 32.1866 54.3946 31.7253C53.823 31.2416 53.349 30.9993 52.9753 30.9993C52.58 30.9995 52.2175 31.1966 51.8881 31.5918C51.5586 31.9872 51.3935 32.427 51.3933 32.9102C51.3933 33.3278 51.7339 33.7913 52.4154 34.2969C53.0967 34.7803 53.8769 35.3076 54.7559 35.8789C55.6348 36.4502 56.4152 37.0549 57.0964 37.6921C57.7779 38.3296 58.1185 38.9897 58.1185 39.6712C58.1185 40.6165 57.834 41.519 57.2624 42.3763C56.6912 43.2111 56.1075 43.9568 55.5144 44.6159C54.9428 45.2754 54.6582 45.7949 54.6582 46.1686C54.6583 46.9818 54.7112 48.0153 54.821 49.2676C54.9527 50.5204 54.6015 51.8274 53.7663 53.1901C53.4366 53.7397 52.8886 54.6421 52.1192 55.8952C51.35 57.1259 50.4047 58.4226 49.2839 59.7852C48.1847 61.1481 46.9416 62.314 45.5567 63.2812C44.1937 64.2485 42.7644 64.7331 41.2696 64.7331C39.5332 64.733 38.2158 64.28 37.3145 63.3789C36.4133 62.4777 35.7847 61.3359 35.433 59.9512C35.1033 58.5664 34.9171 57.1262 34.8731 55.6315C34.8511 54.115 34.8405 52.7518 34.8405 51.543C34.8405 50.0041 34.2999 48.7399 33.2227 47.7506C32.1456 46.7396 30.7722 46.2337 29.1016 46.2337C26.3323 46.2336 24.1787 45.4853 22.64 43.9909C21.1012 42.474 20.3321 40.3634 20.3321 37.6595C20.3321 35.5933 20.9363 33.7035 22.1452 31.9889C23.3763 30.2742 25.0129 28.8978 27.0573 27.8646C29.1017 26.8095 31.3458 26.2826 33.7858 26.2826C34.8846 26.2827 35.9846 26.4266 37.0834 26.7122C38.1816 26.9978 39.1701 27.2722 40.0489 27.5358C40.9278 27.7995 41.599 27.9328 42.0606 27.9329C42.5003 27.9329 42.8409 27.7118 43.0827 27.2721C43.3243 26.8109 43.4471 26.2512 43.4473 25.5924C43.4473 25.1528 43.2262 24.6333 42.7865 24.0397C42.3689 23.4466 41.831 22.9402 41.1719 22.5228C40.5128 22.0834 39.8307 21.8655 39.1276 21.8652C38.9305 21.8652 38.7752 21.9188 38.6654 22.028C38.5557 22.1377 38.4783 22.3037 38.4343 22.5228C38.3903 23.0063 38.2251 23.4032 37.9395 23.7109C37.6757 23.9967 37.2895 24.1406 36.7839 24.1406C35.9711 24.1404 35.2783 23.9648 34.7071 23.6133C34.1357 23.2617 33.6191 22.9102 33.1576 22.5586C32.6963 22.1852 32.2354 21.9957 31.7741 21.9954C31.3125 21.9954 30.9052 22.206 30.5534 22.6237C30.224 23.019 29.8721 23.4908 29.4987 24.0397C29.147 24.5673 28.6942 25.0307 28.1446 25.4264C27.5953 25.8215 26.8598 26.0187 25.9375 26.0189C25.0362 26.0189 24.32 25.7766 23.7924 25.293C23.2876 24.8096 23.0341 24.162 23.0339 23.3496C23.0339 22.6687 23.2101 22.0744 23.5612 21.569C23.913 21.0414 24.3203 20.5008 24.7819 19.9512C25.2432 19.38 25.6511 18.722 26.0026 17.9753C26.3544 17.2278 26.53 16.2904 26.53 15.1693C26.5301 14.9594 26.5483 14.7515 26.5756 14.5443ZM49.4792 16.8197C48.1169 16.8198 47.0518 17.041 46.2826 17.4805C45.5353 17.9201 45.1595 18.5348 45.1595 19.3262C45.1597 19.875 45.3359 20.315 45.6869 20.6445C46.0606 20.9743 46.5135 21.1393 47.0411 21.1393C47.5902 21.1392 48.0298 21.0408 48.3594 20.8431C48.7109 20.6454 49.1612 20.547 49.7103 20.5469C50.0398 20.5469 50.3811 20.6668 50.7325 20.9082C51.0842 21.128 51.5582 21.237 52.1517 21.237C52.5471 21.2369 52.8776 21.0853 53.1413 20.778C53.405 20.4483 53.5351 20.0513 53.5352 19.5898C53.5352 18.8205 53.1415 18.1708 52.3503 17.6432C51.5809 17.0936 50.6223 16.8197 49.4792 16.8197Z" fill="#3E5DE7" fill-opacity="0.65"/>
<path fill-rule="evenodd" clip-rule="evenodd" d="M39.9838 5.9375C44.6882 5.9375 49.0956 6.81882 53.2064 8.57747C57.3389 10.336 60.9672 12.7739 64.0886 15.8952C67.2101 19.0167 69.6509 22.6446 71.4095 26.7773C73.1901 30.8879 74.0787 35.2959 74.0788 40C74.0788 44.7038 73.1897 49.1228 71.4095 53.2552C69.6509 57.366 67.2101 60.9727 64.0886 64.0723C60.967 67.1939 57.3393 69.6346 53.2064 71.3932C49.0957 73.1738 44.688 74.0625 39.9838 74.0625C35.2795 74.0625 30.8719 73.1738 26.7611 71.3932C22.6502 69.6346 19.0331 67.1939 15.9115 64.0723C12.7901 60.9727 10.3385 57.3659 8.55798 53.2552C6.79979 49.1228 5.92126 44.7038 5.92126 40C5.92137 35.2959 6.79944 30.8879 8.55798 26.7773C10.3386 22.6446 12.7899 19.0167 15.9115 15.8952C19.033 12.7738 22.6505 10.3361 26.7611 8.57747C30.8719 6.81883 35.2794 5.93751 39.9838 5.9375ZM26.5756 14.5443C24.0183 15.9037 21.7051 17.6057 19.6387 19.6549C17.0008 22.2929 14.9324 25.3483 13.4375 28.8216C11.9648 32.2947 11.2306 36.0214 11.2305 40C11.2305 43.9784 11.9651 47.7054 13.4375 51.1784C14.9323 54.6515 17.001 57.7072 19.6387 60.3451C22.2987 62.9611 25.3646 65.0188 28.8379 66.5137C32.3112 68.0305 36.0268 68.7891 39.9838 68.7891C43.9625 68.7891 47.6889 68.0304 51.1622 66.5137C54.6355 65.0188 57.6908 62.9611 60.3288 60.3451C62.9666 57.7072 65.0352 54.6516 66.53 51.1784C67.289 49.4146 67.8492 47.5843 68.2227 45.6901C67.4385 45.1094 66.7715 44.3914 66.2305 43.5286C65.4174 42.2319 64.7812 40.8898 64.3197 39.5052C63.8582 38.0986 63.4612 36.9111 63.1316 35.944C62.802 34.9557 62.4397 34.4599 62.0443 34.4596C61.8025 34.4596 61.6057 34.5719 61.4519 34.7917C61.32 34.9895 61.1411 35.1968 60.9213 35.4167C60.7235 35.6142 60.4172 35.7128 60 35.7129C59.4946 35.7129 58.9112 35.4842 58.252 35.0228C57.6145 34.5392 56.9543 33.9879 56.2728 33.3724C55.6139 32.7355 54.9877 32.1866 54.3946 31.7253C53.823 31.2416 53.349 30.9993 52.9753 30.9993C52.58 30.9995 52.2175 31.1966 51.8881 31.5918C51.5586 31.9872 51.3935 32.427 51.3933 32.9102C51.3933 33.3278 51.7339 33.7913 52.4154 34.2969C53.0967 34.7803 53.8769 35.3076 54.7559 35.8789C55.6348 36.4502 56.4152 37.0549 57.0964 37.6921C57.7779 38.3296 58.1185 38.9897 58.1185 39.6712C58.1185 40.6165 57.834 41.519 57.2624 42.3763C56.6912 43.2111 56.1075 43.9568 55.5144 44.6159C54.9428 45.2754 54.6582 45.7949 54.6582 46.1686C54.6583 46.9818 54.7112 48.0153 54.821 49.2676C54.9527 50.5204 54.6015 51.8274 53.7663 53.1901C53.4366 53.7397 52.8886 54.6421 52.1192 55.8952C51.35 57.1259 50.4047 58.4226 49.2839 59.7852C48.1847 61.1481 46.9416 62.314 45.5567 63.2812C44.1937 64.2485 42.7644 64.7331 41.2696 64.7331C39.5332 64.733 38.2158 64.28 37.3145 63.3789C36.4133 62.4777 35.7847 61.3359 35.433 59.9512C35.1033 58.5664 34.9171 57.1262 34.8731 55.6315C34.8511 54.115 34.8405 52.7518 34.8405 51.543C34.8405 50.0041 34.2999 48.7399 33.2227 47.7506C32.1456 46.7396 30.7722 46.2337 29.1016 46.2337C26.3323 46.2336 24.1787 45.4853 22.64 43.9909C21.1012 42.474 20.3321 40.3634 20.3321 37.6595C20.3321 35.5933 20.9363 33.7035 22.1452 31.9889C23.3763 30.2742 25.0129 28.8978 27.0573 27.8646C29.1017 26.8095 31.3458 26.2826 33.7858 26.2826C34.8846 26.2827 35.9846 26.4266 37.0834 26.7122C38.1816 26.9978 39.1701 27.2722 40.0489 27.5358C40.9278 27.7995 41.599 27.9328 42.0606 27.9329C42.5003 27.9329 42.8409 27.7118 43.0827 27.2721C43.3243 26.8109 43.4471 26.2512 43.4473 25.5924C43.4473 25.1528 43.2262 24.6333 42.7865 24.0397C42.3689 23.4466 41.831 22.9402 41.1719 22.5228C40.5128 22.0834 39.8307 21.8655 39.1276 21.8652C38.9305 21.8652 38.7752 21.9188 38.6654 22.028C38.5557 22.1377 38.4783 22.3037 38.4343 22.5228C38.3903 23.0063 38.2251 23.4032 37.9395 23.7109C37.6757 23.9967 37.2895 24.1406 36.7839 24.1406C35.9711 24.1404 35.2783 23.9648 34.7071 23.6133C34.1357 23.2617 33.6191 22.9102 33.1576 22.5586C32.6963 22.1852 32.2354 21.9957 31.7741 21.9954C31.3125 21.9954 30.9052 22.206 30.5534 22.6237C30.224 23.019 29.8721 23.4908 29.4987 24.0397C29.147 24.5673 28.6942 25.0307 28.1446 25.4264C27.5953 25.8215 26.8598 26.0187 25.9375 26.0189C25.0362 26.0189 24.32 25.7766 23.7924 25.293C23.2876 24.8096 23.0341 24.162 23.0339 23.3496C23.0339 22.6687 23.2101 22.0744 23.5612 21.569C23.913 21.0414 24.3203 20.5008 24.7819 19.9512C25.2432 19.38 25.6511 18.722 26.0026 17.9753C26.3544 17.2278 26.53 16.2904 26.53 15.1693C26.5301 14.9594 26.5483 14.7515 26.5756 14.5443ZM49.4792 16.8197C48.1169 16.8198 47.0518 17.041 46.2826 17.4805C45.5353 17.9201 45.1595 18.5348 45.1595 19.3262C45.1597 19.875 45.3359 20.315 45.6869 20.6445C46.0606 20.9743 46.5135 21.1393 47.0411 21.1393C47.5902 21.1392 48.0298 21.0408 48.3594 20.8431C48.7109 20.6454 49.1612 20.547 49.7103 20.5469C50.0398 20.5469 50.3811 20.6668 50.7325 20.9082C51.0842 21.128 51.5582 21.237 52.1517 21.237C52.5471 21.2369 52.8776 21.0853 53.1413 20.778C53.405 20.4483 53.5351 20.0513 53.5352 19.5898C53.5352 18.8205 53.1415 18.1708 52.3503 17.6432C51.5809 17.0936 50.6223 16.8197 49.4792 16.8197Z" stroke="url(#paint2_linear_1782_6706)" stroke-opacity="0.25" stroke-width="0.45" mask="url(#path-1-outside-1_1782_6706)"/>
</g>
<defs>
<filter id="filter0_d_1782_6706" x="-2.19" y="-0.99" width="84.38" height="84.38" filterUnits="userSpaceOnUse" color-interpolation-filters="sRGB">
<feFlood flood-opacity="0" result="BackgroundImageFix"/>
<feColorMatrix in="SourceAlpha" type="matrix" values="0 0 0 0 0 0 0 0 0 0 0 0 0 0 0 0 0 0 127 0" result="hardAlpha"/>
<feOffset dy="1.2"/>
<feGaussianBlur stdDeviation="1.095"/>
<feComposite in2="hardAlpha" operator="out"/>
<feColorMatrix type="matrix" values="0 0 0 0 0.243137 0 0 0 0 0.364706 0 0 0 0 0.905882 0 0 0 0.15 0"/>
<feBlend mode="normal" in2="BackgroundImageFix" result="effect1_dropShadow_1782_6706"/>
<feBlend mode="normal" in="SourceGraphic" in2="effect1_dropShadow_1782_6706" result="shape"/>
</filter>
<linearGradient id="paint0_linear_1782_6706" x1="21.1667" y1="-10.3985" x2="50.152" y2="70.4216" gradientUnits="userSpaceOnUse">
<stop offset="0.670868" stop-color="#000091"/>
<stop offset="1" stop-color="#000091" stop-opacity="0"/>
</linearGradient>
<linearGradient id="paint1_linear_1782_6706" x1="57.2062" y1="5.9375" x2="52.2887" y2="41.3628" gradientUnits="userSpaceOnUse">
<stop stop-color="#F4C858"/>
<stop offset="1" stop-color="#F4C858" stop-opacity="0"/>
</linearGradient>
<linearGradient id="paint2_linear_1782_6706" x1="40" y1="5.9375" x2="40" y2="74.0625" gradientUnits="userSpaceOnUse">
<stop stop-color="white"/>
<stop offset="0.519231" stop-color="white" stop-opacity="0"/>
<stop offset="1" stop-color="white"/>
</linearGradient>
</defs>
</svg>
