<svg width="33" height="33" viewBox="0 0 33 33" fill="none" xmlns="http://www.w3.org/2000/svg">
<g opacity="0.75">
<path d="M30.9337 2.0625H26.441C24.3679 2.0625 22.6848 3.91385 22.6848 6.19423V10.3114H27.213C29.2665 10.3114 30.9337 8.47743 30.9337 6.21853V2.0625Z" fill="#555E74"/>
<path d="M30.9337 2.0625H26.441C24.3679 2.0625 22.6848 3.91385 22.6848 6.19423V10.3114H27.213C29.2665 10.3114 30.9337 8.47743 30.9337 6.21853V2.0625Z" fill="white" fill-opacity="0.3"/>
<path d="M12.3738 2.0625H16.8665C18.9396 2.0625 20.6227 3.91385 20.6227 6.19423V10.3114H16.0945C14.041 10.3114 12.3738 8.47743 12.3738 6.21853V2.0625Z" fill="#555E74"/>
<path d="M12.3738 2.0625H16.8665C18.9396 2.0625 20.6227 3.91385 20.6227 6.19423V10.3114H16.0945C14.041 10.3114 12.3738 8.47743 12.3738 6.21853V2.0625Z" fill="white" fill-opacity="0.3"/>
<path d="M2.0626 12.374H6.55536C8.62847 12.374 10.3115 14.2254 10.3115 16.5058V20.6229H5.78338C3.7298 20.6229 2.0626 18.789 2.0626 16.5301V12.374Z" fill="#555E74"/>
<path d="M2.0626 12.374H6.55536C8.62847 12.374 10.3115 14.2254 10.3115 16.5058V20.6229H5.78338C3.7298 20.6229 2.0626 18.789 2.0626 16.5301V12.374Z" fill="white" fill-opacity="0.3"/>
<path d="M2.0626 22.6855H6.55536C8.62847 22.6855 10.3115 24.5369 10.3115 26.8173V30.9345H5.78338C3.7298 30.9345 2.0626 29.1005 2.0626 26.8416V22.6855Z" fill="#555E74"/>
<path d="M2.0626 22.6855H6.55536C8.62847 22.6855 10.3115 24.5369 10.3115 26.8173V30.9345H5.78338C3.7298 30.9345 2.0626 29.1005 2.0626 26.8416V22.6855Z" fill="white" fill-opacity="0.3"/>
<path d="M12.3738 12.374H16.8665C18.9396 12.374 20.6227 14.2254 20.6227 16.5058V20.6229H16.0945C14.041 20.6229 12.3738 18.789 12.3738 16.5301V12.374Z" fill="#555E74"/>
<path d="M30.9337 12.374H26.441C24.3679 12.374 22.6848 14.2254 22.6848 16.5058V20.6229H27.213C29.2665 20.6229 30.9337 18.789 30.9337 16.5301V12.374Z" fill="#555E74"/>
<path d="M12.3738 22.6855H16.8665C18.9396 22.6855 20.6227 24.5369 20.6227 26.8173V30.9345H16.0945C14.041 30.9345 12.3738 29.1005 12.3738 26.8416V22.6855Z" fill="#555E74"/>
<path d="M30.9337 22.6855H26.441C24.3679 22.6855 22.6848 24.5369 22.6848 26.8173V30.9345H27.213C29.2665 30.9345 30.9337 29.1005 30.9337 26.8416V22.6855Z" fill="#555E74"/>
</g>
</svg>
