<svg width="24" height="24" viewBox="0 0 24 24" fill="none" xmlns="http://www.w3.org/2000/svg">
<path d="M7.32031 3.80566C7.583 3.80572 7.80897 3.90079 7.99902 4.09082L14.2646 10.3643C14.3651 10.4647 14.4518 10.5155 14.5244 10.5156C14.5971 10.5156 14.6587 10.4897 14.709 10.4395C14.7592 10.3892 14.7873 10.3252 14.793 10.2471C14.7986 10.1688 14.7769 10.0673 14.7266 9.94434L13.7783 7.32812C13.6385 6.93114 13.577 6.60389 13.5938 6.34668C13.6161 6.08388 13.7338 5.8571 13.9463 5.66699C14.1363 5.49941 14.3406 5.42144 14.5586 5.43262C14.7764 5.44386 14.9691 5.54139 15.1367 5.72559C15.2374 5.83183 15.3519 6.00024 15.4805 6.22949C15.6091 6.45315 15.7408 6.69938 15.875 6.96777C16.0147 7.23606 16.1488 7.49332 16.2773 7.73926C16.473 8.10268 16.6663 8.4743 16.8564 8.85449C17.0521 9.23461 17.2391 9.62043 17.418 10.0117C17.5968 10.3974 17.7567 10.7832 17.8965 11.1689C18.0418 11.5546 18.1596 11.9351 18.249 12.3096C18.5901 13.4502 18.6398 14.513 18.3994 15.4971C18.159 16.4754 17.5863 17.4175 16.6807 18.3232C16.0712 18.9215 15.4167 19.3805 14.7178 19.6992C14.0188 20.0179 13.2974 20.1832 12.5537 20.1943C11.8101 20.2055 11.0691 20.0511 10.3311 19.7324C9.59864 19.4193 8.89971 18.93 8.23438 18.2646L2.53906 12.5703C2.34895 12.3802 2.25391 12.1534 2.25391 11.8906C2.25392 11.6224 2.34912 11.3932 2.53906 11.2031C2.7235 11.0131 2.94731 10.9181 3.20996 10.918C3.47823 10.918 3.7106 11.0154 3.90625 11.2109L7.50488 14.8096C7.53284 14.6866 7.56313 14.5602 7.59668 14.4316C7.6358 14.2975 7.67796 14.1634 7.72266 14.0293L2.55566 8.85449C2.3601 8.66442 2.2627 8.43752 2.2627 8.1748C2.26276 7.90653 2.35781 7.67735 2.54785 7.4873C2.73795 7.30284 2.96478 7.21094 3.22754 7.21094C3.49568 7.21104 3.72186 7.30296 3.90625 7.4873L8.67871 12.2598C8.7514 12.1591 8.82379 12.0609 8.89648 11.9658C8.97473 11.8652 9.05359 11.7679 9.13184 11.6729L3.94043 6.47266C3.74473 6.28254 3.64648 6.05577 3.64648 5.79297C3.64651 5.53022 3.74476 5.30336 3.94043 5.11328C4.1304 4.91793 4.35663 4.82037 4.61914 4.82031C4.88186 4.82031 5.10875 4.9177 5.29883 5.11328L10.5664 10.373C10.6725 10.3004 10.7754 10.2356 10.876 10.1797C10.9822 10.1182 11.0891 10.062 11.1953 10.0117L6.64062 5.45801C6.45054 5.26792 6.35549 5.04108 6.35547 4.77832C6.35547 4.51562 6.45066 4.28647 6.64062 4.09082C6.83074 3.90071 7.05751 3.80566 7.32031 3.80566Z" fill="#3E5DE7"/>
<path d="M17.7539 5.43262C17.9774 5.4438 18.1731 5.54127 18.3408 5.72559C18.4359 5.83183 18.5482 6.00024 18.6768 6.22949C18.8109 6.45307 18.9482 6.6995 19.0879 6.96777C19.2276 7.23598 19.3585 7.49339 19.4814 7.73926C19.6715 8.10266 19.8649 8.47432 20.0605 8.85449C20.2562 9.2346 20.4432 9.62043 20.6221 10.0117C20.801 10.3974 20.9608 10.7832 21.1006 11.1689C21.246 11.5548 21.3637 11.9327 21.4531 12.3018C21.7885 13.4479 21.8361 14.5131 21.5957 15.4971C21.3553 16.4755 20.7816 17.4175 19.876 18.3232C19.3616 18.8377 18.8075 19.2491 18.2148 19.5566C17.6222 19.8641 17.0129 20.0597 16.3867 20.1436C16.7892 19.8697 17.175 19.5486 17.5439 19.1797C18.5672 18.1564 19.2357 17.057 19.5488 15.8828C19.8619 14.7031 19.8252 13.4198 19.4395 12.0332C19.35 11.6474 19.2333 11.2499 19.0879 10.8418C18.9425 10.4337 18.7773 10.0285 18.5928 9.62598C18.4139 9.21788 18.2259 8.82129 18.0303 8.43555C17.8402 8.04973 17.6501 7.68261 17.46 7.33594C17.3594 7.13484 17.2565 6.93352 17.1504 6.73242C17.0442 6.53113 16.9373 6.327 16.8311 6.12012C16.8926 5.94119 16.9994 5.79001 17.1504 5.66699C17.3348 5.49947 17.536 5.42144 17.7539 5.43262Z" fill="#3E5DE7"/>
<path d="M10.5244 3.80566C10.7871 3.80575 11.0163 3.9008 11.2119 4.09082L12.6963 5.5752C12.6404 5.78762 12.6037 6.01132 12.5869 6.24609C12.5757 6.47528 12.5844 6.71846 12.6123 6.97559L9.79395 4.15723C9.81066 4.12938 9.82802 4.10756 9.84473 4.09082C10.0348 3.90071 10.2616 3.80566 10.5244 3.80566Z" fill="#3E5DE7"/>
</svg>
