<svg width="40" height="40" viewBox="0 0 40 40" fill="none" xmlns="http://www.w3.org/2000/svg">
<path d="M20.0154 1.59033C22.3662 1.59033 24.5123 1.9701 26.4526 2.72966C28.3827 3.47914 30.0525 4.55276 31.4591 5.94906C32.8552 7.335 33.9334 8.99304 34.6931 10.923C35.4426 12.8532 35.8162 14.9944 35.8162 17.3455V19.717C36.1446 19.912 36.4072 20.2043 36.6023 20.5942C36.7871 20.9741 36.879 21.4161 36.879 21.9191L36.8643 28.2033C36.8642 28.9114 36.6372 29.4752 36.1856 29.896C35.7237 30.3066 35.1186 30.5128 34.3692 30.5129C34.0807 30.5129 33.7995 30.4641 33.5245 30.3729C33.4296 30.6695 33.2714 30.932 33.0444 31.159C32.6543 31.5491 32.1618 31.7449 31.5665 31.745C30.9607 31.745 30.4625 31.5492 30.0723 31.159C29.6823 30.7689 29.4864 30.2765 29.4864 29.6812V20.3794C29.4864 19.7841 29.6824 19.2916 30.0723 18.9015C30.4625 18.5114 30.9607 18.3156 31.5665 18.3156C32.1007 18.3157 32.5517 18.4734 32.9207 18.7876V17.3602C32.9206 14.8039 32.3824 12.5705 31.3044 10.661C30.2162 8.74123 28.7065 7.25225 26.7764 6.19482C24.8361 5.13746 22.582 4.60954 20.0154 4.60954C17.4386 4.60959 15.1844 5.13739 13.2543 6.19482C11.3142 7.25218 9.80589 8.7415 8.72795 10.661C7.63973 12.5705 7.09553 14.8039 7.09546 17.3602V18.7876C7.46439 18.4734 7.9154 18.3157 8.44963 18.3156C9.05537 18.3156 9.55362 18.5114 9.94377 18.9015C10.3337 19.2916 10.5297 19.7841 10.5297 20.3794V29.6812C10.5297 30.2765 10.3338 30.7689 9.94377 31.159C9.55362 31.5492 9.05537 31.745 8.44963 31.745C7.85437 31.7448 7.36179 31.5491 6.97176 31.159C6.96578 31.153 6.96138 31.1455 6.95548 31.1395V31.6522C6.95548 32.3093 7.049 32.7304 7.23381 32.9152C7.4084 33.1101 7.77785 33.2585 8.3422 33.3612L16.682 34.8244C16.7579 34.7476 16.8429 34.6764 16.936 34.6095C17.3364 34.3221 17.7887 34.2198 18.2917 34.3019L21.2638 34.8407C21.7665 34.9331 22.1569 35.1793 22.434 35.5796C22.711 35.9799 22.809 36.4265 22.727 36.9191C22.6448 37.4017 22.4031 37.7872 22.0027 38.0747C21.5922 38.362 21.1455 38.4643 20.6632 38.3823L17.6602 37.8273C17.1674 37.7452 16.7818 37.4991 16.5046 37.0884C16.4174 36.9669 16.3486 36.8408 16.2963 36.7108L7.98739 35.2411C7.10472 35.087 6.4015 34.7473 5.87801 34.2238C5.34432 33.7104 5.07723 32.8428 5.07723 31.6213V30.4657C4.58452 30.3852 4.16893 30.1968 3.83048 29.896C3.36866 29.4752 3.13728 28.9113 3.13713 28.2033L3.12085 21.9191C3.12086 21.4161 3.21876 20.9741 3.41382 20.5942C3.60879 20.2044 3.86566 19.912 4.18368 19.717V17.3455C4.18368 14.9944 4.56926 12.8532 5.33927 10.923C6.09902 8.99297 7.1771 7.33501 8.57332 5.94906C9.96962 4.55276 11.6378 3.47914 13.5782 2.72966C15.5083 1.96996 17.6542 1.59038 20.0154 1.59033Z" fill="#3E5DE7"/>
</svg>
