<svg width="80" height="80" viewBox="0 0 80 80" fill="none" xmlns="http://www.w3.org/2000/svg">
<g filter="url(#filter0_d_1830_6091)">
<path fill-rule="evenodd" clip-rule="evenodd" d="M64.7233 13.021C67.8632 13.021 70.2335 13.8215 71.8326 15.4201C73.4318 16.9999 74.2317 19.3329 74.2317 22.4155V57.6141C74.2317 60.6968 73.4318 63.0297 71.8326 64.6095C70.2335 66.1889 67.8632 66.9793 64.7233 66.9793H15.2474C12.1266 66.9793 9.7664 66.1889 8.16728 64.6095C6.56814 63.0297 5.76819 60.6968 5.76819 57.6141V22.4155C5.76819 19.3329 6.56814 16.9999 8.16728 15.4201C9.7664 13.8214 12.1266 13.021 15.2474 13.021H64.7233ZM28.164 41.9793C25.9875 41.9795 24.1088 42.3476 22.5293 43.0796C20.9501 43.8115 19.6403 44.716 18.6002 45.7944C17.5603 46.8728 16.7799 47.9517 16.2597 49.0301C15.7591 50.0892 15.5081 50.9669 15.5078 51.6603C15.5078 52.1224 15.642 52.5279 15.9114 52.8745C16.2004 53.202 16.6054 53.366 17.1256 53.366H39.2057C39.7449 53.366 40.1502 53.202 40.4199 52.8745C40.6892 52.5279 40.8235 52.1223 40.8235 51.6603C40.8232 50.9669 40.5622 50.0892 40.0423 49.0301C39.5413 47.9517 38.771 46.8728 37.7311 45.7944C36.691 44.7159 35.3712 43.8116 33.7727 43.0796C32.1929 42.3475 30.3219 41.9793 28.164 41.9793ZM47.0963 49.4663C46.5376 49.4663 46.0724 49.6471 45.7063 50.0132C45.3597 50.3792 45.1888 50.8345 45.1888 51.3739C45.1891 51.8738 45.3604 52.3071 45.7063 52.6727C46.0724 53.0195 46.5376 53.1935 47.0963 53.1935H62.2688C62.7884 53.1932 63.2312 53.0192 63.597 52.6727C63.9626 52.307 64.1468 51.8741 64.1471 51.3739C64.1471 50.8344 63.963 50.3792 63.597 50.0132C63.2313 49.6477 62.7882 49.4666 62.2688 49.4663H47.0963ZM47.0963 38.1642C46.5376 38.1642 46.0724 38.3483 45.7063 38.7144C45.36 39.061 45.1888 39.4866 45.1888 39.9871C45.189 40.5258 45.3601 40.9789 45.7063 41.3446C46.0724 41.7106 46.5376 41.8947 47.0963 41.8947H62.2688C62.7884 41.8944 63.2312 41.7102 63.597 41.3446C63.9627 40.9788 64.1468 40.5261 64.1471 39.9871C64.1471 39.4863 63.963 39.0611 63.597 38.7144C63.2312 38.3486 62.7884 38.1646 62.2688 38.1642H47.0963ZM28.164 26.3446C27.0089 26.3448 25.9497 26.6531 24.9869 27.269C24.0237 27.8855 23.2537 28.7057 22.6757 29.7267C22.117 30.7479 21.8359 31.8758 21.8359 33.1089C21.8361 35.0927 22.4522 36.7405 23.6849 38.0503C24.9368 39.3601 26.4306 40.0128 28.164 40.0132C29.9173 40.0132 31.4134 39.3604 32.6464 38.0503C33.879 36.7405 34.4952 35.0926 34.4954 33.1089C34.4954 31.8758 34.2043 30.7479 33.6263 29.7267C33.0675 28.7057 32.3076 27.8855 31.3444 27.269C30.4004 26.6527 29.3391 26.3446 28.164 26.3446ZM47.0963 26.8361C46.5376 26.8361 46.0724 27.0202 45.7063 27.3862C45.3604 27.7328 45.1889 28.1757 45.1888 28.7144C45.1888 29.2346 45.3595 29.6797 45.7063 30.0457C46.0724 30.3925 46.5376 30.5633 47.0963 30.5633H62.2688C62.7881 30.563 63.2313 30.3918 63.597 30.0457C63.963 29.6797 64.1471 29.2346 64.1471 28.7144C64.147 28.1753 63.9626 27.7329 63.597 27.3862C63.2312 27.0205 62.7884 26.8364 62.2688 26.8361H47.0963Z" fill="#304DDF"/>
<path fill-rule="evenodd" clip-rule="evenodd" d="M64.7233 13.021C67.8632 13.021 70.2335 13.8215 71.8326 15.4201C73.4318 16.9999 74.2317 19.3329 74.2317 22.4155V57.6141C74.2317 60.6968 73.4318 63.0297 71.8326 64.6095C70.2335 66.1889 67.8632 66.9793 64.7233 66.9793H15.2474C12.1266 66.9793 9.7664 66.1889 8.16728 64.6095C6.56814 63.0297 5.76819 60.6968 5.76819 57.6141V22.4155C5.76819 19.3329 6.56814 16.9999 8.16728 15.4201C9.7664 13.8214 12.1266 13.021 15.2474 13.021H64.7233ZM28.164 41.9793C25.9875 41.9795 24.1088 42.3476 22.5293 43.0796C20.9501 43.8115 19.6403 44.716 18.6002 45.7944C17.5603 46.8728 16.7799 47.9517 16.2597 49.0301C15.7591 50.0892 15.5081 50.9669 15.5078 51.6603C15.5078 52.1224 15.642 52.5279 15.9114 52.8745C16.2004 53.202 16.6054 53.366 17.1256 53.366H39.2057C39.7449 53.366 40.1502 53.202 40.4199 52.8745C40.6892 52.5279 40.8235 52.1223 40.8235 51.6603C40.8232 50.9669 40.5622 50.0892 40.0423 49.0301C39.5413 47.9517 38.771 46.8728 37.7311 45.7944C36.691 44.7159 35.3712 43.8116 33.7727 43.0796C32.1929 42.3475 30.3219 41.9793 28.164 41.9793ZM47.0963 49.4663C46.5376 49.4663 46.0724 49.6471 45.7063 50.0132C45.3597 50.3792 45.1888 50.8345 45.1888 51.3739C45.1891 51.8738 45.3604 52.3071 45.7063 52.6727C46.0724 53.0195 46.5376 53.1935 47.0963 53.1935H62.2688C62.7884 53.1932 63.2312 53.0192 63.597 52.6727C63.9626 52.307 64.1468 51.8741 64.1471 51.3739C64.1471 50.8344 63.963 50.3792 63.597 50.0132C63.2313 49.6477 62.7882 49.4666 62.2688 49.4663H47.0963ZM47.0963 38.1642C46.5376 38.1642 46.0724 38.3483 45.7063 38.7144C45.36 39.061 45.1888 39.4866 45.1888 39.9871C45.189 40.5258 45.3601 40.9789 45.7063 41.3446C46.0724 41.7106 46.5376 41.8947 47.0963 41.8947H62.2688C62.7884 41.8944 63.2312 41.7102 63.597 41.3446C63.9627 40.9788 64.1468 40.5261 64.1471 39.9871C64.1471 39.4863 63.963 39.0611 63.597 38.7144C63.2312 38.3486 62.7884 38.1646 62.2688 38.1642H47.0963ZM28.164 26.3446C27.0089 26.3448 25.9497 26.6531 24.9869 27.269C24.0237 27.8855 23.2537 28.7057 22.6757 29.7267C22.117 30.7479 21.8359 31.8758 21.8359 33.1089C21.8361 35.0927 22.4522 36.7405 23.6849 38.0503C24.9368 39.3601 26.4306 40.0128 28.164 40.0132C29.9173 40.0132 31.4134 39.3604 32.6464 38.0503C33.879 36.7405 34.4952 35.0926 34.4954 33.1089C34.4954 31.8758 34.2043 30.7479 33.6263 29.7267C33.0675 28.7057 32.3076 27.8855 31.3444 27.269C30.4004 26.6527 29.3391 26.3446 28.164 26.3446ZM47.0963 26.8361C46.5376 26.8361 46.0724 27.0202 45.7063 27.3862C45.3604 27.7328 45.1889 28.1757 45.1888 28.7144C45.1888 29.2346 45.3595 29.6797 45.7063 30.0457C46.0724 30.3925 46.5376 30.5633 47.0963 30.5633H62.2688C62.7881 30.563 63.2313 30.3918 63.597 30.0457C63.963 29.6797 64.1471 29.2346 64.1471 28.7144C64.147 28.1753 63.9626 27.7329 63.597 27.3862C63.2312 27.0205 62.7884 26.8364 62.2688 26.8361H47.0963Z" fill="#304DDF"/>
<path fill-rule="evenodd" clip-rule="evenodd" d="M64.7233 13.021C67.8632 13.021 70.2335 13.8215 71.8326 15.4201C73.4318 16.9999 74.2317 19.3329 74.2317 22.4155V57.6141C74.2317 60.6968 73.4318 63.0297 71.8326 64.6095C70.2335 66.1889 67.8632 66.9793 64.7233 66.9793H15.2474C12.1266 66.9793 9.7664 66.1889 8.16728 64.6095C6.56814 63.0297 5.76819 60.6968 5.76819 57.6141V22.4155C5.76819 19.3329 6.56814 16.9999 8.16728 15.4201C9.7664 13.8214 12.1266 13.021 15.2474 13.021H64.7233ZM28.164 41.9793C25.9875 41.9795 24.1088 42.3476 22.5293 43.0796C20.9501 43.8115 19.6403 44.716 18.6002 45.7944C17.5603 46.8728 16.7799 47.9517 16.2597 49.0301C15.7591 50.0892 15.5081 50.9669 15.5078 51.6603C15.5078 52.1224 15.642 52.5279 15.9114 52.8745C16.2004 53.202 16.6054 53.366 17.1256 53.366H39.2057C39.7449 53.366 40.1502 53.202 40.4199 52.8745C40.6892 52.5279 40.8235 52.1223 40.8235 51.6603C40.8232 50.9669 40.5622 50.0892 40.0423 49.0301C39.5413 47.9517 38.771 46.8728 37.7311 45.7944C36.691 44.7159 35.3712 43.8116 33.7727 43.0796C32.1929 42.3475 30.3219 41.9793 28.164 41.9793ZM47.0963 49.4663C46.5376 49.4663 46.0724 49.6471 45.7063 50.0132C45.3597 50.3792 45.1888 50.8345 45.1888 51.3739C45.1891 51.8738 45.3604 52.3071 45.7063 52.6727C46.0724 53.0195 46.5376 53.1935 47.0963 53.1935H62.2688C62.7884 53.1932 63.2312 53.0192 63.597 52.6727C63.9626 52.307 64.1468 51.8741 64.1471 51.3739C64.1471 50.8344 63.963 50.3792 63.597 50.0132C63.2313 49.6477 62.7882 49.4666 62.2688 49.4663H47.0963ZM47.0963 38.1642C46.5376 38.1642 46.0724 38.3483 45.7063 38.7144C45.36 39.061 45.1888 39.4866 45.1888 39.9871C45.189 40.5258 45.3601 40.9789 45.7063 41.3446C46.0724 41.7106 46.5376 41.8947 47.0963 41.8947H62.2688C62.7884 41.8944 63.2312 41.7102 63.597 41.3446C63.9627 40.9788 64.1468 40.5261 64.1471 39.9871C64.1471 39.4863 63.963 39.0611 63.597 38.7144C63.2312 38.3486 62.7884 38.1646 62.2688 38.1642H47.0963ZM28.164 26.3446C27.0089 26.3448 25.9497 26.6531 24.9869 27.269C24.0237 27.8855 23.2537 28.7057 22.6757 29.7267C22.117 30.7479 21.8359 31.8758 21.8359 33.1089C21.8361 35.0927 22.4522 36.7405 23.6849 38.0503C24.9368 39.3601 26.4306 40.0128 28.164 40.0132C29.9173 40.0132 31.4134 39.3604 32.6464 38.0503C33.879 36.7405 34.4952 35.0926 34.4954 33.1089C34.4954 31.8758 34.2043 30.7479 33.6263 29.7267C33.0675 28.7057 32.3076 27.8855 31.3444 27.269C30.4004 26.6527 29.3391 26.3446 28.164 26.3446ZM47.0963 26.8361C46.5376 26.8361 46.0724 27.0202 45.7063 27.3862C45.3604 27.7328 45.1889 28.1757 45.1888 28.7144C45.1888 29.2346 45.3595 29.6797 45.7063 30.0457C46.0724 30.3925 46.5376 30.5633 47.0963 30.5633H62.2688C62.7881 30.563 63.2313 30.3918 63.597 30.0457C63.963 29.6797 64.1471 29.2346 64.1471 28.7144C64.147 28.1753 63.9626 27.7329 63.597 27.3862C63.2312 27.0205 62.7884 26.8364 62.2688 26.8361H47.0963Z" fill="url(#paint0_linear_1830_6091)"/>
<path fill-rule="evenodd" clip-rule="evenodd" d="M64.7233 13.021C67.8632 13.021 70.2335 13.8215 71.8326 15.4201C73.4318 16.9999 74.2317 19.3329 74.2317 22.4155V57.6141C74.2317 60.6968 73.4318 63.0297 71.8326 64.6095C70.2335 66.1889 67.8632 66.9793 64.7233 66.9793H15.2474C12.1266 66.9793 9.7664 66.1889 8.16728 64.6095C6.56814 63.0297 5.76819 60.6968 5.76819 57.6141V22.4155C5.76819 19.3329 6.56814 16.9999 8.16728 15.4201C9.7664 13.8214 12.1266 13.021 15.2474 13.021H64.7233ZM28.164 41.9793C25.9875 41.9795 24.1088 42.3476 22.5293 43.0796C20.9501 43.8115 19.6403 44.716 18.6002 45.7944C17.5603 46.8728 16.7799 47.9517 16.2597 49.0301C15.7591 50.0892 15.5081 50.9669 15.5078 51.6603C15.5078 52.1224 15.642 52.5279 15.9114 52.8745C16.2004 53.202 16.6054 53.366 17.1256 53.366H39.2057C39.7449 53.366 40.1502 53.202 40.4199 52.8745C40.6892 52.5279 40.8235 52.1223 40.8235 51.6603C40.8232 50.9669 40.5622 50.0892 40.0423 49.0301C39.5413 47.9517 38.771 46.8728 37.7311 45.7944C36.691 44.7159 35.3712 43.8116 33.7727 43.0796C32.1929 42.3475 30.3219 41.9793 28.164 41.9793ZM47.0963 49.4663C46.5376 49.4663 46.0724 49.6471 45.7063 50.0132C45.3597 50.3792 45.1888 50.8345 45.1888 51.3739C45.1891 51.8738 45.3604 52.3071 45.7063 52.6727C46.0724 53.0195 46.5376 53.1935 47.0963 53.1935H62.2688C62.7884 53.1932 63.2312 53.0192 63.597 52.6727C63.9626 52.307 64.1468 51.8741 64.1471 51.3739C64.1471 50.8344 63.963 50.3792 63.597 50.0132C63.2313 49.6477 62.7882 49.4666 62.2688 49.4663H47.0963ZM47.0963 38.1642C46.5376 38.1642 46.0724 38.3483 45.7063 38.7144C45.36 39.061 45.1888 39.4866 45.1888 39.9871C45.189 40.5258 45.3601 40.9789 45.7063 41.3446C46.0724 41.7106 46.5376 41.8947 47.0963 41.8947H62.2688C62.7884 41.8944 63.2312 41.7102 63.597 41.3446C63.9627 40.9788 64.1468 40.5261 64.1471 39.9871C64.1471 39.4863 63.963 39.0611 63.597 38.7144C63.2312 38.3486 62.7884 38.1646 62.2688 38.1642H47.0963ZM28.164 26.3446C27.0089 26.3448 25.9497 26.6531 24.9869 27.269C24.0237 27.8855 23.2537 28.7057 22.6757 29.7267C22.117 30.7479 21.8359 31.8758 21.8359 33.1089C21.8361 35.0927 22.4522 36.7405 23.6849 38.0503C24.9368 39.3601 26.4306 40.0128 28.164 40.0132C29.9173 40.0132 31.4134 39.3604 32.6464 38.0503C33.879 36.7405 34.4952 35.0926 34.4954 33.1089C34.4954 31.8758 34.2043 30.7479 33.6263 29.7267C33.0675 28.7057 32.3076 27.8855 31.3444 27.269C30.4004 26.6527 29.3391 26.3446 28.164 26.3446ZM47.0963 26.8361C46.5376 26.8361 46.0724 27.0202 45.7063 27.3862C45.3604 27.7328 45.1889 28.1757 45.1888 28.7144C45.1888 29.2346 45.3595 29.6797 45.7063 30.0457C46.0724 30.3925 46.5376 30.5633 47.0963 30.5633H62.2688C62.7881 30.563 63.2313 30.3918 63.597 30.0457C63.963 29.6797 64.1471 29.2346 64.1471 28.7144C64.147 28.1753 63.9626 27.7329 63.597 27.3862C63.2312 27.0205 62.7884 26.8364 62.2688 26.8361H47.0963Z" fill="url(#paint1_linear_1830_6091)" fill-opacity="0.39"/>
<path fill-rule="evenodd" clip-rule="evenodd" d="M64.7233 13.021C67.8632 13.021 70.2335 13.8215 71.8326 15.4201C73.4318 16.9999 74.2317 19.3329 74.2317 22.4155V57.6141C74.2317 60.6968 73.4318 63.0297 71.8326 64.6095C70.2335 66.1889 67.8632 66.9793 64.7233 66.9793H15.2474C12.1266 66.9793 9.7664 66.1889 8.16728 64.6095C6.56814 63.0297 5.76819 60.6968 5.76819 57.6141V22.4155C5.76819 19.3329 6.56814 16.9999 8.16728 15.4201C9.7664 13.8214 12.1266 13.021 15.2474 13.021H64.7233ZM28.164 41.9793C25.9875 41.9795 24.1088 42.3476 22.5293 43.0796C20.9501 43.8115 19.6403 44.716 18.6002 45.7944C17.5603 46.8728 16.7799 47.9517 16.2597 49.0301C15.7591 50.0892 15.5081 50.9669 15.5078 51.6603C15.5078 52.1224 15.642 52.5279 15.9114 52.8745C16.2004 53.202 16.6054 53.366 17.1256 53.366H39.2057C39.7449 53.366 40.1502 53.202 40.4199 52.8745C40.6892 52.5279 40.8235 52.1223 40.8235 51.6603C40.8232 50.9669 40.5622 50.0892 40.0423 49.0301C39.5413 47.9517 38.771 46.8728 37.7311 45.7944C36.691 44.7159 35.3712 43.8116 33.7727 43.0796C32.1929 42.3475 30.3219 41.9793 28.164 41.9793ZM47.0963 49.4663C46.5376 49.4663 46.0724 49.6471 45.7063 50.0132C45.3597 50.3792 45.1888 50.8345 45.1888 51.3739C45.1891 51.8738 45.3604 52.3071 45.7063 52.6727C46.0724 53.0195 46.5376 53.1935 47.0963 53.1935H62.2688C62.7884 53.1932 63.2312 53.0192 63.597 52.6727C63.9626 52.307 64.1468 51.8741 64.1471 51.3739C64.1471 50.8344 63.963 50.3792 63.597 50.0132C63.2313 49.6477 62.7882 49.4666 62.2688 49.4663H47.0963ZM47.0963 38.1642C46.5376 38.1642 46.0724 38.3483 45.7063 38.7144C45.36 39.061 45.1888 39.4866 45.1888 39.9871C45.189 40.5258 45.3601 40.9789 45.7063 41.3446C46.0724 41.7106 46.5376 41.8947 47.0963 41.8947H62.2688C62.7884 41.8944 63.2312 41.7102 63.597 41.3446C63.9627 40.9788 64.1468 40.5261 64.1471 39.9871C64.1471 39.4863 63.963 39.0611 63.597 38.7144C63.2312 38.3486 62.7884 38.1646 62.2688 38.1642H47.0963ZM28.164 26.3446C27.0089 26.3448 25.9497 26.6531 24.9869 27.269C24.0237 27.8855 23.2537 28.7057 22.6757 29.7267C22.117 30.7479 21.8359 31.8758 21.8359 33.1089C21.8361 35.0927 22.4522 36.7405 23.6849 38.0503C24.9368 39.3601 26.4306 40.0128 28.164 40.0132C29.9173 40.0132 31.4134 39.3604 32.6464 38.0503C33.879 36.7405 34.4952 35.0926 34.4954 33.1089C34.4954 31.8758 34.2043 30.7479 33.6263 29.7267C33.0675 28.7057 32.3076 27.8855 31.3444 27.269C30.4004 26.6527 29.3391 26.3446 28.164 26.3446ZM47.0963 26.8361C46.5376 26.8361 46.0724 27.0202 45.7063 27.3862C45.3604 27.7328 45.1889 28.1757 45.1888 28.7144C45.1888 29.2346 45.3595 29.6797 45.7063 30.0457C46.0724 30.3925 46.5376 30.5633 47.0963 30.5633H62.2688C62.7881 30.563 63.2313 30.3918 63.597 30.0457C63.963 29.6797 64.1471 29.2346 64.1471 28.7144C64.147 28.1753 63.9626 27.7329 63.597 27.3862C63.2312 27.0205 62.7884 26.8364 62.2688 26.8361H47.0963Z" fill="#3E5DE7" fill-opacity="0.65"/>
<path d="M64.7233 12.9087C67.8811 12.9087 70.2845 13.7138 71.9117 15.3403L72.2076 15.6509C73.6368 17.247 74.3444 19.5084 74.3444 22.4155V57.6138C74.3444 60.7151 73.5392 63.0821 71.9117 64.6899C70.2844 66.2971 67.8808 67.0923 64.7233 67.0923H15.2477C12.1092 67.0923 9.71572 66.2969 8.0885 64.6899C6.46101 63.0821 5.65588 60.7151 5.65588 57.6138V22.4155C5.65588 19.3145 6.46036 16.9482 8.08752 15.3403C9.7147 13.7136 12.1086 12.9087 15.2477 12.9087H64.7233ZM28.1637 42.0923C25.9998 42.0925 24.1382 42.4585 22.5768 43.1821C21.0082 43.9092 19.7103 44.8056 18.6813 45.8726C17.7769 46.8104 17.0723 47.7462 16.566 48.6792L16.361 49.0786C15.8633 50.1314 15.621 50.9917 15.6207 51.6606C15.6208 52.0986 15.7472 52.4788 15.9996 52.8042C16.263 53.1001 16.6333 53.2534 17.1256 53.2534H39.2057L39.3922 53.2466C39.8108 53.2127 40.1193 53.0612 40.3317 52.8042C40.5841 52.4788 40.7105 52.0986 40.7106 51.6606C40.7103 50.9925 40.458 50.1327 39.941 49.0796L39.9401 49.0776C39.4455 48.0131 38.6834 46.9442 37.65 45.8726C36.6213 44.8059 35.3139 43.9092 33.7262 43.1821H33.7252C32.1632 42.4583 30.309 42.0923 28.1637 42.0923ZM47.0963 49.5786C46.5644 49.5786 46.1286 49.7495 45.7858 50.0923C45.4621 50.4351 45.3015 50.8613 45.3014 51.3735C45.3017 51.8436 45.4614 52.2483 45.7858 52.5923C46.1283 52.916 46.5638 53.0806 47.0963 53.0806H62.2692C62.7606 53.0802 63.1751 52.9171 63.5192 52.5913C63.8634 52.2462 64.0345 51.8419 64.0348 51.3735C64.0347 50.8627 63.8611 50.4362 63.5172 50.0923C63.1731 49.7486 62.7589 49.579 62.2692 49.5786H47.0963ZM47.0963 38.2769C46.5649 38.2769 46.1289 38.4504 45.7858 38.7935C45.4614 39.1181 45.3015 39.515 45.3014 39.9868C45.3016 40.4982 45.4625 40.9225 45.7858 41.2651L45.9186 41.3862C46.2392 41.6494 46.6312 41.7817 47.0963 41.7817H62.2692C62.7586 41.7813 63.1727 41.6095 63.5172 41.2651C63.861 40.9213 64.0345 40.4972 64.0348 39.9868C64.0347 39.5173 63.8629 39.1221 63.5192 38.7964L63.5172 38.7935C63.1727 38.4491 62.7586 38.2773 62.2692 38.2769H47.0963ZM28.1637 26.4575C27.0299 26.4578 25.9918 26.7596 25.0475 27.3638C24.1004 27.9699 23.3433 28.7764 22.774 29.7817L22.7731 29.7808C22.2241 30.7843 21.9489 31.8939 21.9489 33.1089L21.9557 33.4722C22.027 35.268 22.6315 36.766 23.7662 37.9722L23.9996 38.2065C25.1817 39.3385 26.5688 39.9005 28.1637 39.9009C29.8851 39.9009 31.3518 39.2611 32.5641 37.9731C33.7749 36.6864 34.3822 35.0672 34.3824 33.1089L34.3698 32.6587C34.3072 31.619 34.025 30.6599 33.528 29.7817V29.7808C32.9781 28.7759 32.2307 27.9698 31.2838 27.3638L31.2828 27.3628C30.3581 26.759 29.3178 26.4575 28.1637 26.4575ZM47.0963 26.9487C46.5649 26.9487 46.1289 27.1223 45.7858 27.4653C45.4632 27.7884 45.3015 28.2019 45.3014 28.7144C45.3014 29.206 45.4615 29.6218 45.7858 29.9653C46.128 30.2887 46.5633 30.4507 47.0963 30.4507H62.2692C62.7607 30.4503 63.1756 30.2894 63.5192 29.9644C63.8628 29.6198 64.0348 29.204 64.0348 28.7144C64.0347 28.2041 63.8609 27.7922 63.5192 27.4683L63.5172 27.4653C63.1727 27.121 62.7586 26.9491 62.2692 26.9487H47.0963Z" stroke="url(#paint2_linear_1830_6091)" stroke-opacity="0.25" stroke-width="0.225"/>
</g>
<defs>
<filter id="filter0_d_1830_6091" x="-2.19" y="-0.99" width="84.38" height="84.38" filterUnits="userSpaceOnUse" color-interpolation-filters="sRGB">
<feFlood flood-opacity="0" result="BackgroundImageFix"/>
<feColorMatrix in="SourceAlpha" type="matrix" values="0 0 0 0 0 0 0 0 0 0 0 0 0 0 0 0 0 0 127 0" result="hardAlpha"/>
<feOffset dy="1.2"/>
<feGaussianBlur stdDeviation="1.095"/>
<feColorMatrix type="matrix" values="0 0 0 0 0.243137 0 0 0 0 0.364706 0 0 0 0 0.905882 0 0 0 0.15 0"/>
<feBlend mode="normal" in2="BackgroundImageFix" result="effect1_dropShadow_1830_6091"/>
<feBlend mode="normal" in="SourceGraphic" in2="effect1_dropShadow_1830_6091" result="shape"/>
</filter>
<linearGradient id="paint0_linear_1830_6091" x1="21.0821" y1="0.0821071" x2="40" y2="66.9793" gradientUnits="userSpaceOnUse">
<stop offset="0.670868" stop-color="#000091"/>
<stop offset="1" stop-color="#000091" stop-opacity="0"/>
</linearGradient>
<linearGradient id="paint1_linear_1830_6091" x1="57.2834" y1="13.021" x2="54.1901" y2="41.2817" gradientUnits="userSpaceOnUse">
<stop stop-color="#F4C858"/>
<stop offset="1" stop-color="#F4C858" stop-opacity="0"/>
</linearGradient>
<linearGradient id="paint2_linear_1830_6091" x1="40" y1="13.021" x2="40" y2="66.9793" gradientUnits="userSpaceOnUse">
<stop stop-color="white"/>
<stop offset="0.519231" stop-color="white" stop-opacity="0"/>
<stop offset="1" stop-color="white"/>
</linearGradient>
</defs>
</svg>
