<svg width="95" height="22" viewBox="0 0 95 22" fill="none" xmlns="http://www.w3.org/2000/svg">
<g clip-path="url(#clip0_1830_8095)">
<g opacity="0.75">
<mask id="mask0_1830_8095" style="mask-type:luminance" maskUnits="userSpaceOnUse" x="0" y="0" width="95" height="22">
<path d="M94.0371 0H0V21.4068H94.0371V0Z" fill="white"/>
</mask>
<g mask="url(#mask0_1830_8095)">
<path d="M3.5926 0H0V21.0733H13.033V17.9955H3.5926V0Z" fill="#555E74"/>
<path d="M18.963 9.59424H15.4819V21.0731H18.963V9.59424Z" fill="#555E74"/>
<path d="M29.2108 20.6569L24.783 6.12744H21.3019L25.9527 21.0731H32.4688L37.1196 6.12744H33.6104L29.2108 20.6569Z" fill="#555E74"/>
<path d="M45.7558 5.79688C41.2437 5.79688 38.3756 9.01367 38.3756 13.5885C38.3756 18.136 41.1603 21.4079 45.7558 21.4079C49.2641 21.4079 51.7985 19.8551 52.7452 16.6662H49.2054C48.6767 18.1081 47.7011 18.9692 45.7797 18.9692C43.6633 18.9692 42.1879 17.4994 41.9096 14.6165H52.9929C53.0459 14.249 53.0735 13.8783 53.0756 13.507C53.0764 8.8467 50.1802 5.79688 45.7558 5.79688ZM41.9368 12.2017C42.2995 9.51291 43.7194 8.23721 45.7558 8.23721C47.8994 8.23721 49.3475 9.81727 49.5152 12.2017H41.9368Z" fill="#555E74"/>
<path d="M73.4313 0H68.9201L60.1761 9.64958V0H56.5835V21.0733H60.1761V10.426L69.8114 21.0733H74.4061L64.3254 9.98185L73.4313 0Z" fill="#555E74"/>
<path d="M79.4454 6.12744H75.9644V17.6063H79.4454V6.12744Z" fill="#555E74"/>
<path d="M15.4823 6.12744H12.0012V9.59347H15.4823V6.12744Z" fill="#555E74"/>
<path d="M82.9269 17.6079H79.446V21.0739H82.9269V17.6079Z" fill="#555E74"/>
<path d="M93.3282 17.6079H89.8473V21.0739H93.3282V17.6079Z" fill="#555E74"/>
<path d="M93.3281 9.59362V6.12763H89.8472V0H86.3655V6.12763H82.8846V9.59362H86.3655V17.6073H89.8472V9.59362H93.3281Z" fill="#555E74"/>
</g>
</g>
</g>
<defs>
<clipPath id="clip0_1830_8095">
<rect width="94.0371" height="21.4068" fill="white"/>
</clipPath>
</defs>
</svg>
