<svg width="105" height="45" viewBox="0 0 105 45" fill="none" xmlns="http://www.w3.org/2000/svg">
<g opacity="0.75" clip-path="url(#clip0_1830_8092)">
<path d="M1.29943 1.01539V43.3875H4.34544V44.4037H0.131836V0.00468254H4.34405V1.02095L1.29943 1.01539ZM13.0309 14.4476V16.5912H13.092C13.6258 15.8085 14.3321 15.1588 15.1564 14.6919C15.9617 14.2435 16.8849 14.0186 17.9234 14.0186C18.923 14.0186 19.8351 14.2129 20.6612 14.6017C21.4872 14.989 22.1148 15.6721 22.5424 16.6522C23.0116 15.9581 23.6475 15.3458 24.4541 14.8155C25.2594 14.2837 26.2118 14.0186 27.3141 14.0186C28.1499 14.0186 28.9246 14.1213 29.6382 14.324C30.3518 14.5295 30.9627 14.8557 31.4736 15.3056C31.9817 15.754 32.3801 16.3413 32.6661 17.066C32.9508 17.7907 33.0938 18.6626 33.0938 19.6858V30.2829H28.7524V21.3087C28.7524 20.777 28.7316 20.2772 28.6913 19.8065C28.6623 19.38 28.548 18.9637 28.3554 18.582C28.1705 18.2338 27.8889 17.9465 27.5446 17.7546C27.1878 17.5519 26.7032 17.4491 26.091 17.4491C25.4801 17.4491 24.9859 17.5672 24.6082 17.8004C24.2306 18.0364 23.9349 18.3418 23.7211 18.7195C23.5001 19.1183 23.3552 19.5547 23.2935 20.0065C23.2214 20.4881 23.1852 20.9744 23.1852 21.4614V30.2829H18.8425V21.4004C18.8425 20.9311 18.8327 20.466 18.8133 20.0065C18.7976 19.571 18.7093 19.1412 18.5523 18.7347C18.4024 18.3507 18.1352 18.0237 17.7887 17.8004C17.4305 17.5672 16.9057 17.4491 16.213 17.4491C15.9379 17.4607 15.6654 17.5074 15.4022 17.588C15.0434 17.6914 14.7101 17.8682 14.4234 18.1072C14.1068 18.3627 13.8375 18.7306 13.6126 19.2096C13.3891 19.6899 13.2766 20.3175 13.2766 21.0935V30.2829H8.93251V14.442L13.0309 14.4476ZM35.8829 16.7758C36.3217 16.1105 36.9074 15.5548 37.5947 15.1514C38.3199 14.7309 39.1108 14.4357 39.9341 14.2782C40.7953 14.1055 41.6714 14.0185 42.5497 14.0186C43.3452 14.0186 44.1505 14.0741 44.9654 14.1866C45.7818 14.299 46.5259 14.5198 47.1993 14.846C47.8712 15.1723 48.421 15.6263 48.8514 16.208C49.279 16.7911 49.4928 17.5616 49.4928 18.5209V26.7593C49.4928 27.4757 49.5344 28.1588 49.615 28.8113C49.6955 29.4652 49.8385 29.9553 50.0426 30.2829H45.6402C45.4737 29.7871 45.371 29.272 45.3347 28.7502C44.6406 29.4652 43.8256 29.9664 42.8885 30.251C41.9567 30.5361 40.9877 30.6812 40.0132 30.6814C39.258 30.6814 38.5555 30.5884 37.903 30.4037C37.2803 30.2357 36.6978 29.9444 36.1897 29.5471C35.6966 29.1546 35.3036 28.6508 35.043 28.0769C34.7667 27.4854 34.6293 26.7802 34.6293 25.9638C34.6293 25.0656 34.7875 24.3256 35.1041 23.7425C35.4192 23.1608 35.826 22.6971 36.3272 22.3486C36.827 22.0015 37.3976 21.7419 38.0404 21.5683C38.6818 21.3948 39.3302 21.2574 39.9827 21.1546C40.6352 21.0533 41.2766 20.9714 41.9083 20.9103C42.5414 20.8492 43.1023 20.7576 43.591 20.634C44.0811 20.5118 44.467 20.3327 44.753 20.0981C45.039 19.8635 45.1709 19.5219 45.1515 19.0707C45.1515 18.6029 45.0751 18.2294 44.921 17.9545C44.7784 17.6892 44.5675 17.4668 44.3101 17.3103C44.0373 17.1514 43.7358 17.0476 43.423 17.0049C43.0635 16.9526 42.7006 16.9271 42.3373 16.9285C41.4807 16.9285 40.8087 17.1118 40.3187 17.4797C39.83 17.8462 39.544 18.4599 39.4621 19.3165H35.1193C35.1804 18.296 35.4345 17.4491 35.8829 16.7758ZM44.4615 22.9164C44.171 23.0119 43.8747 23.0884 43.5743 23.1455C43.245 23.2088 42.9134 23.2597 42.5803 23.2982C42.2332 23.3399 41.8861 23.3912 41.5404 23.4509C41.2143 23.5123 40.8925 23.5943 40.5769 23.6967C40.2814 23.789 40.0029 23.9287 39.7522 24.1104C39.5162 24.2839 39.3288 24.5047 39.1858 24.7685C39.0428 25.035 38.972 25.371 38.972 25.7792C38.972 26.1679 39.0428 26.4942 39.1858 26.7593C39.3288 27.0259 39.5218 27.2342 39.7675 27.3883C40.0118 27.541 40.2964 27.6479 40.6241 27.709C40.949 27.7701 41.2863 27.8006 41.632 27.8006C42.4886 27.8006 43.1509 27.659 43.6201 27.3716C44.0894 27.087 44.4351 26.7441 44.6614 26.3456C44.8835 25.9485 45.0223 25.5459 45.0737 25.1378C45.1237 24.7282 45.1501 24.4019 45.1501 24.1562V22.5319C44.9492 22.7058 44.7149 22.8366 44.4615 22.9164ZM60.9271 14.4476V17.3575H57.7465V25.1975C57.7465 25.9333 57.8686 26.4234 58.113 26.6677C58.3573 26.9134 58.8474 27.0356 59.5805 27.0356C59.8262 27.0356 60.0594 27.0259 60.2843 27.0051C60.5079 26.9843 60.7231 26.9537 60.9271 26.9134V30.2816C60.5218 30.3469 60.1129 30.3881 59.7026 30.4051C59.2646 30.4249 58.8263 30.4351 58.3879 30.4357C57.7159 30.4357 57.0773 30.3885 56.4761 30.2968C55.9173 30.2197 55.378 30.0379 54.8865 29.7609C54.4251 29.4931 54.0488 29.1004 53.8008 28.628C53.5356 28.138 53.4024 27.4952 53.4024 26.6983V17.3575H50.7728V14.4476H53.4024V9.69945H57.7465V14.4476H60.9271ZM67.1344 14.4476V17.3881H67.1955C67.6115 16.3938 68.3143 15.5461 69.2141 14.9529C69.6598 14.6583 70.1437 14.4261 70.6525 14.2629C71.1664 14.0993 71.7027 14.0168 72.2421 14.0186C72.5281 14.0186 72.8432 14.0699 73.1903 14.1713V18.2141C72.9477 18.1674 72.7031 18.1317 72.4573 18.1072C72.1829 18.0772 71.9072 18.0619 71.6312 18.0614C70.8357 18.0614 70.1624 18.1947 69.6126 18.4599C69.0858 18.7061 68.6287 19.0797 68.2826 19.5469C67.9361 20.0284 67.6914 20.5754 67.5634 21.1546C67.4164 21.8079 67.3447 22.4759 67.3496 23.1455V30.2816H63.0069V14.4545L67.1344 14.4476ZM75.0257 11.9971V8.41246H79.3684V11.9971H75.0257ZM79.3684 14.4476V30.2746H75.0271V14.4476H79.3684ZM81.6314 14.4476H86.5864L89.37 18.582L92.1217 14.4476H96.924L91.7246 21.8599L97.5668 30.2829H92.6104L89.3089 25.2905L86.0047 30.2829H81.1427L86.8307 21.9515L81.6314 14.4476ZM102.873 43.3805V1.00845H99.827V-0.0078125H104.041V44.3912H99.827V43.375L102.873 43.3805Z" fill="#555E74"/>
</g>
<defs>
<clipPath id="clip0_1830_8092">
<rect width="104.125" height="44.4268" fill="white"/>
</clipPath>
</defs>
</svg>
