<svg width="24" height="24" viewBox="0 0 24 24" fill="none" xmlns="http://www.w3.org/2000/svg">
<path d="M6.28613 16.5527C6.39893 16.5584 6.49204 16.5605 6.56543 16.5605C7.65036 16.5831 8.49273 16.62 9.0918 16.6709C9.69654 16.7161 10.1887 16.7783 10.5674 16.8574L11.0508 19.0449C11.1525 19.4857 11.1409 19.8673 11.0166 20.1895C10.8923 20.5115 10.6887 20.7572 10.4062 20.9268C10.1237 21.102 9.80117 21.1895 9.43945 21.1895C8.91966 21.1894 8.51042 21.0566 8.21094 20.791C7.91139 20.5254 7.64795 20.1554 7.42188 19.6807L5.93848 16.5439C6.05715 16.5439 6.17311 16.5471 6.28613 16.5527Z" fill="#3E5DE7"/>
<path d="M19.8252 2.81055C20.1811 2.81059 20.4944 2.88968 20.7656 3.04785C21.0424 3.20038 21.2576 3.41466 21.4102 3.69141C21.5684 3.96834 21.6475 4.28554 21.6475 4.6416V17.7646C21.6475 18.1151 21.5684 18.4291 21.4102 18.7061C21.2576 18.9829 21.0425 19.198 20.7656 19.3506C20.4945 19.503 20.181 19.5791 19.8252 19.5791C19.4691 19.5791 19.1519 19.5032 18.875 19.3506C18.6039 19.198 18.3897 18.9828 18.2314 18.7061C18.0788 18.4291 18.002 18.1151 18.002 17.7646V4.6416C18.002 4.28554 18.0788 3.96834 18.2314 3.69141C18.3896 3.41485 18.6041 3.20035 18.875 3.04785C19.1519 2.8896 19.4691 2.81055 19.8252 2.81055Z" fill="#3E5DE7"/>
<path d="M16.7988 5.05664V17.417C16.8045 17.4679 16.8066 17.5163 16.8066 17.5615C15.9985 17.1659 15.1394 16.8212 14.2295 16.5273C13.3252 16.2278 12.4177 15.9822 11.5078 15.79C10.598 15.5923 9.73877 15.4478 8.93066 15.3574V7.1084C9.6767 7.02927 10.5082 6.89333 11.4238 6.70117C12.3392 6.50339 13.263 6.25455 14.1953 5.95508C15.1334 5.64991 16.0041 5.29988 16.8066 4.9043C16.801 4.95507 16.7988 5.00587 16.7988 5.05664Z" fill="#3E5DE7"/>
<path d="M7.70996 15.3486H5.98926C4.80817 15.3486 3.90684 15.0492 3.28516 14.4502C2.66346 13.8455 2.35254 12.9749 2.35254 11.8389V10.627C2.35254 9.49094 2.66346 8.62037 3.28516 8.01562C3.90685 7.41093 4.80809 7.1084 5.98926 7.1084H7.70996V15.3486Z" fill="#3E5DE7"/>
</svg>
