<svg width="82" height="80" viewBox="0 0 82 80" fill="none" xmlns="http://www.w3.org/2000/svg">
<g filter="url(#filter0_d_1782_2719)">
<path fill-rule="evenodd" clip-rule="evenodd" d="M69.6326 9.46045C72.8113 9.46045 75.2538 10.292 76.9574 11.954C78.6605 13.616 79.5113 16.0151 79.5114 19.1516V32.8947C79.5114 34.3073 79.1066 35.4287 78.2964 36.2597C77.4655 37.0699 76.448 37.4746 75.2431 37.4747C74.5783 37.4747 73.9326 37.3408 73.3093 37.0707C72.6662 36.8009 72.0441 36.4061 71.4424 35.8876C70.7152 35.2435 69.9435 34.7349 69.1333 34.3609C68.3232 33.9664 67.4614 33.7662 66.5475 33.7662C64.865 33.7663 63.4204 34.338 62.2156 35.4805C61.0107 36.6231 60.409 38.1413 60.409 40.0318C60.4092 41.9215 61.0114 43.4376 62.2156 44.58C63.4204 45.7017 64.865 46.2623 66.5475 46.2625C67.4612 46.2625 68.3234 46.0763 69.1333 45.7027C69.9435 45.308 70.7152 44.7883 71.4424 44.1443C72.0441 43.6257 72.6662 43.231 73.3093 42.9611C73.9326 42.691 74.5783 42.554 75.2431 42.554C76.4476 42.5541 77.4656 42.9703 78.2964 43.8008C79.1067 44.6318 79.5114 45.7452 79.5114 47.1372V60.8167C79.5114 63.9531 78.6603 66.3522 76.9574 68.0142C75.2538 69.697 72.8113 70.5396 69.6326 70.5396H31.2085C28.0302 70.5395 25.5982 69.6969 23.9155 68.0142C22.2129 66.3523 21.3615 63.9528 21.3615 60.8167V50.3781C21.3615 50.1293 21.279 49.962 21.1134 49.8788C20.9472 49.7749 20.7063 49.8269 20.3946 50.0346C19.7926 50.4498 19.1601 50.8141 18.4959 51.1256C17.8107 51.437 17.0932 51.686 16.3458 51.873C15.5771 52.06 14.7755 52.1529 13.9445 52.1529C11.9505 52.1528 10.071 51.6548 8.3054 50.658C6.53949 49.64 5.11426 48.2258 4.03394 46.4184C2.95434 44.6115 2.41523 42.4932 2.41504 40.0636C2.41504 37.6543 2.95417 35.5447 4.03394 33.7375C5.11426 31.9301 6.53949 30.5269 8.3054 29.5297C10.071 28.5327 11.9504 28.0349 13.9445 28.0348C14.7755 28.0348 15.5771 28.1277 16.3458 28.3147C17.0932 28.4809 17.8108 28.73 18.4959 29.0621C19.1601 29.3736 19.7926 29.7379 20.3946 30.1531C20.7063 30.34 20.9472 30.392 21.1134 30.3089C21.2793 30.205 21.3615 30.0268 21.3615 29.7778V19.1516C21.3616 16.0153 22.2128 13.6159 23.9155 11.954C25.5982 10.2921 28.0302 9.46057 31.2085 9.46045H69.6326ZM31.3039 15.319C30.0158 15.319 29.0174 15.6828 28.311 16.4099C27.5842 17.1161 27.2202 18.1232 27.2201 19.4314V32.8947C27.2201 34.3074 26.8153 35.4397 26.0051 36.2915C25.1743 37.1431 24.1564 37.5699 22.9518 37.5701C22.2662 37.5701 21.6095 37.4331 20.9862 37.163C20.3635 36.8929 19.7498 36.4877 19.1479 35.948C18.4006 35.3254 17.6228 34.8158 16.8134 34.4213C16.0031 34.0266 15.1495 33.8298 14.2562 33.8298C12.5735 33.8298 11.1292 34.4015 9.9243 35.5441C8.71962 36.6867 8.11775 38.1941 8.11775 40.0636C8.11803 41.9536 8.71965 43.4805 9.9243 44.6436C11.1292 45.7862 12.5735 46.3579 14.2562 46.3579C15.1495 46.3579 16.0031 46.1611 16.8134 45.7663C17.6229 45.3718 18.4005 44.8513 19.1479 44.2079C19.7501 43.6887 20.3632 43.2916 20.9862 43.0215C21.6095 42.7515 22.2662 42.6176 22.9518 42.6176C24.1564 42.6178 25.1743 43.0446 26.0051 43.8962C26.8151 44.7479 27.2201 45.8805 27.2201 47.293V60.5368C27.2201 61.8662 27.5841 62.8838 28.311 63.5901C29.0174 64.2965 30.0158 64.6492 31.3039 64.6492H69.5404C70.8281 64.6491 71.8349 64.2962 72.5619 63.5901C73.289 62.8838 73.6528 61.8663 73.6528 60.5368V50.6898C73.6528 50.0464 73.5185 49.7536 73.2489 49.8152C72.958 49.8775 72.6651 50.0035 72.3743 50.1905C71.7724 50.5433 71.1506 50.8668 70.5073 51.1574C69.8636 51.4273 69.1872 51.6432 68.4813 51.8094C67.7749 51.9756 67.0363 52.0606 66.2676 52.0606C64.2531 52.0606 62.3731 51.5624 60.6285 50.5658C58.8626 49.5686 57.4374 48.1654 56.357 46.3579C55.256 44.5506 54.7064 42.4415 54.7063 40.0318C54.7063 37.6013 55.2561 35.4813 56.357 33.6739C57.4374 31.8665 58.8626 30.4633 60.6285 29.4661C62.3732 28.4694 64.253 27.9712 66.2676 27.9712C67.0363 27.9712 67.7749 28.0531 68.4813 28.2193C69.1874 28.3647 69.8634 28.5837 70.5073 28.8745C71.1508 29.1651 71.7722 29.4995 72.3743 29.8732C72.6651 30.0394 72.958 30.1622 73.2489 30.2453C73.5187 30.3073 73.6528 30.0065 73.6528 29.342V19.4314C73.6527 18.123 73.2889 17.1162 72.5619 16.4099C71.8349 15.683 70.8281 15.3191 69.5404 15.319H31.3039Z" fill="#304DDF"/>
<path fill-rule="evenodd" clip-rule="evenodd" d="M69.6326 9.46045C72.8113 9.46045 75.2538 10.292 76.9574 11.954C78.6605 13.616 79.5113 16.0151 79.5114 19.1516V32.8947C79.5114 34.3073 79.1066 35.4287 78.2964 36.2597C77.4655 37.0699 76.448 37.4746 75.2431 37.4747C74.5783 37.4747 73.9326 37.3408 73.3093 37.0707C72.6662 36.8009 72.0441 36.4061 71.4424 35.8876C70.7152 35.2435 69.9435 34.7349 69.1333 34.3609C68.3232 33.9664 67.4614 33.7662 66.5475 33.7662C64.865 33.7663 63.4204 34.338 62.2156 35.4805C61.0107 36.6231 60.409 38.1413 60.409 40.0318C60.4092 41.9215 61.0114 43.4376 62.2156 44.58C63.4204 45.7017 64.865 46.2623 66.5475 46.2625C67.4612 46.2625 68.3234 46.0763 69.1333 45.7027C69.9435 45.308 70.7152 44.7883 71.4424 44.1443C72.0441 43.6257 72.6662 43.231 73.3093 42.9611C73.9326 42.691 74.5783 42.554 75.2431 42.554C76.4476 42.5541 77.4656 42.9703 78.2964 43.8008C79.1067 44.6318 79.5114 45.7452 79.5114 47.1372V60.8167C79.5114 63.9531 78.6603 66.3522 76.9574 68.0142C75.2538 69.697 72.8113 70.5396 69.6326 70.5396H31.2085C28.0302 70.5395 25.5982 69.6969 23.9155 68.0142C22.2129 66.3523 21.3615 63.9528 21.3615 60.8167V50.3781C21.3615 50.1293 21.279 49.962 21.1134 49.8788C20.9472 49.7749 20.7063 49.8269 20.3946 50.0346C19.7926 50.4498 19.1601 50.8141 18.4959 51.1256C17.8107 51.437 17.0932 51.686 16.3458 51.873C15.5771 52.06 14.7755 52.1529 13.9445 52.1529C11.9505 52.1528 10.071 51.6548 8.3054 50.658C6.53949 49.64 5.11426 48.2258 4.03394 46.4184C2.95434 44.6115 2.41523 42.4932 2.41504 40.0636C2.41504 37.6543 2.95417 35.5447 4.03394 33.7375C5.11426 31.9301 6.53949 30.5269 8.3054 29.5297C10.071 28.5327 11.9504 28.0349 13.9445 28.0348C14.7755 28.0348 15.5771 28.1277 16.3458 28.3147C17.0932 28.4809 17.8108 28.73 18.4959 29.0621C19.1601 29.3736 19.7926 29.7379 20.3946 30.1531C20.7063 30.34 20.9472 30.392 21.1134 30.3089C21.2793 30.205 21.3615 30.0268 21.3615 29.7778V19.1516C21.3616 16.0153 22.2128 13.6159 23.9155 11.954C25.5982 10.2921 28.0302 9.46057 31.2085 9.46045H69.6326ZM31.3039 15.319C30.0158 15.319 29.0174 15.6828 28.311 16.4099C27.5842 17.1161 27.2202 18.1232 27.2201 19.4314V32.8947C27.2201 34.3074 26.8153 35.4397 26.0051 36.2915C25.1743 37.1431 24.1564 37.5699 22.9518 37.5701C22.2662 37.5701 21.6095 37.4331 20.9862 37.163C20.3635 36.8929 19.7498 36.4877 19.1479 35.948C18.4006 35.3254 17.6228 34.8158 16.8134 34.4213C16.0031 34.0266 15.1495 33.8298 14.2562 33.8298C12.5735 33.8298 11.1292 34.4015 9.9243 35.5441C8.71962 36.6867 8.11775 38.1941 8.11775 40.0636C8.11803 41.9536 8.71965 43.4805 9.9243 44.6436C11.1292 45.7862 12.5735 46.3579 14.2562 46.3579C15.1495 46.3579 16.0031 46.1611 16.8134 45.7663C17.6229 45.3718 18.4005 44.8513 19.1479 44.2079C19.7501 43.6887 20.3632 43.2916 20.9862 43.0215C21.6095 42.7515 22.2662 42.6176 22.9518 42.6176C24.1564 42.6178 25.1743 43.0446 26.0051 43.8962C26.8151 44.7479 27.2201 45.8805 27.2201 47.293V60.5368C27.2201 61.8662 27.5841 62.8838 28.311 63.5901C29.0174 64.2965 30.0158 64.6492 31.3039 64.6492H69.5404C70.8281 64.6491 71.8349 64.2962 72.5619 63.5901C73.289 62.8838 73.6528 61.8663 73.6528 60.5368V50.6898C73.6528 50.0464 73.5185 49.7536 73.2489 49.8152C72.958 49.8775 72.6651 50.0035 72.3743 50.1905C71.7724 50.5433 71.1506 50.8668 70.5073 51.1574C69.8636 51.4273 69.1872 51.6432 68.4813 51.8094C67.7749 51.9756 67.0363 52.0606 66.2676 52.0606C64.2531 52.0606 62.3731 51.5624 60.6285 50.5658C58.8626 49.5686 57.4374 48.1654 56.357 46.3579C55.256 44.5506 54.7064 42.4415 54.7063 40.0318C54.7063 37.6013 55.2561 35.4813 56.357 33.6739C57.4374 31.8665 58.8626 30.4633 60.6285 29.4661C62.3732 28.4694 64.253 27.9712 66.2676 27.9712C67.0363 27.9712 67.7749 28.0531 68.4813 28.2193C69.1874 28.3647 69.8634 28.5837 70.5073 28.8745C71.1508 29.1651 71.7722 29.4995 72.3743 29.8732C72.6651 30.0394 72.958 30.1622 73.2489 30.2453C73.5187 30.3073 73.6528 30.0065 73.6528 29.342V19.4314C73.6527 18.123 73.2889 17.1162 72.5619 16.4099C71.8349 15.683 70.8281 15.3191 69.5404 15.319H31.3039Z" fill="#304DDF"/>
<path fill-rule="evenodd" clip-rule="evenodd" d="M69.6326 9.46045C72.8113 9.46045 75.2538 10.292 76.9574 11.954C78.6605 13.616 79.5113 16.0151 79.5114 19.1516V32.8947C79.5114 34.3073 79.1066 35.4287 78.2964 36.2597C77.4655 37.0699 76.448 37.4746 75.2431 37.4747C74.5783 37.4747 73.9326 37.3408 73.3093 37.0707C72.6662 36.8009 72.0441 36.4061 71.4424 35.8876C70.7152 35.2435 69.9435 34.7349 69.1333 34.3609C68.3232 33.9664 67.4614 33.7662 66.5475 33.7662C64.865 33.7663 63.4204 34.338 62.2156 35.4805C61.0107 36.6231 60.409 38.1413 60.409 40.0318C60.4092 41.9215 61.0114 43.4376 62.2156 44.58C63.4204 45.7017 64.865 46.2623 66.5475 46.2625C67.4612 46.2625 68.3234 46.0763 69.1333 45.7027C69.9435 45.308 70.7152 44.7883 71.4424 44.1443C72.0441 43.6257 72.6662 43.231 73.3093 42.9611C73.9326 42.691 74.5783 42.554 75.2431 42.554C76.4476 42.5541 77.4656 42.9703 78.2964 43.8008C79.1067 44.6318 79.5114 45.7452 79.5114 47.1372V60.8167C79.5114 63.9531 78.6603 66.3522 76.9574 68.0142C75.2538 69.697 72.8113 70.5396 69.6326 70.5396H31.2085C28.0302 70.5395 25.5982 69.6969 23.9155 68.0142C22.2129 66.3523 21.3615 63.9528 21.3615 60.8167V50.3781C21.3615 50.1293 21.279 49.962 21.1134 49.8788C20.9472 49.7749 20.7063 49.8269 20.3946 50.0346C19.7926 50.4498 19.1601 50.8141 18.4959 51.1256C17.8107 51.437 17.0932 51.686 16.3458 51.873C15.5771 52.06 14.7755 52.1529 13.9445 52.1529C11.9505 52.1528 10.071 51.6548 8.3054 50.658C6.53949 49.64 5.11426 48.2258 4.03394 46.4184C2.95434 44.6115 2.41523 42.4932 2.41504 40.0636C2.41504 37.6543 2.95417 35.5447 4.03394 33.7375C5.11426 31.9301 6.53949 30.5269 8.3054 29.5297C10.071 28.5327 11.9504 28.0349 13.9445 28.0348C14.7755 28.0348 15.5771 28.1277 16.3458 28.3147C17.0932 28.4809 17.8108 28.73 18.4959 29.0621C19.1601 29.3736 19.7926 29.7379 20.3946 30.1531C20.7063 30.34 20.9472 30.392 21.1134 30.3089C21.2793 30.205 21.3615 30.0268 21.3615 29.7778V19.1516C21.3616 16.0153 22.2128 13.6159 23.9155 11.954C25.5982 10.2921 28.0302 9.46057 31.2085 9.46045H69.6326ZM31.3039 15.319C30.0158 15.319 29.0174 15.6828 28.311 16.4099C27.5842 17.1161 27.2202 18.1232 27.2201 19.4314V32.8947C27.2201 34.3074 26.8153 35.4397 26.0051 36.2915C25.1743 37.1431 24.1564 37.5699 22.9518 37.5701C22.2662 37.5701 21.6095 37.4331 20.9862 37.163C20.3635 36.8929 19.7498 36.4877 19.1479 35.948C18.4006 35.3254 17.6228 34.8158 16.8134 34.4213C16.0031 34.0266 15.1495 33.8298 14.2562 33.8298C12.5735 33.8298 11.1292 34.4015 9.9243 35.5441C8.71962 36.6867 8.11775 38.1941 8.11775 40.0636C8.11803 41.9536 8.71965 43.4805 9.9243 44.6436C11.1292 45.7862 12.5735 46.3579 14.2562 46.3579C15.1495 46.3579 16.0031 46.1611 16.8134 45.7663C17.6229 45.3718 18.4005 44.8513 19.1479 44.2079C19.7501 43.6887 20.3632 43.2916 20.9862 43.0215C21.6095 42.7515 22.2662 42.6176 22.9518 42.6176C24.1564 42.6178 25.1743 43.0446 26.0051 43.8962C26.8151 44.7479 27.2201 45.8805 27.2201 47.293V60.5368C27.2201 61.8662 27.5841 62.8838 28.311 63.5901C29.0174 64.2965 30.0158 64.6492 31.3039 64.6492H69.5404C70.8281 64.6491 71.8349 64.2962 72.5619 63.5901C73.289 62.8838 73.6528 61.8663 73.6528 60.5368V50.6898C73.6528 50.0464 73.5185 49.7536 73.2489 49.8152C72.958 49.8775 72.6651 50.0035 72.3743 50.1905C71.7724 50.5433 71.1506 50.8668 70.5073 51.1574C69.8636 51.4273 69.1872 51.6432 68.4813 51.8094C67.7749 51.9756 67.0363 52.0606 66.2676 52.0606C64.2531 52.0606 62.3731 51.5624 60.6285 50.5658C58.8626 49.5686 57.4374 48.1654 56.357 46.3579C55.256 44.5506 54.7064 42.4415 54.7063 40.0318C54.7063 37.6013 55.2561 35.4813 56.357 33.6739C57.4374 31.8665 58.8626 30.4633 60.6285 29.4661C62.3732 28.4694 64.253 27.9712 66.2676 27.9712C67.0363 27.9712 67.7749 28.0531 68.4813 28.2193C69.1874 28.3647 69.8634 28.5837 70.5073 28.8745C71.1508 29.1651 71.7722 29.4995 72.3743 29.8732C72.6651 30.0394 72.958 30.1622 73.2489 30.2453C73.5187 30.3073 73.6528 30.0065 73.6528 29.342V19.4314C73.6527 18.123 73.2889 17.1162 72.5619 16.4099C71.8349 15.683 70.8281 15.3191 69.5404 15.319H31.3039Z" fill="url(#paint0_linear_1782_2719)"/>
<path fill-rule="evenodd" clip-rule="evenodd" d="M69.6326 9.46045C72.8113 9.46045 75.2538 10.292 76.9574 11.954C78.6605 13.616 79.5113 16.0151 79.5114 19.1516V32.8947C79.5114 34.3073 79.1066 35.4287 78.2964 36.2597C77.4655 37.0699 76.448 37.4746 75.2431 37.4747C74.5783 37.4747 73.9326 37.3408 73.3093 37.0707C72.6662 36.8009 72.0441 36.4061 71.4424 35.8876C70.7152 35.2435 69.9435 34.7349 69.1333 34.3609C68.3232 33.9664 67.4614 33.7662 66.5475 33.7662C64.865 33.7663 63.4204 34.338 62.2156 35.4805C61.0107 36.6231 60.409 38.1413 60.409 40.0318C60.4092 41.9215 61.0114 43.4376 62.2156 44.58C63.4204 45.7017 64.865 46.2623 66.5475 46.2625C67.4612 46.2625 68.3234 46.0763 69.1333 45.7027C69.9435 45.308 70.7152 44.7883 71.4424 44.1443C72.0441 43.6257 72.6662 43.231 73.3093 42.9611C73.9326 42.691 74.5783 42.554 75.2431 42.554C76.4476 42.5541 77.4656 42.9703 78.2964 43.8008C79.1067 44.6318 79.5114 45.7452 79.5114 47.1372V60.8167C79.5114 63.9531 78.6603 66.3522 76.9574 68.0142C75.2538 69.697 72.8113 70.5396 69.6326 70.5396H31.2085C28.0302 70.5395 25.5982 69.6969 23.9155 68.0142C22.2129 66.3523 21.3615 63.9528 21.3615 60.8167V50.3781C21.3615 50.1293 21.279 49.962 21.1134 49.8788C20.9472 49.7749 20.7063 49.8269 20.3946 50.0346C19.7926 50.4498 19.1601 50.8141 18.4959 51.1256C17.8107 51.437 17.0932 51.686 16.3458 51.873C15.5771 52.06 14.7755 52.1529 13.9445 52.1529C11.9505 52.1528 10.071 51.6548 8.3054 50.658C6.53949 49.64 5.11426 48.2258 4.03394 46.4184C2.95434 44.6115 2.41523 42.4932 2.41504 40.0636C2.41504 37.6543 2.95417 35.5447 4.03394 33.7375C5.11426 31.9301 6.53949 30.5269 8.3054 29.5297C10.071 28.5327 11.9504 28.0349 13.9445 28.0348C14.7755 28.0348 15.5771 28.1277 16.3458 28.3147C17.0932 28.4809 17.8108 28.73 18.4959 29.0621C19.1601 29.3736 19.7926 29.7379 20.3946 30.1531C20.7063 30.34 20.9472 30.392 21.1134 30.3089C21.2793 30.205 21.3615 30.0268 21.3615 29.7778V19.1516C21.3616 16.0153 22.2128 13.6159 23.9155 11.954C25.5982 10.2921 28.0302 9.46057 31.2085 9.46045H69.6326ZM31.3039 15.319C30.0158 15.319 29.0174 15.6828 28.311 16.4099C27.5842 17.1161 27.2202 18.1232 27.2201 19.4314V32.8947C27.2201 34.3074 26.8153 35.4397 26.0051 36.2915C25.1743 37.1431 24.1564 37.5699 22.9518 37.5701C22.2662 37.5701 21.6095 37.4331 20.9862 37.163C20.3635 36.8929 19.7498 36.4877 19.1479 35.948C18.4006 35.3254 17.6228 34.8158 16.8134 34.4213C16.0031 34.0266 15.1495 33.8298 14.2562 33.8298C12.5735 33.8298 11.1292 34.4015 9.9243 35.5441C8.71962 36.6867 8.11775 38.1941 8.11775 40.0636C8.11803 41.9536 8.71965 43.4805 9.9243 44.6436C11.1292 45.7862 12.5735 46.3579 14.2562 46.3579C15.1495 46.3579 16.0031 46.1611 16.8134 45.7663C17.6229 45.3718 18.4005 44.8513 19.1479 44.2079C19.7501 43.6887 20.3632 43.2916 20.9862 43.0215C21.6095 42.7515 22.2662 42.6176 22.9518 42.6176C24.1564 42.6178 25.1743 43.0446 26.0051 43.8962C26.8151 44.7479 27.2201 45.8805 27.2201 47.293V60.5368C27.2201 61.8662 27.5841 62.8838 28.311 63.5901C29.0174 64.2965 30.0158 64.6492 31.3039 64.6492H69.5404C70.8281 64.6491 71.8349 64.2962 72.5619 63.5901C73.289 62.8838 73.6528 61.8663 73.6528 60.5368V50.6898C73.6528 50.0464 73.5185 49.7536 73.2489 49.8152C72.958 49.8775 72.6651 50.0035 72.3743 50.1905C71.7724 50.5433 71.1506 50.8668 70.5073 51.1574C69.8636 51.4273 69.1872 51.6432 68.4813 51.8094C67.7749 51.9756 67.0363 52.0606 66.2676 52.0606C64.2531 52.0606 62.3731 51.5624 60.6285 50.5658C58.8626 49.5686 57.4374 48.1654 56.357 46.3579C55.256 44.5506 54.7064 42.4415 54.7063 40.0318C54.7063 37.6013 55.2561 35.4813 56.357 33.6739C57.4374 31.8665 58.8626 30.4633 60.6285 29.4661C62.3732 28.4694 64.253 27.9712 66.2676 27.9712C67.0363 27.9712 67.7749 28.0531 68.4813 28.2193C69.1874 28.3647 69.8634 28.5837 70.5073 28.8745C71.1508 29.1651 71.7722 29.4995 72.3743 29.8732C72.6651 30.0394 72.958 30.1622 73.2489 30.2453C73.5187 30.3073 73.6528 30.0065 73.6528 29.342V19.4314C73.6527 18.123 73.2889 17.1162 72.5619 16.4099C71.8349 15.683 70.8281 15.3191 69.5404 15.319H31.3039Z" fill="url(#paint1_linear_1782_2719)" fill-opacity="0.39"/>
<path fill-rule="evenodd" clip-rule="evenodd" d="M69.6326 9.46045C72.8113 9.46045 75.2538 10.292 76.9574 11.954C78.6605 13.616 79.5113 16.0151 79.5114 19.1516V32.8947C79.5114 34.3073 79.1066 35.4287 78.2964 36.2597C77.4655 37.0699 76.448 37.4746 75.2431 37.4747C74.5783 37.4747 73.9326 37.3408 73.3093 37.0707C72.6662 36.8009 72.0441 36.4061 71.4424 35.8876C70.7152 35.2435 69.9435 34.7349 69.1333 34.3609C68.3232 33.9664 67.4614 33.7662 66.5475 33.7662C64.865 33.7663 63.4204 34.338 62.2156 35.4805C61.0107 36.6231 60.409 38.1413 60.409 40.0318C60.4092 41.9215 61.0114 43.4376 62.2156 44.58C63.4204 45.7017 64.865 46.2623 66.5475 46.2625C67.4612 46.2625 68.3234 46.0763 69.1333 45.7027C69.9435 45.308 70.7152 44.7883 71.4424 44.1443C72.0441 43.6257 72.6662 43.231 73.3093 42.9611C73.9326 42.691 74.5783 42.554 75.2431 42.554C76.4476 42.5541 77.4656 42.9703 78.2964 43.8008C79.1067 44.6318 79.5114 45.7452 79.5114 47.1372V60.8167C79.5114 63.9531 78.6603 66.3522 76.9574 68.0142C75.2538 69.697 72.8113 70.5396 69.6326 70.5396H31.2085C28.0302 70.5395 25.5982 69.6969 23.9155 68.0142C22.2129 66.3523 21.3615 63.9528 21.3615 60.8167V50.3781C21.3615 50.1293 21.279 49.962 21.1134 49.8788C20.9472 49.7749 20.7063 49.8269 20.3946 50.0346C19.7926 50.4498 19.1601 50.8141 18.4959 51.1256C17.8107 51.437 17.0932 51.686 16.3458 51.873C15.5771 52.06 14.7755 52.1529 13.9445 52.1529C11.9505 52.1528 10.071 51.6548 8.3054 50.658C6.53949 49.64 5.11426 48.2258 4.03394 46.4184C2.95434 44.6115 2.41523 42.4932 2.41504 40.0636C2.41504 37.6543 2.95417 35.5447 4.03394 33.7375C5.11426 31.9301 6.53949 30.5269 8.3054 29.5297C10.071 28.5327 11.9504 28.0349 13.9445 28.0348C14.7755 28.0348 15.5771 28.1277 16.3458 28.3147C17.0932 28.4809 17.8108 28.73 18.4959 29.0621C19.1601 29.3736 19.7926 29.7379 20.3946 30.1531C20.7063 30.34 20.9472 30.392 21.1134 30.3089C21.2793 30.205 21.3615 30.0268 21.3615 29.7778V19.1516C21.3616 16.0153 22.2128 13.6159 23.9155 11.954C25.5982 10.2921 28.0302 9.46057 31.2085 9.46045H69.6326ZM31.3039 15.319C30.0158 15.319 29.0174 15.6828 28.311 16.4099C27.5842 17.1161 27.2202 18.1232 27.2201 19.4314V32.8947C27.2201 34.3074 26.8153 35.4397 26.0051 36.2915C25.1743 37.1431 24.1564 37.5699 22.9518 37.5701C22.2662 37.5701 21.6095 37.4331 20.9862 37.163C20.3635 36.8929 19.7498 36.4877 19.1479 35.948C18.4006 35.3254 17.6228 34.8158 16.8134 34.4213C16.0031 34.0266 15.1495 33.8298 14.2562 33.8298C12.5735 33.8298 11.1292 34.4015 9.9243 35.5441C8.71962 36.6867 8.11775 38.1941 8.11775 40.0636C8.11803 41.9536 8.71965 43.4805 9.9243 44.6436C11.1292 45.7862 12.5735 46.3579 14.2562 46.3579C15.1495 46.3579 16.0031 46.1611 16.8134 45.7663C17.6229 45.3718 18.4005 44.8513 19.1479 44.2079C19.7501 43.6887 20.3632 43.2916 20.9862 43.0215C21.6095 42.7515 22.2662 42.6176 22.9518 42.6176C24.1564 42.6178 25.1743 43.0446 26.0051 43.8962C26.8151 44.7479 27.2201 45.8805 27.2201 47.293V60.5368C27.2201 61.8662 27.5841 62.8838 28.311 63.5901C29.0174 64.2965 30.0158 64.6492 31.3039 64.6492H69.5404C70.8281 64.6491 71.8349 64.2962 72.5619 63.5901C73.289 62.8838 73.6528 61.8663 73.6528 60.5368V50.6898C73.6528 50.0464 73.5185 49.7536 73.2489 49.8152C72.958 49.8775 72.6651 50.0035 72.3743 50.1905C71.7724 50.5433 71.1506 50.8668 70.5073 51.1574C69.8636 51.4273 69.1872 51.6432 68.4813 51.8094C67.7749 51.9756 67.0363 52.0606 66.2676 52.0606C64.2531 52.0606 62.3731 51.5624 60.6285 50.5658C58.8626 49.5686 57.4374 48.1654 56.357 46.3579C55.256 44.5506 54.7064 42.4415 54.7063 40.0318C54.7063 37.6013 55.2561 35.4813 56.357 33.6739C57.4374 31.8665 58.8626 30.4633 60.6285 29.4661C62.3732 28.4694 64.253 27.9712 66.2676 27.9712C67.0363 27.9712 67.7749 28.0531 68.4813 28.2193C69.1874 28.3647 69.8634 28.5837 70.5073 28.8745C71.1508 29.1651 71.7722 29.4995 72.3743 29.8732C72.6651 30.0394 72.958 30.1622 73.2489 30.2453C73.5187 30.3073 73.6528 30.0065 73.6528 29.342V19.4314C73.6527 18.123 73.2889 17.1162 72.5619 16.4099C71.8349 15.683 70.8281 15.3191 69.5404 15.319H31.3039Z" fill="#3E5DE7" fill-opacity="0.65"/>
<path d="M69.6328 9.34814C72.8306 9.34818 75.3053 10.1849 77.0361 11.8735C78.7671 13.5628 79.624 15.9952 79.624 19.1519V32.895C79.624 34.3301 79.2118 35.482 78.377 36.3384L78.375 36.3403C77.5222 37.1718 76.4761 37.5873 75.2432 37.5874C74.5629 37.5874 73.9018 37.4504 73.2646 37.1743V37.1733C72.6098 36.8984 71.978 36.4977 71.3691 35.9731L71.3682 35.9722C70.6486 35.3349 69.8855 34.8324 69.0859 34.4634L69.084 34.4624C68.2894 34.0754 67.4445 33.8785 66.5479 33.8784C64.8938 33.8786 63.4765 34.4397 62.293 35.562C61.1137 36.6803 60.5215 38.1674 60.5215 40.0317C60.5216 41.8948 61.114 43.3795 62.292 44.4976C63.4754 45.5994 64.8931 46.1497 66.5479 46.1499C67.4456 46.1499 68.2914 45.9666 69.0859 45.6001C69.8856 45.2102 70.6488 44.6972 71.3682 44.0601L71.3691 44.0591C71.9785 43.534 72.6102 43.132 73.2656 42.8569C73.9021 42.5813 74.5629 42.4419 75.2432 42.4419C76.3997 42.442 77.3919 42.8177 78.2139 43.5669L78.376 43.7212L78.377 43.7222C79.2117 44.5783 79.624 45.7222 79.624 47.1372V60.8169C79.624 63.9735 78.7669 66.406 77.0361 68.0952L77.0352 68.0942C75.3044 69.8035 72.8306 70.6518 69.6328 70.6519H31.208C28.0106 70.6516 25.5459 69.8041 23.8359 68.0942V68.0933C22.1063 66.4041 21.2491 63.9725 21.249 60.8169V50.3784C21.249 50.1547 21.1767 50.0364 21.0625 49.979L21.0537 49.9741C20.9504 49.9096 20.7657 49.9217 20.458 50.1265C19.8511 50.545 19.2138 50.913 18.5439 51.2271L18.542 51.228C17.8506 51.5423 17.1267 51.7934 16.373 51.9819H16.3721C15.5942 52.1711 14.7837 52.2651 13.9443 52.2651C11.9307 52.2651 10.0321 51.7625 8.25 50.7563L8.24902 50.7554C6.46604 49.7275 5.0273 48.2994 3.9375 46.4761C2.846 44.6493 2.30298 42.5105 2.30273 40.064C2.30273 37.6374 2.84594 35.5072 3.9375 33.6802C5.02742 31.8567 6.46655 30.4393 8.25 29.4321C10.0322 28.4259 11.9306 27.9224 13.9443 27.9224C14.7826 27.9224 15.5922 28.0159 16.3691 28.2046H16.3701C17.1258 28.3727 17.8519 28.6245 18.5449 28.9604H18.5439C19.2134 29.2744 19.8513 29.6408 20.458 30.0591C20.7576 30.2378 20.9468 30.2611 21.0566 30.2104C21.178 30.1327 21.249 29.9987 21.249 29.7778V19.1519C21.2491 15.9954 22.1062 13.5628 23.8369 11.8735L24.166 11.5669C25.8575 10.0834 28.2108 9.34834 31.208 9.34814H69.6328ZM31.3037 15.4312C30.0374 15.4312 29.0714 15.789 28.3916 16.4888L28.3896 16.4907C27.6905 17.17 27.3332 18.1442 27.333 19.4312V32.895C27.3329 34.33 26.9206 35.492 26.0869 36.3687L26.0859 36.3696C25.2338 37.2431 24.1866 37.6818 22.9521 37.6821C22.2511 37.6821 21.5788 37.5423 20.9414 37.2661C20.307 36.9909 19.6844 36.5795 19.0762 36.0347L18.7969 35.8081C18.1421 35.2926 17.4642 34.8644 16.7637 34.5229C15.9688 34.1357 15.132 33.9419 14.2559 33.9419C12.6018 33.942 11.1855 34.5032 10.002 35.6255C8.82263 36.744 8.23047 38.2209 8.23047 40.064C8.23082 41.9273 8.82267 43.423 10.002 44.562L10.2266 44.7661C11.3635 45.7524 12.7052 46.2455 14.2559 46.2456C15.1319 46.2456 15.9688 46.0527 16.7637 45.6655C17.5636 45.2757 18.3334 44.7603 19.0742 44.1226C19.6834 43.5974 20.3063 43.1938 20.9414 42.9185C21.5791 42.6421 22.2515 42.5054 22.9521 42.5054C24.1094 42.5056 25.1021 42.8908 25.9238 43.6587L26.0859 43.8179L26.0869 43.8188C26.9205 44.6956 27.333 45.8585 27.333 47.2935V60.5366C27.333 61.7637 27.6474 62.7058 28.2627 63.3784L28.3896 63.5093L28.3906 63.5103C29.0702 64.1898 30.0365 64.5366 31.3037 64.5366H69.54C70.8068 64.5365 71.7826 64.1899 72.4834 63.5093C73.1825 62.8301 73.54 61.8456 73.54 60.5366V50.6899C73.54 50.3718 73.5066 50.1584 73.4502 50.0356C73.4228 49.9761 73.3938 49.9467 73.3701 49.9331C73.3486 49.9208 73.3196 49.915 73.2744 49.9253H73.2725C72.9971 49.9843 72.7167 50.104 72.4355 50.2847L72.4316 50.2876L72.374 50.1909L72.4307 50.2876C71.8256 50.6422 71.2007 50.968 70.5537 51.2603L70.5508 51.2612C69.9009 51.5338 69.2183 51.751 68.5068 51.9185C67.7917 52.0867 67.0446 52.1733 66.2676 52.1733C64.2335 52.1733 62.3339 51.6699 60.5723 50.6636V50.6626C58.7893 49.6555 57.3505 48.2387 56.2607 46.4155C55.1479 44.5884 54.5939 42.4588 54.5938 40.0317C54.5938 37.5839 55.1477 35.4431 56.2607 33.6157L56.4688 33.2788C57.4607 31.7276 58.7202 30.4881 60.2432 29.562L60.5732 29.3677C62.3348 28.3615 64.2337 27.8589 66.2676 27.8589C67.0428 27.8589 67.7887 27.9412 68.5029 28.1089H68.5039C69.2181 28.256 69.9022 28.4777 70.5537 28.772C71.2019 29.0648 71.8277 29.4018 72.4336 29.7778C72.7138 29.9376 72.9956 30.0551 73.2744 30.1353L73.3301 30.1401C73.3454 30.1383 73.3575 30.1327 73.3682 30.1265C73.392 30.1124 73.4214 30.0823 73.4492 30.02C73.5062 29.8923 73.54 29.6714 73.54 29.3423V19.4312C73.5398 18.144 73.1827 17.17 72.4834 16.4907L72.4824 16.4897C71.7815 15.7889 70.8059 15.4312 69.54 15.4312H31.3037Z" stroke="url(#paint2_linear_1782_2719)" stroke-opacity="0.25" stroke-width="0.225"/>
</g>
<defs>
<filter id="filter0_d_1782_2719" x="-1.22687" y="-0.99" width="84.38" height="84.38" filterUnits="userSpaceOnUse" color-interpolation-filters="sRGB">
<feFlood flood-opacity="0" result="BackgroundImageFix"/>
<feColorMatrix in="SourceAlpha" type="matrix" values="0 0 0 0 0 0 0 0 0 0 0 0 0 0 0 0 0 0 127 0" result="hardAlpha"/>
<feOffset dy="1.2"/>
<feGaussianBlur stdDeviation="1.095"/>
<feComposite in2="hardAlpha" operator="out"/>
<feColorMatrix type="matrix" values="0 0 0 0 0.243137 0 0 0 0 0.364706 0 0 0 0 0.905882 0 0 0 0.15 0"/>
<feBlend mode="normal" in2="BackgroundImageFix" result="effect1_dropShadow_1782_2719"/>
<feBlend mode="normal" in="SourceGraphic" in2="effect1_dropShadow_1782_2719" result="shape"/>
</filter>
<linearGradient id="paint0_linear_1782_2719" x1="19.6599" y1="-5.18597" x2="41.1694" y2="70.481" gradientUnits="userSpaceOnUse">
<stop offset="0.670868" stop-color="#000091"/>
<stop offset="1" stop-color="#000091" stop-opacity="0"/>
</linearGradient>
<linearGradient id="paint1_linear_1782_2719" x1="60.426" y1="9.46045" x2="56.9066" y2="41.4467" gradientUnits="userSpaceOnUse">
<stop stop-color="#F4C858"/>
<stop offset="1" stop-color="#F4C858" stop-opacity="0"/>
</linearGradient>
<linearGradient id="paint2_linear_1782_2719" x1="40.9632" y1="9.46045" x2="40.9632" y2="70.5396" gradientUnits="userSpaceOnUse">
<stop stop-color="white"/>
<stop offset="0.519231" stop-color="white" stop-opacity="0"/>
<stop offset="1" stop-color="white"/>
</linearGradient>
</defs>
</svg>
