<svg width="80" height="80" viewBox="0 0 80 80" fill="none" xmlns="http://www.w3.org/2000/svg">
<g filter="url(#filter0_d_1830_2769)">
<path d="M49.642 12.5356C52.5745 12.5359 54.7882 13.2841 56.2826 14.7785C57.7956 16.2544 58.5515 18.4316 58.5515 21.3084V32.7147C58.5518 33.0121 58.6458 33.2071 58.8315 33.3006C59.0368 33.3753 59.2807 33.321 59.5606 33.1346C60.0464 32.7796 60.5618 32.4611 61.1036 32.1808C61.6638 31.9008 62.2623 31.6751 62.8972 31.507C63.5319 31.3391 64.2135 31.2564 64.9415 31.2563C66.623 31.2563 68.1194 31.6394 69.4272 32.4054C70.7531 33.1714 71.7994 34.228 72.5652 35.5728C73.3308 36.899 73.7143 38.4034 73.7143 40.0845C73.7142 41.747 73.3311 43.2512 72.5652 44.5962C71.7993 45.9411 70.7534 46.9975 69.4272 47.7635C68.1194 48.5295 66.623 48.9126 64.9415 48.9126C64.2133 48.9126 63.5321 48.8267 62.8972 48.6587C62.2625 48.4907 61.6637 48.268 61.1036 47.9881C60.5618 47.7079 60.0464 47.3967 59.5606 47.0604C59.2808 46.8555 59.0367 46.8011 58.8315 46.8944C58.6454 46.9694 58.5515 47.156 58.5515 47.4543V58.6652C58.5513 61.5602 57.7954 63.7454 56.2826 65.2212C54.7882 66.7156 52.5745 67.4638 49.642 67.464H15.114C12.2188 67.464 10.0233 66.7079 8.52873 65.1952C7.03418 63.7006 6.28599 61.4948 6.28589 58.5806V46.6991C6.28589 45.7089 6.61506 44.9215 7.26896 44.3423C7.92217 43.7643 8.68708 43.4735 9.56388 43.4731C10.0681 43.4731 10.5734 43.5877 11.0776 43.8117C11.6007 44.0359 12.0875 44.3724 12.5359 44.8208C12.9466 45.2315 13.4236 45.6692 13.9649 46.1359C14.5065 46.5841 15.1696 46.9781 15.9539 47.3143C16.7385 47.6319 17.6836 47.7896 18.7859 47.7896C20.1865 47.7895 21.4658 47.4452 22.6238 46.7544C23.7821 46.0631 24.6986 45.1361 25.3712 43.9777C26.062 42.8196 26.4096 41.53 26.4096 40.1105C26.3907 38.6725 26.0329 37.3753 25.3419 36.2173C24.6693 35.0403 23.756 34.1132 22.5977 33.4406C21.4582 32.7681 20.1869 32.4315 18.7859 32.4315C17.6836 32.4315 16.7385 32.5924 15.9539 32.91C15.1699 33.2274 14.5064 33.6185 13.9649 34.0851C13.4234 34.5333 12.9468 34.9634 12.5359 35.3742C12.0875 35.8413 11.6007 36.1884 11.0776 36.4126C10.5734 36.6178 10.068 36.7218 9.56388 36.7218C8.68652 36.7215 7.92244 36.4388 7.26896 35.8787C6.61531 35.2998 6.28614 34.5075 6.28589 33.4992V21.4191C6.28594 18.4862 7.03434 16.2731 8.52873 14.7785C10.0233 13.2839 12.2183 12.5357 15.114 12.5356H49.642Z" fill="#304DDF"/>
<path d="M49.642 12.5356C52.5745 12.5359 54.7882 13.2841 56.2826 14.7785C57.7956 16.2544 58.5515 18.4316 58.5515 21.3084V32.7147C58.5518 33.0121 58.6458 33.2071 58.8315 33.3006C59.0368 33.3753 59.2807 33.321 59.5606 33.1346C60.0464 32.7796 60.5618 32.4611 61.1036 32.1808C61.6638 31.9008 62.2623 31.6751 62.8972 31.507C63.5319 31.3391 64.2135 31.2564 64.9415 31.2563C66.623 31.2563 68.1194 31.6394 69.4272 32.4054C70.7531 33.1714 71.7994 34.228 72.5652 35.5728C73.3308 36.899 73.7143 38.4034 73.7143 40.0845C73.7142 41.747 73.3311 43.2512 72.5652 44.5962C71.7993 45.9411 70.7534 46.9975 69.4272 47.7635C68.1194 48.5295 66.623 48.9126 64.9415 48.9126C64.2133 48.9126 63.5321 48.8267 62.8972 48.6587C62.2625 48.4907 61.6637 48.268 61.1036 47.9881C60.5618 47.7079 60.0464 47.3967 59.5606 47.0604C59.2808 46.8555 59.0367 46.8011 58.8315 46.8944C58.6454 46.9694 58.5515 47.156 58.5515 47.4543V58.6652C58.5513 61.5602 57.7954 63.7454 56.2826 65.2212C54.7882 66.7156 52.5745 67.4638 49.642 67.464H15.114C12.2188 67.464 10.0233 66.7079 8.52873 65.1952C7.03418 63.7006 6.28599 61.4948 6.28589 58.5806V46.6991C6.28589 45.7089 6.61506 44.9215 7.26896 44.3423C7.92217 43.7643 8.68708 43.4735 9.56388 43.4731C10.0681 43.4731 10.5734 43.5877 11.0776 43.8117C11.6007 44.0359 12.0875 44.3724 12.5359 44.8208C12.9466 45.2315 13.4236 45.6692 13.9649 46.1359C14.5065 46.5841 15.1696 46.9781 15.9539 47.3143C16.7385 47.6319 17.6836 47.7896 18.7859 47.7896C20.1865 47.7895 21.4658 47.4452 22.6238 46.7544C23.7821 46.0631 24.6986 45.1361 25.3712 43.9777C26.062 42.8196 26.4096 41.53 26.4096 40.1105C26.3907 38.6725 26.0329 37.3753 25.3419 36.2173C24.6693 35.0403 23.756 34.1132 22.5977 33.4406C21.4582 32.7681 20.1869 32.4315 18.7859 32.4315C17.6836 32.4315 16.7385 32.5924 15.9539 32.91C15.1699 33.2274 14.5064 33.6185 13.9649 34.0851C13.4234 34.5333 12.9468 34.9634 12.5359 35.3742C12.0875 35.8413 11.6007 36.1884 11.0776 36.4126C10.5734 36.6178 10.068 36.7218 9.56388 36.7218C8.68652 36.7215 7.92244 36.4388 7.26896 35.8787C6.61531 35.2998 6.28614 34.5075 6.28589 33.4992V21.4191C6.28594 18.4862 7.03434 16.2731 8.52873 14.7785C10.0233 13.2839 12.2183 12.5357 15.114 12.5356H49.642Z" fill="#304DDF"/>
<path d="M49.642 12.5356C52.5745 12.5359 54.7882 13.2841 56.2826 14.7785C57.7956 16.2544 58.5515 18.4316 58.5515 21.3084V32.7147C58.5518 33.0121 58.6458 33.2071 58.8315 33.3006C59.0368 33.3753 59.2807 33.321 59.5606 33.1346C60.0464 32.7796 60.5618 32.4611 61.1036 32.1808C61.6638 31.9008 62.2623 31.6751 62.8972 31.507C63.5319 31.3391 64.2135 31.2564 64.9415 31.2563C66.623 31.2563 68.1194 31.6394 69.4272 32.4054C70.7531 33.1714 71.7994 34.228 72.5652 35.5728C73.3308 36.899 73.7143 38.4034 73.7143 40.0845C73.7142 41.747 73.3311 43.2512 72.5652 44.5962C71.7993 45.9411 70.7534 46.9975 69.4272 47.7635C68.1194 48.5295 66.623 48.9126 64.9415 48.9126C64.2133 48.9126 63.5321 48.8267 62.8972 48.6587C62.2625 48.4907 61.6637 48.268 61.1036 47.9881C60.5618 47.7079 60.0464 47.3967 59.5606 47.0604C59.2808 46.8555 59.0367 46.8011 58.8315 46.8944C58.6454 46.9694 58.5515 47.156 58.5515 47.4543V58.6652C58.5513 61.5602 57.7954 63.7454 56.2826 65.2212C54.7882 66.7156 52.5745 67.4638 49.642 67.464H15.114C12.2188 67.464 10.0233 66.7079 8.52873 65.1952C7.03418 63.7006 6.28599 61.4948 6.28589 58.5806V46.6991C6.28589 45.7089 6.61506 44.9215 7.26896 44.3423C7.92217 43.7643 8.68708 43.4735 9.56388 43.4731C10.0681 43.4731 10.5734 43.5877 11.0776 43.8117C11.6007 44.0359 12.0875 44.3724 12.5359 44.8208C12.9466 45.2315 13.4236 45.6692 13.9649 46.1359C14.5065 46.5841 15.1696 46.9781 15.9539 47.3143C16.7385 47.6319 17.6836 47.7896 18.7859 47.7896C20.1865 47.7895 21.4658 47.4452 22.6238 46.7544C23.7821 46.0631 24.6986 45.1361 25.3712 43.9777C26.062 42.8196 26.4096 41.53 26.4096 40.1105C26.3907 38.6725 26.0329 37.3753 25.3419 36.2173C24.6693 35.0403 23.756 34.1132 22.5977 33.4406C21.4582 32.7681 20.1869 32.4315 18.7859 32.4315C17.6836 32.4315 16.7385 32.5924 15.9539 32.91C15.1699 33.2274 14.5064 33.6185 13.9649 34.0851C13.4234 34.5333 12.9468 34.9634 12.5359 35.3742C12.0875 35.8413 11.6007 36.1884 11.0776 36.4126C10.5734 36.6178 10.068 36.7218 9.56388 36.7218C8.68652 36.7215 7.92244 36.4388 7.26896 35.8787C6.61531 35.2998 6.28614 34.5075 6.28589 33.4992V21.4191C6.28594 18.4862 7.03434 16.2731 8.52873 14.7785C10.0233 13.2839 12.2183 12.5357 15.114 12.5356H49.642Z" fill="url(#paint0_linear_1830_2769)"/>
<path d="M49.642 12.5356C52.5745 12.5359 54.7882 13.2841 56.2826 14.7785C57.7956 16.2544 58.5515 18.4316 58.5515 21.3084V32.7147C58.5518 33.0121 58.6458 33.2071 58.8315 33.3006C59.0368 33.3753 59.2807 33.321 59.5606 33.1346C60.0464 32.7796 60.5618 32.4611 61.1036 32.1808C61.6638 31.9008 62.2623 31.6751 62.8972 31.507C63.5319 31.3391 64.2135 31.2564 64.9415 31.2563C66.623 31.2563 68.1194 31.6394 69.4272 32.4054C70.7531 33.1714 71.7994 34.228 72.5652 35.5728C73.3308 36.899 73.7143 38.4034 73.7143 40.0845C73.7142 41.747 73.3311 43.2512 72.5652 44.5962C71.7993 45.9411 70.7534 46.9975 69.4272 47.7635C68.1194 48.5295 66.623 48.9126 64.9415 48.9126C64.2133 48.9126 63.5321 48.8267 62.8972 48.6587C62.2625 48.4907 61.6637 48.268 61.1036 47.9881C60.5618 47.7079 60.0464 47.3967 59.5606 47.0604C59.2808 46.8555 59.0367 46.8011 58.8315 46.8944C58.6454 46.9694 58.5515 47.156 58.5515 47.4543V58.6652C58.5513 61.5602 57.7954 63.7454 56.2826 65.2212C54.7882 66.7156 52.5745 67.4638 49.642 67.464H15.114C12.2188 67.464 10.0233 66.7079 8.52873 65.1952C7.03418 63.7006 6.28599 61.4948 6.28589 58.5806V46.6991C6.28589 45.7089 6.61506 44.9215 7.26896 44.3423C7.92217 43.7643 8.68708 43.4735 9.56388 43.4731C10.0681 43.4731 10.5734 43.5877 11.0776 43.8117C11.6007 44.0359 12.0875 44.3724 12.5359 44.8208C12.9466 45.2315 13.4236 45.6692 13.9649 46.1359C14.5065 46.5841 15.1696 46.9781 15.9539 47.3143C16.7385 47.6319 17.6836 47.7896 18.7859 47.7896C20.1865 47.7895 21.4658 47.4452 22.6238 46.7544C23.7821 46.0631 24.6986 45.1361 25.3712 43.9777C26.062 42.8196 26.4096 41.53 26.4096 40.1105C26.3907 38.6725 26.0329 37.3753 25.3419 36.2173C24.6693 35.0403 23.756 34.1132 22.5977 33.4406C21.4582 32.7681 20.1869 32.4315 18.7859 32.4315C17.6836 32.4315 16.7385 32.5924 15.9539 32.91C15.1699 33.2274 14.5064 33.6185 13.9649 34.0851C13.4234 34.5333 12.9468 34.9634 12.5359 35.3742C12.0875 35.8413 11.6007 36.1884 11.0776 36.4126C10.5734 36.6178 10.068 36.7218 9.56388 36.7218C8.68652 36.7215 7.92244 36.4388 7.26896 35.8787C6.61531 35.2998 6.28614 34.5075 6.28589 33.4992V21.4191C6.28594 18.4862 7.03434 16.2731 8.52873 14.7785C10.0233 13.2839 12.2183 12.5357 15.114 12.5356H49.642Z" fill="url(#paint1_linear_1830_2769)" fill-opacity="0.39"/>
<path d="M49.642 12.5356C52.5745 12.5359 54.7882 13.2841 56.2826 14.7785C57.7956 16.2544 58.5515 18.4316 58.5515 21.3084V32.7147C58.5518 33.0121 58.6458 33.2071 58.8315 33.3006C59.0368 33.3753 59.2807 33.321 59.5606 33.1346C60.0464 32.7796 60.5618 32.4611 61.1036 32.1808C61.6638 31.9008 62.2623 31.6751 62.8972 31.507C63.5319 31.3391 64.2135 31.2564 64.9415 31.2563C66.623 31.2563 68.1194 31.6394 69.4272 32.4054C70.7531 33.1714 71.7994 34.228 72.5652 35.5728C73.3308 36.899 73.7143 38.4034 73.7143 40.0845C73.7142 41.747 73.3311 43.2512 72.5652 44.5962C71.7993 45.9411 70.7534 46.9975 69.4272 47.7635C68.1194 48.5295 66.623 48.9126 64.9415 48.9126C64.2133 48.9126 63.5321 48.8267 62.8972 48.6587C62.2625 48.4907 61.6637 48.268 61.1036 47.9881C60.5618 47.7079 60.0464 47.3967 59.5606 47.0604C59.2808 46.8555 59.0367 46.8011 58.8315 46.8944C58.6454 46.9694 58.5515 47.156 58.5515 47.4543V58.6652C58.5513 61.5602 57.7954 63.7454 56.2826 65.2212C54.7882 66.7156 52.5745 67.4638 49.642 67.464H15.114C12.2188 67.464 10.0233 66.7079 8.52873 65.1952C7.03418 63.7006 6.28599 61.4948 6.28589 58.5806V46.6991C6.28589 45.7089 6.61506 44.9215 7.26896 44.3423C7.92217 43.7643 8.68708 43.4735 9.56388 43.4731C10.0681 43.4731 10.5734 43.5877 11.0776 43.8117C11.6007 44.0359 12.0875 44.3724 12.5359 44.8208C12.9466 45.2315 13.4236 45.6692 13.9649 46.1359C14.5065 46.5841 15.1696 46.9781 15.9539 47.3143C16.7385 47.6319 17.6836 47.7896 18.7859 47.7896C20.1865 47.7895 21.4658 47.4452 22.6238 46.7544C23.7821 46.0631 24.6986 45.1361 25.3712 43.9777C26.062 42.8196 26.4096 41.53 26.4096 40.1105C26.3907 38.6725 26.0329 37.3753 25.3419 36.2173C24.6693 35.0403 23.756 34.1132 22.5977 33.4406C21.4582 32.7681 20.1869 32.4315 18.7859 32.4315C17.6836 32.4315 16.7385 32.5924 15.9539 32.91C15.1699 33.2274 14.5064 33.6185 13.9649 34.0851C13.4234 34.5333 12.9468 34.9634 12.5359 35.3742C12.0875 35.8413 11.6007 36.1884 11.0776 36.4126C10.5734 36.6178 10.068 36.7218 9.56388 36.7218C8.68652 36.7215 7.92244 36.4388 7.26896 35.8787C6.61531 35.2998 6.28614 34.5075 6.28589 33.4992V21.4191C6.28594 18.4862 7.03434 16.2731 8.52873 14.7785C10.0233 13.2839 12.2183 12.5357 15.114 12.5356H49.642Z" fill="#3E5DE7" fill-opacity="0.65"/>
<path d="M49.6423 12.4233C52.592 12.4237 54.8386 13.176 56.3611 14.6978C57.9026 16.2016 58.6638 18.4124 58.6638 21.3081V32.7144C58.6641 32.9862 58.7479 33.1289 58.8777 33.1968C59.0338 33.2501 59.2361 33.2148 59.4978 33.0405C59.9871 32.6833 60.5062 32.3627 61.0515 32.0806H61.0535C61.6208 31.797 62.2268 31.5679 62.8689 31.3979C63.5138 31.2274 64.205 31.1441 64.9412 31.144C66.6403 31.144 68.1572 31.5309 69.4841 32.3081H69.4832C70.8262 33.0839 71.8864 34.1548 72.6619 35.5161C73.4383 36.8611 73.8269 38.3856 73.8269 40.0845C73.8268 41.765 73.4391 43.2886 72.6628 44.6519C71.8872 46.0138 70.8267 47.0838 69.4832 47.8599C68.1563 48.6369 66.6402 49.0249 64.9412 49.0249C64.2044 49.0248 63.5137 48.9377 62.8689 48.7671C62.2273 48.5973 61.6209 48.372 61.0535 48.0884H61.0515C60.5055 47.8059 59.9864 47.4918 59.4968 47.1528L59.4939 47.1509C59.2285 46.9567 59.0289 46.9279 58.8777 46.9966L58.8289 47.021C58.7294 47.0827 58.6638 47.2113 58.6638 47.4546V58.6655C58.6636 61.5784 57.9018 63.7956 56.3611 65.2993L56.3621 65.3003C54.8396 66.8228 52.5928 67.5763 49.6423 67.5767H15.114C12.1999 67.5766 9.97144 66.8149 8.44897 65.2739C6.92671 63.7513 6.17368 61.5128 6.17358 58.5806V46.6987C6.17366 45.6813 6.51304 44.8617 7.19409 44.2583C7.86785 43.6622 8.65996 43.3612 9.56421 43.3608C10.0856 43.3609 10.6062 43.4791 11.1228 43.7085H11.1218C11.6595 43.9389 12.1576 44.2843 12.615 44.7417C13.0233 45.15 13.499 45.5849 14.0388 46.0503H14.0378C14.5694 46.49 15.2223 46.878 15.9978 47.2104H15.9968C16.7645 47.521 17.6942 47.6772 18.7859 47.6772L19.0437 47.6733C20.3242 47.6335 21.4977 47.2951 22.5662 46.6577C23.7082 45.9762 24.6112 45.0631 25.2742 43.9214V43.9204C25.9539 42.781 26.2964 41.5115 26.2966 40.1118C26.278 38.6924 25.9251 37.4148 25.2449 36.2749L25.2439 36.2729C24.6224 35.1854 23.7938 34.3148 22.7527 33.6646L22.5408 33.5376C21.4897 32.9173 20.3241 32.5873 19.0437 32.5483L18.7859 32.5444C17.6941 32.5444 16.7639 32.7033 15.9958 33.0142C15.2213 33.3278 14.5693 33.7133 14.0388 34.1704L14.0369 34.1714C13.4976 34.6177 13.0229 35.0457 12.615 35.4536C12.1581 35.9291 11.66 36.2855 11.1218 36.5161L11.1199 36.5171C10.6037 36.7272 10.084 36.8344 9.56421 36.8345C8.66041 36.8341 7.87006 36.5419 7.19604 35.9644L7.19409 35.9634C6.51274 35.3599 6.17391 34.5347 6.17358 33.4995V21.4194C6.17364 18.4684 6.92644 16.2215 8.44897 14.6987C9.97149 13.1762 12.1997 12.4234 15.114 12.4233H49.6423Z" stroke="url(#paint2_linear_1830_2769)" stroke-opacity="0.25" stroke-width="0.225"/>
</g>
<defs>
<filter id="filter0_d_1830_2769" x="-2.19" y="-0.99" width="84.38" height="84.38" filterUnits="userSpaceOnUse" color-interpolation-filters="sRGB">
<feFlood flood-opacity="0" result="BackgroundImageFix"/>
<feColorMatrix in="SourceAlpha" type="matrix" values="0 0 0 0 0 0 0 0 0 0 0 0 0 0 0 0 0 0 127 0" result="hardAlpha"/>
<feOffset dy="1.2"/>
<feGaussianBlur stdDeviation="1.095"/>
<feColorMatrix type="matrix" values="0 0 0 0 0.243137 0 0 0 0 0.364706 0 0 0 0 0.905882 0 0 0 0.15 0"/>
<feBlend mode="normal" in2="BackgroundImageFix" result="effect1_dropShadow_1830_2769"/>
<feBlend mode="normal" in="SourceGraphic" in2="effect1_dropShadow_1830_2769" result="shape"/>
</filter>
<linearGradient id="paint0_linear_1830_2769" x1="21.3682" y1="-0.635858" x2="41.1732" y2="67.1211" gradientUnits="userSpaceOnUse">
<stop offset="0.670868" stop-color="#000091"/>
<stop offset="1" stop-color="#000091" stop-opacity="0"/>
</linearGradient>
<linearGradient id="paint1_linear_1830_2769" x1="57.0222" y1="12.5356" x2="53.7701" y2="41.2811" gradientUnits="userSpaceOnUse">
<stop stop-color="#F4C858"/>
<stop offset="1" stop-color="#F4C858" stop-opacity="0"/>
</linearGradient>
<linearGradient id="paint2_linear_1830_2769" x1="40.0001" y1="12.5356" x2="40.0001" y2="67.464" gradientUnits="userSpaceOnUse">
<stop stop-color="white"/>
<stop offset="0.519231" stop-color="white" stop-opacity="0"/>
<stop offset="1" stop-color="white"/>
</linearGradient>
</defs>
</svg>
