<svg width="80" height="80" viewBox="0 0 80 80" fill="none" xmlns="http://www.w3.org/2000/svg">
<g filter="url(#filter0_d_1830_4042)">
<path d="M40.0326 25.3289C41.5565 25.3293 42.7719 25.8751 43.6784 26.9663C44.606 28.0382 45.0716 29.4525 45.0716 31.2046V35.0685H34.9902V31.2046C34.9902 29.4525 35.4559 28.0382 36.3835 26.9663C37.3109 25.8747 38.5284 25.3289 40.0326 25.3289Z" fill="#304DDF"/>
<path d="M40.0326 25.3289C41.5565 25.3293 42.7719 25.8751 43.6784 26.9663C44.606 28.0382 45.0716 29.4525 45.0716 31.2046V35.0685H34.9902V31.2046C34.9902 29.4525 35.4559 28.0382 36.3835 26.9663C37.3109 25.8747 38.5284 25.3289 40.0326 25.3289Z" fill="#304DDF"/>
<path d="M40.0326 25.3289C41.5565 25.3293 42.7719 25.8751 43.6784 26.9663C44.606 28.0382 45.0716 29.4525 45.0716 31.2046V35.0685H34.9902V31.2046C34.9902 29.4525 35.4559 28.0382 36.3835 26.9663C37.3109 25.8747 38.5284 25.3289 40.0326 25.3289Z" fill="url(#paint0_linear_1830_4042)"/>
<path d="M40.0326 25.3289C41.5565 25.3293 42.7719 25.8751 43.6784 26.9663C44.606 28.0382 45.0716 29.4525 45.0716 31.2046V35.0685H34.9902V31.2046C34.9902 29.4525 35.4559 28.0382 36.3835 26.9663C37.3109 25.8747 38.5284 25.3289 40.0326 25.3289Z" fill="url(#paint1_linear_1830_4042)" fill-opacity="0.39"/>
<path d="M40.0326 25.3289C41.5565 25.3293 42.7719 25.8751 43.6784 26.9663C44.606 28.0382 45.0716 29.4525 45.0716 31.2046V35.0685H34.9902V31.2046C34.9902 29.4525 35.4559 28.0382 36.3835 26.9663C37.3109 25.8747 38.5284 25.3289 40.0326 25.3289Z" fill="#3E5DE7" fill-opacity="0.65"/>
<path fill-rule="evenodd" clip-rule="evenodd" d="M40 9.06592C40.5153 9.06592 41.0515 9.11585 41.6081 9.21891C42.1641 9.32188 42.6893 9.44589 43.1836 9.59001C43.8431 9.81672 44.7714 10.1381 45.9668 10.5503C47.1829 10.9625 48.5235 11.4369 49.987 11.9728L54.3783 13.5809C55.8619 14.096 57.2119 14.5794 58.4277 15.0327C59.6439 15.4862 60.5926 15.8574 61.2728 16.146C62.7772 16.7643 63.8912 17.4951 64.6126 18.34C65.3341 19.1851 65.6934 20.517 65.6934 22.3309V45.3322C65.6934 48.0943 65.2928 50.5398 64.4889 52.6629C63.685 54.7651 62.3736 56.7336 60.5599 58.5679C58.7461 60.402 56.3237 62.2469 53.2943 64.1017C50.2849 65.9774 46.5635 68.0606 42.1322 70.3485C41.741 70.5542 41.3482 70.6991 40.957 70.7814C40.5867 70.8842 40.2675 70.9344 40 70.9344C39.7321 70.9344 39.402 70.8844 39.0104 70.7814C38.6398 70.6991 38.259 70.5542 37.8678 70.3485C33.5185 67.9368 29.827 65.78 26.7969 63.8836C23.788 62.0081 21.3655 60.1841 19.5312 58.4116C17.6974 56.6189 16.3681 54.6822 15.5436 52.6011C14.7191 50.5192 14.3066 48.0943 14.3066 45.3322V22.3309C14.3066 20.517 14.6659 19.1851 15.3874 18.34C16.1088 17.495 17.2228 16.7643 18.7272 16.146C19.4074 15.8781 20.3563 15.5187 21.5723 15.0653C22.7884 14.5912 24.1289 14.0843 25.5924 13.5483C27.0557 13.0125 28.5205 12.488 29.9837 11.9728C31.467 11.4372 32.8057 10.9624 34.0007 10.5503C35.2168 10.138 36.1568 9.81675 36.8164 9.59001C37.3313 9.44588 37.8565 9.32189 38.3919 9.21891C38.9485 9.11585 39.4847 9.06592 40 9.06592ZM40.0326 21.6798C37.4149 21.6798 35.2905 22.5875 33.6621 24.4012C32.0338 26.1944 31.2176 28.5752 31.2174 31.5431V35.1304C29.4254 35.3164 28.5289 36.5014 28.5286 38.6851V51.1785C28.529 53.5689 29.6427 54.7625 31.8685 54.7625H48.1934C50.4398 54.7625 51.5621 53.5689 51.5625 51.1785V38.6851C51.5622 36.5013 50.6572 35.325 48.8444 35.1597V31.5431C48.8443 28.5752 48.028 26.1944 46.3997 24.4012C44.7717 22.5879 42.6495 21.6802 40.0326 21.6798Z" fill="#304DDF"/>
<path fill-rule="evenodd" clip-rule="evenodd" d="M40 9.06592C40.5153 9.06592 41.0515 9.11585 41.6081 9.21891C42.1641 9.32188 42.6893 9.44589 43.1836 9.59001C43.8431 9.81672 44.7714 10.1381 45.9668 10.5503C47.1829 10.9625 48.5235 11.4369 49.987 11.9728L54.3783 13.5809C55.8619 14.096 57.2119 14.5794 58.4277 15.0327C59.6439 15.4862 60.5926 15.8574 61.2728 16.146C62.7772 16.7643 63.8912 17.4951 64.6126 18.34C65.3341 19.1851 65.6934 20.517 65.6934 22.3309V45.3322C65.6934 48.0943 65.2928 50.5398 64.4889 52.6629C63.685 54.7651 62.3736 56.7336 60.5599 58.5679C58.7461 60.402 56.3237 62.2469 53.2943 64.1017C50.2849 65.9774 46.5635 68.0606 42.1322 70.3485C41.741 70.5542 41.3482 70.6991 40.957 70.7814C40.5867 70.8842 40.2675 70.9344 40 70.9344C39.7321 70.9344 39.402 70.8844 39.0104 70.7814C38.6398 70.6991 38.259 70.5542 37.8678 70.3485C33.5185 67.9368 29.827 65.78 26.7969 63.8836C23.788 62.0081 21.3655 60.1841 19.5312 58.4116C17.6974 56.6189 16.3681 54.6822 15.5436 52.6011C14.7191 50.5192 14.3066 48.0943 14.3066 45.3322V22.3309C14.3066 20.517 14.6659 19.1851 15.3874 18.34C16.1088 17.495 17.2228 16.7643 18.7272 16.146C19.4074 15.8781 20.3563 15.5187 21.5723 15.0653C22.7884 14.5912 24.1289 14.0843 25.5924 13.5483C27.0557 13.0125 28.5205 12.488 29.9837 11.9728C31.467 11.4372 32.8057 10.9624 34.0007 10.5503C35.2168 10.138 36.1568 9.81675 36.8164 9.59001C37.3313 9.44588 37.8565 9.32189 38.3919 9.21891C38.9485 9.11585 39.4847 9.06592 40 9.06592ZM40.0326 21.6798C37.4149 21.6798 35.2905 22.5875 33.6621 24.4012C32.0338 26.1944 31.2176 28.5752 31.2174 31.5431V35.1304C29.4254 35.3164 28.5289 36.5014 28.5286 38.6851V51.1785C28.529 53.5689 29.6427 54.7625 31.8685 54.7625H48.1934C50.4398 54.7625 51.5621 53.5689 51.5625 51.1785V38.6851C51.5622 36.5013 50.6572 35.325 48.8444 35.1597V31.5431C48.8443 28.5752 48.028 26.1944 46.3997 24.4012C44.7717 22.5879 42.6495 21.6802 40.0326 21.6798Z" fill="#304DDF"/>
<path fill-rule="evenodd" clip-rule="evenodd" d="M40 9.06592C40.5153 9.06592 41.0515 9.11585 41.6081 9.21891C42.1641 9.32188 42.6893 9.44589 43.1836 9.59001C43.8431 9.81672 44.7714 10.1381 45.9668 10.5503C47.1829 10.9625 48.5235 11.4369 49.987 11.9728L54.3783 13.5809C55.8619 14.096 57.2119 14.5794 58.4277 15.0327C59.6439 15.4862 60.5926 15.8574 61.2728 16.146C62.7772 16.7643 63.8912 17.4951 64.6126 18.34C65.3341 19.1851 65.6934 20.517 65.6934 22.3309V45.3322C65.6934 48.0943 65.2928 50.5398 64.4889 52.6629C63.685 54.7651 62.3736 56.7336 60.5599 58.5679C58.7461 60.402 56.3237 62.2469 53.2943 64.1017C50.2849 65.9774 46.5635 68.0606 42.1322 70.3485C41.741 70.5542 41.3482 70.6991 40.957 70.7814C40.5867 70.8842 40.2675 70.9344 40 70.9344C39.7321 70.9344 39.402 70.8844 39.0104 70.7814C38.6398 70.6991 38.259 70.5542 37.8678 70.3485C33.5185 67.9368 29.827 65.78 26.7969 63.8836C23.788 62.0081 21.3655 60.1841 19.5312 58.4116C17.6974 56.6189 16.3681 54.6822 15.5436 52.6011C14.7191 50.5192 14.3066 48.0943 14.3066 45.3322V22.3309C14.3066 20.517 14.6659 19.1851 15.3874 18.34C16.1088 17.495 17.2228 16.7643 18.7272 16.146C19.4074 15.8781 20.3563 15.5187 21.5723 15.0653C22.7884 14.5912 24.1289 14.0843 25.5924 13.5483C27.0557 13.0125 28.5205 12.488 29.9837 11.9728C31.467 11.4372 32.8057 10.9624 34.0007 10.5503C35.2168 10.138 36.1568 9.81675 36.8164 9.59001C37.3313 9.44588 37.8565 9.32189 38.3919 9.21891C38.9485 9.11585 39.4847 9.06592 40 9.06592ZM40.0326 21.6798C37.4149 21.6798 35.2905 22.5875 33.6621 24.4012C32.0338 26.1944 31.2176 28.5752 31.2174 31.5431V35.1304C29.4254 35.3164 28.5289 36.5014 28.5286 38.6851V51.1785C28.529 53.5689 29.6427 54.7625 31.8685 54.7625H48.1934C50.4398 54.7625 51.5621 53.5689 51.5625 51.1785V38.6851C51.5622 36.5013 50.6572 35.325 48.8444 35.1597V31.5431C48.8443 28.5752 48.028 26.1944 46.3997 24.4012C44.7717 22.5879 42.6495 21.6802 40.0326 21.6798Z" fill="url(#paint2_linear_1830_4042)"/>
<path fill-rule="evenodd" clip-rule="evenodd" d="M40 9.06592C40.5153 9.06592 41.0515 9.11585 41.6081 9.21891C42.1641 9.32188 42.6893 9.44589 43.1836 9.59001C43.8431 9.81672 44.7714 10.1381 45.9668 10.5503C47.1829 10.9625 48.5235 11.4369 49.987 11.9728L54.3783 13.5809C55.8619 14.096 57.2119 14.5794 58.4277 15.0327C59.6439 15.4862 60.5926 15.8574 61.2728 16.146C62.7772 16.7643 63.8912 17.4951 64.6126 18.34C65.3341 19.1851 65.6934 20.517 65.6934 22.3309V45.3322C65.6934 48.0943 65.2928 50.5398 64.4889 52.6629C63.685 54.7651 62.3736 56.7336 60.5599 58.5679C58.7461 60.402 56.3237 62.2469 53.2943 64.1017C50.2849 65.9774 46.5635 68.0606 42.1322 70.3485C41.741 70.5542 41.3482 70.6991 40.957 70.7814C40.5867 70.8842 40.2675 70.9344 40 70.9344C39.7321 70.9344 39.402 70.8844 39.0104 70.7814C38.6398 70.6991 38.259 70.5542 37.8678 70.3485C33.5185 67.9368 29.827 65.78 26.7969 63.8836C23.788 62.0081 21.3655 60.1841 19.5312 58.4116C17.6974 56.6189 16.3681 54.6822 15.5436 52.6011C14.7191 50.5192 14.3066 48.0943 14.3066 45.3322V22.3309C14.3066 20.517 14.6659 19.1851 15.3874 18.34C16.1088 17.495 17.2228 16.7643 18.7272 16.146C19.4074 15.8781 20.3563 15.5187 21.5723 15.0653C22.7884 14.5912 24.1289 14.0843 25.5924 13.5483C27.0557 13.0125 28.5205 12.488 29.9837 11.9728C31.467 11.4372 32.8057 10.9624 34.0007 10.5503C35.2168 10.138 36.1568 9.81675 36.8164 9.59001C37.3313 9.44588 37.8565 9.32189 38.3919 9.21891C38.9485 9.11585 39.4847 9.06592 40 9.06592ZM40.0326 21.6798C37.4149 21.6798 35.2905 22.5875 33.6621 24.4012C32.0338 26.1944 31.2176 28.5752 31.2174 31.5431V35.1304C29.4254 35.3164 28.5289 36.5014 28.5286 38.6851V51.1785C28.529 53.5689 29.6427 54.7625 31.8685 54.7625H48.1934C50.4398 54.7625 51.5621 53.5689 51.5625 51.1785V38.6851C51.5622 36.5013 50.6572 35.325 48.8444 35.1597V31.5431C48.8443 28.5752 48.028 26.1944 46.3997 24.4012C44.7717 22.5879 42.6495 21.6802 40.0326 21.6798Z" fill="url(#paint3_linear_1830_4042)" fill-opacity="0.39"/>
<path fill-rule="evenodd" clip-rule="evenodd" d="M40 9.06592C40.5153 9.06592 41.0515 9.11585 41.6081 9.21891C42.1641 9.32188 42.6893 9.44589 43.1836 9.59001C43.8431 9.81672 44.7714 10.1381 45.9668 10.5503C47.1829 10.9625 48.5235 11.4369 49.987 11.9728L54.3783 13.5809C55.8619 14.096 57.2119 14.5794 58.4277 15.0327C59.6439 15.4862 60.5926 15.8574 61.2728 16.146C62.7772 16.7643 63.8912 17.4951 64.6126 18.34C65.3341 19.1851 65.6934 20.517 65.6934 22.3309V45.3322C65.6934 48.0943 65.2928 50.5398 64.4889 52.6629C63.685 54.7651 62.3736 56.7336 60.5599 58.5679C58.7461 60.402 56.3237 62.2469 53.2943 64.1017C50.2849 65.9774 46.5635 68.0606 42.1322 70.3485C41.741 70.5542 41.3482 70.6991 40.957 70.7814C40.5867 70.8842 40.2675 70.9344 40 70.9344C39.7321 70.9344 39.402 70.8844 39.0104 70.7814C38.6398 70.6991 38.259 70.5542 37.8678 70.3485C33.5185 67.9368 29.827 65.78 26.7969 63.8836C23.788 62.0081 21.3655 60.1841 19.5312 58.4116C17.6974 56.6189 16.3681 54.6822 15.5436 52.6011C14.7191 50.5192 14.3066 48.0943 14.3066 45.3322V22.3309C14.3066 20.517 14.6659 19.1851 15.3874 18.34C16.1088 17.495 17.2228 16.7643 18.7272 16.146C19.4074 15.8781 20.3563 15.5187 21.5723 15.0653C22.7884 14.5912 24.1289 14.0843 25.5924 13.5483C27.0557 13.0125 28.5205 12.488 29.9837 11.9728C31.467 11.4372 32.8057 10.9624 34.0007 10.5503C35.2168 10.138 36.1568 9.81675 36.8164 9.59001C37.3313 9.44588 37.8565 9.32189 38.3919 9.21891C38.9485 9.11585 39.4847 9.06592 40 9.06592ZM40.0326 21.6798C37.4149 21.6798 35.2905 22.5875 33.6621 24.4012C32.0338 26.1944 31.2176 28.5752 31.2174 31.5431V35.1304C29.4254 35.3164 28.5289 36.5014 28.5286 38.6851V51.1785C28.529 53.5689 29.6427 54.7625 31.8685 54.7625H48.1934C50.4398 54.7625 51.5621 53.5689 51.5625 51.1785V38.6851C51.5622 36.5013 50.6572 35.325 48.8444 35.1597V31.5431C48.8443 28.5752 48.028 26.1944 46.3997 24.4012C44.7717 22.5879 42.6495 21.6802 40.0326 21.6798Z" fill="#3E5DE7" fill-opacity="0.65"/>
<path d="M40.3955 8.96338C40.7952 8.9825 41.2067 9.02972 41.6289 9.10791C42.1882 9.21149 42.7168 9.33673 43.2148 9.48193L43.2197 9.48389C43.8793 9.71062 44.8088 10.0317 46.0039 10.4438H46.0029C47.22 10.8564 48.5614 11.3306 50.0254 11.8667L54.417 13.4751H54.416C55.8998 13.9903 57.2503 14.4736 58.4668 14.9272C59.6822 15.3804 60.6321 15.7521 61.3145 16.0415H61.3154C62.8292 16.6636 63.9611 17.4037 64.6982 18.2671C65.4451 19.142 65.8056 20.506 65.8057 22.3306V45.3325C65.8056 48.1052 65.4034 50.5644 64.5938 52.7026C63.8341 54.6889 62.6257 56.5547 60.9756 58.2993L60.6396 58.647C58.8176 60.4895 56.387 62.3399 53.3525 64.1978L53.3516 64.1968C50.3391 66.0743 46.616 68.1604 42.1836 70.4487L42.1826 70.4478C41.7858 70.6563 41.3861 70.8043 40.9863 70.8892C40.7042 70.9674 40.4485 71.0169 40.2197 71.0366L40 71.0474C39.7191 71.0474 39.3785 70.9946 38.9814 70.8901V70.8892C38.6011 70.8041 38.2122 70.6564 37.8154 70.4478L37.8135 70.4468C34.0068 68.336 30.7031 66.42 27.9053 64.7026L26.7373 63.979C23.7242 62.1009 21.2948 60.2723 19.4531 58.4927C17.6097 56.6905 16.2705 54.7399 15.4395 52.6421C14.6087 50.5445 14.1944 48.1054 14.1943 45.3325V22.3306C14.1944 20.506 14.5549 19.142 15.3018 18.2671C16.0389 17.4037 17.1708 16.6636 18.6846 16.0415H18.6855C19.0262 15.9073 19.4345 15.75 19.9092 15.5698L21.5332 14.9595C22.7496 14.4853 24.0903 13.9788 25.5537 13.4429C27.0172 12.907 28.482 12.382 29.9453 11.8667C31.4288 11.331 32.7682 10.8561 33.9639 10.4438H33.9648C35.1807 10.0317 36.1209 9.71055 36.7803 9.48389L36.7861 9.48193C37.304 9.33696 37.8326 9.21245 38.3711 9.10889V9.10791C38.934 9.00368 39.4774 8.95362 40 8.95361L40.3955 8.96338ZM40.0322 21.7925C37.4442 21.7926 35.3513 22.6883 33.7461 24.4761L33.7451 24.4771C32.1397 26.2451 31.3302 28.5971 31.3301 31.5435V35.2319L31.2295 35.2427C30.3576 35.3332 29.7165 35.6638 29.291 36.2261C28.8631 36.7917 28.6417 37.6067 28.6416 38.6851V51.1782C28.6418 52.3579 28.9164 53.222 29.4463 53.7905C29.9748 54.3574 30.775 54.6498 31.8682 54.6499H48.1934C49.2974 54.6499 50.1055 54.3567 50.6387 53.7896C51.1729 53.2211 51.45 52.3575 51.4502 51.1782V38.6851C51.4501 37.6067 51.226 36.7945 50.7939 36.2339C50.3644 35.6765 49.7167 35.3525 48.834 35.272L48.7314 35.2622V31.5435C48.7313 28.597 47.9219 26.2452 46.3164 24.4771V24.4761C44.7114 22.6884 42.6198 21.7928 40.0322 21.7925ZM40.0322 25.2163C41.5862 25.2167 42.8342 25.775 43.7637 26.8931L43.9355 27.1021C44.7696 28.1708 45.1846 29.5426 45.1846 31.2046V35.1812H34.8779V31.2046C34.8779 29.4323 35.349 27.9898 36.2979 26.8931L36.4795 26.6899C37.4051 25.7074 38.5932 25.2164 40.0322 25.2163Z" stroke="url(#paint4_linear_1830_4042)" stroke-opacity="0.25" stroke-width="0.225"/>
</g>
<defs>
<filter id="filter0_d_1830_4042" x="-2.19" y="-0.99" width="84.38" height="84.38" filterUnits="userSpaceOnUse" color-interpolation-filters="sRGB">
<feFlood flood-opacity="0" result="BackgroundImageFix"/>
<feColorMatrix in="SourceAlpha" type="matrix" values="0 0 0 0 0 0 0 0 0 0 0 0 0 0 0 0 0 0 127 0" result="hardAlpha"/>
<feOffset dy="1.2"/>
<feGaussianBlur stdDeviation="1.095"/>
<feColorMatrix type="matrix" values="0 0 0 0 0.243137 0 0 0 0 0.364706 0 0 0 0 0.905882 0 0 0 0.15 0"/>
<feBlend mode="normal" in2="BackgroundImageFix" result="effect1_dropShadow_1830_4042"/>
<feBlend mode="normal" in="SourceGraphic" in2="effect1_dropShadow_1830_4042" result="shape"/>
</filter>
<linearGradient id="paint0_linear_1830_4042" x1="25.8008" y1="-5.76978" x2="55.9587" y2="64.0402" gradientUnits="userSpaceOnUse">
<stop offset="0.670868" stop-color="#000091"/>
<stop offset="1" stop-color="#000091" stop-opacity="0"/>
</linearGradient>
<linearGradient id="paint1_linear_1830_4042" x1="52.9724" y1="9.06592" x2="47.6385" y2="40.9659" gradientUnits="userSpaceOnUse">
<stop stop-color="#F4C858"/>
<stop offset="1" stop-color="#F4C858" stop-opacity="0"/>
</linearGradient>
<linearGradient id="paint2_linear_1830_4042" x1="25.8008" y1="-5.76978" x2="55.9587" y2="64.0402" gradientUnits="userSpaceOnUse">
<stop offset="0.670868" stop-color="#000091"/>
<stop offset="1" stop-color="#000091" stop-opacity="0"/>
</linearGradient>
<linearGradient id="paint3_linear_1830_4042" x1="52.9724" y1="9.06592" x2="47.6385" y2="40.9659" gradientUnits="userSpaceOnUse">
<stop stop-color="#F4C858"/>
<stop offset="1" stop-color="#F4C858" stop-opacity="0"/>
</linearGradient>
<linearGradient id="paint4_linear_1830_4042" x1="40" y1="9.06592" x2="40" y2="70.9344" gradientUnits="userSpaceOnUse">
<stop stop-color="white"/>
<stop offset="0.519231" stop-color="white" stop-opacity="0"/>
<stop offset="1" stop-color="white"/>
</linearGradient>
</defs>
</svg>
