<svg width="80" height="80" viewBox="0 0 80 80" fill="none" xmlns="http://www.w3.org/2000/svg">
<g filter="url(#filter0_d_1782_4317)">
<path d="M51.9711 24.2205C52.7399 24.2207 53.4327 24.4737 54.0479 24.9789C54.6633 25.4844 54.969 26.1449 54.9691 26.9581C54.9691 27.3318 54.8813 27.718 54.7054 28.1137C54.5517 28.4869 54.3651 28.839 54.1455 29.1684L39.406 52.2185C38.7027 53.3386 37.7358 53.8979 36.5056 53.8982C35.89 53.8982 35.3388 53.7681 34.8552 53.5043C34.3719 53.2187 33.9005 52.8001 33.4392 52.2511L25.656 42.7524C25.0851 42.0275 24.8001 41.2921 24.7998 40.5453C24.7998 39.7319 25.0738 39.0368 25.6234 38.4652C26.1948 37.8724 26.8767 37.5766 27.6677 37.5766C28.1728 37.5766 28.6232 37.6859 29.0186 37.9054C29.4363 38.1032 29.8436 38.4683 30.2393 38.9958L36.3721 46.7758L49.3962 25.9034C50.0777 24.7823 50.9379 24.2205 51.9711 24.2205Z" fill="#304DDF"/>
<path d="M51.9711 24.2205C52.7399 24.2207 53.4327 24.4737 54.0479 24.9789C54.6633 25.4844 54.969 26.1449 54.9691 26.9581C54.9691 27.3318 54.8813 27.718 54.7054 28.1137C54.5517 28.4869 54.3651 28.839 54.1455 29.1684L39.406 52.2185C38.7027 53.3386 37.7358 53.8979 36.5056 53.8982C35.89 53.8982 35.3388 53.7681 34.8552 53.5043C34.3719 53.2187 33.9005 52.8001 33.4392 52.2511L25.656 42.7524C25.0851 42.0275 24.8001 41.2921 24.7998 40.5453C24.7998 39.7319 25.0738 39.0368 25.6234 38.4652C26.1948 37.8724 26.8767 37.5766 27.6677 37.5766C28.1728 37.5766 28.6232 37.6859 29.0186 37.9054C29.4363 38.1032 29.8436 38.4683 30.2393 38.9958L36.3721 46.7758L49.3962 25.9034C50.0777 24.7823 50.9379 24.2205 51.9711 24.2205Z" fill="#304DDF"/>
<path d="M51.9711 24.2205C52.7399 24.2207 53.4327 24.4737 54.0479 24.9789C54.6633 25.4844 54.969 26.1449 54.9691 26.9581C54.9691 27.3318 54.8813 27.718 54.7054 28.1137C54.5517 28.4869 54.3651 28.839 54.1455 29.1684L39.406 52.2185C38.7027 53.3386 37.7358 53.8979 36.5056 53.8982C35.89 53.8982 35.3388 53.7681 34.8552 53.5043C34.3719 53.2187 33.9005 52.8001 33.4392 52.2511L25.656 42.7524C25.0851 42.0275 24.8001 41.2921 24.7998 40.5453C24.7998 39.7319 25.0738 39.0368 25.6234 38.4652C26.1948 37.8724 26.8767 37.5766 27.6677 37.5766C28.1728 37.5766 28.6232 37.6859 29.0186 37.9054C29.4363 38.1032 29.8436 38.4683 30.2393 38.9958L36.3721 46.7758L49.3962 25.9034C50.0777 24.7823 50.9379 24.2205 51.9711 24.2205Z" fill="url(#paint0_linear_1782_4317)"/>
<path d="M51.9711 24.2205C52.7399 24.2207 53.4327 24.4737 54.0479 24.9789C54.6633 25.4844 54.969 26.1449 54.9691 26.9581C54.9691 27.3318 54.8813 27.718 54.7054 28.1137C54.5517 28.4869 54.3651 28.839 54.1455 29.1684L39.406 52.2185C38.7027 53.3386 37.7358 53.8979 36.5056 53.8982C35.89 53.8982 35.3388 53.7681 34.8552 53.5043C34.3719 53.2187 33.9005 52.8001 33.4392 52.2511L25.656 42.7524C25.0851 42.0275 24.8001 41.2921 24.7998 40.5453C24.7998 39.7319 25.0738 39.0368 25.6234 38.4652C26.1948 37.8724 26.8767 37.5766 27.6677 37.5766C28.1728 37.5766 28.6232 37.6859 29.0186 37.9054C29.4363 38.1032 29.8436 38.4683 30.2393 38.9958L36.3721 46.7758L49.3962 25.9034C50.0777 24.7823 50.9379 24.2205 51.9711 24.2205Z" fill="url(#paint1_linear_1782_4317)" fill-opacity="0.39"/>
<path d="M51.9711 24.2205C52.7399 24.2207 53.4327 24.4737 54.0479 24.9789C54.6633 25.4844 54.969 26.1449 54.9691 26.9581C54.9691 27.3318 54.8813 27.718 54.7054 28.1137C54.5517 28.4869 54.3651 28.839 54.1455 29.1684L39.406 52.2185C38.7027 53.3386 37.7358 53.8979 36.5056 53.8982C35.89 53.8982 35.3388 53.7681 34.8552 53.5043C34.3719 53.2187 33.9005 52.8001 33.4392 52.2511L25.656 42.7524C25.0851 42.0275 24.8001 41.2921 24.7998 40.5453C24.7998 39.7319 25.0738 39.0368 25.6234 38.4652C26.1948 37.8724 26.8767 37.5766 27.6677 37.5766C28.1728 37.5766 28.6232 37.6859 29.0186 37.9054C29.4363 38.1032 29.8436 38.4683 30.2393 38.9958L36.3721 46.7758L49.3962 25.9034C50.0777 24.7823 50.9379 24.2205 51.9711 24.2205Z" fill="#3E5DE7" fill-opacity="0.65"/>
<path fill-rule="evenodd" clip-rule="evenodd" d="M39.9984 6.44702C40.5478 6.44702 41.1206 6.50321 41.7139 6.61304C42.3294 6.72295 42.9124 6.85629 43.462 7.01017C44.1654 7.25199 45.1663 7.60323 46.4633 8.06486C47.7821 8.52646 49.2329 9.04285 50.8155 9.61434C52.4202 10.1639 54.0146 10.7225 55.5974 11.294C57.202 11.8655 58.6632 12.4063 59.9821 12.9119C61.3011 13.3955 62.3231 13.7923 63.0485 14.1C64.6973 14.8035 65.9087 15.6043 66.6781 16.5056C67.469 17.407 67.863 18.8368 67.863 20.7927V45.7211C67.863 48.7325 67.4132 51.3704 66.5121 53.6345C65.6328 55.8767 64.1928 57.9769 62.1924 59.9333C60.2139 61.8679 57.5871 63.859 54.3116 65.9034C51.0583 67.9476 47.0574 70.2661 42.3096 72.8598C41.8923 73.0794 41.4737 73.2447 41.0564 73.3546C40.6387 73.4865 40.2842 73.5531 39.9984 73.5531C39.7129 73.5529 39.3606 73.4862 38.9437 73.3546C38.5263 73.2447 38.1079 73.0795 37.6905 72.8598C32.9425 70.2659 28.9313 67.9339 25.656 65.8676C22.4028 63.8234 19.7754 61.8351 17.7751 59.9008C15.7966 57.9663 14.3568 55.8768 13.4554 53.6345C12.5762 51.3704 12.1371 48.7326 12.1371 45.7211V20.7927C12.1371 18.8366 12.5203 17.407 13.2894 16.5056C14.0808 15.5823 15.2922 14.7815 16.919 14.1C17.6444 13.7923 18.6667 13.3848 19.9854 12.8793C21.3042 12.3738 22.7656 11.8329 24.3702 11.2615C25.9747 10.668 27.5695 10.0849 29.1521 9.51343C30.7564 8.94203 32.2076 8.43606 33.5043 7.9965C34.8227 7.53505 35.8454 7.20799 36.5707 7.01017C37.0983 6.87827 37.6601 6.75551 38.2536 6.64559C38.8681 6.51401 39.4497 6.44715 39.9984 6.44702ZM39.9984 12.6482C39.757 12.6483 39.4926 12.68 39.2074 12.7458C38.9441 12.8117 38.6262 12.9106 38.2536 13.0421C37.3743 13.3938 36.3174 13.7906 35.0863 14.2302C33.8777 14.6697 32.57 15.1303 31.1638 15.6137C29.757 16.0973 28.3379 16.5925 26.9092 17.0981C25.5024 17.6036 24.1501 18.0988 22.8532 18.5824C21.5787 19.0439 20.4576 19.4727 19.4906 19.8682C19.029 20.0441 18.72 20.2758 18.5661 20.5616C18.4123 20.8474 18.335 21.276 18.335 21.8474V44.5004C18.335 46.9186 18.6651 48.9763 19.3246 50.669C19.9841 52.3612 21.0625 53.932 22.557 55.3826C24.0738 56.8114 26.0968 58.3392 28.6247 59.9659C31.1746 61.5926 34.3288 63.549 38.0876 65.835C38.5709 66.1206 38.9436 66.3208 39.2074 66.4307C39.4926 66.5404 39.757 66.5933 39.9984 66.5935C40.2178 66.5935 40.4718 66.5402 40.7569 66.4307C41.0427 66.3208 41.4183 66.1208 41.8799 65.835C45.6166 63.5931 48.7499 61.6714 51.2777 60.0668C53.8058 58.4401 55.8286 56.8986 57.3454 55.4477C58.8836 53.9971 59.9836 52.4263 60.6429 50.7341C61.3024 49.0194 61.6325 46.9405 61.6325 44.5004V21.8474C61.6325 21.2762 61.5551 20.8474 61.4014 20.5616C61.2475 20.2538 60.9491 20.0221 60.5095 19.8682C59.4987 19.5167 58.3455 19.1089 57.0492 18.6475C55.7746 18.186 54.4216 17.7044 52.9932 17.199C51.5863 16.6934 50.1887 16.1877 48.8037 15.682C47.4191 15.1766 46.112 14.7024 44.8812 14.2628C43.6502 13.8011 42.5932 13.3938 41.7139 13.0421C41.3406 12.9104 41.0098 12.8117 40.7243 12.7458C40.461 12.6801 40.2179 12.6482 39.9984 12.6482Z" fill="#304DDF"/>
<path fill-rule="evenodd" clip-rule="evenodd" d="M39.9984 6.44702C40.5478 6.44702 41.1206 6.50321 41.7139 6.61304C42.3294 6.72295 42.9124 6.85629 43.462 7.01017C44.1654 7.25199 45.1663 7.60323 46.4633 8.06486C47.7821 8.52646 49.2329 9.04285 50.8155 9.61434C52.4202 10.1639 54.0146 10.7225 55.5974 11.294C57.202 11.8655 58.6632 12.4063 59.9821 12.9119C61.3011 13.3955 62.3231 13.7923 63.0485 14.1C64.6973 14.8035 65.9087 15.6043 66.6781 16.5056C67.469 17.407 67.863 18.8368 67.863 20.7927V45.7211C67.863 48.7325 67.4132 51.3704 66.5121 53.6345C65.6328 55.8767 64.1928 57.9769 62.1924 59.9333C60.2139 61.8679 57.5871 63.859 54.3116 65.9034C51.0583 67.9476 47.0574 70.2661 42.3096 72.8598C41.8923 73.0794 41.4737 73.2447 41.0564 73.3546C40.6387 73.4865 40.2842 73.5531 39.9984 73.5531C39.7129 73.5529 39.3606 73.4862 38.9437 73.3546C38.5263 73.2447 38.1079 73.0795 37.6905 72.8598C32.9425 70.2659 28.9313 67.9339 25.656 65.8676C22.4028 63.8234 19.7754 61.8351 17.7751 59.9008C15.7966 57.9663 14.3568 55.8768 13.4554 53.6345C12.5762 51.3704 12.1371 48.7326 12.1371 45.7211V20.7927C12.1371 18.8366 12.5203 17.407 13.2894 16.5056C14.0808 15.5823 15.2922 14.7815 16.919 14.1C17.6444 13.7923 18.6667 13.3848 19.9854 12.8793C21.3042 12.3738 22.7656 11.8329 24.3702 11.2615C25.9747 10.668 27.5695 10.0849 29.1521 9.51343C30.7564 8.94203 32.2076 8.43606 33.5043 7.9965C34.8227 7.53505 35.8454 7.20799 36.5707 7.01017C37.0983 6.87827 37.6601 6.75551 38.2536 6.64559C38.8681 6.51401 39.4497 6.44715 39.9984 6.44702ZM39.9984 12.6482C39.757 12.6483 39.4926 12.68 39.2074 12.7458C38.9441 12.8117 38.6262 12.9106 38.2536 13.0421C37.3743 13.3938 36.3174 13.7906 35.0863 14.2302C33.8777 14.6697 32.57 15.1303 31.1638 15.6137C29.757 16.0973 28.3379 16.5925 26.9092 17.0981C25.5024 17.6036 24.1501 18.0988 22.8532 18.5824C21.5787 19.0439 20.4576 19.4727 19.4906 19.8682C19.029 20.0441 18.72 20.2758 18.5661 20.5616C18.4123 20.8474 18.335 21.276 18.335 21.8474V44.5004C18.335 46.9186 18.6651 48.9763 19.3246 50.669C19.9841 52.3612 21.0625 53.932 22.557 55.3826C24.0738 56.8114 26.0968 58.3392 28.6247 59.9659C31.1746 61.5926 34.3288 63.549 38.0876 65.835C38.5709 66.1206 38.9436 66.3208 39.2074 66.4307C39.4926 66.5404 39.757 66.5933 39.9984 66.5935C40.2178 66.5935 40.4718 66.5402 40.7569 66.4307C41.0427 66.3208 41.4183 66.1208 41.8799 65.835C45.6166 63.5931 48.7499 61.6714 51.2777 60.0668C53.8058 58.4401 55.8286 56.8986 57.3454 55.4477C58.8836 53.9971 59.9836 52.4263 60.6429 50.7341C61.3024 49.0194 61.6325 46.9405 61.6325 44.5004V21.8474C61.6325 21.2762 61.5551 20.8474 61.4014 20.5616C61.2475 20.2538 60.9491 20.0221 60.5095 19.8682C59.4987 19.5167 58.3455 19.1089 57.0492 18.6475C55.7746 18.186 54.4216 17.7044 52.9932 17.199C51.5863 16.6934 50.1887 16.1877 48.8037 15.682C47.4191 15.1766 46.112 14.7024 44.8812 14.2628C43.6502 13.8011 42.5932 13.3938 41.7139 13.0421C41.3406 12.9104 41.0098 12.8117 40.7243 12.7458C40.461 12.6801 40.2179 12.6482 39.9984 12.6482Z" fill="#304DDF"/>
<path fill-rule="evenodd" clip-rule="evenodd" d="M39.9984 6.44702C40.5478 6.44702 41.1206 6.50321 41.7139 6.61304C42.3294 6.72295 42.9124 6.85629 43.462 7.01017C44.1654 7.25199 45.1663 7.60323 46.4633 8.06486C47.7821 8.52646 49.2329 9.04285 50.8155 9.61434C52.4202 10.1639 54.0146 10.7225 55.5974 11.294C57.202 11.8655 58.6632 12.4063 59.9821 12.9119C61.3011 13.3955 62.3231 13.7923 63.0485 14.1C64.6973 14.8035 65.9087 15.6043 66.6781 16.5056C67.469 17.407 67.863 18.8368 67.863 20.7927V45.7211C67.863 48.7325 67.4132 51.3704 66.5121 53.6345C65.6328 55.8767 64.1928 57.9769 62.1924 59.9333C60.2139 61.8679 57.5871 63.859 54.3116 65.9034C51.0583 67.9476 47.0574 70.2661 42.3096 72.8598C41.8923 73.0794 41.4737 73.2447 41.0564 73.3546C40.6387 73.4865 40.2842 73.5531 39.9984 73.5531C39.7129 73.5529 39.3606 73.4862 38.9437 73.3546C38.5263 73.2447 38.1079 73.0795 37.6905 72.8598C32.9425 70.2659 28.9313 67.9339 25.656 65.8676C22.4028 63.8234 19.7754 61.8351 17.7751 59.9008C15.7966 57.9663 14.3568 55.8768 13.4554 53.6345C12.5762 51.3704 12.1371 48.7326 12.1371 45.7211V20.7927C12.1371 18.8366 12.5203 17.407 13.2894 16.5056C14.0808 15.5823 15.2922 14.7815 16.919 14.1C17.6444 13.7923 18.6667 13.3848 19.9854 12.8793C21.3042 12.3738 22.7656 11.8329 24.3702 11.2615C25.9747 10.668 27.5695 10.0849 29.1521 9.51343C30.7564 8.94203 32.2076 8.43606 33.5043 7.9965C34.8227 7.53505 35.8454 7.20799 36.5707 7.01017C37.0983 6.87827 37.6601 6.75551 38.2536 6.64559C38.8681 6.51401 39.4497 6.44715 39.9984 6.44702ZM39.9984 12.6482C39.757 12.6483 39.4926 12.68 39.2074 12.7458C38.9441 12.8117 38.6262 12.9106 38.2536 13.0421C37.3743 13.3938 36.3174 13.7906 35.0863 14.2302C33.8777 14.6697 32.57 15.1303 31.1638 15.6137C29.757 16.0973 28.3379 16.5925 26.9092 17.0981C25.5024 17.6036 24.1501 18.0988 22.8532 18.5824C21.5787 19.0439 20.4576 19.4727 19.4906 19.8682C19.029 20.0441 18.72 20.2758 18.5661 20.5616C18.4123 20.8474 18.335 21.276 18.335 21.8474V44.5004C18.335 46.9186 18.6651 48.9763 19.3246 50.669C19.9841 52.3612 21.0625 53.932 22.557 55.3826C24.0738 56.8114 26.0968 58.3392 28.6247 59.9659C31.1746 61.5926 34.3288 63.549 38.0876 65.835C38.5709 66.1206 38.9436 66.3208 39.2074 66.4307C39.4926 66.5404 39.757 66.5933 39.9984 66.5935C40.2178 66.5935 40.4718 66.5402 40.7569 66.4307C41.0427 66.3208 41.4183 66.1208 41.8799 65.835C45.6166 63.5931 48.7499 61.6714 51.2777 60.0668C53.8058 58.4401 55.8286 56.8986 57.3454 55.4477C58.8836 53.9971 59.9836 52.4263 60.6429 50.7341C61.3024 49.0194 61.6325 46.9405 61.6325 44.5004V21.8474C61.6325 21.2762 61.5551 20.8474 61.4014 20.5616C61.2475 20.2538 60.9491 20.0221 60.5095 19.8682C59.4987 19.5167 58.3455 19.1089 57.0492 18.6475C55.7746 18.186 54.4216 17.7044 52.9932 17.199C51.5863 16.6934 50.1887 16.1877 48.8037 15.682C47.4191 15.1766 46.112 14.7024 44.8812 14.2628C43.6502 13.8011 42.5932 13.3938 41.7139 13.0421C41.3406 12.9104 41.0098 12.8117 40.7243 12.7458C40.461 12.6801 40.2179 12.6482 39.9984 12.6482Z" fill="url(#paint2_linear_1782_4317)"/>
<path fill-rule="evenodd" clip-rule="evenodd" d="M39.9984 6.44702C40.5478 6.44702 41.1206 6.50321 41.7139 6.61304C42.3294 6.72295 42.9124 6.85629 43.462 7.01017C44.1654 7.25199 45.1663 7.60323 46.4633 8.06486C47.7821 8.52646 49.2329 9.04285 50.8155 9.61434C52.4202 10.1639 54.0146 10.7225 55.5974 11.294C57.202 11.8655 58.6632 12.4063 59.9821 12.9119C61.3011 13.3955 62.3231 13.7923 63.0485 14.1C64.6973 14.8035 65.9087 15.6043 66.6781 16.5056C67.469 17.407 67.863 18.8368 67.863 20.7927V45.7211C67.863 48.7325 67.4132 51.3704 66.5121 53.6345C65.6328 55.8767 64.1928 57.9769 62.1924 59.9333C60.2139 61.8679 57.5871 63.859 54.3116 65.9034C51.0583 67.9476 47.0574 70.2661 42.3096 72.8598C41.8923 73.0794 41.4737 73.2447 41.0564 73.3546C40.6387 73.4865 40.2842 73.5531 39.9984 73.5531C39.7129 73.5529 39.3606 73.4862 38.9437 73.3546C38.5263 73.2447 38.1079 73.0795 37.6905 72.8598C32.9425 70.2659 28.9313 67.9339 25.656 65.8676C22.4028 63.8234 19.7754 61.8351 17.7751 59.9008C15.7966 57.9663 14.3568 55.8768 13.4554 53.6345C12.5762 51.3704 12.1371 48.7326 12.1371 45.7211V20.7927C12.1371 18.8366 12.5203 17.407 13.2894 16.5056C14.0808 15.5823 15.2922 14.7815 16.919 14.1C17.6444 13.7923 18.6667 13.3848 19.9854 12.8793C21.3042 12.3738 22.7656 11.8329 24.3702 11.2615C25.9747 10.668 27.5695 10.0849 29.1521 9.51343C30.7564 8.94203 32.2076 8.43606 33.5043 7.9965C34.8227 7.53505 35.8454 7.20799 36.5707 7.01017C37.0983 6.87827 37.6601 6.75551 38.2536 6.64559C38.8681 6.51401 39.4497 6.44715 39.9984 6.44702ZM39.9984 12.6482C39.757 12.6483 39.4926 12.68 39.2074 12.7458C38.9441 12.8117 38.6262 12.9106 38.2536 13.0421C37.3743 13.3938 36.3174 13.7906 35.0863 14.2302C33.8777 14.6697 32.57 15.1303 31.1638 15.6137C29.757 16.0973 28.3379 16.5925 26.9092 17.0981C25.5024 17.6036 24.1501 18.0988 22.8532 18.5824C21.5787 19.0439 20.4576 19.4727 19.4906 19.8682C19.029 20.0441 18.72 20.2758 18.5661 20.5616C18.4123 20.8474 18.335 21.276 18.335 21.8474V44.5004C18.335 46.9186 18.6651 48.9763 19.3246 50.669C19.9841 52.3612 21.0625 53.932 22.557 55.3826C24.0738 56.8114 26.0968 58.3392 28.6247 59.9659C31.1746 61.5926 34.3288 63.549 38.0876 65.835C38.5709 66.1206 38.9436 66.3208 39.2074 66.4307C39.4926 66.5404 39.757 66.5933 39.9984 66.5935C40.2178 66.5935 40.4718 66.5402 40.7569 66.4307C41.0427 66.3208 41.4183 66.1208 41.8799 65.835C45.6166 63.5931 48.7499 61.6714 51.2777 60.0668C53.8058 58.4401 55.8286 56.8986 57.3454 55.4477C58.8836 53.9971 59.9836 52.4263 60.6429 50.7341C61.3024 49.0194 61.6325 46.9405 61.6325 44.5004V21.8474C61.6325 21.2762 61.5551 20.8474 61.4014 20.5616C61.2475 20.2538 60.9491 20.0221 60.5095 19.8682C59.4987 19.5167 58.3455 19.1089 57.0492 18.6475C55.7746 18.186 54.4216 17.7044 52.9932 17.199C51.5863 16.6934 50.1887 16.1877 48.8037 15.682C47.4191 15.1766 46.112 14.7024 44.8812 14.2628C43.6502 13.8011 42.5932 13.3938 41.7139 13.0421C41.3406 12.9104 41.0098 12.8117 40.7243 12.7458C40.461 12.6801 40.2179 12.6482 39.9984 12.6482Z" fill="url(#paint3_linear_1782_4317)" fill-opacity="0.39"/>
<path fill-rule="evenodd" clip-rule="evenodd" d="M39.9984 6.44702C40.5478 6.44702 41.1206 6.50321 41.7139 6.61304C42.3294 6.72295 42.9124 6.85629 43.462 7.01017C44.1654 7.25199 45.1663 7.60323 46.4633 8.06486C47.7821 8.52646 49.2329 9.04285 50.8155 9.61434C52.4202 10.1639 54.0146 10.7225 55.5974 11.294C57.202 11.8655 58.6632 12.4063 59.9821 12.9119C61.3011 13.3955 62.3231 13.7923 63.0485 14.1C64.6973 14.8035 65.9087 15.6043 66.6781 16.5056C67.469 17.407 67.863 18.8368 67.863 20.7927V45.7211C67.863 48.7325 67.4132 51.3704 66.5121 53.6345C65.6328 55.8767 64.1928 57.9769 62.1924 59.9333C60.2139 61.8679 57.5871 63.859 54.3116 65.9034C51.0583 67.9476 47.0574 70.2661 42.3096 72.8598C41.8923 73.0794 41.4737 73.2447 41.0564 73.3546C40.6387 73.4865 40.2842 73.5531 39.9984 73.5531C39.7129 73.5529 39.3606 73.4862 38.9437 73.3546C38.5263 73.2447 38.1079 73.0795 37.6905 72.8598C32.9425 70.2659 28.9313 67.9339 25.656 65.8676C22.4028 63.8234 19.7754 61.8351 17.7751 59.9008C15.7966 57.9663 14.3568 55.8768 13.4554 53.6345C12.5762 51.3704 12.1371 48.7326 12.1371 45.7211V20.7927C12.1371 18.8366 12.5203 17.407 13.2894 16.5056C14.0808 15.5823 15.2922 14.7815 16.919 14.1C17.6444 13.7923 18.6667 13.3848 19.9854 12.8793C21.3042 12.3738 22.7656 11.8329 24.3702 11.2615C25.9747 10.668 27.5695 10.0849 29.1521 9.51343C30.7564 8.94203 32.2076 8.43606 33.5043 7.9965C34.8227 7.53505 35.8454 7.20799 36.5707 7.01017C37.0983 6.87827 37.6601 6.75551 38.2536 6.64559C38.8681 6.51401 39.4497 6.44715 39.9984 6.44702ZM39.9984 12.6482C39.757 12.6483 39.4926 12.68 39.2074 12.7458C38.9441 12.8117 38.6262 12.9106 38.2536 13.0421C37.3743 13.3938 36.3174 13.7906 35.0863 14.2302C33.8777 14.6697 32.57 15.1303 31.1638 15.6137C29.757 16.0973 28.3379 16.5925 26.9092 17.0981C25.5024 17.6036 24.1501 18.0988 22.8532 18.5824C21.5787 19.0439 20.4576 19.4727 19.4906 19.8682C19.029 20.0441 18.72 20.2758 18.5661 20.5616C18.4123 20.8474 18.335 21.276 18.335 21.8474V44.5004C18.335 46.9186 18.6651 48.9763 19.3246 50.669C19.9841 52.3612 21.0625 53.932 22.557 55.3826C24.0738 56.8114 26.0968 58.3392 28.6247 59.9659C31.1746 61.5926 34.3288 63.549 38.0876 65.835C38.5709 66.1206 38.9436 66.3208 39.2074 66.4307C39.4926 66.5404 39.757 66.5933 39.9984 66.5935C40.2178 66.5935 40.4718 66.5402 40.7569 66.4307C41.0427 66.3208 41.4183 66.1208 41.8799 65.835C45.6166 63.5931 48.7499 61.6714 51.2777 60.0668C53.8058 58.4401 55.8286 56.8986 57.3454 55.4477C58.8836 53.9971 59.9836 52.4263 60.6429 50.7341C61.3024 49.0194 61.6325 46.9405 61.6325 44.5004V21.8474C61.6325 21.2762 61.5551 20.8474 61.4014 20.5616C61.2475 20.2538 60.9491 20.0221 60.5095 19.8682C59.4987 19.5167 58.3455 19.1089 57.0492 18.6475C55.7746 18.186 54.4216 17.7044 52.9932 17.199C51.5863 16.6934 50.1887 16.1877 48.8037 15.682C47.4191 15.1766 46.112 14.7024 44.8812 14.2628C43.6502 13.8011 42.5932 13.3938 41.7139 13.0421C41.3406 12.9104 41.0098 12.8117 40.7243 12.7458C40.461 12.6801 40.2179 12.6482 39.9984 12.6482Z" fill="#3E5DE7" fill-opacity="0.65"/>
<path d="M16.8754 13.9958C17.6025 13.6874 18.626 13.2797 19.9447 12.7742C21.2644 12.2683 22.7271 11.7268 24.3324 11.155C25.9367 10.5617 27.5313 9.97936 29.1136 9.40796L29.1146 9.40698C30.7188 8.83566 32.1702 8.33005 33.4672 7.89038L34.4017 7.56909C35.2809 7.27271 35.9947 7.05122 36.5414 6.9021L36.5433 6.90112C37.0731 6.76868 37.6371 6.64523 38.2328 6.53491C38.8527 6.40232 39.4414 6.33484 39.9984 6.33472L40.4203 6.34546C40.8464 6.36668 41.2853 6.41949 41.7347 6.50269H41.7338C42.1978 6.58554 42.6435 6.6816 43.0707 6.78979L43.4926 6.9021L43.4984 6.90405C44.2024 7.14606 45.2042 7.49705 46.5013 7.95874H46.5004C47.8189 8.42022 49.2691 8.93636 50.851 9.50757C52.456 10.0572 54.0519 10.6165 55.6351 11.1882L57.9359 12.0222C58.6671 12.2922 59.3629 12.5534 60.0228 12.8064H60.0219C61.341 13.2901 62.3644 13.6881 63.0922 13.9968H63.0931C64.7494 14.7036 65.9781 15.5123 66.7631 16.4314L66.9105 16.6121C67.6276 17.5475 67.976 18.9484 67.976 20.7927V45.7214C67.9759 48.7437 67.524 51.3965 66.6166 53.6765C65.7306 55.9354 64.2805 58.0479 62.2709 60.0134C60.5331 61.7126 58.2993 63.4531 55.5707 65.2332L54.3715 65.9988C51.1157 68.0446 47.1127 70.3643 42.3636 72.9587L42.3617 72.9597C41.9377 73.1828 41.5114 73.3514 41.0853 73.4636L41.0844 73.4626C40.769 73.5619 40.4855 73.6273 40.2367 73.6531L39.9984 73.6658C39.6982 73.6655 39.3357 73.595 38.9154 73.4626V73.4636C38.4891 73.3514 38.0623 73.183 37.6381 72.9597L37.6361 72.9587C33.4806 70.6886 29.8887 68.6181 26.8597 66.7507L25.5961 65.9626C22.5423 64.0437 20.036 62.1725 18.0804 60.3464L17.6967 59.9812C15.7086 58.0373 14.2589 55.9352 13.351 53.6765V53.6755C12.4657 51.3958 12.0248 48.7435 12.0248 45.7214V20.7927C12.0248 18.8261 12.4088 17.3637 13.2035 16.4324H13.2045C14.0113 15.4912 15.2395 14.6812 16.8754 13.9958ZM39.9984 12.7605C39.7671 12.7606 39.5114 12.7903 39.2338 12.8542C38.9753 12.9189 38.6616 13.0176 38.2914 13.1482L38.2904 13.1472C37.851 13.3229 37.3682 13.511 36.8412 13.7087L35.1244 14.3357C33.9152 14.7754 32.6072 15.2369 31.2006 15.7205C29.7942 16.2039 28.375 16.6975 26.9467 17.2029L26.9476 17.2039C25.5413 17.7093 24.1894 18.2048 22.8929 18.6882H22.892C21.6186 19.1493 20.4988 19.5776 19.5336 19.9724L19.5306 19.9734C19.0816 20.1445 18.8013 20.3627 18.6654 20.615C18.5248 20.8763 18.4476 21.2825 18.4476 21.8474V44.5007C18.4477 46.9089 18.7762 48.9517 19.4291 50.6277C20.0818 52.3023 21.1502 53.8599 22.6342 55.3005L23.224 55.8386C24.6563 57.1055 26.4769 58.4494 28.6859 59.8708H28.6849C31.2335 61.4966 34.3864 63.4528 38.1439 65.738C38.6265 66.0232 38.9943 66.2201 39.2504 66.3269C39.5242 66.4319 39.7741 66.481 39.9984 66.4812C40.2001 66.4812 40.4401 66.4319 40.7162 66.3259C40.9921 66.2198 41.361 66.0236 41.8207 65.739H41.8217C45.5579 63.4973 48.6904 61.5754 51.2172 59.9714C53.7412 58.3472 55.7581 56.8102 57.2679 55.366L57.5492 55.0945C58.9303 53.7301 59.9258 52.2635 60.5375 50.6941L60.6566 50.3708C61.2309 48.7359 61.5199 46.7792 61.5199 44.5007V21.8474C61.5199 21.2827 61.4427 20.8763 61.3021 20.615L61.3011 20.6121C61.1644 20.3387 60.8942 20.1221 60.472 19.9744L57.0111 18.7537C55.7368 18.2923 54.3838 17.8108 52.9554 17.3054V17.3044C51.5484 16.7988 50.1502 16.2935 48.765 15.7878C47.3806 15.2824 46.0736 14.8083 44.8431 14.3689L44.8422 14.3679C43.6123 13.9067 42.5557 13.499 41.6761 13.1472C41.3059 13.0166 40.9788 12.9199 40.6986 12.8552H40.6967C40.4407 12.7913 40.2071 12.7605 39.9984 12.7605ZM51.9711 24.1082C52.7669 24.1084 53.485 24.3712 54.1195 24.8923C54.7615 25.4198 55.0812 26.1123 55.0814 26.9578C55.0814 27.3485 54.9893 27.7492 54.809 28.156C54.6525 28.5358 54.4634 28.8955 54.2396 29.2312L39.5004 52.2771L39.5013 52.2781C38.7794 53.4281 37.7775 54.0102 36.5052 54.0105C35.8736 54.0105 35.3033 53.8772 34.8011 53.6033L34.7982 53.6013C34.3013 53.3077 33.8201 52.879 33.3529 52.323L33.3519 52.322L25.5687 42.824L25.5677 42.822C24.985 42.0822 24.6873 41.323 24.6869 40.5457C24.6869 39.7043 24.972 38.9807 25.5424 38.3875L25.7699 38.1716C26.3135 37.7011 26.9475 37.4637 27.6674 37.4636C28.1862 37.4637 28.6535 37.5763 29.0658 37.8035C29.5051 38.0116 29.9258 38.3914 30.3275 38.9265L36.3607 46.5798L49.3011 25.8435C49.9966 24.7002 50.8883 24.1082 51.9711 24.1082Z" stroke="url(#paint4_linear_1782_4317)" stroke-opacity="0.25" stroke-width="0.225"/>
</g>
<defs>
<filter id="filter0_d_1782_4317" x="-2.19" y="-0.99" width="84.38" height="84.38" filterUnits="userSpaceOnUse" color-interpolation-filters="sRGB">
<feFlood flood-opacity="0" result="BackgroundImageFix"/>
<feColorMatrix in="SourceAlpha" type="matrix" values="0 0 0 0 0 0 0 0 0 0 0 0 0 0 0 0 0 0 127 0" result="hardAlpha"/>
<feOffset dy="1.2"/>
<feGaussianBlur stdDeviation="1.095"/>
<feComposite in2="hardAlpha" operator="out"/>
<feColorMatrix type="matrix" values="0 0 0 0 0.243137 0 0 0 0 0.364706 0 0 0 0 0.905882 0 0 0 0.15 0"/>
<feBlend mode="normal" in2="BackgroundImageFix" result="effect1_dropShadow_1782_4317"/>
<feBlend mode="normal" in="SourceGraphic" in2="effect1_dropShadow_1782_4317" result="shape"/>
</filter>
<linearGradient id="paint0_linear_1782_4317" x1="24.6018" y1="-9.64463" x2="57.3173" y2="66.0706" gradientUnits="userSpaceOnUse">
<stop offset="0.670868" stop-color="#000091"/>
<stop offset="1" stop-color="#000091" stop-opacity="0"/>
</linearGradient>
<linearGradient id="paint1_linear_1782_4317" x1="54.0679" y1="6.44702" x2="48.2813" y2="41.0472" gradientUnits="userSpaceOnUse">
<stop stop-color="#F4C858"/>
<stop offset="1" stop-color="#F4C858" stop-opacity="0"/>
</linearGradient>
<linearGradient id="paint2_linear_1782_4317" x1="24.6018" y1="-9.64463" x2="57.3173" y2="66.0706" gradientUnits="userSpaceOnUse">
<stop offset="0.670868" stop-color="#000091"/>
<stop offset="1" stop-color="#000091" stop-opacity="0"/>
</linearGradient>
<linearGradient id="paint3_linear_1782_4317" x1="54.0679" y1="6.44702" x2="48.2813" y2="41.0472" gradientUnits="userSpaceOnUse">
<stop stop-color="#F4C858"/>
<stop offset="1" stop-color="#F4C858" stop-opacity="0"/>
</linearGradient>
<linearGradient id="paint4_linear_1782_4317" x1="40" y1="6.44702" x2="40" y2="73.5531" gradientUnits="userSpaceOnUse">
<stop stop-color="white"/>
<stop offset="0.519231" stop-color="white" stop-opacity="0"/>
<stop offset="1" stop-color="white"/>
</linearGradient>
</defs>
</svg>
