<svg width="40" height="40" viewBox="0 0 40 40" fill="none" xmlns="http://www.w3.org/2000/svg">
<path d="M29.2854 26.1084C29.7708 26.1084 30.1892 26.2879 30.5387 26.6471C30.8879 27.0061 31.0626 27.4284 31.0628 27.9134C31.0628 28.3987 30.8881 28.8172 30.5387 29.1667C30.1892 29.5161 29.7708 29.6957 29.2854 29.7054C28.8003 29.715 28.3782 29.5403 28.0192 29.1813C27.6697 28.8221 27.4951 28.3988 27.4951 27.9134C27.4953 27.4284 27.6699 27.0061 28.0192 26.6471C28.3782 26.2882 28.8003 26.1085 29.2854 26.1084Z" fill="#3E5DE7"/>
<path d="M29.2854 18.1868C29.7708 18.1868 30.1892 18.3664 30.5387 18.7256C30.8881 19.075 31.0628 19.4984 31.0628 19.9935C31.0626 20.4785 30.8879 20.8959 30.5387 21.2451C30.1892 21.5946 29.7708 21.7741 29.2854 21.7839C28.8003 21.7934 28.3782 21.6187 28.0192 21.2598C27.6699 20.9008 27.4953 20.4785 27.4951 19.9935C27.4951 19.5081 27.6697 19.0848 28.0192 18.7256C28.3782 18.3666 28.8003 18.187 29.2854 18.1868Z" fill="#3E5DE7"/>
<path d="M29.2854 10.2507C29.7708 10.2507 30.1892 10.4302 30.5387 10.7894C30.8881 11.1486 31.0628 11.5719 31.0628 12.0573C31.0626 12.5423 30.8879 12.9597 30.5387 13.3089C30.1892 13.6584 29.7708 13.8379 29.2854 13.8477C28.8003 13.8572 28.3782 13.6826 28.0192 13.3236C27.6699 12.9646 27.4952 12.5424 27.4951 12.0573C27.4951 11.5719 27.6697 11.1486 28.0192 10.7894C28.3782 10.4305 28.8004 10.2508 29.2854 10.2507Z" fill="#3E5DE7"/>
<path fill-rule="evenodd" clip-rule="evenodd" d="M32.2281 6.40625C33.81 6.40638 35.0033 6.81008 35.8089 7.61556C36.6146 8.4116 37.0182 9.58608 37.0182 11.1393V28.8753C37.0182 30.4286 36.6146 31.6031 35.8089 32.3991C35.0033 33.1948 33.81 33.5936 32.2281 33.5937H7.29814C5.7255 33.5937 4.53617 33.1951 3.73043 32.3991C2.92469 31.6031 2.52112 30.4286 2.52112 28.8753V11.1393C2.52112 9.58611 2.92472 8.4116 3.73043 7.61556C4.53617 6.80981 5.72548 6.40625 7.29814 6.40625H32.2281ZM5.39058 25.2051V28.6279C5.39062 29.3268 5.56522 29.8557 5.91467 30.2148C6.27381 30.5642 6.79291 30.7389 7.47229 30.7389H32.067C32.7366 30.7389 33.2508 30.5641 33.61 30.2148C33.9691 29.8557 34.1503 29.3268 34.1503 28.6279V25.2051H5.39058ZM5.39058 17.2559V22.7734H34.1503V17.2559H5.39058ZM7.47229 9.27572C6.79289 9.27577 6.27381 9.45532 5.91467 9.81445C5.56526 10.1639 5.39059 10.6878 5.39058 11.3867V14.8226H34.1503V11.3867C34.1503 10.6878 33.9692 10.1639 33.61 9.81445C33.2508 9.4554 32.7367 9.27572 32.067 9.27572H7.47229Z" fill="#3E5DE7"/>
</svg>
