<svg width="80" height="80" viewBox="0 0 80 80" fill="none" xmlns="http://www.w3.org/2000/svg">
<g filter="url(#filter0_d_1782_7270)">
<path d="M14.3786 72.0181L57.5096 28.7882C58.345 27.9528 58.7626 26.9526 58.7626 25.7875C58.7626 24.6224 58.3559 23.6221 57.5426 22.7868C56.7512 21.9514 55.7619 21.5337 54.5748 21.5337C53.3658 21.5337 52.3435 21.9514 51.5082 22.7868L8.37714 66.0167C7.54178 66.8741 7.12409 67.8743 7.12409 69.0174C7.12409 70.1825 7.53078 71.1828 8.34416 72.0181C9.13556 72.8535 10.1358 73.2712 11.3449 73.2712C12.532 73.2932 13.5432 72.8755 14.3786 72.0181ZM43.0337 39.1752L41.1541 37.3286L53.1569 25.2928C53.4207 25.029 53.7395 24.8971 54.1132 24.8971C54.4649 24.8971 54.7727 25.029 55.0365 25.2928C55.3003 25.5566 55.4322 25.8754 55.4322 26.2491C55.4322 26.6008 55.3003 26.8976 55.0365 27.1394L43.0337 39.1752ZM24.9964 32.3824C25.3262 32.3824 25.59 32.2945 25.7878 32.1186C25.9857 31.9428 26.0956 31.7009 26.1176 31.3932C26.4473 29.4147 26.821 27.7989 27.2387 26.5459C27.6344 25.2709 28.206 24.2596 28.9534 23.5122C29.6789 22.7428 30.6681 22.1602 31.9211 21.7645C33.1742 21.3469 34.8119 20.9731 36.8344 20.6434C37.5159 20.5335 37.8566 20.1817 37.8566 19.5882C37.8566 18.9287 37.5159 18.555 36.8344 18.4671C34.79 18.1813 33.1522 17.8295 31.9211 17.4119C30.6681 16.9722 29.6789 16.3787 28.9534 15.6312C28.228 14.8838 27.6674 13.8836 27.2717 12.6305C26.876 11.3555 26.4913 9.71774 26.1176 7.71727C26.0077 7.05778 25.634 6.72803 24.9964 6.72803C24.4249 6.72803 24.0731 7.06877 23.9412 7.75025C23.6335 9.70675 23.2708 11.3225 22.8531 12.5975C22.4354 13.8506 21.8638 14.8618 21.1384 15.6312C20.4129 16.3787 19.4237 16.9722 18.1707 17.4119C16.8956 17.8295 15.2359 18.1813 13.1915 18.4671C12.532 18.555 12.2022 18.9287 12.2022 19.5882C12.2022 20.2037 12.532 20.5555 13.1915 20.6434C15.2579 20.9512 16.9176 21.3139 18.1707 21.7316C19.4237 22.1492 20.4129 22.7318 21.1384 23.4792C21.8419 24.2267 22.3914 25.2489 22.7871 26.5459C23.1828 27.8209 23.5675 29.4477 23.9412 31.4262C23.9852 31.7119 24.1171 31.9428 24.3369 32.1186C24.5348 32.2945 24.7546 32.3824 24.9964 32.3824ZM63.3791 59.4877C63.9287 59.4877 64.2474 59.1909 64.3354 58.5974C64.5772 57.0366 64.808 55.8055 65.0279 54.9042C65.2257 54.0029 65.5554 53.3214 66.0171 52.8598C66.4568 52.3761 67.1492 52.0024 68.0945 51.7386C69.0178 51.4748 70.3258 51.211 72.0185 50.9472C72.5901 50.8373 72.8759 50.5186 72.8759 49.991C72.8759 49.4414 72.5791 49.1226 71.9855 49.0347C70.3148 48.7709 69.0178 48.5181 68.0945 48.2763C67.1492 48.0125 66.4568 47.6388 66.0171 47.1551C65.5554 46.6715 65.2257 45.979 65.0279 45.0777C64.808 44.1544 64.5772 42.9234 64.3354 41.3845C64.2474 40.791 63.9287 40.4942 63.3791 40.4942C62.8295 40.4942 62.5108 40.791 62.4228 41.3845C62.181 42.9234 61.9502 44.1434 61.7304 45.0447C61.5105 45.9461 61.1808 46.6385 60.7411 47.1222C60.3015 47.6058 59.62 47.9795 58.6967 48.2433C57.7514 48.5071 56.4324 48.7709 54.7397 49.0347C54.1681 49.1226 53.8824 49.4414 53.8824 49.991C53.8824 50.5186 54.1681 50.8373 54.7397 50.9472C56.4324 51.211 57.7404 51.4748 58.6637 51.7386C59.587 51.9804 60.2795 52.3432 60.7411 52.8268C61.1808 53.2884 61.5105 53.9809 61.7304 54.9042C61.9502 55.8055 62.181 57.0366 62.4228 58.5974C62.5108 59.1909 62.8295 59.4877 63.3791 59.4877ZM52.2336 68.9845C52.6293 68.9845 52.8931 68.7426 53.025 68.259C53.2668 67.0499 53.4867 66.1706 53.6845 65.621C53.8604 65.0495 54.2231 64.6538 54.7727 64.4339C55.3003 64.2141 56.2566 63.9613 57.6415 63.6755C58.0812 63.5876 58.301 63.3348 58.301 62.9171C58.301 62.4994 58.0702 62.2356 57.6085 62.1257C56.2456 61.9059 55.2893 61.686 54.7397 61.4662C54.1901 61.2244 53.8274 60.8287 53.6515 60.2791C53.4757 59.7075 53.2668 58.8062 53.025 57.5752C52.8931 57.0915 52.6293 56.8497 52.2336 56.8497C51.794 56.8497 51.5302 57.0806 51.4422 57.5422C51.2224 58.7952 51.0246 59.6966 50.8487 60.2461C50.6728 60.7957 50.3101 61.1804 49.7605 61.4003C49.189 61.6201 48.2107 61.8619 46.8258 62.1257C46.3861 62.2136 46.1663 62.4774 46.1663 62.9171C46.1663 63.3348 46.3971 63.5876 46.8587 63.6755C48.2217 63.9613 49.189 64.2141 49.7605 64.4339C50.3321 64.6538 50.7058 65.0495 50.8817 65.621C51.0575 66.1706 51.2444 67.0499 51.4422 68.259C51.5302 68.7426 51.794 68.9845 52.2336 68.9845Z" fill="#304DDF"/>
<path d="M14.3786 72.0181L57.5096 28.7882C58.345 27.9528 58.7626 26.9526 58.7626 25.7875C58.7626 24.6224 58.3559 23.6221 57.5426 22.7868C56.7512 21.9514 55.7619 21.5337 54.5748 21.5337C53.3658 21.5337 52.3435 21.9514 51.5082 22.7868L8.37714 66.0167C7.54178 66.8741 7.12409 67.8743 7.12409 69.0174C7.12409 70.1825 7.53078 71.1828 8.34416 72.0181C9.13556 72.8535 10.1358 73.2712 11.3449 73.2712C12.532 73.2932 13.5432 72.8755 14.3786 72.0181ZM43.0337 39.1752L41.1541 37.3286L53.1569 25.2928C53.4207 25.029 53.7395 24.8971 54.1132 24.8971C54.4649 24.8971 54.7727 25.029 55.0365 25.2928C55.3003 25.5566 55.4322 25.8754 55.4322 26.2491C55.4322 26.6008 55.3003 26.8976 55.0365 27.1394L43.0337 39.1752ZM24.9964 32.3824C25.3262 32.3824 25.59 32.2945 25.7878 32.1186C25.9857 31.9428 26.0956 31.7009 26.1176 31.3932C26.4473 29.4147 26.821 27.7989 27.2387 26.5459C27.6344 25.2709 28.206 24.2596 28.9534 23.5122C29.6789 22.7428 30.6681 22.1602 31.9211 21.7645C33.1742 21.3469 34.8119 20.9731 36.8344 20.6434C37.5159 20.5335 37.8566 20.1817 37.8566 19.5882C37.8566 18.9287 37.5159 18.555 36.8344 18.4671C34.79 18.1813 33.1522 17.8295 31.9211 17.4119C30.6681 16.9722 29.6789 16.3787 28.9534 15.6312C28.228 14.8838 27.6674 13.8836 27.2717 12.6305C26.876 11.3555 26.4913 9.71774 26.1176 7.71727C26.0077 7.05778 25.634 6.72803 24.9964 6.72803C24.4249 6.72803 24.0731 7.06877 23.9412 7.75025C23.6335 9.70675 23.2708 11.3225 22.8531 12.5975C22.4354 13.8506 21.8638 14.8618 21.1384 15.6312C20.4129 16.3787 19.4237 16.9722 18.1707 17.4119C16.8956 17.8295 15.2359 18.1813 13.1915 18.4671C12.532 18.555 12.2022 18.9287 12.2022 19.5882C12.2022 20.2037 12.532 20.5555 13.1915 20.6434C15.2579 20.9512 16.9176 21.3139 18.1707 21.7316C19.4237 22.1492 20.4129 22.7318 21.1384 23.4792C21.8419 24.2267 22.3914 25.2489 22.7871 26.5459C23.1828 27.8209 23.5675 29.4477 23.9412 31.4262C23.9852 31.7119 24.1171 31.9428 24.3369 32.1186C24.5348 32.2945 24.7546 32.3824 24.9964 32.3824ZM63.3791 59.4877C63.9287 59.4877 64.2474 59.1909 64.3354 58.5974C64.5772 57.0366 64.808 55.8055 65.0279 54.9042C65.2257 54.0029 65.5554 53.3214 66.0171 52.8598C66.4568 52.3761 67.1492 52.0024 68.0945 51.7386C69.0178 51.4748 70.3258 51.211 72.0185 50.9472C72.5901 50.8373 72.8759 50.5186 72.8759 49.991C72.8759 49.4414 72.5791 49.1226 71.9855 49.0347C70.3148 48.7709 69.0178 48.5181 68.0945 48.2763C67.1492 48.0125 66.4568 47.6388 66.0171 47.1551C65.5554 46.6715 65.2257 45.979 65.0279 45.0777C64.808 44.1544 64.5772 42.9234 64.3354 41.3845C64.2474 40.791 63.9287 40.4942 63.3791 40.4942C62.8295 40.4942 62.5108 40.791 62.4228 41.3845C62.181 42.9234 61.9502 44.1434 61.7304 45.0447C61.5105 45.9461 61.1808 46.6385 60.7411 47.1222C60.3015 47.6058 59.62 47.9795 58.6967 48.2433C57.7514 48.5071 56.4324 48.7709 54.7397 49.0347C54.1681 49.1226 53.8824 49.4414 53.8824 49.991C53.8824 50.5186 54.1681 50.8373 54.7397 50.9472C56.4324 51.211 57.7404 51.4748 58.6637 51.7386C59.587 51.9804 60.2795 52.3432 60.7411 52.8268C61.1808 53.2884 61.5105 53.9809 61.7304 54.9042C61.9502 55.8055 62.181 57.0366 62.4228 58.5974C62.5108 59.1909 62.8295 59.4877 63.3791 59.4877ZM52.2336 68.9845C52.6293 68.9845 52.8931 68.7426 53.025 68.259C53.2668 67.0499 53.4867 66.1706 53.6845 65.621C53.8604 65.0495 54.2231 64.6538 54.7727 64.4339C55.3003 64.2141 56.2566 63.9613 57.6415 63.6755C58.0812 63.5876 58.301 63.3348 58.301 62.9171C58.301 62.4994 58.0702 62.2356 57.6085 62.1257C56.2456 61.9059 55.2893 61.686 54.7397 61.4662C54.1901 61.2244 53.8274 60.8287 53.6515 60.2791C53.4757 59.7075 53.2668 58.8062 53.025 57.5752C52.8931 57.0915 52.6293 56.8497 52.2336 56.8497C51.794 56.8497 51.5302 57.0806 51.4422 57.5422C51.2224 58.7952 51.0246 59.6966 50.8487 60.2461C50.6728 60.7957 50.3101 61.1804 49.7605 61.4003C49.189 61.6201 48.2107 61.8619 46.8258 62.1257C46.3861 62.2136 46.1663 62.4774 46.1663 62.9171C46.1663 63.3348 46.3971 63.5876 46.8587 63.6755C48.2217 63.9613 49.189 64.2141 49.7605 64.4339C50.3321 64.6538 50.7058 65.0495 50.8817 65.621C51.0575 66.1706 51.2444 67.0499 51.4422 68.259C51.5302 68.7426 51.794 68.9845 52.2336 68.9845Z" fill="#304DDF"/>
<path d="M14.3786 72.0181L57.5096 28.7882C58.345 27.9528 58.7626 26.9526 58.7626 25.7875C58.7626 24.6224 58.3559 23.6221 57.5426 22.7868C56.7512 21.9514 55.7619 21.5337 54.5748 21.5337C53.3658 21.5337 52.3435 21.9514 51.5082 22.7868L8.37714 66.0167C7.54178 66.8741 7.12409 67.8743 7.12409 69.0174C7.12409 70.1825 7.53078 71.1828 8.34416 72.0181C9.13556 72.8535 10.1358 73.2712 11.3449 73.2712C12.532 73.2932 13.5432 72.8755 14.3786 72.0181ZM43.0337 39.1752L41.1541 37.3286L53.1569 25.2928C53.4207 25.029 53.7395 24.8971 54.1132 24.8971C54.4649 24.8971 54.7727 25.029 55.0365 25.2928C55.3003 25.5566 55.4322 25.8754 55.4322 26.2491C55.4322 26.6008 55.3003 26.8976 55.0365 27.1394L43.0337 39.1752ZM24.9964 32.3824C25.3262 32.3824 25.59 32.2945 25.7878 32.1186C25.9857 31.9428 26.0956 31.7009 26.1176 31.3932C26.4473 29.4147 26.821 27.7989 27.2387 26.5459C27.6344 25.2709 28.206 24.2596 28.9534 23.5122C29.6789 22.7428 30.6681 22.1602 31.9211 21.7645C33.1742 21.3469 34.8119 20.9731 36.8344 20.6434C37.5159 20.5335 37.8566 20.1817 37.8566 19.5882C37.8566 18.9287 37.5159 18.555 36.8344 18.4671C34.79 18.1813 33.1522 17.8295 31.9211 17.4119C30.6681 16.9722 29.6789 16.3787 28.9534 15.6312C28.228 14.8838 27.6674 13.8836 27.2717 12.6305C26.876 11.3555 26.4913 9.71774 26.1176 7.71727C26.0077 7.05778 25.634 6.72803 24.9964 6.72803C24.4249 6.72803 24.0731 7.06877 23.9412 7.75025C23.6335 9.70675 23.2708 11.3225 22.8531 12.5975C22.4354 13.8506 21.8638 14.8618 21.1384 15.6312C20.4129 16.3787 19.4237 16.9722 18.1707 17.4119C16.8956 17.8295 15.2359 18.1813 13.1915 18.4671C12.532 18.555 12.2022 18.9287 12.2022 19.5882C12.2022 20.2037 12.532 20.5555 13.1915 20.6434C15.2579 20.9512 16.9176 21.3139 18.1707 21.7316C19.4237 22.1492 20.4129 22.7318 21.1384 23.4792C21.8419 24.2267 22.3914 25.2489 22.7871 26.5459C23.1828 27.8209 23.5675 29.4477 23.9412 31.4262C23.9852 31.7119 24.1171 31.9428 24.3369 32.1186C24.5348 32.2945 24.7546 32.3824 24.9964 32.3824ZM63.3791 59.4877C63.9287 59.4877 64.2474 59.1909 64.3354 58.5974C64.5772 57.0366 64.808 55.8055 65.0279 54.9042C65.2257 54.0029 65.5554 53.3214 66.0171 52.8598C66.4568 52.3761 67.1492 52.0024 68.0945 51.7386C69.0178 51.4748 70.3258 51.211 72.0185 50.9472C72.5901 50.8373 72.8759 50.5186 72.8759 49.991C72.8759 49.4414 72.5791 49.1226 71.9855 49.0347C70.3148 48.7709 69.0178 48.5181 68.0945 48.2763C67.1492 48.0125 66.4568 47.6388 66.0171 47.1551C65.5554 46.6715 65.2257 45.979 65.0279 45.0777C64.808 44.1544 64.5772 42.9234 64.3354 41.3845C64.2474 40.791 63.9287 40.4942 63.3791 40.4942C62.8295 40.4942 62.5108 40.791 62.4228 41.3845C62.181 42.9234 61.9502 44.1434 61.7304 45.0447C61.5105 45.9461 61.1808 46.6385 60.7411 47.1222C60.3015 47.6058 59.62 47.9795 58.6967 48.2433C57.7514 48.5071 56.4324 48.7709 54.7397 49.0347C54.1681 49.1226 53.8824 49.4414 53.8824 49.991C53.8824 50.5186 54.1681 50.8373 54.7397 50.9472C56.4324 51.211 57.7404 51.4748 58.6637 51.7386C59.587 51.9804 60.2795 52.3432 60.7411 52.8268C61.1808 53.2884 61.5105 53.9809 61.7304 54.9042C61.9502 55.8055 62.181 57.0366 62.4228 58.5974C62.5108 59.1909 62.8295 59.4877 63.3791 59.4877ZM52.2336 68.9845C52.6293 68.9845 52.8931 68.7426 53.025 68.259C53.2668 67.0499 53.4867 66.1706 53.6845 65.621C53.8604 65.0495 54.2231 64.6538 54.7727 64.4339C55.3003 64.2141 56.2566 63.9613 57.6415 63.6755C58.0812 63.5876 58.301 63.3348 58.301 62.9171C58.301 62.4994 58.0702 62.2356 57.6085 62.1257C56.2456 61.9059 55.2893 61.686 54.7397 61.4662C54.1901 61.2244 53.8274 60.8287 53.6515 60.2791C53.4757 59.7075 53.2668 58.8062 53.025 57.5752C52.8931 57.0915 52.6293 56.8497 52.2336 56.8497C51.794 56.8497 51.5302 57.0806 51.4422 57.5422C51.2224 58.7952 51.0246 59.6966 50.8487 60.2461C50.6728 60.7957 50.3101 61.1804 49.7605 61.4003C49.189 61.6201 48.2107 61.8619 46.8258 62.1257C46.3861 62.2136 46.1663 62.4774 46.1663 62.9171C46.1663 63.3348 46.3971 63.5876 46.8587 63.6755C48.2217 63.9613 49.189 64.2141 49.7605 64.4339C50.3321 64.6538 50.7058 65.0495 50.8817 65.621C51.0575 66.1706 51.2444 67.0499 51.4422 68.259C51.5302 68.7426 51.794 68.9845 52.2336 68.9845Z" fill="url(#paint0_linear_1782_7270)"/>
<path d="M14.3786 72.0181L57.5096 28.7882C58.345 27.9528 58.7626 26.9526 58.7626 25.7875C58.7626 24.6224 58.3559 23.6221 57.5426 22.7868C56.7512 21.9514 55.7619 21.5337 54.5748 21.5337C53.3658 21.5337 52.3435 21.9514 51.5082 22.7868L8.37714 66.0167C7.54178 66.8741 7.12409 67.8743 7.12409 69.0174C7.12409 70.1825 7.53078 71.1828 8.34416 72.0181C9.13556 72.8535 10.1358 73.2712 11.3449 73.2712C12.532 73.2932 13.5432 72.8755 14.3786 72.0181ZM43.0337 39.1752L41.1541 37.3286L53.1569 25.2928C53.4207 25.029 53.7395 24.8971 54.1132 24.8971C54.4649 24.8971 54.7727 25.029 55.0365 25.2928C55.3003 25.5566 55.4322 25.8754 55.4322 26.2491C55.4322 26.6008 55.3003 26.8976 55.0365 27.1394L43.0337 39.1752ZM24.9964 32.3824C25.3262 32.3824 25.59 32.2945 25.7878 32.1186C25.9857 31.9428 26.0956 31.7009 26.1176 31.3932C26.4473 29.4147 26.821 27.7989 27.2387 26.5459C27.6344 25.2709 28.206 24.2596 28.9534 23.5122C29.6789 22.7428 30.6681 22.1602 31.9211 21.7645C33.1742 21.3469 34.8119 20.9731 36.8344 20.6434C37.5159 20.5335 37.8566 20.1817 37.8566 19.5882C37.8566 18.9287 37.5159 18.555 36.8344 18.4671C34.79 18.1813 33.1522 17.8295 31.9211 17.4119C30.6681 16.9722 29.6789 16.3787 28.9534 15.6312C28.228 14.8838 27.6674 13.8836 27.2717 12.6305C26.876 11.3555 26.4913 9.71774 26.1176 7.71727C26.0077 7.05778 25.634 6.72803 24.9964 6.72803C24.4249 6.72803 24.0731 7.06877 23.9412 7.75025C23.6335 9.70675 23.2708 11.3225 22.8531 12.5975C22.4354 13.8506 21.8638 14.8618 21.1384 15.6312C20.4129 16.3787 19.4237 16.9722 18.1707 17.4119C16.8956 17.8295 15.2359 18.1813 13.1915 18.4671C12.532 18.555 12.2022 18.9287 12.2022 19.5882C12.2022 20.2037 12.532 20.5555 13.1915 20.6434C15.2579 20.9512 16.9176 21.3139 18.1707 21.7316C19.4237 22.1492 20.4129 22.7318 21.1384 23.4792C21.8419 24.2267 22.3914 25.2489 22.7871 26.5459C23.1828 27.8209 23.5675 29.4477 23.9412 31.4262C23.9852 31.7119 24.1171 31.9428 24.3369 32.1186C24.5348 32.2945 24.7546 32.3824 24.9964 32.3824ZM63.3791 59.4877C63.9287 59.4877 64.2474 59.1909 64.3354 58.5974C64.5772 57.0366 64.808 55.8055 65.0279 54.9042C65.2257 54.0029 65.5554 53.3214 66.0171 52.8598C66.4568 52.3761 67.1492 52.0024 68.0945 51.7386C69.0178 51.4748 70.3258 51.211 72.0185 50.9472C72.5901 50.8373 72.8759 50.5186 72.8759 49.991C72.8759 49.4414 72.5791 49.1226 71.9855 49.0347C70.3148 48.7709 69.0178 48.5181 68.0945 48.2763C67.1492 48.0125 66.4568 47.6388 66.0171 47.1551C65.5554 46.6715 65.2257 45.979 65.0279 45.0777C64.808 44.1544 64.5772 42.9234 64.3354 41.3845C64.2474 40.791 63.9287 40.4942 63.3791 40.4942C62.8295 40.4942 62.5108 40.791 62.4228 41.3845C62.181 42.9234 61.9502 44.1434 61.7304 45.0447C61.5105 45.9461 61.1808 46.6385 60.7411 47.1222C60.3015 47.6058 59.62 47.9795 58.6967 48.2433C57.7514 48.5071 56.4324 48.7709 54.7397 49.0347C54.1681 49.1226 53.8824 49.4414 53.8824 49.991C53.8824 50.5186 54.1681 50.8373 54.7397 50.9472C56.4324 51.211 57.7404 51.4748 58.6637 51.7386C59.587 51.9804 60.2795 52.3432 60.7411 52.8268C61.1808 53.2884 61.5105 53.9809 61.7304 54.9042C61.9502 55.8055 62.181 57.0366 62.4228 58.5974C62.5108 59.1909 62.8295 59.4877 63.3791 59.4877ZM52.2336 68.9845C52.6293 68.9845 52.8931 68.7426 53.025 68.259C53.2668 67.0499 53.4867 66.1706 53.6845 65.621C53.8604 65.0495 54.2231 64.6538 54.7727 64.4339C55.3003 64.2141 56.2566 63.9613 57.6415 63.6755C58.0812 63.5876 58.301 63.3348 58.301 62.9171C58.301 62.4994 58.0702 62.2356 57.6085 62.1257C56.2456 61.9059 55.2893 61.686 54.7397 61.4662C54.1901 61.2244 53.8274 60.8287 53.6515 60.2791C53.4757 59.7075 53.2668 58.8062 53.025 57.5752C52.8931 57.0915 52.6293 56.8497 52.2336 56.8497C51.794 56.8497 51.5302 57.0806 51.4422 57.5422C51.2224 58.7952 51.0246 59.6966 50.8487 60.2461C50.6728 60.7957 50.3101 61.1804 49.7605 61.4003C49.189 61.6201 48.2107 61.8619 46.8258 62.1257C46.3861 62.2136 46.1663 62.4774 46.1663 62.9171C46.1663 63.3348 46.3971 63.5876 46.8587 63.6755C48.2217 63.9613 49.189 64.2141 49.7605 64.4339C50.3321 64.6538 50.7058 65.0495 50.8817 65.621C51.0575 66.1706 51.2444 67.0499 51.4422 68.259C51.5302 68.7426 51.794 68.9845 52.2336 68.9845Z" fill="url(#paint1_linear_1782_7270)" fill-opacity="0.39"/>
<path d="M14.3786 72.0181L57.5096 28.7882C58.345 27.9528 58.7626 26.9526 58.7626 25.7875C58.7626 24.6224 58.3559 23.6221 57.5426 22.7868C56.7512 21.9514 55.7619 21.5337 54.5748 21.5337C53.3658 21.5337 52.3435 21.9514 51.5082 22.7868L8.37714 66.0167C7.54178 66.8741 7.12409 67.8743 7.12409 69.0174C7.12409 70.1825 7.53078 71.1828 8.34416 72.0181C9.13556 72.8535 10.1358 73.2712 11.3449 73.2712C12.532 73.2932 13.5432 72.8755 14.3786 72.0181ZM43.0337 39.1752L41.1541 37.3286L53.1569 25.2928C53.4207 25.029 53.7395 24.8971 54.1132 24.8971C54.4649 24.8971 54.7727 25.029 55.0365 25.2928C55.3003 25.5566 55.4322 25.8754 55.4322 26.2491C55.4322 26.6008 55.3003 26.8976 55.0365 27.1394L43.0337 39.1752ZM24.9964 32.3824C25.3262 32.3824 25.59 32.2945 25.7878 32.1186C25.9857 31.9428 26.0956 31.7009 26.1176 31.3932C26.4473 29.4147 26.821 27.7989 27.2387 26.5459C27.6344 25.2709 28.206 24.2596 28.9534 23.5122C29.6789 22.7428 30.6681 22.1602 31.9211 21.7645C33.1742 21.3469 34.8119 20.9731 36.8344 20.6434C37.5159 20.5335 37.8566 20.1817 37.8566 19.5882C37.8566 18.9287 37.5159 18.555 36.8344 18.4671C34.79 18.1813 33.1522 17.8295 31.9211 17.4119C30.6681 16.9722 29.6789 16.3787 28.9534 15.6312C28.228 14.8838 27.6674 13.8836 27.2717 12.6305C26.876 11.3555 26.4913 9.71774 26.1176 7.71727C26.0077 7.05778 25.634 6.72803 24.9964 6.72803C24.4249 6.72803 24.0731 7.06877 23.9412 7.75025C23.6335 9.70675 23.2708 11.3225 22.8531 12.5975C22.4354 13.8506 21.8638 14.8618 21.1384 15.6312C20.4129 16.3787 19.4237 16.9722 18.1707 17.4119C16.8956 17.8295 15.2359 18.1813 13.1915 18.4671C12.532 18.555 12.2022 18.9287 12.2022 19.5882C12.2022 20.2037 12.532 20.5555 13.1915 20.6434C15.2579 20.9512 16.9176 21.3139 18.1707 21.7316C19.4237 22.1492 20.4129 22.7318 21.1384 23.4792C21.8419 24.2267 22.3914 25.2489 22.7871 26.5459C23.1828 27.8209 23.5675 29.4477 23.9412 31.4262C23.9852 31.7119 24.1171 31.9428 24.3369 32.1186C24.5348 32.2945 24.7546 32.3824 24.9964 32.3824ZM63.3791 59.4877C63.9287 59.4877 64.2474 59.1909 64.3354 58.5974C64.5772 57.0366 64.808 55.8055 65.0279 54.9042C65.2257 54.0029 65.5554 53.3214 66.0171 52.8598C66.4568 52.3761 67.1492 52.0024 68.0945 51.7386C69.0178 51.4748 70.3258 51.211 72.0185 50.9472C72.5901 50.8373 72.8759 50.5186 72.8759 49.991C72.8759 49.4414 72.5791 49.1226 71.9855 49.0347C70.3148 48.7709 69.0178 48.5181 68.0945 48.2763C67.1492 48.0125 66.4568 47.6388 66.0171 47.1551C65.5554 46.6715 65.2257 45.979 65.0279 45.0777C64.808 44.1544 64.5772 42.9234 64.3354 41.3845C64.2474 40.791 63.9287 40.4942 63.3791 40.4942C62.8295 40.4942 62.5108 40.791 62.4228 41.3845C62.181 42.9234 61.9502 44.1434 61.7304 45.0447C61.5105 45.9461 61.1808 46.6385 60.7411 47.1222C60.3015 47.6058 59.62 47.9795 58.6967 48.2433C57.7514 48.5071 56.4324 48.7709 54.7397 49.0347C54.1681 49.1226 53.8824 49.4414 53.8824 49.991C53.8824 50.5186 54.1681 50.8373 54.7397 50.9472C56.4324 51.211 57.7404 51.4748 58.6637 51.7386C59.587 51.9804 60.2795 52.3432 60.7411 52.8268C61.1808 53.2884 61.5105 53.9809 61.7304 54.9042C61.9502 55.8055 62.181 57.0366 62.4228 58.5974C62.5108 59.1909 62.8295 59.4877 63.3791 59.4877ZM52.2336 68.9845C52.6293 68.9845 52.8931 68.7426 53.025 68.259C53.2668 67.0499 53.4867 66.1706 53.6845 65.621C53.8604 65.0495 54.2231 64.6538 54.7727 64.4339C55.3003 64.2141 56.2566 63.9613 57.6415 63.6755C58.0812 63.5876 58.301 63.3348 58.301 62.9171C58.301 62.4994 58.0702 62.2356 57.6085 62.1257C56.2456 61.9059 55.2893 61.686 54.7397 61.4662C54.1901 61.2244 53.8274 60.8287 53.6515 60.2791C53.4757 59.7075 53.2668 58.8062 53.025 57.5752C52.8931 57.0915 52.6293 56.8497 52.2336 56.8497C51.794 56.8497 51.5302 57.0806 51.4422 57.5422C51.2224 58.7952 51.0246 59.6966 50.8487 60.2461C50.6728 60.7957 50.3101 61.1804 49.7605 61.4003C49.189 61.6201 48.2107 61.8619 46.8258 62.1257C46.3861 62.2136 46.1663 62.4774 46.1663 62.9171C46.1663 63.3348 46.3971 63.5876 46.8587 63.6755C48.2217 63.9613 49.189 64.2141 49.7605 64.4339C50.3321 64.6538 50.7058 65.0495 50.8817 65.621C51.0575 66.1706 51.2444 67.0499 51.4422 68.259C51.5302 68.7426 51.794 68.9845 52.2336 68.9845Z" fill="#3E5DE7" fill-opacity="0.65"/>
<path d="M54.5751 21.4214C53.3369 21.4214 52.2856 21.8505 51.4286 22.7075L8.29773 65.937L8.29675 65.938C7.44208 66.8152 7.01168 67.8433 7.0116 69.0171C7.0116 70.211 7.43053 71.2381 8.26355 72.0942L8.26257 72.0952C9.07612 72.954 10.106 73.382 11.3436 73.3823L11.3427 73.3833C12.5611 73.4059 13.602 72.9756 14.4589 72.0962V72.0952L57.5897 28.8677V28.8667C58.4453 28.0108 58.8748 26.9826 58.8749 25.7876C58.8749 24.5931 58.4567 23.5648 57.6229 22.7085C56.8098 21.8507 55.7913 21.4214 54.5751 21.4214ZM52.2333 56.7368C51.9935 56.7369 51.7889 56.8005 51.6317 56.938C51.4754 57.0748 51.379 57.274 51.3319 57.521L51.3309 57.5229H51.3319C51.1122 58.7752 50.9144 59.6697 50.7411 60.2114C50.5758 60.7281 50.2379 61.0877 49.7186 61.2954H49.7196C49.1582 61.5112 48.1888 61.7515 46.8046 62.0151H46.8036C46.5664 62.0626 46.3758 62.1609 46.245 62.3179C46.114 62.4751 46.0536 62.6789 46.0536 62.9175C46.0537 63.1477 46.1185 63.3442 46.2567 63.4956C46.3934 63.6453 46.5914 63.7378 46.8368 63.7847L46.8358 63.7856C48.1983 64.0713 49.1582 64.3223 49.7206 64.5386C50.2606 64.7463 50.6089 65.1164 50.7743 65.6538V65.6558C50.9474 66.1969 51.1333 67.069 51.3309 68.2769L51.3319 68.2788C51.3786 68.5359 51.4741 68.7435 51.6298 68.8862C51.7868 69.0302 51.9922 69.0971 52.2333 69.0972C52.4561 69.0972 52.6497 69.0282 52.8046 68.8862C52.9572 68.7463 53.0643 68.543 53.1337 68.2886L53.1356 68.2808C53.3772 67.0727 53.5951 66.1999 53.7899 65.6587L53.7919 65.6538C53.9579 65.1145 54.2969 64.7456 54.8143 64.5386L54.8163 64.5376C55.2038 64.3762 55.8331 64.1949 56.7079 63.9937L57.6639 63.7856C57.8997 63.7384 58.0897 63.6441 58.2206 63.4937C58.3523 63.3422 58.4139 63.1464 58.4139 62.9175C58.4139 62.6869 58.3494 62.4877 58.2128 62.3315C58.0774 62.1769 57.8802 62.0746 57.6346 62.0161L57.6268 62.0142C56.267 61.7948 55.3226 61.5771 54.785 61.3628C54.2637 61.1334 53.9242 60.7621 53.7587 60.2446C53.5847 59.6789 53.3771 58.7826 53.1356 57.5532L53.1337 57.5454L53.0741 57.3647C53.0075 57.1937 52.9191 57.0527 52.8046 56.9478C52.6497 56.8058 52.456 56.7368 52.2333 56.7368ZM63.3788 40.3813C63.0835 40.3814 62.8364 40.4619 62.6512 40.6343C62.4675 40.8054 62.3578 41.0547 62.3114 41.3667L62.1327 42.4604C61.9558 43.4931 61.785 44.3455 61.621 45.0181C61.4039 45.9082 61.0808 46.5813 60.6581 47.0464C60.2376 47.5089 59.5779 47.8747 58.6659 48.1353H58.6669C57.7279 48.3973 56.4135 48.6598 54.7225 48.9233L54.5077 48.9702C54.3042 49.0294 54.1368 49.1257 54.0126 49.2642C53.8465 49.4495 53.7695 49.6964 53.7694 49.9907C53.7694 50.2754 53.8473 50.5162 54.0126 50.7007C54.1769 50.884 54.4173 51.0002 54.7186 51.0581H54.7225C56.4136 51.3216 57.716 51.5853 58.6327 51.8472H58.6356C59.5468 52.0858 60.2177 52.4414 60.66 52.9048C61.0807 53.3467 61.4037 54.0178 61.621 54.9302V54.9312C61.8397 55.8279 62.0698 57.0554 62.3114 58.6147C62.3578 58.9269 62.4675 59.176 62.6512 59.3472C62.8364 59.5196 63.0835 59.6 63.3788 59.6001C63.6743 59.6001 63.922 59.5196 64.1073 59.3472C64.2911 59.1759 64.4009 58.9262 64.4471 58.6138V58.6128C64.6886 57.0543 64.9189 55.8276 65.1376 54.9312V54.9282C65.3326 54.0396 65.6552 53.3803 66.0966 52.939L66.1005 52.9351C66.5205 52.4732 67.1906 52.1079 68.1249 51.8472H68.1259C69.0425 51.5853 70.3451 51.3216 72.036 51.0581H72.0399C72.3412 51.0002 72.5807 50.8839 72.745 50.7007C72.9104 50.5162 72.9882 50.2755 72.9882 49.9907C72.9881 49.6954 72.9077 49.4484 72.7352 49.2632C72.5641 49.0794 72.315 48.9697 72.0028 48.9233L70.8212 48.728C69.7114 48.5348 68.813 48.3476 68.1249 48.1675C67.3073 47.9393 66.6918 47.6316 66.2694 47.2485L66.0985 47.0776C65.6555 46.6135 65.3326 45.9417 65.1376 45.0532V45.0513C64.9188 44.1322 64.6887 42.9047 64.4471 41.3677C64.4008 41.0553 64.2912 40.8055 64.1073 40.6343C63.922 40.4618 63.6743 40.3813 63.3788 40.3813ZM54.1132 25.0093C54.4331 25.0093 54.7128 25.1284 54.9569 25.3726C55.1995 25.6152 55.3192 25.9056 55.3192 26.2495C55.3191 26.5687 55.2015 26.8354 54.9608 27.0562L54.9569 27.0601L43.0331 39.0171L41.3143 37.3267L53.2362 25.3726C53.4789 25.1299 53.7692 25.0093 54.1132 25.0093ZM24.996 6.61572C24.6864 6.61582 24.4257 6.70885 24.2255 6.90283C24.0771 7.04666 23.9677 7.24002 23.8934 7.47705L23.8309 7.729L23.83 7.73291C23.5228 9.6857 23.1611 11.2948 22.746 12.562L22.5839 13.0161C22.1891 14.048 21.6799 14.8928 21.0575 15.5532L20.7792 15.8208C20.1007 16.4286 19.2211 16.9243 18.1366 17.3052H18.1356C16.8694 17.72 15.2166 18.0707 13.1757 18.356H13.1766C12.8291 18.4023 12.5532 18.5256 12.3651 18.7388C12.1769 18.9521 12.0897 19.2402 12.0897 19.5884C12.0898 19.9162 12.178 20.1882 12.3671 20.3901C12.5554 20.591 12.8309 20.7093 13.1766 20.7554L13.1776 20.7544C15.2394 21.0616 16.8909 21.4238 18.1346 21.8384C19.3749 22.2518 20.3476 22.8258 21.0575 23.5571C21.7455 24.2885 22.2875 25.2936 22.6796 26.5786V26.5796C23.0732 27.8479 23.458 29.4681 23.8309 31.4419L23.83 31.4429C23.8781 31.7557 24.024 32.0125 24.2665 32.2065L24.2675 32.2056C24.4826 32.3952 24.7259 32.4945 24.996 32.4946C25.3461 32.4946 25.6391 32.4009 25.8622 32.2026C26.0832 32.0061 26.2029 31.7387 26.2284 31.4116L26.3544 30.688C26.6519 29.0397 26.9824 27.6712 27.3456 26.5815L27.3466 26.5796C27.7382 25.3175 28.3015 24.3229 29.0331 23.5913L29.035 23.5894C29.7445 22.8369 30.7158 22.2629 31.955 21.8716H31.9569C33.0463 21.5085 34.4313 21.1779 36.1132 20.8804L36.8524 20.7544C37.2074 20.6971 37.4886 20.5745 37.6815 20.3755C37.8763 20.1744 37.9686 19.9077 37.9686 19.5884C37.9686 19.2395 37.8787 18.951 37.6844 18.7378C37.4907 18.5253 37.2068 18.4022 36.8495 18.356L36.1034 18.2456C34.6498 18.0194 33.4272 17.7564 32.4344 17.4575L31.9569 17.3052C30.7167 16.8698 29.7442 16.2848 29.0341 15.5532C28.3236 14.8212 27.7706 13.8368 27.3788 12.5962C26.985 11.3271 26.6016 9.69432 26.2284 7.69678C26.1705 7.35118 26.0405 7.07779 25.829 6.89111C25.6164 6.70356 25.3342 6.61572 24.996 6.61572Z" stroke="url(#paint2_linear_1782_7270)" stroke-opacity="0.25" stroke-width="0.225"/>
</g>
<defs>
<filter id="filter0_d_1782_7270" x="-2.19" y="-0.99" width="84.38" height="84.38" filterUnits="userSpaceOnUse" color-interpolation-filters="sRGB">
<feFlood flood-opacity="0" result="BackgroundImageFix"/>
<feColorMatrix in="SourceAlpha" type="matrix" values="0 0 0 0 0 0 0 0 0 0 0 0 0 0 0 0 0 0 127 0" result="hardAlpha"/>
<feOffset dy="1.2"/>
<feGaussianBlur stdDeviation="1.095"/>
<feComposite in2="hardAlpha" operator="out"/>
<feColorMatrix type="matrix" values="0 0 0 0 0.243137 0 0 0 0 0.364706 0 0 0 0 0.905882 0 0 0 0.15 0"/>
<feBlend mode="normal" in2="BackgroundImageFix" result="effect1_dropShadow_1782_7270"/>
<feBlend mode="normal" in="SourceGraphic" in2="effect1_dropShadow_1782_7270" result="shape"/>
</filter>
<linearGradient id="paint0_linear_1782_7270" x1="58.1685" y1="-9.22882" x2="29.5833" y2="69.4894" gradientUnits="userSpaceOnUse">
<stop offset="0.670868" stop-color="#000091"/>
<stop offset="1" stop-color="#000091" stop-opacity="0"/>
</linearGradient>
<linearGradient id="paint1_linear_1782_7270" x1="23.4011" y1="6.72803" x2="28.2624" y2="41.3147" gradientUnits="userSpaceOnUse">
<stop stop-color="#F4C858"/>
<stop offset="1" stop-color="#F4C858" stop-opacity="0"/>
</linearGradient>
<linearGradient id="paint2_linear_1782_7270" x1="40" y1="6.72803" x2="40" y2="73.272" gradientUnits="userSpaceOnUse">
<stop stop-color="white"/>
<stop offset="0.519231" stop-color="white" stop-opacity="0"/>
<stop offset="1" stop-color="white"/>
</linearGradient>
</defs>
</svg>
