<svg width="40" height="40" viewBox="0 0 40 40" fill="none" xmlns="http://www.w3.org/2000/svg">
<path d="M10.3516 34.9447C7.72298 34.9447 6.40869 34.0582 6.40869 32.2852C6.40869 31.2338 6.72309 30.1308 7.35189 28.9763C7.99099 27.8218 8.90327 26.7446 10.0887 25.7447C11.2845 24.7448 12.7173 23.9356 14.3872 23.3171C16.0571 22.6883 17.9332 22.3739 20.0155 22.3739C22.0771 22.3739 23.9429 22.6883 25.6128 23.3171C27.293 23.9356 28.7259 24.7448 29.9113 25.7447C31.0967 26.7446 32.0039 27.8218 32.6326 28.9763C33.2718 30.1308 33.5913 31.2338 33.5913 32.2852C33.5913 34.0582 32.277 34.9447 29.6484 34.9447H10.3516ZM9.85677 32.2698H30.1587C30.3339 32.2698 30.4576 32.2388 30.5298 32.177C30.6122 32.1152 30.6535 32.0121 30.6535 31.8678C30.6535 31.2699 30.4215 30.5895 29.9577 29.8267C29.4938 29.0536 28.8032 28.3063 27.8857 27.5847C26.9786 26.8528 25.8653 26.2498 24.5459 25.7756C23.2265 25.2912 21.7163 25.0489 20.0155 25.0489C18.3043 25.0489 16.7839 25.2912 15.4541 25.7756C14.1347 26.2498 13.0214 26.8528 12.1143 27.5847C11.2071 28.3063 10.5165 29.0536 10.0423 29.8267C9.57845 30.5895 9.34652 31.2699 9.34652 31.8678C9.34652 32.0121 9.3826 32.1152 9.45475 32.177C9.53722 32.2388 9.67122 32.2698 9.85677 32.2698ZM20.0155 20.5649C18.7682 20.5649 17.6291 20.235 16.5983 19.5753C15.5778 18.9156 14.7635 18.0342 14.1553 16.9312C13.5471 15.818 13.243 14.5913 13.243 13.2512C13.243 11.9318 13.5471 10.7309 14.1553 9.64852C14.7635 8.55585 15.5778 7.68481 16.5983 7.0354C17.6291 6.38599 18.7682 6.06128 20.0155 6.06128C21.2627 6.06128 22.3966 6.38083 23.4172 7.01994C24.448 7.65904 25.2623 8.51978 25.8602 9.60213C26.4684 10.6845 26.7725 11.8905 26.7725 13.2203C26.7725 14.5707 26.4684 15.8025 25.8602 16.9158C25.252 18.0291 24.4377 18.9156 23.4172 19.5753C22.3966 20.235 21.2627 20.5649 20.0155 20.5649ZM20.0155 17.8744C20.737 17.8744 21.3968 17.6734 21.9946 17.2714C22.5925 16.8591 23.0718 16.3024 23.4326 15.6015C23.7934 14.8902 23.9738 14.0965 23.9738 13.2203C23.9738 12.3647 23.7934 11.6019 23.4326 10.9319C23.0718 10.2515 22.5925 9.71552 21.9946 9.32381C21.3968 8.9321 20.737 8.73625 20.0155 8.73625C19.2939 8.73625 18.6342 8.93726 18.0363 9.33927C17.4384 9.73098 16.9591 10.267 16.5983 10.9473C16.2375 11.6277 16.0571 12.3956 16.0571 13.2512C16.0571 14.1171 16.2375 14.9057 16.5983 15.6169C16.9591 16.3179 17.4384 16.8694 18.0363 17.2714C18.6445 17.6734 19.3042 17.8744 20.0155 17.8744Z" fill="#3E5DE7"/>
</svg>
