<svg width="79" height="81" viewBox="0 0 79 81" fill="none" xmlns="http://www.w3.org/2000/svg">
<path fill-rule="evenodd" clip-rule="evenodd" d="M27.0165 39.7314L27.1844 72.9694C27.1844 72.9694 27.0636 75.7718 28.0395 78.888C28.1422 79.1705 28.0321 79.4728 27.7792 79.6192C27.5274 79.7644 27.2122 79.7243 27.0126 79.5098C22.2106 74.3721 12.5861 64.0268 12.5861 64.0268C12.5861 64.0268 7.88964 60.2357 11.0394 50.8806C14.5966 40.2572 21.7996 34.2912 21.7996 34.2912C21.7996 34.2912 22.9109 32.8567 25.1702 33.0674C27.4283 33.2791 27.0073 38.2063 27.0073 38.2063L27.011 39.6037L26.5802 40.0487C26.7406 39.944 26.8838 39.8326 27.0165 39.7314ZM17.8169 58.6939L18.069 58.9266C18.069 58.9266 18.6675 59.57 19.6322 60.6069L19.5739 49.7011C19.0536 50.8076 18.566 51.9948 18.1367 53.2612C17.1628 56.1458 17.7849 58.5903 17.8169 58.6939Z" fill="white"/>
<path fill-rule="evenodd" clip-rule="evenodd" d="M28.0395 78.888C28.1422 79.1705 28.0321 79.4728 27.7792 79.6192C27.5274 79.7644 27.2122 79.7243 27.0126 79.5098C22.2106 74.3721 12.5861 64.0268 12.5861 64.0268C12.5861 64.0268 7.88964 60.2357 11.0394 50.8806C14.5966 40.2572 21.7996 34.2912 21.7996 34.2912C21.7996 34.2912 22.9109 32.8567 25.1702 33.0674C27.4283 33.2791 27.0073 38.2063 27.0073 38.2063L27.1844 72.9694C27.1844 72.9694 27.0636 75.7718 28.0395 78.888Z" fill="#000091"/>
<path fill-rule="evenodd" clip-rule="evenodd" d="M36.4737 2.14412C36.3577 1.8598 36.4719 1.55789 36.7116 1.39093C36.9668 1.23758 37.2877 1.27531 37.4973 1.5006C43.3345 7.75382 56.1752 21.556 56.1752 21.556C56.1752 21.556 62.0935 26.3334 58.1244 38.1223C53.6418 51.5096 45.7216 74.9018 45.7216 74.9018C45.7216 74.9018 44.2722 79.5841 41.4251 79.3187C38.5796 79.0518 39.1605 69.9668 39.1605 69.9668L37.779 10.2871C37.779 10.2871 37.9426 6.32508 36.4737 2.14412ZM47.5891 26.1808L47.8855 38.9887C48.3437 37.638 48.7767 36.3387 49.1806 35.1224C50.4079 31.4874 49.6239 28.407 49.5836 28.2764L49.2659 27.9831C49.2659 27.9831 48.6231 27.2922 47.5891 26.1808Z" fill="white"/>
<path fill-rule="evenodd" clip-rule="evenodd" d="M36.4737 2.14412C36.3577 1.8598 36.4719 1.55789 36.7116 1.39093C36.9668 1.23758 37.2877 1.27531 37.4973 1.5006C43.3345 7.75382 56.1752 21.556 56.1752 21.556C56.1752 21.556 62.0935 26.3334 58.1244 38.1223C53.6418 51.5096 45.7216 74.9018 45.7216 74.9018C45.7216 74.9018 44.2722 79.5841 41.4251 79.3187C38.5796 79.0518 39.1605 69.9668 39.1605 69.9668L37.779 10.2871C37.779 10.2871 37.9426 6.32508 36.4737 2.14412Z" fill="#E1000F"/>
<path d="M18.2543 24.3874C18.2303 24.3866 18.2064 24.3856 18.1824 24.3846C11.5685 24.1065 6.43226 18.5199 6.71063 11.9066C6.98756 5.31744 12.5353 0.194868 19.117 0.432615C19.1415 0.433501 19.1649 0.43446 19.1894 0.43546C25.8034 0.71356 30.939 6.30013 30.6612 12.9135C30.3843 19.5027 24.8366 24.6252 18.2543 24.3874Z" fill="#000091"/>
</svg>
