<svg width="81" height="81" viewBox="0 0 81 81" fill="none" xmlns="http://www.w3.org/2000/svg">
<path fill-rule="evenodd" clip-rule="evenodd" d="M33.6189 39.5091C33.6942 39.3162 33.9061 39.1931 34.1197 39.2281C34.3333 39.2632 34.4891 39.4562 34.4891 39.6668C34.4996 45.8954 34.4996 59.1421 34.4996 59.1421C34.4996 59.1421 36.2677 65.4408 21.8717 72.8274C11.1469 78.3191 4.64663 80.4774 4.64663 80.4774C4.64663 80.4774 1.37282 81.7932 0.269878 80.2492C-1.13943 78.249 3.41584 73.5648 3.41584 73.5648L29.5557 45.7199C29.5557 45.7199 32.1203 43.1761 33.6189 39.5091Z" fill="white"/>
<path fill-rule="evenodd" clip-rule="evenodd" d="M33.6189 39.5091C33.6942 39.3162 33.9061 39.1931 34.1197 39.2281C34.3333 39.2632 34.4891 39.4562 34.4891 39.6668C34.4996 45.8954 34.4996 59.1421 34.4996 59.1421C34.4996 59.1421 36.2677 65.4408 21.8717 72.8274C11.1469 78.3191 4.64663 80.4774 4.64663 80.4774C4.64663 80.4774 1.37282 81.7932 0.269878 80.2492C-1.13943 78.249 3.41584 73.5648 3.41584 73.5648L29.5557 45.7199C29.5557 45.7199 32.1203 43.1761 33.6189 39.5091Z" fill="#000091"/>
<path fill-rule="evenodd" clip-rule="evenodd" d="M45.9616 35.7912C45.9616 34.4928 45.9616 33.6857 45.9616 33.6857L45.9336 33.317C45.9844 33.2117 47.2851 30.826 50.165 29.2645C51.1244 28.7381 52.1503 28.1767 53.2217 27.5977L45.9616 35.7912Z" fill="white"/>
<path fill-rule="evenodd" clip-rule="evenodd" d="M38.7379 57.7917C38.6678 57.9847 38.47 58.1078 38.2669 58.0727C38.0656 58.0376 37.9186 57.8617 37.9186 57.6512C37.9098 50.598 37.9098 33.6847 37.9098 33.6847C37.9098 33.6847 36.989 27.2453 46.3219 22.1747C56.9049 16.4023 75.4518 6.36685 75.4518 6.36685C75.4518 6.36685 79.0793 4.27896 80.7039 6.10367C82.3268 7.92838 76.6826 13.2794 76.6826 13.2794L42.8537 51.4582C42.8537 51.4582 40.2295 54.0545 38.7379 57.7917Z" fill="#000091"/>
<path fill-rule="evenodd" clip-rule="evenodd" d="M25.2306 47.241L7.40845 27.5375C7.40845 27.5375 2.56952 22.9753 3.38184 20.0101C4.19242 17.0625 11.1024 21.0283 16.9445 22.6776C22.7848 24.3268 29.0086 26.9234 29.0086 26.9234C29.0086 26.9234 30.5264 27.3269 31.8201 29.292C33.4413 31.7659 33.7074 34.8891 32.5274 37.5911C30.9886 41.0826 28.5586 43.4859 28.5586 43.4859L25.2306 47.241ZM25.4896 34.1869C26.1601 34.8009 26.9129 34.7132 26.9129 34.7132L25.9273 34.3801C25.9273 34.3801 25.7732 34.3097 25.4896 34.1869ZM23.6356 33.4679L24.9049 34.8715C24.9924 34.6961 25.0765 34.5206 25.157 34.3452C25.1903 34.2575 25.2043 34.1697 25.2025 34.082C24.8121 33.9241 24.2781 33.7136 23.6356 33.4679Z" fill="white"/>
<path fill-rule="evenodd" clip-rule="evenodd" d="M25.2306 47.241L7.40845 27.5375C7.40845 27.5375 2.56952 22.9753 3.38184 20.0101C4.19242 17.0625 11.1024 21.0283 16.9445 22.6776C22.7848 24.3268 29.0086 26.9234 29.0086 26.9234C29.0086 26.9234 30.5264 27.3269 31.8201 29.292C33.4413 31.7659 33.7074 34.8891 32.5274 37.5911C30.9886 41.0826 28.5586 43.4859 28.5586 43.4859L25.2306 47.241Z" fill="#E1000F"/>
<path fill-rule="evenodd" clip-rule="evenodd" d="M47.1776 49.9539L64.9997 69.6574C64.9997 69.6574 69.8387 74.2195 69.0264 77.1847C68.2158 80.1323 61.3058 76.1665 55.4637 74.5173C49.6234 72.868 43.3996 70.2714 43.3996 70.2714C43.3996 70.2714 41.8818 69.8679 40.5881 67.9028C38.9669 65.4289 38.7008 62.3057 39.8808 59.6038C41.4196 56.1123 43.8496 53.709 43.8496 53.709L47.1776 49.9539ZM46.9186 63.008C46.2481 62.3939 45.4953 62.4816 45.4953 62.4816L46.481 62.8147C46.481 62.8147 46.635 62.8851 46.9186 63.008ZM47.5033 62.3233C47.4158 62.4987 47.3317 62.6742 47.2512 62.8496C47.2179 62.9374 47.2039 63.0251 47.2057 63.1128C47.5961 63.2707 48.1301 63.4813 48.7726 63.7269L47.5033 62.3233Z" fill="white"/>
<path fill-rule="evenodd" clip-rule="evenodd" d="M47.1776 49.9539L64.9997 69.6574C64.9997 69.6574 69.8387 74.2195 69.0264 77.1847C68.2158 80.1323 61.3058 76.1665 55.4637 74.5173C49.6234 72.868 43.3996 70.2714 43.3996 70.2714C43.3996 70.2714 41.8818 69.8679 40.5881 67.9028C38.9669 65.4289 38.7008 62.3057 39.8808 59.6038C41.4196 56.1123 43.8496 53.709 43.8496 53.709L47.1776 49.9539Z" fill="#E1000F"/>
<path d="M34.9812 22.4215C41.1591 22.4215 46.1673 17.4022 46.1673 11.2108C46.1673 5.01937 41.1591 0 34.9812 0C28.8033 0 23.7949 5.01937 23.7949 11.2108C23.7949 17.4022 28.8033 22.4215 34.9812 22.4215Z" fill="#000091"/>
</svg>
