<svg width="59" height="70" viewBox="0 0 59 70" fill="none" xmlns="http://www.w3.org/2000/svg">
<path fill-rule="evenodd" clip-rule="evenodd" d="M43.8027 27.8164V34.6261H15.8271V27.8164H43.8027ZM43.8027 38.4541V45.2636H15.8271V38.4541H43.8027ZM32.209 48.8917V55.7012H15.8271V48.8917H32.209Z" fill="#E1000F"/>
<path fill-rule="evenodd" clip-rule="evenodd" d="M58.8496 27.9071V55.5737C58.8238 55.5627 58.7981 55.548 58.7686 55.537V62.5511C58.7686 66.597 55.4584 69.9073 51.4124 69.9073H7.35619C3.31029 69.9073 0 66.597 0 62.5511V7.37963C0 3.33373 3.31029 0.0234375 7.35619 0.0234375H30.8666V7.37963H7.35619V62.5511H51.4124V27.9071H58.8496Z" fill="#000091"/>
<path d="M55.9716 0H38.9489C37.3885 0 36.1118 1.2767 36.1118 2.83711V19.8598C36.1118 21.4202 37.3885 22.6969 38.9489 22.6969H55.9716C57.532 22.6969 58.8087 21.4202 58.8087 19.8598V2.83711C58.8087 1.2767 57.532 0 55.9716 0ZM43.9139 10.6392C43.9139 11.8166 42.9634 12.767 41.786 12.767H40.3675V14.5402C40.3675 15.1218 39.8852 15.6041 39.3036 15.6041C38.722 15.6041 38.2397 15.1218 38.2397 14.5402V8.51134C38.2397 7.73114 38.878 7.09279 39.6582 7.09279H41.786C42.9634 7.09279 43.9139 8.04322 43.9139 9.22062V10.6392ZM51.0067 13.4763C51.0067 14.6537 50.0562 15.6041 48.8788 15.6041H46.0417C45.6445 15.6041 45.3324 15.292 45.3324 14.8948V7.80206C45.3324 7.40487 45.6445 7.09279 46.0417 7.09279H48.8788C50.0562 7.09279 51.0067 8.04322 51.0067 9.22062V13.4763ZM56.6809 8.1567C56.6809 8.73831 56.1986 9.22062 55.617 9.22062H54.5531V10.6392H55.617C56.1986 10.6392 56.6809 11.1215 56.6809 11.7031C56.6809 12.2847 56.1986 12.767 55.617 12.767H54.5531V14.5402C54.5531 15.1218 54.0707 15.6041 53.4891 15.6041C52.9075 15.6041 52.4252 15.1218 52.4252 14.5402V8.51134C52.4252 7.73114 53.0636 7.09279 53.8438 7.09279H55.617C56.1986 7.09279 56.6809 7.57509 56.6809 8.1567ZM40.3675 10.6392H41.786V9.22062H40.3675V10.6392ZM47.4603 13.4763H48.8788V9.22062H47.4603V13.4763Z" fill="#000091"/>
<path fill-rule="evenodd" clip-rule="evenodd" d="M58.8086 16.7622V22.7628H53.5678V16.7622H58.8086ZM41.3567 0.0136719V5.94194H36.1104V0.0136719H41.3567Z" fill="#000091"/>
</svg>
