<svg width="25" height="25" viewBox="0 0 25 25" fill="none" xmlns="http://www.w3.org/2000/svg">
<path d="M16.7229 21.6625C17.5987 21.4169 18.4375 20.9687 18.9879 20.1768C19.5312 19.4013 19.6841 18.4176 19.6841 17.471V3.60231C19.6841 3.35675 19.6708 3.11074 19.6412 2.86768C20.0762 3.03877 20.4115 3.3215 20.647 3.71585C20.9249 4.16425 21.0638 4.75474 21.0638 5.48732V19.5738C21.0638 20.5654 20.8207 21.3074 20.3344 21.8C19.8481 22.2926 19.1155 22.5389 18.1366 22.5389H12.8157C12.9417 22.5169 13.068 22.4942 13.1947 22.4708C14.305 22.2724 15.4785 22.0031 16.7139 21.665L16.7229 21.6625Z" fill="#C9191E"/>
<path fill-rule="evenodd" clip-rule="evenodd" d="M3.93652 19.2803V5.17484C3.93652 4.31594 4.16704 3.66546 4.62806 3.22338C5.0954 2.7813 5.71431 2.53816 6.48479 2.49395C7.62157 2.42448 8.69834 2.32975 9.71512 2.20975C10.7319 2.08345 11.7045 1.93819 12.6328 1.77399C13.5675 1.60979 14.4769 1.42664 15.3611 1.22455C16.2705 1.00983 16.9684 1.11719 17.4547 1.54664C17.9409 1.97608 18.1841 2.66131 18.1841 3.6023V17.4709C18.1841 18.2983 18.042 18.914 17.7578 19.3182C17.4736 19.7287 16.9936 20.0287 16.3179 20.2181C15.118 20.5466 13.9875 20.8055 12.9265 20.9949C11.8655 21.1907 10.8298 21.3391 9.81933 21.4402C8.80886 21.5412 7.77314 21.6202 6.71215 21.677C5.8343 21.7275 5.15224 21.5444 4.66595 21.1276C4.17967 20.7171 3.93652 20.1013 3.93652 19.2803ZM7.40649 7.73588C8.79761 7.64735 10.0724 7.51135 11.2307 7.3278C11.5117 7.28198 11.7923 7.23426 12.0718 7.18475C12.3644 7.13294 12.5759 6.87801 12.5759 6.58159C12.5759 6.19772 12.2285 5.90863 11.8512 5.97298C11.6345 6.00995 11.4167 6.04588 11.1976 6.08077C10.051 6.26349 8.78389 6.39905 7.39642 6.48734C7.18864 6.50074 7.02332 6.56547 6.91706 6.6945C6.81657 6.81652 6.76733 6.96328 6.76733 7.13057C6.76733 7.30065 6.82472 7.44869 6.93926 7.57039L6.94087 7.572C7.06502 7.69615 7.22277 7.7499 7.40649 7.73588ZM7.40601 10.8811C8.79731 10.7925 10.0722 10.6565 11.2307 10.473C12.3941 10.2833 13.5452 10.0619 14.6834 9.80898C14.9144 9.75765 15.0874 9.67681 15.1739 9.55128C15.259 9.43061 15.301 9.29229 15.301 9.13896C15.301 8.96603 15.2352 8.81706 15.107 8.69603C14.969 8.56571 14.7761 8.53535 14.5478 8.58236L14.5463 8.58269C13.4617 8.82861 12.3455 9.04303 11.1976 9.22594C10.051 9.40865 8.78389 9.54421 7.39642 9.6325C7.18864 9.64591 7.02332 9.71063 6.91706 9.83966C6.81707 9.96108 6.76733 10.1044 6.76733 10.2663C6.76733 10.4418 6.82406 10.5933 6.93919 10.7156L6.9425 10.7187C7.06625 10.8352 7.22237 10.8882 7.40413 10.8812L7.40601 10.8811ZM7.40635 14.0261C8.79753 13.9313 10.0723 13.7921 11.2306 13.6086C12.3942 13.4252 13.5451 13.207 14.6834 12.9541C14.9149 12.9026 15.0881 12.8184 15.1745 12.6861C15.2587 12.5662 15.301 12.4315 15.301 12.284C15.301 12.1111 15.2352 11.9621 15.107 11.8411C14.969 11.7108 14.7761 11.6804 14.5478 11.7274L14.5467 11.7277C13.462 11.9673 12.3456 12.1786 11.1976 12.3615C10.0509 12.5443 8.78375 12.683 7.39621 12.7776C7.18853 12.791 7.02328 12.8558 6.91706 12.9847C6.81707 13.1062 6.76733 13.2495 6.76733 13.4113C6.76733 13.5868 6.82406 13.7384 6.93919 13.8607L6.9425 13.8638C7.06625 13.9803 7.22237 14.0333 7.40413 14.0263L7.40635 14.0261ZM11.2307 16.7318C10.0724 16.9154 8.79762 17.0514 7.40651 17.1399C7.22278 17.1539 7.06503 17.1002 6.94087 16.976L6.93929 16.9744C6.82475 16.8527 6.76733 16.7047 6.76733 16.5346C6.76733 16.3673 6.81657 16.2206 6.91706 16.0985C7.02332 15.9695 7.1887 15.9048 7.39649 15.8914C8.78396 15.8031 10.051 15.6675 11.1976 15.4848C11.4167 15.4499 11.6345 15.414 11.8512 15.377C12.2285 15.3127 12.5759 15.6018 12.5759 15.9856C12.5759 16.282 12.3644 16.537 12.0718 16.5888C11.7923 16.6383 11.5117 16.686 11.2307 16.7318Z" fill="#000091"/>
</svg>
