<svg width="119" height="101" viewBox="0 0 119 101" fill="none" xmlns="http://www.w3.org/2000/svg">
<path fill-rule="evenodd" clip-rule="evenodd" d="M57.8928 42.3488C56.2469 42.2355 54.1718 41.6987 51.7261 40.2867C43.9448 35.826 30.3606 27.9801 30.3606 27.9801C30.3606 27.9801 27.6219 26.4898 28.2006 24.8452C28.7799 23.2016 34.4164 24.776 34.4164 24.776C34.4164 24.776 50.1793 30.4686 58.2406 30.4636C66.2897 30.4637 82.7136 24.78 82.7136 24.78C82.7136 24.78 88.3532 23.2036 88.9343 24.8431C89.5046 26.4899 86.7799 27.9791 86.7799 27.9791C86.7799 27.9791 73.1852 35.8214 65.4078 40.2882C62.9544 41.6965 60.8846 42.2372 59.2401 42.3498C59.0209 42.3666 58.7971 42.3758 58.566 42.3732C58.3355 42.3717 58.103 42.3671 57.8928 42.3488ZM61.0896 36.0346C60.0585 36.1494 59.1004 36.2089 58.241 36.2049C57.6141 36.2057 56.9391 36.178 56.2422 36.1147C57.0129 36.4221 57.6934 36.5831 58.3011 36.6258C58.3932 36.6262 58.4735 36.6315 58.5669 36.6341C58.6582 36.6334 58.7468 36.6285 58.8483 36.6194C59.4951 36.5764 60.2399 36.3942 61.0896 36.0346Z" fill="white"/>
<path fill-rule="evenodd" clip-rule="evenodd" d="M57.8928 42.3488C56.2469 42.2355 54.1718 41.6987 51.7261 40.2867C43.9448 35.826 30.3606 27.9801 30.3606 27.9801C30.3606 27.9801 27.6219 26.4898 28.2006 24.8452C28.7799 23.2016 34.4164 24.776 34.4164 24.776C34.4164 24.776 50.1793 30.4686 58.2406 30.4636C66.2897 30.4637 82.7136 24.78 82.7136 24.78C82.7136 24.78 88.3532 23.2036 88.9343 24.8431C89.5046 26.4899 86.7799 27.9791 86.7799 27.9791C86.7799 27.9791 73.1852 35.8214 65.4078 40.2882C62.9544 41.6965 60.8846 42.2372 59.2401 42.3498C59.0209 42.3666 58.7971 42.3758 58.566 42.3732C58.3355 42.3717 58.103 42.3671 57.8928 42.3488Z" fill="#000091"/>
<path d="M58.5643 25.1691C58.5474 25.1691 58.5305 25.169 58.5136 25.1689C53.8469 25.1413 50.0862 21.3386 50.1139 16.6754C50.1413 12.0292 53.9193 8.28149 58.5623 8.28149C58.5796 8.28149 58.5961 8.28157 58.6134 8.28165C63.2802 8.30925 67.0405 12.1119 67.0131 16.7752C66.9858 21.4214 63.2077 25.1691 58.5643 25.1691Z" fill="#000091"/>
<path fill-rule="evenodd" clip-rule="evenodd" d="M52.859 53.1924C53.5838 54.6735 54.1561 56.7376 54.1552 59.5602C54.1801 68.5246 54.1725 84.2034 54.1725 84.2034C54.1725 84.2034 54.2504 87.3186 52.5357 87.6401C50.8217 87.9605 49.3678 82.2954 49.3678 82.2954C49.3678 82.2954 46.4198 65.8079 42.3849 58.834C38.3604 51.8682 25.2228 40.4967 25.2228 40.4967C25.2228 40.4967 21.0368 36.4043 22.167 35.0817C23.309 33.7647 25.9621 35.3781 25.9621 35.3781C25.9621 35.3781 39.5559 43.2219 47.3157 47.7192C49.7629 49.1382 51.2663 50.659 52.1862 52.026C52.3103 52.2073 52.4303 52.3963 52.5436 52.5976C52.6575 52.7978 52.7697 53.0014 52.859 53.1924ZM45.7884 53.583C46.4035 54.4179 46.9341 55.2173 47.3603 55.963C47.6745 56.5052 47.9879 57.1032 48.2816 57.7379C48.1626 56.9172 47.9619 56.2478 47.695 55.7006C47.6493 55.6207 47.6138 55.5485 47.5693 55.4664C47.523 55.3877 47.4745 55.3135 47.4159 55.2302C47.0552 54.692 46.5249 54.1386 45.7884 53.583Z" fill="white"/>
<path fill-rule="evenodd" clip-rule="evenodd" d="M52.859 53.1924C53.5838 54.6735 54.1561 56.7376 54.1552 59.5602C54.1801 68.5246 54.1725 84.2034 54.1725 84.2034C54.1725 84.2034 54.2504 87.3186 52.5357 87.6401C50.8217 87.9605 49.3678 82.2954 49.3678 82.2954C49.3678 82.2954 46.4198 65.8079 42.3849 58.834C38.3604 51.8682 25.2228 40.4967 25.2228 40.4967C25.2228 40.4967 21.0368 36.4043 22.167 35.0817C23.309 33.7647 25.9621 35.3781 25.9621 35.3781C25.9621 35.3781 39.5559 43.2219 47.3157 47.7192C49.7629 49.1382 51.2663 50.659 52.1862 52.026C52.3103 52.2073 52.4303 52.3963 52.5436 52.5976C52.6575 52.7978 52.7697 53.0014 52.859 53.1924Z" fill="#000091"/>
<path d="M37.6334 61.2023C37.6418 61.2169 37.6502 61.2315 37.6586 61.2462C39.968 65.2986 38.5528 70.4546 34.4976 72.7622C30.4573 75.0616 25.3204 73.6659 22.9989 69.6478C22.9902 69.6328 22.982 69.6185 22.9734 69.6035C20.664 65.5511 22.0794 60.3955 26.1345 58.0875C30.1748 55.7881 35.3117 57.1838 37.6334 61.2023Z" fill="#000091"/>
<path fill-rule="evenodd" clip-rule="evenodd" d="M65.517 52.7713C65.6062 52.5803 65.7185 52.3767 65.8324 52.1765C65.9457 51.9752 66.0657 51.7861 66.1898 51.6048C67.1096 50.2379 68.6131 48.7171 71.0603 47.2981C78.8201 42.8008 92.4139 34.957 92.4139 34.957C92.4139 34.957 95.0669 33.3436 96.2089 34.6605C97.3392 35.9832 93.1532 40.0756 93.1532 40.0756C93.1532 40.0756 80.0156 51.447 75.9911 58.4129C71.9561 65.3867 69.0081 81.8743 69.0081 81.8743C69.0081 81.8743 67.5543 87.5394 65.8402 87.2189C64.1256 86.8974 64.2034 83.7822 64.2034 83.7822C64.2034 83.7822 64.1959 68.1034 64.2208 59.139C64.2199 56.3164 64.7922 54.2523 65.517 52.7713ZM70.0926 57.3134C70.3881 56.682 70.7015 56.084 71.0156 55.5419C71.4419 54.7962 71.9725 53.9968 72.5864 53.1596C71.8517 53.7186 71.3116 54.281 70.9416 54.8293C70.9016 54.8924 70.8529 54.9666 70.809 55.0497C70.7622 55.1274 70.7269 55.1994 70.6749 55.295C70.4161 55.8299 70.214 56.4972 70.0926 57.3134Z" fill="white"/>
<path fill-rule="evenodd" clip-rule="evenodd" d="M65.517 52.7713C64.7922 54.2523 64.2199 56.3164 64.2208 59.139C64.1959 68.1034 64.2034 83.7822 64.2034 83.7822C64.2034 83.7822 64.1256 86.8974 65.8402 87.2189C67.5543 87.5394 69.0081 81.8743 69.0081 81.8743C69.0081 81.8743 71.9561 65.3867 75.9911 58.4129C80.0156 51.447 93.1532 40.0756 93.1532 40.0756C93.1532 40.0756 97.3392 35.9832 96.2089 34.6605C95.0669 33.3436 92.4139 34.957 92.4139 34.957C92.4139 34.957 78.8201 42.8008 71.0603 47.2981C68.6131 48.7171 67.1096 50.2379 66.1898 51.6048C66.0657 51.7861 65.9457 51.9752 65.8324 52.1765C65.7185 52.3767 65.6062 52.5803 65.517 52.7713Z" fill="#E1000F"/>
<path d="M80.7407 60.7811C80.7322 60.7957 80.7238 60.8104 80.7155 60.8251C78.406 64.8775 79.8212 70.0334 83.8765 72.341C87.9167 74.6404 93.0537 73.2447 95.3752 69.2266C95.3838 69.2117 95.392 69.1973 95.4006 69.1823C97.71 65.1299 96.2946 59.9744 92.2396 57.6664C88.1993 55.367 83.0624 56.7627 80.7407 60.7811Z" fill="#E1000F"/>
</svg>
