<svg width="126" height="40" viewBox="0 0 126 40" fill="none" xmlns="http://www.w3.org/2000/svg">
<path d="M31.6765 13.7263H12.4197C10.2325 13.7263 8.03303 15.4473 7.50711 17.5704L6 23.6543V11.8488C6 10.5779 6.29141 9.62077 6.87422 8.97729C7.46451 8.32576 8.28269 8 9.32877 8H12.5006C12.8892 8 13.2254 8.02815 13.5093 8.08446C13.7933 8.14076 14.0548 8.23728 14.2939 8.37402C14.533 8.50272 14.7833 8.6837 15.0448 8.91696L15.6837 9.48403C15.9975 9.74946 16.2927 9.93848 16.5691 10.0511C16.8456 10.1637 17.1856 10.22 17.5891 10.22H28.0125C29.2155 10.22 30.1271 10.5538 30.7472 11.2214C31.3035 11.8131 31.6133 12.6481 31.6765 13.7263Z" fill="#C83F49"/>
<path d="M9.67656 31.0001C8.46609 31.0001 7.6366 30.6537 7.18806 29.9608C6.73746 29.2762 6.6776 28.2661 7.00848 26.9304L9.32709 17.5706C9.61138 16.423 10.8003 15.4927 11.9826 15.4927H33.3898C34.5721 15.4927 35.3001 16.423 35.0158 17.5706L32.6972 26.9304C32.3663 28.2661 31.8172 29.2762 31.0499 29.9608C30.2805 30.6537 29.3615 31.0001 28.293 31.0001H9.67656Z" fill="#2845C1"/>
<rect x="8" y="27" width="24" height="9" rx="4.5" fill="#EEF1F4"/>
<rect x="8" y="27" width="24" height="9" rx="4.5" fill="url(#paint0_linear_3435_94)" fill-opacity="0.1"/>
<path d="M12.3425 33.7364C12.2926 33.7364 12.2676 33.7364 12.2486 33.7267C12.2318 33.7181 12.2182 33.7045 12.2097 33.6877C12.2 33.6687 12.2 33.6437 12.2 33.5939V29.2426C12.2 29.1927 12.2 29.1678 12.2097 29.1487C12.2182 29.132 12.2318 29.1183 12.2486 29.1098C12.2676 29.1001 12.2926 29.1001 12.3425 29.1001H13.5643C14.5313 29.1001 15.1208 29.577 15.1208 30.3585C15.1208 30.6481 15.0195 30.9066 14.8257 31.1069C14.7572 31.1778 14.7229 31.2132 14.7171 31.2365C14.7109 31.2616 14.7123 31.2741 14.7237 31.2973C14.7343 31.3188 14.7739 31.3452 14.8532 31.398C15.1981 31.6276 15.3857 31.9701 15.3857 32.372C15.3857 33.2198 14.73 33.7364 13.6637 33.7364H12.3425ZM13.5842 29.8816H13.283C13.2331 29.8816 13.2081 29.8816 13.1891 29.8913C13.1723 29.8999 13.1587 29.9135 13.1502 29.9303C13.1405 29.9493 13.1405 29.9743 13.1405 30.0241V30.7856C13.1405 30.8355 13.1405 30.8604 13.1502 30.8795C13.1587 30.8962 13.1723 30.9099 13.1891 30.9184C13.2081 30.9281 13.2331 30.9281 13.283 30.9281H13.5842C13.9419 30.9281 14.1538 30.736 14.1538 30.3983C14.1538 30.0737 13.9419 29.8816 13.5842 29.8816ZM13.7167 31.7097H13.283C13.2331 31.7097 13.2081 31.7097 13.1891 31.7194C13.1723 31.7279 13.1587 31.7415 13.1502 31.7583C13.1405 31.7773 13.1405 31.8023 13.1405 31.8522V32.8123C13.1405 32.8622 13.1405 32.8871 13.1502 32.9062C13.1587 32.923 13.1723 32.9366 13.1891 32.9451C13.2081 32.9548 13.2331 32.9548 13.283 32.9548H13.7167C14.1538 32.9548 14.4187 32.723 14.4187 32.3322C14.4187 31.9348 14.1538 31.7097 13.7167 31.7097Z" fill="#2845C1"/>
<path d="M16.4271 33.7364C16.3772 33.7364 16.3523 33.7364 16.3333 33.7267C16.3165 33.7181 16.3029 33.7045 16.2943 33.6877C16.2846 33.6687 16.2846 33.6437 16.2846 33.5939V29.2426C16.2846 29.1927 16.2846 29.1678 16.2943 29.1487C16.3029 29.132 16.3165 29.1183 16.3333 29.1098C16.3523 29.1001 16.3772 29.1001 16.4271 29.1001H18.8444C18.8943 29.1001 18.9192 29.1001 18.9383 29.1098C18.955 29.1183 18.9687 29.132 18.9772 29.1487C18.9869 29.1678 18.9869 29.1927 18.9869 29.2426V29.7391C18.9869 29.789 18.9869 29.814 18.9772 29.833C18.9687 29.8498 18.955 29.8634 18.9383 29.8719C18.9192 29.8816 18.8943 29.8816 18.8444 29.8816H17.3676C17.3177 29.8816 17.2928 29.8816 17.2738 29.8913C17.257 29.8999 17.2434 29.9135 17.2348 29.9303C17.2251 29.9493 17.2251 29.9743 17.2251 30.0241V30.8386C17.2251 30.8885 17.2251 30.9134 17.2348 30.9325C17.2434 30.9492 17.257 30.9629 17.2738 30.9714C17.2928 30.9811 17.3177 30.9811 17.3676 30.9811H18.5795C18.6294 30.9811 18.6543 30.9811 18.6733 30.9908C18.6901 30.9993 18.7037 31.013 18.7123 31.0297C18.722 31.0488 18.722 31.0737 18.722 31.1236V31.6201C18.722 31.67 18.722 31.695 18.7123 31.714C18.7037 31.7308 18.6901 31.7444 18.6733 31.7529C18.6543 31.7626 18.6294 31.7626 18.5795 31.7626H17.3676C17.3177 31.7626 17.2928 31.7626 17.2738 31.7723C17.257 31.7809 17.2434 31.7945 17.2348 31.8113C17.2251 31.8303 17.2251 31.8553 17.2251 31.9051V32.8123C17.2251 32.8622 17.2251 32.8871 17.2348 32.9062C17.2434 32.923 17.257 32.9366 17.2738 32.9451C17.2928 32.9548 17.3177 32.9548 17.3676 32.9548H18.8444C18.8943 32.9548 18.9192 32.9548 18.9383 32.9645C18.955 32.9731 18.9687 32.9867 18.9772 33.0035C18.9869 33.0225 18.9869 33.0474 18.9869 33.0973V33.5939C18.9869 33.6437 18.9869 33.6687 18.9772 33.6877C18.9687 33.7045 18.955 33.7181 18.9383 33.7267C18.9192 33.7364 18.8943 33.7364 18.8444 33.7364H16.4271Z" fill="#2845C1"/>
<path d="M19.7762 29.9545C19.7263 29.9545 19.7014 29.9545 19.6823 29.9448C19.6656 29.9362 19.652 29.9226 19.6434 29.9059C19.6337 29.8868 19.6337 29.8619 19.6337 29.812V29.2426C19.6337 29.1927 19.6337 29.1678 19.6434 29.1487C19.652 29.132 19.6656 29.1183 19.6823 29.1098C19.7014 29.1001 19.7263 29.1001 19.7762 29.1001H23.2929C23.3428 29.1001 23.3678 29.1001 23.3868 29.1098C23.4036 29.1183 23.4172 29.132 23.4257 29.1487C23.4354 29.1678 23.4354 29.1927 23.4354 29.2426V29.812C23.4354 29.8619 23.4354 29.8868 23.4257 29.9059C23.4172 29.9226 23.4036 29.9362 23.3868 29.9448C23.3678 29.9545 23.3428 29.9545 23.2929 29.9545H22.1473C22.0974 29.9545 22.0725 29.9545 22.0535 29.9642C22.0367 29.9727 22.0231 29.9864 22.0145 30.0031C22.0048 30.0222 22.0048 30.0471 22.0048 30.097V33.5939C22.0048 33.6437 22.0048 33.6687 21.9951 33.6877C21.9866 33.7045 21.973 33.7181 21.9562 33.7267C21.9371 33.7364 21.9122 33.7364 21.8623 33.7364H21.2068C21.1569 33.7364 21.132 33.7364 21.113 33.7267C21.0962 33.7181 21.0826 33.7045 21.074 33.6877C21.0643 33.6687 21.0643 33.6437 21.0643 33.5939V30.097C21.0643 30.0471 21.0643 30.0222 21.0546 30.0031C21.0461 29.9864 21.0325 29.9727 21.0157 29.9642C20.9966 29.9545 20.9717 29.9545 20.9218 29.9545H19.7762Z" fill="#2845C1"/>
<path d="M23.3724 33.7364C23.3031 33.7364 23.2685 33.7364 23.2463 33.7218C23.2268 33.7091 23.2131 33.6892 23.2081 33.6666C23.2024 33.6406 23.2146 33.6082 23.2392 33.5434L24.8864 29.1921C24.899 29.159 24.9053 29.1424 24.9161 29.1301C24.9257 29.1193 24.9377 29.111 24.9512 29.1059C24.9665 29.1001 24.9842 29.1001 25.0197 29.1001H26.0548C26.0903 29.1001 26.108 29.1001 26.1233 29.1059C26.1368 29.111 26.1488 29.1193 26.1584 29.1301C26.1692 29.1424 26.1755 29.159 26.188 29.1921L27.8353 33.5434C27.8598 33.6082 27.8721 33.6406 27.8664 33.6666C27.8613 33.6892 27.8476 33.7091 27.8282 33.7218C27.806 33.7364 27.7713 33.7364 27.702 33.7364H27.0076C26.9718 33.7364 26.9539 33.7364 26.9385 33.7305C26.925 33.7253 26.9129 33.7169 26.9033 33.7059C26.8925 33.6935 26.8863 33.6767 26.8739 33.6431L26.4988 32.6242C26.4865 32.5906 26.4803 32.5738 26.4694 32.5614C26.4599 32.5504 26.4478 32.542 26.4342 32.5368C26.4188 32.5309 26.4009 32.5309 26.3651 32.5309H24.7094C24.6736 32.5309 24.6556 32.5309 24.6403 32.5368C24.6267 32.542 24.6146 32.5504 24.605 32.5614C24.5942 32.5738 24.588 32.5906 24.5757 32.6242L24.2006 33.6431C24.1882 33.6767 24.182 33.6935 24.1712 33.7059C24.1616 33.7169 24.1495 33.7253 24.1359 33.7305C24.1206 33.7364 24.1027 33.7364 24.0668 33.7364H23.3724ZM24.9713 31.5382C24.9478 31.6025 24.936 31.6347 24.9419 31.6604C24.9471 31.6829 24.9608 31.7026 24.9802 31.7151C25.0023 31.7295 25.0366 31.7295 25.1051 31.7295H25.9694C26.0379 31.7295 26.0721 31.7295 26.0943 31.7151C26.1136 31.7026 26.1274 31.6829 26.1325 31.6604C26.1385 31.6347 26.1267 31.6025 26.1032 31.5382L25.6711 30.3543C25.6298 30.2413 25.6092 30.1847 25.579 30.1687C25.5529 30.1548 25.5216 30.1548 25.4955 30.1687C25.4653 30.1847 25.4447 30.2413 25.4034 30.3543L24.9713 31.5382Z" fill="#2845C1"/>
<path d="M64.9111 15.5364C65.9592 15.5364 66.8937 15.7488 67.7139 16.1741C68.4871 16.5537 69.1304 17.0638 69.6434 17.7037C69.7121 17.7894 69.6942 17.9141 69.6067 17.9804L67.953 19.235C67.8606 19.305 67.7288 19.2818 67.6586 19.1895C67.3841 18.8284 67.0298 18.5295 66.5967 18.2932C66.1106 18.0199 65.5408 17.8831 64.8877 17.8831C64.3563 17.8831 63.8627 17.9816 63.4072 18.179C62.9668 18.3764 62.5866 18.6499 62.2676 18.9993C61.9486 19.3486 61.6979 19.7589 61.5156 20.2297C61.3334 20.6854 61.2422 21.1869 61.2422 21.7336C61.2422 22.4627 61.4018 23.1237 61.7207 23.7161C62.0397 24.2933 62.4727 24.7491 63.0195 25.0833C63.5664 25.4174 64.2045 25.5842 64.9336 25.5842C65.5564 25.5842 66.1106 25.4475 66.5967 25.1741C67.0298 24.9378 67.3841 24.6396 67.6586 24.2787C67.7288 24.1865 67.8606 24.1632 67.953 24.2333L69.6051 25.4866C69.6932 25.5534 69.7106 25.6793 69.6406 25.7649C69.128 26.391 68.4855 26.9003 67.7139 27.2932C66.8937 27.7185 65.9592 27.9318 64.9111 27.9319C63.6199 27.9319 62.5033 27.6502 61.5615 27.0881C60.6197 26.5109 59.8905 25.7516 59.374 24.8098C58.8728 23.868 58.6221 22.8425 58.6221 21.7336C58.6221 20.8984 58.7662 20.1087 59.0547 19.3645C59.3433 18.6202 59.7617 17.9593 60.3086 17.3821C60.8554 16.805 61.5155 16.3563 62.29 16.0374C63.0648 15.7032 63.9389 15.5364 64.9111 15.5364Z" fill="#2845C1"/>
<path fill-rule="evenodd" clip-rule="evenodd" d="M95.3818 15.5364C96.1716 15.5364 96.8856 15.665 97.5234 15.9231C98.1614 16.1813 98.7084 16.5388 99.1641 16.9944C99.635 17.4501 99.9923 17.9897 100.235 18.6125C100.478 19.2352 100.6 19.911 100.6 20.6399C100.6 20.9133 100.585 21.1795 100.555 21.4377C100.533 21.6247 100.506 21.7878 100.476 21.927C100.457 22.0152 100.378 22.0754 100.288 22.0754H92.2901C92.174 22.0754 92.082 22.1741 92.0942 22.2896C92.1581 22.8936 92.3041 23.4146 92.5342 23.8528C92.8531 24.4603 93.3008 24.9162 93.8779 25.22C94.4552 25.5238 95.1087 25.676 95.8379 25.676C96.5214 25.676 97.1368 25.5393 97.6836 25.2659C98.1764 25.0261 98.5814 24.716 98.899 24.336C98.9718 24.2488 99.1013 24.2311 99.1901 24.3019L100.677 25.487C100.761 25.5543 100.777 25.6766 100.71 25.7608C100.195 26.4035 99.5428 26.9222 98.7539 27.3167C97.9033 27.7267 96.9387 27.9319 95.8604 27.9319C94.5236 27.9319 93.3842 27.6502 92.4424 27.0881C91.5007 26.5109 90.7795 25.7515 90.2783 24.8098C89.777 23.868 89.5264 22.8425 89.5264 21.7336C89.5264 20.8679 89.6549 20.0628 89.9131 19.3186C90.1865 18.5743 90.5739 17.9207 91.0752 17.3586C91.5764 16.7815 92.1919 16.3339 92.9209 16.0149C93.65 15.6959 94.4704 15.5364 95.3818 15.5364ZM95.3135 17.6096C94.6451 17.6096 94.0599 17.7619 93.5586 18.0657C93.0728 18.3694 92.7005 18.8173 92.4424 19.4094C92.3587 19.5964 92.2895 19.7981 92.2334 20.014C92.2015 20.1366 92.2966 20.2532 92.4234 20.2532H97.9293C98.0423 20.2532 98.1336 20.1596 98.1218 20.0473C98.0839 19.6869 97.9762 19.3455 97.7969 19.0227C97.5843 18.5975 97.2733 18.2555 96.8633 17.9973C96.4531 17.7391 95.9363 17.6096 95.3135 17.6096Z" fill="#2845C1"/>
<path d="M114.805 15.5364C115.64 15.5364 116.415 15.7187 117.129 16.0833C117.793 16.4155 118.326 16.8296 118.725 17.3258C118.791 17.4073 118.776 17.5253 118.697 17.5932L117.293 18.791C117.204 18.8665 117.071 18.8504 116.997 18.7601C116.738 18.441 116.44 18.1714 116.104 17.9514C115.709 17.6933 115.276 17.5637 114.805 17.5637C114.471 17.5638 114.182 17.6249 113.939 17.7463C113.712 17.8679 113.537 18.0274 113.415 18.2249C113.309 18.4223 113.256 18.6429 113.256 18.886C113.256 19.2503 113.385 19.5542 113.643 19.7971C113.916 20.025 114.266 20.2228 114.691 20.3899C115.117 20.5569 115.564 20.7394 116.035 20.9368C116.521 21.1191 116.977 21.3469 117.402 21.6204C117.828 21.8786 118.17 22.2277 118.428 22.6682C118.701 23.0934 118.838 23.6324 118.838 24.2854C118.838 25.0599 118.648 25.721 118.269 26.2678C117.904 26.7993 117.418 27.2097 116.811 27.4983C116.203 27.7869 115.534 27.9319 114.805 27.9319C113.818 27.9319 112.959 27.7494 112.23 27.385C111.559 27.0351 110.964 26.575 110.447 26.0057C110.373 25.9247 110.382 25.7996 110.465 25.7273L111.868 24.4922C111.954 24.4168 112.085 24.4286 112.159 24.515C112.49 24.8982 112.855 25.2171 113.256 25.4709C113.711 25.7594 114.22 25.9036 114.782 25.9036C115.314 25.9036 115.717 25.7668 115.99 25.4934C116.279 25.2049 116.423 24.8555 116.423 24.4456C116.423 24.0659 116.286 23.7623 116.013 23.5344C115.754 23.3066 115.413 23.1087 114.987 22.9417C114.562 22.7746 114.106 22.5995 113.62 22.4172C113.149 22.2198 112.701 21.9846 112.275 21.7112C111.85 21.4378 111.501 21.0885 111.228 20.6633C110.969 20.2228 110.84 19.6604 110.84 18.9768C110.84 18.3388 111.008 17.7618 111.342 17.2454C111.676 16.7137 112.139 16.2953 112.731 15.9915C113.339 15.6877 114.03 15.5364 114.805 15.5364Z" fill="#2845C1"/>
<path d="M52.001 13.6733C52.001 13.7837 51.9114 13.8733 51.801 13.8733H46.0027C45.8923 13.8733 45.8027 13.9628 45.8027 14.0733V17.979C45.8027 18.0894 45.8923 18.179 46.0027 18.179H50.8889C50.9993 18.179 51.0889 18.2685 51.0889 18.379V20.3266C51.0889 20.4371 50.9993 20.5266 50.8889 20.5266H46.0027C45.8923 20.5266 45.8027 20.6162 45.8027 20.7266V27.2758C45.8027 27.3863 45.7132 27.4758 45.6027 27.4758H43.2C43.0895 27.4758 43 27.3863 43 27.2758V11.7256C43 11.6152 43.0895 11.5256 43.2 11.5256H51.801C51.9114 11.5256 52.001 11.6152 52.001 11.7256V13.6733Z" fill="#2845C1"/>
<path d="M56.4697 27.2758C56.4697 27.3863 56.3802 27.4758 56.2697 27.4758H54.1639C54.0534 27.4758 53.9639 27.3863 53.9639 27.2758V16.1915C53.9639 16.081 54.0534 15.9915 54.1639 15.9915H56.2697C56.3802 15.9915 56.4697 16.081 56.4697 16.1915V27.2758Z" fill="#2845C1"/>
<path d="M73.9727 16.7886C73.9727 16.8787 74.0837 16.924 74.1493 16.8622C74.5262 16.5068 74.9607 16.2089 75.4531 15.969C76.0456 15.6804 76.7374 15.5364 77.5273 15.5364C78.3779 15.5364 79.1374 15.726 79.8057 16.1057C80.4892 16.4855 81.0289 17.0479 81.4238 17.7922C81.8186 18.5365 82.0156 19.4711 82.0156 20.595V27.2758C82.0156 27.3863 81.9261 27.4758 81.8156 27.4758H79.6863C79.5759 27.4758 79.4863 27.3863 79.4863 27.2758V20.6858C79.4863 19.8047 79.2584 19.1211 78.8027 18.635C78.347 18.1338 77.7244 17.8831 76.9346 17.8831C76.4334 17.8831 75.993 17.9816 75.6133 18.179C75.2335 18.3612 74.9062 18.5974 74.6328 18.886C74.3934 19.1536 74.1868 19.4345 74.0127 19.7283C73.9861 19.7732 73.9727 19.8246 73.9727 19.8768V27.2758C73.9727 27.3863 73.8831 27.4758 73.7727 27.4758H71.6658C71.5554 27.4758 71.4658 27.3863 71.4658 27.2758V10.587C71.4658 10.4765 71.5554 10.387 71.6658 10.387H73.7727C73.8831 10.387 73.9727 10.4765 73.9727 10.587V16.7886Z" fill="#2845C1"/>
<path d="M87.374 27.2758C87.374 27.3863 87.2845 27.4758 87.174 27.4758H85.0682C84.9577 27.4758 84.8682 27.3863 84.8682 27.2758V16.1915C84.8682 16.081 84.9577 15.9915 85.0682 15.9915H87.174C87.2845 15.9915 87.374 16.081 87.374 16.1915V27.2758Z" fill="#2845C1"/>
<path d="M108.6 15.7639C108.797 15.7639 108.979 15.7794 109.146 15.8098C109.259 15.8303 109.365 15.854 109.464 15.8813C109.547 15.9041 109.602 15.9812 109.602 16.0673V18.1279C109.602 18.258 109.479 18.3535 109.352 18.3276C109.248 18.3064 109.141 18.2875 109.032 18.2708C108.85 18.2404 108.629 18.2249 108.371 18.2249C107.9 18.2249 107.475 18.3006 107.096 18.4524C106.731 18.6043 106.412 18.8095 106.139 19.0676C105.937 19.2472 105.759 19.4436 105.607 19.6564C105.502 19.8038 105.455 19.9837 105.455 20.165V27.2758C105.455 27.3863 105.366 27.4758 105.255 27.4758H103.148C103.038 27.4758 102.948 27.3863 102.948 27.2758V16.1915C102.948 16.081 103.038 15.9915 103.148 15.9915H105.255C105.366 15.9915 105.455 16.081 105.455 16.1915V16.9959C105.455 17.087 105.568 17.1315 105.632 17.0666C105.759 16.9377 105.89 16.8149 106.024 16.6985C106.359 16.4099 106.739 16.182 107.164 16.0149C107.589 15.8478 108.068 15.7639 108.6 15.7639Z" fill="#2845C1"/>
<path d="M55.2393 10.2502C55.5429 10.2502 55.8166 10.326 56.0596 10.4778C56.3178 10.6297 56.5156 10.8348 56.6523 11.093C56.8042 11.3361 56.8799 11.6095 56.8799 11.9133C56.8799 12.2171 56.8042 12.4979 56.6523 12.7561C56.5156 13.0143 56.3178 13.2194 56.0596 13.3713C55.8166 13.508 55.543 13.5764 55.2393 13.5764C54.9356 13.5763 54.6546 13.508 54.3965 13.3713C54.1383 13.2194 53.9331 13.0143 53.7812 12.7561C53.6295 12.498 53.5537 12.217 53.5537 11.9133C53.5537 11.4576 53.7132 11.0702 54.0322 10.7512C54.3663 10.4172 54.7686 10.2504 55.2393 10.2502Z" fill="#2845C1"/>
<path d="M86.1436 10.2502C86.4473 10.2502 86.7208 10.3259 86.9639 10.4778C87.2221 10.6297 87.4199 10.8348 87.5566 11.093C87.7085 11.336 87.7842 11.6096 87.7842 11.9133C87.7842 12.217 87.7084 12.498 87.5566 12.7561C87.4199 13.0143 87.2221 13.2194 86.9639 13.3713C86.7208 13.508 86.4473 13.5764 86.1436 13.5764C85.8398 13.5764 85.559 13.508 85.3008 13.3713C85.0425 13.2194 84.8375 13.0143 84.6855 12.7561C84.5337 12.4979 84.458 12.2171 84.458 11.9133C84.458 11.4576 84.6175 11.0702 84.9365 10.7512C85.2706 10.4172 85.6728 10.2503 86.1436 10.2502Z" fill="#2845C1"/>
<defs>
<linearGradient id="paint0_linear_3435_94" x1="20" y1="27" x2="20" y2="36" gradientUnits="userSpaceOnUse">
<stop stop-color="#2845C1"/>
<stop offset="1" stop-color="#EEF1F4"/>
</linearGradient>
</defs>
</svg>
