<svg width="211" height="40" viewBox="0 0 211 40" fill="none" xmlns="http://www.w3.org/2000/svg">
<path d="M14.1951 22.2609C14.2639 22.2995 14.3499 22.2821 14.3983 22.2239C15.3845 21.1132 16.6408 20.5473 16.6408 20.5473L16.6572 20.5386C16.6596 20.5419 16.662 20.5453 16.6644 20.5487C16.6675 20.5498 16.6708 20.5443 16.6708 20.5443L18.2106 19.7235C18.2125 19.718 18.2144 19.7126 18.2163 19.7071L32.0418 12.334C32.0516 12.3327 32.0615 12.3313 32.0713 12.3299L33.4168 11.6111C33.4168 11.6111 33.4828 11.5797 33.592 11.5296C33.5903 11.5283 33.5887 11.5271 33.587 11.5258C34.1852 11.2499 36.0184 10.3358 35.7128 9.62545C35.3479 8.7785 33.7918 9.03721 33.7918 9.03721C33.7918 9.03721 25.9129 10.1368 21.4115 10.7803C17.4442 11.3408 17.0007 13.7065 17.0007 13.7065C17.0007 13.7065 14.9659 19.607 14.1205 22.0688C14.0952 22.1422 14.1269 22.2226 14.1951 22.2609Z" fill="#2845C1"/>
<path d="M25.5518 18.5016C25.4829 18.463 25.397 18.4803 25.3486 18.5386C24.3624 19.6492 23.106 20.2152 23.106 20.2152L23.089 20.2243C23.0865 20.2208 23.084 20.2173 23.0815 20.2138C23.0783 20.2127 23.0751 20.2182 23.0751 20.2182L21.5352 21.039C21.5333 21.0447 21.5313 21.0504 21.5294 21.056L7.7054 28.4283C7.6951 28.4297 7.68484 28.4311 7.6746 28.4325L6.32907 29.1514C6.32907 29.1514 6.26309 29.1828 6.15389 29.2329C6.15567 29.2342 6.15744 29.2356 6.15922 29.237C5.56039 29.5133 3.7286 30.4269 4.0341 31.137C4.39898 31.984 5.95503 31.7253 5.95503 31.7253C5.95503 31.7253 13.834 30.6257 18.3353 29.9822C22.3026 29.4217 22.7461 27.056 22.7461 27.056C22.7461 27.056 24.7809 21.1555 25.6264 18.6937C25.6517 18.6203 25.62 18.5399 25.5518 18.5016Z" fill="#C83F49"/>
<path d="M42.266 28V12.6H51.242V15.196H45.39V18.848H50.362V21.444H45.39V28H42.266ZM52.7047 28V16.912H55.4987V18.012C56.2247 17.264 57.1707 16.692 58.4247 16.692C58.7987 16.692 59.1287 16.758 59.3927 16.846V19.596C59.0407 19.508 58.6667 19.442 58.1607 19.442C56.7967 19.442 55.9167 20.19 55.4987 20.894V28H52.7047ZM63.789 28.33C61.567 28.33 60.049 27.054 60.049 25.008C60.049 23.336 61.347 22.082 63.723 21.686L67.111 21.114V20.828C67.111 19.662 66.231 18.914 64.955 18.914C63.877 18.914 63.041 19.42 62.447 20.234L60.401 18.672C61.391 17.308 63.019 16.472 65.043 16.472C68.255 16.472 69.905 18.386 69.905 20.828V28H67.111V26.922C66.407 27.78 65.087 28.33 63.789 28.33ZM62.821 24.876C62.821 25.624 63.415 26.108 64.361 26.108C65.637 26.108 66.561 25.514 67.111 24.634V23.072L64.471 23.512C63.305 23.71 62.821 24.194 62.821 24.876ZM72.6645 28V16.912H75.4585V17.792C76.2285 17.044 77.2625 16.472 78.7365 16.472C81.1345 16.472 83.0485 18.122 83.0485 21.4V28H80.2325V21.51C80.2325 20.036 79.3965 19.112 78.0325 19.112C76.6245 19.112 75.8765 20.058 75.4585 20.762V28H72.6645ZM91.1051 25.8C92.2051 25.8 93.0851 25.294 93.6131 24.524L95.7911 26.196C94.7571 27.56 93.1291 28.44 91.1051 28.44C87.2771 28.44 84.9891 25.69 84.9891 22.456C84.9891 19.222 87.2771 16.472 91.1051 16.472C93.1291 16.472 94.7571 17.352 95.7911 18.716L93.6131 20.388C93.0851 19.618 92.2051 19.112 91.0611 19.112C89.2351 19.112 87.8931 20.52 87.8931 22.456C87.8931 24.414 89.2351 25.8 91.1051 25.8ZM107.215 26.196C106.181 27.582 104.465 28.44 102.375 28.44C98.4372 28.44 96.2152 25.69 96.2152 22.456C96.2152 19.178 98.2832 16.472 101.913 16.472C104.993 16.472 107.017 18.562 107.017 21.466C107.017 22.082 106.929 22.654 106.841 23.028H99.0752C99.3392 25.096 100.615 25.932 102.353 25.932C103.563 25.932 104.619 25.404 105.213 24.612L107.215 26.196ZM101.847 18.76C100.417 18.76 99.4712 19.552 99.1632 21.004H104.267C104.223 19.882 103.409 18.76 101.847 18.76ZM113.807 15.438V12.6H126.435V15.438H121.683V28H118.559V15.438H113.807ZM126.925 28V16.912H129.719V18.012C130.445 17.264 131.391 16.692 132.645 16.692C133.019 16.692 133.349 16.758 133.613 16.846V19.596C133.261 19.508 132.887 19.442 132.381 19.442C131.017 19.442 130.137 20.19 129.719 20.894V28H126.925ZM138.01 28.33C135.788 28.33 134.27 27.054 134.27 25.008C134.27 23.336 135.568 22.082 137.944 21.686L141.332 21.114V20.828C141.332 19.662 140.452 18.914 139.176 18.914C138.098 18.914 137.262 19.42 136.668 20.234L134.622 18.672C135.612 17.308 137.24 16.472 139.264 16.472C142.476 16.472 144.126 18.386 144.126 20.828V28H141.332V26.922C140.628 27.78 139.308 28.33 138.01 28.33ZM137.042 24.876C137.042 25.624 137.636 26.108 138.582 26.108C139.858 26.108 140.782 25.514 141.332 24.634V23.072L138.692 23.512C137.526 23.71 137.042 24.194 137.042 24.876ZM146.885 28V16.912H149.679V17.792C150.449 17.044 151.483 16.472 152.957 16.472C155.355 16.472 157.269 18.122 157.269 21.4V28H154.453V21.51C154.453 20.036 153.617 19.112 152.253 19.112C150.845 19.112 150.097 20.058 149.679 20.762V28H146.885ZM159.034 26.394L160.882 24.722C161.564 25.58 162.378 26.196 163.434 26.196C164.336 26.196 164.798 25.668 164.798 25.008C164.798 23.072 159.496 23.798 159.496 19.904C159.496 17.946 161.146 16.472 163.456 16.472C165.15 16.472 166.69 17.286 167.482 18.364L165.634 19.992C165.062 19.288 164.336 18.716 163.478 18.716C162.598 18.716 162.18 19.2 162.18 19.772C162.18 21.664 167.482 21.004 167.482 24.832C167.438 27.164 165.568 28.44 163.478 28.44C161.498 28.44 160.09 27.648 159.034 26.394ZM168.253 16.912H170.321V15.746C170.321 13.392 171.883 11.5 174.655 11.5C175.667 11.5 176.525 11.742 177.229 12.116L176.041 14.448C175.711 14.206 175.271 14.008 174.699 14.008C173.753 14.008 173.137 14.668 173.137 15.68V16.912H176.525V19.42H173.137V28H170.321V19.42H168.253V16.912ZM187.785 26.196C186.751 27.582 185.035 28.44 182.945 28.44C179.007 28.44 176.785 25.69 176.785 22.456C176.785 19.178 178.853 16.472 182.483 16.472C185.563 16.472 187.587 18.562 187.587 21.466C187.587 22.082 187.499 22.654 187.411 23.028H179.645C179.909 25.096 181.185 25.932 182.923 25.932C184.133 25.932 185.189 25.404 185.783 24.612L187.785 26.196ZM182.417 18.76C180.987 18.76 180.041 19.552 179.733 21.004H184.837C184.793 19.882 183.979 18.76 182.417 18.76ZM189.877 28V16.912H192.671V18.012C193.397 17.264 194.343 16.692 195.597 16.692C195.971 16.692 196.301 16.758 196.565 16.846V19.596C196.213 19.508 195.839 19.442 195.333 19.442C193.969 19.442 193.089 20.19 192.671 20.894V28H189.877ZM199.809 23.952V19.42H197.741V16.912H199.809V14.14H202.625V16.912H206.013V19.42H202.625V23.952C202.625 25.184 203.285 25.668 204.385 25.668C205.155 25.668 205.661 25.58 206.035 25.426V27.868C205.485 28.11 204.825 28.22 203.901 28.22C201.129 28.22 199.809 26.658 199.809 23.952Z" fill="#2845C1"/>
</svg>
