<svg width="91" height="94" viewBox="0 0 91 94" fill="none" xmlns="http://www.w3.org/2000/svg">
<path fill-rule="evenodd" clip-rule="evenodd" d="M30.2102 51.9479C30.024 52.157 29.7125 52.2041 29.4692 52.0589C29.2277 51.9143 29.1198 51.6202 29.2127 51.3584C31.8118 43.9876 37.4155 28.1914 37.4155 28.1914C37.4155 28.1914 38.7701 21.4596 49.8646 19.7162C62.4531 17.7167 84.4861 14.293 84.4861 14.293C84.4861 14.293 88.8395 13.4989 89.8153 15.8888C90.7894 18.278 83.2736 21.6051 83.2736 21.6051L36.0721 47.6216C36.0721 47.6216 32.9248 49.0986 30.2102 51.9479ZM44.7017 33.1343L54.8317 27.551C53.5591 27.748 52.3382 27.9437 51.1959 28.128C47.7735 28.6629 45.6347 30.5762 45.5469 30.663L45.4447 31.0397C45.4447 31.0397 45.1599 31.8427 44.7017 33.1343Z" fill="white"/>
<path fill-rule="evenodd" clip-rule="evenodd" d="M30.2102 51.9479C30.024 52.157 29.7125 52.2041 29.4692 52.0589C29.2277 51.9143 29.1198 51.6202 29.2127 51.3584C31.8118 43.9876 37.4155 28.1914 37.4155 28.1914C37.4155 28.1914 38.7701 21.4596 49.8646 19.7162C62.4531 17.7167 84.4861 14.293 84.4861 14.293C84.4861 14.293 88.8395 13.4989 89.8153 15.8888C90.7894 18.278 83.2736 21.6051 83.2736 21.6051L36.0721 47.6216C36.0721 47.6216 32.9248 49.0986 30.2102 51.9479Z" fill="#000091"/>
<path fill-rule="evenodd" clip-rule="evenodd" d="M60.1604 41.5521C60.3466 41.343 60.6581 41.2959 60.9014 41.4411C61.1429 41.5857 61.2508 41.8798 61.1579 42.1416C58.5588 49.5124 52.9551 65.3086 52.9551 65.3086C52.9551 65.3086 51.6005 72.0404 40.506 73.7838C27.9175 75.7833 5.88453 79.207 5.88453 79.207C5.88453 79.207 1.5311 80.0011 0.555284 77.6112C-0.41878 75.222 7.097 71.8949 7.097 71.8949L54.2985 45.8784C54.2985 45.8784 57.4458 44.4014 60.1604 41.5521ZM35.5389 65.949C36.8115 65.752 38.0325 65.5563 39.1747 65.372C42.5971 64.8371 44.7359 62.9238 44.8237 62.837L44.9259 62.4603C44.9259 62.4603 45.2107 61.6573 45.6689 60.3657L35.5389 65.949Z" fill="white"/>
<path fill-rule="evenodd" clip-rule="evenodd" d="M60.1604 41.5521C60.3466 41.343 60.6581 41.2959 60.9014 41.4411C61.1429 41.5857 61.2508 41.8798 61.1579 42.1416C58.5588 49.5124 52.9551 65.3086 52.9551 65.3086C52.9551 65.3086 51.6005 72.0404 40.506 73.7838C27.9175 75.7833 5.88453 79.207 5.88453 79.207C5.88453 79.207 1.5311 80.0011 0.555284 77.6112C-0.41878 75.222 7.097 71.8949 7.097 71.8949L54.2985 45.8784C54.2985 45.8784 57.4458 44.4014 60.1604 41.5521Z" fill="#E1000F"/>
</svg>
