<svg width="25" height="25" viewBox="0 0 25 25" fill="none" xmlns="http://www.w3.org/2000/svg">
<g clip-path="url(#clip0_9055_145)">
<path d="M8.14631 13.7348C8.19794 13.7637 8.26241 13.7507 8.29872 13.707C9.03835 12.874 9.98061 12.4495 9.98061 12.4495L9.99286 12.443C9.99468 12.4455 9.9965 12.448 9.9983 12.4506C10.0007 12.4514 10.0031 12.4473 10.0031 12.4473L11.158 11.8317C11.1594 11.8276 11.1608 11.8235 11.1622 11.8194L21.5313 6.28958C21.5387 6.28856 21.5461 6.28753 21.5535 6.28652L22.5626 5.74736C22.5626 5.74736 22.6121 5.72384 22.694 5.68629C22.6927 5.68532 22.6915 5.68435 22.6903 5.68338C23.1389 5.47646 24.5138 4.79095 24.2846 4.25815C24.0109 3.62294 22.8439 3.81697 22.8439 3.81697C22.8439 3.81697 16.9346 4.64164 13.5586 5.12426C10.5832 5.54464 10.2506 7.31894 10.2506 7.31894C10.2506 7.31894 8.72444 11.7443 8.09037 13.5906C8.07137 13.6457 8.09516 13.706 8.14631 13.7348Z" fill="#000091"/>
<path d="M16.6638 10.9152C16.6122 10.8863 16.5477 10.8993 16.5114 10.943C15.7718 11.776 14.8295 12.2005 14.8295 12.2005L14.8167 12.2073C14.8149 12.2047 14.813 12.202 14.8111 12.1994C14.8087 12.1986 14.8063 12.2027 14.8063 12.2027L13.6514 12.8183C13.65 12.8226 13.6485 12.8268 13.647 12.8311L3.27905 18.3603C3.27133 18.3613 3.26363 18.3624 3.25595 18.3635L2.24681 18.9026C2.24681 18.9026 2.19732 18.9261 2.11542 18.9637C2.11675 18.9647 2.11808 18.9658 2.11942 18.9668C1.67029 19.174 0.296447 19.8592 0.525574 20.3918C0.799234 21.0271 1.96627 20.833 1.96627 20.833C1.96627 20.833 7.8755 20.0084 11.2515 19.5257C14.227 19.1054 14.5596 17.3311 14.5596 17.3311C14.5596 17.3311 16.0857 12.9057 16.7198 11.0593C16.7388 11.0043 16.715 10.944 16.6638 10.9152Z" fill="#C9191E"/>
</g>
<defs>
<clipPath id="clip0_9055_145">
<rect width="24" height="24" fill="white" transform="translate(0.5 0.0390625)"/>
</clipPath>
</defs>
</svg>
