<svg width="64" height="62" viewBox="0 0 64 62" fill="none" xmlns="http://www.w3.org/2000/svg">
<path fill-rule="evenodd" clip-rule="evenodd" d="M63.559 0H53.8227C49.3303 0 45.6829 4.01169 45.6829 8.9538V17.8761H55.496C59.9462 17.8761 63.559 13.9013 63.559 9.00615V0Z" fill="#000091"/>
<path fill-rule="evenodd" clip-rule="evenodd" d="M23.8347 0H33.571C38.0634 0 41.7108 4.01169 41.7108 8.9538V17.8761H31.8982C27.4474 17.8761 23.8347 13.9013 23.8347 9.00615V0Z" fill="#000091"/>
<path fill-rule="evenodd" clip-rule="evenodd" d="M0 21.8481H9.73627C14.2287 21.8481 17.8761 25.8604 17.8761 30.8019V39.7242H8.06344C3.61271 39.7242 0 35.7499 0 30.8543V21.8481Z" fill="#E1000F"/>
<path fill-rule="evenodd" clip-rule="evenodd" d="M0 43.6965H9.73627C14.2287 43.6965 17.8761 47.7088 17.8761 52.6503V61.5726H8.06344C3.61271 61.5726 0 57.5983 0 52.7032V43.6965Z" fill="#E1000F"/>
<path fill-rule="evenodd" clip-rule="evenodd" d="M23.8347 21.8481H33.571C38.0634 21.8481 41.7108 25.8604 41.7108 30.8019V39.7242H31.8982C27.4474 39.7242 23.8347 35.7499 23.8347 30.8543V21.8481Z" fill="#CECECE"/>
<path fill-rule="evenodd" clip-rule="evenodd" d="M63.559 21.8481H53.8227C49.3303 21.8481 45.6829 25.8604 45.6829 30.8019V39.7242H55.496C59.9462 39.7242 63.559 35.7499 63.559 30.8543V21.8481Z" fill="#CECECE"/>
<path fill-rule="evenodd" clip-rule="evenodd" d="M23.8347 43.6965H33.571C38.0634 43.6965 41.7108 47.7088 41.7108 52.6503V61.5726H31.8982C27.4474 61.5726 23.8347 57.5983 23.8347 52.7032V43.6965Z" fill="#CECECE"/>
<path fill-rule="evenodd" clip-rule="evenodd" d="M63.559 43.6965H53.8227C49.3303 43.6965 45.6829 47.7088 45.6829 52.6503V61.5726H55.496C59.9462 61.5726 63.559 57.5983 63.559 52.7032V43.6965Z" fill="#CECECE"/>
</svg>
