<svg width="95" height="40" viewBox="0 0 95 40" fill="none" xmlns="http://www.w3.org/2000/svg">
<path fill-rule="evenodd" clip-rule="evenodd" d="M7.88293 16.9519C7.88293 16.6832 8.10077 16.4653 8.36949 16.4653H11.678C13.429 16.4653 14.8507 18.0292 14.8507 19.9554V22.9466C14.8507 23.2153 14.6329 23.4331 14.3642 23.4331H11.0259C9.29111 23.4331 7.88293 21.884 7.88293 19.9758V16.9519Z" fill="#C83F49"/>
<path fill-rule="evenodd" clip-rule="evenodd" d="M7.88293 25.468C7.88293 25.1993 8.10077 24.9814 8.36949 24.9814H11.678C13.429 24.9814 14.8507 26.5453 14.8507 28.4715V31.4627C14.8507 31.7314 14.6329 31.9492 14.3642 31.9492H11.0259C9.29111 31.9492 7.88293 30.4001 7.88293 28.4921V25.468Z" fill="#C83F49"/>
<path fill-rule="evenodd" clip-rule="evenodd" d="M32.6576 8.43577C32.6576 8.16705 32.4397 7.94922 32.171 7.94922H28.8625C27.1115 7.94922 25.6898 9.51291 25.6898 11.4393V14.4305C25.6898 14.6992 25.9076 14.917 26.1763 14.917H29.5148C31.2494 14.917 32.6576 13.3677 32.6576 11.4597V8.43577Z" fill="#2845C1"/>
<path fill-rule="evenodd" clip-rule="evenodd" d="M17.1735 8.43577C17.1735 8.16705 17.3913 7.94922 17.66 7.94922H20.9685C22.7196 7.94922 24.1413 9.51291 24.1413 11.4393V14.4305C24.1413 14.6992 23.9234 14.917 23.6547 14.917H20.3165C18.5816 14.917 17.1735 13.3677 17.1735 11.4597V8.43577Z" fill="#2845C1"/>
<path fill-rule="evenodd" clip-rule="evenodd" d="M17.1735 16.9518C17.1735 16.6831 17.3913 16.4653 17.66 16.4653H20.9685C22.7196 16.4653 24.1413 18.0292 24.1413 19.9553V22.9466C24.1413 23.2153 23.9234 23.4331 23.6547 23.4331H20.3165C18.5816 23.4331 17.1735 21.884 17.1735 19.9757V16.9518Z" fill="#2845C1"/>
<path fill-rule="evenodd" clip-rule="evenodd" d="M32.6576 16.9518C32.6576 16.6831 32.4397 16.4653 32.171 16.4653H28.8625C27.1115 16.4653 25.6898 18.0292 25.6898 19.9553V22.9466C25.6898 23.2153 25.9076 23.4331 26.1763 23.4331H29.5148C31.2494 23.4331 32.6576 21.884 32.6576 19.9757V16.9518Z" fill="#2845C1"/>
<path fill-rule="evenodd" clip-rule="evenodd" d="M17.1735 25.4679C17.1735 25.1992 17.3913 24.9814 17.66 24.9814H20.9685C22.7196 24.9814 24.1413 26.5453 24.1413 28.4714V31.4627C24.1413 31.7314 23.9234 31.9492 23.6547 31.9492H20.3165C18.5816 31.9492 17.1735 30.4001 17.1735 28.492V25.4679Z" fill="#2845C1"/>
<path fill-rule="evenodd" clip-rule="evenodd" d="M32.6576 25.4679C32.6576 25.1992 32.4397 24.9814 32.171 24.9814H28.8625C27.1115 24.9814 25.6898 26.5453 25.6898 28.4714V31.4627C25.6898 31.7314 25.9076 31.9492 26.1763 31.9492H29.5148C31.2494 31.9492 32.6576 30.4001 32.6576 28.492V25.4679Z" fill="#2845C1"/>
<rect x="8" y="27" width="24" height="9" rx="4.5" fill="#EEF1F4"/>
<rect x="8" y="27" width="24" height="9" rx="4.5" fill="url(#paint0_linear_3435_91)" fill-opacity="0.1"/>
<path d="M12.3425 33.7364C12.2926 33.7364 12.2676 33.7364 12.2486 33.7267C12.2318 33.7181 12.2182 33.7045 12.2097 33.6877C12.2 33.6687 12.2 33.6437 12.2 33.5939V29.2426C12.2 29.1927 12.2 29.1678 12.2097 29.1487C12.2182 29.132 12.2318 29.1183 12.2486 29.1098C12.2676 29.1001 12.2926 29.1001 12.3425 29.1001H13.5643C14.5313 29.1001 15.1208 29.577 15.1208 30.3585C15.1208 30.6481 15.0195 30.9066 14.8257 31.1069C14.7572 31.1778 14.7229 31.2132 14.7171 31.2365C14.7109 31.2616 14.7123 31.2741 14.7237 31.2973C14.7343 31.3188 14.7739 31.3452 14.8532 31.398C15.1981 31.6276 15.3857 31.9701 15.3857 32.372C15.3857 33.2198 14.73 33.7364 13.6637 33.7364H12.3425ZM13.5842 29.8816H13.283C13.2331 29.8816 13.2081 29.8816 13.1891 29.8913C13.1723 29.8999 13.1587 29.9135 13.1502 29.9303C13.1405 29.9493 13.1405 29.9743 13.1405 30.0241V30.7856C13.1405 30.8355 13.1405 30.8604 13.1502 30.8795C13.1587 30.8962 13.1723 30.9099 13.1891 30.9184C13.2081 30.9281 13.2331 30.9281 13.283 30.9281H13.5842C13.9419 30.9281 14.1538 30.736 14.1538 30.3983C14.1538 30.0737 13.9419 29.8816 13.5842 29.8816ZM13.7167 31.7097H13.283C13.2331 31.7097 13.2081 31.7097 13.1891 31.7194C13.1723 31.7279 13.1587 31.7415 13.1502 31.7583C13.1405 31.7773 13.1405 31.8023 13.1405 31.8522V32.8123C13.1405 32.8622 13.1405 32.8871 13.1502 32.9062C13.1587 32.923 13.1723 32.9366 13.1891 32.9451C13.2081 32.9548 13.2331 32.9548 13.283 32.9548H13.7167C14.1538 32.9548 14.4187 32.723 14.4187 32.3322C14.4187 31.9348 14.1538 31.7097 13.7167 31.7097Z" fill="#2845C1"/>
<path d="M16.4271 33.7364C16.3772 33.7364 16.3523 33.7364 16.3333 33.7267C16.3165 33.7181 16.3029 33.7045 16.2943 33.6877C16.2846 33.6687 16.2846 33.6437 16.2846 33.5939V29.2426C16.2846 29.1927 16.2846 29.1678 16.2943 29.1487C16.3029 29.132 16.3165 29.1183 16.3333 29.1098C16.3523 29.1001 16.3772 29.1001 16.4271 29.1001H18.8444C18.8943 29.1001 18.9192 29.1001 18.9383 29.1098C18.955 29.1183 18.9687 29.132 18.9772 29.1487C18.9869 29.1678 18.9869 29.1927 18.9869 29.2426V29.7391C18.9869 29.789 18.9869 29.814 18.9772 29.833C18.9687 29.8498 18.955 29.8634 18.9383 29.8719C18.9192 29.8816 18.8943 29.8816 18.8444 29.8816H17.3676C17.3177 29.8816 17.2928 29.8816 17.2738 29.8913C17.257 29.8999 17.2434 29.9135 17.2348 29.9303C17.2251 29.9493 17.2251 29.9743 17.2251 30.0241V30.8386C17.2251 30.8885 17.2251 30.9134 17.2348 30.9325C17.2434 30.9492 17.257 30.9629 17.2738 30.9714C17.2928 30.9811 17.3177 30.9811 17.3676 30.9811H18.5795C18.6294 30.9811 18.6543 30.9811 18.6733 30.9908C18.6901 30.9993 18.7037 31.013 18.7123 31.0297C18.722 31.0488 18.722 31.0737 18.722 31.1236V31.6201C18.722 31.67 18.722 31.695 18.7123 31.714C18.7037 31.7308 18.6901 31.7444 18.6733 31.7529C18.6543 31.7626 18.6294 31.7626 18.5795 31.7626H17.3676C17.3177 31.7626 17.2928 31.7626 17.2738 31.7723C17.257 31.7809 17.2434 31.7945 17.2348 31.8113C17.2251 31.8303 17.2251 31.8553 17.2251 31.9051V32.8123C17.2251 32.8622 17.2251 32.8871 17.2348 32.9062C17.2434 32.923 17.257 32.9366 17.2738 32.9451C17.2928 32.9548 17.3177 32.9548 17.3676 32.9548H18.8444C18.8943 32.9548 18.9192 32.9548 18.9383 32.9645C18.955 32.9731 18.9687 32.9867 18.9772 33.0035C18.9869 33.0225 18.9869 33.0474 18.9869 33.0973V33.5939C18.9869 33.6437 18.9869 33.6687 18.9772 33.6877C18.9687 33.7045 18.955 33.7181 18.9383 33.7267C18.9192 33.7364 18.8943 33.7364 18.8444 33.7364H16.4271Z" fill="#2845C1"/>
<path d="M19.7762 29.9545C19.7263 29.9545 19.7014 29.9545 19.6823 29.9448C19.6656 29.9362 19.652 29.9226 19.6434 29.9059C19.6337 29.8868 19.6337 29.8619 19.6337 29.812V29.2426C19.6337 29.1927 19.6337 29.1678 19.6434 29.1487C19.652 29.132 19.6656 29.1183 19.6823 29.1098C19.7014 29.1001 19.7263 29.1001 19.7762 29.1001H23.2929C23.3428 29.1001 23.3678 29.1001 23.3868 29.1098C23.4036 29.1183 23.4172 29.132 23.4257 29.1487C23.4354 29.1678 23.4354 29.1927 23.4354 29.2426V29.812C23.4354 29.8619 23.4354 29.8868 23.4257 29.9059C23.4172 29.9226 23.4036 29.9362 23.3868 29.9448C23.3678 29.9545 23.3428 29.9545 23.2929 29.9545H22.1473C22.0974 29.9545 22.0725 29.9545 22.0535 29.9642C22.0367 29.9727 22.0231 29.9864 22.0145 30.0031C22.0048 30.0222 22.0048 30.0471 22.0048 30.097V33.5939C22.0048 33.6437 22.0048 33.6687 21.9951 33.6877C21.9866 33.7045 21.973 33.7181 21.9562 33.7267C21.9371 33.7364 21.9122 33.7364 21.8623 33.7364H21.2068C21.1569 33.7364 21.132 33.7364 21.113 33.7267C21.0962 33.7181 21.0826 33.7045 21.074 33.6877C21.0643 33.6687 21.0643 33.6437 21.0643 33.5939V30.097C21.0643 30.0471 21.0643 30.0222 21.0546 30.0031C21.0461 29.9864 21.0325 29.9727 21.0157 29.9642C20.9966 29.9545 20.9717 29.9545 20.9218 29.9545H19.7762Z" fill="#2845C1"/>
<path d="M23.3724 33.7364C23.3031 33.7364 23.2685 33.7364 23.2463 33.7218C23.2268 33.7091 23.2131 33.6892 23.2081 33.6666C23.2024 33.6406 23.2146 33.6082 23.2392 33.5434L24.8864 29.1921C24.899 29.159 24.9053 29.1424 24.9161 29.1301C24.9257 29.1193 24.9377 29.111 24.9512 29.1059C24.9665 29.1001 24.9842 29.1001 25.0197 29.1001H26.0548C26.0903 29.1001 26.108 29.1001 26.1233 29.1059C26.1368 29.111 26.1488 29.1193 26.1584 29.1301C26.1692 29.1424 26.1755 29.159 26.188 29.1921L27.8353 33.5434C27.8598 33.6082 27.8721 33.6406 27.8664 33.6666C27.8613 33.6892 27.8476 33.7091 27.8282 33.7218C27.806 33.7364 27.7713 33.7364 27.702 33.7364H27.0076C26.9718 33.7364 26.9539 33.7364 26.9385 33.7305C26.925 33.7253 26.9129 33.7169 26.9033 33.7059C26.8925 33.6935 26.8863 33.6767 26.8739 33.6431L26.4988 32.6242C26.4865 32.5906 26.4803 32.5738 26.4694 32.5614C26.4599 32.5504 26.4478 32.542 26.4342 32.5368C26.4188 32.5309 26.4009 32.5309 26.3651 32.5309H24.7094C24.6736 32.5309 24.6556 32.5309 24.6403 32.5368C24.6267 32.542 24.6146 32.5504 24.605 32.5614C24.5942 32.5738 24.588 32.5906 24.5757 32.6242L24.2006 33.6431C24.1882 33.6767 24.182 33.6935 24.1712 33.7059C24.1616 33.7169 24.1495 33.7253 24.1359 33.7305C24.1206 33.7364 24.1027 33.7364 24.0668 33.7364H23.3724ZM24.9713 31.5382C24.9478 31.6025 24.936 31.6347 24.9419 31.6604C24.9471 31.6829 24.9608 31.7026 24.9802 31.7151C25.0023 31.7295 25.0366 31.7295 25.1051 31.7295H25.9694C26.0379 31.7295 26.0721 31.7295 26.0943 31.7151C26.1136 31.7026 26.1274 31.6829 26.1325 31.6604C26.1385 31.6347 26.1267 31.6025 26.1032 31.5382L25.6711 30.3543C25.6298 30.2413 25.6092 30.1847 25.579 30.1687C25.5529 30.1548 25.5216 30.1548 25.4955 30.1687C25.4653 30.1847 25.4447 30.2413 25.4034 30.3543L24.9713 31.5382Z" fill="#2845C1"/>
<path d="M49.4541 11.0706C50.411 11.0706 51.3072 11.2073 52.1426 11.4807C52.978 11.7541 53.7301 12.1333 54.3984 12.6194C55.0269 13.0663 55.5716 13.5842 56.0331 14.1724C56.1004 14.2581 56.0833 14.3818 55.997 14.4485L54.1088 15.9087C54.0183 15.9787 53.8879 15.9584 53.819 15.867C53.3513 15.2467 52.7624 14.741 52.0518 14.3508C51.2923 13.9104 50.4262 13.6907 49.4541 13.6907C48.634 13.6907 47.8817 13.8421 47.1982 14.1458C46.5299 14.4343 45.9446 14.8446 45.4434 15.3762C44.9421 15.9078 44.5547 16.5233 44.2812 17.2219C44.023 17.9207 43.8945 18.6809 43.8945 19.5012C43.8946 20.3214 44.0313 21.0809 44.3047 21.7795C44.5933 22.4782 44.9953 23.0936 45.5117 23.6252C46.0282 24.1569 46.6362 24.5744 47.335 24.8782C48.0489 25.1667 48.831 25.3108 49.6816 25.3108C50.5322 25.3108 51.3144 25.1594 52.0283 24.8557C52.6096 24.596 53.1158 24.271 53.5462 23.8805C53.7348 23.7094 53.8291 23.4609 53.8291 23.2062V20.7491C53.8291 20.6386 53.7396 20.5491 53.6291 20.5491H49.7225C49.612 20.5491 49.5225 20.4595 49.5225 20.3491V18.3565C49.5225 18.246 49.612 18.1565 49.7225 18.1565H56.4084C56.5189 18.1565 56.6084 18.246 56.6084 18.3565V24.3418C56.6084 24.5569 56.5408 24.7677 56.4047 24.9343C55.9578 25.4811 55.4257 25.9712 54.8086 26.4045C54.1099 26.8906 53.3277 27.2635 52.4619 27.5217C51.5961 27.7952 50.669 27.9319 49.6816 27.9319C48.3905 27.9319 47.2127 27.7113 46.1494 27.2708C45.0863 26.8151 44.1672 26.1997 43.3926 25.425C42.6331 24.6504 42.0405 23.7543 41.6152 22.7366C41.2051 21.7189 41 20.6404 41 19.5012C41 18.3619 41.1978 17.2827 41.5928 16.2649C42.0029 15.2473 42.58 14.351 43.3242 13.5764C44.0836 12.8018 44.98 12.1947 46.0127 11.7542C47.0456 11.2984 48.1933 11.0706 49.4541 11.0706Z" fill="#2845C1"/>
<path d="M76.6533 15.5364C77.4887 15.5364 78.2636 15.7187 78.9775 16.0833C79.642 16.4155 80.1742 16.8296 80.5737 17.3258C80.6393 17.4073 80.6251 17.5253 80.5455 17.5932L79.1416 18.791C79.0531 18.8665 78.9193 18.8504 78.8459 18.7601C78.5866 18.4409 78.2886 18.1714 77.9521 17.9514C77.5572 17.6932 77.1242 17.5637 76.6533 17.5637C76.3191 17.5637 76.0302 17.6248 75.7871 17.7463C75.5594 17.8678 75.3852 18.0275 75.2637 18.2249C75.1573 18.4223 75.1035 18.6429 75.1035 18.886C75.1036 19.2504 75.233 19.5541 75.4912 19.7971C75.7646 20.0249 76.1138 20.2228 76.5391 20.3899C76.9644 20.557 77.4129 20.7393 77.8838 20.9368C78.3698 21.119 78.8257 21.347 79.251 21.6204C79.6762 21.8786 80.0182 22.2278 80.2764 22.6682C80.5496 23.0934 80.6865 23.6325 80.6865 24.2854C80.6865 25.0601 80.4959 25.721 80.1162 26.2678C79.7516 26.7995 79.2658 27.2097 78.6582 27.4983C78.0506 27.7869 77.3824 27.9319 76.6533 27.9319C75.6659 27.9319 74.8073 27.7496 74.0781 27.385C73.4063 27.0351 72.8118 26.5749 72.2947 26.0057C72.2211 25.9247 72.2301 25.7996 72.3123 25.7273L73.7157 24.4922C73.8014 24.4168 73.9324 24.4286 74.0069 24.515C74.3372 24.8982 74.7028 25.2171 75.1035 25.4709C75.5592 25.7596 76.0688 25.9036 76.6309 25.9036C77.1623 25.9035 77.5645 25.7667 77.8379 25.4934C78.1265 25.2048 78.2705 24.8556 78.2705 24.4456C78.2705 24.0658 78.1338 23.7623 77.8604 23.5344C77.6022 23.3067 77.261 23.1087 76.8359 22.9417C76.4107 22.7746 75.9547 22.5995 75.4688 22.4172C74.9979 22.2198 74.5493 21.9846 74.124 21.7112C73.6988 21.4378 73.3496 21.0885 73.0762 20.6633C72.8179 20.2228 72.6885 19.6604 72.6885 18.9768C72.6885 18.3389 72.8554 17.7618 73.1895 17.2454C73.5236 16.7137 73.9876 16.2953 74.5801 15.9915C75.1876 15.6878 75.8788 15.5364 76.6533 15.5364Z" fill="#2845C1"/>
<path d="M86.2236 15.7915C86.2236 15.9019 86.3132 15.9915 86.4236 15.9915H89.7375C89.848 15.9915 89.9375 16.081 89.9375 16.1915V18.0473C89.9375 18.1578 89.848 18.2473 89.7375 18.2473H86.4236C86.3132 18.2473 86.2236 18.3369 86.2236 18.4473V23.4202C86.2236 23.9213 86.3076 24.3162 86.4746 24.6047C86.6416 24.8932 86.877 25.1057 87.1807 25.2424C87.4845 25.364 87.8418 25.425 88.252 25.425C88.6469 25.425 88.9815 25.4023 89.2549 25.3567C89.4107 25.3221 89.5542 25.2849 89.6853 25.2453C89.8197 25.2048 89.9609 25.3025 89.9609 25.4428V27.2316C89.9609 27.3106 89.9146 27.3828 89.841 27.4115C89.5973 27.5064 89.3257 27.5735 89.0264 27.6125C88.6922 27.6733 88.2974 27.7034 87.8418 27.7034C86.9304 27.7034 86.1628 27.5439 85.54 27.2249C84.9326 26.8907 84.4693 26.412 84.1504 25.7893C83.8467 25.1514 83.6944 24.3617 83.6943 23.4202V18.4473C83.6943 18.3369 83.6048 18.2473 83.4943 18.2473H81.7527C81.6423 18.2473 81.5527 18.1578 81.5527 18.0473V16.1915C81.5527 16.081 81.6423 15.9915 81.7527 15.9915H83.4943C83.6048 15.9915 83.6943 15.9019 83.6943 15.7915V13.3213C83.6943 13.2109 83.7839 13.1213 83.8943 13.1213H86.0236C86.1341 13.1213 86.2236 13.2109 86.2236 13.3213V15.7915Z" fill="#2845C1"/>
<path d="M65.0342 15.7639C65.2317 15.7639 65.414 15.7794 65.5811 15.8098C65.6939 15.8303 65.8001 15.854 65.8992 15.8813C65.9822 15.9041 66.0371 15.9812 66.0371 16.0672V18.1279C66.0371 18.258 65.9148 18.3535 65.7873 18.3276C65.6827 18.3064 65.5758 18.2875 65.4668 18.2708C65.2846 18.2404 65.0646 18.2249 64.8066 18.2249C64.3357 18.2249 63.91 18.3005 63.5303 18.4524C63.1657 18.6043 62.8467 18.8094 62.5732 19.0676C62.3712 19.2472 62.1939 19.4436 62.0416 19.6564C61.9361 19.8038 61.8896 19.9837 61.8896 20.1649V27.2758C61.8896 27.3863 61.8001 27.4758 61.6896 27.4758H59.5838C59.4733 27.4758 59.3838 27.3863 59.3838 27.2758V16.1915C59.3838 16.081 59.4733 15.9915 59.5838 15.9915H61.6896C61.8001 15.9915 61.8896 16.081 61.8896 16.1915V16.9969C61.8896 17.088 62.0024 17.1324 62.0663 17.0675C62.1934 16.9382 62.3241 16.815 62.459 16.6985C62.7931 16.4099 63.1734 16.182 63.5986 16.0149C64.0239 15.8478 64.5025 15.7639 65.0342 15.7639Z" fill="#2845C1"/>
<path d="M70.374 27.2758C70.374 27.3863 70.2845 27.4758 70.174 27.4758H68.0672C67.9567 27.4758 67.8672 27.3863 67.8672 27.2758V16.1915C67.8672 16.081 67.9567 15.9915 68.0672 15.9915H70.174C70.2845 15.9915 70.374 16.081 70.374 16.1915V27.2758Z" fill="#2845C1"/>
<path d="M69.1436 10.2502C69.4473 10.2503 69.7208 10.3259 69.9639 10.4778C70.2221 10.6297 70.4199 10.8348 70.5566 11.093C70.7084 11.336 70.7842 11.6096 70.7842 11.9133C70.7842 12.217 70.7084 12.498 70.5566 12.7561C70.42 13.0143 70.222 13.2194 69.9639 13.3713C69.7208 13.508 69.4473 13.5764 69.1436 13.5764C68.8398 13.5764 68.559 13.508 68.3008 13.3713C68.0425 13.2194 67.8375 13.0143 67.6855 12.7561C67.5337 12.4979 67.457 12.2171 67.457 11.9133C67.457 11.4577 67.6167 11.0702 67.9355 10.7512C68.2697 10.417 68.6726 10.2502 69.1436 10.2502Z" fill="#2845C1"/>
<defs>
<linearGradient id="paint0_linear_3435_91" x1="20" y1="27" x2="20" y2="36" gradientUnits="userSpaceOnUse">
<stop stop-color="#2845C1"/>
<stop offset="1" stop-color="#EEF1F4"/>
</linearGradient>
</defs>
</svg>
