<svg width="24" height="25" viewBox="0 0 24 25" fill="none" xmlns="http://www.w3.org/2000/svg">
<path fill-rule="evenodd" clip-rule="evenodd" d="M2.91211 10.2054C2.91211 10.0038 3.07549 9.84045 3.27702 9.84045H5.75839C7.07169 9.84045 8.13797 11.0134 8.13797 12.458V14.7014C8.13797 14.9029 7.97459 15.0663 7.77306 15.0663H5.26936C3.96824 15.0663 2.91211 13.9045 2.91211 12.4733V10.2054Z" fill="#C9191E"/>
<path fill-rule="evenodd" clip-rule="evenodd" d="M2.91211 16.5924C2.91211 16.3909 3.07549 16.2275 3.27702 16.2275H5.75839C7.07169 16.2275 8.13797 17.4005 8.13797 18.8451V21.0885C8.13797 21.29 7.97459 21.4534 7.77306 21.4534H5.26936C3.96824 21.4534 2.91211 20.2915 2.91211 18.8605V16.5924Z" fill="#C9191E"/>
<path fill-rule="evenodd" clip-rule="evenodd" d="M21.4932 3.81828C21.4932 3.61675 21.3298 3.45337 21.1283 3.45337H18.6469C17.3336 3.45337 16.2673 4.62614 16.2673 6.0709V8.31431C16.2673 8.51585 16.4307 8.67922 16.6323 8.67922H19.1361C20.4371 8.67922 21.4932 7.51723 21.4932 6.0862V3.81828Z" fill="#000091"/>
<path fill-rule="evenodd" clip-rule="evenodd" d="M9.88013 3.81828C9.88013 3.61675 10.0435 3.45337 10.245 3.45337H12.7264C14.0397 3.45337 15.106 4.62614 15.106 6.0709V8.31431C15.106 8.51585 14.9426 8.67922 14.7411 8.67922H12.2374C10.9363 8.67922 9.88013 7.51723 9.88013 6.0862V3.81828Z" fill="#000091"/>
<path fill-rule="evenodd" clip-rule="evenodd" d="M9.88013 10.2053C9.88013 10.0038 10.0435 9.84043 10.245 9.84043H12.7264C14.0397 9.84043 15.106 11.0134 15.106 12.458V14.7014C15.106 14.9029 14.9426 15.0663 14.7411 15.0663H12.2374C10.9363 15.0663 9.88013 13.9044 9.88013 12.4733V10.2053Z" fill="#000091"/>
<path fill-rule="evenodd" clip-rule="evenodd" d="M21.4932 10.2053C21.4932 10.0038 21.3298 9.84043 21.1283 9.84043H18.6469C17.3336 9.84043 16.2673 11.0134 16.2673 12.458V14.7014C16.2673 14.9029 16.4307 15.0663 16.6323 15.0663H19.1361C20.4371 15.0663 21.4932 13.9044 21.4932 12.4733V10.2053Z" fill="#000091"/>
<path fill-rule="evenodd" clip-rule="evenodd" d="M9.88013 16.5924C9.88013 16.3909 10.0435 16.2275 10.245 16.2275H12.7264C14.0397 16.2275 15.106 17.4004 15.106 18.845V21.0884C15.106 21.29 14.9426 21.4534 14.7411 21.4534H12.2374C10.9363 21.4534 9.88013 20.2915 9.88013 18.8605V16.5924Z" fill="#000091"/>
<path fill-rule="evenodd" clip-rule="evenodd" d="M21.4932 16.5924C21.4932 16.3909 21.3298 16.2275 21.1283 16.2275H18.6469C17.3336 16.2275 16.2673 17.4004 16.2673 18.845V21.0884C16.2673 21.29 16.4307 21.4534 16.6323 21.4534H19.1361C20.4371 21.4534 21.4932 20.2915 21.4932 18.8605V16.5924Z" fill="#000091"/>
</svg>
