<svg width="38" height="38" viewBox="0 0 38 38" fill="none" xmlns="http://www.w3.org/2000/svg">
<path d="M32.8659 11.5499H9.99841C7.40107 11.5499 4.78922 13.5937 4.16469 16.1149L2.375 23.3395V9.32047C2.375 7.81131 2.72105 6.67466 3.41314 5.91053C4.11411 5.13684 5.0857 4.75 6.32792 4.75H10.0945C10.5559 4.75 10.9552 4.78343 11.2924 4.85029C11.6295 4.91715 11.9401 5.03177 12.224 5.19415C12.508 5.34698 12.8052 5.56189 13.1158 5.83889L13.8744 6.51228C14.2471 6.82749 14.5975 7.05195 14.9258 7.18567C15.2541 7.3194 15.6579 7.38626 16.137 7.38626H28.5148C29.9434 7.38626 31.0259 7.78265 31.7623 8.57544C32.4229 9.27808 32.7908 10.2696 32.8659 11.5499Z" fill="#C83F49"/>
<path d="M6.74091 32.0626C5.30349 32.0626 4.31846 31.6512 3.78583 30.8283C3.25074 30.0154 3.17965 28.8159 3.57257 27.2298L6.32592 16.115C6.66351 14.7522 8.07532 13.6475 9.47929 13.6475H34.9004C36.3044 13.6475 37.1688 14.7522 36.8313 16.115L34.0779 27.2298C33.685 28.8159 33.0329 30.0154 32.1217 30.8283C31.2081 31.6512 30.1168 32.0626 28.848 32.0626H6.74091Z" fill="#2845C1"/>
<rect x="4.75" y="27.3125" width="28.5" height="10.6875" rx="5.34375" fill="#EEF1F4"/>
<rect x="4.75" y="27.3125" width="28.5" height="10.6875" rx="5.34375" fill="url(#paint0_linear_9317_507)" fill-opacity="0.1"/>
<path d="M9.90665 35.3117C9.84741 35.3117 9.8178 35.3117 9.79517 35.3002C9.77527 35.2901 9.75909 35.2739 9.74895 35.254C9.73743 35.2313 9.73743 35.2017 9.73743 35.1425V29.9754C9.73743 29.9161 9.73743 29.8865 9.74895 29.8639C9.75909 29.844 9.77527 29.8278 9.79517 29.8177C9.8178 29.8062 9.84741 29.8062 9.90665 29.8062H11.3576C12.5059 29.8062 13.2059 30.3724 13.2059 31.3005C13.2059 31.6444 13.0856 31.9513 12.8555 32.1892C12.7741 32.2734 12.7334 32.3155 12.7266 32.3431C12.7192 32.3729 12.7208 32.3878 12.7344 32.4153C12.7469 32.4408 12.794 32.4722 12.8882 32.5349C13.2977 32.8076 13.5205 33.2142 13.5205 33.6915C13.5205 34.6982 12.7419 35.3117 11.4756 35.3117H9.90665ZM11.3812 30.7342H11.0235C10.9643 30.7342 10.9346 30.7342 10.912 30.7458C10.8921 30.7559 10.8759 30.7721 10.8658 30.792C10.8543 30.8146 10.8543 30.8442 10.8543 30.9035V31.8077C10.8543 31.8669 10.8543 31.8965 10.8658 31.9192C10.8759 31.9391 10.8921 31.9553 10.912 31.9654C10.9346 31.9769 10.9643 31.9769 11.0235 31.9769H11.3812C11.8059 31.9769 12.0576 31.7488 12.0576 31.3477C12.0576 30.9623 11.8059 30.7342 11.3812 30.7342ZM11.5385 32.905H11.0235C10.9643 32.905 10.9346 32.905 10.912 32.9165C10.8921 32.9267 10.8759 32.9428 10.8658 32.9627C10.8543 32.9854 10.8543 33.015 10.8543 33.0742V34.2144C10.8543 34.2737 10.8543 34.3033 10.8658 34.3259C10.8759 34.3458 10.8921 34.362 10.912 34.3721C10.9346 34.3836 10.9643 34.3836 11.0235 34.3836H11.5385C12.0576 34.3836 12.3722 34.1084 12.3722 33.6443C12.3722 33.1724 12.0576 32.905 11.5385 32.905Z" fill="#2845C1"/>
<path d="M14.7572 35.3117C14.698 35.3117 14.6683 35.3117 14.6457 35.3002C14.6258 35.2901 14.6096 35.2739 14.5995 35.254C14.588 35.2313 14.588 35.2017 14.588 35.1425V29.9754C14.588 29.9161 14.588 29.8865 14.5995 29.8639C14.6096 29.844 14.6258 29.8278 14.6457 29.8177C14.6683 29.8062 14.698 29.8062 14.7572 29.8062H17.6277C17.687 29.8062 17.7166 29.8062 17.7392 29.8177C17.7591 29.8278 17.7753 29.844 17.7854 29.8639C17.7969 29.8865 17.7969 29.9161 17.7969 29.9754V30.565C17.7969 30.6242 17.7969 30.6539 17.7854 30.6765C17.7753 30.6964 17.7591 30.7126 17.7392 30.7227C17.7166 30.7342 17.687 30.7342 17.6277 30.7342H15.874C15.8148 30.7342 15.7852 30.7342 15.7626 30.7458C15.7427 30.7559 15.7265 30.7721 15.7163 30.792C15.7048 30.8146 15.7048 30.8442 15.7048 30.9035V31.8706C15.7048 31.9299 15.7048 31.9595 15.7163 31.9821C15.7265 32.002 15.7427 32.0182 15.7626 32.0283C15.7852 32.0398 15.8148 32.0398 15.874 32.0398H17.3131C17.3723 32.0398 17.402 32.0398 17.4246 32.0514C17.4445 32.0615 17.4607 32.0777 17.4708 32.0976C17.4823 32.1202 17.4823 32.1498 17.4823 32.2091V32.7987C17.4823 32.8579 17.4823 32.8876 17.4708 32.9102C17.4607 32.9301 17.4445 32.9463 17.4246 32.9564C17.402 32.9679 17.3723 32.9679 17.3131 32.9679H15.874C15.8148 32.9679 15.7852 32.9679 15.7626 32.9794C15.7427 32.9896 15.7265 33.0058 15.7163 33.0257C15.7048 33.0483 15.7048 33.0779 15.7048 33.1371V34.2144C15.7048 34.2737 15.7048 34.3033 15.7163 34.3259C15.7265 34.3458 15.7427 34.362 15.7626 34.3721C15.7852 34.3836 15.8148 34.3836 15.874 34.3836H17.6277C17.687 34.3836 17.7166 34.3836 17.7392 34.3952C17.7591 34.4053 17.7753 34.4215 17.7854 34.4414C17.7969 34.464 17.7969 34.4936 17.7969 34.5529V35.1425C17.7969 35.2017 17.7969 35.2313 17.7854 35.254C17.7753 35.2739 17.7591 35.2901 17.7392 35.3002C17.7166 35.3117 17.687 35.3117 17.6277 35.3117H14.7572Z" fill="#2845C1"/>
<path d="M18.7342 30.8207C18.675 30.8207 18.6454 30.8207 18.6228 30.8092C18.6029 30.7991 18.5867 30.7829 18.5765 30.763C18.565 30.7404 18.565 30.7108 18.565 30.6515V29.9754C18.565 29.9161 18.565 29.8865 18.5765 29.8639C18.5867 29.844 18.6029 29.8278 18.6228 29.8177C18.6454 29.8062 18.675 29.8062 18.7342 29.8062H22.9104C22.9696 29.8062 22.9992 29.8062 23.0218 29.8177C23.0417 29.8278 23.0579 29.844 23.0681 29.8639C23.0796 29.8865 23.0796 29.9161 23.0796 29.9754V30.6515C23.0796 30.7108 23.0796 30.7404 23.0681 30.763C23.0579 30.7829 23.0417 30.7991 23.0218 30.8092C22.9992 30.8207 22.9696 30.8207 22.9104 30.8207H21.5499C21.4907 30.8207 21.4611 30.8207 21.4385 30.8323C21.4186 30.8424 21.4024 30.8586 21.3922 30.8785C21.3807 30.9011 21.3807 30.9307 21.3807 30.99V35.1425C21.3807 35.2017 21.3807 35.2313 21.3692 35.254C21.359 35.2739 21.3429 35.2901 21.323 35.3002C21.3003 35.3117 21.2707 35.3117 21.2115 35.3117H20.4331C20.3739 35.3117 20.3442 35.3117 20.3216 35.3002C20.3017 35.2901 20.2855 35.2739 20.2754 35.254C20.2639 35.2313 20.2639 35.2017 20.2639 35.1425V30.99C20.2639 30.9307 20.2639 30.9011 20.2523 30.8785C20.2422 30.8586 20.226 30.8424 20.2061 30.8323C20.1835 30.8207 20.1539 30.8207 20.0947 30.8207H18.7342Z" fill="#2845C1"/>
<path d="M23.0048 35.3117C22.9225 35.3117 22.8813 35.3117 22.8549 35.2944C22.8318 35.2793 22.8156 35.2558 22.8096 35.2288C22.8028 35.198 22.8174 35.1595 22.8465 35.0826L24.8026 29.9155C24.8175 29.876 24.825 29.8563 24.8379 29.8418C24.8492 29.829 24.8635 29.8191 24.8795 29.813C24.8977 29.8062 24.9187 29.8062 24.9609 29.8062H26.19C26.2322 29.8062 26.2533 29.8062 26.2714 29.813C26.2874 29.8191 26.3017 29.829 26.3131 29.8418C26.3259 29.8563 26.3334 29.876 26.3483 29.9155L28.3044 35.0826C28.3335 35.1595 28.3481 35.198 28.3413 35.2288C28.3353 35.2558 28.3191 35.2793 28.296 35.2944C28.2696 35.3117 28.2284 35.3117 28.1462 35.3117H27.3216C27.279 35.3117 27.2578 35.3117 27.2395 35.3047C27.2234 35.2986 27.209 35.2885 27.1977 35.2755C27.1848 35.2608 27.1775 35.2409 27.1628 35.201L26.7173 33.991C26.7026 33.9511 26.6953 33.9312 26.6824 33.9164C26.6711 33.9034 26.6567 33.8934 26.6406 33.8873C26.6223 33.8803 26.6011 33.8803 26.5585 33.8803H24.5924C24.5498 33.8803 24.5286 33.8803 24.5103 33.8873C24.4942 33.8934 24.4798 33.9034 24.4685 33.9164C24.4556 33.9312 24.4483 33.9511 24.4336 33.991L23.9882 35.201C23.9735 35.2409 23.9661 35.2608 23.9533 35.2755C23.9419 35.2885 23.9275 35.2986 23.9114 35.3047C23.8932 35.3117 23.8719 35.3117 23.8294 35.3117H23.0048ZM24.9034 32.7014C24.8755 32.7778 24.8615 32.816 24.8685 32.8466C24.8747 32.8733 24.891 32.8966 24.914 32.9115C24.9403 32.9286 24.9809 32.9286 25.0623 32.9286H26.0886C26.17 32.9286 26.2107 32.9286 26.2369 32.9115C26.2599 32.8966 26.2762 32.8733 26.2824 32.8466C26.2894 32.816 26.2755 32.7778 26.2476 32.7014L25.7344 31.2956C25.6854 31.1613 25.6609 31.0941 25.6251 31.0751C25.594 31.0586 25.5569 31.0586 25.5258 31.0751C25.49 31.0941 25.4655 31.1613 25.4165 31.2956L24.9034 32.7014Z" fill="#2845C1"/>
<defs>
<linearGradient id="paint0_linear_9317_507" x1="19" y1="27.3125" x2="19" y2="38" gradientUnits="userSpaceOnUse">
<stop stop-color="#2845C1"/>
<stop offset="1" stop-color="#EEF1F4"/>
</linearGradient>
</defs>
</svg>
