<svg width="253" height="44" viewBox="0 0 253 44" fill="none" xmlns="http://www.w3.org/2000/svg">
<path d="M79.1361 15.3806C80.7831 15.3806 82.2515 15.7144 83.5404 16.3827C84.6576 16.9311 85.602 17.6528 86.3735 18.547C86.5586 18.7616 86.6512 18.8689 86.637 19.0042C86.6227 19.1394 86.5041 19.2295 86.2668 19.4095L84.1844 20.9892C83.9416 21.1734 83.8201 21.2655 83.697 21.2531C83.5739 21.2406 83.4629 21.1138 83.2407 20.8604C82.8445 20.4083 82.3598 20.0256 81.7864 19.7128C81.0227 19.2832 80.1271 19.0683 79.1008 19.0682C78.2654 19.0682 77.489 19.2244 76.7729 19.5348C76.0807 19.8451 75.4832 20.2748 74.982 20.8238C74.4809 21.3727 74.0867 22.0177 73.8003 22.7574C73.5141 23.4734 73.3707 24.2616 73.3707 25.1207C73.3707 26.2663 73.6214 27.3051 74.1226 28.2359C74.6239 29.1429 75.3044 29.8593 76.1636 30.3844C77.0228 30.9094 78.0259 31.1715 79.1714 31.1716C80.1501 31.1716 81.0225 30.9568 81.7864 30.5271C82.3597 30.2143 82.8445 29.8316 83.2407 29.3795C83.4629 29.126 83.5739 28.9993 83.697 28.9868C83.8201 28.9743 83.9416 29.0664 84.1844 29.2507L86.2616 30.8265C86.5011 31.0081 86.6208 31.099 86.6345 31.2352C86.6482 31.3714 86.5536 31.4789 86.3645 31.694C85.5947 32.5693 84.6533 33.2906 83.5404 33.8572C82.2514 34.5255 80.7832 34.8593 79.1361 34.8593C77.1071 34.8593 75.3525 34.4181 73.8725 33.5349C72.3926 32.6279 71.2466 31.4345 70.435 29.9547C69.6473 28.4749 69.2534 26.863 69.2533 25.1207C69.2533 23.8078 69.4811 22.5659 69.9347 21.3962C70.3882 20.2267 71.0443 19.188 71.9036 18.281C72.7629 17.374 73.8015 16.6691 75.0188 16.1679C76.2361 15.6429 77.6087 15.3806 79.1361 15.3806Z" fill="#2845C1"/>
<path fill-rule="evenodd" clip-rule="evenodd" d="M96.5431 15.3806C97.7844 15.3806 98.9074 15.584 99.91 15.9898C100.912 16.3955 101.771 16.9561 102.487 17.6718C103.227 18.3878 103.788 19.2359 104.17 20.2146C104.552 21.1933 104.742 22.2562 104.742 23.4019C104.742 23.8313 104.72 24.2487 104.672 24.6542C104.649 24.8487 104.623 25.0271 104.595 25.189C104.557 25.4035 104.538 25.5107 104.45 25.5843C104.363 25.6578 104.246 25.6578 104.012 25.6578H92.0224C91.7017 25.6578 91.5413 25.6578 91.4473 25.7662C91.3533 25.8746 91.375 26.0262 91.4184 26.3294C91.5342 27.1375 91.7501 27.8449 92.0682 28.4508C92.5694 29.4052 93.273 30.1219 94.1798 30.5992C95.0869 31.0766 96.114 31.3143 97.2597 31.3143C98.3339 31.3143 99.3008 31.0995 100.16 30.6698C100.826 30.3457 101.39 29.94 101.852 29.4529C102.077 29.2158 102.19 29.0973 102.312 29.0888C102.434 29.0803 102.55 29.1732 102.783 29.359L104.626 30.8278C104.854 31.0094 104.968 31.1002 104.98 31.2333C104.993 31.3663 104.902 31.4714 104.721 31.6816C103.945 32.5842 102.985 33.3212 101.842 33.8925C100.505 34.5368 98.9896 34.8593 97.295 34.8593C95.1946 34.8592 93.4038 34.4181 91.9239 33.5349C90.4443 32.628 89.311 31.4342 88.5233 29.9547C87.7356 28.4749 87.3417 26.863 87.3416 25.1207C87.3416 23.7601 87.5435 22.4938 87.9493 21.3241C88.3789 20.1548 88.9881 19.1287 89.7755 18.2457C90.5632 17.3387 91.5303 16.6338 92.6759 16.1326C93.8216 15.6313 95.111 15.3807 96.5431 15.3806ZM96.4357 18.6386C95.3857 18.6386 94.4671 18.878 93.6795 19.3552C92.9157 19.8326 92.3298 20.5374 91.9239 21.4684C91.8418 21.652 91.7688 21.8445 91.7041 22.0459C91.5996 22.3716 91.5473 22.5345 91.6414 22.6636C91.7356 22.7927 91.9176 22.7927 92.2816 22.7927H100.223C100.536 22.7927 100.692 22.7927 100.786 22.6797C100.881 22.5666 100.855 22.4271 100.804 22.1481C100.722 21.6991 100.568 21.2694 100.34 20.8591C100.006 20.1908 99.5156 19.6536 98.8711 19.2478C98.2266 18.842 97.4144 18.6386 96.4357 18.6386Z" fill="#2845C1"/>
<path d="M183.461 15.3806C184.774 15.3806 185.992 15.6672 187.114 16.24C188.057 16.7116 188.83 17.2883 189.434 17.9702C189.608 18.1668 189.695 18.2652 189.686 18.3967C189.677 18.5282 189.57 18.6194 189.356 18.8019L187.629 20.2762C187.394 20.4772 187.276 20.5778 187.149 20.5695C187.021 20.5613 186.91 20.4376 186.686 20.1904C186.333 19.7992 185.938 19.4607 185.502 19.1757C184.882 18.77 184.201 18.568 183.461 18.568C182.937 18.568 182.483 18.6627 182.102 18.8534C181.744 19.0443 181.468 19.2953 181.277 19.6054C181.11 19.9157 181.027 20.2624 181.027 20.6443C181.027 21.217 181.23 21.6942 181.635 22.0761C182.065 22.4341 182.615 22.745 183.283 23.0076C183.951 23.27 184.655 23.5567 185.395 23.8669C186.159 24.1534 186.875 24.5115 187.543 24.9411C188.212 25.3469 188.749 25.8957 189.155 26.5878C189.584 27.2562 189.799 28.1042 189.799 29.1306C189.799 30.3479 189.501 31.3865 188.904 32.2458C188.332 33.0813 187.567 33.7259 186.612 34.1794C185.657 34.6328 184.607 34.8593 183.461 34.8593C181.91 34.8592 180.562 34.5726 179.416 33.9999C178.451 33.4973 177.587 32.8508 176.825 32.0604C176.628 31.8557 176.529 31.7534 176.535 31.6191C176.541 31.4849 176.652 31.387 176.874 31.1914L178.599 29.6732C178.827 29.4725 178.941 29.3722 179.069 29.3785C179.196 29.3848 179.305 29.5021 179.524 29.7366C179.984 30.2303 180.485 30.6488 181.027 30.9921C181.743 31.4455 182.543 31.6719 183.426 31.6719C184.261 31.6719 184.893 31.457 185.323 31.0274C185.776 30.5738 186.004 30.0252 186.004 29.3807C186.004 28.7842 185.789 28.3069 185.359 27.949C184.954 27.5909 184.417 27.28 183.748 27.0175C183.08 26.7549 182.363 26.4813 181.6 26.1949C180.86 25.8846 180.155 25.5135 179.487 25.0839C178.818 24.6542 178.27 24.1054 177.84 23.4372C177.434 22.745 177.231 21.8612 177.231 20.787C177.231 19.7847 177.494 18.8776 178.02 18.0661C178.545 17.2309 179.272 16.5746 180.203 16.0973C181.158 15.6199 182.244 15.3806 183.461 15.3806Z" fill="#2845C1"/>
<path fill-rule="evenodd" clip-rule="evenodd" d="M213.437 15.3806C214.678 15.3806 215.799 15.5841 216.802 15.9898C217.804 16.3955 218.664 16.9559 219.38 17.6718C220.12 18.3879 220.682 19.2359 221.063 20.2146C221.445 21.1933 221.636 22.2562 221.636 23.4019C221.636 23.8312 221.613 24.2487 221.565 24.6542C221.542 24.8487 221.517 25.0271 221.488 25.189C221.45 25.4035 221.431 25.5107 221.344 25.5843C221.256 25.6578 221.139 25.6578 220.906 25.6578H208.916C208.595 25.6578 208.435 25.6578 208.341 25.7662C208.247 25.8745 208.268 26.0262 208.312 26.3295C208.427 27.1375 208.642 27.8449 208.96 28.4508C209.461 29.4055 210.166 30.1218 211.073 30.5992C211.98 31.0765 213.007 31.3143 214.153 31.3143C215.227 31.3143 216.194 31.0994 217.054 30.6698C217.72 30.3457 218.283 29.9401 218.746 29.453C218.971 29.2159 219.083 29.0973 219.205 29.0889C219.327 29.0804 219.444 29.1734 219.677 29.3592L221.518 30.8278C221.746 31.0094 221.86 31.1002 221.872 31.2332C221.885 31.3662 221.794 31.4713 221.613 31.6815C220.837 32.5841 219.878 33.3212 218.735 33.8925C217.399 34.5369 215.883 34.8593 214.188 34.8593C212.088 34.8593 210.297 34.4181 208.817 33.5349C207.338 32.628 206.204 31.4343 205.417 29.9547C204.629 28.4749 204.235 26.863 204.235 25.1207C204.235 23.7601 204.437 22.4938 204.843 21.3241C205.272 20.1547 205.881 19.1287 206.669 18.2457C207.457 17.3386 208.424 16.6338 209.569 16.1326C210.715 15.6313 212.004 15.3806 213.437 15.3806ZM213.329 18.6386C212.279 18.6386 211.359 18.8778 210.571 19.3552C209.808 19.8326 209.223 20.5375 208.817 21.4684C208.735 21.6521 208.662 21.8447 208.597 22.0462C208.492 22.3715 208.439 22.5341 208.533 22.6634C208.628 22.7927 208.81 22.7927 209.174 22.7927H217.115C217.428 22.7927 217.584 22.7927 217.678 22.6797C217.773 22.5666 217.747 22.4271 217.696 22.1481C217.614 21.6991 217.459 21.2694 217.232 20.8591C216.897 20.191 216.409 19.6535 215.764 19.2478C215.12 18.842 214.308 18.6386 213.329 18.6386Z" fill="#2845C1"/>
<path fill-rule="evenodd" clip-rule="evenodd" d="M37.3997 15.3806C39.0466 15.3806 40.4434 15.6786 41.5891 16.2753C42.7347 16.8719 43.5944 17.6959 44.1673 18.746C44.7639 19.7961 45.0618 20.9782 45.0619 22.2909V33.514C45.0619 33.8103 45.0619 33.9585 44.9699 34.0505C44.8778 34.1426 44.7297 34.1426 44.4334 34.1426H41.7527C41.4564 34.1426 41.3082 34.1426 41.2162 34.0505C41.1241 33.9585 41.1241 33.8103 41.1241 33.514V33.0812C41.1241 32.7173 41.1241 32.5353 41.0323 32.4933C40.9404 32.4514 40.7951 32.5773 40.5044 32.8292C40.4385 32.8864 40.3703 32.9426 40.3001 32.9978C39.6556 33.5228 38.9034 33.9283 38.0442 34.2147C37.185 34.525 36.3139 34.6797 35.4308 34.6797C33.6645 34.6797 32.2205 34.2026 31.0986 33.2479C29.9769 32.2932 29.4153 31.0166 29.4152 29.4176C29.4152 28.057 29.9279 26.8981 30.9544 25.9432C31.9808 24.9884 33.462 24.3568 35.3955 24.0465L40.601 23.161C40.8509 23.1185 40.9759 23.0972 41.05 23.0094C41.1241 22.9216 41.1241 22.7948 41.1241 22.5413V22.2909C41.124 21.2171 40.7658 20.3816 40.0499 19.7849C39.3339 19.1643 38.4026 18.8534 37.257 18.8534C36.326 18.8534 35.478 19.0568 34.7141 19.4626C34.1621 19.7654 33.6767 20.1548 33.2576 20.6304C33.0427 20.8744 32.9352 20.9963 32.8119 21.0084C32.6886 21.0205 32.5697 20.9294 32.3318 20.7473L30.4361 19.2959C30.2041 19.1184 30.0882 19.0296 30.0735 18.8961C30.0587 18.7626 30.1477 18.6565 30.3257 18.4442C31.0558 17.5733 31.9582 16.8743 33.0322 16.3474C34.321 15.7031 35.7768 15.3806 37.3997 15.3806ZM36.3976 26.6599C35.3234 26.827 34.547 27.1379 34.0696 27.5914C33.5925 28.021 33.3545 28.5699 33.3545 29.238C33.3545 29.9063 33.6052 30.455 34.1064 30.8846C34.6315 31.3141 35.3351 31.5291 36.218 31.5292C37.3161 31.5292 38.283 31.2785 39.1184 30.7772C39.6711 30.4456 40.1553 30.0407 40.5719 29.5627C40.8069 29.293 40.9244 29.1581 41.0243 28.8915C41.1241 28.625 41.1241 28.3843 41.1241 27.9031V26.6172C41.1241 26.273 41.1241 26.1009 41.0131 26.0067C40.902 25.9126 40.7323 25.9407 40.3927 25.9971L36.3976 26.6599Z" fill="#2845C1"/>
<path fill-rule="evenodd" clip-rule="evenodd" d="M144.912 15.3806C146.559 15.3806 147.956 15.6786 149.102 16.2753C150.247 16.872 151.107 17.6958 151.68 18.746C152.276 19.7961 152.574 20.9782 152.574 22.2909V33.514C152.574 33.8103 152.574 33.9585 152.482 34.0505C152.39 34.1426 152.242 34.1426 151.946 34.1426H149.265C148.969 34.1426 148.821 34.1426 148.729 34.0505C148.637 33.9585 148.637 33.8103 148.637 33.514V33.0813C148.637 32.7173 148.637 32.5353 148.545 32.4934C148.453 32.4514 148.307 32.5774 148.017 32.8292C147.951 32.8864 147.883 32.9426 147.812 32.9978C147.168 33.5229 146.416 33.9283 145.557 34.2147C144.697 34.525 143.826 34.6796 142.943 34.6797C141.177 34.6797 139.731 34.2028 138.609 33.2479C137.488 32.2933 136.928 31.0164 136.928 29.4176C136.928 28.0569 137.44 26.8981 138.467 25.9432C139.493 24.9886 140.973 24.3568 142.906 24.0465L148.113 23.161C148.363 23.1185 148.488 23.0972 148.562 23.0094C148.637 22.9216 148.637 22.7948 148.637 22.5413V22.2909C148.636 21.2172 148.278 20.3815 147.562 19.7849C146.846 19.1644 145.915 18.8535 144.769 18.8534C143.838 18.8534 142.99 19.0569 142.227 19.4626C141.674 19.7654 141.189 20.1548 140.77 20.6304C140.555 20.8744 140.448 20.9963 140.324 21.0084C140.201 21.0205 140.082 20.9294 139.844 20.7473L137.949 19.2959C137.717 19.1184 137.601 19.0296 137.586 18.8961C137.571 18.7627 137.66 18.6565 137.838 18.4442C138.568 17.5733 139.469 16.8742 140.543 16.3474C141.832 15.7029 143.289 15.3806 144.912 15.3806ZM143.91 26.6599C142.836 26.827 142.059 27.1379 141.582 27.5914C141.105 28.021 140.865 28.5698 140.865 29.238C140.865 29.9061 141.116 30.4551 141.617 30.8846C142.142 31.3143 142.847 31.5292 143.73 31.5292C144.828 31.5292 145.795 31.2785 146.631 30.7772C147.183 30.4456 147.668 30.0406 148.084 29.5626C148.319 29.293 148.437 29.1581 148.537 28.8915C148.637 28.625 148.637 28.3844 148.637 27.9031V26.6172C148.637 26.273 148.637 26.1009 148.526 26.0067C148.414 25.9126 148.245 25.9407 147.905 25.9971L143.91 26.6599Z" fill="#2845C1"/>
<path d="M244.722 15.4687C244.722 15.765 244.722 15.9132 244.814 16.0052C244.906 16.0973 245.055 16.0973 245.351 16.0973H249.93C250.226 16.0973 250.374 16.0973 250.466 16.1893C250.558 16.2814 250.558 16.4295 250.558 16.7258V19.0136C250.558 19.3099 250.558 19.4581 250.466 19.5501C250.374 19.6422 250.226 19.6422 249.93 19.6422H245.351C245.055 19.6422 244.906 19.6422 244.814 19.7342C244.722 19.8263 244.722 19.9744 244.722 20.2708V27.7694C244.722 28.5571 244.853 29.1789 245.115 29.6324C245.378 30.0858 245.749 30.4197 246.226 30.6345C246.703 30.8253 247.264 30.9199 247.908 30.9199C248.529 30.9199 249.055 30.8857 249.484 30.8141C249.565 30.7962 249.643 30.7779 249.719 30.7592C250.142 30.6554 250.353 30.6035 250.473 30.6979C250.594 30.7923 250.594 30.9972 250.594 31.4069V33.556C250.594 33.7584 250.594 33.8596 250.535 33.9417C250.476 34.0239 250.388 34.0535 250.213 34.1127C249.882 34.2248 249.519 34.3062 249.127 34.3574C248.601 34.4529 247.98 34.5017 247.264 34.5017C245.832 34.5016 244.627 34.2508 243.648 33.7497C242.693 33.2246 241.964 32.4726 241.463 31.4939C240.985 30.4913 240.748 29.2494 240.748 27.7694V20.2708C240.748 19.9744 240.748 19.8263 240.656 19.7342C240.564 19.6422 240.415 19.6422 240.119 19.6422H238.009C237.713 19.6422 237.565 19.6422 237.473 19.5501C237.381 19.4581 237.381 19.3099 237.381 19.0136V16.7258C237.381 16.4295 237.381 16.2814 237.473 16.1893C237.565 16.0973 237.713 16.0973 238.009 16.0973H240.119C240.415 16.0973 240.564 16.0973 240.656 16.0052C240.748 15.9132 240.748 15.765 240.748 15.4687V12.2141C240.748 11.9178 240.748 11.7696 240.84 11.6776C240.932 11.5855 241.08 11.5855 241.376 11.5855H244.094C244.39 11.5855 244.538 11.5855 244.63 11.6776C244.722 11.7696 244.722 11.9178 244.722 12.2141V15.4687Z" fill="#2845C1"/>
<path d="M15.7143 12.1386C15.7143 12.4349 15.7143 12.5831 15.6222 12.6751C15.5302 12.7672 15.382 12.7672 15.0857 12.7672H6.60428C6.30797 12.7672 6.15981 12.7672 6.06776 12.8592C5.97571 12.9513 5.97571 13.0994 5.97571 13.3958V18.9062C5.97571 19.2025 5.97571 19.3507 6.06776 19.4427C6.15981 19.5348 6.30797 19.5348 6.60428 19.5348H13.6539C13.9502 19.5348 14.0984 19.5348 14.1904 19.6268C14.2825 19.7189 14.2825 19.867 14.2825 20.1633V22.5938C14.2825 22.8901 14.2825 23.0383 14.1904 23.1303C14.0984 23.2224 13.9502 23.2224 13.6539 23.2224H6.60428C6.30797 23.2224 6.15981 23.2224 6.06776 23.3145C5.97571 23.4065 5.97571 23.5547 5.97571 23.851V33.514C5.97571 33.8103 5.97571 33.9585 5.88366 34.0505C5.7916 34.1426 5.64345 34.1426 5.34714 34.1426H2.19998C1.90367 34.1426 1.75552 34.1426 1.66346 34.0505C1.57141 33.9585 1.57141 33.8103 1.57141 33.514V9.70811C1.57141 9.4118 1.57141 9.26365 1.66346 9.17159C1.75552 9.07954 1.90367 9.07954 2.19998 9.07954H15.0857C15.382 9.07954 15.5302 9.07954 15.6222 9.17159C15.7143 9.26365 15.7143 9.4118 15.7143 9.70811V12.1386Z" fill="#2845C1"/>
<path d="M26.8048 15.7382C27.1149 15.7382 27.4018 15.7626 27.6642 15.8103C27.7609 15.8279 27.8544 15.8471 27.9447 15.868C28.1444 15.9143 28.2443 15.9374 28.3126 16.0233C28.3808 16.1091 28.3808 16.2204 28.3808 16.4429V19.052C28.3808 19.4169 28.3808 19.5994 28.2699 19.6935C28.1591 19.7876 27.9702 19.7566 27.5926 19.6944C27.5573 19.6886 27.5218 19.683 27.4862 19.6775C27.1997 19.6297 26.8531 19.6054 26.4472 19.6054C25.7073 19.6054 25.0382 19.7258 24.4415 19.9644C23.869 20.2031 23.3686 20.5257 22.9392 20.9312C22.7333 21.1142 22.5439 21.3082 22.3709 21.5131C22.161 21.7617 22.0561 21.886 21.9605 22.1473C21.8649 22.4087 21.8649 22.6361 21.8649 23.0908V33.514C21.8649 33.8103 21.8649 33.9585 21.7729 34.0505C21.6808 34.1426 21.5327 34.1426 21.2364 34.1426H18.5542C18.2579 34.1426 18.1097 34.1426 18.0177 34.0505C17.9256 33.9585 17.9256 33.8103 17.9256 33.514V16.7258C17.9256 16.4295 17.9256 16.2814 18.0177 16.1893C18.1097 16.0973 18.2579 16.0973 18.5542 16.0973H21.2364C21.5327 16.0973 21.6808 16.0973 21.7729 16.1893C21.8649 16.2814 21.8649 16.4295 21.8649 16.7258V17.273C21.8649 17.6092 21.8649 17.7773 21.9599 17.8182C22.0548 17.8591 22.1799 17.741 22.43 17.5047C22.5381 17.4026 22.648 17.3032 22.7596 17.2068C23.2846 16.7534 23.8809 16.3951 24.5489 16.1326C25.2171 15.87 25.9696 15.7382 26.8048 15.7382Z" fill="#2845C1"/>
<path d="M59.1142 15.3806C60.451 15.3806 61.6457 15.6785 62.696 16.2753C63.77 16.872 64.6167 17.756 65.2373 18.9255C65.8579 20.0952 66.1688 21.5634 66.1688 23.3298V33.514C66.1688 33.8103 66.1688 33.9585 66.0767 34.0505C65.9847 34.1426 65.8365 34.1426 65.5402 34.1426H62.8228C62.5264 34.1426 62.3783 34.1426 62.2862 34.0505C62.1942 33.9585 62.1942 33.8103 62.1942 33.514V23.4725C62.1941 22.0883 61.836 21.0137 61.12 20.2499C60.404 19.4624 59.4251 19.0684 58.1843 19.0682C57.3965 19.0682 56.7032 19.2244 56.1064 19.5348C55.5099 19.8212 54.9968 20.1909 54.5672 20.6443C54.2005 21.0541 53.882 21.4832 53.6127 21.932C53.5716 22.0004 53.5511 22.0346 53.5397 22.0758C53.5283 22.1169 53.5283 22.159 53.5283 22.243V33.514C53.5283 33.8103 53.5283 33.9585 53.4362 34.0505C53.3442 34.1426 53.196 34.1426 52.8997 34.1426H50.2191C49.9228 34.1426 49.7746 34.1426 49.6826 34.0505C49.5905 33.9585 49.5905 33.8103 49.5905 33.514V16.7258C49.5905 16.4295 49.5905 16.2814 49.6826 16.1893C49.7746 16.0973 49.9228 16.0973 50.2191 16.0973H52.8997C53.196 16.0973 53.3442 16.0973 53.4362 16.1893C53.5283 16.2814 53.5283 16.4295 53.5283 16.7258V16.9601C53.5283 17.2872 53.5283 17.4508 53.6196 17.4929C53.711 17.535 53.8396 17.4252 54.0968 17.2056C54.6191 16.7597 55.2054 16.3775 55.8563 16.0604C56.7871 15.607 57.8733 15.3807 59.1142 15.3806Z" fill="#2845C1"/>
<path d="M124.778 12.4256C124.778 12.7219 124.778 12.87 124.686 12.9621C124.594 13.0542 124.446 13.0542 124.15 13.0542H117.458C117.161 13.0542 117.013 13.0542 116.921 13.1462C116.829 13.2383 116.829 13.3864 116.829 13.6827V33.514C116.829 33.8103 116.829 33.9585 116.737 34.0505C116.645 34.1426 116.497 34.1426 116.2 34.1426H113.055C112.758 34.1426 112.61 34.1426 112.518 34.0505C112.426 33.9585 112.426 33.8103 112.426 33.514V13.6827C112.426 13.3864 112.426 13.2383 112.334 13.1462C112.242 13.0542 112.094 13.0542 111.798 13.0542H105.106C104.809 13.0542 104.661 13.0542 104.569 12.9621C104.477 12.87 104.477 12.7219 104.477 12.4256V9.70811C104.477 9.4118 104.477 9.26365 104.569 9.17159C104.661 9.07954 104.809 9.07954 105.106 9.07954H124.15C124.446 9.07954 124.594 9.07954 124.686 9.17159C124.778 9.26365 124.778 9.4118 124.778 9.70811V12.4256Z" fill="#2845C1"/>
<path d="M134.317 15.7382C134.627 15.7382 134.914 15.7626 135.177 15.8103C135.273 15.8279 135.367 15.8471 135.457 15.868C135.657 15.9143 135.757 15.9374 135.825 16.0233C135.893 16.1091 135.893 16.2204 135.893 16.4429V19.052C135.893 19.4169 135.893 19.5994 135.782 19.6935C135.671 19.7877 135.483 19.7566 135.105 19.6944C135.07 19.6886 135.034 19.683 134.999 19.6775C134.712 19.6297 134.365 19.6054 133.96 19.6054C133.22 19.6054 132.551 19.7257 131.954 19.9644C131.381 20.2031 130.88 20.5256 130.45 20.9312C130.244 21.1142 130.055 21.3082 129.882 21.5131C129.672 21.7617 129.567 21.886 129.471 22.1474C129.376 22.4088 129.376 22.6361 129.376 23.0908V33.514C129.376 33.8103 129.376 33.9585 129.284 34.0505C129.192 34.1426 129.044 34.1426 128.747 34.1426H126.067C125.77 34.1426 125.622 34.1426 125.53 34.0505C125.438 33.9585 125.438 33.8103 125.438 33.514V16.7258C125.438 16.4295 125.438 16.2814 125.53 16.1893C125.622 16.0973 125.77 16.0973 126.067 16.0973H128.747C129.044 16.0973 129.192 16.0973 129.284 16.1893C129.376 16.2814 129.376 16.4295 129.376 16.7258V17.2743C129.376 17.6106 129.376 17.7788 129.471 17.8197C129.566 17.8606 129.691 17.7424 129.941 17.5061C130.05 17.4034 130.16 17.3036 130.272 17.2068C130.797 16.7535 131.393 16.3951 132.061 16.1326C132.73 15.87 133.482 15.7382 134.317 15.7382Z" fill="#2845C1"/>
<path d="M166.627 15.3806C167.963 15.3806 169.157 15.6788 170.207 16.2753C171.281 16.872 172.129 17.7559 172.75 18.9255C173.37 20.0952 173.681 21.5634 173.681 23.3298V33.514C173.681 33.8103 173.681 33.9585 173.589 34.0505C173.497 34.1426 173.349 34.1426 173.053 34.1426H170.335C170.039 34.1426 169.891 34.1426 169.799 34.0505C169.707 33.9585 169.707 33.8103 169.707 33.514V23.4725C169.707 22.0883 169.348 21.0137 168.632 20.2499C167.916 19.4622 166.936 19.0682 165.695 19.0682C164.908 19.0683 164.215 19.2245 163.619 19.5348C163.022 19.8211 162.509 20.1909 162.08 20.6443C161.713 21.0541 161.394 21.4832 161.125 21.932C161.084 22.0004 161.064 22.0346 161.052 22.0758C161.041 22.1169 161.041 22.159 161.041 22.243V33.514C161.041 33.8103 161.041 33.9585 160.949 34.0505C160.857 34.1426 160.708 34.1426 160.412 34.1426H157.732C157.435 34.1426 157.287 34.1426 157.195 34.0505C157.103 33.9585 157.103 33.8103 157.103 33.514V16.7258C157.103 16.4295 157.103 16.2814 157.195 16.1893C157.287 16.0973 157.435 16.0973 157.732 16.0973H160.412C160.708 16.0973 160.857 16.0973 160.949 16.1893C161.041 16.2814 161.041 16.4295 161.041 16.7258V16.9602C161.041 17.2873 161.041 17.4508 161.132 17.4929C161.223 17.535 161.352 17.4252 161.609 17.2056C162.132 16.7597 162.718 16.3775 163.369 16.0604C164.3 15.6071 165.386 15.3806 166.627 15.3806Z" fill="#2845C1"/>
<path d="M201.12 7.28867C201.955 7.28867 202.707 7.38467 203.376 7.57564C203.84 7.70365 204.272 7.85281 204.671 8.02353C204.932 8.13503 205.063 8.19078 205.109 8.31964C205.156 8.44849 205.087 8.5813 204.95 8.84691L203.878 10.925C203.721 11.2289 203.642 11.3809 203.52 11.4211C203.398 11.4613 203.219 11.3734 202.862 11.1974C202.751 11.143 202.636 11.0934 202.516 11.0484C202.134 10.9053 201.693 10.8336 201.192 10.8336C200.333 10.8336 199.628 11.1201 199.079 11.693C198.554 12.2419 198.292 13.0057 198.292 13.9841V15.4687C198.292 15.765 198.292 15.9132 198.384 16.0052C198.476 16.0973 198.624 16.0973 198.92 16.0973H203.499C203.795 16.0973 203.944 16.0973 204.036 16.1893C204.128 16.2814 204.128 16.4295 204.128 16.7258V19.0136C204.128 19.3099 204.128 19.4581 204.036 19.5501C203.944 19.6422 203.795 19.6422 203.499 19.6422H198.92C198.624 19.6422 198.476 19.6422 198.384 19.7342C198.292 19.8263 198.292 19.9744 198.292 20.2708V33.514C198.292 33.8103 198.292 33.9585 198.2 34.0505C198.107 34.1426 197.959 34.1426 197.663 34.1426H194.946C194.649 34.1426 194.501 34.1426 194.409 34.0505C194.317 33.9585 194.317 33.8103 194.317 33.514V20.2708C194.317 19.9744 194.317 19.8263 194.225 19.7342C194.133 19.6422 193.985 19.6422 193.688 19.6422H191.58C191.284 19.6422 191.136 19.6422 191.044 19.5501C190.952 19.4581 190.952 19.3099 190.952 19.0136V16.7258C190.952 16.4295 190.952 16.2814 191.044 16.1893C191.136 16.0973 191.284 16.0973 191.58 16.0973H193.688C193.985 16.0973 194.133 16.0973 194.225 16.0052C194.317 15.9132 194.317 15.765 194.317 15.4687V14.0915C194.317 12.8026 194.592 11.6451 195.141 10.6187C195.69 9.59239 196.465 8.78007 197.467 8.18334C198.47 7.5866 199.688 7.2887 201.12 7.28867Z" fill="#2845C1"/>
<path d="M234.207 15.7382C234.517 15.7382 234.804 15.7626 235.067 15.8103C235.163 15.8278 235.256 15.847 235.346 15.8678C235.545 15.9142 235.645 15.9374 235.714 16.0232C235.782 16.1091 235.782 16.2204 235.782 16.4429V19.052C235.782 19.4169 235.782 19.5994 235.671 19.6935C235.56 19.7876 235.371 19.7566 234.994 19.6944C234.958 19.6886 234.923 19.683 234.887 19.6775C234.601 19.6297 234.254 19.6054 233.848 19.6054C233.109 19.6054 232.441 19.7258 231.844 19.9644C231.271 20.2032 230.77 20.5254 230.34 20.9312C230.134 21.1142 229.945 21.3082 229.772 21.5131C229.562 21.7617 229.457 21.886 229.361 22.1473C229.266 22.4087 229.266 22.6361 229.266 23.0908V33.514C229.266 33.8103 229.266 33.9585 229.174 34.0505C229.082 34.1426 228.934 34.1426 228.637 34.1426H225.955C225.659 34.1426 225.511 34.1426 225.419 34.0505C225.327 33.9585 225.327 33.8103 225.327 33.514V16.7258C225.327 16.4295 225.327 16.2814 225.419 16.1893C225.511 16.0973 225.659 16.0973 225.955 16.0973H228.637C228.934 16.0973 229.082 16.0973 229.174 16.1893C229.266 16.2814 229.266 16.4295 229.266 16.7258V17.273C229.266 17.6092 229.266 17.7773 229.361 17.8182C229.456 17.8591 229.581 17.741 229.831 17.5047C229.939 17.4026 230.049 17.3032 230.161 17.2068C230.686 16.7532 231.283 16.3951 231.951 16.1326C232.62 15.8701 233.372 15.7382 234.207 15.7382Z" fill="#2845C1"/>
</svg>
