<svg width="32" height="32" viewBox="0 0 32 32" fill="none" xmlns="http://www.w3.org/2000/svg">
<path d="M1.12227 11.939C1 12.5663 1 13.3389 1 14.6331V17.7461C1 19.3517 1 20.1545 1.23351 20.8732C1.44012 21.5091 1.77808 22.0944 2.22547 22.5913C2.73111 23.1529 3.42635 23.5543 4.81685 24.3571L7.5128 25.9136C8.74337 26.6241 9.42943 27.0202 10.0833 27.2108V17.6057C10.0833 17.1256 9.82104 16.6838 9.39953 16.4539L1.12227 11.939Z" fill="#C83F49"/>
<path d="M23.6627 13.2673V18.2754C23.6627 18.9679 23.9636 19.6262 24.4872 20.0793L28.0917 23.1987C28.3026 23.3771 28.5217 23.5231 28.7488 23.6367C28.984 23.7422 29.2112 23.7949 29.4302 23.7949C29.9007 23.7949 30.2779 23.6408 30.5618 23.3325C30.8538 23.0161 30.9998 22.6065 30.9998 22.1036V9.44903C30.9998 8.94609 30.8538 8.5405 30.5618 8.23225C30.2779 7.91588 29.9007 7.7577 29.4302 7.7577C29.2112 7.7577 28.984 7.81043 28.7488 7.91588C28.5217 8.02134 28.3026 8.16735 28.0917 8.35393L24.49 11.4609C23.9647 11.9141 23.6627 12.5735 23.6627 13.2673Z" fill="#2845C1"/>
<path d="M2.32689 10.0679C2.22667 10.0132 2.12156 9.97621 2.01514 9.95577C2.08228 9.87005 2.15244 9.78652 2.22552 9.70536C2.73116 9.14379 3.42641 8.74238 4.8169 7.93958L7.51285 6.38306C8.90335 5.58025 9.59859 5.17885 10.3377 5.02174C10.9917 4.88273 11.6677 4.88273 12.3217 5.02174C13.0608 5.17885 13.7561 5.58025 15.1465 6.38306L17.8107 7.92122C17.8213 7.92732 17.8319 7.93344 17.8426 7.93958C19.2331 8.74239 19.9283 9.14379 20.4339 9.70536C20.8813 10.2022 21.2193 10.7876 21.4259 11.4235C21.6594 12.1422 21.6594 12.945 21.6594 14.5506V17.6636C21.6594 19.2692 21.6594 20.072 21.4259 20.7907C21.2193 21.4266 20.8813 22.012 20.4339 22.5089C19.9283 23.0704 19.2331 23.4718 17.8427 24.2746C17.8307 24.2815 17.8187 24.2884 17.8068 24.2952L15.1465 25.8312C13.7561 26.634 13.0608 27.0354 12.3217 27.1925C12.2913 27.1989 12.2609 27.2051 12.2304 27.2109L12.2304 17.5232C12.2304 16.2574 11.539 15.0927 10.4277 14.4866L2.32689 10.0679Z" fill="#2845C1"/>
</svg>
