<svg width="38" height="38" viewBox="0 0 38 38" fill="none" xmlns="http://www.w3.org/2000/svg">
<path fill-rule="evenodd" clip-rule="evenodd" d="M34.2047 9.69734C34.4308 10.3941 34.4308 11.1722 34.4308 12.7284V22.0437C34.4308 23.5999 34.4308 24.378 34.2047 25.0747C34.0046 25.6911 33.6773 26.2587 33.244 26.7406C32.7543 27.2853 32.0808 27.675 30.734 28.4544L20.8386 34.1809L15.7191 37.1274C14.96 37.5643 14.5804 37.7828 14.269 37.7497C13.9974 37.7209 13.7507 37.5783 13.5903 37.3572C13.4063 37.1038 13.4063 36.6659 13.4063 35.79V33.1509C13.4063 32.7421 13.4063 32.5378 13.347 32.3547C13.2945 32.1927 13.2086 32.0435 13.0949 31.9167C12.9664 31.7735 12.7896 31.6708 12.4362 31.4655L7.25575 28.4564C5.91252 27.6762 5.24088 27.2861 4.75252 26.7417C4.32041 26.26 3.99408 25.6931 3.7946 25.0775C3.56915 24.3818 3.56915 23.6051 3.56915 22.0517V12.7284C3.56915 11.1722 3.56915 10.3941 3.79531 9.69734C3.99541 9.08087 4.32273 8.5133 4.75608 8.03135C5.24586 7.48665 5.91933 7.09694 7.26629 6.31752L15.2903 1.67439C16.6416 0.89246 17.3173 0.501495 18.0358 0.348485C18.6715 0.213103 19.3285 0.213103 19.9642 0.348485C20.6827 0.501495 21.3584 0.89246 22.7097 1.67439L30.7337 6.31752C32.0807 7.09694 32.7541 7.48665 33.2439 8.03135C33.6773 8.5133 34.0046 9.08087 34.2047 9.69734ZM28.6943 12.2802C28.7729 12.5222 28.7729 12.7923 28.7729 13.3327V21.6653C28.7729 22.2096 28.7729 22.4817 28.6934 22.725C28.623 22.9402 28.508 23.1382 28.3558 23.3059C28.1838 23.4955 27.9474 23.6302 27.4746 23.8997L20.2735 28.004C19.8093 28.2686 19.5771 28.4009 19.3307 28.4527C19.1126 28.4986 18.8874 28.4986 18.6693 28.4527C18.4229 28.4009 18.1907 28.2686 17.7265 28.0041L10.5254 23.8997C10.0526 23.6302 9.8162 23.4955 9.64419 23.3059C9.49201 23.1382 9.37698 22.9402 9.30664 22.725C9.22713 22.4817 9.22713 22.2096 9.22713 21.6653V13.3327C9.22713 12.7923 9.22713 12.5222 9.30566 12.2802C9.37514 12.0662 9.48879 11.8691 9.63926 11.7018C9.80932 11.5126 10.0432 11.3773 10.5109 11.1067L17.7119 6.93978C18.1811 6.66827 18.4157 6.53252 18.6652 6.47939C18.8859 6.43239 19.1141 6.43239 19.3348 6.47939C19.5843 6.53252 19.8189 6.66827 20.2881 6.93978L27.4891 11.1067C27.9568 11.3773 28.1907 11.5126 28.3607 11.7018C28.5112 11.8691 28.6249 12.0662 28.6943 12.2802Z" fill="#2845C1"/>
<path d="M13.4484 16.9503C13.4484 17.0208 13.4484 17.0561 13.4621 17.083C13.4742 17.1067 13.4934 17.126 13.5171 17.138C13.544 17.1518 13.5793 17.1518 13.6498 17.1518H14.9311C15.0016 17.1518 15.0369 17.1518 15.0638 17.138C15.0875 17.126 15.1067 17.1067 15.1188 17.083C15.1325 17.0561 15.1325 17.0208 15.1325 16.9503V14.9445C15.1325 14.874 15.1325 14.8387 15.1462 14.8118C15.1583 14.7881 15.1776 14.7689 15.2013 14.7568C15.2282 14.7431 15.2634 14.7431 15.3339 14.7431H17.9989C18.0694 14.7431 18.1047 14.7431 18.1316 14.7568C18.1553 14.7689 18.1745 14.7881 18.1866 14.8118C18.2003 14.8387 18.2003 14.874 18.2003 14.9445V23.4998C18.2003 23.5703 18.2003 23.6055 18.2141 23.6325C18.2261 23.6561 18.2454 23.6754 18.2691 23.6875C18.296 23.7012 18.3312 23.7012 18.4017 23.7012H19.6831C19.7536 23.7012 19.7888 23.7012 19.8158 23.6875C19.8394 23.6754 19.8587 23.6561 19.8708 23.6325C19.8845 23.6055 19.8845 23.5703 19.8845 23.4998V14.9445C19.8845 14.874 19.8845 14.8387 19.8982 14.8118C19.9103 14.7881 19.9295 14.7689 19.9532 14.7568C19.9802 14.7431 20.0154 14.7431 20.0859 14.7431H24.8375C24.908 14.7431 24.9433 14.7431 24.9702 14.7294C24.9939 14.7173 25.0132 14.698 25.0252 14.6743C25.039 14.6474 25.039 14.6122 25.039 14.5417V13.2574C25.039 13.1869 25.039 13.1517 25.0252 13.1248C25.0132 13.1011 24.9939 13.0818 24.9702 13.0698C24.9433 13.056 24.908 13.056 24.8375 13.056H13.6498C13.5793 13.056 13.544 13.056 13.5171 13.0698C13.4934 13.0818 13.4742 13.1011 13.4621 13.1248C13.4484 13.1517 13.4484 13.1869 13.4484 13.2574V16.9503Z" fill="#C83F49"/>
</svg>
