<svg width="88" height="48" viewBox="0 0 88 48" fill="none" xmlns="http://www.w3.org/2000/svg">
<path d="M16.207 8.26367C17.8474 8.26372 19.3837 8.49811 20.8158 8.9668C22.2479 9.43552 23.5373 10.0856 24.683 10.9188C25.7604 11.6849 26.6942 12.5727 27.4853 13.5811C27.6007 13.7281 27.5713 13.9401 27.4234 14.0544L24.1864 16.5576C24.0313 16.6776 23.8077 16.6428 23.6896 16.4861C22.8878 15.4228 21.8783 14.5558 20.6601 13.887C19.3582 13.1319 17.8734 12.7554 16.207 12.7553C14.801 12.7553 13.5115 13.0148 12.3398 13.5354C11.1941 14.0302 10.1907 14.7335 9.33142 15.6448C8.47218 16.5561 7.80796 17.6112 7.33923 18.8089C6.89654 20.0068 6.67629 21.31 6.67629 22.7162C6.67635 24.1222 6.91074 25.4242 7.37941 26.6219C7.87418 27.8196 8.56332 28.8747 9.44861 29.786C10.334 30.6974 11.3763 31.4131 12.5742 31.9339C13.798 32.4286 15.1389 32.6755 16.597 32.6755C18.0551 32.6755 19.3961 32.416 20.6199 31.8954C21.6163 31.4502 22.4841 30.8931 23.2219 30.2236C23.5453 29.9302 23.707 29.5043 23.707 29.0676V24.8554C23.707 24.6661 23.5535 24.5126 23.3641 24.5126H16.667C16.4777 24.5126 16.3242 24.3591 16.3242 24.1697V20.7539C16.3242 20.5645 16.4777 20.411 16.667 20.411H28.1286C28.318 20.411 28.4715 20.5645 28.4715 20.7539V31.0144C28.4715 31.3832 28.3556 31.7445 28.1222 32.03C27.3561 32.9675 26.4441 33.8076 25.3861 34.5505C24.1884 35.3837 22.8474 36.023 21.3632 36.4657C19.8789 36.9344 18.2897 37.1688 16.597 37.1688C14.3836 37.1688 12.3646 36.7906 10.5418 36.0354C8.71924 35.2542 7.14371 34.1993 5.8158 32.8714C4.5139 31.5434 3.49801 30.0072 2.76892 28.2626C2.06589 26.518 1.7143 24.6691 1.71423 22.7162C1.71423 20.7632 2.05336 18.913 2.73042 17.1682C3.4335 15.4238 4.42278 13.8873 5.69861 12.5594C7.00042 11.2316 8.53704 10.1907 10.3074 9.43555C12.0782 8.65432 14.0456 8.26367 16.207 8.26367Z" fill="#2845C1"/>
<path d="M62.8342 15.9194C64.2664 15.9194 65.5947 16.2319 66.8186 16.8569C67.9576 17.4264 68.87 18.1363 69.5549 18.987C69.6674 19.1266 69.6429 19.329 69.5065 19.4454L67.0998 21.4986C66.948 21.6281 66.7188 21.6006 66.593 21.4458C66.1484 20.8986 65.6375 20.4366 65.0608 20.0594C64.3838 19.6168 63.6414 19.3949 62.8342 19.3948C62.2613 19.3948 61.7659 19.4995 61.3493 19.7079C60.9589 19.9161 60.6602 20.1899 60.452 20.5282C60.2697 20.8667 60.1774 21.2449 60.1774 21.6616C60.1775 22.2863 60.3995 22.807 60.842 23.2235C61.3107 23.6141 61.9093 23.9533 62.6383 24.2397C63.3675 24.5261 64.1363 24.8386 64.9436 25.1772C65.7767 25.4896 66.5583 25.8804 67.2873 26.3491C68.0162 26.7917 68.6026 27.3904 69.0451 28.1454C69.5136 28.8743 69.7482 29.7985 69.7483 30.9177C69.7483 32.2457 69.4215 33.3787 68.7706 34.3161C68.1456 35.2275 67.3127 35.9307 66.2712 36.4255C65.2296 36.9202 64.0841 37.1688 62.8342 37.1688C61.1416 37.1688 59.6695 36.8563 58.4196 36.2313C57.2679 35.6315 56.2487 34.8426 55.3623 33.8668C55.2361 33.7279 55.2516 33.5134 55.3924 33.3894L57.7983 31.2723C57.9452 31.143 58.1698 31.1631 58.2976 31.3113C58.8637 31.9682 59.4905 32.515 60.1774 32.9501C60.9586 33.4448 61.8322 33.6917 62.7957 33.6917C63.7067 33.6915 64.3963 33.4571 64.8649 32.9886C65.3596 32.4939 65.6065 31.8952 65.6065 31.1922C65.6065 30.5412 65.3721 30.0209 64.9034 29.6303C64.4609 29.2398 63.876 28.9005 63.1473 28.6141C62.4183 28.3277 61.6366 28.0275 60.8035 27.7151C59.9963 27.3766 59.2274 26.9734 58.4983 26.5047C57.7694 26.0362 57.1706 25.4372 56.702 24.7084C56.2593 23.9532 56.0373 22.9891 56.0373 21.8172C56.0373 20.7238 56.3235 19.7343 56.8962 18.8491C57.4691 17.9376 58.2645 17.2203 59.2801 16.6995C60.3215 16.179 61.5065 15.9194 62.8342 15.9194Z" fill="#2845C1"/>
<path d="M79.2405 16.3566C79.2405 16.546 79.394 16.6995 79.5833 16.6995H85.2642C85.4536 16.6995 85.6071 16.853 85.6071 17.0424V20.2238C85.6071 20.4132 85.4536 20.5667 85.2642 20.5667H79.5833C79.394 20.5667 79.2405 20.7202 79.2405 20.9095V29.4344C79.2405 30.2936 79.3843 30.9704 79.6707 31.4651C79.957 31.9597 80.3606 32.3239 80.8811 32.5583C81.4019 32.7666 82.0145 32.8714 82.7176 32.8714C83.3945 32.8714 83.9682 32.8323 84.4369 32.7542C84.7039 32.6948 84.9499 32.6312 85.1748 32.5633C85.4051 32.4938 85.6473 32.6612 85.6473 32.9018V35.9683C85.6473 36.1038 85.5679 36.2276 85.4416 36.2767C85.024 36.4393 84.5582 36.5545 84.0451 36.6214C83.4724 36.7255 82.7955 36.7771 82.0145 36.7771C80.452 36.7771 79.1363 36.5036 78.0686 35.9568C77.0273 35.3839 76.2331 34.5633 75.6863 33.4958C75.1657 32.4023 74.9046 31.0486 74.9045 29.4344V20.9095C74.9045 20.7202 74.751 20.5667 74.5617 20.5667H71.5761C71.3867 20.5667 71.2332 20.4132 71.2332 20.2238V17.0424C71.2332 16.853 71.3867 16.6995 71.5761 16.6995H74.5617C74.751 16.6995 74.9045 16.546 74.9045 16.3566V12.1222C74.9045 11.9328 75.058 11.7793 75.2474 11.7793H78.8976C79.087 11.7793 79.2405 11.9328 79.2405 12.1222V16.3566Z" fill="#2845C1"/>
<path d="M42.9157 16.3094C43.2542 16.3094 43.5667 16.336 43.8532 16.3881C44.0467 16.4233 44.2286 16.4639 44.3985 16.5107C44.5408 16.5498 44.635 16.6819 44.635 16.8294V20.3619C44.635 20.585 44.4253 20.7487 44.2067 20.7044C44.0274 20.668 43.8442 20.6356 43.6573 20.6069C43.345 20.5549 42.9679 20.5282 42.5256 20.5282C41.7184 20.5282 40.9886 20.6578 40.3376 20.9182C39.7126 21.1786 39.1656 21.5303 38.6969 21.9729C38.3505 22.2809 38.0467 22.6174 37.7855 22.9823C37.6047 23.235 37.5251 23.5433 37.5251 23.8541V36.0441C37.5251 36.2335 37.3716 36.387 37.1822 36.387H33.5722C33.3828 36.387 33.2293 36.2335 33.2293 36.0441V17.0424C33.2293 16.853 33.3828 16.6995 33.5722 16.6995H37.1822C37.3716 16.6995 37.5251 16.853 37.5251 17.0424V18.4231C37.5251 18.5792 37.7183 18.6554 37.8279 18.5441C38.0458 18.3226 38.2698 18.1113 38.5011 17.9116C39.0739 17.4168 39.7257 17.0261 40.4547 16.7397C41.1839 16.4532 42.0043 16.3094 42.9157 16.3094Z" fill="#2845C1"/>
<path d="M52.0697 36.0441C52.0697 36.2335 51.9162 36.387 51.7268 36.387H48.1151C47.9258 36.387 47.7723 36.2335 47.7723 36.0441V17.0424C47.7723 16.853 47.9258 16.6995 48.1151 16.6995H51.7268C51.9162 16.6995 52.0697 16.853 52.0697 17.0424V36.0441Z" fill="#2845C1"/>
<path d="M49.9603 6.85742C50.4811 6.85743 50.9499 6.98709 51.3666 7.24749C51.8092 7.50789 52.1484 7.85952 52.3828 8.30218C52.643 8.71873 52.7728 9.18778 52.7728 9.70843C52.7728 10.229 52.6429 10.7107 52.3828 11.1532C52.1484 11.5958 51.8092 11.9475 51.3666 12.2079C50.9499 12.4422 50.4811 12.5594 49.9603 12.5594C49.4396 12.5594 48.9582 12.4421 48.5156 12.2079C48.0729 11.9475 47.7213 11.5959 47.4609 11.1532C47.2005 10.7105 47.0692 10.2292 47.0691 9.70843C47.0691 8.92736 47.3428 8.26303 47.8895 7.71624C48.4624 7.14334 49.1531 6.85742 49.9603 6.85742Z" fill="#2845C1"/>
</svg>
