<svg width="134" height="48" viewBox="0 0 134 48" fill="none" xmlns="http://www.w3.org/2000/svg">
<path d="M39.2762 15.9194C41.0728 15.9195 42.6748 16.2835 44.0809 17.0126C45.4063 17.6634 46.5093 18.5379 47.3887 19.6349C47.5064 19.7817 47.4757 19.9955 47.3258 20.1092L44.4907 22.2599C44.3325 22.38 44.1064 22.3401 43.9862 22.1819C43.5156 21.5629 42.9082 21.0505 42.1657 20.6454C41.3325 20.1769 40.3556 19.9423 39.236 19.9423C38.325 19.9424 37.4789 20.1113 36.6981 20.4496C35.943 20.7881 35.2912 21.257 34.7444 21.8558C34.1976 22.4547 33.7678 23.1581 33.4553 23.9652C33.1429 24.7463 32.9866 25.606 32.9866 26.5433C32.9866 27.7931 33.2601 28.9262 33.8069 29.9417C34.3537 30.9312 35.0961 31.7126 36.0334 32.2855C36.9709 32.8584 38.0648 33.1443 39.3147 33.1443C40.3823 33.1443 41.3324 32.9099 42.1657 32.4412C42.9082 32.0362 43.5155 31.525 43.9861 30.9063C44.1064 30.7482 44.3325 30.7083 44.4907 30.8284L47.323 32.977C47.474 33.0915 47.5038 33.3073 47.3838 33.454C46.5052 34.5274 45.4037 35.4004 44.0809 36.074C42.6748 36.8031 41.0728 37.1688 39.2762 37.1689C37.0627 37.1689 35.1485 36.6859 33.534 35.7224C31.9195 34.7329 30.6694 33.4313 29.784 31.8167C28.9247 30.2022 28.4949 28.4442 28.4949 26.5433C28.495 25.1115 28.742 23.7576 29.2366 22.4819C29.7313 21.2059 30.4486 20.073 31.3861 19.0835C32.3234 18.0942 33.4551 17.3251 34.7829 16.7782C36.111 16.2053 37.6096 15.9194 39.2762 15.9194Z" fill="#2845C1"/>
<path fill-rule="evenodd" clip-rule="evenodd" d="M91.5117 15.9194C92.8655 15.9194 94.0895 16.1399 95.183 16.5824C96.2766 17.025 97.2143 17.6378 97.9955 18.4189C98.8028 19.2001 99.4153 20.1252 99.832 21.1929C100.248 22.2603 100.456 23.4187 100.456 24.6683C100.456 25.137 100.432 25.5934 100.379 26.0361C100.342 26.3566 100.297 26.6362 100.245 26.8748C100.213 27.0259 100.076 27.1292 99.9217 27.1292H86.2116C86.0125 27.1292 85.8547 27.2984 85.8757 27.4963C85.9853 28.5318 86.2356 29.425 86.63 30.1761C87.1768 31.2176 87.9442 31.9991 88.9336 32.5199C89.9231 33.0407 91.0435 33.3017 92.2935 33.3017C93.4652 33.3016 94.5202 33.0672 95.4576 32.5986C96.3024 32.1875 96.9967 31.6559 97.5411 31.0045C97.666 30.855 97.8879 30.8246 98.0402 30.946L100.589 32.9777C100.733 33.093 100.761 33.3027 100.645 33.4471C99.7632 34.5489 98.6448 35.438 97.2924 36.1142C95.8342 36.8171 94.1806 37.1689 92.332 37.1689C90.0405 37.1688 88.0871 36.6859 86.4726 35.7224C84.8584 34.7329 83.622 33.4311 82.7628 31.8167C81.9034 30.2022 81.4737 28.4443 81.4737 26.5433C81.4738 25.0592 81.6941 23.6791 82.1367 22.4032C82.6054 21.1272 83.2695 20.0068 84.1289 19.0433C84.9881 18.0539 86.0432 17.2866 87.2929 16.7397C88.5428 16.1929 89.9493 15.9194 91.5117 15.9194ZM91.3945 19.4736C90.2488 19.4736 89.2454 19.7346 88.3861 20.2554C87.5533 20.7761 86.9152 21.5438 86.4726 22.5589C86.3292 22.8795 86.2105 23.2252 86.1143 23.5953C86.0597 23.8056 86.2227 24.0054 86.44 24.0054H95.8788C96.0724 24.0054 96.2289 23.8449 96.2087 23.6524C96.1438 23.0347 95.9591 22.4493 95.6517 21.896C95.2873 21.167 94.7541 20.5808 94.0513 20.1382C93.3482 19.6955 92.4622 19.4736 91.3945 19.4736Z" fill="#2845C1"/>
<path d="M124.808 15.9194C126.24 15.9194 127.568 16.232 128.792 16.8569C129.932 17.4265 130.844 18.1364 131.529 18.987C131.641 19.1267 131.617 19.3291 131.48 19.4454L129.074 21.4987C128.922 21.6282 128.693 21.6007 128.567 21.4459C128.122 20.8987 127.611 20.4366 127.035 20.0595C126.358 19.6169 125.615 19.3949 124.808 19.3949C124.236 19.3949 123.741 19.4998 123.325 19.7079C122.934 19.9162 122.634 20.1897 122.426 20.5282C122.243 20.8668 122.153 21.245 122.153 21.6616C122.153 22.2862 122.373 22.8071 122.816 23.2236C123.285 23.6142 123.885 23.9533 124.614 24.2397C125.343 24.5261 126.11 24.8388 126.917 25.1772C127.751 25.4897 128.532 25.8804 129.261 26.3491C129.99 26.7918 130.576 27.3903 131.019 28.1454C131.488 28.8744 131.722 29.7984 131.722 30.9178C131.722 32.2455 131.397 33.3788 130.746 34.3162C130.121 35.2274 129.288 35.9308 128.247 36.4256C127.205 36.9203 126.058 37.1689 124.808 37.1689C123.116 37.1688 121.645 36.8561 120.395 36.2314C119.243 35.6315 118.224 34.8427 117.338 33.8668C117.212 33.728 117.227 33.5134 117.368 33.3895L119.774 31.2723C119.921 31.1431 120.145 31.1632 120.273 31.3114C120.839 31.9682 121.466 32.515 122.153 32.9501C122.934 33.4447 123.806 33.6917 124.769 33.6917C125.681 33.6917 126.372 33.4573 126.84 32.9886C127.335 32.494 127.582 31.8951 127.582 31.1923C127.582 30.5415 127.347 30.0209 126.879 29.6304C126.436 29.2398 125.85 28.9006 125.121 28.6142C124.392 28.3277 123.611 28.0277 122.777 27.7152C121.97 27.3767 121.201 26.9735 120.472 26.5048C119.743 26.0362 119.144 25.4373 118.676 24.7085C118.233 23.9533 118.011 22.9891 118.011 21.8173C118.011 20.7236 118.299 19.7345 118.872 18.8491C119.445 17.9377 120.238 17.2204 121.254 16.6996C122.295 16.1789 123.48 15.9195 124.808 15.9194Z" fill="#2845C1"/>
<path d="M17.1445 12.7256C17.1445 12.9149 16.991 13.0684 16.8016 13.0684H6.86178C6.67242 13.0684 6.51892 13.2219 6.51892 13.4113V20.1067C6.51892 20.2961 6.67242 20.4496 6.86178 20.4496H15.238C15.4274 20.4496 15.5809 20.6031 15.5809 20.7924V24.1313C15.5809 24.3206 15.4274 24.4741 15.238 24.4741H6.86178C6.67242 24.4741 6.51892 24.6276 6.51892 24.817V36.0442C6.51892 36.2336 6.36542 36.3871 6.17606 36.3871H2.05709C1.86774 36.3871 1.71423 36.2336 1.71423 36.0442V9.38672C1.71423 9.19737 1.86774 9.04387 2.05709 9.04387H16.8016C16.991 9.04387 17.1445 9.19737 17.1445 9.38672V12.7256Z" fill="#2845C1"/>
<path d="M24.8052 36.0442C24.8052 36.2336 24.6517 36.3871 24.4623 36.3871H20.8523C20.6629 36.3871 20.5094 36.2336 20.5094 36.0442V17.0424C20.5094 16.8531 20.6629 16.6996 20.8523 16.6996H24.4623C24.6517 16.6996 24.8052 16.8531 24.8052 17.0424V36.0442Z" fill="#2845C1"/>
<path d="M54.8102 18.0661C54.8102 18.2205 55.0006 18.2982 55.113 18.1923C55.7591 17.583 56.5041 17.0723 57.3482 16.6611C58.3638 16.1663 59.5499 15.9194 60.904 15.9194C62.362 15.9195 63.664 16.2445 64.8097 16.8954C65.9815 17.5464 66.9066 18.5106 67.5837 19.7866C68.2605 21.0625 68.5982 22.6646 68.5982 24.5913V36.0442C68.5982 36.2336 68.4447 36.3871 68.2553 36.3871H64.6051C64.4157 36.3871 64.2622 36.2336 64.2622 36.0442V24.747C64.2622 23.2366 63.8716 22.0647 63.0904 21.2314C62.3092 20.3722 61.2418 19.9423 59.8878 19.9423C59.0287 19.9423 58.2736 20.1112 57.6227 20.4496C56.9717 20.762 56.4107 21.1668 55.9419 21.6616C55.5315 22.1204 55.1774 22.6019 54.8789 23.1055C54.8333 23.1825 54.8102 23.2706 54.8102 23.3601V36.0442C54.8102 36.2336 54.6567 36.3871 54.4674 36.3871H50.8556C50.6663 36.3871 50.5128 36.2336 50.5128 36.0442V7.43472C50.5128 7.24536 50.6663 7.09186 50.8556 7.09186H54.4674C54.6567 7.09186 54.8102 7.24536 54.8102 7.43472V18.0661Z" fill="#2845C1"/>
<path d="M77.784 36.0442C77.784 36.2336 77.6305 36.3871 77.4411 36.3871H73.8311C73.6417 36.3871 73.4882 36.2336 73.4882 36.0442V17.0424C73.4882 16.8531 73.6417 16.6996 73.8311 16.6996H77.4411C77.6305 16.6996 77.784 16.8531 77.784 17.0424V36.0442Z" fill="#2845C1"/>
<path d="M114.171 16.3095C114.509 16.3095 114.822 16.3361 115.108 16.3882C115.301 16.4233 115.482 16.4639 115.652 16.5106C115.794 16.5499 115.888 16.6819 115.888 16.8295V20.362C115.888 20.5851 115.679 20.7488 115.46 20.7043C115.281 20.668 115.099 20.6356 114.912 20.6069C114.6 20.5549 114.222 20.5282 113.779 20.5282C112.972 20.5283 112.243 20.6581 111.593 20.9183C110.968 21.1786 110.421 21.5305 109.952 21.973C109.606 22.2809 109.302 22.6174 109.041 22.9823C108.86 23.235 108.78 23.5434 108.78 23.8542V36.0442C108.78 36.2336 108.627 36.3871 108.437 36.3871H104.826C104.636 36.3871 104.483 36.2336 104.483 36.0442V17.0424C104.483 16.8531 104.636 16.6996 104.826 16.6996H108.437C108.627 16.6996 108.78 16.8531 108.78 17.0424V18.4215C108.78 18.5777 108.973 18.6539 109.083 18.5427C109.301 18.3217 109.525 18.1111 109.756 17.9116C110.329 17.4168 110.981 17.0262 111.71 16.7397C112.439 16.4533 113.259 16.3095 114.171 16.3095Z" fill="#2845C1"/>
<path d="M22.6958 6.85748C23.2164 6.85748 23.6855 6.98736 24.1021 7.24755C24.5448 7.50796 24.8839 7.85954 25.1183 8.30224C25.3787 8.71889 25.5083 9.18767 25.5083 9.70849C25.5083 10.2292 25.3786 10.7106 25.1183 11.1532C24.8839 11.5959 24.5448 11.9475 24.1021 12.2079C23.6855 12.4421 23.2165 12.5595 22.6958 12.5595C22.1753 12.5594 21.6935 12.4422 21.2511 12.2079C20.8085 11.9475 20.4567 11.5958 20.1964 11.1532C19.9362 10.7107 19.8063 10.2291 19.8063 9.70849C19.8063 8.92726 20.0798 8.26316 20.6266 7.7163C21.1993 7.14364 21.8889 6.85768 22.6958 6.85748Z" fill="#2845C1"/>
<path d="M75.6746 6.85748C76.1954 6.85748 76.6643 6.98721 77.0809 7.24755C77.5236 7.50796 77.8627 7.85954 78.0971 8.30224C78.3574 8.71884 78.4871 9.18776 78.4871 9.70849C78.4871 10.2291 78.3573 10.7107 78.0971 11.1532C77.8627 11.5959 77.5236 11.9475 77.0809 12.2079C76.6642 12.4423 76.1954 12.5595 75.6746 12.5595C75.1539 12.5594 74.6725 12.4422 74.2299 12.2079C73.7872 11.9475 73.4356 11.5959 73.1752 11.1532C72.9149 10.7106 72.7851 10.2292 72.7851 9.70849C72.7851 8.92726 73.0586 8.26316 73.6054 7.7163C74.1782 7.14369 74.8676 6.85756 75.6746 6.85748Z" fill="#2845C1"/>
</svg>
