<svg width="48" height="48" viewBox="0 0 48 48" fill="none" xmlns="http://www.w3.org/2000/svg">
<g clip-path="url(#clip0_1782_3003)">
<path d="M5.66655 40.3992C5.29829 40.7364 4.71764 40.6117 4.61406 40.1232C4.53802 39.7646 4.5 39.3462 4.5 38.8681V22.3727C4.5 21.8547 4.53802 21.4114 4.61406 21.0429C4.71583 20.6113 5.19045 20.5079 5.5353 20.7866L16.1741 29.3849C16.5992 29.7285 16.619 30.3698 16.2159 30.739L5.66655 40.3992ZM9.1277 43.5C8.53023 43.5 7.99794 43.4402 7.53082 43.3207C7.50054 43.3128 7.4706 43.3046 7.441 43.2964C6.87976 43.1394 6.80758 42.4598 7.23712 42.066L18.2205 31.9947C18.5477 31.6947 19.0456 31.6804 19.3896 31.9612L21.1695 33.4145C21.6475 33.793 22.1363 34.0818 22.636 34.2811C23.1357 34.4703 23.6409 34.565 24.1514 34.565C24.662 34.565 25.1672 34.4703 25.6669 34.2811C26.1774 34.0818 26.6717 33.793 27.1497 33.4145L28.9296 31.9612C29.2736 31.6804 29.7715 31.6947 30.0987 31.9948L41.0821 42.066C41.5116 42.4598 41.4386 43.1377 40.8768 43.2928C40.8424 43.3024 40.8074 43.3116 40.7721 43.3207C40.3158 43.4402 39.789 43.5 39.1915 43.5H9.1277ZM43.6888 40.1232C43.5873 40.6022 43.0178 40.7335 42.6567 40.4029L32.1033 30.739C31.7002 30.3698 31.72 29.7285 32.1451 29.3849L42.7888 20.7826C43.1249 20.5109 43.5896 20.6223 43.6888 21.0429C43.7757 21.4114 43.8192 21.8547 43.8192 22.3727V38.8681C43.8192 39.3462 43.7757 39.7646 43.6888 40.1232Z" fill="#2845C1"/>
<path d="M11.6489 22.3774L6.74444 18.3745C5.60537 17.4448 5.60537 15.7042 6.74444 14.7745L22.1791 2.17726C23.2855 1.27425 24.8744 1.27425 25.9808 2.17726L41.4154 14.7745C42.5545 15.7042 42.5545 17.4448 41.4154 18.3745L36.6702 22.2474V17.0169C36.6702 15.3566 35.3243 14.0107 33.6639 14.0107H14.6552C12.9949 14.0107 11.6489 15.3566 11.6489 17.0169V22.3774Z" fill="#C83F49"/>
<rect x="6" y="34.5" width="36" height="13.5" rx="6.75" fill="#EEF1F4"/>
<rect x="6" y="34.5" width="36" height="13.5" rx="6.75" fill="url(#paint0_linear_1782_3003)" fill-opacity="0.1"/>
<path d="M12.5137 44.6044C12.4389 44.6044 12.4014 44.6044 12.3729 44.5898C12.3477 44.577 12.3273 44.5566 12.3145 44.5314C12.2999 44.5028 12.2999 44.4654 12.2999 44.3906V37.8637C12.2999 37.7889 12.2999 37.7515 12.3145 37.7229C12.3273 37.6978 12.3477 37.6773 12.3729 37.6645C12.4014 37.65 12.4389 37.65 12.5137 37.65H14.3465C15.797 37.65 16.6812 38.3653 16.6812 39.5376C16.6812 39.972 16.5292 40.3597 16.2386 40.6602C16.1358 40.7665 16.0844 40.8197 16.0757 40.8546C16.0664 40.8922 16.0684 40.911 16.0855 40.9457C16.1014 40.978 16.1609 41.0176 16.2798 41.0968C16.7971 41.4413 17.0786 41.9549 17.0786 42.5578C17.0786 43.8294 16.095 44.6044 14.4955 44.6044H12.5137ZM14.3763 38.8223H13.9244C13.8496 38.8223 13.8122 38.8223 13.7836 38.8368C13.7585 38.8496 13.738 38.8701 13.7252 38.8952C13.7107 38.9238 13.7107 38.9612 13.7107 39.036V40.1782C13.7107 40.2531 13.7107 40.2905 13.7252 40.319C13.738 40.3442 13.7585 40.3646 13.7836 40.3774C13.8122 40.392 13.8496 40.392 13.9244 40.392H14.3763C14.9128 40.392 15.2307 40.1039 15.2307 39.5972C15.2307 39.1104 14.9128 38.8223 14.3763 38.8223ZM14.575 41.5643H13.9244C13.8496 41.5643 13.8122 41.5643 13.7836 41.5789C13.7585 41.5917 13.738 41.6121 13.7252 41.6372C13.7107 41.6658 13.7107 41.7032 13.7107 41.778V43.2183C13.7107 43.2931 13.7107 43.3305 13.7252 43.3591C13.738 43.3842 13.7585 43.4047 13.7836 43.4175C13.8122 43.4321 13.8496 43.4321 13.9244 43.4321H14.575C15.2307 43.4321 15.6281 43.0843 15.6281 42.4982C15.6281 41.9021 15.2307 41.5643 14.575 41.5643Z" fill="#2845C1"/>
<path d="M18.6407 44.6044C18.5659 44.6044 18.5285 44.6044 18.4999 44.5898C18.4747 44.577 18.4543 44.5566 18.4415 44.5314C18.4269 44.5028 18.4269 44.4654 18.4269 44.3906V37.8637C18.4269 37.7889 18.4269 37.7515 18.4415 37.7229C18.4543 37.6978 18.4747 37.6773 18.4999 37.6645C18.5285 37.65 18.5659 37.65 18.6407 37.65H22.2666C22.3414 37.65 22.3788 37.65 22.4074 37.6645C22.4326 37.6773 22.453 37.6978 22.4658 37.7229C22.4804 37.7515 22.4804 37.7889 22.4804 37.8637V38.6085C22.4804 38.6833 22.4804 38.7208 22.4658 38.7493C22.453 38.7745 22.4326 38.7949 22.4074 38.8077C22.3788 38.8223 22.3414 38.8223 22.2666 38.8223H20.0514C19.9766 38.8223 19.9392 38.8223 19.9106 38.8368C19.8855 38.8496 19.8651 38.8701 19.8523 38.8952C19.8377 38.9238 19.8377 38.9612 19.8377 39.036V40.2577C19.8377 40.3325 19.8377 40.3699 19.8523 40.3985C19.8651 40.4237 19.8855 40.4441 19.9106 40.4569C19.9392 40.4715 19.9766 40.4715 20.0514 40.4715H21.8692C21.944 40.4715 21.9814 40.4715 22.01 40.486C22.0352 40.4988 22.0556 40.5193 22.0684 40.5444C22.083 40.573 22.083 40.6104 22.083 40.6852V41.43C22.083 41.5048 22.083 41.5423 22.0684 41.5708C22.0556 41.596 22.0352 41.6164 22.01 41.6292C21.9814 41.6438 21.944 41.6438 21.8692 41.6438H20.0514C19.9766 41.6438 19.9392 41.6438 19.9106 41.6583C19.8855 41.6711 19.8651 41.6916 19.8523 41.7167C19.8377 41.7453 19.8377 41.7827 19.8377 41.8575V43.2183C19.8377 43.2931 19.8377 43.3305 19.8523 43.3591C19.8651 43.3842 19.8855 43.4047 19.9106 43.4175C19.9392 43.4321 19.9766 43.4321 20.0514 43.4321H22.2666C22.3414 43.4321 22.3788 43.4321 22.4074 43.4466C22.4326 43.4594 22.453 43.4799 22.4658 43.505C22.4804 43.5336 22.4804 43.571 22.4804 43.6458V44.3906C22.4804 44.4654 22.4804 44.5028 22.4658 44.5314C22.453 44.5566 22.4326 44.577 22.4074 44.5898C22.3788 44.6044 22.3414 44.6044 22.2666 44.6044H18.6407Z" fill="#2845C1"/>
<path d="M23.6643 38.9316C23.5895 38.9316 23.5521 38.9316 23.5235 38.917C23.4984 38.9042 23.4779 38.8838 23.4651 38.8586C23.4506 38.83 23.4506 38.7926 23.4506 38.7178V37.8637C23.4506 37.7889 23.4506 37.7515 23.4651 37.7229C23.4779 37.6978 23.4984 37.6773 23.5235 37.6645C23.5521 37.65 23.5895 37.65 23.6643 37.65H28.9394C29.0142 37.65 29.0517 37.65 29.0802 37.6645C29.1054 37.6773 29.1258 37.6978 29.1386 37.7229C29.1532 37.7515 29.1532 37.7889 29.1532 37.8637V38.7178C29.1532 38.7926 29.1532 38.83 29.1386 38.8586C29.1258 38.8838 29.1054 38.9042 29.0802 38.917C29.0517 38.9316 29.0142 38.9316 28.9394 38.9316H27.221C27.1462 38.9316 27.1088 38.9316 27.0802 38.9461C27.055 38.9589 27.0346 38.9794 27.0218 39.0045C27.0072 39.0331 27.0072 39.0705 27.0072 39.1453V44.3906C27.0072 44.4654 27.0072 44.5028 26.9927 44.5314C26.9799 44.5566 26.9594 44.577 26.9343 44.5898C26.9057 44.6044 26.8683 44.6044 26.7935 44.6044H25.8102C25.7354 44.6044 25.698 44.6044 25.6694 44.5898C25.6443 44.577 25.6239 44.5566 25.6111 44.5314C25.5965 44.5028 25.5965 44.4654 25.5965 44.3906V39.1453C25.5965 39.0705 25.5965 39.0331 25.5819 39.0045C25.5691 38.9794 25.5487 38.9589 25.5235 38.9461C25.495 38.9316 25.4576 38.9316 25.3827 38.9316H23.6643Z" fill="#2845C1"/>
<path d="M29.0587 44.6044C28.9547 44.6044 28.9027 44.6044 28.8694 44.5825C28.8402 44.5634 28.8197 44.5337 28.8122 44.4997C28.8036 44.4607 28.822 44.4121 28.8588 44.3149L31.3296 37.788C31.3485 37.7382 31.3579 37.7134 31.3742 37.695C31.3885 37.6788 31.4066 37.6663 31.4268 37.6587C31.4497 37.65 31.4763 37.65 31.5296 37.65H33.0822C33.1354 37.65 33.162 37.65 33.1849 37.6587C33.2052 37.6663 33.2232 37.6788 33.2376 37.695C33.2538 37.7134 33.2632 37.7382 33.2821 37.788L35.753 44.3149C35.7898 44.4121 35.8082 44.4607 35.7996 44.4997C35.792 44.5337 35.7715 44.5634 35.7423 44.5825C35.709 44.6044 35.657 44.6044 35.5531 44.6044H34.5115C34.4577 44.6044 34.4309 44.6044 34.4078 44.5955C34.3875 44.5878 34.3693 44.5751 34.355 44.5587C34.3387 44.5401 34.3294 44.5149 34.3109 44.4645L33.7482 42.9361C33.7297 42.8857 33.7204 42.8605 33.7042 42.8419C33.6898 42.8255 33.6717 42.8128 33.6513 42.805C33.6282 42.7962 33.6014 42.7962 33.5477 42.7962H31.0641C31.0103 42.7962 30.9835 42.7962 30.9604 42.805C30.9401 42.8128 30.9219 42.8255 30.9076 42.8419C30.8913 42.8605 30.882 42.8857 30.8635 42.9361L30.3008 44.4645C30.2823 44.5149 30.273 44.5401 30.2568 44.5587C30.2424 44.5751 30.2243 44.5878 30.2039 44.5955C30.1809 44.6044 30.154 44.6044 30.1003 44.6044H29.0587ZM31.4569 41.3071C31.4216 41.4036 31.404 41.4519 31.4129 41.4905C31.4207 41.5242 31.4413 41.5537 31.4703 41.5725C31.5035 41.5941 31.5549 41.5941 31.6577 41.5941H32.954C33.0568 41.5941 33.1082 41.5941 33.1414 41.5725C33.1705 41.5537 33.191 41.5242 33.1988 41.4905C33.2077 41.4519 33.1901 41.4036 33.1548 41.3071L32.5067 39.5313C32.4447 39.3617 32.4138 39.2769 32.3685 39.2529C32.3293 39.232 32.2824 39.232 32.2432 39.2529C32.1979 39.2769 32.167 39.3617 32.1051 39.5313L31.4569 41.3071Z" fill="#2845C1"/>
</g>
<defs>
<linearGradient id="paint0_linear_1782_3003" x1="24" y1="34.5" x2="24" y2="48" gradientUnits="userSpaceOnUse">
<stop stop-color="#2845C1"/>
<stop offset="1" stop-color="#EEF1F4"/>
</linearGradient>
<clipPath id="clip0_1782_3003">
<rect width="48" height="48" fill="white"/>
</clipPath>
</defs>
</svg>
