<svg width="91" height="49" viewBox="0 0 91 49" fill="none" xmlns="http://www.w3.org/2000/svg">
<path d="M1.77109 11.4417C1.68244 11.2127 1.85141 10.9661 2.09697 10.9661H6.52403C6.6679 10.9661 6.79706 11.0543 6.84947 11.1883L15.3984 33.0441C15.4563 33.1922 15.6659 33.1922 15.7238 33.0441L24.2728 11.1883C24.3252 11.0543 24.4543 10.9661 24.5982 10.9661H29.0651C29.3106 10.9661 29.4796 11.2127 29.391 11.4417L18.8724 38.6115C18.8203 38.7461 18.6908 38.8348 18.5465 38.8348H12.6156C12.4712 38.8348 12.3418 38.7461 12.2897 38.6115L1.77109 11.4417Z" fill="#2845C1"/>
<path d="M32.7976 38.8348C32.6046 38.8348 32.4481 38.6783 32.4481 38.4853V19.1188C32.4481 18.9258 32.6046 18.7693 32.7976 18.7693H36.478C36.671 18.7693 36.8275 18.9258 36.8275 19.1188V38.4853C36.8275 38.6783 36.671 38.8348 36.478 38.8348H32.7976ZM34.6776 14.5492C34.1468 14.5492 33.6557 14.4298 33.2045 14.1909C32.7533 13.9255 32.395 13.5672 32.1296 13.116C31.8642 12.6648 31.7315 12.1737 31.7315 11.6429C31.7315 10.8467 32.0102 10.1698 32.5675 9.61248C33.1515 9.02856 33.8548 8.7366 34.6776 8.7366C35.2084 8.7366 35.6862 8.86931 36.1108 9.13473C36.5621 9.40014 36.9071 9.75845 37.146 10.2097C37.4114 10.6343 37.5441 11.1121 37.5441 11.6429C37.5441 12.1737 37.4114 12.6648 37.146 13.116C36.9071 13.5672 36.5621 13.9255 36.1108 14.1909C35.6862 14.4298 35.2084 14.5492 34.6776 14.5492Z" fill="#2845C1"/>
<path d="M45.0917 23.3339C45.0917 23.9709 45.3173 24.5017 45.7685 24.9264C46.2462 25.3245 46.8567 25.6696 47.5998 25.9615C48.343 26.2535 49.126 26.572 49.9488 26.917C50.7981 27.2355 51.5943 27.6336 52.3375 28.1114C53.0807 28.5626 53.6779 29.173 54.1291 29.9428C54.6068 30.6859 54.8457 31.6281 54.8457 32.7694C54.8457 34.1231 54.5139 35.2776 53.8504 36.2331C53.2134 37.1621 52.364 37.8787 51.3024 38.383C50.2407 38.8873 49.0729 39.1394 47.7989 39.1394C46.0737 39.1394 44.5741 38.8209 43.3001 38.1839C42.1262 37.5725 41.0876 36.7696 40.1841 35.7751C40.0555 35.6336 40.0712 35.4149 40.2148 35.2886L42.6668 33.1308C42.8166 32.9991 43.0455 33.0196 43.1758 33.1706C43.7528 33.8399 44.3914 34.3962 45.0917 34.8397C45.8879 35.344 46.777 35.5961 47.7591 35.5961C48.688 35.5961 49.3914 35.3572 49.8691 34.8795C50.3734 34.3752 50.6256 33.7647 50.6256 33.0481C50.6256 32.3846 50.3867 31.8538 49.909 31.4556C49.4577 31.0575 48.8606 30.7125 48.1174 30.4205C47.3742 30.1285 46.578 29.8233 45.7287 29.5048C44.9059 29.1598 44.1229 28.7484 43.3797 28.2706C42.6366 27.7929 42.0261 27.1824 41.5484 26.4393C41.0971 25.6696 40.8715 24.6875 40.8715 23.4931C40.8715 22.3784 41.1635 21.3698 41.7474 20.4674C42.3313 19.5384 43.1408 18.8086 44.176 18.2777C45.2376 17.7469 46.4453 17.4815 47.7989 17.4815C49.2587 17.4815 50.6123 17.8 51.8598 18.437C53.0209 19.0175 53.9505 19.7414 54.6487 20.6086C54.7632 20.7509 54.7383 20.9571 54.5993 21.0757L52.1464 23.1689C51.9917 23.3009 51.758 23.2729 51.6298 23.115C51.1767 22.5572 50.6562 22.086 50.0682 21.7016C49.3781 21.2504 48.6217 21.0248 47.7989 21.0248C47.215 21.0248 46.7107 21.1309 46.286 21.3433C45.8879 21.5556 45.5827 21.8343 45.3703 22.1793C45.1845 22.5244 45.0917 22.9092 45.0917 23.3339Z" fill="#2845C1"/>
<path d="M59.024 38.8348C58.831 38.8348 58.6745 38.6783 58.6745 38.4853V19.1188C58.6745 18.9258 58.831 18.7693 59.024 18.7693H62.7044C62.8974 18.7693 63.0539 18.9258 63.0539 19.1188V38.4853C63.0539 38.6783 62.8974 38.8348 62.7044 38.8348H59.024ZM60.904 14.5492C60.3732 14.5492 59.8822 14.4298 59.431 14.1909C58.9797 13.9255 58.6214 13.5672 58.356 13.116C58.0906 12.6648 57.9579 12.1737 57.9579 11.6429C57.9579 10.8467 58.2366 10.1698 58.794 9.61248C59.3779 9.02856 60.0812 8.7366 60.904 8.7366C61.4348 8.7366 61.9126 8.86931 62.3373 9.13473C62.7885 9.40014 63.1335 9.75845 63.3724 10.2097C63.6378 10.6343 63.7705 11.1121 63.7705 11.6429C63.7705 12.1737 63.6378 12.6648 63.3724 13.116C63.1335 13.5672 62.7885 13.9255 62.3373 14.1909C61.9126 14.4298 61.4348 14.5492 60.904 14.5492Z" fill="#2845C1"/>
<path d="M77.8019 35.1442C78.7043 35.1442 79.5404 34.9716 80.3101 34.6266C81.0798 34.255 81.7433 33.764 82.3007 33.1535C82.8846 32.5431 83.3358 31.8397 83.6543 31.0435C83.9728 30.2207 84.1321 29.3448 84.1321 28.4159C84.1321 27.1419 83.8534 26.0006 83.296 24.992C82.7386 23.9834 81.9822 23.1872 81.0267 22.6033C80.0712 21.9928 78.9963 21.6876 77.8019 21.6876C76.8729 21.6876 76.0103 21.8601 75.2141 22.2051C74.4444 22.5502 73.7676 23.0279 73.1836 23.6384C72.6263 24.2488 72.1883 24.9655 71.8698 25.7882C71.5513 26.611 71.3921 27.4869 71.3921 28.4159C71.3921 29.6633 71.6708 30.8046 72.2282 31.8397C72.7855 32.8483 73.542 33.6578 74.4975 34.2683C75.4795 34.8522 76.581 35.1442 77.8019 35.1442ZM77.7621 17.5869C79.3811 17.5869 80.8542 17.8656 82.1813 18.4229C83.5349 18.9803 84.6894 19.7633 85.6449 20.7719C86.627 21.7539 87.3701 22.9085 87.8744 24.2356C88.4053 25.5361 88.6707 26.9295 88.6707 28.4159C88.6707 29.9022 88.4053 31.3089 87.8744 32.636C87.3701 33.9365 86.627 35.0911 85.6449 36.0997C84.6894 37.0817 83.5349 37.8514 82.1813 38.4088C80.8542 38.9661 79.3811 39.2448 77.7621 39.2448C76.143 39.2448 74.6567 38.9661 73.3031 38.4088C71.976 37.8514 70.8214 37.0817 69.8394 36.0997C68.8574 35.0911 68.1009 33.9365 67.5701 32.636C67.0658 31.3089 66.8137 29.9022 66.8137 28.4159C66.8137 26.9295 67.0658 25.5361 67.5701 24.2356C68.1009 22.9085 68.8574 21.7539 69.8394 20.7719C70.8214 19.7633 71.976 18.9803 73.3031 18.4229C74.6567 17.8656 76.143 17.5869 77.7621 17.5869Z" fill="#2845C1"/>
</svg>
