<svg width="103" height="44" viewBox="0 0 103 44" fill="none" xmlns="http://www.w3.org/2000/svg">
<path fill-rule="evenodd" clip-rule="evenodd" d="M91.1183 14.3779C93.0275 14.378 94.6624 14.8309 96.0229 15.7376C97.4072 16.6207 98.4702 17.8027 99.2102 19.2825C99.974 20.7385 100.357 22.3502 100.357 24.1165C100.357 25.4294 100.142 26.6713 99.712 27.841C99.2824 29.0106 98.6606 30.0491 97.849 30.9562C97.0614 31.8631 96.0942 32.5796 94.9486 33.1047C93.8269 33.6057 92.5501 33.8566 91.1183 33.8566C89.877 33.8566 88.7783 33.6532 87.8235 33.2474C86.8689 32.8416 86.0335 32.257 85.3175 31.4933C85.2786 31.4518 85.2101 31.4776 85.2101 31.5345V41.6343C85.2101 41.8078 85.0694 41.9485 84.8958 41.9485H81.585C81.4115 41.9485 81.2708 41.8078 81.2708 41.6343V15.4074C81.2708 15.2338 81.4115 15.0931 81.585 15.0931H84.8958C85.0694 15.0931 85.2101 15.2338 85.2101 15.4074V16.6989C85.2101 16.7553 85.2783 16.7818 85.3175 16.7412C86.0336 15.9774 86.8687 15.3914 87.8235 14.9856C88.7783 14.5798 89.877 14.3779 91.1183 14.3779ZM90.6165 18.0656C89.4949 18.0656 88.4688 18.328 87.5381 18.8528C86.7723 19.2848 86.0959 19.8714 85.508 20.6106C85.3065 20.864 85.2101 21.1827 85.2101 21.5064V26.7253C85.2101 27.0489 85.3064 27.3675 85.5077 27.6208C86.0957 28.3608 86.7717 28.9479 87.5381 29.3802C88.4688 29.9051 89.4948 30.1674 90.6165 30.1674C91.7623 30.1674 92.7535 29.9053 93.589 29.3802C94.4243 28.8312 95.0691 28.1034 95.5226 27.1964C96 26.2894 96.2377 25.2623 96.2377 24.1165C96.2376 22.9711 95.9997 21.945 95.5226 21.0381C95.0691 20.1312 94.4242 19.4148 93.589 18.8897C92.7535 18.3406 91.7623 18.0656 90.6165 18.0656Z" fill="#2845C1"/>
<path d="M30.7733 14.3779C32.4202 14.3779 33.8886 14.7118 35.1776 15.38C36.3928 15.9766 37.4036 16.7782 38.2098 17.7838C38.3176 17.9184 38.2895 18.1143 38.1521 18.2186L35.5533 20.19C35.4082 20.3001 35.201 20.2635 35.0908 20.1185C34.6597 19.5511 34.1042 19.0814 33.4235 18.7101C32.6597 18.2804 31.7644 18.0656 30.738 18.0656C29.9025 18.0656 29.1261 18.2203 28.41 18.5306C27.7181 18.8408 27.1218 19.2709 26.6207 19.8196C26.1195 20.3685 25.7254 21.0134 25.439 21.7532C25.1526 22.4692 25.0094 23.2573 25.0093 24.1165C25.0093 25.2623 25.26 26.3008 25.7613 27.2317C26.2626 28.1388 26.9429 28.855 27.8023 29.3802C28.6616 29.9053 29.6644 30.1674 30.8101 30.1674C31.7886 30.1674 32.6598 29.9525 33.4235 29.5229C34.1039 29.1517 34.6597 28.6829 35.0908 28.116C35.201 27.971 35.4082 27.9344 35.5533 28.0445L38.1495 30.014C38.2879 30.119 38.3153 30.3169 38.2052 30.4513C37.3998 31.4353 36.3904 32.2356 35.1776 32.853C33.8886 33.5213 32.4203 33.8566 30.7733 33.8566C28.7445 33.8565 26.9895 33.4139 25.5096 32.5307C24.03 31.6237 22.8851 30.4302 22.0736 28.9505C21.2859 27.4705 20.892 25.8591 20.892 24.1165C20.892 22.8039 21.1184 21.563 21.5718 20.3936C22.0253 19.2241 22.6815 18.1853 23.5407 17.2783C24.4 16.3713 25.4386 15.6665 26.656 15.1652C27.8732 14.6401 29.2458 14.378 30.7733 14.3779Z" fill="#2845C1"/>
<path fill-rule="evenodd" clip-rule="evenodd" d="M69.0815 14.3779C70.7284 14.378 72.1252 14.6759 73.2709 15.2726C74.4165 15.8694 75.2762 16.6931 75.849 17.7433C76.4457 18.7936 76.7437 19.9754 76.7437 21.2882V32.8257C76.7437 32.9992 76.603 33.1399 76.4294 33.1399H73.1187C72.9451 33.1399 72.8044 32.9992 72.8044 32.8257V31.6323C72.8044 31.484 72.6123 31.4138 72.509 31.5202C72.3491 31.685 72.1736 31.8429 71.9818 31.9936C71.3374 32.5187 70.5852 32.9256 69.726 33.2121C68.8666 33.5224 67.9942 33.6771 67.111 33.6771C65.3449 33.6769 63.9006 33.2 62.7789 32.2453C61.6569 31.2904 61.0969 30.0127 61.0969 28.4134C61.097 27.0529 61.6098 25.8954 62.6361 24.9406C63.6626 23.9858 65.1423 23.3526 67.0757 23.0423L72.5427 22.1138C72.6938 22.0881 72.8044 21.9572 72.8044 21.8039V21.2882C72.8044 20.2141 72.4463 19.379 71.7302 18.7822C71.0141 18.1616 70.083 17.8507 68.9372 17.8507C68.0065 17.8508 67.1596 18.0543 66.3959 18.46C65.7494 18.8145 65.194 19.2873 64.7297 19.8786C64.6193 20.0192 64.416 20.0513 64.2741 19.9427L61.8761 18.1081C61.7412 18.0049 61.7122 17.8128 61.8163 17.6786C62.5778 16.6967 63.5429 15.9186 64.7124 15.3447C66.0015 14.7002 67.4582 14.3779 69.0815 14.3779ZM68.0778 25.6572C67.0042 25.8243 66.2287 26.1339 65.7514 26.5872C65.2741 27.0167 65.0349 27.5658 65.0347 28.2338C65.0347 28.9022 65.2854 29.4523 65.7867 29.882C66.3118 30.3117 67.0166 30.5265 67.8998 30.5265C68.9977 30.5265 69.9648 30.2758 70.8002 29.7746C71.3524 29.4432 71.836 29.0381 72.2521 28.5603C72.6476 28.1062 72.8044 27.5024 72.8044 26.9002V25.2438C72.8044 25.0497 72.6301 24.902 72.4387 24.9337L68.0778 25.6572Z" fill="#2845C1"/>
<path d="M21.8741 11.7357C21.8741 11.9093 21.7334 12.05 21.5599 12.05H14.2392C14.0656 12.05 13.9249 12.1907 13.9249 12.3642V32.8257C13.9249 32.9992 13.7842 33.1399 13.6106 33.1399H9.83492C9.66134 33.1399 9.52063 32.9992 9.52063 32.8257V12.3642C9.52063 12.1907 9.37992 12.05 9.20634 12.05H1.8857C1.71212 12.05 1.57141 11.9093 1.57141 11.7357V8.38964C1.57141 8.21606 1.71212 8.07535 1.8857 8.07535H21.5599C21.7334 8.07535 21.8741 8.21606 21.8741 8.38964V11.7357Z" fill="#2845C1"/>
<path d="M45.0128 15.956C45.0128 16.2393 45.366 16.3854 45.5815 16.2017C46.1038 15.7562 46.6901 15.3748 47.3408 15.0578C48.2716 14.6043 49.3577 14.378 50.5988 14.3779C51.9355 14.3779 53.1302 14.6758 54.1805 15.2726C55.2545 15.8694 56.1012 16.7534 56.7218 17.9229C57.3424 19.0925 57.6533 20.5608 57.6533 22.3272V32.8257C57.6533 32.9992 57.5126 33.1399 57.339 33.1399H53.993C53.8194 33.1399 53.6787 32.9992 53.6787 32.8257V22.4699C53.6787 21.0854 53.3206 20.0111 52.6045 19.2472C51.8884 18.4596 50.9098 18.0657 49.6688 18.0656C48.8811 18.0656 48.1877 18.2203 47.5909 18.5306C46.9943 18.817 46.4813 19.1881 46.0517 19.6416C45.6656 20.0732 45.3327 20.5263 45.0546 21.0012C45.027 21.0484 45.0128 21.1022 45.0128 21.1569V32.8257C45.0128 32.9992 44.8721 33.1399 44.6985 33.1399H41.3893C41.2157 33.1399 41.075 32.9992 41.075 32.8257V6.6003C41.075 6.42672 41.2157 6.28601 41.3893 6.28601H44.6985C44.8721 6.28601 45.0128 6.42672 45.0128 6.6003V15.956Z" fill="#2845C1"/>
</svg>
