<svg width="190" height="40" viewBox="0 0 190 40" fill="none" xmlns="http://www.w3.org/2000/svg">
<path fill-rule="evenodd" clip-rule="evenodd" d="M113.65 9.06194C115.118 9.06201 116.397 9.31482 117.49 9.81566C117.507 9.8236 117.516 9.82756 117.524 9.83052C117.541 9.8363 117.556 9.83978 117.574 9.8413C117.582 9.84208 117.592 9.84208 117.61 9.84208H124.499C124.575 9.84208 124.613 9.84208 124.644 9.85236C124.704 9.87227 124.751 9.9191 124.771 9.97878C124.781 10.0096 124.781 10.0478 124.781 10.1241V13.2331C124.781 13.3094 124.781 13.3475 124.771 13.3784C124.751 13.438 124.704 13.4849 124.644 13.5048C124.613 13.5151 124.575 13.5151 124.499 13.5151H121.417C121.307 13.5151 121.252 13.5151 121.216 13.5298C121.143 13.5594 121.097 13.6218 121.091 13.7003C121.089 13.7393 121.106 13.7945 121.142 13.9051C121.353 14.5603 121.461 15.2504 121.461 15.976C121.461 17.2515 121.148 18.4226 120.524 19.49C119.925 20.5574 119.04 21.4046 117.868 22.0296C116.697 22.6545 115.29 22.967 113.65 22.9671C112.896 22.9671 112.189 22.899 111.532 22.7627C111.491 22.7542 111.47 22.7499 111.451 22.7497C111.414 22.7493 111.377 22.7594 111.345 22.7785C111.329 22.7885 111.315 22.8013 111.286 22.8268C111.181 22.9228 111.082 23.0203 110.993 23.1228C110.654 23.4872 110.486 23.8782 110.486 24.2946C110.486 24.6852 110.603 24.9978 110.837 25.2321C111.072 25.4405 111.436 25.5452 111.93 25.5452H117.165C118.857 25.5453 120.263 25.8189 121.382 26.3655C122.528 26.8863 123.375 27.6161 123.922 28.5536C124.495 29.4909 124.781 30.5584 124.781 31.7561C124.781 32.8237 124.534 33.813 124.039 34.7243C123.57 35.6358 122.88 36.4295 121.968 37.1066C121.083 37.8096 120.016 38.3442 118.766 38.7087C117.516 39.0993 116.136 39.2946 114.626 39.2946C112.595 39.2946 110.837 39.0478 109.352 38.553C107.894 38.0843 106.761 37.3811 105.954 36.4436C105.173 35.5064 104.782 34.3605 104.782 33.0067C104.782 31.783 105.146 30.7013 105.875 29.764C106.262 29.2801 106.734 28.8179 107.29 28.378C107.366 28.3181 107.403 28.2881 107.422 28.2593C107.459 28.1993 107.464 28.1378 107.436 28.0728C107.422 28.0415 107.388 28.0042 107.319 27.9296C107.108 27.7028 106.926 27.4551 106.774 27.1858C106.462 26.5869 106.305 25.9618 106.305 25.3108C106.305 24.2952 106.618 23.3967 107.243 22.6155C107.513 22.2807 107.843 21.964 108.234 21.6651C108.323 21.5976 108.367 21.5638 108.386 21.5323C108.426 21.4671 108.428 21.3981 108.391 21.3311C108.373 21.2986 108.331 21.2626 108.246 21.1907C107.672 20.7055 107.193 20.1396 106.813 19.49C106.188 18.4227 105.875 17.2513 105.875 15.976C105.875 14.726 106.188 13.579 106.813 12.5374C107.438 11.4698 108.324 10.6244 109.469 9.99944C110.641 9.37446 112.035 9.06194 113.65 9.06194ZM110.662 29.2567C110.632 29.2567 110.618 29.2567 110.603 29.2588C110.576 29.2628 110.549 29.273 110.525 29.2877C110.513 29.2955 110.502 29.3046 110.481 29.3229C110.083 29.6644 109.733 30.0323 109.431 30.4286C109.04 31.0014 108.845 31.6782 108.845 32.4593C108.845 33.1362 109.065 33.7224 109.508 34.2171C109.977 34.7379 110.628 35.1285 111.462 35.389C112.321 35.6754 113.363 35.8175 114.587 35.8175C115.863 35.8175 116.943 35.6612 117.828 35.3488C118.713 35.0624 119.378 34.6339 119.82 34.0614C120.289 33.5145 120.524 32.8753 120.524 32.1462C120.523 31.5997 120.406 31.1054 120.172 30.6629C119.938 30.2463 119.547 29.9072 119 29.6468C118.453 29.3864 117.698 29.2567 116.735 29.2567H110.662ZM113.688 12.303C112.881 12.303 112.178 12.4734 111.579 12.8119C111.006 13.1244 110.564 13.5542 110.251 14.101C109.965 14.6478 109.821 15.2731 109.821 15.976C109.821 16.6788 109.965 17.3168 110.251 17.8895C110.564 18.4622 111.006 18.9047 111.579 19.2171C112.178 19.5296 112.881 19.6858 113.688 19.6858C114.495 19.6858 115.186 19.5296 115.759 19.2171C116.332 18.8786 116.762 18.4362 117.048 17.8895C117.36 17.3168 117.517 16.6788 117.517 15.976C117.517 15.2469 117.361 14.6077 117.048 14.0608C116.762 13.5141 116.332 13.0842 115.759 12.7718C115.186 12.4593 114.495 12.303 113.688 12.303Z" fill="#2845C1"/>
<path fill-rule="evenodd" clip-rule="evenodd" d="M40.6736 9.06194C42.0275 9.06194 43.2514 9.28239 44.345 9.72489C45.4386 10.1675 46.3763 10.7803 47.1575 11.5614C47.9647 12.3426 48.5773 13.2677 48.994 14.3354C49.4104 15.4028 49.6184 16.5612 49.6184 17.8108C49.6184 18.2796 49.5935 18.7359 49.5414 19.1786C49.5012 19.5197 49.453 19.8144 49.3972 20.0627C49.3852 20.1161 49.3792 20.1428 49.3659 20.1672C49.3411 20.2129 49.2948 20.25 49.2448 20.2642C49.218 20.2718 49.1887 20.2718 49.1301 20.2718H35.3081C35.2275 20.2718 35.1872 20.2718 35.1547 20.2834C35.0926 20.3055 35.0435 20.3597 35.0277 20.4236C35.0194 20.4572 35.0232 20.496 35.031 20.5738C35.1369 21.6369 35.3894 22.5519 35.7919 23.3186C36.3388 24.3601 37.1062 25.1416 38.0955 25.6624C39.0851 26.1832 40.2055 26.4442 41.4555 26.4442C42.6271 26.4441 43.6821 26.2098 44.6195 25.7411C45.4853 25.3198 46.1931 24.7718 46.7434 24.0982C46.7974 24.032 46.8244 23.9989 46.8516 23.9816C46.9061 23.947 46.9676 23.9404 47.0282 23.9628C47.0584 23.9739 47.0898 23.999 47.1526 24.0491L49.7968 26.1569C49.8541 26.2026 49.8828 26.2255 49.9005 26.2527C49.934 26.3043 49.9418 26.372 49.9208 26.4299C49.9098 26.4603 49.8879 26.488 49.844 26.5435C48.9562 27.6666 47.8256 28.5711 46.4543 29.2567C44.9962 29.9596 43.3426 30.3114 41.494 30.3114C39.2024 30.3114 37.2491 29.8284 35.6346 28.865C34.0204 27.8755 32.784 26.5735 31.9248 24.9593C31.0654 23.3447 30.6357 21.5868 30.6357 19.6858C30.6357 18.2017 30.8561 16.8216 31.2986 15.5458C31.7674 14.2698 32.4315 13.1493 33.2908 12.1858C34.1501 11.1964 35.2052 10.4291 36.4549 9.88225C37.7048 9.33542 39.1113 9.06196 40.6736 9.06194ZM40.5565 12.6161C39.4109 12.6161 38.409 12.8772 37.5498 13.3979C36.7165 13.9187 36.0773 14.6859 35.6346 15.7015C35.482 16.0424 35.3573 16.4117 35.258 16.8085C35.237 16.8923 35.2265 16.9342 35.2313 16.9715C35.2403 17.0424 35.2904 17.1065 35.3569 17.1325C35.392 17.1462 35.4371 17.1462 35.5273 17.1462H45.1035C45.1802 17.1462 45.2186 17.1462 45.251 17.1347C45.3116 17.1132 45.3622 17.0578 45.378 16.9955C45.3865 16.9621 45.3832 16.9267 45.3767 16.8557C45.3178 16.2155 45.1311 15.6099 44.8137 15.0385C44.4493 14.3096 43.916 13.7233 43.2133 13.2807C42.5102 12.838 41.6241 12.6161 40.5565 12.6161Z" fill="#2845C1"/>
<path d="M59.1976 9.06194C60.6298 9.06198 61.9582 9.3745 63.182 9.99944C64.3406 10.5788 65.2648 11.3034 65.9536 12.1737C65.9949 12.2259 66.0156 12.2521 66.0267 12.2818C66.0474 12.3379 66.0409 12.4049 66.0096 12.4559C65.9931 12.4829 65.9663 12.5057 65.9129 12.5513L63.4133 14.6838C63.3504 14.7375 63.319 14.7643 63.2881 14.7765C63.2267 14.8009 63.1623 14.7947 63.1066 14.7591C63.0787 14.7412 63.0516 14.7073 62.9975 14.6395C62.5435 14.0699 62.0188 13.5908 61.4242 13.202C60.7472 12.7594 60.0048 12.5374 59.1976 12.5374C58.6247 12.5374 58.1294 12.6421 57.7127 12.8504C57.3223 13.0587 57.0236 13.3324 56.8154 13.6708C56.6331 14.0093 56.5408 14.3875 56.5408 14.8041C56.541 15.4288 56.7629 15.9496 57.2055 16.3661C57.674 16.7565 58.273 17.0942 59.0018 17.3806C59.7309 17.667 60.4998 17.9796 61.307 18.3181C62.1403 18.6306 62.9216 19.0212 63.6508 19.49C64.3799 19.9326 64.9659 20.5328 65.4086 21.2879C65.877 22.0169 66.1116 22.941 66.1117 24.0603C66.1117 25.3883 65.785 26.5212 65.134 27.4587C64.509 28.3701 63.6762 29.0733 62.6346 29.5681C61.593 30.0628 60.4475 30.3114 59.1976 30.3114C57.505 30.3114 56.033 29.9989 54.783 29.3739C53.6138 28.7649 52.5812 27.9612 51.6854 26.9648C51.6368 26.9108 51.6126 26.8838 51.5996 26.8537C51.5748 26.7965 51.5788 26.7281 51.6101 26.6741C51.6265 26.6458 51.6546 26.6211 51.7107 26.5717L54.2096 24.3727C54.2699 24.3196 54.3001 24.2931 54.3304 24.2804C54.3902 24.2554 54.4548 24.2601 54.5105 24.2934C54.5386 24.3103 54.5656 24.342 54.6195 24.4055C55.1965 25.0839 55.837 25.6469 56.5408 26.0926C57.3221 26.5874 58.1956 26.8343 59.1591 26.8343C60.0701 26.8341 60.7597 26.5996 61.2283 26.1311C61.723 25.6365 61.9698 25.0377 61.97 24.3348C61.97 23.6838 61.7356 23.1618 61.2668 22.7712C60.8244 22.381 60.239 22.0429 59.5107 21.7567C58.7817 21.4703 58 21.1701 57.167 20.8577C56.3598 20.5192 55.5908 20.116 54.8617 19.6473C54.1326 19.1786 53.5341 18.5785 53.0654 17.8493C52.6229 17.0942 52.4008 16.1314 52.4008 14.9598C52.4008 13.8664 52.687 12.8768 53.2596 11.9916C53.8325 11.0802 54.6279 10.3629 55.6435 9.84208C56.685 9.32151 57.8699 9.06194 59.1976 9.06194Z" fill="#2845C1"/>
<path d="M75.4197 9.06194C76.852 9.06194 78.1802 9.37446 79.4041 9.99944C80.5629 10.5788 81.4868 11.3034 82.1757 12.1737C82.217 12.2259 82.2377 12.2521 82.2488 12.2818C82.2695 12.3379 82.263 12.4049 82.2317 12.4559C82.2152 12.4829 82.1884 12.5057 82.135 12.5513L79.6354 14.6838C79.5725 14.7375 79.541 14.7643 79.5102 14.7765C79.4488 14.8009 79.3844 14.7947 79.3287 14.7591C79.3008 14.7413 79.2737 14.7073 79.2196 14.6395C78.7655 14.0699 78.241 13.5908 77.6463 13.202C76.9693 12.7593 76.227 12.5374 75.4197 12.5374C74.8472 12.5374 74.353 12.6423 73.9365 12.8504C73.5459 13.0588 73.2458 13.3322 73.0375 13.6708C72.8552 14.0093 72.7646 14.3875 72.7646 14.8041C72.7648 15.4287 72.9851 15.9496 73.4276 16.3661C73.8961 16.7565 74.4952 17.0942 75.2239 17.3806C75.9529 17.667 76.722 17.9796 77.5291 18.3181C78.3623 18.6305 79.1438 19.0213 79.8729 19.49C80.602 19.9326 81.188 20.5328 81.6307 21.2879C82.0992 22.0169 82.3337 22.9409 82.3338 24.0603C82.3338 25.3881 82.0086 26.5213 81.3578 27.4587C80.7328 28.3701 79.8983 29.0733 78.8567 29.5681C77.8152 30.0627 76.6695 30.3114 75.4197 30.3114C73.7276 30.3114 72.2565 29.9986 71.0068 29.3739C69.8376 28.7649 68.805 27.9612 67.9092 26.9648C67.8606 26.9108 67.8363 26.8838 67.8234 26.8537C67.7986 26.7965 67.8026 26.7281 67.8339 26.6741C67.8503 26.6458 67.8783 26.6211 67.9345 26.5717L70.4334 24.3727C70.4937 24.3196 70.5238 24.2931 70.5541 24.2804C70.614 24.2554 70.6786 24.2601 70.7342 24.2934C70.7624 24.3103 70.7894 24.342 70.8433 24.4055C71.4203 25.0839 72.0608 25.6469 72.7646 26.0926C73.5456 26.5871 74.4181 26.8343 75.3812 26.8343C76.2923 26.8342 76.9818 26.5996 77.4504 26.1311C77.9451 25.6365 78.1936 25.0377 78.1937 24.3348C78.1937 23.6838 77.9593 23.1618 77.4906 22.7712C77.048 22.3807 76.4617 22.0431 75.7328 21.7567C75.0037 21.4703 74.2223 21.1702 73.3891 20.8577C72.5818 20.5192 71.8129 20.1161 71.0838 19.6473C70.3547 19.1786 69.7562 18.5784 69.2875 17.8493C68.845 17.0943 68.6229 16.1313 68.6229 14.9598C68.6229 13.8662 68.9105 12.877 69.4834 11.9916C70.0563 11.0802 70.85 10.3629 71.8656 9.84208C72.9071 9.32141 74.0919 9.06198 75.4197 9.06194Z" fill="#2845C1"/>
<path fill-rule="evenodd" clip-rule="evenodd" d="M135.1 9.06194C136.454 9.06197 137.678 9.28232 138.771 9.72489C139.865 10.1676 140.803 10.7802 141.584 11.5614C142.391 12.3426 143.004 13.2677 143.42 14.3354C143.837 15.4028 144.045 16.5613 144.045 17.8108C144.045 18.2796 144.018 18.7359 143.966 19.1786C143.926 19.5196 143.879 19.8143 143.823 20.0627C143.811 20.1159 143.806 20.1425 143.792 20.167C143.768 20.2127 143.721 20.2499 143.671 20.2641C143.644 20.2718 143.615 20.2718 143.556 20.2718H129.735C129.654 20.2718 129.614 20.2718 129.581 20.2834C129.519 20.3055 129.47 20.3596 129.454 20.4236C129.446 20.4571 129.45 20.496 129.457 20.5738C129.563 21.6368 129.814 22.5519 130.217 23.3186C130.763 24.3603 131.532 25.1416 132.522 25.6624C133.511 26.1832 134.632 26.4442 135.882 26.4442C137.053 26.4441 138.107 26.2094 139.044 25.7411C139.91 25.3198 140.619 24.772 141.17 24.0982C141.224 24.032 141.251 23.9989 141.278 23.9817C141.333 23.947 141.394 23.9405 141.455 23.9628C141.485 23.974 141.516 23.9991 141.579 24.0492L144.222 26.1569C144.279 26.2026 144.308 26.2255 144.325 26.2526C144.359 26.3042 144.367 26.372 144.346 26.4298C144.334 26.4603 144.313 26.488 144.269 26.5434C143.381 27.6664 142.252 28.5712 140.881 29.2567C139.423 29.9596 137.769 30.3114 135.92 30.3114C133.629 30.3114 131.675 29.8285 130.061 28.865C128.446 27.8754 127.209 26.5737 126.349 24.9593C125.49 23.3448 125.06 21.5867 125.06 19.6858C125.06 18.2017 125.282 16.8216 125.725 15.5458C126.194 14.2698 126.858 13.1493 127.717 12.1858C128.576 11.1964 129.631 10.4291 130.881 9.88225C132.131 9.3354 133.538 9.06194 135.1 9.06194ZM134.983 12.6161C133.837 12.6161 132.834 12.8771 131.974 13.3979C131.142 13.9186 130.504 14.6863 130.061 15.7015C129.908 16.0424 129.784 16.4117 129.684 16.8085C129.663 16.8923 129.653 16.9342 129.658 16.9715C129.667 17.0424 129.717 17.1065 129.783 17.1325C129.818 17.1462 129.863 17.1462 129.954 17.1462H139.53C139.607 17.1462 139.645 17.1462 139.677 17.1347C139.738 17.1132 139.789 17.0577 139.804 16.9955C139.813 16.9621 139.81 16.9266 139.803 16.8557C139.744 16.2155 139.557 15.6099 139.24 15.0385C138.875 14.3094 138.341 13.7234 137.638 13.2807C136.935 12.8381 136.05 12.6161 134.983 12.6161Z" fill="#2845C1"/>
<path fill-rule="evenodd" clip-rule="evenodd" d="M180.461 9.04817C181.815 9.04817 183.04 9.26842 184.134 9.71112C185.228 10.1538 186.166 10.7665 186.947 11.5476C187.754 12.3288 188.365 13.2541 188.782 14.3216C189.198 15.3891 189.408 16.5474 189.408 17.7971C189.408 18.2658 189.381 18.7221 189.329 19.1648C189.289 19.506 189.241 19.8006 189.185 20.049C189.173 20.1023 189.167 20.129 189.153 20.1535C189.129 20.1991 189.082 20.2362 189.032 20.2504C189.006 20.258 188.976 20.258 188.918 20.258H175.096C175.015 20.258 174.975 20.258 174.942 20.2696C174.88 20.2917 174.831 20.3459 174.815 20.4099C174.807 20.4434 174.811 20.4823 174.819 20.56C174.924 21.6231 175.177 22.5381 175.58 23.3049C176.126 24.3463 176.894 25.1278 177.883 25.6486C178.873 26.1694 179.993 26.4304 181.243 26.4304C182.415 26.4304 183.47 26.196 184.407 25.7273C185.273 25.306 185.982 24.7583 186.533 24.0845C186.587 24.0183 186.614 23.9852 186.641 23.9679C186.695 23.9333 186.757 23.9267 186.817 23.9491C186.848 23.9602 186.879 23.9853 186.942 24.0354L189.584 26.1431C189.642 26.1889 189.67 26.2117 189.688 26.2389C189.722 26.2905 189.729 26.3582 189.708 26.416C189.697 26.4465 189.675 26.4742 189.632 26.5297C188.744 27.6527 187.615 28.5574 186.244 29.2429C184.785 29.946 183.13 30.2976 181.282 30.2976C178.99 30.2975 177.037 29.8146 175.422 28.8512C173.808 27.8617 172.572 26.5597 171.712 24.9455C170.853 23.331 170.423 21.573 170.423 19.6721C170.423 18.1878 170.645 16.8079 171.088 15.532C171.557 14.256 172.221 13.1356 173.08 12.1721C173.939 11.183 174.993 10.4152 176.242 9.86848C177.492 9.3217 178.899 9.04824 180.461 9.04817ZM180.344 12.6023C179.198 12.6024 178.197 12.8634 177.337 13.3841C176.504 13.9049 175.865 14.6721 175.422 15.6877C175.27 16.0286 175.146 16.3979 175.047 16.7947C175.026 16.8786 175.016 16.9206 175.02 16.9579C175.03 17.0288 175.08 17.0928 175.146 17.1188C175.181 17.1324 175.226 17.1324 175.317 17.1324H184.893C184.969 17.1324 185.008 17.1324 185.04 17.1209C185.101 17.0995 185.151 17.044 185.167 16.9817C185.176 16.9484 185.172 16.9129 185.166 16.8419C185.107 16.2018 184.92 15.596 184.603 15.0247C184.238 14.2957 183.704 13.7096 183.001 13.2669C182.298 12.8242 181.412 12.6023 180.344 12.6023Z" fill="#2845C1"/>
<path fill-rule="evenodd" clip-rule="evenodd" d="M93.5537 9.06194C95.3505 9.06194 96.874 9.38694 98.124 10.0379C99.3739 10.689 100.312 11.5875 100.936 12.7333C101.587 13.879 101.912 15.1682 101.912 16.6004V29.2476C101.912 29.3239 101.912 29.3621 101.902 29.3929C101.882 29.4526 101.835 29.4994 101.776 29.5193C101.745 29.5296 101.707 29.5296 101.63 29.5296H97.8987C97.8224 29.5296 97.7842 29.5296 97.7534 29.5193C97.6938 29.4994 97.6469 29.4526 97.627 29.3929C97.6167 29.3621 97.6167 29.3239 97.6167 29.2476V27.7971C97.6167 27.6968 97.6167 27.6466 97.605 27.6245C97.5811 27.5798 97.5326 27.5606 97.4846 27.5769C97.4609 27.5849 97.4253 27.6228 97.354 27.6987C97.1634 27.9016 96.9516 28.0952 96.7177 28.279C96.0146 28.8519 95.1943 29.2958 94.2568 29.6083C93.3195 29.9467 92.3691 30.1155 91.4058 30.1155C89.4791 30.1155 87.9036 29.5948 86.6798 28.5536C85.4559 27.5119 84.8433 26.1181 84.8433 24.3733C84.8433 22.8892 85.403 21.6264 86.5224 20.5848C87.6422 19.5432 89.258 18.8525 91.3673 18.514L97.3819 17.4924C97.4465 17.4815 97.4788 17.476 97.5048 17.4633C97.555 17.4386 97.5926 17.3941 97.6085 17.3404C97.6167 17.3126 97.6167 17.2799 97.6167 17.2144V16.6004C97.6167 15.4289 97.2257 14.5176 96.4449 13.8666C95.6637 13.1896 94.6478 12.8505 93.398 12.8504C92.3824 12.8504 91.4573 13.0724 90.624 13.5151C89.9006 13.9118 89.2816 14.4442 88.7674 15.1127C88.7157 15.1799 88.6899 15.2134 88.663 15.2316C88.6094 15.2678 88.5471 15.276 88.486 15.2549C88.4553 15.2443 88.4234 15.2199 88.3596 15.1711L85.6464 13.0953C85.5881 13.0507 85.5589 13.0284 85.5407 13.0015C85.5061 12.9504 85.4971 12.8825 85.5171 12.8242C85.5277 12.7935 85.5491 12.7655 85.592 12.7094C86.4285 11.616 87.4945 10.7517 88.7892 10.1166C90.1952 9.41367 91.7831 9.06197 93.5537 9.06194ZM92.4605 21.365C91.2886 21.5472 90.4417 21.8864 89.9209 22.3811C89.4003 22.8497 89.1409 23.4486 89.1407 24.1775C89.1407 24.9066 89.4142 25.5067 89.961 25.9754C90.5338 26.4437 91.3016 26.6785 92.2646 26.6786C93.4623 26.6786 94.5173 26.405 95.4287 25.8583C96.2029 25.3937 96.8537 24.7964 97.3833 24.0686C97.4367 23.9952 97.4633 23.9586 97.4943 23.9019C97.5482 23.8032 97.594 23.6626 97.6084 23.551C97.6167 23.487 97.6167 23.4292 97.6167 23.3135V20.6774C97.6167 20.6332 97.6167 20.6111 97.6105 20.5943C97.5983 20.5616 97.57 20.5376 97.5358 20.5309C97.5181 20.5275 97.4963 20.5311 97.4527 20.5383L92.4605 21.365Z" fill="#2845C1"/>
<path d="M13.1173 14.2274C13.1788 14.3315 13.2096 14.3836 13.2449 14.4084C13.3137 14.4567 13.4054 14.4568 13.4744 14.4086C13.5097 14.3839 13.5406 14.332 13.6024 14.228L20.6602 2.35297C20.6834 2.31403 20.6949 2.29457 20.7094 2.27896C20.7373 2.24891 20.7738 2.22816 20.8139 2.21953C20.8347 2.21505 20.8573 2.21505 20.9026 2.21505H26.4753C26.5516 2.21505 26.5897 2.21505 26.6206 2.22533C26.6802 2.24524 26.7271 2.29207 26.747 2.35175C26.7573 2.38257 26.7573 2.42073 26.7573 2.49705V29.2762C26.7573 29.3526 26.7573 29.3907 26.747 29.4215C26.7271 29.4812 26.6802 29.5281 26.6206 29.548C26.5897 29.5582 26.5516 29.5582 26.4753 29.5582H22.2346C22.1582 29.5582 22.1201 29.5582 22.0893 29.548C22.0296 29.5281 21.9828 29.4812 21.9628 29.4215C21.9526 29.3907 21.9526 29.3526 21.9526 29.2762V9.32415C21.9526 9.20745 21.9526 9.1491 21.9387 9.12559C21.9114 9.07925 21.8523 9.06285 21.8049 9.08847C21.7809 9.10148 21.7509 9.15148 21.6907 9.25149L15.1994 20.0466C15.1762 20.0852 15.1646 20.1045 15.1501 20.1199C15.1222 20.1497 15.0859 20.1703 15.046 20.1788C15.0253 20.1832 15.0027 20.1832 14.9577 20.1832H11.7996C11.7545 20.1832 11.732 20.1832 11.7113 20.1788C11.6714 20.1703 11.6351 20.1497 11.6072 20.1199C11.5927 20.1045 11.5811 20.0852 11.5579 20.0466L5.06652 9.25149C5.00639 9.15148 4.97632 9.10148 4.95231 9.08847C4.905 9.06285 4.8459 9.07925 4.81856 9.12559C4.80469 9.1491 4.80469 9.20745 4.80469 9.32415V29.2762C4.80469 29.3526 4.80469 29.3907 4.79441 29.4215C4.7745 29.4812 4.72766 29.5281 4.66798 29.548C4.63717 29.5582 4.59901 29.5582 4.52269 29.5582H0.282C0.205678 29.5582 0.167518 29.5582 0.136705 29.548C0.0770239 29.5281 0.0301909 29.4812 0.01028 29.4215C0 29.3907 0 29.3526 0 29.2762V2.49705C0 2.42073 0 2.38257 0.01028 2.35175C0.0301909 2.29207 0.0770239 2.24524 0.136705 2.22533C0.167518 2.21505 0.205678 2.21505 0.282 2.21505H5.8542C5.8996 2.21505 5.92231 2.21505 5.94317 2.21955C5.98334 2.22822 6.01987 2.24906 6.04779 2.27923C6.06228 2.29489 6.07383 2.31444 6.09694 2.35353L13.1173 14.2274Z" fill="#2845C1"/>
<path d="M157.759 9.45201C158.097 9.45205 158.41 9.47865 158.697 9.53069C158.906 9.56874 159.101 9.6133 159.282 9.66501C159.332 9.6792 159.357 9.68629 159.38 9.70006C159.423 9.72573 159.457 9.77096 159.47 9.81892C159.477 9.84466 159.477 9.87249 159.477 9.92817V13.5825C159.477 13.679 159.477 13.7272 159.464 13.7617C159.437 13.83 159.38 13.8765 159.308 13.8879C159.271 13.8936 159.223 13.8833 159.125 13.8627C158.922 13.8198 158.714 13.7822 158.501 13.7494C158.188 13.6974 157.81 13.6708 157.367 13.6708C156.56 13.6708 155.832 13.8006 155.181 14.0608C154.556 14.3211 154.009 14.673 153.54 15.1155C153.172 15.4427 152.852 15.8022 152.58 16.1937C152.534 16.2599 152.511 16.293 152.483 16.3482C152.433 16.4426 152.389 16.5824 152.376 16.6881C152.368 16.7499 152.368 16.804 152.368 16.9124V29.2476C152.368 29.3239 152.368 29.3621 152.358 29.3929C152.338 29.4526 152.291 29.4994 152.232 29.5193C152.201 29.5296 152.163 29.5296 152.086 29.5296H148.353C148.277 29.5296 148.239 29.5296 148.208 29.5193C148.148 29.4994 148.101 29.4526 148.081 29.3929C148.071 29.3621 148.071 29.3239 148.071 29.2476V10.1241C148.071 10.0478 148.071 10.0096 148.081 9.97878C148.101 9.9191 148.148 9.87227 148.208 9.85236C148.239 9.84208 148.277 9.84208 148.353 9.84208H152.086C152.163 9.84208 152.201 9.84208 152.232 9.85236C152.291 9.87227 152.338 9.9191 152.358 9.97878C152.368 10.0096 152.368 10.0478 152.368 10.1241V11.642C152.368 11.7305 152.368 11.7748 152.38 11.7967C152.403 11.8402 152.452 11.8603 152.499 11.8451C152.523 11.8375 152.554 11.8053 152.617 11.741C152.852 11.4996 153.094 11.2703 153.344 11.0541C153.917 10.5594 154.569 10.1687 155.298 9.88225C156.027 9.59589 156.848 9.45201 157.759 9.45201Z" fill="#2845C1"/>
<path d="M166.911 29.2476C166.911 29.3239 166.911 29.3621 166.901 29.3929C166.881 29.4526 166.834 29.4994 166.775 29.5193C166.744 29.5296 166.706 29.5296 166.629 29.5296H162.898C162.821 29.5296 162.783 29.5296 162.752 29.5193C162.693 29.4994 162.646 29.4526 162.626 29.3929C162.616 29.3621 162.616 29.3239 162.616 29.2476V10.1241C162.616 10.0478 162.616 10.0096 162.626 9.97878C162.646 9.9191 162.693 9.87227 162.752 9.85236C162.783 9.84208 162.821 9.84208 162.898 9.84208H166.629C166.706 9.84208 166.744 9.84208 166.775 9.85236C166.834 9.87227 166.881 9.9191 166.901 9.97878C166.911 10.0096 166.911 10.0478 166.911 10.1241V29.2476Z" fill="#2845C1"/>
<path d="M164.802 0C165.323 0 165.792 0.129824 166.208 0.390067C166.651 0.650475 166.99 1.00206 167.224 1.44475C167.485 1.86136 167.615 2.33026 167.615 2.851C167.614 3.37166 167.485 3.85318 167.224 4.29576C166.99 4.73845 166.651 5.09004 166.208 5.35045C165.792 5.58462 165.323 5.70201 164.802 5.70201C164.281 5.70189 163.8 5.5847 163.357 5.35045C162.915 5.09005 162.563 4.73837 162.303 4.29576C162.042 3.85323 161.913 3.37159 161.913 2.851C161.913 2.06979 162.186 1.40567 162.733 0.858817C163.306 0.286101 163.995 0.000182538 164.802 0Z" fill="#2845C1"/>
</svg>
