<svg width="91" height="48" viewBox="0 0 91 48" fill="none" xmlns="http://www.w3.org/2000/svg">
<path d="M2.05709 37.6286C1.86774 37.6286 1.71423 37.4751 1.71423 37.2858V10.6286C1.71423 10.4393 1.86774 10.2858 2.05709 10.2858H12.3779C14.5393 10.2858 16.5054 10.6503 18.2762 11.3795C20.047 12.1086 21.5704 13.1112 22.8464 14.3872C24.1484 15.6372 25.1379 17.0824 25.815 18.723C26.5181 20.3636 26.8697 22.1083 26.8697 23.9572C26.8697 25.8061 26.5181 27.5508 25.815 29.1914C25.1379 30.832 24.1484 32.2903 22.8464 33.5663C21.5704 34.8162 20.047 35.8058 18.2762 36.5349C16.5054 37.2641 14.5393 37.6286 12.3779 37.6286H2.05709ZM12.417 14.6216H6.86162C6.67227 14.6216 6.51876 14.7751 6.51876 14.9644V32.95C6.51876 33.1393 6.67227 33.2928 6.86162 33.2928H12.417C13.7972 33.2928 15.0602 33.0585 16.2059 32.5897C17.3778 32.095 18.3804 31.4179 19.2137 30.5585C20.073 29.6992 20.737 28.7096 21.2058 27.5899C21.6745 26.4701 21.9089 25.2592 21.9089 23.9572C21.9089 22.6552 21.6745 21.4443 21.2058 20.3245C20.737 19.1787 20.073 18.1892 19.2137 17.3558C18.3804 16.4965 17.3778 15.8325 16.2059 15.3637C15.0602 14.8689 13.7972 14.6216 12.417 14.6216Z" fill="#2845C1"/>
<path d="M40.1038 33.6054C40.9892 33.6054 41.8095 33.4362 42.5646 33.0976C43.3198 32.7331 43.9708 32.2513 44.5177 31.6524C45.0906 31.0534 45.5333 30.3634 45.8458 29.5821C46.1583 28.7749 46.3145 27.9155 46.3145 27.0041C46.3145 25.7541 46.0411 24.6344 45.4942 23.6448C44.9474 22.6553 44.2052 21.874 43.2677 21.3011C42.3303 20.7022 41.2756 20.4027 40.1038 20.4027C39.1924 20.4027 38.346 20.572 37.5648 20.9105C36.8096 21.2491 36.1456 21.7178 35.5727 22.3167C35.0258 22.9157 34.5962 23.6188 34.2837 24.426C33.9712 25.2333 33.8149 26.0927 33.8149 27.0041C33.8149 28.228 34.0884 29.3478 34.6352 30.3634C35.1821 31.3529 35.9242 32.1471 36.8617 32.7461C37.8252 33.319 38.9059 33.6054 40.1038 33.6054ZM40.0647 16.3794C41.6532 16.3794 43.0985 16.6529 44.4005 17.1997C45.7286 17.7466 46.8614 18.5148 47.7988 19.5043C48.7624 20.4678 49.4915 21.6006 49.9863 22.9027C50.5071 24.1787 50.7675 25.5458 50.7675 27.0041C50.7675 28.4624 50.5071 29.8425 49.9863 31.1446C49.4915 32.4206 48.7624 33.5534 47.7988 34.5429C46.8614 35.5064 45.7286 36.2616 44.4005 36.8085C43.0985 37.3553 41.6532 37.6287 40.0647 37.6287C38.4762 37.6287 37.0179 37.3553 35.6899 36.8085C34.3878 36.2616 33.2551 35.5064 32.2915 34.5429C31.328 33.5534 30.5859 32.4206 30.0651 31.1446C29.5703 29.8425 29.3229 28.4624 29.3229 27.0041C29.3229 25.5458 29.5703 24.1787 30.0651 22.9027C30.5859 21.6006 31.328 20.4678 32.2915 19.5043C33.2551 18.5148 34.3878 17.7466 35.6899 17.1997C37.0179 16.6529 38.4762 16.3794 40.0647 16.3794Z" fill="#2845C1"/>
<path d="M63.9174 16.3794C65.7142 16.3794 67.3157 16.744 68.7219 17.4731C70.0476 18.1239 71.1502 18.9978 72.0296 20.0948C72.1473 20.2416 72.1166 20.4553 71.9667 20.5691L69.1318 22.7197C68.9735 22.8398 68.7474 22.7999 68.6272 22.6417C68.1569 22.0228 67.5505 21.5109 66.8079 21.1058C65.9746 20.6371 64.9981 20.4027 63.8783 20.4027C62.9669 20.4027 62.1206 20.572 61.3394 20.9105C60.5842 21.2491 59.9332 21.7178 59.3863 22.3167C58.8394 22.9157 58.4098 23.6188 58.0973 24.426C57.7848 25.2073 57.6285 26.0666 57.6285 27.0041C57.6285 28.254 57.902 29.3868 58.4488 30.4024C58.9957 31.392 59.7379 32.1732 60.6753 32.7461C61.6128 33.319 62.7065 33.6054 63.9565 33.6054C65.0241 33.6054 65.9746 33.3711 66.8079 32.9023C67.5505 32.4973 68.1569 31.9854 68.6272 31.3665C68.7474 31.2083 68.9735 31.1684 69.1318 31.2885L71.9639 33.437C72.1149 33.5515 72.1448 33.7673 72.0247 33.914C71.1461 34.9877 70.0451 35.8614 68.7219 36.535C67.3157 37.2642 65.7142 37.6287 63.9174 37.6287C61.7039 37.6287 59.7899 37.147 58.1754 36.1835C56.5609 35.1939 55.3109 33.8919 54.4255 32.2774C53.5662 30.6628 53.1365 28.9051 53.1365 27.0041C53.1365 25.5718 53.3839 24.2177 53.8787 22.9417C54.3734 21.6657 55.0896 20.5329 56.027 19.5434C56.9645 18.5538 58.0973 17.7856 59.4254 17.2388C60.7534 16.6659 62.2508 16.3794 63.9174 16.3794Z" fill="#2845C1"/>
<path d="M78.7157 22.1214C78.7157 22.7464 78.937 23.2672 79.3797 23.6839C79.8484 24.0745 80.4474 24.413 81.1765 24.6995C81.9057 24.9859 82.6739 25.2984 83.4811 25.6369C84.3144 25.9494 85.0956 26.34 85.8248 26.8088C86.5539 27.2515 87.1399 27.8504 87.5826 28.6056C88.0513 29.3347 88.2857 30.2592 88.2857 31.3789C88.2857 32.707 87.9601 33.8398 87.3091 34.7773C86.6841 35.6887 85.8508 36.3918 84.8092 36.8866C83.7676 37.3814 82.6218 37.6287 81.3718 37.6287C79.6792 37.6287 78.2079 37.3162 76.9579 36.6913C75.8062 36.0914 74.7871 35.3036 73.9007 34.3279C73.7745 34.1891 73.79 33.9745 73.9308 33.8506L76.3366 31.7335C76.4835 31.6043 76.7081 31.6244 76.8359 31.7726C77.4021 32.4292 78.0287 32.975 78.7157 33.4101C79.4969 33.9049 80.3692 34.1523 81.3328 34.1523C82.2442 34.1523 82.9343 33.9179 83.403 33.4492C83.8978 32.9544 84.1452 32.3555 84.1452 31.6524C84.1452 31.0014 83.9108 30.4805 83.4421 30.0899C82.9994 29.6993 82.4135 29.3608 81.6843 29.0743C80.9552 28.7879 80.1739 28.4884 79.3406 28.1759C78.5334 27.8374 77.7652 27.4338 77.036 26.965C76.3069 26.4963 75.7079 25.8974 75.2392 25.1682C74.7965 24.413 74.5752 23.4495 74.5752 22.2777C74.5752 21.184 74.8616 20.1944 75.4345 19.309C76.0074 18.3976 76.8017 17.6815 77.8173 17.1607C78.8589 16.6398 80.0437 16.3794 81.3718 16.3794C82.8041 16.3794 84.1321 16.6919 85.3561 17.3169C86.4953 17.8865 87.4074 18.5967 88.0923 19.4475C88.2048 19.5872 88.1803 19.7895 88.044 19.9059L85.6373 21.9596C85.4855 22.0891 85.2562 22.0616 85.1304 21.9067C84.6859 21.3594 84.1752 20.8971 83.5983 20.5199C82.9212 20.0772 82.1791 19.8559 81.3718 19.8559C80.7989 19.8559 80.3041 19.96 79.8875 20.1684C79.4969 20.3767 79.1974 20.6501 78.9891 20.9887C78.8068 21.3272 78.7157 21.7048 78.7157 22.1214Z" fill="#2845C1"/>
</svg>
