<svg width="156" height="40" viewBox="0 0 156 40" fill="none" xmlns="http://www.w3.org/2000/svg">
<path d="M7.7777 30.9329C7.5322 31.1577 7.1451 31.0746 7.07604 30.7489C7.02535 30.5099 7 30.2309 7 29.9122V18.9152C7 18.5699 7.02535 18.2744 7.07604 18.0287C7.14388 17.741 7.4603 17.672 7.6902 17.8578L14.7827 23.5901C15.0662 23.8191 15.0793 24.2467 14.8106 24.4928L7.7777 30.9329ZM10.0851 33.0001C9.68682 33.0001 9.33196 32.9603 9.02055 32.8806C9.00036 32.8753 8.9804 32.8699 8.96066 32.8644C8.58651 32.7597 8.53839 32.3067 8.82475 32.0441L16.147 25.33C16.3651 25.1299 16.6971 25.1204 16.9264 25.3076L18.113 26.2764C18.4317 26.5288 18.7576 26.7214 19.0907 26.8542C19.4238 26.9803 19.7606 27.0434 20.101 27.0434C20.4413 27.0434 20.7781 26.9803 21.1112 26.8542C21.4516 26.7214 21.7811 26.5288 22.0998 26.2764L23.2864 25.3076C23.5157 25.1204 23.8477 25.1299 24.0658 25.33L31.388 32.0441C31.6744 32.3067 31.6257 32.7586 31.2512 32.862C31.2282 32.8684 31.205 32.8745 31.1814 32.8806C30.8772 32.9603 30.526 33.0001 30.1277 33.0001H10.0851ZM33.1259 30.7489C33.0582 31.0682 32.6785 31.1558 32.4378 30.9354L25.4022 24.4928C25.1334 24.2467 25.1466 23.8191 25.43 23.5901L32.5259 17.8552C32.75 17.6741 33.0598 17.7483 33.1259 18.0287C33.1838 18.2744 33.2128 18.5699 33.2128 18.9152V29.9122C33.2128 30.2309 33.1838 30.5099 33.1259 30.7489Z" fill="#2845C1"/>
<path d="M11.766 18.9183L8.4963 16.2497C7.73691 15.6299 7.73691 14.4695 8.4963 13.8497L18.786 5.4515C19.5236 4.8495 20.583 4.8495 21.3206 5.45151L31.6103 13.8497C32.3697 14.4695 32.3697 15.6299 31.6103 16.2497L28.4468 18.8316V15.3446C28.4468 14.2377 27.5495 13.3404 26.4426 13.3404H13.7701C12.6633 13.3404 11.766 14.2377 11.766 15.3446V18.9183Z" fill="#C83F49"/>
<rect x="8" y="27" width="24" height="9" rx="4.5" fill="#EEF1F4"/>
<rect x="8" y="27" width="24" height="9" rx="4.5" fill="url(#paint0_linear_9138_2139)" fill-opacity="0.1"/>
<path d="M12.3425 33.7364C12.2926 33.7364 12.2676 33.7364 12.2486 33.7267C12.2318 33.7181 12.2182 33.7045 12.2097 33.6877C12.2 33.6687 12.2 33.6437 12.2 33.5939V29.2426C12.2 29.1927 12.2 29.1678 12.2097 29.1487C12.2182 29.132 12.2318 29.1183 12.2486 29.1098C12.2676 29.1001 12.2926 29.1001 12.3425 29.1001H13.5643C14.5313 29.1001 15.1208 29.577 15.1208 30.3585C15.1208 30.6481 15.0195 30.9066 14.8257 31.1069C14.7572 31.1778 14.7229 31.2132 14.7171 31.2365C14.7109 31.2616 14.7123 31.2741 14.7237 31.2973C14.7343 31.3188 14.7739 31.3452 14.8532 31.398C15.1981 31.6276 15.3857 31.9701 15.3857 32.372C15.3857 33.2198 14.73 33.7364 13.6637 33.7364H12.3425ZM13.5842 29.8816H13.283C13.2331 29.8816 13.2081 29.8816 13.1891 29.8913C13.1723 29.8999 13.1587 29.9135 13.1502 29.9303C13.1405 29.9493 13.1405 29.9743 13.1405 30.0241V30.7856C13.1405 30.8355 13.1405 30.8604 13.1502 30.8795C13.1587 30.8962 13.1723 30.9099 13.1891 30.9184C13.2081 30.9281 13.2331 30.9281 13.283 30.9281H13.5842C13.9419 30.9281 14.1538 30.736 14.1538 30.3983C14.1538 30.0737 13.9419 29.8816 13.5842 29.8816ZM13.7167 31.7097H13.283C13.2331 31.7097 13.2081 31.7097 13.1891 31.7194C13.1723 31.7279 13.1587 31.7415 13.1502 31.7583C13.1405 31.7773 13.1405 31.8023 13.1405 31.8522V32.8123C13.1405 32.8622 13.1405 32.8871 13.1502 32.9062C13.1587 32.923 13.1723 32.9366 13.1891 32.9451C13.2081 32.9548 13.2331 32.9548 13.283 32.9548H13.7167C14.1538 32.9548 14.4187 32.723 14.4187 32.3322C14.4187 31.9348 14.1538 31.7097 13.7167 31.7097Z" fill="#2845C1"/>
<path d="M16.4271 33.7364C16.3772 33.7364 16.3523 33.7364 16.3333 33.7267C16.3165 33.7181 16.3029 33.7045 16.2943 33.6877C16.2846 33.6687 16.2846 33.6437 16.2846 33.5939V29.2426C16.2846 29.1927 16.2846 29.1678 16.2943 29.1487C16.3029 29.132 16.3165 29.1183 16.3333 29.1098C16.3523 29.1001 16.3772 29.1001 16.4271 29.1001H18.8444C18.8943 29.1001 18.9192 29.1001 18.9383 29.1098C18.955 29.1183 18.9687 29.132 18.9772 29.1487C18.9869 29.1678 18.9869 29.1927 18.9869 29.2426V29.7391C18.9869 29.789 18.9869 29.814 18.9772 29.833C18.9687 29.8498 18.955 29.8634 18.9383 29.8719C18.9192 29.8816 18.8943 29.8816 18.8444 29.8816H17.3676C17.3177 29.8816 17.2928 29.8816 17.2738 29.8913C17.257 29.8999 17.2434 29.9135 17.2348 29.9303C17.2251 29.9493 17.2251 29.9743 17.2251 30.0241V30.8386C17.2251 30.8885 17.2251 30.9134 17.2348 30.9325C17.2434 30.9492 17.257 30.9629 17.2738 30.9714C17.2928 30.9811 17.3177 30.9811 17.3676 30.9811H18.5795C18.6294 30.9811 18.6543 30.9811 18.6733 30.9908C18.6901 30.9993 18.7037 31.013 18.7123 31.0297C18.722 31.0488 18.722 31.0737 18.722 31.1236V31.6201C18.722 31.67 18.722 31.695 18.7123 31.714C18.7037 31.7308 18.6901 31.7444 18.6733 31.7529C18.6543 31.7626 18.6294 31.7626 18.5795 31.7626H17.3676C17.3177 31.7626 17.2928 31.7626 17.2738 31.7723C17.257 31.7809 17.2434 31.7945 17.2348 31.8113C17.2251 31.8303 17.2251 31.8553 17.2251 31.9051V32.8123C17.2251 32.8622 17.2251 32.8871 17.2348 32.9062C17.2434 32.923 17.257 32.9366 17.2738 32.9451C17.2928 32.9548 17.3177 32.9548 17.3676 32.9548H18.8444C18.8943 32.9548 18.9192 32.9548 18.9383 32.9645C18.955 32.9731 18.9687 32.9867 18.9772 33.0035C18.9869 33.0225 18.9869 33.0474 18.9869 33.0973V33.5939C18.9869 33.6437 18.9869 33.6687 18.9772 33.6877C18.9687 33.7045 18.955 33.7181 18.9383 33.7267C18.9192 33.7364 18.8943 33.7364 18.8444 33.7364H16.4271Z" fill="#2845C1"/>
<path d="M19.7762 29.9545C19.7263 29.9545 19.7014 29.9545 19.6823 29.9448C19.6656 29.9362 19.652 29.9226 19.6434 29.9059C19.6337 29.8868 19.6337 29.8619 19.6337 29.812V29.2426C19.6337 29.1927 19.6337 29.1678 19.6434 29.1487C19.652 29.132 19.6656 29.1183 19.6823 29.1098C19.7014 29.1001 19.7263 29.1001 19.7762 29.1001H23.2929C23.3428 29.1001 23.3678 29.1001 23.3868 29.1098C23.4036 29.1183 23.4172 29.132 23.4257 29.1487C23.4354 29.1678 23.4354 29.1927 23.4354 29.2426V29.812C23.4354 29.8619 23.4354 29.8868 23.4257 29.9059C23.4172 29.9226 23.4036 29.9362 23.3868 29.9448C23.3678 29.9545 23.3428 29.9545 23.2929 29.9545H22.1473C22.0974 29.9545 22.0725 29.9545 22.0535 29.9642C22.0367 29.9727 22.0231 29.9864 22.0145 30.0031C22.0048 30.0222 22.0048 30.0471 22.0048 30.097V33.5939C22.0048 33.6437 22.0048 33.6687 21.9951 33.6877C21.9866 33.7045 21.973 33.7181 21.9562 33.7267C21.9371 33.7364 21.9122 33.7364 21.8623 33.7364H21.2068C21.1569 33.7364 21.132 33.7364 21.113 33.7267C21.0962 33.7181 21.0826 33.7045 21.074 33.6877C21.0643 33.6687 21.0643 33.6437 21.0643 33.5939V30.097C21.0643 30.0471 21.0643 30.0222 21.0546 30.0031C21.0461 29.9864 21.0325 29.9727 21.0157 29.9642C20.9966 29.9545 20.9717 29.9545 20.9218 29.9545H19.7762Z" fill="#2845C1"/>
<path d="M23.3724 33.7364C23.3031 33.7364 23.2685 33.7364 23.2463 33.7218C23.2268 33.7091 23.2131 33.6892 23.2081 33.6666C23.2024 33.6406 23.2146 33.6082 23.2392 33.5434L24.8864 29.1921C24.899 29.159 24.9053 29.1424 24.9161 29.1301C24.9257 29.1193 24.9377 29.111 24.9512 29.1059C24.9665 29.1001 24.9842 29.1001 25.0197 29.1001H26.0548C26.0903 29.1001 26.108 29.1001 26.1233 29.1059C26.1368 29.111 26.1488 29.1193 26.1584 29.1301C26.1692 29.1424 26.1755 29.159 26.188 29.1921L27.8353 33.5434C27.8598 33.6082 27.8721 33.6406 27.8664 33.6666C27.8613 33.6892 27.8476 33.7091 27.8282 33.7218C27.806 33.7364 27.7713 33.7364 27.702 33.7364H27.0076C26.9718 33.7364 26.9539 33.7364 26.9385 33.7305C26.925 33.7253 26.9129 33.7169 26.9033 33.7059C26.8925 33.6935 26.8863 33.6767 26.8739 33.6431L26.4988 32.6242C26.4865 32.5906 26.4803 32.5738 26.4694 32.5614C26.4599 32.5504 26.4478 32.542 26.4342 32.5368C26.4188 32.5309 26.4009 32.5309 26.3651 32.5309H24.7094C24.6736 32.5309 24.6556 32.5309 24.6403 32.5368C24.6267 32.542 24.6146 32.5504 24.605 32.5614C24.5942 32.5738 24.588 32.5906 24.5757 32.6242L24.2006 33.6431C24.1882 33.6767 24.182 33.6935 24.1712 33.7059C24.1616 33.7169 24.1495 33.7253 24.1359 33.7305C24.1206 33.7364 24.1027 33.7364 24.0668 33.7364H23.3724ZM24.9713 31.5382C24.9478 31.6025 24.936 31.6347 24.9419 31.6604C24.9471 31.6829 24.9608 31.7026 24.9802 31.7151C25.0023 31.7295 25.0366 31.7295 25.1051 31.7295H25.9694C26.0379 31.7295 26.0721 31.7295 26.0943 31.7151C26.1136 31.7026 26.1274 31.6829 26.1325 31.6604C26.1385 31.6347 26.1267 31.6025 26.1032 31.5382L25.6711 30.3543C25.6298 30.2413 25.6092 30.1847 25.579 30.1687C25.5529 30.1548 25.5216 30.1548 25.4955 30.1687C25.4653 30.1847 25.4447 30.2413 25.4034 30.3543L24.9713 31.5382Z" fill="#2845C1"/>
<path fill-rule="evenodd" clip-rule="evenodd" d="M108.296 16.0417C109.142 16.0418 109.88 16.1856 110.512 16.4706C110.53 16.4787 110.539 16.4827 110.547 16.4856C110.563 16.4913 110.579 16.4946 110.596 16.4961C110.605 16.4968 110.614 16.4968 110.632 16.4968H114.507C114.583 16.4968 114.621 16.4968 114.652 16.5071C114.712 16.527 114.759 16.5739 114.779 16.6335C114.789 16.6643 114.789 16.7025 114.789 16.7788V18.3574C114.789 18.4337 114.789 18.4719 114.779 18.5027C114.759 18.5624 114.712 18.6092 114.652 18.6291C114.621 18.6394 114.583 18.6394 114.507 18.6394H112.999C112.888 18.6394 112.832 18.6394 112.796 18.6534C112.723 18.6824 112.68 18.7392 112.671 18.8174C112.667 18.8553 112.683 18.9143 112.715 19.0323C112.806 19.3648 112.852 19.7123 112.852 20.075C112.852 20.819 112.67 21.5021 112.305 22.1248C111.956 22.7475 111.44 23.2416 110.757 23.6062C110.073 23.9707 109.252 24.153 108.296 24.1531C107.878 24.1531 107.485 24.1172 107.118 24.0455C107.076 24.0373 107.055 24.0332 107.036 24.0332C106.999 24.0333 106.96 24.0444 106.929 24.0641C106.913 24.0745 106.9 24.0868 106.874 24.1115C106.828 24.1545 106.785 24.1984 106.746 24.2439C106.548 24.4565 106.45 24.6846 106.45 24.9275C106.45 25.1553 106.518 25.3377 106.655 25.4744C106.792 25.5959 107.004 25.657 107.293 25.657H110.346C111.333 25.657 112.153 25.8167 112.806 26.1355C113.475 26.4393 113.969 26.865 114.288 27.4119C114.622 27.9587 114.789 28.5814 114.789 29.28C114.789 29.9028 114.645 30.4799 114.356 31.0115C114.083 31.5431 113.68 32.0062 113.148 32.4011C112.632 32.8112 112.009 33.123 111.28 33.3357C110.551 33.5635 109.746 33.6775 108.865 33.6775C107.68 33.6775 106.655 33.5335 105.789 33.2449C104.938 32.9715 104.277 32.5612 103.806 32.0144C103.351 31.4677 103.123 30.7992 103.123 30.0095C103.123 29.2957 103.335 28.6647 103.76 28.1179C103.96 27.8684 104.198 27.6286 104.475 27.3991C104.552 27.3351 104.591 27.303 104.608 27.2756C104.645 27.2154 104.65 27.1643 104.625 27.0981C104.613 27.0679 104.579 27.0255 104.509 26.9407C104.425 26.8385 104.35 26.7297 104.285 26.614C104.103 26.2646 104.011 25.9 104.011 25.5203C104.011 24.9278 104.194 24.4037 104.558 23.948C104.686 23.7903 104.836 23.6394 105.009 23.4954C105.099 23.4203 105.144 23.3828 105.162 23.3523C105.201 23.2862 105.202 23.2275 105.167 23.1595C105.151 23.1282 105.107 23.0884 105.021 23.0089C104.74 22.7508 104.502 22.4565 104.307 22.1248C103.943 21.5022 103.761 20.8189 103.76 20.075C103.76 19.3458 103.943 18.6767 104.307 18.0691C104.672 17.4463 105.189 16.9532 105.857 16.5886C106.541 16.2241 107.354 16.0417 108.296 16.0417ZM106.595 27.822C106.566 27.822 106.552 27.822 106.537 27.8242C106.51 27.8282 106.481 27.8389 106.458 27.8538C106.446 27.8617 106.436 27.8707 106.415 27.8886C106.196 28.0799 106.003 28.2853 105.835 28.5056C105.607 28.8398 105.493 29.2345 105.493 29.6902C105.493 30.085 105.621 30.427 105.88 30.7156C106.153 31.0194 106.533 31.2473 107.019 31.3992C107.521 31.5663 108.129 31.6492 108.843 31.6492C109.587 31.6491 110.217 31.558 110.733 31.3757C111.249 31.2087 111.637 30.9587 111.895 30.6248C112.169 30.3058 112.305 29.9329 112.305 29.5076C112.305 29.1888 112.237 28.9005 112.1 28.6423C111.964 28.3993 111.736 28.2015 111.417 28.0496C111.098 27.8977 110.657 27.822 110.095 27.822H106.595ZM108.318 17.9324C107.847 17.9324 107.437 18.0318 107.088 18.2292C106.754 18.4115 106.495 18.6623 106.313 18.9812C106.146 19.3001 106.062 19.6649 106.062 20.075C106.062 20.4849 106.146 20.8571 106.313 21.1912C106.495 21.5252 106.754 21.7833 107.088 21.9656C107.437 22.1479 107.847 22.239 108.318 22.239C108.789 22.239 109.192 22.1479 109.526 21.9656C109.86 21.7681 110.111 21.5101 110.278 21.1912C110.46 20.8571 110.551 20.4849 110.551 20.075C110.551 19.6496 110.46 19.2768 110.278 18.9578C110.111 18.6388 109.86 18.3881 109.526 18.2058C109.192 18.0235 108.789 17.9324 108.318 17.9324Z" fill="#2845C1"/>
<path fill-rule="evenodd" clip-rule="evenodd" d="M65.7263 16.0417C66.516 16.0417 67.23 16.1703 67.8679 16.4285C68.5058 16.6867 69.0528 17.0441 69.5085 17.4998C69.9794 17.9555 70.3368 18.4951 70.5798 19.1179C70.8227 19.7406 70.944 20.4163 70.9441 21.1453C70.9441 21.4187 70.9295 21.6849 70.8991 21.9431C70.8803 22.1033 70.8584 22.2459 70.8336 22.371C70.8235 22.422 70.8184 22.4475 70.8054 22.4727C70.7815 22.5189 70.7333 22.5585 70.6834 22.5729C70.6561 22.5808 70.6272 22.5808 70.5695 22.5808H62.7227C62.6427 22.5808 62.6027 22.5808 62.5698 22.5927C62.5078 22.6151 62.4576 22.6717 62.4428 22.7359C62.435 22.77 62.4395 22.8075 62.4485 22.8825C62.517 23.4494 62.6598 23.9413 62.8786 24.3582C63.1976 24.9657 63.6453 25.4216 64.2224 25.7253C64.7996 26.0292 65.4532 26.1814 66.1823 26.1814C66.8658 26.1814 67.4813 26.0446 68.028 25.7712C68.4925 25.5453 68.879 25.2567 69.1878 24.9061C69.2473 24.8387 69.277 24.8049 69.304 24.7889C69.3595 24.7558 69.4165 24.7508 69.4769 24.7736C69.5063 24.7847 69.538 24.81 69.6013 24.8605L70.9592 25.9429C71.0161 25.9883 71.0445 26.011 71.0623 26.0386C71.0957 26.0903 71.103 26.1606 71.0811 26.2181C71.0694 26.2488 71.0477 26.2751 71.0043 26.3278C70.4976 26.9421 69.8619 27.4402 69.0984 27.822C68.2478 28.232 67.2832 28.4373 66.2048 28.4373C64.8681 28.4372 63.7286 28.1555 62.7868 27.5935C61.8452 27.0163 61.124 26.2568 60.6228 25.3152C60.1215 24.3734 59.8708 23.3479 59.8708 22.239C59.8708 21.3733 59.9994 20.5682 60.2575 19.824C60.531 19.0796 60.9184 18.4261 61.4196 17.864C61.9209 17.2869 62.5363 16.8393 63.2654 16.5203C63.9945 16.2013 64.8149 16.0418 65.7263 16.0417ZM65.6579 18.115C64.9897 18.115 64.4052 18.2673 63.904 18.571C63.418 18.8748 63.0451 19.3224 62.7868 19.9148C62.716 20.0732 62.6554 20.242 62.6044 20.4212C62.5819 20.5002 62.5707 20.5397 62.5745 20.5778C62.5818 20.6489 62.6331 20.717 62.6995 20.7434C62.7352 20.7576 62.7796 20.7576 62.8686 20.7576H68.1891C68.2642 20.7576 68.3018 20.7576 68.335 20.7454C68.3953 20.7234 68.4482 20.6628 68.4619 20.6C68.4694 20.5655 68.4649 20.5328 68.456 20.4676C68.4109 20.1385 68.3064 19.8253 68.1413 19.5281C67.9287 19.1029 67.6177 18.7609 67.2077 18.5027C66.7976 18.2444 66.2807 18.115 65.6579 18.115Z" fill="#2845C1"/>
<path d="M76.532 16.0417C77.3674 16.0418 78.1423 16.2241 78.8562 16.5886C79.4942 16.9077 80.0103 17.3022 80.4041 17.7725C80.4449 17.8211 80.4653 17.8454 80.4771 17.8755C80.4992 17.931 80.4932 18.0015 80.4623 18.0527C80.4456 18.0803 80.4192 18.1028 80.3663 18.1479L79.0875 19.2389C79.0241 19.293 78.9924 19.32 78.9623 19.3322C78.901 19.3569 78.8403 19.3521 78.7838 19.3178C78.756 19.301 78.7267 19.2665 78.6681 19.1975C78.4222 18.9078 78.1431 18.661 77.8308 18.4568C77.4359 18.1986 77.0028 18.0691 76.532 18.0691C76.1978 18.0691 75.9088 18.1302 75.6657 18.2517C75.438 18.3732 75.2638 18.5329 75.1423 18.7302C75.036 18.9277 74.9822 19.1483 74.9822 19.3914C74.9823 19.7557 75.1117 20.0595 75.3698 20.3025C75.6432 20.5302 75.9926 20.7272 76.4177 20.8943C76.843 21.0614 77.2915 21.2437 77.7624 21.4412C78.2485 21.6234 78.7043 21.8513 79.1296 22.1248C79.5549 22.383 79.8968 22.7331 80.155 23.1736C80.4283 23.5988 80.5651 24.1379 80.5652 24.7908C80.5652 25.5655 80.3746 26.2263 79.9948 26.7732C79.6303 27.3049 79.1445 27.715 78.5368 28.0037C77.9293 28.2923 77.261 28.4372 76.532 28.4373C75.5446 28.4373 74.6859 28.255 73.9568 27.8904C73.3085 27.5528 72.7323 27.1125 72.2281 26.5707C72.18 26.519 72.156 26.4931 72.1424 26.463C72.1169 26.4061 72.1204 26.3356 72.1515 26.2815C72.168 26.2528 72.1959 26.2283 72.2517 26.1792L73.5298 25.0544C73.5905 25.001 73.6208 24.9743 73.6506 24.9617C73.7103 24.9364 73.7723 24.9402 73.8285 24.9726C73.8565 24.9887 73.8851 25.0209 73.9422 25.0851C74.2575 25.4396 74.6042 25.7369 74.9822 25.9763C75.4379 26.2649 75.9474 26.4089 76.5095 26.4089C77.0409 26.4089 77.4432 26.2721 77.7165 25.9988C78.0051 25.7102 78.1491 25.3609 78.1491 24.9509C78.1491 24.5712 78.0124 24.2667 77.739 24.0388C77.4809 23.8112 77.1394 23.614 76.7146 23.447C76.2893 23.28 75.8334 23.1048 75.3474 22.9226C74.8765 22.7252 74.428 22.4899 74.0027 22.2166C73.5773 21.9431 73.2282 21.5931 72.9548 21.1677C72.6967 20.7273 72.5671 20.1656 72.5671 19.4822C72.5671 18.8443 72.7341 18.2671 73.0681 17.7507C73.4023 17.2191 73.8663 16.8006 74.4587 16.4968C75.0662 16.1932 75.7574 16.0417 76.532 16.0417Z" fill="#2845C1"/>
<path d="M85.9948 16.0417C86.8303 16.0417 87.6051 16.2241 88.3191 16.5886C88.9572 16.9077 89.4732 17.3022 89.867 17.7725C89.9078 17.8211 89.9282 17.8455 89.94 17.8755C89.962 17.931 89.9561 18.0015 89.9252 18.0527C89.9085 18.0803 89.882 18.1028 89.8292 18.1479L88.5504 19.2389C88.487 19.293 88.4553 19.32 88.4252 19.3322C88.3639 19.3569 88.3032 19.3521 88.2467 19.3178C88.2188 19.301 88.1896 19.2665 88.131 19.1975C87.8851 18.9078 87.606 18.661 87.2937 18.4568C86.8987 18.1986 86.4657 18.0691 85.9948 18.0691C85.6609 18.0691 85.3726 18.1303 85.1296 18.2517C84.9018 18.3732 84.7267 18.5327 84.6052 18.7302C84.4989 18.9277 84.446 19.1483 84.446 19.3914C84.4461 19.7557 84.5746 20.0595 84.8327 20.3025C85.106 20.5302 85.4555 20.7272 85.8806 20.8943C86.3058 21.0614 86.7545 21.2437 87.2253 21.4412C87.7113 21.6234 88.1672 21.8514 88.5925 22.1248C89.0178 22.383 89.3597 22.7331 89.6179 23.1736C89.8912 23.5988 90.028 24.1378 90.028 24.7908C90.028 25.5653 89.8383 26.2264 89.4587 26.7732C89.0941 27.3049 88.6073 27.715 87.9997 28.0037C87.3922 28.2922 86.7239 28.4373 85.9948 28.4373C85.0078 28.4372 84.1496 28.2548 83.4206 27.8904C82.7724 27.5528 82.1961 27.1125 81.692 26.5707C81.6439 26.519 81.6198 26.4931 81.6063 26.463C81.5808 26.4061 81.5843 26.3356 81.6154 26.2815C81.6318 26.2528 81.6597 26.2283 81.7155 26.1792L82.9937 25.0544C83.0543 25.001 83.0846 24.9743 83.1145 24.9617C83.1742 24.9364 83.2362 24.9402 83.2924 24.9726C83.3204 24.9887 83.349 25.0209 83.4061 25.0851C83.7214 25.4396 84.068 25.7369 84.446 25.9763C84.9016 26.2647 85.4105 26.4089 85.9724 26.4089C86.5038 26.4089 86.906 26.272 87.1794 25.9988C87.468 25.7102 87.6129 25.3609 87.613 24.9509C87.613 24.5712 87.4763 24.2667 87.2029 24.0388C86.9447 23.811 86.6026 23.6141 86.1775 23.447C85.7522 23.2799 85.2963 23.1049 84.8103 22.9226C84.3394 22.7251 83.8909 22.49 83.4655 22.2166C83.0402 21.9431 82.6911 21.593 82.4177 21.1677C82.1596 20.7273 82.03 20.1655 82.03 19.4822C82.03 18.8442 82.1978 18.2672 82.532 17.7507C82.8661 17.2191 83.3292 16.8006 83.9216 16.4968C84.5291 16.1931 85.2203 16.0418 85.9948 16.0417Z" fill="#2845C1"/>
<path fill-rule="evenodd" clip-rule="evenodd" d="M120.808 16.0417C121.598 16.0418 122.312 16.1703 122.95 16.4285C123.588 16.6867 124.135 17.044 124.591 17.4998C125.061 17.9555 125.419 18.4951 125.662 19.1179C125.905 19.7406 126.026 20.4164 126.026 21.1453C126.026 21.4187 126.011 21.6849 125.98 21.9431C125.961 22.1032 125.94 22.2459 125.915 22.371C125.905 22.4218 125.9 22.4472 125.887 22.4724C125.864 22.5186 125.815 22.5584 125.765 22.5729C125.738 22.5808 125.709 22.5808 125.652 22.5808H117.805C117.725 22.5808 117.685 22.5808 117.652 22.5927C117.59 22.6151 117.54 22.6716 117.525 22.7358C117.517 22.77 117.521 22.8075 117.531 22.8825C117.599 23.4494 117.741 23.9414 117.96 24.3582C118.279 24.9658 118.727 25.4215 119.304 25.7253C119.882 26.0291 120.535 26.1814 121.264 26.1814C121.948 26.1813 122.562 26.0444 123.109 25.7712C123.574 25.5452 123.961 25.2568 124.27 24.9062C124.329 24.8387 124.359 24.8049 124.386 24.7889C124.442 24.7559 124.499 24.7509 124.559 24.7737C124.588 24.7848 124.62 24.8101 124.683 24.8606L126.04 25.9429C126.097 25.9883 126.126 26.011 126.143 26.0386C126.177 26.0903 126.184 26.1606 126.162 26.2181C126.15 26.2488 126.129 26.2751 126.085 26.3277C125.579 26.942 124.944 27.4403 124.18 27.822C123.33 28.2321 122.365 28.4372 121.287 28.4373C119.95 28.4373 118.811 28.1556 117.869 27.5935C116.927 27.0163 116.205 26.257 115.704 25.3152C115.203 24.3734 114.952 23.3479 114.952 22.239C114.952 21.3733 115.081 20.5682 115.34 19.824C115.613 19.0796 116 18.4261 116.502 17.864C117.003 17.2869 117.618 16.8392 118.347 16.5203C119.077 16.2013 119.897 16.0417 120.808 16.0417ZM120.74 18.115C120.072 18.115 119.486 18.2672 118.985 18.571C118.499 18.8748 118.127 19.3226 117.869 19.9148C117.798 20.0732 117.737 20.242 117.686 20.4211C117.664 20.5002 117.653 20.5397 117.657 20.5778C117.664 20.6489 117.715 20.717 117.782 20.7434C117.817 20.7576 117.862 20.7576 117.951 20.7576H123.271C123.346 20.7576 123.384 20.7576 123.417 20.7454C123.477 20.7234 123.53 20.6628 123.544 20.6C123.551 20.5655 123.547 20.5328 123.538 20.4676C123.493 20.1385 123.388 19.8253 123.223 19.5281C123.011 19.1027 122.699 18.7609 122.289 18.5027C121.879 18.2445 121.363 18.115 120.74 18.115Z" fill="#2845C1"/>
<path fill-rule="evenodd" clip-rule="evenodd" d="M147.269 16.0337C148.059 16.0337 148.774 16.1622 149.412 16.4204C150.05 16.6787 150.597 17.0361 151.052 17.4917C151.523 17.9474 151.88 18.4872 152.123 19.1099C152.365 19.7326 152.488 20.4083 152.488 21.1372C152.488 21.4107 152.472 21.6768 152.442 21.9351C152.423 22.0953 152.401 22.2379 152.376 22.363C152.366 22.414 152.361 22.4395 152.348 22.4647C152.324 22.5109 152.276 22.5504 152.226 22.5649C152.199 22.5728 152.17 22.5728 152.112 22.5728H144.265C144.185 22.5728 144.145 22.5728 144.113 22.5847C144.051 22.6071 144 22.6636 143.986 22.7279C143.978 22.762 143.982 22.7995 143.991 22.8745C144.06 23.4414 144.203 23.9333 144.421 24.3501C144.74 24.9576 145.188 25.4135 145.765 25.7173C146.342 26.0211 146.996 26.1734 147.725 26.1734C148.409 26.1734 149.024 26.0366 149.571 25.7632C150.035 25.5372 150.422 25.2488 150.731 24.8982C150.791 24.8307 150.821 24.7969 150.848 24.7809C150.903 24.7478 150.96 24.7428 151.021 24.7657C151.05 24.7768 151.082 24.8021 151.145 24.8526L152.502 25.9349C152.559 25.9803 152.587 26.0029 152.605 26.0305C152.638 26.0823 152.646 26.1525 152.624 26.2101C152.612 26.2407 152.59 26.267 152.547 26.3197C152.041 26.934 151.406 27.4322 150.642 27.814C149.791 28.2241 148.826 28.4292 147.748 28.4292C146.411 28.4292 145.271 28.1475 144.33 27.5855C143.388 27.0083 142.667 26.2488 142.166 25.3072C141.664 24.3653 141.414 23.3399 141.414 22.231C141.414 21.3652 141.543 20.5602 141.801 19.8159C142.075 19.0716 142.462 18.418 142.963 17.856C143.464 17.2791 144.079 16.8311 144.808 16.5122C145.537 16.1933 146.358 16.0338 147.269 16.0337ZM147.201 18.107C146.532 18.107 145.948 18.2593 145.447 18.563C144.961 18.8668 144.588 19.3143 144.33 19.9068C144.259 20.0651 144.199 20.234 144.148 20.413C144.125 20.4923 144.114 20.5319 144.118 20.57C144.125 20.6411 144.177 20.709 144.243 20.7354C144.279 20.7495 144.323 20.7495 144.412 20.7495H149.733C149.808 20.7495 149.845 20.7495 149.879 20.7374C149.939 20.7154 149.992 20.6547 150.006 20.592C150.013 20.5574 150.009 20.5248 150 20.4596C149.955 20.1304 149.85 19.8172 149.685 19.52C149.472 19.0948 149.161 18.7529 148.75 18.4947C148.34 18.2364 147.823 18.107 147.201 18.107Z" fill="#2845C1"/>
<path fill-rule="evenodd" clip-rule="evenodd" d="M96.573 16.0417C97.6211 16.0417 98.5098 16.2313 99.239 16.6111C99.9681 16.9908 100.515 17.515 100.88 18.1833C101.259 18.8517 101.449 19.6038 101.449 20.4392V27.6992C101.449 27.7755 101.449 27.8137 101.439 27.8445C101.419 27.9042 101.372 27.951 101.312 27.9709C101.281 27.9812 101.243 27.9812 101.167 27.9812H99.2251C99.1488 27.9812 99.1106 27.9812 99.0798 27.9709C99.0201 27.951 98.9733 27.9042 98.9534 27.8445C98.9431 27.8137 98.9431 27.7755 98.9431 27.6992V27.1374C98.9431 27.034 98.9431 26.9823 98.9319 26.9606C98.9085 26.9156 98.8636 26.8964 98.8149 26.9107C98.7915 26.9176 98.7518 26.9556 98.6725 27.0317C98.5934 27.1075 98.5089 27.1808 98.4187 27.2517C98.0085 27.5859 97.53 27.8448 96.9831 28.0271C96.4364 28.2245 95.882 28.323 95.32 28.323C94.1962 28.323 93.2771 28.0192 92.5632 27.4119C91.8493 26.8042 91.4919 25.9912 91.4919 24.9734C91.4919 24.1077 91.8184 23.371 92.4714 22.7634C93.1246 22.1558 94.0672 21.7529 95.2976 21.5554L98.7083 20.9762C98.7729 20.9652 98.8051 20.9597 98.8311 20.947C98.8814 20.9223 98.919 20.8778 98.9349 20.8241C98.9431 20.7963 98.9431 20.7636 98.9431 20.6981V20.4392C98.9431 19.7558 98.715 19.2242 98.2595 18.8445C97.8038 18.4496 97.2112 18.2517 96.4822 18.2517C95.8897 18.2517 95.3501 18.3812 94.864 18.6394C94.4772 18.8516 94.1416 19.1301 93.8573 19.4755C93.8009 19.5439 93.7727 19.5782 93.7459 19.5952C93.6914 19.63 93.6331 19.6367 93.5721 19.6152C93.5421 19.6047 93.51 19.5801 93.4458 19.531L92.0509 18.4638C91.9931 18.4195 91.9642 18.3974 91.9458 18.3701C91.9115 18.3189 91.9028 18.2482 91.9239 18.1903C91.9352 18.1593 91.9564 18.1328 91.9989 18.0797C92.4758 17.4842 93.0742 17.0099 93.7937 16.657C94.6139 16.2469 95.5402 16.0418 96.573 16.0417ZM95.9353 23.2185C95.2517 23.3248 94.7576 23.5227 94.4538 23.8113C94.1502 24.0846 93.9988 24.434 93.9988 24.8591C93.9988 25.2845 94.1583 25.6345 94.4773 25.908C94.8114 26.1811 95.2593 26.3181 95.821 26.3181C96.5197 26.3181 97.1351 26.1585 97.6667 25.8396C98.0687 25.5984 98.4137 25.2958 98.7026 24.9328C98.7466 24.8774 98.7686 24.8498 98.8037 24.7904C98.861 24.6936 98.9182 24.5299 98.9336 24.4185C98.9431 24.3502 98.9431 24.2944 98.9431 24.1828V22.8867C98.9431 22.8425 98.9431 22.8204 98.9368 22.8036C98.9247 22.7709 98.8964 22.7469 98.8621 22.7402C98.8445 22.7368 98.8227 22.7404 98.7791 22.7476L95.9353 23.2185Z" fill="#2845C1"/>
<path d="M49.5509 18.8843C49.6124 18.9884 49.6432 19.0405 49.6785 19.0653C49.7473 19.1136 49.839 19.1137 49.908 19.0655C49.9433 19.0408 49.9742 18.9889 50.036 18.8849L54.0176 12.1856C54.0408 12.1467 54.0523 12.1272 54.0668 12.1116C54.0947 12.0816 54.1312 12.0608 54.1713 12.0522C54.1921 12.0477 54.2148 12.0477 54.2601 12.0477H57.3264C57.4027 12.0477 57.4409 12.0477 57.4717 12.058C57.5314 12.0779 57.5782 12.1248 57.5981 12.1844C57.6084 12.2152 57.6084 12.2534 57.6084 12.3297V27.7159C57.6084 27.7922 57.6084 27.8304 57.5981 27.8612C57.5782 27.9209 57.5314 27.9677 57.4717 27.9876C57.4409 27.9979 57.4027 27.9979 57.3264 27.9979H55.0877C55.0113 27.9979 54.9732 27.9979 54.9424 27.9876C54.8827 27.9677 54.8359 27.9209 54.8159 27.8612C54.8057 27.8304 54.8057 27.7922 54.8057 27.7159V16.4064C54.8057 16.2897 54.8057 16.2314 54.7918 16.2078C54.7645 16.1615 54.7053 16.1451 54.658 16.1707C54.634 16.1837 54.604 16.2337 54.5438 16.3337L50.9005 22.3925C50.8773 22.4311 50.8657 22.4504 50.8513 22.4658C50.8234 22.4956 50.787 22.5162 50.7471 22.5247C50.7264 22.5292 50.7039 22.5292 50.6589 22.5292H48.9495C48.9045 22.5292 48.882 22.5292 48.8613 22.5247C48.8214 22.5162 48.785 22.4956 48.7571 22.4658C48.7427 22.4504 48.7311 22.4311 48.7079 22.3925L45.0646 16.3337C45.0044 16.2337 44.9744 16.1837 44.9504 16.1707C44.903 16.1451 44.8439 16.1615 44.8166 16.2078C44.8027 16.2314 44.8027 16.2897 44.8027 16.4064V27.7159C44.8027 27.7922 44.8027 27.8304 44.7925 27.8612C44.7725 27.9209 44.7257 27.9677 44.666 27.9876C44.6352 27.9979 44.5971 27.9979 44.5207 27.9979H42.282C42.2057 27.9979 42.1675 27.9979 42.1367 27.9876C42.077 27.9677 42.0302 27.9209 42.0103 27.8612C42 27.8304 42 27.7922 42 27.7159V12.3297C42 12.2534 42 12.2152 42.0103 12.1844C42.0302 12.1248 42.077 12.0779 42.1367 12.058C42.1675 12.0477 42.2057 12.0477 42.282 12.0477H45.3479C45.3933 12.0477 45.416 12.0477 45.4369 12.0522C45.4771 12.0609 45.5136 12.0817 45.5415 12.1119C45.556 12.1276 45.5676 12.1471 45.5907 12.1862L49.5509 18.8843Z" fill="#2845C1"/>
<path d="M134.026 16.2693C134.223 16.2693 134.406 16.2848 134.573 16.3152C134.664 16.3318 134.751 16.3505 134.833 16.3715C134.88 16.3835 134.904 16.3896 134.928 16.4031C134.971 16.4279 135.007 16.4753 135.021 16.5231C135.028 16.5494 135.028 16.5768 135.028 16.6317V18.5282C135.028 18.6256 135.028 18.6743 135.015 18.7083C134.989 18.7768 134.935 18.822 134.863 18.8348C134.827 18.8412 134.777 18.8317 134.675 18.8129C134.604 18.7996 134.532 18.7874 134.459 18.7761C134.276 18.7457 134.056 18.7302 133.798 18.7302C133.327 18.7303 132.902 18.806 132.522 18.9578C132.158 19.1096 131.839 19.3149 131.565 19.573C131.392 19.7266 131.238 19.8925 131.101 20.0705C131.065 20.1175 131.047 20.141 131.014 20.1993C130.961 20.2917 130.905 20.4569 130.891 20.5625C130.882 20.629 130.882 20.6806 130.882 20.7839V27.6992C130.882 27.7755 130.882 27.8137 130.871 27.8445C130.851 27.9042 130.805 27.951 130.745 27.9709C130.714 27.9812 130.676 27.9812 130.6 27.9812H128.657C128.58 27.9812 128.542 27.9812 128.511 27.9709C128.452 27.951 128.405 27.9042 128.385 27.8445C128.375 27.8137 128.375 27.7755 128.375 27.6992V16.7788C128.375 16.7025 128.375 16.6643 128.385 16.6335C128.405 16.5739 128.452 16.527 128.511 16.5071C128.542 16.4968 128.58 16.4968 128.657 16.4968H130.6C130.676 16.4968 130.714 16.4968 130.745 16.5071C130.805 16.527 130.851 16.5739 130.871 16.6335C130.882 16.6643 130.882 16.7025 130.882 16.7788V17.3963C130.882 17.4859 130.882 17.5307 130.893 17.5524C130.916 17.5961 130.964 17.6161 131.011 17.6018C131.034 17.5946 131.067 17.5623 131.133 17.4978C131.236 17.3957 131.342 17.2977 131.451 17.2039C131.785 16.9152 132.165 16.6874 132.591 16.5203C133.016 16.3532 133.495 16.2693 134.026 16.2693Z" fill="#2845C1"/>
<path d="M139.365 27.6992C139.365 27.7755 139.365 27.8137 139.355 27.8445C139.335 27.9042 139.288 27.951 139.228 27.9709C139.197 27.9812 139.159 27.9812 139.083 27.9812H137.141C137.065 27.9812 137.027 27.9812 136.996 27.9709C136.936 27.951 136.889 27.9042 136.869 27.8445C136.859 27.8137 136.859 27.7755 136.859 27.6992V16.7788C136.859 16.7025 136.859 16.6643 136.869 16.6335C136.889 16.5739 136.936 16.527 136.996 16.5071C137.027 16.4968 137.065 16.4968 137.141 16.4968H139.083C139.159 16.4968 139.197 16.4968 139.228 16.5071C139.288 16.527 139.335 16.5739 139.355 16.6335C139.365 16.6643 139.365 16.7025 139.365 16.7788V27.6992Z" fill="#2845C1"/>
<path d="M138.134 10.7556C138.438 10.7556 138.712 10.8313 138.955 10.9832C139.213 11.1351 139.411 11.3402 139.548 11.5984C139.699 11.8414 139.775 12.1149 139.775 12.4187C139.775 12.7224 139.699 13.0033 139.548 13.2615C139.411 13.5197 139.213 13.7248 138.955 13.8767C138.712 14.0133 138.438 14.0818 138.134 14.0818C137.831 14.0817 137.55 14.0134 137.292 13.8767C137.034 13.7248 136.828 13.5197 136.676 13.2615C136.525 13.0033 136.449 12.7224 136.449 12.4187C136.449 11.963 136.608 11.5756 136.927 11.2566C137.262 10.9225 137.664 10.7557 138.134 10.7556Z" fill="#2845C1"/>
<defs>
<linearGradient id="paint0_linear_9138_2139" x1="20" y1="27" x2="20" y2="36" gradientUnits="userSpaceOnUse">
<stop stop-color="#2845C1"/>
<stop offset="1" stop-color="#EEF1F4"/>
</linearGradient>
</defs>
</svg>
