<svg width="59" height="79" viewBox="0 0 59 79" fill="none" xmlns="http://www.w3.org/2000/svg">
<path fill-rule="evenodd" clip-rule="evenodd" d="M51.4071 78.2254H7.35082C3.30492 78.2254 -0.00537109 74.9151 -0.00537109 70.8692V15.6977C-0.00537109 11.6518 3.30492 8.34155 7.35082 8.34155H19.0472C20.592 4.07495 24.6379 0.985352 29.4194 0.985352C34.2009 0.985352 38.2468 4.07495 39.7916 8.34155H51.4071C51.4365 8.34155 51.4622 8.34155 51.488 8.34155C55.5339 8.34155 58.8442 11.6518 58.8442 15.6977V63.8918C58.8184 63.8808 58.7927 63.8661 58.7633 63.8551V70.8692C58.7633 74.9151 55.453 78.2254 51.4071 78.2254ZM51.4071 15.6977H44.1318V19.3758C44.1318 23.4217 40.8215 26.732 36.7756 26.732H22.0632C18.0173 26.732 14.707 23.4217 14.707 19.3758V15.6977H7.35082V70.8692H51.4071V15.6977ZM29.4194 15.6977C31.4424 15.6977 33.0975 14.0426 33.0975 12.0196C33.0975 9.99669 31.4424 8.34155 29.4194 8.34155C27.3965 8.34155 25.7413 9.99669 25.7413 12.0196C25.7413 14.0426 27.3965 15.6977 29.4194 15.6977Z" fill="#000091"/>
<path fill-rule="evenodd" clip-rule="evenodd" d="M43.7236 33.3975V40.2072H15.748V33.3975H43.7236ZM43.7236 44.0352V50.8446H15.748V44.0352H43.7236ZM32.1299 54.4728V61.2822H15.748V54.4728H32.1299Z" fill="#E1000F"/>
</svg>
