<svg width="48" height="48" viewBox="0 0 48 48" fill="none" xmlns="http://www.w3.org/2000/svg">
<path fill-rule="evenodd" clip-rule="evenodd" d="M18.7803 8.3585L25.6931 9.5774C25.8195 9.5997 25.893 9.73354 25.8426 9.85171C25.6281 10.3554 25.4775 10.6568 25.3391 10.8731C25.2231 11.0543 25.1342 11.1478 25.0407 11.2188C24.9427 11.2932 24.7581 11.4045 24.3852 11.5154C22.6261 12.0386 21.6242 13.8888 22.1475 15.6479C22.6707 17.407 24.5209 18.4088 26.28 17.8856C28.4893 17.2284 29.9364 16.0189 30.9368 14.4557C31.3803 13.7629 31.7034 13.0518 31.9572 12.4559C32.0634 12.2066 32.1592 11.9737 32.2491 11.7552L32.2511 11.7503C32.4795 11.1949 33.066 10.8774 33.6574 10.9817C35.1049 11.237 36.1232 11.7969 36.7122 12.6615C37.3105 13.5277 37.4813 14.6892 37.2244 16.1461L33.2465 38.706C32.9879 40.1723 32.4302 41.2054 31.5733 41.8054C30.7258 42.407 29.5782 42.5802 28.1307 42.325L13.2537 39.7018C11.8061 39.4465 10.7823 38.8905 10.1823 38.0336C9.59168 37.1783 9.42562 36.0176 9.68416 34.5514L13.6621 11.9914C13.919 10.5346 14.472 9.50063 15.3212 8.88964C16.1797 8.2803 17.3328 8.10326 18.7803 8.3585ZM20.2228 27.4569C20.8563 28.3616 21.713 28.9091 22.7929 29.0996C23.8728 29.29 24.8651 29.0685 25.7698 28.435C26.6744 27.8016 27.222 26.9449 27.4124 25.8649C27.6028 24.785 27.3813 23.7927 26.7479 22.8881C26.1144 21.9834 25.2577 21.4359 24.1778 21.2455C23.0979 21.055 22.1056 21.2765 21.2009 21.91C20.2963 22.5434 19.7487 23.4001 19.5583 24.4801C19.3679 25.56 19.5894 26.5523 20.2228 27.4569ZM13.6751 34.8812C13.5604 35.5319 13.9949 36.1523 14.6455 36.2671L27.9975 38.6214C28.6482 38.7361 29.2686 38.3016 29.3834 37.651L29.6603 36.0802C29.7584 35.5238 29.7054 34.9873 29.5013 34.4704C29.2972 33.9536 28.9795 33.5306 28.5483 33.2015C27.6232 32.5154 26.6594 31.9532 25.6569 31.5149C24.6544 31.0766 23.6132 30.7623 22.5333 30.5719C21.4534 30.3815 20.3674 30.3207 19.2755 30.3897C18.1835 30.4587 17.0856 30.6573 15.9817 30.9857C15.4639 31.1475 15.0207 31.4363 14.6521 31.8521C14.2836 32.268 14.0502 32.7541 13.9521 33.3104L13.6751 34.8812Z" fill="#2727A0"/>
<path fill-rule="evenodd" clip-rule="evenodd" d="M35.502 6.92141C35.5187 7.65307 34.9391 8.25977 34.2075 8.2765C33.7998 8.28582 33.0767 8.39835 32.3858 8.70813C31.7004 9.01546 31.1666 9.45934 30.8971 10.0637C30.7283 10.4421 30.5893 10.7801 30.4479 11.1239C30.3572 11.3444 30.2655 11.5673 30.1645 11.8046C29.9234 12.3706 29.6528 12.9573 29.3018 13.5057C28.5546 14.6732 27.4997 15.5758 25.7667 16.0913C25.0652 16.3 24.3274 15.9005 24.1187 15.199C23.9101 14.4975 24.3096 13.7597 25.0111 13.551C26.1182 13.2217 26.656 12.7232 27.0695 12.077C27.2989 11.7186 27.5007 11.2953 27.7261 10.7661C27.8008 10.5907 27.8827 10.3921 27.97 10.1804C28.1254 9.80343 28.2978 9.38525 28.4766 8.98415C29.0973 7.5925 30.2458 6.76315 31.3015 6.2898C32.3517 5.81891 33.4288 5.64333 34.1469 5.6269C34.8786 5.61017 35.4853 6.18974 35.502 6.92141Z" fill="#D3343F"/>
<path d="M19.9924 5.77C19.3106 5.50403 18.9735 4.7357 19.2395 4.05389C19.5054 3.37207 20.2738 3.03495 20.9556 3.30092C21.6248 3.56197 22.5768 4.09532 23.4026 4.89702C24.0143 5.49078 24.6072 6.28338 24.9198 7.26745C24.9636 7.40548 24.843 7.53551 24.7004 7.51036L22.001 7.0344C21.8322 7.00463 21.6796 6.91806 21.5566 6.79865C21.0133 6.27125 20.3724 5.91821 19.9924 5.77Z" fill="#D3343F"/>
</svg>
