<svg width="66" height="74" viewBox="0 0 66 74" fill="none" xmlns="http://www.w3.org/2000/svg">
<path fill-rule="evenodd" clip-rule="evenodd" d="M41.0797 53.8705L28.0813 68.2506C26.9621 69.5011 25.1282 69.7925 23.684 68.9589L3.97077 57.5803C1.5199 56.1632 0.00878906 53.5372 0.00878906 50.7029V22.2138C0.00878906 19.3794 1.5199 16.7738 3.97077 15.3567L28.6461 1.10194C31.0969 -0.31523 34.119 -0.31523 36.5698 1.10194L61.2451 15.3567C63.696 16.7738 65.2071 19.3794 65.2071 22.2138V25.4644C65.2071 26.5482 64.8047 27.5905 64.0753 28.4033L45.8667 48.5561L38.3413 37.9062C42.0468 36.2181 44.1557 32.9671 44.1557 28.5905C44.1557 21.9007 39.2666 17.8372 31.3409 17.8372H20.3265V53.8705H27.6354V39.3032H31.393L41.0172 53.8705H41.0797ZM31.7535 23.9225C34.84 23.9225 36.6427 25.7562 36.6427 28.4863C36.6427 31.4249 34.84 33.2382 31.7535 33.2382H27.6354V23.9225H31.7535Z" fill="#000091"/>
<path fill-rule="evenodd" clip-rule="evenodd" d="M63.504 56.4887C62.558 57.796 61.0419 59.2161 58.6172 60.495C50.6117 64.7457 36.5827 72.1346 36.5827 72.1346C36.5827 72.1346 33.8378 73.6736 32.6298 72.2914C31.4232 70.9092 35.7103 66.9365 35.7103 66.9365L61.4525 38.5421C61.4525 38.5421 62.5845 37.4475 63.635 35.7066C63.824 35.3924 64.2063 35.2254 64.5674 35.3345C64.9286 35.4304 65.1781 35.7622 65.1743 36.1309C65.1352 42.0969 65.0341 51.9209 65.0341 51.9209C65.0341 51.9209 65.3092 53.9784 63.532 56.4494L58.9761 51.8586C58.9761 51.8586 58.9824 51.2528 58.9924 50.2782L53.4678 56.3719C54.2782 55.9457 55.0543 55.5322 55.78 55.1445C58.0022 53.9689 58.9956 52.1355 58.9956 52.1355L63.504 56.4887Z" fill="white"/>
<path fill-rule="evenodd" clip-rule="evenodd" d="M63.6352 35.7066C63.8241 35.3924 64.2064 35.2254 64.5675 35.3345C64.9287 35.4304 65.1782 35.7622 65.1744 36.1309C65.1354 42.0969 65.0342 51.9209 65.0342 51.9209C65.0342 51.9209 65.6771 56.7614 58.6173 60.495C50.6119 64.7457 36.5828 72.1346 36.5828 72.1346C36.5828 72.1346 33.838 73.6736 32.63 72.2914C31.4233 70.9092 35.7104 66.9365 35.7104 66.9365L61.4526 38.5421C61.4526 38.5421 62.5846 37.4475 63.6352 35.7066Z" fill="#E1000F"/>
</svg>
