<svg width="109" height="40" viewBox="0 0 109 40" fill="none" xmlns="http://www.w3.org/2000/svg">
<path fill-rule="evenodd" clip-rule="evenodd" d="M32.804 12.1662C32.9944 12.7529 32.9944 13.4082 32.9944 14.7187V22.5632C32.9944 23.8737 32.9944 24.5289 32.804 25.1156C32.6355 25.6347 32.3599 26.1126 31.9949 26.5185C31.5825 26.9772 31.0154 27.3053 29.8813 27.9617L21.5483 32.784L17.2372 35.2652C16.5979 35.6331 16.2783 35.8171 16.016 35.7893C15.7873 35.765 15.5796 35.6449 15.4445 35.4588C15.2895 35.2454 15.2895 34.8766 15.2895 34.139V31.9166C15.2895 31.5724 15.2895 31.4003 15.2396 31.2461C15.1954 31.1097 15.1231 30.984 15.0273 30.8773C14.9191 30.7567 14.7702 30.6702 14.4726 30.4973L10.1101 27.9634C8.97898 27.3063 8.41339 26.9778 8.00214 26.5194C7.63825 26.1138 7.36345 25.6363 7.19547 25.118C7.00562 24.5321 7.00562 23.878 7.00562 22.5699V14.7187C7.00562 13.4082 7.00562 12.7529 7.19606 12.1662C7.36457 11.6471 7.64021 11.1691 8.00514 10.7633C8.41757 10.3046 8.98472 9.97642 10.119 9.32007L16.8761 5.41006C18.014 4.7516 18.583 4.42236 19.188 4.29351C19.7233 4.17951 20.2767 4.17951 20.812 4.29351C21.417 4.42236 21.986 4.7516 23.1239 5.41006L29.881 9.32007C31.0153 9.97642 31.5824 10.3046 31.9949 10.7633C32.3598 11.1691 32.6355 11.6471 32.804 12.1662ZM28.1637 14.3413C28.2298 14.545 28.2298 14.7725 28.2298 15.2276V22.2445C28.2298 22.7028 28.2298 22.932 28.1628 23.1369C28.1036 23.3182 28.0067 23.4849 27.8786 23.6261C27.7337 23.7857 27.5347 23.8992 27.1365 24.1261L21.0724 27.5824C20.6815 27.8052 20.486 27.9166 20.2785 27.9603C20.0948 27.9989 19.9052 27.9989 19.7215 27.9603C19.514 27.9166 19.3185 27.8052 18.9276 27.5824L12.8635 24.1261C12.4654 23.8992 12.2663 23.7857 12.1214 23.6261C11.9933 23.4849 11.8964 23.3182 11.8372 23.1369C11.7702 22.932 11.7702 22.7028 11.7702 22.2445V15.2276C11.7702 14.7725 11.7702 14.545 11.8364 14.3413C11.8949 14.1611 11.9906 13.9951 12.1173 13.8542C12.2605 13.6949 12.4574 13.581 12.8513 13.3531L18.9153 9.84407C19.3104 9.61544 19.508 9.50112 19.7181 9.45638C19.9039 9.4168 20.0961 9.4168 20.282 9.45638C20.492 9.50112 20.6896 9.61544 21.0847 9.84407L27.1488 13.3531C27.5426 13.581 27.7395 13.6949 27.8827 13.8542C28.0095 13.9951 28.1052 14.1611 28.1637 14.3413Z" fill="#2845C1"/>
<path d="M15.325 18.2741C15.325 18.3334 15.325 18.3631 15.3365 18.3858C15.3467 18.4057 15.3629 18.4219 15.3828 18.4321C15.4055 18.4437 15.4352 18.4437 15.4946 18.4437H16.5736C16.6329 18.4437 16.6626 18.4437 16.6853 18.4321C16.7053 18.4219 16.7215 18.4057 16.7316 18.3858C16.7432 18.3631 16.7432 18.3334 16.7432 18.2741V16.5849C16.7432 16.5255 16.7432 16.4959 16.7547 16.4732C16.7649 16.4532 16.7811 16.437 16.8011 16.4269C16.8237 16.4153 16.8534 16.4153 16.9128 16.4153H19.157C19.2164 16.4153 19.2461 16.4153 19.2687 16.4269C19.2887 16.437 19.3049 16.4532 19.3151 16.4732C19.3266 16.4959 19.3266 16.5255 19.3266 16.5849V23.7894C19.3266 23.8487 19.3266 23.8784 19.3382 23.9011C19.3483 23.921 19.3645 23.9373 19.3845 23.9474C19.4072 23.959 19.4368 23.959 19.4962 23.959H20.5752C20.6346 23.959 20.6643 23.959 20.687 23.9474C20.7069 23.9373 20.7231 23.921 20.7333 23.9011C20.7448 23.8784 20.7448 23.8487 20.7448 23.7894V16.5849C20.7448 16.5255 20.7448 16.4959 20.7564 16.4732C20.7666 16.4532 20.7828 16.437 20.8027 16.4269C20.8254 16.4153 20.8551 16.4153 20.9145 16.4153H24.9158C24.9752 16.4153 25.0049 16.4153 25.0276 16.4037C25.0475 16.3936 25.0637 16.3774 25.0739 16.3574C25.0855 16.3347 25.0855 16.3051 25.0855 16.2457V15.1642C25.0855 15.1049 25.0855 15.0752 25.0739 15.0525C25.0637 15.0326 25.0475 15.0163 25.0276 15.0062C25.0049 14.9946 24.9752 14.9946 24.9158 14.9946H15.4946C15.4352 14.9946 15.4055 14.9946 15.3828 15.0062C15.3629 15.0163 15.3467 15.0326 15.3365 15.0525C15.325 15.0752 15.325 15.1049 15.325 15.1642V18.2741Z" fill="#C83F49"/>
<path fill-rule="evenodd" clip-rule="evenodd" d="M97.9844 15.3997C99.1993 15.3997 100.24 15.6879 101.105 16.2649C101.986 16.8269 102.663 17.5791 103.134 18.5208C103.62 19.4473 103.863 20.4729 103.863 21.5969C103.863 22.4324 103.727 23.2227 103.453 23.967C103.18 24.7114 102.784 25.3722 102.268 25.9495C101.766 26.5266 101.151 26.9825 100.422 27.3167C99.7081 27.6355 98.8955 27.7951 97.9844 27.7952C97.1945 27.7952 96.4953 27.6657 95.8877 27.4075C95.2802 27.1493 94.7486 26.7772 94.293 26.2913C94.2682 26.2649 94.2246 26.2812 94.2246 26.3174V32.7446C94.2246 32.855 94.1351 32.9446 94.0246 32.9446H91.9178C91.8073 32.9446 91.7178 32.855 91.7178 32.7446V16.0547C91.7178 15.9443 91.8073 15.8547 91.9178 15.8547H94.0246C94.1351 15.8547 94.2246 15.9443 94.2246 16.0547V16.8766C94.2246 16.9125 94.268 16.9294 94.293 16.9036C94.7487 16.4175 95.2801 16.0446 95.8877 15.7864C96.4953 15.5281 97.1945 15.3997 97.9844 15.3997ZM97.665 17.7463C96.9513 17.7464 96.2983 17.9133 95.7061 18.2473C95.2187 18.5222 94.7883 18.8955 94.4142 19.3659C94.286 19.5271 94.2246 19.7299 94.2246 19.9359V23.2571C94.2246 23.463 94.2859 23.6657 94.414 23.8269C94.7882 24.2978 95.2184 24.6714 95.7061 24.9465C96.2984 25.2806 96.9513 25.4475 97.665 25.4475C98.3942 25.4475 99.025 25.2807 99.5566 24.9465C100.088 24.5972 100.499 24.134 100.787 23.5569C101.091 22.9796 101.242 22.3261 101.242 21.5969C101.242 20.868 101.091 20.215 100.787 19.6379C100.499 19.0608 100.088 18.6049 99.5566 18.2708C99.025 17.9214 98.3942 17.7463 97.665 17.7463Z" fill="#2845C1"/>
<path d="M59.583 15.3997C60.6311 15.3997 61.5655 15.6121 62.3857 16.0374C63.159 16.417 63.8023 16.9271 64.3153 17.567C64.384 17.6527 64.366 17.7773 64.2786 17.8437L62.6248 19.0983C62.5325 19.1683 62.4006 19.145 62.3305 19.0528C62.0562 18.6917 61.7027 18.3928 61.2695 18.1565C60.7834 17.8831 60.2137 17.7463 59.5605 17.7463C59.0289 17.7463 58.5348 17.8448 58.0791 18.0422C57.6388 18.2397 57.2593 18.5134 56.9404 18.8625C56.6215 19.2119 56.3708 19.6222 56.1885 20.093C56.0062 20.5487 55.9151 21.0502 55.915 21.5969C55.915 22.326 56.0746 22.9869 56.3936 23.5793C56.7126 24.1566 57.1455 24.6123 57.6924 24.9465C58.2392 25.2807 58.8774 25.4475 59.6064 25.4475C60.2291 25.4475 60.7835 25.3107 61.2695 25.0374C61.7025 24.8012 62.0562 24.5028 62.3305 24.142C62.4006 24.0498 62.5325 24.0265 62.6248 24.0965L64.277 25.3499C64.365 25.4167 64.3825 25.5426 64.3124 25.6282C63.7999 26.2543 63.1575 26.7636 62.3857 27.1565C61.5655 27.5818 60.6311 27.7952 59.583 27.7952C58.292 27.7951 57.1751 27.5134 56.2334 26.9514C55.2919 26.3742 54.5633 25.6147 54.0469 24.6731C53.5456 23.7313 53.2949 22.7058 53.2949 21.5969C53.2949 20.7616 53.439 19.972 53.7275 19.2278C54.0161 18.4835 54.4337 17.8225 54.9805 17.2454C55.5273 16.6681 56.1882 16.2196 56.9629 15.9006C57.7375 15.5665 58.611 15.3997 59.583 15.3997Z" fill="#2845C1"/>
<path fill-rule="evenodd" clip-rule="evenodd" d="M83.9609 15.3997C85.009 15.3997 85.8979 15.5893 86.627 15.969C87.356 16.3487 87.903 16.8729 88.2676 17.5413C88.6473 18.2096 88.8369 18.9617 88.8369 19.7971V27.1391C88.8369 27.2496 88.7474 27.3391 88.6369 27.3391H86.5301C86.4196 27.3391 86.3301 27.2496 86.3301 27.1391V26.3797C86.3301 26.2853 86.2078 26.2406 86.1421 26.3084C86.0403 26.4132 85.9286 26.5137 85.8066 26.6096C85.3965 26.9438 84.9179 27.2027 84.3711 27.385C83.8242 27.5825 83.2691 27.6809 82.707 27.6809C81.5831 27.6808 80.6641 27.3773 79.9502 26.7698C79.2362 26.1622 78.8799 25.3491 78.8799 24.3313C78.8799 23.4655 79.2062 22.7289 79.8594 22.1213C80.5126 21.5137 81.4542 21.1108 82.6846 20.9133L86.1636 20.3225C86.2597 20.3061 86.3301 20.2228 86.3301 20.1253V19.7971C86.3301 19.1135 86.1022 18.5822 85.6465 18.2024C85.1908 17.8075 84.5983 17.6096 83.8691 17.6096C83.2769 17.6097 82.7379 17.7391 82.252 17.9973C81.8405 18.2229 81.4871 18.5238 81.1916 18.9001C81.1214 18.9895 80.992 19.01 80.9017 18.9409L79.3757 17.7734C79.2899 17.7077 79.2714 17.5855 79.3376 17.5001C79.8222 16.8752 80.4364 16.3801 81.1807 16.0149C82.0009 15.6047 82.928 15.3997 83.9609 15.3997ZM83.3223 22.5774C82.6391 22.6837 82.1455 22.8807 81.8418 23.1692C81.5381 23.4425 81.3859 23.7919 81.3857 24.217C81.3857 24.6424 81.5453 24.9924 81.8643 25.2659C82.1984 25.5393 82.6469 25.676 83.209 25.676C83.9076 25.676 84.5231 25.5165 85.0547 25.1975C85.4061 24.9866 85.7138 24.7289 85.9786 24.4248C86.2303 24.1358 86.3301 23.7516 86.3301 23.3683V22.3143C86.3301 22.1908 86.2192 22.0968 86.0973 22.117L83.3223 22.5774Z" fill="#2845C1"/>
<path d="M53.9199 13.7182C53.9199 13.8287 53.8304 13.9182 53.7199 13.9182H49.0613C48.9509 13.9182 48.8613 14.0078 48.8613 14.1182V27.1391C48.8613 27.2496 48.7718 27.3391 48.6613 27.3391H46.2586C46.1481 27.3391 46.0586 27.2496 46.0586 27.1391V14.1182C46.0586 14.0078 45.9691 13.9182 45.8586 13.9182H41.2C41.0895 13.9182 41 13.8287 41 13.7182V11.5889C41 11.4785 41.0895 11.3889 41.2 11.3889H53.7199C53.8304 11.3889 53.9199 11.4785 53.9199 11.5889V13.7182Z" fill="#2845C1"/>
<path d="M68.6445 16.4039C68.6445 16.5841 68.8693 16.6772 69.0064 16.5602C69.3388 16.2767 69.7119 16.034 70.126 15.8323C70.7183 15.5437 71.4094 15.3997 72.1992 15.3997C73.0499 15.3997 73.8101 15.5892 74.4785 15.969C75.162 16.3488 75.7008 16.9113 76.0957 17.6555C76.4906 18.3998 76.6885 19.3342 76.6885 20.4583V27.1391C76.6885 27.2496 76.5989 27.3391 76.4885 27.3391H74.3592C74.2487 27.3391 74.1592 27.2496 74.1592 27.1391V20.5491C74.1592 19.668 73.9313 18.9844 73.4756 18.4983C73.0199 17.9971 72.3972 17.7464 71.6074 17.7463C71.1061 17.7463 70.6649 17.8448 70.2852 18.0422C69.9055 18.2245 69.5791 18.4607 69.3057 18.7493C69.0599 19.0239 68.8481 19.3123 68.6711 19.6144C68.6535 19.6445 68.6445 19.6787 68.6445 19.7135V27.1391C68.6445 27.2496 68.555 27.3391 68.4445 27.3391H66.3387C66.2282 27.3391 66.1387 27.2496 66.1387 27.1391V10.4502C66.1387 10.3398 66.2282 10.2502 66.3387 10.2502H68.4445C68.555 10.2502 68.6445 10.3398 68.6445 10.4502V16.4039Z" fill="#2845C1"/>
</svg>
