<svg width="25" height="25" viewBox="0 0 25 25" fill="none" xmlns="http://www.w3.org/2000/svg">
<path fill-rule="evenodd" clip-rule="evenodd" d="M22.1029 6.16374C22.2457 6.60377 22.2457 7.09521 22.2457 8.07808V13.9615C22.2457 14.9443 22.2457 15.4357 22.1029 15.8757C21.9765 16.2651 21.7698 16.6235 21.4961 16.9279C21.1868 17.2719 20.7615 17.5181 19.9109 18.0103L13.6612 21.6271L10.4278 23.488C9.94837 23.7639 9.70863 23.9019 9.51196 23.881C9.34041 23.8628 9.18462 23.7728 9.08328 23.6332C8.96709 23.4731 8.96709 23.1965 8.96709 22.6433V20.9765C8.96709 20.7184 8.96709 20.5893 8.92962 20.4736C8.89647 20.3713 8.84223 20.2771 8.77041 20.197C8.68924 20.1066 8.57762 20.0417 8.35436 19.912L5.08253 18.0116C4.23417 17.5188 3.80998 17.2724 3.50154 16.9286C3.22863 16.6244 3.02253 16.2663 2.89654 15.8775C2.75415 15.4381 2.75415 14.9476 2.75415 13.9665V8.07808C2.75415 7.09521 2.75415 6.60377 2.89698 6.16374C3.02336 5.77439 3.23009 5.41592 3.50379 5.11153C3.81312 4.76751 4.23848 4.52138 5.08919 4.02911L10.157 1.09661C11.0104 0.60276 11.4372 0.355835 11.8909 0.259197C12.2924 0.173692 12.7074 0.173692 13.1089 0.259197C13.5627 0.355835 13.9894 0.60276 14.8429 1.09661L19.9107 4.02911C20.7614 4.52138 21.1868 4.76751 21.4961 5.11153C21.7698 5.41592 21.9765 5.77439 22.1029 6.16374ZM18.6227 7.79504C18.6723 7.94783 18.6723 8.11847 18.6723 8.45974V13.7225C18.6723 14.0662 18.6723 14.2381 18.6221 14.3917C18.5776 14.5277 18.505 14.6527 18.4089 14.7586C18.3002 14.8783 18.1509 14.9634 17.8523 15.1336L13.3043 17.7259C13.0111 17.893 12.8645 17.9765 12.7088 18.0093C12.5711 18.0382 12.4288 18.0382 12.2911 18.0093C12.1354 17.9765 11.9888 17.893 11.6957 17.7259L7.14759 15.1336C6.84897 14.9634 6.69965 14.8783 6.59102 14.7586C6.4949 14.6527 6.42225 14.5277 6.37782 14.3917C6.32761 14.2381 6.32761 14.0662 6.32761 13.7225V8.45974C6.32761 8.11847 6.32761 7.94783 6.37721 7.79504C6.42109 7.65985 6.49287 7.53538 6.5879 7.42969C6.69531 7.31024 6.843 7.22478 7.13839 7.05385L11.6864 4.42212C11.9828 4.25064 12.1309 4.16491 12.2885 4.13135C12.4279 4.10166 12.572 4.10166 12.7114 4.13135C12.869 4.16491 13.0171 4.25064 13.3135 4.42212L17.8615 7.05385C18.1569 7.22478 18.3046 7.31024 18.412 7.42969C18.507 7.53538 18.5788 7.65985 18.6227 7.79504Z" fill="#000091"/>
<path d="M8.99365 10.7446C8.99365 10.7891 8.99365 10.8114 9.00232 10.8284C9.00994 10.8434 9.0221 10.8555 9.03706 10.8631C9.05407 10.8718 9.07633 10.8718 9.12086 10.8718H9.93012C9.97465 10.8718 9.99691 10.8718 10.0139 10.8631C10.0289 10.8555 10.041 10.8434 10.0487 10.8284C10.0573 10.8114 10.0573 10.7891 10.0573 10.7446V9.47774C10.0573 9.43322 10.0573 9.41095 10.066 9.39395C10.0736 9.37899 10.0858 9.36682 10.1007 9.3592C10.1177 9.35054 10.14 9.35054 10.1845 9.35054H11.8677C11.9122 9.35054 11.9345 9.35054 11.9515 9.3592C11.9664 9.36682 11.9786 9.37899 11.9862 9.39395C11.9949 9.41095 11.9949 9.43322 11.9949 9.47774V14.8811C11.9949 14.9256 11.9949 14.9479 12.0036 14.9649C12.0112 14.9798 12.0233 14.992 12.0383 14.9996C12.0553 15.0083 12.0776 15.0083 12.1221 15.0083H12.9314C12.9759 15.0083 12.9982 15.0083 13.0152 14.9996C13.0301 14.992 13.0423 14.9798 13.0499 14.9649C13.0586 14.9479 13.0586 14.9256 13.0586 14.8811V9.47774C13.0586 9.43322 13.0586 9.41095 13.0672 9.39395C13.0749 9.37899 13.087 9.36682 13.102 9.3592C13.119 9.35054 13.1413 9.35054 13.1858 9.35054H16.1868C16.2313 9.35054 16.2536 9.35054 16.2706 9.34187C16.2856 9.33425 16.2977 9.32208 16.3054 9.30712C16.314 9.29012 16.314 9.26785 16.314 9.22333V8.41224C16.314 8.36772 16.314 8.34545 16.3054 8.32844C16.2977 8.31348 16.2856 8.30132 16.2706 8.2937C16.2536 8.28503 16.2313 8.28503 16.1868 8.28503H9.12086C9.07633 8.28503 9.05407 8.28503 9.03706 8.2937C9.0221 8.30132 9.00994 8.31348 9.00232 8.32844C8.99365 8.34545 8.99365 8.36772 8.99365 8.41224V10.7446Z" fill="#C9191E"/>
</svg>
