<svg width="99" height="40" viewBox="0 0 99 40" fill="none" xmlns="http://www.w3.org/2000/svg">
<path d="M5.12227 15.939C5 16.5663 5 17.3389 5 18.6331V21.7461C5 23.3517 5 24.1545 5.23351 24.8732C5.44012 25.5091 5.77808 26.0944 6.22547 26.5913C6.73111 27.1529 7.42635 27.5543 8.81685 28.3571L11.5128 29.9136C12.7434 30.6241 13.4294 31.0202 14.0833 31.2108V21.6057C14.0833 21.1256 13.821 20.6838 13.3995 20.4539L5.12227 15.939Z" fill="#C83F49"/>
<path d="M27.6627 17.2673V22.2754C27.6627 22.9679 27.9636 23.6262 28.4872 24.0793L32.0917 27.1987C32.3026 27.3771 32.5217 27.5231 32.7488 27.6367C32.984 27.7422 33.2112 27.7949 33.4302 27.7949C33.9007 27.7949 34.2779 27.6408 34.5618 27.3325C34.8538 27.0161 34.9998 26.6065 34.9998 26.1036V13.449C34.9998 12.9461 34.8538 12.5405 34.5618 12.2322C34.2779 11.9159 33.9007 11.7577 33.4302 11.7577C33.2112 11.7577 32.984 11.8104 32.7488 11.9159C32.5217 12.0213 32.3026 12.1674 32.0917 12.3539L28.49 15.4609C27.9647 15.9141 27.6627 16.5735 27.6627 17.2673Z" fill="#2845C1"/>
<path d="M6.32689 14.0679C6.22667 14.0132 6.12156 13.9762 6.01514 13.9558C6.08228 13.87 6.15244 13.7865 6.22552 13.7054C6.73116 13.1438 7.42641 12.7424 8.8169 11.9396L11.5129 10.3831C12.9033 9.58025 13.5986 9.17885 14.3377 9.02174C14.9917 8.88273 15.6677 8.88273 16.3217 9.02174C17.0608 9.17885 17.7561 9.58025 19.1465 10.3831L21.8107 11.9212C21.8213 11.9273 21.8319 11.9334 21.8426 11.9396C23.2331 12.7424 23.9283 13.1438 24.4339 13.7054C24.8813 14.2022 25.2193 14.7876 25.4259 15.4235C25.6594 16.1422 25.6594 16.945 25.6594 18.5506V21.6636C25.6594 23.2692 25.6594 24.072 25.4259 24.7907C25.2193 25.4266 24.8813 26.012 24.4339 26.5089C23.9283 27.0704 23.2331 27.4718 21.8427 28.2746C21.8307 28.2815 21.8187 28.2884 21.8068 28.2952L19.1465 29.8312C17.7561 30.634 17.0608 31.0354 16.3217 31.1925C16.2913 31.1989 16.2609 31.2051 16.2304 31.2109L16.2304 21.5232C16.2304 20.2574 15.539 19.0927 14.4277 18.4866L6.32689 14.0679Z" fill="#2845C1"/>
<path d="M42.0137 12.7984C41.9629 12.6674 42.0596 12.5262 42.2002 12.5262H44.7339C44.8163 12.5262 44.8902 12.5767 44.9202 12.6534L49.813 25.1621C49.8461 25.2468 49.9661 25.2468 49.9992 25.1621L54.892 12.6534C54.922 12.5767 54.9959 12.5262 55.0782 12.5262H57.6348C57.7753 12.5262 57.872 12.6674 57.8213 12.7985L51.8012 28.3485C51.7714 28.4255 51.6973 28.4762 51.6147 28.4762H48.2203C48.1377 28.4762 48.0636 28.4255 48.0338 28.3484L42.0137 12.7984Z" fill="#2845C1"/>
<path d="M59.771 28.4762C59.6605 28.4762 59.571 28.3867 59.571 28.2762V17.1922C59.571 17.0818 59.6605 16.9922 59.771 16.9922H61.8774C61.9878 16.9922 62.0774 17.0818 62.0774 17.1922V28.2762C62.0774 28.3867 61.9878 28.4762 61.8774 28.4762H59.771ZM60.847 14.577C60.5432 14.577 60.2621 14.5086 60.0039 14.3719C59.7457 14.22 59.5406 14.0149 59.3887 13.7567C59.2368 13.4984 59.1608 13.2174 59.1608 12.9136C59.1608 12.4579 59.3203 12.0705 59.6393 11.7515C59.9735 11.4173 60.3761 11.2502 60.847 11.2502C61.1508 11.2502 61.4242 11.3262 61.6672 11.4781C61.9255 11.63 62.123 11.8351 62.2597 12.0933C62.4116 12.3364 62.4875 12.6098 62.4875 12.9136C62.4875 13.2174 62.4116 13.4984 62.2597 13.7567C62.123 14.0149 61.9255 14.22 61.6672 14.3719C61.4242 14.5086 61.1508 14.577 60.847 14.577Z" fill="#2845C1"/>
<path d="M66.8072 19.6047C66.8072 19.9692 66.9363 20.2731 67.1946 20.5161C67.468 20.744 67.8174 20.9414 68.2427 21.1085C68.668 21.2756 69.1162 21.4579 69.5871 21.6554C70.0732 21.8377 70.5289 22.0655 70.9542 22.339C71.3795 22.5972 71.7213 22.9466 71.9796 23.3871C72.253 23.8124 72.3897 24.3517 72.3897 25.0049C72.3897 25.7796 72.1998 26.4404 71.8201 26.9872C71.4555 27.5189 70.9694 27.9291 70.3618 28.2177C69.7542 28.5063 69.0858 28.6506 68.3566 28.6506C67.3693 28.6506 66.511 28.4683 65.7819 28.1037C65.11 27.7538 64.5156 27.2943 63.9985 26.7251C63.9249 26.6441 63.9339 26.519 64.016 26.4467L65.4194 25.2117C65.5051 25.1363 65.6362 25.1481 65.7107 25.2345C66.041 25.6175 66.4065 25.9359 66.8072 26.1897C67.2629 26.4784 67.7718 26.6227 68.3339 26.6227C68.8655 26.6227 69.2681 26.486 69.5415 26.2125C69.8301 25.9239 69.9744 25.5745 69.9744 25.1644C69.9744 24.7846 69.8377 24.4808 69.5643 24.253C69.306 24.0251 68.9643 23.8276 68.5389 23.6605C68.1136 23.4934 67.6579 23.3187 67.1718 23.1365C66.7009 22.939 66.2528 22.7035 65.8274 22.4301C65.4021 22.1567 65.0527 21.8073 64.7793 21.382C64.521 20.9414 64.3919 20.3794 64.3919 19.6958C64.3919 19.0578 64.559 18.4806 64.8932 17.9641C65.2274 17.4324 65.6907 17.0147 66.2831 16.7109C66.8908 16.4071 67.5819 16.2552 68.3566 16.2552C69.1921 16.2552 69.9668 16.4375 70.6808 16.802C71.3453 17.1343 71.8774 17.5486 72.2769 18.0449C72.3425 18.1263 72.3283 18.2444 72.2487 18.3123L70.8448 19.5102C70.7563 19.5858 70.6225 19.5697 70.5492 19.4794C70.2898 19.1601 69.9919 18.8905 69.6554 18.6705C69.2605 18.4122 68.8275 18.2831 68.3566 18.2831C68.0224 18.2831 67.7338 18.3439 67.4908 18.4654C67.2629 18.5869 67.0882 18.7464 66.9667 18.9439C66.8604 19.1414 66.8072 19.3616 66.8072 19.6047Z" fill="#2845C1"/>
<path d="M74.7811 28.4762C74.6706 28.4762 74.5811 28.3867 74.5811 28.2762V17.1922C74.5811 17.0818 74.6706 16.9922 74.7811 16.9922H76.8875C76.9979 16.9922 77.0875 17.0818 77.0875 17.1922V28.2762C77.0875 28.3867 76.9979 28.4762 76.8875 28.4762H74.7811ZM75.857 14.577C75.5532 14.577 75.2722 14.5086 75.014 14.3719C74.7557 14.22 74.5507 14.0149 74.3988 13.7567C74.2469 13.4984 74.1709 13.2174 74.1709 12.9136C74.1709 12.4579 74.3304 12.0705 74.6494 11.7515C74.9836 11.4173 75.3861 11.2502 75.857 11.2502C76.1609 11.2502 76.4343 11.3262 76.6773 11.4781C76.9356 11.63 77.133 11.8351 77.2698 12.0933C77.4217 12.3364 77.4976 12.6098 77.4976 12.9136C77.4976 13.2174 77.4217 13.4984 77.2698 13.7567C77.133 14.0149 76.9356 14.22 76.6773 14.3719C76.4343 14.5086 76.1609 14.577 75.857 14.577Z" fill="#2845C1"/>
<path d="M85.5282 26.364C86.0446 26.364 86.5231 26.2653 86.9637 26.0678C87.4042 25.8551 87.7839 25.5741 88.1029 25.2247C88.4371 24.8753 88.6954 24.4728 88.8777 24.0171C89.0599 23.5462 89.1511 23.0449 89.1511 22.5132C89.1511 21.7841 88.9916 21.1309 88.6726 20.5536C88.3536 19.9764 87.9207 19.5207 87.3738 19.1865C86.8269 18.8371 86.2117 18.6624 85.5282 18.6624C84.9965 18.6624 84.5028 18.7612 84.0471 18.9586C83.6066 19.1561 83.2192 19.4296 82.885 19.7789C82.566 20.1283 82.3154 20.5385 82.1331 21.0094C81.9508 21.4803 81.8597 21.9816 81.8597 22.5132C81.8597 23.2272 82.0192 23.8804 82.3382 24.4728C82.6572 25.05 83.0901 25.5133 83.6369 25.8627C84.199 26.1969 84.8294 26.364 85.5282 26.364ZM85.5054 16.3155C86.432 16.3155 87.2751 16.475 88.0346 16.794C88.8093 17.113 89.4701 17.5611 90.0169 18.1384C90.579 18.7004 91.0043 19.3612 91.2929 20.1207C91.5968 20.8651 91.7487 21.6626 91.7487 22.5132C91.7487 23.3639 91.5968 24.169 91.2929 24.9285C91.0043 25.6728 90.579 26.3336 90.0169 26.9109C89.4701 27.4729 88.8093 27.9134 88.0346 28.2324C87.2751 28.5514 86.432 28.7109 85.5054 28.7109C84.5788 28.7109 83.7281 28.5514 82.9534 28.2324C82.1939 27.9134 81.5331 27.4729 80.971 26.9109C80.409 26.3336 79.976 25.6728 79.6722 24.9285C79.3836 24.169 79.2393 23.3639 79.2393 22.5132C79.2393 21.6626 79.3836 20.8651 79.6722 20.1207C79.976 19.3612 80.409 18.7004 80.971 18.1384C81.5331 17.5611 82.1939 17.113 82.9534 16.794C83.7281 16.475 84.5788 16.3155 85.5054 16.3155Z" fill="#2845C1"/>
</svg>
