<svg width="25" height="25" viewBox="0 0 25 25" fill="currentColor" xmlns="http://www.w3.org/2000/svg">
<path d="M1.3417 8.99335C1.25 9.46387 1.25 10.0433 1.25 11.0139V13.3487C1.25 14.5529 1.25 15.155 1.42513 15.694C1.58009 16.1709 1.83356 16.61 2.1691 16.9826C2.54833 17.4038 3.06977 17.7048 4.11263 18.3069L6.1346 19.4743C7.05753 20.0072 7.57208 20.3043 8.06247 20.4472V13.2434C8.06247 12.8833 7.86578 12.552 7.54965 12.3795L1.3417 8.99335Z" fill="#ffffff"/>
<path d="M18.2469 10.0514V13.8075C18.2469 14.3269 18.4725 14.8206 18.8653 15.1604L21.5687 17.5C21.7269 17.6338 21.8911 17.7433 22.0615 17.8285C22.2379 17.9076 22.4083 17.9471 22.5725 17.9471C22.9254 17.9471 23.2083 17.8315 23.4212 17.6003C23.6402 17.3631 23.7497 17.0558 23.7497 16.6786V7.18772C23.7497 6.81052 23.6402 6.50633 23.4212 6.27514C23.2083 6.03786 22.9254 5.91923 22.5725 5.91923C22.4083 5.91923 22.2379 5.95877 22.0615 6.03786C21.8911 6.11696 21.7269 6.22647 21.5687 6.3664L18.8674 8.69665C18.4734 9.03652 18.2469 9.53107 18.2469 10.0514Z" fill="#ffffff"/>
<path d="M2.24505 7.65189C2.16988 7.61088 2.09105 7.58311 2.01123 7.56778C2.06159 7.50349 2.11421 7.44084 2.16902 7.37997C2.54825 6.95879 3.06968 6.65774 4.11255 6.05564L6.13452 4.88825C7.17739 4.28614 7.69882 3.98509 8.25318 3.86726C8.74368 3.763 9.25062 3.763 9.74112 3.86726C10.2955 3.98509 10.8169 4.28614 11.8598 4.88825L13.8579 6.04187C13.8659 6.04644 13.8738 6.05104 13.8818 6.05564C14.9247 6.65774 15.4461 6.9588 15.8253 7.37997C16.1609 7.75263 16.4144 8.19165 16.5693 8.66857C16.7444 9.20758 16.7444 9.80969 16.7444 11.0139V13.3487C16.7444 14.5529 16.7444 15.155 16.5693 15.694C16.4144 16.1709 16.1609 16.6099 15.8253 16.9826C15.4461 17.4038 14.9247 17.7048 13.8819 18.3069C13.8729 18.3121 13.8639 18.3172 13.855 18.3224L11.8598 19.4743C10.8169 20.0764 10.2955 20.3775 9.74112 20.4953C9.71834 20.5002 9.69552 20.5048 9.67267 20.5092L9.67266 13.2434C9.67266 12.294 9.1541 11.4205 8.32066 10.9659L2.24505 7.65189Z" fill="#ffffff"/>
</svg>
