<svg width="84" height="76" viewBox="0 0 84 76" fill="none" xmlns="http://www.w3.org/2000/svg">
<path fill-rule="evenodd" clip-rule="evenodd" d="M40.2177 75.6571C40.1304 75.8958 39.8804 76.0386 39.6256 75.9909C39.3684 75.967 39.182 75.7285 39.182 75.4659C39.1702 65.9886 39.1702 42.6656 39.1702 42.6656C39.1702 42.6656 37.9292 33.9041 50.507 27.005C64.7694 19.151 76.3868 15.4036 76.3868 15.4036C76.3868 15.4036 81.2779 12.5628 83.4674 15.0455C85.6545 17.5282 78.0478 24.8089 78.0478 24.8089L45.833 66.8485C45.833 66.8485 42.2137 70.4768 40.2177 75.6571ZM50.0234 43.4536L54.8695 37.1274C51.557 39.2521 50.0493 42.0446 49.9856 42.1639L50.0234 42.6656V43.4536Z" fill="white"/>
<path fill-rule="evenodd" clip-rule="evenodd" d="M40.2177 75.6571C40.1304 75.8958 39.8804 76.0386 39.6256 75.9909C39.3684 75.967 39.182 75.7285 39.182 75.4659C39.1702 65.9886 39.1702 42.6656 39.1702 42.6656C39.1702 42.6656 37.9292 33.9041 50.507 27.005C64.7694 19.151 76.3868 15.4036 76.3868 15.4036C76.3868 15.4036 81.2779 12.5628 83.4674 15.0455C85.6545 17.5282 78.0478 24.8089 78.0478 24.8089L45.833 66.8485C45.833 66.8485 42.2137 70.4768 40.2177 75.6571Z" fill="#2845C1"/>
<path fill-rule="evenodd" clip-rule="evenodd" d="M33.4623 75.5274C31.891 72.5022 29.3458 70.4354 29.3458 70.4354L4.48614 44.0617C4.48614 44.0617 -1.38389 39.4941 0.30389 37.9365C1.99349 36.379 5.76791 38.1612 5.76791 38.1612C5.76791 38.1612 14.7329 40.5121 25.739 45.4394C35.445 49.7676 34.4874 55.2642 34.4874 55.2642C34.4874 55.2642 34.4874 69.0576 34.4728 75.3028C34.4728 75.5424 34.2999 75.7671 34.0559 75.827C33.8137 75.8719 33.5661 75.7521 33.4623 75.5274ZM23.2647 52.7931L26.855 56.6121C26.855 56.013 26.855 55.6084 26.855 55.3987C26.4654 55.0243 25.0817 53.7366 23.2647 52.7931Z" fill="white"/>
<path fill-rule="evenodd" clip-rule="evenodd" d="M33.4623 75.5274C33.5661 75.7521 33.8137 75.8719 34.0559 75.827C34.2999 75.7671 34.4728 75.5424 34.4728 75.3028C34.4874 69.0576 34.4874 55.2642 34.4874 55.2642C34.4874 55.2642 35.445 49.7676 25.739 45.4394C14.7329 40.5121 5.76791 38.1612 5.76791 38.1612C5.76791 38.1612 1.99349 36.379 0.30389 37.9365C-1.38389 39.4941 4.48614 44.0617 4.48614 44.0617L29.3458 70.4354C29.3458 70.4354 31.891 72.5022 33.4623 75.5274Z" fill="#E1000F"/>
<path d="M34.5138 28.0406C34.4861 28.0406 34.4584 28.0405 34.4307 28.0403C26.7779 27.9945 20.6107 21.6804 20.6563 13.9374C20.7011 6.22276 26.8967 0 34.5105 0C34.5389 0 34.566 0.000133415 34.5944 0.000266976C42.2472 0.0460785 48.4137 6.36013 48.3688 14.1032C48.3239 21.8179 42.1284 28.0406 34.5138 28.0406Z" fill="#2845C1"/>
</svg>
