<svg width="100" height="112" viewBox="0 0 100 112" fill="none" xmlns="http://www.w3.org/2000/svg">
<g filter="url(#filter0_d_1460_40517)">
<path d="M47.7314 9.54784C46.9322 9.79831 46.1593 10.2445 44.6136 11.1369L18.8855 25.9911C17.3398 26.8835 16.567 27.3297 15.9504 27.8966C14.811 28.9443 14.0194 30.3155 13.6817 31.8261C13.499 32.6435 13.499 33.5359 13.499 35.3208V65.029C13.499 66.8138 13.499 67.7062 13.6817 68.5236C14.0194 70.0342 14.811 71.4054 15.9504 72.4532C16.567 73.0201 17.3398 73.4663 18.8855 74.3587L44.6136 89.2128C46.1593 90.1052 46.9322 90.5515 47.7314 90.8019C49.2085 91.2648 50.7918 91.2648 52.2688 90.8019C53.0681 90.5514 53.8409 90.1052 55.3866 89.2128L81.1147 74.3587C82.6604 73.4663 83.4333 73.0201 84.0498 72.4532C85.1892 71.4054 85.9809 70.0342 86.3185 68.5236C86.5012 67.7062 86.5012 66.8138 86.5012 65.029V35.3207C86.5012 33.5359 86.5012 32.6435 86.3185 31.8261C85.9809 30.3155 85.1892 28.9443 84.0498 27.8966C83.4333 27.3297 82.6604 26.8835 81.1147 25.9911L55.3866 11.1369C53.8409 10.2445 53.0681 9.79831 52.2688 9.54784C50.7918 9.08496 49.2085 9.08496 47.7314 9.54784Z" fill="#000091"/>
<path fill-rule="evenodd" clip-rule="evenodd" d="M58.3369 6.02683L84.065 20.881C84.1678 20.9403 84.2716 21 84.3761 21.0601C85.6009 21.7644 86.929 22.5281 88.0438 23.5532C90.0694 25.4158 91.4768 27.8535 92.0771 30.539C92.4074 32.017 92.4048 33.5489 92.4023 34.9618C92.4021 35.0824 92.4019 35.2021 92.4019 35.3208V65.0291C92.4019 65.1478 92.4021 65.2675 92.4023 65.388C92.4048 66.8009 92.4074 68.3329 92.0771 69.8109C91.4768 72.4964 90.0694 74.9341 88.0438 76.7967C86.929 77.8218 85.601 78.5855 84.3761 79.2898C84.2716 79.3499 84.1679 79.4096 84.065 79.4689L58.3369 94.3231C58.2341 94.3824 58.1305 94.4425 58.0262 94.5029C56.8038 95.2115 55.4785 95.9798 54.0333 96.4327C51.4074 97.2556 48.5927 97.2556 45.9668 96.4327C44.5217 95.9798 43.1963 95.2115 41.9739 94.5029C41.8696 94.4425 41.7661 94.3824 41.6632 94.3231L15.9351 79.4689C15.8323 79.4096 15.7285 79.3499 15.624 79.2898C14.3992 78.5855 13.0711 77.8218 11.9563 76.7967C9.93074 74.9341 8.52336 72.4964 7.92308 69.8109C7.59271 68.3329 7.59538 66.8009 7.59784 65.3881C7.59805 65.2675 7.59826 65.1478 7.59826 65.0291V35.3208C7.59826 35.2021 7.59805 35.0824 7.59784 34.9618C7.59538 33.5489 7.59271 32.017 7.92308 30.539C8.52336 27.8535 9.93074 25.4158 11.9563 23.5532C13.0711 22.5281 14.3992 21.7644 15.624 21.0601C15.7285 21 15.8323 20.9403 15.9351 20.881L41.6632 6.02683C41.766 5.96747 41.8696 5.90745 41.9739 5.84699C43.1963 5.13841 44.5217 4.37011 45.9668 3.91722C48.5927 3.09432 51.4074 3.09432 54.0333 3.91722C55.4785 4.37011 56.8039 5.13841 58.0262 5.84699C58.1306 5.90745 58.2341 5.96747 58.3369 6.02683ZM47.7314 9.54791C46.9321 9.79838 46.1593 10.2446 44.6136 11.137L18.8855 25.9911C17.3398 26.8835 16.5669 27.3297 15.9504 27.8967C14.811 28.9444 14.0193 30.3156 13.6817 31.8262C13.499 32.6436 13.499 33.536 13.499 35.3208V65.0291C13.499 66.8139 13.499 67.7063 13.6817 68.5237C14.0193 70.0343 14.811 71.4055 15.9504 72.4532C16.5669 73.0202 17.3398 73.4664 18.8855 74.3588L44.6136 89.2129C46.1592 90.1053 46.9321 90.5515 47.7314 90.802C49.2084 91.2649 50.7917 91.2649 52.2688 90.802C53.068 90.5515 53.8408 90.1053 55.3865 89.213L81.1147 74.3588C82.6604 73.4664 83.4332 73.0202 84.0498 72.4532C85.1892 71.4055 85.9808 70.0343 86.3185 68.5237C86.5012 67.7063 86.5012 66.8139 86.5012 65.0291V35.3208C86.5012 33.536 86.5012 32.6436 86.3185 31.8262C85.9808 30.3156 85.1892 28.9444 84.0498 27.8967C83.4332 27.3297 82.6604 26.8835 81.1147 25.9911L55.3866 11.137C53.8409 10.2446 53.068 9.79838 52.2688 9.54791C50.7917 9.08503 49.2084 9.08503 47.7314 9.54791Z" fill="#000091"/>
<path fill-rule="evenodd" clip-rule="evenodd" d="M58.3369 6.02683L84.065 20.881C84.1678 20.9403 84.2716 21 84.3761 21.0601C85.6009 21.7644 86.929 22.5281 88.0438 23.5532C90.0694 25.4158 91.4768 27.8535 92.0771 30.539C92.4074 32.017 92.4048 33.5489 92.4023 34.9618C92.4021 35.0824 92.4019 35.2021 92.4019 35.3208V65.0291C92.4019 65.1478 92.4021 65.2675 92.4023 65.388C92.4048 66.8009 92.4074 68.3329 92.0771 69.8109C91.4768 72.4964 90.0694 74.9341 88.0438 76.7967C86.929 77.8218 85.601 78.5855 84.3761 79.2898C84.2716 79.3499 84.1679 79.4096 84.065 79.4689L58.3369 94.3231C58.2341 94.3824 58.1305 94.4425 58.0262 94.5029C56.8038 95.2115 55.4785 95.9798 54.0333 96.4327C51.4074 97.2556 48.5927 97.2556 45.9668 96.4327C44.5217 95.9798 43.1963 95.2115 41.9739 94.5029C41.8696 94.4425 41.7661 94.3824 41.6632 94.3231L15.9351 79.4689C15.8323 79.4096 15.7285 79.3499 15.624 79.2898C14.3992 78.5855 13.0711 77.8218 11.9563 76.7967C9.93074 74.9341 8.52336 72.4964 7.92308 69.8109C7.59271 68.3329 7.59538 66.8009 7.59784 65.3881C7.59805 65.2675 7.59826 65.1478 7.59826 65.0291V35.3208C7.59826 35.2021 7.59805 35.0824 7.59784 34.9618C7.59538 33.5489 7.59271 32.017 7.92308 30.539C8.52336 27.8535 9.93074 25.4158 11.9563 23.5532C13.0711 22.5281 14.3992 21.7644 15.624 21.0601C15.7285 21 15.8323 20.9403 15.9351 20.881L41.6632 6.02683C41.766 5.96747 41.8696 5.90745 41.9739 5.84699C43.1963 5.13841 44.5217 4.37011 45.9668 3.91722C48.5927 3.09432 51.4074 3.09432 54.0333 3.91722C55.4785 4.37011 56.8039 5.13841 58.0262 5.84699C58.1306 5.90745 58.2341 5.96747 58.3369 6.02683ZM47.7314 9.54791C46.9321 9.79838 46.1593 10.2446 44.6136 11.137L18.8855 25.9911C17.3398 26.8835 16.5669 27.3297 15.9504 27.8967C14.811 28.9444 14.0193 30.3156 13.6817 31.8262C13.499 32.6436 13.499 33.536 13.499 35.3208V65.0291C13.499 66.8139 13.499 67.7063 13.6817 68.5237C14.0193 70.0343 14.811 71.4055 15.9504 72.4532C16.5669 73.0202 17.3398 73.4664 18.8855 74.3588L44.6136 89.2129C46.1592 90.1053 46.9321 90.5515 47.7314 90.802C49.2084 91.2649 50.7917 91.2649 52.2688 90.802C53.068 90.5515 53.8408 90.1053 55.3865 89.213L81.1147 74.3588C82.6604 73.4664 83.4332 73.0202 84.0498 72.4532C85.1892 71.4055 85.9808 70.0343 86.3185 68.5237C86.5012 67.7063 86.5012 66.8139 86.5012 65.0291V35.3208C86.5012 33.536 86.5012 32.6436 86.3185 31.8262C85.9808 30.3156 85.1892 28.9444 84.0498 27.8967C83.4332 27.3297 82.6604 26.8835 81.1147 25.9911L55.3866 11.137C53.8409 10.2446 53.068 9.79838 52.2688 9.54791C50.7917 9.08503 49.2084 9.08503 47.7314 9.54791Z" fill="url(#paint0_linear_1460_40517)"/>
<path d="M24.9253 50.4789L37.1043 29.5002L37.8139 28.2844L27.5176 21.0074L18.8855 25.9911C17.3398 26.8836 16.5669 27.3298 15.9504 27.8967C15.4139 28.39 14.9545 28.9551 14.5833 29.5727L24.9253 50.4789Z" fill="#F4C858"/>
<path d="M51.3197 9.31641L86.1587 69.1227C86.2199 68.9258 86.2733 68.726 86.3185 68.5237C86.5012 67.7063 86.5012 66.8139 86.5012 65.0291V35.3208C86.5012 33.536 86.5012 32.6436 86.3185 31.8262C85.9808 30.3156 85.1892 28.9444 84.0498 27.8967C83.4333 27.3298 82.6604 26.8836 81.1147 25.9911L55.3866 11.137C53.8409 10.2446 53.068 9.7984 52.2688 9.54793C51.9565 9.45006 51.6395 9.37289 51.3197 9.31641Z" fill="#F4C858"/>
<path d="M72.1399 20.8094L81.1148 25.9911C82.6605 26.8835 83.4333 27.3297 84.0498 27.8966C84.5404 28.3477 84.9666 28.8588 85.3197 29.4152L75.1199 50.2892L62.074 27.8321L72.1399 20.8094Z" fill="#2845C1"/>
<path d="M50.0839 9.20115V91.1486C49.2909 91.1574 48.4969 91.0418 47.7314 90.8019C46.9322 90.5515 46.1594 90.1052 44.6137 89.2129L18.8855 74.3587C17.3398 73.4663 16.567 73.0201 15.9505 72.4532C15.0091 71.5875 14.3051 70.5012 13.8984 69.2978L48.8588 9.28702C49.2647 9.22525 49.6745 9.19663 50.0839 9.20115Z" fill="#2845C1"/>
<path fill-rule="evenodd" clip-rule="evenodd" d="M62.0006 85.3943C59.6158 84.691 57.2657 83.883 54.9578 82.9728C54.5508 82.1238 54.3296 81.2039 54.3079 80.2698C54.2862 79.3356 54.4644 78.4071 54.8316 77.5416C55.0335 76.7965 55.3313 76.078 55.7199 75.4055C55.7829 75.345 55.846 75.2845 55.846 75.2216C55.8628 75.2216 55.8788 75.2152 55.8906 75.2039C55.9025 75.1925 55.9091 75.1771 55.9091 75.1611C56.1894 74.6906 56.5075 74.2417 56.8604 73.8184L56.8983 73.7821L56.9488 73.7313L56.9866 73.695C56.9866 73.6368 57.0451 73.5786 57.1058 73.5182L57.1128 73.5112C57.1446 73.4489 57.1926 73.4026 57.2404 73.3565C57.2872 73.3113 57.3339 73.2662 57.3651 73.2064C57.8092 72.7564 58.2988 72.3499 58.8262 71.9967C59.3637 71.8105 59.9138 71.6677 60.4765 71.5685C62.523 71.7137 64.5569 71.9798 66.5706 72.362C66.8179 72.3977 67.0555 72.4799 67.2696 72.604C68.0291 72.7467 68.8139 72.7032 69.5532 72.483C70.035 72.3985 70.4862 72.1972 70.8639 71.8983C71.2416 71.5993 71.5331 71.2126 71.7108 70.775C71.9333 70.3847 72.0603 69.9511 72.0822 69.5068C72.104 69.0625 72.0202 68.6192 71.8369 68.2106C71.3878 67.5453 71.8041 67.1558 72.2937 66.7833L72.4653 66.6526C72.6823 66.5051 72.8791 66.3285 73.0482 66.1301C73.2549 65.7338 73.0862 65.4438 72.9075 65.1365C72.8113 64.9711 72.7122 64.8007 72.6671 64.606C72.6095 64.4954 72.4854 64.4606 72.3433 64.4208C72.1745 64.3735 71.9804 64.3191 71.842 64.1221C72.7302 63.7568 73.9995 63.0818 73.4292 62.0488C73.0482 61.4997 72.4779 60.5247 73.1769 59.9755C73.5149 59.7914 73.9081 59.6945 74.2866 59.6012C74.9025 59.4495 75.4794 59.3073 75.7154 58.8143C75.8398 58.3534 75.8373 57.8695 75.7082 57.4098C75.579 56.9501 75.3276 56.5305 74.9786 56.1918L74.7893 55.9306C74.6011 55.6795 74.4234 55.4212 74.2569 55.1564C73.8559 54.5181 73.4108 53.9063 72.9245 53.325C72.3692 52.5709 71.9212 51.7492 71.5922 50.8816C71.3515 50.3057 71.4651 49.777 71.5815 49.2353C71.6495 48.9191 71.7183 48.5986 71.7183 48.2616C71.7557 46.5 71.4766 44.7455 70.8932 43.0747C70.7595 42.7157 70.6597 42.3459 70.5606 41.9788C70.4241 41.4727 70.2889 40.9716 70.068 40.5103C70.02 40.0003 69.8223 39.5138 69.4977 39.1072C69.4352 38.9839 69.4028 38.8487 69.4028 38.7116C69.4028 38.5746 69.4352 38.4393 69.4977 38.3161C70.015 37.9653 70.5046 37.5782 70.9588 37.1549C71.0988 36.8593 71.1249 36.5257 71.0325 36.2134C70.9401 35.9011 70.7351 35.6304 70.4541 35.4493C69.9581 35.2297 69.7849 35.5608 69.6006 35.913C69.4784 36.1467 69.3512 36.3897 69.1217 36.4871H68.7407C68.638 36.2391 68.786 36.1112 68.9821 35.9418C69.0269 35.903 69.0743 35.8621 69.1217 35.817C69.1217 35.6961 69.1217 35.4517 68.9956 35.4517C68.4909 35.4517 68.0442 35.3283 67.9155 35.0864C66.6993 33.6333 65.0672 32.5521 63.2194 31.9753C63.6938 32.1156 64.1834 32.1954 64.6805 32.2172C65.5334 32.3889 66.4217 32.3043 67.2191 31.9753C67.6347 31.8418 67.8152 31.2907 67.9794 30.7893C68.0414 30.5998 68.1012 30.4173 68.1704 30.2673C68.2216 30.0014 68.2142 29.7282 68.1486 29.4653C68.0829 29.2024 67.9606 28.9556 67.7894 28.7407C67.2162 27.942 66.4254 27.3094 65.5032 26.9118C64.9198 26.6502 64.3482 26.3653 63.7898 26.0578C63.5954 25.9269 63.382 25.8241 63.1564 25.753C55.6744 22.1604 40.2715 25.2691 39.0981 25.753H39.0754C37.9941 26.0537 36.9401 26.438 35.9236 26.9021C34.5242 27.4003 33.2604 28.1955 32.2269 29.2282C31.1934 30.2609 30.417 31.5044 29.9558 32.8655C28.515 33.773 27.3536 35.0335 26.592 36.5162C26.3419 36.9644 26.0647 37.4009 25.7895 37.8341C24.8765 39.2715 23.9858 40.6739 24.1797 42.3562C24.3472 43.6093 24.6005 44.7812 24.8633 45.9975C24.9962 46.6129 25.1317 47.2396 25.2597 47.8939C25.3682 48.5519 25.5373 49.2002 25.7644 49.8292C25.876 50.1246 25.8889 50.4564 25.9015 50.782C25.9174 51.1924 25.9329 51.5928 26.1454 51.8977C26.2074 52.0166 26.2356 52.1426 26.2633 52.2667C26.3203 52.5215 26.3755 52.7689 26.7182 52.9331V53.417C26.7518 53.4492 26.7765 53.4814 26.7994 53.5114C26.8625 53.5938 26.9123 53.6589 27.0993 53.6589V54.1427C28.1969 55.1661 29.1356 56.3346 29.8927 57.6119C30.145 58.2796 28.6865 57.9748 28.1263 57.7329C27.0777 57.0785 26.1182 56.3016 25.2698 55.4201C25.2005 55.4851 25.1553 55.5701 25.1411 55.662C25.3063 55.9408 25.6084 56.2393 25.9066 56.534C26.5191 57.1392 27.115 57.728 26.4734 58.0958C26.2535 58.2012 26.0201 58.1453 25.7848 58.089C25.4802 58.0161 25.1723 57.9424 24.8862 58.2167C24.8032 58.3377 24.8294 58.4847 24.857 58.6401C24.8714 58.721 24.8862 58.8041 24.8862 58.8869C24.4673 58.5969 24.0266 58.5676 23.5902 58.5386C23.2985 58.5192 23.0087 58.5 22.7287 58.403C22.4953 58.3471 22.3417 58.1219 22.1877 57.896C22.0087 57.6335 21.829 57.37 21.5225 57.37C20.0173 57.018 18.4911 56.7538 16.9526 56.5789C15.8073 56.4136 14.6549 56.2983 13.499 56.2334V57.4514C14.5046 57.2668 15.5284 57.1834 16.5539 57.2031C16.9534 57.1421 17.3605 57.1421 17.7601 57.2031C16.3151 57.2017 14.8797 57.4033 13.499 57.8V60.0076C14.5743 60.2116 15.6372 60.4731 16.6826 60.7908C17.7241 61.1578 18.7236 61.6263 19.6652 62.1891C20.0362 62.5278 20.4399 62.8351 20.8714 63.1012C21.176 63.2678 21.5162 63.3653 21.8662 63.3862C22.2161 63.4072 22.5664 63.3511 22.8902 63.2221H23.7229C25.5307 62.9357 27.2216 62.1783 28.6108 61.0327C28.6108 61.1537 28.7369 61.1537 28.8631 61.1537C28.6655 62.1181 28.3004 63.0438 27.7831 63.8923C27.7849 63.9215 27.7788 63.958 27.7721 63.9982C27.7509 64.125 27.7234 64.2892 27.9168 64.381H28.1162C28.0102 64.381 27.9168 64.3979 27.9168 64.5019C27.9168 64.6229 28.0121 64.6229 28.1228 64.6229C28.2335 64.6229 28.3597 64.6229 28.4215 64.7439C27.8219 64.7596 27.2524 64.9992 26.8343 65.4116C26.8343 65.5325 27.0866 65.5325 27.2153 65.5325C27.1228 65.6508 26.9845 65.6823 26.8522 65.7125C26.7139 65.7441 26.5821 65.7741 26.5163 65.9002C26.5845 65.9658 26.6731 66.0083 26.7687 66.0212C26.6425 66.0212 26.5163 66.0212 26.5163 66.1422V66.5099C26.3133 66.5099 26.1885 66.6086 26.0584 66.7114C25.9848 66.7696 25.9095 66.8291 25.8174 66.8728C26.1462 67.1124 26.3968 67.0397 26.6719 66.96C26.8189 66.9174 26.973 66.8728 27.1497 66.8728C26.5913 67.0756 26.0772 67.3119 25.5703 67.545C24.8677 67.868 24.1789 68.1847 23.405 68.3969C23.2788 68.3969 23.2788 68.4876 23.2788 68.5784C23.2788 68.6691 23.2788 68.7598 23.1526 68.7598C23.3836 68.9065 23.5451 68.8308 23.7207 68.7485C23.8348 68.6951 23.9549 68.6388 24.104 68.6388C23.4186 69.0186 22.7224 69.375 22.0154 69.7369C21.0197 70.2466 20.0025 70.7673 18.9637 71.3798C18.8269 71.5104 18.7382 71.6803 18.7114 71.8637H18.2067C18.076 71.9263 18.0469 72.0383 18.0137 72.1657C17.9828 72.2842 17.9485 72.416 17.8257 72.5338C18.1042 72.7111 18.4117 72.5997 18.6986 72.4958C18.9992 72.387 19.2772 72.2863 19.476 72.5338C19.6022 72.5338 19.2237 72.6548 18.9713 72.6548C18.9082 72.6548 18.8767 72.7153 18.8451 72.7757C18.8136 72.8362 18.7821 72.8967 18.719 72.8967H18.3304C18.2993 72.919 18.2683 72.9405 18.2377 72.9616C18.0197 73.1121 17.8257 73.2462 17.8257 73.5644C17.7349 73.5486 17.6417 73.5548 17.5545 73.582C17.6678 73.65 17.7873 73.7207 17.9135 73.7948C20.3999 73.7166 22.8578 73.2486 25.189 72.408C27.1567 71.4469 28.9386 70.1705 30.4579 68.634C30.5263 68.6993 30.5706 68.7843 30.5841 68.8759C30.2131 69.9331 29.499 70.85 28.5502 71.4887C28.2108 71.6672 27.9167 71.888 27.6397 72.0958C27.3462 72.3161 27.072 72.5218 26.7838 72.6475C26.4096 72.8482 26.0489 73.0712 25.7038 73.3152C24.109 73.7918 22.4713 74.1257 20.8109 74.312L20.0412 74.4184C19.761 74.4578 19.4815 74.499 19.2028 74.5419L22.8397 76.6417C23.4182 76.6349 23.995 76.5813 24.5657 76.4796C25.3076 76.2788 26.0293 76.0151 26.7233 75.6885V75.9304C27.5582 75.6137 28.2984 75.1066 29.0348 74.6023C29.8563 74.0396 30.673 73.4801 31.6111 73.1918C31.6281 73.1918 31.659 73.2094 31.6999 73.2326C31.8112 73.2958 31.997 73.4012 32.1814 73.3128C32.6385 72.7698 33.2195 72.3347 33.8797 72.0411C34.5399 71.7475 35.2616 71.6032 35.9892 71.6193C35.9892 71.7403 35.9892 71.8613 36.1154 71.8613H36.1785C35.8753 72.1038 35.5321 72.3433 35.1847 72.5858C35.0955 72.6481 35.006 72.7105 34.9168 72.7733C34.7729 72.8991 34.8991 73.0177 35.0253 73.0177C35.3596 72.89 35.6222 72.7111 35.8806 72.535C36.1118 72.3775 36.3396 72.2223 36.6125 72.108C36.5494 72.1685 36.5179 72.2592 36.4864 72.3499C36.4548 72.4407 36.4233 72.5314 36.3602 72.5919C35.8868 72.8756 35.4409 73.1994 35.0278 73.5596C33.6003 74.7657 32.2638 76.0673 31.0282 77.4545C30.4318 78.1353 29.7821 78.7691 29.1374 79.3981C29.0947 79.4398 29.0521 79.4814 29.0095 79.523C28.8533 79.6634 28.6886 79.7958 28.517 79.9194L44.6136 89.2129C46.1593 90.1053 46.9322 90.5515 47.7314 90.8019C49.2085 91.2648 50.7918 91.2648 52.2688 90.8019C53.0681 90.5515 53.8409 90.1053 55.3866 89.2129L62.0006 85.3943ZM69.3855 50.7013C69.5102 50.6382 69.6157 50.5453 69.692 50.4316C69.692 50.3247 69.5795 50.2387 69.4736 50.1578C69.352 50.0649 69.2391 49.9787 69.316 49.8752C70.0251 49.3938 70.6661 48.7358 70.4137 48.0753C70.3335 47.8522 69.9272 47.7681 69.4912 47.6779C69.2274 47.6233 68.9529 47.5665 68.7331 47.4753C68.2755 47.3441 67.7878 47.3441 67.3301 47.4753L66.9945 47.5406L66.6614 47.6035C66.0432 47.7076 65.435 47.8697 64.8496 48.0874C64.0143 48.3438 63.227 48.7285 62.5205 49.2269C63.3759 48.9075 64.2642 48.6849 65.1726 48.564C65.8488 48.4028 66.5501 48.3618 67.2418 48.443C67.3978 48.4795 67.5714 48.505 67.7378 48.5294C68.1235 48.586 68.4707 48.6369 68.4707 48.8059C68.3244 49.3124 67.8097 49.6097 67.2495 49.9333C66.8143 50.1846 66.3516 50.4519 66.0129 50.8453H65.6243C65.4326 50.9635 65.3668 51.1546 65.3105 51.318C65.2527 51.4858 65.205 51.6243 65.0414 51.6243C64.6709 51.5451 64.2833 51.5877 63.9412 51.7453C64.162 51.9912 64.4433 52.1804 64.7597 52.2957C65.0761 52.4111 65.4175 52.4489 65.753 52.4057C65.8612 52.4393 65.9562 52.5035 66.0256 52.5899C66.0949 52.6762 66.1354 52.7807 66.1416 52.8896C66.2381 52.8797 66.3277 52.8367 66.3939 52.7686C66.5176 52.7686 66.6463 52.7686 66.6463 52.8896V53.3734C66.5431 53.4899 66.4114 53.58 66.263 53.6358C66.1146 53.6915 65.9541 53.7111 65.7959 53.6928H65.5814C65.4398 53.69 65.2984 53.703 65.16 53.7315C66.0911 53.971 67.0702 53.971 68.0039 53.7315C68.384 53.6035 68.358 53.2189 68.3302 52.806C68.3059 52.4459 68.2802 52.0644 68.5212 51.813C68.395 51.813 68.395 51.7229 68.395 51.6328C68.395 51.5427 68.395 51.4526 68.2688 51.4526C68.4899 51.2169 68.7276 50.9962 68.9804 50.7921C69.1214 50.7957 69.2609 50.7645 69.3855 50.7013Z" fill="white"/>
<path d="M13.7508 68.8071C15.9723 68.3441 18.1375 67.657 20.2103 66.7567C18.1648 65.3937 15.8953 64.3739 13.499 63.7384V65.029C13.499 66.8138 13.499 67.7063 13.6817 68.5237C13.703 68.6187 13.726 68.7132 13.7508 68.8071Z" fill="white"/>
<rect x="25" y="79.8623" width="48.4375" height="20.3125" rx="3.125" fill="#3E5DE7"/>
<path d="M31.25 96.3587V83.3587H35.54C38.4 83.3587 40.1457 84.8259 40.1457 87.2402C40.1457 89.6359 38.4 91.103 35.54 91.103H33.8871V96.3587H31.25ZM35.6514 85.5502H33.8871V88.9116H35.6514C36.7657 88.9116 37.4343 88.2616 37.4343 87.203C37.4343 86.2187 36.7657 85.5502 35.6514 85.5502Z" fill="white"/>
<path d="M42.5126 96.3587V83.3587H46.4868C49.3468 83.3587 51.1111 84.8259 51.1111 87.2402C51.1111 88.8187 50.3497 89.9887 49.0126 90.6016L53.0797 96.3587H49.9783L46.5054 91.103H45.1497V96.3587H42.5126ZM46.6354 85.5502H45.1497V88.9116H46.6354C47.7497 88.9116 48.3997 88.2616 48.3997 87.203C48.3997 86.2187 47.7497 85.5502 46.6354 85.5502Z" fill="white"/>
<path d="M60.5306 82.9873C64.6163 82.9873 67.4206 86.1444 67.4206 89.8587C67.4206 93.573 64.6163 96.7302 60.5306 96.7302C56.4263 96.7302 53.622 93.573 53.622 89.8587C53.622 86.1444 56.4263 82.9873 60.5306 82.9873ZM60.5306 94.2602C62.9635 94.2602 64.7092 92.3473 64.7092 89.8587C64.7092 87.3702 62.9635 85.4573 60.5306 85.4573C58.0792 85.4573 56.3335 87.3702 56.3335 89.8587C56.3335 92.3473 58.0792 94.2602 60.5306 94.2602Z" fill="white"/>
</g>
<defs>
<filter id="filter0_d_1460_40517" x="-7.3" y="-3.1252" width="114.6" height="114.6" filterUnits="userSpaceOnUse" color-interpolation-filters="sRGB">
<feFlood flood-opacity="0" result="BackgroundImageFix"/>
<feColorMatrix in="SourceAlpha" type="matrix" values="0 0 0 0 0 0 0 0 0 0 0 0 0 0 0 0 0 0 127 0" result="hardAlpha"/>
<feOffset dy="4"/>
<feGaussianBlur stdDeviation="3.65"/>
<feComposite in2="hardAlpha" operator="out"/>
<feColorMatrix type="matrix" values="0 0 0 0 0.243137 0 0 0 0 0.364706 0 0 0 0 0.905882 0 0 0 0.2 0"/>
<feBlend mode="normal" in2="BackgroundImageFix" result="effect1_dropShadow_1460_40517"/>
<feBlend mode="normal" in="SourceGraphic" in2="effect1_dropShadow_1460_40517" result="shape"/>
</filter>
<linearGradient id="paint0_linear_1460_40517" x1="50.0001" y1="3.30005" x2="50.0001" y2="97.0498" gradientUnits="userSpaceOnUse">
<stop offset="0.675903" stop-color="#3E5DE7" stop-opacity="0"/>
<stop offset="0.825226" stop-color="#3E5DE7"/>
</linearGradient>
</defs>
</svg>
