<svg width="85" height="93" viewBox="0 0 85 93" fill="none" version="1.1" id="svg1" xmlns="http://www.w3.org/2000/svg">
  <path fill-rule="evenodd" clip-rule="evenodd" d="M35.4963 1.74835c4.0641-2.331133 9.0635-2.331133 13.1276 0C58.2705 7.28478 67.9172 12.8521 77.5332 18.4345c4.0564 2.3618 6.5563 6.6864 6.564 11.3716.0306 11.1266.0306 22.2608 0 33.3874-.0077 4.6852-2.5076 9.0103-6.564 11.3645-9.616 5.5901-19.2627 11.1572-28.9093 16.6937-4.0641 2.3311-9.0635 2.3311-13.1276 0-9.6466-5.5365-19.2934-11.1036-28.90928-16.6937C2.53822 72.2038.038341 67.8787.0230046 63.1935c-.0306728-11.1266-.0306728-22.2608 0-33.3874C.038341 25.1209 2.53822 20.7963 6.58702 18.4345 16.2029 12.8521 25.8497 7.28478 35.4963 1.74835Zm2.5764 4.4781C28.4261 11.7552 18.7947 17.3223 9.17878 22.9048c-2.46149 1.4339-3.97957 4.0641-3.98723 6.9167-.03068 11.1112-.03068 22.2378 0 33.3566.00766 2.8449 1.52574 5.483 3.98723 6.9093C18.7947 75.6775 28.4259 81.2369 38.0648 86.7657c2.4768 1.4186 5.5134 1.4186 7.9902 0 9.6389-5.5288 19.2782-11.0882 28.8864-16.6783 2.4615-1.4263 3.9874-4.0644 3.9951-6.9093.0307-11.1188.0307-22.2454 0-33.3566-.0077-2.8526-1.5336-5.4828-3.9951-6.9167-9.6082-5.5825-19.2475-11.1496-28.8864-16.67835-2.4768-1.41861-5.5132-1.41861-7.9823 0Z" fill="#000091" id="path1"/>
  <path fill-rule="evenodd" clip-rule="evenodd" d="M65.102236 24.604148h-6.924657c-3.195088 0-5.789194 2.853197-5.789194 6.368127v6.345724h6.979279c3.165074 0 5.734572-2.82696 5.734572-6.308492z" fill="#000091" id="path1-5" stroke-width=".711221"/>
  <path fill-rule="evenodd" clip-rule="evenodd" d="M36.849495 24.604148h6.924657c3.195087 0 5.789194 2.853197 5.789194 6.368127v6.345724h-6.978924c-3.165501 0-5.734927-2.82696-5.734927-6.308492z" fill="#000091" id="path2" stroke-width=".711221"/>
  <path fill-rule="evenodd" clip-rule="evenodd" d="M19.897764 40.142967H26.8224c3.195109 0 5.789215 2.853631 5.789215 6.368127v6.345725h-6.978966c-3.165451 0-5.734885-2.826605-5.734885-6.308456z" fill="#e1000f" id="path3" stroke-width=".711221"/>
  <path fill-rule="evenodd" clip-rule="evenodd" d="M19.897764 55.682H26.8224c3.195109 0 5.789215 2.853631 5.789215 6.368128v6.345724h-6.978966c-3.165451 0-5.734885-2.826604-5.734885-6.3081z" fill="#e1000f" id="path4" stroke-width=".711221"/>
  <path fill-rule="evenodd" clip-rule="evenodd" d="M36.849495 40.142967h6.924657c3.195087 0 5.789194 2.853631 5.789194 6.368127v6.345725h-6.978924c-3.165501 0-5.734927-2.826605-5.734927-6.308456z" fill="#cecece" id="path5" stroke-width=".711221"/>
  <path fill-rule="evenodd" clip-rule="evenodd" d="M65.102236 40.142967h-6.924657c-3.195088 0-5.789194 2.853631-5.789194 6.368127v6.345725h6.979279c3.165074 0 5.734572-2.826605 5.734572-6.308456z" fill="#cecece" id="path6" stroke-width=".711221"/>
  <path fill-rule="evenodd" clip-rule="evenodd" d="M36.849495 55.682h6.924657c3.195087 0 5.789194 2.853631 5.789194 6.368128v6.345724h-6.978924c-3.165501 0-5.734927-2.826604-5.734927-6.3081z" fill="#cecece" id="path7" stroke-width=".711221"/>
  <path fill-rule="evenodd" clip-rule="evenodd" d="M65.102236 55.682h-6.924657c-3.195088 0-5.789194 2.853631-5.789194 6.368128v6.345724h6.979279c3.165074 0 5.734572-2.826604 5.734572-6.3081z" fill="#cecece" id="path8" stroke-width=".711221"/>
  <path d="M40.692616 87.678297c-.629945-.124839-1.61552-.447403-2.084372-.682183-1.054139-.527869-29.587475-17.023023-30.0812698-17.390018-1.4976068-1.113037-2.5575509-2.696928-3.0543956-4.564231l-.2142778-.805326V46.566754c0-19.201735-.028214-18.166815.5351938-19.631801.5096229-1.325132 1.6547237-2.805721 2.7559603-3.563392.9578864-.659043 29.5869231-17.167059 30.3810611-17.5182645 1.834518-.811311 4.437648-.8111405 6.27271.0004109.840264.3716046 29.607352 16.9685056 30.35524 17.5131716 1.565818 1.140338 2.687582 2.850232 3.142505 4.790087.16496.70341.173541 1.613755.173541 18.409788v17.669785l-.211833.805326c-.568466 2.161144-1.888808 3.890477-3.876487 5.077271-3.723096 2.22297-28.866396 16.693409-29.480021 16.966303-.958838.42642-1.809303.610361-3.002904.649477-.625312.02049-1.350105-.005-1.610651-.05662zm-8.02959-22.991723c-.03789-3.532793-.05323-3.809091-.247599-4.460425-.682404-2.286721-2.237406-3.876772-4.320004-4.417375-.464314-.120527-1.244183-.146581-4.387584-.146581H19.88494l.03121 3.955569.03121 3.955568.268718.710581c.376586.995823.752038 1.624024 1.372014 2.295646.829514.898614 1.962712 1.549445 3.092757 1.776268.208437.04184 2.098784.08074 4.20077.08645l3.821795.01038zm16.869338-.142116-.02854-3.908197-.266794-.757953c-.727614-2.067132-2.356034-3.625439-4.256902-4.073619-.469473-.110691-1.375433-.139986-4.363425-.141096l-3.770937-.0014.02854 3.908196.02854 3.908197.267522.757044c.780563 2.208859 2.510211 3.772533 4.549904 4.113302.268536.04486 2.142533.08655 4.164438.09265l3.676193.01107zm11.38813 3.646935c1.748591-.583711 3.085512-1.923319 3.813022-3.820685l.305739-.797378.03066-3.955568.03066-3.955569-3.771747.0014c-3.02653.0011-3.891493.02963-4.377815.144263-2.02812.47807-3.800549 2.325462-4.370987 4.555849-.169816.663977-.186501 1.059019-.186501 4.415574v3.686359l3.955568-.03433c3.756371-.03261 3.986581-.04469 4.571406-.239911zM32.663026 49.148532c-.03789-3.532793-.05323-3.809091-.247599-4.460425-.682404-2.28672-2.237406-3.876772-4.320004-4.417374-.464314-.120528-1.244183-.146582-4.387584-.146582H19.88494l.03121 3.955569.03121 3.955568.268718.710581c.376586.995823.752038 1.624024 1.372014 2.295646.849938.920739 2.018027 1.581648 3.140129 1.776699.234492.04076 2.124839.07913 4.200771.08526l3.774422.01114zm16.869338-.142116-.02854-3.908197-.266794-.757953c-.727614-2.067132-2.356034-3.625439-4.256902-4.073619-.469473-.110691-1.375433-.139986-4.363425-.141096l-3.770937-.0014.02854 3.908197.02854 3.908196.267522.757044c.780563 2.208859 2.510211 3.772533 4.549904 4.113302.268536.04486 2.142533.08655 4.164438.09265l3.676193.01107zm11.38813 3.646935c1.748591-.583711 3.085512-1.923319 3.813022-3.820685l.305739-.797378.03066-3.955568.03066-3.955569-3.771747.0014c-3.02653.0011-3.891493.02963-4.377815.144263-2.02812.47807-3.800549 2.325462-4.370987 4.555849-.169816.663977-.186501 1.059019-.186501 4.415574v3.686359l3.955568-.03433c3.756371-.0326 3.986581-.04469 4.571406-.239911zM49.622932 33.657862c-.03656-3.411807-.05627-3.778474-.238825-4.442888-.627409-2.283471-2.223135-3.935517-4.329479-4.482283-.464925-.120686-1.24928-.146582-4.439813-.146582h-3.875128l.04732 3.718708c.05315 4.177346.07726 4.36266.748768 5.755708.68582 1.422737 2.266133 2.759333 3.677938 3.110724.709117.176496.771856.179078 4.67457.192419l3.774502.0129zm10.833241 3.582884c1.077485-.228398 1.836434-.661844 2.742865-1.566485.919799-.917983 1.391429-1.7167 1.719308-2.911686.187291-.682601.205823-1.023084.242628-4.457758l.03985-3.718708h-3.873026c-4.255479 0-4.452016.02045-5.609508.583816-.742362.361314-1.913749 1.453812-2.37006 2.210446-.493546.818375-.855972 1.947631-.956479 2.980221-.10059 1.033449-.125561 6.857067-.02981 6.952815.03474.03474 1.729475.06242 3.766081.06152 2.806105-.0012 3.854344-.03374 4.328154-.13418z" id="path9" fill="#fff" stroke="#d40000" stroke-width=".0189488"/>
</svg>
