<svg width="140" height="22.293354" viewBox="0 0 37.041666 5.8984499" version="1.1" id="svg1" xmlns="http://www.w3.org/2000/svg">
  <defs id="defs1">
    <path id="rect1" d="M24.468462 46.218204h60.020927v27.814575H24.468462z"/>
  </defs>
  <g id="layer1" transform="translate(-90.752084 -166.15835)">
    <rect x="117.21042" y="166.97394" width="10.583333" height="4.2333331" rx="2.1166666" fill="#e3e3fd" id="rect4" stroke-width=".264583"/>
    <path d="M119.0977 170.14894v-2.03729h.59954c.42492 0 .68395.20955.68395.55298 0 .1659-.0757.30851-.21828.40164.21537.096.3347.27067.3347.48313 0 .37253-.28813.59954-.75671.59954zm.60827-1.69386h-.19499v.45985h.19499c.15717 0 .2503-.0844.2503-.23284 0-.14261-.0931-.22701-.2503-.22701zm.0582.80328h-.2532v.54715h.2532c.19209 0 .30851-.10186.30851-.27357 0-.17463-.11642-.27358-.30851-.27358zm1.12845.89058v-2.03729h1.18745v.34343h-.77417v.48313h.65775v.34343h-.65775v.52387h.77417v.34343zm1.47161-1.66184v-.37545h1.67058v.37545h-.62865v1.66184h-.41328v-1.66184zm1.55231 1.66184.77126-2.03729h.54134l.77126 2.03729h-.43947l-.195-.52969h-.81492l-.19499.52969zm.76253-.88185h.5588l-.2794-.76544z" fill="#6a6af4" id="path5" stroke-width=".264583"/>
    <path style="line-height:18.3334px;-inkscape-font-specification:&quot;Marianne Bold&quot;;white-space:pre" d="M33.81875 58.399451c-3.014 0-5.192-2.266-5.192-5.214 0-2.948 2.068-5.214 4.972-5.214 1.76 0 3.146.858 4.026 2.112l2.464-1.914c-1.408-1.87-3.696-3.124-6.49-3.124-4.862 0-8.184 3.74-8.184 8.14s3.41 8.14 8.404 8.14c2.882 0 5.28-1.232 6.71-3.146v-6.468h-7.04v2.662h3.916v2.684c-.88.836-2.134 1.342-3.586 1.342zm9.812002 2.486h2.794v-7.106c.418-.704 1.298-1.452 2.662-1.452.506 0 .88.066 1.232.154v-2.75c-.264-.088-.594-.154-.968-.154-1.254 0-2.2.572-2.926 1.32v-1.1h-2.794zm10.340003-13.024c.99 0 1.804-.836 1.804-1.826 0-.99-.814-1.826-1.804-1.826-.99 0-1.826.836-1.826 1.826 0 .99.836 1.826 1.826 1.826zm-1.408 13.024h2.794v-11.088h-2.794zm5.015986-1.606c1.056 1.254 2.464 2.046 4.444 2.046 2.09 0 3.96-1.276 4.004-3.608 0-3.828-5.302-3.168-5.302-5.06 0-.572.418-1.056 1.298-1.056.858 0 1.584.572 2.156 1.276l1.848-1.628c-.792-1.078-2.332-1.892-4.026-1.892-2.31 0-3.96 1.474-3.96 3.432 0 3.894 5.302 3.168 5.302 5.104 0 .66-.462 1.188-1.364 1.188-1.056 0-1.87-.616-2.552-1.474zm11.902003-2.442c0 2.706 1.32 4.268 4.092 4.268.924 0 1.584-.11 2.134-.352v-2.442c-.374.154-.88.242-1.65.242-1.1 0-1.76-.484-1.76-1.716v-4.532h3.388v-2.508h-3.388v-2.772h-2.816v2.772h-2.068v2.508h2.068z" id="text1" transform="translate(93.917981 155.09445) scale(.2646)" aria-label="Grist" font-weight="700" font-size="22" font-family="Marianne" letter-spacing="0" word-spacing="0" fill="#000091" stroke-width="1"/>
    <path fill-rule="evenodd" clip-rule="evenodd" d="M91.810418 168.37089c0-.0661.0535-.11959.11958-.11959h.81311c.43035 0 .77975.38436.77975.85775v.73513c0 .066-.0535.11957-.11957.11957h-.82043c-.42636 0-.77244-.38072-.77244-.84969z" fill="#c9191e" id="path1-9" stroke-width=".245765"/>
    <path fill-rule="evenodd" clip-rule="evenodd" d="M91.810418 170.46385c0-.0661.0535-.11959.11958-.11959h.81311c.43035 0 .77975.38435.77975.85772v.73516c0 .066-.0535.11956-.11957.11956h-.82043c-.42636 0-.77244-.38071-.77244-.84963z" fill="#c9191e" id="path2-2" stroke-width=".245765"/>
    <path fill-rule="evenodd" clip-rule="evenodd" d="M97.899138 166.27792c0-.066-.0535-.11957-.11956-.11957h-.81311c-.43036 0-.77977.3843-.77977.85773v.73514c0 .066.0536.11957.11959.11957h.82049c.4263 0 .77236-.38077.77236-.8497z" fill="#000091" id="path3-0" stroke-width=".245765"/>
    <path fill-rule="evenodd" clip-rule="evenodd" d="M94.093698 166.27792c0-.066.0536-.11957.11959-.11957h.81311c.43033 0 .77976.3843.77976.85773v.73514c0 .066-.0536.11957-.11959.11957h-.82043c-.42636 0-.77244-.38077-.77244-.8497z" fill="#000091" id="path4-2" stroke-width=".245765"/>
    <path fill-rule="evenodd" clip-rule="evenodd" d="M94.093698 168.37087c0-.066.0536-.11957.11959-.11957h.81311c.43033 0 .77976.38436.77976.85772v.73514c0 .066-.0536.11959-.11959.11959h-.82043c-.42636 0-.77244-.38072-.77244-.84971z" fill="#000091" id="path5-3" stroke-width=".245765"/>
    <path fill-rule="evenodd" clip-rule="evenodd" d="M97.899138 168.37087c0-.066-.0535-.11957-.11956-.11957h-.81311c-.43036 0-.77977.38436-.77977.85772v.73514c0 .066.0536.11959.11959.11959h.82049c.4263 0 .77236-.38072.77236-.84971z" fill="#000091" id="path6" stroke-width=".245765"/>
    <path fill-rule="evenodd" clip-rule="evenodd" d="M94.093698 170.46383c0-.066.0536-.11957.11959-.11957h.81311c.43033 0 .77976.38435.77976.85772v.73513c0 .066-.0536.11959-.11959.11959h-.82043c-.42636 0-.77244-.38071-.77244-.84966z" fill="#000091" id="path7" stroke-width=".245765"/>
    <path fill-rule="evenodd" clip-rule="evenodd" d="M97.899138 170.46383c0-.066-.0535-.11957-.11956-.11957h-.81311c-.43036 0-.77977.38435-.77977.85772v.73513c0 .066.0536.11959.11959.11959h.82049c.4263 0 .77236-.38071.77236-.84966z" fill="#000091" id="path8" stroke-width=".245765"/>
  </g>
</svg>
