<svg width="170" height="auto" viewBox="0 0 102 72" fill="none" xmlns="http://www.w3.org/2000/svg">
<g filter="url(#filter0_d_14687_1180)">
<path d="M50.2285 10.1895C50.9332 10.1895 51.6045 10.3537 52.2314 10.6797L52.2305 10.6807C52.9186 11.0072 53.4566 11.5367 53.8506 12.2256H53.8516L77.6689 53.7754L77.6777 53.791L77.6855 53.8066C78.0672 54.5461 78.2675 55.3179 78.2676 56.1143C78.2676 57.2505 77.8793 58.2575 77.1191 59.0996L77.1201 59.1006C76.3307 60.0216 75.2525 60.459 73.9844 60.459H26.4424C25.1743 60.459 24.0961 60.0216 23.3066 59.1006V59.0996C22.5646 58.2544 22.1895 57.247 22.1895 56.1143C22.1895 55.7708 22.2261 55.405 22.2939 55.0205L22.2979 54.998L22.3027 54.9766C22.3994 54.5656 22.5441 54.1678 22.7354 53.7852L22.7461 53.7646L22.7578 53.7441L46.5752 12.2256C46.9711 11.5331 47.513 11.002 48.2061 10.6758V10.6738C48.8469 10.3534 49.5241 10.1895 50.2285 10.1895Z" fill="#3E5DE7"/>
<path d="M50.2285 10.1895C50.9332 10.1895 51.6045 10.3537 52.2314 10.6797L52.2305 10.6807C52.9186 11.0072 53.4566 11.5367 53.8506 12.2256H53.8516L77.6689 53.7754L77.6777 53.791L77.6855 53.8066C78.0672 54.5461 78.2675 55.3179 78.2676 56.1143C78.2676 57.2505 77.8793 58.2575 77.1191 59.0996L77.1201 59.1006C76.3307 60.0216 75.2525 60.459 73.9844 60.459H26.4424C25.1743 60.459 24.0961 60.0216 23.3066 59.1006V59.0996C22.5646 58.2544 22.1895 57.247 22.1895 56.1143C22.1895 55.7708 22.2261 55.405 22.2939 55.0205L22.2979 54.998L22.3027 54.9766C22.3994 54.5656 22.5441 54.1678 22.7354 53.7852L22.7461 53.7646L22.7578 53.7441L46.5752 12.2256C46.9711 11.5331 47.513 11.002 48.2061 10.6758V10.6738C48.8469 10.3534 49.5241 10.1895 50.2285 10.1895Z" fill="#F6F8F9" fill-opacity="0.25"/>
<path d="M50.2285 10.1895C50.9332 10.1895 51.6045 10.3537 52.2314 10.6797L52.2305 10.6807C52.9186 11.0072 53.4566 11.5367 53.8506 12.2256H53.8516L77.6689 53.7754L77.6777 53.791L77.6855 53.8066C78.0672 54.5461 78.2675 55.3179 78.2676 56.1143C78.2676 57.2505 77.8793 58.2575 77.1191 59.0996L77.1201 59.1006C76.3307 60.0216 75.2525 60.459 73.9844 60.459H26.4424C25.1743 60.459 24.0961 60.0216 23.3066 59.1006V59.0996C22.5646 58.2544 22.1895 57.247 22.1895 56.1143C22.1895 55.7708 22.2261 55.405 22.2939 55.0205L22.2979 54.998L22.3027 54.9766C22.3994 54.5656 22.5441 54.1678 22.7354 53.7852L22.7461 53.7646L22.7578 53.7441L46.5752 12.2256C46.9711 11.5331 47.513 11.002 48.2061 10.6758V10.6738C48.8469 10.3534 49.5241 10.1895 50.2285 10.1895Z" stroke="#3E5DE7" stroke-width="1.62162"/>
<path d="M50.2285 10.1895C50.9332 10.1895 51.6045 10.3537 52.2314 10.6797L52.2305 10.6807C52.9186 11.0072 53.4566 11.5367 53.8506 12.2256H53.8516L77.6689 53.7754L77.6777 53.791L77.6855 53.8066C78.0672 54.5461 78.2675 55.3179 78.2676 56.1143C78.2676 57.2505 77.8793 58.2575 77.1191 59.0996L77.1201 59.1006C76.3307 60.0216 75.2525 60.459 73.9844 60.459H26.4424C25.1743 60.459 24.0961 60.0216 23.3066 59.1006V59.0996C22.5646 58.2544 22.1895 57.247 22.1895 56.1143C22.1895 55.7708 22.2261 55.405 22.2939 55.0205L22.2979 54.998L22.3027 54.9766C22.3994 54.5656 22.5441 54.1678 22.7354 53.7852L22.7461 53.7646L22.7578 53.7441L46.5752 12.2256C46.9711 11.5331 47.513 11.002 48.2061 10.6758V10.6738C48.8469 10.3534 49.5241 10.1895 50.2285 10.1895Z" stroke="#F6F8F9" stroke-opacity="0.45" stroke-width="1.62162"/>
<g filter="url(#filter1_d_14687_1180)">
<path d="M53.3662 36.5257C53.7202 36.5563 54.1566 36.8166 55.0292 37.336L57.0818 38.5577C57.7756 38.9708 58.1228 39.1777 58.3996 39.4401C58.911 39.9251 59.2666 40.5595 59.4182 41.2586C59.5002 41.637 59.5 42.0505 59.5 42.8767V46.4811C59.5 47.3069 59.5001 47.72 59.4182 48.0983C59.2666 48.7972 58.9116 49.4318 58.4004 49.9167C58.1238 50.1791 57.777 50.386 57.0835 50.7991L54.0541 52.6027C53.3602 53.016 53.0132 53.2231 52.6544 53.3392C51.9911 53.5536 51.2797 53.5536 50.6164 53.3392C50.2574 53.2231 49.91 53.0161 49.2159 52.6027L47.1565 51.3766C46.2836 50.8567 45.847 50.5965 45.6443 50.2955C45.2655 49.733 45.2658 48.9865 45.6452 48.4243C45.8482 48.1236 46.2856 47.8641 47.159 47.345L49.2227 46.1181C49.9174 45.7052 50.2651 45.499 50.5422 45.2365C51.0542 44.7516 51.4098 44.1167 51.5617 43.4172C51.6438 43.0386 51.6443 42.625 51.6443 41.7983V39.3514C51.6443 38.3124 51.644 37.7923 51.7952 37.4608C52.078 36.8415 52.7046 36.4685 53.3662 36.5257Z" fill="#222631"/>
<path d="M53.3662 36.5257C53.7202 36.5563 54.1566 36.8166 55.0292 37.336L57.0818 38.5577C57.7756 38.9708 58.1228 39.1777 58.3996 39.4401C58.911 39.9251 59.2666 40.5595 59.4182 41.2586C59.5002 41.637 59.5 42.0505 59.5 42.8767V46.4811C59.5 47.3069 59.5001 47.72 59.4182 48.0983C59.2666 48.7972 58.9116 49.4318 58.4004 49.9167C58.1238 50.1791 57.777 50.386 57.0835 50.7991L54.0541 52.6027C53.3602 53.016 53.0132 53.2231 52.6544 53.3392C51.9911 53.5536 51.2797 53.5536 50.6164 53.3392C50.2574 53.2231 49.91 53.0161 49.2159 52.6027L47.1565 51.3766C46.2836 50.8567 45.847 50.5965 45.6443 50.2955C45.2655 49.733 45.2658 48.9865 45.6452 48.4243C45.8482 48.1236 46.2856 47.8641 47.159 47.345L49.2227 46.1181C49.9174 45.7052 50.2651 45.499 50.5422 45.2365C51.0542 44.7516 51.4098 44.1167 51.5617 43.4172C51.6438 43.0386 51.6443 42.625 51.6443 41.7983V39.3514C51.6443 38.3124 51.644 37.7923 51.7952 37.4608C52.078 36.8415 52.7046 36.4685 53.3662 36.5257Z" fill="#3E5DE7"/>
<path d="M53.3662 36.5257C53.7202 36.5563 54.1566 36.8166 55.0292 37.336L57.0818 38.5577C57.7756 38.9708 58.1228 39.1777 58.3996 39.4401C58.911 39.9251 59.2666 40.5595 59.4182 41.2586C59.5002 41.637 59.5 42.0505 59.5 42.8767V46.4811C59.5 47.3069 59.5001 47.72 59.4182 48.0983C59.2666 48.7972 58.9116 49.4318 58.4004 49.9167C58.1238 50.1791 57.777 50.386 57.0835 50.7991L54.0541 52.6027C53.3602 53.016 53.0132 53.2231 52.6544 53.3392C51.9911 53.5536 51.2797 53.5536 50.6164 53.3392C50.2574 53.2231 49.91 53.0161 49.2159 52.6027L47.1565 51.3766C46.2836 50.8567 45.847 50.5965 45.6443 50.2955C45.2655 49.733 45.2658 48.9865 45.6452 48.4243C45.8482 48.1236 46.2856 47.8641 47.159 47.345L49.2227 46.1181C49.9174 45.7052 50.2651 45.499 50.5422 45.2365C51.0542 44.7516 51.4098 44.1167 51.5617 43.4172C51.6438 43.0386 51.6443 42.625 51.6443 41.7983V39.3514C51.6443 38.3124 51.644 37.7923 51.7952 37.4608C52.078 36.8415 52.7046 36.4685 53.3662 36.5257Z" fill="#F6F8F9" fill-opacity="0.9"/>
<path d="M48.3456 26.6608C49.0089 26.4464 49.7203 26.4464 50.3836 26.6608C50.7425 26.7769 51.0893 26.984 51.7833 27.3974L53.8427 28.6234C54.7154 29.1433 55.1521 29.4036 55.3548 29.7045C55.7337 30.267 55.7334 31.0135 55.354 31.5757C55.1509 31.8763 54.7141 32.1361 53.841 32.655L51.7765 33.8819C51.082 34.2946 50.7349 34.5011 50.4578 34.7635C49.9457 35.2485 49.5893 35.8832 49.4375 36.5828C49.3554 36.9614 49.3557 37.375 49.3557 38.2018V40.6486C49.3557 41.6876 49.356 42.2077 49.2048 42.5392C48.922 43.1585 48.2954 43.5314 47.6338 43.4743C47.2798 43.4437 46.8433 43.1834 45.9708 42.664L43.9174 41.4423C43.2237 41.0293 42.8772 40.8222 42.6004 40.5599C42.089 40.075 41.7334 39.4405 41.5818 38.7414C41.4998 38.3631 41.5 37.9495 41.5 37.1233V33.5189C41.5 32.6931 41.4999 32.28 41.5818 31.9018C41.7334 31.2028 42.0884 30.5682 42.5996 30.0833C42.8762 29.8209 43.223 29.614 43.9165 29.2009L46.9459 27.3974C47.6399 26.984 47.9867 26.7769 48.3456 26.6608Z" fill="#222631"/>
<path d="M48.3456 26.6608C49.0089 26.4464 49.7203 26.4464 50.3836 26.6608C50.7425 26.7769 51.0893 26.984 51.7833 27.3974L53.8427 28.6234C54.7154 29.1433 55.1521 29.4036 55.3548 29.7045C55.7337 30.267 55.7334 31.0135 55.354 31.5757C55.1509 31.8763 54.7141 32.1361 53.841 32.655L51.7765 33.8819C51.082 34.2946 50.7349 34.5011 50.4578 34.7635C49.9457 35.2485 49.5893 35.8832 49.4375 36.5828C49.3554 36.9614 49.3557 37.375 49.3557 38.2018V40.6486C49.3557 41.6876 49.356 42.2077 49.2048 42.5392C48.922 43.1585 48.2954 43.5314 47.6338 43.4743C47.2798 43.4437 46.8433 43.1834 45.9708 42.664L43.9174 41.4423C43.2237 41.0293 42.8772 40.8222 42.6004 40.5599C42.089 40.075 41.7334 39.4405 41.5818 38.7414C41.4998 38.3631 41.5 37.9495 41.5 37.1233V33.5189C41.5 32.6931 41.4999 32.28 41.5818 31.9018C41.7334 31.2028 42.0884 30.5682 42.5996 30.0833C42.8762 29.8209 43.223 29.614 43.9165 29.2009L46.9459 27.3974C47.6399 26.984 47.9867 26.7769 48.3456 26.6608Z" fill="#3E5DE7"/>
<path d="M48.3456 26.6608C49.0089 26.4464 49.7203 26.4464 50.3836 26.6608C50.7425 26.7769 51.0893 26.984 51.7833 27.3974L53.8427 28.6234C54.7154 29.1433 55.1521 29.4036 55.3548 29.7045C55.7337 30.267 55.7334 31.0135 55.354 31.5757C55.1509 31.8763 54.7141 32.1361 53.841 32.655L51.7765 33.8819C51.082 34.2946 50.7349 34.5011 50.4578 34.7635C49.9457 35.2485 49.5893 35.8832 49.4375 36.5828C49.3554 36.9614 49.3557 37.375 49.3557 38.2018V40.6486C49.3557 41.6876 49.356 42.2077 49.2048 42.5392C48.922 43.1585 48.2954 43.5314 47.6338 43.4743C47.2798 43.4437 46.8433 43.1834 45.9708 42.664L43.9174 41.4423C43.2237 41.0293 42.8772 40.8222 42.6004 40.5599C42.089 40.075 41.7334 39.4405 41.5818 38.7414C41.4998 38.3631 41.5 37.9495 41.5 37.1233V33.5189C41.5 32.6931 41.4999 32.28 41.5818 31.9018C41.7334 31.2028 42.0884 30.5682 42.5996 30.0833C42.8762 29.8209 43.223 29.614 43.9165 29.2009L46.9459 27.3974C47.6399 26.984 47.9867 26.7769 48.3456 26.6608Z" fill="#F6F8F9" fill-opacity="0.9"/>
<path d="M53.3555 36.6455C53.5087 36.6588 53.6897 36.7227 53.9482 36.8545C54.2063 36.9861 54.53 37.1788 54.9678 37.4395L57.0205 38.6611C57.719 39.0769 58.0526 39.2763 58.3174 39.5273C58.8109 39.9954 59.1542 40.6084 59.3008 41.2842C59.3794 41.6469 59.3799 42.0454 59.3799 42.877V46.4814C59.3799 47.3125 59.3794 47.7106 59.3008 48.0732C59.1542 48.7489 58.8107 49.3622 58.3174 49.8301C58.0528 50.0809 57.7202 50.2807 57.0225 50.6963L53.9922 52.5C53.2936 52.9161 52.96 53.1137 52.6172 53.2246C51.9779 53.4312 51.2926 53.4312 50.6533 53.2246C50.3104 53.1137 49.9762 52.9163 49.2773 52.5L47.2178 51.2734C46.78 51.0127 46.4564 50.8202 46.2168 50.6553C45.977 50.4902 45.8327 50.3599 45.7441 50.2285C45.3926 49.7065 45.3931 49.0128 45.7451 48.4912C45.8338 48.36 45.9786 48.2302 46.2188 48.0654C46.4587 47.9008 46.7826 47.7086 47.2207 47.4482L49.2842 46.2217C49.974 45.8117 50.3359 45.5971 50.625 45.3232C51.1546 44.8215 51.5219 44.1649 51.6787 43.4424C51.7642 43.0483 51.7646 42.6192 51.7646 41.7979V39.3516C51.7646 38.8306 51.7647 38.4451 51.7832 38.1484C51.8018 37.8511 51.8381 37.6559 51.9043 37.5107C52.1667 36.9361 52.7463 36.593 53.3555 36.6455ZM48.3828 26.7754C49.0221 26.5688 49.7074 26.5687 50.3467 26.7754C50.6895 26.8863 51.0229 27.0838 51.7217 27.5L53.7812 28.7266C54.219 28.9873 54.5426 29.1798 54.7822 29.3447C55.022 29.5098 55.1663 29.6402 55.2549 29.7715C55.6065 30.2935 55.6069 30.9872 55.2549 31.5088C55.1662 31.64 55.0212 31.7698 54.7812 31.9346C54.5415 32.0992 54.2173 32.2915 53.7793 32.5518L51.7148 33.7783C51.0252 34.1882 50.664 34.403 50.375 34.6768C49.8454 35.1785 49.4771 35.8349 49.3203 36.5576C49.2348 36.9517 49.2354 37.3811 49.2354 38.2021V40.6484C49.2354 41.1694 49.2353 41.5549 49.2168 41.8516C49.1982 42.1489 49.1619 42.3441 49.0957 42.4893C48.8334 43.0639 48.2537 43.4069 47.6445 43.3545C47.4913 43.3412 47.3103 43.2773 47.0518 43.1455C46.9227 43.0797 46.7771 42.9985 46.6094 42.9014L46.0322 42.5605L43.9785 41.3389C43.2804 40.9233 42.9474 40.7236 42.6826 40.4727C42.1891 40.0046 41.8458 39.3916 41.6992 38.7158C41.6206 38.3531 41.6201 37.9546 41.6201 37.123V33.5186C41.6201 32.6875 41.6206 32.2894 41.6992 31.9268C41.8458 31.2511 42.1893 30.6378 42.6826 30.1699C42.9472 29.9191 43.2798 29.7193 43.9775 29.3037L47.0078 27.5C47.7064 27.0839 48.04 26.8862 48.3828 26.7754Z" stroke="#3E5DE7" stroke-width="0.24"/>
<path d="M53.3555 36.6455C53.5087 36.6588 53.6897 36.7227 53.9482 36.8545C54.2063 36.9861 54.53 37.1788 54.9678 37.4395L57.0205 38.6611C57.719 39.0769 58.0526 39.2763 58.3174 39.5273C58.8109 39.9954 59.1542 40.6084 59.3008 41.2842C59.3794 41.6469 59.3799 42.0454 59.3799 42.877V46.4814C59.3799 47.3125 59.3794 47.7106 59.3008 48.0732C59.1542 48.7489 58.8107 49.3622 58.3174 49.8301C58.0528 50.0809 57.7202 50.2807 57.0225 50.6963L53.9922 52.5C53.2936 52.9161 52.96 53.1137 52.6172 53.2246C51.9779 53.4312 51.2926 53.4312 50.6533 53.2246C50.3104 53.1137 49.9762 52.9163 49.2773 52.5L47.2178 51.2734C46.78 51.0127 46.4564 50.8202 46.2168 50.6553C45.977 50.4902 45.8327 50.3599 45.7441 50.2285C45.3926 49.7065 45.3931 49.0128 45.7451 48.4912C45.8338 48.36 45.9786 48.2302 46.2188 48.0654C46.4587 47.9008 46.7826 47.7086 47.2207 47.4482L49.2842 46.2217C49.974 45.8117 50.3359 45.5971 50.625 45.3232C51.1546 44.8215 51.5219 44.1649 51.6787 43.4424C51.7642 43.0483 51.7646 42.6192 51.7646 41.7979V39.3516C51.7646 38.8306 51.7647 38.4451 51.7832 38.1484C51.8018 37.8511 51.8381 37.6559 51.9043 37.5107C52.1667 36.9361 52.7463 36.593 53.3555 36.6455ZM48.3828 26.7754C49.0221 26.5688 49.7074 26.5687 50.3467 26.7754C50.6895 26.8863 51.0229 27.0838 51.7217 27.5L53.7812 28.7266C54.219 28.9873 54.5426 29.1798 54.7822 29.3447C55.022 29.5098 55.1663 29.6402 55.2549 29.7715C55.6065 30.2935 55.6069 30.9872 55.2549 31.5088C55.1662 31.64 55.0212 31.7698 54.7812 31.9346C54.5415 32.0992 54.2173 32.2915 53.7793 32.5518L51.7148 33.7783C51.0252 34.1882 50.664 34.403 50.375 34.6768C49.8454 35.1785 49.4771 35.8349 49.3203 36.5576C49.2348 36.9517 49.2354 37.3811 49.2354 38.2021V40.6484C49.2354 41.1694 49.2353 41.5549 49.2168 41.8516C49.1982 42.1489 49.1619 42.3441 49.0957 42.4893C48.8334 43.0639 48.2537 43.4069 47.6445 43.3545C47.4913 43.3412 47.3103 43.2773 47.0518 43.1455C46.9227 43.0797 46.7771 42.9985 46.6094 42.9014L46.0322 42.5605L43.9785 41.3389C43.2804 40.9233 42.9474 40.7236 42.6826 40.4727C42.1891 40.0046 41.8458 39.3916 41.6992 38.7158C41.6206 38.3531 41.6201 37.9546 41.6201 37.123V33.5186C41.6201 32.6875 41.6206 32.2894 41.6992 31.9268C41.8458 31.2511 42.1893 30.6378 42.6826 30.1699C42.9472 29.9191 43.2798 29.7193 43.9775 29.3037L47.0078 27.5C47.7064 27.0839 48.04 26.8862 48.3828 26.7754Z" stroke="#F6F8F9" stroke-opacity="0.8" stroke-width="0.24"/>
</g>
</g>
<defs>
<filter id="filter0_d_14687_1180" x="15.0742" y="6.22631" width="70.3086" height="64.5003" filterUnits="userSpaceOnUse" color-interpolation-filters="sRGB">
<feFlood flood-opacity="0" result="BackgroundImageFix"/>
<feColorMatrix in="SourceAlpha" type="matrix" values="0 0 0 0 0 0 0 0 0 0 0 0 0 0 0 0 0 0 127 0" result="hardAlpha"/>
<feOffset dy="3.15211"/>
<feGaussianBlur stdDeviation="3.15211"/>
<feComposite in2="hardAlpha" operator="out"/>
<feColorMatrix type="matrix" values="0 0 0 0 0.0941176 0 0 0 0 0.105882 0 0 0 0 0.141176 0 0 0 0.05 0"/>
<feBlend mode="normal" in2="BackgroundImageFix" result="effect1_dropShadow_14687_1180"/>
<feBlend mode="normal" in="SourceGraphic" in2="effect1_dropShadow_14687_1180" result="shape"/>
</filter>
<filter id="filter1_d_14687_1180" x="32.9819" y="17.9819" width="35.0363" height="44.0363" filterUnits="userSpaceOnUse" color-interpolation-filters="sRGB">
<feFlood flood-opacity="0" result="BackgroundImageFix"/>
<feColorMatrix in="SourceAlpha" type="matrix" values="0 0 0 0 0 0 0 0 0 0 0 0 0 0 0 0 0 0 127 0" result="hardAlpha"/>
<feOffset/>
<feGaussianBlur stdDeviation="4.25907"/>
<feComposite in2="hardAlpha" operator="out"/>
<feColorMatrix type="matrix" values="0 0 0 0 1 0 0 0 0 1 0 0 0 0 1 0 0 0 0.3 0"/>
<feBlend mode="normal" in2="BackgroundImageFix" result="effect1_dropShadow_14687_1180"/>
<feBlend mode="normal" in="SourceGraphic" in2="effect1_dropShadow_14687_1180" result="shape"/>
</filter>
</defs>
</svg>
