<svg width="16" height="16" viewBox="0 0 16 16" fill="none" xmlns="http://www.w3.org/2000/svg">
<path fill-rule="evenodd" clip-rule="evenodd" d="M12.3335 6.66659L15.2668 13.9999H13.8302L13.0295 11.9999H10.3028L9.5035 13.9999H8.0675L11.0002 6.66659H12.3335ZM6.66683 1.33325V2.66659H10.6668V3.99992H9.35483C8.84058 5.54797 8.01981 6.9766 6.9415 8.20059C7.42237 8.62966 7.94395 9.0108 8.49883 9.33859L7.99816 10.5906C7.28184 10.1843 6.61189 9.70124 6.00016 9.14992C4.80922 10.2278 3.39886 11.0347 1.86616 11.5153L1.50883 10.2293C2.82205 9.81052 4.03218 9.11948 5.06016 8.20125C4.29929 7.33988 3.66554 6.3741 3.17816 5.33325H4.6715C5.04306 6.01916 5.48861 6.66232 6.00016 7.25125C6.83357 6.29065 7.49036 5.19012 7.94016 4.00059L1.3335 3.99992V2.66659H5.3335V1.33325H6.66683ZM11.6668 8.58992L10.8355 10.6666H12.4968L11.6668 8.58992Z" fill="#3E5DE7"/>
</svg>
