<?xml version="1.0" encoding="UTF-8" standalone="no"?>
<!DOCTYPE svg PUBLIC "-//W3C//DTD SVG 1.1//EN" "http://www.w3.org/Graphics/SVG/1.1/DTD/svg11.dtd">
<svg width="100%" height="100%" viewBox="0 0 800 1092" version="1.1" xmlns="http://www.w3.org/2000/svg" xmlns:xlink="http://www.w3.org/1999/xlink" xml:space="preserve" xmlns:serif="http://www.serif.com/" style="fill-rule:evenodd;clip-rule:evenodd;stroke-linecap:round;stroke-miterlimit:10;">
    <g transform="matrix(1,0,0,1,-21410.8,-46148)">
        <g id="schéma-mobile-3--vectorisé-" serif:id="schéma mobile 3 (vectorisé)" transform="matrix(1.6,0,0,0.830569,21410.8,46148)">
            <rect x="0" y="0" width="500" height="1313.92" style="fill:none;"/>
            <g transform="matrix(5.01134e-17,1.57658,-0.482781,5.69476e-17,16713.9,-61381.9)">
                <path d="M39345.8,33807.7C39350.8,33817.6 39358,33823.3 39365.7,33823.3L39549.6,33823.3C39585.6,33823.3 39614.9,33873 39614.9,33934.1L39614.9,34366.6C39614.9,34427.8 39585.6,34477.5 39549.6,34477.5L39357.6,34477.5C39355.3,34477.5 39353.2,34476 39351.5,34473.4C39350.1,34471.1 39348.7,34468.6 39347.5,34465.8L39309.4,34388.5C39306.9,34383 39301.8,34379.9 39297.8,34379.9C39293.7,34379.9 39289.9,34383.1 39287.4,34388.5C39287.4,34388.5 39254.8,34453.9 39246,34472.6C39244.2,34475.7 39241.7,34477.5 39239.1,34477.5C39201.5,34477.5 39045.8,34477.5 39045.8,34477.5C39009.7,34477.5 38980.4,34427.8 38980.4,34366.6L38980.4,33934.1C38980.4,33873 39009.7,33823.3 39045.8,33823.3L39225.9,33823.3C39239.3,33823.3 39252,33813.3 39260.6,33796.1L39291.7,33733.9C39293.8,33729.6 39297,33727.1 39300.3,33727.1C39303.6,33727.1 39306.8,33729.6 39308.9,33733.9L39345.8,33807.7ZM39343.4,33811.2L39306.5,33737.4C39305,33734.3 39302.7,33732.5 39300.3,33732.5C39297.9,33732.5 39295.7,33734.3 39294.1,33737.4L39263,33799.5C39253.8,33818 39240.2,33828.7 39225.9,33828.7L39045.8,33828.7C39011.4,33828.7 38983.6,33875.9 38983.6,33934.1L38983.6,34366.6C38983.6,34424.8 39011.4,34472.1 39045.8,34472.1C39045.8,34472.1 39201.5,34472.1 39239.1,34472.1C39240.8,34472.1 39242.4,34471 39243.7,34469C39252.4,34450.3 39283.6,34387.7 39284.9,34385.1C39288,34378.4 39292.7,34374.5 39297.8,34374.5C39302.7,34374.5 39308.9,34378.5 39311.9,34385.1L39349.9,34462.4C39349.9,34462.4 39349.9,34462.5 39350,34462.5C39351.1,34465 39352.4,34467.4 39353.7,34469.5C39354.8,34471.2 39356.1,34472.1 39357.6,34472.1L39549.6,34472.1C39583.9,34472.1 39611.8,34424.8 39611.8,34366.6L39611.8,33934.1C39611.8,33875.9 39583.9,33828.7 39549.6,33828.7L39365.7,33828.7C39357.1,33828.7 39348.9,33822.3 39343.4,33811.2Z" style="fill:rgb(87,94,181);"/>
            </g>
            <g transform="matrix(1.07648,0,0,0.929193,-31387.2,-25207.2)">
                <path d="M29290.6,27343.8L29305.1,27343.8L29305.1,27332.6L29296.6,27332.6L29296.6,27322.3L29303.7,27322.3L29303.7,27311.1L29296.6,27311.1L29296.6,27301.8L29305.1,27301.8L29305.1,27290.6L29290.6,27290.6L29290.6,27343.8Z" style="fill:rgb(67,75,172);fill-rule:nonzero;"/>
                <path d="M29305.9,27305.5L29311.7,27343.8L29318.7,27343.8L29324.5,27305.5L29318.8,27305.5L29315.2,27329.3L29311.6,27305.5L29305.9,27305.5Z" style="fill:rgb(67,75,172);fill-rule:nonzero;"/>
                <path d="M29330.1,27345C29331.9,27345 29333.8,27343.3 29334.7,27340.9L29334.7,27343.8L29340,27343.8L29340,27319.6C29340,27311.3 29337.5,27304 29332.2,27304C29329,27304 29326.5,27306.9 29324.9,27311.7L29328.8,27318.4C29329.6,27315.9 29330.6,27314.4 29332,27314.4C29333.6,27314.4 29334.7,27316.6 29334.7,27319.5L29330,27321.3C29326.3,27322.7 29324.3,27327.2 29324.3,27333C29324.3,27340.5 29326.7,27345 29330.1,27345ZM29329.6,27332.4C29329.6,27330.7 29330,27329.5 29331.4,27329L29334.7,27327.7L29334.7,27331.5C29334.1,27333.8 29333,27335.6 29331.3,27335.6C29330.2,27335.6 29329.6,27334.4 29329.6,27332.4Z" style="fill:rgb(67,75,172);fill-rule:nonzero;"/>
                <rect x="29343.2" y="27286.8" width="5.328" height="57.032" style="fill:rgb(67,75,172);fill-rule:nonzero;"/>
                <path d="M29362.6,27327.2C29362.6,27331.2 29361.7,27334 29359.8,27334C29357.8,27334 29356.9,27331.2 29356.9,27327.2L29356.9,27305.5L29351.6,27305.5L29351.6,27326.5C29351.6,27338 29354.5,27345.3 29359.7,27345.3C29364.9,27345.3 29367.9,27338 29367.9,27326.5L29367.9,27305.5L29362.6,27305.5L29362.6,27327.2Z" style="fill:rgb(67,75,172);fill-rule:nonzero;"/>
                <path d="M29375.5,27345C29377.3,27345 29379.2,27343.3 29380.1,27340.9L29380.1,27343.8L29385.4,27343.8L29385.4,27319.6C29385.4,27311.3 29383,27304 29377.6,27304C29374.4,27304 29371.9,27306.9 29370.3,27311.7L29374.2,27318.4C29375,27315.9 29376,27314.4 29377.4,27314.4C29379,27314.4 29380.1,27316.6 29380.1,27319.5L29375.4,27321.3C29371.7,27322.7 29369.7,27327.2 29369.7,27333C29369.7,27340.5 29372.1,27345 29375.5,27345ZM29375,27332.4C29375,27330.7 29375.4,27329.5 29376.8,27329L29380.1,27327.7L29380.1,27331.5C29379.5,27333.8 29378.4,27335.6 29376.7,27335.6C29375.6,27335.6 29375,27334.4 29375,27332.4Z" style="fill:rgb(67,75,172);fill-rule:nonzero;"/>
                <path d="M29389.8,27328.9C29389.8,27338.3 29391.7,27344.6 29396.3,27344.6C29397.9,27344.6 29398.9,27344.1 29399.8,27343.2L29399.8,27332.8C29399.3,27333.3 29398.5,27333.6 29397.3,27333.6C29395.9,27333.6 29395.1,27332 29395.1,27328.9L29395.1,27316.3L29399.8,27316.3L29399.8,27305.5L29395.1,27305.5L29395.1,27295.9L29389.8,27295.9L29389.8,27305.5L29386.6,27305.5L29386.6,27316.3L29389.8,27316.3L29389.8,27328.9Z" style="fill:rgb(67,75,172);fill-rule:nonzero;"/>
                <path d="M29404.9,27301.3C29406.6,27301.3 29408.2,27297.7 29408.2,27293.6C29408.2,27289.5 29406.6,27286 29404.9,27286C29403,27286 29401.5,27289.5 29401.5,27293.6C29401.5,27297.7 29403,27301.3 29404.9,27301.3ZM29402.2,27343.8L29407.5,27343.8L29407.5,27305.5L29402.2,27305.5L29402.2,27343.8Z" style="fill:rgb(67,75,172);fill-rule:nonzero;"/>
                <path d="M29419.2,27304C29413.6,27304 29409.8,27313 29409.8,27324.7C29409.8,27336.4 29413.6,27345.3 29419.2,27345.3C29424.7,27345.3 29428.5,27336.4 29428.5,27324.7C29428.5,27313 29424.7,27304 29419.2,27304ZM29419.2,27334C29417,27334 29415.4,27330.4 29415.4,27324.7C29415.4,27319 29417,27315.3 29419.2,27315.3C29421.4,27315.3 29423,27318.9 29423,27324.7C29423,27330.3 29421.4,27334 29419.2,27334Z" style="fill:rgb(67,75,172);fill-rule:nonzero;"/>
                <path d="M29430.8,27343.8L29436.2,27343.8L29436.2,27319.9C29436.5,27318.7 29437.3,27315.3 29439.2,27315.3C29440.9,27315.3 29441.8,27318 29441.8,27321.8L29441.8,27343.8L29447.2,27343.8L29447.2,27321.3C29447.2,27309.7 29444.2,27304 29440.7,27304C29438.7,27304 29437.3,27305.5 29436.2,27307.6L29436.2,27305.5L29430.8,27305.5L29430.8,27343.8Z" style="fill:rgb(67,75,172);fill-rule:nonzero;"/>
            </g>
            <g transform="matrix(0.803048,0,0,5.79827,-23336.3,-157916)">
                <path d="M29223.5,27287.2L29232.4,27293.6L29238.7,27293.6L29247.6,27287.2L29242.5,27287.2L29235.6,27292.2L29228.6,27287.2L29223.5,27287.2Z" style="fill:rgb(67,75,172);fill-rule:nonzero;"/>
                <path d="M29252.1,27293.8C29254.1,27293.8 29256.1,27293.6 29257.2,27293.2L29257.2,27293.6L29261.5,27293.6L29261.5,27290.7C29261.5,27289.7 29259,27288.9 29254,27288.9C29250.9,27288.9 29248.4,27289.2 29246.9,27289.8L29250.1,27290.4C29251,27290.1 29252.2,27289.9 29253.9,27289.9C29255.9,27289.9 29257.2,27290.2 29257.2,27290.7L29257.2,27290.8L29252,27291C29248.4,27291.2 29246.4,27291.7 29246.4,27292.4C29246.4,27293.3 29248.7,27293.8 29252.1,27293.8ZM29250.6,27292.3C29250.6,27292.1 29251.4,27291.9 29253.2,27291.8L29257.2,27291.6L29257.2,27292.2C29256.4,27292.6 29254.9,27292.9 29253,27292.9C29251.5,27292.9 29250.6,27292.7 29250.6,27292.3Z" style="fill:rgb(67,75,172);fill-rule:nonzero;"/>
                <rect x="29265" y="27286.8" width="4.278" height="6.855" style="fill:rgb(67,75,172);fill-rule:nonzero;"/>
                <path d="M29275.2,27288.2C29276.7,27288.2 29278,27287.9 29278,27287.5C29278,27287.1 29276.7,27286.7 29275.2,27286.7C29273.7,27286.7 29272.4,27287.1 29272.4,27287.5C29272.4,27287.9 29273.7,27288.2 29275.2,27288.2ZM29273.1,27293.6L29277.3,27293.6L29277.3,27289L29273.1,27289L29273.1,27293.6Z" style="fill:rgb(67,75,172);fill-rule:nonzero;"/>
                <path d="M29279.9,27291.3C29279.9,27292.7 29283.2,27293.8 29288.5,27293.8C29290.8,27293.8 29292.5,27293.6 29293.8,27293.3L29293.8,27293.6L29298.1,27293.6L29298.1,27286.8L29293.8,27286.8L29293.8,27289.4C29292.5,27289 29290.8,27288.9 29288.5,27288.9C29283.2,27288.9 29279.9,27290 29279.9,27291.3ZM29284.4,27291.3C29284.4,27290.5 29286.2,27290 29289.1,27290C29291.1,27290 29292.6,27290.2 29293.8,27290.6L29293.8,27292.1C29292.6,27292.5 29291.1,27292.7 29289.1,27292.7C29286.2,27292.7 29284.4,27292.1 29284.4,27291.3Z" style="fill:rgb(67,75,172);fill-rule:nonzero;"/>
                <path d="M29306.7,27293.8C29308.6,27293.8 29310.7,27293.6 29311.7,27293.2L29311.7,27293.6L29316,27293.6L29316,27290.7C29316,27289.7 29313.5,27288.9 29308.6,27288.9C29305.5,27288.9 29303,27289.2 29301.5,27289.8L29304.6,27290.4C29305.5,27290.1 29306.8,27289.9 29308.4,27289.9C29310.4,27289.9 29311.7,27290.2 29311.7,27290.7L29311.7,27290.8L29306.6,27291C29302.9,27291.2 29300.9,27291.7 29300.9,27292.4C29300.9,27293.3 29303.3,27293.8 29306.7,27293.8ZM29305.2,27292.3C29305.2,27292.1 29305.9,27291.9 29307.7,27291.8L29311.7,27291.6L29311.7,27292.2C29310.9,27292.6 29309.5,27292.9 29307.5,27292.9C29306.1,27292.9 29305.2,27292.7 29305.2,27292.3Z" style="fill:rgb(67,75,172);fill-rule:nonzero;"/>
                <path d="M29320.6,27292C29320.6,27293.1 29322.7,27293.7 29326.9,27293.7C29328.3,27293.7 29329.3,27293.7 29330.2,27293.6L29330.2,27292.6C29329.6,27292.6 29328.8,27292.7 29327.6,27292.7C29326,27292.7 29324.9,27292.5 29324.9,27292L29324.9,27290.1L29330.1,27290.1L29330.1,27289L29324.9,27289L29324.9,27287.9L29320.6,27287.9L29320.6,27289L29317.5,27289L29317.5,27290.1L29320.6,27290.1L29320.6,27292Z" style="fill:rgb(67,75,172);fill-rule:nonzero;"/>
                <path d="M29334.8,27288.2C29336.3,27288.2 29337.5,27287.9 29337.5,27287.5C29337.5,27287.1 29336.3,27286.7 29334.8,27286.7C29333.3,27286.7 29332,27287.1 29332,27287.5C29332,27287.9 29333.3,27288.2 29334.8,27288.2ZM29332.6,27293.6L29336.9,27293.6L29336.9,27289L29332.6,27289L29332.6,27293.6Z" style="fill:rgb(67,75,172);fill-rule:nonzero;"/>
                <path d="M29348.8,27288.9C29343.2,27288.9 29339.5,27290 29339.5,27291.3C29339.5,27292.7 29343.2,27293.8 29348.8,27293.8C29354.3,27293.8 29358.1,27292.7 29358.1,27291.3C29358.1,27290 29354.3,27288.9 29348.8,27288.9ZM29348.8,27292.7C29346,27292.7 29343.9,27292.1 29343.9,27291.3C29343.9,27290.5 29346,27290 29348.8,27290C29351.6,27290 29353.6,27290.5 29353.6,27291.3C29353.6,27292.1 29351.6,27292.7 29348.8,27292.7Z" style="fill:rgb(67,75,172);fill-rule:nonzero;"/>
                <path d="M29360.6,27293.6L29364.9,27293.6L29364.9,27290.6C29365.5,27290.3 29366.7,27290 29368.8,27290C29370.9,27290 29372.2,27290.3 29372.2,27291L29372.2,27293.6L29376.5,27293.6L29376.5,27290.9C29376.5,27289.5 29373.6,27288.9 29369.9,27288.9C29367.7,27288.9 29366.1,27289.1 29364.9,27289.4L29364.9,27289L29360.6,27289L29360.6,27293.6Z" style="fill:rgb(67,75,172);fill-rule:nonzero;"/>
                <path d="M29391.2,27291.1C29391.2,27289.6 29393.2,27288.4 29396.7,27287.5L29393.7,27286.8C29389.7,27287.8 29386.9,27289.3 29386.9,27291.1C29386.9,27293 29389.5,27294.4 29393.7,27295.5L29396.7,27294.8C29393,27293.8 29391.2,27292.6 29391.2,27291.1Z" style="fill:rgb(67,75,172);fill-rule:nonzero;"/>
                <path d="M29405,27292.7C29402.1,27292.7 29400,27292.2 29400,27291.3C29400,27290.5 29402.1,27290 29404.9,27290C29406.6,27290 29408,27290.2 29408.8,27290.5L29412.1,27289.8C29410.6,27289.2 29408.1,27288.9 29405,27288.9C29399.1,27288.9 29395.6,27290 29395.6,27291.3C29395.6,27292.7 29399.1,27293.8 29405,27293.8C29408.1,27293.8 29410.6,27293.5 29412.1,27292.9L29408.8,27292.2C29408,27292.5 29406.6,27292.7 29405,27292.7Z" style="fill:rgb(67,75,172);fill-rule:nonzero;"/>
                <path d="M29421.4,27288.9C29415.9,27288.9 29412.1,27290 29412.1,27291.3C29412.1,27292.7 29415.9,27293.8 29421.4,27293.8C29426.9,27293.8 29430.7,27292.7 29430.7,27291.3C29430.7,27290 29426.9,27288.9 29421.4,27288.9ZM29421.5,27292.7C29418.6,27292.7 29416.5,27292.1 29416.5,27291.3C29416.5,27290.5 29418.6,27290 29421.5,27290C29424.2,27290 29426.2,27290.5 29426.2,27291.3C29426.2,27292.1 29424.2,27292.7 29421.5,27292.7Z" style="fill:rgb(67,75,172);fill-rule:nonzero;"/>
                <path d="M29433.3,27293.6L29437.5,27293.6L29437.5,27290.6C29438.2,27290.3 29439.2,27290 29441.1,27290C29443.1,27290 29444.2,27290.3 29444.2,27290.9L29444.2,27293.6L29448.5,27293.6L29448.5,27290.8C29448.5,27290.7 29448.5,27290.7 29448.5,27290.6C29449.1,27290.3 29450.1,27290 29452,27290C29453.9,27290 29455,27290.3 29455,27290.9L29455,27293.6L29459.3,27293.6L29459.3,27290.8C29459.3,27289.5 29456.6,27288.9 29453.1,27288.9C29450.2,27288.9 29448.6,27289.2 29447.4,27289.6C29446.3,27289.1 29444.4,27288.9 29442.2,27288.9C29440.1,27288.9 29438.7,27289.1 29437.5,27289.4L29437.5,27289L29433.3,27289L29433.3,27293.6Z" style="fill:rgb(67,75,172);fill-rule:nonzero;"/>
                <path d="M29465,27288.2C29466.5,27288.2 29467.8,27287.9 29467.8,27287.5C29467.8,27287.1 29466.5,27286.7 29465,27286.7C29463.5,27286.7 29462.2,27287.1 29462.2,27287.5C29462.2,27287.9 29463.5,27288.2 29465,27288.2ZM29462.9,27293.6L29467.1,27293.6L29467.1,27289L29462.9,27289L29462.9,27293.6Z" style="fill:rgb(67,75,172);fill-rule:nonzero;"/>
                <path d="M29472,27292C29472,27293.1 29474,27293.7 29478.3,27293.7C29479.7,27293.7 29480.7,27293.7 29481.5,27293.6L29481.5,27292.6C29481,27292.6 29480.2,27292.7 29479,27292.7C29477.3,27292.7 29476.3,27292.5 29476.3,27292L29476.3,27290.1L29481.5,27290.1L29481.5,27289L29476.3,27289L29476.3,27287.9L29472,27287.9L29472,27289L29468.8,27289L29468.8,27290.1L29472,27290.1L29472,27292Z" style="fill:rgb(67,75,172);fill-rule:nonzero;"/>
                <path d="M29493.5,27288.3L29497.6,27286.8L29492.9,27286.8L29489.4,27288.3L29493.5,27288.3ZM29499.3,27292.9L29496.2,27292.2C29495.3,27292.6 29493.7,27292.8 29491.8,27292.8C29489.2,27292.8 29487.2,27292.4 29486.8,27291.6L29498.7,27291.6C29498.8,27291.4 29499,27291.2 29499,27290.9C29499,27289.7 29495.9,27288.9 29491.2,27288.9C29485.6,27288.9 29482.4,27290 29482.4,27291.3C29482.4,27292.7 29485.8,27293.8 29491.9,27293.8C29495.1,27293.8 29497.7,27293.5 29499.3,27292.9ZM29491.1,27289.8C29493.5,27289.8 29494.7,27290.3 29494.8,27290.7L29487,27290.7C29487.4,27290.1 29488.9,27289.8 29491.1,27289.8Z" style="fill:rgb(67,75,172);fill-rule:nonzero;"/>
                <path d="M29224.4,27304.5C29224.4,27305.9 29227.6,27307 29233,27307C29235.3,27307 29236.9,27306.8 29238.2,27306.5L29238.2,27306.8L29242.5,27306.8L29242.5,27300L29238.2,27300L29238.2,27302.6C29236.9,27302.3 29235.3,27302.1 29233,27302.1C29227.6,27302.1 29224.4,27303.2 29224.4,27304.5ZM29228.8,27304.5C29228.8,27303.7 29230.7,27303.2 29233.6,27303.2C29235.5,27303.2 29237.1,27303.4 29238.2,27303.8L29238.2,27305.3C29237.1,27305.7 29235.5,27305.9 29233.6,27305.9C29230.7,27305.9 29228.8,27305.4 29228.8,27304.5Z" style="fill:rgb(67,75,172);fill-rule:nonzero;"/>
                <path d="M29262,27306.1L29258.9,27305.4C29258,27305.8 29256.4,27306 29254.5,27306C29251.8,27306 29249.9,27305.6 29249.5,27304.8L29261.4,27304.8C29261.5,27304.6 29261.6,27304.4 29261.6,27304.1C29261.6,27302.9 29258.5,27302.1 29253.8,27302.1C29248.3,27302.1 29245.1,27303.2 29245.1,27304.5C29245.1,27305.9 29248.5,27307 29254.5,27307C29257.7,27307 29260.4,27306.7 29262,27306.1ZM29253.7,27303C29256.1,27303 29257.4,27303.5 29257.4,27303.9L29249.6,27303.9C29250.1,27303.3 29251.5,27303 29253.7,27303Z" style="fill:rgb(67,75,172);fill-rule:nonzero;"/>
                <path d="M29270.7,27306.2C29272.4,27306.7 29274.5,27307 29277.5,27307C29280.8,27307 29283.6,27306.5 29283.7,27305.5C29283.7,27303.9 29275.6,27304.2 29275.6,27303.4C29275.6,27303.2 29276.2,27303 29277.5,27303C29278.9,27303 29280,27303.2 29280.9,27303.5L29283.7,27302.8C29282.5,27302.4 29280.1,27302.1 29277.5,27302.1C29274,27302.1 29271.5,27302.7 29271.5,27303.5C29271.5,27305.1 29279.6,27304.8 29279.6,27305.6C29279.6,27305.9 29278.9,27306.1 29277.5,27306.1C29275.9,27306.1 29274.6,27305.8 29273.6,27305.5L29270.7,27306.2Z" style="fill:rgb(67,75,172);fill-rule:nonzero;"/>
                <path d="M29296.1,27301.5L29300.1,27300L29295.5,27300L29292,27301.5L29296.1,27301.5ZM29301.8,27306.1L29298.8,27305.4C29297.9,27305.8 29296.2,27306 29294.4,27306C29291.7,27306 29289.8,27305.6 29289.4,27304.8L29301.3,27304.8C29301.4,27304.6 29301.5,27304.4 29301.5,27304.1C29301.5,27302.9 29298.4,27302.1 29293.7,27302.1C29288.2,27302.1 29285,27303.2 29285,27304.5C29285,27305.9 29288.4,27307 29294.4,27307C29297.6,27307 29300.3,27306.7 29301.8,27306.1ZM29293.6,27303C29296,27303 29297.3,27303.5 29297.3,27303.9L29289.5,27303.9C29290,27303.3 29291.4,27303 29293.6,27303Z" style="fill:rgb(67,75,172);fill-rule:nonzero;"/>
                <rect x="29304.4" y="27300" width="4.278" height="6.855" style="fill:rgb(67,75,172);fill-rule:nonzero;"/>
                <path d="M29328,27306.1L29325,27305.4C29324.1,27305.8 29322.5,27306 29320.6,27306C29317.9,27306 29316,27305.6 29315.6,27304.8L29327.5,27304.8C29327.6,27304.6 29327.7,27304.4 29327.7,27304.1C29327.7,27302.9 29324.6,27302.1 29319.9,27302.1C29314.4,27302.1 29311.2,27303.2 29311.2,27304.5C29311.2,27305.9 29314.6,27307 29320.6,27307C29323.8,27307 29326.5,27306.7 29328,27306.1ZM29319.8,27303C29322.2,27303 29323.5,27303.5 29323.5,27303.9L29315.7,27303.9C29316.2,27303.3 29317.6,27303 29319.8,27303Z" style="fill:rgb(67,75,172);fill-rule:nonzero;"/>
                <path d="M29338.6,27305.9C29335.7,27305.9 29333.7,27305.4 29333.7,27304.5C29333.7,27303.7 29335.7,27303.2 29338.5,27303.2C29340.3,27303.2 29341.6,27303.4 29342.4,27303.7L29345.8,27303C29344.2,27302.4 29341.7,27302.1 29338.6,27302.1C29332.7,27302.1 29329.2,27303.2 29329.2,27304.5C29329.2,27305.9 29332.7,27307 29338.6,27307C29341.7,27307 29344.2,27306.7 29345.8,27306.1L29342.4,27305.4C29341.6,27305.7 29340.3,27305.9 29338.6,27305.9Z" style="fill:rgb(67,75,172);fill-rule:nonzero;"/>
                <path d="M29348.9,27305.2C29348.9,27306.3 29350.9,27306.9 29355.1,27306.9C29356.5,27306.9 29357.6,27306.9 29358.4,27306.8L29358.4,27305.8C29357.8,27305.8 29357.1,27305.9 29355.9,27305.9C29354.2,27305.9 29353.2,27305.7 29353.2,27305.2L29353.2,27303.3L29358.4,27303.3L29358.4,27302.2L29353.2,27302.2L29353.2,27301.1L29348.9,27301.1L29348.9,27302.2L29345.7,27302.2L29345.7,27303.3L29348.9,27303.3L29348.9,27305.2Z" style="fill:rgb(67,75,172);fill-rule:nonzero;"/>
                <path d="M29363,27301.4C29364.5,27301.4 29365.8,27301.1 29365.8,27300.7C29365.8,27300.3 29364.5,27299.9 29363,27299.9C29361.5,27299.9 29360.2,27300.3 29360.2,27300.7C29360.2,27301.1 29361.5,27301.4 29363,27301.4ZM29360.9,27306.8L29365.1,27306.8L29365.1,27302.2L29360.9,27302.2L29360.9,27306.8Z" style="fill:rgb(67,75,172);fill-rule:nonzero;"/>
                <path d="M29377,27302.1C29371.5,27302.1 29367.7,27303.2 29367.7,27304.5C29367.7,27305.9 29371.5,27307 29377,27307C29382.5,27307 29386.3,27305.9 29386.3,27304.5C29386.3,27303.2 29382.5,27302.1 29377,27302.1ZM29377.1,27305.9C29374.2,27305.9 29372.1,27305.4 29372.1,27304.5C29372.1,27303.7 29374.2,27303.2 29377.1,27303.2C29379.8,27303.2 29381.8,27303.7 29381.8,27304.5C29381.8,27305.3 29379.8,27305.9 29377.1,27305.9Z" style="fill:rgb(67,75,172);fill-rule:nonzero;"/>
                <path d="M29388.9,27306.8L29393.1,27306.8L29393.1,27303.8C29393.8,27303.5 29394.9,27303.2 29397.1,27303.2C29399.2,27303.2 29400.4,27303.5 29400.4,27304.2L29400.4,27306.8L29404.8,27306.8L29404.8,27304.1C29404.8,27302.7 29401.8,27302.1 29398.2,27302.1C29395.9,27302.1 29394.3,27302.3 29393.1,27302.6L29393.1,27302.2L29388.9,27302.2L29388.9,27306.8Z" style="fill:rgb(67,75,172);fill-rule:nonzero;"/>
                <path d="M29224.4,27317.7C29224.4,27319.1 29227.6,27320.2 29233,27320.2C29235.3,27320.2 29236.9,27320 29238.2,27319.7L29238.2,27320L29242.5,27320L29242.5,27313.2L29238.2,27313.2L29238.2,27315.8C29236.9,27315.5 29235.3,27315.3 29233,27315.3C29227.6,27315.3 29224.4,27316.4 29224.4,27317.7ZM29228.8,27317.7C29228.8,27316.9 29230.7,27316.4 29233.6,27316.4C29235.5,27316.4 29237.1,27316.6 29238.2,27317L29238.2,27318.5C29237.1,27318.9 29235.5,27319.1 29233.6,27319.1C29230.7,27319.1 29228.8,27318.6 29228.8,27317.7Z" style="fill:rgb(67,75,172);fill-rule:nonzero;"/>
                <path d="M29262,27319.3L29258.9,27318.6C29258,27319 29256.4,27319.2 29254.5,27319.2C29251.8,27319.2 29249.9,27318.8 29249.5,27318L29261.4,27318C29261.5,27317.8 29261.6,27317.6 29261.6,27317.3C29261.6,27316.1 29258.5,27315.3 29253.8,27315.3C29248.3,27315.3 29245.1,27316.4 29245.1,27317.7C29245.1,27319.1 29248.5,27320.2 29254.5,27320.2C29257.7,27320.2 29260.4,27319.9 29262,27319.3ZM29253.7,27316.2C29256.1,27316.2 29257.4,27316.7 29257.4,27317.1L29249.6,27317.1C29250.1,27316.5 29251.5,27316.2 29253.7,27316.2Z" style="fill:rgb(67,75,172);fill-rule:nonzero;"/>
                <rect x="29272.2" y="27313.2" width="4.278" height="6.855" style="fill:rgb(67,75,172);fill-rule:nonzero;"/>
                <path d="M29285.1,27320.2C29287,27320.2 29289.1,27320 29290.1,27319.6L29290.1,27320L29294.4,27320L29294.4,27317.1C29294.4,27316.1 29291.9,27315.3 29287,27315.3C29283.9,27315.3 29281.4,27315.6 29279.9,27316.2L29283,27316.8C29283.9,27316.5 29285.2,27316.3 29286.8,27316.3C29288.8,27316.3 29290.1,27316.6 29290.1,27317.1L29290.1,27317.2L29285,27317.4C29281.3,27317.6 29279.3,27318.1 29279.3,27318.8C29279.3,27319.7 29281.7,27320.2 29285.1,27320.2ZM29283.6,27318.8C29283.6,27318.5 29284.3,27318.3 29286.1,27318.2L29290.1,27318L29290.1,27318.7C29289.3,27319 29287.9,27319.3 29285.9,27319.3C29284.5,27319.3 29283.6,27319.1 29283.6,27318.8Z" style="fill:rgb(67,75,172);fill-rule:nonzero;"/>
                <path d="M29306.6,27320L29315.9,27320C29323.4,27320 29328.4,27318.6 29328.4,27316.9C29328.4,27315.1 29323.4,27313.7 29315.9,27313.7L29306.6,27313.7L29306.6,27320ZM29316,27314.8C29320.3,27314.8 29323.5,27315.7 29323.5,27316.9C29323.5,27318 29320.3,27318.9 29316,27318.9L29311.4,27318.9L29311.4,27314.8L29316,27314.8Z" style="fill:rgb(67,75,172);fill-rule:nonzero;"/>
                <rect x="29332" y="27313.7" width="4.784" height="6.398" style="fill:rgb(67,75,172);fill-rule:nonzero;"/>
                <path d="M29342.4,27320L29347.2,27320L29347.2,27315.4L29357.7,27320L29363.9,27320L29363.9,27313.7L29359.1,27313.7L29359.1,27318.3L29348.5,27313.7L29342.4,27313.7L29342.4,27320Z" style="fill:rgb(67,75,172);fill-rule:nonzero;"/>
                <path d="M29383.1,27317.7C29383.1,27318.5 29381.3,27319 29378.3,27319C29375.3,27319 29373.6,27318.5 29373.6,27317.7L29373.6,27313.7L29368.8,27313.7L29368.8,27317.5C29368.8,27319.2 29372.4,27320.2 29378.3,27320.2C29384.2,27320.2 29387.9,27319.2 29387.9,27317.5L29387.9,27313.7L29383.1,27313.7L29383.1,27317.7Z" style="fill:rgb(67,75,172);fill-rule:nonzero;"/>
                <path d="M29392.8,27320L29397.6,27320L29397.6,27315.5L29402.8,27317.9L29406.2,27317.9L29411.5,27315.5L29411.5,27320L29416.2,27320L29416.2,27313.7L29410.3,27313.7L29404.5,27316.3L29398.8,27313.7L29392.8,27313.7L29392.8,27320Z" style="fill:rgb(67,75,172);fill-rule:nonzero;"/>
                <path d="M29424.3,27317.5C29424.3,27319 29422.3,27320.2 29418.7,27321.2L29421.7,27321.9C29425.7,27320.9 29428.5,27319.4 29428.5,27317.5C29428.5,27315.7 29425.9,27314.2 29421.7,27313.2L29418.7,27313.9C29422.4,27314.9 29424.3,27316 29424.3,27317.5Z" style="fill:rgb(67,75,172);fill-rule:nonzero;"/>
                <path d="M29225,27342.6C29227,27343.3 29229.6,27343.7 29233,27343.7C29237.2,27343.7 29240.4,27343 29240.4,27341.9C29240.4,27339.7 29229.2,27340.1 29229.2,27338.6C29229.2,27338.1 29230.7,27337.7 29233,27337.7C29235,27337.7 29236.7,27338 29238.1,27338.5L29240.5,27338C29238.7,27337.3 29236.3,27336.9 29233,27336.9C29228.9,27336.9 29226,27337.7 29226,27338.7C29226,27340.8 29237.2,27340.5 29237.2,27341.9C29237.2,27342.5 29235.6,27342.9 29233,27342.9C29230.8,27342.9 29228.9,27342.6 29227.3,27342L29225,27342.6Z" style="fill:rgb(67,75,172);fill-rule:nonzero;"/>
                <path d="M29256.5,27341.5C29256.5,27342.4 29254.6,27343 29251.8,27343C29248.9,27343 29247.1,27342.4 29247.1,27341.5L29247.1,27338.9L29244.3,27338.9L29244.3,27341.5C29244.3,27342.9 29247.2,27343.7 29251.8,27343.7C29256.4,27343.7 29259.3,27342.9 29259.3,27341.5L29259.3,27338.9L29256.5,27338.9L29256.5,27341.5Z" style="fill:rgb(67,75,172);fill-rule:nonzero;"/>
                <path d="M29264,27343.5L29266.8,27343.5L29266.8,27340.3C29267.9,27339.9 29269.3,27339.6 29271.6,27339.6C29272.2,27339.6 29272.7,27339.6 29273.2,27339.6L29273.2,27338.9C29272.8,27338.8 29272.3,27338.8 29271.8,27338.8C29269.6,27338.8 29268.1,27339.1 29266.8,27339.5L29266.8,27338.9L29264,27338.9L29264,27343.5Z" style="fill:rgb(67,75,172);fill-rule:nonzero;"/>
                <rect x="29284.4" y="27336.6" width="2.864" height="6.855" style="fill:rgb(67,75,172);fill-rule:nonzero;"/>
                <path d="M29297,27343.6C29299.1,27343.6 29301.4,27343.4 29302.6,27342.9L29302.6,27343.5L29305.5,27343.5L29305.5,27340.4C29305.5,27339.4 29303,27338.7 29298.6,27338.7C29295.7,27338.7 29293.3,27339.1 29291.8,27339.6L29294,27340C29295,27339.7 29296.6,27339.4 29298.5,27339.4C29301,27339.4 29302.6,27339.8 29302.6,27340.4L29302.6,27340.7L29296.9,27341C29293.3,27341.2 29291.4,27341.6 29291.4,27342.3C29291.4,27343.1 29293.6,27343.6 29297,27343.6ZM29294.3,27342.3C29294.3,27341.9 29295.3,27341.6 29297.6,27341.5L29302.6,27341.3L29302.6,27342.2C29301.5,27342.7 29299.7,27343 29297.4,27343C29295.4,27343 29294.3,27342.7 29294.3,27342.3Z" style="fill:rgb(67,75,172);fill-rule:nonzero;"/>
                <path d="M29336,27341.2C29336,27339.9 29332.6,27338.7 29327.2,27338.7C29324.7,27338.7 29322.7,27339 29321.2,27339.4L29321.2,27336.6L29318.3,27336.6L29318.3,27343.5L29321.2,27343.5L29321.2,27343C29322.7,27343.4 29324.7,27343.7 29327.2,27343.7C29332.6,27343.7 29336,27342.5 29336,27341.2ZM29326.9,27339.4C29330.5,27339.4 29333,27340.2 29333,27341.2C29333,27342.2 29330.5,27343 29326.9,27343C29324.6,27343 29322.5,27342.7 29321.2,27342.1L29321.2,27340.3C29322.5,27339.8 29324.5,27339.4 29326.9,27339.4Z" style="fill:rgb(67,75,172);fill-rule:nonzero;"/>
                <path d="M29344.2,27343.6C29346.4,27343.6 29348.6,27343.4 29349.9,27342.9L29349.9,27343.5L29352.8,27343.5L29352.8,27340.4C29352.8,27339.4 29350.2,27338.7 29345.9,27338.7C29342.9,27338.7 29340.5,27339.1 29339.1,27339.6L29341.2,27340C29342.3,27339.7 29343.8,27339.4 29345.8,27339.4C29348.2,27339.4 29349.9,27339.8 29349.9,27340.4L29349.9,27340.7L29344.2,27341C29340.6,27341.2 29338.6,27341.6 29338.6,27342.3C29338.6,27343.1 29340.9,27343.6 29344.2,27343.6ZM29341.5,27342.3C29341.5,27341.9 29342.6,27341.6 29344.9,27341.5L29349.9,27341.3L29349.9,27342.2C29348.8,27342.7 29346.9,27343 29344.7,27343C29342.7,27343 29341.5,27342.7 29341.5,27342.3Z" style="fill:rgb(67,75,172);fill-rule:nonzero;"/>
                <path d="M29355.7,27342.9C29357.3,27343.4 29359.4,27343.7 29362.1,27343.7C29365.2,27343.7 29367.8,27343.1 29367.8,27342.3C29367.8,27340.7 29359.3,27341 29359.3,27340C29359.3,27339.7 29360.3,27339.4 29362.1,27339.4C29363.6,27339.4 29364.8,27339.6 29365.7,27339.9L29367.7,27339.5C29366.6,27339 29364.5,27338.7 29362,27338.7C29358.8,27338.7 29356.5,27339.3 29356.5,27340C29356.5,27341.7 29365,27341.3 29365,27342.3C29365,27342.7 29363.9,27343 29362,27343C29360.3,27343 29358.9,27342.8 29357.7,27342.4L29355.7,27342.9Z" style="fill:rgb(67,75,172);fill-rule:nonzero;"/>
                <path d="M29386.3,27342.7L29384.2,27342.3C29383.1,27342.7 29381.2,27343 29379.1,27343C29375.4,27343 29372.8,27342.3 29372.7,27341.2L29385.8,27341.2C29385.9,27341.1 29386,27340.9 29386,27340.7C29386,27339.6 29383,27338.7 29378.3,27338.7C29373.1,27338.7 29369.8,27339.8 29369.8,27341.2C29369.8,27342.5 29373.3,27343.7 29379.1,27343.7C29382.2,27343.7 29384.7,27343.3 29386.3,27342.7ZM29378.3,27339.4C29381.3,27339.4 29383,27339.9 29383.1,27340.6L29372.9,27340.6C29373.5,27339.8 29375.5,27339.4 29378.3,27339.4Z" style="fill:rgb(67,75,172);fill-rule:nonzero;"/>
                <path d="M29224.6,27354.4C29224.6,27355.7 29228,27356.9 29233.3,27356.9C29235.8,27356.9 29237.8,27356.6 29239.3,27356.2L29239.3,27356.7L29242.2,27356.7L29242.2,27349.9L29239.3,27349.9L29239.3,27352.6C29237.8,27352.2 29235.8,27351.9 29233.3,27351.9C29228,27351.9 29224.6,27353.1 29224.6,27354.4ZM29227.6,27354.4C29227.6,27353.4 29230,27352.6 29233.7,27352.6C29236,27352.6 29238,27352.9 29239.3,27353.5L29239.3,27355.3C29238.1,27355.8 29236,27356.2 29233.7,27356.2C29230,27356.2 29227.6,27355.4 29227.6,27354.4Z" style="fill:rgb(67,75,172);fill-rule:nonzero;"/>
                <path d="M29262.3,27355.9L29260.2,27355.5C29259.1,27355.9 29257.2,27356.2 29255,27356.2C29251.4,27356.2 29248.8,27355.5 29248.7,27354.4L29261.8,27354.4C29261.9,27354.3 29262,27354.1 29262,27353.9C29262,27352.8 29259,27351.9 29254.3,27351.9C29249.1,27351.9 29245.8,27353 29245.8,27354.4C29245.8,27355.7 29249.3,27356.9 29255,27356.9C29258.2,27356.9 29260.7,27356.5 29262.3,27355.9ZM29254.3,27352.6C29257.3,27352.6 29259,27353.1 29259.1,27353.8L29248.9,27353.8C29249.5,27353 29251.5,27352.6 29254.3,27352.6Z" style="fill:rgb(67,75,172);fill-rule:nonzero;"/>
                <path d="M29263.8,27356.1C29265.4,27356.6 29267.5,27356.9 29270.2,27356.9C29273.4,27356.9 29275.9,27356.3 29275.9,27355.5C29275.9,27353.9 29267.4,27354.2 29267.4,27353.2C29267.4,27352.9 29268.4,27352.6 29270.2,27352.6C29271.7,27352.6 29273,27352.8 29273.9,27353.1L29275.9,27352.7C29274.7,27352.2 29272.6,27351.9 29270.2,27351.9C29266.9,27351.9 29264.6,27352.5 29264.6,27353.2C29264.6,27354.9 29273.1,27354.5 29273.1,27355.5C29273.1,27355.9 29272.1,27356.2 29270.2,27356.2C29268.5,27356.2 29267,27356 29265.9,27355.6L29263.8,27356.1Z" style="fill:rgb(67,75,172);fill-rule:nonzero;"/>
                <path d="M29295.4,27351.9C29289.9,27351.9 29286.2,27353.1 29286.2,27354.4C29286.2,27355.7 29289.9,27356.9 29295.4,27356.9C29300.9,27356.9 29304.6,27355.7 29304.6,27354.4C29304.6,27353.1 29300.9,27351.9 29295.4,27351.9ZM29295.4,27356.2C29291.8,27356.2 29289.2,27355.4 29289.2,27354.4C29289.2,27353.4 29291.8,27352.6 29295.4,27352.6C29299,27352.6 29301.6,27353.4 29301.6,27354.4C29301.6,27355.4 29299,27356.2 29295.4,27356.2Z" style="fill:rgb(67,75,172);fill-rule:nonzero;"/>
                <path d="M29325.8,27354.4C29325.8,27353.1 29322.4,27351.9 29317.1,27351.9C29314.6,27351.9 29312.6,27352.2 29311.1,27352.6L29311.1,27349.9L29308.2,27349.9L29308.2,27356.7L29311.1,27356.7L29311.1,27356.2C29312.6,27356.6 29314.6,27356.9 29317.1,27356.9C29322.4,27356.9 29325.8,27355.7 29325.8,27354.4ZM29316.8,27352.6C29320.4,27352.6 29322.8,27353.4 29322.8,27354.4C29322.8,27355.4 29320.4,27356.2 29316.8,27356.2C29314.4,27356.2 29312.4,27355.9 29311.1,27355.3L29311.1,27353.5C29312.3,27353 29314.4,27352.6 29316.8,27352.6Z" style="fill:rgb(67,75,172);fill-rule:nonzero;"/>
                <path d="M29330.9,27350.9C29332,27350.9 29332.9,27350.7 29332.9,27350.4C29332.9,27350.1 29332,27349.8 29330.9,27349.8C29329.8,27349.8 29328.9,27350.1 29328.9,27350.4C29328.9,27350.7 29329.8,27350.9 29330.9,27350.9ZM29332.3,27357.3L29332.3,27352.1L29329.5,27352.1L29329.5,27357.3C29329.5,27358.1 29328.1,27358.3 29326.1,27358.3C29324.9,27358.3 29324.1,27358.2 29323.5,27358.2L29323.5,27358.9C29324.3,27359 29325.2,27359 29326.4,27359C29330.2,27359 29332.3,27358.5 29332.3,27357.3Z" style="fill:rgb(67,75,172);fill-rule:nonzero;"/>
                <path d="M29352.5,27355.9L29350.4,27355.5C29349.2,27355.9 29347.4,27356.2 29345.2,27356.2C29341.6,27356.2 29339,27355.5 29338.9,27354.4L29351.9,27354.4C29352,27354.3 29352.1,27354.1 29352.1,27353.9C29352.1,27352.8 29349.1,27351.9 29344.5,27351.9C29339.2,27351.9 29335.9,27353 29335.9,27354.4C29335.9,27355.7 29339.5,27356.9 29345.2,27356.9C29348.4,27356.9 29350.9,27356.5 29352.5,27355.9ZM29344.4,27352.6C29347.4,27352.6 29349.1,27353.1 29349.2,27353.8L29339.1,27353.8C29339.7,27353 29341.6,27352.6 29344.4,27352.6Z" style="fill:rgb(67,75,172);fill-rule:nonzero;"/>
                <path d="M29363.7,27356.2C29360,27356.2 29357.4,27355.4 29357.4,27354.4C29357.4,27353.4 29360,27352.6 29363.7,27352.6C29365.8,27352.6 29367.5,27352.9 29368.5,27353.3L29370.8,27352.9C29369.2,27352.3 29366.7,27351.9 29363.7,27351.9C29358,27351.9 29354.4,27353.1 29354.4,27354.4C29354.4,27355.7 29358,27356.9 29363.7,27356.9C29366.8,27356.9 29369.2,27356.5 29370.8,27355.9L29368.5,27355.5C29367.5,27355.9 29365.8,27356.2 29363.7,27356.2Z" style="fill:rgb(67,75,172);fill-rule:nonzero;"/>
                <path d="M29374.6,27355.2C29374.6,27356.3 29376.8,27356.8 29380.5,27356.8C29381.7,27356.8 29382.7,27356.8 29383.5,27356.7L29383.5,27356C29382.8,27356 29382.1,27356.1 29380.9,27356.1C29378.9,27356.1 29377.5,27355.9 29377.5,27355.2L29377.5,27352.8L29383.4,27352.8L29383.4,27352.1L29377.5,27352.1L29377.5,27350.9L29374.6,27350.9L29374.6,27352.1L29371.4,27352.1L29371.4,27352.8L29374.6,27352.8L29374.6,27355.2Z" style="fill:rgb(67,75,172);fill-rule:nonzero;"/>
                <path d="M29388.2,27350.9C29389.4,27350.9 29390.2,27350.7 29390.2,27350.4C29390.2,27350.1 29389.4,27349.8 29388.2,27349.8C29387.1,27349.8 29386.2,27350.1 29386.2,27350.4C29386.2,27350.7 29387.1,27350.9 29388.2,27350.9ZM29386.8,27356.7L29389.7,27356.7L29389.7,27352.1L29386.8,27352.1L29386.8,27356.7Z" style="fill:rgb(67,75,172);fill-rule:nonzero;"/>
                <path d="M29392.5,27352.1L29392.5,27352.8L29395.7,27352.8L29395.7,27356.7L29398.6,27356.7L29398.6,27352.8L29404.5,27352.8L29404.5,27352.1L29398.6,27352.1L29398.6,27351.5C29398.6,27350.9 29399.9,27350.6 29401.8,27350.6C29402.8,27350.6 29403.5,27350.6 29404.2,27350.8L29405.5,27350.1C29404.5,27350 29403.3,27349.9 29401.7,27349.9C29398,27349.9 29395.7,27350.6 29395.7,27351.5L29395.7,27352.1L29392.5,27352.1Z" style="fill:rgb(67,75,172);fill-rule:nonzero;"/>
                <path d="M29404.6,27356.1C29406.1,27356.6 29408.2,27356.9 29410.9,27356.9C29414.1,27356.9 29416.6,27356.3 29416.6,27355.5C29416.6,27353.9 29408.1,27354.2 29408.1,27353.2C29408.1,27352.9 29409.1,27352.6 29410.9,27352.6C29412.4,27352.6 29413.7,27352.8 29414.6,27353.1L29416.6,27352.7C29415.4,27352.2 29413.3,27351.9 29410.9,27351.9C29407.6,27351.9 29405.4,27352.5 29405.4,27353.2C29405.4,27354.9 29413.9,27354.5 29413.9,27355.5C29413.9,27355.9 29412.8,27356.2 29410.9,27356.2C29409.2,27356.2 29407.8,27356 29406.6,27355.6L29404.6,27356.1Z" style="fill:rgb(67,75,172);fill-rule:nonzero;"/>
                <path d="M29241.1,27369.1L29239,27368.7C29237.9,27369.1 29236,27369.4 29233.9,27369.4C29230.2,27369.4 29227.6,27368.7 29227.5,27367.6L29240.6,27367.6C29240.7,27367.5 29240.8,27367.3 29240.8,27367.1C29240.8,27366 29237.8,27365.1 29233.1,27365.1C29227.9,27365.1 29224.6,27366.2 29224.6,27367.6C29224.6,27368.9 29228.1,27370.1 29233.9,27370.1C29237,27370.1 29239.5,27369.7 29241.1,27369.1ZM29233.1,27365.8C29236.1,27365.8 29237.8,27366.3 29237.9,27367L29227.7,27367C29228.3,27366.2 29230.3,27365.8 29233.1,27365.8Z" style="fill:rgb(67,75,172);fill-rule:nonzero;"/>
                <path d="M29245.5,27368.4C29245.5,27369.5 29247.6,27370 29251.4,27370C29252.6,27370 29253.5,27370 29254.3,27369.9L29254.3,27369.2C29253.7,27369.2 29252.9,27369.3 29251.8,27369.3C29249.7,27369.3 29248.4,27369.1 29248.4,27368.4L29248.4,27366L29254.3,27366L29254.3,27365.3L29248.4,27365.3L29248.4,27364.1L29245.5,27364.1L29245.5,27365.3L29242.3,27365.3L29242.3,27366L29245.5,27366L29245.5,27368.4Z" style="fill:rgb(67,75,172);fill-rule:nonzero;"/>
                <path d="M29264.3,27367.6C29264.3,27368.9 29267.7,27370.1 29273,27370.1C29275.5,27370.1 29277.5,27369.8 29279,27369.4L29279,27369.9L29281.9,27369.9L29281.9,27363.1L29279,27363.1L29279,27365.8C29277.5,27365.4 29275.5,27365.1 29273,27365.1C29267.7,27365.1 29264.3,27366.3 29264.3,27367.6ZM29267.3,27367.6C29267.3,27366.6 29269.7,27365.8 29273.3,27365.8C29275.7,27365.8 29277.7,27366.2 29279,27366.7L29279,27368.5C29277.8,27369 29275.7,27369.4 29273.3,27369.4C29269.7,27369.4 29267.3,27368.6 29267.3,27367.6Z" style="fill:rgb(67,75,172);fill-rule:nonzero;"/>
                <path d="M29302,27369.1L29299.9,27368.7C29298.8,27369.1 29296.9,27369.4 29294.7,27369.4C29291.1,27369.4 29288.5,27368.7 29288.4,27367.6L29301.4,27367.6C29301.5,27367.5 29301.6,27367.3 29301.6,27367.1C29301.6,27366 29298.6,27365.1 29294,27365.1C29288.8,27365.1 29285.5,27366.2 29285.5,27367.6C29285.5,27368.9 29289,27370.1 29294.7,27370.1C29297.9,27370.1 29300.4,27369.7 29302,27369.1ZM29294,27365.8C29297,27365.8 29298.7,27366.3 29298.8,27367L29288.6,27367C29289.2,27366.2 29291.2,27365.8 29294,27365.8Z" style="fill:rgb(67,75,172);fill-rule:nonzero;"/>
                <path d="M29303.5,27369.3C29305.1,27369.8 29307.2,27370.1 29309.9,27370.1C29313.1,27370.1 29315.6,27369.5 29315.6,27368.7C29315.6,27367.1 29307.1,27367.4 29307.1,27366.4C29307.1,27366.1 29308.1,27365.8 29309.9,27365.8C29311.4,27365.8 29312.7,27366 29313.6,27366.3L29315.5,27365.9C29314.4,27365.4 29312.3,27365.1 29309.9,27365.1C29306.6,27365.1 29304.3,27365.7 29304.3,27366.4C29304.3,27368.1 29312.8,27367.7 29312.8,27368.7C29312.8,27369.1 29311.7,27369.4 29309.9,27369.4C29308.1,27369.4 29306.7,27369.2 29305.5,27368.8L29303.5,27369.3Z" style="fill:rgb(67,75,172);fill-rule:nonzero;"/>
                <path d="M29345,27367.6C29345,27366.3 29341.6,27365.1 29336.2,27365.1C29333.7,27365.1 29331.7,27365.4 29330.2,27365.8L29330.2,27363.1L29327.3,27363.1L29327.3,27369.9L29330.2,27369.9L29330.2,27369.4C29331.7,27369.8 29333.7,27370.1 29336.2,27370.1C29341.6,27370.1 29345,27368.9 29345,27367.6ZM29335.9,27365.8C29339.5,27365.8 29342,27366.6 29342,27367.6C29342,27368.6 29339.5,27369.4 29335.9,27369.4C29333.6,27369.4 29331.5,27369.1 29330.2,27368.5L29330.2,27366.7C29331.5,27366.2 29333.5,27365.8 29335.9,27365.8Z" style="fill:rgb(67,75,172);fill-rule:nonzero;"/>
                <path d="M29363.7,27369.1L29361.6,27368.7C29360.5,27369.1 29358.6,27369.4 29356.4,27369.4C29352.8,27369.4 29350.2,27368.7 29350.1,27367.6L29363.1,27367.6C29363.2,27367.5 29363.3,27367.3 29363.3,27367.1C29363.3,27366 29360.3,27365.1 29355.7,27365.1C29350.5,27365.1 29347.2,27366.2 29347.2,27367.6C29347.2,27368.9 29350.7,27370.1 29356.4,27370.1C29359.6,27370.1 29362.1,27369.7 29363.7,27369.1ZM29355.6,27365.8C29358.6,27365.8 29360.4,27366.3 29360.5,27367L29350.3,27367C29350.9,27366.2 29352.8,27365.8 29355.6,27365.8Z" style="fill:rgb(67,75,172);fill-rule:nonzero;"/>
                <path d="M29365.2,27369.3C29366.8,27369.8 29368.9,27370.1 29371.6,27370.1C29374.7,27370.1 29377.3,27369.5 29377.3,27368.7C29377.3,27367.1 29368.8,27367.4 29368.8,27366.4C29368.8,27366.1 29369.8,27365.8 29371.6,27365.8C29373.1,27365.8 29374.3,27366 29375.2,27366.3L29377.2,27365.9C29376.1,27365.4 29374,27365.1 29371.5,27365.1C29368.3,27365.1 29366,27365.7 29366,27366.4C29366,27368.1 29374.5,27367.7 29374.5,27368.7C29374.5,27369.1 29373.4,27369.4 29371.5,27369.4C29369.8,27369.4 29368.4,27369.2 29367.2,27368.8L29365.2,27369.3Z" style="fill:rgb(67,75,172);fill-rule:nonzero;"/>
                <path d="M29388.5,27365.1C29383,27365.1 29379.3,27366.3 29379.3,27367.6C29379.3,27368.9 29383,27370.1 29388.5,27370.1C29393.9,27370.1 29397.7,27368.9 29397.7,27367.6C29397.7,27366.3 29393.9,27365.1 29388.5,27365.1ZM29388.5,27369.4C29384.9,27369.4 29382.3,27368.6 29382.3,27367.6C29382.3,27366.6 29384.9,27365.8 29388.5,27365.8C29392.1,27365.8 29394.7,27366.6 29394.7,27367.6C29394.7,27368.6 29392.1,27369.4 29388.5,27369.4Z" style="fill:rgb(67,75,172);fill-rule:nonzero;"/>
                <path d="M29402.7,27364.1C29403.8,27364.1 29404.7,27363.9 29404.7,27363.6C29404.7,27363.3 29403.8,27363 29402.7,27363C29401.6,27363 29400.7,27363.3 29400.7,27363.6C29400.7,27363.9 29401.6,27364.1 29402.7,27364.1ZM29401.3,27369.9L29404.2,27369.9L29404.2,27365.3L29401.3,27365.3L29401.3,27369.9Z" style="fill:rgb(67,75,172);fill-rule:nonzero;"/>
                <path d="M29409.2,27369.9L29412.1,27369.9L29412.1,27366.7C29413.1,27366.2 29414.7,27365.8 29417.2,27365.8C29419.8,27365.8 29421.5,27366.3 29421.5,27367.1L29421.5,27369.9L29424.4,27369.9L29424.4,27367.1C29424.4,27365.8 29421.5,27365.1 29417.7,27365.1C29415.2,27365.1 29413.4,27365.4 29412.1,27365.8L29412.1,27365.3L29409.2,27365.3L29409.2,27369.9Z" style="fill:rgb(67,75,172);fill-rule:nonzero;"/>
                <path d="M29427.3,27369.3C29428.8,27369.8 29431,27370.1 29433.7,27370.1C29436.8,27370.1 29439.4,27369.5 29439.4,27368.7C29439.4,27367.1 29430.9,27367.4 29430.9,27366.4C29430.9,27366.1 29431.8,27365.8 29433.7,27365.8C29435.1,27365.8 29436.4,27366 29437.3,27366.3L29439.3,27365.9C29438.1,27365.4 29436.1,27365.1 29433.6,27365.1C29430.4,27365.1 29428.1,27365.7 29428.1,27366.4C29428.1,27368.1 29436.6,27367.7 29436.6,27368.7C29436.6,27369.1 29435.5,27369.4 29433.6,27369.4C29431.9,27369.4 29430.5,27369.2 29429.3,27368.8L29427.3,27369.3Z" style="fill:rgb(67,75,172);fill-rule:nonzero;"/>
                <path d="M29226,27385.4L29228.9,27385.4L29228.9,27382.6C29230.4,27383 29232.4,27383.3 29234.9,27383.3C29240.3,27383.3 29243.7,27382.1 29243.7,27380.8C29243.7,27379.5 29240.3,27378.3 29234.9,27378.3C29232.4,27378.3 29230.4,27378.6 29228.9,27379L29228.9,27378.5L29226,27378.5L29226,27385.4ZM29234.6,27379C29238.2,27379 29240.7,27379.8 29240.7,27380.8C29240.7,27381.8 29238.2,27382.6 29234.6,27382.6C29232.3,27382.6 29230.2,27382.3 29228.9,27381.7L29228.9,27379.9C29230.2,27379.4 29232.2,27379 29234.6,27379Z" style="fill:rgb(67,75,172);fill-rule:nonzero;"/>
                <path d="M29247.3,27383.1L29250.1,27383.1L29250.1,27379.9C29251.2,27379.5 29252.6,27379.2 29254.8,27379.2C29255.5,27379.2 29256,27379.2 29256.5,27379.2L29256.5,27378.5C29256.1,27378.4 29255.6,27378.4 29255.1,27378.4C29252.9,27378.4 29251.4,27378.7 29250.1,27379.1L29250.1,27378.5L29247.3,27378.5L29247.3,27383.1Z" style="fill:rgb(67,75,172);fill-rule:nonzero;"/>
                <path d="M29261.1,27377.3C29262.2,27377.3 29263.1,27377.1 29263.1,27376.8C29263.1,27376.5 29262.2,27376.2 29261.1,27376.2C29260,27376.2 29259.1,27376.5 29259.1,27376.8C29259.1,27377.1 29260,27377.3 29261.1,27377.3ZM29259.6,27383.1L29262.5,27383.1L29262.5,27378.5L29259.6,27378.5L29259.6,27383.1Z" style="fill:rgb(67,75,172);fill-rule:nonzero;"/>
                <path d="M29275.3,27378.3C29269.8,27378.3 29266.1,27379.5 29266.1,27380.8C29266.1,27382.1 29269.8,27383.3 29275.3,27383.3C29280.8,27383.3 29284.5,27382.1 29284.5,27380.8C29284.5,27379.5 29280.8,27378.3 29275.3,27378.3ZM29275.3,27382.6C29271.7,27382.6 29269.1,27381.8 29269.1,27380.8C29269.1,27379.8 29271.7,27379 29275.3,27379C29278.9,27379 29281.5,27379.8 29281.5,27380.8C29281.5,27381.8 29278.9,27382.6 29275.3,27382.6Z" style="fill:rgb(67,75,172);fill-rule:nonzero;"/>
                <path d="M29288.1,27383.1L29291,27383.1L29291,27379.9C29292,27379.5 29293.5,27379.2 29295.7,27379.2C29296.3,27379.2 29296.9,27379.2 29297.4,27379.2L29297.4,27378.5C29297,27378.4 29296.4,27378.4 29295.9,27378.4C29293.8,27378.4 29292.2,27378.7 29291,27379.1L29291,27378.5L29288.1,27378.5L29288.1,27383.1Z" style="fill:rgb(67,75,172);fill-rule:nonzero;"/>
                <path d="M29301.9,27377.3C29303,27377.3 29303.9,27377.1 29303.9,27376.8C29303.9,27376.5 29303,27376.2 29301.9,27376.2C29300.8,27376.2 29299.9,27376.5 29299.9,27376.8C29299.9,27377.1 29300.8,27377.3 29301.9,27377.3ZM29300.5,27383.1L29303.3,27383.1L29303.3,27378.5L29300.5,27378.5L29300.5,27383.1Z" style="fill:rgb(67,75,172);fill-rule:nonzero;"/>
                <path d="M29309.4,27381.6C29309.4,27382.7 29311.5,27383.2 29315.2,27383.2C29316.5,27383.2 29317.4,27383.2 29318.2,27383.1L29318.2,27382.4C29317.5,27382.5 29316.8,27382.5 29315.7,27382.5C29313.6,27382.5 29312.2,27382.3 29312.2,27381.6L29312.2,27379.2L29318.1,27379.2L29318.1,27378.5L29312.2,27378.5L29312.2,27377.4L29309.4,27377.4L29309.4,27378.5L29306.2,27378.5L29306.2,27379.2L29309.4,27379.2L29309.4,27381.6Z" style="fill:rgb(67,75,172);fill-rule:nonzero;"/>
                <path d="M29326.1,27383.2C29328.3,27383.2 29330.5,27383 29331.8,27382.5L29331.8,27383.1L29334.7,27383.1L29334.7,27380C29334.7,27379 29332.1,27378.3 29327.8,27378.3C29324.8,27378.3 29322.5,27378.7 29321,27379.2L29323.1,27379.7C29324.2,27379.3 29325.8,27379 29327.7,27379C29330.1,27379 29331.8,27379.4 29331.8,27380L29331.8,27380.3L29326.1,27380.6C29322.5,27380.8 29320.5,27381.3 29320.5,27381.9C29320.5,27382.7 29322.8,27383.2 29326.1,27383.2ZM29323.4,27381.9C29323.4,27381.5 29324.5,27381.2 29326.8,27381.1L29331.8,27380.9L29331.8,27381.8C29330.7,27382.3 29328.9,27382.6 29326.6,27382.6C29324.6,27382.6 29323.4,27382.3 29323.4,27381.9Z" style="fill:rgb(67,75,172);fill-rule:nonzero;"/>
                <path d="M29340.9,27377.3C29342,27377.3 29342.9,27377.1 29342.9,27376.8C29342.9,27376.5 29342,27376.2 29340.9,27376.2C29339.8,27376.2 29338.9,27376.5 29338.9,27376.8C29338.9,27377.1 29339.8,27377.3 29340.9,27377.3ZM29339.4,27383.1L29342.3,27383.1L29342.3,27378.5L29339.4,27378.5L29339.4,27383.1Z" style="fill:rgb(67,75,172);fill-rule:nonzero;"/>
                <path d="M29347.4,27383.1L29350.2,27383.1L29350.2,27379.9C29351.3,27379.5 29352.7,27379.2 29354.9,27379.2C29355.6,27379.2 29356.1,27379.2 29356.6,27379.2L29356.6,27378.5C29356.2,27378.4 29355.7,27378.4 29355.2,27378.4C29353,27378.4 29351.5,27378.7 29350.2,27379.1L29350.2,27378.5L29347.4,27378.5L29347.4,27383.1Z" style="fill:rgb(67,75,172);fill-rule:nonzero;"/>
                <path d="M29373.8,27382.4L29371.7,27381.9C29370.6,27382.3 29368.7,27382.6 29366.5,27382.6C29362.9,27382.6 29360.3,27381.9 29360.2,27380.8L29373.2,27380.8C29373.3,27380.7 29373.4,27380.5 29373.4,27380.3C29373.4,27379.2 29370.4,27378.3 29365.8,27378.3C29360.6,27378.3 29357.3,27379.4 29357.3,27380.8C29357.3,27382.1 29360.8,27383.3 29366.5,27383.3C29369.7,27383.3 29372.2,27382.9 29373.8,27382.4ZM29365.7,27379C29368.7,27379 29370.5,27379.5 29370.6,27380.2L29360.4,27380.2C29361,27379.4 29363,27379 29365.7,27379Z" style="fill:rgb(67,75,172);fill-rule:nonzero;"/>
                <path d="M29375.3,27382.5C29376.9,27383 29379,27383.3 29381.7,27383.3C29384.8,27383.3 29387.4,27382.8 29387.4,27381.9C29387.4,27380.3 29378.9,27380.7 29378.9,27379.6C29378.9,27379.3 29379.9,27379 29381.7,27379C29383.2,27379 29384.4,27379.2 29385.4,27379.5L29387.3,27379.1C29386.2,27378.6 29384.1,27378.3 29381.6,27378.3C29378.4,27378.3 29376.1,27378.9 29376.1,27379.6C29376.1,27381.3 29384.6,27380.9 29384.6,27381.9C29384.6,27382.3 29383.5,27382.6 29381.6,27382.6C29379.9,27382.6 29378.5,27382.4 29377.3,27382L29375.3,27382.5Z" style="fill:rgb(67,75,172);fill-rule:nonzero;"/>
            </g>
            <g transform="matrix(0.562343,0,0,1.13638,-756.852,218.647)">
                <g transform="matrix(1.51345,0,0,0.378904,1413,-246.874)">
                    <path d="M373.526,2439.73C373.526,2501.12 360.436,2550.96 344.314,2550.96L103.97,2550.96C87.847,2550.96 74.758,2501.12 74.758,2439.73C74.758,2378.34 87.847,2328.49 103.97,2328.49L344.314,2328.49C360.436,2328.49 373.526,2378.34 373.526,2439.73Z" style="fill:rgb(87,94,181);"/>
                </g>
                <g transform="matrix(1.53975,0,0,0.61713,-43465.2,-16187.9)">
                    <path d="M29310.9,27349.9L29325.1,27349.9L29325.1,27340L29315.8,27340L29315.8,27324.8L29323.7,27324.8L29323.7,27314.9L29315.8,27314.9L29315.8,27300.9L29325.1,27300.9L29325.1,27291L29310.9,27291L29310.9,27349.9Z" style="fill:white;fill-rule:nonzero;"/>
                    <path d="M29330.2,27334.4C29330.2,27344.8 29332.3,27350.8 29336.7,27350.8C29338.2,27350.8 29339.2,27350.3 29340.1,27349.4L29340.1,27340.1C29339.5,27340.7 29338.7,27341 29337.5,27341C29335.7,27341 29334.7,27339.2 29334.7,27334.4L29334.7,27317.1L29340,27317.1L29340,27307.5L29334.7,27307.5L29334.7,27296.9L29330.2,27296.9L29330.2,27307.5L29327,27307.5L29327,27317.1L29330.2,27317.1L29330.2,27334.4Z" style="fill:white;fill-rule:nonzero;"/>
                    <path d="M29347.9,27351.2C29350,27351.2 29352.1,27349.1 29353.2,27345.8L29353.2,27349.9L29357.6,27349.9L29357.6,27322.5C29357.6,27313.1 29355,27305.8 29349.9,27305.8C29346.7,27305.8 29344.1,27309 29342.6,27314.2L29345.8,27320.2C29346.7,27317.1 29348.1,27315.2 29349.8,27315.2C29351.8,27315.2 29353.2,27318 29353.2,27322.5L29353.2,27323.6L29347.8,27325.8C29344,27327.3 29342,27332.1 29342,27338.5C29342,27346.3 29344.4,27351.2 29347.9,27351.2ZM29346.4,27338C29346.4,27335.4 29347.1,27333.5 29349,27332.8L29353.2,27331.1L29353.2,27337C29352.3,27340.4 29350.8,27342.7 29348.8,27342.7C29347.3,27342.7 29346.4,27340.8 29346.4,27338Z" style="fill:white;fill-rule:nonzero;"/>
                    <path d="M29361.6,27370.6L29366,27370.6L29366,27346.5C29367.4,27349.8 29369.1,27351.6 29371.5,27351.6C29377,27351.6 29380.4,27341.1 29380.4,27328.7C29380.4,27316.3 29377,27305.8 29371.5,27305.8C29369.1,27305.8 29367.4,27307.7 29366,27311L29366,27307.5L29361.6,27307.5L29361.6,27370.6ZM29370.9,27315.9C29373.8,27315.9 29375.8,27321.3 29375.8,27328.7C29375.8,27336.1 29373.8,27341.5 29370.9,27341.5C29368.8,27341.5 29367.2,27339.4 29366,27335.4L29366,27322.1C29367.1,27318.1 29368.8,27315.9 29370.9,27315.9Z" style="fill:white;fill-rule:nonzero;"/>
                    <path d="M29399.7,27343L29396.5,27337C29395.6,27340 29393.9,27342 29392,27342C29389.3,27342 29387.2,27338.8 29386.8,27330.9L29399.1,27330.9C29399.3,27329.5 29399.4,27327.3 29399.4,27324.9C29399.4,27313.8 29396.2,27305.8 29391.3,27305.8C29385.6,27305.8 29382.3,27316.2 29382.3,27328.7C29382.3,27341.1 29385.8,27351.6 29392,27351.6C29395.4,27351.6 29398.1,27348.3 29399.7,27343ZM29391.2,27314.6C29393.7,27314.6 29395,27318.9 29395,27323.2L29387,27323.2C29387.5,27317.6 29388.9,27314.6 29391.2,27314.6Z" style="fill:white;fill-rule:nonzero;"/>
                    <path d="M29427.5,27333.1C29427.5,27326.6 29426.2,27321.3 29423.7,27318.3C29425.5,27315.2 29426.5,27310.6 29426.5,27305.1C29426.5,27295.5 29423.2,27289.3 29418.7,27289.3C29414.8,27289.3 29412.1,27293.4 29410.3,27300.4L29414.1,27306.2C29415.1,27301.9 29416.4,27299.4 29418.4,27299.4C29420.3,27299.4 29421.7,27301.9 29421.7,27306.4C29421.7,27311 29420.2,27313.7 29418.2,27313.7L29414.5,27313.7L29414.5,27323.8L29418.5,27323.8C29421,27323.8 29422.8,27327.2 29422.8,27332.6C29422.8,27338.1 29421,27341.5 29418.6,27341.5C29416.2,27341.5 29414.6,27338.6 29413.2,27332.2L29409.1,27338.3C29411.1,27346.7 29414.1,27351.6 29418.7,27351.6C29423.8,27351.6 29427.5,27344.3 29427.5,27333.1Z" style="fill:white;fill-rule:nonzero;"/>
                </g>
            </g>
            <g transform="matrix(0.611637,0,0,0.580807,-17803,-14661.9)">
                <path d="M29226.9,27345.1L29232.2,27345.1L29232.2,27323.1L29235,27323.1L29242,27345.1L29248.3,27345.1L29240.1,27321C29242.8,27318.4 29244.3,27313.5 29244.3,27306.9C29244.3,27296.8 29240.8,27290.7 29235,27290.7L29226.9,27290.7L29226.9,27345.1ZM29235.3,27299.9C29237.5,27299.9 29238.8,27302.7 29238.8,27306.8C29238.8,27311.2 29237.5,27313.9 29235.3,27313.9L29232.2,27313.9L29232.2,27299.9L29235.3,27299.9Z" style="fill:rgb(87,94,181);fill-rule:nonzero;"/>
                <path d="M29260.9,27299.7L29265.4,27286.8L29260.2,27286.8L29256.3,27299.7L29260.9,27299.7ZM29267.4,27338.7L29263.9,27333.1C29262.9,27335.9 29261.1,27337.8 29259,27337.8C29256.1,27337.8 29253.9,27334.8 29253.4,27327.5L29266.7,27327.5C29266.9,27326.2 29267,27324.2 29267,27322C29267,27311.7 29263.6,27304.4 29258.3,27304.4C29252.1,27304.4 29248.5,27313.9 29248.5,27325.5C29248.5,27336.9 29252.3,27346.6 29259.1,27346.6C29262.7,27346.6 29265.6,27343.6 29267.4,27338.7ZM29258.2,27312.4C29260.8,27312.4 29262.2,27316.4 29262.3,27320.4L29253.6,27320.4C29254.1,27315.2 29255.7,27312.4 29258.2,27312.4Z" style="fill:rgb(87,94,181);fill-rule:nonzero;"/>
                <path d="M29268.2,27305.9L29268.2,27314.8L29271.8,27314.8L29271.8,27345.1L29276.6,27345.1L29276.6,27314.8L29282.4,27314.8L29282.4,27305.9L29276.6,27305.9L29276.6,27301.6C29276.6,27298 29277.7,27295.7 29279.3,27295.7C29280.3,27295.7 29281,27296.4 29281.6,27297.2L29283.6,27289C29282.4,27287.6 29280.9,27286.8 29279.2,27286.8C29274.4,27286.8 29271.8,27293.5 29271.8,27301.8L29271.8,27305.9L29268.2,27305.9Z" style="fill:rgb(87,94,181);fill-rule:nonzero;"/>
                <rect x="29284.8" y="27286.8" width="4.786" height="58.302" style="fill:rgb(87,94,181);fill-rule:nonzero;"/>
                <path d="M29311.7,27338.7L29308.3,27333.1C29307.3,27335.9 29305.5,27337.8 29303.4,27337.8C29300.4,27337.8 29298.2,27334.8 29297.8,27327.5L29311.1,27327.5C29311.2,27326.2 29311.4,27324.2 29311.4,27322C29311.4,27311.7 29307.9,27304.4 29302.6,27304.4C29296.4,27304.4 29292.9,27313.9 29292.9,27325.5C29292.9,27336.9 29296.7,27346.6 29303.4,27346.6C29307,27346.6 29309.9,27343.6 29311.7,27338.7ZM29302.5,27312.4C29305.2,27312.4 29306.6,27316.4 29306.7,27320.4L29297.9,27320.4C29298.5,27315.2 29300.1,27312.4 29302.5,27312.4Z" style="fill:rgb(87,94,181);fill-rule:nonzero;"/>
                <path d="M29317.6,27345.1L29321.9,27332L29326.2,27345.1L29331.7,27345.1L29324.9,27325L29331.3,27305.9L29325.8,27305.9L29321.9,27318L29318,27305.9L29312.5,27305.9L29318.8,27325L29312.1,27345.1L29317.6,27345.1Z" style="fill:rgb(87,94,181);fill-rule:nonzero;"/>
                <path d="M29336.6,27299.1C29338.3,27299.1 29339.7,27296.1 29339.7,27292.6C29339.7,27289.1 29338.3,27286.2 29336.6,27286.2C29334.9,27286.2 29333.5,27289.1 29333.5,27292.6C29333.5,27296.1 29334.9,27299.1 29336.6,27299.1ZM29334.2,27345.1L29339,27345.1L29339,27305.9L29334.2,27305.9L29334.2,27345.1Z" style="fill:rgb(87,94,181);fill-rule:nonzero;"/>
                <path d="M29352.6,27304.4C29346.4,27304.4 29342.2,27313.8 29342.2,27325.5C29342.2,27337.2 29346.4,27346.6 29352.6,27346.6C29358.8,27346.6 29363,27337.2 29363,27325.5C29363,27313.8 29358.8,27304.4 29352.6,27304.4ZM29352.7,27337.3C29349.5,27337.3 29347.2,27332.3 29347.2,27325.5C29347.2,27318.7 29349.5,27313.7 29352.7,27313.7C29355.7,27313.7 29358,27318.7 29358,27325.5C29358,27332.3 29355.7,27337.3 29352.7,27337.3Z" style="fill:rgb(87,94,181);fill-rule:nonzero;"/>
                <path d="M29366.2,27345.1L29371,27345.1L29371,27319.5C29371.7,27317 29373,27313.7 29375.4,27313.7C29377.8,27313.7 29379.2,27317 29379.2,27322.2L29379.2,27345.1L29384,27345.1L29384,27321.8C29384,27310.2 29380.8,27304.4 29376.6,27304.4C29374.1,27304.4 29372.4,27306.4 29371,27309L29371,27305.9L29366.2,27305.9L29366.2,27345.1Z" style="fill:rgb(87,94,181);fill-rule:nonzero;"/>
                <path d="M29401.1,27327.6L29404.6,27327.6L29404.9,27321.9C29409.5,27320.2 29412.9,27314.4 29412.9,27305.3C29412.9,27295.4 29408.9,27289.1 29404.5,27289.1C29400.5,27289.1 29397.6,27292.8 29395.5,27299.7L29399.6,27304.9C29401,27300.6 29402.2,27298.5 29404.2,27298.5C29406.2,27298.5 29407.7,27301.3 29407.7,27305.3C29407.7,27311.9 29404.8,27313.8 29400.5,27314.8L29401.1,27327.6ZM29402.9,27346C29404.6,27346 29406.2,27342.9 29406.2,27339.3C29406.2,27335.6 29404.6,27332.5 29402.9,27332.5C29401.1,27332.5 29399.6,27335.6 29399.6,27339.3C29399.6,27342.9 29401.1,27346 29402.9,27346Z" style="fill:rgb(87,94,181);fill-rule:nonzero;"/>
            </g>
            <g transform="matrix(-0.274874,0,0,1.012,11590.3,-32183.9)">
                <g transform="matrix(-2.27377,0,0,1.18972,42165.9,31802.3)">
                    <path d="M410.365,900.089C410.365,892.5 404.204,886.339 396.615,886.339C389.026,886.339 382.865,892.5 382.865,900.089C382.865,907.678 389.026,913.839 396.615,913.839C404.204,913.839 410.365,907.678 410.365,900.089Z" style="fill:rgb(87,94,181);"/>
                    <path d="M329.195,1014.75L315.445,1001L329.195,987.253" style="fill:none;stroke:rgb(87,94,181);stroke-width:4.17px;"/>
                    <path d="M394.532,908.339C394.532,907.189 395.466,906.256 396.615,906.256C397.765,906.256 398.699,907.189 398.699,908.339L398.699,922.258C398.699,923.408 397.765,924.341 396.615,924.341C395.466,924.341 394.532,923.408 394.532,922.258L394.532,908.339ZM394.532,950.096C394.532,948.946 395.466,948.012 396.615,948.012C397.765,948.012 398.699,948.946 398.699,950.096C398.699,950.096 398.699,963.983 398.698,963.972C398.709,964.341 398.802,968.094 398.153,973.12C398.006,974.261 396.961,975.067 395.821,974.92C394.68,974.773 393.874,973.728 394.021,972.587C394.654,967.682 394.533,964.087 394.533,964.087C394.532,964.063 394.532,964.039 394.532,964.014L394.532,950.096ZM389.117,988.666C389.686,987.667 390.96,987.319 391.959,987.888C392.957,988.458 393.306,989.731 392.736,990.73C389.615,996.204 384.914,1000.74 377.921,1002.41C376.803,1002.68 375.678,1001.98 375.411,1000.87C375.143,999.747 375.834,998.622 376.953,998.355C382.717,996.977 386.543,993.179 389.117,988.666ZM359.759,998.919C360.909,998.919 361.842,999.853 361.842,1001C361.842,1002.15 360.909,1003.09 359.759,1003.09L342.033,1003.09C340.883,1003.09 339.95,1002.15 339.95,1001C339.95,999.853 340.883,998.919 342.033,998.919L359.759,998.919ZM324.307,998.919C325.457,998.919 326.391,999.853 326.391,1001C326.391,1002.15 325.457,1003.09 324.307,1003.09L315.445,1003.09C314.295,1003.09 313.361,1002.15 313.361,1001C313.361,999.853 314.295,998.919 315.445,998.919L324.307,998.919Z" style="fill:rgb(87,94,181);"/>
                </g>
            </g>
            <g transform="matrix(0.524489,0,0,0.939343,-15002.9,-24445.2)">
                <path d="M29227.5,27322.8L29233.8,27322.8L29233.8,27308.5L29243.7,27308.5L29243.7,27302.8L29233.8,27302.8L29233.8,27294.9L29245.5,27294.9L29245.5,27289.2L29227.5,27289.2L29227.5,27322.8Z" style="fill:rgb(87,94,181);fill-rule:nonzero;"/>
                <path d="M29251.7,27294.4C29253.7,27294.4 29255.3,27292.6 29255.3,27290.4C29255.3,27288.2 29253.7,27286.4 29251.7,27286.4C29249.7,27286.4 29248.1,27288.2 29248.1,27290.4C29248.1,27292.6 29249.7,27294.4 29251.7,27294.4ZM29248.9,27322.8L29254.5,27322.8L29254.5,27298.6L29248.9,27298.6L29248.9,27322.8Z" style="fill:rgb(87,94,181);fill-rule:nonzero;"/>
                <path d="M29259.8,27322.8L29265.4,27322.8L29265.4,27307C29266.3,27305.5 29267.7,27303.4 29270.6,27303.4C29273.3,27303.4 29275,27305.4 29275,27308.7L29275,27322.8L29280.6,27322.8L29280.6,27308.4C29280.6,27301.3 29276.8,27297.7 29272,27297.7C29269,27297.7 29267,27298.9 29265.4,27300.5L29265.4,27298.6L29259.8,27298.6L29259.8,27322.8Z" style="fill:rgb(87,94,181);fill-rule:nonzero;"/>
                <path d="M29291.8,27323.6C29294.4,27323.6 29297.1,27322.4 29298.5,27320.5L29298.5,27322.8L29304,27322.8L29304,27307.2C29304,27301.8 29300.7,27297.7 29294.3,27297.7C29290.3,27297.7 29287,27299.5 29285.1,27302.5L29289.1,27305.9C29290.3,27304.1 29292,27303 29294.2,27303C29296.7,27303 29298.5,27304.6 29298.5,27307.2L29298.5,27307.8L29291.7,27309C29286.9,27309.9 29284.4,27312.7 29284.4,27316.3C29284.4,27320.8 29287.4,27323.6 29291.8,27323.6ZM29289.9,27316C29289.9,27314.5 29290.9,27313.5 29293.2,27313L29298.5,27312.1L29298.5,27315.5C29297.4,27317.4 29295.5,27318.7 29293,27318.7C29291.1,27318.7 29289.9,27317.7 29289.9,27316Z" style="fill:rgb(87,94,181);fill-rule:nonzero;"/>
                <path d="M29309.1,27322.8L29314.7,27322.8L29314.7,27307C29315.5,27305.5 29317,27303.4 29319.8,27303.4C29322.5,27303.4 29324.2,27305.4 29324.2,27308.7L29324.2,27322.8L29329.8,27322.8L29329.8,27308.4C29329.8,27301.3 29326,27297.7 29321.2,27297.7C29318.3,27297.7 29316.2,27298.9 29314.7,27300.5L29314.7,27298.6L29309.1,27298.6L29309.1,27322.8Z" style="fill:rgb(87,94,181);fill-rule:nonzero;"/>
                <path d="M29345.5,27318C29341.8,27318 29339.1,27315 29339.1,27310.7C29339.1,27306.5 29341.8,27303.4 29345.4,27303.4C29347.7,27303.4 29349.4,27304.5 29350.5,27306.2L29354.8,27302.6C29352.8,27299.6 29349.5,27297.7 29345.5,27297.7C29337.8,27297.7 29333.3,27303.7 29333.3,27310.7C29333.3,27317.8 29337.8,27323.8 29345.5,27323.8C29349.5,27323.8 29352.8,27321.9 29354.8,27318.9L29350.5,27315.2C29349.4,27316.9 29347.7,27318 29345.5,27318Z" style="fill:rgb(87,94,181);fill-rule:nonzero;"/>
                <path d="M29377.2,27318.9L29373.2,27315.4C29372,27317.2 29369.9,27318.3 29367.5,27318.3C29364,27318.3 29361.5,27316.5 29361,27312L29376.5,27312C29376.6,27311.2 29376.8,27309.9 29376.8,27308.6C29376.8,27302.2 29372.8,27297.7 29366.6,27297.7C29359.4,27297.7 29355.2,27303.6 29355.2,27310.7C29355.2,27317.8 29359.7,27323.8 29367.5,27323.8C29371.7,27323.8 29375.1,27321.9 29377.2,27318.9ZM29366.5,27302.7C29369.6,27302.7 29371.2,27305.1 29371.3,27307.6L29361.1,27307.6C29361.7,27304.4 29363.6,27302.7 29366.5,27302.7Z" style="fill:rgb(87,94,181);fill-rule:nonzero;"/>
                <path d="M29380.9,27322.8L29386.5,27322.8L29386.5,27307C29387.4,27305.5 29388.7,27303.4 29391.2,27303.4C29393.7,27303.4 29395.2,27305.2 29395.2,27308.2L29395.2,27322.8L29400.8,27322.8L29400.8,27307.9C29400.8,27307.6 29400.8,27307.2 29400.8,27306.9C29401.6,27305.2 29403,27303.4 29405.4,27303.4C29407.9,27303.4 29409.3,27305.2 29409.3,27308.2L29409.3,27322.8L29415,27322.8L29415,27307.9C29415,27301.1 29411.4,27297.7 29406.8,27297.7C29403.1,27297.7 29400.9,27299.5 29399.4,27301.6C29397.9,27299 29395.5,27297.7 29392.6,27297.7C29389.9,27297.7 29388,27298.9 29386.5,27300.4L29386.5,27298.6L29380.9,27298.6L29380.9,27322.8Z" style="fill:rgb(87,94,181);fill-rule:nonzero;"/>
                <path d="M29440.4,27318.9L29436.4,27315.4C29435.2,27317.2 29433.1,27318.3 29430.7,27318.3C29427.2,27318.3 29424.7,27316.5 29424.1,27312L29439.7,27312C29439.8,27311.2 29440,27309.9 29440,27308.6C29440,27302.2 29436,27297.7 29429.8,27297.7C29422.6,27297.7 29418.4,27303.6 29418.4,27310.7C29418.4,27317.8 29422.9,27323.8 29430.7,27323.8C29434.9,27323.8 29438.3,27321.9 29440.4,27318.9ZM29429.7,27302.7C29432.8,27302.7 29434.4,27305.1 29434.5,27307.6L29424.3,27307.6C29424.9,27304.4 29426.8,27302.7 29429.7,27302.7Z" style="fill:rgb(87,94,181);fill-rule:nonzero;"/>
                <path d="M29444.1,27322.8L29449.7,27322.8L29449.7,27307C29450.6,27305.5 29452.1,27303.4 29454.9,27303.4C29457.6,27303.4 29459.3,27305.4 29459.3,27308.7L29459.3,27322.8L29464.9,27322.8L29464.9,27308.4C29464.9,27301.3 29461.1,27297.7 29456.3,27297.7C29453.3,27297.7 29451.3,27298.9 29449.7,27300.5L29449.7,27298.6L29444.1,27298.6L29444.1,27322.8Z" style="fill:rgb(87,94,181);fill-rule:nonzero;"/>
                <path d="M29471.3,27314C29471.3,27319.9 29473.9,27323.3 29479.5,27323.3C29481.3,27323.3 29482.6,27323.1 29483.7,27322.6L29483.7,27317.2C29483,27317.6 29482,27317.7 29480.4,27317.7C29478.2,27317.7 29476.9,27316.7 29476.9,27314L29476.9,27304.1L29483.7,27304.1L29483.7,27298.6L29476.9,27298.6L29476.9,27292.6L29471.3,27292.6L29471.3,27298.6L29467.2,27298.6L29467.2,27304.1L29471.3,27304.1L29471.3,27314Z" style="fill:rgb(87,94,181);fill-rule:nonzero;"/>
                <path d="M29485.5,27319.3C29487.6,27322.1 29490.4,27323.8 29494.3,27323.8C29498.5,27323.8 29502.2,27321 29502.3,27315.9C29502.3,27307.6 29491.7,27309 29491.7,27304.9C29491.7,27303.6 29492.6,27302.6 29494.3,27302.6C29496,27302.6 29497.5,27303.8 29498.6,27305.3L29502.3,27301.8C29500.7,27299.4 29497.7,27297.7 29494.3,27297.7C29489.7,27297.7 29486.4,27300.9 29486.4,27305.2C29486.4,27313.7 29497,27312.1 29497,27316.3C29497,27317.7 29496,27318.9 29494.2,27318.9C29492.1,27318.9 29490.5,27317.6 29489.1,27315.7L29485.5,27319.3Z" style="fill:rgb(87,94,181);fill-rule:nonzero;"/>
                <path d="M29232.6,27371.6C29235.2,27371.6 29237.8,27370.4 29239.2,27368.6L29239.2,27370.9L29244.8,27370.9L29244.8,27355.2C29244.8,27349.9 29241.5,27345.7 29235.1,27345.7C29231.1,27345.7 29227.8,27347.5 29225.8,27350.5L29229.9,27353.9C29231.1,27352.2 29232.8,27351.1 29234.9,27351.1C29237.5,27351.1 29239.2,27352.7 29239.2,27355.2L29239.2,27355.9L29232.5,27357.1C29227.7,27358 29225.1,27360.7 29225.1,27364.4C29225.1,27368.8 29228.2,27371.6 29232.6,27371.6ZM29230.7,27364.1C29230.7,27362.6 29231.6,27361.5 29234,27361.1L29239.2,27360.1L29239.2,27363.6C29238.1,27365.5 29236.3,27366.8 29233.7,27366.8C29231.8,27366.8 29230.7,27365.7 29230.7,27364.1Z" style="fill:rgb(87,94,181);fill-rule:nonzero;"/>
                <path d="M29264.4,27360.4C29264.4,27363.9 29262.8,27366.1 29259.7,27366.1C29256.7,27366.1 29255,27363.9 29255,27360.4L29255,27346.7L29249.4,27346.7L29249.4,27360.1C29249.4,27367.4 29253.2,27371.9 29259.7,27371.9C29266.2,27371.9 29270.1,27367.4 29270.1,27360.1L29270.1,27346.7L29264.4,27346.7L29264.4,27360.4Z" style="fill:rgb(87,94,181);fill-rule:nonzero;"/>
                <path d="M29276.7,27362.1C29276.7,27368 29279.3,27371.4 29284.9,27371.4C29286.7,27371.4 29288,27371.1 29289.1,27370.6L29289.1,27365.3C29288.4,27365.6 29287.4,27365.8 29285.9,27365.8C29283.7,27365.8 29282.3,27364.8 29282.3,27362.1L29282.3,27352.2L29289.1,27352.2L29289.1,27346.7L29282.3,27346.7L29282.3,27340.6L29276.7,27340.6L29276.7,27346.7L29272.6,27346.7L29272.6,27352.2L29276.7,27352.2L29276.7,27362.1Z" style="fill:rgb(87,94,181);fill-rule:nonzero;"/>
                <path d="M29292.8,27370.9L29298.4,27370.9L29298.4,27355.4C29299.2,27353.8 29301,27352.2 29303.7,27352.2C29304.7,27352.2 29305.5,27352.4 29306.2,27352.5L29306.2,27346.5C29305.6,27346.3 29305,27346.2 29304.2,27346.2C29301.7,27346.2 29299.8,27347.5 29298.4,27349.1L29298.4,27346.7L29292.8,27346.7L29292.8,27370.9Z" style="fill:rgb(87,94,181);fill-rule:nonzero;"/>
                <path d="M29328.8,27367L29324.8,27363.5C29323.6,27365.2 29321.5,27366.4 29319.1,27366.4C29315.6,27366.4 29313.1,27364.6 29312.5,27360L29328,27360C29328.2,27359.2 29328.4,27358 29328.4,27356.6C29328.4,27350.3 29324.3,27345.7 29318.2,27345.7C29310.9,27345.7 29306.8,27351.6 29306.8,27358.8C29306.8,27365.9 29311.3,27371.9 29319.1,27371.9C29323.3,27371.9 29326.7,27370 29328.8,27367ZM29318.1,27350.7C29321.2,27350.7 29322.8,27353.2 29322.9,27355.6L29312.7,27355.6C29313.3,27352.4 29315.2,27350.7 29318.1,27350.7Z" style="fill:rgb(87,94,181);fill-rule:nonzero;"/>
                <path d="M29330.3,27367.4C29332.4,27370.1 29335.2,27371.9 29339.2,27371.9C29343.3,27371.9 29347.1,27369.1 29347.2,27364C29347.2,27355.6 29336.6,27357.1 29336.6,27352.9C29336.6,27351.7 29337.4,27350.6 29339.2,27350.6C29340.9,27350.6 29342.3,27351.9 29343.5,27353.4L29347.2,27349.9C29345.6,27347.5 29342.5,27345.7 29339.1,27345.7C29334.5,27345.7 29331.2,27348.9 29331.2,27353.2C29331.2,27361.7 29341.8,27360.1 29341.8,27364.4C29341.8,27365.8 29340.9,27367 29339.1,27367C29337,27367 29335.3,27365.6 29334,27363.7L29330.3,27367.4Z" style="fill:rgb(87,94,181);fill-rule:nonzero;"/>
            </g>
            <g transform="matrix(0.525335,0,0,1.012,-21429.6,-32183.9)">
                <g transform="matrix(1.18972,-0,-0,1.18972,40792.2,31802.3)">
                    <path d="M410.396,900.089C410.396,892.5 404.234,886.339 396.646,886.339C389.057,886.339 382.896,892.5 382.896,900.089C382.896,907.678 389.057,913.839 396.646,913.839C404.234,913.839 410.396,907.678 410.396,900.089Z" style="fill:rgb(87,94,181);"/>
                    <path d="M485.925,987.253L499.675,1001L485.925,1014.75" style="fill:none;stroke:rgb(87,94,181);stroke-width:4.17px;"/>
                    <path d="M396.646,908.339L396.646,964.014C396.646,964.014 394.19,1001 443.85,1001L499.675,1001" style="fill:none;stroke:rgb(87,94,181);stroke-width:4.17px;stroke-linejoin:round;stroke-miterlimit:1.5;"/>
                </g>
            </g>
        </g>
    </g>
</svg>
