<?xml version="1.0" encoding="UTF-8" standalone="no"?>
<!DOCTYPE svg PUBLIC "-//W3C//DTD SVG 1.1//EN" "http://www.w3.org/Graphics/SVG/1.1/DTD/svg11.dtd">
<svg width="100%" height="100%" viewBox="0 0 2081 1127" version="1.1" xmlns="http://www.w3.org/2000/svg" xmlns:xlink="http://www.w3.org/1999/xlink" xml:space="preserve" xmlns:serif="http://www.serif.com/" style="fill-rule:evenodd;clip-rule:evenodd;stroke-linecap:round;stroke-miterlimit:10;">
    <g transform="matrix(1,0,0,1,-39152.4,-32532.7)">
        <g id="schéma-Desktop" serif:id="schéma Desktop" transform="matrix(0.786173,0,0,0.464432,38089.9,32586.9)">
            <rect x="1351.55" y="-116.79" width="2646.3" height="2425.19" style="fill:none;"/>
            <g transform="matrix(1.17241,0,0,2.01807,-32348,-53081.1)">
                <g transform="matrix(51.8576,0,0,51.8576,29501.2,27325.7)">
                </g>
                <text x="29264.8px" y="27325.7px" style="font-family:'Marianne-Bold', 'Marianne';font-weight:700;font-size:51.858px;fill:rgb(87,94,181);">R<tspan x="29297.9px 29326.1px 29352.7px 29365.2px 29387.4px 29400.3px 29431.5px 29461.9px 29474.3px " y="27325.7px 27325.7px 27325.7px 27325.7px 27325.7px 27325.7px 27325.7px 27325.7px 27325.7px ">évision ?</tspan></text>
            </g>
            <g transform="matrix(1.17241,0,0,2.01807,-31722.3,-53081.1)">
                <g transform="matrix(51.8576,0,0,51.8576,29534.9,27325.7)">
                </g>
                <text x="29272px" y="27325.7px" style="font-family:'Marianne-Bold', 'Marianne';font-weight:700;font-size:51.858px;fill:rgb(87,94,181);">R<tspan x="29305.1px 29333.5px 29353.2px 29366.1px 29393.6px 29421.1px 29434px 29465.2px 29495.6px 29508px " y="27325.7px 27325.7px 27325.7px 27325.7px 27325.7px 27325.7px 27325.7px 27325.7px 27325.7px 27325.7px ">éflexion ?</tspan></text>
            </g>
            <g transform="matrix(1.17241,0,0,2.01807,-30978.5,-53081.1)">
                <g transform="matrix(51.8576,0,0,51.8576,29742.8,27325.7)">
                </g>
                <text x="29251.5px" y="27325.7px" style="font-family:'Marianne-Bold', 'Marianne';font-weight:700;font-size:51.858px;fill:rgb(87,94,181);">F<tspan x="29278.1px 29291px 29321.4px 29349.2px 29379.5px 29405.5px 29433.9px 29480px 29508.5px 29538.9px 29559.5px 29581.7px 29594.1px 29621.9px 29651.9px 29672.5px 29690.9px 29719.1px " y="27325.7px 27325.7px 27325.7px 27325.7px 27325.7px 27325.7px 27325.7px 27325.7px 27325.7px 27325.7px 27325.7px 27325.7px 27325.7px 27325.7px 27325.7px 27325.7px 27325.7px 27325.7px ">inancements autres</tspan></text>
            </g>
            <g transform="matrix(1.06915,0,0,1.80982,-40961.8,-57673.1)">
                <g transform="matrix(1.18972,-0,-0,1.18972,39576.7,31802.3)">
                    <path d="M1432.08,900.089C1432.08,892.5 1425.91,886.339 1418.33,886.339C1410.74,886.339 1404.58,892.5 1404.58,900.089C1404.58,907.678 1410.74,913.839 1418.33,913.839C1425.91,913.839 1432.08,907.678 1432.08,900.089Z" style="fill:rgb(87,94,181);"/>
                    <path d="M1507.61,987.253L1521.36,1001L1507.61,1014.75" style="fill:none;stroke:rgb(87,94,181);stroke-width:4.17px;"/>
                    <path d="M1418.33,908.339L1418.33,964.014C1418.33,964.014 1415.87,1001 1465.53,1001L1521.36,1001" style="fill:none;stroke:rgb(87,94,181);stroke-width:4.17px;stroke-linejoin:round;stroke-miterlimit:1.5;"/>
                </g>
            </g>
            <g transform="matrix(-1.06915,0,0,1.80982,47273.1,-57673.1)">
                <g transform="matrix(-1.18972,0,0,1.18972,42951.4,31802.3)">
                    <path d="M1274.22,1014.75L1260.47,1001L1274.22,987.253" style="fill:none;stroke:rgb(87,94,181);stroke-width:4.17px;"/>
                    <path d="M1416.2,892.334C1416.2,891.184 1417.14,890.251 1418.29,890.251C1419.44,890.251 1420.37,891.184 1420.37,892.334L1420.37,901.294C1420.37,902.444 1419.44,903.377 1418.29,903.377C1417.14,903.377 1416.2,902.444 1416.2,901.294L1416.2,892.334ZM1416.2,919.214C1416.2,918.064 1417.14,917.131 1418.29,917.131C1419.44,917.131 1420.37,918.064 1420.37,919.214L1420.37,937.134C1420.37,938.284 1419.44,939.218 1418.29,939.218C1417.14,939.218 1416.2,938.284 1416.2,937.134L1416.2,919.214ZM1407.34,986.862C1408.14,986.036 1409.46,986.014 1410.29,986.813C1411.11,987.612 1411.14,988.932 1410.34,989.759C1406.61,993.612 1401.51,997.124 1394.51,999.577C1393.42,999.957 1392.23,999.384 1391.85,998.299C1391.47,997.214 1392.05,996.024 1393.13,995.644C1399.41,993.444 1404,990.319 1407.34,986.862ZM1376.23,998.777C1377.38,998.711 1378.36,999.59 1378.43,1000.74C1378.49,1001.89 1377.62,1002.87 1376.47,1002.94C1374.74,1003.03 1372.95,1003.09 1371.08,1003.09L1358.52,1003.09C1357.37,1003.09 1356.44,1002.15 1356.44,1001C1356.44,999.853 1357.37,998.919 1358.52,998.919L1371.08,998.919C1372.87,998.919 1374.58,998.871 1376.23,998.777ZM1340.69,998.919C1341.85,998.919 1342.78,999.853 1342.78,1001C1342.78,1002.15 1341.85,1003.09 1340.69,1003.09L1322.87,1003.09C1321.72,1003.09 1320.78,1002.15 1320.78,1001C1320.78,999.853 1321.72,998.919 1322.87,998.919L1340.69,998.919ZM1305.04,998.919C1306.19,998.919 1307.12,999.853 1307.12,1001C1307.12,1002.15 1306.19,1003.09 1305.04,1003.09L1287.21,1003.09C1286.06,1003.09 1285.13,1002.15 1285.13,1001C1285.13,999.853 1286.06,998.919 1287.21,998.919L1305.04,998.919ZM1269.38,998.919C1270.53,998.919 1271.47,999.853 1271.47,1001C1271.47,1002.15 1270.53,1003.09 1269.38,1003.09L1260.47,1003.09C1259.32,1003.09 1258.39,1002.15 1258.39,1001C1258.39,999.853 1259.32,998.919 1260.47,998.919L1269.38,998.919Z" style="fill:rgb(87,94,181);"/>
                </g>
            </g>
            <g transform="matrix(-1.06915,0,0,1.80982,46605.7,-57673.1)">
                <g transform="matrix(-1.18972,0,0,1.18972,42327.3,31802.3)">
                    <path d="M907.412,900.089C907.412,892.5 901.251,886.339 893.662,886.339C886.073,886.339 879.912,892.5 879.912,900.089C879.912,907.678 886.073,913.839 893.662,913.839C901.251,913.839 907.412,907.678 907.412,900.089Z" style="fill:rgb(87,94,181);"/>
                    <path d="M749.595,1014.75L735.845,1001L749.595,987.253" style="fill:none;stroke:rgb(87,94,181);stroke-width:4.17px;"/>
                    <path d="M891.579,908.339C891.579,907.189 892.512,906.256 893.662,906.256C894.812,906.256 895.745,907.189 895.745,908.339L895.745,922.258C895.745,923.408 894.812,924.341 893.662,924.341C892.512,924.341 891.579,923.408 891.579,922.258L891.579,908.339ZM882.716,986.862C883.515,986.036 884.835,986.014 885.662,986.813C886.489,987.612 886.511,988.932 885.712,989.759C881.986,993.612 876.885,997.124 869.883,999.577C868.798,999.957 867.608,999.384 867.228,998.299C866.848,997.214 867.42,996.024 868.506,995.644C874.785,993.444 879.375,990.319 882.716,986.862ZM851.605,998.777C852.753,998.711 853.738,999.59 853.803,1000.74C853.869,1001.89 852.99,1002.87 851.842,1002.94C850.117,1003.03 848.323,1003.09 846.457,1003.09L833.898,1003.09C832.748,1003.09 831.815,1002.15 831.815,1001C831.815,999.853 832.748,998.919 833.898,998.919L846.457,998.919C848.241,998.919 849.956,998.871 851.605,998.777ZM816.07,998.919C817.22,998.919 818.154,999.853 818.154,1001C818.154,1002.15 817.22,1003.09 816.07,1003.09L798.242,1003.09C797.093,1003.09 796.159,1002.15 796.159,1001C796.159,999.853 797.093,998.919 798.242,998.919L816.07,998.919ZM780.415,998.919C781.564,998.919 782.498,999.853 782.498,1001C782.498,1002.15 781.564,1003.09 780.415,1003.09L762.587,1003.09C761.437,1003.09 760.503,1002.15 760.503,1001C760.503,999.853 761.437,998.919 762.587,998.919L780.415,998.919ZM744.759,998.919C745.908,998.919 746.842,999.853 746.842,1001C746.842,1002.15 745.908,1003.09 744.759,1003.09L735.845,1003.09C734.695,1003.09 733.761,1002.15 733.761,1001C733.761,999.853 734.695,998.919 735.845,998.919L744.759,998.919Z" style="fill:rgb(87,94,181);"/>
                </g>
            </g>
            <g transform="matrix(0.878956,0,0,1.80982,-32861.3,-57713)">
                <g transform="matrix(1.44715,-0,-0,1.18972,38924.4,31824.3)">
                    <path d="M305.841,936.489L319.787,895.305L333.34,936.62L305.841,936.489Z" style="fill:rgb(87,94,181);"/>
                    <path d="M464.046,1002.93C465.196,1002.93 466.129,1003.87 466.129,1005.02C466.129,1006.17 465.196,1007.1 464.046,1007.1L455.441,1007.1C454.291,1007.1 453.358,1006.17 453.358,1005.02C453.358,1003.87 454.291,1002.93 455.441,1002.93L464.046,1002.93ZM438.232,1002.93C439.382,1002.93 440.315,1003.87 440.315,1005.02C440.315,1006.17 439.382,1007.1 438.232,1007.1L421.022,1007.1C419.873,1007.1 418.939,1006.17 418.939,1005.02C418.939,1003.87 419.873,1002.93 421.022,1002.93L438.232,1002.93ZM403.813,1002.93C404.963,1002.93 405.897,1003.87 405.897,1005.02C405.897,1006.17 404.963,1007.1 403.813,1007.1L386.604,1007.1C385.454,1007.1 384.52,1006.17 384.52,1005.02C384.52,1003.87 385.454,1002.93 386.604,1002.93L403.813,1002.93ZM332.669,985.898C333.288,986.867 333.004,988.156 332.035,988.775C331.067,989.395 329.777,989.111 329.158,988.142C325.474,982.38 322.265,974.838 320.16,964.955C319.921,963.83 320.639,962.723 321.764,962.483C322.889,962.244 323.996,962.962 324.236,964.087C326.214,973.379 329.205,980.48 332.669,985.898ZM321.741,940.395C321.762,941.545 320.846,942.495 319.696,942.517C318.547,942.538 317.596,941.622 317.575,940.472C317.555,939.409 317.545,938.329 317.545,937.232C317.545,934.059 317.546,931.087 317.546,928.304C317.547,927.155 318.48,926.221 319.63,926.222C320.78,926.222 321.713,927.156 321.713,928.305C321.712,931.088 321.712,934.059 321.712,937.232C321.712,938.303 321.722,939.358 321.741,940.395Z" style="fill:rgb(87,94,181);"/>
                </g>
            </g>
            <g transform="matrix(3.52901,0,0,11.3865,1187.06,-26498)">
                <path d="M259.558,2418.29C256.917,2419.36 255.372,2421.02 255.372,2422.78C255.372,2433.21 255.372,2469.43 255.372,2469.43C255.372,2478.37 241.544,2485.62 224.513,2485.62L105.616,2485.62C88.585,2485.62 74.758,2478.37 74.758,2469.43L74.758,2344.68C74.758,2335.75 88.585,2328.49 105.616,2328.49L224.513,2328.49C241.544,2328.49 255.372,2335.75 255.372,2344.68C255.372,2344.68 255.372,2383.07 255.372,2392.65C255.372,2394.01 256.566,2395.29 258.607,2396.12C264.381,2398.46 276.426,2403.36 282.556,2405.85C283.457,2406.22 283.984,2406.78 283.985,2407.38C283.986,2407.98 283.459,2408.55 282.559,2408.91C276.75,2411.28 265.62,2415.82 259.558,2418.29Z" style="fill:none;stroke:rgb(87,94,181);stroke-width:0.99px;stroke-linejoin:round;stroke-miterlimit:1.5;"/>
            </g>
            <g transform="matrix(1.0199e-16,2.81949,-0.982544,1.01842e-16,36023,-109889)">
                <path d="M39345.8,33807.7C39350.8,33817.6 39358,33823.3 39365.7,33823.3L39549.6,33823.3C39585.6,33823.3 39614.9,33873 39614.9,33934.1L39614.9,34366.6C39614.9,34427.8 39585.6,34477.5 39549.6,34477.5L39353.7,34477.5C39351.5,34477.5 39349.3,34476 39347.7,34473.4C39346.2,34471.1 39344.9,34468.6 39343.6,34465.8L39308.2,34388.5C39305.7,34383 39301.8,34379.9 39297.8,34379.9C39293.7,34379.9 39289.9,34383.1 39287.4,34388.5C39287.4,34388.5 39257.4,34453.9 39248.6,34472.6C39246.7,34475.7 39244.2,34477.5 39241.6,34477.5C39204.1,34477.5 39045.8,34477.5 39045.8,34477.5C39009.7,34477.5 38980.4,34427.8 38980.4,34366.6L38980.4,33934.1C38980.4,33873 39009.7,33823.3 39045.8,33823.3L39225.9,33823.3C39239.3,33823.3 39252,33813.3 39260.6,33796.1L39291.7,33733.9C39293.8,33729.6 39297,33727.1 39300.3,33727.1C39303.6,33727.1 39306.8,33729.6 39308.9,33733.9L39345.8,33807.7ZM39343.4,33811.2L39306.5,33737.4C39305,33734.3 39302.7,33732.5 39300.3,33732.5C39297.9,33732.5 39295.7,33734.3 39294.1,33737.4L39263,33799.5C39253.8,33818 39240.2,33828.7 39225.9,33828.7L39045.8,33828.7C39011.4,33828.7 38983.6,33875.9 38983.6,33934.1L38983.6,34366.6C38983.6,34424.8 39011.4,34472.1 39045.8,34472.1C39045.8,34472.1 39204.1,34472.1 39241.6,34472.1C39243.3,34472.1 39245,34471 39246.2,34469C39255.2,34449.9 39284.9,34385.2 39284.9,34385.2C39288,34378.4 39292.7,34374.5 39297.8,34374.5C39302.8,34374.5 39307.6,34378.4 39310.7,34385.2L39346.1,34462.5C39347.3,34465 39348.5,34467.4 39349.9,34469.5C39350.9,34471.2 39352.3,34472.1 39353.7,34472.1L39549.6,34472.1C39583.9,34472.1 39611.8,34424.8 39611.8,34366.6L39611.8,33934.1C39611.8,33875.9 39583.9,33828.7 39549.6,33828.7L39365.7,33828.7C39357.1,33828.7 39348.9,33822.3 39343.4,33811.2Z" style="fill:rgb(87,94,181);"/>
            </g>
            <g transform="matrix(1.0199e-16,2.81949,-0.982544,1.01842e-16,36718.5,-109889)">
                <path d="M39345.8,33807.7C39350.8,33817.6 39358,33823.3 39365.7,33823.3L39549.6,33823.3C39585.6,33823.3 39614.9,33873 39614.9,33934.1L39614.9,34366.6C39614.9,34427.8 39585.6,34477.5 39549.6,34477.5L39357.6,34477.5C39355.3,34477.5 39353.2,34476 39351.5,34473.4C39350.1,34471.1 39348.7,34468.6 39347.5,34465.8L39309.4,34388.5C39306.9,34383 39301.8,34379.9 39297.8,34379.9C39293.7,34379.9 39289.9,34383.1 39287.4,34388.5C39287.4,34388.5 39254.8,34453.9 39246,34472.6C39244.2,34475.7 39241.7,34477.5 39239.1,34477.5C39201.5,34477.5 39045.8,34477.5 39045.8,34477.5C39009.7,34477.5 38980.4,34427.8 38980.4,34366.6L38980.4,33934.1C38980.4,33873 39009.7,33823.3 39045.8,33823.3L39225.9,33823.3C39239.3,33823.3 39252,33813.3 39260.6,33796.1L39291.7,33733.9C39293.8,33729.6 39297,33727.1 39300.3,33727.1C39303.6,33727.1 39306.8,33729.6 39308.9,33733.9L39345.8,33807.7ZM39343.4,33811.2L39306.5,33737.4C39305,33734.3 39302.7,33732.5 39300.3,33732.5C39297.9,33732.5 39295.7,33734.3 39294.1,33737.4L39263,33799.5C39253.8,33818 39240.2,33828.7 39225.9,33828.7L39045.8,33828.7C39011.4,33828.7 38983.6,33875.9 38983.6,33934.1L38983.6,34366.6C38983.6,34424.8 39011.4,34472.1 39045.8,34472.1C39045.8,34472.1 39201.5,34472.1 39239.1,34472.1C39240.8,34472.1 39242.4,34471 39243.7,34469C39252.4,34450.3 39283.6,34387.7 39284.9,34385.1C39288,34378.4 39292.7,34374.5 39297.8,34374.5C39302.7,34374.5 39308.9,34378.5 39311.9,34385.1L39349.9,34462.4C39349.9,34462.4 39349.9,34462.5 39350,34462.5C39351.1,34465 39352.4,34467.4 39353.7,34469.5C39354.8,34471.2 39356.1,34472.1 39357.6,34472.1L39549.6,34472.1C39583.9,34472.1 39611.8,34424.8 39611.8,34366.6L39611.8,33934.1C39611.8,33875.9 39583.9,33828.7 39549.6,33828.7L39365.7,33828.7C39357.1,33828.7 39348.9,33822.3 39343.4,33811.2Z" style="fill:rgb(87,94,181);"/>
            </g>
            <g transform="matrix(3.52901,0,0,11.2866,3273.21,-26265.4)">
                <path d="M76.364,2394.99C75.337,2394.44 74.762,2393.7 74.762,2392.93C74.758,2385.04 74.758,2344.83 74.758,2344.83C74.758,2335.81 88.585,2328.49 105.616,2328.49L149.772,2328.49C166.803,2328.49 180.631,2335.81 180.631,2344.83L180.631,2470.68C180.631,2479.69 166.803,2487.01 149.772,2487.01L105.616,2487.01C88.585,2487.01 74.758,2479.69 74.758,2470.68C74.758,2470.68 74.758,2429.3 74.758,2422.4C74.757,2421.71 75.272,2421.04 76.191,2420.55C76.764,2420.26 77.365,2419.97 78.004,2419.71L99.539,2410.37C101.052,2409.75 101.937,2408.79 101.936,2407.78C101.935,2406.76 101.048,2405.81 99.533,2405.19C99.533,2405.19 81.864,2397.44 76.364,2394.99Z" style="fill:rgb(87,94,181);"/>
            </g>
            <g transform="matrix(1.91257,0,0,3.29211,-54440.3,-89684.2)">
                <g transform="matrix(38.3834,0,0,38.3834,29490.4,27315.6)">
                </g>
                <text x="29291.7px" y="27315.6px" style="font-family:'Marianne-ExtraBold', 'Marianne';font-weight:800;font-size:38.383px;fill:rgb(67,75,172);">S<tspan x="29313.1px 29336px 29357.9px 29391.3px 29400.8px 29417.2px 29434px 29443.9px 29466.9px " y="27315.6px 27315.6px 27315.6px 27315.6px 27315.6px 27315.6px 27315.6px 27315.6px 27315.6px ">oumission</tspan></text>
            </g>
            <g transform="matrix(1.91257,0,0,3.29211,-53741.7,-89684.2)">
                <g transform="matrix(38.3834,0,0,38.3834,29483.7,27315.6)">
                </g>
                <text x="29298.3px" y="27315.6px" style="font-family:'Marianne-ExtraBold', 'Marianne';font-weight:800;font-size:38.383px;fill:rgb(67,75,172);">E<tspan x="29319.8px 29339.2px 29359.8px 29369.8px 29391.2px 29411.8px 29427.4px 29437.3px 29460.2px " y="27315.6px 27315.6px 27315.6px 27315.6px 27315.6px 27315.6px 27315.6px 27315.6px 27315.6px ">valuation</tspan></text>
            </g>
            <g transform="matrix(1.91257,0,0,3.29211,-53044.3,-89684.2)">
                <g transform="matrix(38.3834,0,0,38.3834,29482.1,27315.6)">
                </g>
                <text x="29296.7px" y="27315.6px" style="font-family:'Marianne-ExtraBold', 'Marianne';font-weight:800;font-size:38.383px;fill:rgb(67,75,172);">E<tspan x="29318.1px 29337.6px 29358.2px 29368.1px 29389.6px 29410.2px 29425.7px 29435.7px 29458.6px " y="27315.6px 27315.6px 27315.6px 27315.6px 27315.6px 27315.6px 27315.6px 27315.6px 27315.6px ">valuation</tspan></text>
            </g>
            <g transform="matrix(1.17111e-16,-3.23753,1.94482,2.01584e-16,-49408.4,96198.7)">
                <text x="29333.5px" y="27315.6px" style="font-family:'Marianne-Bold', 'Marianne';font-weight:700;font-size:38.383px;fill:white;">L<tspan x="29354.1px 29374.6px 29397.1px 29416.3px 29437.4px 29471.5px 29492.6px 29515.1px " y="27315.6px 27315.6px 27315.6px 27315.6px 27315.6px 27315.6px 27315.6px 27315.6px ">ancement</tspan></text>
                <g transform="matrix(38.3834,0,0,38.3834,29506.4,27356.8)">
                </g>
                <text x="29358.6px" y="27356.8px" style="font-family:'Marianne-Bold', 'Marianne';font-weight:700;font-size:38.383px;fill:white;">d<tspan x="29382.6px 29403.7px 29412.5px 29422.4px 29430.1px 29450.6px 29460.2px 29484.2px " y="27356.8px 27356.8px 27356.8px 27356.8px 27356.8px 27356.8px 27356.8px 27356.8px ">e l’aide</tspan></text>
            </g>
            <g transform="matrix(1.23516,0,0,2.12608,-34526.6,-57592.8)">
                <text x="29223px" y="27320.2px" style="font-family:'Marianne-Bold', 'Marianne';font-weight:700;font-size:44.576px;fill:rgb(67,75,172);">R<tspan x="29251px 29274.8px 29297.5px 29322.5px 29346.6px 29356.8px 29384.3px 29408.3px 29418.6px 29429.2px " y="27320.2px 27320.2px 27320.2px 27320.2px 27320.2px 27320.2px 27320.2px 27320.2px 27320.2px 27320.2px ">evue de la</tspan></text>
                <text x="29223px" y="27384.6px" style="font-family:'Marianne-Bold', 'Marianne';font-weight:700;font-size:44.576px;fill:rgb(67,75,172);">p<tspan x="29250.5px 29265.8px 29292.2px 29319.9px 29345.5px 29364.1px 29374.8px 29392.1px 29402.7px 29429.1px " y="27384.6px 27384.6px 27384.6px 27384.6px 27384.6px 27384.6px 27384.6px 27384.6px 27384.6px 27384.6px ">roposition</tspan></text>
                <text x="29223px" y="27499px" style="font-family:'Marianne-Regular', 'Marianne';font-size:44.576px;fill:rgb(67,75,172);">L<tspan x="29245.6px 29269.3px 29280px 29308.1px 29323.1px 29350.3px 29378.6px 29405.1px 29423.6px 29434px 29451.4px 29461.9px 29489.1px " y="27499px 27499px 27499px 27499px 27499px 27499px 27499px 27499px 27499px 27499px 27499px 27499px 27499px ">a proposition</tspan></text>
                <text x="29223px" y="27563.4px" style="font-family:'Marianne-Regular', 'Marianne';font-size:44.576px;fill:rgb(67,75,172);">e<tspan x="29247.4px 29266px 29281.9px 29295.3px 29319.9px 29330.3px 29340.8px 29365.4px 29376.1px 29400.6px 29411.1px 29421.6px 29444.8px 29455.2px 29483.4px 29493.9px " y="27563.4px 27563.4px 27563.4px 27563.4px 27563.4px 27563.4px 27563.4px 27563.4px 27563.4px 27563.4px 27563.4px 27563.4px 27563.4px 27563.4px 27563.4px 27563.4px ">st-elle éligible</tspan></text>
                <text x="29223px" y="27627.8px" style="font-family:'Marianne-Regular', 'Marianne';font-size:44.576px;fill:rgb(67,75,172);">e<tspan x="29247.4px 29264.8px 29275.5px 29303.6px 29328.1px 29338.8px 29366.9px 29392px 29415.8px 29426.2px 29436.7px 29453.6px " y="27627.8px 27627.8px 27627.8px 27627.8px 27627.8px 27627.8px 27627.8px 27627.8px 27627.8px 27627.8px 27627.8px 27627.8px ">t de qualité</tspan></text>
                <g transform="matrix(44.5759,0,0,44.5759,29453.8,27692.2)">
                </g>
                <text x="29223px" y="27692.2px" style="font-family:'Marianne-Regular', 'Marianne';font-size:44.576px;fill:rgb(67,75,172);">s<tspan x="29241.4px 29267.2px 29284px 29300.3px 29310.6px 29328.9px 29352.6px 29378.9px 29395.9px 29420.4px 29431.1px " y="27692.2px 27692.2px 27692.2px 27692.2px 27692.2px 27692.2px 27692.2px 27692.2px 27692.2px 27692.2px 27692.2px ">uffisante ?</tspan></text>
            </g>
            <g transform="matrix(1.23516,0,0,2.12608,-33817.1,-57592.8)">
                <text x="29223px" y="27320.2px" style="font-family:'Marianne-Bold', 'Marianne';font-weight:700;font-size:44.576px;fill:rgb(67,75,172);">D<tspan x="29256.6px 29267px 29285.5px 29308.2px 29333px 29351.3px 29369.9px 29380.5px 29406.9px " y="27320.2px 27320.2px 27320.2px 27320.2px 27320.2px 27320.2px 27320.2px 27320.2px 27320.2px ">iscussion</tspan></text>
                <text x="29223px" y="27384.6px" style="font-family:'Marianne-Bold', 'Marianne';font-weight:700;font-size:44.576px;fill:rgb(67,75,172);">a<tspan x="29246.2px 29268.3px 29292.1px 29314.9px 29325.1px 29335.8px 29359.5px 29378.1px 29388.3px 29415.8px 29431.2px 29457.5px 29468.1px 29492.1px 29509.4px " y="27384.6px 27384.6px 27384.6px 27384.6px 27384.6px 27384.6px 27384.6px 27384.6px 27384.6px 27384.6px 27384.6px 27384.6px 27384.6px 27384.6px 27384.6px ">vec les projets</tspan></text>
                <text x="29223px" y="27499px" style="font-family:'Marianne-Regular', 'Marianne';font-size:44.576px;fill:rgb(67,75,172);">C<tspan x="29255.4px 29265.9px 29289.6px 29306px 29316.4px 29332.7px 29343.1px 29366.5px 29390.2px 29407.6px 29418px 29445.2px " y="27499px 27499px 27499px 27499px 27499px 27499px 27499px 27499px 27499px 27499px 27499px 27499px ">larification</tspan></text>
                <text x="29223px" y="27563.4px" style="font-family:'Marianne-Regular', 'Marianne';font-size:44.576px;fill:rgb(67,75,172);">d<tspan x="29251px 29275.4px 29293.8px 29304.5px 29328.3px 29345.8px 29362.8px 29387.3px 29413.7px 29430.6px 29455px 29473.4px 29484.1px 29508.5px " y="27563.4px 27563.4px 27563.4px 27563.4px 27563.4px 27563.4px 27563.4px 27563.4px 27563.4px 27563.4px 27563.4px 27563.4px 27563.4px 27563.4px ">es attentes et</tspan></text>
                <text x="29223px" y="27627.8px" style="font-family:'Marianne-Regular', 'Marianne';font-size:44.576px;fill:rgb(67,75,172);">a<tspan x="29246.7px 29287.5px 29312.1px 29322.5px 29333px 29360.2px 29375.6px 29399.3px 29416.7px 29427.2px 29454.4px 29480.7px " y="27627.8px 27627.8px 27627.8px 27627.8px 27627.8px 27627.8px 27627.8px 27627.8px 27627.8px 27627.8px 27627.8px 27627.8px ">méliorations</tspan></text>
                <g transform="matrix(44.5759,0,0,44.5759,29531,27692.2)">
                </g>
                <text x="29223px" y="27692.2px" style="font-family:'Marianne-Regular', 'Marianne';font-size:44.576px;fill:rgb(67,75,172);">d<tspan x="29251px 29276.6px 29287.3px 29315.4px 29330.4px 29357.4px 29367.8px 29392.3px 29409.6px 29420.3px 29430.8px 29457.2px 29467.6px 29485px 29495.5px 29519.2px " y="27692.2px 27692.2px 27692.2px 27692.2px 27692.2px 27692.2px 27692.2px 27692.2px 27692.2px 27692.2px 27692.2px 27692.2px 27692.2px 27692.2px 27692.2px 27692.2px ">u projet initial</tspan></text>
            </g>
            <g transform="matrix(1.23516,0,0,2.12608,-33125.2,-57592.8)">
                <text x="29223px" y="27320.2px" style="font-family:'Marianne-Bold', 'Marianne';font-weight:700;font-size:44.576px;fill:rgb(67,75,172);">V<tspan x="29251.8px 29275.2px 29285.9px 29296.5px 29324px 29347.4px 29364.7px 29375.3px 29401.7px 29427.4px 29437.6px 29449.6px 29471.4px 29497.8px 29537px 29547.7px 29564.5px " y="27320.2px 27320.2px 27320.2px 27320.2px 27320.2px 27320.2px 27320.2px 27320.2px 27320.2px 27320.2px 27320.2px 27320.2px 27320.2px 27320.2px 27320.2px 27320.2px 27320.2px ">alidation (comité</tspan></text>
                <text x="29223px" y="27384.6px" style="font-family:'Marianne-Bold', 'Marianne';font-weight:700;font-size:44.576px;fill:rgb(67,75,172);">d<tspan x="29250.5px 29274.5px 29284.7px 29303.2px 29327.3px 29337.9px 29361.8px 29384.7px 29402px 29412.7px 29439.1px " y="27384.6px 27384.6px 27384.6px 27384.6px 27384.6px 27384.6px 27384.6px 27384.6px 27384.6px 27384.6px 27384.6px ">e sélection</tspan></text>
                <text x="29223px" y="27449px" style="font-family:'Marianne-Bold', 'Marianne';font-weight:700;font-size:44.576px;fill:rgb(67,75,172);">d<tspan x="29250.5px 29274.5px 29284.7px 29295.4px 29318.8px 29329.1px 29362.7px 29376.4px 29412.2px 29443.1px 29481px " y="27449px 27449px 27449px 27449px 27449px 27449px 27449px 27449px 27449px 27449px 27449px ">e la DINUM)</tspan></text>
                <text x="29223px" y="27563.4px" style="font-family:'Marianne-Regular', 'Marianne';font-size:44.576px;fill:rgb(67,75,172);">S<tspan x="29247.6px 29273.2px 29289.6px 29300.3px 29310.7px 29334.4px 29345.1px 29373.3px 29397px 29415.1px " y="27563.4px 27563.4px 27563.4px 27563.4px 27563.4px 27563.4px 27563.4px 27563.4px 27563.4px 27563.4px ">ur la base</tspan></text>
                <text x="29223px" y="27627.8px" style="font-family:'Marianne-Regular', 'Marianne';font-size:44.576px;fill:rgb(67,75,172);">d<tspan x="29251px 29275.4px 29293.8px 29304.5px 29331.7px 29359.9px 29370.3px 29394.8px 29418.3px 29435.7px 29446.2px 29461.6px " y="27627.8px 27627.8px 27627.8px 27627.8px 27627.8px 27627.8px 27627.8px 27627.8px 27627.8px 27627.8px 27627.8px 27627.8px ">es objectifs</tspan></text>
                <text x="29223px" y="27692.2px" style="font-family:'Marianne-Regular', 'Marianne';font-size:44.576px;fill:rgb(67,75,172);">e<tspan x="29247.4px 29264.8px 29275.5px 29303.6px 29327.9px 29346.4px 29357px 29385.2px 29409.6px 29427.7px 29454.9px 29465.4px 29491.7px " y="27692.2px 27692.2px 27692.2px 27692.2px 27692.2px 27692.2px 27692.2px 27692.2px 27692.2px 27692.2px 27692.2px 27692.2px 27692.2px ">t des besoins</tspan></text>
                <g transform="matrix(44.5759,0,0,44.5759,29442.7,27756.5)">
                </g>
                <text x="29223px" y="27756.5px" style="font-family:'Marianne-Regular', 'Marianne';font-size:44.576px;fill:rgb(67,75,172);">p<tspan x="29251.1px 29267.5px 29277.9px 29305.1px 29321.5px 29332px 29349.3px 29373.1px 29383.5px 29398.5px 29422.9px " y="27756.5px 27756.5px 27756.5px 27756.5px 27756.5px 27756.5px 27756.5px 27756.5px 27756.5px 27756.5px 27756.5px ">rioritaires</tspan></text>
            </g>
            <g transform="matrix(1.18128,0,0,2.03226,-299.264,274.229)">
                <g transform="matrix(1.51345,0,0,0.378904,1413,-246.874)">
                    <path d="M373.526,2439.73C373.526,2501.12 360.844,2550.96 345.224,2550.96L103.06,2550.96C87.439,2550.96 74.758,2501.12 74.758,2439.73C74.758,2378.34 87.439,2328.49 103.06,2328.49L345.224,2328.49C360.844,2328.49 373.526,2378.34 373.526,2439.73Z" style="fill:rgb(87,94,181);"/>
                </g>
                <g transform="matrix(1.19838,0,0,1.19902,-33489.4,-32065.8)">
                    <g transform="matrix(43.3257,0,0,43.3257,29482.6,27319.3)">
                    </g>
                    <text x="29336.7px" y="27319.3px" style="font-family:'Marianne-Bold', 'Marianne';font-weight:700;font-size:43.326px;fill:white;">E<tspan x="29360.6px 29377.9px 29401px 29428.4px 29452.2px 29462.6px " y="27319.3px 27319.3px 27319.3px 27319.3px 27319.3px 27319.3px ">tape 1</tspan></text>
                </g>
            </g>
            <g transform="matrix(1.16377,0,0,2.03226,432.596,274.229)">
                <g transform="matrix(1.51345,0,0,0.378904,1413,-246.874)">
                    <path d="M373.526,2439.73C373.526,2501.12 360.654,2550.96 344.798,2550.96L103.485,2550.96C87.63,2550.96 74.758,2501.12 74.758,2439.73C74.758,2378.34 87.63,2328.49 103.485,2328.49L344.798,2328.49C360.654,2328.49 373.526,2378.34 373.526,2439.73Z" style="fill:rgb(87,94,181);"/>
                </g>
                <g transform="matrix(1.21641,0,0,1.19902,-34016.3,-32065.8)">
                    <g transform="matrix(43.3257,0,0,43.3257,29482.8,27319.3)">
                    </g>
                    <text x="29331px" y="27319.3px" style="font-family:'Marianne-Bold', 'Marianne';font-weight:700;font-size:43.326px;fill:white;">E<tspan x="29354.9px 29372.1px 29395.3px 29422.6px 29446.4px 29456.8px " y="27319.3px 27319.3px 27319.3px 27319.3px 27319.3px 27319.3px ">tape 2</tspan></text>
                </g>
            </g>
            <g transform="matrix(1.14447,0,0,2.03226,1162.4,274.229)">
                <g transform="matrix(1.51345,0,0,0.378904,1413,-246.874)">
                    <path d="M373.526,2439.73C373.526,2501.12 360.436,2550.96 344.314,2550.96L103.97,2550.96C87.847,2550.96 74.758,2501.12 74.758,2439.73C74.758,2378.34 87.847,2328.49 103.97,2328.49L344.314,2328.49C360.436,2328.49 373.526,2378.34 373.526,2439.73Z" style="fill:rgb(87,94,181);"/>
                </g>
                <g transform="matrix(1.23693,0,0,1.19902,-34615.9,-32065.8)">
                    <g transform="matrix(43.3257,0,0,43.3257,29479.7,27319.3)">
                    </g>
                    <text x="29327.9px" y="27319.3px" style="font-family:'Marianne-Bold', 'Marianne';font-weight:700;font-size:43.326px;fill:white;">E<tspan x="29351.8px 29369px 29392.2px 29419.6px 29443.4px 29453.7px " y="27319.3px 27319.3px 27319.3px 27319.3px 27319.3px 27319.3px ">tape 3</tspan></text>
                </g>
            </g>
        </g>
    </g>
</svg>
