<?xml version="1.0" encoding="UTF-8" standalone="no"?>
<!DOCTYPE svg PUBLIC "-//W3C//DTD SVG 1.1//EN" "http://www.w3.org/Graphics/SVG/1.1/DTD/svg11.dtd">
<svg width="100%" height="100%" viewBox="0 0 800 1092" version="1.1" xmlns="http://www.w3.org/2000/svg" xmlns:xlink="http://www.w3.org/1999/xlink" xml:space="preserve" xmlns:serif="http://www.serif.com/" style="fill-rule:evenodd;clip-rule:evenodd;stroke-linecap:round;stroke-linejoin:round;stroke-miterlimit:1.5;">
    <g transform="matrix(1,0,0,1,-19641.5,-42588.8)">
        <g id="schéma-1--vectorisé-" serif:id="schéma 1 (vectorisé)" transform="matrix(1.6,0,0,0.830569,19641.5,42588.8)">
            <rect x="0" y="0" width="500" height="1313.92" style="fill:none;"/>
            <g transform="matrix(1.47734,0,0,4.81184,-81.1341,-11008.8)">
                <path d="M373.526,2346.74L373.526,2532.71C373.526,2542.78 359.699,2550.96 342.667,2550.96L105.616,2550.96C88.585,2550.96 74.758,2542.78 74.758,2532.71L74.758,2346.74C74.758,2336.67 88.585,2328.49 105.616,2328.49L342.667,2328.49C359.699,2328.49 373.526,2336.67 373.526,2346.74Z" style="fill:none;stroke:rgb(87,94,181);stroke-width:0.63px;"/>
            </g>
            <g transform="matrix(1.47734,0,0,0.579916,-81.1341,-1307.87)">
                <path d="M373.526,2439.73C373.526,2501.12 363.37,2550.96 350.86,2550.96L97.423,2550.96C84.914,2550.96 74.758,2501.12 74.758,2439.73C74.758,2378.34 84.914,2328.49 97.423,2328.49L350.86,2328.49C363.37,2328.49 373.526,2378.34 373.526,2439.73Z" style="fill:rgb(87,94,181);"/>
            </g>
            <g transform="matrix(0.842835,0,0,0.597491,-24512.1,-16221.7)">
                <path d="M29226.8,27362.4L29231.9,27362.4L29231.9,27311.8L29237.6,27338.2L29241.3,27338.2L29247,27311.8L29247,27362.4L29252.1,27362.4L29252.1,27291.8L29245.7,27291.8L29239.5,27321.5L29233.2,27291.8L29226.8,27291.8L29226.8,27362.4Z" style="fill:white;fill-rule:nonzero;"/>
                <path d="M29255.3,27362.4L29260.8,27362.4L29263.3,27344L29273.5,27344L29275.9,27362.4L29281.4,27362.4L29271.8,27291.8L29265,27291.8L29255.3,27362.4ZM29264.9,27331.8L29268.4,27305.3L29271.9,27331.8L29264.9,27331.8Z" style="fill:white;fill-rule:nonzero;"/>
                <path d="M29284.6,27362.4L29289.8,27362.4L29289.8,27333.8L29292.5,27333.8L29299.3,27362.4L29305.4,27362.4L29297.4,27331.1C29300,27327.8 29301.5,27321.5 29301.5,27312.9C29301.5,27299.8 29298,27291.8 29292.4,27291.8L29284.6,27291.8L29284.6,27362.4ZM29292.7,27303.7C29294.9,27303.7 29296.2,27307.3 29296.2,27312.7C29296.2,27318.4 29294.9,27322 29292.7,27322L29289.8,27322L29289.8,27303.7L29292.7,27303.7Z" style="fill:white;fill-rule:nonzero;"/>
                <path d="M29305.6,27352.6C29307.8,27360 29310.7,27364.4 29315,27364.4C29319.7,27364.4 29323.4,27356.4 29323.5,27343.1C29323.5,27318.9 29311.9,27322.6 29311.9,27309.8C29311.9,27305.5 29313.1,27302.3 29314.9,27302.3C29316.9,27302.3 29318.5,27305.8 29320,27311.2L29323.8,27301.7C29321.6,27294.5 29318.7,27289.8 29314.9,27289.8C29310,27289.8 29306.7,27299.1 29306.7,27310.3C29306.7,27334.1 29318.2,27330.6 29318.2,27343.6C29318.2,27348.7 29317,27351.7 29315,27351.7C29312.9,27351.7 29310.8,27348.5 29309.3,27343L29305.6,27352.6Z" style="fill:white;fill-rule:nonzero;"/>
                <path d="M29335.3,27362.4L29353,27362.4L29353,27350.1L29341.3,27350.1L29347.5,27333.6C29350,27326.9 29352.3,27319.4 29352.3,27309.8C29352.3,27297.7 29348.7,27289.8 29344.3,27289.8C29339.8,27289.8 29336.7,27295.9 29334.5,27305.5L29338.5,27312.3C29339.9,27306 29341.4,27301.9 29343.8,27301.9C29345.8,27301.9 29347.3,27305.3 29347.3,27311.2C29347.3,27316.9 29346,27320.7 29344.1,27326.3L29335.3,27350.1L29335.3,27362.4Z" style="fill:white;fill-rule:nonzero;"/>
                <path d="M29364.9,27289.8C29358.2,27289.8 29355.1,27305.9 29355.1,27327.1C29355.1,27348.3 29358.2,27364.4 29364.9,27364.4C29371.6,27364.4 29374.8,27348.3 29374.8,27327.1C29374.8,27305.9 29371.6,27289.8 29364.9,27289.8ZM29364.9,27302.4C29368.1,27302.4 29369.7,27312.2 29369.7,27327.1C29369.7,27341.9 29368.1,27351.8 29364.9,27351.8C29361.7,27351.8 29360.1,27342 29360.1,27327.1C29360.1,27312.3 29361.7,27302.4 29364.9,27302.4Z" style="fill:white;fill-rule:nonzero;"/>
                <path d="M29376.8,27362.4L29394.5,27362.4L29394.5,27350.1L29382.8,27350.1L29389,27333.6C29391.5,27326.9 29393.8,27319.4 29393.8,27309.8C29393.8,27297.7 29390.2,27289.8 29385.8,27289.8C29381.3,27289.8 29378.2,27295.9 29376,27305.5L29380,27312.3C29381.4,27306 29382.9,27301.9 29385.3,27301.9C29387.3,27301.9 29388.8,27305.3 29388.8,27311.2C29388.8,27316.9 29387.5,27320.7 29385.6,27326.3L29376.8,27350.1L29376.8,27362.4Z" style="fill:white;fill-rule:nonzero;"/>
                <path d="M29395,27343.6L29406.7,27343.6L29406.7,27362.4L29411.7,27362.4L29411.7,27343.6L29414.3,27343.6L29414.3,27331.3L29411.7,27331.3L29411.7,27291.8L29405.9,27291.8L29395,27331.3L29395,27343.6ZM29400,27331.3L29406.7,27307.2L29406.7,27331.3L29400,27331.3Z" style="fill:white;fill-rule:nonzero;"/>
            </g>
            <g transform="matrix(0.949839,0,0,1.39153,-27639.1,-37691.7)">
                <path d="M29236.4,27288.1C29229.3,27288.1 29224.4,27295.4 29224.4,27304.1C29224.4,27312.7 29229.3,27320.1 29236.4,27320.1C29243.6,27320.1 29248.4,27312.7 29248.4,27304.1C29248.4,27295.4 29243.6,27288.1 29236.4,27288.1ZM29236.4,27314.4C29232.2,27314.4 29229.1,27309.9 29229.1,27304.1C29229.1,27298.3 29232.2,27293.8 29236.4,27293.8C29240.7,27293.8 29243.7,27298.3 29243.7,27304.1C29243.7,27309.9 29240.7,27314.4 29236.4,27314.4Z" style="fill:rgb(67,75,172);fill-rule:nonzero;"/>
                <path d="M29262.1,27309.8C29262.1,27313 29260.8,27314.9 29258.6,27314.9C29256.3,27314.9 29255.1,27313 29255.1,27309.8L29255.1,27297.4L29251,27297.4L29251,27309.5C29251,27316.1 29253.8,27320.1 29258.6,27320.1C29263.4,27320.1 29266.2,27316.1 29266.2,27309.5L29266.2,27297.4L29262.1,27297.4L29262.1,27309.8Z" style="fill:rgb(67,75,172);fill-rule:nonzero;"/>
                <path d="M29267.7,27297.4L29273.6,27319.2L29279,27319.2L29285,27297.4L29280.6,27297.4L29276.4,27313L29272.1,27297.4L29267.7,27297.4Z" style="fill:rgb(67,75,172);fill-rule:nonzero;"/>
                <path d="M29301.4,27315.7L29298.5,27312.6C29297.6,27314.1 29296.1,27315.2 29294.3,27315.2C29291.7,27315.2 29289.9,27313.5 29289.5,27309.5L29300.9,27309.5C29301,27308.7 29301.1,27307.6 29301.1,27306.4C29301.1,27300.7 29298.2,27296.6 29293.6,27296.6C29288.3,27296.6 29285.3,27301.9 29285.3,27308.3C29285.3,27314.7 29288.5,27320.1 29294.3,27320.1C29297.4,27320.1 29299.9,27318.4 29301.4,27315.7ZM29293.5,27301.1C29295.8,27301.1 29297,27303.3 29297.1,27305.5L29289.6,27305.5C29290,27302.6 29291.4,27301.1 29293.5,27301.1Z" style="fill:rgb(67,75,172);fill-rule:nonzero;"/>
                <path d="M29304.2,27319.2L29308.3,27319.2L29308.3,27305.3C29308.9,27303.9 29310.2,27302.4 29312.2,27302.4C29313,27302.4 29313.5,27302.5 29314,27302.7L29314,27297.3C29313.6,27297.1 29313.1,27297 29312.6,27297C29310.8,27297 29309.4,27298.1 29308.3,27299.6L29308.3,27297.4L29304.2,27297.4L29304.2,27319.2Z" style="fill:rgb(67,75,172);fill-rule:nonzero;"/>
                <path d="M29318.5,27311.3C29318.5,27316.6 29320.4,27319.7 29324.5,27319.7C29325.8,27319.7 29326.8,27319.5 29327.6,27319L29327.6,27314.2C29327.1,27314.5 29326.3,27314.7 29325.2,27314.7C29323.6,27314.7 29322.6,27313.7 29322.6,27311.3L29322.6,27302.4L29327.6,27302.4L29327.6,27297.4L29322.6,27297.4L29322.6,27292L29318.5,27292L29318.5,27297.4L29315.4,27297.4L29315.4,27302.4L29318.5,27302.4L29318.5,27311.3Z" style="fill:rgb(67,75,172);fill-rule:nonzero;"/>
                <path d="M29341,27309.8C29341,27313 29339.8,27314.9 29337.5,27314.9C29335.3,27314.9 29334.1,27313 29334.1,27309.8L29334.1,27297.4L29329.9,27297.4L29329.9,27309.5C29329.9,27316.1 29332.7,27320.1 29337.5,27320.1C29342.3,27320.1 29345.1,27316.1 29345.1,27309.5L29345.1,27297.4L29341,27297.4L29341,27309.8Z" style="fill:rgb(67,75,172);fill-rule:nonzero;"/>
                <path d="M29348.7,27319.2L29352.8,27319.2L29352.8,27305.3C29353.5,27303.9 29354.8,27302.4 29356.8,27302.4C29357.5,27302.4 29358.1,27302.5 29358.6,27302.7L29358.6,27297.3C29358.2,27297.1 29357.7,27297 29357.2,27297C29355.3,27297 29353.9,27298.1 29352.8,27299.6L29352.8,27297.4L29348.7,27297.4L29348.7,27319.2Z" style="fill:rgb(67,75,172);fill-rule:nonzero;"/>
                <path d="M29375.2,27315.7L29372.3,27312.6C29371.4,27314.1 29369.9,27315.2 29368.1,27315.2C29365.5,27315.2 29363.7,27313.5 29363.3,27309.5L29374.7,27309.5C29374.8,27308.7 29374.9,27307.6 29374.9,27306.4C29374.9,27300.7 29372,27296.6 29367.4,27296.6C29362.1,27296.6 29359.1,27301.9 29359.1,27308.3C29359.1,27314.7 29362.3,27320.1 29368.1,27320.1C29371.2,27320.1 29373.7,27318.4 29375.2,27315.7ZM29367.3,27301.1C29369.6,27301.1 29370.8,27303.3 29370.9,27305.5L29363.4,27305.5C29363.8,27302.6 29365.2,27301.1 29367.3,27301.1Z" style="fill:rgb(67,75,172);fill-rule:nonzero;"/>
                <path d="M29384.6,27308.3C29384.6,27314.7 29387.7,27320.1 29392.9,27320.1C29395.1,27320.1 29396.7,27319.2 29397.9,27317.5L29397.9,27319.2L29402.1,27319.2L29402.1,27286.8L29397.9,27286.8L29397.9,27299.2C29396.7,27297.5 29395.1,27296.6 29392.9,27296.6C29387.7,27296.6 29384.6,27302 29384.6,27308.3ZM29388.9,27308.3C29388.9,27304.5 29390.7,27301.8 29393.5,27301.8C29395.3,27301.8 29396.8,27302.8 29397.9,27304.8L29397.9,27311.9C29396.8,27313.9 29395.3,27314.9 29393.5,27314.9C29390.7,27314.9 29388.9,27312.1 29388.9,27308.3Z" style="fill:rgb(67,75,172);fill-rule:nonzero;"/>
                <path d="M29416.8,27309.8C29416.8,27313 29415.5,27314.9 29413.3,27314.9C29411,27314.9 29409.8,27313 29409.8,27309.8L29409.8,27297.4L29405.7,27297.4L29405.7,27309.5C29405.7,27316.1 29408.5,27320.1 29413.3,27320.1C29418,27320.1 29420.9,27316.1 29420.9,27309.5L29420.9,27297.4L29416.8,27297.4L29416.8,27309.8Z" style="fill:rgb(67,75,172);fill-rule:nonzero;"/>
                <path d="M29226.2,27361.2C29226.2,27366.6 29228.1,27370.1 29232.5,27370.1C29234,27370.1 29235,27369.9 29235.9,27369.4L29235.9,27363.4C29235.4,27363.7 29234.7,27363.9 29233.5,27363.9C29232.1,27363.9 29231.4,27363 29231.4,27361.2L29231.4,27354L29235.9,27354L29235.9,27347.9L29231.4,27347.9L29231.4,27342.5L29226.2,27342.5L29226.2,27347.9L29223.2,27347.9L29223.2,27354L29226.2,27354L29226.2,27361.2Z" style="fill:rgb(67,75,172);fill-rule:nonzero;"/>
                <path d="M29253.3,27366.2L29249.7,27362.4C29248.9,27363.6 29247.6,27364.4 29246,27364.4C29244.1,27364.4 29242.6,27363.7 29242.2,27360.7L29252.7,27360.7C29252.9,27359.9 29253,27358.5 29253,27357.1C29253,27351.2 29250,27347 29245.4,27347C29239.8,27347 29236.9,27352.5 29236.9,27358.8C29236.9,27365.2 29240.1,27370.6 29246,27370.6C29249.2,27370.6 29251.7,27368.9 29253.3,27366.2ZM29245.2,27352.6C29247.1,27352.6 29248,27354.4 29248.1,27355.9L29242.2,27355.9C29242.6,27353.7 29243.6,27352.6 29245.2,27352.6Z" style="fill:rgb(67,75,172);fill-rule:nonzero;"/>
                <path d="M29255.6,27369.7L29260.7,27369.7L29260.7,27356.1C29261.1,27355.4 29261.7,27353.5 29263.3,27353.5C29264.8,27353.5 29265.5,27354.8 29265.5,27356.8L29265.5,27369.7L29270.7,27369.7L29270.7,27356C29271,27355.4 29271.6,27353.5 29273.3,27353.5C29274.7,27353.5 29275.5,27354.8 29275.5,27356.8L29275.5,27369.7L29280.6,27369.7L29280.6,27356.5C29280.6,27350.2 29277.9,27347 29274.6,27347C29272,27347 29270.5,27348.5 29269.4,27350.2C29268.3,27348.1 29266.6,27347 29264.7,27347C29263,27347 29261.7,27347.9 29260.7,27349L29260.7,27347.9L29255.6,27347.9L29255.6,27369.7Z" style="fill:rgb(67,75,172);fill-rule:nonzero;"/>
                <path d="M29283.7,27380.4L29288.9,27380.4L29288.9,27368.5C29290,27369.8 29291.4,27370.6 29293.4,27370.6C29298.6,27370.6 29301.6,27365.2 29301.6,27358.8C29301.6,27352.4 29298.6,27347 29293.4,27347C29291.4,27347 29290,27347.8 29288.9,27349.1L29288.9,27347.9L29283.7,27347.9L29283.7,27380.4ZM29292.6,27353.5C29294.9,27353.5 29296.3,27355.6 29296.3,27358.8C29296.3,27362 29294.9,27364.1 29292.6,27364.1C29291,27364.1 29289.8,27363.2 29288.9,27361.5L29288.9,27356.1C29289.8,27354.4 29291,27353.5 29292.6,27353.5Z" style="fill:rgb(67,75,172);fill-rule:nonzero;"/>
                <path d="M29302,27366.4C29303.6,27368.9 29305.7,27370.6 29308.8,27370.6C29312,27370.6 29315,27368.1 29315.1,27363.1C29315.1,27355.5 29307.5,27356.6 29307.5,27353.8C29307.5,27353.1 29307.9,27352.5 29308.8,27352.5C29310,27352.5 29311,27353.7 29311.8,27354.9L29315.1,27350.8C29313.9,27348.7 29311.4,27347 29308.8,27347C29305.3,27347 29302.6,27350 29302.6,27354.2C29302.6,27361.8 29310.2,27360.6 29310.2,27363.6C29310.2,27364.5 29309.7,27365.1 29308.8,27365.1C29307.3,27365.1 29306.2,27363.8 29305.4,27362.3L29302,27366.4Z" style="fill:rgb(67,75,172);fill-rule:nonzero;"/>
                <path d="M29324.6,27356.7L29324.6,27362.2L29326.7,27362.2L29325.2,27369.7L29329.8,27369.7L29331.3,27362.2L29334.8,27362.2L29333.3,27369.7L29337.8,27369.7L29339.4,27362.2L29344.7,27362.2L29344.7,27356.7L29340.5,27356.7L29341.4,27352.4L29344.7,27352.4L29344.7,27346.9L29342.5,27346.9L29344,27339.4L29339.5,27339.4L29338,27346.9L29334.5,27346.9L29336,27339.4L29331.4,27339.4L29329.9,27346.9L29324.6,27346.9L29324.6,27352.4L29328.8,27352.4L29327.9,27356.7L29324.6,27356.7ZM29332.4,27356.7L29333.3,27352.4L29336.8,27352.4L29335.9,27356.7L29332.4,27356.7Z" style="fill:rgb(67,75,172);fill-rule:nonzero;"/>
                <path d="M29359.4,27369.7L29364.9,27369.7L29364.9,27339.4L29359.7,27339.4L29353,27344.7L29355.7,27349.9L29359.4,27347L29359.4,27369.7Z" style="fill:rgb(67,75,172);fill-rule:nonzero;"/>
            </g>
            <g transform="matrix(1.25,0,0,2.40799,69.1182,78.0712)">
                <path d="M16,13L13,13C12.45,13 12,13.45 12,14L12,17C12,17.55 12.45,18 13,18L16,18C16.55,18 17,17.55 17,17L17,14C17,13.45 16.55,13 16,13ZM16,3L16,4L8,4L8,3C8,2.45 7.55,2 7,2C6.45,2 6,2.45 6,3L6,4L5,4C3.89,4 3.01,4.9 3.01,6L3,20C3,21.1 3.89,22 5,22L19,22C20.1,22 21,21.1 21,20L21,6C21,4.9 20.1,4 19,4L18,4L18,3C18,2.45 17.55,2 17,2C16.45,2 16,2.45 16,3ZM18,20L6,20C5.45,20 5,19.55 5,19L5,9L19,9L19,19C19,19.55 18.55,20 18,20Z" style="fill:white;fill-rule:nonzero;"/>
            </g>
            <g transform="matrix(1.11203,0,0,0.632565,-32378.7,-16768.3)">
                <path d="M29223.7,27296.5L29228.5,27296.5L29228.5,27340.3L29230.5,27340.3L29230.5,27296.5L29235.3,27296.5L29235.3,27290.4L29223.7,27290.4L29223.7,27296.5Z" style="fill:rgb(67,75,172);fill-rule:nonzero;"/>
                <path d="M29245,27334.4L29243.7,27330.9C29243,27334.1 29241.9,27336.3 29240.5,27336.3C29238.3,27336.3 29236.7,27331 29236.6,27322.4L29244.6,27322.4C29244.7,27321.4 29244.8,27320.1 29244.8,27318.6C29244.8,27309.8 29242.9,27302.9 29240.1,27302.9C29236.9,27302.9 29234.8,27311.4 29234.8,27322.3C29234.8,27332.8 29237,27341.8 29240.5,27341.8C29242.5,27341.8 29244,27338.9 29245,27334.4ZM29240,27308.1C29241.9,27308.1 29242.9,27312.5 29243,27317.8L29236.8,27317.8C29237.1,27311.6 29238.3,27308.1 29240,27308.1Z" style="fill:rgb(67,75,172);fill-rule:nonzero;"/>
                <path d="M29245.9,27335.4C29246.9,27339.5 29248.2,27341.8 29249.9,27341.8C29251.8,27341.8 29253.4,27337.5 29253.4,27330.8C29253.4,27318.6 29248.1,27321.1 29248.1,27313.1C29248.1,27310.3 29248.7,27308 29249.9,27308C29250.8,27308 29251.5,27309.7 29252.1,27312.4L29253.3,27308.8C29252.6,27305.4 29251.3,27302.9 29249.8,27302.9C29247.8,27302.9 29246.4,27307.6 29246.4,27313.2C29246.4,27325.9 29251.7,27323.1 29251.7,27331.1C29251.7,27334.3 29251,27336.7 29249.8,27336.7C29248.8,27336.7 29247.9,27334.9 29247.2,27331.8L29245.9,27335.4Z" style="fill:rgb(67,75,172);fill-rule:nonzero;"/>
                <path d="M29256.3,27328.3C29256.3,27337 29257.6,27341 29259.9,27341C29260.7,27341 29261.2,27340.8 29261.7,27340L29261.7,27334.6C29261.3,27335.2 29260.9,27335.5 29260.2,27335.5C29258.9,27335.5 29258.1,27333.9 29258.1,27328.3L29258.1,27309.8L29261.7,27309.8L29261.7,27304.4L29258.1,27304.4L29258.1,27295.4L29256.3,27295.4L29256.3,27304.4L29254.3,27304.4L29254.3,27309.8L29256.3,27309.8L29256.3,27328.3Z" style="fill:rgb(67,75,172);fill-rule:nonzero;"/>
            </g>
            <g transform="matrix(1.74792,0,0,3.42394,64.1286,267.429)">
                <path d="M11,6L9,6L9,4L11,4L11,6ZM15,4L13,4L13,6L15,6L15,4ZM9,14L11,14L11,12L9,12L9,14ZM19,10L19,8L17,8L17,10L19,10ZM19,14L19,12L17,12L17,14L19,14ZM13,14L15,14L15,12L13,12L13,14ZM19,4L17,4L17,6L19,6L19,4ZM13,8L13,6L11,6L11,8L13,8ZM7,10L7,8L9,8L9,6L7,6L7,5C7,4.45 6.55,4 6,4C5.45,4 5,4.45 5,5L5,17.066C5,17.616 5.45,18.066 6,18.066C6.55,18.066 7,17.616 7,17.066L7,12L9,12L9,10L7,10ZM15,12L17,12L17,10L15,10L15,12ZM11,10L11,12L13,12L13,10L11,10ZM9,8L9,10L11,10L11,8L9,8ZM13,10L15,10L15,8L13,8L13,10ZM15,6L15,8L17,8L17,6L15,6Z" style="fill:rgb(67,75,172);fill-rule:nonzero;"/>
            </g>
            <g transform="matrix(1.3493,0,0,2.76084,-51.5258,-5823.05)">
                <path d="M373.526,2351.47L373.526,2527.98C373.526,2540.66 362.59,2550.96 349.12,2550.96L99.163,2550.96C85.693,2550.96 74.758,2540.66 74.758,2527.98L74.758,2351.47C74.758,2338.79 85.693,2328.49 99.163,2328.49L349.12,2328.49C362.59,2328.49 373.526,2338.79 373.526,2351.47Z" style="fill:rgb(241,246,251);"/>
            </g>
            <g transform="matrix(1.72326e-17,-0.542143,0.310161,3.65858e-17,-8057.34,16849.8)">
                <path d="M29230.1,27330.9L29236.1,27330.9L29236.1,27312.8L29243.1,27312.8C29252.1,27312.8 29257.6,27308.4 29257.6,27301.3C29257.6,27294.3 29252.1,27289.7 29243.1,27289.7L29230.1,27289.7L29230.1,27330.9ZM29243.3,27294.4C29248.4,27294.4 29251.4,27297 29251.4,27301.2C29251.4,27305.6 29248.4,27308.1 29243.3,27308.1L29236.1,27308.1L29236.1,27294.4L29243.3,27294.4Z" style="fill:rgb(225,0,15);fill-rule:nonzero;"/>
                <path d="M29263,27330.9L29268.4,27330.9L29268.4,27310.5C29270.4,27307.5 29273.1,27305.5 29277.3,27305.5C29278.6,27305.5 29279.6,27305.7 29280.5,27305.9L29280.5,27301C29279.8,27300.8 29278.8,27300.7 29277.8,27300.7C29273.7,27300.7 29270.8,27302.4 29268.4,27305L29268.4,27301.2L29263,27301.2L29263,27330.9Z" style="fill:rgb(225,0,15);fill-rule:nonzero;"/>
                <path d="M29299.1,27300.1C29288.7,27300.1 29281.7,27307.4 29281.7,27316.1C29281.7,27324.7 29288.7,27332 29299.1,27332C29309.4,27332 29316.5,27324.7 29316.5,27316.1C29316.5,27307.4 29309.4,27300.1 29299.1,27300.1ZM29299.2,27327.3C29292.3,27327.3 29287.4,27322.2 29287.4,27316.1C29287.4,27309.9 29292.3,27304.8 29299.2,27304.8C29305.9,27304.8 29310.8,27309.9 29310.8,27316.1C29310.8,27322.2 29305.9,27327.3 29299.2,27327.3Z" style="fill:rgb(225,0,15);fill-rule:nonzero;"/>
                <path d="M29325.6,27293.6C29327.7,27293.6 29329.4,27292 29329.4,27290C29329.4,27288.1 29327.7,27286.6 29325.6,27286.6C29323.5,27286.6 29321.8,27288.1 29321.8,27290C29321.8,27292 29323.5,27293.6 29325.6,27293.6ZM29328.4,27334.8L29328.4,27301.2L29323,27301.2L29323,27334.8C29323,27339.6 29320.3,27341 29316.5,27341C29314.4,27341 29312.9,27340.7 29311.7,27340.3L29311.7,27344.7C29313.2,27345.3 29314.9,27345.6 29317.2,27345.6C29324.4,27345.6 29328.4,27342.3 29328.4,27334.8Z" style="fill:rgb(225,0,15);fill-rule:nonzero;"/>
                <path d="M29366.5,27326L29362.4,27323.1C29360.3,27325.8 29356.8,27327.5 29352.7,27327.5C29345.8,27327.5 29340.9,27323.2 29340.7,27316.1L29365.4,27316.1C29365.6,27315.3 29365.8,27314.2 29365.8,27313C29365.8,27305.7 29360.1,27300.1 29351.4,27300.1C29341.4,27300.1 29335.2,27307.1 29335.2,27316.1C29335.2,27324.7 29341.9,27332 29352.7,27332C29358.7,27332 29363.5,27329.7 29366.5,27326ZM29351.2,27304.3C29356.9,27304.3 29360.2,27308 29360.3,27312.3L29341.1,27312.3C29342.3,27307.2 29345.9,27304.3 29351.2,27304.3Z" style="fill:rgb(225,0,15);fill-rule:nonzero;"/>
                <path d="M29374.7,27320.9C29374.7,27328.2 29378.7,27331.5 29385.8,27331.5C29388.1,27331.5 29389.8,27331.2 29391.4,27330.6L29391.4,27326.2C29390.2,27326.6 29388.7,27326.9 29386.6,27326.9C29382.7,27326.9 29380.2,27325.6 29380.2,27320.9L29380.2,27305.8L29391.3,27305.8L29391.3,27301.2L29380.2,27301.2L29380.2,27293.8L29374.7,27293.8L29374.7,27301.2L29368.6,27301.2L29368.6,27305.8L29374.7,27305.8L29374.7,27320.9Z" style="fill:rgb(225,0,15);fill-rule:nonzero;"/>
                <path d="M29424.6,27315.7L29424.6,27319.9L29430,27319.9L29426.7,27330.9L29431.7,27330.9L29434.9,27319.9L29446.5,27319.9L29443.3,27330.9L29448.3,27330.9L29451.5,27319.9L29462.6,27319.9L29462.6,27315.7L29452.8,27315.7L29456,27304.9L29462.6,27304.9L29462.6,27300.7L29457.2,27300.7L29460.5,27289.7L29455.5,27289.7L29452.3,27300.7L29440.7,27300.7L29443.9,27289.7L29439,27289.7L29435.7,27300.7L29424.6,27300.7L29424.6,27304.9L29434.4,27304.9L29431.2,27315.7L29424.6,27315.7ZM29436.2,27315.7L29439.4,27304.9L29451,27304.9L29447.8,27315.7L29436.2,27315.7Z" style="fill:rgb(225,0,15);fill-rule:nonzero;"/>
                <path d="M29467.1,27330.9L29496.9,27330.9L29496.9,27326.1L29474.2,27326.1L29486.4,27314.7C29491.8,27309.5 29495.7,27305.3 29495.7,27299.7C29495.7,27293 29489.8,27288.6 29482.3,27288.6C29475.4,27288.6 29470.4,27291.6 29466.8,27296.8L29471.5,27299.5C29474.1,27295.5 29477.2,27293.3 29481.9,27293.3C29486.4,27293.3 29489.8,27295.8 29489.8,27300.1C29489.8,27304.4 29487.4,27306.7 29482.2,27311.8L29467.1,27326.1L29467.1,27330.9Z" style="fill:rgb(225,0,15);fill-rule:nonzero;"/>
            </g>
            <g transform="matrix(1.25,0,0,0.40979,54.8046,638.529)">
                <g transform="matrix(0.5,-0,-0,2.93807,-43.8437,-1558.18)">
                    <path d="M677.164,631.379L660.498,631.379" style="fill:none;stroke:rgb(226,7,22);stroke-width:4.17px;stroke-linejoin:miter;stroke-miterlimit:10;"/>
                    <path d="M668.831,631.379L668.831,690.526" style="fill:none;stroke:rgb(226,7,22);stroke-width:4.17px;"/>
                </g>
            </g>
            <g transform="matrix(1.25,0,0,0.497262,54.8046,880.031)">
                <g transform="matrix(0.5,-0,-0,2.42125,-43.8437,-1769.75)">
                    <path d="M675.081,916.105L668.831,922.355L662.581,916.105" style="fill:none;stroke:rgb(225,0,15);stroke-width:4.17px;stroke-linejoin:miter;stroke-miterlimit:10;"/>
                    <path d="M668.831,851.002L668.831,922.355" style="fill:none;stroke:rgb(225,0,15);stroke-width:4.17px;"/>
                </g>
            </g>
            <g transform="matrix(1.72326e-17,-0.542143,0.310161,3.65858e-17,-8108.41,16849.8)">
                <path d="M29230.1,27330.9L29236.1,27330.9L29236.1,27312.8L29243.1,27312.8C29252.1,27312.8 29257.6,27308.4 29257.6,27301.3C29257.6,27294.3 29252.1,27289.7 29243.1,27289.7L29230.1,27289.7L29230.1,27330.9ZM29243.3,27294.4C29248.4,27294.4 29251.4,27297 29251.4,27301.2C29251.4,27305.6 29248.4,27308.1 29243.3,27308.1L29236.1,27308.1L29236.1,27294.4L29243.3,27294.4Z" style="fill:rgb(67,75,172);fill-rule:nonzero;"/>
                <path d="M29263,27330.9L29268.4,27330.9L29268.4,27310.5C29270.4,27307.5 29273.1,27305.5 29277.3,27305.5C29278.6,27305.5 29279.6,27305.7 29280.5,27305.9L29280.5,27301C29279.8,27300.8 29278.8,27300.7 29277.8,27300.7C29273.7,27300.7 29270.8,27302.4 29268.4,27305L29268.4,27301.2L29263,27301.2L29263,27330.9Z" style="fill:rgb(67,75,172);fill-rule:nonzero;"/>
                <path d="M29299.1,27300.1C29288.7,27300.1 29281.7,27307.4 29281.7,27316.1C29281.7,27324.7 29288.7,27332 29299.1,27332C29309.4,27332 29316.5,27324.7 29316.5,27316.1C29316.5,27307.4 29309.4,27300.1 29299.1,27300.1ZM29299.2,27327.3C29292.3,27327.3 29287.4,27322.2 29287.4,27316.1C29287.4,27309.9 29292.3,27304.8 29299.2,27304.8C29305.9,27304.8 29310.8,27309.9 29310.8,27316.1C29310.8,27322.2 29305.9,27327.3 29299.2,27327.3Z" style="fill:rgb(67,75,172);fill-rule:nonzero;"/>
                <path d="M29325.6,27293.6C29327.7,27293.6 29329.4,27292 29329.4,27290C29329.4,27288.1 29327.7,27286.6 29325.6,27286.6C29323.5,27286.6 29321.8,27288.1 29321.8,27290C29321.8,27292 29323.5,27293.6 29325.6,27293.6ZM29328.4,27334.8L29328.4,27301.2L29323,27301.2L29323,27334.8C29323,27339.6 29320.3,27341 29316.5,27341C29314.4,27341 29312.9,27340.7 29311.7,27340.3L29311.7,27344.7C29313.2,27345.3 29314.9,27345.6 29317.2,27345.6C29324.4,27345.6 29328.4,27342.3 29328.4,27334.8Z" style="fill:rgb(67,75,172);fill-rule:nonzero;"/>
                <path d="M29366.5,27326L29362.4,27323.1C29360.3,27325.8 29356.8,27327.5 29352.7,27327.5C29345.8,27327.5 29340.9,27323.2 29340.7,27316.1L29365.4,27316.1C29365.6,27315.3 29365.8,27314.2 29365.8,27313C29365.8,27305.7 29360.1,27300.1 29351.4,27300.1C29341.4,27300.1 29335.2,27307.1 29335.2,27316.1C29335.2,27324.7 29341.9,27332 29352.7,27332C29358.7,27332 29363.5,27329.7 29366.5,27326ZM29351.2,27304.3C29356.9,27304.3 29360.2,27308 29360.3,27312.3L29341.1,27312.3C29342.3,27307.2 29345.9,27304.3 29351.2,27304.3Z" style="fill:rgb(67,75,172);fill-rule:nonzero;"/>
                <path d="M29374.7,27320.9C29374.7,27328.2 29378.7,27331.5 29385.8,27331.5C29388.1,27331.5 29389.8,27331.2 29391.4,27330.6L29391.4,27326.2C29390.2,27326.6 29388.7,27326.9 29386.6,27326.9C29382.7,27326.9 29380.2,27325.6 29380.2,27320.9L29380.2,27305.8L29391.3,27305.8L29391.3,27301.2L29380.2,27301.2L29380.2,27293.8L29374.7,27293.8L29374.7,27301.2L29368.6,27301.2L29368.6,27305.8L29374.7,27305.8L29374.7,27320.9Z" style="fill:rgb(67,75,172);fill-rule:nonzero;"/>
                <path d="M29424.6,27315.7L29424.6,27319.9L29430,27319.9L29426.7,27330.9L29431.7,27330.9L29434.9,27319.9L29446.5,27319.9L29443.3,27330.9L29448.3,27330.9L29451.5,27319.9L29462.6,27319.9L29462.6,27315.7L29452.8,27315.7L29456,27304.9L29462.6,27304.9L29462.6,27300.7L29457.2,27300.7L29460.5,27289.7L29455.5,27289.7L29452.3,27300.7L29440.7,27300.7L29443.9,27289.7L29439,27289.7L29435.7,27300.7L29424.6,27300.7L29424.6,27304.9L29434.4,27304.9L29431.2,27315.7L29424.6,27315.7ZM29436.2,27315.7L29439.4,27304.9L29451,27304.9L29447.8,27315.7L29436.2,27315.7Z" style="fill:rgb(67,75,172);fill-rule:nonzero;"/>
                <path d="M29477.9,27330.9L29483.5,27330.9L29483.5,27289.7L29477.8,27289.7L29463.2,27297.2L29466.1,27301L29477.9,27295.1L29477.9,27330.9Z" style="fill:rgb(67,75,172);fill-rule:nonzero;"/>
            </g>
            <g transform="matrix(1.25,0,0,0.40979,3.73687,638.529)">
                <g transform="matrix(0.5,-0,-0,2.93807,-2.98949,-1558.18)">
                    <path d="M595.456,631.379L578.789,631.379" style="fill:none;stroke:rgb(67,75,172);stroke-width:4.17px;stroke-linejoin:miter;stroke-miterlimit:10;"/>
                    <path d="M587.123,631.379L587.123,690.526" style="fill:none;stroke:rgb(67,75,172);stroke-width:4.17px;"/>
                </g>
            </g>
            <g transform="matrix(1.25,0,0,0.497262,3.73687,880.031)">
                <g transform="matrix(0.5,-0,-0,2.42125,-2.98949,-1769.75)">
                    <path d="M593.373,916.105L587.123,922.355L580.873,916.105" style="fill:none;stroke:rgb(87,94,181);stroke-width:4.17px;stroke-linejoin:miter;stroke-miterlimit:10;"/>
                    <path d="M587.123,851.002L587.123,922.355" style="fill:none;stroke:rgb(87,94,181);stroke-width:4.17px;"/>
                </g>
            </g>
            <g transform="matrix(1.97677,0,0,3.80804,343.23,665.772)">
                <path d="M12,12C14.21,12 16,10.21 16,8C16,5.79 14.21,4 12,4C9.79,4 8,5.79 8,8C8,10.21 9.79,12 12,12ZM12,14C9.33,14 4,15.34 4,18L4,19C4,19.55 4.45,20 5,20L19,20C19.55,20 20,19.55 20,19L20,18C20,15.34 14.67,14 12,14Z" style="fill:rgb(67,75,172);fill-rule:nonzero;"/>
            </g>
            <g transform="matrix(1.97677,0,0,3.80804,394.298,665.772)">
                <path d="M12,12C14.21,12 16,10.21 16,8C16,5.79 14.21,4 12,4C9.79,4 8,5.79 8,8C8,10.21 9.79,12 12,12ZM12,14C9.33,14 4,15.34 4,18L4,19C4,19.55 4.45,20 5,20L19,20C19.55,20 20,19.55 20,19L20,18C20,15.34 14.67,14 12,14Z" style="fill:rgb(226,7,22);fill-rule:nonzero;"/>
            </g>
            <g transform="matrix(0.611503,0,0,2.68782,-17751.9,-72472.2)">
                <path d="M29225.2,27297.8C29227.5,27299.1 29230.4,27299.7 29234.2,27299.7C29238.9,27299.7 29242.4,27298.4 29242.4,27296.4C29242.4,27292.5 29229.9,27293.1 29229.9,27290.4C29229.9,27289.4 29231.6,27288.7 29234.2,27288.7C29236.5,27288.7 29238.3,27289.3 29239.9,27290.3L29242.5,27289.2C29240.6,27288.1 29237.9,27287.3 29234.2,27287.3C29229.6,27287.3 29226.3,27288.7 29226.3,27290.5C29226.3,27294.4 29238.8,27293.8 29238.8,27296.4C29238.8,27297.5 29237.1,27298.3 29234.2,27298.3C29231.8,27298.3 29229.6,27297.7 29227.8,27296.7L29225.2,27297.8Z" style="fill:rgb(67,75,172);fill-rule:nonzero;"/>
                <path d="M29255.9,27290.6C29249.7,27290.6 29245.6,27292.7 29245.6,27295.2C29245.6,27297.6 29249.7,27299.7 29255.9,27299.7C29262,27299.7 29266.2,27297.6 29266.2,27295.2C29266.2,27292.7 29262,27290.6 29255.9,27290.6ZM29255.9,27298.4C29251.8,27298.4 29248.9,27296.9 29248.9,27295.2C29248.9,27293.4 29251.8,27291.9 29255.9,27291.9C29259.9,27291.9 29262.8,27293.4 29262.8,27295.2C29262.8,27296.9 29259.9,27298.4 29255.9,27298.4Z" style="fill:rgb(67,75,172);fill-rule:nonzero;"/>
                <path d="M29283.4,27295.8C29283.4,27297.4 29281.4,27298.4 29278.2,27298.4C29275,27298.4 29273,27297.4 29273,27295.8L29273,27290.9L29269.8,27290.9L29269.8,27295.7C29269.8,27298.2 29273.1,27299.7 29278.2,27299.7C29283.4,27299.7 29286.6,27298.2 29286.6,27295.7L29286.6,27290.9L29283.4,27290.9L29283.4,27295.8Z" style="fill:rgb(67,75,172);fill-rule:nonzero;"/>
                <path d="M29293.1,27296.6C29293.1,27298.6 29295.5,27299.6 29299.7,27299.6C29301,27299.6 29302,27299.5 29303,27299.3L29303,27298C29302.2,27298.2 29301.4,27298.2 29300.1,27298.2C29297.8,27298.2 29296.3,27297.9 29296.3,27296.6L29296.3,27292.2L29302.9,27292.2L29302.9,27290.9L29296.3,27290.9L29296.3,27288.8L29293.1,27288.8L29293.1,27290.9L29289.5,27290.9L29289.5,27292.2L29293.1,27292.2L29293.1,27296.6Z" style="fill:rgb(67,75,172);fill-rule:nonzero;"/>
                <path d="M29308.3,27288.7C29309.5,27288.7 29310.5,27288.3 29310.5,27287.7C29310.5,27287.2 29309.5,27286.7 29308.3,27286.7C29307.1,27286.7 29306,27287.2 29306,27287.7C29306,27288.3 29307.1,27288.7 29308.3,27288.7ZM29306.7,27299.4L29309.9,27299.4L29309.9,27290.9L29306.7,27290.9L29306.7,27299.4Z" style="fill:rgb(67,75,172);fill-rule:nonzero;"/>
                <path d="M29332.4,27298L29330.1,27297.2C29328.8,27297.9 29326.7,27298.4 29324.3,27298.4C29320.2,27298.4 29317.3,27297.2 29317.2,27295.2L29331.8,27295.2C29331.9,27294.9 29332,27294.6 29332,27294.3C29332,27292.2 29328.7,27290.6 29323.5,27290.6C29317.6,27290.6 29313.9,27292.6 29313.9,27295.2C29313.9,27297.6 29317.9,27299.7 29324.3,27299.7C29327.8,27299.7 29330.7,27299.1 29332.4,27298ZM29323.4,27291.8C29326.8,27291.8 29328.7,27292.8 29328.8,27294.1L29317.4,27294.1C29318.1,27292.6 29320.3,27291.8 29323.4,27291.8Z" style="fill:rgb(67,75,172);fill-rule:nonzero;"/>
                <path d="M29336.3,27299.4L29339.5,27299.4L29339.5,27293.5C29340.7,27292.6 29342.5,27291.9 29345.2,27291.9C29348.1,27291.9 29350.1,27292.8 29350.1,27294.3L29350.1,27299.4L29353.3,27299.4L29353.3,27294.3C29353.3,27291.9 29350.1,27290.6 29345.8,27290.6C29343,27290.6 29341.1,27291.1 29339.5,27291.9L29339.5,27290.9L29336.3,27290.9L29336.3,27299.4Z" style="fill:rgb(67,75,172);fill-rule:nonzero;"/>
                <path d="M29359.8,27302.1L29363.7,27297.6L29360.1,27297.6L29356.9,27302.1L29359.8,27302.1Z" style="fill:rgb(67,75,172);fill-rule:nonzero;"/>
                <rect x="29376.7" y="27286.8" width="3.204" height="12.598" style="fill:rgb(67,75,172);fill-rule:nonzero;"/>
                <path d="M29390.7,27299.6C29393.2,27299.6 29395.6,27299.1 29397.1,27298.3L29397.1,27299.4L29400.3,27299.4L29400.3,27293.7C29400.3,27291.8 29397.4,27290.6 29392.6,27290.6C29389.3,27290.6 29386.6,27291.2 29384.9,27292.2L29387.3,27293C29388.5,27292.3 29390.3,27291.9 29392.5,27291.9C29395.2,27291.9 29397.1,27292.5 29397.1,27293.7L29397.1,27294.3L29390.7,27294.8C29386.6,27295.1 29384.4,27296 29384.4,27297.3C29384.4,27298.7 29387,27299.6 29390.7,27299.6ZM29387.7,27297.2C29387.7,27296.5 29388.9,27296 29391.5,27295.8L29397.1,27295.3L29397.1,27297C29395.8,27297.9 29393.8,27298.5 29391.2,27298.5C29389,27298.5 29387.7,27297.9 29387.7,27297.2Z" style="fill:rgb(67,75,172);fill-rule:nonzero;"/>
                <path d="M29414.6,27299.4L29417.8,27299.4L29417.8,27293.5C29418.9,27292.7 29420.6,27291.9 29423.2,27291.9C29425.9,27291.9 29427.6,27292.7 29427.6,27294.2L29427.6,27299.4L29430.8,27299.4L29430.8,27294.1C29430.8,27293.9 29430.8,27293.7 29430.8,27293.5C29432,27292.5 29433.7,27291.9 29436.1,27291.9C29438.8,27291.9 29440.6,27292.7 29440.6,27294.2L29440.6,27299.4L29443.8,27299.4L29443.8,27294.1C29443.8,27291.8 29440.8,27290.6 29436.8,27290.6C29433.5,27290.6 29431.5,27291.3 29430,27292.2C29428.8,27291.1 29426.5,27290.6 29423.8,27290.6C29421.2,27290.6 29419.3,27291.1 29417.8,27291.8L29417.8,27290.9L29414.6,27290.9L29414.6,27299.4Z" style="fill:rgb(67,75,172);fill-rule:nonzero;"/>
                <path d="M29450.7,27288.7C29452,27288.7 29453,27288.3 29453,27287.7C29453,27287.2 29452,27286.7 29450.7,27286.7C29449.5,27286.7 29448.5,27287.2 29448.5,27287.7C29448.5,27288.3 29449.5,27288.7 29450.7,27288.7ZM29449.1,27299.4L29452.3,27299.4L29452.3,27290.9L29449.1,27290.9L29449.1,27299.4Z" style="fill:rgb(67,75,172);fill-rule:nonzero;"/>
                <path d="M29455.8,27298.2C29457.5,27299.2 29459.9,27299.7 29462.9,27299.7C29466.5,27299.7 29469.3,27298.7 29469.3,27297.2C29469.3,27294.3 29459.8,27294.9 29459.8,27293C29459.8,27292.3 29460.9,27291.8 29462.9,27291.8C29464.6,27291.8 29466,27292.2 29467,27292.8L29469.3,27292C29467.9,27291.2 29465.6,27290.6 29462.9,27290.6C29459.2,27290.6 29456.7,27291.7 29456.7,27293C29456.7,27296 29466.2,27295.3 29466.2,27297.2C29466.2,27298 29465,27298.5 29462.9,27298.5C29461,27298.5 29459.4,27298.1 29458.1,27297.4L29455.8,27298.2Z" style="fill:rgb(67,75,172);fill-rule:nonzero;"/>
                <path d="M29490.1,27298L29487.7,27297.2C29486.4,27297.9 29484.4,27298.4 29481.9,27298.4C29477.8,27298.4 29474.9,27297.2 29474.8,27295.2L29489.4,27295.2C29489.5,27294.9 29489.6,27294.6 29489.6,27294.3C29489.6,27292.2 29486.3,27290.6 29481.1,27290.6C29475.2,27290.6 29471.6,27292.6 29471.6,27295.2C29471.6,27297.6 29475.5,27299.7 29481.9,27299.7C29485.5,27299.7 29488.3,27299.1 29490.1,27298ZM29481,27291.8C29484.4,27291.8 29486.3,27292.8 29486.4,27294.1L29475.1,27294.1C29475.7,27292.6 29477.9,27291.8 29481,27291.8Z" style="fill:rgb(67,75,172);fill-rule:nonzero;"/>
                <path d="M29243.3,27322.3L29240.9,27321.4C29239.7,27322.2 29237.6,27322.7 29235.1,27322.7C29231.1,27322.7 29228.2,27321.5 29228.1,27319.4L29242.6,27319.4C29242.8,27319.2 29242.9,27318.9 29242.9,27318.5C29242.9,27316.5 29239.5,27314.9 29234.4,27314.9C29228.5,27314.9 29224.8,27316.9 29224.8,27319.4C29224.8,27321.9 29228.7,27324 29235.1,27324C29238.7,27324 29241.5,27323.3 29243.3,27322.3ZM29234.3,27316.1C29237.6,27316.1 29239.6,27317.1 29239.7,27318.3L29228.3,27318.3C29229,27316.9 29231.2,27316.1 29234.3,27316.1Z" style="fill:rgb(67,75,172);fill-rule:nonzero;"/>
                <path d="M29247.2,27323.7L29250.4,27323.7L29250.4,27317.8C29251.6,27316.9 29253.3,27316.2 29256.1,27316.2C29259,27316.2 29260.9,27317.1 29260.9,27318.6L29260.9,27323.7L29264.1,27323.7L29264.1,27318.5C29264.1,27316.1 29261,27314.9 29256.7,27314.9C29253.9,27314.9 29251.9,27315.4 29250.4,27316.1L29250.4,27315.2L29247.2,27315.2L29247.2,27323.7Z" style="fill:rgb(67,75,172);fill-rule:nonzero;"/>
                <path d="M29278.5,27323.7L29281.7,27323.7L29281.7,27317.8C29282.9,27317 29284.5,27316.4 29287,27316.4C29287.7,27316.4 29288.3,27316.4 29288.9,27316.5L29288.9,27315.1C29288.4,27315.1 29287.8,27315 29287.2,27315C29284.8,27315 29283.1,27315.5 29281.7,27316.2L29281.7,27315.2L29278.5,27315.2L29278.5,27323.7Z" style="fill:rgb(67,75,172);fill-rule:nonzero;"/>
                <path d="M29300.8,27313.8L29305.3,27311.1L29301.6,27311.1L29297.7,27313.8L29300.8,27313.8ZM29308.1,27322.3L29305.7,27321.4C29304.5,27322.2 29302.4,27322.7 29299.9,27322.7C29295.9,27322.7 29293,27321.5 29292.9,27319.4L29307.4,27319.4C29307.6,27319.2 29307.7,27318.9 29307.7,27318.5C29307.7,27316.5 29304.3,27314.9 29299.1,27314.9C29293.3,27314.9 29289.6,27316.9 29289.6,27319.4C29289.6,27321.9 29293.5,27324 29299.9,27324C29303.5,27324 29306.3,27323.3 29308.1,27322.3ZM29299.1,27316.1C29302.4,27316.1 29304.3,27317.1 29304.5,27318.3L29293.1,27318.3C29293.8,27316.9 29295.9,27316.1 29299.1,27316.1Z" style="fill:rgb(67,75,172);fill-rule:nonzero;"/>
                <path d="M29309.8,27322.5C29311.5,27323.5 29313.9,27324 29316.9,27324C29320.4,27324 29323.3,27323 29323.3,27321.4C29323.3,27318.5 29313.8,27319.1 29313.8,27317.2C29313.8,27316.6 29314.9,27316 29316.9,27316C29318.6,27316 29320,27316.4 29321,27317.1L29323.2,27316.2C29321.9,27315.4 29319.6,27314.9 29316.9,27314.9C29313.2,27314.9 29310.7,27315.9 29310.7,27317.3C29310.7,27320.3 29320.2,27319.6 29320.2,27321.5C29320.2,27322.2 29319,27322.8 29316.9,27322.8C29314.9,27322.8 29313.4,27322.4 29312,27321.6L29309.8,27322.5Z" style="fill:rgb(67,75,172);fill-rule:nonzero;"/>
                <path d="M29344,27322.3L29341.7,27321.4C29340.4,27322.2 29338.3,27322.7 29335.9,27322.7C29331.8,27322.7 29328.9,27321.5 29328.8,27319.4L29343.4,27319.4C29343.5,27319.2 29343.6,27318.9 29343.6,27318.5C29343.6,27316.5 29340.3,27314.9 29335.1,27314.9C29329.2,27314.9 29325.5,27316.9 29325.5,27319.4C29325.5,27321.9 29329.5,27324 29335.9,27324C29339.4,27324 29342.3,27323.3 29344,27322.3ZM29335,27316.1C29338.4,27316.1 29340.3,27317.1 29340.4,27318.3L29329,27318.3C29329.7,27316.9 29331.9,27316.1 29335,27316.1Z" style="fill:rgb(67,75,172);fill-rule:nonzero;"/>
                <path d="M29352.9,27323.9C29355.4,27323.9 29357.9,27323.4 29359.3,27322.6L29359.3,27323.7L29362.5,27323.7L29362.5,27318C29362.5,27316.1 29359.6,27314.9 29354.8,27314.9C29351.5,27314.9 29348.8,27315.5 29347.2,27316.5L29349.6,27317.3C29350.7,27316.6 29352.5,27316.1 29354.7,27316.1C29357.4,27316.1 29359.3,27316.8 29359.3,27318L29359.3,27318.6L29352.9,27319C29348.9,27319.3 29346.7,27320.2 29346.7,27321.5C29346.7,27323 29349.2,27323.9 29352.9,27323.9ZM29349.9,27321.5C29349.9,27320.7 29351.1,27320.2 29353.7,27320L29359.3,27319.6L29359.3,27321.3C29358.1,27322.2 29356,27322.7 29353.5,27322.7C29351.2,27322.7 29349.9,27322.2 29349.9,27321.5Z" style="fill:rgb(67,75,172);fill-rule:nonzero;"/>
                <path d="M29381.1,27320C29381.1,27321.7 29379,27322.6 29375.9,27322.6C29372.6,27322.6 29370.6,27321.7 29370.6,27320L29370.6,27315.2L29367.4,27315.2L29367.4,27320C29367.4,27322.5 29370.7,27324 29375.8,27324C29381,27324 29384.3,27322.5 29384.3,27320L29384.3,27315.2L29381.1,27315.2L29381.1,27320Z" style="fill:rgb(67,75,172);fill-rule:nonzero;"/>
                <path d="M29389.3,27326.3L29393.2,27321.9L29389.5,27321.9L29386.3,27326.3L29389.3,27326.3Z" style="fill:rgb(67,75,172);fill-rule:nonzero;"/>
                <rect x="29406.2" y="27311.1" width="3.204" height="12.598" style="fill:rgb(67,75,172);fill-rule:nonzero;"/>
                <path d="M29431.9,27322.3L29429.5,27321.4C29428.3,27322.2 29426.2,27322.7 29423.8,27322.7C29419.7,27322.7 29416.8,27321.5 29416.7,27319.4L29431.3,27319.4C29431.4,27319.2 29431.5,27318.9 29431.5,27318.5C29431.5,27316.5 29428.1,27314.9 29423,27314.9C29417.1,27314.9 29413.4,27316.9 29413.4,27319.4C29413.4,27321.9 29417.4,27324 29423.8,27324C29427.3,27324 29430.1,27323.3 29431.9,27322.3ZM29422.9,27316.1C29426.2,27316.1 29428.2,27317.1 29428.3,27318.3L29416.9,27318.3C29417.6,27316.9 29419.8,27316.1 29422.9,27316.1Z" style="fill:rgb(67,75,172);fill-rule:nonzero;"/>
                <path d="M29226.4,27352L29229.6,27352L29229.6,27346.9C29231.3,27347.8 29233.5,27348.3 29236.4,27348.3C29242.3,27348.3 29246.1,27346.2 29246.1,27343.7C29246.1,27341.2 29242.3,27339.1 29236.4,27339.1C29233.5,27339.1 29231.3,27339.6 29229.6,27340.5L29229.6,27339.5L29226.4,27339.5L29226.4,27352ZM29236,27340.5C29240,27340.5 29242.8,27341.9 29242.8,27343.7C29242.8,27345.5 29240,27346.9 29236,27346.9C29233.4,27346.9 29231.1,27346.4 29229.6,27345.3L29229.6,27342C29231,27341 29233.3,27340.5 29236,27340.5Z" style="fill:rgb(67,75,172);fill-rule:nonzero;"/>
                <path d="M29255,27348.2C29257.4,27348.2 29259.9,27347.7 29261.3,27346.8L29261.3,27347.9L29264.5,27347.9L29264.5,27342.2C29264.5,27340.4 29261.7,27339.1 29256.9,27339.1C29253.5,27339.1 29250.9,27339.7 29249.2,27340.7L29251.6,27341.6C29252.8,27340.8 29254.6,27340.4 29256.7,27340.4C29259.5,27340.4 29261.3,27341.1 29261.3,27342.2L29261.3,27342.8L29254.9,27343.3C29250.9,27343.6 29248.7,27344.5 29248.7,27345.8C29248.7,27347.2 29251.2,27348.2 29255,27348.2ZM29252,27345.7C29252,27345 29253.1,27344.5 29255.7,27344.3L29261.3,27343.9L29261.3,27345.5C29260.1,27346.4 29258,27347 29255.5,27347C29253.3,27347 29252,27346.5 29252,27345.7Z" style="fill:rgb(67,75,172);fill-rule:nonzero;"/>
                <path d="M29269.9,27347.9L29273.1,27347.9L29273.1,27342.1C29274.2,27341.2 29275.9,27340.7 29278.3,27340.7C29279.1,27340.7 29279.7,27340.7 29280.2,27340.8L29280.2,27339.4C29279.8,27339.3 29279.2,27339.3 29278.6,27339.3C29276.2,27339.3 29274.5,27339.8 29273.1,27340.5L29273.1,27339.5L29269.9,27339.5L29269.9,27347.9Z" style="fill:rgb(67,75,172);fill-rule:nonzero;"/>
                <path d="M29285.7,27345.1C29285.7,27347.1 29288,27348.1 29292.2,27348.1C29293.6,27348.1 29294.6,27348 29295.5,27347.9L29295.5,27346.6C29294.8,27346.7 29293.9,27346.8 29292.7,27346.8C29290.4,27346.8 29288.9,27346.4 29288.9,27345.1L29288.9,27340.7L29295.5,27340.7L29295.5,27339.5L29288.9,27339.5L29288.9,27337.3L29285.7,27337.3L29285.7,27339.5L29282.1,27339.5L29282.1,27340.7L29285.7,27340.7L29285.7,27345.1Z" style="fill:rgb(67,75,172);fill-rule:nonzero;"/>
                <path d="M29304.4,27348.2C29306.9,27348.2 29309.4,27347.7 29310.8,27346.8L29310.8,27347.9L29314,27347.9L29314,27342.2C29314,27340.4 29311.1,27339.1 29306.3,27339.1C29303,27339.1 29300.3,27339.7 29298.7,27340.7L29301.1,27341.6C29302.2,27340.8 29304,27340.4 29306.2,27340.4C29308.9,27340.4 29310.8,27341.1 29310.8,27342.2L29310.8,27342.8L29304.4,27343.3C29300.4,27343.6 29298.2,27344.5 29298.2,27345.8C29298.2,27347.2 29300.7,27348.2 29304.4,27348.2ZM29301.4,27345.7C29301.4,27345 29302.6,27344.5 29305.2,27344.3L29310.8,27343.9L29310.8,27345.5C29309.5,27346.4 29307.5,27347 29305,27347C29302.7,27347 29301.4,27346.5 29301.4,27345.7Z" style="fill:rgb(67,75,172);fill-rule:nonzero;"/>
                <path d="M29317.1,27349.4C29317.1,27351.1 29320.8,27352.1 29326.4,27352.1C29332.1,27352.1 29336.1,27350.8 29336.1,27349C29336.1,27347.5 29333.8,27346.4 29328.8,27346.4L29323.3,27346.4C29322.2,27346.4 29321.8,27346.2 29321.8,27345.8C29321.8,27345.5 29322.2,27345.2 29323,27344.9C29323.8,27345 29324.7,27345.1 29325.6,27345.1C29330.2,27345.1 29333,27343.7 29333,27342.1C29333,27341.6 29332.8,27341.1 29332.2,27340.7L29336.3,27340.7L29336.3,27339.5L29329.3,27339.5C29328.3,27339.2 29327,27339.1 29325.6,27339.1C29321.1,27339.1 29318.3,27340.5 29318.3,27342.1C29318.3,27343 29319.2,27343.9 29320.9,27344.5C29319.4,27344.9 29318.6,27345.4 29318.6,27346.1C29318.6,27346.6 29319.1,27347 29320,27347.3C29318.1,27347.9 29317.1,27348.6 29317.1,27349.4ZM29325.7,27344C29322.9,27344 29321.3,27343.1 29321.3,27342.1C29321.3,27341.1 29322.9,27340.2 29325.7,27340.2C29328.4,27340.2 29330,27341.1 29330,27342.1C29330,27343.1 29328.4,27344 29325.7,27344ZM29320.3,27349.3C29320.3,27348.6 29321,27348.1 29322.4,27347.7L29328.5,27347.7C29331.9,27347.7 29332.9,27348.3 29332.9,27349.1C29332.9,27350.2 29330.4,27350.9 29326.4,27350.9C29322.6,27350.9 29320.3,27350.3 29320.3,27349.3Z" style="fill:rgb(67,75,172);fill-rule:nonzero;"/>
                <path d="M29355.2,27346.5L29352.8,27345.7C29351.6,27346.5 29349.5,27347 29347.1,27347C29343,27347 29340.1,27345.7 29340,27343.7L29354.6,27343.7C29354.7,27343.5 29354.8,27343.1 29354.8,27342.8C29354.8,27340.7 29351.4,27339.1 29346.3,27339.1C29340.4,27339.1 29336.7,27341.1 29336.7,27343.7C29336.7,27346.2 29340.6,27348.3 29347.1,27348.3C29350.6,27348.3 29353.4,27347.6 29355.2,27346.5ZM29346.2,27340.3C29349.5,27340.3 29351.5,27341.4 29351.6,27342.6L29340.2,27342.6C29340.9,27341.1 29343.1,27340.3 29346.2,27340.3Z" style="fill:rgb(67,75,172);fill-rule:nonzero;"/>
                <path d="M29366.5,27343.7C29366.5,27346.2 29370.3,27348.3 29376.3,27348.3C29379.1,27348.3 29381.3,27347.8 29383,27346.9L29383,27347.9L29386.2,27347.9L29386.2,27335.3L29383,27335.3L29383,27340.5C29381.3,27339.6 29379.1,27339.1 29376.3,27339.1C29370.3,27339.1 29366.5,27341.2 29366.5,27343.7ZM29369.9,27343.7C29369.9,27341.9 29372.6,27340.5 29376.6,27340.5C29379.2,27340.5 29381.5,27341 29383,27342L29383,27345.3C29381.6,27346.3 29379.3,27346.9 29376.6,27346.9C29372.6,27346.9 29369.9,27345.5 29369.9,27343.7Z" style="fill:rgb(67,75,172);fill-rule:nonzero;"/>
                <path d="M29408.7,27346.5L29406.3,27345.7C29405.1,27346.5 29403,27347 29400.6,27347C29396.5,27347 29393.6,27345.7 29393.5,27343.7L29408.1,27343.7C29408.2,27343.5 29408.3,27343.1 29408.3,27342.8C29408.3,27340.7 29404.9,27339.1 29399.8,27339.1C29393.9,27339.1 29390.2,27341.1 29390.2,27343.7C29390.2,27346.2 29394.2,27348.3 29400.6,27348.3C29404.1,27348.3 29406.9,27347.6 29408.7,27346.5ZM29399.7,27340.3C29403.1,27340.3 29405,27341.4 29405.1,27342.6L29393.7,27342.6C29394.4,27341.1 29396.6,27340.3 29399.7,27340.3Z" style="fill:rgb(67,75,172);fill-rule:nonzero;"/>
                <path d="M29410.4,27346.8C29412.1,27347.7 29414.5,27348.3 29417.5,27348.3C29421.1,27348.3 29423.9,27347.3 29423.9,27345.7C29423.9,27342.8 29414.4,27343.4 29414.4,27341.5C29414.4,27340.8 29415.5,27340.3 29417.5,27340.3C29419.2,27340.3 29420.6,27340.7 29421.6,27341.4L29423.9,27340.5C29422.6,27339.7 29420.2,27339.1 29417.5,27339.1C29413.8,27339.1 29411.3,27340.2 29411.3,27341.5C29411.3,27344.5 29420.8,27343.9 29420.8,27345.8C29420.8,27346.5 29419.6,27347.1 29417.5,27347.1C29415.6,27347.1 29414,27346.6 29412.7,27345.9L29410.4,27346.8Z" style="fill:rgb(67,75,172);fill-rule:nonzero;"/>
                <path d="M29226.4,27372.2L29229.6,27372.2L29229.6,27366.4C29230.8,27365.5 29232.4,27364.9 29234.9,27364.9C29235.6,27364.9 29236.2,27365 29236.8,27365L29236.8,27363.6C29236.3,27363.6 29235.7,27363.5 29235.1,27363.5C29232.7,27363.5 29231,27364 29229.6,27364.8L29229.6,27363.7L29226.4,27363.7L29226.4,27372.2Z" style="fill:rgb(67,75,172);fill-rule:nonzero;"/>
                <path d="M29256,27370.8L29253.6,27370C29252.4,27370.7 29250.3,27371.2 29247.8,27371.2C29243.8,27371.2 29240.9,27370 29240.8,27368L29255.3,27368C29255.5,27367.7 29255.6,27367.4 29255.6,27367.1C29255.6,27365 29252.2,27363.4 29247.1,27363.4C29241.2,27363.4 29237.5,27365.4 29237.5,27367.9C29237.5,27370.4 29241.4,27372.5 29247.8,27372.5C29251.4,27372.5 29254.2,27371.8 29256,27370.8ZM29247,27364.6C29250.3,27364.6 29252.3,27365.6 29252.4,27366.9L29241,27366.9C29241.7,27365.4 29243.9,27364.6 29247,27364.6Z" style="fill:rgb(67,75,172);fill-rule:nonzero;"/>
                <path d="M29257.7,27371C29259.4,27372 29261.8,27372.5 29264.8,27372.5C29268.4,27372.5 29271.2,27371.5 29271.2,27369.9C29271.2,27367.1 29261.7,27367.7 29261.7,27365.8C29261.7,27365.1 29262.8,27364.6 29264.8,27364.6C29266.5,27364.6 29267.9,27365 29268.9,27365.6L29271.1,27364.8C29269.8,27364 29267.5,27363.4 29264.8,27363.4C29261.1,27363.4 29258.6,27364.5 29258.6,27365.8C29258.6,27368.8 29268.1,27368.1 29268.1,27370C29268.1,27370.8 29266.9,27371.3 29264.8,27371.3C29262.8,27371.3 29261.3,27370.9 29259.9,27370.2L29257.7,27371Z" style="fill:rgb(67,75,172);fill-rule:nonzero;"/>
                <path d="M29273.1,27371C29274.8,27372 29277.2,27372.5 29280.2,27372.5C29283.8,27372.5 29286.6,27371.5 29286.6,27369.9C29286.6,27367.1 29277.1,27367.7 29277.1,27365.8C29277.1,27365.1 29278.2,27364.6 29280.2,27364.6C29281.9,27364.6 29283.3,27365 29284.3,27365.6L29286.6,27364.8C29285.2,27364 29282.9,27363.4 29280.2,27363.4C29276.5,27363.4 29274,27364.5 29274,27365.8C29274,27368.8 29283.5,27368.1 29283.5,27370C29283.5,27370.8 29282.3,27371.3 29280.2,27371.3C29278.3,27371.3 29276.7,27370.9 29275.4,27370.2L29273.1,27371Z" style="fill:rgb(67,75,172);fill-rule:nonzero;"/>
                <path d="M29299.1,27363.4C29293,27363.4 29288.9,27365.5 29288.9,27367.9C29288.9,27370.4 29293,27372.5 29299.1,27372.5C29305.3,27372.5 29309.4,27370.4 29309.4,27367.9C29309.4,27365.5 29305.3,27363.4 29299.1,27363.4ZM29299.2,27371.2C29295.1,27371.2 29292.2,27369.7 29292.2,27367.9C29292.2,27366.2 29295.1,27364.7 29299.2,27364.7C29303.1,27364.7 29306,27366.2 29306,27367.9C29306,27369.7 29303.1,27371.2 29299.2,27371.2Z" style="fill:rgb(67,75,172);fill-rule:nonzero;"/>
                <path d="M29326.7,27368.6C29326.7,27370.2 29324.7,27371.2 29321.5,27371.2C29318.3,27371.2 29316.3,27370.2 29316.3,27368.6L29316.3,27363.7L29313.1,27363.7L29313.1,27368.5C29313.1,27371 29316.3,27372.5 29321.5,27372.5C29326.6,27372.5 29329.9,27371 29329.9,27368.5L29329.9,27363.7L29326.7,27363.7L29326.7,27368.6Z" style="fill:rgb(67,75,172);fill-rule:nonzero;"/>
                <path d="M29335.1,27372.2L29338.3,27372.2L29338.3,27366.4C29339.5,27365.5 29341.1,27364.9 29343.6,27364.9C29344.3,27364.9 29344.9,27365 29345.5,27365L29345.5,27363.6C29345,27363.6 29344.5,27363.5 29343.9,27363.5C29341.4,27363.5 29339.7,27364 29338.3,27364.8L29338.3,27363.7L29335.1,27363.7L29335.1,27372.2Z" style="fill:rgb(67,75,172);fill-rule:nonzero;"/>
                <path d="M29356.6,27371.2C29352.4,27371.2 29349.5,27369.8 29349.5,27367.9C29349.5,27366.2 29352.4,27364.7 29356.5,27364.7C29358.9,27364.7 29360.8,27365.2 29362,27366L29364.5,27365.1C29362.7,27364.1 29359.9,27363.4 29356.5,27363.4C29350.2,27363.4 29346.2,27365.5 29346.2,27367.9C29346.2,27370.4 29350.2,27372.5 29356.5,27372.5C29360,27372.5 29362.7,27371.8 29364.5,27370.8L29362,27369.9C29360.8,27370.7 29358.9,27371.2 29356.6,27371.2Z" style="fill:rgb(67,75,172);fill-rule:nonzero;"/>
                <path d="M29383.9,27370.8L29381.5,27370C29380.3,27370.7 29378.2,27371.2 29375.8,27371.2C29371.7,27371.2 29368.8,27370 29368.7,27368L29383.3,27368C29383.4,27367.7 29383.5,27367.4 29383.5,27367.1C29383.5,27365 29380.1,27363.4 29375,27363.4C29369.1,27363.4 29365.4,27365.4 29365.4,27367.9C29365.4,27370.4 29369.4,27372.5 29375.8,27372.5C29379.3,27372.5 29382.1,27371.8 29383.9,27370.8ZM29374.9,27364.6C29378.3,27364.6 29380.2,27365.6 29380.3,27366.9L29368.9,27366.9C29369.6,27365.4 29371.8,27364.6 29374.9,27364.6Z" style="fill:rgb(67,75,172);fill-rule:nonzero;"/>
                <path d="M29385.6,27371C29387.3,27372 29389.7,27372.5 29392.7,27372.5C29396.3,27372.5 29399.1,27371.5 29399.1,27369.9C29399.1,27367.1 29389.6,27367.7 29389.6,27365.8C29389.6,27365.1 29390.7,27364.6 29392.7,27364.6C29394.4,27364.6 29395.8,27365 29396.8,27365.6L29399.1,27364.8C29397.8,27364 29395.4,27363.4 29392.7,27363.4C29389,27363.4 29386.5,27364.5 29386.5,27365.8C29386.5,27368.8 29396,27368.1 29396,27370C29396,27370.8 29394.8,27371.3 29392.7,27371.3C29390.8,27371.3 29389.2,27370.9 29387.9,27370.2L29385.6,27371Z" style="fill:rgb(67,75,172);fill-rule:nonzero;"/>
            </g>
            <g transform="matrix(0.148258,0,1.15687e-33,0.285602,-4085.78,-7407.01)">
                <g transform="matrix(1.26121,0,0,1.26121,26856.2,26324)">
                    <path d="M1252.52,1802.19C1252.52,1840.06 1278.18,1868.71 1312.57,1868.71C1314.12,1868.71 1315.65,1868.65 1317.15,1868.53L1317.15,1824.96C1306.24,1823.01 1298.61,1813.88 1298.61,1802.19C1298.61,1790.5 1306.24,1781.36 1317.15,1779.41L1317.15,1735.85C1315.65,1735.72 1314.12,1735.66 1312.57,1735.66C1278.18,1735.66 1252.52,1764.32 1252.52,1802.19Z" style="fill:rgb(0,0,145);fill-rule:nonzero;"/>
                </g>
                <g transform="matrix(1.26121,0,0,1.27435,25114.6,26303.3)">
                    <rect x="2980.24" y="1738.65" width="44.85" height="127.07" style="fill:rgb(225,0,15);fill-rule:nonzero;"/>
                </g>
                <g transform="matrix(1.26121,0,0,1.32056,24775.4,26217.1)">
                    <rect x="2980.24" y="1738.65" width="44.85" height="127.07" style="fill:rgb(0,0,145);fill-rule:nonzero;"/>
                </g>
                <g transform="matrix(1.26121,0,0,1.08646,23935.4,26650.1)">
                    <path d="M3551.17,1686.33L3551.29,1865.72L3506.44,1865.72L3506.44,1686.33L3551.17,1686.33Z" style="fill:rgb(0,0,145);"/>
                </g>
                <g transform="matrix(2.68469,0,0,2.68469,22148.7,31294.1)">
                    <g transform="matrix(0.469777,0,0,0.469777,1348.14,-1968.69)">
                        <path d="M2300.44,2015.46C2312.15,2015.46 2321.86,2019.7 2332.08,2025.43L2351.27,1998.02C2338.81,1989.8 2322.36,1981.83 2298.69,1981.83C2294.93,1981.83 2291.26,1982.04 2287.71,1982.46L2287.71,2019.75C2288.81,2016.67 2294.21,2015.46 2300.44,2015.46Z" style="fill:rgb(225,0,15);"/>
                    </g>
                    <g transform="matrix(0.469777,0,0,0.469777,1348.14,-1968.69)">
                        <path d="M2301.41,2084.32C2301.42,2084.32 2308.72,2081.95 2309.08,2076.76C2309.32,2073.31 2307.03,2071.08 2303.48,2069.59C2300.23,2068.22 2295.51,2067.19 2289.86,2066.04C2288.88,2065.84 2287.87,2065.63 2286.85,2065.42L2286.85,2025.78C2287.99,2029.47 2294.98,2031.11 2304.55,2032.93C2323.99,2036.67 2352.39,2042.9 2352.39,2074.29C2352.39,2103.44 2327.23,2118.64 2294.84,2118.64C2292.08,2118.64 2289.43,2118.52 2286.85,2118.31L2286.85,2084.61C2288.88,2084.84 2290.94,2085.01 2293.09,2085.01C2296.4,2085.01 2299.06,2084.89 2301.41,2084.32Z" style="fill:rgb(225,0,15);"/>
                    </g>
                </g>
                <g transform="matrix(2.68469,0,0,2.68469,22016.1,31318.9)">
                    <g transform="matrix(0.469777,0,0,0.469777,1614.44,-1859.36)">
                        <path d="M2265.3,1828.4C2256.45,1828.4 2249.32,1824.98 2244.63,1819.01L2244.63,1863.89C2250.77,1865.4 2257.25,1866.27 2264.05,1866.27C2286.72,1866.27 2306.66,1857.55 2320.36,1843.35L2290.96,1817.44C2286.23,1822.42 2277.01,1828.4 2265.3,1828.4Z" style="fill:rgb(225,0,15);"/>
                    </g>
                    <g transform="matrix(0.469777,0,0,0.469777,1614.44,-1859.36)">
                        <path d="M2260.81,1735.66C2255.19,1735.66 2249.8,1736.32 2244.63,1737.45L2244.63,1781.46C2248.53,1776.46 2253.92,1773.53 2260.31,1773.53C2269.28,1773.53 2277.01,1779.26 2280.25,1789.23L2244.63,1789.23L2244.63,1814.89L2327.09,1814.89C2327.84,1811.66 2328.09,1806.67 2328.09,1803.18C2328.09,1764.07 2299.18,1735.66 2260.81,1735.66Z" style="fill:rgb(225,0,15);"/>
                    </g>
                </g>
                <g transform="matrix(1.26121,0,0,1.27435,25206.3,26303.3)">
                    <rect x="2980.24" y="1738.65" width="44.85" height="127.07" style="fill:rgb(225,0,15);fill-rule:nonzero;"/>
                </g>
                <g transform="matrix(1.26121,0,0,0.443681,25206.3,27654.4)">
                    <rect x="2980.24" y="1738.65" width="44.85" height="127.07" style="fill:rgb(225,0,15);fill-rule:nonzero;"/>
                </g>
                <g transform="matrix(1.26121,0,0,1.26121,25862.8,26016.6)">
                    <path d="M2575.64,1954.92L2530.79,1954.92L2530.79,1984.82L2530.53,1984.82L2530.53,2025.68L2530.79,2025.68L2530.79,2066.29C2530.79,2093.95 2545.24,2114.88 2579.63,2114.88C2589.6,2114.88 2597.57,2113.13 2605.29,2109.14L2605.29,2067.29C2600.8,2069.53 2595.33,2071.52 2589.34,2071.52C2579.88,2071.52 2575.64,2066.29 2575.64,2058.81L2575.64,2025.68L2605.29,2025.68L2605.29,1984.82L2575.64,1984.82L2575.64,1954.92Z" style="fill:rgb(225,0,15);fill-rule:nonzero;"/>
                </g>
                <g transform="matrix(1.26121,0,0,1.26121,25327.9,26013.6)">
                    <path d="M2786.43,2071.52C2776.47,2071.52 2769.74,2064.79 2769.74,2054.58L2769.74,1984.82L2724.89,1984.82L2724.89,2060.81C2724.89,2093.45 2749.31,2114.88 2786.43,2114.88C2790.8,2114.88 2794.98,2114.55 2798.98,2113.98L2798.98,2066.3C2796.04,2069.59 2791.71,2071.52 2786.43,2071.52Z" style="fill:rgb(225,0,15);fill-rule:nonzero;"/>
                </g>
            </g>
            <g transform="matrix(1.25,0,0,2.40799,69.3792,481.804)">
                <path d="M5,13L16.17,13L11.29,17.88C10.9,18.27 10.9,18.91 11.29,19.3C11.68,19.69 12.31,19.69 12.7,19.3L19.29,12.71C19.68,12.32 19.68,11.69 19.29,11.3L12.71,4.7C12.32,4.31 11.69,4.31 11.3,4.7C10.91,5.09 10.91,5.72 11.3,6.11L16.17,11L5,11C4.45,11 4,11.45 4,12C4,12.55 4.45,13 5,13Z" style="fill:rgb(87,94,181);fill-rule:nonzero;"/>
            </g>
            <g transform="matrix(1.38964,0,0,2.67699,67.4426,864.791)">
                <path d="M16.48,10.41C16.09,10.8 15.44,10.8 15.05,10.41L10.58,5.95L3.53,12.99L2.87,12.36C1.7,11.19 1.7,9.29 2.87,8.12L7.11,3.88C8.28,2.71 10.18,2.71 11.35,3.88L16.48,9C16.87,9.39 16.87,10.02 16.48,10.41ZM17.18,8.29C17.96,9.07 17.96,10.34 17.18,11.12C15.91,12.39 14.57,11.34 14.35,11.12L10.59,7.36L5.02,12.93C4.63,13.32 4.63,13.95 5.02,14.34C5.41,14.73 6.04,14.73 6.44,14.34L11.06,9.72L11.77,10.43L7.15,15.05C6.76,15.44 6.76,16.07 7.15,16.46C7.54,16.85 8.17,16.85 8.57,16.46L13.19,11.84L13.9,12.55L9.28,17.17C8.89,17.56 8.89,18.19 9.28,18.58C9.67,18.97 10.3,18.97 10.69,18.58L15.31,13.96L16.02,14.67L11.4,19.29C11.01,19.68 11.01,20.31 11.4,20.7C11.79,21.09 12.42,21.09 12.81,20.7L21.13,12.36C22.3,11.19 22.3,9.29 21.13,8.12L16.89,3.88C15.74,2.73 13.88,2.71 12.71,3.82L17.18,8.29Z" style="fill:rgb(67,75,172);fill-rule:nonzero;"/>
            </g>
        </g>
    </g>
</svg>
