<?xml version="1.0" encoding="UTF-8" standalone="no"?>
<!DOCTYPE svg PUBLIC "-//W3C//DTD SVG 1.1//EN" "http://www.w3.org/Graphics/SVG/1.1/DTD/svg11.dtd">
<svg width="100%" height="100%" viewBox="0 0 800 1092" version="1.1" xmlns="http://www.w3.org/2000/svg" xmlns:xlink="http://www.w3.org/1999/xlink" xml:space="preserve" xmlns:serif="http://www.serif.com/" style="fill-rule:evenodd;clip-rule:evenodd;stroke-linejoin:round;stroke-miterlimit:2;">
    <g transform="matrix(1,0,0,1,-22295.5,-46148)">
        <g id="schéma-mobile-4--vectorisé-" serif:id="schéma mobile 4 (vectorisé)" transform="matrix(1.6,0,0,0.830569,22295.5,46148)">
            <rect x="0" y="0" width="500" height="1313.92" style="fill:none;"/>
            <g transform="matrix(1.73401,0,0,6.31118,28.5774,-14621.6)">
                <path d="M76.364,2394.99C75.337,2394.44 74.762,2393.7 74.762,2392.93C74.758,2385.04 74.758,2344.83 74.758,2344.83C74.758,2335.81 88.585,2328.49 105.616,2328.49L149.772,2328.49C166.803,2328.49 180.631,2335.81 180.631,2344.83L180.631,2470.68C180.631,2479.69 166.803,2487.01 149.772,2487.01L105.616,2487.01C88.585,2487.01 74.758,2479.69 74.758,2470.68L74.758,2422.4C74.757,2421.71 75.272,2421.04 76.191,2420.55C76.764,2420.26 77.365,2419.97 78.004,2419.71L99.539,2410.37C101.052,2409.75 101.937,2408.79 101.936,2407.78C101.935,2406.76 101.048,2405.81 99.533,2405.19C99.533,2405.19 81.864,2397.44 76.364,2394.99Z" style="fill:rgb(87,94,181);"/>
            </g>
            <g transform="matrix(8.29835e-17,-2.61069,0.949727,1.12027e-16,-25696.7,77245.7)">
                <path d="M29272,27315.8L29279.3,27315.8C29285.2,27315.8 29289.2,27309.5 29289.2,27302.2C29289.2,27294.9 29285.2,27288.7 29279.3,27288.7L29272,27288.7L29272,27315.8ZM29279.4,27293.7C29282.8,27293.7 29285.3,27297.4 29285.3,27302.2C29285.3,27307 29282.8,27310.8 29279.4,27310.8L29275.8,27310.8L29275.8,27293.7L29279.4,27293.7Z" style="fill:white;fill-rule:nonzero;"/>
                <path d="M29299.5,27293.2L29302.7,27286.8L29299,27286.8L29296.2,27293.2L29299.5,27293.2ZM29304,27312.6L29301.6,27309.8C29300.9,27311.2 29299.6,27312.1 29298.2,27312.1C29296.1,27312.1 29294.5,27310.7 29294.2,27307L29303.6,27307C29303.7,27306.4 29303.8,27305.4 29303.8,27304.3C29303.8,27299.2 29301.3,27295.5 29297.6,27295.5C29293.2,27295.5 29290.7,27300.3 29290.7,27306C29290.7,27311.7 29293.4,27316.5 29298.2,27316.5C29300.7,27316.5 29302.8,27315 29304,27312.6ZM29297.5,27299.5C29299.4,27299.5 29300.4,27301.5 29300.5,27303.5L29294.3,27303.5C29294.7,27300.9 29295.8,27299.5 29297.5,27299.5Z" style="fill:white;fill-rule:nonzero;"/>
                <path d="M29320.7,27306C29320.7,27300.3 29318.1,27295.5 29313.9,27295.5C29312,27295.5 29310.7,27296.4 29309.7,27297.9L29309.7,27286.8L29306.3,27286.8L29306.3,27315.8L29309.7,27315.8L29309.7,27314.2C29310.7,27315.7 29312,27316.5 29313.9,27316.5C29318.1,27316.5 29320.7,27311.7 29320.7,27306ZM29313.4,27300.2C29315.7,27300.2 29317.2,27302.6 29317.2,27306C29317.2,27309.4 29315.7,27311.9 29313.4,27311.9C29311.9,27311.9 29310.6,27310.9 29309.7,27309.1L29309.7,27302.9C29310.5,27301.2 29311.8,27300.2 29313.4,27300.2Z" style="fill:white;fill-rule:nonzero;"/>
                <path d="M29331.8,27307.3C29331.8,27310.2 29330.8,27311.9 29328.9,27311.9C29327.1,27311.9 29326.1,27310.2 29326.1,27307.3L29326.1,27296.3L29322.7,27296.3L29322.7,27307.1C29322.7,27312.9 29325,27316.5 29328.9,27316.5C29332.9,27316.5 29335.2,27312.9 29335.2,27307.1L29335.2,27296.3L29331.8,27296.3L29331.8,27307.3Z" style="fill:white;fill-rule:nonzero;"/>
                <path d="M29339.2,27308.7C29339.2,27313.4 29340.8,27316.1 29344.2,27316.1C29345.3,27316.1 29346.1,27316 29346.8,27315.5L29346.8,27311.2C29346.3,27311.5 29345.7,27311.7 29344.8,27311.7C29343.4,27311.7 29342.6,27310.8 29342.6,27308.7L29342.6,27300.7L29346.7,27300.7L29346.7,27296.3L29342.6,27296.3L29342.6,27291.4L29339.2,27291.4L29339.2,27296.3L29336.7,27296.3L29336.7,27300.7L29339.2,27300.7L29339.2,27308.7Z" style="fill:white;fill-rule:nonzero;"/>
                <path d="M29354.4,27306C29354.4,27311.7 29357,27316.5 29361.2,27316.5C29363,27316.5 29364.3,27315.7 29365.4,27314.2L29365.4,27315.8L29368.8,27315.8L29368.8,27286.8L29365.4,27286.8L29365.4,27297.8C29364.3,27296.3 29363,27295.5 29361.2,27295.5C29357,27295.5 29354.4,27300.3 29354.4,27306ZM29357.9,27306C29357.9,27302.6 29359.4,27300.2 29361.7,27300.2C29363.2,27300.2 29364.5,27301.1 29365.4,27302.9L29365.4,27309.2C29364.5,27311 29363.2,27311.9 29361.7,27311.9C29359.4,27311.9 29357.9,27309.4 29357.9,27306Z" style="fill:white;fill-rule:nonzero;"/>
                <path d="M29380.9,27307.3C29380.9,27310.2 29379.8,27311.9 29378,27311.9C29376.1,27311.9 29375.1,27310.2 29375.1,27307.3L29375.1,27296.3L29371.7,27296.3L29371.7,27307.1C29371.7,27312.9 29374,27316.5 29378,27316.5C29381.9,27316.5 29384.3,27312.9 29384.3,27307.1L29384.3,27296.3L29380.9,27296.3L29380.9,27307.3Z" style="fill:white;fill-rule:nonzero;"/>
                <path d="M29394.5,27308.7C29394.5,27313.4 29396,27316.1 29399.4,27316.1C29400.5,27316.1 29401.3,27316 29402,27315.5L29402,27311.2C29401.5,27311.5 29400.9,27311.7 29400,27311.7C29398.7,27311.7 29397.9,27310.8 29397.9,27308.7L29397.9,27300.7L29402,27300.7L29402,27296.3L29397.9,27296.3L29397.9,27291.4L29394.5,27291.4L29394.5,27296.3L29392,27296.3L29392,27300.7L29394.5,27300.7L29394.5,27308.7Z" style="fill:white;fill-rule:nonzero;"/>
                <path d="M29404.2,27315.8L29407.6,27315.8L29407.6,27303.3C29408.1,27302 29409.1,27300.7 29410.8,27300.7C29411.4,27300.7 29411.9,27300.9 29412.3,27301L29412.3,27296.2C29412,27296 29411.6,27295.9 29411.1,27295.9C29409.6,27295.9 29408.5,27296.9 29407.6,27298.2L29407.6,27296.3L29404.2,27296.3L29404.2,27315.8Z" style="fill:white;fill-rule:nonzero;"/>
                <path d="M29417.3,27316.3C29418.9,27316.3 29420.5,27315.4 29421.4,27313.9L29421.4,27315.8L29424.7,27315.8L29424.7,27303.2C29424.7,27298.9 29422.7,27295.5 29418.9,27295.5C29416.4,27295.5 29414.4,27297 29413.2,27299.4L29415.7,27302.1C29416.4,27300.7 29417.4,27299.8 29418.8,27299.8C29420.3,27299.8 29421.4,27301.1 29421.4,27303.2L29421.4,27303.7L29417.3,27304.7C29414.4,27305.4 29412.8,27307.6 29412.8,27310.5C29412.8,27314.1 29414.7,27316.3 29417.3,27316.3ZM29416.2,27310.3C29416.2,27309.1 29416.8,27308.2 29418.2,27307.9L29421.4,27307.1L29421.4,27309.8C29420.7,27311.4 29419.6,27312.4 29418,27312.4C29416.9,27312.4 29416.2,27311.6 29416.2,27310.3Z" style="fill:white;fill-rule:nonzero;"/>
                <path d="M29425.8,27296.3L29430.6,27315.8L29435.1,27315.8L29440,27296.3L29436.3,27296.3L29432.9,27310.2L29429.4,27296.3L29425.8,27296.3Z" style="fill:white;fill-rule:nonzero;"/>
                <path d="M29444.8,27316.3C29446.4,27316.3 29448,27315.4 29448.8,27313.9L29448.8,27315.8L29452.2,27315.8L29452.2,27303.2C29452.2,27298.9 29450.2,27295.5 29446.3,27295.5C29443.9,27295.5 29441.9,27297 29440.7,27299.4L29443.2,27302.1C29443.9,27300.7 29444.9,27299.8 29446.2,27299.8C29447.8,27299.8 29448.8,27301.1 29448.8,27303.2L29448.8,27303.7L29444.7,27304.7C29441.9,27305.4 29440.3,27307.6 29440.3,27310.5C29440.3,27314.1 29442.1,27316.3 29444.8,27316.3ZM29443.6,27310.3C29443.6,27309.1 29444.2,27308.2 29445.6,27307.9L29448.8,27307.1L29448.8,27309.8C29448.2,27311.4 29447,27312.4 29445.5,27312.4C29444.4,27312.4 29443.6,27311.6 29443.6,27310.3Z" style="fill:white;fill-rule:nonzero;"/>
                <path d="M29457,27292.9C29458.2,27292.9 29459.2,27291.4 29459.2,27289.7C29459.2,27288 29458.2,27286.5 29457,27286.5C29455.8,27286.5 29454.8,27288 29454.8,27289.7C29454.8,27291.4 29455.8,27292.9 29457,27292.9ZM29455.3,27315.8L29458.7,27315.8L29458.7,27296.3L29455.3,27296.3L29455.3,27315.8Z" style="fill:white;fill-rule:nonzero;"/>
                <rect x="29461.9" y="27286.8" width="3.38" height="28.966" style="fill:white;fill-rule:nonzero;"/>
                <path d="M29323.4,27354.1L29321,27351.3C29320.3,27352.7 29319,27353.6 29317.5,27353.6C29315.4,27353.6 29313.9,27352.1 29313.6,27348.5L29322.9,27348.5C29323.1,27347.9 29323.2,27346.9 29323.2,27345.8C29323.2,27340.7 29320.7,27337 29317,27337C29312.6,27337 29310.1,27341.8 29310.1,27347.5C29310.1,27353.2 29312.8,27358 29317.5,27358C29320.1,27358 29322.1,27356.5 29323.4,27354.1ZM29316.9,27341C29318.8,27341 29319.8,27343 29319.8,27345L29313.7,27345C29314,27342.4 29315.2,27341 29316.9,27341Z" style="fill:white;fill-rule:nonzero;"/>
                <path d="M29325.7,27357.2L29329,27357.2L29329,27344.5C29329.5,27343.3 29330.5,27341.6 29332.2,27341.6C29333.8,27341.6 29334.8,27343.3 29334.8,27345.9L29334.8,27357.2L29338.2,27357.2L29338.2,27345.7C29338.2,27339.9 29335.9,27337 29333,27337C29331.2,27337 29330,27338 29329,27339.3L29329,27337.8L29325.7,27337.8L29325.7,27357.2Z" style="fill:white;fill-rule:nonzero;"/>
                <path d="M29340.1,27354.4C29341.4,27356.6 29343.1,27358 29345.5,27358C29348,27358 29350.3,27355.8 29350.3,27351.7C29350.3,27345 29343.9,27346.1 29343.9,27342.8C29343.9,27341.8 29344.4,27340.9 29345.5,27340.9C29346.5,27340.9 29347.4,27342 29348.1,27343.2L29350.3,27340.3C29349.4,27338.4 29347.5,27337 29345.4,27337C29342.6,27337 29340.6,27339.6 29340.6,27343C29340.6,27349.9 29347.1,27348.6 29347.1,27352C29347.1,27353.2 29346.5,27354.1 29345.4,27354.1C29344.1,27354.1 29343.1,27353 29342.3,27351.5L29340.1,27354.4Z" style="fill:white;fill-rule:nonzero;"/>
                <path d="M29364.9,27354.1L29362.5,27351.3C29361.8,27352.7 29360.5,27353.6 29359,27353.6C29356.9,27353.6 29355.4,27352.1 29355.1,27348.5L29364.5,27348.5C29364.6,27347.9 29364.7,27346.9 29364.7,27345.8C29364.7,27340.7 29362.2,27337 29358.5,27337C29354.1,27337 29351.6,27341.8 29351.6,27347.5C29351.6,27353.2 29354.3,27358 29359.1,27358C29361.6,27358 29363.7,27356.5 29364.9,27354.1ZM29358.4,27341C29360.3,27341 29361.3,27343 29361.4,27345L29355.2,27345C29355.6,27342.4 29356.7,27341 29358.4,27341Z" style="fill:white;fill-rule:nonzero;"/>
                <path d="M29367.2,27357.2L29370.6,27357.2L29370.6,27344.5C29371.1,27343.3 29371.9,27341.6 29373.4,27341.6C29374.9,27341.6 29375.8,27343.1 29375.8,27345.5L29375.8,27357.2L29379.2,27357.2L29379.2,27345.3C29379.2,27345 29379.2,27344.7 29379.2,27344.4C29379.7,27343.1 29380.5,27341.6 29382,27341.6C29383.5,27341.6 29384.4,27343.1 29384.4,27345.5L29384.4,27357.2L29387.8,27357.2L29387.8,27345.3C29387.8,27339.8 29385.6,27337 29382.8,27337C29380.6,27337 29379.3,27338.5 29378.3,27340.2C29377.5,27338.1 29376,27337 29374.3,27337C29372.6,27337 29371.5,27338 29370.6,27339.2L29370.6,27337.8L29367.2,27337.8L29367.2,27357.2Z" style="fill:white;fill-rule:nonzero;"/>
                <path d="M29405.2,27347.5C29405.2,27341.8 29402.7,27337 29398.4,27337C29396.6,27337 29395.3,27337.9 29394.2,27339.4L29394.2,27328.3L29390.8,27328.3L29390.8,27357.2L29394.2,27357.2L29394.2,27355.7C29395.3,27357.2 29396.6,27358 29398.4,27358C29402.7,27358 29405.2,27353.2 29405.2,27347.5ZM29397.9,27341.6C29400.2,27341.6 29401.7,27344.1 29401.7,27347.5C29401.7,27350.9 29400.2,27353.4 29397.9,27353.4C29396.4,27353.4 29395.1,27352.4 29394.2,27350.6L29394.2,27344.4C29395,27342.6 29396.4,27341.6 29397.9,27341.6Z" style="fill:white;fill-rule:nonzero;"/>
                <rect x="29407.5" y="27328.3" width="3.38" height="28.966" style="fill:white;fill-rule:nonzero;"/>
                <path d="M29426.5,27354.1L29424.1,27351.3C29423.3,27352.7 29422.1,27353.6 29420.6,27353.6C29418.5,27353.6 29417,27352.1 29416.6,27348.5L29426,27348.5C29426.1,27347.9 29426.2,27346.9 29426.2,27345.8C29426.2,27340.7 29423.8,27337 29420.1,27337C29415.7,27337 29413.2,27341.8 29413.2,27347.5C29413.2,27353.2 29415.9,27358 29420.6,27358C29423.2,27358 29425.2,27356.5 29426.5,27354.1ZM29420,27341C29421.9,27341 29422.9,27343 29422.9,27345L29416.7,27345C29417.1,27342.4 29418.3,27341 29420,27341Z" style="fill:white;fill-rule:nonzero;"/>
            </g>
        </g>
    </g>
</svg>
