<?xml version="1.0" encoding="UTF-8" standalone="no"?>
<!DOCTYPE svg PUBLIC "-//W3C//DTD SVG 1.1//EN" "http://www.w3.org/Graphics/SVG/1.1/DTD/svg11.dtd">
<svg width="100%" height="100%" viewBox="0 0 800 1092" version="1.1" xmlns="http://www.w3.org/2000/svg" xmlns:xlink="http://www.w3.org/1999/xlink" xml:space="preserve" xmlns:serif="http://www.serif.com/" style="fill-rule:evenodd;clip-rule:evenodd;stroke-linecap:round;stroke-miterlimit:10;">
    <g transform="matrix(1,0,0,1,-20526.1,-46148)">
        <g id="schéma-mobile-2--vectorisé-" serif:id="schéma mobile 2 (vectorisé)" transform="matrix(1.6,0,0,0.830569,20526.1,46148)">
            <rect x="0" y="0" width="500" height="1313.92" style="fill:none;"/>
            <g transform="matrix(5.01134e-17,1.57658,-0.482781,5.69476e-17,16713.9,-61381.9)">
                <path d="M39345.8,33807.7C39350.8,33817.6 39358,33823.3 39365.7,33823.3L39549.6,33823.3C39585.6,33823.3 39614.9,33873 39614.9,33934.1L39614.9,34366.6C39614.9,34427.8 39585.6,34477.5 39549.6,34477.5L39353.7,34477.5C39351.5,34477.5 39349.3,34476 39347.7,34473.4C39346.2,34471.1 39344.9,34468.6 39343.6,34465.8L39308.2,34388.5C39305.7,34383 39301.8,34379.9 39297.8,34379.9C39293.7,34379.9 39289.9,34383.1 39287.4,34388.5C39287.4,34388.5 39257.4,34453.9 39248.6,34472.6C39246.7,34475.7 39244.2,34477.5 39241.6,34477.5C39204.1,34477.5 39045.8,34477.5 39045.8,34477.5C39009.7,34477.5 38980.4,34427.8 38980.4,34366.6L38980.4,33934.1C38980.4,33873 39009.7,33823.3 39045.8,33823.3L39225.9,33823.3C39239.3,33823.3 39252,33813.3 39260.6,33796.1L39291.7,33733.9C39293.8,33729.6 39297,33727.1 39300.3,33727.1C39303.6,33727.1 39306.8,33729.6 39308.9,33733.9L39345.8,33807.7ZM39343.4,33811.2L39306.5,33737.4C39305,33734.3 39302.7,33732.5 39300.3,33732.5C39297.9,33732.5 39295.7,33734.3 39294.1,33737.4L39263,33799.5C39253.8,33818 39240.2,33828.7 39225.9,33828.7L39045.8,33828.7C39011.4,33828.7 38983.6,33875.9 38983.6,33934.1L38983.6,34366.6C38983.6,34424.8 39011.4,34472.1 39045.8,34472.1C39045.8,34472.1 39204.1,34472.1 39241.6,34472.1C39243.3,34472.1 39245,34471 39246.2,34469C39255.2,34449.9 39284.9,34385.2 39284.9,34385.2C39288,34378.4 39292.7,34374.5 39297.8,34374.5C39302.8,34374.5 39307.6,34378.4 39310.7,34385.2L39346.1,34462.5C39347.3,34465 39348.5,34467.4 39349.9,34469.5C39350.9,34471.2 39352.3,34472.1 39353.7,34472.1L39549.6,34472.1C39583.9,34472.1 39611.8,34424.8 39611.8,34366.6L39611.8,33934.1C39611.8,33875.9 39583.9,33828.7 39549.6,33828.7L39365.7,33828.7C39357.1,33828.7 39348.9,33822.3 39343.4,33811.2Z" style="fill:rgb(87,94,181);"/>
            </g>
            <g transform="matrix(1.08706,0,0,0.929193,-31697.2,-25207.2)">
                <path d="M29291.4,27343.8L29305.7,27343.8L29305.7,27332.6L29297.3,27332.6L29297.3,27322.3L29304.4,27322.3L29304.4,27311.1L29297.3,27311.1L29297.3,27301.8L29305.7,27301.8L29305.7,27290.6L29291.4,27290.6L29291.4,27343.8Z" style="fill:rgb(67,75,172);fill-rule:nonzero;"/>
                <path d="M29306.5,27305.5L29312.3,27343.8L29319.2,27343.8L29324.9,27305.5L29319.3,27305.5L29315.7,27329.3L29312.2,27305.5L29306.5,27305.5Z" style="fill:rgb(67,75,172);fill-rule:nonzero;"/>
                <path d="M29330.5,27345C29332.2,27345 29334.1,27343.3 29335.1,27340.9L29335.1,27343.8L29340.3,27343.8L29340.3,27319.6C29340.3,27311.3 29337.8,27304 29332.5,27304C29329.4,27304 29326.9,27306.9 29325.3,27311.7L29329.2,27318.4C29329.9,27315.9 29331,27314.4 29332.4,27314.4C29333.9,27314.4 29335,27316.6 29335.1,27319.5L29330.3,27321.3C29326.7,27322.7 29324.7,27327.2 29324.7,27333C29324.7,27340.5 29327.1,27345 29330.5,27345ZM29329.9,27332.4C29329.9,27330.7 29330.4,27329.5 29331.8,27329L29335.1,27327.7L29335.1,27331.5C29334.4,27333.8 29333.3,27335.6 29331.6,27335.6C29330.6,27335.6 29329.9,27334.4 29329.9,27332.4Z" style="fill:rgb(67,75,172);fill-rule:nonzero;"/>
                <rect x="29343.5" y="27286.8" width="5.276" height="57.032" style="fill:rgb(67,75,172);fill-rule:nonzero;"/>
                <path d="M29362.6,27327.2C29362.6,27331.2 29361.7,27334 29359.8,27334C29357.9,27334 29357,27331.2 29357,27327.2L29357,27305.5L29351.7,27305.5L29351.7,27326.5C29351.7,27338 29354.6,27345.3 29359.8,27345.3C29365,27345.3 29367.9,27338 29367.9,27326.5L29367.9,27305.5L29362.6,27305.5L29362.6,27327.2Z" style="fill:rgb(67,75,172);fill-rule:nonzero;"/>
                <path d="M29375.4,27345C29377.2,27345 29379.1,27343.3 29380,27340.9L29380,27343.8L29385.3,27343.8L29385.3,27319.6C29385.3,27311.3 29382.8,27304 29377.5,27304C29374.4,27304 29371.8,27306.9 29370.3,27311.7L29374.1,27318.4C29374.9,27315.9 29375.9,27314.4 29377.3,27314.4C29378.9,27314.4 29380,27316.6 29380,27319.5L29375.3,27321.3C29371.7,27322.7 29369.7,27327.2 29369.7,27333C29369.7,27340.5 29372.1,27345 29375.4,27345ZM29374.9,27332.4C29374.9,27330.7 29375.4,27329.5 29376.7,27329L29380,27327.7L29380,27331.5C29379.4,27333.8 29378.3,27335.6 29376.6,27335.6C29375.6,27335.6 29374.9,27334.4 29374.9,27332.4Z" style="fill:rgb(67,75,172);fill-rule:nonzero;"/>
                <path d="M29389.6,27328.9C29389.6,27338.3 29391.5,27344.6 29396,27344.6C29397.6,27344.6 29398.6,27344.1 29399.5,27343.2L29399.5,27332.8C29399,27333.3 29398.2,27333.6 29397,27333.6C29395.6,27333.6 29394.9,27332 29394.9,27328.9L29394.9,27316.3L29399.5,27316.3L29399.5,27305.5L29394.9,27305.5L29394.9,27295.9L29389.6,27295.9L29389.6,27305.5L29386.5,27305.5L29386.5,27316.3L29389.6,27316.3L29389.6,27328.9Z" style="fill:rgb(67,75,172);fill-rule:nonzero;"/>
                <path d="M29404.5,27301.3C29406.3,27301.3 29407.8,27297.7 29407.8,27293.6C29407.8,27289.5 29406.3,27286 29404.5,27286C29402.7,27286 29401.2,27289.5 29401.2,27293.6C29401.2,27297.7 29402.7,27301.3 29404.5,27301.3ZM29401.8,27343.8L29407.1,27343.8L29407.1,27305.5L29401.8,27305.5L29401.8,27343.8Z" style="fill:rgb(67,75,172);fill-rule:nonzero;"/>
                <path d="M29418.7,27304C29413.2,27304 29409.4,27313 29409.4,27324.7C29409.4,27336.4 29413.2,27345.3 29418.7,27345.3C29424.2,27345.3 29427.9,27336.4 29427.9,27324.7C29427.9,27313 29424.2,27304 29418.7,27304ZM29418.7,27334C29416.5,27334 29414.9,27330.4 29414.9,27324.7C29414.9,27319 29416.5,27315.3 29418.7,27315.3C29420.8,27315.3 29422.5,27318.9 29422.5,27324.7C29422.5,27330.3 29420.8,27334 29418.7,27334Z" style="fill:rgb(67,75,172);fill-rule:nonzero;"/>
                <path d="M29430.2,27343.8L29435.5,27343.8L29435.5,27319.9C29435.8,27318.7 29436.7,27315.3 29438.5,27315.3C29440.2,27315.3 29441.1,27318 29441.1,27321.8L29441.1,27343.8L29446.4,27343.8L29446.4,27321.3C29446.4,27309.7 29443.5,27304 29439.9,27304C29438,27304 29436.6,27305.5 29435.5,27307.6L29435.5,27305.5L29430.2,27305.5L29430.2,27343.8Z" style="fill:rgb(67,75,172);fill-rule:nonzero;"/>
            </g>
            <g transform="matrix(0.715599,0,0,4.78643,-20778.9,-130306)">
                <path d="M29226.9,27295.1L29237.3,27295.1C29245.7,27295.1 29251.4,27293.3 29251.4,27291.2C29251.4,27289.1 29245.7,27287.3 29237.3,27287.3L29226.9,27287.3L29226.9,27295.1ZM29237.4,27288.8C29242.3,27288.8 29245.8,27289.8 29245.8,27291.2C29245.8,27292.6 29242.3,27293.7 29237.4,27293.7L29232.3,27293.7L29232.3,27288.8L29237.4,27288.8Z" style="fill:rgb(67,75,172);fill-rule:nonzero;"/>
                <path d="M29256.8,27288.5C29258.5,27288.5 29259.9,27288.1 29259.9,27287.6C29259.9,27287.1 29258.5,27286.7 29256.8,27286.7C29255.1,27286.7 29253.7,27287.1 29253.7,27287.6C29253.7,27288.1 29255.1,27288.5 29256.8,27288.5ZM29254.4,27295.1L29259.2,27295.1L29259.2,27289.5L29254.4,27289.5L29254.4,27295.1Z" style="fill:rgb(67,75,172);fill-rule:nonzero;"/>
                <path d="M29261.5,27294.3C29263.3,27294.9 29265.7,27295.3 29269.1,27295.3C29272.7,27295.3 29275.9,27294.7 29276,27293.5C29276,27291.6 29266.9,27291.9 29266.9,27291C29266.9,27290.7 29267.6,27290.4 29269.1,27290.4C29270.6,27290.4 29271.9,27290.7 29272.8,27291.1L29276,27290.2C29274.7,27289.7 29272,27289.3 29269.1,27289.3C29265.1,27289.3 29262.3,27290 29262.3,27291C29262.3,27293 29271.4,27292.6 29271.4,27293.6C29271.4,27293.9 29270.6,27294.2 29269.1,27294.2C29267.2,27294.2 29265.8,27293.9 29264.7,27293.4L29261.5,27294.3Z" style="fill:rgb(67,75,172);fill-rule:nonzero;"/>
                <path d="M29288,27294C29284.8,27294 29282.5,27293.3 29282.5,27292.3C29282.5,27291.3 29284.8,27290.6 29287.9,27290.6C29289.9,27290.6 29291.4,27290.9 29292.3,27291.3L29296,27290.4C29294.3,27289.7 29291.5,27289.3 29288,27289.3C29281.4,27289.3 29277.5,27290.7 29277.5,27292.3C29277.5,27293.9 29281.4,27295.3 29288,27295.3C29291.5,27295.3 29294.3,27294.9 29296,27294.2L29292.3,27293.3C29291.4,27293.7 29289.9,27294 29288,27294Z" style="fill:rgb(67,75,172);fill-rule:nonzero;"/>
                <path d="M29310.7,27292.7C29310.7,27293.5 29309.2,27294 29306.6,27294C29304,27294 29302.6,27293.5 29302.6,27292.7L29302.6,27289.5L29297.7,27289.5L29297.7,27292.6C29297.7,27294.3 29301,27295.3 29306.6,27295.3C29312.2,27295.3 29315.5,27294.3 29315.5,27292.6L29315.5,27289.5L29310.7,27289.5L29310.7,27292.7Z" style="fill:rgb(67,75,172);fill-rule:nonzero;"/>
                <path d="M29317.5,27294.3C29319.3,27294.9 29321.8,27295.3 29325.2,27295.3C29328.8,27295.3 29332,27294.7 29332,27293.5C29332,27291.6 29322.9,27291.9 29322.9,27291C29322.9,27290.7 29323.6,27290.4 29325.2,27290.4C29326.6,27290.4 29327.9,27290.7 29328.9,27291.1L29332,27290.2C29330.7,27289.7 29328,27289.3 29325.1,27289.3C29321.2,27289.3 29318.3,27290 29318.3,27291C29318.3,27293 29327.4,27292.6 29327.4,27293.6C29327.4,27293.9 29326.6,27294.2 29325.1,27294.2C29323.3,27294.2 29321.9,27293.9 29320.7,27293.4L29317.5,27294.3Z" style="fill:rgb(67,75,172);fill-rule:nonzero;"/>
                <path d="M29333,27294.3C29334.8,27294.9 29337.3,27295.3 29340.7,27295.3C29344.2,27295.3 29347.5,27294.7 29347.5,27293.5C29347.5,27291.6 29338.4,27291.9 29338.4,27291C29338.4,27290.7 29339.1,27290.4 29340.7,27290.4C29342.1,27290.4 29343.4,27290.7 29344.4,27291.1L29347.5,27290.2C29346.2,27289.7 29343.5,27289.3 29340.6,27289.3C29336.7,27289.3 29333.8,27290 29333.8,27291C29333.8,27293 29342.9,27292.6 29342.9,27293.6C29342.9,27293.9 29342.1,27294.2 29340.6,27294.2C29338.8,27294.2 29337.4,27293.9 29336.2,27293.4L29333,27294.3Z" style="fill:rgb(67,75,172);fill-rule:nonzero;"/>
                <path d="M29352.9,27288.5C29354.6,27288.5 29356,27288.1 29356,27287.6C29356,27287.1 29354.6,27286.7 29352.9,27286.7C29351.2,27286.7 29349.7,27287.1 29349.7,27287.6C29349.7,27288.1 29351.2,27288.5 29352.9,27288.5ZM29350.5,27295.1L29355.3,27295.1L29355.3,27289.5L29350.5,27289.5L29350.5,27295.1Z" style="fill:rgb(67,75,172);fill-rule:nonzero;"/>
                <path d="M29368.6,27289.3C29362.4,27289.3 29358.1,27290.6 29358.1,27292.3C29358.1,27294 29362.4,27295.3 29368.6,27295.3C29374.8,27295.3 29379,27294 29379,27292.3C29379,27290.6 29374.8,27289.3 29368.6,27289.3ZM29368.6,27294C29365.5,27294 29363.1,27293.3 29363.1,27292.3C29363.1,27291.3 29365.5,27290.6 29368.6,27290.6C29371.7,27290.6 29374,27291.3 29374,27292.3C29374,27293.3 29371.7,27294 29368.6,27294Z" style="fill:rgb(67,75,172);fill-rule:nonzero;"/>
                <path d="M29381.9,27295.1L29386.7,27295.1L29386.7,27291.5C29387.4,27291.1 29388.7,27290.6 29391.1,27290.6C29393.4,27290.6 29394.9,27291.1 29394.9,27291.8L29394.9,27295.1L29399.7,27295.1L29399.7,27291.8C29399.7,27290.1 29396.4,27289.3 29392.3,27289.3C29389.8,27289.3 29388,27289.6 29386.7,27290L29386.7,27289.5L29381.9,27289.5L29381.9,27295.1Z" style="fill:rgb(67,75,172);fill-rule:nonzero;"/>
                <path d="M29231.2,27311.3C29233.5,27311.3 29235.7,27311 29237,27310.5L29237,27311.1L29241.8,27311.1L29241.8,27307.5C29241.8,27306.2 29238.9,27305.3 29233.4,27305.3C29229.9,27305.3 29227.1,27305.7 29225.4,27306.4L29228.9,27307.2C29230,27306.8 29231.4,27306.5 29233.3,27306.5C29235.4,27306.5 29237,27306.9 29237,27307.5L29237,27307.6L29231.1,27307.9C29227.1,27308.1 29224.8,27308.7 29224.8,27309.6C29224.8,27310.6 29227.4,27311.3 29231.2,27311.3ZM29229.6,27309.5C29229.6,27309.2 29230.4,27308.9 29232.4,27308.8L29237,27308.6L29237,27309.4C29236,27309.8 29234.4,27310.1 29232.2,27310.1C29230.6,27310.1 29229.6,27309.9 29229.6,27309.5Z" style="fill:rgb(67,75,172);fill-rule:nonzero;"/>
                <path d="M29242.8,27305.5L29249.7,27311.1L29256,27311.1L29263,27305.5L29257.8,27305.5L29252.9,27309.5L29248,27305.5L29242.8,27305.5Z" style="fill:rgb(67,75,172);fill-rule:nonzero;"/>
                <path d="M29281.8,27310.2L29278.4,27309.4C29277.4,27309.8 29275.6,27310 29273.5,27310C29270.5,27310 29268.3,27309.6 29267.8,27308.6L29281.2,27308.6C29281.3,27308.4 29281.5,27308.1 29281.5,27307.8C29281.5,27306.3 29278,27305.3 29272.7,27305.3C29266.5,27305.3 29262.9,27306.6 29262.9,27308.3C29262.9,27309.9 29266.7,27311.3 29273.5,27311.3C29277.1,27311.3 29280.1,27310.9 29281.8,27310.2ZM29272.6,27306.4C29275.3,27306.4 29276.7,27307 29276.8,27307.6L29268,27307.6C29268.5,27306.8 29270.2,27306.4 29272.6,27306.4Z" style="fill:rgb(67,75,172);fill-rule:nonzero;"/>
                <path d="M29293.7,27310C29290.5,27310 29288.1,27309.3 29288.1,27308.3C29288.1,27307.3 29290.5,27306.6 29293.6,27306.6C29295.6,27306.6 29297.1,27306.9 29298,27307.3L29301.7,27306.4C29299.9,27305.7 29297.1,27305.3 29293.7,27305.3C29287.1,27305.3 29283.2,27306.7 29283.2,27308.3C29283.2,27309.9 29287.1,27311.3 29293.7,27311.3C29297.1,27311.3 29299.9,27310.9 29301.7,27310.2L29298,27309.3C29297.1,27309.7 29295.6,27310 29293.7,27310Z" style="fill:rgb(67,75,172);fill-rule:nonzero;"/>
                <rect x="29312.5" y="27302.8" width="4.801" height="8.304" style="fill:rgb(67,75,172);fill-rule:nonzero;"/>
                <path d="M29339.1,27310.2L29335.6,27309.4C29334.6,27309.8 29332.8,27310 29330.7,27310C29327.7,27310 29325.5,27309.6 29325.1,27308.6L29338.4,27308.6C29338.6,27308.4 29338.7,27308.1 29338.7,27307.8C29338.7,27306.3 29335.3,27305.3 29330,27305.3C29323.7,27305.3 29320.2,27306.6 29320.2,27308.3C29320.2,27309.9 29324,27311.3 29330.8,27311.3C29334.3,27311.3 29337.3,27310.9 29339.1,27310.2ZM29329.8,27306.4C29332.5,27306.4 29333.9,27307 29334,27307.6L29325.2,27307.6C29325.8,27306.8 29327.4,27306.4 29329.8,27306.4Z" style="fill:rgb(67,75,172);fill-rule:nonzero;"/>
                <path d="M29340,27310.3C29341.8,27310.9 29344.2,27311.3 29347.6,27311.3C29351.2,27311.3 29354.4,27310.7 29354.5,27309.5C29354.5,27307.6 29345.4,27307.9 29345.4,27306.9C29345.4,27306.7 29346.1,27306.4 29347.6,27306.4C29349.1,27306.4 29350.3,27306.7 29351.3,27307.1L29354.5,27306.2C29353.1,27305.7 29350.5,27305.3 29347.6,27305.3C29343.6,27305.3 29340.8,27306 29340.8,27307C29340.8,27309 29349.9,27308.6 29349.9,27309.6C29349.9,27309.9 29349.1,27310.2 29347.5,27310.2C29345.7,27310.2 29344.3,27309.9 29343.2,27309.4L29340,27310.3Z" style="fill:rgb(67,75,172);fill-rule:nonzero;"/>
                <path d="M29366.1,27313.8L29370.9,27313.8L29370.9,27310.6C29372.4,27311.1 29374.2,27311.3 29376.8,27311.3C29382.9,27311.3 29386.5,27309.9 29386.5,27308.3C29386.5,27306.7 29382.9,27305.3 29376.8,27305.3C29374.2,27305.3 29372.4,27305.5 29370.9,27306L29370.9,27305.5L29366.1,27305.5L29366.1,27313.8ZM29376.2,27306.6C29379.4,27306.6 29381.5,27307.3 29381.5,27308.3C29381.5,27309.3 29379.4,27310 29376.2,27310C29374,27310 29372.2,27309.7 29370.9,27309.2L29370.9,27307.4C29372.1,27306.9 29373.9,27306.6 29376.2,27306.6Z" style="fill:rgb(67,75,172);fill-rule:nonzero;"/>
                <path d="M29389.4,27311.1L29394.2,27311.1L29394.2,27307.5C29394.9,27307.2 29396.4,27306.8 29398.8,27306.8C29399.6,27306.8 29400.3,27306.8 29400.9,27306.9L29400.9,27305.5C29400.4,27305.4 29399.9,27305.4 29399.2,27305.4C29397.1,27305.4 29395.4,27305.7 29394.2,27306.1L29394.2,27305.5L29389.4,27305.5L29389.4,27311.1Z" style="fill:rgb(67,75,172);fill-rule:nonzero;"/>
                <path d="M29411.5,27305.3C29405.3,27305.3 29401.1,27306.6 29401.1,27308.3C29401.1,27310 29405.3,27311.3 29411.5,27311.3C29417.7,27311.3 29421.9,27310 29421.9,27308.3C29421.9,27306.6 29417.7,27305.3 29411.5,27305.3ZM29411.6,27310C29408.4,27310 29406.1,27309.3 29406.1,27308.3C29406.1,27307.3 29408.4,27306.6 29411.6,27306.6C29414.6,27306.6 29416.9,27307.3 29416.9,27308.3C29416.9,27309.3 29414.6,27310 29411.6,27310Z" style="fill:rgb(67,75,172);fill-rule:nonzero;"/>
                <path d="M29427.1,27304.5C29428.7,27304.5 29430.2,27304.1 29430.2,27303.6C29430.2,27303.1 29428.7,27302.7 29427.1,27302.7C29425.4,27302.7 29423.9,27303.1 29423.9,27303.6C29423.9,27304.1 29425.4,27304.5 29427.1,27304.5ZM29429.5,27311.7L29429.5,27305.5L29424.7,27305.5L29424.7,27311.7C29424.7,27312.3 29423.6,27312.6 29421.7,27312.6C29420.4,27312.6 29419.5,27312.5 29418.9,27312.5L29418.9,27313.7C29419.8,27313.8 29420.9,27313.9 29422.5,27313.9C29427.3,27313.9 29429.5,27313.1 29429.5,27311.7Z" style="fill:rgb(67,75,172);fill-rule:nonzero;"/>
                <path d="M29451.3,27310.2L29447.9,27309.4C29446.9,27309.8 29445,27310 29443,27310C29440,27310 29437.8,27309.6 29437.3,27308.6L29450.7,27308.6C29450.8,27308.4 29451,27308.1 29451,27307.8C29451,27306.3 29447.5,27305.3 29442.2,27305.3C29436,27305.3 29432.4,27306.6 29432.4,27308.3C29432.4,27309.9 29436.2,27311.3 29443,27311.3C29446.6,27311.3 29449.5,27310.9 29451.3,27310.2ZM29442.1,27306.4C29444.8,27306.4 29446.2,27307 29446.2,27307.6L29437.5,27307.6C29438,27306.8 29439.6,27306.4 29442.1,27306.4Z" style="fill:rgb(67,75,172);fill-rule:nonzero;"/>
                <path d="M29455.3,27309.1C29455.3,27310.4 29457.6,27311.2 29462.4,27311.2C29463.9,27311.2 29465.1,27311.1 29466,27311L29466,27309.8C29465.4,27309.9 29464.5,27309.9 29463.2,27309.9C29461.3,27309.9 29460.2,27309.7 29460.2,27309.1L29460.2,27306.8L29466,27306.8L29466,27305.5L29460.2,27305.5L29460.2,27304.1L29455.3,27304.1L29455.3,27305.5L29451.8,27305.5L29451.8,27306.8L29455.3,27306.8L29455.3,27309.1Z" style="fill:rgb(67,75,172);fill-rule:nonzero;"/>
                <path d="M29467.1,27310.3C29468.9,27310.9 29471.4,27311.3 29474.8,27311.3C29478.3,27311.3 29481.6,27310.7 29481.6,27309.5C29481.6,27307.6 29472.5,27307.9 29472.5,27306.9C29472.5,27306.7 29473.2,27306.4 29474.8,27306.4C29476.2,27306.4 29477.5,27306.7 29478.5,27307.1L29481.6,27306.2C29480.3,27305.7 29477.6,27305.3 29474.7,27305.3C29470.7,27305.3 29467.9,27306 29467.9,27307C29467.9,27309 29477,27308.6 29477,27309.6C29477,27309.9 29476.2,27310.2 29474.7,27310.2C29472.9,27310.2 29471.5,27309.9 29470.3,27309.4L29467.1,27310.3Z" style="fill:rgb(67,75,172);fill-rule:nonzero;"/>
                <path d="M29238.8,27338.7C29232.9,27338.7 29228.6,27337.4 29228.6,27335.6C29228.6,27333.9 29232.9,27332.5 29238.8,27332.5C29242.4,27332.5 29245.3,27333 29247.1,27333.8L29249.9,27333.1C29247.5,27332.2 29243.6,27331.5 29238.8,27331.5C29230.6,27331.5 29224.9,27333.4 29224.9,27335.6C29224.9,27337.8 29230.6,27339.7 29238.8,27339.7C29243.6,27339.7 29247.5,27339.1 29249.9,27338.1L29247.1,27337.5C29245.3,27338.2 29242.4,27338.7 29238.8,27338.7Z" style="fill:rgb(67,75,172);fill-rule:nonzero;"/>
                <rect x="29253.9" y="27331.2" width="3.213" height="8.304" style="fill:rgb(67,75,172);fill-rule:nonzero;"/>
                <path d="M29268,27339.7C29270.4,27339.7 29272.9,27339.3 29274.3,27338.8L29274.3,27339.5L29277.6,27339.5L29277.6,27335.8C29277.6,27334.5 29274.7,27333.7 29269.8,27333.7C29266.5,27333.7 29263.8,27334.1 29262.2,27334.8L29264.6,27335.3C29265.8,27334.8 29267.5,27334.5 29269.7,27334.5C29272.5,27334.5 29274.3,27335 29274.3,27335.8L29274.3,27336.1L29267.9,27336.5C29263.9,27336.7 29261.7,27337.3 29261.7,27338.1C29261.7,27339 29264.2,27339.7 29268,27339.7ZM29264.9,27338.1C29264.9,27337.6 29266.1,27337.2 29268.7,27337.1L29274.3,27336.8L29274.3,27337.9C29273.1,27338.5 29271,27338.9 29268.5,27338.9C29266.3,27338.9 29264.9,27338.5 29264.9,27338.1Z" style="fill:rgb(67,75,172);fill-rule:nonzero;"/>
                <path d="M29282.9,27339.5L29286.1,27339.5L29286.1,27335.7C29287.3,27335.1 29288.9,27334.7 29291.4,27334.7C29292.2,27334.7 29292.7,27334.8 29293.3,27334.8L29293.3,27333.9C29292.8,27333.8 29292.3,27333.8 29291.7,27333.8C29289.2,27333.8 29287.5,27334.1 29286.1,27334.6L29286.1,27333.9L29282.9,27333.9L29282.9,27339.5Z" style="fill:rgb(67,75,172);fill-rule:nonzero;"/>
                <path d="M29298.4,27332.5C29299.6,27332.5 29300.6,27332.2 29300.6,27331.8C29300.6,27331.5 29299.6,27331.2 29298.4,27331.2C29297.1,27331.2 29296.1,27331.5 29296.1,27331.8C29296.1,27332.2 29297.1,27332.5 29298.4,27332.5ZM29296.8,27339.5L29300,27339.5L29300,27333.9L29296.8,27333.9L29296.8,27339.5Z" style="fill:rgb(67,75,172);fill-rule:nonzero;"/>
                <path d="M29303.2,27333.9L29303.2,27334.8L29306.7,27334.8L29306.7,27339.5L29310,27339.5L29310,27334.8L29316.6,27334.8L29316.6,27333.9L29310,27333.9L29310,27333.2C29310,27332.5 29311.4,27332 29313.6,27332C29314.7,27332 29315.6,27332.1 29316.3,27332.3L29317.7,27331.5C29316.7,27331.3 29315.3,27331.2 29313.5,27331.2C29309.4,27331.2 29306.7,27332 29306.7,27333.2L29306.7,27333.9L29303.2,27333.9Z" style="fill:rgb(67,75,172);fill-rule:nonzero;"/>
                <path d="M29321,27332.5C29322.3,27332.5 29323.3,27332.2 29323.3,27331.8C29323.3,27331.5 29322.3,27331.2 29321,27331.2C29319.8,27331.2 29318.8,27331.5 29318.8,27331.8C29318.8,27332.2 29319.8,27332.5 29321,27332.5ZM29319.4,27339.5L29322.6,27339.5L29322.6,27333.9L29319.4,27333.9L29319.4,27339.5Z" style="fill:rgb(67,75,172);fill-rule:nonzero;"/>
                <path d="M29337.1,27338.8C29332.9,27338.8 29330,27337.9 29330,27336.7C29330,27335.5 29332.9,27334.6 29337,27334.6C29339.4,27334.6 29341.3,27334.9 29342.5,27335.4L29345,27334.8C29343.3,27334.2 29340.5,27333.7 29337,27333.7C29330.7,27333.7 29326.7,27335.1 29326.7,27336.7C29326.7,27338.3 29330.7,27339.7 29337,27339.7C29340.5,27339.7 29343.3,27339.3 29345,27338.6L29342.5,27338C29341.3,27338.5 29339.4,27338.8 29337.1,27338.8Z" style="fill:rgb(67,75,172);fill-rule:nonzero;"/>
                <path d="M29353.2,27339.7C29355.7,27339.7 29358.2,27339.3 29359.6,27338.8L29359.6,27339.5L29362.9,27339.5L29362.9,27335.8C29362.9,27334.5 29360,27333.7 29355.1,27333.7C29351.8,27333.7 29349.1,27334.1 29347.5,27334.8L29349.9,27335.3C29351.1,27334.8 29352.8,27334.5 29355,27334.5C29357.7,27334.5 29359.6,27335 29359.6,27335.8L29359.6,27336.1L29353.2,27336.5C29349.2,27336.7 29347,27337.3 29347,27338.1C29347,27339 29349.5,27339.7 29353.2,27339.7ZM29350.2,27338.1C29350.2,27337.6 29351.4,27337.2 29354,27337.1L29359.6,27336.8L29359.6,27337.9C29358.4,27338.5 29356.3,27338.9 29353.8,27338.9C29351.5,27338.9 29350.2,27338.5 29350.2,27338.1Z" style="fill:rgb(67,75,172);fill-rule:nonzero;"/>
                <path d="M29369.3,27337.6C29369.3,27339 29371.7,27339.6 29375.9,27339.6C29377.3,27339.6 29378.3,27339.6 29379.2,27339.5L29379.2,27338.6C29378.5,27338.7 29377.6,27338.7 29376.3,27338.7C29374,27338.7 29372.5,27338.5 29372.5,27337.6L29372.5,27334.8L29379.1,27334.8L29379.1,27333.9L29372.5,27333.9L29372.5,27332.5L29369.3,27332.5L29369.3,27333.9L29365.7,27333.9L29365.7,27334.8L29369.3,27334.8L29369.3,27337.6Z" style="fill:rgb(67,75,172);fill-rule:nonzero;"/>
                <path d="M29384.5,27332.5C29385.8,27332.5 29386.8,27332.2 29386.8,27331.8C29386.8,27331.5 29385.8,27331.2 29384.5,27331.2C29383.3,27331.2 29382.3,27331.5 29382.3,27331.8C29382.3,27332.2 29383.3,27332.5 29384.5,27332.5ZM29382.9,27339.5L29386.1,27339.5L29386.1,27333.9L29382.9,27333.9L29382.9,27339.5Z" style="fill:rgb(67,75,172);fill-rule:nonzero;"/>
                <path d="M29400.5,27333.7C29394.3,27333.7 29390.2,27335.1 29390.2,27336.7C29390.2,27338.3 29394.3,27339.7 29400.5,27339.7C29406.6,27339.7 29410.8,27338.3 29410.8,27336.7C29410.8,27335.1 29406.6,27333.7 29400.5,27333.7ZM29400.5,27338.8C29396.5,27338.8 29393.5,27337.9 29393.5,27336.7C29393.5,27335.5 29396.5,27334.6 29400.5,27334.6C29404.5,27334.6 29407.4,27335.5 29407.4,27336.7C29407.4,27337.9 29404.5,27338.8 29400.5,27338.8Z" style="fill:rgb(67,75,172);fill-rule:nonzero;"/>
                <path d="M29414.9,27339.5L29418.1,27339.5L29418.1,27335.6C29419.3,27335 29421,27334.6 29423.8,27334.6C29426.7,27334.6 29428.7,27335.2 29428.7,27336.2L29428.7,27339.5L29431.9,27339.5L29431.9,27336.1C29431.9,27334.5 29428.7,27333.7 29424.4,27333.7C29421.6,27333.7 29419.6,27334.1 29418.1,27334.6L29418.1,27333.9L29414.9,27333.9L29414.9,27339.5Z" style="fill:rgb(67,75,172);fill-rule:nonzero;"/>
                <path d="M29224.8,27352.7C29224.8,27354.3 29228.6,27355.7 29234.6,27355.7C29237.4,27355.7 29239.6,27355.4 29241.3,27354.8L29241.3,27355.5L29244.6,27355.5L29244.6,27347.2L29241.3,27347.2L29241.3,27350.6C29239.6,27350 29237.4,27349.7 29234.6,27349.7C29228.6,27349.7 29224.8,27351.1 29224.8,27352.7ZM29228.2,27352.7C29228.2,27351.5 29230.9,27350.6 29235,27350.6C29237.6,27350.6 29239.9,27350.9 29241.3,27351.6L29241.3,27353.8C29239.9,27354.5 29237.6,27354.8 29235,27354.8C29230.9,27354.8 29228.2,27353.9 29228.2,27352.7Z" style="fill:rgb(67,75,172);fill-rule:nonzero;"/>
                <path d="M29267.1,27354.6L29264.7,27354C29263.5,27354.5 29261.4,27354.9 29259,27354.9C29254.9,27354.9 29252,27354.1 29251.9,27352.7L29266.5,27352.7C29266.6,27352.6 29266.7,27352.3 29266.7,27352.1C29266.7,27350.8 29263.3,27349.7 29258.2,27349.7C29252.3,27349.7 29248.6,27351 29248.6,27352.7C29248.6,27354.3 29252.5,27355.7 29259,27355.7C29262.5,27355.7 29265.4,27355.3 29267.1,27354.6ZM29258.1,27350.5C29261.5,27350.5 29263.4,27351.2 29263.5,27352L29252.1,27352C29252.8,27351 29255,27350.5 29258.1,27350.5Z" style="fill:rgb(67,75,172);fill-rule:nonzero;"/>
                <path d="M29268.8,27354.7C29270.6,27355.4 29272.9,27355.7 29276,27355.7C29279.5,27355.7 29282.4,27355.1 29282.4,27354C29282.4,27352.1 29272.8,27352.5 29272.8,27351.3C29272.8,27350.8 29273.9,27350.5 29276,27350.5C29277.6,27350.5 29279.1,27350.7 29280.1,27351.2L29282.3,27350.6C29281,27350.1 29278.7,27349.7 29275.9,27349.7C29272.3,27349.7 29269.7,27350.4 29269.7,27351.3C29269.7,27353.3 29279.3,27352.8 29279.3,27354.1C29279.3,27354.6 29278.1,27354.9 29275.9,27354.9C29274,27354.9 29272.4,27354.7 29271.1,27354.2L29268.8,27354.7Z" style="fill:rgb(67,75,172);fill-rule:nonzero;"/>
                <path d="M29300.7,27355.6C29303.2,27355.6 29305.7,27355.3 29307.1,27354.8L29307.1,27355.5L29310.3,27355.5L29310.3,27351.8C29310.3,27350.5 29307.5,27349.7 29302.6,27349.7C29299.3,27349.7 29296.6,27350.1 29295,27350.8L29297.4,27351.3C29298.5,27350.8 29300.3,27350.5 29302.5,27350.5C29305.2,27350.5 29307.1,27351 29307.1,27351.8L29307.1,27352.1L29300.7,27352.4C29296.7,27352.6 29294.5,27353.2 29294.5,27354.1C29294.5,27355 29297,27355.6 29300.7,27355.6ZM29297.7,27354.1C29297.7,27353.6 29298.9,27353.2 29301.5,27353.1L29307.1,27352.8L29307.1,27353.9C29305.9,27354.5 29303.8,27354.9 29301.3,27354.9C29299,27354.9 29297.7,27354.5 29297.7,27354.1Z" style="fill:rgb(67,75,172);fill-rule:nonzero;"/>
                <path d="M29316.8,27353.6C29316.8,27355 29319.1,27355.6 29323.4,27355.6C29324.7,27355.6 29325.8,27355.6 29326.7,27355.4L29326.7,27354.6C29326,27354.7 29325.1,27354.7 29323.8,27354.7C29321.5,27354.7 29320,27354.5 29320,27353.6L29320,27350.8L29326.6,27350.8L29326.6,27349.9L29320,27349.9L29320,27348.5L29316.8,27348.5L29316.8,27349.9L29313.2,27349.9L29313.2,27350.8L29316.8,27350.8L29316.8,27353.6Z" style="fill:rgb(67,75,172);fill-rule:nonzero;"/>
                <path d="M29331.7,27353.6C29331.7,27355 29334,27355.6 29338.3,27355.6C29339.6,27355.6 29340.7,27355.6 29341.6,27355.4L29341.6,27354.6C29340.8,27354.7 29340,27354.7 29338.7,27354.7C29336.4,27354.7 29334.9,27354.5 29334.9,27353.6L29334.9,27350.8L29341.5,27350.8L29341.5,27349.9L29334.9,27349.9L29334.9,27348.5L29331.7,27348.5L29331.7,27349.9L29328.1,27349.9L29328.1,27350.8L29331.7,27350.8L29331.7,27353.6Z" style="fill:rgb(67,75,172);fill-rule:nonzero;"/>
                <path d="M29361.9,27354.6L29359.5,27354C29358.2,27354.5 29356.2,27354.9 29353.7,27354.9C29349.6,27354.9 29346.7,27354.1 29346.6,27352.7L29361.2,27352.7C29361.3,27352.6 29361.5,27352.3 29361.5,27352.1C29361.5,27350.8 29358.1,27349.7 29352.9,27349.7C29347,27349.7 29343.3,27351 29343.3,27352.7C29343.3,27354.3 29347.3,27355.7 29353.7,27355.7C29357.3,27355.7 29360.1,27355.3 29361.9,27354.6ZM29352.8,27350.5C29356.2,27350.5 29358.1,27351.2 29358.2,27352L29346.8,27352C29347.5,27351 29349.7,27350.5 29352.8,27350.5Z" style="fill:rgb(67,75,172);fill-rule:nonzero;"/>
                <path d="M29365.8,27355.5L29369,27355.5L29369,27351.6C29370.2,27351 29371.9,27350.6 29374.7,27350.6C29377.6,27350.6 29379.6,27351.2 29379.6,27352.1L29379.6,27355.5L29382.8,27355.5L29382.8,27352.1C29382.8,27350.5 29379.6,27349.7 29375.3,27349.7C29372.5,27349.7 29370.5,27350 29369,27350.5L29369,27349.9L29365.8,27349.9L29365.8,27355.5Z" style="fill:rgb(67,75,172);fill-rule:nonzero;"/>
                <path d="M29389.2,27353.6C29389.2,27355 29391.6,27355.6 29395.8,27355.6C29397.2,27355.6 29398.2,27355.6 29399.1,27355.4L29399.1,27354.6C29398.4,27354.7 29397.5,27354.7 29396.3,27354.7C29394,27354.7 29392.5,27354.5 29392.5,27353.6L29392.5,27350.8L29399.1,27350.8L29399.1,27349.9L29392.5,27349.9L29392.5,27348.5L29389.2,27348.5L29389.2,27349.9L29385.6,27349.9L29385.6,27350.8L29389.2,27350.8L29389.2,27353.6Z" style="fill:rgb(67,75,172);fill-rule:nonzero;"/>
                <path d="M29419.4,27354.6L29417,27354C29415.8,27354.5 29413.7,27354.9 29411.2,27354.9C29407.2,27354.9 29404.2,27354.1 29404.1,27352.7L29418.8,27352.7C29418.9,27352.6 29419,27352.3 29419,27352.1C29419,27350.8 29415.6,27349.7 29410.4,27349.7C29404.5,27349.7 29400.8,27351 29400.8,27352.7C29400.8,27354.3 29404.8,27355.7 29411.2,27355.7C29414.8,27355.7 29417.6,27355.3 29419.4,27354.6ZM29410.4,27350.5C29413.7,27350.5 29415.7,27351.2 29415.8,27352L29404.4,27352C29405,27351 29407.2,27350.5 29410.4,27350.5Z" style="fill:rgb(67,75,172);fill-rule:nonzero;"/>
                <path d="M29421.1,27354.7C29422.8,27355.4 29425.2,27355.7 29428.3,27355.7C29431.8,27355.7 29434.6,27355.1 29434.7,27354C29434.7,27352.1 29425.1,27352.5 29425.1,27351.3C29425.1,27350.8 29426.2,27350.5 29428.3,27350.5C29429.9,27350.5 29431.4,27350.7 29432.4,27351.2L29434.6,27350.6C29433.3,27350.1 29430.9,27349.7 29428.2,27349.7C29424.5,27349.7 29422,27350.4 29422,27351.3C29422,27353.3 29431.5,27352.8 29431.5,27354.1C29431.5,27354.6 29430.3,27354.9 29428.2,27354.9C29426.3,27354.9 29424.7,27354.7 29423.4,27354.2L29421.1,27354.7Z" style="fill:rgb(67,75,172);fill-rule:nonzero;"/>
                <path d="M29464.8,27354.6L29462.4,27354C29461.1,27354.5 29459.1,27354.9 29456.6,27354.9C29452.5,27354.9 29449.6,27354.1 29449.5,27352.7L29464.1,27352.7C29464.2,27352.6 29464.4,27352.3 29464.4,27352.1C29464.4,27350.8 29461,27349.7 29455.8,27349.7C29449.9,27349.7 29446.2,27351 29446.2,27352.7C29446.2,27354.3 29450.2,27355.7 29456.6,27355.7C29460.2,27355.7 29463,27355.3 29464.8,27354.6ZM29455.7,27350.5C29459.1,27350.5 29461,27351.2 29461.1,27352L29449.7,27352C29450.4,27351 29452.6,27350.5 29455.7,27350.5Z" style="fill:rgb(67,75,172);fill-rule:nonzero;"/>
                <path d="M29469.6,27353.6C29469.6,27355 29472,27355.6 29476.3,27355.6C29477.6,27355.6 29478.6,27355.6 29479.6,27355.4L29479.6,27354.6C29478.8,27354.7 29478,27354.7 29476.7,27354.7C29474.4,27354.7 29472.9,27354.5 29472.9,27353.6L29472.9,27350.8L29479.5,27350.8L29479.5,27349.9L29472.9,27349.9L29472.9,27348.5L29469.6,27348.5L29469.6,27349.9L29466.1,27349.9L29466.1,27350.8L29469.6,27350.8L29469.6,27353.6Z" style="fill:rgb(67,75,172);fill-rule:nonzero;"/>
                <path d="M29231.6,27371.6C29234,27371.6 29236.5,27371.3 29238,27370.8L29238,27371.5L29241.2,27371.5L29241.2,27367.7C29241.2,27366.5 29238.3,27365.7 29233.5,27365.7C29230.2,27365.7 29227.5,27366.1 29225.8,27366.8L29228.2,27367.3C29229.4,27366.8 29231.2,27366.5 29233.4,27366.5C29236.1,27366.5 29238,27367 29238,27367.7L29238,27368.1L29231.6,27368.4C29227.5,27368.6 29225.3,27369.2 29225.3,27370.1C29225.3,27371 29227.8,27371.6 29231.6,27371.6ZM29228.6,27370C29228.6,27369.6 29229.7,27369.2 29232.3,27369.1L29238,27368.8L29238,27369.9C29236.7,27370.5 29234.7,27370.9 29232.1,27370.9C29229.9,27370.9 29228.6,27370.5 29228.6,27370Z" style="fill:rgb(67,75,172);fill-rule:nonzero;"/>
                <path d="M29246.5,27371.5L29249.7,27371.5L29249.7,27367.6C29250.8,27367 29252.5,27366.6 29255.1,27366.6C29257.8,27366.6 29259.6,27367.1 29259.6,27368L29259.6,27371.5L29262.8,27371.5L29262.8,27368C29262.8,27367.9 29262.7,27367.7 29262.7,27367.6C29264,27367 29265.7,27366.6 29268.1,27366.6C29270.8,27366.6 29272.6,27367.1 29272.6,27368L29272.6,27371.5L29275.8,27371.5L29275.8,27368C29275.8,27366.5 29272.8,27365.7 29268.7,27365.7C29265.4,27365.7 29263.4,27366.1 29261.9,27366.8C29260.7,27366 29258.5,27365.7 29255.7,27365.7C29253.1,27365.7 29251.2,27366 29249.7,27366.5L29249.7,27365.9L29246.5,27365.9L29246.5,27371.5Z" style="fill:rgb(67,75,172);fill-rule:nonzero;"/>
                <path d="M29290.8,27365L29295.2,27363.2L29291.6,27363.2L29287.7,27365L29290.8,27365ZM29298.1,27370.6L29295.7,27370C29294.4,27370.5 29292.3,27370.9 29289.9,27370.9C29285.8,27370.9 29282.9,27370 29282.8,27368.7L29297.4,27368.7C29297.5,27368.6 29297.6,27368.3 29297.6,27368.1C29297.6,27366.7 29294.3,27365.7 29289.1,27365.7C29283.2,27365.7 29279.5,27367 29279.5,27368.7C29279.5,27370.3 29283.5,27371.7 29289.9,27371.7C29293.4,27371.7 29296.3,27371.3 29298.1,27370.6ZM29289,27366.5C29292.4,27366.5 29294.3,27367.2 29294.4,27368L29283,27368C29283.7,27367 29285.9,27366.5 29289,27366.5Z" style="fill:rgb(67,75,172);fill-rule:nonzero;"/>
                <rect x="29301.9" y="27363.2" width="3.213" height="8.304" style="fill:rgb(67,75,172);fill-rule:nonzero;"/>
                <path d="M29312.5,27364.5C29313.7,27364.5 29314.7,27364.2 29314.7,27363.8C29314.7,27363.4 29313.7,27363.1 29312.5,27363.1C29311.2,27363.1 29310.2,27363.4 29310.2,27363.8C29310.2,27364.2 29311.2,27364.5 29312.5,27364.5ZM29310.8,27371.5L29314,27371.5L29314,27365.9L29310.8,27365.9L29310.8,27371.5Z" style="fill:rgb(67,75,172);fill-rule:nonzero;"/>
                <path d="M29328.4,27365.7C29322.2,27365.7 29318.1,27367.1 29318.1,27368.7C29318.1,27370.3 29322.2,27371.7 29328.4,27371.7C29334.5,27371.7 29338.7,27370.3 29338.7,27368.7C29338.7,27367.1 29334.5,27365.7 29328.4,27365.7ZM29328.4,27370.8C29324.4,27370.8 29321.5,27369.9 29321.5,27368.7C29321.5,27367.5 29324.4,27366.6 29328.4,27366.6C29332.4,27366.6 29335.3,27367.5 29335.3,27368.7C29335.3,27369.8 29332.4,27370.8 29328.4,27370.8Z" style="fill:rgb(67,75,172);fill-rule:nonzero;"/>
                <path d="M29342.8,27371.5L29346,27371.5L29346,27367.7C29347.2,27367.1 29348.8,27366.7 29351.3,27366.7C29352,27366.7 29352.6,27366.7 29353.2,27366.8L29353.2,27365.9C29352.7,27365.8 29352.2,27365.8 29351.5,27365.8C29349.1,27365.8 29347.4,27366.1 29346,27366.6L29346,27365.9L29342.8,27365.9L29342.8,27371.5Z" style="fill:rgb(67,75,172);fill-rule:nonzero;"/>
                <path d="M29361,27371.6C29363.5,27371.6 29366,27371.3 29367.4,27370.8L29367.4,27371.5L29370.6,27371.5L29370.6,27367.7C29370.6,27366.5 29367.7,27365.7 29362.9,27365.7C29359.6,27365.7 29356.9,27366.1 29355.2,27366.8L29357.6,27367.3C29358.8,27366.8 29360.6,27366.5 29362.8,27366.5C29365.5,27366.5 29367.4,27367 29367.4,27367.7L29367.4,27368.1L29361,27368.4C29356.9,27368.6 29354.7,27369.2 29354.7,27370.1C29354.7,27371 29357.3,27371.6 29361,27371.6ZM29358,27370C29358,27369.6 29359.1,27369.2 29361.8,27369.1L29367.4,27368.8L29367.4,27369.9C29366.1,27370.5 29364.1,27370.9 29361.5,27370.9C29359.3,27370.9 29358,27370.5 29358,27370Z" style="fill:rgb(67,75,172);fill-rule:nonzero;"/>
                <path d="M29377,27369.6C29377,27371 29379.4,27371.6 29383.6,27371.6C29385,27371.6 29386,27371.6 29386.9,27371.4L29386.9,27370.6C29386.2,27370.7 29385.3,27370.7 29384.1,27370.7C29381.8,27370.7 29380.3,27370.5 29380.3,27369.6L29380.3,27366.8L29386.9,27366.8L29386.9,27365.9L29380.3,27365.9L29380.3,27364.5L29377,27364.5L29377,27365.9L29373.4,27365.9L29373.4,27366.8L29377,27366.8L29377,27369.6Z" style="fill:rgb(67,75,172);fill-rule:nonzero;"/>
                <path d="M29392.3,27364.5C29393.5,27364.5 29394.5,27364.2 29394.5,27363.8C29394.5,27363.4 29393.5,27363.1 29392.3,27363.1C29391.1,27363.1 29390,27363.4 29390,27363.8C29390,27364.2 29391.1,27364.5 29392.3,27364.5ZM29390.7,27371.5L29393.9,27371.5L29393.9,27365.9L29390.7,27365.9L29390.7,27371.5Z" style="fill:rgb(67,75,172);fill-rule:nonzero;"/>
                <path d="M29408.3,27365.7C29402.1,27365.7 29397.9,27367.1 29397.9,27368.7C29397.9,27370.3 29402.1,27371.7 29408.3,27371.7C29414.4,27371.7 29418.6,27370.3 29418.6,27368.7C29418.6,27367.1 29414.4,27365.7 29408.3,27365.7ZM29408.3,27370.8C29404.2,27370.8 29401.3,27369.9 29401.3,27368.7C29401.3,27367.5 29404.2,27366.6 29408.3,27366.6C29412.3,27366.6 29415.2,27367.5 29415.2,27368.7C29415.2,27369.8 29412.3,27370.8 29408.3,27370.8Z" style="fill:rgb(67,75,172);fill-rule:nonzero;"/>
                <path d="M29422.6,27371.5L29425.8,27371.5L29425.8,27367.6C29427,27367 29428.8,27366.6 29431.5,27366.6C29434.5,27366.6 29436.4,27367.1 29436.4,27368.1L29436.4,27371.5L29439.6,27371.5L29439.6,27368.1C29439.6,27366.5 29436.5,27365.7 29432.2,27365.7C29429.3,27365.7 29427.4,27366 29425.8,27366.5L29425.8,27365.9L29422.6,27365.9L29422.6,27371.5Z" style="fill:rgb(67,75,172);fill-rule:nonzero;"/>
                <path d="M29442.9,27370.7C29444.7,27371.4 29447,27371.7 29450.1,27371.7C29453.6,27371.7 29456.5,27371.1 29456.5,27370C29456.5,27368.1 29446.9,27368.5 29446.9,27367.3C29446.9,27366.8 29448,27366.5 29450.1,27366.5C29451.7,27366.5 29453.2,27366.7 29454.2,27367.2L29456.4,27366.6C29455.1,27366.1 29452.8,27365.7 29450,27365.7C29446.4,27365.7 29443.8,27366.4 29443.8,27367.3C29443.8,27369.2 29453.4,27368.8 29453.4,27370.1C29453.4,27370.5 29452.1,27370.9 29450,27370.9C29448.1,27370.9 29446.5,27370.6 29445.2,27370.2L29442.9,27370.7Z" style="fill:rgb(67,75,172);fill-rule:nonzero;"/>
                <path d="M29224.8,27384.7C29224.8,27386.3 29228.6,27387.7 29234.6,27387.7C29237.4,27387.7 29239.6,27387.4 29241.3,27386.8L29241.3,27387.5L29244.6,27387.5L29244.6,27379.2L29241.3,27379.2L29241.3,27382.6C29239.6,27382 29237.4,27381.7 29234.6,27381.7C29228.6,27381.7 29224.8,27383.1 29224.8,27384.7ZM29228.2,27384.7C29228.2,27383.5 29230.9,27382.6 29235,27382.6C29237.6,27382.6 29239.9,27382.9 29241.3,27383.6L29241.3,27385.8C29239.9,27386.4 29237.6,27386.8 29235,27386.8C29230.9,27386.8 29228.2,27385.9 29228.2,27384.7Z" style="fill:rgb(67,75,172);fill-rule:nonzero;"/>
                <path d="M29263.5,27385.1C29263.5,27386.2 29261.4,27386.8 29258.2,27386.8C29255,27386.8 29253,27386.2 29253,27385.1L29253,27381.9L29249.8,27381.9L29249.8,27385.1C29249.8,27386.7 29253.1,27387.7 29258.2,27387.7C29263.4,27387.7 29266.7,27386.7 29266.7,27385.1L29266.7,27381.9L29263.5,27381.9L29263.5,27385.1Z" style="fill:rgb(67,75,172);fill-rule:nonzero;"/>
                <path d="M29281,27390.2L29284.2,27390.2L29284.2,27386.8C29285.9,27387.4 29288.1,27387.7 29290.9,27387.7C29296.9,27387.7 29300.7,27386.3 29300.7,27384.7C29300.7,27383.1 29296.9,27381.7 29290.9,27381.7C29288.1,27381.7 29285.9,27382 29284.2,27382.6L29284.2,27381.9L29281,27381.9L29281,27390.2ZM29290.6,27382.6C29294.6,27382.6 29297.4,27383.5 29297.4,27384.7C29297.4,27385.9 29294.6,27386.8 29290.6,27386.8C29288,27386.8 29285.7,27386.4 29284.2,27385.8L29284.2,27383.6C29285.6,27382.9 29287.9,27382.6 29290.6,27382.6Z" style="fill:rgb(67,75,172);fill-rule:nonzero;"/>
                <path d="M29304.8,27387.5L29308,27387.5L29308,27383.6C29309.2,27383.1 29310.8,27382.7 29313.3,27382.7C29314,27382.7 29314.6,27382.7 29315.2,27382.8L29315.2,27381.9C29314.7,27381.8 29314.2,27381.8 29313.6,27381.8C29311.1,27381.8 29309.4,27382.1 29308,27382.6L29308,27381.9L29304.8,27381.9L29304.8,27387.5Z" style="fill:rgb(67,75,172);fill-rule:nonzero;"/>
                <path d="M29326.2,27381.7C29320.1,27381.7 29315.9,27383.1 29315.9,27384.7C29315.9,27386.3 29320.1,27387.7 29326.2,27387.7C29332.3,27387.7 29336.5,27386.3 29336.5,27384.7C29336.5,27383.1 29332.3,27381.7 29326.2,27381.7ZM29326.3,27386.8C29322.2,27386.8 29319.3,27385.8 29319.3,27384.7C29319.3,27383.5 29322.2,27382.6 29326.3,27382.6C29330.2,27382.6 29333.1,27383.5 29333.1,27384.7C29333.1,27385.8 29330.2,27386.8 29326.3,27386.8Z" style="fill:rgb(67,75,172);fill-rule:nonzero;"/>
                <path d="M29341.9,27380.4C29343.2,27380.4 29344.2,27380.1 29344.2,27379.8C29344.2,27379.4 29343.2,27379.1 29341.9,27379.1C29340.7,27379.1 29339.7,27379.4 29339.7,27379.8C29339.7,27380.1 29340.7,27380.4 29341.9,27380.4ZM29343.6,27388.2L29343.6,27381.9L29340.4,27381.9L29340.4,27388.2C29340.4,27389.1 29338.8,27389.4 29336.5,27389.4C29335.3,27389.4 29334.4,27389.3 29333.7,27389.2L29333.7,27390.1C29334.6,27390.2 29335.6,27390.2 29337,27390.2C29341.2,27390.2 29343.6,27389.6 29343.6,27388.2Z" style="fill:rgb(67,75,172);fill-rule:nonzero;"/>
                <path d="M29366.2,27386.6L29363.8,27386C29362.5,27386.5 29360.5,27386.8 29358,27386.8C29353.9,27386.8 29351,27386 29350.9,27384.7L29365.5,27384.7C29365.6,27384.5 29365.8,27384.3 29365.8,27384.1C29365.8,27382.7 29362.4,27381.7 29357.2,27381.7C29351.3,27381.7 29347.6,27383 29347.6,27384.7C29347.6,27386.3 29351.6,27387.7 29358,27387.7C29361.6,27387.7 29364.4,27387.3 29366.2,27386.6ZM29357.1,27382.5C29360.5,27382.5 29362.4,27383.2 29362.5,27384L29351.1,27384C29351.8,27383 29354,27382.5 29357.1,27382.5Z" style="fill:rgb(67,75,172);fill-rule:nonzero;"/>
                <path d="M29371.1,27385.6C29371.1,27387 29373.4,27387.6 29377.7,27387.6C29379,27387.6 29380.1,27387.5 29381,27387.4L29381,27386.6C29380.2,27386.7 29379.4,27386.7 29378.1,27386.7C29375.8,27386.7 29374.3,27386.5 29374.3,27385.6L29374.3,27382.7L29380.9,27382.7L29380.9,27381.9L29374.3,27381.9L29374.3,27380.5L29371.1,27380.5L29371.1,27381.9L29367.5,27381.9L29367.5,27382.7L29371.1,27382.7L29371.1,27385.6Z" style="fill:rgb(67,75,172);fill-rule:nonzero;"/>
                <path d="M29395.4,27380.4C29396.6,27380.4 29397.6,27380.1 29397.6,27379.8C29397.6,27379.4 29396.6,27379.1 29395.4,27379.1C29394.2,27379.1 29393.1,27379.4 29393.1,27379.8C29393.1,27380.1 29394.2,27380.4 29395.4,27380.4ZM29393.8,27387.5L29397,27387.5L29397,27381.9L29393.8,27381.9L29393.8,27387.5Z" style="fill:rgb(67,75,172);fill-rule:nonzero;"/>
                <path d="M29402.7,27387.5L29405.9,27387.5L29405.9,27383.6C29407.1,27383 29408.8,27382.6 29411.6,27382.6C29414.5,27382.6 29416.5,27383.1 29416.5,27384.1L29416.5,27387.5L29419.7,27387.5L29419.7,27384.1C29419.7,27382.5 29416.5,27381.7 29412.2,27381.7C29409.4,27381.7 29407.4,27382 29405.9,27382.5L29405.9,27381.9L29402.7,27381.9L29402.7,27387.5Z" style="fill:rgb(67,75,172);fill-rule:nonzero;"/>
                <path d="M29426.6,27380.4C29427.9,27380.4 29428.9,27380.1 29428.9,27379.8C29428.9,27379.4 29427.9,27379.1 29426.6,27379.1C29425.4,27379.1 29424.4,27379.4 29424.4,27379.8C29424.4,27380.1 29425.4,27380.4 29426.6,27380.4ZM29425,27387.5L29428.2,27387.5L29428.2,27381.9L29425,27381.9L29425,27387.5Z" style="fill:rgb(67,75,172);fill-rule:nonzero;"/>
                <path d="M29435,27385.6C29435,27387 29437.4,27387.6 29441.6,27387.6C29443,27387.6 29444,27387.5 29444.9,27387.4L29444.9,27386.6C29444.2,27386.7 29443.3,27386.7 29442.1,27386.7C29439.7,27386.7 29438.2,27386.5 29438.2,27385.6L29438.2,27382.7L29444.8,27382.7L29444.8,27381.9L29438.2,27381.9L29438.2,27380.5L29435,27380.5L29435,27381.9L29431.4,27381.9L29431.4,27382.7L29435,27382.7L29435,27385.6Z" style="fill:rgb(67,75,172);fill-rule:nonzero;"/>
                <path d="M29450.3,27380.4C29451.5,27380.4 29452.5,27380.1 29452.5,27379.8C29452.5,27379.4 29451.5,27379.1 29450.3,27379.1C29449,27379.1 29448,27379.4 29448,27379.8C29448,27380.1 29449,27380.4 29450.3,27380.4ZM29448.6,27387.5L29451.8,27387.5L29451.8,27381.9L29448.6,27381.9L29448.6,27387.5Z" style="fill:rgb(67,75,172);fill-rule:nonzero;"/>
                <path d="M29462.7,27387.6C29465.2,27387.6 29467.6,27387.3 29469.1,27386.8L29469.1,27387.5L29472.3,27387.5L29472.3,27383.7C29472.3,27382.5 29469.4,27381.7 29464.6,27381.7C29461.3,27381.7 29458.6,27382.1 29456.9,27382.7L29459.3,27383.3C29460.5,27382.8 29462.3,27382.5 29464.5,27382.5C29467.2,27382.5 29469.1,27383 29469.1,27383.7L29469.1,27384.1L29462.7,27384.4C29458.6,27384.6 29456.4,27385.2 29456.4,27386.1C29456.4,27387 29459,27387.6 29462.7,27387.6ZM29459.7,27386C29459.7,27385.6 29460.8,27385.2 29463.4,27385.1L29469.1,27384.8L29469.1,27385.9C29467.8,27386.5 29465.8,27386.9 29463.2,27386.9C29461,27386.9 29459.7,27386.5 29459.7,27386Z" style="fill:rgb(67,75,172);fill-rule:nonzero;"/>
                <rect x="29477.6" y="27379.2" width="3.213" height="8.304" style="fill:rgb(67,75,172);fill-rule:nonzero;"/>
            </g>
            <g transform="matrix(0.571829,0,0,1.13638,-773.666,218.647)">
                <g transform="matrix(1.51345,0,0,0.378904,1413,-246.874)">
                    <path d="M373.526,2439.73C373.526,2501.12 360.654,2550.96 344.798,2550.96L103.485,2550.96C87.63,2550.96 74.758,2501.12 74.758,2439.73C74.758,2378.34 87.63,2328.49 103.485,2328.49L344.798,2328.49C360.654,2328.49 373.526,2378.34 373.526,2439.73Z" style="fill:rgb(87,94,181);"/>
                </g>
                <g transform="matrix(1.53975,0,0,0.61713,-43465.2,-16187.9)">
                    <path d="M29311.8,27349.9L29325.8,27349.9L29325.8,27340L29316.7,27340L29316.7,27324.8L29324.4,27324.8L29324.4,27314.9L29316.7,27314.9L29316.7,27300.9L29325.8,27300.9L29325.8,27291L29311.8,27291L29311.8,27349.9Z" style="fill:white;fill-rule:nonzero;"/>
                    <path d="M29330.9,27334.4C29330.9,27344.8 29332.9,27350.8 29337.2,27350.8C29338.7,27350.8 29339.7,27350.3 29340.5,27349.4L29340.5,27340.1C29340,27340.7 29339.2,27341 29338,27341C29336.3,27341 29335.2,27339.2 29335.2,27334.4L29335.2,27317.1L29340.5,27317.1L29340.5,27307.5L29335.2,27307.5L29335.2,27296.9L29330.9,27296.9L29330.9,27307.5L29327.6,27307.5L29327.6,27317.1L29330.9,27317.1L29330.9,27334.4Z" style="fill:white;fill-rule:nonzero;"/>
                    <path d="M29348.3,27351.2C29350.3,27351.2 29352.3,27349.1 29353.4,27345.8L29353.4,27349.9L29357.8,27349.9L29357.8,27322.5C29357.8,27313.1 29355.2,27305.8 29350.2,27305.8C29347.1,27305.8 29344.5,27309 29343,27314.2L29346.2,27320.2C29347.1,27317.1 29348.4,27315.2 29350.1,27315.2C29352.1,27315.2 29353.4,27318 29353.4,27322.5L29353.4,27323.6L29348.1,27325.8C29344.5,27327.3 29342.4,27332.1 29342.4,27338.5C29342.4,27346.3 29344.8,27351.2 29348.3,27351.2ZM29346.7,27338C29346.7,27335.4 29347.5,27333.5 29349.3,27332.8L29353.4,27331.1L29353.4,27337C29352.6,27340.4 29351.1,27342.7 29349.1,27342.7C29347.7,27342.7 29346.7,27340.8 29346.7,27338Z" style="fill:white;fill-rule:nonzero;"/>
                    <path d="M29361.7,27370.6L29366,27370.6L29366,27346.5C29367.4,27349.8 29369.1,27351.6 29371.4,27351.6C29376.9,27351.6 29380.2,27341.1 29380.2,27328.7C29380.2,27316.3 29376.9,27305.8 29371.4,27305.8C29369.1,27305.8 29367.4,27307.7 29366,27311L29366,27307.5L29361.7,27307.5L29361.7,27370.6ZM29370.8,27315.9C29373.8,27315.9 29375.7,27321.3 29375.7,27328.7C29375.7,27336.1 29373.8,27341.5 29370.8,27341.5C29368.8,27341.5 29367.2,27339.4 29366,27335.4L29366,27322.1C29367.1,27318.1 29368.8,27315.9 29370.8,27315.9Z" style="fill:white;fill-rule:nonzero;"/>
                    <path d="M29399.2,27343L29396.1,27337C29395.1,27340 29393.5,27342 29391.6,27342C29388.9,27342 29386.9,27338.8 29386.5,27330.9L29398.6,27330.9C29398.7,27329.5 29398.9,27327.3 29398.9,27324.9C29398.9,27313.8 29395.7,27305.8 29390.9,27305.8C29385.3,27305.8 29382.1,27316.2 29382.1,27328.7C29382.1,27341.1 29385.5,27351.6 29391.7,27351.6C29394.9,27351.6 29397.6,27348.3 29399.2,27343ZM29390.8,27314.6C29393.3,27314.6 29394.5,27318.9 29394.6,27323.2L29386.7,27323.2C29387.1,27317.6 29388.6,27314.6 29390.8,27314.6Z" style="fill:white;fill-rule:nonzero;"/>
                    <path d="M29409.7,27349.9L29426.3,27349.9L29426.3,27339.7L29415.3,27339.7L29421.1,27325.9C29423.5,27320.3 29425.6,27314.1 29425.6,27306C29425.6,27295.9 29422.3,27289.3 29418.1,27289.3C29413.9,27289.3 29411,27294.4 29408.9,27302.4L29412.7,27308.1C29414,27302.9 29415.4,27299.4 29417.7,27299.4C29419.5,27299.4 29420.9,27302.3 29420.9,27307.2C29420.9,27312 29419.8,27315.2 29417.9,27319.8L29409.7,27339.7L29409.7,27349.9Z" style="fill:white;fill-rule:nonzero;"/>
                </g>
            </g>
            <g transform="matrix(0.532917,0,0,0.580807,-15474.4,-14661.9)">
                <path d="M29227.5,27345.1L29233.6,27345.1L29233.6,27323.1L29236.8,27323.1L29244.9,27345.1L29252.1,27345.1L29242.6,27321C29245.7,27318.4 29247.5,27313.5 29247.5,27306.9C29247.5,27296.8 29243.4,27290.7 29236.7,27290.7L29227.5,27290.7L29227.5,27345.1ZM29237.1,27299.9C29239.7,27299.9 29241.2,27302.7 29241.2,27306.8C29241.2,27311.2 29239.7,27313.9 29237.1,27313.9L29233.6,27313.9L29233.6,27299.9L29237.1,27299.9Z" style="fill:rgb(87,94,181);fill-rule:nonzero;"/>
                <path d="M29266.5,27299.7L29271.7,27286.8L29265.7,27286.8L29261.2,27299.7L29266.5,27299.7ZM29273.9,27338.7L29270,27333.1C29268.8,27335.9 29266.7,27337.8 29264.4,27337.8C29260.9,27337.8 29258.4,27334.8 29257.9,27327.5L29273.2,27327.5C29273.4,27326.2 29273.5,27324.2 29273.5,27322C29273.5,27311.7 29269.5,27304.4 29263.5,27304.4C29256.4,27304.4 29252.3,27313.9 29252.3,27325.5C29252.3,27336.9 29256.7,27346.6 29264.4,27346.6C29268.5,27346.6 29271.9,27343.6 29273.9,27338.7ZM29263.4,27312.4C29266.4,27312.4 29268,27316.4 29268.1,27320.4L29258.1,27320.4C29258.7,27315.2 29260.5,27312.4 29263.4,27312.4Z" style="fill:rgb(87,94,181);fill-rule:nonzero;"/>
                <path d="M29274.3,27305.9L29282.2,27345.1L29289.4,27345.1L29297.4,27305.9L29291.5,27305.9L29285.9,27333.9L29280.2,27305.9L29274.3,27305.9Z" style="fill:rgb(87,94,181);fill-rule:nonzero;"/>
                <path d="M29302.3,27299.1C29304.3,27299.1 29305.9,27296.1 29305.9,27292.6C29305.9,27289.1 29304.3,27286.2 29302.3,27286.2C29300.4,27286.2 29298.7,27289.1 29298.7,27292.6C29298.7,27296.1 29300.4,27299.1 29302.3,27299.1ZM29299.6,27345.1L29305.1,27345.1L29305.1,27305.9L29299.6,27305.9L29299.6,27345.1Z" style="fill:rgb(87,94,181);fill-rule:nonzero;"/>
                <path d="M29308.1,27339.4C29310.2,27343.9 29313,27346.6 29316.9,27346.6C29321,27346.6 29324.6,27342.1 29324.7,27333.9C29324.7,27320.4 29314.3,27322.7 29314.3,27316C29314.3,27314 29315.1,27312.3 29316.9,27312.3C29318.5,27312.3 29320,27314.3 29321.1,27316.8L29324.7,27311C29323.2,27307.2 29320.1,27304.4 29316.8,27304.4C29312.3,27304.4 29309,27309.6 29309,27316.5C29309,27330.2 29319.5,27327.7 29319.5,27334.5C29319.5,27336.9 29318.5,27338.7 29316.8,27338.7C29314.7,27338.7 29313.1,27336.5 29311.8,27333.5L29308.1,27339.4Z" style="fill:rgb(87,94,181);fill-rule:nonzero;"/>
                <path d="M29331.3,27299.1C29333.2,27299.1 29334.8,27296.1 29334.8,27292.6C29334.8,27289.1 29333.2,27286.2 29331.3,27286.2C29329.3,27286.2 29327.7,27289.1 29327.7,27292.6C29327.7,27296.1 29329.3,27299.1 29331.3,27299.1ZM29328.5,27345.1L29334,27345.1L29334,27305.9L29328.5,27305.9L29328.5,27345.1Z" style="fill:rgb(87,94,181);fill-rule:nonzero;"/>
                <path d="M29349.6,27304.4C29342.6,27304.4 29337.7,27313.8 29337.7,27325.5C29337.7,27337.2 29342.6,27346.6 29349.6,27346.6C29356.7,27346.6 29361.6,27337.2 29361.6,27325.5C29361.6,27313.8 29356.7,27304.4 29349.6,27304.4ZM29349.7,27337.3C29346.1,27337.3 29343.4,27332.3 29343.4,27325.5C29343.4,27318.7 29346.1,27313.7 29349.7,27313.7C29353.2,27313.7 29355.9,27318.7 29355.9,27325.5C29355.9,27332.3 29353.2,27337.3 29349.7,27337.3Z" style="fill:rgb(87,94,181);fill-rule:nonzero;"/>
                <path d="M29365.3,27345.1L29370.8,27345.1L29370.8,27319.5C29371.6,27317 29373.1,27313.7 29375.9,27313.7C29378.5,27313.7 29380.2,27317 29380.2,27322.2L29380.2,27345.1L29385.7,27345.1L29385.7,27321.8C29385.7,27310.2 29382,27304.4 29377.2,27304.4C29374.3,27304.4 29372.3,27306.4 29370.8,27309L29370.8,27305.9L29365.3,27305.9L29365.3,27345.1Z" style="fill:rgb(87,94,181);fill-rule:nonzero;"/>
                <path d="M29405.3,27327.6L29409.3,27327.6L29409.6,27321.9C29415,27320.2 29418.8,27314.4 29418.8,27305.3C29418.8,27295.4 29414.3,27289.1 29409.2,27289.1C29404.6,27289.1 29401.3,27292.8 29398.9,27299.7L29403.6,27304.9C29405.2,27300.6 29406.6,27298.5 29408.9,27298.5C29411.1,27298.5 29412.9,27301.3 29412.9,27305.3C29412.9,27311.9 29409.6,27313.8 29404.6,27314.8L29405.3,27327.6ZM29407.3,27346C29409.3,27346 29411.1,27342.9 29411.1,27339.3C29411.1,27335.6 29409.3,27332.5 29407.3,27332.5C29405.3,27332.5 29403.5,27335.6 29403.5,27339.3C29403.5,27342.9 29405.3,27346 29407.3,27346Z" style="fill:rgb(87,94,181);fill-rule:nonzero;"/>
            </g>
            <g transform="matrix(-0.249094,0,0,1.012,10545.7,-32183.9)">
                <g transform="matrix(-2.5091,0,0,1.18972,42336.1,31802.3)">
                    <path d="M441.022,900.089C441.022,892.5 434.861,886.339 427.272,886.339C419.683,886.339 413.522,892.5 413.522,900.089C413.522,907.678 419.683,913.839 427.272,913.839C434.861,913.839 441.022,907.678 441.022,900.089Z" style="fill:rgb(87,94,181);"/>
                    <path d="M367.74,1014.75L353.99,1001L367.74,987.253" style="fill:none;stroke:rgb(87,94,181);stroke-width:4.17px;"/>
                    <path d="M425.188,908.339C425.188,907.189 426.122,906.256 427.272,906.256C428.422,906.256 429.355,907.189 429.355,908.339L429.355,922.258C429.355,923.408 428.422,924.341 427.272,924.341C426.122,924.341 425.188,923.408 425.188,922.258L425.188,908.339ZM414.113,996.164C415.055,995.505 416.355,995.734 417.015,996.676C417.675,997.618 417.445,998.918 416.503,999.577C413.403,1001.75 409.59,1003.09 404.889,1003.09L391.164,1003.09C390.014,1003.09 389.08,1002.15 389.08,1001C389.08,999.853 390.014,998.919 391.164,998.919L404.889,998.919C408.619,998.919 411.654,997.887 414.113,996.164ZM366.381,998.919C367.531,998.919 368.465,999.853 368.465,1001C368.465,1002.15 367.531,1003.09 366.381,1003.09L353.99,1003.09C352.84,1003.09 351.907,1002.15 351.907,1001C351.907,999.853 352.84,998.919 353.99,998.919L366.381,998.919Z" style="fill:rgb(87,94,181);"/>
                </g>
            </g>
        </g>
    </g>
</svg>
