<?xml version="1.0" encoding="UTF-8" standalone="no"?>
<!DOCTYPE svg PUBLIC "-//W3C//DTD SVG 1.1//EN" "http://www.w3.org/Graphics/SVG/1.1/DTD/svg11.dtd">
<svg width="100%" height="100%" viewBox="0 0 800 1092" version="1.1" xmlns="http://www.w3.org/2000/svg" xmlns:xlink="http://www.w3.org/1999/xlink" xml:space="preserve" xmlns:serif="http://www.serif.com/" style="fill-rule:evenodd;clip-rule:evenodd;stroke-linecap:round;stroke-linejoin:round;stroke-miterlimit:1.5;">
    <g transform="matrix(1,0,0,1,-20526.1,-42588.8)">
        <g id="schéma-2--vectorisé-" serif:id="schéma 2 (vectorisé)" transform="matrix(1.6,0,0,0.830569,20526.1,42588.8)">
            <rect x="0" y="0" width="500" height="1313.92" style="fill:none;"/>
            <g transform="matrix(1.47734,0,0,4.76962,-81.1341,-10898.7)">
                <path d="M373.526,2346.91L373.526,2532.55C373.526,2542.71 359.699,2550.96 342.667,2550.96L105.616,2550.96C88.585,2550.96 74.758,2542.71 74.758,2532.55L74.758,2346.91C74.758,2336.74 88.585,2328.49 105.616,2328.49L342.667,2328.49C359.699,2328.49 373.526,2336.74 373.526,2346.91Z" style="fill:none;stroke:rgb(87,94,181);stroke-width:0.64px;"/>
            </g>
            <g transform="matrix(1.47734,0,0,0.579916,-81.1341,-1300.27)">
                <path d="M373.526,2439.73C373.526,2501.12 363.37,2550.96 350.86,2550.96L97.423,2550.96C84.914,2550.96 74.758,2501.12 74.758,2439.73C74.758,2378.34 84.914,2328.49 97.423,2328.49L350.86,2328.49C363.37,2328.49 373.526,2378.34 373.526,2439.73Z" style="fill:rgb(87,94,181);"/>
            </g>
            <g transform="matrix(1.04537,0,0,0.597491,-30430.8,-16214.1)">
                <path d="M29224.2,27352.6C29226,27360 29228.3,27364.4 29231.8,27364.4C29235.6,27364.4 29238.6,27356.4 29238.6,27343.1C29238.6,27318.9 29229.3,27322.6 29229.3,27309.8C29229.3,27305.5 29230.3,27302.3 29231.7,27302.3C29233.3,27302.3 29234.7,27305.8 29235.9,27311.2L29238.9,27301.7C29237.1,27294.5 29234.8,27289.8 29231.7,27289.8C29227.8,27289.8 29225.1,27299.1 29225.1,27310.3C29225.1,27334.1 29234.4,27330.6 29234.4,27343.6C29234.4,27348.7 29233.4,27351.7 29231.8,27351.7C29230.1,27351.7 29228.4,27348.5 29227.2,27343L29224.2,27352.6Z" style="fill:white;fill-rule:nonzero;"/>
                <path d="M29242.4,27362.4L29254.4,27362.4L29254.4,27350.5L29246.6,27350.5L29246.6,27332.3L29253.3,27332.3L29253.3,27320.4L29246.6,27320.4L29246.6,27303.7L29254.4,27303.7L29254.4,27291.8L29242.4,27291.8L29242.4,27362.4Z" style="fill:white;fill-rule:nonzero;"/>
                <path d="M29258.7,27362.4L29262.9,27362.4L29262.9,27333.8L29265.5,27333.8C29270,27333.8 29272.8,27325.9 29272.8,27312.9C29272.8,27299.8 29270,27291.8 29265.5,27291.8L29258.7,27291.8L29258.7,27362.4ZM29265.7,27303.7C29267.4,27303.7 29268.5,27307.3 29268.5,27312.7C29268.5,27318.4 29267.4,27322 29265.7,27322L29262.9,27322L29262.9,27303.7L29265.7,27303.7Z" style="fill:white;fill-rule:nonzero;"/>
                <path d="M29273.6,27304.8L29280,27304.8L29280,27362.4L29284.1,27362.4L29284.1,27304.8L29290.5,27304.8L29290.5,27291.8L29273.6,27291.8L29273.6,27304.8Z" style="fill:white;fill-rule:nonzero;"/>
                <path d="M29293.6,27362.4L29305.6,27362.4L29305.6,27350.5L29297.7,27350.5L29297.7,27332.3L29304.4,27332.3L29304.4,27320.4L29297.7,27320.4L29297.7,27303.7L29305.6,27303.7L29305.6,27291.8L29293.6,27291.8L29293.6,27362.4Z" style="fill:white;fill-rule:nonzero;"/>
                <path d="M29309.8,27362.4L29314,27362.4L29314,27311.8L29318.6,27338.2L29321.5,27338.2L29326.1,27311.8L29326.1,27362.4L29330.3,27362.4L29330.3,27291.8L29325.1,27291.8L29320.1,27321.5L29315,27291.8L29309.8,27291.8L29309.8,27362.4Z" style="fill:white;fill-rule:nonzero;"/>
                <path d="M29335.4,27362.4L29341.9,27362.4C29346.7,27362.4 29349.6,27354.5 29349.6,27341.6C29349.6,27334.2 29348.4,27328.2 29346.2,27324.9C29347.6,27321.7 29348.4,27316.7 29348.4,27311C29348.4,27299.1 29345.8,27291.8 29341.5,27291.8L29335.4,27291.8L29335.4,27362.4ZM29341.6,27303.7C29343.2,27303.7 29344.1,27306.6 29344.1,27311.6C29344.1,27316.7 29343.2,27319.6 29341.6,27319.6L29339.6,27319.6L29339.6,27303.7L29341.6,27303.7ZM29342.2,27331.5C29344.1,27331.5 29345.3,27335 29345.3,27341C29345.3,27346.9 29344.1,27350.5 29342.2,27350.5L29339.6,27350.5L29339.6,27331.5L29342.2,27331.5Z" style="fill:white;fill-rule:nonzero;"/>
                <path d="M29353.3,27362.4L29357.4,27362.4L29357.4,27333.8L29359.6,27333.8L29365.1,27362.4L29370,27362.4L29363.6,27331.1C29365.7,27327.8 29366.9,27321.5 29366.9,27312.9C29366.9,27299.8 29364.1,27291.8 29359.6,27291.8L29353.3,27291.8L29353.3,27362.4ZM29359.8,27303.7C29361.6,27303.7 29362.6,27307.3 29362.6,27312.7C29362.6,27318.4 29361.6,27322 29359.8,27322L29357.4,27322L29357.4,27303.7L29359.8,27303.7Z" style="fill:white;fill-rule:nonzero;"/>
                <path d="M29372.1,27362.4L29384.1,27362.4L29384.1,27350.5L29376.2,27350.5L29376.2,27332.3L29382.9,27332.3L29382.9,27320.4L29376.2,27320.4L29376.2,27303.7L29384.1,27303.7L29384.1,27291.8L29372.1,27291.8L29372.1,27362.4Z" style="fill:white;fill-rule:nonzero;"/>
                <path d="M29394,27362.4L29408.3,27362.4L29408.3,27350.1L29398.9,27350.1L29403.9,27333.6C29405.9,27326.9 29407.7,27319.4 29407.7,27309.8C29407.7,27297.7 29404.9,27289.8 29401.3,27289.8C29397.7,27289.8 29395.1,27295.9 29393.4,27305.5L29396.6,27312.3C29397.7,27306 29398.9,27301.9 29400.9,27301.9C29402.5,27301.9 29403.7,27305.3 29403.7,27311.2C29403.7,27316.9 29402.7,27320.7 29401.1,27326.3L29394,27350.1L29394,27362.4Z" style="fill:white;fill-rule:nonzero;"/>
                <path d="M29417.9,27289.8C29412.5,27289.8 29410,27305.9 29410,27327.1C29410,27348.3 29412.5,27364.4 29417.9,27364.4C29423.3,27364.4 29425.9,27348.3 29425.9,27327.1C29425.9,27305.9 29423.3,27289.8 29417.9,27289.8ZM29417.9,27302.4C29420.5,27302.4 29421.8,27312.2 29421.8,27327.1C29421.8,27341.9 29420.5,27351.8 29417.9,27351.8C29415.3,27351.8 29414,27342 29414,27327.1C29414,27312.3 29415.3,27302.4 29417.9,27302.4Z" style="fill:white;fill-rule:nonzero;"/>
                <path d="M29427.5,27362.4L29441.7,27362.4L29441.7,27350.1L29432.4,27350.1L29437.3,27333.6C29439.3,27326.9 29441.2,27319.4 29441.2,27309.8C29441.2,27297.7 29438.3,27289.8 29434.7,27289.8C29431.1,27289.8 29428.6,27295.9 29426.9,27305.5L29430.1,27312.3C29431.2,27306 29432.4,27301.9 29434.4,27301.9C29436,27301.9 29437.1,27305.3 29437.1,27311.2C29437.1,27316.9 29436.1,27320.7 29434.6,27326.3L29427.5,27350.1L29427.5,27362.4Z" style="fill:white;fill-rule:nonzero;"/>
                <path d="M29442.1,27343.6L29451.6,27343.6L29451.6,27362.4L29455.6,27362.4L29455.6,27343.6L29457.7,27343.6L29457.7,27331.3L29455.6,27331.3L29455.6,27291.8L29451,27291.8L29442.1,27331.3L29442.1,27343.6ZM29446.2,27331.3L29451.6,27307.2L29451.6,27331.3L29446.2,27331.3Z" style="fill:white;fill-rule:nonzero;"/>
            </g>
            <g transform="matrix(0.949839,0,0,0.72293,-27639.1,-19434.5)">
                <path d="M29224,27301.7L29231,27301.7L29231,27349.2L29235.6,27349.2L29235.6,27301.7L29242.6,27301.7L29242.6,27291L29224,27291L29224,27301.7Z" style="fill:rgb(67,75,172);fill-rule:nonzero;"/>
                <path d="M29260.2,27342.5L29256.6,27335.1C29255.8,27337.5 29254.5,27339.1 29252.9,27339.1C29251,27339.1 29249.5,27337.6 29249.1,27331.9L29259.6,27331.9C29259.8,27330.4 29259.9,27327.8 29259.9,27324.9C29259.9,27313.5 29256.9,27305.6 29252.3,27305.6C29246.7,27305.6 29243.8,27316.1 29243.8,27328.3C29243.8,27340.5 29247,27350.9 29252.9,27350.9C29256.1,27350.9 29258.6,27347.7 29260.2,27342.5ZM29252.1,27316.3C29254,27316.3 29254.9,27319.8 29254.9,27322.6L29249.1,27322.6C29249.5,27318.4 29250.5,27316.3 29252.1,27316.3Z" style="fill:rgb(67,75,172);fill-rule:nonzero;"/>
                <path d="M29262.4,27349.2L29267.6,27349.2L29267.6,27323.1C29268,27321.7 29268.6,27318 29270.2,27318C29271.7,27318 29272.4,27320.6 29272.4,27324.3L29272.4,27349.2L29277.6,27349.2L29277.6,27322.8C29277.9,27321.7 29278.5,27318 29280.1,27318C29281.6,27318 29282.3,27320.6 29282.3,27324.3L29282.3,27349.2L29287.5,27349.2L29287.5,27323.8C29287.5,27311.6 29284.8,27305.6 29281.5,27305.6C29278.9,27305.6 29277.4,27308.4 29276.3,27311.7C29275.2,27307.6 29273.5,27305.6 29271.6,27305.6C29269.9,27305.6 29268.6,27307.3 29267.6,27309.4L29267.6,27307.3L29262.4,27307.3L29262.4,27349.2Z" style="fill:rgb(67,75,172);fill-rule:nonzero;"/>
                <path d="M29290.6,27369.7L29295.7,27369.7L29295.7,27346.9C29296.8,27349.5 29298.3,27350.9 29300.3,27350.9C29305.5,27350.9 29308.5,27340.5 29308.5,27328.3C29308.5,27316 29305.5,27305.6 29300.3,27305.6C29298.3,27305.6 29296.8,27307 29295.7,27309.6L29295.7,27307.3L29290.6,27307.3L29290.6,27369.7ZM29299.5,27318C29301.8,27318 29303.2,27322.1 29303.2,27328.3C29303.2,27334.4 29301.8,27338.5 29299.5,27338.5C29297.9,27338.5 29296.7,27336.8 29295.7,27333.5L29295.7,27323C29296.6,27319.9 29297.9,27318 29299.5,27318Z" style="fill:rgb(67,75,172);fill-rule:nonzero;"/>
                <path d="M29308.9,27342.9C29310.5,27347.7 29312.6,27350.9 29315.7,27350.9C29318.9,27350.9 29321.9,27346.1 29322,27336.6C29322,27321.9 29314.4,27324.1 29314.4,27318.7C29314.4,27317.3 29314.8,27316.1 29315.7,27316.1C29316.9,27316.1 29317.9,27318.4 29318.7,27320.7L29322,27312.9C29320.8,27308.9 29318.3,27305.6 29315.7,27305.6C29312.1,27305.6 29309.5,27311.4 29309.5,27319.4C29309.5,27334.1 29317.1,27331.8 29317.1,27337.5C29317.1,27339.2 29316.6,27340.4 29315.7,27340.4C29314.2,27340.4 29313.1,27337.9 29312.2,27335L29308.9,27342.9Z" style="fill:rgb(67,75,172);fill-rule:nonzero;"/>
                <path d="M29331.5,27324.3L29331.5,27334.8L29333.6,27334.8L29332.1,27349.2L29336.7,27349.2L29338.2,27334.8L29341.7,27334.8L29340.2,27349.2L29344.7,27349.2L29346.2,27334.8L29351.6,27334.8L29351.6,27324.3L29347.4,27324.3L29348.3,27315.9L29351.6,27315.9L29351.6,27305.4L29349.4,27305.4L29350.9,27291L29346.4,27291L29344.9,27305.4L29341.4,27305.4L29342.9,27291L29338.3,27291L29336.8,27305.4L29331.5,27305.4L29331.5,27315.9L29335.7,27315.9L29334.8,27324.3L29331.5,27324.3ZM29339.3,27324.3L29340.2,27315.9L29343.7,27315.9L29342.8,27324.3L29339.3,27324.3Z" style="fill:rgb(67,75,172);fill-rule:nonzero;"/>
                <path d="M29361.6,27349.2L29377.7,27349.2L29377.7,27336.6L29368.3,27336.6L29373.2,27325C29375,27320.6 29377.1,27314.4 29377.1,27306.4C29377.1,27296 29373.8,27289.3 29369.7,27289.3C29365.4,27289.3 29362.5,27294.9 29360.5,27303.2L29364.9,27310.2C29366,27305.4 29367.2,27301.8 29369.2,27301.8C29370.5,27301.8 29371.5,27304 29371.5,27307.9C29371.5,27311.6 29370.5,27314.7 29369.4,27317.4L29361.6,27336.6L29361.6,27349.2Z" style="fill:rgb(67,75,172);fill-rule:nonzero;"/>
            </g>
            <g transform="matrix(1.15105,0,0,1.26513,-33519,-34115.9)">
                <path d="M29231.4,27311.1C29228.2,27311.1 29226,27306.6 29226,27301.1C29226,27295.5 29228.2,27291 29231.4,27291C29233.3,27291 29234.8,27292.6 29235.8,27295.1L29237.3,27293C29236,27289.9 29233.9,27287.9 29231.4,27287.9C29227,27287.9 29224,27293.9 29224,27301.1C29224,27308.2 29227,27314.3 29231.4,27314.3C29233.9,27314.3 29236,27312.2 29237.3,27309.1L29235.8,27307.1C29234.8,27309.5 29233.3,27311.1 29231.4,27311.1Z" style="fill:rgb(67,75,172);fill-rule:nonzero;"/>
                <path d="M29243.8,27294.9C29240.5,27294.9 29238.3,27299.3 29238.3,27304.6C29238.3,27309.8 29240.5,27314.3 29243.8,27314.3C29247,27314.3 29249.2,27309.8 29249.2,27304.6C29249.2,27299.3 29247,27294.9 29243.8,27294.9ZM29243.8,27311.4C29241.6,27311.4 29240.1,27308.3 29240.1,27304.6C29240.1,27300.8 29241.6,27297.7 29243.8,27297.7C29245.9,27297.7 29247.4,27300.8 29247.4,27304.6C29247.4,27308.3 29245.9,27311.4 29243.8,27311.4Z" style="fill:rgb(67,75,172);fill-rule:nonzero;"/>
                <path d="M29251.4,27313.6L29253.1,27313.6L29253.1,27301.1C29253.7,27299.2 29254.6,27297.7 29256.1,27297.7C29257.7,27297.7 29258.7,27299.6 29258.7,27302.8L29258.7,27313.6L29260.4,27313.6L29260.4,27302.7C29260.4,27297.6 29258.7,27294.9 29256.4,27294.9C29254.9,27294.9 29253.9,27296 29253.1,27297.6L29253.1,27295.6L29251.4,27295.6L29251.4,27313.6Z" style="fill:rgb(67,75,172);fill-rule:nonzero;"/>
                <path d="M29262.1,27311.1C29263.1,27313.1 29264.3,27314.3 29265.9,27314.3C29267.8,27314.3 29269.3,27312.2 29269.3,27308.8C29269.3,27302.7 29264.3,27304 29264.3,27299.9C29264.3,27298.5 29264.8,27297.4 29265.9,27297.4C29266.8,27297.4 29267.6,27298.2 29268.1,27299.6L29269.3,27297.8C29268.6,27296.1 29267.3,27294.9 29265.9,27294.9C29264,27294.9 29262.6,27297.2 29262.6,27300C29262.6,27306.3 29267.7,27304.9 29267.7,27309C29267.7,27310.5 29267,27311.7 29265.9,27311.7C29264.9,27311.7 29264,27310.8 29263.3,27309.3L29262.1,27311.1Z" style="fill:rgb(67,75,172);fill-rule:nonzero;"/>
                <path d="M29276,27294.9C29272.7,27294.9 29270.5,27299.3 29270.5,27304.6C29270.5,27309.8 29272.7,27314.3 29276,27314.3C29279.2,27314.3 29281.4,27309.8 29281.4,27304.6C29281.4,27299.3 29279.2,27294.9 29276,27294.9ZM29276,27311.4C29273.8,27311.4 29272.3,27308.3 29272.3,27304.6C29272.3,27300.8 29273.8,27297.7 29276,27297.7C29278.1,27297.7 29279.6,27300.8 29279.6,27304.6C29279.6,27308.3 29278.1,27311.4 29276,27311.4Z" style="fill:rgb(67,75,172);fill-rule:nonzero;"/>
                <rect x="29283.6" y="27286.8" width="1.702" height="26.766" style="fill:rgb(67,75,172);fill-rule:nonzero;"/>
                <path d="M29289.1,27290.9C29289.8,27290.9 29290.3,27289.9 29290.3,27288.8C29290.3,27287.6 29289.8,27286.6 29289.1,27286.6C29288.5,27286.6 29287.9,27287.6 29287.9,27288.8C29287.9,27289.9 29288.5,27290.9 29289.1,27290.9ZM29288.3,27313.6L29290,27313.6L29290,27295.6L29288.3,27295.6L29288.3,27313.6Z" style="fill:rgb(67,75,172);fill-rule:nonzero;"/>
                <path d="M29292.1,27304.6C29292.1,27309.8 29294.2,27314.3 29297.3,27314.3C29298.8,27314.3 29300,27313.2 29300.9,27311.4L29300.9,27313.6L29302.6,27313.6L29302.6,27286.8L29300.9,27286.8L29300.9,27297.7C29300,27295.9 29298.8,27294.9 29297.3,27294.9C29294.2,27294.9 29292.1,27299.3 29292.1,27304.6ZM29293.9,27304.6C29293.9,27300.7 29295.4,27297.7 29297.5,27297.7C29298.9,27297.7 29300.1,27298.9 29300.9,27301L29300.9,27308.1C29300.2,27310.2 29298.9,27311.4 29297.5,27311.4C29295.4,27311.4 29293.9,27308.4 29293.9,27304.6Z" style="fill:rgb(67,75,172);fill-rule:nonzero;"/>
                <path d="M29308.3,27314.1C29309.6,27314.1 29311,27313 29311.7,27311.3L29311.7,27313.6L29313.4,27313.6L29313.4,27301.5C29313.4,27297.5 29311.9,27294.9 29309.3,27294.9C29307.6,27294.9 29306.2,27296.2 29305.3,27298.3L29306.5,27300.1C29307.2,27298.5 29308.1,27297.6 29309.3,27297.6C29310.7,27297.6 29311.7,27299 29311.7,27301.5L29311.7,27302.7L29308.3,27303.7C29306.2,27304.4 29305,27306.3 29305,27309C29305,27312.1 29306.4,27314.1 29308.3,27314.1ZM29306.7,27308.9C29306.7,27307.4 29307.4,27306.3 29308.7,27305.9L29311.7,27305L29311.7,27308.5C29311.1,27310.4 29310,27311.6 29308.6,27311.6C29307.4,27311.6 29306.7,27310.5 29306.7,27308.9Z" style="fill:rgb(67,75,172);fill-rule:nonzero;"/>
                <path d="M29316.8,27307.5C29316.8,27311.9 29318.1,27313.9 29320.3,27313.9C29321,27313.9 29321.6,27313.8 29322.1,27313.4L29322.1,27310.7C29321.7,27311 29321.2,27311.1 29320.6,27311.1C29319.3,27311.1 29318.5,27310.3 29318.5,27307.5L29318.5,27298.3L29322,27298.3L29322,27295.6L29318.5,27295.6L29318.5,27291.1L29316.8,27291.1L29316.8,27295.6L29314.9,27295.6L29314.9,27298.3L29316.8,27298.3L29316.8,27307.5Z" style="fill:rgb(67,75,172);fill-rule:nonzero;"/>
                <path d="M29324.9,27290.9C29325.6,27290.9 29326.1,27289.9 29326.1,27288.8C29326.1,27287.6 29325.6,27286.6 29324.9,27286.6C29324.3,27286.6 29323.7,27287.6 29323.7,27288.8C29323.7,27289.9 29324.3,27290.9 29324.9,27290.9ZM29324.1,27313.6L29325.8,27313.6L29325.8,27295.6L29324.1,27295.6L29324.1,27313.6Z" style="fill:rgb(67,75,172);fill-rule:nonzero;"/>
                <path d="M29333.4,27294.9C29330.1,27294.9 29327.9,27299.3 29327.9,27304.6C29327.9,27309.8 29330.1,27314.3 29333.4,27314.3C29336.6,27314.3 29338.8,27309.8 29338.8,27304.6C29338.8,27299.3 29336.6,27294.9 29333.4,27294.9ZM29333.4,27311.4C29331.2,27311.4 29329.7,27308.3 29329.7,27304.6C29329.7,27300.8 29331.2,27297.7 29333.4,27297.7C29335.5,27297.7 29337,27300.8 29337,27304.6C29337,27308.3 29335.5,27311.4 29333.4,27311.4Z" style="fill:rgb(67,75,172);fill-rule:nonzero;"/>
                <path d="M29341,27313.6L29342.7,27313.6L29342.7,27301.1C29343.3,27299.2 29344.2,27297.7 29345.7,27297.7C29347.3,27297.7 29348.3,27299.6 29348.3,27302.8L29348.3,27313.6L29350,27313.6L29350,27302.7C29350,27297.6 29348.3,27294.9 29346,27294.9C29344.5,27294.9 29343.5,27296 29342.7,27297.6L29342.7,27295.6L29341,27295.6L29341,27313.6Z" style="fill:rgb(67,75,172);fill-rule:nonzero;"/>
                <path d="M29366.6,27310.6L29365.3,27308.8C29364.7,27310.5 29363.6,27311.5 29362.3,27311.5C29360.1,27311.5 29358.6,27308.9 29358.5,27304.6L29366.2,27304.6C29366.3,27304.1 29366.4,27303.4 29366.4,27302.7C29366.4,27298.3 29364.6,27294.9 29361.8,27294.9C29358.7,27294.9 29356.8,27299.1 29356.8,27304.6C29356.8,27309.8 29358.9,27314.3 29362.3,27314.3C29364.1,27314.3 29365.6,27312.8 29366.6,27310.6ZM29361.8,27297.4C29363.6,27297.4 29364.6,27299.6 29364.7,27302.3L29358.6,27302.3C29359,27299.2 29360.1,27297.4 29361.8,27297.4Z" style="fill:rgb(67,75,172);fill-rule:nonzero;"/>
                <path d="M29369.2,27307.5C29369.2,27311.9 29370.4,27313.9 29372.7,27313.9C29373.4,27313.9 29373.9,27313.8 29374.4,27313.4L29374.4,27310.7C29374,27311 29373.6,27311.1 29372.9,27311.1C29371.7,27311.1 29370.9,27310.3 29370.9,27307.5L29370.9,27298.3L29374.4,27298.3L29374.4,27295.6L29370.9,27295.6L29370.9,27291.1L29369.2,27291.1L29369.2,27295.6L29367.3,27295.6L29367.3,27298.3L29369.2,27298.3L29369.2,27307.5Z" style="fill:rgb(67,75,172);fill-rule:nonzero;"/>
                <path d="M29386.3,27292.7L29388.7,27286.8L29386.7,27286.8L29384.7,27292.7L29386.3,27292.7ZM29390.2,27310.6L29388.9,27308.8C29388.2,27310.5 29387.1,27311.5 29385.8,27311.5C29383.7,27311.5 29382.1,27308.9 29382.1,27304.6L29389.8,27304.6C29389.9,27304.1 29390,27303.4 29390,27302.7C29390,27298.3 29388.2,27294.9 29385.4,27294.9C29382.3,27294.9 29380.3,27299.1 29380.3,27304.6C29380.3,27309.8 29382.4,27314.3 29385.8,27314.3C29387.7,27314.3 29389.2,27312.8 29390.2,27310.6ZM29385.4,27297.4C29387.2,27297.4 29388.2,27299.6 29388.2,27302.3L29382.2,27302.3C29382.6,27299.2 29383.7,27297.4 29385.4,27297.4Z" style="fill:rgb(67,75,172);fill-rule:nonzero;"/>
                <rect x="29392.2" y="27286.8" width="1.702" height="26.766" style="fill:rgb(67,75,172);fill-rule:nonzero;"/>
                <path d="M29399.7,27314.1C29401,27314.1 29402.3,27313 29403.1,27311.3L29403.1,27313.6L29404.8,27313.6L29404.8,27301.5C29404.8,27297.5 29403.2,27294.9 29400.7,27294.9C29398.9,27294.9 29397.5,27296.2 29396.6,27298.3L29397.9,27300.1C29398.5,27298.5 29399.5,27297.6 29400.6,27297.6C29402.1,27297.6 29403.1,27299 29403.1,27301.5L29403.1,27302.7L29399.7,27303.7C29397.5,27304.4 29396.4,27306.3 29396.4,27309C29396.4,27312.1 29397.7,27314.1 29399.7,27314.1ZM29398.1,27308.9C29398.1,27307.4 29398.7,27306.3 29400.1,27305.9L29403.1,27305L29403.1,27308.5C29402.4,27310.4 29401.3,27311.6 29400,27311.6C29398.8,27311.6 29398.1,27310.5 29398.1,27308.9Z" style="fill:rgb(67,75,172);fill-rule:nonzero;"/>
                <path d="M29407.6,27313.6L29409.3,27313.6L29409.3,27301.2C29409.9,27299.4 29410.8,27298.2 29412.1,27298.2C29412.5,27298.2 29412.8,27298.2 29413.1,27298.4L29413.1,27295.4C29412.9,27295.3 29412.6,27295.2 29412.2,27295.2C29411,27295.2 29410,27296.2 29409.3,27297.8L29409.3,27295.6L29407.6,27295.6L29407.6,27313.6Z" style="fill:rgb(67,75,172);fill-rule:nonzero;"/>
                <path d="M29413.6,27316.8C29413.6,27320.4 29415.5,27322.5 29418.5,27322.5C29421.5,27322.5 29423.7,27319.7 29423.7,27315.9C29423.7,27312.7 29422.4,27310.3 29419.8,27310.3L29416.9,27310.3C29416.3,27310.3 29416,27309.8 29416,27309.1C29416,27308.4 29416.3,27307.7 29416.7,27307.2C29417.1,27307.4 29417.6,27307.6 29418.1,27307.6C29420.5,27307.6 29422,27304.6 29422,27301.2C29422,27300.1 29421.9,27299.1 29421.6,27298.2L29423.8,27298.2L29423.8,27295.6L29420,27295.6C29419.5,27295.1 29418.8,27294.8 29418.1,27294.8C29415.7,27294.8 29414.2,27297.7 29414.2,27301.2C29414.2,27303.2 29414.7,27305 29415.6,27306.2C29414.8,27307.1 29414.4,27308.3 29414.4,27309.7C29414.4,27310.7 29414.6,27311.6 29415.1,27312.3C29414.1,27313.5 29413.6,27315 29413.6,27316.8ZM29418.1,27305.2C29416.6,27305.2 29415.8,27303.4 29415.8,27301.2C29415.8,27299 29416.6,27297.2 29418.1,27297.2C29419.6,27297.2 29420.4,27299 29420.4,27301.2C29420.4,27303.4 29419.6,27305.2 29418.1,27305.2ZM29415.2,27316.4C29415.2,27315 29415.7,27314 29416.4,27313L29419.6,27313C29421.4,27313 29422,27314.4 29422,27316.1C29422,27318.4 29420.6,27319.9 29418.5,27319.9C29416.5,27319.9 29415.2,27318.6 29415.2,27316.4Z" style="fill:rgb(67,75,172);fill-rule:nonzero;"/>
                <path d="M29426,27290.9C29426.7,27290.9 29427.2,27289.9 29427.2,27288.8C29427.2,27287.6 29426.7,27286.6 29426,27286.6C29425.4,27286.6 29424.8,27287.6 29424.8,27288.8C29424.8,27289.9 29425.4,27290.9 29426,27290.9ZM29425.2,27313.6L29426.9,27313.6L29426.9,27295.6L29425.2,27295.6L29425.2,27313.6Z" style="fill:rgb(67,75,172);fill-rule:nonzero;"/>
                <path d="M29428.7,27311.1C29429.6,27313.1 29430.9,27314.3 29432.5,27314.3C29434.4,27314.3 29435.9,27312.2 29435.9,27308.8C29435.9,27302.7 29430.8,27304 29430.8,27299.9C29430.8,27298.5 29431.4,27297.4 29432.5,27297.4C29433.4,27297.4 29434.1,27298.2 29434.7,27299.6L29435.8,27297.8C29435.1,27296.1 29433.9,27294.9 29432.5,27294.9C29430.5,27294.9 29429.2,27297.2 29429.2,27300C29429.2,27306.3 29434.2,27304.9 29434.2,27309C29434.2,27310.5 29433.6,27311.7 29432.5,27311.7C29431.4,27311.7 29430.6,27310.8 29429.9,27309.3L29428.7,27311.1Z" style="fill:rgb(67,75,172);fill-rule:nonzero;"/>
                <path d="M29436.9,27311.1C29437.8,27313.1 29439.1,27314.3 29440.7,27314.3C29442.6,27314.3 29444.1,27312.2 29444.1,27308.8C29444.1,27302.7 29439,27304 29439,27299.9C29439,27298.5 29439.6,27297.4 29440.7,27297.4C29441.6,27297.4 29442.3,27298.2 29442.9,27299.6L29444,27297.8C29443.3,27296.1 29442.1,27294.9 29440.7,27294.9C29438.7,27294.9 29437.4,27297.2 29437.4,27300C29437.4,27306.3 29442.4,27304.9 29442.4,27309C29442.4,27310.5 29441.8,27311.7 29440.7,27311.7C29439.6,27311.7 29438.8,27310.8 29438.1,27309.3L29436.9,27311.1Z" style="fill:rgb(67,75,172);fill-rule:nonzero;"/>
                <path d="M29455.1,27310.6L29453.8,27308.8C29453.2,27310.5 29452.1,27311.5 29450.8,27311.5C29448.6,27311.5 29447.1,27308.9 29447,27304.6L29454.8,27304.6C29454.8,27304.1 29454.9,27303.4 29454.9,27302.7C29454.9,27298.3 29453.1,27294.9 29450.3,27294.9C29447.2,27294.9 29445.3,27299.1 29445.3,27304.6C29445.3,27309.8 29447.4,27314.3 29450.8,27314.3C29452.6,27314.3 29454.1,27312.8 29455.1,27310.6ZM29450.3,27297.4C29452.1,27297.4 29453.1,27299.6 29453.2,27302.3L29447.1,27302.3C29447.5,27299.2 29448.6,27297.4 29450.3,27297.4Z" style="fill:rgb(67,75,172);fill-rule:nonzero;"/>
                <path d="M29457.2,27313.6L29458.9,27313.6L29458.9,27301.1C29459.4,27299.2 29460.3,27297.7 29461.7,27297.7C29463.1,27297.7 29464.1,27299.4 29464.1,27302.4L29464.1,27313.6L29465.8,27313.6L29465.8,27302.3C29465.8,27301.9 29465.7,27301.5 29465.7,27301.1C29466.4,27299 29467.3,27297.7 29468.6,27297.7C29470,27297.7 29471,27299.4 29471,27302.4L29471,27313.6L29472.7,27313.6L29472.7,27302.3C29472.7,27297.4 29471.1,27294.9 29468.9,27294.9C29467.2,27294.9 29466.1,27296.4 29465.3,27298.3C29464.7,27296 29463.5,27294.9 29462,27294.9C29460.6,27294.9 29459.6,27296 29458.9,27297.5L29458.9,27295.6L29457.2,27295.6L29457.2,27313.6Z" style="fill:rgb(67,75,172);fill-rule:nonzero;"/>
                <path d="M29484.4,27310.6L29483.2,27308.8C29482.5,27310.5 29481.4,27311.5 29480.1,27311.5C29478,27311.5 29476.4,27308.9 29476.4,27304.6L29484.1,27304.6C29484.2,27304.1 29484.2,27303.4 29484.2,27302.7C29484.2,27298.3 29482.4,27294.9 29479.7,27294.9C29476.6,27294.9 29474.6,27299.1 29474.6,27304.6C29474.6,27309.8 29476.7,27314.3 29480.1,27314.3C29482,27314.3 29483.5,27312.8 29484.4,27310.6ZM29479.7,27297.4C29481.4,27297.4 29482.5,27299.6 29482.5,27302.3L29476.5,27302.3C29476.8,27299.2 29478,27297.4 29479.7,27297.4Z" style="fill:rgb(67,75,172);fill-rule:nonzero;"/>
                <path d="M29486.5,27313.6L29488.2,27313.6L29488.2,27301.1C29488.9,27299.2 29489.8,27297.7 29491.2,27297.7C29492.8,27297.7 29493.8,27299.6 29493.8,27302.8L29493.8,27313.6L29495.5,27313.6L29495.5,27302.7C29495.5,27297.6 29493.8,27294.9 29491.6,27294.9C29490.1,27294.9 29489,27296 29488.2,27297.6L29488.2,27295.6L29486.5,27295.6L29486.5,27313.6Z" style="fill:rgb(67,75,172);fill-rule:nonzero;"/>
                <path d="M29498.9,27307.5C29498.9,27311.9 29500.2,27313.9 29502.4,27313.9C29503.1,27313.9 29503.7,27313.8 29504.2,27313.4L29504.2,27310.7C29503.8,27311 29503.3,27311.1 29502.7,27311.1C29501.4,27311.1 29500.6,27310.3 29500.6,27307.5L29500.6,27298.3L29504.2,27298.3L29504.2,27295.6L29500.6,27295.6L29500.6,27291.1L29498.9,27291.1L29498.9,27295.6L29497,27295.6L29497,27298.3L29498.9,27298.3L29498.9,27307.5Z" style="fill:rgb(67,75,172);fill-rule:nonzero;"/>
                <path d="M29227.8,27344.3L29229.4,27344.3L29227.3,27338.3L29225.4,27338.3L29227.8,27344.3ZM29227.6,27365.6C29228.9,27365.6 29230.2,27364.6 29230.9,27362.8L29230.9,27365.1L29232.6,27365.1L29232.6,27353C29232.6,27349.1 29231.1,27346.4 29228.6,27346.4C29226.8,27346.4 29225.4,27347.7 29224.5,27349.9L29225.8,27351.6C29226.4,27350.1 29227.3,27349.1 29228.5,27349.1C29229.9,27349.1 29230.9,27350.5 29230.9,27353L29230.9,27354.3L29227.5,27355.3C29225.4,27355.9 29224.2,27357.9 29224.2,27360.6C29224.2,27363.6 29225.6,27365.6 29227.6,27365.6ZM29226,27360.5C29226,27358.9 29226.6,27357.8 29228,27357.4L29230.9,27356.5L29230.9,27360C29230.3,27362 29229.2,27363.1 29227.8,27363.1C29226.7,27363.1 29226,27362 29226,27360.5Z" style="fill:rgb(67,75,172);fill-rule:nonzero;"/>
                <path d="M29239.4,27356.1C29239.4,27361.4 29241.4,27365.8 29244.6,27365.8C29246.1,27365.8 29247.3,27364.8 29248.2,27363L29248.2,27365.1L29249.9,27365.1L29249.9,27338.3L29248.2,27338.3L29248.2,27349.3C29247.3,27347.4 29246.1,27346.4 29244.6,27346.4C29241.4,27346.4 29239.4,27350.9 29239.4,27356.1ZM29241.2,27356.1C29241.2,27352.3 29242.7,27349.3 29244.8,27349.3C29246.2,27349.3 29247.4,27350.4 29248.2,27352.6L29248.2,27359.6C29247.4,27361.8 29246.2,27363 29244.8,27363C29242.7,27363 29241.2,27359.9 29241.2,27356.1Z" style="fill:rgb(67,75,172);fill-rule:nonzero;"/>
                <path d="M29254.6,27349.7L29254.8,27340.1L29252.9,27340.1L29253.1,27349.7L29254.6,27349.7Z" style="fill:rgb(67,75,172);fill-rule:nonzero;"/>
                <path d="M29260.1,27365.6C29261.4,27365.6 29262.8,27364.6 29263.5,27362.8L29263.5,27365.1L29265.2,27365.1L29265.2,27353C29265.2,27349.1 29263.7,27346.4 29261.1,27346.4C29259.4,27346.4 29258,27347.7 29257.1,27349.9L29258.4,27351.6C29259,27350.1 29259.9,27349.1 29261.1,27349.1C29262.5,27349.1 29263.5,27350.5 29263.5,27353L29263.5,27354.3L29260.1,27355.3C29258,27355.9 29256.8,27357.9 29256.8,27360.6C29256.8,27363.6 29258.2,27365.6 29260.1,27365.6ZM29258.5,27360.5C29258.5,27358.9 29259.2,27357.8 29260.5,27357.4L29263.5,27356.5L29263.5,27360C29262.9,27362 29261.8,27363.1 29260.4,27363.1C29259.2,27363.1 29258.5,27362 29258.5,27360.5Z" style="fill:rgb(67,75,172);fill-rule:nonzero;"/>
                <path d="M29275.1,27357.4C29275.1,27360.9 29274,27363 29272.3,27363C29270.6,27363 29269.5,27360.9 29269.5,27357.4L29269.5,27347.1L29267.8,27347.1L29267.8,27357.3C29267.8,27362.7 29269.6,27365.8 29272.3,27365.8C29275,27365.8 29276.8,27362.7 29276.8,27357.3L29276.8,27347.1L29275.1,27347.1L29275.1,27357.4Z" style="fill:rgb(67,75,172);fill-rule:nonzero;"/>
                <path d="M29280.2,27359.1C29280.2,27363.5 29281.5,27365.5 29283.7,27365.5C29284.4,27365.5 29285,27365.3 29285.4,27365L29285.4,27362.3C29285.1,27362.5 29284.6,27362.7 29283.9,27362.7C29282.7,27362.7 29281.9,27361.9 29281.9,27359.1L29281.9,27349.9L29285.4,27349.9L29285.4,27347.1L29281.9,27347.1L29281.9,27342.6L29280.2,27342.6L29280.2,27347.1L29278.3,27347.1L29278.3,27349.9L29280.2,27349.9L29280.2,27359.1Z" style="fill:rgb(67,75,172);fill-rule:nonzero;"/>
                <path d="M29287.4,27365.1L29289.1,27365.1L29289.1,27352.8C29289.8,27350.9 29290.6,27349.7 29291.9,27349.7C29292.3,27349.7 29292.6,27349.8 29292.9,27349.9L29292.9,27347C29292.7,27346.8 29292.4,27346.8 29292.1,27346.8C29290.8,27346.8 29289.9,27347.8 29289.1,27349.4L29289.1,27347.1L29287.4,27347.1L29287.4,27365.1Z" style="fill:rgb(67,75,172);fill-rule:nonzero;"/>
                <path d="M29303.1,27362.1L29301.9,27360.4C29301.2,27362 29300.1,27363.1 29298.8,27363.1C29296.7,27363.1 29295.1,27360.5 29295.1,27356.2L29302.8,27356.2C29302.9,27355.7 29302.9,27355 29302.9,27354.3C29302.9,27349.8 29301.1,27346.4 29298.4,27346.4C29295.3,27346.4 29293.3,27350.7 29293.3,27356.1C29293.3,27361.4 29295.4,27365.8 29298.8,27365.8C29300.7,27365.8 29302.2,27364.4 29303.1,27362.1ZM29298.4,27349C29300.1,27349 29301.2,27351.2 29301.2,27353.8L29295.2,27353.8C29295.5,27350.7 29296.7,27349 29298.4,27349Z" style="fill:rgb(67,75,172);fill-rule:nonzero;"/>
                <path d="M29304,27362.6C29305,27364.7 29306.2,27365.8 29307.8,27365.8C29309.7,27365.8 29311.2,27363.7 29311.2,27360.4C29311.2,27354.2 29306.2,27355.5 29306.2,27351.5C29306.2,27350.1 29306.8,27348.9 29307.8,27348.9C29308.7,27348.9 29309.5,27349.8 29310,27351.2L29311.2,27349.4C29310.5,27347.6 29309.3,27346.4 29307.8,27346.4C29305.9,27346.4 29304.5,27348.7 29304.5,27351.5C29304.5,27357.9 29309.6,27356.5 29309.6,27360.5C29309.6,27362.1 29308.9,27363.3 29307.8,27363.3C29306.8,27363.3 29305.9,27362.4 29305.2,27360.8L29304,27362.6Z" style="fill:rgb(67,75,172);fill-rule:nonzero;"/>
                <path d="M29318.2,27373.9L29319.9,27373.9L29319.9,27363C29320.8,27364.8 29322,27365.8 29323.5,27365.8C29326.7,27365.8 29328.7,27361.4 29328.7,27356.1C29328.7,27350.9 29326.7,27346.4 29323.5,27346.4C29322,27346.4 29320.8,27347.4 29319.9,27349.3L29319.9,27347.1L29318.2,27347.1L29318.2,27373.9ZM29323.3,27349.3C29325.4,27349.3 29326.9,27352.3 29326.9,27356.1C29326.9,27359.9 29325.4,27363 29323.3,27363C29321.9,27363 29320.7,27361.8 29319.9,27359.6L29319.9,27352.6C29320.7,27350.5 29321.9,27349.3 29323.3,27349.3Z" style="fill:rgb(67,75,172);fill-rule:nonzero;"/>
                <path d="M29330.8,27365.1L29332.5,27365.1L29332.5,27352.8C29333.1,27350.9 29334,27349.7 29335.3,27349.7C29335.7,27349.7 29336,27349.8 29336.3,27349.9L29336.3,27347C29336.1,27346.8 29335.8,27346.8 29335.5,27346.8C29334.2,27346.8 29333.3,27347.8 29332.5,27349.4L29332.5,27347.1L29330.8,27347.1L29330.8,27365.1Z" style="fill:rgb(67,75,172);fill-rule:nonzero;"/>
                <path d="M29342.2,27346.4C29338.9,27346.4 29336.7,27350.9 29336.7,27356.1C29336.7,27361.4 29338.9,27365.8 29342.2,27365.8C29345.4,27365.8 29347.6,27361.4 29347.6,27356.1C29347.6,27350.9 29345.4,27346.4 29342.2,27346.4ZM29342.2,27363C29340,27363 29338.5,27359.9 29338.5,27356.1C29338.5,27352.4 29340,27349.3 29342.2,27349.3C29344.3,27349.3 29345.8,27352.4 29345.8,27356.1C29345.8,27359.8 29344.3,27363 29342.2,27363Z" style="fill:rgb(67,75,172);fill-rule:nonzero;"/>
                <path d="M29350.5,27342.4C29351.1,27342.4 29351.7,27341.5 29351.7,27340.3C29351.7,27339.2 29351.1,27338.2 29350.5,27338.2C29349.8,27338.2 29349.3,27339.2 29349.3,27340.3C29349.3,27341.5 29349.8,27342.4 29350.5,27342.4ZM29351.4,27367.5L29351.4,27347.1L29349.7,27347.1L29349.7,27367.5C29349.7,27370.4 29348.8,27371.2 29347.6,27371.2C29347,27371.2 29346.5,27371.1 29346.1,27370.8L29346.1,27373.5C29346.6,27373.9 29347.1,27374 29347.9,27374C29350.1,27374 29351.4,27372 29351.4,27367.5Z" style="fill:rgb(67,75,172);fill-rule:nonzero;"/>
                <path d="M29363.3,27362.1L29362.1,27360.4C29361.4,27362 29360.3,27363.1 29359,27363.1C29356.9,27363.1 29355.3,27360.5 29355.2,27356.2L29363,27356.2C29363.1,27355.7 29363.1,27355 29363.1,27354.3C29363.1,27349.8 29361.3,27346.4 29358.6,27346.4C29355.5,27346.4 29353.5,27350.7 29353.5,27356.1C29353.5,27361.4 29355.6,27365.8 29359,27365.8C29360.9,27365.8 29362.4,27364.4 29363.3,27362.1ZM29358.6,27349C29360.3,27349 29361.4,27351.2 29361.4,27353.8L29355.4,27353.8C29355.7,27350.7 29356.9,27349 29358.6,27349Z" style="fill:rgb(67,75,172);fill-rule:nonzero;"/>
                <path d="M29365.9,27359.1C29365.9,27363.5 29367.2,27365.5 29369.4,27365.5C29370.1,27365.5 29370.7,27365.3 29371.2,27365L29371.2,27362.3C29370.8,27362.5 29370.3,27362.7 29369.7,27362.7C29368.4,27362.7 29367.6,27361.9 29367.6,27359.1L29367.6,27349.9L29371.1,27349.9L29371.1,27347.1L29367.6,27347.1L29367.6,27342.6L29365.9,27342.6L29365.9,27347.1L29364,27347.1L29364,27349.9L29365.9,27349.9L29365.9,27359.1Z" style="fill:rgb(67,75,172);fill-rule:nonzero;"/>
                <path d="M29372.1,27362.6C29373,27364.7 29374.3,27365.8 29375.9,27365.8C29377.7,27365.8 29379.2,27363.7 29379.3,27360.4C29379.3,27354.2 29374.2,27355.5 29374.2,27351.5C29374.2,27350.1 29374.8,27348.9 29375.9,27348.9C29376.7,27348.9 29377.5,27349.8 29378,27351.2L29379.2,27349.4C29378.5,27347.6 29377.3,27346.4 29375.8,27346.4C29373.9,27346.4 29372.5,27348.7 29372.5,27351.5C29372.5,27357.9 29377.6,27356.5 29377.6,27360.5C29377.6,27362.1 29377,27363.3 29375.8,27363.3C29374.8,27363.3 29374,27362.4 29373.3,27360.8L29372.1,27362.6Z" style="fill:rgb(67,75,172);fill-rule:nonzero;"/>
            </g>
            <g transform="matrix(1.3493,0,0,2.90155,-51.5258,-6180.38)">
                <path d="M373.526,2351.47L373.526,2527.98C373.526,2540.66 362.033,2550.96 347.877,2550.96L100.407,2550.96C86.251,2550.96 74.758,2540.66 74.758,2527.98L74.758,2351.47C74.758,2338.79 86.251,2328.49 100.407,2328.49L347.877,2328.49C362.033,2328.49 373.526,2338.79 373.526,2351.47Z" style="fill:rgb(241,246,251);"/>
            </g>
            <g transform="matrix(1.72326e-17,-0.542143,0.310161,3.65858e-17,-8057.34,16780.6)">
                <path d="M29230.1,27330.9L29236.1,27330.9L29236.1,27312.8L29243.1,27312.8C29252.1,27312.8 29257.6,27308.4 29257.6,27301.3C29257.6,27294.3 29252.1,27289.7 29243.1,27289.7L29230.1,27289.7L29230.1,27330.9ZM29243.3,27294.4C29248.4,27294.4 29251.4,27297 29251.4,27301.2C29251.4,27305.6 29248.4,27308.1 29243.3,27308.1L29236.1,27308.1L29236.1,27294.4L29243.3,27294.4Z" style="fill:rgb(225,0,15);fill-rule:nonzero;"/>
                <path d="M29263,27330.9L29268.4,27330.9L29268.4,27310.5C29270.4,27307.5 29273.1,27305.5 29277.3,27305.5C29278.6,27305.5 29279.6,27305.7 29280.5,27305.9L29280.5,27301C29279.8,27300.8 29278.8,27300.7 29277.8,27300.7C29273.7,27300.7 29270.8,27302.4 29268.4,27305L29268.4,27301.2L29263,27301.2L29263,27330.9Z" style="fill:rgb(225,0,15);fill-rule:nonzero;"/>
                <path d="M29299.1,27300.1C29288.7,27300.1 29281.7,27307.4 29281.7,27316.1C29281.7,27324.7 29288.7,27332 29299.1,27332C29309.4,27332 29316.5,27324.7 29316.5,27316.1C29316.5,27307.4 29309.4,27300.1 29299.1,27300.1ZM29299.2,27327.3C29292.3,27327.3 29287.4,27322.2 29287.4,27316.1C29287.4,27309.9 29292.3,27304.8 29299.2,27304.8C29305.9,27304.8 29310.8,27309.9 29310.8,27316.1C29310.8,27322.2 29305.9,27327.3 29299.2,27327.3Z" style="fill:rgb(225,0,15);fill-rule:nonzero;"/>
                <path d="M29325.6,27293.6C29327.7,27293.6 29329.4,27292 29329.4,27290C29329.4,27288.1 29327.7,27286.6 29325.6,27286.6C29323.5,27286.6 29321.8,27288.1 29321.8,27290C29321.8,27292 29323.5,27293.6 29325.6,27293.6ZM29328.4,27334.8L29328.4,27301.2L29323,27301.2L29323,27334.8C29323,27339.6 29320.3,27341 29316.5,27341C29314.4,27341 29312.9,27340.7 29311.7,27340.3L29311.7,27344.7C29313.2,27345.3 29314.9,27345.6 29317.2,27345.6C29324.4,27345.6 29328.4,27342.3 29328.4,27334.8Z" style="fill:rgb(225,0,15);fill-rule:nonzero;"/>
                <path d="M29366.5,27326L29362.4,27323.1C29360.3,27325.8 29356.8,27327.5 29352.7,27327.5C29345.8,27327.5 29340.9,27323.2 29340.7,27316.1L29365.4,27316.1C29365.6,27315.3 29365.8,27314.2 29365.8,27313C29365.8,27305.7 29360.1,27300.1 29351.4,27300.1C29341.4,27300.1 29335.2,27307.1 29335.2,27316.1C29335.2,27324.7 29341.9,27332 29352.7,27332C29358.7,27332 29363.5,27329.7 29366.5,27326ZM29351.2,27304.3C29356.9,27304.3 29360.2,27308 29360.3,27312.3L29341.1,27312.3C29342.3,27307.2 29345.9,27304.3 29351.2,27304.3Z" style="fill:rgb(225,0,15);fill-rule:nonzero;"/>
                <path d="M29374.7,27320.9C29374.7,27328.2 29378.7,27331.5 29385.8,27331.5C29388.1,27331.5 29389.8,27331.2 29391.4,27330.6L29391.4,27326.2C29390.2,27326.6 29388.7,27326.9 29386.6,27326.9C29382.7,27326.9 29380.2,27325.6 29380.2,27320.9L29380.2,27305.8L29391.3,27305.8L29391.3,27301.2L29380.2,27301.2L29380.2,27293.8L29374.7,27293.8L29374.7,27301.2L29368.6,27301.2L29368.6,27305.8L29374.7,27305.8L29374.7,27320.9Z" style="fill:rgb(225,0,15);fill-rule:nonzero;"/>
                <path d="M29424.6,27315.7L29424.6,27319.9L29430,27319.9L29426.7,27330.9L29431.7,27330.9L29434.9,27319.9L29446.5,27319.9L29443.3,27330.9L29448.3,27330.9L29451.5,27319.9L29462.6,27319.9L29462.6,27315.7L29452.8,27315.7L29456,27304.9L29462.6,27304.9L29462.6,27300.7L29457.2,27300.7L29460.5,27289.7L29455.5,27289.7L29452.3,27300.7L29440.7,27300.7L29443.9,27289.7L29439,27289.7L29435.7,27300.7L29424.6,27300.7L29424.6,27304.9L29434.4,27304.9L29431.2,27315.7L29424.6,27315.7ZM29436.2,27315.7L29439.4,27304.9L29451,27304.9L29447.8,27315.7L29436.2,27315.7Z" style="fill:rgb(225,0,15);fill-rule:nonzero;"/>
                <path d="M29467.1,27330.9L29496.9,27330.9L29496.9,27326.1L29474.2,27326.1L29486.4,27314.7C29491.8,27309.5 29495.7,27305.3 29495.7,27299.7C29495.7,27293 29489.8,27288.6 29482.3,27288.6C29475.4,27288.6 29470.4,27291.6 29466.8,27296.8L29471.5,27299.5C29474.1,27295.5 29477.2,27293.3 29481.9,27293.3C29486.4,27293.3 29489.8,27295.8 29489.8,27300.1C29489.8,27304.4 29487.4,27306.7 29482.2,27311.8L29467.1,27326.1L29467.1,27330.9Z" style="fill:rgb(225,0,15);fill-rule:nonzero;"/>
            </g>
            <g transform="matrix(1.25,0,0,0.267707,54.8046,644.926)">
                <g transform="matrix(0.5,-0,-0,4.49743,-43.8437,-2409.07)">
                    <path d="M677.164,602.383L660.498,602.383" style="fill:none;stroke:rgb(226,7,22);stroke-width:4.17px;stroke-linejoin:miter;stroke-miterlimit:10;"/>
                    <path d="M668.831,602.383L668.831,640.3" style="fill:none;stroke:rgb(226,7,22);stroke-width:4.17px;"/>
                </g>
            </g>
            <g transform="matrix(1.25,0,0,0.974778,54.8046,691.509)">
                <g transform="matrix(0.5,-0,-0,1.23515,-43.8437,-709.402)">
                    <path d="M675.081,946.181L668.831,952.431L662.581,946.181" style="fill:none;stroke:rgb(225,0,15);stroke-width:4.17px;stroke-linejoin:miter;stroke-miterlimit:10;"/>
                    <path d="M668.831,809.729L668.831,952.431" style="fill:none;stroke:rgb(225,0,15);stroke-width:4.17px;stroke-dasharray:8.33,8.33,0,0,0,0;"/>
                </g>
            </g>
            <g transform="matrix(1.72326e-17,-0.542143,0.310161,3.65858e-17,-8108.41,16780.6)">
                <path d="M29230.1,27330.9L29236.1,27330.9L29236.1,27312.8L29243.1,27312.8C29252.1,27312.8 29257.6,27308.4 29257.6,27301.3C29257.6,27294.3 29252.1,27289.7 29243.1,27289.7L29230.1,27289.7L29230.1,27330.9ZM29243.3,27294.4C29248.4,27294.4 29251.4,27297 29251.4,27301.2C29251.4,27305.6 29248.4,27308.1 29243.3,27308.1L29236.1,27308.1L29236.1,27294.4L29243.3,27294.4Z" style="fill:rgb(67,75,172);fill-rule:nonzero;"/>
                <path d="M29263,27330.9L29268.4,27330.9L29268.4,27310.5C29270.4,27307.5 29273.1,27305.5 29277.3,27305.5C29278.6,27305.5 29279.6,27305.7 29280.5,27305.9L29280.5,27301C29279.8,27300.8 29278.8,27300.7 29277.8,27300.7C29273.7,27300.7 29270.8,27302.4 29268.4,27305L29268.4,27301.2L29263,27301.2L29263,27330.9Z" style="fill:rgb(67,75,172);fill-rule:nonzero;"/>
                <path d="M29299.1,27300.1C29288.7,27300.1 29281.7,27307.4 29281.7,27316.1C29281.7,27324.7 29288.7,27332 29299.1,27332C29309.4,27332 29316.5,27324.7 29316.5,27316.1C29316.5,27307.4 29309.4,27300.1 29299.1,27300.1ZM29299.2,27327.3C29292.3,27327.3 29287.4,27322.2 29287.4,27316.1C29287.4,27309.9 29292.3,27304.8 29299.2,27304.8C29305.9,27304.8 29310.8,27309.9 29310.8,27316.1C29310.8,27322.2 29305.9,27327.3 29299.2,27327.3Z" style="fill:rgb(67,75,172);fill-rule:nonzero;"/>
                <path d="M29325.6,27293.6C29327.7,27293.6 29329.4,27292 29329.4,27290C29329.4,27288.1 29327.7,27286.6 29325.6,27286.6C29323.5,27286.6 29321.8,27288.1 29321.8,27290C29321.8,27292 29323.5,27293.6 29325.6,27293.6ZM29328.4,27334.8L29328.4,27301.2L29323,27301.2L29323,27334.8C29323,27339.6 29320.3,27341 29316.5,27341C29314.4,27341 29312.9,27340.7 29311.7,27340.3L29311.7,27344.7C29313.2,27345.3 29314.9,27345.6 29317.2,27345.6C29324.4,27345.6 29328.4,27342.3 29328.4,27334.8Z" style="fill:rgb(67,75,172);fill-rule:nonzero;"/>
                <path d="M29366.5,27326L29362.4,27323.1C29360.3,27325.8 29356.8,27327.5 29352.7,27327.5C29345.8,27327.5 29340.9,27323.2 29340.7,27316.1L29365.4,27316.1C29365.6,27315.3 29365.8,27314.2 29365.8,27313C29365.8,27305.7 29360.1,27300.1 29351.4,27300.1C29341.4,27300.1 29335.2,27307.1 29335.2,27316.1C29335.2,27324.7 29341.9,27332 29352.7,27332C29358.7,27332 29363.5,27329.7 29366.5,27326ZM29351.2,27304.3C29356.9,27304.3 29360.2,27308 29360.3,27312.3L29341.1,27312.3C29342.3,27307.2 29345.9,27304.3 29351.2,27304.3Z" style="fill:rgb(67,75,172);fill-rule:nonzero;"/>
                <path d="M29374.7,27320.9C29374.7,27328.2 29378.7,27331.5 29385.8,27331.5C29388.1,27331.5 29389.8,27331.2 29391.4,27330.6L29391.4,27326.2C29390.2,27326.6 29388.7,27326.9 29386.6,27326.9C29382.7,27326.9 29380.2,27325.6 29380.2,27320.9L29380.2,27305.8L29391.3,27305.8L29391.3,27301.2L29380.2,27301.2L29380.2,27293.8L29374.7,27293.8L29374.7,27301.2L29368.6,27301.2L29368.6,27305.8L29374.7,27305.8L29374.7,27320.9Z" style="fill:rgb(67,75,172);fill-rule:nonzero;"/>
                <path d="M29424.6,27315.7L29424.6,27319.9L29430,27319.9L29426.7,27330.9L29431.7,27330.9L29434.9,27319.9L29446.5,27319.9L29443.3,27330.9L29448.3,27330.9L29451.5,27319.9L29462.6,27319.9L29462.6,27315.7L29452.8,27315.7L29456,27304.9L29462.6,27304.9L29462.6,27300.7L29457.2,27300.7L29460.5,27289.7L29455.5,27289.7L29452.3,27300.7L29440.7,27300.7L29443.9,27289.7L29439,27289.7L29435.7,27300.7L29424.6,27300.7L29424.6,27304.9L29434.4,27304.9L29431.2,27315.7L29424.6,27315.7ZM29436.2,27315.7L29439.4,27304.9L29451,27304.9L29447.8,27315.7L29436.2,27315.7Z" style="fill:rgb(67,75,172);fill-rule:nonzero;"/>
                <path d="M29477.9,27330.9L29483.5,27330.9L29483.5,27289.7L29477.8,27289.7L29463.2,27297.2L29466.1,27301L29477.9,27295.1L29477.9,27330.9Z" style="fill:rgb(67,75,172);fill-rule:nonzero;"/>
            </g>
            <g transform="matrix(3.41009e-17,-1.07283,0.310161,3.65858e-17,-8160.76,32421.6)">
                <path d="M29226.6,27330.9L29229.6,27330.9L29229.6,27296.5L29242.4,27330.9L29246.3,27330.9L29246.3,27289.7L29243.3,27289.7L29243.3,27324.1L29230.5,27289.7L29226.6,27289.7L29226.6,27330.9Z" style="fill:rgb(98,100,102);fill-rule:nonzero;"/>
                <path d="M29259.1,27300.1C29253.8,27300.1 29250.3,27307.4 29250.3,27316.1C29250.3,27324.7 29253.8,27332 29259.1,27332C29264.3,27332 29267.9,27324.7 29267.9,27316.1C29267.9,27307.4 29264.3,27300.1 29259.1,27300.1ZM29259.1,27327.3C29255.6,27327.3 29253.2,27322.2 29253.2,27316.1C29253.2,27309.9 29255.6,27304.8 29259.1,27304.8C29262.5,27304.8 29265,27309.9 29265,27316.1C29265,27322.2 29262.5,27327.3 29259.1,27327.3Z" style="fill:rgb(98,100,102);fill-rule:nonzero;"/>
                <path d="M29282.6,27318.2C29282.6,27324 29280.9,27327.3 29278.2,27327.3C29275.4,27327.3 29273.7,27324 29273.7,27318.2L29273.7,27301.2L29271,27301.2L29271,27318C29271,27326.9 29273.8,27332 29278.2,27332C29282.6,27332 29285.4,27326.9 29285.4,27318L29285.4,27301.2L29282.6,27301.2L29282.6,27318.2Z" style="fill:rgb(98,100,102);fill-rule:nonzero;"/>
                <path d="M29287.5,27301.2L29293.8,27330.9L29297.4,27330.9L29303.8,27301.2L29300.8,27301.2L29295.6,27325.6L29290.4,27301.2L29287.5,27301.2Z" style="fill:rgb(98,100,102);fill-rule:nonzero;"/>
                <path d="M29320.3,27326L29318.3,27323.1C29317.2,27325.8 29315.5,27327.5 29313.4,27327.5C29309.9,27327.5 29307.4,27323.2 29307.3,27316.1L29319.8,27316.1C29319.9,27315.3 29320,27314.2 29320,27313C29320,27305.7 29317.1,27300.1 29312.7,27300.1C29307.7,27300.1 29304.5,27307.1 29304.5,27316.1C29304.5,27324.7 29307.9,27332 29313.4,27332C29316.4,27332 29318.8,27329.7 29320.3,27326ZM29312.6,27304.3C29315.5,27304.3 29317.1,27308 29317.2,27312.3L29307.5,27312.3C29308.1,27307.2 29310,27304.3 29312.6,27304.3Z" style="fill:rgb(98,100,102);fill-rule:nonzero;"/>
                <path d="M29327.9,27331.7C29330,27331.7 29332.1,27330 29333.4,27327.1L29333.4,27330.9L29336.1,27330.9L29336.1,27311C29336.1,27304.5 29333.6,27300.1 29329.5,27300.1C29326.7,27300.1 29324.4,27302.2 29323,27305.8L29325.1,27308.7C29326,27306.1 29327.6,27304.5 29329.4,27304.5C29331.7,27304.5 29333.4,27306.9 29333.4,27311L29333.4,27313.1L29327.9,27314.7C29324.4,27315.8 29322.6,27318.9 29322.6,27323.4C29322.6,27328.5 29324.7,27331.7 29327.9,27331.7ZM29325.3,27323.2C29325.3,27320.7 29326.3,27318.9 29328.6,27318.2L29333.4,27316.7L29333.4,27322.5C29332.3,27325.7 29330.5,27327.6 29328.4,27327.6C29326.5,27327.6 29325.3,27325.8 29325.3,27323.2Z" style="fill:rgb(98,100,102);fill-rule:nonzero;"/>
                <path d="M29351.9,27318.2C29351.9,27324 29350.2,27327.3 29347.5,27327.3C29344.7,27327.3 29343,27324 29343,27318.2L29343,27301.2L29340.3,27301.2L29340.3,27318C29340.3,27326.9 29343.1,27332 29347.5,27332C29351.9,27332 29354.7,27326.9 29354.7,27318L29354.7,27301.2L29351.9,27301.2L29351.9,27318.2Z" style="fill:rgb(98,100,102);fill-rule:nonzero;"/>
                <path d="M29359.9,27330.9L29364.5,27318.9L29369.2,27330.9L29372.3,27330.9L29366.3,27315.5L29371.9,27301.2L29368.7,27301.2L29364.5,27312.2L29360.3,27301.2L29357.1,27301.2L29362.7,27315.5L29356.7,27330.9L29359.9,27330.9Z" style="fill:rgb(98,100,102);fill-rule:nonzero;"/>
                <path d="M29391.1,27330.9L29394.1,27330.9L29394.1,27312.8L29397.7,27312.8C29402.2,27312.8 29405,27308.4 29405,27301.3C29405,27294.3 29402.2,27289.7 29397.7,27289.7L29391.1,27289.7L29391.1,27330.9ZM29397.7,27294.4C29400.3,27294.4 29401.9,27297 29401.9,27301.2C29401.9,27305.6 29400.3,27308.1 29397.7,27308.1L29394.1,27308.1L29394.1,27294.4L29397.7,27294.4Z" style="fill:rgb(98,100,102);fill-rule:nonzero;"/>
                <path d="M29407.7,27330.9L29410.5,27330.9L29410.5,27310.5C29411.4,27307.5 29412.8,27305.5 29415,27305.5C29415.6,27305.5 29416.1,27305.7 29416.6,27305.9L29416.6,27301C29416.2,27300.8 29415.7,27300.7 29415.2,27300.7C29413.1,27300.7 29411.6,27302.4 29410.5,27305L29410.5,27301.2L29407.7,27301.2L29407.7,27330.9Z" style="fill:rgb(98,100,102);fill-rule:nonzero;"/>
                <path d="M29426,27300.1C29420.7,27300.1 29417.2,27307.4 29417.2,27316.1C29417.2,27324.7 29420.7,27332 29426,27332C29431.2,27332 29434.8,27324.7 29434.8,27316.1C29434.8,27307.4 29431.2,27300.1 29426,27300.1ZM29426,27327.3C29422.5,27327.3 29420,27322.2 29420,27316.1C29420,27309.9 29422.5,27304.8 29426,27304.8C29429.4,27304.8 29431.9,27309.9 29431.9,27316.1C29431.9,27322.2 29429.4,27327.3 29426,27327.3Z" style="fill:rgb(98,100,102);fill-rule:nonzero;"/>
                <path d="M29439.4,27293.6C29440.4,27293.6 29441.3,27292 29441.3,27290C29441.3,27288.1 29440.4,27286.6 29439.4,27286.6C29438.3,27286.6 29437.4,27288.1 29437.4,27290C29437.4,27292 29438.3,27293.6 29439.4,27293.6ZM29440.7,27334.8L29440.7,27301.2L29438,27301.2L29438,27334.8C29438,27339.6 29436.7,27341 29434.8,27341C29433.7,27341 29432.9,27340.7 29432.3,27340.3L29432.3,27344.7C29433.1,27345.3 29434,27345.6 29435.1,27345.6C29438.7,27345.6 29440.7,27342.3 29440.7,27334.8Z" style="fill:rgb(98,100,102);fill-rule:nonzero;"/>
                <path d="M29460,27326L29458,27323.1C29456.9,27325.8 29455.1,27327.5 29453,27327.5C29449.6,27327.5 29447.1,27323.2 29447,27316.1L29459.4,27316.1C29459.5,27315.3 29459.6,27314.2 29459.6,27313C29459.6,27305.7 29456.8,27300.1 29452.4,27300.1C29447.3,27300.1 29444.2,27307.1 29444.2,27316.1C29444.2,27324.7 29447.6,27332 29453,27332C29456.1,27332 29458.5,27329.7 29460,27326ZM29452.3,27304.3C29455.2,27304.3 29456.8,27308 29456.9,27312.3L29447.2,27312.3C29447.8,27307.2 29449.6,27304.3 29452.3,27304.3Z" style="fill:rgb(98,100,102);fill-rule:nonzero;"/>
                <path d="M29464.1,27320.9C29464.1,27328.2 29466.2,27331.5 29469.8,27331.5C29470.9,27331.5 29471.8,27331.2 29472.6,27330.6L29472.6,27326.2C29472,27326.6 29471.2,27326.9 29470.2,27326.9C29468.2,27326.9 29466.9,27325.6 29466.9,27320.9L29466.9,27305.8L29472.5,27305.8L29472.5,27301.2L29466.9,27301.2L29466.9,27293.8L29464.1,27293.8L29464.1,27301.2L29461.1,27301.2L29461.1,27305.8L29464.1,27305.8L29464.1,27320.9Z" style="fill:rgb(98,100,102);fill-rule:nonzero;"/>
                <path d="M29474,27326.8C29475.5,27330.2 29477.5,27332 29480.1,27332C29483.1,27332 29485.6,27328.6 29485.6,27323.1C29485.6,27312.9 29477.4,27315.1 29477.4,27308.4C29477.4,27306.1 29478.4,27304.2 29480.1,27304.2C29481.5,27304.2 29482.8,27305.7 29483.6,27307.9L29485.5,27305C29484.4,27302.1 29482.4,27300.1 29480.1,27300.1C29477,27300.1 29474.8,27303.9 29474.8,27308.5C29474.8,27319 29482.9,27316.6 29482.9,27323.3C29482.9,27325.9 29481.9,27327.9 29480.1,27327.9C29478.4,27327.9 29477.1,27326.4 29476,27323.8L29474,27326.8Z" style="fill:rgb(98,100,102);fill-rule:nonzero;"/>
            </g>
            <g transform="matrix(1.25,0,0,0.267707,3.73687,644.926)">
                <g transform="matrix(0.5,-0,-0,4.49743,-2.98949,-2409.07)">
                    <path d="M595.456,602.383L578.789,602.383" style="fill:none;stroke:rgb(67,75,172);stroke-width:4.17px;stroke-linejoin:miter;stroke-miterlimit:10;"/>
                    <path d="M587.123,602.383L587.123,640.3" style="fill:none;stroke:rgb(67,75,172);stroke-width:4.17px;"/>
                </g>
            </g>
            <g transform="matrix(1.25,0,0,0.974778,3.73687,691.509)">
                <g transform="matrix(0.5,-0,-0,1.23515,-2.98949,-709.402)">
                    <path d="M593.373,946.181L587.123,952.431L580.873,946.181" style="fill:none;stroke:rgb(87,94,181);stroke-width:4.17px;stroke-linejoin:miter;stroke-miterlimit:10;"/>
                    <path d="M587.123,809.729L587.123,952.431" style="fill:none;stroke:rgb(87,94,181);stroke-width:4.17px;stroke-dasharray:8.33,8.33,0,0,0,0;"/>
                </g>
            </g>
            <g transform="matrix(1.97677,0,0,3.80804,343.23,631.423)">
                <path d="M12,12C14.21,12 16,10.21 16,8C16,5.79 14.21,4 12,4C9.79,4 8,5.79 8,8C8,10.21 9.79,12 12,12ZM12,14C9.33,14 4,15.34 4,18L4,19C4,19.55 4.45,20 5,20L19,20C19.55,20 20,19.55 20,19L20,18C20,15.34 14.67,14 12,14Z" style="fill:rgb(67,75,172);fill-rule:nonzero;"/>
            </g>
            <g transform="matrix(1.97677,0,0,3.80804,393.337,631.423)">
                <path d="M12,12C14.21,12 16,10.21 16,8C16,5.79 14.21,4 12,4C9.79,4 8,5.79 8,8C8,10.21 9.79,12 12,12ZM12,14C9.33,14 4,15.34 4,18L4,19C4,19.55 4.45,20 5,20L19,20C19.55,20 20,19.55 20,19L20,18C20,15.34 14.67,14 12,14Z" style="fill:rgb(226,7,22);fill-rule:nonzero;"/>
            </g>
            <g transform="matrix(1.25,0,0,2.40799,69.1182,85.6658)">
                <path d="M16,13L13,13C12.45,13 12,13.45 12,14L12,17C12,17.55 12.45,18 13,18L16,18C16.55,18 17,17.55 17,17L17,14C17,13.45 16.55,13 16,13ZM16,3L16,4L8,4L8,3C8,2.45 7.55,2 7,2C6.45,2 6,2.45 6,3L6,4L5,4C3.89,4 3.01,4.9 3.01,6L3,20C3,21.1 3.89,22 5,22L19,22C20.1,22 21,21.1 21,20L21,6C21,4.9 20.1,4 19,4L18,4L18,3C18,2.45 17.55,2 17,2C16.45,2 16,2.45 16,3ZM18,20L6,20C5.45,20 5,19.55 5,19L5,9L19,9L19,19C19,19.55 18.55,20 18,20Z" style="fill:white;fill-rule:nonzero;"/>
            </g>
            <g transform="matrix(1.74792,0,0,3.42394,64.1286,280.677)">
                <path d="M11,6L9,6L9,4L11,4L11,6ZM15,4L13,4L13,6L15,6L15,4ZM9,14L11,14L11,12L9,12L9,14ZM19,10L19,8L17,8L17,10L19,10ZM19,14L19,12L17,12L17,14L19,14ZM13,14L15,14L15,12L13,12L13,14ZM19,4L17,4L17,6L19,6L19,4ZM13,8L13,6L11,6L11,8L13,8ZM7,10L7,8L9,8L9,6L7,6L7,5C7,4.45 6.55,4 6,4C5.45,4 5,4.45 5,5L5,17.066C5,17.616 5.45,18.066 6,18.066C6.55,18.066 7,17.616 7,17.066L7,12L9,12L9,10L7,10ZM15,12L17,12L17,10L15,10L15,12ZM11,10L11,12L13,12L13,10L11,10ZM9,8L9,10L11,10L11,8L9,8ZM13,10L15,10L15,8L13,8L13,10ZM15,6L15,8L17,8L17,6L15,6Z" style="fill:rgb(67,75,172);fill-rule:nonzero;"/>
            </g>
            <g transform="matrix(1.25,0,0,0.267707,-49.4666,644.926)">
                <g transform="matrix(0.5,-0,-0,4.49743,39.5733,-2409.07)">
                    <path d="M510.33,602.383L493.664,602.383" style="fill:none;stroke:rgb(98,100,102);stroke-width:4.17px;stroke-linejoin:miter;stroke-miterlimit:10;"/>
                    <path d="M501.997,602.383L501.997,640.3" style="fill:none;stroke:rgb(98,100,102);stroke-width:4.17px;"/>
                </g>
            </g>
            <g transform="matrix(1.25,0,0,0.338686,-49.4666,990.874)">
                <g transform="matrix(0.5,-0,-0,3.5549,39.5733,-2925.64)">
                    <path d="M508.247,946.181L501.997,952.431L495.747,946.181" style="fill:none;stroke:rgb(98,100,102);stroke-width:4.17px;stroke-linejoin:miter;stroke-miterlimit:10;"/>
                    <path d="M501.997,904.772L501.997,952.431" style="fill:none;stroke:rgb(98,100,102);stroke-width:4.17px;stroke-dasharray:8.33,8.33,0,0,0,0;"/>
                </g>
            </g>
            <g transform="matrix(0.611503,0,0,4.07795,-17751.9,-110439)">
                <path d="M29227.2,27295.1L29230.7,27295.1L29230.7,27291.7L29234.9,27291.7C29240.2,27291.7 29243.5,27290.9 29243.5,27289.5C29243.5,27288.2 29240.2,27287.3 29234.9,27287.3L29227.2,27287.3L29227.2,27295.1ZM29235,27288.2C29238,27288.2 29239.8,27288.7 29239.8,27289.5C29239.8,27290.3 29238,27290.8 29235,27290.8L29230.7,27290.8L29230.7,27288.2L29235,27288.2Z" style="fill:rgb(67,75,172);fill-rule:nonzero;"/>
                <path d="M29246.7,27295.1L29249.9,27295.1L29249.9,27291.3C29251.1,27290.7 29252.7,27290.3 29255.2,27290.3C29255.9,27290.3 29256.5,27290.3 29257,27290.4L29257,27289.5C29256.6,27289.4 29256,27289.4 29255.4,27289.4C29253,27289.4 29251.3,27289.7 29249.9,27290.2L29249.9,27289.5L29246.7,27289.5L29246.7,27295.1Z" style="fill:rgb(67,75,172);fill-rule:nonzero;"/>
                <path d="M29268.1,27289.3C29261.9,27289.3 29257.8,27290.7 29257.8,27292.3C29257.8,27293.9 29261.9,27295.3 29268.1,27295.3C29274.2,27295.3 29278.3,27293.9 29278.3,27292.3C29278.3,27290.7 29274.2,27289.3 29268.1,27289.3ZM29268.1,27294.4C29264,27294.4 29261.1,27293.5 29261.1,27292.3C29261.1,27291.1 29264,27290.2 29268.1,27290.2C29272,27290.2 29274.9,27291.1 29274.9,27292.3C29274.9,27293.5 29272,27294.4 29268.1,27294.4Z" style="fill:rgb(67,75,172);fill-rule:nonzero;"/>
                <path d="M29280,27296.1C29280,27297.2 29283.7,27297.9 29289.3,27297.9C29295,27297.9 29299,27297 29299,27295.8C29299,27294.8 29296.7,27294.1 29291.7,27294.1L29286.3,27294.1C29285.1,27294.1 29284.7,27293.9 29284.7,27293.7C29284.7,27293.5 29285.1,27293.3 29285.9,27293.1C29286.7,27293.2 29287.6,27293.2 29288.6,27293.2C29293.1,27293.2 29295.9,27292.3 29295.9,27291.3C29295.9,27290.9 29295.7,27290.6 29295.2,27290.3L29299.3,27290.3L29299.3,27289.5L29292.2,27289.5C29291.2,27289.4 29290,27289.3 29288.6,27289.3C29284,27289.3 29281.2,27290.2 29281.2,27291.3C29281.2,27291.9 29282.1,27292.5 29283.8,27292.8C29282.3,27293.1 29281.5,27293.5 29281.5,27293.9C29281.5,27294.2 29282,27294.5 29282.9,27294.7C29281,27295.1 29280,27295.5 29280,27296.1ZM29288.6,27292.5C29285.8,27292.5 29284.2,27292 29284.2,27291.3C29284.2,27290.6 29285.8,27290 29288.6,27290C29291.3,27290 29292.9,27290.6 29292.9,27291.3C29292.9,27291.9 29291.3,27292.5 29288.6,27292.5ZM29283.2,27296C29283.2,27295.5 29284,27295.2 29285.3,27294.9L29291.4,27294.9C29294.8,27294.9 29295.8,27295.4 29295.8,27295.9C29295.8,27296.6 29293.3,27297.1 29289.3,27297.1C29285.5,27297.1 29283.2,27296.7 29283.2,27296Z" style="fill:rgb(67,75,172);fill-rule:nonzero;"/>
                <path d="M29302,27295.1L29305.3,27295.1L29305.3,27291.3C29306.4,27290.7 29308,27290.3 29310.5,27290.3C29311.3,27290.3 29311.8,27290.3 29312.4,27290.4L29312.4,27289.5C29312,27289.4 29311.4,27289.4 29310.8,27289.4C29308.4,27289.4 29306.6,27289.7 29305.3,27290.2L29305.3,27289.5L29302,27289.5L29302,27295.1Z" style="fill:rgb(67,75,172);fill-rule:nonzero;"/>
                <path d="M29320.2,27295.3C29322.7,27295.3 29325.2,27294.9 29326.6,27294.4L29326.6,27295.1L29329.8,27295.1L29329.8,27291.4C29329.8,27290.1 29326.9,27289.3 29322.1,27289.3C29318.8,27289.3 29316.1,27289.7 29314.5,27290.4L29316.9,27290.9C29318,27290.4 29319.8,27290.1 29322,27290.1C29324.7,27290.1 29326.6,27290.6 29326.6,27291.4L29326.6,27291.7L29320.2,27292.1C29316.1,27292.3 29314,27292.8 29314,27293.7C29314,27294.6 29316.5,27295.3 29320.2,27295.3ZM29317.2,27293.7C29317.2,27293.2 29318.4,27292.8 29321,27292.7L29326.6,27292.4L29326.6,27293.5C29325.3,27294.1 29323.3,27294.5 29320.7,27294.5C29318.5,27294.5 29317.2,27294.1 29317.2,27293.7Z" style="fill:rgb(67,75,172);fill-rule:nonzero;"/>
                <path d="M29335.1,27295.1L29338.3,27295.1L29338.3,27291.2C29339.4,27290.7 29341,27290.2 29343.6,27290.2C29346.4,27290.2 29348.1,27290.7 29348.1,27291.6L29348.1,27295.1L29351.3,27295.1L29351.3,27291.6C29351.3,27291.5 29351.3,27291.4 29351.2,27291.2C29352.5,27290.6 29354.2,27290.2 29356.6,27290.2C29359.3,27290.2 29361.1,27290.7 29361.1,27291.6L29361.1,27295.1L29364.3,27295.1L29364.3,27291.6C29364.3,27290.1 29361.3,27289.3 29357.2,27289.3C29354,27289.3 29352,27289.8 29350.4,27290.4C29349.3,27289.7 29347,27289.3 29344.3,27289.3C29341.6,27289.3 29339.7,27289.6 29338.3,27290.1L29338.3,27289.5L29335.1,27289.5L29335.1,27295.1Z" style="fill:rgb(67,75,172);fill-rule:nonzero;"/>
                <path d="M29369.6,27295.1L29372.8,27295.1L29372.8,27291.2C29373.9,27290.7 29375.5,27290.2 29378.1,27290.2C29380.9,27290.2 29382.6,27290.7 29382.6,27291.6L29382.6,27295.1L29385.8,27295.1L29385.8,27291.6C29385.8,27291.5 29385.8,27291.4 29385.7,27291.2C29387,27290.6 29388.7,27290.2 29391.1,27290.2C29393.8,27290.2 29395.6,27290.7 29395.6,27291.6L29395.6,27295.1L29398.8,27295.1L29398.8,27291.6C29398.8,27290.1 29395.8,27289.3 29391.7,27289.3C29388.4,27289.3 29386.4,27289.8 29384.9,27290.4C29383.8,27289.7 29381.5,27289.3 29378.8,27289.3C29376.1,27289.3 29374.2,27289.6 29372.8,27290.1L29372.8,27289.5L29369.6,27289.5L29369.6,27295.1Z" style="fill:rgb(67,75,172);fill-rule:nonzero;"/>
                <path d="M29421,27294.2L29418.6,27293.6C29417.4,27294.1 29415.3,27294.5 29412.8,27294.5C29408.8,27294.5 29405.9,27293.7 29405.7,27292.3L29420.3,27292.3C29420.4,27292.2 29420.6,27292 29420.6,27291.7C29420.6,27290.4 29417.2,27289.3 29412,27289.3C29406.2,27289.3 29402.5,27290.6 29402.5,27292.3C29402.5,27293.9 29406.4,27295.3 29412.8,27295.3C29416.4,27295.3 29419.2,27294.9 29421,27294.2ZM29412,27290.1C29415.3,27290.1 29417.2,27290.8 29417.4,27291.6L29406,27291.6C29406.6,27290.6 29408.8,27290.1 29412,27290.1Z" style="fill:rgb(67,75,172);fill-rule:nonzero;"/>
                <path d="M29224.4,27310.3C29226.1,27311 29228.5,27311.3 29231.5,27311.3C29235,27311.3 29237.9,27310.7 29237.9,27309.6C29237.9,27307.7 29228.4,27308.1 29228.4,27306.9C29228.4,27306.4 29229.5,27306.1 29231.5,27306.1C29233.1,27306.1 29234.6,27306.3 29235.6,27306.8L29237.8,27306.2C29236.5,27305.7 29234.2,27305.3 29231.5,27305.3C29227.8,27305.3 29225.3,27306 29225.3,27306.9C29225.3,27308.9 29234.8,27308.4 29234.8,27309.7C29234.8,27310.1 29233.6,27310.5 29231.5,27310.5C29229.5,27310.5 29227.9,27310.2 29226.6,27309.8L29224.4,27310.3Z" style="fill:rgb(67,75,172);fill-rule:nonzero;"/>
                <path d="M29255.2,27308.7C29255.2,27309.8 29253.2,27310.4 29250,27310.4C29246.8,27310.4 29244.8,27309.8 29244.8,27308.7L29244.8,27305.5L29241.6,27305.5L29241.6,27308.7C29241.6,27310.3 29244.8,27311.3 29250,27311.3C29255.1,27311.3 29258.4,27310.3 29258.4,27308.7L29258.4,27305.5L29255.2,27305.5L29255.2,27308.7Z" style="fill:rgb(67,75,172);fill-rule:nonzero;"/>
                <path d="M29263.6,27311.1L29266.8,27311.1L29266.8,27307.3C29268,27306.7 29269.6,27306.3 29272.1,27306.3C29272.8,27306.3 29273.4,27306.3 29274,27306.4L29274,27305.5C29273.5,27305.4 29273,27305.4 29272.3,27305.4C29269.9,27305.4 29268.2,27305.7 29266.8,27306.2L29266.8,27305.5L29263.6,27305.5L29263.6,27311.1Z" style="fill:rgb(67,75,172);fill-rule:nonzero;"/>
                <path d="M29286.5,27311.1L29289.7,27311.1L29289.7,27307.2C29290.8,27306.6 29292.4,27306.2 29295,27306.2C29297.8,27306.2 29299.5,27306.7 29299.5,27307.6L29299.5,27311.1L29302.7,27311.1L29302.7,27307.6C29302.7,27307.5 29302.7,27307.3 29302.6,27307.2C29303.9,27306.6 29305.6,27306.2 29308,27306.2C29310.7,27306.2 29312.5,27306.7 29312.5,27307.6L29312.5,27311.1L29315.7,27311.1L29315.7,27307.6C29315.7,27306.1 29312.7,27305.3 29308.6,27305.3C29305.3,27305.3 29303.3,27305.8 29301.8,27306.4C29300.7,27305.7 29298.4,27305.3 29295.6,27305.3C29293,27305.3 29291.1,27305.6 29289.7,27306.1L29289.7,27305.5L29286.5,27305.5L29286.5,27311.1Z" style="fill:rgb(67,75,172);fill-rule:nonzero;"/>
                <path d="M29337.9,27310.2L29335.5,27309.6C29334.2,27310.1 29332.2,27310.5 29329.7,27310.5C29325.6,27310.5 29322.7,27309.6 29322.6,27308.3L29337.2,27308.3C29337.3,27308.2 29337.4,27307.9 29337.4,27307.7C29337.4,27306.4 29334.1,27305.3 29328.9,27305.3C29323,27305.3 29319.4,27306.6 29319.4,27308.3C29319.4,27309.9 29323.3,27311.3 29329.7,27311.3C29333.3,27311.3 29336.1,27310.9 29337.9,27310.2ZM29328.8,27306.1C29332.2,27306.1 29334.1,27306.8 29334.2,27307.6L29322.9,27307.6C29323.5,27306.6 29325.7,27306.1 29328.8,27306.1Z" style="fill:rgb(67,75,172);fill-rule:nonzero;"/>
                <path d="M29339.6,27310.3C29341.3,27311 29343.7,27311.3 29346.7,27311.3C29350.2,27311.3 29353,27310.7 29353.1,27309.6C29353.1,27307.7 29343.5,27308.1 29343.5,27306.9C29343.5,27306.4 29344.6,27306.1 29346.7,27306.1C29348.3,27306.1 29349.8,27306.3 29350.8,27306.8L29353,27306.2C29351.7,27305.7 29349.4,27305.3 29346.6,27305.3C29343,27305.3 29340.5,27306 29340.5,27306.9C29340.5,27308.9 29350,27308.4 29350,27309.7C29350,27310.1 29348.8,27310.5 29346.6,27310.5C29344.7,27310.5 29343.1,27310.2 29341.8,27309.8L29339.6,27310.3Z" style="fill:rgb(67,75,172);fill-rule:nonzero;"/>
                <path d="M29370.4,27308.7C29370.4,27309.8 29368.4,27310.4 29365.2,27310.4C29361.9,27310.4 29359.9,27309.8 29359.9,27308.7L29359.9,27305.5L29356.7,27305.5L29356.7,27308.7C29356.7,27310.3 29360,27311.3 29365.1,27311.3C29370.3,27311.3 29373.6,27310.3 29373.6,27308.7L29373.6,27305.5L29370.4,27305.5L29370.4,27308.7Z" style="fill:rgb(67,75,172);fill-rule:nonzero;"/>
                <path d="M29378.8,27311.1L29382,27311.1L29382,27307.3C29383.2,27306.7 29384.8,27306.3 29387.3,27306.3C29388,27306.3 29388.6,27306.3 29389.2,27306.4L29389.2,27305.5C29388.7,27305.4 29388.1,27305.4 29387.5,27305.4C29385.1,27305.4 29383.4,27305.7 29382,27306.2L29382,27305.5L29378.8,27305.5L29378.8,27311.1Z" style="fill:rgb(67,75,172);fill-rule:nonzero;"/>
                <path d="M29408.4,27310.2L29406,27309.6C29404.8,27310.1 29402.7,27310.5 29400.2,27310.5C29396.2,27310.5 29393.3,27309.6 29393.2,27308.3L29407.7,27308.3C29407.9,27308.2 29408,27307.9 29408,27307.7C29408,27306.4 29404.6,27305.3 29399.4,27305.3C29393.6,27305.3 29389.9,27306.6 29389.9,27308.3C29389.9,27309.9 29393.8,27311.3 29400.2,27311.3C29403.8,27311.3 29406.6,27310.9 29408.4,27310.2ZM29399.4,27306.1C29402.7,27306.1 29404.6,27306.8 29404.8,27307.6L29393.4,27307.6C29394.1,27306.6 29396.2,27306.1 29399.4,27306.1Z" style="fill:rgb(67,75,172);fill-rule:nonzero;"/>
                <path d="M29413.3,27312.9L29417.2,27309.9L29413.5,27309.9L29410.3,27312.9L29413.3,27312.9Z" style="fill:rgb(67,75,172);fill-rule:nonzero;"/>
                <path d="M29246.1,27324.3C29246.1,27322.7 29242.3,27321.3 29236.4,27321.3C29233.5,27321.3 29231.3,27321.6 29229.6,27322.2L29229.6,27318.8L29226.4,27318.8L29226.4,27327.1L29229.6,27327.1L29229.6,27326.4C29231.3,27327 29233.5,27327.3 29236.4,27327.3C29242.3,27327.3 29246.1,27325.9 29246.1,27324.3ZM29236,27322.2C29240,27322.2 29242.8,27323.1 29242.8,27324.3C29242.8,27325.5 29240,27326.4 29236,27326.4C29233.4,27326.4 29231.1,27326.1 29229.6,27325.4L29229.6,27323.2C29231,27322.5 29233.3,27322.2 29236,27322.2Z" style="fill:rgb(67,75,172);fill-rule:nonzero;"/>
                <path d="M29255.3,27327.2C29257.8,27327.2 29260.3,27326.9 29261.7,27326.4L29261.7,27327.1L29264.9,27327.1L29264.9,27323.3C29264.9,27322.1 29262.1,27321.3 29257.2,27321.3C29253.9,27321.3 29251.2,27321.7 29249.6,27322.4L29252,27322.9C29253.2,27322.4 29254.9,27322.1 29257.1,27322.1C29259.8,27322.1 29261.7,27322.6 29261.7,27323.3L29261.7,27323.7L29255.3,27324C29251.3,27324.2 29249.1,27324.8 29249.1,27325.7C29249.1,27326.6 29251.6,27327.2 29255.3,27327.2ZM29252.3,27325.6C29252.3,27325.2 29253.5,27324.8 29256.1,27324.7L29261.7,27324.4L29261.7,27325.5C29260.5,27326.1 29258.4,27326.5 29255.9,27326.5C29253.7,27326.5 29252.3,27326.1 29252.3,27325.6Z" style="fill:rgb(67,75,172);fill-rule:nonzero;"/>
                <path d="M29268.2,27326.3C29269.9,27326.9 29272.3,27327.3 29275.3,27327.3C29278.9,27327.3 29281.7,27326.6 29281.7,27325.6C29281.7,27323.7 29272.2,27324.1 29272.2,27322.9C29272.2,27322.4 29273.3,27322.1 29275.3,27322.1C29277,27322.1 29278.4,27322.3 29279.4,27322.8L29281.7,27322.2C29280.3,27321.7 29278,27321.3 29275.3,27321.3C29271.6,27321.3 29269.1,27322 29269.1,27322.9C29269.1,27324.8 29278.6,27324.4 29278.6,27325.7C29278.6,27326.1 29277.4,27326.5 29275.3,27326.5C29273.4,27326.5 29271.8,27326.2 29270.5,27325.8L29268.2,27326.3Z" style="fill:rgb(67,75,172);fill-rule:nonzero;"/>
                <path d="M29295.2,27320.6L29299.6,27318.8L29296,27318.8L29292.1,27320.6L29295.2,27320.6ZM29302.5,27326.2L29300.1,27325.6C29298.8,27326.1 29296.8,27326.5 29294.3,27326.5C29290.3,27326.5 29287.3,27325.6 29287.2,27324.3L29301.8,27324.3C29301.9,27324.1 29302,27323.9 29302,27323.7C29302,27322.3 29298.7,27321.3 29293.5,27321.3C29287.7,27321.3 29284,27322.6 29284,27324.3C29284,27325.9 29287.9,27327.3 29294.3,27327.3C29297.9,27327.3 29300.7,27326.9 29302.5,27326.2ZM29293.5,27322.1C29296.8,27322.1 29298.7,27322.8 29298.8,27323.6L29287.5,27323.6C29288.1,27322.6 29290.3,27322.1 29293.5,27322.1Z" style="fill:rgb(67,75,172);fill-rule:nonzero;"/>
                <path d="M29313,27326.3C29314.7,27326.9 29317.1,27327.3 29320.1,27327.3C29323.6,27327.3 29326.5,27326.6 29326.5,27325.6C29326.5,27323.7 29317,27324.1 29317,27322.9C29317,27322.4 29318.1,27322.1 29320.1,27322.1C29321.8,27322.1 29323.2,27322.3 29324.2,27322.8L29326.4,27322.2C29325.1,27321.7 29322.8,27321.3 29320.1,27321.3C29316.4,27321.3 29313.9,27322 29313.9,27322.9C29313.9,27324.8 29323.4,27324.4 29323.4,27325.7C29323.4,27326.1 29322.2,27326.5 29320.1,27326.5C29318.1,27326.5 29316.6,27326.2 29315.2,27325.8L29313,27326.3Z" style="fill:rgb(67,75,172);fill-rule:nonzero;"/>
                <path d="M29343.8,27324.7C29343.8,27325.8 29341.8,27326.4 29338.6,27326.4C29335.4,27326.4 29333.4,27325.8 29333.4,27324.7L29333.4,27321.5L29330.2,27321.5L29330.2,27324.7C29330.2,27326.3 29333.4,27327.3 29338.6,27327.3C29343.7,27327.3 29347,27326.3 29347,27324.7L29347,27321.5L29343.8,27321.5L29343.8,27324.7Z" style="fill:rgb(67,75,172);fill-rule:nonzero;"/>
                <path d="M29352.2,27327.1L29355.4,27327.1L29355.4,27323.2C29356.6,27322.7 29358.2,27322.3 29360.7,27322.3C29361.5,27322.3 29362,27322.3 29362.6,27322.4L29362.6,27321.5C29362.1,27321.4 29361.6,27321.4 29361,27321.4C29358.5,27321.4 29356.8,27321.7 29355.4,27322.2L29355.4,27321.5L29352.2,27321.5L29352.2,27327.1Z" style="fill:rgb(67,75,172);fill-rule:nonzero;"/>
                <rect x="29375.1" y="27318.8" width="3.204" height="8.304" style="fill:rgb(67,75,172);fill-rule:nonzero;"/>
                <path d="M29400.8,27326.2L29398.5,27325.6C29397.2,27326.1 29395.1,27326.5 29392.7,27326.5C29388.6,27326.5 29385.7,27325.6 29385.6,27324.3L29400.2,27324.3C29400.3,27324.1 29400.4,27323.9 29400.4,27323.7C29400.4,27322.3 29397.1,27321.3 29391.9,27321.3C29386,27321.3 29382.3,27322.6 29382.3,27324.3C29382.3,27325.9 29386.3,27327.3 29392.7,27327.3C29396.2,27327.3 29399.1,27326.9 29400.8,27326.2ZM29391.8,27322.1C29395.2,27322.1 29397.1,27322.8 29397.2,27323.6L29385.8,27323.6C29386.5,27322.6 29388.7,27322.1 29391.8,27322.1Z" style="fill:rgb(67,75,172);fill-rule:nonzero;"/>
                <path d="M29402.5,27326.3C29404.3,27326.9 29406.6,27327.3 29409.7,27327.3C29413.2,27327.3 29416,27326.6 29416.1,27325.6C29416.1,27323.7 29406.5,27324.1 29406.5,27322.9C29406.5,27322.4 29407.6,27322.1 29409.7,27322.1C29411.3,27322.1 29412.8,27322.3 29413.8,27322.8L29416,27322.2C29414.7,27321.7 29412.3,27321.3 29409.6,27321.3C29406,27321.3 29403.4,27322 29403.4,27322.9C29403.4,27324.8 29412.9,27324.4 29412.9,27325.7C29412.9,27326.1 29411.7,27326.5 29409.6,27326.5C29407.7,27326.5 29406.1,27326.2 29404.8,27325.8L29402.5,27326.3Z" style="fill:rgb(67,75,172);fill-rule:nonzero;"/>
                <path d="M29243.3,27342.2L29240.9,27341.6C29239.7,27342.1 29237.6,27342.4 29235.1,27342.4C29231.1,27342.4 29228.2,27341.6 29228.1,27340.3L29242.6,27340.3C29242.8,27340.1 29242.9,27339.9 29242.9,27339.7C29242.9,27338.3 29239.5,27337.3 29234.4,27337.3C29228.5,27337.3 29224.8,27338.6 29224.8,27340.3C29224.8,27341.9 29228.7,27343.3 29235.1,27343.3C29238.7,27343.3 29241.5,27342.9 29243.3,27342.2ZM29234.3,27338.1C29237.6,27338.1 29239.6,27338.8 29239.7,27339.6L29228.3,27339.6C29229,27338.6 29231.2,27338.1 29234.3,27338.1Z" style="fill:rgb(67,75,172);fill-rule:nonzero;"/>
                <path d="M29247.2,27343.1L29250.4,27343.1L29250.4,27339.2C29251.6,27338.6 29253.3,27338.2 29256.1,27338.2C29259,27338.2 29260.9,27338.7 29260.9,27339.7L29260.9,27343.1L29264.1,27343.1L29264.1,27339.7C29264.1,27338.1 29261,27337.3 29256.7,27337.3C29253.9,27337.3 29251.9,27337.6 29250.4,27338.1L29250.4,27337.5L29247.2,27337.5L29247.2,27343.1Z" style="fill:rgb(67,75,172);fill-rule:nonzero;"/>
                <path d="M29267.4,27342.3C29269.1,27342.9 29271.5,27343.3 29274.5,27343.3C29278.1,27343.3 29280.9,27342.6 29280.9,27341.6C29280.9,27339.7 29271.4,27340.1 29271.4,27338.8C29271.4,27338.4 29272.5,27338.1 29274.5,27338.1C29276.2,27338.1 29277.6,27338.3 29278.6,27338.7L29280.9,27338.2C29279.5,27337.6 29277.2,27337.3 29274.5,27337.3C29270.8,27337.3 29268.3,27338 29268.3,27338.9C29268.3,27340.8 29277.8,27340.4 29277.8,27341.6C29277.8,27342.1 29276.6,27342.5 29274.5,27342.5C29272.6,27342.5 29271,27342.2 29269.7,27341.7L29267.4,27342.3Z" style="fill:rgb(67,75,172);fill-rule:nonzero;"/>
                <path d="M29301.7,27342.2L29299.3,27341.6C29298.1,27342.1 29296,27342.4 29293.5,27342.4C29289.5,27342.4 29286.6,27341.6 29286.4,27340.3L29301,27340.3C29301.1,27340.1 29301.3,27339.9 29301.3,27339.7C29301.3,27338.3 29297.9,27337.3 29292.7,27337.3C29286.9,27337.3 29283.2,27338.6 29283.2,27340.3C29283.2,27341.9 29287.1,27343.3 29293.5,27343.3C29297.1,27343.3 29299.9,27342.9 29301.7,27342.2ZM29292.7,27338.1C29296,27338.1 29297.9,27338.8 29298.1,27339.6L29286.7,27339.6C29287.3,27338.6 29289.5,27338.1 29292.7,27338.1Z" style="fill:rgb(67,75,172);fill-rule:nonzero;"/>
                <path d="M29307.2,27336C29308.4,27336 29309.4,27335.7 29309.4,27335.4C29309.4,27335 29308.4,27334.7 29307.2,27334.7C29305.9,27334.7 29304.9,27335 29304.9,27335.4C29304.9,27335.7 29305.9,27336 29307.2,27336ZM29305.6,27343.1L29308.8,27343.1L29308.8,27337.5L29305.6,27337.5L29305.6,27343.1Z" style="fill:rgb(67,75,172);fill-rule:nonzero;"/>
                <path d="M29312.2,27344.1C29312.2,27345.2 29315.9,27345.8 29321.5,27345.8C29327.2,27345.8 29331.2,27345 29331.2,27343.8C29331.2,27342.8 29328.9,27342.1 29323.9,27342.1L29318.4,27342.1C29317.3,27342.1 29316.9,27341.9 29316.9,27341.7C29316.9,27341.5 29317.3,27341.3 29318.1,27341.1C29318.9,27341.2 29319.8,27341.2 29320.7,27341.2C29325.3,27341.2 29328.1,27340.3 29328.1,27339.2C29328.1,27338.9 29327.9,27338.6 29327.3,27338.3L29331.4,27338.3L29331.4,27337.5L29324.4,27337.5C29323.4,27337.3 29322.1,27337.3 29320.7,27337.3C29316.2,27337.3 29313.4,27338.2 29313.4,27339.2C29313.4,27339.9 29314.3,27340.4 29316,27340.8C29314.5,27341.1 29313.7,27341.4 29313.7,27341.9C29313.7,27342.2 29314.2,27342.5 29315.1,27342.7C29313.2,27343.1 29312.2,27343.5 29312.2,27344.1ZM29320.8,27340.5C29318,27340.5 29316.4,27339.9 29316.4,27339.2C29316.4,27338.6 29318,27338 29320.8,27338C29323.5,27338 29325.1,27338.6 29325.1,27339.2C29325.1,27339.9 29323.5,27340.5 29320.8,27340.5ZM29315.4,27344C29315.4,27343.5 29316.1,27343.2 29317.5,27342.9L29323.6,27342.9C29327,27342.9 29328,27343.3 29328,27343.9C29328,27344.6 29325.5,27345.1 29321.5,27345.1C29317.7,27345.1 29315.4,27344.6 29315.4,27344Z" style="fill:rgb(67,75,172);fill-rule:nonzero;"/>
                <path d="M29334.2,27343.1L29337.4,27343.1L29337.4,27339.2C29338.6,27338.6 29340.4,27338.2 29343.1,27338.2C29346.1,27338.2 29348,27338.7 29348,27339.7L29348,27343.1L29351.2,27343.1L29351.2,27339.7C29351.2,27338.1 29348,27337.3 29343.8,27337.3C29340.9,27337.3 29339,27337.6 29337.4,27338.1L29337.4,27337.5L29334.2,27337.5L29334.2,27343.1Z" style="fill:rgb(67,75,172);fill-rule:nonzero;"/>
                <path d="M29373.4,27342.2L29371,27341.6C29369.8,27342.1 29367.7,27342.4 29365.3,27342.4C29361.2,27342.4 29358.3,27341.6 29358.2,27340.3L29372.8,27340.3C29372.9,27340.1 29373,27339.9 29373,27339.7C29373,27338.3 29369.6,27337.3 29364.5,27337.3C29358.6,27337.3 29354.9,27338.6 29354.9,27340.3C29354.9,27341.9 29358.9,27343.3 29365.3,27343.3C29368.8,27343.3 29371.6,27342.9 29373.4,27342.2ZM29364.4,27338.1C29367.7,27338.1 29369.7,27338.8 29369.8,27339.6L29358.4,27339.6C29359.1,27338.6 29361.3,27338.1 29364.4,27338.1Z" style="fill:rgb(67,75,172);fill-rule:nonzero;"/>
                <path d="M29377.3,27343.1L29380.5,27343.1L29380.5,27339.2C29381.6,27338.6 29383.2,27338.2 29385.8,27338.2C29388.6,27338.2 29390.3,27338.7 29390.3,27339.6L29390.3,27343.1L29393.5,27343.1L29393.5,27339.6C29393.5,27339.5 29393.5,27339.3 29393.4,27339.2C29394.7,27338.6 29396.4,27338.2 29398.8,27338.2C29401.5,27338.2 29403.3,27338.7 29403.3,27339.6L29403.3,27343.1L29406.5,27343.1L29406.5,27339.6C29406.5,27338.1 29403.5,27337.3 29399.4,27337.3C29396.1,27337.3 29394.1,27337.7 29392.6,27338.3C29391.5,27337.6 29389.2,27337.3 29386.4,27337.3C29383.8,27337.3 29381.9,27337.6 29380.5,27338.1L29380.5,27337.5L29377.3,27337.5L29377.3,27343.1Z" style="fill:rgb(67,75,172);fill-rule:nonzero;"/>
                <path d="M29428.7,27342.2L29426.3,27341.6C29425,27342.1 29423,27342.4 29420.5,27342.4C29416.4,27342.4 29413.5,27341.6 29413.4,27340.3L29428,27340.3C29428.1,27340.1 29428.2,27339.9 29428.2,27339.7C29428.2,27338.3 29424.9,27337.3 29419.7,27337.3C29413.8,27337.3 29410.2,27338.6 29410.2,27340.3C29410.2,27341.9 29414.1,27343.3 29420.5,27343.3C29424.1,27343.3 29426.9,27342.9 29428.7,27342.2ZM29419.6,27338.1C29423,27338.1 29424.9,27338.8 29425,27339.6L29413.7,27339.6C29414.3,27338.6 29416.5,27338.1 29419.6,27338.1Z" style="fill:rgb(67,75,172);fill-rule:nonzero;"/>
                <path d="M29432.5,27343.1L29435.7,27343.1L29435.7,27339.2C29437,27338.6 29438.7,27338.2 29441.4,27338.2C29444.4,27338.2 29446.3,27338.7 29446.3,27339.7L29446.3,27343.1L29449.5,27343.1L29449.5,27339.7C29449.5,27338.1 29446.3,27337.3 29442.1,27337.3C29439.2,27337.3 29437.3,27337.6 29435.7,27338.1L29435.7,27337.5L29432.5,27337.5L29432.5,27343.1Z" style="fill:rgb(67,75,172);fill-rule:nonzero;"/>
                <path d="M29455.9,27341.2C29455.9,27342.6 29458.3,27343.2 29462.5,27343.2C29463.9,27343.2 29464.9,27343.1 29465.8,27343L29465.8,27342.2C29465.1,27342.3 29464.2,27342.3 29463,27342.3C29460.7,27342.3 29459.2,27342.1 29459.2,27341.2L29459.2,27338.3L29465.7,27338.3L29465.7,27337.5L29459.2,27337.5L29459.2,27336.1L29455.9,27336.1L29455.9,27337.5L29452.3,27337.5L29452.3,27338.3L29455.9,27338.3L29455.9,27341.2Z" style="fill:rgb(67,75,172);fill-rule:nonzero;"/>
                <path d="M29467.5,27342.3C29469.2,27342.9 29471.6,27343.3 29474.6,27343.3C29478.1,27343.3 29481,27342.6 29481,27341.6C29481,27339.7 29471.5,27340.1 29471.5,27338.8C29471.5,27338.4 29472.6,27338.1 29474.6,27338.1C29476.3,27338.1 29477.7,27338.3 29478.7,27338.7L29480.9,27338.2C29479.6,27337.6 29477.3,27337.3 29474.6,27337.3C29470.9,27337.3 29468.4,27338 29468.4,27338.9C29468.4,27340.8 29477.9,27340.4 29477.9,27341.6C29477.9,27342.1 29476.7,27342.5 29474.6,27342.5C29472.6,27342.5 29471.1,27342.2 29469.7,27341.7L29467.5,27342.3Z" style="fill:rgb(67,75,172);fill-rule:nonzero;"/>
                <path d="M29224.8,27356.3C29224.8,27357.9 29228.6,27359.3 29234.5,27359.3C29237.4,27359.3 29239.6,27359 29241.3,27358.4L29241.3,27359.1L29244.5,27359.1L29244.5,27350.8L29241.3,27350.8L29241.3,27354.2C29239.6,27353.6 29237.4,27353.3 29234.5,27353.3C29228.6,27353.3 29224.8,27354.6 29224.8,27356.3ZM29228.2,27356.3C29228.2,27355.1 29230.9,27354.2 29234.9,27354.2C29237.5,27354.2 29239.8,27354.5 29241.3,27355.2L29241.3,27357.4C29239.9,27358 29237.6,27358.4 29234.9,27358.4C29230.9,27358.4 29228.2,27357.5 29228.2,27356.3Z" style="fill:rgb(67,75,172);fill-rule:nonzero;"/>
                <path d="M29263.3,27356.7C29263.3,27357.8 29261.3,27358.4 29258.1,27358.4C29254.9,27358.4 29252.9,27357.8 29252.9,27356.7L29252.9,27353.5L29249.7,27353.5L29249.7,27356.6C29249.7,27358.3 29253,27359.3 29258.1,27359.3C29263.3,27359.3 29266.5,27358.3 29266.5,27356.6L29266.5,27353.5L29263.3,27353.5L29263.3,27356.7Z" style="fill:rgb(67,75,172);fill-rule:nonzero;"/>
                <path d="M29278.7,27352.3L29287.5,27352.3L29287.5,27359.1L29291,27359.1L29291,27352.3L29299.8,27352.3L29299.8,27351.3L29278.7,27351.3L29278.7,27352.3Z" style="fill:rgb(67,75,172);fill-rule:nonzero;"/>
                <path d="M29317.4,27358.1L29315,27357.6C29313.8,27358.1 29311.7,27358.4 29309.2,27358.4C29305.2,27358.4 29302.3,27357.6 29302.2,27356.3L29316.7,27356.3C29316.9,27356.1 29317,27355.9 29317,27355.7C29317,27354.3 29313.6,27353.3 29308.5,27353.3C29302.6,27353.3 29298.9,27354.6 29298.9,27356.3C29298.9,27357.9 29302.8,27359.3 29309.2,27359.3C29312.8,27359.3 29315.6,27358.8 29317.4,27358.1ZM29308.4,27354.1C29311.7,27354.1 29313.7,27354.7 29313.8,27355.6L29302.4,27355.6C29303.1,27354.6 29305.3,27354.1 29308.4,27354.1Z" style="fill:rgb(67,75,172);fill-rule:nonzero;"/>
                <path d="M29321.3,27359.1L29324.5,27359.1L29324.5,27355.2C29325.6,27354.6 29327.2,27354.2 29329.8,27354.2C29332.5,27354.2 29334.3,27354.7 29334.3,27355.6L29334.3,27359.1L29337.5,27359.1L29337.5,27355.6C29337.5,27355.4 29337.4,27355.3 29337.4,27355.2C29338.6,27354.5 29340.3,27354.2 29342.8,27354.2C29345.5,27354.2 29347.2,27354.7 29347.2,27355.6L29347.2,27359.1L29350.4,27359.1L29350.4,27355.6C29350.4,27354.1 29347.5,27353.3 29343.4,27353.3C29340.1,27353.3 29338.1,27353.7 29336.6,27354.3C29335.4,27353.6 29333.2,27353.3 29330.4,27353.3C29327.8,27353.3 29325.9,27353.6 29324.5,27354.1L29324.5,27353.5L29321.3,27353.5L29321.3,27359.1Z" style="fill:rgb(67,75,172);fill-rule:nonzero;"/>
                <path d="M29355.8,27361.8L29359,27361.8L29359,27358.4C29360.7,27359 29362.9,27359.3 29365.7,27359.3C29371.7,27359.3 29375.5,27357.9 29375.5,27356.3C29375.5,27354.6 29371.7,27353.3 29365.7,27353.3C29362.9,27353.3 29360.7,27353.6 29359,27354.2L29359,27353.5L29355.8,27353.5L29355.8,27361.8ZM29365.3,27354.2C29369.4,27354.2 29372.1,27355.1 29372.1,27356.3C29372.1,27357.5 29369.4,27358.4 29365.3,27358.4C29362.7,27358.4 29360.4,27358 29359,27357.4L29359,27355.2C29360.4,27354.5 29362.7,27354.2 29365.3,27354.2Z" style="fill:rgb(67,75,172);fill-rule:nonzero;"/>
                <path d="M29376.9,27358.3C29378.7,27358.9 29381.1,27359.3 29384.1,27359.3C29387.6,27359.3 29390.4,27358.6 29390.5,27357.6C29390.5,27355.7 29380.9,27356.1 29380.9,27354.8C29380.9,27354.4 29382,27354 29384.1,27354C29385.7,27354 29387.2,27354.3 29388.2,27354.7L29390.4,27354.2C29389.1,27353.6 29386.7,27353.3 29384,27353.3C29380.4,27353.3 29377.8,27354 29377.8,27354.9C29377.8,27356.8 29387.3,27356.4 29387.3,27357.6C29387.3,27358.1 29386.1,27358.5 29384,27358.5C29382.1,27358.5 29380.5,27358.2 29379.2,27357.7L29376.9,27358.3Z" style="fill:rgb(67,75,172);fill-rule:nonzero;"/>
                <path d="M29401.4,27356.2L29401.4,27357L29404.6,27357L29402.7,27359.1L29405.6,27359.1L29407.5,27357L29414.4,27357L29412.5,27359.1L29415.4,27359.1L29417.4,27357L29423.9,27357L29423.9,27356.2L29418.1,27356.2L29420,27354.2L29423.9,27354.2L29423.9,27353.4L29420.7,27353.4L29422.7,27351.3L29419.7,27351.3L29417.8,27353.4L29410.9,27353.4L29412.9,27351.3L29409.9,27351.3L29408,27353.4L29401.4,27353.4L29401.4,27354.2L29407.2,27354.2L29405.4,27356.2L29401.4,27356.2ZM29408.3,27356.2L29410.2,27354.2L29417,27354.2L29415.2,27356.2L29408.3,27356.2Z" style="fill:rgb(67,75,172);fill-rule:nonzero;"/>
                <path d="M29433,27359.1L29436.3,27359.1L29436.3,27351.3L29432.9,27351.3L29424.2,27352.7L29426,27353.4L29433,27352.3L29433,27359.1Z" style="fill:rgb(67,75,172);fill-rule:nonzero;"/>
            </g>
            <g transform="matrix(0.148258,0,1.15687e-33,0.285602,-4085.78,-7441.92)">
                <g transform="matrix(1.26121,0,0,1.26121,26856.2,26324)">
                    <path d="M1252.52,1802.19C1252.52,1840.06 1278.18,1868.71 1312.57,1868.71C1314.12,1868.71 1315.65,1868.65 1317.15,1868.53L1317.15,1824.96C1306.24,1823.01 1298.61,1813.88 1298.61,1802.19C1298.61,1790.5 1306.24,1781.36 1317.15,1779.41L1317.15,1735.85C1315.65,1735.72 1314.12,1735.66 1312.57,1735.66C1278.18,1735.66 1252.52,1764.32 1252.52,1802.19Z" style="fill:rgb(0,0,145);fill-rule:nonzero;"/>
                </g>
                <g transform="matrix(1.26121,0,0,1.27435,25114.6,26303.3)">
                    <rect x="2980.24" y="1738.65" width="44.85" height="127.07" style="fill:rgb(225,0,15);fill-rule:nonzero;"/>
                </g>
                <g transform="matrix(1.26121,0,0,1.32056,24775.4,26217.1)">
                    <rect x="2980.24" y="1738.65" width="44.85" height="127.07" style="fill:rgb(0,0,145);fill-rule:nonzero;"/>
                </g>
                <g transform="matrix(1.26121,0,0,1.08646,23935.4,26650.1)">
                    <path d="M3551.17,1686.33L3551.29,1865.72L3506.44,1865.72L3506.44,1686.33L3551.17,1686.33Z" style="fill:rgb(0,0,145);"/>
                </g>
                <g transform="matrix(2.68469,0,0,2.68469,22148.7,31294.1)">
                    <g transform="matrix(0.469777,0,0,0.469777,1348.14,-1968.69)">
                        <path d="M2300.44,2015.46C2312.15,2015.46 2321.86,2019.7 2332.08,2025.43L2351.27,1998.02C2338.81,1989.8 2322.36,1981.83 2298.69,1981.83C2294.93,1981.83 2291.26,1982.04 2287.71,1982.46L2287.71,2019.75C2288.81,2016.67 2294.21,2015.46 2300.44,2015.46Z" style="fill:rgb(225,0,15);"/>
                    </g>
                    <g transform="matrix(0.469777,0,0,0.469777,1348.14,-1968.69)">
                        <path d="M2301.41,2084.32C2301.42,2084.32 2308.72,2081.95 2309.08,2076.76C2309.32,2073.31 2307.03,2071.08 2303.48,2069.59C2300.23,2068.22 2295.51,2067.19 2289.86,2066.04C2288.88,2065.84 2287.87,2065.63 2286.85,2065.42L2286.85,2025.78C2287.99,2029.47 2294.98,2031.11 2304.55,2032.93C2323.99,2036.67 2352.39,2042.9 2352.39,2074.29C2352.39,2103.44 2327.23,2118.64 2294.84,2118.64C2292.08,2118.64 2289.43,2118.52 2286.85,2118.31L2286.85,2084.61C2288.88,2084.84 2290.94,2085.01 2293.09,2085.01C2296.4,2085.01 2299.06,2084.89 2301.41,2084.32Z" style="fill:rgb(225,0,15);"/>
                    </g>
                </g>
                <g transform="matrix(2.68469,0,0,2.68469,22016.1,31318.9)">
                    <g transform="matrix(0.469777,0,0,0.469777,1614.44,-1859.36)">
                        <path d="M2265.3,1828.4C2256.45,1828.4 2249.32,1824.98 2244.63,1819.01L2244.63,1863.89C2250.77,1865.4 2257.25,1866.27 2264.05,1866.27C2286.72,1866.27 2306.66,1857.55 2320.36,1843.35L2290.96,1817.44C2286.23,1822.42 2277.01,1828.4 2265.3,1828.4Z" style="fill:rgb(225,0,15);"/>
                    </g>
                    <g transform="matrix(0.469777,0,0,0.469777,1614.44,-1859.36)">
                        <path d="M2260.81,1735.66C2255.19,1735.66 2249.8,1736.32 2244.63,1737.45L2244.63,1781.46C2248.53,1776.46 2253.92,1773.53 2260.31,1773.53C2269.28,1773.53 2277.01,1779.26 2280.25,1789.23L2244.63,1789.23L2244.63,1814.89L2327.09,1814.89C2327.84,1811.66 2328.09,1806.67 2328.09,1803.18C2328.09,1764.07 2299.18,1735.66 2260.81,1735.66Z" style="fill:rgb(225,0,15);"/>
                    </g>
                </g>
                <g transform="matrix(1.26121,0,0,1.27435,25206.3,26303.3)">
                    <rect x="2980.24" y="1738.65" width="44.85" height="127.07" style="fill:rgb(225,0,15);fill-rule:nonzero;"/>
                </g>
                <g transform="matrix(1.26121,0,0,0.443681,25206.3,27654.4)">
                    <rect x="2980.24" y="1738.65" width="44.85" height="127.07" style="fill:rgb(225,0,15);fill-rule:nonzero;"/>
                </g>
                <g transform="matrix(1.26121,0,0,1.26121,25862.8,26016.6)">
                    <path d="M2575.64,1954.92L2530.79,1954.92L2530.79,1984.82L2530.53,1984.82L2530.53,2025.68L2530.79,2025.68L2530.79,2066.29C2530.79,2093.95 2545.24,2114.88 2579.63,2114.88C2589.6,2114.88 2597.57,2113.13 2605.29,2109.14L2605.29,2067.29C2600.8,2069.53 2595.33,2071.52 2589.34,2071.52C2579.88,2071.52 2575.64,2066.29 2575.64,2058.81L2575.64,2025.68L2605.29,2025.68L2605.29,1984.82L2575.64,1984.82L2575.64,1954.92Z" style="fill:rgb(225,0,15);fill-rule:nonzero;"/>
                </g>
                <g transform="matrix(1.26121,0,0,1.26121,25327.9,26013.6)">
                    <path d="M2786.43,2071.52C2776.47,2071.52 2769.74,2064.79 2769.74,2054.58L2769.74,1984.82L2724.89,1984.82L2724.89,2060.81C2724.89,2093.45 2749.31,2114.88 2786.43,2114.88C2790.8,2114.88 2794.98,2114.55 2798.98,2113.98L2798.98,2066.3C2796.04,2069.59 2791.71,2071.52 2786.43,2071.52Z" style="fill:rgb(225,0,15);fill-rule:nonzero;"/>
                </g>
            </g>
            <g transform="matrix(1.25,0,0,2.40799,69.3792,422.813)">
                <path d="M5,13L16.17,13L11.29,17.88C10.9,18.27 10.9,18.91 11.29,19.3C11.68,19.69 12.31,19.69 12.7,19.3L19.29,12.71C19.68,12.32 19.68,11.69 19.29,11.3L12.71,4.7C12.32,4.31 11.69,4.31 11.3,4.7C10.91,5.09 10.91,5.72 11.3,6.11L16.17,11L5,11C4.45,11 4,11.45 4,12C4,12.55 4.45,13 5,13Z" style="fill-rule:nonzero;stroke:rgb(87,94,181);stroke-width:0.5px;stroke-linecap:butt;stroke-miterlimit:2;"/>
            </g>
            <g transform="matrix(1.38964,0,0,2.67699,67.4426,829.88)">
                <path d="M16.48,10.41C16.09,10.8 15.44,10.8 15.05,10.41L10.58,5.95L3.53,12.99L2.87,12.36C1.7,11.19 1.7,9.29 2.87,8.12L7.11,3.88C8.28,2.71 10.18,2.71 11.35,3.88L16.48,9C16.87,9.39 16.87,10.02 16.48,10.41ZM17.18,8.29C17.96,9.07 17.96,10.34 17.18,11.12C15.91,12.39 14.57,11.34 14.35,11.12L10.59,7.36L5.02,12.93C4.63,13.32 4.63,13.95 5.02,14.34C5.41,14.73 6.04,14.73 6.44,14.34L11.06,9.72L11.77,10.43L7.15,15.05C6.76,15.44 6.76,16.07 7.15,16.46C7.54,16.85 8.17,16.85 8.57,16.46L13.19,11.84L13.9,12.55L9.28,17.17C8.89,17.56 8.89,18.19 9.28,18.58C9.67,18.97 10.3,18.97 10.69,18.58L15.31,13.96L16.02,14.67L11.4,19.29C11.01,19.68 11.01,20.31 11.4,20.7C11.79,21.09 12.42,21.09 12.81,20.7L21.13,12.36C22.3,11.19 22.3,9.29 21.13,8.12L16.89,3.88C15.74,2.73 13.88,2.71 12.71,3.82L17.18,8.29Z" style="fill:rgb(67,75,172);fill-rule:nonzero;"/>
            </g>
        </g>
    </g>
</svg>
