<?xml version="1.0" encoding="UTF-8" standalone="no"?>
<!DOCTYPE svg PUBLIC "-//W3C//DTD SVG 1.1//EN" "http://www.w3.org/Graphics/SVG/1.1/DTD/svg11.dtd">
<svg width="100%" height="100%" viewBox="0 0 800 1092" version="1.1" xmlns="http://www.w3.org/2000/svg" xmlns:xlink="http://www.w3.org/1999/xlink" xml:space="preserve" xmlns:serif="http://www.serif.com/" style="fill-rule:evenodd;clip-rule:evenodd;stroke-linecap:round;stroke-linejoin:round;stroke-miterlimit:1.5;">
    <g transform="matrix(1,0,0,1,-19641.5,-46148)">
        <g id="schéma-mobile-1--vectorisé-" serif:id="schéma mobile 1 (vectorisé)" transform="matrix(1.6,0,0,0.830569,19641.5,46148)">
            <rect x="0" y="0" width="500" height="1313.92" style="fill:none;"/>
            <g transform="matrix(1.73401,0,0,6.36705,-61.031,-14744)">
                <path d="M259.558,2418.29C256.917,2419.36 255.372,2421.02 255.372,2422.78C255.372,2433.21 255.372,2469.43 255.372,2469.43C255.372,2478.37 241.544,2485.62 224.513,2485.62L105.616,2485.62C88.585,2485.62 74.758,2478.37 74.758,2469.43L74.758,2344.68C74.758,2335.75 88.585,2328.49 105.616,2328.49L224.513,2328.49C241.544,2328.49 255.372,2335.75 255.372,2344.68C255.372,2344.68 255.372,2383.07 255.372,2392.65C255.372,2394.01 256.566,2395.29 258.607,2396.12C264.381,2398.46 276.426,2403.36 282.556,2405.85C283.457,2406.22 283.984,2406.78 283.985,2407.38C283.986,2407.98 283.459,2408.55 282.559,2408.91C276.75,2411.28 265.62,2415.82 259.558,2418.29Z" style="fill:none;stroke:rgb(87,94,181);stroke-width:0.99px;"/>
            </g>
            <g transform="matrix(1.08706,0,0,0.929193,-31698.5,-25199.5)">
                <path d="M29283.3,27336.4C29285.4,27341.9 29288.1,27345.3 29292.4,27345.3C29296.7,27345.3 29300.4,27339.3 29300.5,27328.6C29300.5,27310 29290.2,27312.6 29290.2,27304.7C29290.2,27302.5 29291.1,27300.9 29292.3,27300.9C29293.8,27300.9 29295.3,27303.5 29296.6,27307.2L29300.9,27298.2C29298.8,27292.7 29295.9,27289.1 29292.2,27289.1C29287.5,27289.1 29284.3,27296.5 29284.3,27305.3C29284.3,27323.6 29294.5,27320.9 29294.5,27329.1C29294.5,27332.1 29293.6,27333.5 29292.3,27333.5C29290.6,27333.5 29288.8,27331 29287.5,27327.3L29283.3,27336.4Z" style="fill:rgb(67,75,172);fill-rule:nonzero;"/>
                <path d="M29311.3,27304C29305.8,27304 29302.1,27313 29302.1,27324.7C29302.1,27336.4 29305.8,27345.3 29311.3,27345.3C29316.8,27345.3 29320.6,27336.4 29320.6,27324.7C29320.6,27313 29316.8,27304 29311.3,27304ZM29311.4,27334C29309.2,27334 29307.6,27330.4 29307.6,27324.7C29307.6,27319 29309.2,27315.3 29311.4,27315.3C29313.5,27315.3 29315.1,27318.9 29315.1,27324.7C29315.1,27330.3 29313.5,27334 29311.4,27334Z" style="fill:rgb(67,75,172);fill-rule:nonzero;"/>
                <path d="M29333.5,27327.2C29333.5,27331.2 29332.6,27334 29330.7,27334C29328.7,27334 29327.9,27331.2 29327.9,27327.2L29327.9,27305.5L29322.5,27305.5L29322.5,27326.5C29322.5,27338 29325.4,27345.3 29330.6,27345.3C29335.8,27345.3 29338.8,27338 29338.8,27326.5L29338.8,27305.5L29333.5,27305.5L29333.5,27327.2Z" style="fill:rgb(67,75,172);fill-rule:nonzero;"/>
                <path d="M29341.8,27343.8L29347,27343.8L29347,27319.9C29347.4,27318.7 29348.1,27315.3 29349.7,27315.3C29351.2,27315.3 29352,27317.7 29352,27321.1L29352,27343.8L29357.3,27343.8L29357.3,27319.6C29357.6,27318.7 29358.2,27315.3 29359.9,27315.3C29361.4,27315.3 29362.2,27317.7 29362.2,27321.1L29362.2,27343.8L29367.5,27343.8L29367.5,27320.6C29367.5,27309.5 29364.7,27304 29361.3,27304C29358.6,27304 29357.1,27306.6 29356,27309.5C29354.8,27305.8 29353.1,27304 29351.2,27304C29349.4,27304 29348,27305.5 29347,27307.5L29347,27305.5L29341.8,27305.5L29341.8,27343.8Z" style="fill:rgb(67,75,172);fill-rule:nonzero;"/>
                <path d="M29373.3,27301.3C29375.1,27301.3 29376.6,27297.7 29376.6,27293.6C29376.6,27289.5 29375.1,27286 29373.3,27286C29371.5,27286 29370,27289.5 29370,27293.6C29370,27297.7 29371.5,27301.3 29373.3,27301.3ZM29370.6,27343.8L29375.9,27343.8L29375.9,27305.5L29370.6,27305.5L29370.6,27343.8Z" style="fill:rgb(67,75,172);fill-rule:nonzero;"/>
                <path d="M29377.7,27338C29379.4,27342.5 29381.5,27345.3 29384.7,27345.3C29387.9,27345.3 29391,27340.9 29391.1,27332.3C29391.1,27318.9 29383.3,27320.9 29383.3,27315.9C29383.3,27314.6 29383.8,27313.6 29384.7,27313.6C29385.9,27313.6 29386.9,27315.6 29387.7,27317.7L29391.1,27310.7C29389.9,27306.9 29387.4,27304 29384.7,27304C29381,27304 29378.3,27309.2 29378.3,27316.5C29378.3,27330 29386.1,27327.9 29386.1,27333.1C29386.1,27334.6 29385.6,27335.8 29384.6,27335.8C29383.1,27335.8 29382,27333.5 29381.1,27330.8L29377.7,27338Z" style="fill:rgb(67,75,172);fill-rule:nonzero;"/>
                <path d="M29391.8,27338C29393.5,27342.5 29395.7,27345.3 29398.9,27345.3C29402.1,27345.3 29405.2,27340.9 29405.2,27332.3C29405.2,27318.9 29397.5,27320.9 29397.5,27315.9C29397.5,27314.6 29397.9,27313.6 29398.9,27313.6C29400.1,27313.6 29401.1,27315.6 29401.9,27317.7L29405.3,27310.7C29404,27306.9 29401.5,27304 29398.9,27304C29395.2,27304 29392.5,27309.2 29392.5,27316.5C29392.5,27330 29400.2,27327.9 29400.2,27333.1C29400.2,27334.6 29399.8,27335.8 29398.8,27335.8C29397.3,27335.8 29396.2,27333.5 29395.3,27330.8L29391.8,27338Z" style="fill:rgb(67,75,172);fill-rule:nonzero;"/>
                <path d="M29410.2,27301.3C29412,27301.3 29413.5,27297.7 29413.5,27293.6C29413.5,27289.5 29412,27286 29410.2,27286C29408.4,27286 29406.9,27289.5 29406.9,27293.6C29406.9,27297.7 29408.4,27301.3 29410.2,27301.3ZM29407.6,27343.8L29412.8,27343.8L29412.8,27305.5L29407.6,27305.5L29407.6,27343.8Z" style="fill:rgb(67,75,172);fill-rule:nonzero;"/>
                <path d="M29424.4,27304C29418.9,27304 29415.2,27313 29415.2,27324.7C29415.2,27336.4 29418.9,27345.3 29424.4,27345.3C29429.9,27345.3 29433.6,27336.4 29433.6,27324.7C29433.6,27313 29429.9,27304 29424.4,27304ZM29424.5,27334C29422.3,27334 29420.6,27330.4 29420.6,27324.7C29420.6,27319 29422.3,27315.3 29424.5,27315.3C29426.6,27315.3 29428.2,27318.9 29428.2,27324.7C29428.2,27330.3 29426.6,27334 29424.5,27334Z" style="fill:rgb(67,75,172);fill-rule:nonzero;"/>
                <path d="M29436,27343.8L29441.2,27343.8L29441.2,27319.9C29441.6,27318.7 29442.4,27315.3 29444.3,27315.3C29446,27315.3 29446.9,27318 29446.9,27321.8L29446.9,27343.8L29452.2,27343.8L29452.2,27321.3C29452.2,27309.7 29449.2,27304 29445.7,27304C29443.7,27304 29442.3,27305.5 29441.2,27307.6L29441.2,27305.5L29436,27305.5L29436,27343.8Z" style="fill:rgb(67,75,172);fill-rule:nonzero;"/>
            </g>
            <g transform="matrix(0.715599,0,0,4.78643,-20785.6,-130298)">
                <path d="M29226.9,27295.1L29232.3,27295.1L29232.3,27292L29235,27292L29242.1,27295.1L29248.4,27295.1L29240.1,27291.7C29242.9,27291.3 29244.4,27290.6 29244.4,27289.7C29244.4,27288.2 29240.8,27287.3 29235,27287.3L29226.9,27287.3L29226.9,27295.1ZM29235.3,27288.7C29237.6,27288.7 29238.9,27289.1 29238.9,27289.6C29238.9,27290.3 29237.6,27290.7 29235.3,27290.7L29232.3,27290.7L29232.3,27288.7L29235.3,27288.7Z" style="fill:rgb(67,75,172);fill-rule:nonzero;"/>
                <path d="M29267.1,27294.2L29263.7,27293.4C29262.7,27293.8 29260.9,27294.1 29258.8,27294.1C29255.8,27294.1 29253.6,27293.6 29253.1,27292.6L29266.5,27292.6C29266.6,27292.4 29266.8,27292.1 29266.8,27291.8C29266.8,27290.3 29263.3,27289.3 29258,27289.3C29251.8,27289.3 29248.2,27290.7 29248.2,27292.3C29248.2,27293.9 29252,27295.3 29258.8,27295.3C29262.4,27295.3 29265.4,27294.9 29267.1,27294.2ZM29257.9,27290.4C29260.6,27290.4 29262,27291 29262.1,27291.6L29253.3,27291.6C29253.8,27290.8 29255.4,27290.4 29257.9,27290.4Z" style="fill:rgb(67,75,172);fill-rule:nonzero;"/>
                <path d="M29267.1,27289.5L29274,27295.1L29280.3,27295.1L29287.3,27289.5L29282.1,27289.5L29277.2,27293.5L29272.2,27289.5L29267.1,27289.5Z" style="fill:rgb(67,75,172);fill-rule:nonzero;"/>
                <path d="M29301.6,27292.7C29301.6,27293.5 29300.2,27294 29297.6,27294C29295,27294 29293.5,27293.5 29293.5,27292.7L29293.5,27289.5L29288.7,27289.5L29288.7,27292.6C29288.7,27294.3 29292,27295.3 29297.6,27295.3C29303.2,27295.3 29306.5,27294.3 29306.5,27292.6L29306.5,27289.5L29301.6,27289.5L29301.6,27292.7Z" style="fill:rgb(67,75,172);fill-rule:nonzero;"/>
                <path d="M29327.8,27294.2L29324.4,27293.4C29323.4,27293.8 29321.6,27294.1 29319.5,27294.1C29316.5,27294.1 29314.3,27293.6 29313.9,27292.6L29327.2,27292.6C29327.4,27292.4 29327.5,27292.1 29327.5,27291.8C29327.5,27290.3 29324,27289.3 29318.7,27289.3C29312.5,27289.3 29308.9,27290.7 29308.9,27292.3C29308.9,27293.9 29312.8,27295.3 29319.5,27295.3C29323.1,27295.3 29326.1,27294.9 29327.8,27294.2ZM29318.6,27290.4C29321.3,27290.4 29322.7,27291 29322.8,27291.6L29314,27291.6C29314.5,27290.8 29316.2,27290.4 29318.6,27290.4Z" style="fill:rgb(67,75,172);fill-rule:nonzero;"/>
                <path d="M29338,27292.3C29338,27293.9 29341.7,27295.3 29347.7,27295.3C29350.3,27295.3 29352.1,27295.1 29353.6,27294.7L29353.6,27295.1L29358.4,27295.1L29358.4,27286.8L29353.6,27286.8L29353.6,27290C29352.1,27289.5 29350.3,27289.3 29347.7,27289.3C29341.7,27289.3 29338,27290.7 29338,27292.3ZM29343,27292.3C29343,27291.3 29345.1,27290.6 29348.4,27290.6C29350.5,27290.6 29352.3,27290.9 29353.6,27291.4L29353.6,27293.2C29352.3,27293.7 29350.5,27294 29348.4,27294C29345.1,27294 29343,27293.3 29343,27292.3Z" style="fill:rgb(67,75,172);fill-rule:nonzero;"/>
                <path d="M29380.2,27294.2L29376.8,27293.4C29375.7,27293.8 29373.9,27294.1 29371.8,27294.1C29368.9,27294.1 29366.7,27293.6 29366.2,27292.6L29379.6,27292.6C29379.7,27292.4 29379.9,27292.1 29379.9,27291.8C29379.9,27290.3 29376.4,27289.3 29371.1,27289.3C29364.9,27289.3 29361.3,27290.7 29361.3,27292.3C29361.3,27293.9 29365.1,27295.3 29371.9,27295.3C29375.5,27295.3 29378.4,27294.9 29380.2,27294.2ZM29371,27290.4C29373.7,27290.4 29375.1,27291 29375.1,27291.6L29366.4,27291.6C29366.9,27290.8 29368.5,27290.4 29371,27290.4Z" style="fill:rgb(67,75,172);fill-rule:nonzero;"/>
                <rect x="29391.7" y="27286.8" width="4.801" height="8.304" style="fill:rgb(67,75,172);fill-rule:nonzero;"/>
                <path d="M29406.1,27295.3C29408.4,27295.3 29410.6,27295 29411.8,27294.6L29411.8,27295.1L29416.6,27295.1L29416.6,27291.5C29416.6,27290.3 29413.8,27289.3 29408.3,27289.3C29404.8,27289.3 29402,27289.7 29400.3,27290.4L29403.8,27291.2C29404.9,27290.8 29406.3,27290.5 29408.1,27290.5C29410.3,27290.5 29411.8,27290.9 29411.8,27291.5L29411.8,27291.6L29406,27291.9C29401.9,27292.1 29399.7,27292.7 29399.7,27293.6C29399.7,27294.6 29402.3,27295.3 29406.1,27295.3ZM29404.5,27293.5C29404.5,27293.2 29405.3,27292.9 29407.3,27292.8L29411.8,27292.6L29411.8,27293.4C29410.9,27293.8 29409.3,27294.1 29407.1,27294.1C29405.5,27294.1 29404.5,27293.9 29404.5,27293.5Z" style="fill:rgb(67,75,172);fill-rule:nonzero;"/>
                <path d="M29225.9,27313.8L29230.7,27313.8L29230.7,27310.6C29232.2,27311.1 29234,27311.3 29236.6,27311.3C29242.7,27311.3 29246.3,27309.9 29246.3,27308.3C29246.3,27306.7 29242.7,27305.3 29236.6,27305.3C29234,27305.3 29232.2,27305.5 29230.7,27306L29230.7,27305.5L29225.9,27305.5L29225.9,27313.8ZM29235.9,27306.6C29239.2,27306.6 29241.3,27307.3 29241.3,27308.3C29241.3,27309.3 29239.2,27310 29235.9,27310C29233.7,27310 29232,27309.7 29230.7,27309.2L29230.7,27307.4C29231.9,27306.9 29233.7,27306.6 29235.9,27306.6Z" style="fill:rgb(67,75,172);fill-rule:nonzero;"/>
                <path d="M29249.2,27311.1L29254,27311.1L29254,27307.5C29254.7,27307.2 29256.2,27306.8 29258.5,27306.8C29259.4,27306.8 29260.1,27306.8 29260.7,27306.9L29260.7,27305.5C29260.2,27305.4 29259.6,27305.4 29259,27305.4C29256.8,27305.4 29255.2,27305.7 29254,27306.1L29254,27305.5L29249.2,27305.5L29249.2,27311.1Z" style="fill:rgb(67,75,172);fill-rule:nonzero;"/>
                <path d="M29271.3,27305.3C29265.1,27305.3 29260.9,27306.6 29260.9,27308.3C29260.9,27310 29265.1,27311.3 29271.3,27311.3C29277.5,27311.3 29281.7,27310 29281.7,27308.3C29281.7,27306.6 29277.5,27305.3 29271.3,27305.3ZM29271.4,27310C29268.2,27310 29265.8,27309.3 29265.8,27308.3C29265.8,27307.3 29268.2,27306.6 29271.4,27306.6C29274.4,27306.6 29276.7,27307.3 29276.7,27308.3C29276.7,27309.3 29274.4,27310 29271.4,27310Z" style="fill:rgb(67,75,172);fill-rule:nonzero;"/>
                <path d="M29284.6,27313.8L29289.4,27313.8L29289.4,27310.6C29290.9,27311.1 29292.7,27311.3 29295.3,27311.3C29301.4,27311.3 29305,27309.9 29305,27308.3C29305,27306.7 29301.4,27305.3 29295.3,27305.3C29292.7,27305.3 29290.9,27305.5 29289.4,27306L29289.4,27305.5L29284.6,27305.5L29284.6,27313.8ZM29294.6,27306.6C29297.9,27306.6 29300,27307.3 29300,27308.3C29300,27309.3 29297.9,27310 29294.6,27310C29292.5,27310 29290.7,27309.7 29289.4,27309.2L29289.4,27307.4C29290.6,27306.9 29292.4,27306.6 29294.6,27306.6Z" style="fill:rgb(67,75,172);fill-rule:nonzero;"/>
                <path d="M29317.1,27305.3C29310.9,27305.3 29306.7,27306.6 29306.7,27308.3C29306.7,27310 29310.9,27311.3 29317.1,27311.3C29323.3,27311.3 29327.6,27310 29327.6,27308.3C29327.6,27306.6 29323.3,27305.3 29317.1,27305.3ZM29317.2,27310C29314,27310 29311.7,27309.3 29311.7,27308.3C29311.7,27307.3 29314,27306.6 29317.2,27306.6C29320.3,27306.6 29322.6,27307.3 29322.6,27308.3C29322.6,27309.3 29320.3,27310 29317.2,27310Z" style="fill:rgb(67,75,172);fill-rule:nonzero;"/>
                <path d="M29328.1,27310.3C29330,27310.9 29332.4,27311.3 29335.8,27311.3C29339.4,27311.3 29342.6,27310.7 29342.7,27309.5C29342.7,27307.6 29333.6,27307.9 29333.6,27306.9C29333.6,27306.7 29334.3,27306.4 29335.8,27306.4C29337.3,27306.4 29338.5,27306.7 29339.5,27307.1L29342.7,27306.2C29341.3,27305.7 29338.7,27305.3 29335.7,27305.3C29331.8,27305.3 29328.9,27306 29328.9,27307C29328.9,27309 29338,27308.6 29338,27309.6C29338,27309.9 29337.3,27310.2 29335.7,27310.2C29333.9,27310.2 29332.5,27309.9 29331.3,27309.4L29328.1,27310.3Z" style="fill:rgb(67,75,172);fill-rule:nonzero;"/>
                <path d="M29348,27304.5C29349.7,27304.5 29351.1,27304.1 29351.1,27303.6C29351.1,27303.1 29349.7,27302.7 29348,27302.7C29346.3,27302.7 29344.9,27303.1 29344.9,27303.6C29344.9,27304.1 29346.3,27304.5 29348,27304.5ZM29345.6,27311.1L29350.4,27311.1L29350.4,27305.5L29345.6,27305.5L29345.6,27311.1Z" style="fill:rgb(67,75,172);fill-rule:nonzero;"/>
                <path d="M29355.8,27309.1C29355.8,27310.4 29358.1,27311.2 29362.9,27311.2C29364.4,27311.2 29365.6,27311.1 29366.5,27311L29366.5,27309.8C29365.9,27309.9 29365,27309.9 29363.7,27309.9C29361.8,27309.9 29360.7,27309.7 29360.7,27309.1L29360.7,27306.8L29366.5,27306.8L29366.5,27305.5L29360.7,27305.5L29360.7,27304.1L29355.8,27304.1L29355.8,27305.5L29352.3,27305.5L29352.3,27306.8L29355.8,27306.8L29355.8,27309.1Z" style="fill:rgb(67,75,172);fill-rule:nonzero;"/>
                <path d="M29371.7,27304.5C29373.4,27304.5 29374.8,27304.1 29374.8,27303.6C29374.8,27303.1 29373.4,27302.7 29371.7,27302.7C29370,27302.7 29368.6,27303.1 29368.6,27303.6C29368.6,27304.1 29370,27304.5 29371.7,27304.5ZM29369.3,27311.1L29374.1,27311.1L29374.1,27305.5L29369.3,27305.5L29369.3,27311.1Z" style="fill:rgb(67,75,172);fill-rule:nonzero;"/>
                <path d="M29387.4,27305.3C29381.2,27305.3 29377,27306.6 29377,27308.3C29377,27310 29381.2,27311.3 29387.4,27311.3C29393.6,27311.3 29397.8,27310 29397.8,27308.3C29397.8,27306.6 29393.6,27305.3 29387.4,27305.3ZM29387.5,27310C29384.3,27310 29381.9,27309.3 29381.9,27308.3C29381.9,27307.3 29384.3,27306.6 29387.5,27306.6C29390.5,27306.6 29392.8,27307.3 29392.8,27308.3C29392.8,27309.3 29390.5,27310 29387.5,27310Z" style="fill:rgb(67,75,172);fill-rule:nonzero;"/>
                <path d="M29400.7,27311.1L29405.5,27311.1L29405.5,27307.4C29406.2,27307.1 29407.5,27306.6 29409.9,27306.6C29412.3,27306.6 29413.7,27307.1 29413.7,27307.8L29413.7,27311.1L29418.5,27311.1L29418.5,27307.8C29418.5,27306.1 29415.2,27305.3 29411.1,27305.3C29408.6,27305.3 29406.8,27305.6 29405.5,27306L29405.5,27305.5L29400.7,27305.5L29400.7,27311.1Z" style="fill:rgb(67,75,172);fill-rule:nonzero;"/>
                <path d="M29227.2,27339.5L29241.4,27339.5L29241.4,27338.5L29230.8,27338.5L29230.8,27331.8L29227.2,27331.8L29227.2,27339.5Z" style="fill:rgb(67,75,172);fill-rule:nonzero;"/>
                <path d="M29250.7,27339.7C29253.2,27339.7 29255.7,27339.3 29257.1,27338.8L29257.1,27339.5L29260.3,27339.5L29260.3,27335.8C29260.3,27334.5 29257.4,27333.7 29252.6,27333.7C29249.3,27333.7 29246.6,27334.1 29244.9,27334.8L29247.4,27335.3C29248.5,27334.8 29250.3,27334.5 29252.5,27334.5C29255.2,27334.5 29257.1,27335 29257.1,27335.8L29257.1,27336.1L29250.7,27336.5C29246.6,27336.7 29244.4,27337.3 29244.4,27338.1C29244.4,27339 29247,27339.7 29250.7,27339.7ZM29247.7,27338.1C29247.7,27337.6 29248.9,27337.2 29251.5,27337.1L29257.1,27336.8L29257.1,27337.9C29255.9,27338.5 29253.8,27338.9 29251.2,27338.9C29249,27338.9 29247.7,27338.5 29247.7,27338.1Z" style="fill:rgb(67,75,172);fill-rule:nonzero;"/>
                <path d="M29274.7,27342.2L29277.9,27342.2L29277.9,27338.8C29279.6,27339.4 29281.9,27339.7 29284.7,27339.7C29290.7,27339.7 29294.5,27338.3 29294.5,27336.7C29294.5,27335.1 29290.7,27333.7 29284.7,27333.7C29281.9,27333.7 29279.6,27334 29277.9,27334.6L29277.9,27333.9L29274.7,27333.9L29274.7,27342.2ZM29284.3,27334.6C29288.4,27334.6 29291.1,27335.5 29291.1,27336.7C29291.1,27337.9 29288.4,27338.8 29284.3,27338.8C29281.7,27338.8 29279.4,27338.5 29277.9,27337.8L29277.9,27335.6C29279.4,27335 29281.7,27334.6 29284.3,27334.6Z" style="fill:rgb(67,75,172);fill-rule:nonzero;"/>
                <path d="M29298.5,27339.5L29301.8,27339.5L29301.8,27335.7C29302.9,27335.1 29304.6,27334.7 29307,27334.7C29307.8,27334.7 29308.4,27334.8 29308.9,27334.8L29308.9,27333.9C29308.5,27333.8 29307.9,27333.8 29307.3,27333.8C29304.9,27333.8 29303.2,27334.1 29301.8,27334.6L29301.8,27333.9L29298.5,27333.9L29298.5,27339.5Z" style="fill:rgb(67,75,172);fill-rule:nonzero;"/>
                <path d="M29320,27333.7C29313.8,27333.7 29309.7,27335.1 29309.7,27336.7C29309.7,27338.3 29313.8,27339.7 29320,27339.7C29326.1,27339.7 29330.3,27338.3 29330.3,27336.7C29330.3,27335.1 29326.1,27333.7 29320,27333.7ZM29320,27338.8C29315.9,27338.8 29313,27337.9 29313,27336.7C29313,27335.5 29315.9,27334.6 29320,27334.6C29324,27334.6 29326.9,27335.5 29326.9,27336.7C29326.9,27337.9 29324,27338.8 29320,27338.8Z" style="fill:rgb(67,75,172);fill-rule:nonzero;"/>
                <path d="M29334.3,27342.2L29337.6,27342.2L29337.6,27338.8C29339.3,27339.4 29341.5,27339.7 29344.3,27339.7C29350.3,27339.7 29354.1,27338.3 29354.1,27336.7C29354.1,27335.1 29350.3,27333.7 29344.3,27333.7C29341.5,27333.7 29339.3,27334 29337.6,27334.6L29337.6,27333.9L29334.3,27333.9L29334.3,27342.2ZM29343.9,27334.6C29348,27334.6 29350.8,27335.5 29350.8,27336.7C29350.8,27337.9 29348,27338.8 29343.9,27338.8C29341.3,27338.8 29339,27338.5 29337.6,27337.8L29337.6,27335.6C29339,27335 29341.3,27334.6 29343.9,27334.6Z" style="fill:rgb(67,75,172);fill-rule:nonzero;"/>
                <path d="M29367,27333.7C29360.9,27333.7 29356.7,27335.1 29356.7,27336.7C29356.7,27338.3 29360.9,27339.7 29367,27339.7C29373.2,27339.7 29377.4,27338.3 29377.4,27336.7C29377.4,27335.1 29373.2,27333.7 29367,27333.7ZM29367.1,27338.8C29363,27338.8 29360.1,27337.9 29360.1,27336.7C29360.1,27335.5 29363,27334.6 29367.1,27334.6C29371.1,27334.6 29374,27335.5 29374,27336.7C29374,27337.9 29371.1,27338.8 29367.1,27338.8Z" style="fill:rgb(67,75,172);fill-rule:nonzero;"/>
                <path d="M29378.8,27338.7C29380.6,27339.4 29383,27339.7 29386,27339.7C29389.5,27339.7 29392.4,27339.1 29392.4,27338C29392.4,27336.1 29382.8,27336.5 29382.8,27335.3C29382.8,27334.8 29383.9,27334.5 29386,27334.5C29387.7,27334.5 29389.1,27334.8 29390.1,27335.2L29392.3,27334.6C29391,27334.1 29388.7,27333.7 29385.9,27333.7C29382.3,27333.7 29379.7,27334.4 29379.7,27335.3C29379.7,27337.3 29389.3,27336.8 29389.3,27338.1C29389.3,27338.6 29388.1,27338.9 29385.9,27338.9C29384,27338.9 29382.4,27338.7 29381.1,27338.2L29378.8,27338.7Z" style="fill:rgb(67,75,172);fill-rule:nonzero;"/>
                <path d="M29398.1,27332.5C29399.4,27332.5 29400.4,27332.2 29400.4,27331.8C29400.4,27331.5 29399.4,27331.2 29398.1,27331.2C29396.9,27331.2 29395.9,27331.5 29395.9,27331.8C29395.9,27332.2 29396.9,27332.5 29398.1,27332.5ZM29396.5,27339.5L29399.7,27339.5L29399.7,27333.9L29396.5,27333.9L29396.5,27339.5Z" style="fill:rgb(67,75,172);fill-rule:nonzero;"/>
                <path d="M29406.5,27337.6C29406.5,27339 29408.9,27339.6 29413.1,27339.6C29414.5,27339.6 29415.5,27339.6 29416.4,27339.5L29416.4,27338.6C29415.7,27338.7 29414.8,27338.7 29413.5,27338.7C29411.2,27338.7 29409.7,27338.5 29409.7,27337.6L29409.7,27334.8L29416.3,27334.8L29416.3,27333.9L29409.7,27333.9L29409.7,27332.5L29406.5,27332.5L29406.5,27333.9L29402.9,27333.9L29402.9,27334.8L29406.5,27334.8L29406.5,27337.6Z" style="fill:rgb(67,75,172);fill-rule:nonzero;"/>
                <path d="M29421.8,27332.5C29423,27332.5 29424,27332.2 29424,27331.8C29424,27331.5 29423,27331.2 29421.8,27331.2C29420.5,27331.2 29419.5,27331.5 29419.5,27331.8C29419.5,27332.2 29420.5,27332.5 29421.8,27332.5ZM29420.1,27339.5L29423.3,27339.5L29423.3,27333.9L29420.1,27333.9L29420.1,27339.5Z" style="fill:rgb(67,75,172);fill-rule:nonzero;"/>
                <path d="M29437.7,27333.7C29431.5,27333.7 29427.4,27335.1 29427.4,27336.7C29427.4,27338.3 29431.5,27339.7 29437.7,27339.7C29443.8,27339.7 29448,27338.3 29448,27336.7C29448,27335.1 29443.8,27333.7 29437.7,27333.7ZM29437.7,27338.8C29433.7,27338.8 29430.7,27337.9 29430.7,27336.7C29430.7,27335.5 29433.7,27334.6 29437.7,27334.6C29441.7,27334.6 29444.6,27335.5 29444.6,27336.7C29444.6,27337.9 29441.7,27338.8 29437.7,27338.8Z" style="fill:rgb(67,75,172);fill-rule:nonzero;"/>
                <path d="M29452.1,27339.5L29455.3,27339.5L29455.3,27335.6C29456.5,27335 29458.2,27334.6 29461,27334.6C29463.9,27334.6 29465.9,27335.2 29465.9,27336.2L29465.9,27339.5L29469.1,27339.5L29469.1,27336.1C29469.1,27334.5 29465.9,27333.7 29461.6,27333.7C29458.8,27333.7 29456.8,27334.1 29455.3,27334.6L29455.3,27333.9L29452.1,27333.9L29452.1,27339.5Z" style="fill:rgb(67,75,172);fill-rule:nonzero;"/>
                <path d="M29243.3,27354.6L29241,27354C29239.7,27354.5 29237.6,27354.9 29235.2,27354.9C29231.1,27354.9 29228.2,27354.1 29228.1,27352.7L29242.7,27352.7C29242.8,27352.6 29242.9,27352.3 29242.9,27352.1C29242.9,27350.8 29239.6,27349.7 29234.4,27349.7C29228.5,27349.7 29224.8,27351 29224.8,27352.7C29224.8,27354.3 29228.8,27355.7 29235.2,27355.7C29238.7,27355.7 29241.6,27355.3 29243.3,27354.6ZM29234.3,27350.5C29237.7,27350.5 29239.6,27351.2 29239.7,27352L29228.3,27352C29229,27351 29231.2,27350.5 29234.3,27350.5Z" style="fill:rgb(67,75,172);fill-rule:nonzero;"/>
                <path d="M29245,27354.7C29246.8,27355.4 29249.2,27355.7 29252.2,27355.7C29255.7,27355.7 29258.6,27355.1 29258.6,27354C29258.6,27352.1 29249.1,27352.5 29249.1,27351.3C29249.1,27350.8 29250.2,27350.5 29252.2,27350.5C29253.9,27350.5 29255.3,27350.7 29256.3,27351.2L29258.5,27350.6C29257.2,27350.1 29254.9,27349.7 29252.2,27349.7C29248.5,27349.7 29246,27350.4 29246,27351.3C29246,27353.3 29255.5,27352.8 29255.5,27354.1C29255.5,27354.6 29254.3,27354.9 29252.2,27354.9C29250.2,27354.9 29248.6,27354.7 29247.3,27354.2L29245,27354.7Z" style="fill:rgb(67,75,172);fill-rule:nonzero;"/>
                <path d="M29264,27353.6C29264,27355 29266.3,27355.6 29270.6,27355.6C29271.9,27355.6 29272.9,27355.6 29273.9,27355.4L29273.9,27354.6C29273.1,27354.7 29272.3,27354.7 29271,27354.7C29268.7,27354.7 29267.2,27354.5 29267.2,27353.6L29267.2,27350.8L29273.8,27350.8L29273.8,27349.9L29267.2,27349.9L29267.2,27348.5L29264,27348.5L29264,27349.9L29260.4,27349.9L29260.4,27350.8L29264,27350.8L29264,27353.6Z" style="fill:rgb(67,75,172);fill-rule:nonzero;"/>
                <rect x="29273.7" y="27352.2" width="10.207" height="0.908" style="fill:rgb(67,75,172);fill-rule:nonzero;"/>
                <path d="M29304.7,27354.6L29302.3,27354C29301,27354.5 29299,27354.9 29296.5,27354.9C29292.4,27354.9 29289.5,27354.1 29289.4,27352.7L29304,27352.7C29304.1,27352.6 29304.3,27352.3 29304.3,27352.1C29304.3,27350.8 29300.9,27349.7 29295.7,27349.7C29289.8,27349.7 29286.1,27351 29286.1,27352.7C29286.1,27354.3 29290.1,27355.7 29296.5,27355.7C29300.1,27355.7 29302.9,27355.3 29304.7,27354.6ZM29295.6,27350.5C29299,27350.5 29300.9,27351.2 29301,27352L29289.6,27352C29290.3,27351 29292.5,27350.5 29295.6,27350.5Z" style="fill:rgb(67,75,172);fill-rule:nonzero;"/>
                <rect x="29308.6" y="27347.2" width="3.213" height="8.304" style="fill:rgb(67,75,172);fill-rule:nonzero;"/>
                <rect x="29317.4" y="27347.2" width="3.213" height="8.304" style="fill:rgb(67,75,172);fill-rule:nonzero;"/>
                <path d="M29343.3,27354.6L29340.9,27354C29339.6,27354.5 29337.6,27354.9 29335.1,27354.9C29331,27354.9 29328.1,27354.1 29328,27352.7L29342.6,27352.7C29342.7,27352.6 29342.9,27352.3 29342.9,27352.1C29342.9,27350.8 29339.5,27349.7 29334.3,27349.7C29328.4,27349.7 29324.7,27351 29324.7,27352.7C29324.7,27354.3 29328.7,27355.7 29335.1,27355.7C29338.7,27355.7 29341.5,27355.3 29343.3,27354.6ZM29334.2,27350.5C29337.6,27350.5 29339.5,27351.2 29339.6,27352L29328.2,27352C29328.9,27351 29331.1,27350.5 29334.2,27350.5Z" style="fill:rgb(67,75,172);fill-rule:nonzero;"/>
                <path d="M29365.9,27349L29370.3,27347.2L29366.7,27347.2L29362.8,27349L29365.9,27349ZM29373.2,27354.6L29370.8,27354C29369.5,27354.5 29367.5,27354.9 29365,27354.9C29360.9,27354.9 29358,27354.1 29357.9,27352.7L29372.5,27352.7C29372.6,27352.6 29372.8,27352.3 29372.8,27352.1C29372.8,27350.8 29369.4,27349.7 29364.2,27349.7C29358.3,27349.7 29354.6,27351 29354.6,27352.7C29354.6,27354.3 29358.6,27355.7 29365,27355.7C29368.6,27355.7 29371.4,27355.3 29373.2,27354.6ZM29364.1,27350.5C29367.5,27350.5 29369.4,27351.2 29369.5,27352L29358.1,27352C29358.8,27351 29361,27350.5 29364.1,27350.5Z" style="fill:rgb(67,75,172);fill-rule:nonzero;"/>
                <rect x="29377.1" y="27347.2" width="3.213" height="8.304" style="fill:rgb(67,75,172);fill-rule:nonzero;"/>
                <path d="M29387.6,27348.5C29388.8,27348.5 29389.8,27348.2 29389.8,27347.8C29389.8,27347.4 29388.8,27347.1 29387.6,27347.1C29386.3,27347.1 29385.3,27347.4 29385.3,27347.8C29385.3,27348.2 29386.3,27348.5 29387.6,27348.5ZM29385.9,27355.5L29389.2,27355.5L29389.2,27349.9L29385.9,27349.9L29385.9,27355.5Z" style="fill:rgb(67,75,172);fill-rule:nonzero;"/>
                <path d="M29392.6,27356.5C29392.6,27357.6 29396.3,27358.3 29402,27358.3C29407.7,27358.3 29411.7,27357.4 29411.7,27356.2C29411.7,27355.2 29409.4,27354.5 29404.3,27354.5L29398.9,27354.5C29397.7,27354.5 29397.3,27354.3 29397.3,27354.1C29397.3,27353.9 29397.7,27353.7 29398.5,27353.5C29399.3,27353.6 29400.2,27353.6 29401.2,27353.6C29405.8,27353.6 29408.6,27352.7 29408.6,27351.7C29408.6,27351.3 29408.3,27351 29407.8,27350.7L29411.9,27350.7L29411.9,27349.9L29404.9,27349.9C29403.8,27349.8 29402.6,27349.7 29401.2,27349.7C29396.6,27349.7 29393.8,27350.6 29393.8,27351.7C29393.8,27352.3 29394.8,27352.8 29396.4,27353.2C29394.9,27353.5 29394.2,27353.9 29394.2,27354.3C29394.2,27354.6 29394.6,27354.9 29395.5,27355.1C29393.6,27355.5 29392.6,27355.9 29392.6,27356.5ZM29401.2,27352.9C29398.4,27352.9 29396.8,27352.3 29396.8,27351.7C29396.8,27351 29398.4,27350.4 29401.2,27350.4C29404,27350.4 29405.6,27351 29405.6,27351.7C29405.6,27352.3 29404,27352.9 29401.2,27352.9ZM29395.8,27356.4C29395.8,27355.9 29396.6,27355.6 29397.9,27355.3L29404.1,27355.3C29407.5,27355.3 29408.5,27355.7 29408.5,27356.3C29408.5,27357 29405.9,27357.5 29401.9,27357.5C29398.2,27357.5 29395.8,27357.1 29395.8,27356.4Z" style="fill:rgb(67,75,172);fill-rule:nonzero;"/>
                <path d="M29416.1,27348.5C29417.4,27348.5 29418.3,27348.2 29418.3,27347.8C29418.3,27347.4 29417.4,27347.1 29416.1,27347.1C29414.9,27347.1 29413.8,27347.4 29413.8,27347.8C29413.8,27348.2 29414.9,27348.5 29416.1,27348.5ZM29414.5,27355.5L29417.7,27355.5L29417.7,27349.9L29414.5,27349.9L29414.5,27355.5Z" style="fill:rgb(67,75,172);fill-rule:nonzero;"/>
                <path d="M29443.1,27352.7C29443.1,27351.1 29439.3,27349.7 29433.4,27349.7C29430.5,27349.7 29428.3,27350 29426.6,27350.6L29426.6,27347.2L29423.4,27347.2L29423.4,27355.5L29426.6,27355.5L29426.6,27354.8C29428.3,27355.4 29430.5,27355.7 29433.4,27355.7C29439.3,27355.7 29443.1,27354.3 29443.1,27352.7ZM29433,27350.6C29437,27350.6 29439.8,27351.5 29439.8,27352.7C29439.8,27353.9 29437,27354.8 29433,27354.8C29430.4,27354.8 29428.1,27354.5 29426.6,27353.8L29426.6,27351.6C29428,27351 29430.3,27350.6 29433,27350.6Z" style="fill:rgb(67,75,172);fill-rule:nonzero;"/>
                <rect x="29447.2" y="27347.2" width="3.213" height="8.304" style="fill:rgb(67,75,172);fill-rule:nonzero;"/>
                <path d="M29473.1,27354.6L29470.7,27354C29469.4,27354.5 29467.3,27354.9 29464.9,27354.9C29460.8,27354.9 29457.9,27354.1 29457.8,27352.7L29472.4,27352.7C29472.5,27352.6 29472.6,27352.3 29472.6,27352.1C29472.6,27350.8 29469.3,27349.7 29464.1,27349.7C29458.2,27349.7 29454.5,27351 29454.5,27352.7C29454.5,27354.3 29458.5,27355.7 29464.9,27355.7C29468.4,27355.7 29471.3,27355.3 29473.1,27354.6ZM29464,27350.5C29467.4,27350.5 29469.3,27351.2 29469.4,27352L29458,27352C29458.7,27351 29460.9,27350.5 29464,27350.5Z" style="fill:rgb(67,75,172);fill-rule:nonzero;"/>
                <path d="M29243.3,27370.6L29241,27370C29239.7,27370.5 29237.6,27370.9 29235.2,27370.9C29231.1,27370.9 29228.2,27370 29228.1,27368.7L29242.7,27368.7C29242.8,27368.6 29242.9,27368.3 29242.9,27368.1C29242.9,27366.7 29239.6,27365.7 29234.4,27365.7C29228.5,27365.7 29224.8,27367 29224.8,27368.7C29224.8,27370.3 29228.8,27371.7 29235.2,27371.7C29238.7,27371.7 29241.6,27371.3 29243.3,27370.6ZM29234.3,27366.5C29237.7,27366.5 29239.6,27367.2 29239.7,27368L29228.3,27368C29229,27367 29231.2,27366.5 29234.3,27366.5Z" style="fill:rgb(67,75,172);fill-rule:nonzero;"/>
                <path d="M29248.2,27369.6C29248.2,27371 29250.6,27371.6 29254.8,27371.6C29256.2,27371.6 29257.2,27371.6 29258.1,27371.4L29258.1,27370.6C29257.4,27370.7 29256.5,27370.7 29255.3,27370.7C29253,27370.7 29251.5,27370.5 29251.5,27369.6L29251.5,27366.8L29258.1,27366.8L29258.1,27365.9L29251.5,27365.9L29251.5,27364.5L29248.2,27364.5L29248.2,27365.9L29244.6,27365.9L29244.6,27366.8L29248.2,27366.8L29248.2,27369.6Z" style="fill:rgb(67,75,172);fill-rule:nonzero;"/>
                <path d="M29269.3,27368.7C29269.3,27370.3 29273.1,27371.7 29279.1,27371.7C29281.9,27371.7 29284.2,27371.4 29285.9,27370.8L29285.9,27371.5L29289.1,27371.5L29289.1,27363.2L29285.9,27363.2L29285.9,27366.6C29284.2,27366 29281.9,27365.7 29279.1,27365.7C29273.1,27365.7 29269.3,27367.1 29269.3,27368.7ZM29272.7,27368.7C29272.7,27367.5 29275.4,27366.6 29279.5,27366.6C29282.1,27366.6 29284.4,27366.9 29285.9,27367.6L29285.9,27369.8C29284.5,27370.4 29282.1,27370.8 29279.5,27370.8C29275.4,27370.8 29272.7,27369.9 29272.7,27368.7Z" style="fill:rgb(67,75,172);fill-rule:nonzero;"/>
                <path d="M29311.7,27370.6L29309.3,27370C29308,27370.5 29306,27370.9 29303.5,27370.9C29299.4,27370.9 29296.5,27370 29296.4,27368.7L29311,27368.7C29311.1,27368.6 29311.2,27368.3 29311.2,27368.1C29311.2,27366.7 29307.9,27365.7 29302.7,27365.7C29296.8,27365.7 29293.1,27367 29293.1,27368.7C29293.1,27370.3 29297.1,27371.7 29303.5,27371.7C29307,27371.7 29309.9,27371.3 29311.7,27370.6ZM29302.6,27366.5C29306,27366.5 29307.9,27367.2 29308,27368L29296.6,27368C29297.3,27367 29299.5,27366.5 29302.6,27366.5Z" style="fill:rgb(67,75,172);fill-rule:nonzero;"/>
                <path d="M29323,27368.7C29323,27370.3 29326.8,27371.7 29332.8,27371.7C29335.6,27371.7 29337.9,27371.4 29339.6,27370.8L29339.6,27374.2L29342.8,27374.2L29342.8,27365.9L29339.6,27365.9L29339.6,27366.6C29337.9,27366 29335.6,27365.7 29332.8,27365.7C29326.8,27365.7 29323,27367.1 29323,27368.7ZM29326.4,27368.7C29326.4,27367.5 29329.1,27366.6 29333.1,27366.6C29335.8,27366.6 29338.1,27366.9 29339.6,27367.6L29339.6,27369.8C29338.1,27370.4 29335.8,27370.8 29333.1,27370.8C29329.1,27370.8 29326.4,27369.9 29326.4,27368.7Z" style="fill:rgb(67,75,172);fill-rule:nonzero;"/>
                <path d="M29361.7,27369.1C29361.7,27370.2 29359.7,27370.8 29356.5,27370.8C29353.2,27370.8 29351.2,27370.2 29351.2,27369.1L29351.2,27365.9L29348,27365.9L29348,27369.1C29348,27370.7 29351.3,27371.7 29356.5,27371.7C29361.6,27371.7 29364.9,27370.7 29364.9,27369.1L29364.9,27365.9L29361.7,27365.9L29361.7,27369.1Z" style="fill:rgb(67,75,172);fill-rule:nonzero;"/>
                <path d="M29374.9,27371.6C29377.4,27371.6 29379.9,27371.3 29381.3,27370.8L29381.3,27371.5L29384.5,27371.5L29384.5,27367.7C29384.5,27366.5 29381.7,27365.7 29376.8,27365.7C29373.5,27365.7 29370.8,27366.1 29369.2,27366.8L29371.6,27367.3C29372.8,27366.8 29374.5,27366.5 29376.7,27366.5C29379.4,27366.5 29381.3,27367 29381.3,27367.7L29381.3,27368.1L29374.9,27368.4C29370.9,27368.6 29368.7,27369.2 29368.7,27370.1C29368.7,27371 29371.2,27371.6 29374.9,27371.6ZM29371.9,27370C29371.9,27369.6 29373.1,27369.2 29375.7,27369.1L29381.3,27368.8L29381.3,27369.9C29380.1,27370.5 29378,27370.9 29375.5,27370.9C29373.2,27370.9 29371.9,27370.5 29371.9,27370Z" style="fill:rgb(67,75,172);fill-rule:nonzero;"/>
                <rect x="29389.9" y="27363.2" width="3.213" height="8.304" style="fill:rgb(67,75,172);fill-rule:nonzero;"/>
                <path d="M29400.4,27364.5C29401.6,27364.5 29402.6,27364.2 29402.6,27363.8C29402.6,27363.4 29401.6,27363.1 29400.4,27363.1C29399.1,27363.1 29398.1,27363.4 29398.1,27363.8C29398.1,27364.2 29399.1,27364.5 29400.4,27364.5ZM29398.8,27371.5L29402,27371.5L29402,27365.9L29398.8,27365.9L29398.8,27371.5Z" style="fill:rgb(67,75,172);fill-rule:nonzero;"/>
                <path d="M29408.7,27369.6C29408.7,27371 29411.1,27371.6 29415.4,27371.6C29416.7,27371.6 29417.7,27371.6 29418.7,27371.4L29418.7,27370.6C29417.9,27370.7 29417.1,27370.7 29415.8,27370.7C29413.5,27370.7 29412,27370.5 29412,27369.6L29412,27366.8L29418.6,27366.8L29418.6,27365.9L29412,27365.9L29412,27364.5L29408.7,27364.5L29408.7,27365.9L29405.2,27365.9L29405.2,27366.8L29408.7,27366.8L29408.7,27369.6Z" style="fill:rgb(67,75,172);fill-rule:nonzero;"/>
                <path d="M29431.7,27365L29436.1,27363.2L29432.5,27363.2L29428.6,27365L29431.7,27365ZM29439,27370.6L29436.6,27370C29435.3,27370.5 29433.2,27370.9 29430.8,27370.9C29426.7,27370.9 29423.8,27370 29423.7,27368.7L29438.3,27368.7C29438.4,27368.6 29438.5,27368.3 29438.5,27368.1C29438.5,27366.7 29435.2,27365.7 29430,27365.7C29424.1,27365.7 29420.4,27367 29420.4,27368.7C29420.4,27370.3 29424.4,27371.7 29430.8,27371.7C29434.3,27371.7 29437.2,27371.3 29439,27370.6ZM29429.9,27366.5C29433.3,27366.5 29435.2,27367.2 29435.3,27368L29423.9,27368C29424.6,27367 29426.8,27366.5 29429.9,27366.5Z" style="fill:rgb(67,75,172);fill-rule:nonzero;"/>
                <path d="M29224.4,27386.7C29226.1,27387.3 29228.5,27387.7 29231.5,27387.7C29235.1,27387.7 29237.9,27387 29237.9,27386C29237.9,27384.1 29228.4,27384.5 29228.4,27383.2C29228.4,27382.8 29229.5,27382.5 29231.5,27382.5C29233.2,27382.5 29234.6,27382.7 29235.6,27383.1L29237.9,27382.6C29236.5,27382.1 29234.2,27381.7 29231.5,27381.7C29227.8,27381.7 29225.3,27382.4 29225.3,27383.3C29225.3,27385.2 29234.8,27384.8 29234.8,27386C29234.8,27386.5 29233.6,27386.9 29231.5,27386.9C29229.5,27386.9 29228,27386.6 29226.6,27386.1L29224.4,27386.7Z" style="fill:rgb(67,75,172);fill-rule:nonzero;"/>
                <path d="M29255.3,27385.1C29255.3,27386.2 29253.3,27386.8 29250.1,27386.8C29246.8,27386.8 29244.8,27386.2 29244.8,27385.1L29244.8,27381.9L29241.6,27381.9L29241.6,27385.1C29241.6,27386.7 29244.9,27387.7 29250,27387.7C29255.2,27387.7 29258.5,27386.7 29258.5,27385.1L29258.5,27381.9L29255.3,27381.9L29255.3,27385.1Z" style="fill:rgb(67,75,172);fill-rule:nonzero;"/>
                <path d="M29261.4,27381.9L29261.4,27382.7L29265,27382.7L29265,27387.5L29268.2,27387.5L29268.2,27382.7L29274.8,27382.7L29274.8,27381.9L29268.2,27381.9L29268.2,27381.2C29268.2,27380.5 29269.7,27380 29271.8,27380C29272.9,27380 29273.8,27380.1 29274.5,27380.3L29275.9,27379.5C29274.9,27379.3 29273.5,27379.2 29271.7,27379.2C29267.6,27379.2 29265,27380 29265,27381.2L29265,27381.9L29261.4,27381.9Z" style="fill:rgb(67,75,172);fill-rule:nonzero;"/>
                <path d="M29275.7,27381.9L29275.7,27382.7L29279.3,27382.7L29279.3,27387.5L29282.5,27387.5L29282.5,27382.7L29289.1,27382.7L29289.1,27381.9L29282.5,27381.9L29282.5,27381.2C29282.5,27380.5 29284,27380 29286.1,27380C29287.2,27380 29288.1,27380.1 29288.8,27380.3L29290.2,27379.5C29289.2,27379.3 29287.8,27379.2 29286,27379.2C29281.9,27379.2 29279.3,27380 29279.3,27381.2L29279.3,27381.9L29275.7,27381.9Z" style="fill:rgb(67,75,172);fill-rule:nonzero;"/>
                <path d="M29293.6,27380.4C29294.8,27380.4 29295.8,27380.1 29295.8,27379.8C29295.8,27379.4 29294.8,27379.1 29293.6,27379.1C29292.3,27379.1 29291.3,27379.4 29291.3,27379.8C29291.3,27380.1 29292.3,27380.4 29293.6,27380.4ZM29291.9,27387.5L29295.1,27387.5L29295.1,27381.9L29291.9,27381.9L29291.9,27387.5Z" style="fill:rgb(67,75,172);fill-rule:nonzero;"/>
                <path d="M29298.6,27386.7C29300.4,27387.3 29302.7,27387.7 29305.8,27387.7C29309.3,27387.7 29312.2,27387 29312.2,27386C29312.2,27384.1 29302.6,27384.5 29302.6,27383.2C29302.6,27382.8 29303.7,27382.5 29305.8,27382.5C29307.4,27382.5 29308.9,27382.7 29309.9,27383.1L29312.1,27382.6C29310.8,27382.1 29308.4,27381.7 29305.7,27381.7C29302.1,27381.7 29299.5,27382.4 29299.5,27383.3C29299.5,27385.2 29309.1,27384.8 29309.1,27386C29309.1,27386.5 29307.8,27386.9 29305.7,27386.9C29303.8,27386.9 29302.2,27386.6 29300.9,27386.1L29298.6,27386.7Z" style="fill:rgb(67,75,172);fill-rule:nonzero;"/>
                <path d="M29321.4,27387.6C29323.8,27387.6 29326.3,27387.3 29327.8,27386.8L29327.8,27387.5L29331,27387.5L29331,27383.7C29331,27382.5 29328.1,27381.7 29323.3,27381.7C29319.9,27381.7 29317.3,27382.1 29315.6,27382.7L29318,27383.3C29319.2,27382.8 29321,27382.5 29323.2,27382.5C29325.9,27382.5 29327.8,27383 29327.8,27383.7L29327.8,27384.1L29321.3,27384.4C29317.3,27384.6 29315.1,27385.2 29315.1,27386.1C29315.1,27387 29317.6,27387.6 29321.4,27387.6ZM29318.4,27386C29318.4,27385.6 29319.5,27385.2 29322.1,27385.1L29327.8,27384.8L29327.8,27385.9C29326.5,27386.5 29324.4,27386.9 29321.9,27386.9C29319.7,27386.9 29318.4,27386.5 29318.4,27386Z" style="fill:rgb(67,75,172);fill-rule:nonzero;"/>
                <path d="M29336.3,27387.5L29339.5,27387.5L29339.5,27383.6C29340.7,27383 29342.5,27382.6 29345.2,27382.6C29348.2,27382.6 29350.1,27383.1 29350.1,27384.1L29350.1,27387.5L29353.3,27387.5L29353.3,27384.1C29353.3,27382.5 29350.1,27381.7 29345.9,27381.7C29343,27381.7 29341.1,27382 29339.5,27382.5L29339.5,27381.9L29336.3,27381.9L29336.3,27387.5Z" style="fill:rgb(67,75,172);fill-rule:nonzero;"/>
                <path d="M29359.8,27385.6C29359.8,27387 29362.1,27387.6 29366.4,27387.6C29367.7,27387.6 29368.7,27387.5 29369.7,27387.4L29369.7,27386.6C29368.9,27386.7 29368.1,27386.7 29366.8,27386.7C29364.5,27386.7 29363,27386.5 29363,27385.6L29363,27382.7L29369.6,27382.7L29369.6,27381.9L29363,27381.9L29363,27380.5L29359.8,27380.5L29359.8,27381.9L29356.2,27381.9L29356.2,27382.7L29359.8,27382.7L29359.8,27385.6Z" style="fill:rgb(67,75,172);fill-rule:nonzero;"/>
                <path d="M29390,27386.6L29387.6,27386C29386.3,27386.5 29384.2,27386.8 29381.8,27386.8C29377.7,27386.8 29374.8,27386 29374.7,27384.7L29389.3,27384.7C29389.4,27384.5 29389.5,27384.3 29389.5,27384.1C29389.5,27382.7 29386.2,27381.7 29381,27381.7C29375.1,27381.7 29371.4,27383 29371.4,27384.7C29371.4,27386.3 29375.4,27387.7 29381.8,27387.7C29385.3,27387.7 29388.2,27387.3 29390,27386.6ZM29380.9,27382.5C29384.3,27382.5 29386.2,27383.2 29386.3,27384L29374.9,27384C29375.6,27383 29377.8,27382.5 29380.9,27382.5Z" style="fill:rgb(67,75,172);fill-rule:nonzero;"/>
                <path d="M29406.3,27385.2L29408.8,27385.2L29409,27384.2C29414,27384 29417.6,27383.1 29417.6,27381.8C29417.6,27380.5 29414,27379.5 29409.5,27379.5C29405.6,27379.5 29403,27380 29401,27380.8L29403.8,27381.3C29405.4,27380.7 29407,27380.4 29409.4,27380.4C29412.1,27380.4 29414.2,27381 29414.2,27381.8C29414.2,27382.8 29411.2,27383.4 29405.9,27383.5L29406.3,27385.2ZM29407.6,27387.6C29408.9,27387.6 29410,27387.3 29410,27386.9C29410,27386.5 29408.9,27386.2 29407.6,27386.2C29406.2,27386.2 29405.2,27386.5 29405.2,27386.9C29405.2,27387.3 29406.2,27387.6 29407.6,27387.6Z" style="fill:rgb(67,75,172);fill-rule:nonzero;"/>
            </g>
            <g transform="matrix(0.580433,0,0,1.13638,-791.346,226.352)">
                <g transform="matrix(1.51345,0,0,0.378904,1413,-246.874)">
                    <path d="M373.526,2439.73C373.526,2501.12 360.844,2550.96 345.224,2550.96L103.06,2550.96C87.439,2550.96 74.758,2501.12 74.758,2439.73C74.758,2378.34 87.439,2328.49 103.06,2328.49L345.224,2328.49C360.844,2328.49 373.526,2378.34 373.526,2439.73Z" style="fill:rgb(87,94,181);"/>
                </g>
                <g transform="matrix(1.53975,0,0,0.61713,-43465.2,-16187.9)">
                    <path d="M29315,27349.9L29328.8,27349.9L29328.8,27340L29319.8,27340L29319.8,27324.8L29327.4,27324.8L29327.4,27314.9L29319.8,27314.9L29319.8,27300.9L29328.8,27300.9L29328.8,27291L29315,27291L29315,27349.9Z" style="fill:white;fill-rule:nonzero;"/>
                    <path d="M29333.7,27334.4C29333.7,27344.8 29335.8,27350.8 29340,27350.8C29341.4,27350.8 29342.4,27350.3 29343.3,27349.4L29343.3,27340.1C29342.7,27340.7 29341.9,27341 29340.8,27341C29339.1,27341 29338.1,27339.2 29338.1,27334.4L29338.1,27317.1L29343.3,27317.1L29343.3,27307.5L29338.1,27307.5L29338.1,27296.9L29333.7,27296.9L29333.7,27307.5L29330.6,27307.5L29330.6,27317.1L29333.7,27317.1L29333.7,27334.4Z" style="fill:white;fill-rule:nonzero;"/>
                    <path d="M29350.9,27351.2C29352.9,27351.2 29354.9,27349.1 29356,27345.8L29356,27349.9L29360.2,27349.9L29360.2,27322.5C29360.2,27313.1 29357.7,27305.8 29352.8,27305.8C29349.7,27305.8 29347.2,27309 29345.7,27314.2L29348.8,27320.2C29349.7,27317.1 29351,27315.2 29352.7,27315.2C29354.6,27315.2 29356,27318 29356,27322.5L29356,27323.6L29350.8,27325.8C29347.1,27327.3 29345.1,27332.1 29345.1,27338.5C29345.1,27346.3 29347.5,27351.2 29350.9,27351.2ZM29349.4,27338C29349.4,27335.4 29350.1,27333.5 29351.9,27332.8L29356,27331.1L29356,27337C29355.1,27340.4 29353.7,27342.7 29351.8,27342.7C29350.3,27342.7 29349.4,27340.8 29349.4,27338Z" style="fill:white;fill-rule:nonzero;"/>
                    <path d="M29364.1,27370.6L29368.4,27370.6L29368.4,27346.5C29369.7,27349.8 29371.4,27351.6 29373.7,27351.6C29379.1,27351.6 29382.3,27341.1 29382.3,27328.7C29382.3,27316.3 29379.1,27305.8 29373.7,27305.8C29371.4,27305.8 29369.7,27307.7 29368.4,27311L29368.4,27307.5L29364.1,27307.5L29364.1,27370.6ZM29373.1,27315.9C29376,27315.9 29377.9,27321.3 29377.9,27328.7C29377.9,27336.1 29376,27341.5 29373.1,27341.5C29371.1,27341.5 29369.6,27339.4 29368.4,27335.4L29368.4,27322.1C29369.5,27318.1 29371.1,27315.9 29373.1,27315.9Z" style="fill:white;fill-rule:nonzero;"/>
                    <path d="M29401,27343L29398,27337C29397.1,27340 29395.5,27342 29393.6,27342C29390.9,27342 29389,27338.8 29388.6,27330.9L29400.5,27330.9C29400.6,27329.5 29400.7,27327.3 29400.7,27324.9C29400.7,27313.8 29397.6,27305.8 29392.9,27305.8C29387.4,27305.8 29384.2,27316.2 29384.2,27328.7C29384.2,27341.1 29387.6,27351.6 29393.6,27351.6C29396.8,27351.6 29399.5,27348.3 29401,27343ZM29392.8,27314.6C29395.2,27314.6 29396.5,27318.9 29396.5,27323.2L29388.7,27323.2C29389.2,27317.6 29390.6,27314.6 29392.8,27314.6Z" style="fill:white;fill-rule:nonzero;"/>
                    <path d="M29416.7,27349.8L29421.2,27349.8L29421.2,27290.9L29416.8,27290.9L29409.5,27301.4L29411.8,27309.5L29416.7,27302.6L29416.7,27349.8Z" style="fill:white;fill-rule:nonzero;"/>
                </g>
            </g>
            <g transform="matrix(0.38563,0,0,0.580807,-10996.9,-14661.9)">
                <path d="M29229.2,27345.1L29237.7,27345.1L29237.7,27323.1L29242,27323.1L29253.2,27345.1L29263.2,27345.1L29250.1,27321C29254.4,27318.4 29256.8,27313.5 29256.8,27306.9C29256.8,27296.8 29251.2,27290.7 29242,27290.7L29229.2,27290.7L29229.2,27345.1ZM29242.4,27299.9C29246,27299.9 29248.1,27302.7 29248.1,27306.8C29248.1,27311.2 29246,27313.9 29242.4,27313.9L29237.7,27313.9L29237.7,27299.9L29242.4,27299.9Z" style="fill:rgb(87,94,181);fill-rule:nonzero;"/>
                <path d="M29283.1,27299.7L29290.3,27286.8L29282.1,27286.8L29275.8,27299.7L29283.1,27299.7ZM29293.4,27338.7L29287.9,27333.1C29286.3,27335.9 29283.4,27337.8 29280.1,27337.8C29275.4,27337.8 29272,27334.8 29271.2,27327.5L29292.3,27327.5C29292.6,27326.2 29292.8,27324.2 29292.8,27322C29292.8,27311.7 29287.3,27304.4 29279,27304.4C29269.1,27304.4 29263.5,27313.9 29263.5,27325.5C29263.5,27336.9 29269.5,27346.6 29280.2,27346.6C29285.9,27346.6 29290.5,27343.6 29293.4,27338.7ZM29278.8,27312.4C29283,27312.4 29285.2,27316.4 29285.3,27320.4L29271.5,27320.4C29272.3,27315.2 29274.9,27312.4 29278.8,27312.4Z" style="fill:rgb(87,94,181);fill-rule:nonzero;"/>
                <path d="M29293.9,27305.9L29304.8,27345.1L29314.8,27345.1L29325.8,27305.9L29317.6,27305.9L29309.9,27333.9L29302,27305.9L29293.9,27305.9Z" style="fill:rgb(87,94,181);fill-rule:nonzero;"/>
                <path d="M29332.6,27299.1C29335.3,27299.1 29337.5,27296.1 29337.5,27292.6C29337.5,27289.1 29335.3,27286.2 29332.6,27286.2C29329.9,27286.2 29327.7,27289.1 29327.7,27292.6C29327.7,27296.1 29329.9,27299.1 29332.6,27299.1ZM29328.8,27345.1L29336.4,27345.1L29336.4,27305.9L29328.8,27305.9L29328.8,27345.1Z" style="fill:rgb(87,94,181);fill-rule:nonzero;"/>
                <path d="M29340.6,27339.4C29343.5,27343.9 29347.3,27346.6 29352.7,27346.6C29358.4,27346.6 29363.5,27342.1 29363.6,27333.9C29363.6,27320.4 29349.2,27322.7 29349.2,27316C29349.2,27314 29350.3,27312.3 29352.7,27312.3C29355,27312.3 29357,27314.3 29358.6,27316.8L29363.6,27311C29361.4,27307.2 29357.3,27304.4 29352.6,27304.4C29346.4,27304.4 29341.9,27309.6 29341.9,27316.5C29341.9,27330.2 29356.3,27327.7 29356.3,27334.5C29356.3,27336.9 29355,27338.7 29352.6,27338.7C29349.7,27338.7 29347.5,27336.5 29345.7,27333.5L29340.6,27339.4Z" style="fill:rgb(87,94,181);fill-rule:nonzero;"/>
                <path d="M29372.6,27299.1C29375.3,27299.1 29377.5,27296.1 29377.5,27292.6C29377.5,27289.1 29375.3,27286.2 29372.6,27286.2C29369.9,27286.2 29367.7,27289.1 29367.7,27292.6C29367.7,27296.1 29369.9,27299.1 29372.6,27299.1ZM29368.8,27345.1L29376.4,27345.1L29376.4,27305.9L29368.8,27305.9L29368.8,27345.1Z" style="fill:rgb(87,94,181);fill-rule:nonzero;"/>
                <path d="M29398,27304.4C29388.2,27304.4 29381.5,27313.8 29381.5,27325.5C29381.5,27337.2 29388.2,27346.6 29398,27346.6C29407.8,27346.6 29414.5,27337.2 29414.5,27325.5C29414.5,27313.8 29407.8,27304.4 29398,27304.4ZM29398.1,27337.3C29393.1,27337.3 29389.4,27332.3 29389.4,27325.5C29389.4,27318.7 29393.1,27313.7 29398.1,27313.7C29403,27313.7 29406.6,27318.7 29406.6,27325.5C29406.6,27332.3 29403,27337.3 29398.1,27337.3Z" style="fill:rgb(87,94,181);fill-rule:nonzero;"/>
                <path d="M29419.7,27345.1L29427.2,27345.1L29427.2,27319.5C29428.4,27317 29430.4,27313.7 29434.2,27313.7C29437.9,27313.7 29440.2,27317 29440.2,27322.2L29440.2,27345.1L29447.9,27345.1L29447.9,27321.8C29447.9,27310.2 29442.7,27304.4 29436.1,27304.4C29432.1,27304.4 29429.3,27306.4 29427.2,27309L29427.2,27305.9L29419.7,27305.9L29419.7,27345.1Z" style="fill:rgb(87,94,181);fill-rule:nonzero;"/>
                <path d="M29474.9,27327.6L29480.5,27327.6L29480.9,27321.9C29488.3,27320.2 29493.6,27314.4 29493.6,27305.3C29493.6,27295.4 29487.3,27289.1 29480.3,27289.1C29473.9,27289.1 29469.4,27292.8 29466,27299.7L29472.5,27304.9C29474.8,27300.6 29476.7,27298.5 29479.9,27298.5C29483,27298.5 29485.4,27301.3 29485.4,27305.3C29485.4,27311.9 29480.9,27313.8 29473.9,27314.8L29474.9,27327.6ZM29477.7,27346C29480.5,27346 29482.9,27342.9 29482.9,27339.3C29482.9,27335.6 29480.5,27332.5 29477.7,27332.5C29474.9,27332.5 29472.5,27335.6 29472.5,27339.3C29472.5,27342.9 29474.9,27346 29477.7,27346Z" style="fill:rgb(87,94,181);fill-rule:nonzero;"/>
            </g>
            <g transform="matrix(0.279996,0,0,1.012,-10828.4,-32206.2)">
                <g transform="matrix(2.23217,-0,-0,1.18972,38673.5,31824.3)">
                    <path d="M305.854,936.513L319.731,895.305L333.354,936.598L305.854,936.513Z" style="fill:rgb(87,94,181);"/>
                    <path d="M413.257,1002.93C414.407,1002.93 415.34,1003.87 415.34,1005.02C415.34,1006.17 414.407,1007.1 413.257,1007.1L404.889,1007.1C403.739,1007.1 402.806,1006.17 402.806,1005.02C402.806,1003.87 403.739,1002.93 404.889,1002.93L413.257,1002.93ZM388.153,1002.93C389.303,1002.93 390.237,1003.87 390.237,1005.02C390.237,1006.17 389.303,1007.1 388.153,1007.1L371.418,1007.1C370.268,1007.1 369.334,1006.17 369.334,1005.02C369.334,1003.87 370.268,1002.93 371.418,1002.93L388.153,1002.93ZM354.682,1002.93C355.832,1002.93 356.765,1003.87 356.765,1005.02C356.765,1006.17 355.832,1007.1 354.682,1007.1C354.682,1007.1 346.402,1007.1 346.406,1007.1C345.648,1007.15 340.716,1007.29 335.061,1002.57C334.179,1001.83 334.061,1000.52 334.798,999.633C335.535,998.751 336.85,998.633 337.732,999.37C342.289,1003.18 346.121,1002.94 346.121,1002.94C346.185,1002.94 346.25,1002.93 346.314,1002.93L354.682,1002.93ZM327.238,981.808C327.598,982.9 327.003,984.079 325.911,984.438C324.818,984.798 323.64,984.203 323.28,983.111C321.395,977.383 319.811,970.234 318.79,961.308C318.659,960.165 319.48,959.132 320.623,959.001C321.765,958.87 322.799,959.692 322.929,960.834C323.912,969.42 325.425,976.299 327.238,981.808ZM321.719,939.227C321.728,940.376 320.801,941.317 319.652,941.325C318.502,941.334 317.561,940.407 317.553,939.257C317.548,938.589 317.545,937.914 317.545,937.232C317.545,934.059 317.546,931.087 317.546,928.305C317.546,927.155 318.48,926.222 319.63,926.222C320.78,926.222 321.713,927.156 321.713,928.305C321.712,931.088 321.712,934.059 321.712,937.232C321.712,937.903 321.715,938.568 321.719,939.227Z" style="fill:rgb(87,94,181);"/>
                </g>
            </g>
        </g>
    </g>
</svg>
