<svg width="373" height="500" viewBox="0 0 373 500" fill="none" xmlns="http://www.w3.org/2000/svg">
<mask id="mask0_1427_5635" style="mask-type:alpha" maskUnits="userSpaceOnUse" x="0" y="0" width="374" height="500">
<rect width="374" height="500" fill="#D9D9D9"/>
</mask>
<g mask="url(#mask0_1427_5635)">
<path fill-rule="evenodd" clip-rule="evenodd" d="M297.369 39.0692C299.813 37.6429 302.828 37.6429 305.277 39.0692C315.948 45.2023 345.266 62.1278 355.937 68.3084C358.386 69.7347 359.889 72.3023 359.889 75.1549C359.889 87.4686 359.889 121.32 359.889 133.633C359.889 136.438 358.386 139.053 355.937 140.48C345.266 146.66 315.948 163.538 305.277 169.719C302.828 171.145 299.813 171.145 297.369 169.719C286.697 163.538 257.38 146.66 246.709 140.48C244.26 139.053 242.752 136.438 242.752 133.633C242.752 121.32 242.752 87.4686 242.752 75.1549C242.752 72.3023 244.26 69.7347 246.709 68.3084C257.38 62.1278 286.697 45.2023 297.369 39.0692Z" stroke="#DFDFFB" stroke-width="0.998863" stroke-miterlimit="1.5" stroke-linecap="round" stroke-linejoin="round"/>
<path fill-rule="evenodd" clip-rule="evenodd" d="M297.004 241.881C299.448 240.455 302.463 240.455 304.912 241.881C315.583 248.014 344.901 264.94 355.572 271.12C358.021 272.547 359.524 275.114 359.524 277.967C359.524 290.281 359.524 324.132 359.524 336.445C359.524 339.25 358.021 341.865 355.572 343.292C344.901 349.472 315.583 366.35 304.912 372.531C302.463 373.957 299.448 373.957 297.004 372.531C286.332 366.35 257.015 349.472 246.344 343.292C243.895 341.865 242.387 339.25 242.387 336.445C242.387 324.132 242.387 290.281 242.387 277.967C242.387 275.114 243.895 272.547 246.344 271.12C257.015 264.94 286.332 248.014 297.004 241.881Z" stroke="#DFDFFB" stroke-width="0.998863" stroke-miterlimit="1.5" stroke-linecap="round" stroke-linejoin="round"/>
<path fill-rule="evenodd" clip-rule="evenodd" d="M63.0962 39.0692C65.5405 37.6429 68.5556 37.6429 71.0046 39.0692C81.6759 45.2023 110.993 62.1278 121.665 68.3084C124.114 69.7347 125.616 72.3023 125.616 75.1549C125.616 87.4686 125.616 121.32 125.616 133.633C125.616 136.438 124.114 139.053 121.665 140.48C110.993 146.66 81.6759 163.538 71.0046 169.719C68.5556 171.145 65.5405 171.145 63.0962 169.719C52.4249 163.538 23.1075 146.66 12.4362 140.48C9.98714 139.053 8.47974 136.438 8.47974 133.633C8.47974 121.32 8.47974 87.4686 8.47974 75.1549C8.47974 72.3023 9.98714 69.7347 12.4362 68.3084C23.1075 62.1278 52.4249 45.2023 63.0962 39.0692Z" stroke="#DFDFFB" stroke-width="0.998863" stroke-miterlimit="1.5" stroke-linecap="round" stroke-linejoin="round"/>
<path fill-rule="evenodd" clip-rule="evenodd" d="M62.7305 241.881C65.1748 240.455 68.1898 240.455 70.6389 241.881C81.3102 248.014 110.628 264.94 121.299 271.12C123.748 272.547 125.251 275.114 125.251 277.967C125.251 290.281 125.251 324.132 125.251 336.445C125.251 339.25 123.748 341.865 121.299 343.292C110.628 349.472 81.3102 366.35 70.6389 372.531C68.1898 373.957 65.1748 373.957 62.7305 372.531C52.0592 366.35 22.7418 349.472 12.0705 343.292C9.62141 341.865 8.11401 339.25 8.11401 336.445C8.11401 324.132 8.11401 290.281 8.11401 277.967C8.11401 275.114 9.62141 272.547 12.0705 271.12C22.7418 264.94 52.0592 248.014 62.7305 241.881Z" stroke="#DFDFFB" stroke-width="0.998863" stroke-miterlimit="1.5" stroke-linecap="round" stroke-linejoin="round"/>
<path fill-rule="evenodd" clip-rule="evenodd" d="M4.16262 140.389C6.60693 138.963 9.62196 138.963 12.071 140.389C22.7423 146.522 52.0598 163.447 62.731 169.628C65.1801 171.054 66.6827 173.622 66.6827 176.475C66.6827 188.788 66.6827 222.639 66.6827 234.953C66.6827 237.758 65.1801 240.373 62.731 241.799C52.0598 247.98 22.7423 264.858 12.071 271.039C9.62196 272.465 6.60693 272.465 4.16262 271.039C-6.50865 264.858 -35.8261 247.98 -46.4974 241.799C-48.9465 240.373 -50.4539 237.758 -50.4539 234.953C-50.4539 222.639 -50.4539 188.788 -50.4539 176.475C-50.4539 173.622 -48.9465 171.054 -46.4974 169.628C-35.8261 163.447 -6.50865 146.522 4.16262 140.389Z" stroke="#DFDFFB" stroke-width="0.998863" stroke-miterlimit="1.5" stroke-linecap="round" stroke-linejoin="round"/>
<path fill-rule="evenodd" clip-rule="evenodd" d="M-54.0407 38.0697C-51.5964 36.6434 -48.5814 36.6434 -46.1323 38.0697C-35.4611 44.2028 -6.1436 61.1283 4.52767 67.309C6.97674 68.7353 8.47938 71.3028 8.47938 74.1554C8.47938 86.4692 8.47938 120.32 8.47938 132.634C8.47938 135.439 6.97674 138.054 4.52767 139.48C-6.1436 145.661 -35.4611 162.539 -46.1323 168.72C-48.5814 170.146 -51.5964 170.146 -54.0407 168.72C-64.712 162.539 -94.0295 145.661 -104.701 139.48C-107.15 138.054 -108.657 135.439 -108.657 132.634C-108.657 120.32 -108.657 86.4692 -108.657 74.1554C-108.657 71.3028 -107.15 68.7353 -104.701 67.309C-94.0295 61.1283 -64.712 44.2028 -54.0407 38.0697Z" stroke="#DFDFFB" stroke-width="0.998863" stroke-miterlimit="1.5" stroke-linecap="round" stroke-linejoin="round"/>
<path fill-rule="evenodd" clip-rule="evenodd" d="M-54.4057 241.881C-51.9614 240.455 -48.9464 240.455 -46.4973 241.881C-35.8261 248.014 -6.50859 264.94 4.16268 271.12C6.61175 272.547 8.11439 275.114 8.11439 277.967C8.11439 290.281 8.11439 324.132 8.11439 336.445C8.11439 339.25 6.61175 341.865 4.16268 343.292C-6.50859 349.472 -35.8261 366.35 -46.4973 372.531C-48.9464 373.957 -51.9614 373.957 -54.4057 372.531C-65.077 366.35 -94.3945 349.472 -105.066 343.292C-107.515 341.865 -109.022 339.25 -109.022 336.445C-109.022 324.132 -109.022 290.281 -109.022 277.967C-109.022 275.114 -107.515 272.547 -105.066 271.12C-94.3945 264.94 -65.077 248.014 -54.4057 241.881Z" stroke="#DFDFFB" stroke-width="0.998863" stroke-miterlimit="1.5" stroke-linecap="round" stroke-linejoin="round"/>
<path fill-rule="evenodd" clip-rule="evenodd" d="M414.514 39.0692C416.958 37.6429 419.974 37.6429 422.423 39.0692C433.094 45.2023 462.411 62.1278 473.083 68.3084C475.532 69.7347 477.034 72.3023 477.034 75.1549C477.034 87.4686 477.034 121.32 477.034 133.633C477.034 136.438 475.532 139.053 473.083 140.48C462.411 146.66 433.094 163.538 422.423 169.719C419.974 171.145 416.958 171.145 414.514 169.719C403.843 163.538 374.525 146.66 363.854 140.48C361.405 139.053 359.898 136.438 359.898 133.633C359.898 121.32 359.898 87.4686 359.898 75.1549C359.898 72.3023 361.405 69.7347 363.854 68.3084C374.525 62.1278 403.843 45.2023 414.514 39.0692Z" stroke="#DFDFFB" stroke-width="0.998863" stroke-miterlimit="1.5" stroke-linecap="round" stroke-linejoin="round"/>
<path fill-rule="evenodd" clip-rule="evenodd" d="M414.14 241.881C416.585 240.455 419.6 240.455 422.049 241.881C432.72 248.014 462.038 264.94 472.709 271.12C475.158 272.547 476.661 275.114 476.661 277.967V336.445C476.661 339.25 475.158 341.865 472.709 343.292C462.038 349.472 432.72 366.35 422.049 372.531C419.6 373.957 416.585 373.957 414.14 372.531C403.469 366.35 374.152 349.472 363.48 343.292C361.031 341.865 359.524 339.25 359.524 336.445C359.524 324.132 359.524 290.281 359.524 277.967C359.524 275.114 361.031 272.547 363.48 271.12C374.152 264.94 403.469 248.014 414.14 241.881Z" stroke="#DFDFFB" stroke-width="0.998863" stroke-miterlimit="1.5" stroke-linecap="round" stroke-linejoin="round"/>
<path fill-rule="evenodd" clip-rule="evenodd" d="M355.572 140.389C358.016 138.963 361.031 138.963 363.48 140.389C374.152 146.522 403.469 163.447 414.14 169.628C416.59 171.054 418.092 173.622 418.092 176.475C418.092 188.788 418.092 222.639 418.092 234.953C418.092 237.758 416.59 240.373 414.14 241.799C403.469 247.98 374.152 264.858 363.48 271.039C361.031 272.465 358.016 272.465 355.572 271.039C344.901 264.858 315.583 247.98 304.912 241.799C302.463 240.373 300.956 237.758 300.956 234.953C300.956 222.639 300.956 188.788 300.956 176.475C300.956 173.622 302.463 171.054 304.912 169.628C315.583 163.447 344.901 146.522 355.572 140.389Z" stroke="#DFDFFB" stroke-width="0.998863" stroke-miterlimit="1.5" stroke-linecap="round" stroke-linejoin="round"/>
<path fill-rule="evenodd" clip-rule="evenodd" d="M180.232 39.0692C182.677 37.6429 185.692 37.6429 188.141 39.0692C198.812 45.2023 228.13 62.1278 238.801 68.3084C241.25 69.7347 242.753 72.3023 242.753 75.1549C242.753 87.4686 242.753 121.32 242.753 133.633C242.753 136.438 241.25 139.053 238.801 140.48C228.13 146.66 198.812 163.538 188.141 169.719C185.692 171.145 182.677 171.145 180.232 169.719C169.561 163.538 140.244 146.66 129.572 140.48C127.123 139.053 125.616 136.438 125.616 133.633C125.616 121.32 125.616 87.4686 125.616 75.1549C125.616 72.3023 127.123 69.7347 129.572 68.3084C140.244 62.1278 169.561 45.2023 180.232 39.0692Z" stroke="#DFDFFB" stroke-width="0.998863" stroke-miterlimit="1.5" stroke-linecap="round" stroke-linejoin="round"/>
<path fill-rule="evenodd" clip-rule="evenodd" d="M179.867 241.881C182.312 240.455 185.327 240.455 187.776 241.881C198.447 248.014 227.764 264.94 238.436 271.12C240.885 272.547 242.387 275.114 242.387 277.967C242.387 290.281 242.387 324.132 242.387 336.445C242.387 339.25 240.885 341.865 238.436 343.292C227.764 349.472 198.447 366.35 187.776 372.531C185.327 373.957 182.312 373.957 179.867 372.531C169.196 366.35 139.878 349.472 129.207 343.292C126.758 341.865 125.251 339.25 125.251 336.445C125.251 324.132 125.251 290.281 125.251 277.967C125.251 275.114 126.758 272.547 129.207 271.12C139.878 264.94 169.196 248.014 179.867 241.881Z" stroke="#DFDFFB" stroke-width="0.998863" stroke-miterlimit="1.5" stroke-linecap="round" stroke-linejoin="round"/>
<path fill-rule="evenodd" clip-rule="evenodd" d="M121.299 140.389C123.743 138.963 126.758 138.963 129.207 140.389C139.879 146.522 169.196 163.447 179.867 169.628C182.316 171.054 183.819 173.622 183.819 176.475C183.819 188.788 183.819 222.639 183.819 234.953C183.819 237.758 182.316 240.373 179.867 241.799C169.196 247.98 139.879 264.858 129.207 271.039C126.758 272.465 123.743 272.465 121.299 271.039C110.628 264.858 81.3101 247.98 70.6388 241.799C68.1898 240.373 66.6824 237.758 66.6824 234.953C66.6824 222.639 66.6824 188.788 66.6824 176.475C66.6824 173.622 68.1898 171.054 70.6388 169.628C81.3101 163.447 110.628 146.522 121.299 140.389Z" stroke="#DFDFFB" stroke-width="0.998863" stroke-miterlimit="1.5" stroke-linecap="round" stroke-linejoin="round"/>
<path fill-rule="evenodd" clip-rule="evenodd" d="M3.45828 75.215C5.90259 73.7887 8.91762 73.7887 11.3667 75.215C22.038 81.3481 51.3554 98.2736 62.0267 104.454C64.4758 105.881 65.9784 108.448 65.9784 111.301C65.9784 123.614 65.9784 157.465 65.9784 169.779C65.9784 172.584 64.4758 175.199 62.0267 176.626C51.3554 182.806 22.038 199.684 11.3667 205.865C8.91762 207.291 5.90259 207.291 3.45828 205.865C-7.21299 199.684 -36.5305 182.806 -47.2017 176.626C-49.6508 175.199 -51.1582 172.584 -51.1582 169.779C-51.1582 157.465 -51.1582 123.614 -51.1582 111.301C-51.1582 108.448 -49.6508 105.881 -47.2017 104.454C-36.5305 98.2736 -7.21299 81.3481 3.45828 75.215Z" stroke="#DFDFFB" stroke-width="0.998863" stroke-miterlimit="1.5" stroke-linecap="round" stroke-linejoin="round"/>
<path fill-rule="evenodd" clip-rule="evenodd" d="M3.09304 278.026C5.53735 276.6 8.55238 276.6 11.0014 278.026C21.6727 284.159 50.9902 301.085 61.6615 307.265C64.1105 308.692 65.6132 311.259 65.6132 314.112C65.6132 326.425 65.6132 360.276 65.6132 372.59C65.6132 375.395 64.1105 378.01 61.6615 379.437C50.9902 385.617 21.6727 402.495 11.0014 408.676C8.55238 410.102 5.53735 410.102 3.09304 408.676C-7.57823 402.495 -36.8957 385.617 -47.567 379.437C-50.016 378.01 -51.5234 375.395 -51.5234 372.59C-51.5234 360.276 -51.5234 326.425 -51.5234 314.112C-51.5234 311.259 -50.016 308.692 -47.567 307.265C-36.8957 301.085 -7.57823 284.159 3.09304 278.026Z" stroke="#DFDFFB" stroke-width="0.998863" stroke-miterlimit="1.5" stroke-linecap="round" stroke-linejoin="round"/>
<path fill-rule="evenodd" clip-rule="evenodd" d="M-55.4748 176.535C-53.0305 175.108 -50.0155 175.108 -47.5664 176.535C-36.8952 182.668 -7.57768 199.593 3.09359 205.774C5.54266 207.2 7.0453 209.768 7.0453 212.62C7.0453 224.934 7.0453 258.785 7.0453 271.099C7.0453 273.904 5.54266 276.519 3.09359 277.945C-7.57768 284.126 -36.8952 301.004 -47.5664 307.184C-50.0155 308.611 -53.0305 308.611 -55.4748 307.184C-66.1461 301.004 -95.4636 284.126 -106.135 277.945C-108.584 276.519 -110.091 273.904 -110.091 271.099C-110.091 258.785 -110.091 224.934 -110.091 212.62C-110.091 209.768 -108.584 207.2 -106.135 205.774C-95.4636 199.593 -66.1461 182.668 -55.4748 176.535Z" stroke="#DFDFFB" stroke-width="0.998863" stroke-miterlimit="1.5" stroke-linecap="round" stroke-linejoin="round"/>
<path fill-rule="evenodd" clip-rule="evenodd" d="M413.071 176.535C415.515 175.108 418.53 175.108 420.979 176.535C431.65 182.668 460.968 199.593 471.639 205.774C474.088 207.2 475.591 209.768 475.591 212.62C475.591 224.934 475.591 258.785 475.591 271.099C475.591 273.904 474.088 276.519 471.639 277.945C460.968 284.126 431.65 301.004 420.979 307.184C418.53 308.611 415.515 308.611 413.071 307.184C402.399 301.004 373.082 284.126 362.411 277.945C359.962 276.519 358.454 273.904 358.454 271.099C358.454 258.785 358.454 224.934 358.454 212.62C358.454 209.768 359.962 207.2 362.411 205.774C373.082 199.593 402.399 182.668 413.071 176.535Z" stroke="#DFDFFB" stroke-width="0.998863" stroke-miterlimit="1.5" stroke-linecap="round" stroke-linejoin="round"/>
<path fill-rule="evenodd" clip-rule="evenodd" d="M237.731 75.215C240.175 73.7887 243.19 73.7887 245.639 75.215C256.31 81.3481 285.628 98.2736 296.299 104.454C298.748 105.881 300.251 108.448 300.251 111.301C300.251 123.614 300.251 157.465 300.251 169.779C300.251 172.584 298.748 175.199 296.299 176.626C285.628 182.806 256.31 199.684 245.639 205.865C243.19 207.291 240.175 207.291 237.731 205.865C227.059 199.684 197.742 182.806 187.071 176.626C184.622 175.199 183.114 172.584 183.114 169.779C183.114 157.465 183.114 123.614 183.114 111.301C183.114 108.448 184.622 105.881 187.071 104.454C197.742 98.2736 227.059 81.3481 237.731 75.215Z" stroke="#DFDFFB" stroke-width="0.998863" stroke-miterlimit="1.5" stroke-linecap="round" stroke-linejoin="round"/>
<path fill-rule="evenodd" clip-rule="evenodd" d="M237.366 278.026C239.81 276.6 242.825 276.6 245.274 278.026C255.946 284.159 285.263 301.085 295.934 307.265C298.383 308.692 299.886 311.259 299.886 314.112C299.886 326.425 299.886 360.276 299.886 372.59C299.886 375.395 298.383 378.01 295.934 379.437C285.263 385.617 255.946 402.495 245.274 408.676C242.825 410.102 239.81 410.102 237.366 408.676C226.695 402.495 197.377 385.617 186.706 379.437C184.257 378.01 182.75 375.395 182.75 372.59C182.75 360.276 182.75 326.425 182.75 314.112C182.75 311.259 184.257 308.692 186.706 307.265C197.377 301.085 226.695 284.159 237.366 278.026Z" stroke="#DFDFFB" stroke-width="0.998863" stroke-miterlimit="1.5" stroke-linecap="round" stroke-linejoin="round"/>
<path fill-rule="evenodd" clip-rule="evenodd" d="M178.798 176.535C181.242 175.108 184.257 175.108 186.706 176.535C197.377 182.668 226.695 199.593 237.366 205.774C239.815 207.2 241.318 209.768 241.318 212.62C241.318 224.934 241.318 258.785 241.318 271.099C241.318 273.904 239.815 276.519 237.366 277.945C226.695 284.126 197.377 301.004 186.706 307.184C184.257 308.611 181.242 308.611 178.798 307.184C168.126 301.004 138.809 284.126 128.138 277.945C125.689 276.519 124.181 273.904 124.181 271.099C124.181 258.785 124.181 224.934 124.181 212.62C124.181 209.768 125.689 207.2 128.138 205.774C138.809 199.593 168.126 182.668 178.798 176.535Z" stroke="#DFDFFB" stroke-width="0.998863" stroke-miterlimit="1.5" stroke-linecap="round" stroke-linejoin="round"/>
<path fill-rule="evenodd" clip-rule="evenodd" d="M120.595 75.215C123.039 73.7887 126.054 73.7887 128.503 75.215C139.174 81.3481 168.492 98.2736 179.163 104.454C181.612 105.881 183.115 108.448 183.115 111.301C183.115 123.614 183.115 157.465 183.115 169.779C183.115 172.584 181.612 175.199 179.163 176.626C168.492 182.806 139.174 199.684 128.503 205.865C126.054 207.291 123.039 207.291 120.595 205.865C109.923 199.684 80.6058 182.806 69.9345 176.626C67.4854 175.199 65.978 172.584 65.978 169.779C65.978 157.465 65.978 123.614 65.978 111.301C65.978 108.448 67.4854 105.881 69.9345 104.454C80.6058 98.2736 109.923 81.3481 120.595 75.215Z" stroke="#DFDFFB" stroke-width="0.998863" stroke-miterlimit="1.5" stroke-linecap="round" stroke-linejoin="round"/>
<path fill-rule="evenodd" clip-rule="evenodd" d="M120.23 278.026C122.674 276.6 125.689 276.6 128.138 278.026C138.809 284.159 168.127 301.085 178.798 307.265C181.247 308.692 182.75 311.259 182.75 314.112C182.75 326.425 182.75 360.276 182.75 372.59C182.75 375.395 181.247 378.01 178.798 379.437C168.127 385.617 138.809 402.495 128.138 408.676C125.689 410.102 122.674 410.102 120.23 408.676C109.558 402.495 80.241 385.617 69.5697 379.437C67.1207 378.01 65.6133 375.395 65.6133 372.59C65.6133 360.276 65.6133 326.425 65.6133 314.112C65.6133 311.259 67.1207 308.692 69.5697 307.265C80.241 301.085 109.558 284.159 120.23 278.026Z" stroke="#DFDFFB" stroke-width="0.998863" stroke-miterlimit="1.5" stroke-linecap="round" stroke-linejoin="round"/>
<path fill-rule="evenodd" clip-rule="evenodd" d="M61.6614 176.535C64.1057 175.108 67.1207 175.108 69.5698 176.535C80.2411 182.668 109.559 199.593 120.23 205.774C122.679 207.2 124.182 209.768 124.182 212.62C124.182 224.934 124.182 258.785 124.182 271.099C124.182 273.904 122.679 276.519 120.23 277.945C109.559 284.126 80.2411 301.004 69.5698 307.184C67.1207 308.611 64.1057 308.611 61.6614 307.184C50.9901 301.004 21.6727 284.126 11.0014 277.945C8.55232 276.519 7.04492 273.904 7.04492 271.099C7.04492 258.785 7.04492 224.934 7.04492 212.62C7.04492 209.768 8.55232 207.2 11.0014 205.774C21.6727 199.593 50.9901 182.668 61.6614 176.535Z" stroke="#DFDFFB" stroke-width="0.998863" stroke-miterlimit="1.5" stroke-linecap="round" stroke-linejoin="round"/>
<path fill-rule="evenodd" clip-rule="evenodd" d="M354.867 75.215C357.312 73.7887 360.327 73.7887 362.776 75.215C373.447 81.3481 402.765 98.2736 413.436 104.454C415.885 105.881 417.388 108.448 417.388 111.301C417.388 123.614 417.388 157.465 417.388 169.779C417.388 172.584 415.885 175.199 413.436 176.626C402.765 182.806 373.447 199.684 362.776 205.865C360.327 207.291 357.312 207.291 354.867 205.865C344.196 199.684 314.879 182.806 304.207 176.626C301.758 175.199 300.251 172.584 300.251 169.779C300.251 157.465 300.251 123.614 300.251 111.301C300.251 108.448 301.758 105.881 304.207 104.454C314.879 98.2736 344.196 81.3481 354.867 75.215Z" stroke="#DFDFFB" stroke-width="0.998863" stroke-miterlimit="1.5" stroke-linecap="round" stroke-linejoin="round"/>
<path fill-rule="evenodd" clip-rule="evenodd" d="M354.502 278.026C356.947 276.6 359.962 276.6 362.411 278.026C373.082 284.159 402.399 301.085 413.071 307.265C415.52 308.692 417.022 311.259 417.022 314.112C417.022 326.425 417.022 360.276 417.022 372.59C417.022 375.395 415.52 378.01 413.071 379.437C402.399 385.617 373.082 402.495 362.411 408.676C359.962 410.102 356.947 410.102 354.502 408.676C343.831 402.495 314.513 385.617 303.842 379.437C301.393 378.01 299.886 375.395 299.886 372.59V314.112C299.886 311.259 301.393 308.692 303.842 307.265C314.513 301.085 343.831 284.159 354.502 278.026Z" stroke="#DFDFFB" stroke-width="0.998863" stroke-miterlimit="1.5" stroke-linecap="round" stroke-linejoin="round"/>
<path fill-rule="evenodd" clip-rule="evenodd" d="M295.934 176.535C298.379 175.108 301.394 175.108 303.843 176.535C314.514 182.668 343.832 199.593 354.503 205.774C356.952 207.2 358.454 209.768 358.454 212.62C358.454 224.934 358.454 258.785 358.454 271.099C358.454 273.904 356.952 276.519 354.503 277.945C343.832 284.126 314.514 301.004 303.843 307.184C301.394 308.611 298.379 308.611 295.934 307.184C285.263 301.004 255.946 284.126 245.274 277.945C242.825 276.519 241.318 273.904 241.318 271.099V212.62C241.318 209.768 242.825 207.2 245.274 205.774C255.946 199.593 285.263 182.668 295.934 176.535Z" stroke="#DFDFFB" stroke-width="0.998863" stroke-miterlimit="1.5" stroke-linecap="round" stroke-linejoin="round"/>
<path fill-rule="evenodd" clip-rule="evenodd" d="M181.112 176.043C183.558 174.652 186.574 174.652 189.02 176.043C199.767 182.276 229.428 199.392 240.176 205.577C242.621 207.016 244.127 209.605 244.127 212.434C244.127 224.852 244.127 259.085 244.127 271.503C244.127 274.331 242.621 276.921 240.176 278.359C229.428 284.544 199.767 301.661 189.02 307.846C186.574 309.284 183.558 309.284 181.112 307.846C170.365 301.661 140.704 284.544 129.956 278.359C127.511 276.921 126 274.331 126 271.503C126 259.085 126 224.852 126 212.434C126 209.605 127.511 207.016 129.956 205.577C140.704 199.392 170.365 182.276 181.112 176.043Z" stroke="#000091" stroke-width="4.77274" stroke-miterlimit="1.5" stroke-linecap="round" stroke-linejoin="round"/>
<path fill-rule="evenodd" clip-rule="evenodd" d="M181.112 176.043C183.558 174.652 186.574 174.652 189.02 176.043C199.767 182.276 229.428 199.392 240.176 205.577C242.621 207.016 244.127 209.605 244.127 212.434C244.127 224.852 244.127 259.085 244.127 271.503C244.127 274.331 242.621 276.921 240.176 278.359C229.428 284.544 199.767 301.661 189.02 307.846C186.574 309.284 183.558 309.284 181.112 307.846C170.365 301.661 140.704 284.544 129.956 278.359C127.511 276.921 126 274.331 126 271.503C126 259.085 126 224.852 126 212.434C126 209.605 127.511 207.016 129.956 205.577C140.704 199.392 170.365 182.276 181.112 176.043Z" fill="white"/>
<path fill-rule="evenodd" clip-rule="evenodd" d="M143.497 252.452C143.489 243.7 143.497 234.948 143.521 226.197C143.529 222.822 145.33 219.705 148.253 218.01C158.929 211.809 169.629 205.633 180.346 199.489C183.269 197.81 186.87 197.81 189.794 199.489C200.51 205.633 211.218 211.809 221.894 218.01C224.809 219.705 226.61 222.822 226.618 226.197C226.658 238.541 226.658 250.902 226.618 263.246C226.61 266.621 224.809 269.737 221.894 271.433C213.705 276.188 205.501 280.935 197.288 285.658C196.965 285.505 196.609 285.344 196.222 285.166C193.363 283.898 189.253 282.623 189.083 282.453C188.461 281.839 188.074 279.288 188.954 276.317C189.188 275.534 189.511 274.735 189.939 273.944C189.971 273.879 190.004 273.822 190.036 273.758C190.06 273.725 190.076 273.693 190.093 273.661C190.399 273.144 190.739 272.644 191.118 272.167C191.15 272.127 191.191 272.079 191.231 272.038C191.28 271.966 191.336 271.901 191.393 271.836C191.481 271.731 191.578 271.627 191.675 271.522C191.683 271.514 191.683 271.514 191.692 271.506C192.152 271.013 192.677 270.545 193.258 270.117C193.783 269.858 194.429 269.729 195.075 269.6C197.28 269.6 199.484 270.246 201.689 270.504C201.947 270.504 202.206 270.633 202.464 270.763C203.247 270.9 204.152 270.9 204.927 270.634C205.84 270.375 206.873 269.859 207.261 268.696C207.576 267.751 207.915 266.75 207.39 265.838C206.615 264.675 208.173 264.288 208.69 263.505C209.078 262.859 208.432 262.471 208.303 261.825C208.173 261.559 207.657 261.696 207.39 261.301C208.303 260.913 209.724 260.138 209.078 258.967C208.69 258.321 208.044 257.288 208.82 256.634C209.724 256.117 211.153 256.247 211.541 255.342C212.187 253.784 210.766 252.492 209.982 251.192C209.595 250.417 209.078 249.901 208.561 249.118C208.044 248.213 207.39 247.43 207.132 246.397C206.744 245.363 207.261 244.451 207.261 243.418C207.39 241.472 206.874 239.526 206.357 237.58C205.969 236.676 205.84 235.635 205.444 234.73C205.323 234.214 205.194 233.697 204.798 233.172C204.669 232.914 204.669 232.526 204.798 232.268C205.323 231.88 205.84 231.493 206.357 230.976C206.744 230.322 206.486 229.418 205.84 229.03C204.927 228.635 205.056 229.934 204.41 230.193H204.023C203.894 229.805 204.152 229.676 204.41 229.418C204.41 229.289 204.41 229.03 204.281 229.03C203.764 229.03 203.247 228.901 203.118 228.635C201.818 226.826 200.001 225.914 198.063 225.139C198.58 225.268 199.097 225.397 199.614 225.397C200.526 225.526 201.56 225.526 202.335 225.139C202.989 224.881 203.118 223.847 203.377 223.193C203.635 222.676 203.248 221.901 202.989 221.514C202.392 220.553 201.463 219.931 200.51 219.439C200.025 219.181 199.25 218.769 198.653 218.446C198.499 218.365 198.378 218.3 198.281 218.252C198.273 218.244 198.257 218.236 198.249 218.236C197.167 217.631 190.811 215.886 184.561 215.878C178.318 215.878 171.285 218.373 171.285 218.373H171.293C170.647 218.599 169.653 218.971 168.612 219.439C167.368 219.996 165.64 220.763 164.606 222.031C163.573 223.322 162.531 224.622 162.143 226.172C160.456 227.214 159.422 228.764 158.517 230.322C157.346 232.526 155.667 234.472 155.917 236.934C156.184 239.009 156.7 240.955 157.088 243.159C157.217 243.934 157.347 244.58 157.605 245.363C157.863 246.138 157.605 247.043 157.993 247.696C158.259 248.084 158.13 248.601 158.647 248.859V249.376C158.776 249.505 158.776 249.634 159.034 249.634V250.159C160.068 251.451 161.368 252.621 162.014 254.042C162.273 254.825 160.722 254.43 160.068 254.171C158.776 253.526 157.993 252.492 156.959 251.58C156.959 251.58 156.83 251.709 156.83 251.838C157.347 252.75 159.293 253.913 158.259 254.567C157.734 254.826 157.088 254.171 156.571 254.696C156.442 254.955 156.571 255.213 156.571 255.471C155.796 254.955 155.013 255.213 154.238 254.955C153.721 254.826 153.591 253.784 152.937 253.784C151.257 253.396 149.699 253.009 148.011 252.88C146.477 252.71 144.999 252.476 143.497 252.452ZM160.924 278.78C159.002 277.666 157.08 276.56 155.166 275.445C155.497 275.421 155.828 275.381 156.183 275.3C156.983 275.122 157.734 274.654 158.517 274.396V274.654C160.455 273.879 161.885 272.192 163.831 271.546C163.96 271.546 164.219 271.804 164.477 271.675C165.648 270.634 166.94 269.471 168.628 269.729C168.628 269.858 168.628 269.987 168.757 269.987C168.79 269.987 168.822 269.987 168.846 269.987C168.386 270.335 167.926 270.682 167.457 271.021C167.336 271.158 167.457 271.288 167.594 271.288C168.24 271.021 168.628 270.504 169.274 270.246C169.145 270.375 169.145 270.633 169.015 270.763C168.563 271.077 168.095 271.457 167.611 271.893C166.012 273.258 164.663 274.751 163.282 276.301H163.298C162.563 277.101 161.812 277.892 161.077 278.626C161.029 278.675 160.98 278.723 160.924 278.78ZM152.259 273.766C151.225 273.161 150.192 272.563 149.158 271.957C151.734 271.707 154.391 271.788 156.83 270.504C158.905 269.471 160.851 268.042 162.531 266.233C162.531 266.233 162.66 266.362 162.66 266.492C162.272 267.783 161.497 268.696 160.455 269.471C159.68 269.859 159.163 270.504 158.517 270.763C158.13 271.021 157.734 271.287 157.347 271.546C155.61 272.151 153.817 272.975 152.259 273.766ZM148.884 271.804C148.674 271.683 148.463 271.554 148.253 271.433C145.33 269.737 143.529 266.621 143.521 263.246C143.513 261.002 143.513 258.749 143.505 256.505C144.943 256.747 146.356 257.102 147.753 257.546C148.924 257.934 149.957 258.451 150.991 259.096C151.516 259.492 151.774 259.88 152.291 260.138C152.937 260.525 153.85 260.525 154.496 260.267H155.142C157.088 259.75 159.163 259.234 160.455 257.805C160.455 257.934 160.593 257.934 160.722 257.934C160.326 258.967 160.326 260.138 159.551 261.042C159.551 261.171 159.422 261.43 159.68 261.559H159.939C159.81 261.559 159.68 261.559 159.68 261.696C159.68 261.954 160.068 261.696 160.197 261.955C159.551 262.084 158.905 262.213 158.517 262.73C158.517 262.859 158.776 262.858 158.905 262.858C158.647 263.117 158.259 262.988 158.13 263.246C158.13 263.246 158.259 263.375 158.388 263.375C158.259 263.375 158.13 263.375 158.13 263.505V263.9C157.734 263.9 157.605 264.158 157.347 264.287C157.863 264.675 158.259 264.287 158.776 264.287C157.347 264.804 156.183 265.579 154.754 265.967C154.496 265.967 154.754 266.363 154.496 266.363C154.883 266.621 155.142 266.233 155.53 266.233C153.721 267.267 151.903 268.171 149.957 269.342C149.957 269.342 149.699 269.6 149.699 269.859H149.182C148.924 269.988 149.053 270.375 148.794 270.634C149.44 271.021 150.216 270.117 150.604 270.634C150.733 270.634 150.345 270.763 150.087 270.763C149.957 270.763 149.958 271.021 149.828 271.021H149.441C149.182 271.288 148.924 271.416 148.924 271.804C148.908 271.804 148.9 271.804 148.884 271.804ZM143.505 254.462C143.505 254.309 143.505 254.155 143.505 253.994C144.91 253.695 146.267 253.429 147.624 253.526C148.011 253.526 148.536 253.397 148.924 253.526C147.01 253.421 145.282 253.921 143.505 254.462ZM202.521 244.354C201.754 244.16 201.092 244.354 200.316 244.354C199.275 244.612 198.37 244.741 197.465 245.129C198.241 244.612 199.016 244.096 199.929 243.837C200.575 243.708 201.22 243.321 201.875 243.321C202.65 243.191 203.425 242.925 204.071 243.191C204.725 243.45 205.759 243.45 205.888 243.837C206.147 244.613 205.501 245.396 204.725 245.912C204.596 246.171 205.113 246.3 205.113 246.558C204.984 246.816 204.596 246.945 204.33 246.945C204.071 247.075 203.813 247.462 203.554 247.729C203.813 247.729 203.554 248.116 203.813 248.116C203.296 248.762 204.071 250.054 203.296 250.32C202.392 250.579 201.35 250.579 200.316 250.32C200.833 250.191 201.479 250.45 201.875 249.925V249.408C201.875 249.279 201.737 249.279 201.608 249.279C201.479 249.408 201.35 249.408 201.35 249.408C201.35 249.15 201.091 248.891 200.962 248.891C200.187 249.021 199.533 248.633 199.016 248.116C199.403 247.987 199.791 247.858 200.187 247.987C200.575 247.987 200.445 247.333 200.833 247.075H201.22C201.996 246.041 203.554 245.783 203.813 244.741C203.813 244.483 203.038 244.483 202.521 244.354Z" fill="#E1000F"/>
</g>
<path fill-rule="evenodd" clip-rule="evenodd" d="M272.956 87.5479C274.221 86.8174 275.78 86.8174 277.046 87.5479C282.522 90.7138 297.481 99.3592 302.956 102.501C304.221 103.231 305 104.595 305 106.056C305 112.364 305 129.63 305 135.962C305 137.423 304.221 138.762 302.956 139.493C297.481 142.659 282.522 151.304 277.046 154.47C275.78 155.201 274.221 155.201 272.956 154.47C267.481 151.304 252.522 142.659 247.046 139.493C245.779 138.762 245 137.423 245 135.962C245 129.63 245 112.364 245 106.056C245 104.595 245.779 103.231 247.046 102.501C252.522 99.3592 267.481 90.7138 272.956 87.5479Z" stroke="#000091" stroke-width="4.6877" stroke-miterlimit="1.5" stroke-linecap="round" stroke-linejoin="round"/>
<path fill-rule="evenodd" clip-rule="evenodd" d="M272.956 87.5479C274.221 86.8174 275.78 86.8174 277.046 87.5479C282.522 90.7138 297.481 99.3592 302.956 102.501C304.221 103.231 305 104.595 305 106.056C305 112.364 305 129.63 305 135.962C305 137.423 304.221 138.762 302.956 139.493C297.481 142.659 282.522 151.304 277.046 154.47C275.78 155.201 274.221 155.201 272.956 154.47C267.481 151.304 252.522 142.659 247.046 139.493C245.779 138.762 245 137.423 245 135.962C245 129.63 245 112.364 245 106.056C245 104.595 245.779 103.231 247.046 102.501C252.522 99.3592 267.481 90.7138 272.956 87.5479Z" fill="white"/>
<path d="M290.003 107.667H285.003V104.334H281.669V107.667H268.335V104.334H265.001V107.667H260.001V137.663H290.003V107.667ZM286.67 134.33H263.334V115.999H286.67V134.33ZM266.668 119.332H275.002V127.664H266.668V119.332Z" fill="#000091"/>
<rect x="266.26" y="118.893" width="9.30855" height="9.30855" fill="#E1000F"/>
<path fill-rule="evenodd" clip-rule="evenodd" d="M303.956 141.548C305.221 140.817 306.78 140.817 308.046 141.548C313.522 144.714 328.481 153.359 333.956 156.501C335.221 157.231 336 158.595 336 160.056C336 166.364 336 183.63 336 189.962C336 191.423 335.221 192.762 333.956 193.493C328.481 196.659 313.522 205.304 308.046 208.47C306.78 209.201 305.221 209.201 303.956 208.47C298.481 205.304 283.522 196.659 278.046 193.493C276.779 192.762 276 191.423 276 189.962C276 183.63 276 166.364 276 160.056C276 158.595 276.779 157.231 278.046 156.501C283.522 153.359 298.481 144.714 303.956 141.548Z" stroke="#000091" stroke-width="4.6877" stroke-miterlimit="1.5" stroke-linecap="round" stroke-linejoin="round"/>
<path fill-rule="evenodd" clip-rule="evenodd" d="M303.956 141.548C305.221 140.817 306.78 140.817 308.046 141.548C313.522 144.714 328.481 153.359 333.956 156.501C335.221 157.231 336 158.595 336 160.056C336 166.364 336 183.63 336 189.962C336 191.423 335.221 192.762 333.956 193.493C328.481 196.659 313.522 205.304 308.046 208.47C306.78 209.201 305.221 209.201 303.956 208.47C298.481 205.304 283.522 196.659 278.046 193.493C276.779 192.762 276 191.423 276 189.962C276 183.63 276 166.364 276 160.056C276 158.595 276.779 157.231 278.046 156.501C283.522 153.359 298.481 144.714 303.956 141.548Z" fill="white"/>
<path d="M324.41 159.928H287.591V186.7H299.306V190.046H312.695V186.7H324.393L324.41 159.928ZM321.063 183.353H290.938V163.275H321.063V183.353ZM312.695 173.314L300.979 180.007V166.621L312.695 173.314Z" fill="#000091"/>
<path d="M314.39 173.792L300.815 181.63L300.815 165.955L314.39 173.792Z" fill="#E1000F"/>
<path fill-rule="evenodd" clip-rule="evenodd" d="M91.9758 127.548C93.2278 126.817 94.7722 126.817 96.0266 127.548C101.493 130.689 116.51 139.359 121.976 142.525C123.23 143.256 124 144.571 124 146.032C124 152.339 124 169.679 124 175.986C124 177.423 123.23 178.762 121.976 179.493C116.51 182.659 101.493 191.304 96.0266 194.47C94.7722 195.2 93.2278 195.2 91.9758 194.47C86.5097 191.304 71.4927 182.659 66.0266 179.493C64.7721 178.762 64 177.423 64 175.986C64 169.679 64 152.339 64 146.032C64 144.571 64.7721 143.256 66.0266 142.525C71.4927 139.359 86.5097 130.689 91.9758 127.548Z" stroke="#000091" stroke-width="4.73272" stroke-miterlimit="1.5" stroke-linecap="round" stroke-linejoin="round"/>
<path fill-rule="evenodd" clip-rule="evenodd" d="M91.9758 127.548C93.2278 126.817 94.7722 126.817 96.0266 127.548C101.493 130.689 116.51 139.359 121.976 142.525C123.23 143.256 124 144.571 124 146.032C124 152.339 124 169.679 124 175.986C124 177.423 123.23 178.762 121.976 179.493C116.51 182.659 101.493 191.304 96.0266 194.47C94.7722 195.2 93.2278 195.2 91.9758 194.47C86.5097 191.304 71.4927 182.659 66.0266 179.493C64.7721 178.762 64 177.423 64 175.986C64 169.679 64 152.339 64 146.032C64 144.571 64.7721 143.256 66.0266 142.525C71.4927 139.359 86.5097 130.689 91.9758 127.548Z" fill="white"/>
<path fill-rule="evenodd" clip-rule="evenodd" d="M78.3882 158.058C78.3882 156.86 79.3609 155.887 80.559 155.887C81.757 155.887 82.7298 156.86 82.7298 158.058V161.961L99.0285 145.666C99.8758 144.819 101.251 144.819 102.098 145.666C102.946 146.513 102.946 147.889 102.098 148.736L82.0939 168.736C81.4731 169.356 80.5394 169.542 79.7282 169.206C78.917 168.87 78.3882 168.079 78.3882 167.201V158.058Z" fill="#060383"/>
<path fill-rule="evenodd" clip-rule="evenodd" d="M109.611 163.957C109.611 165.155 108.638 166.128 107.44 166.128C106.242 166.128 105.269 165.155 105.269 163.957V160.054L88.9705 176.349C88.1233 177.195 86.7478 177.195 85.9006 176.349C85.0533 175.502 85.0533 174.126 85.9006 173.279L105.905 153.279C106.526 152.659 107.46 152.473 108.271 152.809C109.082 153.145 109.611 153.936 109.611 154.814V163.957Z" fill="#C62B23"/>
<path fill-rule="evenodd" clip-rule="evenodd" d="M123.956 73.5479C125.221 72.8174 126.78 72.8174 128.046 73.5479C133.522 76.7138 148.481 85.3592 153.956 88.5007C155.221 89.2313 156 90.595 156 92.0562C156 98.3636 156 115.63 156 121.962C156 123.423 155.221 124.762 153.956 125.493C148.481 128.659 133.522 137.304 128.046 140.47C126.78 141.201 125.221 141.201 123.956 140.47C118.481 137.304 103.522 128.659 98.0461 125.493C96.7795 124.762 96 123.423 96 121.962C96 115.63 96 98.3636 96 92.0562C96 90.595 96.7795 89.2313 98.0461 88.5007C103.522 85.3592 118.481 76.7138 123.956 73.5479Z" stroke="#000091" stroke-width="4.6877" stroke-miterlimit="1.5" stroke-linecap="round" stroke-linejoin="round"/>
<path fill-rule="evenodd" clip-rule="evenodd" d="M123.956 73.5479C125.221 72.8174 126.78 72.8174 128.046 73.5479C133.522 76.7138 148.481 85.3592 153.956 88.5007C155.221 89.2313 156 90.595 156 92.0562C156 98.3636 156 115.63 156 121.962C156 123.423 155.221 124.762 153.956 125.493C148.481 128.659 133.522 137.304 128.046 140.47C126.78 141.201 125.221 141.201 123.956 140.47C118.481 137.304 103.522 128.659 98.0461 125.493C96.7795 124.762 96 123.423 96 121.962C96 115.63 96 98.3636 96 92.0562C96 90.595 96.7795 89.2313 98.0461 88.5007C103.522 85.3592 118.481 76.7138 123.956 73.5479Z" fill="white"/>
<path fill-rule="evenodd" clip-rule="evenodd" d="M122.502 85.3804C123.997 84.5063 125.841 84.5063 127.336 85.3804L142.389 94.1718C143.885 95.0458 144.807 96.6528 144.807 98.4008V115.971C144.807 117.719 143.885 119.339 142.389 120.213L127.336 128.992C125.841 129.866 123.997 129.866 122.502 128.992L107.448 120.213C105.953 119.339 105.031 117.719 105.031 115.971V98.4008C105.031 96.6528 105.953 95.0458 107.448 94.1718L122.502 85.3804ZM117.426 117.925H121.885V108.941H124.178L130.049 117.925H135.292L128.417 108.079C130.677 107.038 131.964 105.033 131.964 102.334C131.964 98.2077 128.981 95.7017 124.146 95.7017H117.426V117.925ZM124.398 99.4547C126.281 99.4547 127.38 100.586 127.38 102.269C127.38 104.082 126.281 105.2 124.398 105.2H121.885V99.4547H124.398Z" fill="#04043E"/>
<path fill-rule="evenodd" clip-rule="evenodd" d="M93.9563 294.548C95.2206 293.817 96.7795 293.817 98.0462 294.548C103.522 297.714 118.481 306.359 123.956 309.501C125.221 310.231 126 311.595 126 313.056C126 319.363 126 336.63 126 342.962C126 344.423 125.221 345.762 123.956 346.493C118.481 349.659 103.522 358.304 98.0462 361.47C96.7795 362.2 95.2206 362.2 93.9563 361.47C88.4805 358.304 73.5219 349.659 68.0461 346.493C66.7795 345.762 66 344.423 66 342.962C66 336.63 66 319.363 66 313.056C66 311.595 66.7795 310.231 68.0461 309.501C73.5219 306.359 88.4805 297.714 93.9563 294.548Z" stroke="#000091" stroke-width="4.68769" stroke-miterlimit="1.5" stroke-linecap="round" stroke-linejoin="round"/>
<path fill-rule="evenodd" clip-rule="evenodd" d="M93.9563 294.548C95.2206 293.817 96.7795 293.817 98.0462 294.548C103.522 297.714 118.481 306.359 123.956 309.501C125.221 310.231 126 311.595 126 313.056C126 319.363 126 336.63 126 342.962C126 344.423 125.221 345.762 123.956 346.493C118.481 349.659 103.522 358.304 98.0462 361.47C96.7795 362.2 95.2206 362.2 93.9563 361.47C88.4805 358.304 73.5219 349.659 68.0461 346.493C66.7795 345.762 66 344.423 66 342.962C66 336.63 66 319.363 66 313.056C66 311.595 66.7795 310.231 68.0461 309.501C73.5219 306.359 88.4805 297.714 93.9563 294.548Z" fill="white"/>
<g clip-path="url(#clip0_1427_5635)">
<path d="M105.647 310.527H86.6342C82.353 310.527 78.8809 314 78.8809 318.281V337.293C78.8809 341.574 82.353 345.047 86.6342 345.047H105.647C109.928 345.047 113.4 341.574 113.4 337.293V318.281C113.4 314 109.928 310.527 105.647 310.527Z" fill="#000091"/>
<path d="M106.394 333.371L96.1405 339.282L85.887 333.371V321.548L96.1405 315.637L106.394 321.548V333.371Z" fill="white"/>
<path d="M97.1107 323.676H95.3447V333.954H97.1107V323.676Z" fill="#E1000F"/>
<path d="M92.1283 327.086H90.3623V322.792H102.516V324.561H92.1283V327.086Z" fill="#E1000F"/>
</g>
<path fill-rule="evenodd" clip-rule="evenodd" d="M62.9758 348.548C64.2278 347.817 65.7722 347.817 67.0266 348.548C72.4927 351.689 87.5098 360.359 92.9758 363.525C94.2303 364.256 95 365.571 95 367.032C95 373.339 95 390.679 95 396.986C95 398.423 94.2303 399.762 92.9758 400.493C87.5098 403.659 72.4927 412.304 67.0266 415.47C65.7722 416.2 64.2278 416.2 62.9758 415.47C57.5097 412.304 42.4927 403.659 37.0266 400.493C35.7721 399.762 35 398.423 35 396.986C35 390.679 35 373.339 35 367.032C35 365.571 35.7721 364.256 37.0266 363.525C42.4927 360.359 57.5097 351.689 62.9758 348.548Z" stroke="#000091" stroke-width="4.73272" stroke-miterlimit="1.5" stroke-linecap="round" stroke-linejoin="round"/>
<path fill-rule="evenodd" clip-rule="evenodd" d="M62.9758 348.548C64.2278 347.817 65.7722 347.817 67.0266 348.548C72.4927 351.689 87.5098 360.359 92.9758 363.525C94.2303 364.256 95 365.571 95 367.032C95 373.339 95 390.679 95 396.986C95 398.423 94.2303 399.762 92.9758 400.493C87.5098 403.659 72.4927 412.304 67.0266 415.47C65.7722 416.2 64.2278 416.2 62.9758 415.47C57.5097 412.304 42.4927 403.659 37.0266 400.493C35.7721 399.762 35 398.423 35 396.986C35 390.679 35 373.339 35 367.032C35 365.571 35.7721 364.256 37.0266 363.525C42.4927 360.359 57.5097 351.689 62.9758 348.548Z" fill="white"/>
<path d="M42.2927 384.421L80.105 365.511L53.9121 388.687L42.2927 384.421Z" fill="#000091"/>
<path d="M58.8354 390.193L80.1048 365.511L73.2497 395.692L58.8354 390.193Z" fill="#000091"/>
<path d="M58.8354 392.942L65.3345 395.365L58.8354 402.37V392.942Z" fill="#E1000F"/>
<path fill-rule="evenodd" clip-rule="evenodd" d="M266.976 293.548C268.228 292.817 269.772 292.817 271.027 293.548C276.493 296.689 291.51 305.359 296.976 308.525C298.23 309.256 299 310.571 299 312.032C299 318.339 299 335.679 299 341.986C299 343.423 298.23 344.762 296.976 345.493C291.51 348.659 276.493 357.304 271.027 360.47C269.772 361.2 268.228 361.2 266.976 360.47C261.51 357.304 246.493 348.659 241.027 345.493C239.772 344.762 239 343.423 239 341.986C239 335.679 239 318.339 239 312.032C239 310.571 239.772 309.256 241.027 308.525C246.493 305.359 261.51 296.689 266.976 293.548Z" stroke="#000091" stroke-width="4.73272" stroke-miterlimit="1.5" stroke-linecap="round" stroke-linejoin="round"/>
<path fill-rule="evenodd" clip-rule="evenodd" d="M266.976 293.548C268.228 292.817 269.772 292.817 271.027 293.548C276.493 296.689 291.51 305.359 296.976 308.525C298.23 309.256 299 310.571 299 312.032C299 318.339 299 335.679 299 341.986C299 343.423 298.23 344.762 296.976 345.493C291.51 348.659 276.493 357.304 271.027 360.47C269.772 361.2 268.228 361.2 266.976 360.47C261.51 357.304 246.493 348.659 241.027 345.493C239.772 344.762 239 343.423 239 341.986C239 335.679 239 318.339 239 312.032C239 310.571 239.772 309.256 241.027 308.525C246.493 305.359 261.51 296.689 266.976 293.548Z" fill="white"/>
<path d="M279.41 323.552V314.513H251.291V338.615H279.41V329.577L284.501 334.562L284.652 319.772L279.41 323.552Z" fill="#000091"/>
<path fill-rule="evenodd" clip-rule="evenodd" d="M272.093 327.035L287.567 315.778V338.292L272.093 327.035Z" fill="#E1000F"/>
<path d="M279.389 318.794H267.616V335.059H279.389V318.794Z" fill="#000091"/>
<path fill-rule="evenodd" clip-rule="evenodd" d="M328.956 293.548C330.221 292.817 331.78 292.817 333.046 293.548C338.522 296.714 353.481 305.359 358.956 308.501C360.221 309.231 361 310.595 361 312.056C361 318.363 361 335.63 361 341.962C361 343.423 360.221 344.762 358.956 345.493C353.481 348.659 338.522 357.304 333.046 360.47C331.78 361.2 330.221 361.2 328.956 360.47C323.481 357.304 308.522 348.659 303.046 345.493C301.779 344.762 301 343.423 301 341.962C301 335.63 301 318.363 301 312.056C301 310.595 301.779 309.231 303.046 308.501C308.522 305.359 323.481 296.714 328.956 293.548Z" stroke="#000091" stroke-width="4.68769" stroke-miterlimit="1.5" stroke-linecap="round" stroke-linejoin="round"/>
<path fill-rule="evenodd" clip-rule="evenodd" d="M328.956 293.548C330.221 292.817 331.78 292.817 333.046 293.548C338.522 296.714 353.481 305.359 358.956 308.501C360.221 309.231 361 310.595 361 312.056C361 318.363 361 335.63 361 341.962C361 343.423 360.221 344.762 358.956 345.493C353.481 348.659 338.522 357.304 333.046 360.47C331.78 361.2 330.221 361.2 328.956 360.47C323.481 357.304 308.522 348.659 303.046 345.493C301.779 344.762 301 343.423 301 341.962C301 335.63 301 318.363 301 312.056C301 310.595 301.779 309.231 303.046 308.501C308.522 305.359 323.481 296.714 328.956 293.548Z" fill="white"/>
<path fill-rule="evenodd" clip-rule="evenodd" d="M321.212 312.591V308.747C321.272 308.744 321.332 308.743 321.393 308.743H340.759C342.975 308.743 344.776 310.549 344.776 312.773V339.806C344.776 342.03 342.975 343.836 340.759 343.836H321.393C319.176 343.836 317.377 342.03 317.377 339.806V312.773C317.377 312.712 317.378 312.652 317.38 312.591H321.212ZM321.212 312.591V337.58C321.212 338.218 321.464 338.831 321.914 339.282C322.365 339.734 322.975 339.988 323.612 339.988H340.939V314.877C340.939 314.271 340.7 313.689 340.273 313.261C339.845 312.832 339.266 312.591 338.662 312.591H321.212ZM337.54 316.388V319.587H324.441V316.388H337.54ZM337.54 321.386V324.585H324.441V321.386H337.54ZM332.993 334.572V337.006C332.993 337.194 332.92 337.374 332.787 337.506C332.655 337.639 332.475 337.713 332.288 337.713H329.863C329.676 337.713 329.497 337.639 329.364 337.506C329.232 337.374 329.158 337.194 329.158 337.006V334.572C329.158 334.385 329.232 334.205 329.364 334.072C329.497 333.94 329.676 333.865 329.863 333.865H332.288C332.475 333.865 332.655 333.94 332.787 334.072C332.92 334.205 332.993 334.385 332.993 334.572ZM332.112 326.289V329.488H324.441V326.289H332.112Z" fill="#000091"/>
<rect x="324.088" y="315.992" width="13.4457" height="3.61999" fill="#E1000F"/>
<rect x="324.088" y="321.164" width="13.4457" height="3.61999" fill="#E1000F"/>
<rect x="324.088" y="325.818" width="8.27427" height="4.13714" fill="#E1000F"/>
<path fill-rule="evenodd" clip-rule="evenodd" d="M62.9563 240.548C64.2206 239.817 65.7795 239.817 67.0462 240.548C72.522 243.714 87.4805 252.359 92.9563 255.501C94.2206 256.231 95 257.595 95 259.056C95 265.364 95 282.63 95 288.962C95 290.423 94.2206 291.762 92.9563 292.493C87.4805 295.659 72.522 304.304 67.0462 307.47C65.7795 308.201 64.2206 308.201 62.9563 307.47C57.4805 304.304 42.5219 295.659 37.0461 292.493C35.7795 291.762 35 290.423 35 288.962C35 282.63 35 265.364 35 259.056C35 257.595 35.7795 256.231 37.0461 255.501C42.5219 252.359 57.4805 243.714 62.9563 240.548Z" stroke="#000091" stroke-width="4.6877" stroke-miterlimit="1.5" stroke-linecap="round" stroke-linejoin="round"/>
<path fill-rule="evenodd" clip-rule="evenodd" d="M62.9563 240.548C64.2206 239.817 65.7795 239.817 67.0462 240.548C72.522 243.714 87.4805 252.359 92.9563 255.501C94.2206 256.231 95 257.595 95 259.056C95 265.364 95 282.63 95 288.962C95 290.423 94.2206 291.762 92.9563 292.493C87.4805 295.659 72.522 304.304 67.0462 307.47C65.7795 308.201 64.2206 308.201 62.9563 307.47C57.4805 304.304 42.5219 295.659 37.0461 292.493C35.7795 291.762 35 290.423 35 288.962C35 282.63 35 265.364 35 259.056C35 257.595 35.7795 256.231 37.0461 255.501C42.5219 252.359 57.4805 243.714 62.9563 240.548Z" fill="white"/>
<path fill-rule="evenodd" clip-rule="evenodd" d="M79.4121 261.763V291.053H50.1218V261.763H79.4121ZM64.7669 268.159C62.5279 268.159 60.72 269.967 60.72 272.206C60.72 274.447 62.5279 276.253 64.7669 276.253C67.006 276.253 68.8139 274.447 68.8139 272.206C68.8139 269.967 67.006 268.159 64.7669 268.159ZM72.8608 284.349V283C72.8608 280.302 67.4649 278.818 64.7669 278.818C62.069 278.818 56.6731 280.302 56.6731 283V284.349H72.8608Z" fill="#000091"/>
<path d="M59.1429 257.439H55.3943V261.764H59.1429V257.439Z" fill="#E1000F"/>
<path d="M74.136 257.439H70.3875V261.764H74.136V257.439Z" fill="#E1000F"/>
<path fill-rule="evenodd" clip-rule="evenodd" d="M60.9758 73.5479C62.2278 72.8174 63.7722 72.8174 65.0266 73.5479C70.4927 76.6895 85.5098 85.3591 90.9758 88.525C92.2303 89.2556 93 90.5707 93 92.0319C93 98.3393 93 115.679 93 121.986C93 123.423 92.2303 124.762 90.9758 125.493C85.5098 128.659 70.4927 137.304 65.0266 140.47C63.7722 141.2 62.2278 141.2 60.9758 140.47C55.5097 137.304 40.4927 128.659 35.0266 125.493C33.7721 124.762 33 123.423 33 121.986C33 115.679 33 98.3393 33 92.0319C33 90.5707 33.7721 89.2556 35.0266 88.525C40.4927 85.3591 55.5097 76.6895 60.9758 73.5479Z" stroke="#000091" stroke-width="4.73272" stroke-miterlimit="1.5" stroke-linecap="round" stroke-linejoin="round"/>
<path fill-rule="evenodd" clip-rule="evenodd" d="M60.9758 73.5479C62.2278 72.8174 63.7722 72.8174 65.0266 73.5479C70.4927 76.6895 85.5098 85.3591 90.9758 88.525C92.2303 89.2556 93 90.5707 93 92.0319C93 98.3393 93 115.679 93 121.986C93 123.423 92.2303 124.762 90.9758 125.493C85.5098 128.659 70.4927 137.304 65.0266 140.47C63.7722 141.2 62.2278 141.2 60.9758 140.47C55.5097 137.304 40.4927 128.659 35.0266 125.493C33.7721 124.762 33 123.423 33 121.986C33 115.679 33 98.3393 33 92.0319C33 90.5707 33.7721 89.2556 35.0266 88.525C40.4927 85.3591 55.5097 76.6895 60.9758 73.5479Z" fill="white"/>
<path d="M80.3919 92.8424H44.7322V118.777H56.0785V122.019H69.0457V118.777H80.3757L80.3919 92.8424ZM77.1501 115.535H47.974V96.0842H77.1501V115.535Z" fill="#000091"/>
<path fill-rule="evenodd" clip-rule="evenodd" d="M68.7443 113.105H56.3799C55.8902 113.105 55.4895 112.704 55.4895 112.215V111.324C55.4895 109.114 59.6246 107.913 62.2033 107.78C62.2015 107.776 62.2006 107.773 62.1997 107.772C62.3155 107.767 62.4366 107.766 62.5621 107.768C62.6886 107.766 62.8097 107.767 62.9245 107.772C62.9236 107.773 62.9227 107.776 62.921 107.78C65.4996 107.913 69.6347 109.114 69.6347 111.324V112.215C69.6347 112.704 69.234 113.105 68.7443 113.105ZM62.6129 98.8584C64.5789 98.8584 66.1746 100.454 66.1746 102.42C66.1746 104.386 64.5789 105.982 62.6129 105.982C60.6468 105.982 59.0512 104.386 59.0512 102.42C59.0512 100.454 60.6468 98.8584 62.6129 98.8584Z" fill="#E1000F"/>
<path fill-rule="evenodd" clip-rule="evenodd" d="M209.956 87.5479C211.221 86.8174 212.78 86.8174 214.046 87.5479C219.522 90.7138 234.481 99.3592 239.956 102.501C241.221 103.231 242 104.595 242 106.056C242 112.363 242 129.63 242 135.962C242 137.423 241.221 138.762 239.956 139.493C234.481 142.659 219.522 151.304 214.046 154.47C212.78 155.2 211.221 155.2 209.956 154.47C204.481 151.304 189.522 142.659 184.046 139.493C182.779 138.762 182 137.423 182 135.962C182 129.63 182 112.363 182 106.056C182 104.595 182.779 103.231 184.046 102.501C189.522 99.3592 204.481 90.7138 209.956 87.5479Z" stroke="#000091" stroke-width="4.68769" stroke-miterlimit="1.5" stroke-linecap="round" stroke-linejoin="round"/>
<path fill-rule="evenodd" clip-rule="evenodd" d="M209.956 87.5479C211.221 86.8174 212.78 86.8174 214.046 87.5479C219.522 90.7138 234.481 99.3592 239.956 102.501C241.221 103.231 242 104.595 242 106.056C242 112.363 242 129.63 242 135.962C242 137.423 241.221 138.762 239.956 139.493C234.481 142.659 219.522 151.304 214.046 154.47C212.78 155.2 211.221 155.2 209.956 154.47C204.481 151.304 189.522 142.659 184.046 139.493C182.779 138.762 182 137.423 182 135.962C182 129.63 182 112.363 182 106.056C182 104.595 182.779 103.231 184.046 102.501C189.522 99.3592 204.481 90.7138 209.956 87.5479Z" fill="white"/>
<g clip-path="url(#clip1_1427_5635)">
<path d="M207.761 125.733L210.225 123.272C205.488 119.06 202.381 116.217 202.381 113.514C202.381 111.694 203.77 110.307 205.592 110.307C207.518 110.307 208.264 111.434 210.243 113.774H211.857C213.8 111.503 214.512 110.307 216.508 110.307C218.018 110.307 219.198 111.243 219.579 112.595C220.187 112.526 220.76 112.491 221.315 112.491C221.94 112.491 222.53 112.543 223.102 112.63C222.686 109.319 219.961 106.841 216.525 106.841C216.317 106.841 216.126 106.893 215.918 106.91C216.126 106.338 216.265 105.749 216.265 105.107C216.265 102.23 213.939 99.9075 211.058 99.9075C208.178 99.9075 205.852 102.23 205.852 105.107C205.852 105.749 205.991 106.338 206.199 106.91C205.991 106.893 205.8 106.841 205.592 106.841C201.843 106.841 198.91 109.77 198.91 113.514C198.91 117.708 202.451 120.984 207.761 125.733Z" fill="#E1000F"/>
<path d="M229.28 126.322C228.725 126.01 228.135 125.82 227.545 125.716C227.666 125.542 227.805 125.404 227.909 125.23C229.784 121.989 228.708 117.985 225.462 116.114C221.835 114.016 217.202 115.438 210.451 117.673L211.353 121.036C217.375 119.06 221.402 117.777 223.744 119.129C225.324 120.048 225.827 121.92 224.924 123.515C223.953 125.178 222.616 125.248 219.597 125.802L218.781 127.206C219.788 130.014 220.464 131.245 219.458 132.961C218.538 134.538 216.664 135.041 215.067 134.139C214.963 134.087 214.876 133.983 214.772 133.914C214.252 135.075 213.661 136.063 212.985 136.913C213.106 136.982 213.21 137.069 213.332 137.155C216.577 139.027 220.586 137.953 222.46 134.711C222.564 134.538 222.616 134.347 222.703 134.157C223.085 134.625 223.536 135.041 224.091 135.353C226.573 136.791 229.766 135.942 231.207 133.446C232.647 130.95 231.762 127.744 229.28 126.322Z" fill="#000091"/>
<path d="M211.614 122.457C210.33 128.662 209.41 132.77 207.067 134.122C205.488 135.041 203.596 134.538 202.676 132.943C201.704 131.28 202.329 130.066 203.353 127.189L202.555 125.785C199.605 125.248 198.216 125.213 197.227 123.497C196.307 121.92 196.811 120.031 198.407 119.112C198.563 119.025 198.737 118.973 198.91 118.921C198.303 117.951 197.8 116.893 197.487 115.715C197.21 115.836 196.932 115.958 196.654 116.113C193.409 117.985 192.333 121.989 194.207 125.23C194.311 125.404 194.45 125.542 194.572 125.716C193.982 125.82 193.392 126.01 192.836 126.322C190.355 127.761 189.487 130.933 190.927 133.429C192.368 135.925 195.544 136.774 198.043 135.335C198.598 135.023 199.049 134.607 199.431 134.139C199.518 134.33 199.57 134.521 199.674 134.694C201.548 137.935 205.557 139.01 208.802 137.138C212.429 135.041 213.505 130.326 214.963 123.376L211.614 122.457Z" fill="#000091"/>
</g>
<path fill-rule="evenodd" clip-rule="evenodd" d="M235.956 347.548C237.221 346.817 238.78 346.817 240.046 347.548C245.522 350.714 260.481 359.359 265.956 362.501C267.221 363.231 268 364.595 268 366.056C268 372.364 268 389.63 268 395.962C268 397.423 267.221 398.762 265.956 399.493C260.481 402.659 245.522 411.304 240.046 414.47C238.78 415.201 237.221 415.201 235.956 414.47C230.481 411.304 215.522 402.659 210.046 399.493C208.779 398.762 208 397.423 208 395.962C208 389.63 208 372.364 208 366.056C208 364.595 208.779 363.231 210.046 362.501C215.522 359.359 230.481 350.714 235.956 347.548Z" stroke="#000091" stroke-width="4.6877" stroke-miterlimit="1.5" stroke-linecap="round" stroke-linejoin="round"/>
<path fill-rule="evenodd" clip-rule="evenodd" d="M235.956 347.548C237.221 346.817 238.78 346.817 240.046 347.548C245.522 350.714 260.481 359.359 265.956 362.501C267.221 363.231 268 364.595 268 366.056C268 372.364 268 389.63 268 395.962C268 397.423 267.221 398.762 265.956 399.493C260.481 402.659 245.522 411.304 240.046 414.47C238.78 415.201 237.221 415.201 235.956 414.47C230.481 411.304 215.522 402.659 210.046 399.493C208.779 398.762 208 397.423 208 395.962C208 389.63 208 372.364 208 366.056C208 364.595 208.779 363.231 210.046 362.501C215.522 359.359 230.481 350.714 235.956 347.548Z" fill="white"/>
<path d="M236.336 365.439H222.277V379.269H236.336V365.439Z" fill="#000091"/>
<path d="M253.709 365.439H239.65V379.269H253.709V365.439Z" fill="#000091"/>
<path d="M236.336 383.083H222.277V396.913H236.336V383.083Z" fill="#000091"/>
<path fill-rule="evenodd" clip-rule="evenodd" d="M244.952 391.752H239.711V388.238H244.952V383.083H248.529V388.238H253.77V391.752H248.529V396.907H244.952V391.752Z" fill="#E1000F"/>
<path fill-rule="evenodd" clip-rule="evenodd" d="M31.9758 294.548C33.2278 293.817 34.7722 293.817 36.0266 294.548C41.4927 297.689 56.5098 306.359 61.9758 309.525C63.2303 310.256 64 311.571 64 313.032V342.986C64 344.423 63.2303 345.762 61.9758 346.493C56.5098 349.659 41.4927 358.304 36.0266 361.47C34.7722 362.2 33.2278 362.2 31.9758 361.47C26.5097 358.304 11.4927 349.659 6.02659 346.493C4.77212 345.762 4 344.423 4 342.986C4 336.678 4 319.339 4 313.032C4 311.571 4.77212 310.256 6.02659 309.525C11.4927 306.359 26.5097 297.689 31.9758 294.548Z" stroke="#000091" stroke-width="4.73271" stroke-miterlimit="1.5" stroke-linecap="round" stroke-linejoin="round"/>
<path fill-rule="evenodd" clip-rule="evenodd" d="M31.9758 294.548C33.2278 293.817 34.7722 293.817 36.0266 294.548C41.4927 297.689 56.5098 306.359 61.9758 309.525C63.2303 310.256 64 311.571 64 313.032V342.986C64 344.423 63.2303 345.762 61.9758 346.493C56.5098 349.659 41.4927 358.304 36.0266 361.47C34.7722 362.2 33.2278 362.2 31.9758 361.47C26.5097 358.304 11.4927 349.659 6.02659 346.493C4.77212 345.762 4 344.423 4 342.986C4 336.678 4 319.339 4 313.032C4 311.571 4.77212 310.256 6.02659 309.525C11.4927 306.359 26.5097 297.689 31.9758 294.548Z" fill="white"/>
<path fill-rule="evenodd" clip-rule="evenodd" d="M34.2893 310.092L48.3725 315.372V326.09C48.3725 334.978 42.3695 343.268 34.2893 345.291C26.209 343.268 20.2061 334.978 20.2061 326.09V315.372L34.2893 310.092ZM36.0902 328.272C37.3524 327.53 38.1058 326.227 38.1058 324.738C38.1058 322.426 36.2997 320.55 33.9847 320.55C31.6716 320.55 29.6981 322.426 29.6981 324.738C29.6981 326.308 30.6206 327.674 31.7437 328.392V332.657C31.7437 333.823 32.8862 334.834 34.0551 334.834H34.1115C35.2786 334.834 36.0902 333.823 36.0902 332.657V328.272Z" fill="#000091"/>
<path fill-rule="evenodd" clip-rule="evenodd" d="M297.956 347.548C299.221 346.817 300.78 346.817 302.046 347.548C307.522 350.714 322.481 359.359 327.956 362.501C329.221 363.231 330 364.595 330 366.056C330 372.364 330 389.63 330 395.962C330 397.423 329.221 398.762 327.956 399.493C322.481 402.659 307.522 411.304 302.046 414.47C300.78 415.201 299.221 415.201 297.956 414.47C292.481 411.304 277.522 402.659 272.046 399.493C270.779 398.762 270 397.423 270 395.962C270 389.63 270 372.364 270 366.056C270 364.595 270.779 363.231 272.046 362.501C277.522 359.359 292.481 350.714 297.956 347.548Z" stroke="#000091" stroke-width="4.6877" stroke-miterlimit="1.5" stroke-linecap="round" stroke-linejoin="round"/>
<path fill-rule="evenodd" clip-rule="evenodd" d="M297.956 347.548C299.221 346.817 300.78 346.817 302.046 347.548C307.522 350.714 322.481 359.359 327.956 362.501C329.221 363.231 330 364.595 330 366.056C330 372.364 330 389.63 330 395.962C330 397.423 329.221 398.762 327.956 399.493C322.481 402.659 307.522 411.304 302.046 414.47C300.78 415.201 299.221 415.201 297.956 414.47C292.481 411.304 277.522 402.659 272.046 399.493C270.779 398.762 270 397.423 270 395.962C270 389.63 270 372.364 270 366.056C270 364.595 270.779 363.231 272.046 362.501C277.522 359.359 292.481 350.714 297.956 347.548Z" fill="white"/>
<path d="M314.627 364.932H296.661V373.098H314.627V364.932Z" fill="#000091"/>
<path d="M293.394 376.365H285.228V394.331H293.394V376.365Z" fill="#000091"/>
<path d="M293.394 364.932H285.228V373.098H293.394V364.932Z" fill="#000091"/>
<path d="M309.727 374.732L303.194 381.265H308.093V387.798H301.561V382.898L295.028 389.431L301.561 395.964V391.064H311.36V381.265H316.26L309.727 374.732Z" fill="#E1000F"/>
<defs>
<clipPath id="clip0_1427_5635">
<rect width="34.6485" height="34.6485" fill="white" transform="translate(78.8806 310.527)"/>
</clipPath>
<clipPath id="clip1_1427_5635">
<rect width="41.8885" height="38.2685" fill="white" transform="translate(190.23 99.8929)"/>
</clipPath>
</defs>
</svg>
