<svg width="25" height="25" viewBox="0 0 25 25" fill="none" xmlns="http://www.w3.org/2000/svg">
<g clip-path="url(#clip0_10545_924)">
<path d="M3.33327 20.2386C3.14915 20.4072 2.85882 20.3449 2.80703 20.1006C2.76901 19.9213 2.75 19.7122 2.75 19.4731V11.2254C2.75 10.9664 2.76901 10.7448 2.80703 10.5605C2.85791 10.3447 3.09522 10.293 3.26765 10.4323L8.58706 14.7315C8.79962 14.9033 8.80951 15.224 8.60795 15.4085L3.33327 20.2386ZM5.06385 21.789C4.76512 21.789 4.49897 21.7591 4.26541 21.6994C4.25027 21.6954 4.2353 21.6914 4.2205 21.6872C3.93988 21.6087 3.90379 21.2689 4.11856 21.072L9.61023 16.0364C9.77385 15.8864 10.0228 15.8792 10.1948 16.0196L11.0848 16.7463C11.3237 16.9355 11.5682 17.08 11.818 17.1796C12.0679 17.2742 12.3204 17.3215 12.5757 17.3215C12.831 17.3215 13.0836 17.2742 13.3334 17.1796C13.5887 17.08 13.8358 16.9355 14.0748 16.7463L14.9648 16.0196C15.1368 15.8792 15.3857 15.8864 15.5494 16.0364L21.041 21.072C21.2558 21.2689 21.2193 21.6079 20.9384 21.6855C20.9212 21.6902 20.9037 21.6948 20.886 21.6994C20.6579 21.7591 20.3945 21.789 20.0957 21.789H5.06385ZM22.3444 20.1006C22.2936 20.3401 22.0089 20.4058 21.8283 20.2405L16.5516 15.4085C16.3501 15.224 16.36 14.9033 16.5725 14.7315L21.8944 10.4303C22.0625 10.2945 22.2948 10.3502 22.3444 10.5605C22.3879 10.7448 22.4096 10.9664 22.4096 11.2254V19.4731C22.4096 19.7122 22.3879 19.9213 22.3444 20.1006Z" fill="#000091"/>
<path d="M6.32446 11.2278L3.87222 9.22632C3.30268 8.76148 3.30268 7.89117 3.87222 7.42633L11.5895 1.12769C12.1427 0.676186 12.9372 0.676187 13.4904 1.12769L21.2077 7.42633C21.7773 7.89117 21.7773 8.76148 21.2077 9.22632L18.8351 11.1628V8.54754C18.8351 7.71737 18.1621 7.04439 17.332 7.04439H7.82761C6.99744 7.04439 6.32446 7.71737 6.32446 8.54754V11.2278Z" fill="#C9191E"/>
</g>
<defs>
<clipPath id="clip0_10545_924">
<rect width="24" height="24" fill="white" transform="translate(0.5 0.0390625)"/>
</clipPath>
</defs>
</svg>
