<svg width="380" height="147" viewBox="0 0 380 147" fill="none" xmlns="http://www.w3.org/2000/svg">
<path d="M365.885 0H0V100.509H365.885V0Z" fill="#000091"/>
<path d="M121.359 47.4254L123.423 45.54C124.838 47.3664 126.489 48.3386 128.405 48.3386C130.704 48.3386 132.031 46.954 132.031 45.0686C132.031 40.414 122.244 41.4156 122.244 34.6105C122.244 31.5467 124.779 29.0426 128.375 29.0426C131.264 29.0426 133.387 30.3683 134.92 32.401L132.827 34.2275C131.618 32.4894 130.174 31.5172 128.405 31.5172C126.371 31.5172 125.074 32.784 125.074 34.5516C125.074 39.1767 134.831 38.1162 134.831 44.9802C134.831 48.5448 132.09 50.8132 128.434 50.8132C125.398 50.8132 123.158 49.6643 121.359 47.4254ZM140.117 37.527H137.788L140.293 29.6318H143.153L140.117 37.527ZM148.471 31.5467C147.498 31.5467 146.703 30.7513 146.703 29.7791C146.703 28.8364 147.498 28.041 148.471 28.041C149.444 28.041 150.211 28.8364 150.211 29.7791C150.211 30.7513 149.444 31.5467 148.471 31.5467ZM147.204 50.2535V35.4059H149.709V50.2535H147.204ZM153.738 42.8297C153.738 38.4991 156.715 34.8167 161.373 34.8167C163.584 34.8167 165.323 35.671 166.649 37.1735V28.1589H169.155V50.2535H166.649V48.4859C165.323 49.9883 163.584 50.8427 161.373 50.8427C156.715 50.8427 153.738 47.1602 153.738 42.8297ZM156.391 42.8297C156.391 45.9818 158.513 48.4859 161.667 48.4859C163.731 48.4859 165.559 47.4843 166.649 45.7462V39.9132C165.5 38.1456 163.701 37.1735 161.667 37.1735C158.513 37.1735 156.391 39.6775 156.391 42.8297ZM187.644 47.8083C186.258 49.6643 184.047 50.8427 181.276 50.8427C176.265 50.8427 173.169 47.1602 173.169 42.8297C173.169 38.3224 176.058 34.8167 180.657 34.8167C184.696 34.8167 187.319 37.6448 187.319 41.2978C187.319 41.887 187.231 42.4467 187.142 42.8591H175.734C175.822 46.4237 178.092 48.5743 181.276 48.5743C183.192 48.5743 184.814 47.6905 185.786 46.3648L187.644 47.8083ZM180.598 36.9378C178.151 36.9378 176.442 38.3813 175.911 40.9443H184.814C184.725 38.7643 183.222 36.9378 180.598 36.9378ZM191.566 50.2535V35.4059H194.072V37.0851C195.28 35.7594 196.813 34.8167 199.024 34.8167C202.355 34.8167 204.831 37.0556 204.831 41.2683V50.2535H202.326V41.3567C202.326 38.7054 200.822 37.1735 198.523 37.1735C196.371 37.1735 195.015 38.4108 194.072 39.9721V50.2535H191.566ZM210.731 45.2748V37.6743H207.93V35.4059H210.731V31.694H213.266V35.4059H218.425V37.6743H213.266V45.2748C213.266 47.6021 214.445 48.2502 216.243 48.2502C217.216 48.2502 217.894 48.1324 218.454 47.8967V50.1356C217.747 50.4302 216.951 50.5481 215.889 50.5481C212.588 50.5481 210.731 48.8983 210.731 45.2748ZM223.523 31.5467C222.55 31.5467 221.754 30.7513 221.754 29.7791C221.754 28.8364 222.55 28.041 223.523 28.041C224.496 28.041 225.262 28.8364 225.262 29.7791C225.262 30.7513 224.496 31.5467 223.523 31.5467ZM222.255 50.2535V35.4059H224.761V50.2535H222.255ZM228.111 35.4059H230.912V33.5794C230.912 30.4272 232.946 28.1589 236.188 28.1589C237.544 28.1589 238.635 28.5418 239.46 29.0132L238.34 31.1048C237.78 30.6924 237.102 30.4272 236.247 30.4272C234.567 30.4272 233.447 31.5762 233.447 33.5205V35.4059H238.606V37.6743H233.447V50.2535H230.912V37.6743H228.111V35.4059ZM242.925 31.5467C241.952 31.5467 241.156 30.7513 241.156 29.7791C241.156 28.8364 241.952 28.041 242.925 28.041C243.898 28.041 244.664 28.8364 244.664 29.7791C244.664 30.7513 243.898 31.5467 242.925 31.5467ZM241.658 50.2535V35.4059H244.163V50.2535H241.658ZM262.666 47.8083C261.28 49.6643 259.069 50.8427 256.298 50.8427C251.287 50.8427 248.191 47.1602 248.191 42.8297C248.191 38.3224 251.08 34.8167 255.679 34.8167C259.718 34.8167 262.341 37.6448 262.341 41.2978C262.341 41.887 262.253 42.4467 262.164 42.8591H250.756C250.844 46.4237 253.114 48.5743 256.298 48.5743C258.214 48.5743 259.836 47.6905 260.808 46.3648L262.666 47.8083ZM255.62 36.9378C253.173 36.9378 251.464 38.3813 250.933 40.9443H259.836C259.747 38.7643 258.244 36.9378 255.62 36.9378ZM266.588 50.2535V35.4059H269.094V37.2618C270.184 35.9656 271.54 35.1113 273.427 35.1113C273.899 35.1113 274.341 35.1702 274.695 35.2881V37.7332C274.252 37.6154 273.81 37.5564 273.221 37.5564C271.275 37.5564 270.008 38.5581 269.094 40.0605V50.2535H266.588ZM290.289 50.6659C287.371 50.6659 285.395 49.0456 285.395 46.5121C285.395 44.2732 287.105 42.6824 290.26 42.1521L295.271 41.3272V40.2962C295.271 38.234 293.797 37.0556 291.674 37.0556C289.965 37.0556 288.579 37.851 287.665 39.1178L285.779 37.6743C287.076 35.9067 289.169 34.8167 291.763 34.8167C295.536 34.8167 297.777 37.0262 297.777 40.2962V50.2535H295.271V48.3681C294.151 49.8116 292.205 50.6659 290.289 50.6659ZM287.931 46.4237C287.931 47.6905 288.962 48.6037 290.702 48.6037C292.677 48.6037 294.298 47.661 295.271 46.0702V43.1537L290.879 43.8902C288.845 44.2437 287.931 45.157 287.931 46.4237ZM300.419 35.4059H303.131L307.877 47.6316L312.624 35.4059H315.336L309.528 50.2535H306.227L300.419 35.4059ZM331.383 47.8083C329.997 49.6643 327.786 50.8427 325.015 50.8427C320.004 50.8427 316.908 47.1602 316.908 42.8297C316.908 38.3224 319.797 34.8167 324.396 34.8167C328.435 34.8167 331.058 37.6448 331.058 41.2978C331.058 41.887 330.97 42.4467 330.881 42.8591H319.473C319.562 46.4237 321.831 48.5743 325.015 48.5743C326.931 48.5743 328.553 47.6905 329.525 46.3648L331.383 47.8083ZM324.337 36.9378C321.89 36.9378 320.181 38.3813 319.65 40.9443H328.553C328.464 38.7643 326.961 36.9378 324.337 36.9378ZM342.087 48.4859C343.915 48.4859 345.418 47.6021 346.332 46.3059L348.307 47.8083C346.921 49.6643 344.769 50.8427 342.057 50.8427C337.134 50.8427 333.98 47.1602 333.98 42.8297C333.98 38.4991 337.134 34.8167 342.057 34.8167C344.74 34.8167 346.921 36.0245 348.307 37.851L346.332 39.3535C345.418 38.0572 343.915 37.1735 342.057 37.1735C338.874 37.1735 336.604 39.6775 336.604 42.8297C336.604 46.0113 338.874 48.4859 342.087 48.4859ZM122.865 79.713V57.8783H130.075C134.882 57.8783 137.816 60.3425 137.816 64.3975C137.816 68.4213 134.882 70.8855 130.075 70.8855H127.297V79.713H122.865ZM130.262 61.559H127.297V67.2048H130.262C132.135 67.2048 133.258 66.1131 133.258 64.3351C133.258 62.6819 132.135 61.559 130.262 61.559ZM140.89 79.713V63.992H144.854V65.5516C145.884 64.4911 147.226 63.6801 149.005 63.6801C149.536 63.6801 150.004 63.7736 150.379 63.8984V67.7975C149.879 67.6727 149.349 67.5791 148.631 67.5791C146.696 67.5791 145.447 68.6397 144.854 69.6378V79.713H140.89ZM160.391 63.3681C165.51 63.3681 169.006 67.1424 169.006 71.8525C169.006 76.5625 165.51 80.3368 160.391 80.3368C155.272 80.3368 151.776 76.5625 151.776 71.8525C151.776 67.1424 155.272 63.3681 160.391 63.3681ZM160.454 76.5937C162.982 76.5937 164.886 74.5662 164.886 71.8525C164.886 69.1075 162.982 67.1112 160.454 67.1112C157.832 67.1112 155.896 69.1075 155.896 71.8525C155.896 74.5974 157.832 76.5937 160.454 76.5937ZM183.293 76.1882C185.79 76.1882 187.756 74.9717 189.005 73.1937L192.501 75.8763C190.503 78.59 187.257 80.3368 183.293 80.3368C176.395 80.3368 171.682 75.0341 171.682 68.7956C171.682 62.5571 176.395 57.2544 183.293 57.2544C187.257 57.2544 190.503 59.0324 192.501 61.6838L189.005 64.3975C187.756 62.6195 185.79 61.403 183.293 61.403C179.173 61.403 176.239 64.6158 176.239 68.7956C176.239 72.9754 179.173 76.1882 183.293 76.1882ZM203.004 63.3681C208.123 63.3681 211.619 67.1424 211.619 71.8525C211.619 76.5625 208.123 80.3368 203.004 80.3368C197.885 80.3368 194.389 76.5625 194.389 71.8525C194.389 67.1424 197.885 63.3681 203.004 63.3681ZM203.066 76.5937C205.594 76.5937 207.498 74.5662 207.498 71.8525C207.498 69.1075 205.594 67.1112 203.066 67.1112C200.444 67.1112 198.509 69.1075 198.509 71.8525C198.509 74.5974 200.444 76.5937 203.066 76.5937ZM215.234 79.713V63.992H219.198V65.2397C220.291 64.1791 221.758 63.3681 223.849 63.3681C227.251 63.3681 229.967 65.7076 229.967 70.3552V79.713H225.971V70.5112C225.971 68.4213 224.785 67.1112 222.85 67.1112C220.852 67.1112 219.791 68.4525 219.198 69.4507V79.713H215.234ZM234.468 79.713V63.992H238.432V65.2397C239.525 64.1791 240.992 63.3681 243.083 63.3681C246.485 63.3681 249.201 65.7076 249.201 70.3552V79.713H245.205V70.5112C245.205 68.4213 244.019 67.1112 242.084 67.1112C240.086 67.1112 239.025 68.4525 238.432 69.4507V79.713H234.468ZM268.185 77.1552C266.718 79.1203 264.283 80.3368 261.318 80.3368C255.731 80.3368 252.579 76.4378 252.579 71.8525C252.579 67.2048 255.513 63.3681 260.663 63.3681C265.033 63.3681 267.904 66.3314 267.904 70.4488C267.904 71.3222 267.779 72.1332 267.654 72.6635H256.636C257.011 75.5956 258.821 76.7809 261.287 76.7809C263.004 76.7809 264.502 76.0323 265.345 74.9093L268.185 77.1552ZM260.569 66.6122C258.54 66.6122 257.198 67.7351 256.761 69.7938H264.003C263.94 68.203 262.785 66.6122 260.569 66.6122ZM279.208 76.5937C280.769 76.5937 282.018 75.8763 282.767 74.7846L285.857 77.1552C284.39 79.0891 282.08 80.3368 279.208 80.3368C273.777 80.3368 270.531 76.4378 270.531 71.8525C270.531 67.2672 273.777 63.3681 279.208 63.3681C282.08 63.3681 284.39 64.6158 285.857 66.5498L282.767 68.9204C282.018 67.8287 280.769 67.1112 279.146 67.1112C276.555 67.1112 274.651 69.1075 274.651 71.8525C274.651 74.6286 276.555 76.5937 279.208 76.5937ZM289.966 73.9736V67.5479H287.032V63.992H289.966V60.0618H293.962V63.992H298.769V67.5479H293.962V73.9736C293.962 75.7203 294.898 76.4066 296.459 76.4066C297.551 76.4066 298.269 76.2818 298.8 76.0635V79.5258C298.019 79.8689 297.083 80.0249 295.772 80.0249C291.839 80.0249 289.966 77.8102 289.966 73.9736Z" fill="white"/>
<path d="M81.4869 33.0953L55.4866 18.0588L29.4862 33.2409C29.3249 33.3327 29.1914 33.4644 29.0995 33.6238C29.0059 33.7833 28.9556 33.9635 28.9556 34.1489V63.5183C28.966 63.7003 29.0197 63.8787 29.1116 64.0364C29.2035 64.1941 29.3319 64.3276 29.4862 64.4263L55.4831 79.3294L81.4835 64.2427C81.6378 64.1439 81.7661 64.0104 81.858 63.8528C81.9517 63.6951 82.0037 63.5166 82.0141 63.3346V34.0103C82.0158 33.8249 81.9673 33.6429 81.8736 33.4817C81.7817 33.3206 81.6482 33.1872 81.4869 33.0953Z" fill="#000091"/>
<path d="M46.1968 33.9618L37.4763 48.9133L29.5742 33.0139L38.9208 27.6193L46.7049 33.0953L46.1968 33.9618ZM82.0154 63.3866V33.9999C82.0154 33.8145 81.9669 33.6342 81.8732 33.4748C81.7796 33.3154 81.6461 33.1837 81.4848 33.0936L55.4862 18.0588" fill="#FCC63A"/>
<path d="M28.959 63.3866L55.49 18.0588V79.338L29.4862 64.4263C29.3319 64.3276 29.2035 64.1941 29.1116 64.0364C29.0197 63.8787 28.966 63.7003 28.9556 63.5183V34.1489L28.959 63.3866ZM71.7364 27.4547L81.2008 32.922L73.4167 48.7782L64.0753 32.773L71.7364 27.4547Z" fill="#0063CB"/>
<path d="M89.4875 28.2506L56.211 9.15396C55.9873 9.04305 55.7393 8.98413 55.4896 8.98413C55.2399 8.98413 54.992 9.04305 54.7683 9.15396L21.4918 28.2506C21.2907 28.3841 21.1259 28.5626 21.0063 28.7722C20.8884 28.9802 20.8207 29.2141 20.8086 29.455V67.5791C20.819 67.8199 20.8866 68.0573 21.0045 68.267C21.1242 68.4784 21.2907 68.6587 21.4918 68.7921L54.7665 87.8888C54.9902 87.9997 55.2382 88.0586 55.4879 88.0586C55.7376 88.0586 55.9856 87.9997 56.2093 87.8888L89.4875 68.7921C89.6886 68.6587 89.8551 68.4784 89.9747 68.267C90.0926 68.0573 90.1603 67.8199 90.1707 67.5791V29.455C90.1585 29.2141 90.0909 28.9802 89.973 28.7722C89.8533 28.5626 89.6886 28.3841 89.4875 28.2506ZM39.5173 59.0202H39.6543C39.5814 59.0202 39.5173 59.0323 39.5173 59.1069C39.5173 59.2801 39.7791 59.1069 39.8641 59.2801C39.4514 59.2905 39.0612 59.4638 38.7734 59.7584C38.7734 59.8468 38.9468 59.8468 39.0352 59.8468C38.9052 60.0201 38.6433 59.9335 38.5549 60.1085C38.6017 60.1553 38.6624 60.1847 38.7283 60.1951C38.6416 60.1951 38.5549 60.1951 38.5549 60.2835V60.5452C38.3364 60.5452 38.2497 60.7185 38.0746 60.8068C38.4214 61.0685 38.6416 60.8068 38.9901 60.8068C38.0746 61.1534 37.3324 61.6352 36.4168 61.8968C36.2434 61.8968 36.4168 62.1585 36.2434 62.1585C36.5052 62.3318 36.637 62.0719 36.8971 62.0719C35.7631 62.7252 34.5856 63.2849 33.3649 64.0335C33.2712 64.1271 33.2105 64.2484 33.1915 64.3801H32.8446C32.6712 64.4668 32.7579 64.6851 32.5828 64.8601C32.9747 65.1218 33.4498 64.5135 33.7169 64.8601C33.8036 64.8601 33.5435 64.9468 33.3701 64.9468C33.2834 64.9468 33.2834 65.1201 33.1967 65.1201H32.9296C32.7562 65.25 32.5828 65.3384 32.5828 65.5983C32.5082 65.5845 32.4302 65.5931 32.3608 65.6243C32.2898 65.6555 32.2308 65.7058 32.1909 65.7716C34.0533 65.7647 35.9 65.425 37.6428 64.77C38.9953 64.082 40.2196 63.1688 41.2635 62.0684C41.3103 62.1152 41.3415 62.1758 41.3502 62.2417C41.0953 62.9972 40.6063 63.654 39.9525 64.1132C39.4722 64.3749 39.1237 64.7665 38.7387 64.9416C38.4821 65.0854 38.2341 65.2448 37.9965 65.4198C36.9006 65.7612 35.7752 66.0004 34.6342 66.1338L34.1053 66.2101C33.7151 66.2672 33.3267 66.3296 32.9418 66.3972L29.4858 64.4252C29.3592 64.3454 29.25 64.2415 29.165 64.1184C29.0783 63.9971 29.0176 63.8585 28.9864 63.7129C29.0436 63.6817 29.0991 63.6453 29.1494 63.6038C29.0956 63.5466 29.028 63.505 28.9534 63.4807V62.3543C30.7707 62.032 32.5412 61.4827 34.2215 60.7219C32.6314 59.6163 30.8436 58.8279 28.9552 58.3946V55.7693C29.9176 55.927 30.8678 56.154 31.7973 56.4486C32.5134 56.712 33.2001 57.0464 33.8469 57.4502C34.1018 57.6945 34.3793 57.9129 34.6758 58.1035C34.8856 58.2231 35.1197 58.2924 35.359 58.308C35.6001 58.3218 35.8411 58.282 36.0631 58.1902H36.6353C37.8769 57.9857 39.0404 57.4415 39.9941 56.6219C39.9941 56.7085 40.0808 56.7085 40.1676 56.7085C40.0323 57.3999 39.7809 58.0619 39.4254 58.6702C39.4306 58.7585 39.3421 58.9336 39.5173 59.0202ZM44.4021 65.2084C44.8374 65.0351 45.0957 64.7284 45.4928 64.5551C45.4061 64.6418 45.4061 64.8168 45.3194 64.9017C44.9934 65.1045 44.6882 65.3367 44.4038 65.5949C43.4224 66.4596 42.5051 67.3919 41.6554 68.3849C41.2184 68.9047 40.7398 69.3865 40.2681 69.8665C40.1017 70.0225 39.9213 70.1646 39.7306 70.2911L35.3486 67.7783C35.9711 67.8303 36.5989 67.8009 37.2145 67.6865C37.7243 67.5427 38.2219 67.3538 38.6971 67.1198V67.2931C39.9109 66.8131 40.8334 65.7231 42.0559 65.3315C42.0993 65.3315 42.2744 65.5048 42.4478 65.4181C42.7617 65.0299 43.1605 64.718 43.6148 64.5066C44.0692 64.2969 44.5651 64.1929 45.0645 64.2051C45.0645 64.2917 45.0645 64.3784 45.1512 64.3784H45.1946C44.9327 64.5967 44.6275 64.8133 44.3275 65.0317C44.2287 65.1218 44.3154 65.2084 44.4021 65.2084ZM28.9552 54.5268V54.2045C29.8534 53.9688 30.7811 53.8596 31.7088 53.8787C31.9828 53.8353 32.2637 53.8353 32.5377 53.8787C31.3135 53.8769 30.1014 54.097 28.9552 54.5268ZM82.0172 63.3438C82.0068 63.5258 81.9547 63.7043 81.8611 63.862C81.7692 64.0197 81.6409 64.1531 81.4865 64.2519L64.009 74.3911C62.0027 73.8175 60.0294 73.1313 58.0994 72.3376C57.8202 71.7294 57.6676 71.0709 57.652 70.402C57.6381 69.7331 57.7612 69.0676 58.0127 68.4472C58.1514 67.9135 58.356 67.3988 58.6231 66.9171C58.6664 66.8738 58.7098 66.8304 58.7098 66.7854C58.7219 66.7854 58.7323 66.7802 58.741 66.7733C58.7479 66.7646 58.7531 66.7542 58.7531 66.7421C58.9456 66.4041 59.1641 66.0836 59.4069 65.7803L59.4329 65.7543L59.4675 65.7179L59.4936 65.6919C59.4936 65.6486 59.5369 65.6053 59.5803 65.5602C59.6236 65.4718 59.7103 65.4285 59.7537 65.3419C60.0589 65.0195 60.3953 64.7284 60.7577 64.4754C61.127 64.342 61.5051 64.2397 61.8918 64.1687C63.2981 64.2727 64.6974 64.4616 66.0795 64.7371C66.2494 64.7631 66.4124 64.822 66.5598 64.9104C67.0818 65.0126 67.6211 64.9814 68.1291 64.8237C68.4603 64.7631 68.7707 64.6192 69.0291 64.4044C69.2892 64.1912 69.4904 63.914 69.6118 63.6003C69.7644 63.3213 69.8511 63.0111 69.8667 62.6923C69.8823 62.3751 69.8233 62.058 69.6985 61.7651C69.3898 61.2869 69.6759 61.0079 70.0123 60.7427L70.1302 60.6474C70.2794 60.5417 70.4146 60.4152 70.5308 60.2731C70.7493 59.8364 70.3574 59.5799 70.269 59.1814C70.1823 59.0081 69.8771 59.0947 69.7019 58.8348C70.3123 58.5731 71.1845 58.0914 70.7926 57.3497C70.5308 56.9563 70.1389 56.2579 70.6192 55.8646C71.2296 55.518 72.1019 55.6029 72.3637 55.0345C72.4487 54.7035 72.4469 54.3569 72.3585 54.0277C72.2701 53.6984 72.0966 53.3969 71.8573 53.1543L71.7273 52.9672C71.5972 52.7817 71.4689 52.5963 71.3614 52.4126C71.0857 51.9551 70.7805 51.5167 70.4458 51.1008C70.0643 50.5601 69.7574 49.9727 69.5303 49.3523C69.2684 48.6973 69.617 48.1289 69.617 47.4738C69.643 46.2123 69.4505 44.9559 69.0499 43.7585C68.8314 43.1467 68.7447 42.4917 68.4829 41.9233C68.4499 41.5577 68.3147 41.2094 68.091 40.9182C68.0476 40.8298 68.0251 40.7328 68.0251 40.634C68.0251 40.5352 68.0476 40.4382 68.091 40.3498C68.4465 40.0986 68.7829 39.8213 69.095 39.5198C69.1921 39.3083 69.2095 39.0692 69.147 38.8439C69.0829 38.6204 68.9424 38.4263 68.7482 38.2963C68.1812 38.0347 68.228 38.8647 67.8326 39.0397H67.5708C67.4841 38.8214 67.6575 38.733 67.8326 38.5597C67.8326 38.4731 67.8326 38.2981 67.7459 38.2981C67.3991 38.2981 67.0922 38.2097 67.0037 38.0364C66.1679 36.9949 65.046 36.2203 63.7767 35.8079C64.1027 35.9084 64.4391 35.9656 64.7807 35.9812C65.3668 36.1042 65.9754 36.0435 66.5251 35.8079C66.9188 35.6762 67.0055 34.9778 67.1789 34.5844C67.2136 34.3938 67.2084 34.198 67.1633 34.0091C67.1182 33.8219 67.035 33.6452 66.917 33.491C66.5234 32.9191 65.9806 32.4651 65.346 32.1809C65.0408 32.0492 64.5605 31.7875 64.1686 31.5692C64.035 31.4756 63.8877 31.4011 63.7333 31.3508C58.5919 28.7774 48.0072 31.0042 47.2009 31.3508H47.1853C46.4431 31.5657 45.7183 31.8412 45.0194 32.1739C44.057 32.5309 43.19 33.1011 42.479 33.8393C41.7681 34.5792 41.2357 35.4699 40.9184 36.4456C39.9283 37.0954 39.1306 37.9983 38.6069 39.0605C37.8647 40.4469 36.7757 41.6755 36.9492 43.2438C37.1226 44.5955 37.4295 45.8154 37.6913 47.2104C37.7659 47.6818 37.8821 48.1462 38.0381 48.5968C38.2115 49.075 38.0381 49.6868 38.3 50.0784C38.43 50.3401 38.3433 50.6451 38.6936 50.8201V51.1667C38.7803 51.2533 38.7803 51.34 38.9554 51.34V51.6865C39.7098 52.4196 40.3548 53.2565 40.875 54.1715C41.0485 54.6498 40.0462 54.4332 39.6612 54.2582C38.9398 53.7886 38.2809 53.2323 37.6983 52.6015C37.6497 52.6483 37.6202 52.7089 37.6098 52.7748C37.9566 53.3848 39.1809 54.1265 38.5254 54.5181C38.1786 54.6914 37.7832 54.2564 37.4347 54.6065C37.348 54.7365 37.4347 54.9115 37.4347 55.0848C36.9544 54.7382 36.4324 54.9115 35.9521 54.7382C35.6053 54.6515 35.5151 53.9982 35.1232 53.9982C34.0897 53.7452 33.0406 53.5563 31.9828 53.4316C30.984 53.2808 29.9765 53.189 28.9673 53.156V34.1477C28.9673 33.9623 29.0176 33.7821 29.1112 33.6227C29.2031 33.4632 29.3367 33.3315 29.4979 33.2397L55.4862 18.0577L81.4865 33.0941C81.6478 33.186 81.7813 33.3177 81.8732 33.4771C81.9669 33.6365 82.0172 33.8167 82.0172 34.0022V63.3438ZM68.2245 49.0282C68.1725 49.1097 68.0997 49.1755 68.013 49.2206C67.928 49.2657 67.8326 49.2882 67.7355 49.2864C67.5621 49.432 67.3991 49.5914 67.2465 49.7595C67.4199 49.7595 67.2465 50.0177 67.4199 50.0177C67.0644 50.4042 67.5534 51.2204 67.0644 51.3919C66.4246 51.5635 65.75 51.5635 65.1102 51.3919C65.2055 51.3711 65.3026 51.3625 65.3997 51.3642H65.5471C65.6564 51.3763 65.7656 51.3625 65.8679 51.3226C65.9702 51.2828 66.0604 51.2186 66.1315 51.1355V50.7889C66.1315 50.7022 66.0431 50.7022 65.9581 50.7022C65.913 50.7508 65.8506 50.782 65.7847 50.7889C65.7812 50.7109 65.7535 50.6364 65.7049 50.574C65.6581 50.5116 65.5922 50.4666 65.5177 50.4423C65.287 50.4735 65.0529 50.4458 64.8344 50.3626C64.6177 50.2811 64.4252 50.146 64.2726 49.9692C64.5084 49.8566 64.7738 49.8254 65.0287 49.8826C65.2506 49.8826 65.1622 49.4961 65.4292 49.3246H65.6963C66.2286 48.6799 67.2066 48.5084 67.3852 47.8637C67.3852 47.6904 66.8962 47.6904 66.5408 47.6055C66.0656 47.5466 65.5836 47.5761 65.1188 47.6922C64.4946 47.7788 63.8842 47.9365 63.2963 48.1653C63.7819 47.8083 64.3229 47.5327 64.8969 47.3491C65.2992 47.1931 65.7171 47.077 66.1419 47.0025L66.3708 46.9574L66.6014 46.9106C66.9153 46.817 67.2517 46.817 67.5656 46.9106C67.9661 47.0839 68.632 47.0839 68.7205 47.3404C68.8939 47.8135 68.4534 48.2848 67.9661 48.6297C67.8673 48.77 68.2245 48.8636 68.2245 49.0282Z" fill="white"/>
<path fill-rule="evenodd" clip-rule="evenodd" d="M325.128 112.609L319.526 111.274L316.446 113.735L317.089 116.883L320.211 120.841L333.875 133.107L341.232 136.023L351.208 137.141L360.751 134.985L369.197 129.816L373.795 122.358L373.589 115.276L371.007 106.365L368.61 98.5435L365.336 95.682L361.811 97.0695L359.636 98.1488L357.639 95.6192L353.839 94.8311L349.893 97.4883L346.972 95.0164L342.404 96.3123L341.139 98.6358L336.827 86.1572L334.199 80.0124L329.682 78.757L328.559 79.8016L326.755 83.6466L328.095 88.7519L334.533 113.524L335.134 115.541L332.003 116.966L330.58 116.245L325.128 112.609Z" fill="white"/>
<path d="M331.033 94.6331C330.42 92.6155 329.841 90.7096 329.309 88.9186C329.196 88.5387 329.084 88.1587 328.972 87.7783C328.757 87.0456 328.535 86.2877 328.305 85.5446C327.946 84.3824 327.652 82.7461 328.291 81.5497C328.658 80.8633 329.274 80.2581 330.191 79.9857C331.097 79.7163 331.874 79.8708 332.494 80.2128C333.645 80.8467 334.226 82.5144 334.563 83.7136C336.271 89.786 338.796 98.0526 339.803 101.327C340.345 103.147 340.65 104.022 341.019 104.396C341.343 104.723 341.842 104.814 342.323 104.632C342.82 104.443 343.157 104.025 343.183 103.567C343.201 103.225 343.071 102.807 342.874 102.172C342.82 101.999 342.761 101.808 342.699 101.6C341.915 98.968 342.509 97.3837 344.514 96.7559C347.611 95.7857 348.567 97.934 349.492 100.844C349.625 101.263 349.751 101.659 349.884 102.008C350.213 103.089 351.002 103.391 351.599 103.214C352.06 103.077 352.768 102.608 352.341 101.006C352.07 99.9924 352.026 99.0807 352.213 98.3698C352.471 97.3926 353.144 96.7613 354.274 96.44C356.936 95.6824 357.789 97.8469 358.878 101.504C359.454 103.438 360.534 103.281 360.852 103.187C361.78 102.911 362.027 102.021 361.586 100.54C361.44 100.05 361.513 99.5534 361.805 99.0639C362.258 98.3023 363.19 97.693 363.794 97.565C364.585 97.3978 366.49 97.2335 367.106 99.3021C367.572 100.865 368.09 102.448 368.591 103.977C370.097 108.568 371.653 113.316 371.972 118.165C372.424 125.062 367.539 130.993 359.223 133.644C348.358 137.106 339.611 135.771 332.482 129.558C329.954 127.355 327.346 125.163 324.823 123.043C323.026 121.534 321.168 119.973 319.355 118.42C317.246 116.616 316.806 115.093 318.091 113.464C318.571 112.856 319.16 112.528 319.712 112.364C320.659 112.083 321.76 112.455 323.178 113.48C325.08 114.854 327.109 116.288 329.179 117.401C330.334 118.022 331.92 118.694 333.477 118.232C333.914 118.102 334.351 117.882 334.773 117.546C336.923 115.837 336.607 114.46 336.13 112.377C336.101 112.246 336.07 112.112 336.038 111.973L336.036 111.962C334.704 106.728 332.753 100.303 331.033 94.6331ZM368.12 95.7687C366.85 94.769 365.169 94.3516 363.509 94.6228C362.165 94.8425 361.001 95.484 360.173 96.4531C359.314 94.8732 357.796 93.7877 356.003 93.5012C353.943 93.1725 351.839 93.9306 350.282 95.5393C349.35 94.3331 347.739 93.6416 345.863 93.6667C343.868 93.694 342.033 94.5269 340.952 95.8458C340.447 94.137 339.871 92.1466 339.311 90.2128C338.495 87.3937 337.65 84.4789 337.024 82.4197C336.409 80.4 335.459 78.9369 334.197 78.0713C332.918 77.1933 331.351 76.8459 329.609 77.2743C328.032 77.6617 326.818 78.6888 326.03 80.0189C325.108 81.5775 324.912 83.6062 325.479 85.7313C326.212 88.4809 327.36 92.2651 328.373 95.6041C328.78 96.9495 329.166 98.2202 329.493 99.3183C329.84 100.489 330.198 101.677 330.544 102.826C331.529 106.091 332.545 109.467 333.445 112.815C333.677 113.677 333.895 114.491 333.066 115.27C332.534 115.77 331.368 115.265 330.72 114.919C328.738 113.863 326.813 112.541 325.115 111.375C321.458 108.862 318.343 108.872 316.051 111.454C314.826 112.833 314.424 114.347 314.661 115.909C314.9 117.476 315.884 119.051 317.588 120.586C320.648 123.346 323.866 126.029 326.978 128.624C328.116 129.573 329.292 130.553 330.443 131.524C333.068 133.735 335.846 135.436 338.7 136.578C341.423 137.668 344.295 138.281 347.238 138.401C350.526 138.535 353.911 138.084 357.467 137.026C359.802 136.332 362.211 135.378 364.714 134.159C372.985 130.127 376.407 122.474 374.104 113.16C373.307 109.933 372.353 106.692 371.43 103.556C371.242 102.918 371.054 102.279 370.867 101.64C370.2 99.0118 369.574 96.9111 368.12 95.7687Z" fill="#000091"/>
<path d="M341.795 79.151L341.799 79.165C341.904 79.5973 342.31 79.8877 342.754 79.8491L344.92 79.6614C345.75 79.5895 346.325 78.7918 346.121 77.9838C346.117 77.9731 346.115 77.9621 346.112 77.9514C345.891 77.0835 344.912 76.6558 344.13 77.0932L342.226 78.1586C341.876 78.3547 341.699 78.7609 341.795 79.151Z" fill="white"/>
<path d="M319.777 85.7654L319.774 85.7512C319.667 85.3191 319.263 85.0284 318.818 85.0671L316.652 85.2548C315.821 85.3269 315.248 86.1242 315.452 86.9323C315.455 86.9431 315.457 86.954 315.46 86.9649C315.681 87.8328 316.661 88.2604 317.441 87.8232L319.346 86.7576C319.697 86.5614 319.873 86.1555 319.777 85.7654Z" fill="white"/>
<path d="M341.974 85.0937L341.97 85.1077C341.846 85.535 342.052 85.9892 342.455 86.1774L344.426 87.0974C345.182 87.4502 346.078 87.0466 346.305 86.2452C346.308 86.2345 346.311 86.2234 346.314 86.2127C346.556 85.3509 345.923 84.4914 345.026 84.4795L342.844 84.4501C342.442 84.4447 342.087 84.7081 341.974 85.0937Z" fill="white"/>
<path d="M319.598 79.8217L319.602 79.8077C319.726 79.3805 319.521 78.9264 319.117 78.738L317.146 77.818C316.391 77.4653 315.495 77.8689 315.268 78.6703C315.264 78.6813 315.261 78.692 315.258 78.7028C315.016 79.5645 315.65 80.424 316.546 80.4359L318.728 80.4653C319.13 80.4707 319.486 80.2074 319.598 79.8217Z" fill="white"/>
<path d="M322.417 74.5842L322.427 74.5742C322.748 74.2664 322.797 73.7702 322.541 73.4057L321.295 71.6243C320.817 70.9414 319.839 70.843 319.241 71.4232C319.233 71.431 319.225 71.439 319.217 71.4468C318.576 72.0716 318.695 73.1326 319.465 73.5907L321.341 74.7068C321.686 74.9123 322.127 74.862 322.417 74.5842Z" fill="white"/>
<path d="M327.478 71.4571L327.492 71.4536C327.925 71.3475 328.214 70.9426 328.176 70.4992L327.987 68.3341C327.914 67.5039 327.116 66.9301 326.308 67.1336C326.297 67.1364 326.287 67.139 326.275 67.1419C325.408 67.3623 324.98 68.3405 325.418 69.1219L326.485 71.0258C326.681 71.3764 327.088 71.5526 327.478 71.4571Z" fill="white"/>
<path d="M322.907 90.8227L322.896 90.8122C322.588 90.4908 322.092 90.4418 321.728 90.6967L319.945 91.9423C319.262 92.4197 319.165 93.3972 319.746 93.9952C319.753 94.0033 319.761 94.0112 319.769 94.0193C320.394 94.6607 321.456 94.542 321.914 93.7723L323.03 91.8976C323.235 91.5526 323.185 91.1127 322.907 90.8227Z" fill="white"/>
<path d="M338.666 74.0933L338.676 74.1038C338.984 74.4252 339.48 74.4741 339.845 74.2193L341.626 72.974C342.309 72.4965 342.408 71.5188 341.827 70.9208C341.819 70.9129 341.811 70.9048 341.804 70.8967C341.177 70.2556 340.117 70.374 339.658 71.1437L338.543 73.0184C338.338 73.3635 338.388 73.8034 338.666 74.0933Z" fill="white"/>
</svg>
