<svg width="683" height="251" viewBox="0 0 683 251" fill="none" xmlns="http://www.w3.org/2000/svg">
<path fill-rule="evenodd" clip-rule="evenodd" d="M336.389 19.1799C340.362 16.9049 345.244 16.9049 349.217 19.1799C378.866 36.1931 408.516 53.3248 438.066 70.5358C442.02 72.8306 444.451 77.0639 444.471 81.6337C444.59 115.858 444.59 150.102 444.471 184.326C444.451 188.916 442.02 193.13 438.066 195.444C408.516 212.655 378.866 229.767 349.217 246.78C345.244 249.055 340.362 249.055 336.389 246.78C306.72 229.767 277.091 212.655 247.52 195.444C243.567 193.13 241.135 188.916 241.116 184.326C241.017 150.102 241.017 115.858 241.116 81.6337C241.135 77.0639 243.567 72.8306 247.52 70.5358C277.091 53.3248 306.72 36.1931 336.389 19.1799Z" fill="white" stroke="#E1000F" stroke-width="5" stroke-miterlimit="1.5" stroke-linecap="round" stroke-linejoin="round"/>
<path fill-rule="evenodd" clip-rule="evenodd" d="M265.533 147.371C265.518 131.095 265.533 114.818 265.578 98.5415C265.593 92.2651 268.939 86.469 274.37 83.3157C294.203 71.784 314.082 60.2974 333.991 48.8707C339.422 45.7475 346.113 45.7475 351.544 48.8707C371.453 60.2974 391.346 71.784 411.18 83.3157C416.596 86.469 419.942 92.2651 419.957 98.5415C420.032 121.5 420.032 144.489 419.957 167.447C419.942 173.723 416.596 179.519 411.18 182.672C395.967 191.516 380.725 200.345 365.467 209.129C364.867 208.844 364.206 208.544 363.486 208.213C358.175 205.856 350.539 203.483 350.224 203.168C349.069 202.027 348.348 197.282 349.983 191.757C350.419 190.3 351.019 188.814 351.814 187.342C351.874 187.222 351.934 187.116 351.994 186.996C352.039 186.936 352.069 186.877 352.099 186.817C352.669 185.856 353.299 184.924 354.005 184.039C354.065 183.963 354.14 183.873 354.215 183.798C354.305 183.663 354.409 183.543 354.514 183.423C354.679 183.228 354.86 183.033 355.04 182.838C355.055 182.823 355.055 182.823 355.07 182.808C355.925 181.892 356.9 181.02 357.98 180.225C358.955 179.744 360.155 179.504 361.356 179.263C365.451 179.263 369.547 180.465 373.643 180.945C374.123 180.945 374.603 181.185 375.083 181.426C376.538 181.681 378.219 181.681 379.659 181.186C381.355 180.705 383.275 179.744 383.995 177.582C384.58 175.825 385.21 173.964 384.235 172.267C382.795 170.105 385.69 169.384 386.65 167.927C387.37 166.726 386.17 166.005 385.93 164.804C385.69 164.308 384.73 164.564 384.235 163.828C385.93 163.107 388.57 161.666 387.37 159.488C386.65 158.287 385.45 156.365 386.89 155.149C388.571 154.188 391.226 154.429 391.947 152.747C393.147 149.849 390.506 147.446 389.051 145.029C388.331 143.587 387.371 142.627 386.411 141.17C385.45 139.488 384.235 138.032 383.755 136.11C383.035 134.188 383.995 132.491 383.995 130.569C384.235 126.951 383.275 123.332 382.315 119.713C381.595 118.032 381.354 116.094 380.619 114.412C380.394 113.451 380.154 112.491 379.419 111.515C379.179 111.034 379.179 110.314 379.419 109.833C380.394 109.112 381.355 108.391 382.315 107.43C383.035 106.214 382.555 104.532 381.355 103.812C379.659 103.076 379.899 105.493 378.699 105.974H377.979C377.739 105.253 378.219 105.013 378.699 104.532C378.699 104.292 378.699 103.812 378.459 103.812C377.499 103.812 376.538 103.572 376.298 103.076C373.883 99.7127 370.508 98.0159 366.907 96.5744C367.867 96.8146 368.827 97.0546 369.787 97.0546C371.483 97.2949 373.403 97.2951 374.844 96.5744C376.059 96.0939 376.299 94.1717 376.779 92.9555C377.259 91.9945 376.539 90.5529 376.059 89.8322C374.949 88.0453 373.223 86.8894 371.453 85.9735C370.552 85.493 369.112 84.7272 368.002 84.1266C367.717 83.9765 367.492 83.856 367.312 83.7659C367.297 83.7509 367.267 83.7366 367.252 83.7366C365.242 82.6104 353.434 79.3665 341.822 79.3515C330.225 79.3515 317.158 83.9917 317.158 83.9917H317.173C315.973 84.4122 314.127 85.1026 312.192 85.9735C309.881 87.0095 306.671 88.4359 304.75 90.7933C302.83 93.1958 300.895 95.6131 300.175 98.496C297.039 100.433 295.118 103.316 293.438 106.214C291.263 110.313 288.143 113.932 288.608 118.512C289.103 122.37 290.063 125.989 290.783 130.088C291.023 131.53 291.263 132.731 291.743 134.187C292.223 135.629 291.743 137.311 292.463 138.527C292.958 139.248 292.718 140.209 293.678 140.689V141.65C293.919 141.891 293.918 142.131 294.399 142.131V143.106C296.319 145.509 298.734 147.686 299.934 150.329C300.415 151.785 297.534 151.05 296.319 150.569C293.918 149.368 292.463 147.446 290.543 145.75C290.543 145.75 290.303 145.99 290.303 146.23C291.263 147.926 294.879 150.089 292.958 151.305C291.983 151.786 290.782 150.569 289.822 151.545C289.582 152.026 289.822 152.506 289.822 152.987C288.382 152.026 286.927 152.507 285.487 152.026C284.527 151.786 284.286 149.849 283.071 149.849C279.95 149.128 277.056 148.407 273.92 148.167C271.069 147.851 268.323 147.416 265.533 147.371ZM297.909 196.336C294.338 194.264 290.768 192.207 287.212 190.135C287.827 190.09 288.442 190.014 289.102 189.864C290.587 189.534 291.983 188.663 293.438 188.182V188.663C297.039 187.222 299.694 184.084 303.31 182.882C303.55 182.882 304.03 183.363 304.51 183.123C306.685 181.186 309.086 179.023 312.222 179.504C312.222 179.744 312.222 179.984 312.462 179.984C312.522 179.984 312.582 179.984 312.627 179.984C311.772 180.63 310.917 181.276 310.047 181.907C309.822 182.162 310.047 182.402 310.302 182.402C311.502 181.907 312.222 180.946 313.422 180.465C313.182 180.705 313.182 181.185 312.942 181.426C312.102 182.011 311.232 182.717 310.332 183.528C307.361 186.066 304.855 188.844 302.29 191.727H302.32C300.954 193.213 299.559 194.684 298.194 196.051C298.104 196.141 298.014 196.231 297.909 196.336ZM281.811 187.012C279.891 185.885 277.971 184.774 276.05 183.648C280.836 183.182 285.772 183.333 290.303 180.945C294.159 179.023 297.774 176.366 300.895 173.002C300.895 173.002 301.134 173.242 301.134 173.482C300.414 175.885 298.974 177.582 297.039 179.024C295.598 179.744 294.638 180.945 293.438 181.426C292.718 181.906 291.983 182.402 291.263 182.882C288.038 184.008 284.707 185.54 281.811 187.012ZM275.54 183.363C275.15 183.137 274.76 182.897 274.37 182.672C268.939 179.519 265.593 173.723 265.578 167.447C265.563 163.273 265.563 159.083 265.548 154.909C268.219 155.359 270.844 156.02 273.439 156.846C275.615 157.567 277.536 158.528 279.456 159.729C280.431 160.465 280.911 161.185 281.871 161.666C283.071 162.387 284.767 162.386 285.967 161.906H287.168C290.783 160.945 294.638 159.984 297.039 157.326C297.039 157.567 297.294 157.567 297.534 157.567C296.799 159.489 296.799 161.665 295.359 163.347C295.359 163.587 295.118 164.068 295.598 164.308H296.079C295.839 164.308 295.598 164.308 295.598 164.563C295.598 165.044 296.319 164.564 296.559 165.044C295.359 165.285 294.158 165.525 293.438 166.486C293.438 166.726 293.918 166.726 294.158 166.726C293.678 167.206 292.958 166.966 292.718 167.447C292.718 167.447 292.958 167.687 293.198 167.687C292.958 167.687 292.718 167.687 292.718 167.927V168.663C291.983 168.663 291.743 169.143 291.263 169.383C292.223 170.104 292.959 169.383 293.919 169.383C291.263 170.344 289.102 171.786 286.447 172.507C285.967 172.507 286.447 173.243 285.967 173.243C286.687 173.723 287.167 173.002 287.888 173.002C284.527 174.924 281.151 176.606 277.535 178.783C277.535 178.783 277.055 179.264 277.055 179.744H276.095C275.615 179.985 275.855 180.705 275.375 181.186C276.575 181.907 278.016 180.225 278.736 181.186C278.976 181.186 278.255 181.426 277.775 181.426C277.535 181.426 277.536 181.907 277.296 181.907H276.575C276.095 182.402 275.615 182.642 275.615 183.363C275.585 183.363 275.57 183.363 275.54 183.363ZM265.548 151.11C265.548 150.824 265.548 150.539 265.548 150.239C268.159 149.683 270.679 149.188 273.2 149.368C273.92 149.368 274.895 149.128 275.615 149.368C272.059 149.173 268.849 150.104 265.548 151.11ZM375.189 132.311C373.763 131.95 372.533 132.311 371.093 132.311C369.157 132.791 367.477 133.031 365.796 133.752C367.237 132.791 368.677 131.831 370.373 131.35C371.573 131.11 372.773 130.389 373.988 130.389C375.428 130.149 376.869 129.653 378.069 130.148C379.284 130.629 381.205 130.629 381.445 131.35C381.925 132.792 380.725 134.248 379.284 135.209C379.044 135.689 380.004 135.929 380.004 136.41C379.764 136.89 379.044 137.13 378.549 137.13C378.069 137.371 377.589 138.092 377.109 138.587C377.589 138.587 377.108 139.308 377.588 139.308C376.628 140.509 378.069 142.912 376.629 143.407C374.948 143.888 373.013 143.888 371.093 143.407C372.053 143.167 373.253 143.648 373.988 142.672V141.71C373.988 141.47 373.733 141.47 373.493 141.47C373.253 141.71 373.013 141.71 373.013 141.71C373.013 141.23 372.533 140.749 372.293 140.749C370.853 140.99 369.637 140.269 368.677 139.308C369.397 139.068 370.117 138.827 370.853 139.067C371.573 139.067 371.332 137.851 372.052 137.371H372.773C374.213 135.449 377.108 134.968 377.588 133.031C377.588 132.551 376.149 132.551 375.189 132.311Z" fill="#E1000F"/>
<path d="M444.548 100.74H506.69L586.318 21.0461" stroke="#000091" stroke-width="5" stroke-miterlimit="1.5" stroke-linecap="round" stroke-linejoin="round"/>
<path d="M22.4556 173.372H115.763L151.229 137.875H241.006" stroke="#000091" stroke-width="5" stroke-miterlimit="1.5" stroke-linecap="round" stroke-linejoin="round"/>
<path d="M444.525 136.083H657.66" stroke="#000091" stroke-width="5" stroke-miterlimit="1.5" stroke-linecap="round" stroke-linejoin="round"/>
<path d="M68.8472 136.111H96.5139L131.733 100.739" stroke="#000091" stroke-width="5" stroke-miterlimit="1.5" stroke-linecap="round" stroke-linejoin="round"/>
<path d="M447.239 171.452H570.285L617.356 218.562" stroke="#000091" stroke-width="5" stroke-miterlimit="1.5" stroke-linecap="round" stroke-linejoin="round"/>
<path d="M238.331 100.715L25.1963 100.715" stroke="#000091" stroke-width="5" stroke-miterlimit="1.5" stroke-linecap="round" stroke-linejoin="round"/>
<path d="M593.244 22.4892C598.793 22.4892 603.292 17.9863 603.292 12.432C603.292 6.87765 598.793 2.37476 593.244 2.37476C587.694 2.37476 583.195 6.87765 583.195 12.432C583.195 17.9863 587.694 22.4892 593.244 22.4892Z" stroke="#000091" stroke-width="4" stroke-miterlimit="1.5" stroke-linecap="round" stroke-linejoin="round"/>
<path d="M12.4326 161.365C6.88293 161.365 2.3838 165.868 2.3838 171.422C2.3838 176.976 6.88293 181.479 12.4326 181.479C17.9823 181.479 22.4814 176.976 22.4814 171.422C22.4814 165.868 17.9823 161.365 12.4326 161.365Z" stroke="#000091" stroke-width="4" stroke-miterlimit="1.5" stroke-linecap="round" stroke-linejoin="round"/>
<path d="M131.343 219.413C125.793 219.413 121.294 223.915 121.294 229.47C121.294 235.024 125.793 239.527 131.343 239.527C136.892 239.527 141.392 235.024 141.392 229.47C141.392 223.915 136.892 219.413 131.343 219.413Z" stroke="#000091" stroke-width="4" stroke-miterlimit="1.5" stroke-linecap="round" stroke-linejoin="round"/>
<path d="M670.423 146.179C675.973 146.179 680.472 141.677 680.472 136.122C680.472 130.568 675.973 126.065 670.423 126.065C664.874 126.065 660.375 130.568 660.375 136.122C660.375 141.677 664.874 146.179 670.423 146.179Z" stroke="#000091" stroke-width="4" stroke-miterlimit="1.5" stroke-linecap="round" stroke-linejoin="round"/>
<path d="M58.8018 125.969C53.2521 125.969 48.7529 130.472 48.7529 136.027C48.7529 141.581 53.2521 146.084 58.8018 146.084C64.3515 146.084 68.8506 141.581 68.8506 136.027C68.8506 130.472 64.3515 125.969 58.8018 125.969Z" stroke="#000091" stroke-width="4" stroke-miterlimit="1.5" stroke-linecap="round" stroke-linejoin="round"/>
<path d="M624.309 238.696C629.858 238.696 634.357 234.193 634.357 228.638C634.357 223.084 629.858 218.581 624.309 218.581C618.759 218.581 614.26 223.084 614.26 228.638C614.26 234.193 618.759 238.696 624.309 238.696Z" stroke="#000091" stroke-width="4" stroke-miterlimit="1.5" stroke-linecap="round" stroke-linejoin="round"/>
<path d="M12.4326 90.6581C6.88293 90.6581 2.3838 95.161 2.3838 100.715C2.3838 106.27 6.88293 110.773 12.4326 110.773C17.9823 110.773 22.4814 106.27 22.4814 100.715C22.4814 95.161 17.9823 90.6581 12.4326 90.6581Z" stroke="#000091" stroke-width="4" stroke-miterlimit="1.5" stroke-linecap="round" stroke-linejoin="round"/>
<path d="M241.007 171.995H187.87L138.077 221.801" stroke="#000091" stroke-width="5" stroke-miterlimit="1.5" stroke-linecap="round" stroke-linejoin="round"/>
</svg>
