<svg width="85" height="93" viewBox="0 0 85 93" fill="none" version="1.1" id="svg1" xmlns="http://www.w3.org/2000/svg">
  <path fill-rule="evenodd" clip-rule="evenodd" d="M35.4963 1.74835c4.0641-2.331133 9.0635-2.331133 13.1276 0C58.2705 7.28478 67.9172 12.8521 77.5332 18.4345c4.0564 2.3618 6.5563 6.6864 6.564 11.3716.0306 11.1266.0306 22.2608 0 33.3874-.0077 4.6852-2.5076 9.0103-6.564 11.3645-9.616 5.5901-19.2627 11.1572-28.9093 16.6937-4.0641 2.3311-9.0635 2.3311-13.1276 0-9.6466-5.5365-19.2934-11.1036-28.90928-16.6937C2.53822 72.2038.038341 67.8787.0230046 63.1935c-.0306728-11.1266-.0306728-22.2608 0-33.3874C.038341 25.1209 2.53822 20.7963 6.58702 18.4345 16.2029 12.8521 25.8497 7.28478 35.4963 1.74835Zm2.5764 4.4781C28.4261 11.7552 18.7947 17.3223 9.17878 22.9048c-2.46149 1.4339-3.97957 4.0641-3.98723 6.9167-.03068 11.1112-.03068 22.2378 0 33.3566.00766 2.8449 1.52574 5.483 3.98723 6.9093C18.7947 75.6775 28.4259 81.2369 38.0648 86.7657c2.4768 1.4186 5.5134 1.4186 7.9902 0 9.6389-5.5288 19.2782-11.0882 28.8864-16.6783 2.4615-1.4263 3.9874-4.0644 3.9951-6.9093.0307-11.1188.0307-22.2454 0-33.3566-.0077-2.8526-1.5336-5.4828-3.9951-6.9167-9.6082-5.5825-19.2475-11.1496-28.8864-16.67835-2.4768-1.41861-5.5132-1.41861-7.9823 0Z" fill="#000091" id="path1"/>
  <path d="M42.5 24.625c-12.0556 0-21.875 9.8194-21.875 21.875S30.4444 68.375 42.5 68.375 64.375 58.5556 64.375 46.5 54.5556 24.625 42.5 24.625zm0 40.1042c-10.0625 0-18.2292-8.1667-18.2292-18.2292 0-10.0625 8.1667-18.2292 18.2292-18.2292 10.0625 0 18.2292 8.1667 18.2292 18.2292 0 10.0625-8.1667 18.2292-18.2292 18.2292zm5.5903-28.6806c1.4826 1.4826 2.309 3.4757 2.309 5.5903 0 2.1146-.8264 4.0833-2.309 5.5903-1.0452 1.0451-2.3577 1.7743-3.7674 2.0902v.8264c0 .9966-.8264 1.823-1.8229 1.823-.9965 0-1.8229-.8264-1.8229-1.823v-2.4305c0-.9965.8264-1.8229 1.8229-1.8229 1.1424 0 2.2118-.4375 3.0139-1.2396.8021-.8021 1.2396-1.8716 1.2396-3.0139 0-1.1424-.4375-2.2118-1.2396-3.0139-1.6042-1.6042-4.3993-1.6042-6.0035 0-.8021.8021-1.2396 1.8715-1.2396 3.0139 0 .9965-.8264 1.8229-1.8229 1.8229-.9965 0-1.8229-.8264-1.8229-1.8229 0-2.1146.8264-4.0833 2.309-5.5903 2.9896-2.9896 8.191-2.9896 11.1806 0zm-3.1597 20.7813c0 1.3368-1.0938 2.4305-2.4306 2.4305s-2.4306-1.0937-2.4306-2.4305 1.0938-2.4306 2.4306-2.4306 2.4306 1.0938 2.4306 2.4306z" fill="#000091" id="path1-5"/>
</svg>
