<svg width="166" height="62" viewBox="0 0 166 62" fill="none" xmlns="http://www.w3.org/2000/svg">
<g clip-path="url(#clip0_1703_2611)">
<path d="M7.0625 22.8596C7.0625 19.8209 9.40752 17.6186 13.6286 16.9217L20.0843 15.8344V14.803C20.0843 12.3218 18.2634 10.8164 15.6977 10.8164C13.5182 10.8164 11.8353 11.82 10.6766 13.4648L7.64186 11.0952C9.40752 8.69774 12.2767 7.19234 15.8356 7.19234C21.2154 7.19234 24.1674 10.3983 24.1674 14.8308V28.1285H20.0843V25.8425C18.6497 27.5709 16.1667 28.7139 13.7113 28.7139C9.76617 28.7139 7.0625 26.428 7.0625 22.8596ZM14.4562 25.3407C16.9392 25.3407 18.8704 24.142 20.0567 22.2184V18.7616L14.6769 19.6815C12.194 20.1276 11.1456 21.1869 11.1456 22.7202C11.1732 24.2535 12.4147 25.3407 14.4562 25.3407ZM26.3469 7.97292H30.43V9.92435C31.9197 8.33533 33.9061 7.16446 36.7477 7.16446C41.1343 7.16446 44.5001 10.1474 44.5001 16.0017V28.1006H40.3894V16.169C40.3894 12.963 38.6513 11.0673 35.8097 11.0673C33.0785 11.0673 31.4507 12.7958 30.43 14.5521V28.1285H26.3469V7.97292ZM23.5604 47.9495L26.8435 50.4864C24.9674 53.0233 21.9879 54.6681 18.2083 54.6681C11.3663 54.6681 7.0625 49.5664 7.0625 43.5449C7.0625 37.5233 11.3663 32.4217 18.2083 32.4217C21.9327 32.4217 24.9674 34.0664 26.8435 36.6033L23.5604 39.1402C22.4293 37.5512 20.5533 36.4082 18.2083 36.4082C14.2907 36.4082 11.4491 39.5305 11.4491 43.5727C11.4491 47.6708 14.2907 50.7373 18.2634 50.7373C20.5533 50.6815 22.4017 49.5386 23.5604 47.9495ZM33.2716 37.4396H28.8574V33.7319H33.2716V28.686H37.3823V33.7319H44.5001V37.4396H37.3823V46.8623C37.3823 49.5664 38.8169 50.4585 41.0239 50.4585C42.3758 50.4585 43.8104 50.2913 44.5277 50.0125V53.6366C43.5897 54.0269 41.9344 54.222 40.417 54.222C35.7545 54.222 33.2992 51.7409 33.2992 46.8344V37.4396H33.2716ZM47.2589 4.40457V7.16446H51.2317V3.28946C51.2317 1.89558 49.9902 0.473815 48.6108 0.362305H44.5001V4.20943L47.2589 4.40457Z" fill="#274185"/>
<path d="M47.2593 57.5116V54.7517H51.2321V58.6267C51.2321 60.0206 49.9906 61.4424 48.6112 61.5539H44.5005V57.7067L47.2593 57.5116Z" fill="#FFCB05"/>
<path d="M4.30404 57.5116V54.7517H0.358887V58.6267C0.358887 60.0206 1.60037 61.4424 2.97979 61.5539H7.09048V57.7067L4.30404 57.5116Z" fill="#5C72B7"/>
<path d="M4.30404 4.40457V7.16446H0.358887V3.28946C0.358887 1.89558 1.60037 0.473815 2.97979 0.362305H7.09048V4.20943L4.30404 4.40457Z" fill="#008473"/>
<path d="M64.8053 19.1242C64.8053 18.3994 65.357 17.8976 66.3502 17.7303L67.9228 17.4794V17.1449C67.9228 16.4758 67.4538 16.1134 66.7916 16.1134C66.2399 16.1134 65.826 16.3643 65.5226 16.7825L64.9156 16.3085C65.3294 15.751 65.9916 15.3886 66.8192 15.3886C68.0055 15.3886 68.7228 16.0855 68.7228 17.1449V20.3229H67.9228V19.7096C67.5641 20.1835 66.9572 20.4344 66.3502 20.4344C65.4398 20.4344 64.8053 19.9326 64.8053 19.1242ZM66.4882 19.7932C67.1227 19.7932 67.6193 19.4866 67.9228 18.9848V18.0648L66.5433 18.2879C65.9088 18.3994 65.6053 18.706 65.6053 19.0963C65.6053 19.4866 65.9364 19.7932 66.4882 19.7932ZM72.1438 19.9605C71.9231 19.7932 71.8127 19.5423 71.8127 19.2914C71.8127 18.9012 72.0059 18.5945 72.3645 18.3715C71.9507 18.0648 71.7024 17.5909 71.7024 17.0612C71.7024 16.1413 72.4197 15.3886 73.5232 15.3886C73.8543 15.3886 74.1854 15.4722 74.4336 15.5837H76.1717V16.2807H75.151C75.2889 16.5037 75.3441 16.7825 75.3441 17.0612C75.3441 17.9533 74.6544 18.7339 73.5232 18.7339C73.3025 18.7339 73.0542 18.706 72.8611 18.6503C72.668 18.7897 72.5576 18.9569 72.5576 19.1521C72.5576 19.3472 72.668 19.4866 72.9439 19.4866H74.2957C75.5372 19.4866 76.1165 20.0999 76.1165 20.9362C76.1165 21.9398 75.1234 22.6647 73.7164 22.6647C72.3369 22.6647 71.4265 22.1071 71.4265 21.1593C71.4541 20.6853 71.6748 20.295 72.1438 19.9605ZM73.7439 21.9956C74.7371 21.9956 75.3441 21.6053 75.3441 20.992C75.3441 20.5459 75.0958 20.1835 74.2681 20.1835H72.7508C72.4197 20.4344 72.2266 20.7132 72.2266 21.0756C72.2266 21.6332 72.8059 21.9956 73.7439 21.9956ZM74.6268 17.0612C74.6268 16.4758 74.2405 16.0019 73.5508 16.0019C72.8611 16.0019 72.4749 16.4758 72.4749 17.0612C72.4749 17.6467 72.8611 18.0927 73.5508 18.0927C74.2405 18.0927 74.6268 17.6188 74.6268 17.0612ZM80.8066 20.4902C79.234 20.4902 78.2409 19.3193 78.2409 17.9254C78.2409 16.4758 79.1513 15.3607 80.6135 15.3607C81.8825 15.3607 82.7102 16.2528 82.7102 17.4236C82.7102 17.6188 82.6826 17.7861 82.655 17.9254H79.0409C79.0685 19.0684 79.7858 19.7375 80.779 19.7375C81.386 19.7375 81.8825 19.4587 82.2136 19.0406L82.793 19.5145C82.3791 20.1278 81.6618 20.4902 80.8066 20.4902ZM79.0961 17.34H81.9101C81.8825 16.6431 81.4135 16.0576 80.5859 16.0576C79.8134 16.0576 79.2616 16.5037 79.0961 17.34ZM85.7174 15.5558H86.5174V16.0855C86.9037 15.6673 87.3727 15.3607 88.09 15.3607C89.1383 15.3607 89.9108 16.0855 89.9108 17.4236V20.295H89.1107V17.4794C89.1107 16.6431 88.6417 16.1413 87.8968 16.1413C87.2071 16.1413 86.7933 16.5316 86.4898 17.0334V20.3229H85.6898V15.5558H85.7174ZM96.6976 19.0406L97.3321 19.5145C96.8907 20.0999 96.201 20.4902 95.3457 20.4902C93.8008 20.4902 92.8076 19.3193 92.8076 17.9254C92.8076 16.5316 93.8008 15.3607 95.3457 15.3607C96.201 15.3607 96.8907 15.751 97.3321 16.3364L96.6976 16.8103C96.4217 16.3922 95.9251 16.1134 95.3457 16.1134C94.3526 16.1134 93.6352 16.9218 93.6352 17.9254C93.6352 18.929 94.3526 19.7375 95.3733 19.7375C95.9251 19.7375 96.3941 19.4587 96.6976 19.0406ZM102.05 20.4902C100.477 20.4902 99.484 19.3193 99.484 17.9254C99.484 16.4758 100.394 15.3607 101.857 15.3607C103.126 15.3607 103.953 16.2528 103.953 17.4236C103.953 17.6188 103.926 17.7861 103.898 17.9254H100.284C100.312 19.0684 101.029 19.7375 102.022 19.7375C102.629 19.7375 103.126 19.4587 103.457 19.0406L104.036 19.5145C103.622 20.1278 102.933 20.4902 102.05 20.4902ZM100.367 17.34H103.181C103.153 16.6431 102.684 16.0576 101.857 16.0576C101.057 16.0576 100.532 16.5037 100.367 17.34ZM111.154 15.5558H111.954V16.0855C112.34 15.6673 112.809 15.3607 113.527 15.3607C114.575 15.3607 115.375 16.0855 115.375 17.4236V20.295H114.575V17.4794C114.575 16.6431 114.106 16.1413 113.361 16.1413C112.671 16.1413 112.257 16.5316 111.954 17.0334V20.3229H111.154V15.5558ZM118.355 19.1242C118.355 18.3994 118.906 17.8976 119.9 17.7303L121.472 17.4794V17.1449C121.472 16.4758 121.003 16.1134 120.341 16.1134C119.789 16.1134 119.375 16.3643 119.072 16.7825L118.465 16.3085C118.879 15.751 119.541 15.3886 120.368 15.3886C121.555 15.3886 122.272 16.0855 122.272 17.1449V20.3229H121.472V19.7096C121.113 20.1835 120.506 20.4344 119.9 20.4344C118.989 20.4344 118.355 19.9326 118.355 19.1242ZM120.037 19.7932C120.672 19.7932 121.169 19.4866 121.472 18.9848V18.0648L120.093 18.2879C119.458 18.3994 119.155 18.706 119.155 19.0963C119.155 19.4866 119.486 19.7932 120.037 19.7932ZM125.803 16.2807H124.921V15.5558H125.803V14.3571H126.604V15.5558H128.231V16.2807H126.604V18.706C126.604 19.4587 126.99 19.6539 127.542 19.6539C127.845 19.6539 128.066 19.626 128.231 19.5423V20.2672C128.011 20.3508 127.762 20.4066 127.431 20.4066C126.383 20.4066 125.803 19.8769 125.803 18.7339V16.2807ZM130.962 13.7717C130.962 13.465 131.211 13.2141 131.514 13.2141C131.818 13.2141 132.066 13.465 132.066 13.7717C132.066 14.0783 131.818 14.3292 131.514 14.3292C131.211 14.3292 130.962 14.0783 130.962 13.7717ZM131.128 15.5558H131.928V20.295H131.128V15.5558ZM139.956 17.9254C139.956 19.3193 138.936 20.4902 137.418 20.4902C135.901 20.4902 134.88 19.3193 134.88 17.9254C134.88 16.5316 135.901 15.3607 137.418 15.3607C138.908 15.3886 139.956 16.5594 139.956 17.9254ZM139.101 17.9254C139.101 16.9497 138.384 16.1134 137.418 16.1134C136.425 16.1134 135.708 16.9218 135.708 17.9254C135.708 18.9012 136.425 19.7375 137.418 19.7375C138.384 19.7375 139.101 18.929 139.101 17.9254ZM142.908 15.5558H143.708V16.0855C144.095 15.6673 144.564 15.3607 145.281 15.3607C146.329 15.3607 147.129 16.0855 147.129 17.4236V20.295H146.329V17.4794C146.329 16.6431 145.86 16.1413 145.115 16.1413C144.426 16.1413 144.012 16.5316 143.708 17.0334V20.3229H142.908V15.5558ZM150.081 19.1242C150.081 18.3994 150.633 17.8976 151.626 17.7303L153.199 17.4794V17.1449C153.199 16.4758 152.73 16.1134 152.068 16.1134C151.516 16.1134 151.102 16.3643 150.799 16.7825L150.192 16.3085C150.605 15.751 151.268 15.3886 152.095 15.3886C153.282 15.3886 153.999 16.0855 153.999 17.1449V20.3229H153.199V19.7096C152.84 20.1835 152.233 20.4344 151.626 20.4344C150.716 20.4344 150.081 19.9326 150.081 19.1242ZM151.764 19.7932C152.399 19.7932 152.895 19.4866 153.199 18.9848V18.0648L151.819 18.2879C151.185 18.3994 150.881 18.706 150.881 19.0963C150.881 19.4866 151.212 19.7932 151.764 19.7932ZM157.254 13.242H158.054V20.295H157.254V13.242ZM163.572 20.4902C162 20.4902 161.006 19.3193 161.006 17.9254C161.006 16.4758 161.917 15.3607 163.379 15.3607C164.648 15.3607 165.476 16.2528 165.476 17.4236C165.476 17.6188 165.448 17.7861 165.421 17.9254H161.806C161.834 19.0684 162.551 19.7375 163.544 19.7375C164.151 19.7375 164.676 19.4587 164.979 19.0406L165.558 19.5145C165.145 20.1278 164.455 20.4902 163.572 20.4902ZM161.889 17.34H164.703C164.676 16.6431 164.207 16.0576 163.379 16.0576C162.579 16.0576 162.055 16.5037 161.889 17.34ZM67.0951 27.1251C67.7848 27.1251 68.3366 27.4039 68.7504 27.8778V25.0064H69.5505V32.0594H68.7504V31.5019C68.3366 31.9758 67.7848 32.2546 67.0951 32.2546C65.6329 32.2546 64.6949 31.0837 64.6949 29.6898C64.6673 28.3238 65.6329 27.1251 67.0951 27.1251ZM67.1779 31.5019C67.84 31.5019 68.4194 31.1952 68.7504 30.6377V28.7699C68.3918 28.2123 67.8124 27.9057 67.1779 27.9057C66.1847 27.9057 65.5226 28.7141 65.5226 29.7177C65.5226 30.6934 66.1847 31.5019 67.1779 31.5019ZM75.0406 32.2546C73.4681 32.2546 72.4749 31.0837 72.4749 29.6898C72.4749 28.2402 73.3853 27.1251 74.8475 27.1251C76.1165 27.1251 76.9442 28.0172 76.9442 29.188C76.9442 29.3832 76.9166 29.5504 76.889 29.6898H73.2749C73.3025 30.8328 74.0198 31.5019 75.013 31.5019C75.62 31.5019 76.1441 31.2231 76.4476 30.8049L77.027 31.2789C76.6131 31.8922 75.9234 32.2546 75.0406 32.2546ZM73.3577 29.1044H76.1717C76.1441 28.4075 75.6751 27.822 74.8475 27.822C74.075 27.822 73.5232 28.2681 73.3577 29.1044ZM84.1724 25.0064H84.9725V32.0594H84.1724V25.0064ZM88.0348 30.8886C88.0348 30.1638 88.5866 29.662 89.5797 29.4947L91.1523 29.2438V28.9093C91.1523 28.2402 90.6833 27.8778 90.0212 27.8778C89.4694 27.8778 89.0556 28.1287 88.7521 28.5468L88.1451 28.0729C88.559 27.5154 89.2211 27.153 90.0487 27.153C91.235 27.153 91.9523 27.8499 91.9523 28.9093V32.0594H91.1523V31.4461C90.7936 31.92 90.1867 32.1709 89.5797 32.1709C88.6693 32.1988 88.0348 31.697 88.0348 30.8886ZM89.7177 31.5298C90.3522 31.5298 90.8488 31.2231 91.1523 30.7213V29.8013L89.7729 30.0244C89.1383 30.1359 88.8348 30.4425 88.8348 30.8328C88.8348 31.251 89.1659 31.5298 89.7177 31.5298ZM102.905 30.8049L103.54 31.2789C103.098 31.8643 102.408 32.2546 101.553 32.2546C100.008 32.2546 99.015 31.0837 99.015 29.6898C99.015 28.2959 100.008 27.1251 101.553 27.1251C102.408 27.1251 103.098 27.5154 103.54 28.1008L102.905 28.5747C102.629 28.1566 102.133 27.8778 101.553 27.8778C100.56 27.8778 99.8427 28.6862 99.8427 29.6898C99.8427 30.6934 100.56 31.5019 101.581 31.5019C102.16 31.5019 102.629 31.2231 102.905 30.8049ZM110.795 29.6898C110.795 31.0837 109.775 32.2546 108.257 32.2546C106.74 32.2546 105.719 31.0837 105.719 29.6898C105.719 28.2959 106.74 27.1251 108.257 27.1251C109.775 27.1251 110.795 28.3238 110.795 29.6898ZM109.968 29.6898C109.968 28.7141 109.25 27.8778 108.285 27.8778C107.292 27.8778 106.574 28.6862 106.574 29.6898C106.574 30.6656 107.292 31.5019 108.285 31.5019C109.25 31.5019 109.968 30.6656 109.968 29.6898ZM113.747 25.0064H114.547V27.8499C114.934 27.4317 115.403 27.1251 116.12 27.1251C117.168 27.1251 117.941 27.8499 117.941 29.188V32.0594H117.141V29.2159C117.141 28.3796 116.672 27.8778 115.927 27.8778C115.237 27.8778 114.823 28.2959 114.52 28.7699V32.0594H113.72V25.0064H113.747ZM123.376 32.2546C121.803 32.2546 120.81 31.0837 120.81 29.6898C120.81 28.2402 121.72 27.1251 123.183 27.1251C124.452 27.1251 125.279 28.0172 125.279 29.188C125.279 29.3832 125.252 29.5504 125.224 29.6898H121.61C121.638 30.8328 122.355 31.5019 123.348 31.5019C123.955 31.5019 124.479 31.2231 124.783 30.8049L125.362 31.2789C124.948 31.8922 124.258 32.2546 123.376 32.2546ZM121.665 29.1044H124.479C124.452 28.4075 123.983 27.822 123.155 27.822C122.382 27.822 121.858 28.2681 121.665 29.1044ZM122.824 26.5675L123.789 25.0064H124.672L123.596 26.5675H122.824ZM128.314 30.9443C128.645 31.3625 129.031 31.5855 129.5 31.5855C130.024 31.5855 130.328 31.2789 130.328 30.8607C130.328 29.8013 127.983 30.1637 127.983 28.4911C127.983 27.7384 128.617 27.1251 129.5 27.1251C130.162 27.1251 130.742 27.4317 131.073 27.9057L130.521 28.3796C130.273 28.0172 129.914 27.7941 129.5 27.7941C129.004 27.7941 128.728 28.1008 128.728 28.4632C128.728 29.5226 131.073 29.188 131.073 30.8049C131.073 31.697 130.356 32.2546 129.5 32.2546C128.755 32.2546 128.176 31.9479 127.735 31.4182L128.314 30.9443ZM133.914 25.5361C133.914 25.2294 134.163 24.9785 134.466 24.9785C134.77 24.9785 135.018 25.2294 135.018 25.5361C135.018 25.8427 134.77 26.0936 134.466 26.0936C134.163 26.0936 133.914 25.8427 133.914 25.5361ZM134.052 27.3202H134.852V32.0594H134.052V27.3202ZM142.881 29.6898C142.881 31.0837 141.86 32.2546 140.343 32.2546C138.825 32.2546 137.804 31.0837 137.804 29.6898C137.804 28.2959 138.825 27.1251 140.343 27.1251C141.86 27.1251 142.881 28.3238 142.881 29.6898ZM142.053 29.6898C142.053 28.7141 141.336 27.8778 140.37 27.8778C139.377 27.8778 138.66 28.6862 138.66 29.6898C138.66 30.6656 139.377 31.5019 140.37 31.5019C141.336 31.5019 142.053 30.6656 142.053 29.6898ZM145.833 27.3202H146.633V27.8499C147.019 27.4317 147.488 27.1251 148.205 27.1251C149.254 27.1251 150.054 27.8499 150.054 29.188V32.0594H149.254V29.2159C149.254 28.3796 148.785 27.8778 148.04 27.8778C147.35 27.8778 146.936 28.2681 146.633 28.7699V32.0594H145.833V27.3202ZM67.0951 38.8895C67.7848 38.8895 68.3366 39.1682 68.7504 39.6422V36.7708H69.5505V43.8238H68.7504V43.2663C68.3366 43.7402 67.7848 44.019 67.0951 44.019C65.6329 44.019 64.6949 42.8481 64.6949 41.4542C64.6949 40.0603 65.6329 38.8895 67.0951 38.8895ZM67.1779 43.2663C67.84 43.2663 68.4194 42.9596 68.7504 42.4021V40.5343C68.3918 39.9767 67.8124 39.67 67.1779 39.67C66.1847 39.67 65.5226 40.4785 65.5226 41.4821C65.5226 42.4857 66.1847 43.2663 67.1779 43.2663ZM75.0406 44.019C73.4681 44.019 72.4749 42.8481 72.4749 41.4542C72.4749 40.0046 73.3853 38.8895 74.8475 38.8895C76.1165 38.8895 76.9442 39.7816 76.9442 40.9524C76.9442 41.1476 76.9166 41.3148 76.889 41.4542H73.2749C73.3025 42.5972 74.0198 43.2663 75.013 43.2663C75.62 43.2663 76.1441 42.9875 76.4476 42.5693L77.027 43.0432C76.6131 43.6566 75.9234 44.019 75.0406 44.019ZM73.3577 40.8688H76.1717C76.1441 40.1718 75.6751 39.5864 74.8475 39.5864C74.075 39.5864 73.5232 40.0325 73.3577 40.8688ZM80.0065 42.7087C80.3376 43.1269 80.7238 43.3499 81.1928 43.3499C81.717 43.3499 82.0205 43.0432 82.0205 42.6251C82.0205 41.5657 79.6755 41.9281 79.6755 40.2555C79.6755 39.5028 80.31 38.8895 81.1928 38.8895C81.855 38.8895 82.4343 39.1961 82.7654 39.67L82.2136 40.144C81.9653 39.7816 81.6067 39.5585 81.1928 39.5585C80.6962 39.5585 80.4204 39.8652 80.4204 40.2276C80.4204 41.287 82.7654 40.9524 82.7654 42.5693C82.7654 43.4614 82.0481 44.019 81.1928 44.019C80.4479 44.019 79.8686 43.7123 79.4272 43.1826L80.0065 42.7087ZM90.2143 39.8094H89.3314V39.0846H90.2143V37.9138H91.0143V39.1125H92.6421V39.8373H91.0143V42.2627C91.0143 43.0154 91.4006 43.2105 91.9523 43.2105C92.2558 43.2105 92.4765 43.1826 92.6421 43.099V43.8238C92.4214 43.9075 92.1731 43.9632 91.842 43.9632C90.7936 43.9632 90.2143 43.4335 90.2143 42.2905V39.8094ZM97.5804 44.019C96.0079 44.019 95.0147 42.8481 95.0147 41.4542C95.0147 40.0046 95.9251 38.8895 97.3873 38.8895C98.6564 38.8895 99.484 39.7816 99.484 40.9524C99.484 41.1476 99.4564 41.3148 99.4288 41.4542H95.8147C95.8423 42.5972 96.5596 43.2663 97.5528 43.2663C98.1598 43.2663 98.6563 42.9875 98.9874 42.5693L99.5668 43.0432C99.1529 43.6566 98.4632 44.019 97.5804 44.019ZM95.8975 40.8688H98.7115C98.6839 40.1718 98.2149 39.5864 97.3873 39.5864C96.5872 39.5864 96.063 40.0325 95.8975 40.8688ZM102.519 39.0846H103.319V39.67C103.65 39.2519 104.091 38.9731 104.698 38.9731C104.836 38.9731 104.974 39.001 105.112 39.0289V39.8094C104.974 39.7816 104.836 39.7537 104.643 39.7537C104.036 39.7537 103.622 40.0603 103.346 40.5621V43.8238H102.546V39.0846H102.519ZM107.899 39.0846H108.699V39.67C109.03 39.2519 109.471 38.9731 110.078 38.9731C110.216 38.9731 110.354 39.001 110.492 39.0289V39.8094C110.354 39.7816 110.216 39.7537 110.023 39.7537C109.416 39.7537 109.002 40.0603 108.726 40.5621V43.8238H107.926V39.0846H107.899ZM113.113 37.3004C113.113 36.9938 113.361 36.7429 113.664 36.7429C113.968 36.7429 114.216 36.9938 114.216 37.3004C114.216 37.6071 113.968 37.858 113.664 37.858C113.361 37.858 113.113 37.6071 113.113 37.3004ZM113.251 39.0846H114.051V43.8238H113.251V39.0846ZM117.665 39.8094H116.782V39.0846H117.665V37.9138H118.465V39.1125H120.093V39.8373H118.465V42.2627C118.465 43.0154 118.851 43.2105 119.403 43.2105C119.706 43.2105 119.927 43.1826 120.093 43.099V43.8238C119.872 43.9075 119.624 43.9632 119.293 43.9632C118.244 43.9632 117.665 43.4335 117.665 42.2905V39.8094ZM127.569 41.4542C127.569 42.8481 126.548 44.019 125.031 44.019C123.514 44.019 122.493 42.8481 122.493 41.4542C122.493 40.0603 123.514 38.8895 125.031 38.8895C126.548 38.8895 127.569 40.0882 127.569 41.4542ZM126.741 41.4542C126.741 40.4785 126.024 39.6422 125.059 39.6422C124.065 39.6422 123.348 40.4506 123.348 41.4542C123.348 42.4578 124.065 43.2663 125.059 43.2663C126.024 43.2663 126.741 42.4299 126.741 41.4542ZM130.383 37.3004C130.383 36.9938 130.631 36.7429 130.935 36.7429C131.238 36.7429 131.487 36.9938 131.487 37.3004C131.487 37.6071 131.238 37.858 130.935 37.858C130.631 37.858 130.383 37.6071 130.383 37.3004ZM130.521 39.0846H131.321V43.8238H130.521V39.0846ZM134.687 39.0846H135.487V39.67C135.818 39.2519 136.259 38.9731 136.866 38.9731C137.004 38.9731 137.142 39.001 137.28 39.0289V39.8094C137.142 39.7816 137.004 39.7537 136.811 39.7537C136.204 39.7537 135.79 40.0603 135.515 40.5621V43.8238H134.715V39.0846H134.687ZM141.943 44.019C140.37 44.019 139.377 42.8481 139.377 41.4542C139.377 40.0046 140.287 38.8895 141.75 38.8895C143.019 38.8895 143.846 39.7816 143.846 40.9524C143.846 41.1476 143.819 41.3148 143.791 41.4542H140.177C140.205 42.5972 140.922 43.2663 141.915 43.2663C142.522 43.2663 143.019 42.9875 143.35 42.5693L143.929 43.0432C143.515 43.6566 142.798 44.019 141.943 44.019ZM140.232 40.8688H143.046C143.019 40.1718 142.55 39.5864 141.722 39.5864C140.95 39.5864 140.398 40.0325 140.232 40.8688ZM146.881 42.7087C147.212 43.1269 147.598 43.3499 148.067 43.3499C148.592 43.3499 148.895 43.0432 148.895 42.6251C148.895 41.5657 146.55 41.9281 146.55 40.2555C146.55 39.5028 147.185 38.8895 148.067 38.8895C148.729 38.8895 149.309 39.1961 149.64 39.67L149.088 40.144C148.84 39.7816 148.481 39.5585 148.067 39.5585C147.571 39.5585 147.295 39.8652 147.295 40.2276C147.295 41.287 149.64 40.9524 149.64 42.5693C149.64 43.4614 148.923 44.019 148.067 44.019C147.322 44.019 146.743 43.7123 146.302 43.1826L146.881 42.7087Z" fill="#274185"/>
</g>
<defs>
<clipPath id="clip0_1703_2611">
<rect width="166" height="62" fill="white"/>
</clipPath>
</defs>
</svg>