<svg width="117" height="90" viewBox="0 0 117 90" fill="none" xmlns="http://www.w3.org/2000/svg">
<rect width="33" height="12" fill="white"/>
<path d="M10.6562 10.5498C10.6602 10.5498 10.6642 10.5439 10.6642 10.5439C10.696 10.5203 10.7279 10.4909 10.7558 10.4556C10.7518 10.4556 10.7478 10.4556 10.7438 10.4498C10.7159 10.4792 10.6841 10.5145 10.6562 10.5498Z" fill="#000091"/>
<path d="M15.0694 9.06287L14.9997 9.12287C15.0396 9.11287 15.0694 9.10287 15.0694 9.06287Z" fill="#000091"/>
<path fill-rule="evenodd" clip-rule="evenodd" d="M13.6426 10.5817C13.7704 10.4532 13.8983 10.3168 14.0261 10.1765H14.0222C14.2624 9.90382 14.4948 9.64278 14.7737 9.40512C14.8589 9.3272 14.9402 9.26097 15.0177 9.20642C15.0291 9.19498 15.0349 9.17793 15.0406 9.16122C15.0465 9.1438 15.0523 9.12676 15.0642 9.11681C15.009 9.13788 14.965 9.17119 14.9207 9.20471C14.8749 9.23936 14.8289 9.27424 14.7698 9.29603C14.7466 9.29603 14.7233 9.27266 14.7466 9.24928C14.8279 9.19084 14.9092 9.1285 14.9867 9.06616H14.9712C14.948 9.06616 14.948 9.04279 14.948 9.01941C14.6596 8.97361 14.4381 9.17082 14.2399 9.34735L14.2275 9.35837C14.1966 9.37389 14.1675 9.35849 14.1446 9.3464C14.133 9.34027 14.123 9.33499 14.1152 9.33499C13.9398 9.39381 13.7885 9.50223 13.6362 9.61137C13.4959 9.7119 13.3548 9.81303 13.1933 9.87655V9.82979C13.1384 9.84871 13.0842 9.87338 13.0298 9.8981C12.9498 9.93447 12.8696 9.97098 12.7865 9.98953C12.6349 10.0247 12.4943 10.0202 12.358 10.0158C12.3133 10.0143 12.2689 10.0129 12.2249 10.0129C11.9768 10.0375 11.7319 10.0906 11.4872 10.1437L11.4076 10.161C11.4037 10.1629 11.3998 10.1639 11.3959 10.1649C11.3921 10.1658 11.3882 10.1668 11.3843 10.1688C11.2371 10.2077 11.1016 10.2623 10.966 10.3402L10.9505 10.348C10.9452 10.3551 10.9398 10.3614 10.9349 10.3673C10.929 10.3743 10.9237 10.3806 10.9195 10.3869C10.873 10.4415 10.8304 10.4882 10.7646 10.5233C10.6673 10.5722 10.5832 10.6476 10.5005 10.7219C10.4647 10.754 10.429 10.7861 10.3927 10.8155C10.385 10.8233 10.3695 10.8272 10.3578 10.8272C10.2378 10.9441 10.1177 11.061 9.99373 11.1739C9.98598 11.1817 9.95112 11.1856 9.924 11.1817C9.924 11.1817 9.92788 11.1817 9.92788 11.1778L9.9395 11.1545L9.9976 11.061C10.0092 11.0434 10.0199 11.0259 10.0305 11.0084C10.0412 10.9908 10.0518 10.9733 10.0635 10.9558C10.0944 10.909 10.1255 10.8622 10.1603 10.8194C10.168 10.8077 10.168 10.796 10.1603 10.7882C10.1525 10.7804 10.1409 10.7765 10.1293 10.7765C10.2416 10.6675 10.3733 10.5739 10.5089 10.4921V10.4882C10.4934 10.4921 10.4702 10.4804 10.4818 10.4649C10.4932 10.4506 10.5024 10.4342 10.5112 10.4188L10.5205 10.4025C10.5225 10.3986 10.5234 10.3957 10.5244 10.3928C10.5254 10.3899 10.5263 10.3869 10.5283 10.383C10.5263 10.3791 10.5234 10.3762 10.5205 10.3733C10.5176 10.3704 10.5147 10.3675 10.5128 10.3636L10.4893 10.3791C10.4612 10.3974 10.4324 10.4163 10.4082 10.4376C10.3911 10.4523 10.3751 10.4725 10.3588 10.4932C10.3232 10.5382 10.2857 10.5856 10.23 10.5856C10.2261 10.5856 10.2068 10.5856 10.1952 10.5817C10.1835 10.5817 10.1758 10.5778 10.1719 10.5739C10.1719 10.572 10.1719 10.571 10.1724 10.5705C10.1729 10.57 10.1738 10.57 10.1758 10.57C10.1758 10.57 10.1797 10.5662 10.1797 10.5623C10.1797 10.5623 10.1797 10.5584 10.1835 10.5584C10.1855 10.5545 10.1874 10.5515 10.1893 10.5486C10.1913 10.5457 10.1932 10.5428 10.1952 10.5389C10.1971 10.535 10.199 10.5321 10.201 10.5291C10.2029 10.5262 10.2048 10.5233 10.2068 10.5194C10.2087 10.5175 10.2097 10.5145 10.2106 10.5116C10.2116 10.5087 10.2126 10.5058 10.2145 10.5038L10.2189 10.4958C10.2227 10.4889 10.2273 10.4808 10.23 10.4726C10.2319 10.4688 10.2339 10.4658 10.2358 10.4629C10.2378 10.46 10.2397 10.4571 10.2416 10.4532C10.2474 10.4454 10.2523 10.4366 10.2571 10.4278C10.262 10.4191 10.2668 10.4103 10.2726 10.4025C10.2765 10.3947 10.2804 10.3869 10.2881 10.3791C10.292 10.3713 10.2959 10.3645 10.2997 10.3577C10.3036 10.3509 10.3075 10.3441 10.3114 10.3363C10.323 10.3168 10.3114 10.3012 10.2959 10.2973C10.3385 10.2428 10.3888 10.196 10.4508 10.161H10.4431C10.4965 10.1341 10.5515 10.1026 10.6062 10.0713C10.6384 10.0528 10.671 10.0341 10.7026 10.0168C10.7142 10.0051 10.7258 9.99343 10.7413 9.98564C10.6135 10.0285 10.4973 10.0869 10.385 10.1649C10.385 10.1649 10.354 10.1765 10.3462 10.1843C10.3462 10.1843 10.323 10.1921 10.292 10.1649C10.2881 10.161 10.2881 10.1571 10.2881 10.1493C10.3016 10.1222 10.3293 10.1043 10.3594 10.0849C10.3812 10.0708 10.4041 10.056 10.4237 10.0363C10.4469 10.0363 10.4663 10.0363 10.4663 10.0597C10.9124 9.70986 11.4625 9.62894 12.0144 9.54773C12.3539 9.49779 12.6941 9.44775 13.0112 9.33499C13.0441 9.31162 13.078 9.28921 13.1119 9.26681C13.1458 9.24441 13.1797 9.22201 13.2126 9.19863C13.2691 9.17512 13.3198 9.13485 13.3734 9.0922C13.4263 9.05005 13.4822 9.00558 13.5496 8.97266C13.7278 8.8363 13.8634 8.68045 13.9331 8.45058C13.9331 8.42721 13.9099 8.40383 13.9099 8.40383C13.6155 8.71941 13.2785 8.96876 12.9182 9.15188C12.5747 9.33312 12.2067 9.35998 11.8423 9.38657C11.7054 9.39656 11.569 9.40651 11.4347 9.4246C11.4579 9.37785 11.5044 9.37785 11.547 9.37785C11.547 9.32253 11.5735 9.29873 11.6075 9.26819C11.6166 9.26002 11.6263 9.25135 11.6361 9.24149H11.702C11.7136 9.24149 11.7194 9.2298 11.7252 9.21811C11.731 9.20642 11.7368 9.19473 11.7484 9.19473C11.7949 9.19473 11.8608 9.17136 11.8375 9.17136C11.802 9.12569 11.7504 9.14377 11.6934 9.16372C11.6386 9.18291 11.5789 9.20384 11.5238 9.17136C11.5443 9.14888 11.5504 9.12191 11.556 9.09736C11.5621 9.07083 11.5675 9.04714 11.5896 9.035H11.6787C11.6787 8.98824 11.7252 8.94539 11.7252 8.94539C11.9272 8.82393 12.1223 8.71789 12.3137 8.61381C12.4416 8.5443 12.568 8.47559 12.6936 8.40383C12.6682 8.40383 12.6456 8.41428 12.6238 8.42442C12.589 8.44055 12.5558 8.45592 12.5154 8.42721C12.5386 8.42721 12.5386 8.41065 12.5386 8.39409C12.5386 8.37753 12.5386 8.36097 12.5619 8.36097C12.7072 8.32215 12.8365 8.25923 12.9686 8.19497C13.0619 8.1496 13.1565 8.10357 13.2591 8.06487C13.2287 8.06487 13.2005 8.07307 13.173 8.08105C13.1201 8.09643 13.0699 8.11103 13.0112 8.06487C13.0266 8.05713 13.039 8.04725 13.0513 8.03751C13.076 8.01781 13.1002 7.99864 13.1468 7.99864V7.93241C13.1468 7.90903 13.17 7.90903 13.1933 7.90903C13.17 7.90903 13.1468 7.88565 13.1468 7.88565C13.1591 7.8609 13.1833 7.85581 13.2103 7.85013C13.2343 7.84509 13.2605 7.83959 13.2824 7.81942C13.2591 7.81942 13.2165 7.81942 13.2165 7.79604C13.2824 7.70643 13.3947 7.68306 13.507 7.65968C13.4954 7.6363 13.4731 7.6363 13.4538 7.6363C13.4344 7.6363 13.4179 7.6363 13.4179 7.61293C13.4179 7.58955 13.4412 7.58955 13.4644 7.58955H13.4179C13.3815 7.57121 13.3879 7.53847 13.3924 7.51581C13.3936 7.50959 13.3947 7.50414 13.3947 7.49994C13.4857 7.39273 13.5156 7.2662 13.5454 7.1404C13.5599 7.07877 13.5745 7.01732 13.5961 6.95839C13.5729 6.95839 13.5496 6.95839 13.5496 6.93501C13.3318 7.17674 12.9866 7.26835 12.6587 7.35536L12.6277 7.36358H12.5154C12.4031 7.41033 12.2443 7.41033 12.1319 7.3402C12.0785 7.31217 12.0404 7.27714 11.9993 7.2393C11.9718 7.21403 11.9429 7.18751 11.9073 7.16098C11.7252 7.048 11.547 6.95839 11.3456 6.88826C10.7839 6.70904 10.199 6.61553 9.61412 6.63891C9.77746 6.54907 9.95088 6.51334 10.1266 6.47714C10.2176 6.45839 10.3093 6.43952 10.4004 6.41294C10.458 6.39599 10.515 6.37852 10.5716 6.36114C10.8929 6.26265 11.2046 6.1671 11.547 6.18697C11.5022 6.17105 11.4448 6.1768 11.392 6.1821C11.3672 6.18458 11.3434 6.18697 11.3224 6.18697C11.0634 6.16767 10.8019 6.22533 10.529 6.28548C10.4712 6.29822 10.4129 6.31107 10.354 6.32333C10.2471 6.34557 10.1455 6.37751 10.0437 6.40951C9.93151 6.44476 9.81915 6.48008 9.69934 6.50255C9.64737 6.52047 9.60565 6.55098 9.56501 6.58071C9.49962 6.62853 9.43704 6.6743 9.3391 6.66229V6.59216C9.56376 6.31943 9.83491 6.0506 10.1952 6.02723C10.5434 5.97052 10.8717 6.01091 11.2142 6.05305C11.2718 6.06013 11.3297 6.06725 11.3882 6.07398C11.669 6.09657 11.9317 6.1592 12.2148 6.22669L12.2443 6.23372C12.3062 6.23372 12.3411 6.28827 12.3748 6.34111C12.4023 6.38404 12.429 6.42584 12.4689 6.43631C12.5241 6.45533 12.5792 6.45888 12.6344 6.46242C12.7148 6.46759 12.7952 6.47277 12.8756 6.52592C12.8756 6.51019 12.873 6.4949 12.8704 6.47976C12.8653 6.44989 12.8602 6.42058 12.8756 6.38956C12.9256 6.33929 12.9829 6.35278 13.0393 6.36606C13.0834 6.37645 13.127 6.38671 13.1662 6.36618C13.289 6.28995 13.1738 6.17293 13.0585 6.0558C13.0029 5.99932 12.9472 5.94283 12.9182 5.89086C12.9182 5.86749 12.9415 5.84411 12.9415 5.84411C12.9924 5.88971 13.0398 5.9369 13.0867 5.98369C13.2043 6.10078 13.3194 6.21532 13.4799 6.29606C13.5922 6.34281 13.8634 6.40904 13.8169 6.27268C13.7373 6.09607 13.6014 5.94291 13.4642 5.7883C13.4077 5.72462 13.351 5.66068 13.2979 5.59476V5.50515C13.2625 5.50515 13.2541 5.49166 13.2435 5.47494C13.2402 5.46964 13.2367 5.46402 13.232 5.4584V5.36879C13.1752 5.33899 13.1625 5.29178 13.1497 5.24431C13.1424 5.2173 13.1351 5.19021 13.1197 5.16619C13.0808 5.10327 13.0781 5.02586 13.0752 4.94605C13.0729 4.88255 13.0705 4.81753 13.0499 4.75711C13.0035 4.62074 12.9841 4.50776 12.9609 4.3714C12.9356 4.23189 12.9079 4.0985 12.8807 3.96791C12.8328 3.73744 12.7866 3.51566 12.7594 3.28439C12.7236 2.95382 12.8905 2.67425 13.0612 2.38846C13.1118 2.30374 13.1627 2.21846 13.2088 2.13115C13.3676 1.85843 13.5458 1.5896 13.8401 1.40648C13.9044 1.14049 14.0791 0.918965 14.253 0.69854L14.2662 0.681813C14.4379 0.467905 14.7245 0.337136 14.9357 0.240761L14.9596 0.229868C15.2734 0.0896097 15.5561 0 15.56 0H0V11.996H11.0396C11.3348 11.782 11.6283 11.6469 11.9775 11.4862C12.1369 11.4129 12.3079 11.3342 12.496 11.2402C12.5359 11.2201 12.5832 11.1968 12.6357 11.171C12.951 11.0159 13.4534 10.7687 13.6426 10.5817ZM10.1396 8.96329C10.0958 8.96769 10.0494 8.97235 10.0669 8.93716C10.0832 8.85831 10.1639 8.83467 10.2428 8.81158C10.2765 8.8017 10.31 8.79191 10.3378 8.77794L10.3505 8.77136L10.3598 8.76643C10.4035 8.74323 10.457 8.71483 10.4965 8.73134C10.5231 8.76919 10.5561 8.77895 10.5881 8.78845C10.612 8.79552 10.6353 8.80243 10.6551 8.82066C10.5714 8.90467 10.4737 8.91296 10.3747 8.92136C10.3089 8.92694 10.2425 8.93257 10.1791 8.96047C10.1678 8.96047 10.1538 8.96187 10.1396 8.96329ZM6.71263 8.41541C6.71263 8.43879 6.73587 8.46216 6.73587 8.46216C7.27817 7.85048 7.77011 7.32841 8.46735 6.89594C8.48601 6.88812 8.47907 6.89789 8.46984 6.91087C8.45609 6.93021 8.43727 6.95669 8.49059 6.9427C8.72141 6.89007 8.82508 6.69233 8.92594 6.49995C8.95202 6.45021 8.97791 6.40082 9.00577 6.35439C9.11155 6.18235 9.26178 6.07213 9.41317 5.96106C9.52234 5.88096 9.63212 5.80043 9.72625 5.69595C9.72625 5.71933 9.72625 5.74271 9.703 5.76608C9.72625 5.78946 9.74949 5.78946 9.77273 5.78946C9.81359 5.75863 9.8582 5.74587 9.90095 5.73364C9.95547 5.71805 10.007 5.70332 10.0439 5.6531C9.86569 5.58297 9.63715 5.55959 9.45897 5.62972C8.9864 5.85569 8.58355 6.21803 8.20007 6.62711C7.96766 6.87257 7.7275 7.10244 7.43311 7.26217C7.23169 7.66737 7.00702 8.0297 6.71263 8.41541ZM8.60369 6.9664C8.59155 6.99077 8.57942 7.00345 8.56783 7.01556C8.55726 7.02661 8.54714 7.0372 8.5379 7.05573C8.51469 7.10233 8.49147 7.12174 8.4489 7.14505C8.42568 7.14505 8.40246 7.14505 8.40246 7.12174C8.42568 7.03242 8.49147 6.9431 8.58047 6.9198C8.60369 6.92369 8.60369 6.94699 8.60369 6.9664ZM9.59422 10.4264C9.61357 10.4069 9.63679 10.3835 9.6484 10.3601C9.66775 10.3134 9.54778 10.3251 9.52843 10.3368C9.51088 10.3509 9.49969 10.365 9.4862 10.3821L9.48199 10.3874C9.46585 10.406 9.44696 10.4232 9.42778 10.4406C9.41477 10.4525 9.40163 10.4644 9.38912 10.477C9.33494 10.5316 9.28076 10.5861 9.22271 10.6368C9.18401 10.6718 9.30785 10.6874 9.33494 10.664C9.3659 10.6407 9.39299 10.6134 9.42008 10.5861C9.4304 10.5861 9.44072 10.5844 9.4476 10.5832L9.45233 10.5825L9.45491 10.5822C9.51906 10.5607 9.5668 10.516 9.61324 10.4726L9.62518 10.4614C9.64066 10.4459 9.62131 10.4303 9.59422 10.4264ZM9.24401 10.173C9.24357 10.1731 9.24326 10.1732 9.24304 10.1734C9.24256 10.1739 9.24256 10.1749 9.24256 10.1768C9.2188 10.1931 9.19535 10.2097 9.17194 10.2263C9.11139 10.2691 9.05116 10.3117 8.98691 10.3483C8.92546 10.3829 8.86246 10.4128 8.79889 10.4429C8.76226 10.4603 8.72545 10.4778 8.68864 10.4963C8.68864 10.4963 8.68864 10.4924 8.68477 10.4924C8.67702 10.4807 8.66153 10.4768 8.64604 10.4846C8.56082 10.5314 8.48722 10.5937 8.42137 10.6599C8.40975 10.6677 8.39813 10.6794 8.39038 10.6911L8.35552 10.7262V10.7301C8.34003 10.7457 8.32453 10.7612 8.30516 10.7846C8.30114 10.7887 8.29804 10.7927 8.29507 10.7966C8.28947 10.8039 8.2843 10.8107 8.27418 10.8158C8.25868 10.8236 8.21995 10.8236 8.22382 10.8002V10.7963C8.2122 10.8041 8.19671 10.8119 8.18508 10.8158C8.17927 10.8197 8.17346 10.8226 8.16765 10.8255C8.16184 10.8284 8.15603 10.8314 8.15022 10.8353C8.14635 10.8314 8.1386 10.8314 8.13473 10.8314C8.13086 10.8314 8.12311 10.8314 8.11923 10.8353C8.1102 10.8431 8.10116 10.8504 8.09212 10.8578C8.07404 10.8725 8.05597 10.8872 8.03789 10.9054C7.99141 10.9483 7.9488 10.995 7.90619 11.0457C7.90619 11.0457 7.90619 11.0495 7.90232 11.0495C7.90232 11.0515 7.90135 11.0525 7.90038 11.0534C7.89941 11.0544 7.89844 11.0554 7.89844 11.0573L7.8907 11.0651C7.88922 11.0666 7.8883 11.0681 7.88752 11.0694C7.88626 11.0714 7.88534 11.0729 7.88295 11.0729L7.87907 11.0768C7.8752 11.0846 7.87133 11.0924 7.86358 11.1002C7.85971 11.1041 7.85196 11.108 7.84421 11.108C7.84034 11.1041 7.83647 11.1002 7.83647 11.0963C7.83453 11.0944 7.83356 11.0924 7.83259 11.0905C7.83162 11.0885 7.83066 11.0866 7.82872 11.0846C7.82485 11.0788 7.82194 11.0729 7.81904 11.0671C7.81613 11.0612 7.81322 11.0554 7.80935 11.0495V11.0457C7.80935 11.0437 7.80838 11.0418 7.80741 11.0398C7.80645 11.0379 7.80548 11.0359 7.80548 11.034L7.8752 10.9521L7.87907 10.9483C7.88295 10.9444 7.88682 10.9395 7.89069 10.9346C7.89456 10.9298 7.89844 10.9249 7.90232 10.921C7.90813 10.9132 7.9149 10.9054 7.92168 10.8976C7.92846 10.8898 7.93524 10.882 7.94105 10.8742C7.94299 10.8703 7.94493 10.8674 7.94686 10.8645C7.9488 10.8616 7.95074 10.8586 7.95267 10.8547C7.97591 10.8236 7.99915 10.7924 8.0224 10.7573V10.7534C8.02627 10.7496 8.03014 10.7457 8.03014 10.7379C8.04176 10.7223 8.05339 10.7067 8.06113 10.6911L8.08437 10.6444V10.6405L8.08825 10.6366C8.08825 10.6346 8.08921 10.6336 8.09018 10.6327C8.09115 10.6317 8.09212 10.6307 8.09212 10.6288C8.09599 10.619 8.09986 10.6103 8.10373 10.6015C8.1076 10.5928 8.11149 10.584 8.11536 10.5742V10.5703L8.11923 10.5547C8.12117 10.5509 8.12214 10.547 8.12311 10.5431C8.12408 10.5392 8.12505 10.5353 8.12698 10.5314V10.5275C8.12892 10.5216 8.12989 10.5158 8.13086 10.5099C8.13182 10.5041 8.13279 10.4983 8.13473 10.4924C8.13473 10.4885 8.13473 10.4807 8.13086 10.4768C8.1541 10.434 8.18508 10.395 8.21995 10.356C8.21801 10.356 8.21607 10.357 8.21414 10.358C8.21303 10.3586 8.21191 10.3591 8.2108 10.3595C8.20998 10.3598 8.20915 10.3599 8.20833 10.3599C8.19109 10.3708 8.17624 10.3852 8.16113 10.4C8.14908 10.4117 8.13686 10.4236 8.12311 10.434C8.09987 10.4535 8.05338 10.4223 8.08437 10.3989C8.10374 10.3833 8.11923 10.3677 8.13472 10.3522C8.13472 10.3522 8.13473 10.3483 8.1386 10.3483C8.15404 10.3343 8.16887 10.3184 8.18381 10.3025C8.20635 10.2784 8.22919 10.254 8.25481 10.2353C8.28192 10.2158 8.30129 10.2002 8.32453 10.1807C8.3284 10.1768 8.33228 10.1729 8.33615 10.1729C8.35165 10.1535 8.36714 10.134 8.38651 10.1145C8.38651 10.1145 8.39038 10.1145 8.39038 10.1106C8.5234 9.98158 8.71032 9.93608 8.90111 9.88963C9.02144 9.86033 9.14332 9.83066 9.25418 9.77943C9.3168 9.75337 9.38663 9.76362 9.45564 9.77376C9.51044 9.78181 9.5647 9.78977 9.61442 9.77943C9.68027 9.77943 9.74999 9.77943 9.81584 9.82618C9.66268 9.90774 9.5165 10.001 9.37189 10.0933C9.33002 10.12 9.28817 10.1467 9.24643 10.1729C9.24535 10.1729 9.24457 10.1729 9.24401 10.173ZM9.72805 8.58508C9.70992 8.58716 9.69817 8.58851 9.70824 8.59864C9.77409 8.66488 9.90967 8.6415 10.0026 8.59085C10.0685 8.5441 10.1382 8.5441 10.2273 8.5441C10.2505 8.5441 10.2505 8.50124 10.2505 8.47787C10.3164 8.50124 10.3629 8.50124 10.4287 8.50124C10.9671 8.38826 11.4862 8.27527 11.982 8.02592C11.4803 7.63829 10.8618 7.46561 10.256 7.29649C10.1555 7.26843 10.0554 7.24047 9.95615 7.21164C9.97796 7.21164 9.99976 7.21891 10.0217 7.22622C10.066 7.24098 10.1109 7.25594 10.1576 7.21164C10.0961 7.16261 10.0277 7.15324 9.95993 7.14395C9.90384 7.13627 9.8482 7.12865 9.79733 7.09865C9.80264 7.09865 9.80895 7.09987 9.81582 7.1012C9.83902 7.10567 9.86849 7.11136 9.88642 7.07528C9.76876 7.0161 9.6511 6.99601 9.53232 6.97572C9.47123 6.96528 9.40984 6.9548 9.348 6.93892C9.46034 6.91554 9.53006 6.82593 9.53006 6.71294C9.53006 6.68957 9.48358 6.68957 9.46034 6.68957C9.19306 6.82593 9.01101 7.07528 8.89867 7.36748C8.99995 7.42711 9.10909 7.4202 9.21607 7.41342C9.27686 7.40957 9.33694 7.40577 9.39449 7.41424C9.34369 7.46248 9.27029 7.47559 9.19974 7.48818C9.17344 7.49288 9.14753 7.4975 9.12334 7.50385C9.05361 7.51943 8.98776 7.57008 9.01101 7.61683C9.0265 7.63631 9.04199 7.64411 9.06136 7.648C9.01101 7.66359 8.96452 7.68696 8.92191 7.72982C8.98568 7.78002 9.05144 7.77033 9.11634 7.76077C9.14211 7.75697 9.16774 7.7532 9.19306 7.7532C9.19306 7.78149 9.21164 7.7911 9.23095 7.8011C9.24088 7.80624 9.25102 7.81149 9.25891 7.81943C9.14658 7.86229 9.05749 7.95579 9.03425 8.02202C9.00648 8.08951 8.95522 8.13337 8.9044 8.17685C8.87015 8.20616 8.8361 8.23529 8.80958 8.27137V8.3415C8.73475 8.40784 8.65784 8.46708 8.58199 8.5255C8.42617 8.64551 8.27479 8.76211 8.15495 8.92981C8.17819 8.92981 8.17819 8.95319 8.17819 8.97656C8.15676 9.0089 8.12627 9.03129 8.09735 9.05253C8.06355 9.07736 8.0319 9.10061 8.01938 9.1363C8.01938 9.15968 8.01938 9.18305 8.04262 9.18305C8.18476 9.13608 8.30774 9.05698 8.42831 8.97944C8.53773 8.90907 8.64515 8.83998 8.7631 8.79734C8.85949 8.77416 8.94341 8.73045 9.02529 8.68781C9.09477 8.65163 9.16277 8.61621 9.23567 8.59475C9.29184 8.58306 9.35381 8.5665 9.41579 8.54994C9.47777 8.53338 9.53974 8.51683 9.59591 8.50514C9.59591 8.52851 9.59591 8.55189 9.61915 8.55189H9.79733C9.78636 8.57838 9.75176 8.58236 9.72805 8.58508Z" fill="#000091"/>
<path d="M32.9999 0H20.0965C20.0965 0 20.1199 0.00390117 20.2175 0.0546164C20.3228 0.109233 20.4593 0.183355 20.5412 0.226268C20.7089 0.312094 20.8689 0.421326 20.9742 0.589077C21.021 0.655397 21.0873 0.791938 21.0444 0.881665C20.9976 0.994799 20.9742 1.17815 20.8611 1.22107C20.7246 1.29129 20.5451 1.29129 20.3852 1.26788C20.2955 1.26788 20.2058 1.24447 20.1121 1.22107C20.4515 1.35761 20.7714 1.51756 20.9976 1.83355C21.021 1.88036 21.1107 1.89987 21.2004 1.89987C21.2238 1.89987 21.2238 1.94668 21.2238 1.96619C21.177 2.013 21.1341 2.03641 21.1575 2.10273H21.2238C21.337 2.05592 21.3135 1.82965 21.4735 1.89987C21.5866 1.96619 21.6334 2.12614 21.5632 2.23927C21.4735 2.329 21.3838 2.39922 21.2901 2.46554C21.2667 2.51235 21.2667 2.57867 21.2901 2.62549C21.3565 2.71521 21.3799 2.80494 21.4033 2.89857C21.4735 3.05852 21.493 3.23797 21.5632 3.39792C21.6529 3.73732 21.7426 4.07672 21.7231 4.42003C21.7231 4.59948 21.6334 4.75943 21.6997 4.94278C21.7465 5.12224 21.8596 5.25878 21.9494 5.41873C22.0391 5.55527 22.1288 5.64499 22.199 5.78153C22.3355 6.0078 22.5852 6.23407 22.472 6.50715C22.4057 6.6671 22.1561 6.64369 21.9962 6.73342C21.8596 6.84655 21.9728 7.02991 22.043 7.14304C22.1561 7.3459 21.9065 7.48245 21.7465 7.55267C21.7933 7.62289 21.883 7.59948 21.9065 7.64239C21.9299 7.75553 22.043 7.82185 21.9728 7.93888C21.883 8.07542 21.61 8.14174 21.7465 8.34851C21.8362 8.50845 21.7777 8.68401 21.7231 8.84785C21.6568 9.05072 21.4735 9.14044 21.3135 9.18726C21.177 9.23407 21.0171 9.23407 20.8845 9.21066C20.8377 9.18726 20.7948 9.16385 20.748 9.16385C20.3618 9.11703 19.9756 9.0078 19.5934 9.0078C19.4802 9.03121 19.3671 9.05072 19.2774 9.09753C19.176 9.17165 19.0824 9.25358 19.0044 9.3394C19.0044 9.3394 19.0044 9.3394 19.0005 9.3433C18.9849 9.36281 18.9654 9.37841 18.9497 9.39792C18.9419 9.40962 18.9302 9.42133 18.9224 9.43303C18.9146 9.44083 18.9107 9.44863 18.9029 9.45644C18.8366 9.53836 18.7781 9.62809 18.7235 9.71782C18.7196 9.72562 18.7157 9.72952 18.7118 9.73342C18.7079 9.74512 18.7001 9.75293 18.6923 9.76463C18.6182 9.90117 18.5636 10.0416 18.5207 10.1821C18.3646 10.7009 18.4349 11.1456 18.5441 11.2549C18.5753 11.2861 19.293 11.5085 19.7923 11.7308C20.0263 11.8362 20.1902 11.9142 20.3267 12H32.996V0H32.9999Z" fill="#E1000F"/>
<path d="M20.8631 4.3748C20.9526 4.39817 21.0888 4.39817 21.0888 4.44493C21.0421 4.62415 20.7736 4.6709 20.6375 4.85401H20.5674C20.5013 4.90077 20.5208 5.01375 20.4546 5.01375C20.3885 4.99038 20.3185 5.01375 20.2523 5.03713C20.3418 5.12674 20.4546 5.19687 20.5908 5.17349C20.6141 5.17349 20.6569 5.22024 20.6569 5.2631C20.6569 5.2631 20.6803 5.2631 20.7036 5.23972C20.727 5.23972 20.7503 5.23972 20.7503 5.2631V5.35271C20.6842 5.44232 20.5674 5.39946 20.478 5.41894C20.6608 5.4657 20.8398 5.4657 20.9993 5.41894C21.1355 5.37219 20.9993 5.14622 21.0888 5.03323C21.0421 5.03323 21.0888 4.9631 21.0421 4.9631C21.0888 4.91635 21.1316 4.85012 21.1782 4.82674C21.2249 4.82674 21.2911 4.80336 21.3144 4.75661C21.3144 4.70986 21.2249 4.69038 21.2444 4.64363C21.3806 4.55402 21.4934 4.41765 21.4467 4.28129C21.4233 4.21116 21.2444 4.21116 21.1316 4.1683C21.0187 4.12545 20.8826 4.1683 20.7464 4.19168C20.6336 4.19168 20.5208 4.26181 20.4079 4.28129C20.2484 4.32804 20.1123 4.41765 19.98 4.50726C20.1395 4.44103 20.2951 4.41765 20.478 4.3709C20.6141 4.3748 20.727 4.34363 20.8631 4.3748" fill="#808080"/>
<path d="M1.236 27V18.6H3.36L5.412 22.128L7.464 18.6H9.588V27H7.884V20.976L6.012 24.12H4.812L2.94 20.976V27H1.236ZM12.1124 27V18.6H13.8164V27H12.1124ZM16.3443 27V18.6H18.5283L22.2843 24.672V18.6H23.9883V27H21.8043L18.0483 20.928V27H16.3443ZM26.5176 27V18.6H28.2216V27H26.5176ZM29.9934 25.836L31.2294 24.696C31.7334 25.344 32.4054 25.728 33.0894 25.728C33.7614 25.728 34.1694 25.368 34.1694 24.768C34.1694 23.22 30.3534 23.64 30.3534 20.796C30.3534 19.464 31.4574 18.36 33.0654 18.36C34.3254 18.36 35.2854 18.924 36.0054 19.776L34.7574 20.904C34.2654 20.268 33.7134 19.848 33.0774 19.848C32.4774 19.848 32.0814 20.232 32.0814 20.736C32.0814 22.26 35.8974 21.828 35.8974 24.708C35.8734 26.292 34.6494 27.24 33.1014 27.24C31.6854 27.24 30.7374 26.724 29.9934 25.836ZM36.9415 20.148V18.6H43.8295V20.148H41.2375V27H39.5335V20.148H36.9415ZM47.1982 17.88L45.6502 16.26H47.4022L48.7582 17.88H47.1982ZM45.5062 27V18.6H50.4022V20.016H47.2102V22.008H49.9222V23.424H47.2102V25.584H50.4022V27H45.5062ZM52.5622 27V18.6H55.1302C56.9782 18.6 58.1182 19.548 58.1182 21.108C58.1182 22.128 57.6262 22.884 56.7622 23.28L59.3902 27H57.3862L55.1422 23.604H54.2662V27H52.5622ZM55.2262 20.016H54.2662V22.188H55.2262C55.9462 22.188 56.3662 21.768 56.3662 21.084C56.3662 20.448 55.9462 20.016 55.2262 20.016ZM60.6496 27V18.6H65.5456V20.016H62.3536V22.008H65.0656V23.424H62.3536V25.584H65.5456V27H60.6496ZM1.236 39V30.6H4.536C7.2 30.6 9 32.532 9 34.8C9 37.068 7.2 39 4.536 39H1.236ZM4.56 32.148H2.94V37.452H4.56C6.12 37.452 7.248 36.288 7.248 34.8C7.248 33.3 6.12 32.148 4.56 32.148ZM10.8233 39V30.6H15.7193V32.016H12.5273V34.008H15.2393V35.424H12.5273V37.584H15.7193V39H10.8233ZM21.1738 39V30.6H22.8778V37.452H26.0698V39H21.1738ZM27.3017 34.056H25.8857L26.9657 30.6H28.6937L27.3017 34.056ZM33.4041 29.88H31.8561L33.2121 28.26H34.9641L33.4041 29.88ZM30.2001 39V30.6H35.0961V32.016H31.9041V34.008H34.6161V35.424H31.9041V37.584H35.0961V39H30.2001ZM37.2562 39V30.6H40.5562C43.2202 30.6 45.0202 32.532 45.0202 34.8C45.0202 37.068 43.2202 39 40.5562 39H37.2562ZM40.5802 32.148H38.9602V37.452H40.5802C42.1402 37.452 43.2682 36.288 43.2682 34.8C43.2682 33.3 42.1402 32.148 40.5802 32.148ZM51.7972 35.856V30.6H53.5012V35.712C53.5012 37.92 52.2052 39.24 50.0932 39.24C47.9932 39.24 46.6972 37.92 46.6972 35.712V30.6H48.4012V35.856C48.4012 36.984 49.0372 37.644 50.1052 37.644C51.1492 37.644 51.7972 36.984 51.7972 35.856ZM59.6358 37.644C60.5958 37.644 61.3518 37.176 61.8318 36.492L63.1758 37.524C62.4078 38.568 61.1598 39.24 59.6358 39.24C56.9838 39.24 55.1718 37.2 55.1718 34.8C55.1718 32.4 56.9838 30.36 59.6358 30.36C61.1598 30.36 62.4078 31.044 63.1758 32.064L61.8318 33.108C61.3518 32.424 60.5958 31.956 59.6358 31.956C58.0518 31.956 56.9238 33.192 56.9238 34.8C56.9238 36.408 58.0518 37.644 59.6358 37.644ZM63.72 39L66.9 30.6H69.132L72.312 39H70.5L69.696 36.816H66.336L65.532 39H63.72ZM66.864 35.364H69.168L68.016 32.208L66.864 35.364ZM72.0814 32.148V30.6H78.9694V32.148H76.3774V39H74.6734V32.148H72.0814ZM80.646 39V30.6H82.35V39H80.646ZM88.6219 30.36C91.2619 30.36 93.0739 32.4 93.0739 34.8C93.0739 37.2 91.2619 39.24 88.6219 39.24C85.9699 39.24 84.1579 37.2 84.1579 34.8C84.1579 32.4 85.9699 30.36 88.6219 30.36ZM88.6219 37.644C90.1939 37.644 91.3219 36.408 91.3219 34.8C91.3219 33.192 90.1939 31.956 88.6219 31.956C87.0379 31.956 85.9099 33.192 85.9099 34.8C85.9099 36.408 87.0379 37.644 88.6219 37.644ZM94.8871 39V30.6H97.0711L100.827 36.672V30.6H102.531V39H100.347L96.5911 32.928V39H94.8871ZM1.236 51V42.6H3.42L7.176 48.672V42.6H8.88V51H6.696L2.94 44.928V51H1.236ZM10.3533 51L13.5333 42.6H15.7653L18.9453 51H17.1333L16.3293 48.816H12.9693L12.1653 51H10.3533ZM13.4973 47.364H15.8013L14.6493 44.208L13.4973 47.364ZM18.7147 44.148V42.6H25.6027V44.148H23.0107V51H21.3067V44.148H18.7147ZM27.2793 51V42.6H28.9833V51H27.2793ZM35.2552 42.36C37.8952 42.36 39.7072 44.4 39.7072 46.8C39.7072 49.2 37.8952 51.24 35.2552 51.24C32.6032 51.24 30.7912 49.2 30.7912 46.8C30.7912 44.4 32.6032 42.36 35.2552 42.36ZM35.2552 49.644C36.8272 49.644 37.9552 48.408 37.9552 46.8C37.9552 45.192 36.8272 43.956 35.2552 43.956C33.6712 43.956 32.5432 45.192 32.5432 46.8C32.5432 48.408 33.6712 49.644 35.2552 49.644ZM41.5204 51V42.6H43.7044L47.4604 48.672V42.6H49.1644V51H46.9804L43.2244 44.928V51H41.5204ZM50.6377 51L53.8177 42.6H56.0497L59.2297 51H57.4177L56.6137 48.816H53.2537L52.4497 51H50.6377ZM53.7817 47.364H56.0857L54.9337 44.208L53.7817 47.364ZM60.7068 51V42.6H62.4108V49.452H65.6028V51H60.7068ZM67.2824 51V42.6H72.1784V44.016H68.9864V46.008H71.6984V47.424H68.9864V49.584H72.1784V51H67.2824ZM1.236 63V54.6H6.132V56.016H2.94V58.008H5.652V59.424H2.94V61.584H6.132V63H1.236ZM7.60387 56.148V54.6H14.4919V56.148H11.8999V63H10.1959V56.148H7.60387ZM19.4629 63V54.6H22.7629C25.4269 54.6 27.2269 56.532 27.2269 58.8C27.2269 61.068 25.4269 63 22.7629 63H19.4629ZM22.7869 56.148H21.1669V61.452H22.7869C24.3469 61.452 25.4749 60.288 25.4749 58.8C25.4749 57.3 24.3469 56.148 22.7869 56.148ZM29.0502 63V54.6H33.9462V56.016H30.7542V58.008H33.4662V59.424H30.7542V61.584H33.9462V63H29.0502ZM39.4007 63V54.6H41.1047V61.452H44.2967V63H39.4007ZM45.2836 63L48.4636 54.6H50.6956L53.8756 63H52.0636L51.2596 60.816H47.8996L47.0956 63H45.2836ZM48.4276 59.364H50.7316L49.5796 56.208L48.4276 59.364ZM60.4831 62.304C60.4831 64.164 59.6191 65.088 57.8671 65.088C57.5911 65.088 57.3631 65.088 57.1951 65.04V63.54C57.3151 63.564 57.4591 63.576 57.6271 63.576C58.3831 63.576 58.7791 63.252 58.7791 62.388V54.6H60.4831V62.304ZM63.0196 63V54.6H67.9156V56.016H64.7236V58.008H67.4356V59.424H64.7236V61.584H67.9156V63H63.0196ZM74.9826 59.856V54.6H76.6866V59.712C76.6866 61.92 75.3906 63.24 73.2786 63.24C71.1786 63.24 69.8826 61.92 69.8826 59.712V54.6H71.5866V59.856C71.5866 60.984 72.2226 61.644 73.2906 61.644C74.3346 61.644 74.9826 60.984 74.9826 59.856ZM78.9833 63V54.6H81.1673L84.9233 60.672V54.6H86.6273V63H84.4433L80.6873 56.928V63H78.9833ZM89.1566 63V54.6H94.0526V56.016H90.8606V58.008H93.5726V59.424H90.8606V61.584H94.0526V63H89.1566ZM95.4567 61.836L96.6927 60.696C97.1967 61.344 97.8687 61.728 98.5527 61.728C99.2247 61.728 99.6327 61.368 99.6327 60.768C99.6327 59.22 95.8167 59.64 95.8167 56.796C95.8167 55.464 96.9207 54.36 98.5287 54.36C99.7887 54.36 100.749 54.924 101.469 55.776L100.221 56.904C99.7287 56.268 99.1767 55.848 98.5407 55.848C97.9407 55.848 97.5447 56.232 97.5447 56.736C97.5447 58.26 101.361 57.828 101.361 60.708C101.337 62.292 100.113 63.24 98.5647 63.24C97.1487 63.24 96.2007 62.724 95.4567 61.836ZM102.489 61.836L103.725 60.696C104.229 61.344 104.901 61.728 105.585 61.728C106.257 61.728 106.665 61.368 106.665 60.768C106.665 59.22 102.849 59.64 102.849 56.796C102.849 55.464 103.953 54.36 105.561 54.36C106.821 54.36 107.781 54.924 108.501 55.776L107.253 56.904C106.761 56.268 106.209 55.848 105.573 55.848C104.973 55.848 104.577 56.232 104.577 56.736C104.577 58.26 108.393 57.828 108.393 60.708C108.369 62.292 107.145 63.24 105.597 63.24C104.181 63.24 103.233 62.724 102.489 61.836ZM110.36 63V54.6H115.256V56.016H112.064V58.008H114.776V59.424H112.064V61.584H115.256V63H110.36Z" fill="black"/>
<path fill-rule="evenodd" clip-rule="evenodd" d="M31.18 84.614L30.0638 85.6339H29.7758L30.4359 84.47H31.18V84.614ZM30.3759 88.5614H30.1359C29.8358 88.9213 29.4998 89.2093 29.1757 89.2093C28.8397 89.2093 28.6717 89.0053 28.6717 88.5614C28.6717 88.3814 28.6957 88.1894 28.7317 88.0214L30.688 87.3734C31.072 86.4615 30.6159 86.0655 30.0759 86.0655C29.1517 86.0655 28.0956 87.6854 28.0956 88.9813C28.0956 89.5933 28.3836 89.9293 28.8397 89.9293C29.3678 89.9173 29.9198 89.4013 30.3759 88.5614ZM29.7046 86.5938C29.9686 86.5938 30.1966 86.7978 30.0766 87.2657L28.8644 87.5897C29.0565 87.0138 29.4165 86.5938 29.7046 86.5938ZM25.8886 86.6175H26.5367L25.5045 89.4493C25.4085 89.6893 25.5405 89.9293 25.7925 89.9293C26.5247 89.9293 27.4008 89.3053 27.7368 88.4174H27.5568C27.2928 88.7894 26.7167 89.1973 26.2846 89.2693L27.2328 86.6175H28.2049L28.3249 86.2095H27.3768L27.7368 85.1896H27.3648L26.6927 86.2095L25.8886 86.3175V86.6175ZM24.9878 86.0782C25.1198 86.0782 25.2998 86.2222 25.2158 86.4862L24.0516 89.306C24.3517 89.258 24.6637 88.97 24.8438 88.706H25.0358C24.7597 89.414 24.1356 89.93 23.5956 89.93C23.4636 89.93 23.2715 89.786 23.3675 89.522L24.4477 86.7022C24.1477 86.7502 23.8356 87.0381 23.6556 87.3021H23.4756C23.7516 86.5822 24.4237 86.0782 24.9878 86.0782ZM25.3246 85.3579C25.5647 85.3579 25.7687 85.1659 25.7687 84.9139C25.7687 84.674 25.5647 84.47 25.3246 84.47C25.0726 84.47 24.8806 84.674 24.8806 84.9139C24.8806 85.1539 25.0846 85.3579 25.3246 85.3579ZM20.0797 87.6981C20.3437 87.1221 20.2477 86.8581 20.0797 86.8581C19.9357 86.8581 19.7676 87.0141 19.5996 87.3021H19.4196C19.6956 86.6902 20.0557 86.0782 20.4517 86.0782C20.7878 86.0782 20.9078 86.4142 20.9078 86.7862V87.3141C20.9618 87.2513 21.0144 87.1896 21.0658 87.1293L21.0667 87.1282L21.0675 87.1273C21.5745 86.5324 21.9617 86.0782 22.408 86.0782C22.7561 86.0782 22.9361 86.2942 22.9361 86.6182C22.9361 86.8102 22.8761 87.0501 22.7441 87.3021L21.7479 89.306C22.048 89.258 22.36 88.97 22.54 88.706H22.7201C22.444 89.426 21.7719 89.93 21.2079 89.93C20.9558 89.93 20.8118 89.666 20.9198 89.45L22.072 87.2301C22.204 86.9781 22.228 86.8102 22.024 86.8102C21.7479 86.8102 21.0998 87.2661 20.7518 87.6861L19.9957 89.678C19.9117 89.882 19.8277 89.93 19.6356 89.93C19.3236 89.93 19.1676 89.726 19.3116 89.402L20.0797 87.6981ZM19.2987 86.9294C19.4307 86.4735 19.3587 86.0655 19.0106 86.0655C18.5766 86.0655 18.4407 86.3521 18.02 87.2391L17.9905 87.3014V86.7735C17.9905 86.4015 17.8705 86.0655 17.5344 86.0655C17.1384 86.0655 16.7783 86.6775 16.5023 87.2894H16.6823C16.8743 87.0134 17.0544 86.8455 17.1984 86.8455C17.3664 86.8455 17.4624 87.1094 17.1984 87.6854L16.4303 89.3893C16.2863 89.7133 16.4423 89.9173 16.7543 89.9173C16.9464 89.9173 17.0304 89.8693 17.1144 89.6653L17.8705 87.6734C18.0865 87.4094 18.2785 87.1814 18.5186 86.9294H19.2987ZM15.5064 87.2657C15.6264 86.7978 15.3984 86.5938 15.1344 86.5938C14.8463 86.5938 14.4863 87.0138 14.2942 87.5897L15.5064 87.2657ZM15.8057 88.5614H15.5657C15.2656 88.9213 14.9296 89.2093 14.6055 89.2093C14.2695 89.2093 14.1015 89.0053 14.1015 88.5614C14.1015 88.3814 14.1255 88.1894 14.1615 88.0214L16.1178 87.3734C16.5018 86.4615 16.0458 86.0655 15.5057 86.0655C14.5815 86.0655 13.5254 87.6854 13.5254 88.9813C13.5254 89.5933 13.8134 89.9293 14.2695 89.9293C14.7976 89.9173 15.3497 89.4013 15.8057 88.5614ZM11.9665 86.6175H11.3184V86.3175L12.1225 86.2095L12.7946 85.1896H13.1666L12.8066 86.2095H13.7547L13.6347 86.6175H12.6626L11.7144 89.2693C12.1465 89.1973 12.7226 88.7894 12.9866 88.4174H13.1666C12.8306 89.3053 11.9545 89.9293 11.2224 89.9293C10.9703 89.9293 10.8383 89.6893 10.9343 89.4493L11.9665 86.6175ZM7.88648 88.8136C7.88648 87.9377 8.85862 86.7617 9.3987 86.7617C9.51871 86.7617 9.63873 86.7737 9.73475 86.8097L9.17066 88.3217C8.84662 88.7176 8.34254 89.1976 8.10251 89.1976C7.97049 89.1976 7.88648 89.0776 7.88648 88.8136ZM10.5632 85.8858L10.8632 85.9098L9.81906 88.3097C9.56702 88.8856 9.67504 89.1496 9.81906 89.1496C9.96308 89.1496 10.1431 88.9816 10.3351 88.7057H10.5152C10.2391 89.3176 9.87907 89.9296 9.48301 89.9296C9.14696 89.9296 8.94293 89.5696 9.00294 88.9216L9.02694 88.6937L8.96158 88.7849C8.53167 89.3858 8.14265 89.9296 7.74276 89.9296C7.39471 89.9296 7.21468 89.7136 7.21468 89.3896C7.21468 87.9977 8.7389 86.2218 10.1671 86.2218H10.2271L10.5632 85.8858ZM7.81402 86.9294C7.94604 86.4735 7.87403 86.0655 7.52598 86.0655C7.09192 86.0655 6.956 86.3521 6.53537 87.2391L6.50583 87.3014V86.7735C6.50583 86.4015 6.38581 86.0655 6.04976 86.0655C5.65371 86.0655 5.29365 86.6775 5.01761 87.2894H5.19764C5.38967 87.0134 5.56969 86.8455 5.70171 86.8455C5.86974 86.8455 5.96575 87.1094 5.70171 87.6854L4.9336 89.4013C4.78958 89.7253 4.9456 89.9293 5.25765 89.9293C5.44968 89.9293 5.53369 89.8813 5.6177 89.6773L6.37381 87.6854C6.58984 87.4214 6.78187 87.1934 7.0219 86.9414H7.81402V86.9294ZM2.86842 89.5686L2.79641 89.7846H0L0.0720104 89.5566C0.936136 89.4006 1.08016 89.3286 1.44021 88.3566L2.22032 86.2688C2.56837 85.2968 2.49636 85.2248 1.74025 85.0688L1.81226 84.8528H5.44879L5.23276 86.0168H4.96872C4.96872 85.3208 4.89671 85.1408 4.23661 85.1408H4.06859C3.4205 85.1408 3.33648 85.2368 3.15646 85.7408L2.64038 87.1447H3.39649C3.90056 87.1447 4.09259 86.8327 4.32063 86.4247H4.58466L3.96057 88.1286H3.69654C3.75654 87.6127 3.75654 87.4087 3.28848 87.4087H2.53237L2.18432 88.3686C1.80809 89.3678 1.9156 89.3882 2.81149 89.5578C2.83013 89.5613 2.8491 89.5649 2.86842 89.5686Z" fill="black"/>
<path fill-rule="evenodd" clip-rule="evenodd" d="M5.24476 75.4341L4.12857 76.2385V76.2505H3.84052L4.50063 75.29H5.24476V75.4341ZM13.0472 81.0648L14.8355 76.3105L14.7755 76.2384L13.5393 76.3825V76.5266L13.7793 76.7066C13.9843 76.8661 13.93 77.0147 13.76 77.4805L13.7313 77.5591L12.3631 81.2089C12.2551 81.425 12.3991 81.6891 12.6511 81.6891C13.2152 81.6891 13.8153 81.1728 14.0914 80.4645H13.9114C13.7193 80.7286 13.3353 81.0168 13.0472 81.0648ZM21.2438 77.403L22.36 76.3825V76.2384H21.6159L20.9558 77.403H21.2438ZM21.315 80.3204H21.5551C21.111 81.1728 20.5589 81.6891 20.0308 81.6891C19.5747 81.6891 19.2867 81.3529 19.2867 80.7406C19.2867 79.444 20.3429 77.8232 21.267 77.8232C21.7951 77.8232 22.2632 78.2194 21.8791 79.1318L19.9108 79.7801C19.8748 79.9482 19.8508 80.1403 19.8508 80.3204C19.8508 80.7646 20.0188 80.9687 20.3549 80.9687C20.6789 80.9687 21.015 80.6806 21.315 80.3204ZM21.2544 79.0238C21.3745 78.5676 21.1464 78.3635 20.8824 78.3635C20.6063 78.3635 20.2463 78.7837 20.0422 79.348L21.2544 79.0238ZM17.7258 78.3872H17.0777V78.0871L17.8818 77.979L18.554 76.9585H18.926L18.566 77.979H19.5141L19.3941 78.3872H18.4219L17.4738 81.0405C17.9058 80.9685 18.4819 80.5603 18.746 80.1881H18.926C18.59 81.0765 17.7138 81.7008 16.9817 81.7008C16.7296 81.7008 16.5976 81.4607 16.6936 81.2206L17.7258 78.3872ZM16.4055 78.2431C16.4775 77.979 16.3095 77.8349 16.1655 77.8349C15.6014 77.8349 14.9292 78.3512 14.6532 79.0595H14.8332C15.0133 78.7954 15.3253 78.5072 15.6254 78.4592L14.5452 81.2806C14.4492 81.5447 14.6412 81.6888 14.7732 81.6888C15.3133 81.6888 15.9374 81.1726 16.2135 80.4642H16.0334C15.8534 80.7283 15.5413 81.0165 15.2413 81.0645L16.4055 78.2431ZM16.9585 76.6826C16.9585 76.9228 16.7544 77.1269 16.5144 77.1269C16.2744 77.1269 16.0703 76.9228 16.0703 76.6826C16.0703 76.4425 16.2624 76.2384 16.5144 76.2384C16.7544 76.2384 16.9585 76.4425 16.9585 76.6826ZM10.8987 78.5315C10.3586 78.5315 9.38641 79.7081 9.38641 80.5846C9.38641 80.8487 9.47043 80.9687 9.61445 80.9687C9.84249 80.9687 10.3466 80.4885 10.6706 80.0923L11.2347 78.5796C11.1267 78.5435 11.0187 78.5315 10.8987 78.5315ZM12.3632 77.6791L12.0632 77.6551L11.7271 77.9913H11.6671C10.2389 77.9913 8.71459 79.7682 8.71459 81.1609C8.71459 81.485 8.89463 81.7011 9.24269 81.7011C9.64259 81.7011 10.0316 81.1571 10.4616 80.5558L10.5269 80.4645L10.5029 80.6926C10.4429 81.3409 10.6469 81.7011 10.983 81.7011C11.3791 81.7011 11.7391 81.0888 12.0152 80.4765H11.8351C11.6431 80.7527 11.4631 80.9207 11.3191 80.9207C11.175 80.9207 11.067 80.6566 11.3191 80.0803L12.3632 77.6791ZM6.3135 81.5692C5.79741 81.7733 5.43734 82.0134 5.43734 82.3856C5.43734 82.7337 5.7614 82.8778 6.43352 82.8778C7.33368 82.8778 7.82576 82.6137 7.82576 82.2655C7.82576 82.1094 7.62173 82.0374 7.08163 81.8573C6.73357 81.7493 6.48153 81.6532 6.3135 81.5692ZM6.91282 80.0924C6.67277 80.0924 6.58876 79.8883 6.58876 79.6722C6.58876 78.9758 6.92482 78.1114 7.46491 78.1114C7.70495 78.1114 7.78897 78.3155 7.78897 78.5316C7.77697 79.24 7.44091 80.0924 6.91282 80.0924ZM7.3701 81.2209C8.03022 81.425 8.43829 81.581 8.43829 82.0373C8.43829 82.6255 7.3581 83.3219 6.04987 83.3099C5.29374 83.3099 4.64563 83.1058 4.64563 82.6135C4.64563 82.1453 5.0777 81.7611 6.13389 81.449C5.98986 81.3529 5.92985 81.2329 5.92985 81.0648C5.92985 80.7766 6.1939 80.5485 6.64998 80.3324C6.2059 80.2724 5.91785 79.9362 5.91785 79.444C5.91785 78.6876 6.54196 77.8232 7.52613 77.8232C7.73017 77.8232 7.9102 77.8712 8.05422 77.9673H9.13441L9.01439 78.3755H8.37828C8.41429 78.4835 8.43829 78.6036 8.43829 78.7356C8.43829 79.468 7.85019 80.3084 6.91402 80.3564C6.67398 80.4885 6.55396 80.6686 6.55396 80.8127C6.55396 80.9822 6.75029 81.0395 7.1842 81.1662C7.24193 81.183 7.30387 81.2011 7.3701 81.2209ZM3.56462 79.1679C4.03271 79.1679 4.04471 79.372 3.9727 79.8883H4.23674L4.86085 78.1834H4.59681C4.36877 78.5916 4.17673 78.9038 3.67264 78.9038H2.64046L3.14455 77.4991C3.32458 76.9949 3.4086 76.8988 4.05671 76.8988H4.51279C5.17291 76.8988 5.24492 77.0789 5.24492 77.7752H5.50896L5.725 76.6107H1.81232L1.7403 76.8268C2.49644 76.9829 2.56845 77.0549 2.22039 78.0274L1.44025 80.1284C1.08019 81.1009 0.936164 81.1729 0.0600105 81.329L0 81.5571H4.34476L5.1249 80.3205H4.82484C4.32076 80.8127 3.81667 81.269 2.8325 81.269C1.74998 81.269 1.76926 81.216 2.09407 80.3234C2.11497 80.266 2.13715 80.205 2.16038 80.1404L2.52044 79.1799H3.56462V79.1679Z" fill="black"/>
<path fill-rule="evenodd" clip-rule="evenodd" d="M7.14964 68.8876C7.3896 68.8876 7.59356 68.6837 7.59356 68.4438C7.59356 68.2039 7.3896 68 7.14964 68C6.89769 68 6.70573 68.2039 6.70573 68.4438C6.70573 68.6957 6.89769 68.8876 7.14964 68.8876ZM10.7022 70.3986C10.7022 69.8229 10.5583 69.607 10.1503 69.607C9.64644 69.607 9.17853 70.1467 8.71062 70.7944L9.71843 68.0956L9.65844 68.0117L8.42268 68.1556V68.2996L8.66263 68.4795C8.87155 68.6419 8.81099 68.8044 8.63302 69.2818L8.61464 69.3311L7.52285 72.1858C7.42687 72.4257 7.31889 72.7136 7.31889 72.7856C7.31889 73.1214 7.7748 73.4453 8.19472 73.4453C9.13054 73.4573 10.7022 71.73 10.7022 70.3986ZM21.1042 69.1752L22.22 68.1556V68.0117H21.4761L20.8163 69.1752H21.1042ZM21.1765 72.0899H21.4164C20.9605 72.9415 20.4086 73.4573 19.8807 73.4453C19.4248 73.4453 19.1369 73.1214 19.1369 72.5097C19.1369 71.2143 20.1927 69.595 21.1165 69.595C21.6444 69.595 22.1123 69.9908 21.7284 70.9024L19.7727 71.5501C19.7368 71.7181 19.7128 71.91 19.7128 72.0899C19.7128 72.5337 19.8807 72.7376 20.2167 72.7376C20.5406 72.7376 20.8765 72.4497 21.1765 72.0899ZM21.1153 70.7945C21.2353 70.3387 21.0073 70.1348 20.7434 70.1348C20.4555 70.1348 20.0955 70.5546 19.9036 71.1184L21.1153 70.7945ZM17.5747 70.1595H16.9268V69.8596L17.7306 69.7516L18.4025 68.7321H18.7744L18.4145 69.7516H19.3623L19.2423 70.1595H18.2705L17.3227 72.8103C17.7546 72.7383 18.3305 72.3305 18.5945 71.9587H18.7744C18.4385 72.8463 17.5627 73.47 16.8308 73.47C16.5789 73.47 16.4469 73.2301 16.5429 72.9902L17.5747 70.1595ZM16.5931 70.4713C16.7251 70.0155 16.6531 69.6077 16.3052 69.6077C15.8713 69.6077 15.7354 69.8942 15.3149 70.7809L15.2854 70.8431V70.3154C15.2854 69.9435 15.1654 69.6077 14.8295 69.6077C14.4336 69.6077 14.0736 70.2194 13.7977 70.8311H13.9776C14.1696 70.5553 14.3496 70.3873 14.4815 70.3873C14.6495 70.3873 14.7455 70.6512 14.4815 71.227L13.7137 72.9302C13.5697 73.2541 13.7257 73.458 14.0376 73.458C14.2296 73.458 14.3136 73.41 14.3976 73.2061L15.1534 71.215C15.3694 70.9511 15.5613 70.7232 15.8013 70.4713H16.5931ZM12.7902 70.7945C12.9101 70.3387 12.6822 70.1348 12.4182 70.1348C12.1303 70.1348 11.7823 70.5546 11.5784 71.1184L12.7902 70.7945ZM13.0893 72.0899H12.8494C12.5495 72.4497 12.2135 72.7376 11.8896 72.7376C11.5536 72.7376 11.3857 72.5337 11.3857 72.0899C11.3857 71.91 11.4097 71.7181 11.4457 71.5501L13.4013 70.9024C13.7852 69.9908 13.3293 69.595 12.7894 69.595C11.8656 69.595 10.8098 71.2143 10.8098 72.5097C10.8098 73.1214 11.0977 73.4453 11.5536 73.4453C12.0815 73.4573 12.6334 72.9415 13.0893 72.0899ZM8.05122 72.5461C8.05122 72.702 8.32717 72.882 8.51913 72.882C9.29898 72.882 10.0308 71.4786 10.0188 70.6989C10.0188 70.435 9.88686 70.3271 9.7069 70.3271C9.41896 70.3271 8.89106 70.7589 8.55512 71.1667L8.24318 72.0064C8.1352 72.2822 8.05122 72.4981 8.05122 72.5461ZM6.79168 69.6077C6.93565 69.6077 7.10362 69.7516 7.03163 70.0155L5.87986 72.8343C6.1798 72.7863 6.49174 72.4984 6.6717 72.2345H6.85167C6.57572 72.9422 5.95184 73.458 5.41195 73.458C5.26798 73.458 5.07601 73.314 5.172 73.0502L6.25179 70.2314C5.95184 70.2794 5.63991 70.5673 5.45994 70.8311H5.27998C5.55592 70.1235 6.22779 69.6077 6.79168 69.6077ZM1.81165 68.3602H4.39115L4.31916 68.5881C3.44333 68.744 3.29936 68.816 2.93943 69.7876L2.17158 71.8986C1.79965 72.9062 1.89563 73.0261 2.5555 73.0261C3.37077 73.0261 3.90535 72.4337 4.37213 71.9164C4.40681 71.878 4.44111 71.84 4.47513 71.8027H4.77507L3.92324 73.314H0L0.071986 73.0981C0.935818 72.9422 1.07979 72.8702 1.43972 71.8986L2.21957 69.7756C2.5675 68.804 2.49552 68.732 1.73966 68.5761L1.81165 68.3602Z" fill="black"/>
</svg>