<?xml version="1.0" encoding="UTF-8" standalone="no"?>
<!DOCTYPE svg PUBLIC "-//W3C//DTD SVG 1.1//EN" "http://www.w3.org/Graphics/SVG/1.1/DTD/svg11.dtd">
<svg width="200" height="200" viewBox="0 0 1877 1841" version="1.1" xmlns="http://www.w3.org/2000/svg" xmlns:xlink="http://www.w3.org/1999/xlink" xml:space="preserve" xmlns:serif="http://www.serif.com/" style="fill-rule:evenodd;clip-rule:evenodd;stroke-linejoin:round;stroke-miterlimit:2;">
    <g transform="matrix(1,0,0,1,-4268,-52885)">
        <g id="_--logo-resana-1" serif:id="• logo resana 1">
        </g>
        <g id="_--logo-resana-2" serif:id="• logo resana 2">
        </g>
        <g id="_--frise" serif:id="• frise">
        </g>
        <g id="Plan-de-travail3" serif:id="Plan de travail3" transform="matrix(0.460564,0,0,0.451692,2302.11,28996.8)">
            <rect x="4268.44" y="52885.9" width="4073.66" height="4073.66" style="fill:none;"/>
            <g transform="matrix(1.95454,0,0,1.99293,382.975,-62946)">
                <path d="M3519.21,59795C3369.47,59917.7 3178,59991.4 2969.44,59991.4C2490.4,59991.4 2101.48,59602.5 2101.48,59123.5C2101.48,58644.4 2490.4,58255.5 2969.44,58255.5C3163.95,58255.5 3343.61,58319.6 3488.4,58427.9C3351.79,58333 3185.93,58277.4 3007.19,58277.4C2540.71,58277.4 2161.99,58656.2 2161.99,59122.6C2161.99,59589.1 2540.71,59967.8 3007.19,59967.8C3199.6,59967.8 3377.08,59903.4 3519.21,59795Z" style="fill:rgb(0,0,137);"/>
            </g>
            <g transform="matrix(-1.61626,-2.01822e-16,1.97934e-16,-1.648,11135.3,152319)">
                <path d="M2152.95,59327.7C2172.84,59327.7 2190.34,59340.8 2195.86,59359.9C2298.49,59711.1 2623.09,59967.8 3007.19,59967.8C3199.6,59967.8 3377.08,59903.4 3519.21,59795C3369.47,59917.7 3178,59991.4 2969.44,59991.4C2560.72,59991.4 2217.61,59708.3 2125.68,59327.7L2152.95,59327.7ZM2184.6,58752.6C2323.78,58458.9 2623.05,58255.5 2969.44,58255.5C3163.95,58255.5 3343.61,58319.6 3488.4,58427.9C3351.79,58333 3185.93,58277.4 3007.19,58277.4C2683.71,58277.4 2402.42,58459.6 2260.37,58726.8C2251.99,58742.6 2235.51,58752.6 2217.56,58752.6C2201.38,58752.6 2184.6,58752.6 2184.6,58752.6Z" style="fill:rgb(0,0,137);"/>
            </g>
            <g transform="matrix(3.09006,0,0,3.15075,-6661.78,-127649)">
                <path d="M3794.94,57820L3819.26,57820L3819.26,57769L3857.95,57769L3857.95,57748.8L3819.26,57748.8L3819.26,57720.4L3864.8,57720.4L3864.8,57700.2L3794.94,57700.2L3794.94,57820Z" style="fill:rgb(0,0,145);fill-rule:nonzero;"/>
                <path d="M3881.07,57820L3905.39,57820L3905.39,57771.6L3917.89,57771.6L3949.91,57820L3978.51,57820L3941.01,57767C3953.33,57761.3 3960.35,57750.5 3960.35,57736C3960.35,57713.7 3944.09,57700.2 3917.72,57700.2L3881.07,57700.2L3881.07,57820ZM3919.09,57720.4C3929.36,57720.4 3935.35,57726.5 3935.35,57735.6C3935.35,57745.4 3929.36,57751.4 3919.09,57751.4L3905.39,57751.4L3905.39,57720.4L3919.09,57720.4Z" style="fill:rgb(0,0,145);fill-rule:nonzero;"/>
                <path d="M3978.85,57820L4004.7,57820L4016.18,57788.9L4064.12,57788.9L4075.6,57820L4101.45,57820L4056.08,57700.2L4024.23,57700.2L3978.85,57820ZM4023.71,57768.2L4040.15,57723.1L4056.59,57768.2L4023.71,57768.2Z" style="fill:rgb(0,0,145);fill-rule:nonzero;"/>
                <path d="M4114.81,57820L4139.12,57820L4139.12,57733.4L4192.72,57820L4223.89,57820L4223.89,57700.2L4199.57,57700.2L4199.57,57786.8L4145.98,57700.2L4114.81,57700.2L4114.81,57820Z" style="fill:rgb(0,0,145);fill-rule:nonzero;"/>
                <path d="M4305.74,57800.7C4283.14,57800.7 4267.04,57783.1 4267.04,57760.1C4267.04,57737.2 4283.14,57719.5 4305.74,57719.5C4319.44,57719.5 4330.23,57726.2 4337.07,57736L4356.25,57721.1C4345.29,57706.5 4327.49,57696.8 4305.74,57696.8C4267.9,57696.8 4242.04,57725.9 4242.04,57760.1C4242.04,57794.4 4267.9,57823.5 4305.74,57823.5C4327.49,57823.5 4345.29,57813.9 4356.25,57799L4337.07,57784.3C4330.23,57794 4319.44,57800.7 4305.74,57800.7Z" style="fill:rgb(0,0,145);fill-rule:nonzero;"/>
                <path d="M4372.18,57820L4442.04,57820L4442.04,57799.8L4396.49,57799.8L4396.49,57769L4435.19,57769L4435.19,57748.8L4396.49,57748.8L4396.49,57720.4L4442.04,57720.4L4442.04,57700.2L4372.18,57700.2L4372.18,57820Z" style="fill:rgb(0,0,145);fill-rule:nonzero;"/>
            </g>
            <g transform="matrix(2.17125,0,0,2.2139,656.751,-74308.1)">
                <path d="M2517.93,58398.3C2527.82,58398.3 2535.85,58406.4 2535.85,58416.3C2535.85,58426.1 2527.82,58434.2 2517.93,58434.2C2508.03,58434.2 2500,58426.1 2500,58416.3C2500,58406.4 2508.03,58398.3 2517.93,58398.3ZM2517.93,58404.3C2511.35,58404.3 2506,58409.7 2506,58416.3C2506,58422.8 2511.35,58428.2 2517.93,58428.2C2524.51,58428.2 2529.85,58422.8 2529.85,58416.3C2529.85,58409.7 2524.51,58404.3 2517.93,58404.3Z" style="fill:rgb(225,0,15);"/>
            </g>
            <g transform="matrix(5.35422,0,0,5.45938,-7358.37,-263897)">
                <path d="M2517.93,58398.3C2527.82,58398.3 2535.85,58406.4 2535.85,58416.3C2535.85,58426.1 2527.82,58434.2 2517.93,58434.2C2508.03,58434.2 2500,58426.1 2500,58416.3C2500,58406.4 2508.03,58398.3 2517.93,58398.3ZM2517.93,58400.8C2509.38,58400.8 2502.44,58407.7 2502.44,58416.3C2502.44,58424.8 2509.38,58431.7 2517.93,58431.7C2526.48,58431.7 2533.42,58424.8 2533.42,58416.3C2533.42,58407.7 2526.48,58400.8 2517.93,58400.8Z" style="fill:rgb(225,0,15);"/>
            </g>
            <g transform="matrix(8.67982,0,0,8.85029,-15731.9,-461982)">
                <path d="M2517.93,58398.3C2527.82,58398.3 2535.85,58406.4 2535.85,58416.3C2535.85,58426.1 2527.82,58434.2 2517.93,58434.2C2508.03,58434.2 2500,58426.1 2500,58416.3C2500,58406.4 2508.03,58398.3 2517.93,58398.3ZM2517.93,58399.8C2508.86,58399.8 2501.5,58407.2 2501.5,58416.3C2501.5,58425.3 2508.86,58432.7 2517.93,58432.7C2526.99,58432.7 2534.35,58425.3 2534.35,58416.3C2534.35,58407.2 2526.99,58399.8 2517.93,58399.8Z" style="fill:rgb(225,0,15);"/>
            </g>
            <g transform="matrix(11.6209,0,0,11.8492,-23137.4,-637166)">
                <path d="M2517.93,58398.3C2527.82,58398.3 2535.85,58406.4 2535.85,58416.3C2535.85,58426.1 2527.82,58434.2 2517.93,58434.2C2508.03,58434.2 2500,58426.1 2500,58416.3C2500,58406.4 2508.03,58398.3 2517.93,58398.3ZM2517.93,58399.5C2508.65,58399.5 2501.12,58407 2501.12,58416.3C2501.12,58425.5 2508.65,58433.1 2517.93,58433.1C2527.2,58433.1 2534.73,58425.5 2534.73,58416.3C2534.73,58407 2527.2,58399.5 2517.93,58399.5Z" style="fill:rgb(225,0,15);"/>
            </g>
            <g transform="matrix(14.6336,0,0,14.921,-30723.1,-816611)">
                <path d="M2517.93,58398.3C2527.82,58398.3 2535.85,58406.4 2535.85,58416.3C2535.85,58426.1 2527.82,58434.2 2517.93,58434.2C2508.03,58434.2 2500,58426.1 2500,58416.3C2500,58406.4 2508.03,58398.3 2517.93,58398.3ZM2517.93,58399.2C2508.53,58399.2 2500.89,58406.9 2500.89,58416.3C2500.89,58425.7 2508.53,58433.3 2517.93,58433.3C2527.33,58433.3 2534.96,58425.7 2534.96,58416.3C2534.96,58406.9 2527.33,58399.2 2517.93,58399.2Z" style="fill:rgb(225,0,15);"/>
            </g>
            <g transform="matrix(17.8018,0,0,18.1514,-38700.4,-1.00532e+06)">
                <path d="M2509.21,58431.9L2509.47,58431.5C2512.06,58432.9 2514.97,58433.6 2517.93,58433.6C2527.52,58433.6 2535.32,58425.9 2535.32,58416.3C2535.32,58406.7 2527.52,58398.9 2517.93,58398.9C2515.14,58398.9 2512.39,58399.5 2509.92,58400.8L2509.67,58400.3C2512.22,58399 2515.05,58398.3 2517.93,58398.3C2527.82,58398.3 2535.85,58406.4 2535.85,58416.3C2535.85,58426.1 2527.82,58434.2 2517.93,58434.2C2514.88,58434.2 2511.88,58433.4 2509.21,58431.9Z" style="fill:rgb(225,0,15);"/>
            </g>
            <g transform="matrix(20.88,0,0,21.2901,-46451,-1.18867e+06)">
                <path d="M2517.93,58434.2L2517.93,58433.6C2527.53,58433.6 2535.31,58425.9 2535.31,58416.3C2535.31,58407.2 2528.33,58399.6 2519.28,58398.9L2519.32,58398.4C2528.65,58399.1 2535.85,58406.9 2535.85,58416.3C2535.85,58426.2 2527.83,58434.2 2517.93,58434.2Z" style="fill:rgb(225,0,15);"/>
            </g>
            <g transform="matrix(23.6131,0,0,24.0769,-53323.2,-1.35146e+06)">
                <path d="M2526.24,58432.1L2526.01,58431.7C2531.75,58428.7 2535.35,58422.7 2535.35,58416.3C2535.35,58410.2 2532.17,58404.5 2526.96,58401.4L2527.22,58400.9C2532.58,58404.2 2535.85,58410 2535.85,58416.3C2535.85,58422.9 2532.15,58429 2526.24,58432.1Z" style="fill:rgb(225,0,15);"/>
            </g>
            <g transform="matrix(26.8159,0,0,26.5213,-61380.6,-1.49426e+06)">
                <path d="M2533.71,58424.7L2533.3,58424.5C2534.66,58422 2535.38,58419.1 2535.38,58416.3C2535.38,58413.7 2534.8,58411.1 2533.69,58408.8L2534.12,58408.6C2535.26,58411 2535.85,58413.6 2535.85,58416.3C2535.85,58419.2 2535.12,58422.1 2533.71,58424.7Z" style="fill:rgb(225,0,15);"/>
            </g>
            <g transform="matrix(1.02151,0,0,1.58773,3297.19,-37815.8)">
                <rect x="2172.81" y="58235.5" width="154.393" height="8.366" style="fill:rgb(225,0,15);"/>
            </g>
            <g transform="matrix(2.41831,0,0,2.2139,147.687,-74231.6)">
                <rect x="2176.49" y="58236.7" width="147.027" height="6" style="fill:rgb(225,0,15);"/>
            </g>
            <g transform="matrix(3.10584,0,0,2.2139,-1401.7,-74179.4)">
                <rect x="2177.09" y="58236.7" width="145.834" height="6" style="fill:rgb(225,0,15);"/>
            </g>
            <g transform="matrix(1.06656,0,0,2.2139,3015.21,-74127.3)">
                <rect x="2173.08" y="58236.7" width="153.854" height="6" style="fill:rgb(225,0,15);"/>
            </g>
            <g transform="matrix(1.06656,0,0,2.2139,3343.9,-74127.3)">
                <rect x="2173.08" y="58236.7" width="153.854" height="6" style="fill:rgb(225,0,15);"/>
            </g>
            <g transform="matrix(0.974752,0,0,2.2139,3560.17,-74075.2)">
                <rect x="2172.5" y="58236.7" width="155.005" height="6" style="fill:rgb(225,0,15);"/>
            </g>
            <g transform="matrix(0.246625,0,0,2.2139,4874.93,-74075.2)">
                <path d="M2152.77,58242.7L2152.77,58236.7L2347.24,58236.7L2347.24,58242.7L2152.77,58242.7Z" style="fill:rgb(225,0,15);"/>
            </g>
            <g transform="matrix(1.02868,0,0,2.2139,3429.43,-74023.1)">
                <rect x="2172.85" y="58236.7" width="154.304" height="6" style="fill:rgb(225,0,15);"/>
            </g>
            <g transform="matrix(1.03238,0,0,2.2139,3391.55,-73970.9)">
                <rect x="2172.88" y="58236.7" width="154.259" height="6" style="fill:rgb(225,0,15);"/>
            </g>
            <g transform="matrix(1.1374,0,0,2.2139,3116.48,-73918.8)">
                <rect x="2173.46" y="58236.7" width="153.093" height="6" style="fill:rgb(225,0,15);"/>
            </g>
            <g transform="matrix(1.22153,0,0,2.2139,2879.4,-73866.7)">
                <rect x="2173.85" y="58236.7" width="152.305" height="6" style="fill:rgb(225,0,15);"/>
            </g>
            <g transform="matrix(1.21146,0,0,2.2139,2853.24,-73814.5)">
                <rect x="2173.81" y="58236.7" width="152.393" height="6" style="fill:rgb(225,0,15);"/>
            </g>
            <g transform="matrix(1.21401,0,0,2.2139,2795.72,-73762.4)">
                <rect x="2173.82" y="58236.7" width="152.371" height="6" style="fill:rgb(225,0,15);"/>
            </g>
            <g transform="matrix(1.14082,0,0,2.2139,2906.49,-73710.3)">
                <rect x="2173.47" y="58236.7" width="153.059" height="6" style="fill:rgb(225,0,15);"/>
            </g>
            <g transform="matrix(3.39624,0,0,2.2139,-2050.04,-73658.1)">
                <rect x="2177.27" y="58236.7" width="145.476" height="6" style="fill:rgb(225,0,15);"/>
            </g>
            <g transform="matrix(3.4393,0,0,2.2139,-2146.94,-73606)">
                <rect x="2177.29" y="58236.7" width="145.428" height="6" style="fill:rgb(225,0,15);"/>
            </g>
            <g transform="matrix(3.4393,0,0,2.2139,-2146.94,-73556.1)">
                <rect x="2177.29" y="58236.7" width="145.428" height="6" style="fill:rgb(225,0,15);"/>
            </g>
            <g transform="matrix(2.17125,0,0,2.2139,688.852,-74298.7)">
                <path d="M2759.27,58307.9L2754.96,58303.7L2813.11,58243.6L2817.42,58247.8L2759.27,58307.9Z" style="fill:rgb(225,0,15);"/>
            </g>
            <g transform="matrix(2.17125,0,0,2.2139,688.852,-74298.7)">
                <path d="M2779.83,58319.5L2775.55,58315.3L2854.92,58234.7L2859.19,58239L2779.83,58319.5Z" style="fill:rgb(225,0,15);"/>
            </g>
            <g transform="matrix(2.17125,0,0,2.2139,688.852,-74298.7)">
                <path d="M2800.1,58334.3L2795.81,58330.1L2885.92,58237.9L2890.21,58242.1L2800.1,58334.3Z" style="fill:rgb(225,0,15);"/>
            </g>
            <g transform="matrix(2.17125,0,0,2.2139,688.852,-74298.7)">
                <path d="M2865.31,58299.2L2861.07,58295L2912.07,58244L2916.31,58248.2L2865.31,58299.2Z" style="fill:rgb(225,0,15);"/>
            </g>
            <g transform="matrix(2.17125,0,0,2.2139,688.852,-74298.7)">
                <path d="M2903.73,58328.7L2899.49,58324.4L2952.06,58271.9L2956.31,58276.1L2903.73,58328.7Z" style="fill:rgb(225,0,15);"/>
            </g>
            <g transform="matrix(2.17125,0,0,2.2139,688.852,-74298.7)">
                <path d="M2890.99,58307.4L2886.75,58303.1L2934.59,58255.3L2938.84,58259.5L2890.99,58307.4Z" style="fill:rgb(225,0,15);"/>
            </g>
            <g transform="matrix(2.17125,0,0,2.2139,688.852,-74298.7)">
                <path d="M2964.63,58293.5L2968.87,58297.7L2832.39,58434.2L2828.15,58429.9L2964.63,58293.5Z" style="fill:rgb(225,0,15);"/>
            </g>
            <g transform="matrix(2.17125,0,0,2.2139,688.852,-74298.7)">
                <path d="M2969.58,58322.2L2973.82,58326.4L2865.93,58434.3L2861.69,58430.1L2969.58,58322.2Z" style="fill:rgb(225,0,15);"/>
            </g>
            <g transform="matrix(2.17125,0,0,2.2139,688.852,-74298.7)">
                <path d="M2962.39,58359L2966.63,58363.3L2890.25,58439.7L2886,58435.4L2962.39,58359Z" style="fill:rgb(225,0,15);"/>
            </g>
            <g transform="matrix(2.17125,0,0,2.2139,688.852,-74298.7)">
                <path d="M2949.58,58407L2953.82,58411.2L2910.82,58454.2L2906.58,58450L2949.58,58407Z" style="fill:rgb(225,0,15);"/>
            </g>
            <g transform="matrix(2.17125,0,0,2.2139,688.852,-74298.7)">
                <path d="M2966.96,58423.1L2971.2,58427.3L2920.68,58477.8L2916.44,58473.6L2966.96,58423.1Z" style="fill:rgb(225,0,15);"/>
            </g>
            <g transform="matrix(2.17125,0,0,2.2139,688.852,-74298.7)">
                <path d="M2978.47,58444.5L2982.72,58448.8L2844.96,58586.5L2840.71,58582.3L2978.47,58444.5Z" style="fill:rgb(225,0,15);"/>
            </g>
            <g transform="matrix(2.17125,0,0,2.2139,688.852,-74298.7)">
                <path d="M2983.84,58473.3L2988.09,58477.6L2875.78,58589.9L2871.54,58585.6L2983.84,58473.3Z" style="fill:rgb(225,0,15);"/>
            </g>
            <g transform="matrix(2.17125,0,0,2.2139,688.852,-74298.7)">
                <path d="M2979.2,58508.7L2983.45,58512.9L2914.84,58581.5L2910.6,58577.3L2979.2,58508.7Z" style="fill:rgb(225,0,15);"/>
            </g>
            <g transform="matrix(2.17125,0,0,2.2139,688.852,-74298.7)">
                <path d="M2865.48,58525.1L2869.72,58529.3L2817.08,58582L2812.83,58577.8L2865.48,58525.1Z" style="fill:rgb(225,0,15);"/>
            </g>
            <g transform="matrix(2.17125,0,0,2.2139,688.852,-74298.7)">
                <path d="M2837.05,58519.5L2841.29,58523.8L2793.16,58571.9L2788.92,58567.7L2837.05,58519.5Z" style="fill:rgb(225,0,15);"/>
            </g>
            <g transform="matrix(2.17125,0,0,2.2139,688.852,-74298.7)">
                <path d="M2816.09,58507.8L2820.33,58512L2773.73,58558.6L2769.48,58554.4L2816.09,58507.8Z" style="fill:rgb(225,0,15);"/>
            </g>
            <g transform="matrix(2.17125,0,0,2.2139,688.852,-74298.7)">
                <path d="M2800.45,58487.9L2804.7,58492.2L2756.12,58540.8L2751.88,58536.5L2800.45,58487.9Z" style="fill:rgb(225,0,15);"/>
            </g>
            <g transform="matrix(2.17125,0,0,2.2139,688.852,-74298.7)">
                <path d="M2777.97,58481.2L2782.21,58485.4L2743.43,58524.2L2739.19,58520L2777.97,58481.2Z" style="fill:rgb(225,0,15);"/>
            </g>
            <g transform="matrix(2.17125,0,0,2.2139,688.852,-74298.7)">
                <path d="M2854.86,58369.3L2859.1,58373.6L2809.45,58423.2L2805.2,58419L2854.86,58369.3Z" style="fill:rgb(225,0,15);"/>
            </g>
            <g transform="matrix(2.17125,0,0,2.2139,688.852,-74298.7)">
                <path d="M2821.3,58371.6L2825.55,58375.9L2809.87,58391.5L2805.63,58387.3L2821.3,58371.6Z" style="fill:rgb(225,0,15);"/>
            </g>
            <g transform="matrix(2.17125,0,0,2.2139,688.852,-74298.7)">
                <path d="M3071.71,58550.6L3066.59,58553.7L2999.18,58443.8L3004.29,58440.7L3071.71,58550.6Z" style="fill:rgb(225,0,15);"/>
            </g>
            <g transform="matrix(2.17125,0,0,2.2139,688.852,-74298.7)">
                <path d="M3099.1,58568.5L3093.73,58571.1L2999.06,58381.5L3004.43,58378.8L3099.1,58568.5Z" style="fill:rgb(225,0,15);"/>
            </g>
            <g transform="matrix(2.17125,0,0,2.2139,688.852,-74298.7)">
                <path d="M3117.52,58576.4L3111.94,58578.6L3016.11,58334.8L3021.7,58332.6L3117.52,58576.4Z" style="fill:rgb(225,0,15);"/>
            </g>
            <g transform="matrix(2.17125,0,0,2.2139,688.852,-74298.7)">
                <path d="M3041.47,58297L3047.21,58295.3L3132.87,58580.1L3127.12,58581.8L3041.47,58297Z" style="fill:rgb(225,0,15);"/>
            </g>
            <g transform="matrix(2.17125,0,0,2.2139,688.852,-74298.7)">
                <path d="M3074.18,58267.2L3080.06,58266L3145.19,58584.8L3139.31,58586L3074.18,58267.2Z" style="fill:rgb(225,0,15);"/>
            </g>
            <g transform="matrix(2.17125,0,0,2.2139,688.852,-74298.7)">
                <path d="M3111.62,58245.6L3117.58,58244.9L3157.79,58586.7L3151.83,58587.4L3111.62,58245.6Z" style="fill:rgb(225,0,15);"/>
            </g>
            <g transform="matrix(2.17125,0,0,2.2139,688.852,-74298.7)">
                <path d="M3153.02,58237L3159.02,58236.8L3169.3,58589.2L3163.3,58589.4L3153.02,58237Z" style="fill:rgb(225,0,15);"/>
            </g>
            <g transform="matrix(2.17125,0,0,2.2139,688.852,-74298.7)">
                <path d="M3194.18,58236.9L3200.17,58237.3L3179.88,58588.9L3173.89,58588.6L3194.18,58236.9Z" style="fill:rgb(225,0,15);"/>
            </g>
            <g transform="matrix(2.17125,0,0,2.2139,688.852,-74298.7)">
                <path d="M3236.13,58249L3242.07,58249.8L3192.53,58587.9L3186.59,58587L3236.13,58249Z" style="fill:rgb(225,0,15);"/>
            </g>
            <g transform="matrix(2.17125,0,0,2.2139,688.852,-74298.7)">
                <path d="M3271.09,58268.3L3276.94,58269.6L3204.77,58586.8L3198.92,58585.4L3271.09,58268.3Z" style="fill:rgb(225,0,15);"/>
            </g>
            <g transform="matrix(2.17125,0,0,2.2139,688.852,-74298.7)">
                <path d="M3304.98,58298.2L3310.68,58300.1L3217.98,58585.6L3212.27,58583.8L3304.98,58298.2Z" style="fill:rgb(225,0,15);"/>
            </g>
            <g transform="matrix(2.17125,0,0,2.2139,688.852,-74298.7)">
                <path d="M3328.76,58337.4L3334.31,58339.7L3234.6,58580.6L3229.06,58578.3L3328.76,58337.4Z" style="fill:rgb(225,0,15);"/>
            </g>
            <g transform="matrix(2.17125,0,0,2.2139,688.852,-74298.7)">
                <path d="M3344.15,58383.3L3349.47,58386.1L3252.6,58571.2L3247.28,58568.4L3344.15,58383.3Z" style="fill:rgb(225,0,15);"/>
            </g>
            <g transform="matrix(2.17125,0,0,2.2139,688.852,-74298.7)">
                <path d="M3340.96,58448.9L3345.98,58452.1L3276.12,58558.9L3271.1,58555.7L3340.96,58448.9Z" style="fill:rgb(225,0,15);"/>
            </g>
        </g>
    </g>
</svg>