<svg width="119" height="119" viewBox="0 0 119 119" fill="none" xmlns="http://www.w3.org/2000/svg">
<path fill-rule="evenodd" clip-rule="evenodd" d="M119 3.71875H100.771C92.36 3.71875 85.5312 11.2303 85.5312 20.4826V37.1875H103.904C112.236 37.1875 119 29.7464 119 20.5812V3.71875Z" fill="#000091"/>
<path fill-rule="evenodd" clip-rule="evenodd" d="M44.625 3.71875H62.8537C71.265 3.71875 78.0938 11.2303 78.0938 20.4826V37.1875H59.7215C51.3894 37.1875 44.625 29.7464 44.625 20.5812V3.71875Z" fill="#000091"/>
<path fill-rule="evenodd" clip-rule="evenodd" d="M2.27744e-08 44.625H18.2287C26.64 44.625 33.4688 52.1366 33.4688 61.3889V78.0938H15.0965C6.76438 78.0938 2.27744e-08 70.6526 2.27744e-08 61.4875V44.625Z" fill="#E1000F"/>
<path fill-rule="evenodd" clip-rule="evenodd" d="M2.27744e-08 85.5312H18.2287C26.64 85.5312 33.4688 93.0428 33.4688 102.295V119H15.0965C6.76438 119 2.27744e-08 111.559 2.27744e-08 102.394V85.5312Z" fill="#E1000F"/>
<path fill-rule="evenodd" clip-rule="evenodd" d="M44.625 44.625H62.8537C71.265 44.625 78.0938 52.1366 78.0938 61.3889V78.0938H59.7215C51.3894 78.0938 44.625 70.6526 44.625 61.4875V44.625Z" fill="#CECECE"/>
<path fill-rule="evenodd" clip-rule="evenodd" d="M119 44.625H100.771C92.36 44.625 85.5312 52.1366 85.5312 61.3889V78.0938H103.904C112.236 78.0938 119 70.6526 119 61.4875V44.625Z" fill="#CECECE"/>
<path fill-rule="evenodd" clip-rule="evenodd" d="M44.625 85.5312H62.8537C71.265 85.5312 78.0938 93.0428 78.0938 102.295V119H59.7215C51.3894 119 44.625 111.559 44.625 102.394V85.5312Z" fill="#CECECE"/>
<path fill-rule="evenodd" clip-rule="evenodd" d="M119 85.5312H100.771C92.36 85.5312 85.5312 93.0428 85.5312 102.295V119H103.904C112.236 119 119 111.559 119 102.394V85.5312Z" fill="#CECECE"/>
</svg>
